<?xml version="1.0" encoding="UTF-8" standalone="no"?>
<!DOCTYPE svg PUBLIC "-//W3C//DTD SVG 1.1//EN"
 "http://www.w3.org/Graphics/SVG/1.1/DTD/svg11.dtd">
<!-- Generated by graphviz version 12.1.2 (20240928.0832)
 -->
<!-- Title: oracleMSISDN_migration_lock Pages: 1 -->
<svg width="470pt" height="167pt"
 viewBox="0.00 0.00 469.85 166.80" xmlns="http://www.w3.org/2000/svg" xmlns:xlink="http://www.w3.org/1999/xlink">
<g id="graph0" class="graph" transform="scale(1 1) rotate(0) translate(4 162.8)">
<title>oracleMSISDN_migration_lock</title>
<polygon fill="white" stroke="none" points="-4,4 -4,-162.8 465.85,-162.8 465.85,4 -4,4"/>
<!-- oracleMSISDN_migration_lock -->
<g id="node1" class="node">
<title>oracleMSISDN_migration_lock</title>
<polygon fill="#efefef" stroke="none" points="46.2,-77 46.2,-112.6 415.65,-112.6 415.65,-77 46.2,-77"/>
<polygon fill="none" stroke="black" points="46.2,-77 46.2,-112.6 415.65,-112.6 415.65,-77 46.2,-77"/>
<text text-anchor="start" x="53.2" y="-90.4" font-family="Arial Bold" font-size="18.00">oracleMSISDN_migration_lock</text>
<text text-anchor="start" x="284.16" y="-90.4" font-family="Arial" font-size="14.00">    </text>
<text text-anchor="start" x="315.28" y="-90.4" font-family="Arial" font-size="14.00" fill="#666666">[BASE TABLE]</text>
<polygon fill="none" stroke="black" points="46.2,-46.2 46.2,-77 415.65,-77 415.65,-46.2 46.2,-46.2"/>
<text text-anchor="start" x="53.2" y="-58.4" font-family="Arial" font-size="14.00">index </text>
<text text-anchor="start" x="90.56" y="-58.4" font-family="Arial" font-size="14.00" fill="#666666">[int unsigned]</text>
<polygon fill="none" stroke="black" stroke-width="3" points="44.7,-44.7 44.7,-114.1 417.15,-114.1 417.15,-44.7 44.7,-44.7"/>
</g>
</g>
</svg>
