<?xml version="1.0" encoding="UTF-8" standalone="no"?>
<!DOCTYPE svg PUBLIC "-//W3C//DTD SVG 1.1//EN"
 "http://www.w3.org/Graphics/SVG/1.1/DTD/svg11.dtd">
<!-- Generated by graphviz version 12.1.2 (20240928.0832)
 -->
<!-- Title: als&#45;msisdn&#45;oracle Pages: 1 -->
<svg width="1252pt" height="192pt"
 viewBox="0.00 0.00 1252.36 191.60" xmlns="http://www.w3.org/2000/svg" xmlns:xlink="http://www.w3.org/1999/xlink">
<g id="graph0" class="graph" transform="scale(1 1) rotate(0) translate(4 187.6)">
<title>als&#45;msisdn&#45;oracle</title>
<polygon fill="white" stroke="none" points="-4,4 -4,-187.6 1248.36,-187.6 1248.36,4 -4,4"/>
<!-- oracleMSISDN -->
<g id="node1" class="node">
<title>oracleMSISDN</title>
<polygon fill="#efefef" stroke="none" points="43.2,-104.8 43.2,-140.4 293.67,-140.4 293.67,-104.8 43.2,-104.8"/>
<polygon fill="none" stroke="black" points="43.2,-104.8 43.2,-140.4 293.67,-140.4 293.67,-104.8 43.2,-104.8"/>
<text text-anchor="start" x="50.2" y="-118.2" font-family="Arial Bold" font-size="18.00">oracleMSISDN</text>
<text text-anchor="start" x="162.18" y="-118.2" font-family="Arial" font-size="14.00">    </text>
<text text-anchor="start" x="193.3" y="-118.2" font-family="Arial" font-size="14.00" fill="#666666">[BASE TABLE]</text>
<polygon fill="none" stroke="black" points="43.2,-74 43.2,-104.8 293.67,-104.8 293.67,-74 43.2,-74"/>
<text text-anchor="start" x="50.2" y="-86.2" font-family="Arial" font-size="14.00">id </text>
<text text-anchor="start" x="64.99" y="-86.2" font-family="Arial" font-size="14.00" fill="#666666">[varchar(255)]</text>
<polygon fill="none" stroke="black" points="43.2,-43.2 43.2,-74 293.67,-74 293.67,-43.2 43.2,-43.2"/>
<text text-anchor="start" x="50.2" y="-55.4" font-family="Arial" font-size="14.00">subId </text>
<text text-anchor="start" x="88.34" y="-55.4" font-family="Arial" font-size="14.00" fill="#666666">[varchar(255)]</text>
</g>
<!-- oracleMSISDN_migration -->
<g id="node2" class="node">
<title>oracleMSISDN_migration</title>
<polygon fill="#efefef" stroke="none" points="397.71,-89.4 397.71,-125 727.16,-125 727.16,-89.4 397.71,-89.4"/>
<polygon fill="none" stroke="black" points="397.71,-89.4 397.71,-125 727.16,-125 727.16,-89.4 397.71,-89.4"/>
<text text-anchor="start" x="404.71" y="-102.8" font-family="Arial Bold" font-size="18.00">oracleMSISDN_migration</text>
<text text-anchor="start" x="595.68" y="-102.8" font-family="Arial" font-size="14.00">    </text>
<text text-anchor="start" x="626.79" y="-102.8" font-family="Arial" font-size="14.00" fill="#666666">[BASE TABLE]</text>
<polygon fill="none" stroke="black" points="397.71,-58.6 397.71,-89.4 727.16,-89.4 727.16,-58.6 397.71,-58.6"/>
<text text-anchor="start" x="404.71" y="-70.8" font-family="Arial" font-size="14.00">id </text>
<text text-anchor="start" x="419.49" y="-70.8" font-family="Arial" font-size="14.00" fill="#666666">[int unsigned]</text>
</g>
<!-- oracleMSISDN_migration_lock -->
<g id="node3" class="node">
<title>oracleMSISDN_migration_lock</title>
<polygon fill="#efefef" stroke="none" points="831.71,-89.4 831.71,-125 1201.16,-125 1201.16,-89.4 831.71,-89.4"/>
<polygon fill="none" stroke="black" points="831.71,-89.4 831.71,-125 1201.16,-125 1201.16,-89.4 831.71,-89.4"/>
<text text-anchor="start" x="838.71" y="-102.8" font-family="Arial Bold" font-size="18.00">oracleMSISDN_migration_lock</text>
<text text-anchor="start" x="1069.67" y="-102.8" font-family="Arial" font-size="14.00">    </text>
<text text-anchor="start" x="1100.79" y="-102.8" font-family="Arial" font-size="14.00" fill="#666666">[BASE TABLE]</text>
<polygon fill="none" stroke="black" points="831.71,-58.6 831.71,-89.4 1201.16,-89.4 1201.16,-58.6 831.71,-58.6"/>
<text text-anchor="start" x="838.71" y="-70.8" font-family="Arial" font-size="14.00">index </text>
<text text-anchor="start" x="876.07" y="-70.8" font-family="Arial" font-size="14.00" fill="#666666">[int unsigned]</text>
</g>
</g>
</svg>
