<?xml version="1.0" encoding="UTF-8" standalone="no"?>
<!DOCTYPE svg PUBLIC "-//W3C//DTD SVG 1.1//EN"
 "http://www.w3.org/Graphics/SVG/1.1/DTD/svg11.dtd">
<!-- Generated by graphviz version 12.1.2 (20240928.0832)
 -->
<!-- Title: amountType Pages: 1 -->
<svg width="2510pt" height="602pt"
 viewBox="0.00 0.00 2509.83 602.00" xmlns="http://www.w3.org/2000/svg" xmlns:xlink="http://www.w3.org/1999/xlink">
<g id="graph0" class="graph" transform="scale(1 1) rotate(0) translate(4 598)">
<title>amountType</title>
<polygon fill="white" stroke="none" points="-4,4 -4,-598 2505.83,-598 2505.83,4 -4,4"/>
<!-- amountType -->
<g id="node1" class="node">
<title>amountType</title>
<polygon fill="#efefef" stroke="none" points="1079.09,-77 1079.09,-112.6 1308.55,-112.6 1308.55,-77 1079.09,-77"/>
<polygon fill="none" stroke="black" points="1079.09,-77 1079.09,-112.6 1308.55,-112.6 1308.55,-77 1079.09,-77"/>
<text text-anchor="start" x="1086.09" y="-90.4" font-family="Arial Bold" font-size="18.00">amountType</text>
<text text-anchor="start" x="1177.07" y="-90.4" font-family="Arial" font-size="14.00">    </text>
<text text-anchor="start" x="1208.18" y="-90.4" font-family="Arial" font-size="14.00" fill="#666666">[BASE TABLE]</text>
<polygon fill="none" stroke="black" points="1079.09,-46.2 1079.09,-77 1308.55,-77 1308.55,-46.2 1079.09,-46.2"/>
<text text-anchor="start" x="1086.09" y="-58.4" font-family="Arial" font-size="14.00">amountTypeId </text>
<text text-anchor="start" x="1179.48" y="-58.4" font-family="Arial" font-size="14.00" fill="#666666">[int unsigned]</text>
<polygon fill="none" stroke="black" stroke-width="3" points="1077.59,-44.7 1077.59,-114.1 1310.05,-114.1 1310.05,-44.7 1077.59,-44.7"/>
</g>
<!-- fxQuoteConversionTerms -->
<g id="node2" class="node">
<title>fxQuoteConversionTerms</title>
<polygon fill="#efefef" stroke="none" points="43.2,-453.6 43.2,-489.2 740.45,-489.2 740.45,-453.6 43.2,-453.6"/>
<polygon fill="none" stroke="black" points="43.2,-453.6 43.2,-489.2 740.45,-489.2 740.45,-453.6 43.2,-453.6"/>
<text text-anchor="start" x="235.6" y="-467" font-family="Arial Bold" font-size="18.00">fxQuoteConversionTerms</text>
<text text-anchor="start" x="423.56" y="-467" font-family="Arial" font-size="14.00">    </text>
<text text-anchor="start" x="454.68" y="-467" font-family="Arial" font-size="14.00" fill="#666666">[BASE TABLE]</text>
<polygon fill="none" stroke="black" points="43.2,-422.8 43.2,-453.6 740.45,-453.6 740.45,-422.8 43.2,-422.8"/>
<text text-anchor="start" x="50.2" y="-435" font-family="Arial" font-size="14.00">conversionId </text>
<text text-anchor="start" x="133.47" y="-435" font-family="Arial" font-size="14.00" fill="#666666">[varchar(255)]</text>
<polygon fill="none" stroke="black" points="43.2,-392 43.2,-422.8 740.45,-422.8 740.45,-392 43.2,-392"/>
<text text-anchor="start" x="50.2" y="-404.2" font-family="Arial" font-size="14.00">conversionRequestId </text>
<text text-anchor="start" x="185.61" y="-404.2" font-family="Arial" font-size="14.00" fill="#666666">[varchar(36)]</text>
<polygon fill="none" stroke="black" points="43.2,-361.2 43.2,-392 740.45,-392 740.45,-361.2 43.2,-361.2"/>
<text text-anchor="start" x="50.2" y="-373.4" font-family="Arial" font-size="14.00">amountTypeId </text>
<text text-anchor="start" x="143.59" y="-373.4" font-family="Arial" font-size="14.00" fill="#666666">[int unsigned]</text>
<text text-anchor="start" x="226.87" y="-373.4" font-family="Arial" font-size="14.00"> This is part of the transaction type that contains valid elements for &#45; Amount Type</text>
<polygon fill="none" stroke="black" points="43.2,-330.4 43.2,-361.2 740.45,-361.2 740.45,-330.4 43.2,-330.4"/>
<text text-anchor="start" x="50.2" y="-342.6" font-family="Arial" font-size="14.00">sourceCurrency </text>
<text text-anchor="start" x="152.9" y="-342.6" font-family="Arial" font-size="14.00" fill="#666666">[varchar(3)]</text>
<polygon fill="none" stroke="black" points="43.2,-299.6 43.2,-330.4 740.45,-330.4 740.45,-299.6 43.2,-299.6"/>
<text text-anchor="start" x="50.2" y="-311.8" font-family="Arial" font-size="14.00">targetCurrency </text>
<text text-anchor="start" x="146.68" y="-311.8" font-family="Arial" font-size="14.00" fill="#666666">[varchar(3)]</text>
</g>
<!-- fxQuoteConversionTerms&#45;&gt;amountType -->
<g id="edge1" class="edge">
<title>fxQuoteConversionTerms:amountTypeId&#45;&gt;amountType:amountTypeId</title>
<path fill="none" stroke="black" d="M751.75,-375.9C817.88,-366.12 740.87,-255.89 792.82,-194.8 883.47,-88.2 938.16,-61.6 1078.09,-61.6"/>
<polygon fill="black" stroke="black" points="751.76,-375.9 741.47,-372.09 746.43,-376.26 742.11,-376.55 742.11,-376.55 742.11,-376.55 746.43,-376.26 742.08,-381.07 751.76,-375.9"/>
<text text-anchor="start" x="748.45" y="-386.6" font-family="Arial" font-size="10.00">FOREIGN KEY (amountTypeId) REFERENCES amountType (amountTypeId)</text>
</g>
<!-- fxQuoteResponseConversionTerms -->
<g id="node3" class="node">
<title>fxQuoteResponseConversionTerms</title>
<polygon fill="#efefef" stroke="none" points="845.2,-469 845.2,-504.6 1542.45,-504.6 1542.45,-469 845.2,-469"/>
<polygon fill="none" stroke="black" points="845.2,-469 845.2,-504.6 1542.45,-504.6 1542.45,-469 845.2,-469"/>
<text text-anchor="start" x="1003.1" y="-482.4" font-family="Arial Bold" font-size="18.00">fxQuoteResponseConversionTerms</text>
<text text-anchor="start" x="1260.06" y="-482.4" font-family="Arial" font-size="14.00">    </text>
<text text-anchor="start" x="1291.17" y="-482.4" font-family="Arial" font-size="14.00" fill="#666666">[BASE TABLE]</text>
<polygon fill="none" stroke="black" points="845.2,-438.2 845.2,-469 1542.45,-469 1542.45,-438.2 845.2,-438.2"/>
<text text-anchor="start" x="852.2" y="-450.4" font-family="Arial" font-size="14.00">conversionId </text>
<text text-anchor="start" x="935.47" y="-450.4" font-family="Arial" font-size="14.00" fill="#666666">[varchar(255)]</text>
<polygon fill="none" stroke="black" points="845.2,-407.4 845.2,-438.2 1542.45,-438.2 1542.45,-407.4 845.2,-407.4"/>
<text text-anchor="start" x="852.2" y="-419.6" font-family="Arial" font-size="14.00">conversionRequestId </text>
<text text-anchor="start" x="987.61" y="-419.6" font-family="Arial" font-size="14.00" fill="#666666">[varchar(36)]</text>
<polygon fill="none" stroke="black" points="845.2,-376.6 845.2,-407.4 1542.45,-407.4 1542.45,-376.6 845.2,-376.6"/>
<text text-anchor="start" x="852.2" y="-388.8" font-family="Arial" font-size="14.00">fxQuoteResponseId </text>
<text text-anchor="start" x="979.83" y="-388.8" font-family="Arial" font-size="14.00" fill="#666666">[bigint unsigned]</text>
<polygon fill="none" stroke="black" points="845.2,-345.8 845.2,-376.6 1542.45,-376.6 1542.45,-345.8 845.2,-345.8"/>
<text text-anchor="start" x="852.2" y="-358" font-family="Arial" font-size="14.00">amountTypeId </text>
<text text-anchor="start" x="945.59" y="-358" font-family="Arial" font-size="14.00" fill="#666666">[int unsigned]</text>
<text text-anchor="start" x="1028.87" y="-358" font-family="Arial" font-size="14.00"> This is part of the transaction type that contains valid elements for &#45; Amount Type</text>
<polygon fill="none" stroke="black" points="845.2,-315 845.2,-345.8 1542.45,-345.8 1542.45,-315 845.2,-315"/>
<text text-anchor="start" x="852.2" y="-327.2" font-family="Arial" font-size="14.00">sourceCurrency </text>
<text text-anchor="start" x="954.9" y="-327.2" font-family="Arial" font-size="14.00" fill="#666666">[varchar(3)]</text>
<polygon fill="none" stroke="black" points="845.2,-284.2 845.2,-315 1542.45,-315 1542.45,-284.2 845.2,-284.2"/>
<text text-anchor="start" x="852.2" y="-296.4" font-family="Arial" font-size="14.00">targetCurrency </text>
<text text-anchor="start" x="948.68" y="-296.4" font-family="Arial" font-size="14.00" fill="#666666">[varchar(3)]</text>
</g>
<!-- fxQuoteResponseConversionTerms&#45;&gt;amountType -->
<g id="edge2" class="edge">
<title>fxQuoteResponseConversionTerms:amountTypeId&#45;&gt;amountType:amountTypeId</title>
<path fill="none" stroke="black" d="M1553.8,-360.53C1653.96,-346.86 1542.83,-126.85 1354.75,-46.2 1289.02,-18.01 1193.82,26.33 1193.82,-45.2"/>
<polygon fill="black" stroke="black" points="1553.76,-360.54 1543.49,-356.69 1548.43,-360.88 1544.11,-361.16 1544.11,-361.16 1544.11,-361.16 1548.43,-360.88 1544.07,-365.67 1553.76,-360.54"/>
<text text-anchor="start" x="1371.16" y="-345.2" font-family="Arial" font-size="10.00">FOREIGN KEY (amountTypeId) REFERENCES amountType (amountTypeId)</text>
</g>
<!-- quote -->
<g id="node4" class="node">
<title>quote</title>
<polygon fill="#efefef" stroke="none" points="1647.02,-515.2 1647.02,-550.8 2458.63,-550.8 2458.63,-515.2 1647.02,-515.2"/>
<polygon fill="none" stroke="black" points="1647.02,-515.2 1647.02,-550.8 2458.63,-550.8 2458.63,-515.2 1647.02,-515.2"/>
<text text-anchor="start" x="1970.58" y="-528.6" font-family="Arial Bold" font-size="18.00">quote</text>
<text text-anchor="start" x="2010.57" y="-528.6" font-family="Arial" font-size="14.00">    </text>
<text text-anchor="start" x="2041.69" y="-528.6" font-family="Arial" font-size="14.00" fill="#666666">[BASE TABLE]</text>
<polygon fill="none" stroke="black" points="1647.02,-484.4 1647.02,-515.2 2458.63,-515.2 2458.63,-484.4 1647.02,-484.4"/>
<text text-anchor="start" x="1654.02" y="-496.6" font-family="Arial" font-size="14.00">quoteId </text>
<text text-anchor="start" x="1704.62" y="-496.6" font-family="Arial" font-size="14.00" fill="#666666">[varchar(36)]</text>
<polygon fill="none" stroke="black" points="1647.02,-453.6 1647.02,-484.4 2458.63,-484.4 2458.63,-453.6 1647.02,-453.6"/>
<text text-anchor="start" x="1654.02" y="-465.8" font-family="Arial" font-size="14.00">transactionReferenceId </text>
<text text-anchor="start" x="1802.66" y="-465.8" font-family="Arial" font-size="14.00" fill="#666666">[varchar(36)]</text>
<text text-anchor="start" x="1882.02" y="-465.8" font-family="Arial" font-size="14.00"> Common ID (decided by the Payer FSP) between the FSPs for the future transaction object</text>
<polygon fill="none" stroke="black" points="1647.02,-422.8 1647.02,-453.6 2458.63,-453.6 2458.63,-422.8 1647.02,-422.8"/>
<text text-anchor="start" x="1654.02" y="-435" font-family="Arial" font-size="14.00">transactionInitiatorId </text>
<text text-anchor="start" x="1783.98" y="-435" font-family="Arial" font-size="14.00" fill="#666666">[int unsigned]</text>
<text text-anchor="start" x="1867.26" y="-435" font-family="Arial" font-size="14.00"> This is part of the transaction initiator</text>
<polygon fill="none" stroke="black" points="1647.02,-392 1647.02,-422.8 2458.63,-422.8 2458.63,-392 1647.02,-392"/>
<text text-anchor="start" x="1654.02" y="-404.2" font-family="Arial" font-size="14.00">transactionInitiatorTypeId </text>
<text text-anchor="start" x="1815.1" y="-404.2" font-family="Arial" font-size="14.00" fill="#666666">[int unsigned]</text>
<text text-anchor="start" x="1898.38" y="-404.2" font-family="Arial" font-size="14.00"> This is part of the transaction initiator type</text>
<polygon fill="none" stroke="black" points="1647.02,-361.2 1647.02,-392 2458.63,-392 2458.63,-361.2 1647.02,-361.2"/>
<text text-anchor="start" x="1654.02" y="-373.4" font-family="Arial" font-size="14.00">transactionScenarioId </text>
<text text-anchor="start" x="1793.32" y="-373.4" font-family="Arial" font-size="14.00" fill="#666666">[int unsigned]</text>
<text text-anchor="start" x="1876.6" y="-373.4" font-family="Arial" font-size="14.00"> This is part of the transaction scenario</text>
<polygon fill="none" stroke="black" points="1647.02,-330.4 1647.02,-361.2 2458.63,-361.2 2458.63,-330.4 1647.02,-330.4"/>
<text text-anchor="start" x="1654.02" y="-342.6" font-family="Arial" font-size="14.00">balanceOfPaymentsId </text>
<text text-anchor="start" x="1795.65" y="-342.6" font-family="Arial" font-size="14.00" fill="#666666">[int unsigned]</text>
<text text-anchor="start" x="1878.93" y="-342.6" font-family="Arial" font-size="14.00"> This is part of the transaction type that contains the elements&#45; balance of payment</text>
<polygon fill="none" stroke="black" points="1647.02,-299.6 1647.02,-330.4 2458.63,-330.4 2458.63,-299.6 1647.02,-299.6"/>
<text text-anchor="start" x="1654.02" y="-311.8" font-family="Arial" font-size="14.00">transactionSubScenarioId </text>
<text text-anchor="start" x="1818.23" y="-311.8" font-family="Arial" font-size="14.00" fill="#666666">[int unsigned]</text>
<text text-anchor="start" x="1901.51" y="-311.8" font-family="Arial" font-size="14.00"> This is part of the transaction type sub scenario as defined by the local scheme</text>
<polygon fill="none" stroke="black" points="1647.02,-268.8 1647.02,-299.6 2458.63,-299.6 2458.63,-268.8 1647.02,-268.8"/>
<text text-anchor="start" x="1654.02" y="-281" font-family="Arial" font-size="14.00">amountTypeId </text>
<text text-anchor="start" x="1747.4" y="-281" font-family="Arial" font-size="14.00" fill="#666666">[int unsigned]</text>
<text text-anchor="start" x="1830.69" y="-281" font-family="Arial" font-size="14.00"> This is part of the transaction type that contains valid elements for &#45; Amount Type</text>
<polygon fill="none" stroke="black" points="1647.02,-238 1647.02,-268.8 2458.63,-268.8 2458.63,-238 1647.02,-238"/>
<text text-anchor="start" x="1654.02" y="-250.2" font-family="Arial" font-size="14.00">currencyId </text>
<text text-anchor="start" x="1723.27" y="-250.2" font-family="Arial" font-size="14.00" fill="#666666">[varchar(255)]</text>
<text text-anchor="start" x="1810.41" y="-250.2" font-family="Arial" font-size="14.00"> Trading currency pertaining to the Amount</text>
</g>
<!-- quote&#45;&gt;amountType -->
<g id="edge3" class="edge">
<title>quote:amountTypeId&#45;&gt;amountType:amountTypeId</title>
<path fill="none" stroke="black" d="M1635.77,-282.96C1604.63,-274.37 1625.62,-223.14 1594.82,-194.8 1491.85,-100.06 1449.48,-61.6 1309.55,-61.6"/>
<polygon fill="black" stroke="black" points="1635.76,-282.96 1645.15,-288.63 1641.05,-283.6 1645.35,-284.12 1645.35,-284.12 1645.35,-284.12 1641.05,-283.6 1646.23,-279.69 1635.76,-282.96"/>
<text text-anchor="start" x="1384.1" y="-268.2" font-family="Arial" font-size="10.00">FOREIGN KEY (amountTypeId) REFERENCES amountType (amountTypeId)</text>
</g>
</g>
</svg>
