<?xml version="1.0" encoding="UTF-8" standalone="no"?>
<!DOCTYPE svg PUBLIC "-//W3C//DTD SVG 1.1//EN"
 "http://www.w3.org/Graphics/SVG/1.1/DTD/svg11.dtd">
<!-- Generated by graphviz version 12.1.2 (20240928.0832)
 -->
<!-- Title: amountType Pages: 1 -->
<svg width="1339pt" height="848pt"
 viewBox="0.00 0.00 1339.24 848.40" xmlns="http://www.w3.org/2000/svg" xmlns:xlink="http://www.w3.org/1999/xlink">
<g id="graph0" class="graph" transform="scale(1 1) rotate(0) translate(4 844.4)">
<title>amountType</title>
<polygon fill="white" stroke="none" points="-4,4 -4,-844.4 1335.24,-844.4 1335.24,4 -4,4"/>
<!-- amountType -->
<g id="node1" class="node">
<title>amountType</title>
<polygon fill="#efefef" stroke="none" points="556.69,-169.4 556.69,-205 786.16,-205 786.16,-169.4 556.69,-169.4"/>
<polygon fill="none" stroke="black" points="556.69,-169.4 556.69,-205 786.16,-205 786.16,-169.4 556.69,-169.4"/>
<text text-anchor="start" x="563.69" y="-182.8" font-family="Arial Bold" font-size="18.00">amountType</text>
<text text-anchor="start" x="654.67" y="-182.8" font-family="Arial" font-size="14.00">    </text>
<text text-anchor="start" x="685.79" y="-182.8" font-family="Arial" font-size="14.00" fill="#666666">[BASE TABLE]</text>
<polygon fill="none" stroke="black" points="556.69,-138.6 556.69,-169.4 786.16,-169.4 786.16,-138.6 556.69,-138.6"/>
<text text-anchor="start" x="563.69" y="-150.8" font-family="Arial" font-size="14.00">amountTypeId </text>
<text text-anchor="start" x="657.08" y="-150.8" font-family="Arial" font-size="14.00" fill="#666666">[int unsigned]</text>
<polygon fill="none" stroke="black" points="556.69,-107.8 556.69,-138.6 786.16,-138.6 786.16,-107.8 556.69,-107.8"/>
<text text-anchor="start" x="563.69" y="-120" font-family="Arial" font-size="14.00">name </text>
<text text-anchor="start" x="602.6" y="-120" font-family="Arial" font-size="14.00" fill="#666666">[varchar(256)]</text>
<polygon fill="none" stroke="black" points="556.69,-77 556.69,-107.8 786.16,-107.8 786.16,-77 556.69,-77"/>
<text text-anchor="start" x="563.69" y="-89.2" font-family="Arial" font-size="14.00">description </text>
<text text-anchor="start" x="635.29" y="-89.2" font-family="Arial" font-size="14.00" fill="#666666">[varchar(1024)]</text>
<polygon fill="none" stroke="black" points="556.69,-46.2 556.69,-77 786.16,-77 786.16,-46.2 556.69,-46.2"/>
<text text-anchor="start" x="563.69" y="-58.4" font-family="Arial" font-size="14.00">createdDate </text>
<text text-anchor="start" x="643.85" y="-58.4" font-family="Arial" font-size="14.00" fill="#666666">[datetime]</text>
<polygon fill="none" stroke="black" stroke-width="3" points="555.19,-44.7 555.19,-206.5 787.66,-206.5 787.66,-44.7 555.19,-44.7"/>
</g>
<!-- fxQuoteConversionTerms -->
<g id="node2" class="node">
<title>fxQuoteConversionTerms</title>
<polygon fill="#efefef" stroke="none" points="43.2,-730.8 43.2,-766.4 369.65,-766.4 369.65,-730.8 43.2,-730.8"/>
<polygon fill="none" stroke="black" points="43.2,-730.8 43.2,-766.4 369.65,-766.4 369.65,-730.8 43.2,-730.8"/>
<text text-anchor="start" x="50.2" y="-744.2" font-family="Arial Bold" font-size="18.00">fxQuoteConversionTerms</text>
<text text-anchor="start" x="238.16" y="-744.2" font-family="Arial" font-size="14.00">    </text>
<text text-anchor="start" x="269.28" y="-744.2" font-family="Arial" font-size="14.00" fill="#666666">[BASE TABLE]</text>
<polygon fill="none" stroke="black" points="43.2,-700 43.2,-730.8 369.65,-730.8 369.65,-700 43.2,-700"/>
<text text-anchor="start" x="50.2" y="-712.2" font-family="Arial" font-size="14.00">conversionId </text>
<text text-anchor="start" x="133.47" y="-712.2" font-family="Arial" font-size="14.00" fill="#666666">[varchar(255)]</text>
<polygon fill="none" stroke="black" points="43.2,-669.2 43.2,-700 369.65,-700 369.65,-669.2 43.2,-669.2"/>
<text text-anchor="start" x="50.2" y="-681.4" font-family="Arial" font-size="14.00">determiningTransferId </text>
<text text-anchor="start" x="191.04" y="-681.4" font-family="Arial" font-size="14.00" fill="#666666">[varchar(36)]</text>
<polygon fill="none" stroke="black" points="43.2,-638.4 43.2,-669.2 369.65,-669.2 369.65,-638.4 43.2,-638.4"/>
<text text-anchor="start" x="50.2" y="-650.6" font-family="Arial" font-size="14.00">conversionRequestId </text>
<text text-anchor="start" x="185.61" y="-650.6" font-family="Arial" font-size="14.00" fill="#666666">[varchar(36)]</text>
<polygon fill="none" stroke="black" points="43.2,-607.6 43.2,-638.4 369.65,-638.4 369.65,-607.6 43.2,-607.6"/>
<text text-anchor="start" x="50.2" y="-619.8" font-family="Arial" font-size="14.00">amountTypeId </text>
<text text-anchor="start" x="143.59" y="-619.8" font-family="Arial" font-size="14.00" fill="#666666">[int unsigned]</text>
<polygon fill="none" stroke="black" points="43.2,-576.8 43.2,-607.6 369.65,-607.6 369.65,-576.8 43.2,-576.8"/>
<text text-anchor="start" x="50.2" y="-589" font-family="Arial" font-size="14.00">initiatingFsp </text>
<text text-anchor="start" x="128.79" y="-589" font-family="Arial" font-size="14.00" fill="#666666">[varchar(255)]</text>
<polygon fill="none" stroke="black" points="43.2,-546 43.2,-576.8 369.65,-576.8 369.65,-546 43.2,-546"/>
<text text-anchor="start" x="50.2" y="-558.2" font-family="Arial" font-size="14.00">counterPartyFsp </text>
<text text-anchor="start" x="156.8" y="-558.2" font-family="Arial" font-size="14.00" fill="#666666">[varchar(255)]</text>
<polygon fill="none" stroke="black" points="43.2,-515.2 43.2,-546 369.65,-546 369.65,-515.2 43.2,-515.2"/>
<text text-anchor="start" x="50.2" y="-527.4" font-family="Arial" font-size="14.00">sourceAmount </text>
<text text-anchor="start" x="144.36" y="-527.4" font-family="Arial" font-size="14.00" fill="#666666">[decimal(18,4)]</text>
<polygon fill="none" stroke="black" points="43.2,-484.4 43.2,-515.2 369.65,-515.2 369.65,-484.4 43.2,-484.4"/>
<text text-anchor="start" x="50.2" y="-496.6" font-family="Arial" font-size="14.00">sourceCurrency </text>
<text text-anchor="start" x="152.9" y="-496.6" font-family="Arial" font-size="14.00" fill="#666666">[varchar(3)]</text>
<polygon fill="none" stroke="black" points="43.2,-453.6 43.2,-484.4 369.65,-484.4 369.65,-453.6 43.2,-453.6"/>
<text text-anchor="start" x="50.2" y="-465.8" font-family="Arial" font-size="14.00">targetAmount </text>
<text text-anchor="start" x="138.14" y="-465.8" font-family="Arial" font-size="14.00" fill="#666666">[decimal(18,4)]</text>
<polygon fill="none" stroke="black" points="43.2,-422.8 43.2,-453.6 369.65,-453.6 369.65,-422.8 43.2,-422.8"/>
<text text-anchor="start" x="50.2" y="-435" font-family="Arial" font-size="14.00">targetCurrency </text>
<text text-anchor="start" x="146.68" y="-435" font-family="Arial" font-size="14.00" fill="#666666">[varchar(3)]</text>
<polygon fill="none" stroke="black" points="43.2,-392 43.2,-422.8 369.65,-422.8 369.65,-392 43.2,-392"/>
<text text-anchor="start" x="50.2" y="-404.2" font-family="Arial" font-size="14.00">expirationDate </text>
<text text-anchor="start" x="144.37" y="-404.2" font-family="Arial" font-size="14.00" fill="#666666">[datetime]</text>
<polygon fill="none" stroke="black" points="43.2,-361.2 43.2,-392 369.65,-392 369.65,-361.2 43.2,-361.2"/>
<text text-anchor="start" x="50.2" y="-373.4" font-family="Arial" font-size="14.00">createdDate </text>
<text text-anchor="start" x="130.36" y="-373.4" font-family="Arial" font-size="14.00" fill="#666666">[datetime]</text>
</g>
<!-- fxQuoteConversionTerms&#45;&gt;amountType -->
<g id="edge1" class="edge">
<title>fxQuoteConversionTerms:amountTypeId&#45;&gt;amountType:amountTypeId</title>
<path fill="none" stroke="black" d="M380.77,-621.13C440.6,-597.26 388.93,-351.21 421.43,-287.2 459.47,-212.25 471.64,-154 555.69,-154"/>
<polygon fill="black" stroke="black" points="380.82,-621.13 370.17,-618.51 375.57,-622.09 371.31,-622.88 371.31,-622.88 371.31,-622.88 375.57,-622.09 371.8,-627.36 380.82,-621.13"/>
<text text-anchor="start" x="377.65" y="-633" font-family="Arial" font-size="10.00">FOREIGN KEY (amountTypeId) REFERENCES amountType (amountTypeId)</text>
</g>
<!-- fxQuoteResponseConversionTerms -->
<g id="node3" class="node">
<title>fxQuoteResponseConversionTerms</title>
<polygon fill="#efefef" stroke="none" points="473.7,-746.2 473.7,-781.8 869.15,-781.8 869.15,-746.2 473.7,-746.2"/>
<polygon fill="none" stroke="black" points="473.7,-746.2 473.7,-781.8 869.15,-781.8 869.15,-746.2 473.7,-746.2"/>
<text text-anchor="start" x="480.7" y="-759.6" font-family="Arial Bold" font-size="18.00">fxQuoteResponseConversionTerms</text>
<text text-anchor="start" x="737.66" y="-759.6" font-family="Arial" font-size="14.00">    </text>
<text text-anchor="start" x="768.78" y="-759.6" font-family="Arial" font-size="14.00" fill="#666666">[BASE TABLE]</text>
<polygon fill="none" stroke="black" points="473.7,-715.4 473.7,-746.2 869.15,-746.2 869.15,-715.4 473.7,-715.4"/>
<text text-anchor="start" x="480.7" y="-727.6" font-family="Arial" font-size="14.00">conversionId </text>
<text text-anchor="start" x="563.97" y="-727.6" font-family="Arial" font-size="14.00" fill="#666666">[varchar(255)]</text>
<polygon fill="none" stroke="black" points="473.7,-684.6 473.7,-715.4 869.15,-715.4 869.15,-684.6 473.7,-684.6"/>
<text text-anchor="start" x="480.7" y="-696.8" font-family="Arial" font-size="14.00">determiningTransferId </text>
<text text-anchor="start" x="621.54" y="-696.8" font-family="Arial" font-size="14.00" fill="#666666">[varchar(36)]</text>
<polygon fill="none" stroke="black" points="473.7,-653.8 473.7,-684.6 869.15,-684.6 869.15,-653.8 473.7,-653.8"/>
<text text-anchor="start" x="480.7" y="-666" font-family="Arial" font-size="14.00">conversionRequestId </text>
<text text-anchor="start" x="616.12" y="-666" font-family="Arial" font-size="14.00" fill="#666666">[varchar(36)]</text>
<polygon fill="none" stroke="black" points="473.7,-623 473.7,-653.8 869.15,-653.8 869.15,-623 473.7,-623"/>
<text text-anchor="start" x="480.7" y="-635.2" font-family="Arial" font-size="14.00">fxQuoteResponseId </text>
<text text-anchor="start" x="608.34" y="-635.2" font-family="Arial" font-size="14.00" fill="#666666">[bigint unsigned]</text>
<polygon fill="none" stroke="black" points="473.7,-592.2 473.7,-623 869.15,-623 869.15,-592.2 473.7,-592.2"/>
<text text-anchor="start" x="480.7" y="-604.4" font-family="Arial" font-size="14.00">amountTypeId </text>
<text text-anchor="start" x="574.09" y="-604.4" font-family="Arial" font-size="14.00" fill="#666666">[int unsigned]</text>
<polygon fill="none" stroke="black" points="473.7,-561.4 473.7,-592.2 869.15,-592.2 869.15,-561.4 473.7,-561.4"/>
<text text-anchor="start" x="480.7" y="-573.6" font-family="Arial" font-size="14.00">initiatingFsp </text>
<text text-anchor="start" x="559.3" y="-573.6" font-family="Arial" font-size="14.00" fill="#666666">[varchar(255)]</text>
<polygon fill="none" stroke="black" points="473.7,-530.6 473.7,-561.4 869.15,-561.4 869.15,-530.6 473.7,-530.6"/>
<text text-anchor="start" x="480.7" y="-542.8" font-family="Arial" font-size="14.00">counterPartyFsp </text>
<text text-anchor="start" x="587.3" y="-542.8" font-family="Arial" font-size="14.00" fill="#666666">[varchar(255)]</text>
<polygon fill="none" stroke="black" points="473.7,-499.8 473.7,-530.6 869.15,-530.6 869.15,-499.8 473.7,-499.8"/>
<text text-anchor="start" x="480.7" y="-512" font-family="Arial" font-size="14.00">sourceAmount </text>
<text text-anchor="start" x="574.86" y="-512" font-family="Arial" font-size="14.00" fill="#666666">[decimal(18,4)]</text>
<polygon fill="none" stroke="black" points="473.7,-469 473.7,-499.8 869.15,-499.8 869.15,-469 473.7,-469"/>
<text text-anchor="start" x="480.7" y="-481.2" font-family="Arial" font-size="14.00">sourceCurrency </text>
<text text-anchor="start" x="583.41" y="-481.2" font-family="Arial" font-size="14.00" fill="#666666">[varchar(3)]</text>
<polygon fill="none" stroke="black" points="473.7,-438.2 473.7,-469 869.15,-469 869.15,-438.2 473.7,-438.2"/>
<text text-anchor="start" x="480.7" y="-450.4" font-family="Arial" font-size="14.00">targetAmount </text>
<text text-anchor="start" x="568.64" y="-450.4" font-family="Arial" font-size="14.00" fill="#666666">[decimal(18,4)]</text>
<polygon fill="none" stroke="black" points="473.7,-407.4 473.7,-438.2 869.15,-438.2 869.15,-407.4 473.7,-407.4"/>
<text text-anchor="start" x="480.7" y="-419.6" font-family="Arial" font-size="14.00">targetCurrency </text>
<text text-anchor="start" x="577.19" y="-419.6" font-family="Arial" font-size="14.00" fill="#666666">[varchar(3)]</text>
<polygon fill="none" stroke="black" points="473.7,-376.6 473.7,-407.4 869.15,-407.4 869.15,-376.6 473.7,-376.6"/>
<text text-anchor="start" x="480.7" y="-388.8" font-family="Arial" font-size="14.00">expirationDate </text>
<text text-anchor="start" x="574.87" y="-388.8" font-family="Arial" font-size="14.00" fill="#666666">[datetime]</text>
<polygon fill="none" stroke="black" points="473.7,-345.8 473.7,-376.6 869.15,-376.6 869.15,-345.8 473.7,-345.8"/>
<text text-anchor="start" x="480.7" y="-358" font-family="Arial" font-size="14.00">createdDate </text>
<text text-anchor="start" x="560.86" y="-358" font-family="Arial" font-size="14.00" fill="#666666">[datetime]</text>
</g>
<!-- fxQuoteResponseConversionTerms&#45;&gt;amountType -->
<g id="edge2" class="edge">
<title>fxQuoteResponseConversionTerms:amountTypeId&#45;&gt;amountType:amountTypeId</title>
<path fill="none" stroke="black" d="M880.28,-605.96C966.76,-576.27 886.03,-154 787.16,-154"/>
<polygon fill="black" stroke="black" points="880.35,-605.95 869.76,-603.1 875.08,-606.8 870.81,-607.49 870.81,-607.49 870.81,-607.49 875.08,-606.8 871.2,-611.99 880.35,-605.95"/>
<text text-anchor="start" x="697.87" y="-591.6" font-family="Arial" font-size="10.00">FOREIGN KEY (amountTypeId) REFERENCES amountType (amountTypeId)</text>
</g>
<!-- quote -->
<g id="node4" class="node">
<title>quote</title>
<polygon fill="#efefef" stroke="none" points="973.68,-761.6 973.68,-797.2 1235.17,-797.2 1235.17,-761.6 973.68,-761.6"/>
<polygon fill="none" stroke="black" points="973.68,-761.6 973.68,-797.2 1235.17,-797.2 1235.17,-761.6 973.68,-761.6"/>
<text text-anchor="start" x="1022.19" y="-775" font-family="Arial Bold" font-size="18.00">quote</text>
<text text-anchor="start" x="1062.18" y="-775" font-family="Arial" font-size="14.00">    </text>
<text text-anchor="start" x="1093.29" y="-775" font-family="Arial" font-size="14.00" fill="#666666">[BASE TABLE]</text>
<polygon fill="none" stroke="black" points="973.68,-730.8 973.68,-761.6 1235.17,-761.6 1235.17,-730.8 973.68,-730.8"/>
<text text-anchor="start" x="980.68" y="-743" font-family="Arial" font-size="14.00">quoteId </text>
<text text-anchor="start" x="1031.28" y="-743" font-family="Arial" font-size="14.00" fill="#666666">[varchar(36)]</text>
<polygon fill="none" stroke="black" points="973.68,-700 973.68,-730.8 1235.17,-730.8 1235.17,-700 973.68,-700"/>
<text text-anchor="start" x="980.68" y="-712.2" font-family="Arial" font-size="14.00">transactionReferenceId </text>
<text text-anchor="start" x="1129.32" y="-712.2" font-family="Arial" font-size="14.00" fill="#666666">[varchar(36)]</text>
<polygon fill="none" stroke="black" points="973.68,-669.2 973.68,-700 1235.17,-700 1235.17,-669.2 973.68,-669.2"/>
<text text-anchor="start" x="980.68" y="-681.4" font-family="Arial" font-size="14.00">transactionRequestId </text>
<text text-anchor="start" x="1116.87" y="-681.4" font-family="Arial" font-size="14.00" fill="#666666">[varchar(36)]</text>
<polygon fill="none" stroke="black" points="973.68,-638.4 973.68,-669.2 1235.17,-669.2 1235.17,-638.4 973.68,-638.4"/>
<text text-anchor="start" x="980.68" y="-650.6" font-family="Arial" font-size="14.00">note </text>
<text text-anchor="start" x="1011.82" y="-650.6" font-family="Arial" font-size="14.00" fill="#666666">[text]</text>
<polygon fill="none" stroke="black" points="973.68,-607.6 973.68,-638.4 1235.17,-638.4 1235.17,-607.6 973.68,-607.6"/>
<text text-anchor="start" x="980.68" y="-619.8" font-family="Arial" font-size="14.00">expirationDate </text>
<text text-anchor="start" x="1074.84" y="-619.8" font-family="Arial" font-size="14.00" fill="#666666">[datetime]</text>
<polygon fill="none" stroke="black" points="973.68,-576.8 973.68,-607.6 1235.17,-607.6 1235.17,-576.8 973.68,-576.8"/>
<text text-anchor="start" x="980.68" y="-589" font-family="Arial" font-size="14.00">transactionInitiatorId </text>
<text text-anchor="start" x="1110.64" y="-589" font-family="Arial" font-size="14.00" fill="#666666">[int unsigned]</text>
<polygon fill="none" stroke="black" points="973.68,-546 973.68,-576.8 1235.17,-576.8 1235.17,-546 973.68,-546"/>
<text text-anchor="start" x="980.68" y="-558.2" font-family="Arial" font-size="14.00">transactionInitiatorTypeId </text>
<text text-anchor="start" x="1141.76" y="-558.2" font-family="Arial" font-size="14.00" fill="#666666">[int unsigned]</text>
<polygon fill="none" stroke="black" points="973.68,-515.2 973.68,-546 1235.17,-546 1235.17,-515.2 973.68,-515.2"/>
<text text-anchor="start" x="980.68" y="-527.4" font-family="Arial" font-size="14.00">transactionScenarioId </text>
<text text-anchor="start" x="1119.98" y="-527.4" font-family="Arial" font-size="14.00" fill="#666666">[int unsigned]</text>
<polygon fill="none" stroke="black" points="973.68,-484.4 973.68,-515.2 1235.17,-515.2 1235.17,-484.4 973.68,-484.4"/>
<text text-anchor="start" x="980.68" y="-496.6" font-family="Arial" font-size="14.00">balanceOfPaymentsId </text>
<text text-anchor="start" x="1122.31" y="-496.6" font-family="Arial" font-size="14.00" fill="#666666">[int unsigned]</text>
<polygon fill="none" stroke="black" points="973.68,-453.6 973.68,-484.4 1235.17,-484.4 1235.17,-453.6 973.68,-453.6"/>
<text text-anchor="start" x="980.68" y="-465.8" font-family="Arial" font-size="14.00">transactionSubScenarioId </text>
<text text-anchor="start" x="1144.89" y="-465.8" font-family="Arial" font-size="14.00" fill="#666666">[int unsigned]</text>
<polygon fill="none" stroke="black" points="973.68,-422.8 973.68,-453.6 1235.17,-453.6 1235.17,-422.8 973.68,-422.8"/>
<text text-anchor="start" x="980.68" y="-435" font-family="Arial" font-size="14.00">amountTypeId </text>
<text text-anchor="start" x="1074.06" y="-435" font-family="Arial" font-size="14.00" fill="#666666">[int unsigned]</text>
<polygon fill="none" stroke="black" points="973.68,-392 973.68,-422.8 1235.17,-422.8 1235.17,-392 973.68,-392"/>
<text text-anchor="start" x="980.68" y="-404.2" font-family="Arial" font-size="14.00">amount </text>
<text text-anchor="start" x="1031.26" y="-404.2" font-family="Arial" font-size="14.00" fill="#666666">[decimal(18,4)]</text>
<polygon fill="none" stroke="black" points="973.68,-361.2 973.68,-392 1235.17,-392 1235.17,-361.2 973.68,-361.2"/>
<text text-anchor="start" x="980.68" y="-373.4" font-family="Arial" font-size="14.00">currencyId </text>
<text text-anchor="start" x="1049.93" y="-373.4" font-family="Arial" font-size="14.00" fill="#666666">[varchar(255)]</text>
<polygon fill="none" stroke="black" points="973.68,-330.4 973.68,-361.2 1235.17,-361.2 1235.17,-330.4 973.68,-330.4"/>
<text text-anchor="start" x="980.68" y="-342.6" font-family="Arial" font-size="14.00">createdDate </text>
<text text-anchor="start" x="1060.84" y="-342.6" font-family="Arial" font-size="14.00" fill="#666666">[datetime]</text>
</g>
<!-- quote&#45;&gt;amountType -->
<g id="edge3" class="edge">
<title>quote:amountTypeId&#45;&gt;amountType:amountTypeId</title>
<path fill="none" stroke="black" d="M962.5,-437.46C907.57,-428.7 956.99,-344.14 921.43,-287.2 876.9,-215.91 871.22,-154 787.16,-154"/>
<polygon fill="black" stroke="black" points="962.37,-437.45 972.02,-442.66 967.69,-437.84 972.01,-438.15 972.01,-438.15 972.01,-438.15 967.69,-437.84 972.67,-433.69 962.37,-437.45"/>
<text text-anchor="start" x="979.68" y="-448.2" font-family="Arial" font-size="10.00">FOREIGN KEY (amountTypeId) REFERENCES amountType (amountTypeId)</text>
</g>
</g>
</svg>
