<?xml version="1.0" encoding="UTF-8" standalone="no"?>
<!DOCTYPE svg PUBLIC "-//W3C//DTD SVG 1.1//EN"
 "http://www.w3.org/Graphics/SVG/1.1/DTD/svg11.dtd">
<!-- Generated by graphviz version 12.1.2 (20240928.0832)
 -->
<!-- Title: balanceOfPayments Pages: 1 -->
<svg width="1326pt" height="624pt"
 viewBox="0.00 0.00 1325.76 623.83" xmlns="http://www.w3.org/2000/svg" xmlns:xlink="http://www.w3.org/1999/xlink">
<g id="graph0" class="graph" transform="scale(1 1) rotate(0) translate(4 619.83)">
<title>balanceOfPayments</title>
<polygon fill="white" stroke="none" points="-4,4 -4,-619.83 1321.76,-619.83 1321.76,4 -4,4"/>
<!-- balanceOfPayments -->
<g id="node1" class="node">
<title>balanceOfPayments</title>
<polygon fill="#efefef" stroke="none" points="258.74,-88.43 258.74,-134.43 639.27,-134.43 639.27,-88.43 258.74,-88.43"/>
<polygon fill="none" stroke="black" points="258.74,-88.43 258.74,-134.43 639.27,-134.43 639.27,-88.43 258.74,-88.43"/>
<text text-anchor="start" x="314.79" y="-112.23" font-family="Arial Bold" font-size="18.00">balanceOfPayments</text>
<text text-anchor="start" x="458.73" y="-112.23" font-family="Arial" font-size="14.00">    </text>
<text text-anchor="start" x="489.85" y="-112.23" font-family="Arial" font-size="14.00" fill="#666666">[BASE TABLE]</text>
<text text-anchor="start" x="265.74" y="-97.83" font-family="Arial" font-size="14.00" fill="#333333">See https://www.imf.org/external/np/sta/bopcode/guide.htm</text>
<polygon fill="none" stroke="black" points="258.74,-57.63 258.74,-88.43 639.27,-88.43 639.27,-57.63 258.74,-57.63"/>
<text text-anchor="start" x="265.74" y="-69.83" font-family="Arial" font-size="14.00">balanceOfPaymentsId </text>
<text text-anchor="start" x="407.37" y="-69.83" font-family="Arial" font-size="14.00" fill="#666666">[int unsigned]</text>
<polygon fill="none" stroke="black" stroke-width="3" points="257.24,-56.13 257.24,-135.93 640.77,-135.93 640.77,-56.13 257.24,-56.13"/>
</g>
<!-- quote -->
<g id="node2" class="node">
<title>quote</title>
<polygon fill="#efefef" stroke="none" points="43.2,-537.03 43.2,-572.63 854.81,-572.63 854.81,-537.03 43.2,-537.03"/>
<polygon fill="none" stroke="black" points="43.2,-537.03 43.2,-572.63 854.81,-572.63 854.81,-537.03 43.2,-537.03"/>
<text text-anchor="start" x="366.77" y="-550.43" font-family="Arial Bold" font-size="18.00">quote</text>
<text text-anchor="start" x="406.76" y="-550.43" font-family="Arial" font-size="14.00">    </text>
<text text-anchor="start" x="437.87" y="-550.43" font-family="Arial" font-size="14.00" fill="#666666">[BASE TABLE]</text>
<polygon fill="none" stroke="black" points="43.2,-506.23 43.2,-537.03 854.81,-537.03 854.81,-506.23 43.2,-506.23"/>
<text text-anchor="start" x="50.2" y="-518.43" font-family="Arial" font-size="14.00">quoteId </text>
<text text-anchor="start" x="100.8" y="-518.43" font-family="Arial" font-size="14.00" fill="#666666">[varchar(36)]</text>
<polygon fill="none" stroke="black" points="43.2,-475.43 43.2,-506.23 854.81,-506.23 854.81,-475.43 43.2,-475.43"/>
<text text-anchor="start" x="50.2" y="-487.63" font-family="Arial" font-size="14.00">transactionReferenceId </text>
<text text-anchor="start" x="198.84" y="-487.63" font-family="Arial" font-size="14.00" fill="#666666">[varchar(36)]</text>
<text text-anchor="start" x="278.2" y="-487.63" font-family="Arial" font-size="14.00"> Common ID (decided by the Payer FSP) between the FSPs for the future transaction object</text>
<polygon fill="none" stroke="black" points="43.2,-444.63 43.2,-475.43 854.81,-475.43 854.81,-444.63 43.2,-444.63"/>
<text text-anchor="start" x="50.2" y="-456.83" font-family="Arial" font-size="14.00">transactionInitiatorId </text>
<text text-anchor="start" x="180.16" y="-456.83" font-family="Arial" font-size="14.00" fill="#666666">[int unsigned]</text>
<text text-anchor="start" x="263.44" y="-456.83" font-family="Arial" font-size="14.00"> This is part of the transaction initiator</text>
<polygon fill="none" stroke="black" points="43.2,-413.83 43.2,-444.63 854.81,-444.63 854.81,-413.83 43.2,-413.83"/>
<text text-anchor="start" x="50.2" y="-426.03" font-family="Arial" font-size="14.00">transactionInitiatorTypeId </text>
<text text-anchor="start" x="211.28" y="-426.03" font-family="Arial" font-size="14.00" fill="#666666">[int unsigned]</text>
<text text-anchor="start" x="294.56" y="-426.03" font-family="Arial" font-size="14.00"> This is part of the transaction initiator type</text>
<polygon fill="none" stroke="black" points="43.2,-383.03 43.2,-413.83 854.81,-413.83 854.81,-383.03 43.2,-383.03"/>
<text text-anchor="start" x="50.2" y="-395.23" font-family="Arial" font-size="14.00">transactionScenarioId </text>
<text text-anchor="start" x="189.5" y="-395.23" font-family="Arial" font-size="14.00" fill="#666666">[int unsigned]</text>
<text text-anchor="start" x="272.78" y="-395.23" font-family="Arial" font-size="14.00"> This is part of the transaction scenario</text>
<polygon fill="none" stroke="black" points="43.2,-352.23 43.2,-383.03 854.81,-383.03 854.81,-352.23 43.2,-352.23"/>
<text text-anchor="start" x="50.2" y="-364.43" font-family="Arial" font-size="14.00">balanceOfPaymentsId </text>
<text text-anchor="start" x="191.83" y="-364.43" font-family="Arial" font-size="14.00" fill="#666666">[int unsigned]</text>
<text text-anchor="start" x="275.12" y="-364.43" font-family="Arial" font-size="14.00"> This is part of the transaction type that contains the elements&#45; balance of payment</text>
<polygon fill="none" stroke="black" points="43.2,-321.43 43.2,-352.23 854.81,-352.23 854.81,-321.43 43.2,-321.43"/>
<text text-anchor="start" x="50.2" y="-333.63" font-family="Arial" font-size="14.00">transactionSubScenarioId </text>
<text text-anchor="start" x="214.41" y="-333.63" font-family="Arial" font-size="14.00" fill="#666666">[int unsigned]</text>
<text text-anchor="start" x="297.7" y="-333.63" font-family="Arial" font-size="14.00"> This is part of the transaction type sub scenario as defined by the local scheme</text>
<polygon fill="none" stroke="black" points="43.2,-290.63 43.2,-321.43 854.81,-321.43 854.81,-290.63 43.2,-290.63"/>
<text text-anchor="start" x="50.2" y="-302.83" font-family="Arial" font-size="14.00">amountTypeId </text>
<text text-anchor="start" x="143.59" y="-302.83" font-family="Arial" font-size="14.00" fill="#666666">[int unsigned]</text>
<text text-anchor="start" x="226.87" y="-302.83" font-family="Arial" font-size="14.00"> This is part of the transaction type that contains valid elements for &#45; Amount Type</text>
<polygon fill="none" stroke="black" points="43.2,-259.83 43.2,-290.63 854.81,-290.63 854.81,-259.83 43.2,-259.83"/>
<text text-anchor="start" x="50.2" y="-272.03" font-family="Arial" font-size="14.00">currencyId </text>
<text text-anchor="start" x="119.45" y="-272.03" font-family="Arial" font-size="14.00" fill="#666666">[varchar(255)]</text>
<text text-anchor="start" x="206.59" y="-272.03" font-family="Arial" font-size="14.00"> Trading currency pertaining to the Amount</text>
</g>
<!-- quote&#45;&gt;balanceOfPayments -->
<g id="edge1" class="edge">
<title>quote:balanceOfPaymentsId&#45;&gt;balanceOfPayments:balanceOfPaymentsId</title>
<path fill="none" stroke="black" d="M866.15,-367.02C976.37,-353.22 813.89,-108.79 685.47,-57.63 587.83,-18.74 449.01,48.46 449.01,-56.63"/>
<polygon fill="black" stroke="black" points="866.13,-367.03 855.88,-363.12 860.8,-367.34 856.48,-367.59 856.48,-367.59 856.48,-367.59 860.8,-367.34 856.41,-372.11 866.13,-367.03"/>
<text text-anchor="start" x="862.81" y="-377.63" font-family="Arial" font-size="10.00">FOREIGN KEY (balanceOfPaymentsId) REFERENCES balanceOfPayments (balanceOfPaymentsId)</text>
</g>
</g>
</svg>
