<?xml version="1.0" encoding="UTF-8" standalone="no"?>
<!DOCTYPE svg PUBLIC "-//W3C//DTD SVG 1.1//EN"
 "http://www.w3.org/Graphics/SVG/1.1/DTD/svg11.dtd">
<!-- Generated by graphviz version 12.1.2 (20240928.0832)
 -->
<!-- Title: balanceOfPayments Pages: 1 -->
<svg width="789pt" height="848pt"
 viewBox="0.00 0.00 789.12 848.40" xmlns="http://www.w3.org/2000/svg" xmlns:xlink="http://www.w3.org/1999/xlink">
<g id="graph0" class="graph" transform="scale(1 1) rotate(0) translate(4 844.4)">
<title>balanceOfPayments</title>
<polygon fill="white" stroke="none" points="-4,4 -4,-844.4 785.12,-844.4 785.12,4 -4,4"/>
<!-- balanceOfPayments -->
<g id="node1" class="node">
<title>balanceOfPayments</title>
<polygon fill="#efefef" stroke="none" points="46.2,-169.4 46.2,-205 328.64,-205 328.64,-169.4 46.2,-169.4"/>
<polygon fill="none" stroke="black" points="46.2,-169.4 46.2,-205 328.64,-205 328.64,-169.4 46.2,-169.4"/>
<text text-anchor="start" x="53.2" y="-182.8" font-family="Arial Bold" font-size="18.00">balanceOfPayments</text>
<text text-anchor="start" x="197.15" y="-182.8" font-family="Arial" font-size="14.00">    </text>
<text text-anchor="start" x="228.26" y="-182.8" font-family="Arial" font-size="14.00" fill="#666666">[BASE TABLE]</text>
<polygon fill="none" stroke="black" points="46.2,-138.6 46.2,-169.4 328.64,-169.4 328.64,-138.6 46.2,-138.6"/>
<text text-anchor="start" x="53.2" y="-150.8" font-family="Arial" font-size="14.00">balanceOfPaymentsId </text>
<text text-anchor="start" x="194.83" y="-150.8" font-family="Arial" font-size="14.00" fill="#666666">[int unsigned]</text>
<polygon fill="none" stroke="black" points="46.2,-107.8 46.2,-138.6 328.64,-138.6 328.64,-107.8 46.2,-107.8"/>
<text text-anchor="start" x="53.2" y="-120" font-family="Arial" font-size="14.00">name </text>
<text text-anchor="start" x="92.11" y="-120" font-family="Arial" font-size="14.00" fill="#666666">[varchar(256)]</text>
<polygon fill="none" stroke="black" points="46.2,-77 46.2,-107.8 328.64,-107.8 328.64,-77 46.2,-77"/>
<text text-anchor="start" x="53.2" y="-89.2" font-family="Arial" font-size="14.00">description </text>
<text text-anchor="start" x="124.79" y="-89.2" font-family="Arial" font-size="14.00" fill="#666666">[varchar(1024)]</text>
<polygon fill="none" stroke="black" points="46.2,-46.2 46.2,-77 328.64,-77 328.64,-46.2 46.2,-46.2"/>
<text text-anchor="start" x="53.2" y="-58.4" font-family="Arial" font-size="14.00">createdDate </text>
<text text-anchor="start" x="133.36" y="-58.4" font-family="Arial" font-size="14.00" fill="#666666">[datetime]</text>
<polygon fill="none" stroke="black" stroke-width="3" points="44.7,-44.7 44.7,-206.5 330.14,-206.5 330.14,-44.7 44.7,-44.7"/>
</g>
<!-- quote -->
<g id="node2" class="node">
<title>quote</title>
<polygon fill="#efefef" stroke="none" points="56.67,-761.6 56.67,-797.2 318.17,-797.2 318.17,-761.6 56.67,-761.6"/>
<polygon fill="none" stroke="black" points="56.67,-761.6 56.67,-797.2 318.17,-797.2 318.17,-761.6 56.67,-761.6"/>
<text text-anchor="start" x="105.18" y="-775" font-family="Arial Bold" font-size="18.00">quote</text>
<text text-anchor="start" x="145.17" y="-775" font-family="Arial" font-size="14.00">    </text>
<text text-anchor="start" x="176.29" y="-775" font-family="Arial" font-size="14.00" fill="#666666">[BASE TABLE]</text>
<polygon fill="none" stroke="black" points="56.67,-730.8 56.67,-761.6 318.17,-761.6 318.17,-730.8 56.67,-730.8"/>
<text text-anchor="start" x="63.67" y="-743" font-family="Arial" font-size="14.00">quoteId </text>
<text text-anchor="start" x="114.27" y="-743" font-family="Arial" font-size="14.00" fill="#666666">[varchar(36)]</text>
<polygon fill="none" stroke="black" points="56.67,-700 56.67,-730.8 318.17,-730.8 318.17,-700 56.67,-700"/>
<text text-anchor="start" x="63.67" y="-712.2" font-family="Arial" font-size="14.00">transactionReferenceId </text>
<text text-anchor="start" x="212.31" y="-712.2" font-family="Arial" font-size="14.00" fill="#666666">[varchar(36)]</text>
<polygon fill="none" stroke="black" points="56.67,-669.2 56.67,-700 318.17,-700 318.17,-669.2 56.67,-669.2"/>
<text text-anchor="start" x="63.67" y="-681.4" font-family="Arial" font-size="14.00">transactionRequestId </text>
<text text-anchor="start" x="199.86" y="-681.4" font-family="Arial" font-size="14.00" fill="#666666">[varchar(36)]</text>
<polygon fill="none" stroke="black" points="56.67,-638.4 56.67,-669.2 318.17,-669.2 318.17,-638.4 56.67,-638.4"/>
<text text-anchor="start" x="63.67" y="-650.6" font-family="Arial" font-size="14.00">note </text>
<text text-anchor="start" x="94.81" y="-650.6" font-family="Arial" font-size="14.00" fill="#666666">[text]</text>
<polygon fill="none" stroke="black" points="56.67,-607.6 56.67,-638.4 318.17,-638.4 318.17,-607.6 56.67,-607.6"/>
<text text-anchor="start" x="63.67" y="-619.8" font-family="Arial" font-size="14.00">expirationDate </text>
<text text-anchor="start" x="157.84" y="-619.8" font-family="Arial" font-size="14.00" fill="#666666">[datetime]</text>
<polygon fill="none" stroke="black" points="56.67,-576.8 56.67,-607.6 318.17,-607.6 318.17,-576.8 56.67,-576.8"/>
<text text-anchor="start" x="63.67" y="-589" font-family="Arial" font-size="14.00">transactionInitiatorId </text>
<text text-anchor="start" x="193.63" y="-589" font-family="Arial" font-size="14.00" fill="#666666">[int unsigned]</text>
<polygon fill="none" stroke="black" points="56.67,-546 56.67,-576.8 318.17,-576.8 318.17,-546 56.67,-546"/>
<text text-anchor="start" x="63.67" y="-558.2" font-family="Arial" font-size="14.00">transactionInitiatorTypeId </text>
<text text-anchor="start" x="224.75" y="-558.2" font-family="Arial" font-size="14.00" fill="#666666">[int unsigned]</text>
<polygon fill="none" stroke="black" points="56.67,-515.2 56.67,-546 318.17,-546 318.17,-515.2 56.67,-515.2"/>
<text text-anchor="start" x="63.67" y="-527.4" font-family="Arial" font-size="14.00">transactionScenarioId </text>
<text text-anchor="start" x="202.97" y="-527.4" font-family="Arial" font-size="14.00" fill="#666666">[int unsigned]</text>
<polygon fill="none" stroke="black" points="56.67,-484.4 56.67,-515.2 318.17,-515.2 318.17,-484.4 56.67,-484.4"/>
<text text-anchor="start" x="63.67" y="-496.6" font-family="Arial" font-size="14.00">balanceOfPaymentsId </text>
<text text-anchor="start" x="205.3" y="-496.6" font-family="Arial" font-size="14.00" fill="#666666">[int unsigned]</text>
<polygon fill="none" stroke="black" points="56.67,-453.6 56.67,-484.4 318.17,-484.4 318.17,-453.6 56.67,-453.6"/>
<text text-anchor="start" x="63.67" y="-465.8" font-family="Arial" font-size="14.00">transactionSubScenarioId </text>
<text text-anchor="start" x="227.88" y="-465.8" font-family="Arial" font-size="14.00" fill="#666666">[int unsigned]</text>
<polygon fill="none" stroke="black" points="56.67,-422.8 56.67,-453.6 318.17,-453.6 318.17,-422.8 56.67,-422.8"/>
<text text-anchor="start" x="63.67" y="-435" font-family="Arial" font-size="14.00">amountTypeId </text>
<text text-anchor="start" x="157.06" y="-435" font-family="Arial" font-size="14.00" fill="#666666">[int unsigned]</text>
<polygon fill="none" stroke="black" points="56.67,-392 56.67,-422.8 318.17,-422.8 318.17,-392 56.67,-392"/>
<text text-anchor="start" x="63.67" y="-404.2" font-family="Arial" font-size="14.00">amount </text>
<text text-anchor="start" x="114.26" y="-404.2" font-family="Arial" font-size="14.00" fill="#666666">[decimal(18,4)]</text>
<polygon fill="none" stroke="black" points="56.67,-361.2 56.67,-392 318.17,-392 318.17,-361.2 56.67,-361.2"/>
<text text-anchor="start" x="63.67" y="-373.4" font-family="Arial" font-size="14.00">currencyId </text>
<text text-anchor="start" x="132.92" y="-373.4" font-family="Arial" font-size="14.00" fill="#666666">[varchar(255)]</text>
<polygon fill="none" stroke="black" points="56.67,-330.4 56.67,-361.2 318.17,-361.2 318.17,-330.4 56.67,-330.4"/>
<text text-anchor="start" x="63.67" y="-342.6" font-family="Arial" font-size="14.00">createdDate </text>
<text text-anchor="start" x="143.83" y="-342.6" font-family="Arial" font-size="14.00" fill="#666666">[datetime]</text>
</g>
<!-- quote&#45;&gt;balanceOfPayments -->
<g id="edge1" class="edge">
<title>quote:balanceOfPaymentsId&#45;&gt;balanceOfPayments:balanceOfPaymentsId</title>
<path fill="none" stroke="black" d="M329.12,-497.77C396.81,-469.43 403.06,-154 329.64,-154"/>
<polygon fill="black" stroke="black" points="329.29,-497.73 318.59,-495.32 324.06,-498.8 319.82,-499.67 319.82,-499.67 319.82,-499.67 324.06,-498.8 320.39,-504.14 329.29,-497.73"/>
<text text-anchor="start" x="326.17" y="-509.8" font-family="Arial" font-size="10.00">FOREIGN KEY (balanceOfPaymentsId) REFERENCES balanceOfPayments (balanceOfPaymentsId)</text>
</g>
</g>
</svg>
