<?xml version="1.0" encoding="UTF-8" standalone="no"?>
<!DOCTYPE svg PUBLIC "-//W3C//DTD SVG 1.1//EN"
 "http://www.w3.org/Graphics/SVG/1.1/DTD/svg11.dtd">
<!-- Generated by graphviz version 12.1.2 (20240928.0832)
 -->
<!-- Title: bulkTransferFulfilmentDuplicateCheck Pages: 1 -->
<svg width="762pt" height="606pt"
 viewBox="0.00 0.00 762.41 606.00" xmlns="http://www.w3.org/2000/svg" xmlns:xlink="http://www.w3.org/1999/xlink">
<g id="graph0" class="graph" transform="scale(1 1) rotate(0) translate(4 602)">
<title>bulkTransferFulfilmentDuplicateCheck</title>
<polygon fill="white" stroke="none" points="-4,4 -4,-602 758.41,-602 758.41,4 -4,4"/>
<!-- bulkTransferFulfilmentDuplicateCheck -->
<g id="node1" class="node">
<title>bulkTransferFulfilmentDuplicateCheck</title>
<polygon fill="#efefef" stroke="none" points="260.21,-327.4 260.21,-363 683.61,-363 683.61,-327.4 260.21,-327.4"/>
<polygon fill="none" stroke="black" points="260.21,-327.4 260.21,-363 683.61,-363 683.61,-327.4 260.21,-327.4"/>
<text text-anchor="start" x="267.21" y="-340.8" font-family="Arial Bold" font-size="18.00">bulkTransferFulfilmentDuplicateCheck</text>
<text text-anchor="start" x="552.12" y="-340.8" font-family="Arial" font-size="14.00">    </text>
<text text-anchor="start" x="583.24" y="-340.8" font-family="Arial" font-size="14.00" fill="#666666">[BASE TABLE]</text>
<polygon fill="none" stroke="black" points="260.21,-296.6 260.21,-327.4 683.61,-327.4 683.61,-296.6 260.21,-296.6"/>
<text text-anchor="start" x="267.21" y="-308.8" font-family="Arial" font-size="14.00">bulkTransferId </text>
<text text-anchor="start" x="360.58" y="-308.8" font-family="Arial" font-size="14.00" fill="#666666">[varchar(36)]</text>
<polygon fill="none" stroke="black" stroke-width="3" points="258.71,-295.1 258.71,-364.5 685.11,-364.5 685.11,-295.1 258.71,-295.1"/>
</g>
<!-- bulkTransfer -->
<g id="node2" class="node">
<title>bulkTransfer</title>
<polygon fill="#efefef" stroke="none" points="356.18,-135.6 356.18,-171.2 587.64,-171.2 587.64,-135.6 356.18,-135.6"/>
<polygon fill="none" stroke="black" points="356.18,-135.6 356.18,-171.2 587.64,-171.2 587.64,-135.6 356.18,-135.6"/>
<text text-anchor="start" x="363.18" y="-149" font-family="Arial Bold" font-size="18.00">bulkTransfer</text>
<text text-anchor="start" x="456.15" y="-149" font-family="Arial" font-size="14.00">    </text>
<text text-anchor="start" x="487.26" y="-149" font-family="Arial" font-size="14.00" fill="#666666">[BASE TABLE]</text>
<polygon fill="none" stroke="black" points="356.18,-104.8 356.18,-135.6 587.64,-135.6 587.64,-104.8 356.18,-104.8"/>
<text text-anchor="start" x="363.18" y="-117" font-family="Arial" font-size="14.00">bulkTransferId </text>
<text text-anchor="start" x="456.56" y="-117" font-family="Arial" font-size="14.00" fill="#666666">[varchar(36)]</text>
<polygon fill="none" stroke="black" points="356.18,-74 356.18,-104.8 587.64,-104.8 587.64,-74 356.18,-74"/>
<text text-anchor="start" x="363.18" y="-86.2" font-family="Arial" font-size="14.00">payerParticipantId </text>
<text text-anchor="start" x="479.92" y="-86.2" font-family="Arial" font-size="14.00" fill="#666666">[int unsigned]</text>
<polygon fill="none" stroke="black" points="356.18,-43.2 356.18,-74 587.64,-74 587.64,-43.2 356.18,-43.2"/>
<text text-anchor="start" x="363.18" y="-55.4" font-family="Arial" font-size="14.00">payeeParticipantId </text>
<text text-anchor="start" x="483.04" y="-55.4" font-family="Arial" font-size="14.00" fill="#666666">[int unsigned]</text>
</g>
<!-- bulkTransferFulfilmentDuplicateCheck&#45;&gt;bulkTransfer -->
<g id="edge1" class="edge">
<title>bulkTransferFulfilmentDuplicateCheck:bulkTransferId&#45;&gt;bulkTransfer:bulkTransferId</title>
<path fill="none" stroke="black" d="M472.83,-285.24C482.17,-236.94 560.13,-266.63 587.64,-214.4 607.15,-177.36 630.5,-120.2 588.64,-120.2"/>
<polygon fill="black" stroke="black" points="472.82,-285.31 467.46,-294.87 472.35,-290.62 471.97,-294.93 471.97,-294.93 471.97,-294.93 472.35,-290.62 476.42,-295.66 472.82,-285.31"/>
<text text-anchor="start" x="120.38" y="-305.6" font-family="Arial" font-size="10.00">FOREIGN KEY (bulkTransferId) REFERENCES bulkTransfer (bulkTransferId)</text>
</g>
<!-- bulkTransferFulfilment -->
<g id="node3" class="node">
<title>bulkTransferFulfilment</title>
<polygon fill="#efefef" stroke="none" points="318.19,-519.2 318.19,-554.8 625.64,-554.8 625.64,-519.2 318.19,-519.2"/>
<polygon fill="none" stroke="black" points="318.19,-519.2 318.19,-554.8 625.64,-554.8 625.64,-519.2 318.19,-519.2"/>
<text text-anchor="start" x="325.19" y="-532.6" font-family="Arial Bold" font-size="18.00">bulkTransferFulfilment</text>
<text text-anchor="start" x="494.15" y="-532.6" font-family="Arial" font-size="14.00">    </text>
<text text-anchor="start" x="525.26" y="-532.6" font-family="Arial" font-size="14.00" fill="#666666">[BASE TABLE]</text>
<polygon fill="none" stroke="black" points="318.19,-488.4 318.19,-519.2 625.64,-519.2 625.64,-488.4 318.19,-488.4"/>
<text text-anchor="start" x="325.19" y="-500.6" font-family="Arial" font-size="14.00">bulkTransferId </text>
<text text-anchor="start" x="418.56" y="-500.6" font-family="Arial" font-size="14.00" fill="#666666">[varchar(36)]</text>
</g>
<!-- bulkTransferFulfilment&#45;&gt;bulkTransferFulfilmentDuplicateCheck -->
<g id="edge2" class="edge">
<title>bulkTransferFulfilment:bulkTransferId&#45;&gt;bulkTransferFulfilmentDuplicateCheck:bulkTransferId</title>
<path fill="none" stroke="black" d="M472.41,-477.22C483.1,-375.75 660.62,-502.49 729.81,-409.2 759.63,-369.01 765.13,-332.06 729.81,-296.6 689.37,-256 471.91,-238.29 471.91,-295.6"/>
<polygon fill="black" stroke="black" points="472.42,-477.08 467.43,-486.84 472.16,-482.41 471.94,-486.73 471.94,-486.73 471.94,-486.73 472.16,-482.41 476.42,-487.29 472.42,-477.08"/>
<text text-anchor="start" x="7" y="-497.4" font-family="Arial" font-size="10.00">FOREIGN KEY (bulkTransferId) REFERENCES bulkTransferFulfilmentDuplicateCheck (bulkTransferId)</text>
</g>
</g>
</svg>
