<?xml version="1.0" encoding="UTF-8" standalone="no"?>
<!DOCTYPE svg PUBLIC "-//W3C//DTD SVG 1.1//EN"
 "http://www.w3.org/Graphics/SVG/1.1/DTD/svg11.dtd">
<!-- Generated by graphviz version 12.1.2 (20240928.0832)
 -->
<!-- Title: bulkTransferStateChange Pages: 1 -->
<svg width="1132pt" height="698pt"
 viewBox="0.00 0.00 1132.46 698.40" xmlns="http://www.w3.org/2000/svg" xmlns:xlink="http://www.w3.org/1999/xlink">
<g id="graph0" class="graph" transform="scale(1 1) rotate(0) translate(4 694.4)">
<title>bulkTransferStateChange</title>
<polygon fill="white" stroke="none" points="-4,4 -4,-694.4 1128.46,-694.4 1128.46,4 -4,4"/>
<!-- bulkTransferStateChange -->
<g id="node1" class="node">
<title>bulkTransferStateChange</title>
<polygon fill="#efefef" stroke="none" points="372.45,-389 372.45,-424.6 694.88,-424.6 694.88,-389 372.45,-389"/>
<polygon fill="none" stroke="black" points="372.45,-389 372.45,-424.6 694.88,-424.6 694.88,-389 372.45,-389"/>
<text text-anchor="start" x="379.45" y="-402.4" font-family="Arial Bold" font-size="18.00">bulkTransferStateChange</text>
<text text-anchor="start" x="563.39" y="-402.4" font-family="Arial" font-size="14.00">    </text>
<text text-anchor="start" x="594.51" y="-402.4" font-family="Arial" font-size="14.00" fill="#666666">[BASE TABLE]</text>
<polygon fill="none" stroke="black" points="372.45,-358.2 372.45,-389 694.88,-389 694.88,-358.2 372.45,-358.2"/>
<text text-anchor="start" x="379.45" y="-370.4" font-family="Arial" font-size="14.00">bulkTransferStateChangeId </text>
<text text-anchor="start" x="554.56" y="-370.4" font-family="Arial" font-size="14.00" fill="#666666">[bigint unsigned]</text>
<polygon fill="none" stroke="black" points="372.45,-327.4 372.45,-358.2 694.88,-358.2 694.88,-327.4 372.45,-327.4"/>
<text text-anchor="start" x="379.45" y="-339.6" font-family="Arial" font-size="14.00">bulkTransferId </text>
<text text-anchor="start" x="472.83" y="-339.6" font-family="Arial" font-size="14.00" fill="#666666">[varchar(36)]</text>
<polygon fill="none" stroke="black" points="372.45,-296.6 372.45,-327.4 694.88,-327.4 694.88,-296.6 372.45,-296.6"/>
<text text-anchor="start" x="379.45" y="-308.8" font-family="Arial" font-size="14.00">bulkTransferStateId </text>
<text text-anchor="start" x="505.52" y="-308.8" font-family="Arial" font-size="14.00" fill="#666666">[varchar(50)]</text>
<polygon fill="none" stroke="black" stroke-width="3" points="370.95,-295.1 370.95,-426.1 696.38,-426.1 696.38,-295.1 370.95,-295.1"/>
</g>
<!-- bulkTransfer -->
<g id="node3" class="node">
<title>bulkTransfer</title>
<polygon fill="#efefef" stroke="none" points="240.94,-135.6 240.94,-171.2 472.39,-171.2 472.39,-135.6 240.94,-135.6"/>
<polygon fill="none" stroke="black" points="240.94,-135.6 240.94,-171.2 472.39,-171.2 472.39,-135.6 240.94,-135.6"/>
<text text-anchor="start" x="247.94" y="-149" font-family="Arial Bold" font-size="18.00">bulkTransfer</text>
<text text-anchor="start" x="340.9" y="-149" font-family="Arial" font-size="14.00">    </text>
<text text-anchor="start" x="372.02" y="-149" font-family="Arial" font-size="14.00" fill="#666666">[BASE TABLE]</text>
<polygon fill="none" stroke="black" points="240.94,-104.8 240.94,-135.6 472.39,-135.6 472.39,-104.8 240.94,-104.8"/>
<text text-anchor="start" x="247.94" y="-117" font-family="Arial" font-size="14.00">bulkTransferId </text>
<text text-anchor="start" x="341.31" y="-117" font-family="Arial" font-size="14.00" fill="#666666">[varchar(36)]</text>
<polygon fill="none" stroke="black" points="240.94,-74 240.94,-104.8 472.39,-104.8 472.39,-74 240.94,-74"/>
<text text-anchor="start" x="247.94" y="-86.2" font-family="Arial" font-size="14.00">payerParticipantId </text>
<text text-anchor="start" x="364.67" y="-86.2" font-family="Arial" font-size="14.00" fill="#666666">[int unsigned]</text>
<polygon fill="none" stroke="black" points="240.94,-43.2 240.94,-74 472.39,-74 472.39,-43.2 240.94,-43.2"/>
<text text-anchor="start" x="247.94" y="-55.4" font-family="Arial" font-size="14.00">payeeParticipantId </text>
<text text-anchor="start" x="367.8" y="-55.4" font-family="Arial" font-size="14.00" fill="#666666">[int unsigned]</text>
</g>
<!-- bulkTransferStateChange&#45;&gt;bulkTransfer -->
<g id="edge2" class="edge">
<title>bulkTransferStateChange:bulkTransferId&#45;&gt;bulkTransfer:bulkTransferId</title>
<path fill="none" stroke="black" d="M361.42,-341.32C333.86,-331.98 350.89,-280.74 372.45,-250.4 399.81,-211.92 445.05,-252.88 472.39,-214.4 496.65,-180.27 515.26,-120.2 473.39,-120.2"/>
<polygon fill="black" stroke="black" points="361.23,-341.29 370.46,-347.2 366.51,-342.07 370.79,-342.7 370.79,-342.7 370.79,-342.7 366.51,-342.07 371.78,-338.3 361.23,-341.29"/>
<text text-anchor="start" x="19.92" y="-352.8" font-family="Arial" font-size="10.00">FOREIGN KEY (bulkTransferId) REFERENCES bulkTransfer (bulkTransferId)</text>
</g>
<!-- bulkTransferState -->
<g id="node4" class="node">
<title>bulkTransferState</title>
<polygon fill="#efefef" stroke="none" points="576.95,-104.8 576.95,-140.4 844.39,-140.4 844.39,-104.8 576.95,-104.8"/>
<polygon fill="none" stroke="black" points="576.95,-104.8 576.95,-140.4 844.39,-140.4 844.39,-104.8 576.95,-104.8"/>
<text text-anchor="start" x="583.95" y="-118.2" font-family="Arial Bold" font-size="18.00">bulkTransferState</text>
<text text-anchor="start" x="712.9" y="-118.2" font-family="Arial" font-size="14.00">    </text>
<text text-anchor="start" x="744.02" y="-118.2" font-family="Arial" font-size="14.00" fill="#666666">[BASE TABLE]</text>
<polygon fill="none" stroke="black" points="576.95,-74 576.95,-104.8 844.39,-104.8 844.39,-74 576.95,-74"/>
<text text-anchor="start" x="583.95" y="-86.2" font-family="Arial" font-size="14.00">bulkTransferStateId </text>
<text text-anchor="start" x="710.01" y="-86.2" font-family="Arial" font-size="14.00" fill="#666666">[varchar(50)]</text>
</g>
<!-- bulkTransferStateChange&#45;&gt;bulkTransferState -->
<g id="edge3" class="edge">
<title>bulkTransferStateChange:bulkTransferStateId&#45;&gt;bulkTransferState:bulkTransferStateId</title>
<path fill="none" stroke="black" d="M705.82,-309.41C718.77,-300.46 706.68,-270.26 694.88,-250.4 664.13,-198.6 607.56,-235.48 576.95,-183.6 555.67,-147.54 534.08,-89.4 575.95,-89.4"/>
<polygon fill="black" stroke="black" points="705.88,-309.4 695.07,-307.56 700.72,-310.74 696.53,-311.83 696.53,-311.83 696.53,-311.83 700.72,-310.74 697.34,-316.27 705.88,-309.4"/>
<text text-anchor="start" x="702.88" y="-322" font-family="Arial" font-size="10.00">FOREIGN KEY (bulkTransferStateId) REFERENCES bulkTransferState (bulkTransferStateId)</text>
</g>
<!-- bulkTransferError -->
<g id="node2" class="node">
<title>bulkTransferError</title>
<polygon fill="#efefef" stroke="none" points="388.13,-611.6 388.13,-647.2 679.2,-647.2 679.2,-611.6 388.13,-611.6"/>
<polygon fill="none" stroke="black" points="388.13,-611.6 388.13,-647.2 679.2,-647.2 679.2,-611.6 388.13,-611.6"/>
<text text-anchor="start" x="405.95" y="-625" font-family="Arial Bold" font-size="18.00">bulkTransferError</text>
<text text-anchor="start" x="536.89" y="-625" font-family="Arial" font-size="14.00">    </text>
<text text-anchor="start" x="568.01" y="-625" font-family="Arial" font-size="14.00" fill="#666666">[BASE TABLE]</text>
<polygon fill="none" stroke="black" points="388.13,-580.8 388.13,-611.6 679.2,-611.6 679.2,-580.8 388.13,-580.8"/>
<text text-anchor="start" x="395.13" y="-593" font-family="Arial" font-size="14.00">bulkTransferErrorId </text>
<text text-anchor="start" x="519.62" y="-593" font-family="Arial" font-size="14.00" fill="#666666">[bigint unsigned]</text>
<polygon fill="none" stroke="black" points="388.13,-550 388.13,-580.8 679.2,-580.8 679.2,-550 388.13,-550"/>
<text text-anchor="start" x="395.13" y="-562.2" font-family="Arial" font-size="14.00">bulkTransferStateChangeId </text>
<text text-anchor="start" x="570.24" y="-562.2" font-family="Arial" font-size="14.00" fill="#666666">[bigint unsigned]</text>
</g>
<!-- bulkTransferError&#45;&gt;bulkTransferStateChange -->
<g id="edge1" class="edge">
<title>bulkTransferError:bulkTransferStateChangeId&#45;&gt;bulkTransferStateChange:bulkTransferStateChangeId</title>
<path fill="none" stroke="black" d="M534.43,-538.75C544.62,-475.51 654.26,-534.92 694.88,-470.8 718,-434.31 739.08,-373.6 695.88,-373.6"/>
<polygon fill="black" stroke="black" points="534.43,-538.69 529.21,-548.33 534.04,-544.01 533.72,-548.33 533.72,-548.33 533.72,-548.33 534.04,-544.01 538.18,-549 534.43,-538.69"/>
<text text-anchor="start" x="7" y="-559" font-family="Arial" font-size="10.00">FOREIGN KEY (bulkTransferStateChangeId) REFERENCES bulkTransferStateChange (bulkTransferStateChangeId)</text>
</g>
</g>
</svg>
