<?xml version="1.0" encoding="UTF-8" standalone="no"?>
<!DOCTYPE svg PUBLIC "-//W3C//DTD SVG 1.1//EN"
 "http://www.w3.org/Graphics/SVG/1.1/DTD/svg11.dtd">
<!-- Generated by graphviz version 12.1.2 (20240928.0832)
 -->
<!-- Title: bulkTransferFulfilmentDuplicateCheck Pages: 1 -->
<svg width="893pt" height="822pt"
 viewBox="0.00 0.00 892.54 821.60" xmlns="http://www.w3.org/2000/svg" xmlns:xlink="http://www.w3.org/1999/xlink">
<g id="graph0" class="graph" transform="scale(1 1) rotate(0) translate(4 817.6)">
<title>bulkTransferFulfilmentDuplicateCheck</title>
<polygon fill="white" stroke="none" points="-4,4 -4,-817.6 888.54,-817.6 888.54,4 -4,4"/>
<!-- bulkTransferFulfilmentDuplicateCheck -->
<g id="node1" class="node">
<title>bulkTransferFulfilmentDuplicateCheck</title>
<polygon fill="#efefef" stroke="none" points="46.2,-481.4 46.2,-517 469.6,-517 469.6,-481.4 46.2,-481.4"/>
<polygon fill="none" stroke="black" points="46.2,-481.4 46.2,-517 469.6,-517 469.6,-481.4 46.2,-481.4"/>
<text text-anchor="start" x="53.2" y="-494.8" font-family="Arial Bold" font-size="18.00">bulkTransferFulfilmentDuplicateCheck</text>
<text text-anchor="start" x="338.12" y="-494.8" font-family="Arial" font-size="14.00">    </text>
<text text-anchor="start" x="369.23" y="-494.8" font-family="Arial" font-size="14.00" fill="#666666">[BASE TABLE]</text>
<polygon fill="none" stroke="black" points="46.2,-450.6 46.2,-481.4 469.6,-481.4 469.6,-450.6 46.2,-450.6"/>
<text text-anchor="start" x="53.2" y="-462.8" font-family="Arial" font-size="14.00">bulkTransferId </text>
<text text-anchor="start" x="146.57" y="-462.8" font-family="Arial" font-size="14.00" fill="#666666">[varchar(36)]</text>
<polygon fill="none" stroke="black" points="46.2,-419.8 46.2,-450.6 469.6,-450.6 469.6,-419.8 46.2,-419.8"/>
<text text-anchor="start" x="53.2" y="-432" font-family="Arial" font-size="14.00">hash </text>
<text text-anchor="start" x="87.45" y="-432" font-family="Arial" font-size="14.00" fill="#666666">[varchar(256)]</text>
<polygon fill="none" stroke="black" points="46.2,-389 46.2,-419.8 469.6,-419.8 469.6,-389 46.2,-389"/>
<text text-anchor="start" x="53.2" y="-401.2" font-family="Arial" font-size="14.00">createdDate </text>
<text text-anchor="start" x="133.36" y="-401.2" font-family="Arial" font-size="14.00" fill="#666666">[datetime]</text>
<polygon fill="none" stroke="black" stroke-width="3" points="44.7,-387.5 44.7,-518.5 471.1,-518.5 471.1,-387.5 44.7,-387.5"/>
</g>
<!-- bulkTransfer -->
<g id="node2" class="node">
<title>bulkTransfer</title>
<polygon fill="#efefef" stroke="none" points="142.18,-228 142.18,-263.6 373.63,-263.6 373.63,-228 142.18,-228"/>
<polygon fill="none" stroke="black" points="142.18,-228 142.18,-263.6 373.63,-263.6 373.63,-228 142.18,-228"/>
<text text-anchor="start" x="149.18" y="-241.4" font-family="Arial Bold" font-size="18.00">bulkTransfer</text>
<text text-anchor="start" x="242.14" y="-241.4" font-family="Arial" font-size="14.00">    </text>
<text text-anchor="start" x="273.26" y="-241.4" font-family="Arial" font-size="14.00" fill="#666666">[BASE TABLE]</text>
<polygon fill="none" stroke="black" points="142.18,-197.2 142.18,-228 373.63,-228 373.63,-197.2 142.18,-197.2"/>
<text text-anchor="start" x="149.18" y="-209.4" font-family="Arial" font-size="14.00">bulkTransferId </text>
<text text-anchor="start" x="242.55" y="-209.4" font-family="Arial" font-size="14.00" fill="#666666">[varchar(36)]</text>
<polygon fill="none" stroke="black" points="142.18,-166.4 142.18,-197.2 373.63,-197.2 373.63,-166.4 142.18,-166.4"/>
<text text-anchor="start" x="149.18" y="-178.6" font-family="Arial" font-size="14.00">bulkQuoteId </text>
<text text-anchor="start" x="228.56" y="-178.6" font-family="Arial" font-size="14.00" fill="#666666">[varchar(36)]</text>
<polygon fill="none" stroke="black" points="142.18,-135.6 142.18,-166.4 373.63,-166.4 373.63,-135.6 142.18,-135.6"/>
<text text-anchor="start" x="149.18" y="-147.8" font-family="Arial" font-size="14.00">payerParticipantId </text>
<text text-anchor="start" x="265.91" y="-147.8" font-family="Arial" font-size="14.00" fill="#666666">[int unsigned]</text>
<polygon fill="none" stroke="black" points="142.18,-104.8 142.18,-135.6 373.63,-135.6 373.63,-104.8 142.18,-104.8"/>
<text text-anchor="start" x="149.18" y="-117" font-family="Arial" font-size="14.00">payeeParticipantId </text>
<text text-anchor="start" x="269.03" y="-117" font-family="Arial" font-size="14.00" fill="#666666">[int unsigned]</text>
<polygon fill="none" stroke="black" points="142.18,-74 142.18,-104.8 373.63,-104.8 373.63,-74 142.18,-74"/>
<text text-anchor="start" x="149.18" y="-86.2" font-family="Arial" font-size="14.00">expirationDate </text>
<text text-anchor="start" x="243.34" y="-86.2" font-family="Arial" font-size="14.00" fill="#666666">[datetime]</text>
<polygon fill="none" stroke="black" points="142.18,-43.2 142.18,-74 373.63,-74 373.63,-43.2 142.18,-43.2"/>
<text text-anchor="start" x="149.18" y="-55.4" font-family="Arial" font-size="14.00">createdDate </text>
<text text-anchor="start" x="229.33" y="-55.4" font-family="Arial" font-size="14.00" fill="#666666">[datetime]</text>
</g>
<!-- bulkTransferFulfilmentDuplicateCheck&#45;&gt;bulkTransfer -->
<g id="edge1" class="edge">
<title>bulkTransferFulfilmentDuplicateCheck:bulkTransferId&#45;&gt;bulkTransfer:bulkTransferId</title>
<path fill="none" stroke="black" d="M480.95,-465.32C585.2,-450.89 491.41,-212.6 374.63,-212.6"/>
<polygon fill="black" stroke="black" points="480.92,-465.32 470.64,-461.49 475.59,-465.67 471.27,-465.96 471.27,-465.96 471.27,-465.96 475.59,-465.67 471.23,-470.47 480.92,-465.32"/>
<text text-anchor="start" x="477.6" y="-476" font-family="Arial" font-size="10.00">FOREIGN KEY (bulkTransferId) REFERENCES bulkTransfer (bulkTransferId)</text>
</g>
<!-- bulkTransferFulfilment -->
<g id="node3" class="node">
<title>bulkTransferFulfilment</title>
<polygon fill="#efefef" stroke="none" points="104.18,-734.8 104.18,-770.4 411.63,-770.4 411.63,-734.8 104.18,-734.8"/>
<polygon fill="none" stroke="black" points="104.18,-734.8 104.18,-770.4 411.63,-770.4 411.63,-734.8 104.18,-734.8"/>
<text text-anchor="start" x="111.18" y="-748.2" font-family="Arial Bold" font-size="18.00">bulkTransferFulfilment</text>
<text text-anchor="start" x="280.14" y="-748.2" font-family="Arial" font-size="14.00">    </text>
<text text-anchor="start" x="311.26" y="-748.2" font-family="Arial" font-size="14.00" fill="#666666">[BASE TABLE]</text>
<polygon fill="none" stroke="black" points="104.18,-704 104.18,-734.8 411.63,-734.8 411.63,-704 104.18,-704"/>
<text text-anchor="start" x="111.18" y="-716.2" font-family="Arial" font-size="14.00">bulkTransferId </text>
<text text-anchor="start" x="204.55" y="-716.2" font-family="Arial" font-size="14.00" fill="#666666">[varchar(36)]</text>
<polygon fill="none" stroke="black" points="104.18,-673.2 104.18,-704 411.63,-704 411.63,-673.2 104.18,-673.2"/>
<text text-anchor="start" x="111.18" y="-685.4" font-family="Arial" font-size="14.00">completedDate </text>
<text text-anchor="start" x="209.23" y="-685.4" font-family="Arial" font-size="14.00" fill="#666666">[datetime]</text>
<polygon fill="none" stroke="black" points="104.18,-642.4 104.18,-673.2 411.63,-673.2 411.63,-642.4 104.18,-642.4"/>
<text text-anchor="start" x="111.18" y="-654.6" font-family="Arial" font-size="14.00">createdDate </text>
<text text-anchor="start" x="191.34" y="-654.6" font-family="Arial" font-size="14.00" fill="#666666">[datetime]</text>
</g>
<!-- bulkTransferFulfilment&#45;&gt;bulkTransferFulfilmentDuplicateCheck -->
<g id="edge2" class="edge">
<title>bulkTransferFulfilment:bulkTransferId&#45;&gt;bulkTransferFulfilmentDuplicateCheck:bulkTransferId</title>
<path fill="none" stroke="black" d="M422.96,-718.72C531.51,-704.29 582.64,-466 470.6,-466"/>
<polygon fill="black" stroke="black" points="422.94,-718.72 412.66,-714.89 417.62,-719.07 413.29,-719.36 413.29,-719.36 413.29,-719.36 417.62,-719.07 413.26,-723.87 422.94,-718.72"/>
<text text-anchor="start" x="419.63" y="-729.4" font-family="Arial" font-size="10.00">FOREIGN KEY (bulkTransferId) REFERENCES bulkTransferFulfilmentDuplicateCheck (bulkTransferId)</text>
</g>
</g>
</svg>
