<?xml version="1.0" encoding="UTF-8" standalone="no"?>
<!DOCTYPE svg PUBLIC "-//W3C//DTD SVG 1.1//EN"
 "http://www.w3.org/Graphics/SVG/1.1/DTD/svg11.dtd">
<!-- Generated by graphviz version 12.1.2 (20240928.0832)
 -->
<!-- Title: bulkTransferAssociation Pages: 1 -->
<svg width="1150pt" height="479pt"
 viewBox="0.00 0.00 1150.26 478.80" xmlns="http://www.w3.org/2000/svg" xmlns:xlink="http://www.w3.org/1999/xlink">
<g id="graph0" class="graph" transform="scale(1 1) rotate(0) translate(4 474.8)">
<title>bulkTransferAssociation</title>
<polygon fill="white" stroke="none" points="-4,4 -4,-474.8 1146.26,-474.8 1146.26,4 -4,4"/>
<!-- bulkTransferAssociation -->
<g id="node1" class="node">
<title>bulkTransferAssociation</title>
<polygon fill="#efefef" stroke="none" points="359.53,-389 359.53,-424.6 675.97,-424.6 675.97,-389 359.53,-389"/>
<polygon fill="none" stroke="black" points="359.53,-389 359.53,-424.6 675.97,-424.6 675.97,-389 359.53,-389"/>
<text text-anchor="start" x="366.53" y="-402.4" font-family="Arial Bold" font-size="18.00">bulkTransferAssociation</text>
<text text-anchor="start" x="544.48" y="-402.4" font-family="Arial" font-size="14.00">    </text>
<text text-anchor="start" x="575.6" y="-402.4" font-family="Arial" font-size="14.00" fill="#666666">[BASE TABLE]</text>
<polygon fill="none" stroke="black" points="359.53,-358.2 359.53,-389 675.97,-389 675.97,-358.2 359.53,-358.2"/>
<text text-anchor="start" x="366.53" y="-370.4" font-family="Arial" font-size="14.00">bulkTransferAssociationId </text>
<text text-anchor="start" x="531.5" y="-370.4" font-family="Arial" font-size="14.00" fill="#666666">[bigint unsigned]</text>
<polygon fill="none" stroke="black" points="359.53,-327.4 359.53,-358.2 675.97,-358.2 675.97,-327.4 359.53,-327.4"/>
<text text-anchor="start" x="366.53" y="-339.6" font-family="Arial" font-size="14.00">bulkTransferId </text>
<text text-anchor="start" x="459.9" y="-339.6" font-family="Arial" font-size="14.00" fill="#666666">[varchar(36)]</text>
<polygon fill="none" stroke="black" points="359.53,-296.6 359.53,-327.4 675.97,-327.4 675.97,-296.6 359.53,-296.6"/>
<text text-anchor="start" x="366.53" y="-308.8" font-family="Arial" font-size="14.00">bulkProcessingStateId </text>
<text text-anchor="start" x="509.72" y="-308.8" font-family="Arial" font-size="14.00" fill="#666666">[int unsigned]</text>
<polygon fill="none" stroke="black" stroke-width="3" points="358.03,-295.1 358.03,-426.1 677.47,-426.1 677.47,-295.1 358.03,-295.1"/>
</g>
<!-- bulkTransfer -->
<g id="node2" class="node">
<title>bulkTransfer</title>
<polygon fill="#efefef" stroke="none" points="221.03,-135.6 221.03,-171.2 452.48,-171.2 452.48,-135.6 221.03,-135.6"/>
<polygon fill="none" stroke="black" points="221.03,-135.6 221.03,-171.2 452.48,-171.2 452.48,-135.6 221.03,-135.6"/>
<text text-anchor="start" x="228.03" y="-149" font-family="Arial Bold" font-size="18.00">bulkTransfer</text>
<text text-anchor="start" x="320.99" y="-149" font-family="Arial" font-size="14.00">    </text>
<text text-anchor="start" x="352.11" y="-149" font-family="Arial" font-size="14.00" fill="#666666">[BASE TABLE]</text>
<polygon fill="none" stroke="black" points="221.03,-104.8 221.03,-135.6 452.48,-135.6 452.48,-104.8 221.03,-104.8"/>
<text text-anchor="start" x="228.03" y="-117" font-family="Arial" font-size="14.00">bulkTransferId </text>
<text text-anchor="start" x="321.4" y="-117" font-family="Arial" font-size="14.00" fill="#666666">[varchar(36)]</text>
<polygon fill="none" stroke="black" points="221.03,-74 221.03,-104.8 452.48,-104.8 452.48,-74 221.03,-74"/>
<text text-anchor="start" x="228.03" y="-86.2" font-family="Arial" font-size="14.00">payerParticipantId </text>
<text text-anchor="start" x="344.76" y="-86.2" font-family="Arial" font-size="14.00" fill="#666666">[int unsigned]</text>
<polygon fill="none" stroke="black" points="221.03,-43.2 221.03,-74 452.48,-74 452.48,-43.2 221.03,-43.2"/>
<text text-anchor="start" x="228.03" y="-55.4" font-family="Arial" font-size="14.00">payeeParticipantId </text>
<text text-anchor="start" x="347.88" y="-55.4" font-family="Arial" font-size="14.00" fill="#666666">[int unsigned]</text>
</g>
<!-- bulkTransferAssociation&#45;&gt;bulkTransfer -->
<g id="edge1" class="edge">
<title>bulkTransferAssociation:bulkTransferId&#45;&gt;bulkTransfer:bulkTransferId</title>
<path fill="none" stroke="black" d="M348.51,-341.32C321.01,-332.02 338.33,-280.99 359.53,-250.4 384.77,-213.99 427.25,-250.81 452.48,-214.4 476.32,-179.99 495.35,-120.2 453.48,-120.2"/>
<polygon fill="black" stroke="black" points="348.31,-341.29 357.54,-347.2 353.58,-342.07 357.87,-342.7 357.87,-342.7 357.87,-342.7 353.58,-342.07 358.86,-338.3 348.31,-341.29"/>
<text text-anchor="start" x="7" y="-352.8" font-family="Arial" font-size="10.00">FOREIGN KEY (bulkTransferId) REFERENCES bulkTransfer (bulkTransferId)</text>
</g>
<!-- bulkProcessingState -->
<g id="node3" class="node">
<title>bulkProcessingState</title>
<polygon fill="#efefef" stroke="none" points="556.51,-104.8 556.51,-140.4 840.99,-140.4 840.99,-104.8 556.51,-104.8"/>
<polygon fill="none" stroke="black" points="556.51,-104.8 556.51,-140.4 840.99,-140.4 840.99,-104.8 556.51,-104.8"/>
<text text-anchor="start" x="563.51" y="-118.2" font-family="Arial Bold" font-size="18.00">bulkProcessingState</text>
<text text-anchor="start" x="709.5" y="-118.2" font-family="Arial" font-size="14.00">    </text>
<text text-anchor="start" x="740.62" y="-118.2" font-family="Arial" font-size="14.00" fill="#666666">[BASE TABLE]</text>
<polygon fill="none" stroke="black" points="556.51,-74 556.51,-104.8 840.99,-104.8 840.99,-74 556.51,-74"/>
<text text-anchor="start" x="563.51" y="-86.2" font-family="Arial" font-size="14.00">bulkProcessingStateId </text>
<text text-anchor="start" x="706.71" y="-86.2" font-family="Arial" font-size="14.00" fill="#666666">[int unsigned]</text>
</g>
<!-- bulkTransferAssociation&#45;&gt;bulkProcessingState -->
<g id="edge2" class="edge">
<title>bulkTransferAssociation:bulkProcessingStateId&#45;&gt;bulkProcessingState:bulkProcessingStateId</title>
<path fill="none" stroke="black" d="M686.91,-309.41C699.88,-300.45 687.82,-270.23 675.97,-250.4 644.77,-198.18 587.57,-235.91 556.51,-183.6 535.14,-147.6 513.65,-89.4 555.51,-89.4"/>
<polygon fill="black" stroke="black" points="686.97,-309.39 676.16,-307.56 681.81,-310.74 677.62,-311.83 677.62,-311.83 677.62,-311.83 681.81,-310.74 678.43,-316.27 686.97,-309.39"/>
<text text-anchor="start" x="683.97" y="-322" font-family="Arial" font-size="10.00">FOREIGN KEY (bulkProcessingStateId) REFERENCES bulkProcessingState (bulkProcessingStateId)</text>
</g>
</g>
</svg>
