<?xml version="1.0" encoding="UTF-8" standalone="no"?>
<!DOCTYPE svg PUBLIC "-//W3C//DTD SVG 1.1//EN"
 "http://www.w3.org/Graphics/SVG/1.1/DTD/svg11.dtd">
<!-- Generated by graphviz version 12.1.2 (20240928.0832)
 -->
<!-- Title: bulkTransferDuplicateCheck Pages: 1 -->
<svg width="773pt" height="435pt"
 viewBox="0.00 0.00 773.19 435.08" xmlns="http://www.w3.org/2000/svg" xmlns:xlink="http://www.w3.org/1999/xlink">
<g id="graph0" class="graph" transform="scale(1 1) rotate(0) translate(4 431.08)">
<title>bulkTransferDuplicateCheck</title>
<polygon fill="white" stroke="none" points="-4,4 -4,-431.08 769.19,-431.08 769.19,4 -4,4"/>
<!-- bulkTransferDuplicateCheck -->
<g id="node1" class="node">
<title>bulkTransferDuplicateCheck</title>
<polygon fill="#efefef" stroke="none" points="46.2,-94.88 46.2,-130.48 393.61,-130.48 393.61,-94.88 46.2,-94.88"/>
<polygon fill="none" stroke="black" points="46.2,-94.88 46.2,-130.48 393.61,-130.48 393.61,-94.88 46.2,-94.88"/>
<text text-anchor="start" x="53.2" y="-108.28" font-family="Arial Bold" font-size="18.00">bulkTransferDuplicateCheck</text>
<text text-anchor="start" x="262.12" y="-108.28" font-family="Arial" font-size="14.00">    </text>
<text text-anchor="start" x="293.23" y="-108.28" font-family="Arial" font-size="14.00" fill="#666666">[BASE TABLE]</text>
<polygon fill="none" stroke="black" points="46.2,-64.08 46.2,-94.88 393.61,-94.88 393.61,-64.08 46.2,-64.08"/>
<text text-anchor="start" x="53.2" y="-76.28" font-family="Arial" font-size="14.00">bulkTransferId </text>
<text text-anchor="start" x="146.57" y="-76.28" font-family="Arial" font-size="14.00" fill="#666666">[varchar(36)]</text>
<polygon fill="none" stroke="black" stroke-width="3" points="44.7,-62.58 44.7,-131.98 395.11,-131.98 395.11,-62.58 44.7,-62.58"/>
</g>
<!-- bulkTransfer -->
<g id="node2" class="node">
<title>bulkTransfer</title>
<polygon fill="#efefef" stroke="none" points="104.18,-348.28 104.18,-383.88 335.63,-383.88 335.63,-348.28 104.18,-348.28"/>
<polygon fill="none" stroke="black" points="104.18,-348.28 104.18,-383.88 335.63,-383.88 335.63,-348.28 104.18,-348.28"/>
<text text-anchor="start" x="111.18" y="-361.68" font-family="Arial Bold" font-size="18.00">bulkTransfer</text>
<text text-anchor="start" x="204.14" y="-361.68" font-family="Arial" font-size="14.00">    </text>
<text text-anchor="start" x="235.26" y="-361.68" font-family="Arial" font-size="14.00" fill="#666666">[BASE TABLE]</text>
<polygon fill="none" stroke="black" points="104.18,-317.48 104.18,-348.28 335.63,-348.28 335.63,-317.48 104.18,-317.48"/>
<text text-anchor="start" x="111.18" y="-329.68" font-family="Arial" font-size="14.00">bulkTransferId </text>
<text text-anchor="start" x="204.55" y="-329.68" font-family="Arial" font-size="14.00" fill="#666666">[varchar(36)]</text>
<polygon fill="none" stroke="black" points="104.18,-286.68 104.18,-317.48 335.63,-317.48 335.63,-286.68 104.18,-286.68"/>
<text text-anchor="start" x="111.18" y="-298.88" font-family="Arial" font-size="14.00">payerParticipantId </text>
<text text-anchor="start" x="227.91" y="-298.88" font-family="Arial" font-size="14.00" fill="#666666">[int unsigned]</text>
<polygon fill="none" stroke="black" points="104.18,-255.88 104.18,-286.68 335.63,-286.68 335.63,-255.88 104.18,-255.88"/>
<text text-anchor="start" x="111.18" y="-268.08" font-family="Arial" font-size="14.00">payeeParticipantId </text>
<text text-anchor="start" x="231.03" y="-268.08" font-family="Arial" font-size="14.00" fill="#666666">[int unsigned]</text>
</g>
<!-- bulkTransfer&#45;&gt;bulkTransferDuplicateCheck -->
<g id="edge1" class="edge">
<title>bulkTransfer:bulkTransferId&#45;&gt;bulkTransferDuplicateCheck:bulkTransferId</title>
<path fill="none" stroke="black" d="M346.9,-331.07C409.15,-309.81 482.56,-107.03 439.81,-64.08 370.85,5.19 219.9,34.66 219.9,-63.08"/>
<polygon fill="black" stroke="black" points="346.81,-331.09 336.18,-328.39 341.55,-332.01 337.29,-332.76 337.29,-332.76 337.29,-332.76 341.55,-332.01 337.74,-337.25 346.81,-331.09"/>
<text text-anchor="start" x="343.63" y="-342.88" font-family="Arial" font-size="10.00">FOREIGN KEY (bulkTransferId) REFERENCES bulkTransferDuplicateCheck (bulkTransferId)</text>
</g>
</g>
</svg>
