<?xml version="1.0" encoding="UTF-8" standalone="no"?>
<!DOCTYPE svg PUBLIC "-//W3C//DTD SVG 1.1//EN"
 "http://www.w3.org/Graphics/SVG/1.1/DTD/svg11.dtd">
<!-- Generated by graphviz version 12.1.2 (20240928.0832)
 -->
<!-- Title: bulkTransferState Pages: 1 -->
<svg width="803pt" height="602pt"
 viewBox="0.00 0.00 803.21 602.00" xmlns="http://www.w3.org/2000/svg" xmlns:xlink="http://www.w3.org/1999/xlink">
<g id="graph0" class="graph" transform="scale(1 1) rotate(0) translate(4 598)">
<title>bulkTransferState</title>
<polygon fill="white" stroke="none" points="-4,4 -4,-598 799.21,-598 799.21,4 -4,4"/>
<!-- bulkTransferState -->
<g id="node1" class="node">
<title>bulkTransferState</title>
<polygon fill="#efefef" stroke="none" points="70.69,-200.2 70.69,-235.8 338.13,-235.8 338.13,-200.2 70.69,-200.2"/>
<polygon fill="none" stroke="black" points="70.69,-200.2 70.69,-235.8 338.13,-235.8 338.13,-200.2 70.69,-200.2"/>
<text text-anchor="start" x="77.69" y="-213.6" font-family="Arial Bold" font-size="18.00">bulkTransferState</text>
<text text-anchor="start" x="206.65" y="-213.6" font-family="Arial" font-size="14.00">    </text>
<text text-anchor="start" x="237.76" y="-213.6" font-family="Arial" font-size="14.00" fill="#666666">[BASE TABLE]</text>
<polygon fill="none" stroke="black" points="70.69,-169.4 70.69,-200.2 338.13,-200.2 338.13,-169.4 70.69,-169.4"/>
<text text-anchor="start" x="77.69" y="-181.6" font-family="Arial" font-size="14.00">bulkTransferStateId </text>
<text text-anchor="start" x="203.75" y="-181.6" font-family="Arial" font-size="14.00" fill="#666666">[varchar(50)]</text>
<polygon fill="none" stroke="black" points="70.69,-138.6 70.69,-169.4 338.13,-169.4 338.13,-138.6 70.69,-138.6"/>
<text text-anchor="start" x="77.69" y="-150.8" font-family="Arial" font-size="14.00">enumeration </text>
<text text-anchor="start" x="159.41" y="-150.8" font-family="Arial" font-size="14.00" fill="#666666">[varchar(50)]</text>
<polygon fill="none" stroke="black" points="70.69,-107.8 70.69,-138.6 338.13,-138.6 338.13,-107.8 70.69,-107.8"/>
<text text-anchor="start" x="77.69" y="-120" font-family="Arial" font-size="14.00">description </text>
<text text-anchor="start" x="149.28" y="-120" font-family="Arial" font-size="14.00" fill="#666666">[varchar(512)]</text>
<polygon fill="none" stroke="black" points="70.69,-77 70.69,-107.8 338.13,-107.8 338.13,-77 70.69,-77"/>
<text text-anchor="start" x="77.69" y="-89.2" font-family="Arial" font-size="14.00">isActive </text>
<text text-anchor="start" x="129.82" y="-89.2" font-family="Arial" font-size="14.00" fill="#666666">[tinyint(1)]</text>
<polygon fill="none" stroke="black" points="70.69,-46.2 70.69,-77 338.13,-77 338.13,-46.2 70.69,-46.2"/>
<text text-anchor="start" x="77.69" y="-58.4" font-family="Arial" font-size="14.00">createdDate </text>
<text text-anchor="start" x="157.85" y="-58.4" font-family="Arial" font-size="14.00" fill="#666666">[datetime]</text>
<polygon fill="none" stroke="black" stroke-width="3" points="69.19,-44.7 69.19,-237.3 339.63,-237.3 339.63,-44.7 69.19,-44.7"/>
</g>
<!-- bulkTransferStateChange -->
<g id="node2" class="node">
<title>bulkTransferStateChange</title>
<polygon fill="#efefef" stroke="none" points="43.2,-515.2 43.2,-550.8 365.63,-550.8 365.63,-515.2 43.2,-515.2"/>
<polygon fill="none" stroke="black" points="43.2,-515.2 43.2,-550.8 365.63,-550.8 365.63,-515.2 43.2,-515.2"/>
<text text-anchor="start" x="50.2" y="-528.6" font-family="Arial Bold" font-size="18.00">bulkTransferStateChange</text>
<text text-anchor="start" x="234.14" y="-528.6" font-family="Arial" font-size="14.00">    </text>
<text text-anchor="start" x="265.25" y="-528.6" font-family="Arial" font-size="14.00" fill="#666666">[BASE TABLE]</text>
<polygon fill="none" stroke="black" points="43.2,-484.4 43.2,-515.2 365.63,-515.2 365.63,-484.4 43.2,-484.4"/>
<text text-anchor="start" x="50.2" y="-496.6" font-family="Arial" font-size="14.00">bulkTransferStateChangeId </text>
<text text-anchor="start" x="225.3" y="-496.6" font-family="Arial" font-size="14.00" fill="#666666">[bigint unsigned]</text>
<polygon fill="none" stroke="black" points="43.2,-453.6 43.2,-484.4 365.63,-484.4 365.63,-453.6 43.2,-453.6"/>
<text text-anchor="start" x="50.2" y="-465.8" font-family="Arial" font-size="14.00">bulkTransferId </text>
<text text-anchor="start" x="143.57" y="-465.8" font-family="Arial" font-size="14.00" fill="#666666">[varchar(36)]</text>
<polygon fill="none" stroke="black" points="43.2,-422.8 43.2,-453.6 365.63,-453.6 365.63,-422.8 43.2,-422.8"/>
<text text-anchor="start" x="50.2" y="-435" font-family="Arial" font-size="14.00">bulkTransferStateId </text>
<text text-anchor="start" x="176.26" y="-435" font-family="Arial" font-size="14.00" fill="#666666">[varchar(50)]</text>
<polygon fill="none" stroke="black" points="43.2,-392 43.2,-422.8 365.63,-422.8 365.63,-392 43.2,-392"/>
<text text-anchor="start" x="50.2" y="-404.2" font-family="Arial" font-size="14.00">reason </text>
<text text-anchor="start" x="96.9" y="-404.2" font-family="Arial" font-size="14.00" fill="#666666">[varchar(512)]</text>
<polygon fill="none" stroke="black" points="43.2,-361.2 43.2,-392 365.63,-392 365.63,-361.2 43.2,-361.2"/>
<text text-anchor="start" x="50.2" y="-373.4" font-family="Arial" font-size="14.00">createdDate </text>
<text text-anchor="start" x="130.36" y="-373.4" font-family="Arial" font-size="14.00" fill="#666666">[datetime]</text>
</g>
<!-- bulkTransferStateChange&#45;&gt;bulkTransferState -->
<g id="edge1" class="edge">
<title>bulkTransferStateChange:bulkTransferStateId&#45;&gt;bulkTransferState:bulkTransferStateId</title>
<path fill="none" stroke="black" d="M376.84,-437.47C478.11,-422.61 448.88,-184.8 339.13,-184.8"/>
<polygon fill="black" stroke="black" points="376.94,-437.47 366.64,-433.69 371.61,-437.84 367.29,-438.15 367.29,-438.15 367.29,-438.15 371.61,-437.84 367.28,-442.66 376.94,-437.47"/>
<text text-anchor="start" x="373.63" y="-448.2" font-family="Arial" font-size="10.00">FOREIGN KEY (bulkTransferStateId) REFERENCES bulkTransferState (bulkTransferStateId)</text>
</g>
</g>
</svg>
