<?xml version="1.0" encoding="UTF-8" standalone="no"?>
<!DOCTYPE svg PUBLIC "-//W3C//DTD SVG 1.1//EN"
 "http://www.w3.org/Graphics/SVG/1.1/DTD/svg11.dtd">
<!-- Generated by graphviz version 12.1.2 (20240928.0832)
 -->
<!-- Title: bulkTransferFulfilment Pages: 1 -->
<svg width="747pt" height="356pt"
 viewBox="0.00 0.00 746.82 355.60" xmlns="http://www.w3.org/2000/svg" xmlns:xlink="http://www.w3.org/1999/xlink">
<g id="graph0" class="graph" transform="scale(1 1) rotate(0) translate(4 351.6)">
<title>bulkTransferFulfilment</title>
<polygon fill="white" stroke="none" points="-4,4 -4,-351.6 742.82,-351.6 742.82,4 -4,4"/>
<!-- bulkTransferFulfilment -->
<g id="node1" class="node">
<title>bulkTransferFulfilment</title>
<polygon fill="#efefef" stroke="none" points="318.19,-265.8 318.19,-301.4 625.64,-301.4 625.64,-265.8 318.19,-265.8"/>
<polygon fill="none" stroke="black" points="318.19,-265.8 318.19,-301.4 625.64,-301.4 625.64,-265.8 318.19,-265.8"/>
<text text-anchor="start" x="325.19" y="-279.2" font-family="Arial Bold" font-size="18.00">bulkTransferFulfilment</text>
<text text-anchor="start" x="494.15" y="-279.2" font-family="Arial" font-size="14.00">    </text>
<text text-anchor="start" x="525.26" y="-279.2" font-family="Arial" font-size="14.00" fill="#666666">[BASE TABLE]</text>
<polygon fill="none" stroke="black" points="318.19,-235 318.19,-265.8 625.64,-265.8 625.64,-235 318.19,-235"/>
<text text-anchor="start" x="325.19" y="-247.2" font-family="Arial" font-size="14.00">bulkTransferId </text>
<text text-anchor="start" x="418.56" y="-247.2" font-family="Arial" font-size="14.00" fill="#666666">[varchar(36)]</text>
<polygon fill="none" stroke="black" stroke-width="3" points="316.69,-233.5 316.69,-302.9 627.14,-302.9 627.14,-233.5 316.69,-233.5"/>
</g>
<!-- bulkTransferFulfilmentDuplicateCheck -->
<g id="node2" class="node">
<title>bulkTransferFulfilmentDuplicateCheck</title>
<polygon fill="#efefef" stroke="none" points="260.21,-74 260.21,-109.6 683.61,-109.6 683.61,-74 260.21,-74"/>
<polygon fill="none" stroke="black" points="260.21,-74 260.21,-109.6 683.61,-109.6 683.61,-74 260.21,-74"/>
<text text-anchor="start" x="267.21" y="-87.4" font-family="Arial Bold" font-size="18.00">bulkTransferFulfilmentDuplicateCheck</text>
<text text-anchor="start" x="552.12" y="-87.4" font-family="Arial" font-size="14.00">    </text>
<text text-anchor="start" x="583.24" y="-87.4" font-family="Arial" font-size="14.00" fill="#666666">[BASE TABLE]</text>
<polygon fill="none" stroke="black" points="260.21,-43.2 260.21,-74 683.61,-74 683.61,-43.2 260.21,-43.2"/>
<text text-anchor="start" x="267.21" y="-55.4" font-family="Arial" font-size="14.00">bulkTransferId </text>
<text text-anchor="start" x="360.58" y="-55.4" font-family="Arial" font-size="14.00" fill="#666666">[varchar(36)]</text>
</g>
<!-- bulkTransferFulfilment&#45;&gt;bulkTransferFulfilmentDuplicateCheck -->
<g id="edge1" class="edge">
<title>bulkTransferFulfilment:bulkTransferId&#45;&gt;bulkTransferFulfilmentDuplicateCheck:bulkTransferId</title>
<path fill="none" stroke="black" d="M472.44,-223.58C483.34,-123.23 658.84,-245.79 726.81,-152.8 741.18,-133.14 744,-60.46 726.81,-43.2 686.84,-3.07 471.91,14.45 471.91,-42.2"/>
<polygon fill="black" stroke="black" points="472.44,-223.68 467.43,-233.44 472.17,-229.01 471.94,-233.33 471.94,-233.33 471.94,-233.33 472.17,-229.01 476.42,-233.9 472.44,-223.68"/>
<text text-anchor="start" x="7" y="-244" font-family="Arial" font-size="10.00">FOREIGN KEY (bulkTransferId) REFERENCES bulkTransferFulfilmentDuplicateCheck (bulkTransferId)</text>
</g>
</g>
</svg>
