<?xml version="1.0" encoding="UTF-8" standalone="no"?>
<!DOCTYPE svg PUBLIC "-//W3C//DTD SVG 1.1//EN"
 "http://www.w3.org/Graphics/SVG/1.1/DTD/svg11.dtd">
<!-- Generated by graphviz version 12.1.2 (20240928.0832)
 -->
<!-- Title: bulkTransferExtension Pages: 1 -->
<svg width="564pt" height="448pt"
 viewBox="0.00 0.00 564.45 448.00" xmlns="http://www.w3.org/2000/svg" xmlns:xlink="http://www.w3.org/1999/xlink">
<g id="graph0" class="graph" transform="scale(1 1) rotate(0) translate(4 444)">
<title>bulkTransferExtension</title>
<polygon fill="white" stroke="none" points="-4,4 -4,-444 560.45,-444 560.45,4 -4,4"/>
<!-- bulkTransferExtension -->
<g id="node1" class="node">
<title>bulkTransferExtension</title>
<polygon fill="#efefef" stroke="none" points="206.81,-358.2 206.81,-393.8 510.25,-393.8 510.25,-358.2 206.81,-358.2"/>
<polygon fill="none" stroke="black" points="206.81,-358.2 206.81,-393.8 510.25,-393.8 510.25,-358.2 206.81,-358.2"/>
<text text-anchor="start" x="213.81" y="-371.6" font-family="Arial Bold" font-size="18.00">bulkTransferExtension</text>
<text text-anchor="start" x="378.76" y="-371.6" font-family="Arial" font-size="14.00">    </text>
<text text-anchor="start" x="409.88" y="-371.6" font-family="Arial" font-size="14.00" fill="#666666">[BASE TABLE]</text>
<polygon fill="none" stroke="black" points="206.81,-327.4 206.81,-358.2 510.25,-358.2 510.25,-327.4 206.81,-327.4"/>
<text text-anchor="start" x="213.81" y="-339.6" font-family="Arial" font-size="14.00">bulkTransferExtensionId </text>
<text text-anchor="start" x="368.66" y="-339.6" font-family="Arial" font-size="14.00" fill="#666666">[bigint unsigned]</text>
<polygon fill="none" stroke="black" points="206.81,-296.6 206.81,-327.4 510.25,-327.4 510.25,-296.6 206.81,-296.6"/>
<text text-anchor="start" x="213.81" y="-308.8" font-family="Arial" font-size="14.00">bulkTransferId </text>
<text text-anchor="start" x="307.18" y="-308.8" font-family="Arial" font-size="14.00" fill="#666666">[varchar(36)]</text>
<polygon fill="none" stroke="black" stroke-width="3" points="205.31,-295.1 205.31,-395.3 511.75,-395.3 511.75,-295.1 205.31,-295.1"/>
</g>
<!-- bulkTransfer -->
<g id="node2" class="node">
<title>bulkTransfer</title>
<polygon fill="#efefef" stroke="none" points="242.81,-135.6 242.81,-171.2 474.26,-171.2 474.26,-135.6 242.81,-135.6"/>
<polygon fill="none" stroke="black" points="242.81,-135.6 242.81,-171.2 474.26,-171.2 474.26,-135.6 242.81,-135.6"/>
<text text-anchor="start" x="249.81" y="-149" font-family="Arial Bold" font-size="18.00">bulkTransfer</text>
<text text-anchor="start" x="342.77" y="-149" font-family="Arial" font-size="14.00">    </text>
<text text-anchor="start" x="373.88" y="-149" font-family="Arial" font-size="14.00" fill="#666666">[BASE TABLE]</text>
<polygon fill="none" stroke="black" points="242.81,-104.8 242.81,-135.6 474.26,-135.6 474.26,-104.8 242.81,-104.8"/>
<text text-anchor="start" x="249.81" y="-117" font-family="Arial" font-size="14.00">bulkTransferId </text>
<text text-anchor="start" x="343.18" y="-117" font-family="Arial" font-size="14.00" fill="#666666">[varchar(36)]</text>
<polygon fill="none" stroke="black" points="242.81,-74 242.81,-104.8 474.26,-104.8 474.26,-74 242.81,-74"/>
<text text-anchor="start" x="249.81" y="-86.2" font-family="Arial" font-size="14.00">payerParticipantId </text>
<text text-anchor="start" x="366.54" y="-86.2" font-family="Arial" font-size="14.00" fill="#666666">[int unsigned]</text>
<polygon fill="none" stroke="black" points="242.81,-43.2 242.81,-74 474.26,-74 474.26,-43.2 242.81,-43.2"/>
<text text-anchor="start" x="249.81" y="-55.4" font-family="Arial" font-size="14.00">payeeParticipantId </text>
<text text-anchor="start" x="369.66" y="-55.4" font-family="Arial" font-size="14.00" fill="#666666">[int unsigned]</text>
</g>
<!-- bulkTransferExtension&#45;&gt;bulkTransfer -->
<g id="edge1" class="edge">
<title>bulkTransferExtension:bulkTransferId&#45;&gt;bulkTransfer:bulkTransferId</title>
<path fill="none" stroke="black" d="M359.45,-285.24C368.79,-236.94 446.75,-266.63 474.26,-214.4 493.77,-177.36 517.13,-120.2 475.26,-120.2"/>
<polygon fill="black" stroke="black" points="359.44,-285.31 354.08,-294.87 358.97,-290.62 358.59,-294.93 358.59,-294.93 358.59,-294.93 358.97,-290.62 363.04,-295.66 359.44,-285.31"/>
<text text-anchor="start" x="7" y="-305.6" font-family="Arial" font-size="10.00">FOREIGN KEY (bulkTransferId) REFERENCES bulkTransfer (bulkTransferId)</text>
</g>
</g>
</svg>
