<?xml version="1.0" encoding="UTF-8" standalone="no"?>
<!DOCTYPE svg PUBLIC "-//W3C//DTD SVG 1.1//EN"
 "http://www.w3.org/Graphics/SVG/1.1/DTD/svg11.dtd">
<!-- Generated by graphviz version 12.1.2 (20240928.0832)
 -->
<!-- Title: bulkTransferError Pages: 1 -->
<svg width="893pt" height="602pt"
 viewBox="0.00 0.00 892.62 602.00" xmlns="http://www.w3.org/2000/svg" xmlns:xlink="http://www.w3.org/1999/xlink">
<g id="graph0" class="graph" transform="scale(1 1) rotate(0) translate(4 598)">
<title>bulkTransferError</title>
<polygon fill="white" stroke="none" points="-4,4 -4,-598 888.62,-598 888.62,4 -4,4"/>
<!-- bulkTransferError -->
<g id="node1" class="node">
<title>bulkTransferError</title>
<polygon fill="#efefef" stroke="none" points="58.88,-512.2 58.88,-547.8 349.95,-547.8 349.95,-512.2 58.88,-512.2"/>
<polygon fill="none" stroke="black" points="58.88,-512.2 58.88,-547.8 349.95,-547.8 349.95,-512.2 58.88,-512.2"/>
<text text-anchor="start" x="76.7" y="-525.6" font-family="Arial Bold" font-size="18.00">bulkTransferError</text>
<text text-anchor="start" x="207.64" y="-525.6" font-family="Arial" font-size="14.00">    </text>
<text text-anchor="start" x="238.76" y="-525.6" font-family="Arial" font-size="14.00" fill="#666666">[BASE TABLE]</text>
<polygon fill="none" stroke="black" points="58.88,-481.4 58.88,-512.2 349.95,-512.2 349.95,-481.4 58.88,-481.4"/>
<text text-anchor="start" x="65.88" y="-493.6" font-family="Arial" font-size="14.00">bulkTransferErrorId </text>
<text text-anchor="start" x="190.36" y="-493.6" font-family="Arial" font-size="14.00" fill="#666666">[bigint unsigned]</text>
<polygon fill="none" stroke="black" points="58.88,-450.6 58.88,-481.4 349.95,-481.4 349.95,-450.6 58.88,-450.6"/>
<text text-anchor="start" x="65.88" y="-462.8" font-family="Arial" font-size="14.00">bulkTransferStateChangeId </text>
<text text-anchor="start" x="240.98" y="-462.8" font-family="Arial" font-size="14.00" fill="#666666">[bigint unsigned]</text>
<polygon fill="none" stroke="black" points="58.88,-419.8 58.88,-450.6 349.95,-450.6 349.95,-419.8 58.88,-419.8"/>
<text text-anchor="start" x="65.88" y="-432" font-family="Arial" font-size="14.00">errorCode </text>
<text text-anchor="start" x="132.8" y="-432" font-family="Arial" font-size="14.00" fill="#666666">[int unsigned]</text>
<polygon fill="none" stroke="black" points="58.88,-389 58.88,-419.8 349.95,-419.8 349.95,-389 58.88,-389"/>
<text text-anchor="start" x="65.88" y="-401.2" font-family="Arial" font-size="14.00">errorDescription </text>
<text text-anchor="start" x="169.36" y="-401.2" font-family="Arial" font-size="14.00" fill="#666666">[varchar(128)]</text>
<polygon fill="none" stroke="black" points="58.88,-358.2 58.88,-389 349.95,-389 349.95,-358.2 58.88,-358.2"/>
<text text-anchor="start" x="65.88" y="-370.4" font-family="Arial" font-size="14.00">createdDate </text>
<text text-anchor="start" x="146.04" y="-370.4" font-family="Arial" font-size="14.00" fill="#666666">[datetime]</text>
<polygon fill="none" stroke="black" stroke-width="3" points="57.38,-356.7 57.38,-549.3 351.45,-549.3 351.45,-356.7 57.38,-356.7"/>
</g>
<!-- bulkTransferStateChange -->
<g id="node2" class="node">
<title>bulkTransferStateChange</title>
<polygon fill="#efefef" stroke="none" points="43.2,-197.2 43.2,-232.8 365.63,-232.8 365.63,-197.2 43.2,-197.2"/>
<polygon fill="none" stroke="black" points="43.2,-197.2 43.2,-232.8 365.63,-232.8 365.63,-197.2 43.2,-197.2"/>
<text text-anchor="start" x="50.2" y="-210.6" font-family="Arial Bold" font-size="18.00">bulkTransferStateChange</text>
<text text-anchor="start" x="234.14" y="-210.6" font-family="Arial" font-size="14.00">    </text>
<text text-anchor="start" x="265.25" y="-210.6" font-family="Arial" font-size="14.00" fill="#666666">[BASE TABLE]</text>
<polygon fill="none" stroke="black" points="43.2,-166.4 43.2,-197.2 365.63,-197.2 365.63,-166.4 43.2,-166.4"/>
<text text-anchor="start" x="50.2" y="-178.6" font-family="Arial" font-size="14.00">bulkTransferStateChangeId </text>
<text text-anchor="start" x="225.3" y="-178.6" font-family="Arial" font-size="14.00" fill="#666666">[bigint unsigned]</text>
<polygon fill="none" stroke="black" points="43.2,-135.6 43.2,-166.4 365.63,-166.4 365.63,-135.6 43.2,-135.6"/>
<text text-anchor="start" x="50.2" y="-147.8" font-family="Arial" font-size="14.00">bulkTransferId </text>
<text text-anchor="start" x="143.57" y="-147.8" font-family="Arial" font-size="14.00" fill="#666666">[varchar(36)]</text>
<polygon fill="none" stroke="black" points="43.2,-104.8 43.2,-135.6 365.63,-135.6 365.63,-104.8 43.2,-104.8"/>
<text text-anchor="start" x="50.2" y="-117" font-family="Arial" font-size="14.00">bulkTransferStateId </text>
<text text-anchor="start" x="176.26" y="-117" font-family="Arial" font-size="14.00" fill="#666666">[varchar(50)]</text>
<polygon fill="none" stroke="black" points="43.2,-74 43.2,-104.8 365.63,-104.8 365.63,-74 43.2,-74"/>
<text text-anchor="start" x="50.2" y="-86.2" font-family="Arial" font-size="14.00">reason </text>
<text text-anchor="start" x="96.9" y="-86.2" font-family="Arial" font-size="14.00" fill="#666666">[varchar(512)]</text>
<polygon fill="none" stroke="black" points="43.2,-43.2 43.2,-74 365.63,-74 365.63,-43.2 43.2,-43.2"/>
<text text-anchor="start" x="50.2" y="-55.4" font-family="Arial" font-size="14.00">createdDate </text>
<text text-anchor="start" x="130.36" y="-55.4" font-family="Arial" font-size="14.00" fill="#666666">[datetime]</text>
</g>
<!-- bulkTransferError&#45;&gt;bulkTransferStateChange -->
<g id="edge1" class="edge">
<title>bulkTransferError:bulkTransferStateChangeId&#45;&gt;bulkTransferStateChange:bulkTransferStateChangeId</title>
<path fill="none" stroke="black" d="M360.89,-463.54C415.68,-435.77 426.42,-181.8 366.63,-181.8"/>
<polygon fill="black" stroke="black" points="360.98,-463.52 350.19,-461.55 355.8,-464.8 351.6,-465.84 351.6,-465.84 351.6,-465.84 355.8,-464.8 352.35,-470.29 360.98,-463.52"/>
<text text-anchor="start" x="357.95" y="-476" font-family="Arial" font-size="10.00">FOREIGN KEY (bulkTransferStateChangeId) REFERENCES bulkTransferStateChange (bulkTransferStateChangeId)</text>
</g>
</g>
</svg>
