<?xml version="1.0" encoding="UTF-8" standalone="no"?>
<!DOCTYPE svg PUBLIC "-//W3C//DTD SVG 1.1//EN"
 "http://www.w3.org/Graphics/SVG/1.1/DTD/svg11.dtd">
<!-- Generated by graphviz version 12.1.2 (20240928.0832)
 -->
<!-- Title: bulkTransferAssociation Pages: 1 -->
<svg width="1150pt" height="725pt"
 viewBox="0.00 0.00 1150.26 725.20" xmlns="http://www.w3.org/2000/svg" xmlns:xlink="http://www.w3.org/1999/xlink">
<g id="graph0" class="graph" transform="scale(1 1) rotate(0) translate(4 721.2)">
<title>bulkTransferAssociation</title>
<polygon fill="white" stroke="none" points="-4,4 -4,-721.2 1146.26,-721.2 1146.26,4 -4,4"/>
<!-- bulkTransferAssociation -->
<g id="node1" class="node">
<title>bulkTransferAssociation</title>
<polygon fill="#efefef" stroke="none" points="359.53,-635.4 359.53,-671 675.97,-671 675.97,-635.4 359.53,-635.4"/>
<polygon fill="none" stroke="black" points="359.53,-635.4 359.53,-671 675.97,-671 675.97,-635.4 359.53,-635.4"/>
<text text-anchor="start" x="366.53" y="-648.8" font-family="Arial Bold" font-size="18.00">bulkTransferAssociation</text>
<text text-anchor="start" x="544.48" y="-648.8" font-family="Arial" font-size="14.00">    </text>
<text text-anchor="start" x="575.6" y="-648.8" font-family="Arial" font-size="14.00" fill="#666666">[BASE TABLE]</text>
<polygon fill="none" stroke="black" points="359.53,-604.6 359.53,-635.4 675.97,-635.4 675.97,-604.6 359.53,-604.6"/>
<text text-anchor="start" x="366.53" y="-616.8" font-family="Arial" font-size="14.00">bulkTransferAssociationId </text>
<text text-anchor="start" x="531.5" y="-616.8" font-family="Arial" font-size="14.00" fill="#666666">[bigint unsigned]</text>
<polygon fill="none" stroke="black" points="359.53,-573.8 359.53,-604.6 675.97,-604.6 675.97,-573.8 359.53,-573.8"/>
<text text-anchor="start" x="366.53" y="-586" font-family="Arial" font-size="14.00">transferId </text>
<text text-anchor="start" x="429.56" y="-586" font-family="Arial" font-size="14.00" fill="#666666">[varchar(36)]</text>
<polygon fill="none" stroke="black" points="359.53,-543 359.53,-573.8 675.97,-573.8 675.97,-543 359.53,-543"/>
<text text-anchor="start" x="366.53" y="-555.2" font-family="Arial" font-size="14.00">bulkTransferId </text>
<text text-anchor="start" x="459.9" y="-555.2" font-family="Arial" font-size="14.00" fill="#666666">[varchar(36)]</text>
<polygon fill="none" stroke="black" points="359.53,-512.2 359.53,-543 675.97,-543 675.97,-512.2 359.53,-512.2"/>
<text text-anchor="start" x="366.53" y="-524.4" font-family="Arial" font-size="14.00">createdDate </text>
<text text-anchor="start" x="446.69" y="-524.4" font-family="Arial" font-size="14.00" fill="#666666">[datetime]</text>
<polygon fill="none" stroke="black" points="359.53,-481.4 359.53,-512.2 675.97,-512.2 675.97,-481.4 359.53,-481.4"/>
<text text-anchor="start" x="366.53" y="-493.6" font-family="Arial" font-size="14.00">bulkProcessingStateId </text>
<text text-anchor="start" x="509.72" y="-493.6" font-family="Arial" font-size="14.00" fill="#666666">[int unsigned]</text>
<polygon fill="none" stroke="black" points="359.53,-450.6 359.53,-481.4 675.97,-481.4 675.97,-450.6 359.53,-450.6"/>
<text text-anchor="start" x="366.53" y="-462.8" font-family="Arial" font-size="14.00">lastProcessedDate </text>
<text text-anchor="start" x="487.92" y="-462.8" font-family="Arial" font-size="14.00" fill="#666666">[datetime]</text>
<polygon fill="none" stroke="black" points="359.53,-419.8 359.53,-450.6 675.97,-450.6 675.97,-419.8 359.53,-419.8"/>
<text text-anchor="start" x="366.53" y="-432" font-family="Arial" font-size="14.00">errorCode </text>
<text text-anchor="start" x="433.45" y="-432" font-family="Arial" font-size="14.00" fill="#666666">[int unsigned]</text>
<polygon fill="none" stroke="black" points="359.53,-389 359.53,-419.8 675.97,-419.8 675.97,-389 359.53,-389"/>
<text text-anchor="start" x="366.53" y="-401.2" font-family="Arial" font-size="14.00">errorDescription </text>
<text text-anchor="start" x="470.01" y="-401.2" font-family="Arial" font-size="14.00" fill="#666666">[varchar(128)]</text>
<polygon fill="none" stroke="black" stroke-width="3" points="358.03,-387.5 358.03,-672.5 677.47,-672.5 677.47,-387.5 358.03,-387.5"/>
</g>
<!-- bulkTransfer -->
<g id="node2" class="node">
<title>bulkTransfer</title>
<polygon fill="#efefef" stroke="none" points="221.03,-228 221.03,-263.6 452.48,-263.6 452.48,-228 221.03,-228"/>
<polygon fill="none" stroke="black" points="221.03,-228 221.03,-263.6 452.48,-263.6 452.48,-228 221.03,-228"/>
<text text-anchor="start" x="228.03" y="-241.4" font-family="Arial Bold" font-size="18.00">bulkTransfer</text>
<text text-anchor="start" x="320.99" y="-241.4" font-family="Arial" font-size="14.00">    </text>
<text text-anchor="start" x="352.11" y="-241.4" font-family="Arial" font-size="14.00" fill="#666666">[BASE TABLE]</text>
<polygon fill="none" stroke="black" points="221.03,-197.2 221.03,-228 452.48,-228 452.48,-197.2 221.03,-197.2"/>
<text text-anchor="start" x="228.03" y="-209.4" font-family="Arial" font-size="14.00">bulkTransferId </text>
<text text-anchor="start" x="321.4" y="-209.4" font-family="Arial" font-size="14.00" fill="#666666">[varchar(36)]</text>
<polygon fill="none" stroke="black" points="221.03,-166.4 221.03,-197.2 452.48,-197.2 452.48,-166.4 221.03,-166.4"/>
<text text-anchor="start" x="228.03" y="-178.6" font-family="Arial" font-size="14.00">bulkQuoteId </text>
<text text-anchor="start" x="307.41" y="-178.6" font-family="Arial" font-size="14.00" fill="#666666">[varchar(36)]</text>
<polygon fill="none" stroke="black" points="221.03,-135.6 221.03,-166.4 452.48,-166.4 452.48,-135.6 221.03,-135.6"/>
<text text-anchor="start" x="228.03" y="-147.8" font-family="Arial" font-size="14.00">payerParticipantId </text>
<text text-anchor="start" x="344.76" y="-147.8" font-family="Arial" font-size="14.00" fill="#666666">[int unsigned]</text>
<polygon fill="none" stroke="black" points="221.03,-104.8 221.03,-135.6 452.48,-135.6 452.48,-104.8 221.03,-104.8"/>
<text text-anchor="start" x="228.03" y="-117" font-family="Arial" font-size="14.00">payeeParticipantId </text>
<text text-anchor="start" x="347.88" y="-117" font-family="Arial" font-size="14.00" fill="#666666">[int unsigned]</text>
<polygon fill="none" stroke="black" points="221.03,-74 221.03,-104.8 452.48,-104.8 452.48,-74 221.03,-74"/>
<text text-anchor="start" x="228.03" y="-86.2" font-family="Arial" font-size="14.00">expirationDate </text>
<text text-anchor="start" x="322.19" y="-86.2" font-family="Arial" font-size="14.00" fill="#666666">[datetime]</text>
<polygon fill="none" stroke="black" points="221.03,-43.2 221.03,-74 452.48,-74 452.48,-43.2 221.03,-43.2"/>
<text text-anchor="start" x="228.03" y="-55.4" font-family="Arial" font-size="14.00">createdDate </text>
<text text-anchor="start" x="308.18" y="-55.4" font-family="Arial" font-size="14.00" fill="#666666">[datetime]</text>
</g>
<!-- bulkTransferAssociation&#45;&gt;bulkTransfer -->
<g id="edge1" class="edge">
<title>bulkTransferAssociation:bulkTransferId&#45;&gt;bulkTransfer:bulkTransferId</title>
<path fill="none" stroke="black" d="M348.18,-557.82C265.96,-548.07 307.26,-418.72 359.53,-342.8 384.65,-306.31 427.25,-343.21 452.48,-306.8 476.32,-272.39 495.35,-212.6 453.48,-212.6"/>
<polygon fill="black" stroke="black" points="348.21,-557.82 357.94,-562.87 353.54,-558.12 357.86,-558.36 357.86,-558.36 357.86,-558.36 353.54,-558.12 358.45,-553.89 348.21,-557.82"/>
<text text-anchor="start" x="7" y="-568.4" font-family="Arial" font-size="10.00">FOREIGN KEY (bulkTransferId) REFERENCES bulkTransfer (bulkTransferId)</text>
</g>
<!-- bulkProcessingState -->
<g id="node3" class="node">
<title>bulkProcessingState</title>
<polygon fill="#efefef" stroke="none" points="556.51,-212.6 556.51,-248.2 840.99,-248.2 840.99,-212.6 556.51,-212.6"/>
<polygon fill="none" stroke="black" points="556.51,-212.6 556.51,-248.2 840.99,-248.2 840.99,-212.6 556.51,-212.6"/>
<text text-anchor="start" x="563.51" y="-226" font-family="Arial Bold" font-size="18.00">bulkProcessingState</text>
<text text-anchor="start" x="709.5" y="-226" font-family="Arial" font-size="14.00">    </text>
<text text-anchor="start" x="740.62" y="-226" font-family="Arial" font-size="14.00" fill="#666666">[BASE TABLE]</text>
<polygon fill="none" stroke="black" points="556.51,-181.8 556.51,-212.6 840.99,-212.6 840.99,-181.8 556.51,-181.8"/>
<text text-anchor="start" x="563.51" y="-194" font-family="Arial" font-size="14.00">bulkProcessingStateId </text>
<text text-anchor="start" x="706.71" y="-194" font-family="Arial" font-size="14.00" fill="#666666">[int unsigned]</text>
<polygon fill="none" stroke="black" points="556.51,-151 556.51,-181.8 840.99,-181.8 840.99,-151 556.51,-151"/>
<text text-anchor="start" x="563.51" y="-163.2" font-family="Arial" font-size="14.00">name </text>
<text text-anchor="start" x="602.42" y="-163.2" font-family="Arial" font-size="14.00" fill="#666666">[varchar(50)]</text>
<polygon fill="none" stroke="black" points="556.51,-120.2 556.51,-151 840.99,-151 840.99,-120.2 556.51,-120.2"/>
<text text-anchor="start" x="563.51" y="-132.4" font-family="Arial" font-size="14.00">description </text>
<text text-anchor="start" x="635.11" y="-132.4" font-family="Arial" font-size="14.00" fill="#666666">[varchar(512)]</text>
<polygon fill="none" stroke="black" points="556.51,-89.4 556.51,-120.2 840.99,-120.2 840.99,-89.4 556.51,-89.4"/>
<text text-anchor="start" x="563.51" y="-101.6" font-family="Arial" font-size="14.00">isActive </text>
<text text-anchor="start" x="615.64" y="-101.6" font-family="Arial" font-size="14.00" fill="#666666">[tinyint(1)]</text>
<polygon fill="none" stroke="black" points="556.51,-58.6 556.51,-89.4 840.99,-89.4 840.99,-58.6 556.51,-58.6"/>
<text text-anchor="start" x="563.51" y="-70.8" font-family="Arial" font-size="14.00">createdDate </text>
<text text-anchor="start" x="643.67" y="-70.8" font-family="Arial" font-size="14.00" fill="#666666">[datetime]</text>
</g>
<!-- bulkTransferAssociation&#45;&gt;bulkProcessingState -->
<g id="edge2" class="edge">
<title>bulkTransferAssociation:bulkProcessingStateId&#45;&gt;bulkProcessingState:bulkProcessingStateId</title>
<path fill="none" stroke="black" d="M687.32,-495.95C741.94,-486.32 711.73,-396.73 675.97,-342.8 644.03,-294.63 588.55,-339.51 556.51,-291.4 533.31,-256.55 513.65,-197.2 555.51,-197.2"/>
<polygon fill="black" stroke="black" points="687.27,-495.96 676.94,-492.29 681.96,-496.39 677.64,-496.75 677.64,-496.75 677.64,-496.75 681.96,-496.39 677.67,-501.26 687.27,-495.96"/>
<text text-anchor="start" x="683.97" y="-506.8" font-family="Arial" font-size="10.00">FOREIGN KEY (bulkProcessingStateId) REFERENCES bulkProcessingState (bulkProcessingStateId)</text>
</g>
</g>
</svg>
