<?xml version="1.0" encoding="UTF-8" standalone="no"?>
<!DOCTYPE svg PUBLIC "-//W3C//DTD SVG 1.1//EN"
 "http://www.w3.org/Graphics/SVG/1.1/DTD/svg11.dtd">
<!-- Generated by graphviz version 12.1.2 (20240928.0832)
 -->
<!-- Title: bulkTransferFulfilment Pages: 1 -->
<svg width="890pt" height="479pt"
 viewBox="0.00 0.00 889.54 478.80" xmlns="http://www.w3.org/2000/svg" xmlns:xlink="http://www.w3.org/1999/xlink">
<g id="graph0" class="graph" transform="scale(1 1) rotate(0) translate(4 474.8)">
<title>bulkTransferFulfilment</title>
<polygon fill="white" stroke="none" points="-4,4 -4,-474.8 885.54,-474.8 885.54,4 -4,4"/>
<!-- bulkTransferFulfilment -->
<g id="node1" class="node">
<title>bulkTransferFulfilment</title>
<polygon fill="#efefef" stroke="none" points="101.18,-389 101.18,-424.6 408.63,-424.6 408.63,-389 101.18,-389"/>
<polygon fill="none" stroke="black" points="101.18,-389 101.18,-424.6 408.63,-424.6 408.63,-389 101.18,-389"/>
<text text-anchor="start" x="108.18" y="-402.4" font-family="Arial Bold" font-size="18.00">bulkTransferFulfilment</text>
<text text-anchor="start" x="277.14" y="-402.4" font-family="Arial" font-size="14.00">    </text>
<text text-anchor="start" x="308.26" y="-402.4" font-family="Arial" font-size="14.00" fill="#666666">[BASE TABLE]</text>
<polygon fill="none" stroke="black" points="101.18,-358.2 101.18,-389 408.63,-389 408.63,-358.2 101.18,-358.2"/>
<text text-anchor="start" x="108.18" y="-370.4" font-family="Arial" font-size="14.00">bulkTransferId </text>
<text text-anchor="start" x="201.55" y="-370.4" font-family="Arial" font-size="14.00" fill="#666666">[varchar(36)]</text>
<polygon fill="none" stroke="black" points="101.18,-327.4 101.18,-358.2 408.63,-358.2 408.63,-327.4 101.18,-327.4"/>
<text text-anchor="start" x="108.18" y="-339.6" font-family="Arial" font-size="14.00">completedDate </text>
<text text-anchor="start" x="206.23" y="-339.6" font-family="Arial" font-size="14.00" fill="#666666">[datetime]</text>
<polygon fill="none" stroke="black" points="101.18,-296.6 101.18,-327.4 408.63,-327.4 408.63,-296.6 101.18,-296.6"/>
<text text-anchor="start" x="108.18" y="-308.8" font-family="Arial" font-size="14.00">createdDate </text>
<text text-anchor="start" x="188.34" y="-308.8" font-family="Arial" font-size="14.00" fill="#666666">[datetime]</text>
<polygon fill="none" stroke="black" stroke-width="3" points="99.68,-295.1 99.68,-426.1 410.13,-426.1 410.13,-295.1 99.68,-295.1"/>
</g>
<!-- bulkTransferFulfilmentDuplicateCheck -->
<g id="node2" class="node">
<title>bulkTransferFulfilmentDuplicateCheck</title>
<polygon fill="#efefef" stroke="none" points="43.2,-135.6 43.2,-171.2 466.6,-171.2 466.6,-135.6 43.2,-135.6"/>
<polygon fill="none" stroke="black" points="43.2,-135.6 43.2,-171.2 466.6,-171.2 466.6,-135.6 43.2,-135.6"/>
<text text-anchor="start" x="50.2" y="-149" font-family="Arial Bold" font-size="18.00">bulkTransferFulfilmentDuplicateCheck</text>
<text text-anchor="start" x="335.12" y="-149" font-family="Arial" font-size="14.00">    </text>
<text text-anchor="start" x="366.23" y="-149" font-family="Arial" font-size="14.00" fill="#666666">[BASE TABLE]</text>
<polygon fill="none" stroke="black" points="43.2,-104.8 43.2,-135.6 466.6,-135.6 466.6,-104.8 43.2,-104.8"/>
<text text-anchor="start" x="50.2" y="-117" font-family="Arial" font-size="14.00">bulkTransferId </text>
<text text-anchor="start" x="143.57" y="-117" font-family="Arial" font-size="14.00" fill="#666666">[varchar(36)]</text>
<polygon fill="none" stroke="black" points="43.2,-74 43.2,-104.8 466.6,-104.8 466.6,-74 43.2,-74"/>
<text text-anchor="start" x="50.2" y="-86.2" font-family="Arial" font-size="14.00">hash </text>
<text text-anchor="start" x="84.45" y="-86.2" font-family="Arial" font-size="14.00" fill="#666666">[varchar(256)]</text>
<polygon fill="none" stroke="black" points="43.2,-43.2 43.2,-74 466.6,-74 466.6,-43.2 43.2,-43.2"/>
<text text-anchor="start" x="50.2" y="-55.4" font-family="Arial" font-size="14.00">createdDate </text>
<text text-anchor="start" x="130.36" y="-55.4" font-family="Arial" font-size="14.00" fill="#666666">[datetime]</text>
</g>
<!-- bulkTransferFulfilment&#45;&gt;bulkTransferFulfilmentDuplicateCheck -->
<g id="edge1" class="edge">
<title>bulkTransferFulfilment:bulkTransferId&#45;&gt;bulkTransferFulfilmentDuplicateCheck:bulkTransferId</title>
<path fill="none" stroke="black" d="M419.76,-371.09C473.79,-344.77 521.99,-120.2 467.6,-120.2"/>
<polygon fill="black" stroke="black" points="419.66,-371.12 408.87,-369.15 414.48,-372.4 410.28,-373.44 410.28,-373.44 410.28,-373.44 414.48,-372.4 411.03,-377.89 419.66,-371.12"/>
<text text-anchor="start" x="416.63" y="-383.6" font-family="Arial" font-size="10.00">FOREIGN KEY (bulkTransferId) REFERENCES bulkTransferFulfilmentDuplicateCheck (bulkTransferId)</text>
</g>
</g>
</svg>
