<?xml version="1.0" encoding="UTF-8" standalone="no"?>
<!DOCTYPE svg PUBLIC "-//W3C//DTD SVG 1.1//EN"
 "http://www.w3.org/Graphics/SVG/1.1/DTD/svg11.dtd">
<!-- Generated by graphviz version 12.1.2 (20240928.0832)
 -->
<!-- Title: bulkProcessingState Pages: 1 -->
<svg width="686pt" height="426pt"
 viewBox="0.00 0.00 685.62 426.00" xmlns="http://www.w3.org/2000/svg" xmlns:xlink="http://www.w3.org/1999/xlink">
<g id="graph0" class="graph" transform="scale(1 1) rotate(0) translate(4 422)">
<title>bulkProcessingState</title>
<polygon fill="white" stroke="none" points="-4,4 -4,-422 681.62,-422 681.62,4 -4,4"/>
<!-- bulkProcessingState -->
<g id="node1" class="node">
<title>bulkProcessingState</title>
<polygon fill="#efefef" stroke="none" points="323.05,-85.8 323.05,-121.4 607.53,-121.4 607.53,-85.8 323.05,-85.8"/>
<polygon fill="none" stroke="black" points="323.05,-85.8 323.05,-121.4 607.53,-121.4 607.53,-85.8 323.05,-85.8"/>
<text text-anchor="start" x="330.05" y="-99.2" font-family="Arial Bold" font-size="18.00">bulkProcessingState</text>
<text text-anchor="start" x="476.04" y="-99.2" font-family="Arial" font-size="14.00">    </text>
<text text-anchor="start" x="507.15" y="-99.2" font-family="Arial" font-size="14.00" fill="#666666">[BASE TABLE]</text>
<polygon fill="none" stroke="black" points="323.05,-55 323.05,-85.8 607.53,-85.8 607.53,-55 323.05,-55"/>
<text text-anchor="start" x="330.05" y="-67.2" font-family="Arial" font-size="14.00">bulkProcessingStateId </text>
<text text-anchor="start" x="473.24" y="-67.2" font-family="Arial" font-size="14.00" fill="#666666">[int unsigned]</text>
<polygon fill="none" stroke="black" stroke-width="3" points="321.55,-53.5 321.55,-122.9 609.03,-122.9 609.03,-53.5 321.55,-53.5"/>
</g>
<!-- bulkTransferAssociation -->
<g id="node2" class="node">
<title>bulkTransferAssociation</title>
<polygon fill="#efefef" stroke="none" points="307.07,-339.2 307.07,-374.8 623.51,-374.8 623.51,-339.2 307.07,-339.2"/>
<polygon fill="none" stroke="black" points="307.07,-339.2 307.07,-374.8 623.51,-374.8 623.51,-339.2 307.07,-339.2"/>
<text text-anchor="start" x="314.07" y="-352.6" font-family="Arial Bold" font-size="18.00">bulkTransferAssociation</text>
<text text-anchor="start" x="492.02" y="-352.6" font-family="Arial" font-size="14.00">    </text>
<text text-anchor="start" x="523.14" y="-352.6" font-family="Arial" font-size="14.00" fill="#666666">[BASE TABLE]</text>
<polygon fill="none" stroke="black" points="307.07,-308.4 307.07,-339.2 623.51,-339.2 623.51,-308.4 307.07,-308.4"/>
<text text-anchor="start" x="314.07" y="-320.6" font-family="Arial" font-size="14.00">bulkTransferAssociationId </text>
<text text-anchor="start" x="479.03" y="-320.6" font-family="Arial" font-size="14.00" fill="#666666">[bigint unsigned]</text>
<polygon fill="none" stroke="black" points="307.07,-277.6 307.07,-308.4 623.51,-308.4 623.51,-277.6 307.07,-277.6"/>
<text text-anchor="start" x="314.07" y="-289.8" font-family="Arial" font-size="14.00">bulkTransferId </text>
<text text-anchor="start" x="407.44" y="-289.8" font-family="Arial" font-size="14.00" fill="#666666">[varchar(36)]</text>
<polygon fill="none" stroke="black" points="307.07,-246.8 307.07,-277.6 623.51,-277.6 623.51,-246.8 307.07,-246.8"/>
<text text-anchor="start" x="314.07" y="-259" font-family="Arial" font-size="14.00">bulkProcessingStateId </text>
<text text-anchor="start" x="457.26" y="-259" font-family="Arial" font-size="14.00" fill="#666666">[int unsigned]</text>
</g>
<!-- bulkTransferAssociation&#45;&gt;bulkProcessingState -->
<g id="edge1" class="edge">
<title>bulkTransferAssociation:bulkProcessingStateId&#45;&gt;bulkProcessingState:bulkProcessingStateId</title>
<path fill="none" stroke="black" d="M465.97,-235.52C476.47,-162.06 605.44,-239.92 653.73,-167.6 681.52,-125.98 689.02,-90.48 653.73,-55 594.66,4.38 465.29,29.75 465.29,-54"/>
<polygon fill="black" stroke="black" points="465.97,-235.49 460.82,-245.17 465.62,-240.81 465.33,-245.13 465.33,-245.13 465.33,-245.13 465.62,-240.81 469.8,-245.76 465.97,-235.49"/>
<text text-anchor="start" x="7" y="-255.8" font-family="Arial" font-size="10.00">FOREIGN KEY (bulkProcessingStateId) REFERENCES bulkProcessingState (bulkProcessingStateId)</text>
</g>
</g>
</svg>
