<?xml version="1.0" encoding="UTF-8" standalone="no"?>
<!DOCTYPE svg PUBLIC "-//W3C//DTD SVG 1.1//EN"
 "http://www.w3.org/Graphics/SVG/1.1/DTD/svg11.dtd">
<!-- Generated by graphviz version 12.1.2 (20240928.0832)
 -->
<!-- Title: bulkTransfer Pages: 1 -->
<svg width="1773pt" height="1099pt"
 viewBox="0.00 0.00 1772.83 1098.80" xmlns="http://www.w3.org/2000/svg" xmlns:xlink="http://www.w3.org/1999/xlink">
<g id="graph0" class="graph" transform="scale(1 1) rotate(0) translate(4 1094.8)">
<title>bulkTransfer</title>
<polygon fill="white" stroke="none" points="-4,4 -4,-1094.8 1768.83,-1094.8 1768.83,4 -4,4"/>
<!-- bulkTransfer -->
<g id="node1" class="node">
<title>bulkTransfer</title>
<polygon fill="#efefef" stroke="none" points="733.7,-604.6 733.7,-640.2 965.15,-640.2 965.15,-604.6 733.7,-604.6"/>
<polygon fill="none" stroke="black" points="733.7,-604.6 733.7,-640.2 965.15,-640.2 965.15,-604.6 733.7,-604.6"/>
<text text-anchor="start" x="740.7" y="-618" font-family="Arial Bold" font-size="18.00">bulkTransfer</text>
<text text-anchor="start" x="833.66" y="-618" font-family="Arial" font-size="14.00">    </text>
<text text-anchor="start" x="864.77" y="-618" font-family="Arial" font-size="14.00" fill="#666666">[BASE TABLE]</text>
<polygon fill="none" stroke="black" points="733.7,-573.8 733.7,-604.6 965.15,-604.6 965.15,-573.8 733.7,-573.8"/>
<text text-anchor="start" x="740.7" y="-586" font-family="Arial" font-size="14.00">bulkTransferId </text>
<text text-anchor="start" x="834.07" y="-586" font-family="Arial" font-size="14.00" fill="#666666">[varchar(36)]</text>
<polygon fill="none" stroke="black" points="733.7,-543 733.7,-573.8 965.15,-573.8 965.15,-543 733.7,-543"/>
<text text-anchor="start" x="740.7" y="-555.2" font-family="Arial" font-size="14.00">bulkQuoteId </text>
<text text-anchor="start" x="820.08" y="-555.2" font-family="Arial" font-size="14.00" fill="#666666">[varchar(36)]</text>
<polygon fill="none" stroke="black" points="733.7,-512.2 733.7,-543 965.15,-543 965.15,-512.2 733.7,-512.2"/>
<text text-anchor="start" x="740.7" y="-524.4" font-family="Arial" font-size="14.00">payerParticipantId </text>
<text text-anchor="start" x="857.43" y="-524.4" font-family="Arial" font-size="14.00" fill="#666666">[int unsigned]</text>
<polygon fill="none" stroke="black" points="733.7,-481.4 733.7,-512.2 965.15,-512.2 965.15,-481.4 733.7,-481.4"/>
<text text-anchor="start" x="740.7" y="-493.6" font-family="Arial" font-size="14.00">payeeParticipantId </text>
<text text-anchor="start" x="860.55" y="-493.6" font-family="Arial" font-size="14.00" fill="#666666">[int unsigned]</text>
<polygon fill="none" stroke="black" points="733.7,-450.6 733.7,-481.4 965.15,-481.4 965.15,-450.6 733.7,-450.6"/>
<text text-anchor="start" x="740.7" y="-462.8" font-family="Arial" font-size="14.00">expirationDate </text>
<text text-anchor="start" x="834.86" y="-462.8" font-family="Arial" font-size="14.00" fill="#666666">[datetime]</text>
<polygon fill="none" stroke="black" points="733.7,-419.8 733.7,-450.6 965.15,-450.6 965.15,-419.8 733.7,-419.8"/>
<text text-anchor="start" x="740.7" y="-432" font-family="Arial" font-size="14.00">createdDate </text>
<text text-anchor="start" x="820.85" y="-432" font-family="Arial" font-size="14.00" fill="#666666">[datetime]</text>
<polygon fill="none" stroke="black" stroke-width="3" points="732.2,-418.3 732.2,-641.7 966.65,-641.7 966.65,-418.3 732.2,-418.3"/>
</g>
<!-- bulkTransferDuplicateCheck -->
<g id="node2" class="node">
<title>bulkTransferDuplicateCheck</title>
<polygon fill="#efefef" stroke="none" points="289.72,-197.2 289.72,-232.8 637.12,-232.8 637.12,-197.2 289.72,-197.2"/>
<polygon fill="none" stroke="black" points="289.72,-197.2 289.72,-232.8 637.12,-232.8 637.12,-197.2 289.72,-197.2"/>
<text text-anchor="start" x="296.72" y="-210.6" font-family="Arial Bold" font-size="18.00">bulkTransferDuplicateCheck</text>
<text text-anchor="start" x="505.63" y="-210.6" font-family="Arial" font-size="14.00">    </text>
<text text-anchor="start" x="536.75" y="-210.6" font-family="Arial" font-size="14.00" fill="#666666">[BASE TABLE]</text>
<polygon fill="none" stroke="black" points="289.72,-166.4 289.72,-197.2 637.12,-197.2 637.12,-166.4 289.72,-166.4"/>
<text text-anchor="start" x="296.72" y="-178.6" font-family="Arial" font-size="14.00">bulkTransferId </text>
<text text-anchor="start" x="390.09" y="-178.6" font-family="Arial" font-size="14.00" fill="#666666">[varchar(36)]</text>
<polygon fill="none" stroke="black" points="289.72,-135.6 289.72,-166.4 637.12,-166.4 637.12,-135.6 289.72,-135.6"/>
<text text-anchor="start" x="296.72" y="-147.8" font-family="Arial" font-size="14.00">hash </text>
<text text-anchor="start" x="330.97" y="-147.8" font-family="Arial" font-size="14.00" fill="#666666">[varchar(256)]</text>
<polygon fill="none" stroke="black" points="289.72,-104.8 289.72,-135.6 637.12,-135.6 637.12,-104.8 289.72,-104.8"/>
<text text-anchor="start" x="296.72" y="-117" font-family="Arial" font-size="14.00">createdDate </text>
<text text-anchor="start" x="376.88" y="-117" font-family="Arial" font-size="14.00" fill="#666666">[datetime]</text>
</g>
<!-- bulkTransfer&#45;&gt;bulkTransferDuplicateCheck -->
<g id="edge1" class="edge">
<title>bulkTransfer:bulkTransferId&#45;&gt;bulkTransferDuplicateCheck:bulkTransferId</title>
<path fill="none" stroke="black" d="M722.63,-587.38C646.61,-557.99 727.43,-181.8 638.12,-181.8"/>
<polygon fill="black" stroke="black" points="722.52,-587.37 731.57,-593.57 727.77,-588.31 732.04,-589.08 732.04,-589.08 732.04,-589.08 727.77,-588.31 733.16,-584.71 722.52,-587.37"/>
<text text-anchor="start" x="311.13" y="-599.2" font-family="Arial" font-size="10.00">FOREIGN KEY (bulkTransferId) REFERENCES bulkTransferDuplicateCheck (bulkTransferId)</text>
</g>
<!-- participant -->
<g id="node7" class="node">
<title>participant</title>
<polygon fill="#efefef" stroke="none" points="741.69,-258.8 741.69,-294.4 957.15,-294.4 957.15,-258.8 741.69,-258.8"/>
<polygon fill="none" stroke="black" points="741.69,-258.8 741.69,-294.4 957.15,-294.4 957.15,-258.8 741.69,-258.8"/>
<text text-anchor="start" x="748.69" y="-272.2" font-family="Arial Bold" font-size="18.00">participant</text>
<text text-anchor="start" x="825.66" y="-272.2" font-family="Arial" font-size="14.00">    </text>
<text text-anchor="start" x="856.78" y="-272.2" font-family="Arial" font-size="14.00" fill="#666666">[BASE TABLE]</text>
<polygon fill="none" stroke="black" points="741.69,-228 741.69,-258.8 957.15,-258.8 957.15,-228 741.69,-228"/>
<text text-anchor="start" x="748.69" y="-240.2" font-family="Arial" font-size="14.00">participantId </text>
<text text-anchor="start" x="828.85" y="-240.2" font-family="Arial" font-size="14.00" fill="#666666">[int unsigned]</text>
<polygon fill="none" stroke="black" points="741.69,-197.2 741.69,-228 957.15,-228 957.15,-197.2 741.69,-197.2"/>
<text text-anchor="start" x="748.69" y="-209.4" font-family="Arial" font-size="14.00">name </text>
<text text-anchor="start" x="787.6" y="-209.4" font-family="Arial" font-size="14.00" fill="#666666">[varchar(256)]</text>
<polygon fill="none" stroke="black" points="741.69,-166.4 741.69,-197.2 957.15,-197.2 957.15,-166.4 741.69,-166.4"/>
<text text-anchor="start" x="748.69" y="-178.6" font-family="Arial" font-size="14.00">description </text>
<text text-anchor="start" x="820.29" y="-178.6" font-family="Arial" font-size="14.00" fill="#666666">[varchar(512)]</text>
<polygon fill="none" stroke="black" points="741.69,-135.6 741.69,-166.4 957.15,-166.4 957.15,-135.6 741.69,-135.6"/>
<text text-anchor="start" x="748.69" y="-147.8" font-family="Arial" font-size="14.00">isActive </text>
<text text-anchor="start" x="800.82" y="-147.8" font-family="Arial" font-size="14.00" fill="#666666">[tinyint(1)]</text>
<polygon fill="none" stroke="black" points="741.69,-104.8 741.69,-135.6 957.15,-135.6 957.15,-104.8 741.69,-104.8"/>
<text text-anchor="start" x="748.69" y="-117" font-family="Arial" font-size="14.00">createdDate </text>
<text text-anchor="start" x="828.85" y="-117" font-family="Arial" font-size="14.00" fill="#666666">[datetime]</text>
<polygon fill="none" stroke="black" points="741.69,-74 741.69,-104.8 957.15,-104.8 957.15,-74 741.69,-74"/>
<text text-anchor="start" x="748.69" y="-86.2" font-family="Arial" font-size="14.00">createdBy </text>
<text text-anchor="start" x="815.62" y="-86.2" font-family="Arial" font-size="14.00" fill="#666666">[varchar(128)]</text>
<polygon fill="none" stroke="black" points="741.69,-43.2 741.69,-74 957.15,-74 957.15,-43.2 741.69,-43.2"/>
<text text-anchor="start" x="748.69" y="-55.4" font-family="Arial" font-size="14.00">isProxy </text>
<text text-anchor="start" x="798.48" y="-55.4" font-family="Arial" font-size="14.00" fill="#666666">[tinyint(1)]</text>
</g>
<!-- bulkTransfer&#45;&gt;participant -->
<g id="edge6" class="edge">
<title>bulkTransfer:payerParticipantId&#45;&gt;participant:participantId</title>
<path fill="none" stroke="black" d="M976.56,-526.93C1091.96,-511.73 1080.93,-243.4 958.15,-243.4"/>
<polygon fill="black" stroke="black" points="976.46,-526.94 966.19,-523.09 971.14,-527.28 966.81,-527.56 966.81,-527.56 966.81,-527.56 971.14,-527.28 966.77,-532.07 976.46,-526.94"/>
<text text-anchor="start" x="973.15" y="-537.6" font-family="Arial" font-size="10.00">FOREIGN KEY (payerParticipantId) REFERENCES participant (participantId)</text>
</g>
<!-- bulkTransfer&#45;&gt;participant -->
<g id="edge7" class="edge">
<title>bulkTransfer:payeeParticipantId&#45;&gt;participant:participantId</title>
<path fill="none" stroke="black" d="M976.36,-496.07C1078.22,-481.21 1067.31,-243.4 958.15,-243.4"/>
<polygon fill="black" stroke="black" points="976.45,-496.07 966.16,-492.29 971.13,-496.44 966.81,-496.75 966.81,-496.75 966.81,-496.75 971.13,-496.44 966.8,-501.26 976.45,-496.07"/>
<text text-anchor="start" x="973.15" y="-506.8" font-family="Arial" font-size="10.00">FOREIGN KEY (payeeParticipantId) REFERENCES participant (participantId)</text>
</g>
<!-- bulkTransferAssociation -->
<g id="node3" class="node">
<title>bulkTransferAssociation</title>
<polygon fill="#efefef" stroke="none" points="43.2,-1012 43.2,-1047.6 359.64,-1047.6 359.64,-1012 43.2,-1012"/>
<polygon fill="none" stroke="black" points="43.2,-1012 43.2,-1047.6 359.64,-1047.6 359.64,-1012 43.2,-1012"/>
<text text-anchor="start" x="50.2" y="-1025.4" font-family="Arial Bold" font-size="18.00">bulkTransferAssociation</text>
<text text-anchor="start" x="228.15" y="-1025.4" font-family="Arial" font-size="14.00">    </text>
<text text-anchor="start" x="259.27" y="-1025.4" font-family="Arial" font-size="14.00" fill="#666666">[BASE TABLE]</text>
<polygon fill="none" stroke="black" points="43.2,-981.2 43.2,-1012 359.64,-1012 359.64,-981.2 43.2,-981.2"/>
<text text-anchor="start" x="50.2" y="-993.4" font-family="Arial" font-size="14.00">bulkTransferAssociationId </text>
<text text-anchor="start" x="215.16" y="-993.4" font-family="Arial" font-size="14.00" fill="#666666">[bigint unsigned]</text>
<polygon fill="none" stroke="black" points="43.2,-950.4 43.2,-981.2 359.64,-981.2 359.64,-950.4 43.2,-950.4"/>
<text text-anchor="start" x="50.2" y="-962.6" font-family="Arial" font-size="14.00">transferId </text>
<text text-anchor="start" x="113.23" y="-962.6" font-family="Arial" font-size="14.00" fill="#666666">[varchar(36)]</text>
<polygon fill="none" stroke="black" points="43.2,-919.6 43.2,-950.4 359.64,-950.4 359.64,-919.6 43.2,-919.6"/>
<text text-anchor="start" x="50.2" y="-931.8" font-family="Arial" font-size="14.00">bulkTransferId </text>
<text text-anchor="start" x="143.57" y="-931.8" font-family="Arial" font-size="14.00" fill="#666666">[varchar(36)]</text>
<polygon fill="none" stroke="black" points="43.2,-888.8 43.2,-919.6 359.64,-919.6 359.64,-888.8 43.2,-888.8"/>
<text text-anchor="start" x="50.2" y="-901" font-family="Arial" font-size="14.00">createdDate </text>
<text text-anchor="start" x="130.36" y="-901" font-family="Arial" font-size="14.00" fill="#666666">[datetime]</text>
<polygon fill="none" stroke="black" points="43.2,-858 43.2,-888.8 359.64,-888.8 359.64,-858 43.2,-858"/>
<text text-anchor="start" x="50.2" y="-870.2" font-family="Arial" font-size="14.00">bulkProcessingStateId </text>
<text text-anchor="start" x="193.39" y="-870.2" font-family="Arial" font-size="14.00" fill="#666666">[int unsigned]</text>
<polygon fill="none" stroke="black" points="43.2,-827.2 43.2,-858 359.64,-858 359.64,-827.2 43.2,-827.2"/>
<text text-anchor="start" x="50.2" y="-839.4" font-family="Arial" font-size="14.00">lastProcessedDate </text>
<text text-anchor="start" x="171.59" y="-839.4" font-family="Arial" font-size="14.00" fill="#666666">[datetime]</text>
<polygon fill="none" stroke="black" points="43.2,-796.4 43.2,-827.2 359.64,-827.2 359.64,-796.4 43.2,-796.4"/>
<text text-anchor="start" x="50.2" y="-808.6" font-family="Arial" font-size="14.00">errorCode </text>
<text text-anchor="start" x="117.12" y="-808.6" font-family="Arial" font-size="14.00" fill="#666666">[int unsigned]</text>
<polygon fill="none" stroke="black" points="43.2,-765.6 43.2,-796.4 359.64,-796.4 359.64,-765.6 43.2,-765.6"/>
<text text-anchor="start" x="50.2" y="-777.8" font-family="Arial" font-size="14.00">errorDescription </text>
<text text-anchor="start" x="153.68" y="-777.8" font-family="Arial" font-size="14.00" fill="#666666">[varchar(128)]</text>
</g>
<!-- bulkTransferAssociation&#45;&gt;bulkTransfer -->
<g id="edge2" class="edge">
<title>bulkTransferAssociation:bulkTransferId&#45;&gt;bulkTransfer:bulkTransferId</title>
<path fill="none" stroke="black" d="M370.62,-934.44C449.91,-924.8 350.72,-793.57 411.42,-722.4 511.72,-604.79 578.12,-589.2 732.7,-589.2"/>
<polygon fill="black" stroke="black" points="370.96,-934.42 360.72,-930.49 365.63,-934.72 361.31,-934.96 361.31,-934.96 361.31,-934.96 365.63,-934.72 361.23,-939.47 370.96,-934.42"/>
<text text-anchor="start" x="367.64" y="-945" font-family="Arial" font-size="10.00">FOREIGN KEY (bulkTransferId) REFERENCES bulkTransfer (bulkTransferId)</text>
</g>
<!-- bulkTransferExtension -->
<g id="node4" class="node">
<title>bulkTransferExtension</title>
<polygon fill="#efefef" stroke="none" points="463.7,-981.2 463.7,-1016.8 767.14,-1016.8 767.14,-981.2 463.7,-981.2"/>
<polygon fill="none" stroke="black" points="463.7,-981.2 463.7,-1016.8 767.14,-1016.8 767.14,-981.2 463.7,-981.2"/>
<text text-anchor="start" x="470.7" y="-994.6" font-family="Arial Bold" font-size="18.00">bulkTransferExtension</text>
<text text-anchor="start" x="635.65" y="-994.6" font-family="Arial" font-size="14.00">    </text>
<text text-anchor="start" x="666.77" y="-994.6" font-family="Arial" font-size="14.00" fill="#666666">[BASE TABLE]</text>
<polygon fill="none" stroke="black" points="463.7,-950.4 463.7,-981.2 767.14,-981.2 767.14,-950.4 463.7,-950.4"/>
<text text-anchor="start" x="470.7" y="-962.6" font-family="Arial" font-size="14.00">bulkTransferExtensionId </text>
<text text-anchor="start" x="625.55" y="-962.6" font-family="Arial" font-size="14.00" fill="#666666">[bigint unsigned]</text>
<polygon fill="none" stroke="black" points="463.7,-919.6 463.7,-950.4 767.14,-950.4 767.14,-919.6 463.7,-919.6"/>
<text text-anchor="start" x="470.7" y="-931.8" font-family="Arial" font-size="14.00">bulkTransferId </text>
<text text-anchor="start" x="564.07" y="-931.8" font-family="Arial" font-size="14.00" fill="#666666">[varchar(36)]</text>
<polygon fill="none" stroke="black" points="463.7,-888.8 463.7,-919.6 767.14,-919.6 767.14,-888.8 463.7,-888.8"/>
<text text-anchor="start" x="470.7" y="-901" font-family="Arial" font-size="14.00">isFulfilment </text>
<text text-anchor="start" x="545.38" y="-901" font-family="Arial" font-size="14.00" fill="#666666">[tinyint(1)]</text>
<polygon fill="none" stroke="black" points="463.7,-858 463.7,-888.8 767.14,-888.8 767.14,-858 463.7,-858"/>
<text text-anchor="start" x="470.7" y="-870.2" font-family="Arial" font-size="14.00">key </text>
<text text-anchor="start" x="496.38" y="-870.2" font-family="Arial" font-size="14.00" fill="#666666">[varchar(128)]</text>
<polygon fill="none" stroke="black" points="463.7,-827.2 463.7,-858 767.14,-858 767.14,-827.2 463.7,-827.2"/>
<text text-anchor="start" x="470.7" y="-839.4" font-family="Arial" font-size="14.00">value </text>
<text text-anchor="start" x="508.06" y="-839.4" font-family="Arial" font-size="14.00" fill="#666666">[text]</text>
<polygon fill="none" stroke="black" points="463.7,-796.4 463.7,-827.2 767.14,-827.2 767.14,-796.4 463.7,-796.4"/>
<text text-anchor="start" x="470.7" y="-808.6" font-family="Arial" font-size="14.00">createdDate </text>
<text text-anchor="start" x="550.86" y="-808.6" font-family="Arial" font-size="14.00" fill="#666666">[datetime]</text>
</g>
<!-- bulkTransferExtension&#45;&gt;bulkTransfer -->
<g id="edge3" class="edge">
<title>bulkTransferExtension:bulkTransferId&#45;&gt;bulkTransfer:bulkTransferId</title>
<path fill="none" stroke="black" d="M778.18,-934.39C843.37,-925.78 785.1,-828.25 767.14,-753.2 759.42,-720.91 741.5,-718.67 733.7,-686.4 723.54,-644.41 689.49,-589.2 732.7,-589.2"/>
<polygon fill="black" stroke="black" points="778.46,-934.37 768.2,-930.49 773.13,-934.69 768.81,-934.96 768.81,-934.96 768.81,-934.96 773.13,-934.69 768.75,-939.47 778.46,-934.37"/>
<text text-anchor="start" x="775.14" y="-945" font-family="Arial" font-size="10.00">FOREIGN KEY (bulkTransferId) REFERENCES bulkTransfer (bulkTransferId)</text>
</g>
<!-- bulkTransferFulfilmentDuplicateCheck -->
<g id="node5" class="node">
<title>bulkTransferFulfilmentDuplicateCheck</title>
<polygon fill="#efefef" stroke="none" points="871.72,-935 871.72,-970.6 1295.12,-970.6 1295.12,-935 871.72,-935"/>
<polygon fill="none" stroke="black" points="871.72,-935 871.72,-970.6 1295.12,-970.6 1295.12,-935 871.72,-935"/>
<text text-anchor="start" x="878.72" y="-948.4" font-family="Arial Bold" font-size="18.00">bulkTransferFulfilmentDuplicateCheck</text>
<text text-anchor="start" x="1163.63" y="-948.4" font-family="Arial" font-size="14.00">    </text>
<text text-anchor="start" x="1194.75" y="-948.4" font-family="Arial" font-size="14.00" fill="#666666">[BASE TABLE]</text>
<polygon fill="none" stroke="black" points="871.72,-904.2 871.72,-935 1295.12,-935 1295.12,-904.2 871.72,-904.2"/>
<text text-anchor="start" x="878.72" y="-916.4" font-family="Arial" font-size="14.00">bulkTransferId </text>
<text text-anchor="start" x="972.09" y="-916.4" font-family="Arial" font-size="14.00" fill="#666666">[varchar(36)]</text>
<polygon fill="none" stroke="black" points="871.72,-873.4 871.72,-904.2 1295.12,-904.2 1295.12,-873.4 871.72,-873.4"/>
<text text-anchor="start" x="878.72" y="-885.6" font-family="Arial" font-size="14.00">hash </text>
<text text-anchor="start" x="912.97" y="-885.6" font-family="Arial" font-size="14.00" fill="#666666">[varchar(256)]</text>
<polygon fill="none" stroke="black" points="871.72,-842.6 871.72,-873.4 1295.12,-873.4 1295.12,-842.6 871.72,-842.6"/>
<text text-anchor="start" x="878.72" y="-854.8" font-family="Arial" font-size="14.00">createdDate </text>
<text text-anchor="start" x="958.88" y="-854.8" font-family="Arial" font-size="14.00" fill="#666666">[datetime]</text>
</g>
<!-- bulkTransferFulfilmentDuplicateCheck&#45;&gt;bulkTransfer -->
<g id="edge4" class="edge">
<title>bulkTransferFulfilmentDuplicateCheck:bulkTransferId&#45;&gt;bulkTransfer:bulkTransferId</title>
<path fill="none" stroke="black" d="M860.74,-918.59C822.29,-909.85 854.71,-846.06 871.72,-799.4 894.04,-738.18 942.77,-747.6 965.15,-686.4 979.98,-645.83 1009.35,-589.2 966.15,-589.2"/>
<polygon fill="black" stroke="black" points="860.44,-918.56 869.93,-924.04 865.74,-919.1 870.05,-919.53 870.05,-919.53 870.05,-919.53 865.74,-919.1 870.84,-915.09 860.44,-918.56"/>
<text text-anchor="start" x="877.72" y="-903.6" font-family="Arial" font-size="10.00">FOREIGN KEY (bulkTransferId) REFERENCES bulkTransfer (bulkTransferId)</text>
</g>
<!-- bulkTransferStateChange -->
<g id="node6" class="node">
<title>bulkTransferStateChange</title>
<polygon fill="#efefef" stroke="none" points="1399.21,-965.8 1399.21,-1001.4 1721.63,-1001.4 1721.63,-965.8 1399.21,-965.8"/>
<polygon fill="none" stroke="black" points="1399.21,-965.8 1399.21,-1001.4 1721.63,-1001.4 1721.63,-965.8 1399.21,-965.8"/>
<text text-anchor="start" x="1406.21" y="-979.2" font-family="Arial Bold" font-size="18.00">bulkTransferStateChange</text>
<text text-anchor="start" x="1590.14" y="-979.2" font-family="Arial" font-size="14.00">    </text>
<text text-anchor="start" x="1621.26" y="-979.2" font-family="Arial" font-size="14.00" fill="#666666">[BASE TABLE]</text>
<polygon fill="none" stroke="black" points="1399.21,-935 1399.21,-965.8 1721.63,-965.8 1721.63,-935 1399.21,-935"/>
<text text-anchor="start" x="1406.21" y="-947.2" font-family="Arial" font-size="14.00">bulkTransferStateChangeId </text>
<text text-anchor="start" x="1581.31" y="-947.2" font-family="Arial" font-size="14.00" fill="#666666">[bigint unsigned]</text>
<polygon fill="none" stroke="black" points="1399.21,-904.2 1399.21,-935 1721.63,-935 1721.63,-904.2 1399.21,-904.2"/>
<text text-anchor="start" x="1406.21" y="-916.4" font-family="Arial" font-size="14.00">bulkTransferId </text>
<text text-anchor="start" x="1499.58" y="-916.4" font-family="Arial" font-size="14.00" fill="#666666">[varchar(36)]</text>
<polygon fill="none" stroke="black" points="1399.21,-873.4 1399.21,-904.2 1721.63,-904.2 1721.63,-873.4 1399.21,-873.4"/>
<text text-anchor="start" x="1406.21" y="-885.6" font-family="Arial" font-size="14.00">bulkTransferStateId </text>
<text text-anchor="start" x="1532.27" y="-885.6" font-family="Arial" font-size="14.00" fill="#666666">[varchar(50)]</text>
<polygon fill="none" stroke="black" points="1399.21,-842.6 1399.21,-873.4 1721.63,-873.4 1721.63,-842.6 1399.21,-842.6"/>
<text text-anchor="start" x="1406.21" y="-854.8" font-family="Arial" font-size="14.00">reason </text>
<text text-anchor="start" x="1452.9" y="-854.8" font-family="Arial" font-size="14.00" fill="#666666">[varchar(512)]</text>
<polygon fill="none" stroke="black" points="1399.21,-811.8 1399.21,-842.6 1721.63,-842.6 1721.63,-811.8 1399.21,-811.8"/>
<text text-anchor="start" x="1406.21" y="-824" font-family="Arial" font-size="14.00">createdDate </text>
<text text-anchor="start" x="1486.37" y="-824" font-family="Arial" font-size="14.00" fill="#666666">[datetime]</text>
</g>
<!-- bulkTransferStateChange&#45;&gt;bulkTransfer -->
<g id="edge5" class="edge">
<title>bulkTransferStateChange:bulkTransferId&#45;&gt;bulkTransfer:bulkTransferId</title>
<path fill="none" stroke="black" d="M1388.01,-918.95C1315.71,-909 1406.16,-786.3 1347.42,-722.4 1225.94,-590.26 1145.64,-589.2 966.15,-589.2"/>
<polygon fill="black" stroke="black" points="1387.89,-918.95 1397.59,-924.07 1393.22,-919.28 1397.54,-919.56 1397.54,-919.56 1397.54,-919.56 1393.22,-919.28 1398.16,-915.09 1387.89,-918.95"/>
<text text-anchor="start" x="1405.21" y="-929.6" font-family="Arial" font-size="10.00">FOREIGN KEY (bulkTransferId) REFERENCES bulkTransfer (bulkTransferId)</text>
</g>
</g>
</svg>
