<?xml version="1.0" encoding="UTF-8" standalone="no"?>
<!DOCTYPE svg PUBLIC "-//W3C//DTD SVG 1.1//EN"
 "http://www.w3.org/Graphics/SVG/1.1/DTD/svg11.dtd">
<!-- Generated by graphviz version 12.1.2 (20240928.0832)
 -->
<!-- Title: bulkTransferState Pages: 1 -->
<svg width="641pt" height="424pt"
 viewBox="0.00 0.00 640.99 423.54" xmlns="http://www.w3.org/2000/svg" xmlns:xlink="http://www.w3.org/1999/xlink">
<g id="graph0" class="graph" transform="scale(1 1) rotate(0) translate(4 419.54)">
<title>bulkTransferState</title>
<polygon fill="white" stroke="none" points="-4,4 -4,-419.54 636.99,-419.54 636.99,4 -4,4"/>
<!-- bulkTransferState -->
<g id="node1" class="node">
<title>bulkTransferState</title>
<polygon fill="#efefef" stroke="none" points="294.86,-83.34 294.86,-118.94 562.3,-118.94 562.3,-83.34 294.86,-83.34"/>
<polygon fill="none" stroke="black" points="294.86,-83.34 294.86,-118.94 562.3,-118.94 562.3,-83.34 294.86,-83.34"/>
<text text-anchor="start" x="301.86" y="-96.74" font-family="Arial Bold" font-size="18.00">bulkTransferState</text>
<text text-anchor="start" x="430.81" y="-96.74" font-family="Arial" font-size="14.00">    </text>
<text text-anchor="start" x="461.93" y="-96.74" font-family="Arial" font-size="14.00" fill="#666666">[BASE TABLE]</text>
<polygon fill="none" stroke="black" points="294.86,-52.54 294.86,-83.34 562.3,-83.34 562.3,-52.54 294.86,-52.54"/>
<text text-anchor="start" x="301.86" y="-64.74" font-family="Arial" font-size="14.00">bulkTransferStateId </text>
<text text-anchor="start" x="427.92" y="-64.74" font-family="Arial" font-size="14.00" fill="#666666">[varchar(50)]</text>
<polygon fill="none" stroke="black" stroke-width="3" points="293.36,-51.04 293.36,-120.44 563.8,-120.44 563.8,-51.04 293.36,-51.04"/>
</g>
<!-- bulkTransferStateChange -->
<g id="node2" class="node">
<title>bulkTransferStateChange</title>
<polygon fill="#efefef" stroke="none" points="267.37,-336.74 267.37,-372.34 589.79,-372.34 589.79,-336.74 267.37,-336.74"/>
<polygon fill="none" stroke="black" points="267.37,-336.74 267.37,-372.34 589.79,-372.34 589.79,-336.74 267.37,-336.74"/>
<text text-anchor="start" x="274.37" y="-350.14" font-family="Arial Bold" font-size="18.00">bulkTransferStateChange</text>
<text text-anchor="start" x="458.3" y="-350.14" font-family="Arial" font-size="14.00">    </text>
<text text-anchor="start" x="489.42" y="-350.14" font-family="Arial" font-size="14.00" fill="#666666">[BASE TABLE]</text>
<polygon fill="none" stroke="black" points="267.37,-305.94 267.37,-336.74 589.79,-336.74 589.79,-305.94 267.37,-305.94"/>
<text text-anchor="start" x="274.37" y="-318.14" font-family="Arial" font-size="14.00">bulkTransferStateChangeId </text>
<text text-anchor="start" x="449.47" y="-318.14" font-family="Arial" font-size="14.00" fill="#666666">[bigint unsigned]</text>
<polygon fill="none" stroke="black" points="267.37,-275.14 267.37,-305.94 589.79,-305.94 589.79,-275.14 267.37,-275.14"/>
<text text-anchor="start" x="274.37" y="-287.34" font-family="Arial" font-size="14.00">bulkTransferId </text>
<text text-anchor="start" x="367.74" y="-287.34" font-family="Arial" font-size="14.00" fill="#666666">[varchar(36)]</text>
<polygon fill="none" stroke="black" points="267.37,-244.34 267.37,-275.14 589.79,-275.14 589.79,-244.34 267.37,-244.34"/>
<text text-anchor="start" x="274.37" y="-256.54" font-family="Arial" font-size="14.00">bulkTransferStateId </text>
<text text-anchor="start" x="400.43" y="-256.54" font-family="Arial" font-size="14.00" fill="#666666">[varchar(50)]</text>
</g>
<!-- bulkTransferStateChange&#45;&gt;bulkTransferState -->
<g id="edge1" class="edge">
<title>bulkTransferStateChange:bulkTransferStateId&#45;&gt;bulkTransferState:bulkTransferStateId</title>
<path fill="none" stroke="black" d="M429.29,-233.01C439.78,-162.9 562.74,-234.92 608.5,-165.14 635.94,-123.29 643.79,-88.02 608.5,-52.54 552.11,4.16 428.58,28.43 428.58,-51.54"/>
<polygon fill="black" stroke="black" points="429.29,-233.03 424.11,-242.7 428.93,-238.35 428.63,-242.67 428.63,-242.67 428.63,-242.67 428.93,-238.35 433.09,-243.32 429.29,-233.03"/>
<text text-anchor="start" x="7" y="-253.34" font-family="Arial" font-size="10.00">FOREIGN KEY (bulkTransferStateId) REFERENCES bulkTransferState (bulkTransferStateId)</text>
</g>
</g>
</svg>
