<?xml version="1.0" encoding="UTF-8" standalone="no"?>
<!DOCTYPE svg PUBLIC "-//W3C//DTD SVG 1.1//EN"
 "http://www.w3.org/Graphics/SVG/1.1/DTD/svg11.dtd">
<!-- Generated by graphviz version 12.1.2 (20240928.0832)
 -->
<!-- Title: bulkTransferStateChange Pages: 1 -->
<svg width="1209pt" height="945pt"
 viewBox="0.00 0.00 1208.95 944.80" xmlns="http://www.w3.org/2000/svg" xmlns:xlink="http://www.w3.org/1999/xlink">
<g id="graph0" class="graph" transform="scale(1 1) rotate(0) translate(4 940.8)">
<title>bulkTransferStateChange</title>
<polygon fill="white" stroke="none" points="-4,4 -4,-940.8 1204.95,-940.8 1204.95,4 -4,4"/>
<!-- bulkTransferStateChange -->
<g id="node1" class="node">
<title>bulkTransferStateChange</title>
<polygon fill="#efefef" stroke="none" points="359.53,-543 359.53,-578.6 681.96,-578.6 681.96,-543 359.53,-543"/>
<polygon fill="none" stroke="black" points="359.53,-543 359.53,-578.6 681.96,-578.6 681.96,-543 359.53,-543"/>
<text text-anchor="start" x="366.53" y="-556.4" font-family="Arial Bold" font-size="18.00">bulkTransferStateChange</text>
<text text-anchor="start" x="550.47" y="-556.4" font-family="Arial" font-size="14.00">    </text>
<text text-anchor="start" x="581.59" y="-556.4" font-family="Arial" font-size="14.00" fill="#666666">[BASE TABLE]</text>
<polygon fill="none" stroke="black" points="359.53,-512.2 359.53,-543 681.96,-543 681.96,-512.2 359.53,-512.2"/>
<text text-anchor="start" x="366.53" y="-524.4" font-family="Arial" font-size="14.00">bulkTransferStateChangeId </text>
<text text-anchor="start" x="541.63" y="-524.4" font-family="Arial" font-size="14.00" fill="#666666">[bigint unsigned]</text>
<polygon fill="none" stroke="black" points="359.53,-481.4 359.53,-512.2 681.96,-512.2 681.96,-481.4 359.53,-481.4"/>
<text text-anchor="start" x="366.53" y="-493.6" font-family="Arial" font-size="14.00">bulkTransferId </text>
<text text-anchor="start" x="459.9" y="-493.6" font-family="Arial" font-size="14.00" fill="#666666">[varchar(36)]</text>
<polygon fill="none" stroke="black" points="359.53,-450.6 359.53,-481.4 681.96,-481.4 681.96,-450.6 359.53,-450.6"/>
<text text-anchor="start" x="366.53" y="-462.8" font-family="Arial" font-size="14.00">bulkTransferStateId </text>
<text text-anchor="start" x="492.59" y="-462.8" font-family="Arial" font-size="14.00" fill="#666666">[varchar(50)]</text>
<polygon fill="none" stroke="black" points="359.53,-419.8 359.53,-450.6 681.96,-450.6 681.96,-419.8 359.53,-419.8"/>
<text text-anchor="start" x="366.53" y="-432" font-family="Arial" font-size="14.00">reason </text>
<text text-anchor="start" x="413.23" y="-432" font-family="Arial" font-size="14.00" fill="#666666">[varchar(512)]</text>
<polygon fill="none" stroke="black" points="359.53,-389 359.53,-419.8 681.96,-419.8 681.96,-389 359.53,-389"/>
<text text-anchor="start" x="366.53" y="-401.2" font-family="Arial" font-size="14.00">createdDate </text>
<text text-anchor="start" x="446.69" y="-401.2" font-family="Arial" font-size="14.00" fill="#666666">[datetime]</text>
<polygon fill="none" stroke="black" stroke-width="3" points="358.03,-387.5 358.03,-580.1 683.46,-580.1 683.46,-387.5 358.03,-387.5"/>
</g>
<!-- bulkTransfer -->
<g id="node3" class="node">
<title>bulkTransfer</title>
<polygon fill="#efefef" stroke="none" points="228.02,-228 228.02,-263.6 459.47,-263.6 459.47,-228 228.02,-228"/>
<polygon fill="none" stroke="black" points="228.02,-228 228.02,-263.6 459.47,-263.6 459.47,-228 228.02,-228"/>
<text text-anchor="start" x="235.02" y="-241.4" font-family="Arial Bold" font-size="18.00">bulkTransfer</text>
<text text-anchor="start" x="327.98" y="-241.4" font-family="Arial" font-size="14.00">    </text>
<text text-anchor="start" x="359.1" y="-241.4" font-family="Arial" font-size="14.00" fill="#666666">[BASE TABLE]</text>
<polygon fill="none" stroke="black" points="228.02,-197.2 228.02,-228 459.47,-228 459.47,-197.2 228.02,-197.2"/>
<text text-anchor="start" x="235.02" y="-209.4" font-family="Arial" font-size="14.00">bulkTransferId </text>
<text text-anchor="start" x="328.39" y="-209.4" font-family="Arial" font-size="14.00" fill="#666666">[varchar(36)]</text>
<polygon fill="none" stroke="black" points="228.02,-166.4 228.02,-197.2 459.47,-197.2 459.47,-166.4 228.02,-166.4"/>
<text text-anchor="start" x="235.02" y="-178.6" font-family="Arial" font-size="14.00">bulkQuoteId </text>
<text text-anchor="start" x="314.4" y="-178.6" font-family="Arial" font-size="14.00" fill="#666666">[varchar(36)]</text>
<polygon fill="none" stroke="black" points="228.02,-135.6 228.02,-166.4 459.47,-166.4 459.47,-135.6 228.02,-135.6"/>
<text text-anchor="start" x="235.02" y="-147.8" font-family="Arial" font-size="14.00">payerParticipantId </text>
<text text-anchor="start" x="351.75" y="-147.8" font-family="Arial" font-size="14.00" fill="#666666">[int unsigned]</text>
<polygon fill="none" stroke="black" points="228.02,-104.8 228.02,-135.6 459.47,-135.6 459.47,-104.8 228.02,-104.8"/>
<text text-anchor="start" x="235.02" y="-117" font-family="Arial" font-size="14.00">payeeParticipantId </text>
<text text-anchor="start" x="354.87" y="-117" font-family="Arial" font-size="14.00" fill="#666666">[int unsigned]</text>
<polygon fill="none" stroke="black" points="228.02,-74 228.02,-104.8 459.47,-104.8 459.47,-74 228.02,-74"/>
<text text-anchor="start" x="235.02" y="-86.2" font-family="Arial" font-size="14.00">expirationDate </text>
<text text-anchor="start" x="329.18" y="-86.2" font-family="Arial" font-size="14.00" fill="#666666">[datetime]</text>
<polygon fill="none" stroke="black" points="228.02,-43.2 228.02,-74 459.47,-74 459.47,-43.2 228.02,-43.2"/>
<text text-anchor="start" x="235.02" y="-55.4" font-family="Arial" font-size="14.00">createdDate </text>
<text text-anchor="start" x="315.18" y="-55.4" font-family="Arial" font-size="14.00" fill="#666666">[datetime]</text>
</g>
<!-- bulkTransferStateChange&#45;&gt;bulkTransfer -->
<g id="edge2" class="edge">
<title>bulkTransferStateChange:bulkTransferId&#45;&gt;bulkTransfer:bulkTransferId</title>
<path fill="none" stroke="black" d="M348.17,-495.94C293.39,-486.19 322.16,-395.62 359.53,-342.8 386.8,-304.26 432.12,-345.28 459.47,-306.8 483.72,-272.67 502.34,-212.6 460.47,-212.6"/>
<polygon fill="black" stroke="black" points="348.23,-495.95 357.83,-501.26 353.55,-496.39 357.86,-496.74 357.86,-496.74 357.86,-496.74 353.55,-496.39 358.57,-492.29 348.23,-495.95"/>
<text text-anchor="start" x="7" y="-506.8" font-family="Arial" font-size="10.00">FOREIGN KEY (bulkTransferId) REFERENCES bulkTransfer (bulkTransferId)</text>
</g>
<!-- bulkTransferState -->
<g id="node4" class="node">
<title>bulkTransferState</title>
<polygon fill="#efefef" stroke="none" points="564.02,-212.6 564.02,-248.2 831.47,-248.2 831.47,-212.6 564.02,-212.6"/>
<polygon fill="none" stroke="black" points="564.02,-212.6 564.02,-248.2 831.47,-248.2 831.47,-212.6 564.02,-212.6"/>
<text text-anchor="start" x="571.02" y="-226" font-family="Arial Bold" font-size="18.00">bulkTransferState</text>
<text text-anchor="start" x="699.98" y="-226" font-family="Arial" font-size="14.00">    </text>
<text text-anchor="start" x="731.09" y="-226" font-family="Arial" font-size="14.00" fill="#666666">[BASE TABLE]</text>
<polygon fill="none" stroke="black" points="564.02,-181.8 564.02,-212.6 831.47,-212.6 831.47,-181.8 564.02,-181.8"/>
<text text-anchor="start" x="571.02" y="-194" font-family="Arial" font-size="14.00">bulkTransferStateId </text>
<text text-anchor="start" x="697.08" y="-194" font-family="Arial" font-size="14.00" fill="#666666">[varchar(50)]</text>
<polygon fill="none" stroke="black" points="564.02,-151 564.02,-181.8 831.47,-181.8 831.47,-151 564.02,-151"/>
<text text-anchor="start" x="571.02" y="-163.2" font-family="Arial" font-size="14.00">enumeration </text>
<text text-anchor="start" x="652.74" y="-163.2" font-family="Arial" font-size="14.00" fill="#666666">[varchar(50)]</text>
<polygon fill="none" stroke="black" points="564.02,-120.2 564.02,-151 831.47,-151 831.47,-120.2 564.02,-120.2"/>
<text text-anchor="start" x="571.02" y="-132.4" font-family="Arial" font-size="14.00">description </text>
<text text-anchor="start" x="642.62" y="-132.4" font-family="Arial" font-size="14.00" fill="#666666">[varchar(512)]</text>
<polygon fill="none" stroke="black" points="564.02,-89.4 564.02,-120.2 831.47,-120.2 831.47,-89.4 564.02,-89.4"/>
<text text-anchor="start" x="571.02" y="-101.6" font-family="Arial" font-size="14.00">isActive </text>
<text text-anchor="start" x="623.15" y="-101.6" font-family="Arial" font-size="14.00" fill="#666666">[tinyint(1)]</text>
<polygon fill="none" stroke="black" points="564.02,-58.6 564.02,-89.4 831.47,-89.4 831.47,-58.6 564.02,-58.6"/>
<text text-anchor="start" x="571.02" y="-70.8" font-family="Arial" font-size="14.00">createdDate </text>
<text text-anchor="start" x="651.18" y="-70.8" font-family="Arial" font-size="14.00" fill="#666666">[datetime]</text>
</g>
<!-- bulkTransferStateChange&#45;&gt;bulkTransferState -->
<g id="edge3" class="edge">
<title>bulkTransferStateChange:bulkTransferStateId&#45;&gt;bulkTransferState:bulkTransferStateId</title>
<path fill="none" stroke="black" d="M693.09,-464.95C734.2,-455.55 710.08,-385.36 681.96,-342.8 650.43,-295.1 595.61,-339.06 564.02,-291.4 540.9,-256.5 521.15,-197.2 563.02,-197.2"/>
<polygon fill="black" stroke="black" points="693.24,-464.93 682.83,-461.49 687.93,-465.48 683.62,-465.93 683.62,-465.93 683.62,-465.93 687.93,-465.48 683.76,-470.44 693.24,-464.93"/>
<text text-anchor="start" x="689.96" y="-476" font-family="Arial" font-size="10.00">FOREIGN KEY (bulkTransferStateId) REFERENCES bulkTransferState (bulkTransferStateId)</text>
</g>
<!-- bulkTransferError -->
<g id="node2" class="node">
<title>bulkTransferError</title>
<polygon fill="#efefef" stroke="none" points="375.21,-858 375.21,-893.6 666.28,-893.6 666.28,-858 375.21,-858"/>
<polygon fill="none" stroke="black" points="375.21,-858 375.21,-893.6 666.28,-893.6 666.28,-858 375.21,-858"/>
<text text-anchor="start" x="393.03" y="-871.4" font-family="Arial Bold" font-size="18.00">bulkTransferError</text>
<text text-anchor="start" x="523.97" y="-871.4" font-family="Arial" font-size="14.00">    </text>
<text text-anchor="start" x="555.09" y="-871.4" font-family="Arial" font-size="14.00" fill="#666666">[BASE TABLE]</text>
<polygon fill="none" stroke="black" points="375.21,-827.2 375.21,-858 666.28,-858 666.28,-827.2 375.21,-827.2"/>
<text text-anchor="start" x="382.21" y="-839.4" font-family="Arial" font-size="14.00">bulkTransferErrorId </text>
<text text-anchor="start" x="506.69" y="-839.4" font-family="Arial" font-size="14.00" fill="#666666">[bigint unsigned]</text>
<polygon fill="none" stroke="black" points="375.21,-796.4 375.21,-827.2 666.28,-827.2 666.28,-796.4 375.21,-796.4"/>
<text text-anchor="start" x="382.21" y="-808.6" font-family="Arial" font-size="14.00">bulkTransferStateChangeId </text>
<text text-anchor="start" x="557.31" y="-808.6" font-family="Arial" font-size="14.00" fill="#666666">[bigint unsigned]</text>
<polygon fill="none" stroke="black" points="375.21,-765.6 375.21,-796.4 666.28,-796.4 666.28,-765.6 375.21,-765.6"/>
<text text-anchor="start" x="382.21" y="-777.8" font-family="Arial" font-size="14.00">errorCode </text>
<text text-anchor="start" x="449.13" y="-777.8" font-family="Arial" font-size="14.00" fill="#666666">[int unsigned]</text>
<polygon fill="none" stroke="black" points="375.21,-734.8 375.21,-765.6 666.28,-765.6 666.28,-734.8 375.21,-734.8"/>
<text text-anchor="start" x="382.21" y="-747" font-family="Arial" font-size="14.00">errorDescription </text>
<text text-anchor="start" x="485.69" y="-747" font-family="Arial" font-size="14.00" fill="#666666">[varchar(128)]</text>
<polygon fill="none" stroke="black" points="375.21,-704 375.21,-734.8 666.28,-734.8 666.28,-704 375.21,-704"/>
<text text-anchor="start" x="382.21" y="-716.2" font-family="Arial" font-size="14.00">createdDate </text>
<text text-anchor="start" x="462.37" y="-716.2" font-family="Arial" font-size="14.00" fill="#666666">[datetime]</text>
</g>
<!-- bulkTransferError&#45;&gt;bulkTransferStateChange -->
<g id="edge1" class="edge">
<title>bulkTransferError:bulkTransferStateChangeId&#45;&gt;bulkTransferStateChange:bulkTransferStateChangeId</title>
<path fill="none" stroke="black" d="M677.41,-811.17C794.53,-796.47 806,-527.6 682.96,-527.6"/>
<polygon fill="black" stroke="black" points="677.59,-811.16 667.33,-807.29 672.27,-811.49 667.95,-811.76 667.95,-811.76 667.95,-811.76 672.27,-811.49 667.89,-816.27 677.59,-811.16"/>
<text text-anchor="start" x="674.28" y="-821.8" font-family="Arial" font-size="10.00">FOREIGN KEY (bulkTransferStateChangeId) REFERENCES bulkTransferStateChange (bulkTransferStateChangeId)</text>
</g>
</g>
</svg>
