<?xml version="1.0" encoding="UTF-8" standalone="no"?>
<!DOCTYPE svg PUBLIC "-//W3C//DTD SVG 1.1//EN"
 "http://www.w3.org/Graphics/SVG/1.1/DTD/svg11.dtd">
<!-- Generated by graphviz version 12.1.2 (20240928.0832)
 -->
<!-- Title: bulkProcessingState Pages: 1 -->
<svg width="834pt" height="694pt"
 viewBox="0.00 0.00 833.93 694.40" xmlns="http://www.w3.org/2000/svg" xmlns:xlink="http://www.w3.org/1999/xlink">
<g id="graph0" class="graph" transform="scale(1 1) rotate(0) translate(4 690.4)">
<title>bulkProcessingState</title>
<polygon fill="white" stroke="none" points="-4,4 -4,-690.4 829.93,-690.4 829.93,4 -4,4"/>
<!-- bulkProcessingState -->
<g id="node1" class="node">
<title>bulkProcessingState</title>
<polygon fill="#efefef" stroke="none" points="59.18,-200.2 59.18,-235.8 343.66,-235.8 343.66,-200.2 59.18,-200.2"/>
<polygon fill="none" stroke="black" points="59.18,-200.2 59.18,-235.8 343.66,-235.8 343.66,-200.2 59.18,-200.2"/>
<text text-anchor="start" x="66.18" y="-213.6" font-family="Arial Bold" font-size="18.00">bulkProcessingState</text>
<text text-anchor="start" x="212.17" y="-213.6" font-family="Arial" font-size="14.00">    </text>
<text text-anchor="start" x="243.29" y="-213.6" font-family="Arial" font-size="14.00" fill="#666666">[BASE TABLE]</text>
<polygon fill="none" stroke="black" points="59.18,-169.4 59.18,-200.2 343.66,-200.2 343.66,-169.4 59.18,-169.4"/>
<text text-anchor="start" x="66.18" y="-181.6" font-family="Arial" font-size="14.00">bulkProcessingStateId </text>
<text text-anchor="start" x="209.38" y="-181.6" font-family="Arial" font-size="14.00" fill="#666666">[int unsigned]</text>
<polygon fill="none" stroke="black" points="59.18,-138.6 59.18,-169.4 343.66,-169.4 343.66,-138.6 59.18,-138.6"/>
<text text-anchor="start" x="66.18" y="-150.8" font-family="Arial" font-size="14.00">name </text>
<text text-anchor="start" x="105.09" y="-150.8" font-family="Arial" font-size="14.00" fill="#666666">[varchar(50)]</text>
<polygon fill="none" stroke="black" points="59.18,-107.8 59.18,-138.6 343.66,-138.6 343.66,-107.8 59.18,-107.8"/>
<text text-anchor="start" x="66.18" y="-120" font-family="Arial" font-size="14.00">description </text>
<text text-anchor="start" x="137.78" y="-120" font-family="Arial" font-size="14.00" fill="#666666">[varchar(512)]</text>
<polygon fill="none" stroke="black" points="59.18,-77 59.18,-107.8 343.66,-107.8 343.66,-77 59.18,-77"/>
<text text-anchor="start" x="66.18" y="-89.2" font-family="Arial" font-size="14.00">isActive </text>
<text text-anchor="start" x="118.31" y="-89.2" font-family="Arial" font-size="14.00" fill="#666666">[tinyint(1)]</text>
<polygon fill="none" stroke="black" points="59.18,-46.2 59.18,-77 343.66,-77 343.66,-46.2 59.18,-46.2"/>
<text text-anchor="start" x="66.18" y="-58.4" font-family="Arial" font-size="14.00">createdDate </text>
<text text-anchor="start" x="146.34" y="-58.4" font-family="Arial" font-size="14.00" fill="#666666">[datetime]</text>
<polygon fill="none" stroke="black" stroke-width="3" points="57.68,-44.7 57.68,-237.3 345.16,-237.3 345.16,-44.7 57.68,-44.7"/>
</g>
<!-- bulkTransferAssociation -->
<g id="node2" class="node">
<title>bulkTransferAssociation</title>
<polygon fill="#efefef" stroke="none" points="43.2,-607.6 43.2,-643.2 359.64,-643.2 359.64,-607.6 43.2,-607.6"/>
<polygon fill="none" stroke="black" points="43.2,-607.6 43.2,-643.2 359.64,-643.2 359.64,-607.6 43.2,-607.6"/>
<text text-anchor="start" x="50.2" y="-621" font-family="Arial Bold" font-size="18.00">bulkTransferAssociation</text>
<text text-anchor="start" x="228.15" y="-621" font-family="Arial" font-size="14.00">    </text>
<text text-anchor="start" x="259.27" y="-621" font-family="Arial" font-size="14.00" fill="#666666">[BASE TABLE]</text>
<polygon fill="none" stroke="black" points="43.2,-576.8 43.2,-607.6 359.64,-607.6 359.64,-576.8 43.2,-576.8"/>
<text text-anchor="start" x="50.2" y="-589" font-family="Arial" font-size="14.00">bulkTransferAssociationId </text>
<text text-anchor="start" x="215.16" y="-589" font-family="Arial" font-size="14.00" fill="#666666">[bigint unsigned]</text>
<polygon fill="none" stroke="black" points="43.2,-546 43.2,-576.8 359.64,-576.8 359.64,-546 43.2,-546"/>
<text text-anchor="start" x="50.2" y="-558.2" font-family="Arial" font-size="14.00">transferId </text>
<text text-anchor="start" x="113.23" y="-558.2" font-family="Arial" font-size="14.00" fill="#666666">[varchar(36)]</text>
<polygon fill="none" stroke="black" points="43.2,-515.2 43.2,-546 359.64,-546 359.64,-515.2 43.2,-515.2"/>
<text text-anchor="start" x="50.2" y="-527.4" font-family="Arial" font-size="14.00">bulkTransferId </text>
<text text-anchor="start" x="143.57" y="-527.4" font-family="Arial" font-size="14.00" fill="#666666">[varchar(36)]</text>
<polygon fill="none" stroke="black" points="43.2,-484.4 43.2,-515.2 359.64,-515.2 359.64,-484.4 43.2,-484.4"/>
<text text-anchor="start" x="50.2" y="-496.6" font-family="Arial" font-size="14.00">createdDate </text>
<text text-anchor="start" x="130.36" y="-496.6" font-family="Arial" font-size="14.00" fill="#666666">[datetime]</text>
<polygon fill="none" stroke="black" points="43.2,-453.6 43.2,-484.4 359.64,-484.4 359.64,-453.6 43.2,-453.6"/>
<text text-anchor="start" x="50.2" y="-465.8" font-family="Arial" font-size="14.00">bulkProcessingStateId </text>
<text text-anchor="start" x="193.39" y="-465.8" font-family="Arial" font-size="14.00" fill="#666666">[int unsigned]</text>
<polygon fill="none" stroke="black" points="43.2,-422.8 43.2,-453.6 359.64,-453.6 359.64,-422.8 43.2,-422.8"/>
<text text-anchor="start" x="50.2" y="-435" font-family="Arial" font-size="14.00">lastProcessedDate </text>
<text text-anchor="start" x="171.59" y="-435" font-family="Arial" font-size="14.00" fill="#666666">[datetime]</text>
<polygon fill="none" stroke="black" points="43.2,-392 43.2,-422.8 359.64,-422.8 359.64,-392 43.2,-392"/>
<text text-anchor="start" x="50.2" y="-404.2" font-family="Arial" font-size="14.00">errorCode </text>
<text text-anchor="start" x="117.12" y="-404.2" font-family="Arial" font-size="14.00" fill="#666666">[int unsigned]</text>
<polygon fill="none" stroke="black" points="43.2,-361.2 43.2,-392 359.64,-392 359.64,-361.2 43.2,-361.2"/>
<text text-anchor="start" x="50.2" y="-373.4" font-family="Arial" font-size="14.00">errorDescription </text>
<text text-anchor="start" x="153.68" y="-373.4" font-family="Arial" font-size="14.00" fill="#666666">[varchar(128)]</text>
</g>
<!-- bulkTransferAssociation&#45;&gt;bulkProcessingState -->
<g id="edge1" class="edge">
<title>bulkTransferAssociation:bulkProcessingStateId&#45;&gt;bulkProcessingState:bulkProcessingStateId</title>
<path fill="none" stroke="black" d="M370.63,-466.37C421.93,-437.72 404.33,-184.8 344.66,-184.8"/>
<polygon fill="black" stroke="black" points="370.63,-466.37 359.82,-464.56 365.48,-467.73 361.29,-468.83 361.29,-468.83 361.29,-468.83 365.48,-467.73 362.11,-473.27 370.63,-466.37"/>
<text text-anchor="start" x="367.64" y="-479" font-family="Arial" font-size="10.00">FOREIGN KEY (bulkProcessingStateId) REFERENCES bulkProcessingState (bulkProcessingStateId)</text>
</g>
</g>
</svg>
