<?xml version="1.0" encoding="UTF-8" standalone="no"?>
<!DOCTYPE svg PUBLIC "-//W3C//DTD SVG 1.1//EN"
 "http://www.w3.org/Graphics/SVG/1.1/DTD/svg11.dtd">
<!-- Generated by graphviz version 12.1.2 (20240928.0832)
 -->
<!-- Title: bulkTransfer Pages: 1 -->
<svg width="1773pt" height="669pt"
 viewBox="0.00 0.00 1772.83 668.57" xmlns="http://www.w3.org/2000/svg" xmlns:xlink="http://www.w3.org/1999/xlink">
<g id="graph0" class="graph" transform="scale(1 1) rotate(0) translate(4 664.57)">
<title>bulkTransfer</title>
<polygon fill="white" stroke="none" points="-4,4 -4,-664.57 1768.83,-664.57 1768.83,4 -4,4"/>
<!-- bulkTransfer -->
<g id="node1" class="node">
<title>bulkTransfer</title>
<polygon fill="#efefef" stroke="none" points="733.7,-328.37 733.7,-363.97 965.15,-363.97 965.15,-328.37 733.7,-328.37"/>
<polygon fill="none" stroke="black" points="733.7,-328.37 733.7,-363.97 965.15,-363.97 965.15,-328.37 733.7,-328.37"/>
<text text-anchor="start" x="740.7" y="-341.77" font-family="Arial Bold" font-size="18.00">bulkTransfer</text>
<text text-anchor="start" x="833.66" y="-341.77" font-family="Arial" font-size="14.00">    </text>
<text text-anchor="start" x="864.77" y="-341.77" font-family="Arial" font-size="14.00" fill="#666666">[BASE TABLE]</text>
<polygon fill="none" stroke="black" points="733.7,-297.57 733.7,-328.37 965.15,-328.37 965.15,-297.57 733.7,-297.57"/>
<text text-anchor="start" x="740.7" y="-309.77" font-family="Arial" font-size="14.00">bulkTransferId </text>
<text text-anchor="start" x="834.07" y="-309.77" font-family="Arial" font-size="14.00" fill="#666666">[varchar(36)]</text>
<polygon fill="none" stroke="black" points="733.7,-266.77 733.7,-297.57 965.15,-297.57 965.15,-266.77 733.7,-266.77"/>
<text text-anchor="start" x="740.7" y="-278.97" font-family="Arial" font-size="14.00">payerParticipantId </text>
<text text-anchor="start" x="857.43" y="-278.97" font-family="Arial" font-size="14.00" fill="#666666">[int unsigned]</text>
<polygon fill="none" stroke="black" points="733.7,-235.97 733.7,-266.77 965.15,-266.77 965.15,-235.97 733.7,-235.97"/>
<text text-anchor="start" x="740.7" y="-248.17" font-family="Arial" font-size="14.00">payeeParticipantId </text>
<text text-anchor="start" x="860.55" y="-248.17" font-family="Arial" font-size="14.00" fill="#666666">[int unsigned]</text>
<polygon fill="none" stroke="black" stroke-width="3" points="732.2,-234.47 732.2,-365.47 966.65,-365.47 966.65,-234.47 732.2,-234.47"/>
</g>
<!-- bulkTransferDuplicateCheck -->
<g id="node2" class="node">
<title>bulkTransferDuplicateCheck</title>
<polygon fill="#efefef" stroke="none" points="289.72,-74.97 289.72,-110.57 637.12,-110.57 637.12,-74.97 289.72,-74.97"/>
<polygon fill="none" stroke="black" points="289.72,-74.97 289.72,-110.57 637.12,-110.57 637.12,-74.97 289.72,-74.97"/>
<text text-anchor="start" x="296.72" y="-88.37" font-family="Arial Bold" font-size="18.00">bulkTransferDuplicateCheck</text>
<text text-anchor="start" x="505.63" y="-88.37" font-family="Arial" font-size="14.00">    </text>
<text text-anchor="start" x="536.75" y="-88.37" font-family="Arial" font-size="14.00" fill="#666666">[BASE TABLE]</text>
<polygon fill="none" stroke="black" points="289.72,-44.17 289.72,-74.97 637.12,-74.97 637.12,-44.17 289.72,-44.17"/>
<text text-anchor="start" x="296.72" y="-56.37" font-family="Arial" font-size="14.00">bulkTransferId </text>
<text text-anchor="start" x="390.09" y="-56.37" font-family="Arial" font-size="14.00" fill="#666666">[varchar(36)]</text>
</g>
<!-- bulkTransfer&#45;&gt;bulkTransferDuplicateCheck -->
<g id="edge1" class="edge">
<title>bulkTransfer:bulkTransferId&#45;&gt;bulkTransferDuplicateCheck:bulkTransferId</title>
<path fill="none" stroke="black" d="M722.49,-312.29C621.07,-297.86 754.69,-59.57 638.12,-59.57"/>
<polygon fill="black" stroke="black" points="722.38,-312.28 732.06,-317.44 727.71,-312.64 732.03,-312.93 732.03,-312.93 732.03,-312.93 727.71,-312.64 732.66,-308.46 722.38,-312.28"/>
<text text-anchor="start" x="311.13" y="-322.97" font-family="Arial" font-size="10.00">FOREIGN KEY (bulkTransferId) REFERENCES bulkTransferDuplicateCheck (bulkTransferId)</text>
</g>
<!-- participant -->
<g id="node7" class="node">
<title>participant</title>
<polygon fill="#efefef" stroke="none" points="741.69,-74.97 741.69,-110.57 957.15,-110.57 957.15,-74.97 741.69,-74.97"/>
<polygon fill="none" stroke="black" points="741.69,-74.97 741.69,-110.57 957.15,-110.57 957.15,-74.97 741.69,-74.97"/>
<text text-anchor="start" x="748.69" y="-88.37" font-family="Arial Bold" font-size="18.00">participant</text>
<text text-anchor="start" x="825.66" y="-88.37" font-family="Arial" font-size="14.00">    </text>
<text text-anchor="start" x="856.78" y="-88.37" font-family="Arial" font-size="14.00" fill="#666666">[BASE TABLE]</text>
<polygon fill="none" stroke="black" points="741.69,-44.17 741.69,-74.97 957.15,-74.97 957.15,-44.17 741.69,-44.17"/>
<text text-anchor="start" x="748.69" y="-56.37" font-family="Arial" font-size="14.00">participantId </text>
<text text-anchor="start" x="828.85" y="-56.37" font-family="Arial" font-size="14.00" fill="#666666">[int unsigned]</text>
</g>
<!-- bulkTransfer&#45;&gt;participant -->
<g id="edge6" class="edge">
<title>bulkTransfer:payerParticipantId&#45;&gt;participant:participantId</title>
<path fill="none" stroke="black" d="M976.45,-281.65C1073.1,-271.5 1073.16,-117.47 1000.35,-44.17 953.07,3.42 849.42,23.91 849.42,-43.17"/>
<polygon fill="black" stroke="black" points="976.47,-281.64 966.25,-277.66 971.14,-281.92 966.81,-282.14 966.81,-282.14 966.81,-282.14 971.14,-281.92 966.71,-286.65 976.47,-281.64"/>
<text text-anchor="start" x="973.15" y="-292.17" font-family="Arial" font-size="10.00">FOREIGN KEY (payerParticipantId) REFERENCES participant (participantId)</text>
</g>
<!-- bulkTransfer&#45;&gt;participant -->
<g id="edge7" class="edge">
<title>bulkTransfer:payeeParticipantId&#45;&gt;participant:participantId</title>
<path fill="none" stroke="black" d="M850.2,-224.76C860.17,-164.4 963.19,-215.97 1000.35,-153.77 1025.33,-111.96 1034.68,-78.73 1000.35,-44.17 953.07,3.42 849.42,23.91 849.42,-43.17"/>
<polygon fill="black" stroke="black" points="850.21,-224.67 844.96,-234.3 849.8,-229.99 849.47,-234.31 849.47,-234.31 849.47,-234.31 849.8,-229.99 853.93,-234.98 850.21,-224.67"/>
<text text-anchor="start" x="497.85" y="-244.97" font-family="Arial" font-size="10.00">FOREIGN KEY (payeeParticipantId) REFERENCES participant (participantId)</text>
</g>
<!-- bulkTransferAssociation -->
<g id="node3" class="node">
<title>bulkTransferAssociation</title>
<polygon fill="#efefef" stroke="none" points="43.2,-581.77 43.2,-617.37 359.64,-617.37 359.64,-581.77 43.2,-581.77"/>
<polygon fill="none" stroke="black" points="43.2,-581.77 43.2,-617.37 359.64,-617.37 359.64,-581.77 43.2,-581.77"/>
<text text-anchor="start" x="50.2" y="-595.17" font-family="Arial Bold" font-size="18.00">bulkTransferAssociation</text>
<text text-anchor="start" x="228.15" y="-595.17" font-family="Arial" font-size="14.00">    </text>
<text text-anchor="start" x="259.27" y="-595.17" font-family="Arial" font-size="14.00" fill="#666666">[BASE TABLE]</text>
<polygon fill="none" stroke="black" points="43.2,-550.97 43.2,-581.77 359.64,-581.77 359.64,-550.97 43.2,-550.97"/>
<text text-anchor="start" x="50.2" y="-563.17" font-family="Arial" font-size="14.00">bulkTransferAssociationId </text>
<text text-anchor="start" x="215.16" y="-563.17" font-family="Arial" font-size="14.00" fill="#666666">[bigint unsigned]</text>
<polygon fill="none" stroke="black" points="43.2,-520.17 43.2,-550.97 359.64,-550.97 359.64,-520.17 43.2,-520.17"/>
<text text-anchor="start" x="50.2" y="-532.37" font-family="Arial" font-size="14.00">bulkTransferId </text>
<text text-anchor="start" x="143.57" y="-532.37" font-family="Arial" font-size="14.00" fill="#666666">[varchar(36)]</text>
<polygon fill="none" stroke="black" points="43.2,-489.37 43.2,-520.17 359.64,-520.17 359.64,-489.37 43.2,-489.37"/>
<text text-anchor="start" x="50.2" y="-501.57" font-family="Arial" font-size="14.00">bulkProcessingStateId </text>
<text text-anchor="start" x="193.39" y="-501.57" font-family="Arial" font-size="14.00" fill="#666666">[int unsigned]</text>
</g>
<!-- bulkTransferAssociation&#45;&gt;bulkTransfer -->
<g id="edge2" class="edge">
<title>bulkTransferAssociation:bulkTransferId&#45;&gt;bulkTransfer:bulkTransferId</title>
<path fill="none" stroke="black" d="M370.85,-534.32C401.79,-525.62 380.12,-473.83 411.42,-446.17 527.26,-343.83 578.12,-312.97 732.7,-312.97"/>
<polygon fill="black" stroke="black" points="370.9,-534.31 360.42,-531.07 365.6,-534.96 361.31,-535.49 361.31,-535.49 361.31,-535.49 365.6,-534.96 361.52,-540 370.9,-534.31"/>
<text text-anchor="start" x="188.38" y="-519.57" font-family="Arial" font-size="10.00">FOREIGN KEY (bulkTransferId) REFERENCES bulkTransfer (bulkTransferId)</text>
</g>
<!-- bulkTransferExtension -->
<g id="node4" class="node">
<title>bulkTransferExtension</title>
<polygon fill="#efefef" stroke="none" points="463.7,-566.37 463.7,-601.97 767.14,-601.97 767.14,-566.37 463.7,-566.37"/>
<polygon fill="none" stroke="black" points="463.7,-566.37 463.7,-601.97 767.14,-601.97 767.14,-566.37 463.7,-566.37"/>
<text text-anchor="start" x="470.7" y="-579.77" font-family="Arial Bold" font-size="18.00">bulkTransferExtension</text>
<text text-anchor="start" x="635.65" y="-579.77" font-family="Arial" font-size="14.00">    </text>
<text text-anchor="start" x="666.77" y="-579.77" font-family="Arial" font-size="14.00" fill="#666666">[BASE TABLE]</text>
<polygon fill="none" stroke="black" points="463.7,-535.57 463.7,-566.37 767.14,-566.37 767.14,-535.57 463.7,-535.57"/>
<text text-anchor="start" x="470.7" y="-547.77" font-family="Arial" font-size="14.00">bulkTransferExtensionId </text>
<text text-anchor="start" x="625.55" y="-547.77" font-family="Arial" font-size="14.00" fill="#666666">[bigint unsigned]</text>
<polygon fill="none" stroke="black" points="463.7,-504.77 463.7,-535.57 767.14,-535.57 767.14,-504.77 463.7,-504.77"/>
<text text-anchor="start" x="470.7" y="-516.97" font-family="Arial" font-size="14.00">bulkTransferId </text>
<text text-anchor="start" x="564.07" y="-516.97" font-family="Arial" font-size="14.00" fill="#666666">[varchar(36)]</text>
</g>
<!-- bulkTransferExtension&#45;&gt;bulkTransfer -->
<g id="edge3" class="edge">
<title>bulkTransferExtension:bulkTransferId&#45;&gt;bulkTransfer:bulkTransferId</title>
<path fill="none" stroke="black" d="M778.11,-517.16C787.59,-508.35 773.39,-482.01 767.14,-461.57 759.17,-435.51 741.58,-436.26 733.7,-410.17 721.19,-368.82 689.49,-312.97 732.7,-312.97"/>
<polygon fill="black" stroke="black" points="778.03,-517.18 767.16,-515.77 772.93,-518.72 768.78,-519.98 768.78,-519.98 768.78,-519.98 772.93,-518.72 769.77,-524.38 778.03,-517.18"/>
<text text-anchor="start" x="775.14" y="-530.17" font-family="Arial" font-size="10.00">FOREIGN KEY (bulkTransferId) REFERENCES bulkTransfer (bulkTransferId)</text>
</g>
<!-- bulkTransferFulfilmentDuplicateCheck -->
<g id="node5" class="node">
<title>bulkTransferFulfilmentDuplicateCheck</title>
<polygon fill="#efefef" stroke="none" points="871.72,-550.97 871.72,-586.57 1295.12,-586.57 1295.12,-550.97 871.72,-550.97"/>
<polygon fill="none" stroke="black" points="871.72,-550.97 871.72,-586.57 1295.12,-586.57 1295.12,-550.97 871.72,-550.97"/>
<text text-anchor="start" x="878.72" y="-564.37" font-family="Arial Bold" font-size="18.00">bulkTransferFulfilmentDuplicateCheck</text>
<text text-anchor="start" x="1163.63" y="-564.37" font-family="Arial" font-size="14.00">    </text>
<text text-anchor="start" x="1194.75" y="-564.37" font-family="Arial" font-size="14.00" fill="#666666">[BASE TABLE]</text>
<polygon fill="none" stroke="black" points="871.72,-520.17 871.72,-550.97 1295.12,-550.97 1295.12,-520.17 871.72,-520.17"/>
<text text-anchor="start" x="878.72" y="-532.37" font-family="Arial" font-size="14.00">bulkTransferId </text>
<text text-anchor="start" x="972.09" y="-532.37" font-family="Arial" font-size="14.00" fill="#666666">[varchar(36)]</text>
</g>
<!-- bulkTransferFulfilmentDuplicateCheck&#45;&gt;bulkTransfer -->
<g id="edge4" class="edge">
<title>bulkTransferFulfilmentDuplicateCheck:bulkTransferId&#45;&gt;bulkTransfer:bulkTransferId</title>
<path fill="none" stroke="black" d="M860.7,-532.67C849.72,-523.73 861.69,-496.07 871.72,-476.97 895.45,-431.78 941.57,-455.45 965.15,-410.17 985.1,-371.86 1009.35,-312.97 966.15,-312.97"/>
<polygon fill="black" stroke="black" points="860.79,-532.69 869.14,-539.8 865.92,-534.18 870.08,-535.39 870.08,-535.39 870.08,-535.39 865.92,-534.18 871.65,-531.16 860.79,-532.69"/>
<text text-anchor="start" x="877.72" y="-545.57" font-family="Arial" font-size="10.00">FOREIGN KEY (bulkTransferId) REFERENCES bulkTransfer (bulkTransferId)</text>
</g>
<!-- bulkTransferStateChange -->
<g id="node6" class="node">
<title>bulkTransferStateChange</title>
<polygon fill="#efefef" stroke="none" points="1399.21,-581.77 1399.21,-617.37 1721.63,-617.37 1721.63,-581.77 1399.21,-581.77"/>
<polygon fill="none" stroke="black" points="1399.21,-581.77 1399.21,-617.37 1721.63,-617.37 1721.63,-581.77 1399.21,-581.77"/>
<text text-anchor="start" x="1406.21" y="-595.17" font-family="Arial Bold" font-size="18.00">bulkTransferStateChange</text>
<text text-anchor="start" x="1590.14" y="-595.17" font-family="Arial" font-size="14.00">    </text>
<text text-anchor="start" x="1621.26" y="-595.17" font-family="Arial" font-size="14.00" fill="#666666">[BASE TABLE]</text>
<polygon fill="none" stroke="black" points="1399.21,-550.97 1399.21,-581.77 1721.63,-581.77 1721.63,-550.97 1399.21,-550.97"/>
<text text-anchor="start" x="1406.21" y="-563.17" font-family="Arial" font-size="14.00">bulkTransferStateChangeId </text>
<text text-anchor="start" x="1581.31" y="-563.17" font-family="Arial" font-size="14.00" fill="#666666">[bigint unsigned]</text>
<polygon fill="none" stroke="black" points="1399.21,-520.17 1399.21,-550.97 1721.63,-550.97 1721.63,-520.17 1399.21,-520.17"/>
<text text-anchor="start" x="1406.21" y="-532.37" font-family="Arial" font-size="14.00">bulkTransferId </text>
<text text-anchor="start" x="1499.58" y="-532.37" font-family="Arial" font-size="14.00" fill="#666666">[varchar(36)]</text>
<polygon fill="none" stroke="black" points="1399.21,-489.37 1399.21,-520.17 1721.63,-520.17 1721.63,-489.37 1399.21,-489.37"/>
<text text-anchor="start" x="1406.21" y="-501.57" font-family="Arial" font-size="14.00">bulkTransferStateId </text>
<text text-anchor="start" x="1532.27" y="-501.57" font-family="Arial" font-size="14.00" fill="#666666">[varchar(50)]</text>
</g>
<!-- bulkTransferStateChange&#45;&gt;bulkTransfer -->
<g id="edge5" class="edge">
<title>bulkTransferStateChange:bulkTransferId&#45;&gt;bulkTransfer:bulkTransferId</title>
<path fill="none" stroke="black" d="M1388.01,-534.3C1357.19,-525.47 1379.5,-472.93 1347.42,-446.17 1209.57,-331.21 1145.64,-312.97 966.15,-312.97"/>
<polygon fill="black" stroke="black" points="1387.95,-534.29 1397.32,-540 1393.25,-534.95 1397.54,-535.49 1397.54,-535.49 1397.54,-535.49 1393.25,-534.95 1398.43,-531.07 1387.95,-534.29"/>
<text text-anchor="start" x="1136.31" y="-519.57" font-family="Arial" font-size="10.00">FOREIGN KEY (bulkTransferId) REFERENCES bulkTransfer (bulkTransferId)</text>
</g>
</g>
</svg>
