<?xml version="1.0" encoding="UTF-8" standalone="no"?>
<!DOCTYPE svg PUBLIC "-//W3C//DTD SVG 1.1//EN"
 "http://www.w3.org/Graphics/SVG/1.1/DTD/svg11.dtd">
<!-- Generated by graphviz version 12.1.2 (20240928.0832)
 -->
<!-- Title: bulkTransferError Pages: 1 -->
<svg width="746pt" height="448pt"
 viewBox="0.00 0.00 746.08 448.00" xmlns="http://www.w3.org/2000/svg" xmlns:xlink="http://www.w3.org/1999/xlink">
<g id="graph0" class="graph" transform="scale(1 1) rotate(0) translate(4 444)">
<title>bulkTransferError</title>
<polygon fill="white" stroke="none" points="-4,4 -4,-444 742.08,-444 742.08,4 -4,4"/>
<!-- bulkTransferError -->
<g id="node1" class="node">
<title>bulkTransferError</title>
<polygon fill="#efefef" stroke="none" points="388.13,-358.2 388.13,-393.8 679.2,-393.8 679.2,-358.2 388.13,-358.2"/>
<polygon fill="none" stroke="black" points="388.13,-358.2 388.13,-393.8 679.2,-393.8 679.2,-358.2 388.13,-358.2"/>
<text text-anchor="start" x="405.95" y="-371.6" font-family="Arial Bold" font-size="18.00">bulkTransferError</text>
<text text-anchor="start" x="536.89" y="-371.6" font-family="Arial" font-size="14.00">    </text>
<text text-anchor="start" x="568.01" y="-371.6" font-family="Arial" font-size="14.00" fill="#666666">[BASE TABLE]</text>
<polygon fill="none" stroke="black" points="388.13,-327.4 388.13,-358.2 679.2,-358.2 679.2,-327.4 388.13,-327.4"/>
<text text-anchor="start" x="395.13" y="-339.6" font-family="Arial" font-size="14.00">bulkTransferErrorId </text>
<text text-anchor="start" x="519.62" y="-339.6" font-family="Arial" font-size="14.00" fill="#666666">[bigint unsigned]</text>
<polygon fill="none" stroke="black" points="388.13,-296.6 388.13,-327.4 679.2,-327.4 679.2,-296.6 388.13,-296.6"/>
<text text-anchor="start" x="395.13" y="-308.8" font-family="Arial" font-size="14.00">bulkTransferStateChangeId </text>
<text text-anchor="start" x="570.24" y="-308.8" font-family="Arial" font-size="14.00" fill="#666666">[bigint unsigned]</text>
<polygon fill="none" stroke="black" stroke-width="3" points="386.63,-295.1 386.63,-395.3 680.7,-395.3 680.7,-295.1 386.63,-295.1"/>
</g>
<!-- bulkTransferStateChange -->
<g id="node2" class="node">
<title>bulkTransferStateChange</title>
<polygon fill="#efefef" stroke="none" points="372.45,-135.6 372.45,-171.2 694.88,-171.2 694.88,-135.6 372.45,-135.6"/>
<polygon fill="none" stroke="black" points="372.45,-135.6 372.45,-171.2 694.88,-171.2 694.88,-135.6 372.45,-135.6"/>
<text text-anchor="start" x="379.45" y="-149" font-family="Arial Bold" font-size="18.00">bulkTransferStateChange</text>
<text text-anchor="start" x="563.39" y="-149" font-family="Arial" font-size="14.00">    </text>
<text text-anchor="start" x="594.51" y="-149" font-family="Arial" font-size="14.00" fill="#666666">[BASE TABLE]</text>
<polygon fill="none" stroke="black" points="372.45,-104.8 372.45,-135.6 694.88,-135.6 694.88,-104.8 372.45,-104.8"/>
<text text-anchor="start" x="379.45" y="-117" font-family="Arial" font-size="14.00">bulkTransferStateChangeId </text>
<text text-anchor="start" x="554.56" y="-117" font-family="Arial" font-size="14.00" fill="#666666">[bigint unsigned]</text>
<polygon fill="none" stroke="black" points="372.45,-74 372.45,-104.8 694.88,-104.8 694.88,-74 372.45,-74"/>
<text text-anchor="start" x="379.45" y="-86.2" font-family="Arial" font-size="14.00">bulkTransferId </text>
<text text-anchor="start" x="472.83" y="-86.2" font-family="Arial" font-size="14.00" fill="#666666">[varchar(36)]</text>
<polygon fill="none" stroke="black" points="372.45,-43.2 372.45,-74 694.88,-74 694.88,-43.2 372.45,-43.2"/>
<text text-anchor="start" x="379.45" y="-55.4" font-family="Arial" font-size="14.00">bulkTransferStateId </text>
<text text-anchor="start" x="505.52" y="-55.4" font-family="Arial" font-size="14.00" fill="#666666">[varchar(50)]</text>
</g>
<!-- bulkTransferError&#45;&gt;bulkTransferStateChange -->
<g id="edge1" class="edge">
<title>bulkTransferError:bulkTransferStateChangeId&#45;&gt;bulkTransferStateChange:bulkTransferStateChangeId</title>
<path fill="none" stroke="black" d="M534.43,-285.26C544.64,-221.37 654.43,-279.29 694.88,-214.4 717.03,-178.87 737.75,-120.2 695.88,-120.2"/>
<polygon fill="black" stroke="black" points="534.43,-285.29 529.2,-294.94 534.04,-290.61 533.72,-294.93 533.72,-294.93 533.72,-294.93 534.04,-290.61 538.18,-295.6 534.43,-285.29"/>
<text text-anchor="start" x="7" y="-305.6" font-family="Arial" font-size="10.00">FOREIGN KEY (bulkTransferStateChangeId) REFERENCES bulkTransferStateChange (bulkTransferStateChangeId)</text>
</g>
</g>
</svg>
