<?xml version="1.0" encoding="UTF-8" standalone="no"?>
<!DOCTYPE svg PUBLIC "-//W3C//DTD SVG 1.1//EN"
 "http://www.w3.org/Graphics/SVG/1.1/DTD/svg11.dtd">
<!-- Generated by graphviz version 12.1.2 (20240928.0832)
 -->
<!-- Title: bulkTransferDuplicateCheck Pages: 1 -->
<svg width="773pt" height="571pt"
 viewBox="0.00 0.00 773.19 571.20" xmlns="http://www.w3.org/2000/svg" xmlns:xlink="http://www.w3.org/1999/xlink">
<g id="graph0" class="graph" transform="scale(1 1) rotate(0) translate(4 567.2)">
<title>bulkTransferDuplicateCheck</title>
<polygon fill="white" stroke="none" points="-4,4 -4,-567.2 769.19,-567.2 769.19,4 -4,4"/>
<!-- bulkTransferDuplicateCheck -->
<g id="node1" class="node">
<title>bulkTransferDuplicateCheck</title>
<polygon fill="#efefef" stroke="none" points="46.2,-138.6 46.2,-174.2 393.61,-174.2 393.61,-138.6 46.2,-138.6"/>
<polygon fill="none" stroke="black" points="46.2,-138.6 46.2,-174.2 393.61,-174.2 393.61,-138.6 46.2,-138.6"/>
<text text-anchor="start" x="53.2" y="-152" font-family="Arial Bold" font-size="18.00">bulkTransferDuplicateCheck</text>
<text text-anchor="start" x="262.12" y="-152" font-family="Arial" font-size="14.00">    </text>
<text text-anchor="start" x="293.23" y="-152" font-family="Arial" font-size="14.00" fill="#666666">[BASE TABLE]</text>
<polygon fill="none" stroke="black" points="46.2,-107.8 46.2,-138.6 393.61,-138.6 393.61,-107.8 46.2,-107.8"/>
<text text-anchor="start" x="53.2" y="-120" font-family="Arial" font-size="14.00">bulkTransferId </text>
<text text-anchor="start" x="146.57" y="-120" font-family="Arial" font-size="14.00" fill="#666666">[varchar(36)]</text>
<polygon fill="none" stroke="black" points="46.2,-77 46.2,-107.8 393.61,-107.8 393.61,-77 46.2,-77"/>
<text text-anchor="start" x="53.2" y="-89.2" font-family="Arial" font-size="14.00">hash </text>
<text text-anchor="start" x="87.45" y="-89.2" font-family="Arial" font-size="14.00" fill="#666666">[varchar(256)]</text>
<polygon fill="none" stroke="black" points="46.2,-46.2 46.2,-77 393.61,-77 393.61,-46.2 46.2,-46.2"/>
<text text-anchor="start" x="53.2" y="-58.4" font-family="Arial" font-size="14.00">createdDate </text>
<text text-anchor="start" x="133.36" y="-58.4" font-family="Arial" font-size="14.00" fill="#666666">[datetime]</text>
<polygon fill="none" stroke="black" stroke-width="3" points="44.7,-44.7 44.7,-175.7 395.11,-175.7 395.11,-44.7 44.7,-44.7"/>
</g>
<!-- bulkTransfer -->
<g id="node2" class="node">
<title>bulkTransfer</title>
<polygon fill="#efefef" stroke="none" points="104.18,-484.4 104.18,-520 335.63,-520 335.63,-484.4 104.18,-484.4"/>
<polygon fill="none" stroke="black" points="104.18,-484.4 104.18,-520 335.63,-520 335.63,-484.4 104.18,-484.4"/>
<text text-anchor="start" x="111.18" y="-497.8" font-family="Arial Bold" font-size="18.00">bulkTransfer</text>
<text text-anchor="start" x="204.14" y="-497.8" font-family="Arial" font-size="14.00">    </text>
<text text-anchor="start" x="235.26" y="-497.8" font-family="Arial" font-size="14.00" fill="#666666">[BASE TABLE]</text>
<polygon fill="none" stroke="black" points="104.18,-453.6 104.18,-484.4 335.63,-484.4 335.63,-453.6 104.18,-453.6"/>
<text text-anchor="start" x="111.18" y="-465.8" font-family="Arial" font-size="14.00">bulkTransferId </text>
<text text-anchor="start" x="204.55" y="-465.8" font-family="Arial" font-size="14.00" fill="#666666">[varchar(36)]</text>
<polygon fill="none" stroke="black" points="104.18,-422.8 104.18,-453.6 335.63,-453.6 335.63,-422.8 104.18,-422.8"/>
<text text-anchor="start" x="111.18" y="-435" font-family="Arial" font-size="14.00">bulkQuoteId </text>
<text text-anchor="start" x="190.56" y="-435" font-family="Arial" font-size="14.00" fill="#666666">[varchar(36)]</text>
<polygon fill="none" stroke="black" points="104.18,-392 104.18,-422.8 335.63,-422.8 335.63,-392 104.18,-392"/>
<text text-anchor="start" x="111.18" y="-404.2" font-family="Arial" font-size="14.00">payerParticipantId </text>
<text text-anchor="start" x="227.91" y="-404.2" font-family="Arial" font-size="14.00" fill="#666666">[int unsigned]</text>
<polygon fill="none" stroke="black" points="104.18,-361.2 104.18,-392 335.63,-392 335.63,-361.2 104.18,-361.2"/>
<text text-anchor="start" x="111.18" y="-373.4" font-family="Arial" font-size="14.00">payeeParticipantId </text>
<text text-anchor="start" x="231.03" y="-373.4" font-family="Arial" font-size="14.00" fill="#666666">[int unsigned]</text>
<polygon fill="none" stroke="black" points="104.18,-330.4 104.18,-361.2 335.63,-361.2 335.63,-330.4 104.18,-330.4"/>
<text text-anchor="start" x="111.18" y="-342.6" font-family="Arial" font-size="14.00">expirationDate </text>
<text text-anchor="start" x="205.34" y="-342.6" font-family="Arial" font-size="14.00" fill="#666666">[datetime]</text>
<polygon fill="none" stroke="black" points="104.18,-299.6 104.18,-330.4 335.63,-330.4 335.63,-299.6 104.18,-299.6"/>
<text text-anchor="start" x="111.18" y="-311.8" font-family="Arial" font-size="14.00">createdDate </text>
<text text-anchor="start" x="191.34" y="-311.8" font-family="Arial" font-size="14.00" fill="#666666">[datetime]</text>
</g>
<!-- bulkTransfer&#45;&gt;bulkTransferDuplicateCheck -->
<g id="edge1" class="edge">
<title>bulkTransfer:bulkTransferId&#45;&gt;bulkTransferDuplicateCheck:bulkTransferId</title>
<path fill="none" stroke="black" d="M346.55,-467.14C419.28,-439.92 469.17,-123.2 394.61,-123.2"/>
<polygon fill="black" stroke="black" points="346.79,-467.1 336.13,-464.52 341.54,-468.08 337.29,-468.88 337.29,-468.88 337.29,-468.88 341.54,-468.08 337.79,-473.36 346.79,-467.1"/>
<text text-anchor="start" x="343.63" y="-479" font-family="Arial" font-size="10.00">FOREIGN KEY (bulkTransferId) REFERENCES bulkTransferDuplicateCheck (bulkTransferId)</text>
</g>
</g>
</svg>
