<?xml version="1.0" encoding="UTF-8" standalone="no"?>
<!DOCTYPE svg PUBLIC "-//W3C//DTD SVG 1.1//EN"
 "http://www.w3.org/Graphics/SVG/1.1/DTD/svg11.dtd">
<!-- Generated by graphviz version 12.1.2 (20240928.0832)
 -->
<!-- Title: bulkTransferExtension Pages: 1 -->
<svg width="717pt" height="664pt"
 viewBox="0.00 0.00 717.17 663.60" xmlns="http://www.w3.org/2000/svg" xmlns:xlink="http://www.w3.org/1999/xlink">
<g id="graph0" class="graph" transform="scale(1 1) rotate(0) translate(4 659.6)">
<title>bulkTransferExtension</title>
<polygon fill="white" stroke="none" points="-4,4 -4,-659.6 713.17,-659.6 713.17,4 -4,4"/>
<!-- bulkTransferExtension -->
<g id="node1" class="node">
<title>bulkTransferExtension</title>
<polygon fill="#efefef" stroke="none" points="46.2,-573.8 46.2,-609.4 349.64,-609.4 349.64,-573.8 46.2,-573.8"/>
<polygon fill="none" stroke="black" points="46.2,-573.8 46.2,-609.4 349.64,-609.4 349.64,-573.8 46.2,-573.8"/>
<text text-anchor="start" x="53.2" y="-587.2" font-family="Arial Bold" font-size="18.00">bulkTransferExtension</text>
<text text-anchor="start" x="218.15" y="-587.2" font-family="Arial" font-size="14.00">    </text>
<text text-anchor="start" x="249.27" y="-587.2" font-family="Arial" font-size="14.00" fill="#666666">[BASE TABLE]</text>
<polygon fill="none" stroke="black" points="46.2,-543 46.2,-573.8 349.64,-573.8 349.64,-543 46.2,-543"/>
<text text-anchor="start" x="53.2" y="-555.2" font-family="Arial" font-size="14.00">bulkTransferExtensionId </text>
<text text-anchor="start" x="208.05" y="-555.2" font-family="Arial" font-size="14.00" fill="#666666">[bigint unsigned]</text>
<polygon fill="none" stroke="black" points="46.2,-512.2 46.2,-543 349.64,-543 349.64,-512.2 46.2,-512.2"/>
<text text-anchor="start" x="53.2" y="-524.4" font-family="Arial" font-size="14.00">bulkTransferId </text>
<text text-anchor="start" x="146.57" y="-524.4" font-family="Arial" font-size="14.00" fill="#666666">[varchar(36)]</text>
<polygon fill="none" stroke="black" points="46.2,-481.4 46.2,-512.2 349.64,-512.2 349.64,-481.4 46.2,-481.4"/>
<text text-anchor="start" x="53.2" y="-493.6" font-family="Arial" font-size="14.00">isFulfilment </text>
<text text-anchor="start" x="127.88" y="-493.6" font-family="Arial" font-size="14.00" fill="#666666">[tinyint(1)]</text>
<polygon fill="none" stroke="black" points="46.2,-450.6 46.2,-481.4 349.64,-481.4 349.64,-450.6 46.2,-450.6"/>
<text text-anchor="start" x="53.2" y="-462.8" font-family="Arial" font-size="14.00">key </text>
<text text-anchor="start" x="78.88" y="-462.8" font-family="Arial" font-size="14.00" fill="#666666">[varchar(128)]</text>
<polygon fill="none" stroke="black" points="46.2,-419.8 46.2,-450.6 349.64,-450.6 349.64,-419.8 46.2,-419.8"/>
<text text-anchor="start" x="53.2" y="-432" font-family="Arial" font-size="14.00">value </text>
<text text-anchor="start" x="90.56" y="-432" font-family="Arial" font-size="14.00" fill="#666666">[text]</text>
<polygon fill="none" stroke="black" points="46.2,-389 46.2,-419.8 349.64,-419.8 349.64,-389 46.2,-389"/>
<text text-anchor="start" x="53.2" y="-401.2" font-family="Arial" font-size="14.00">createdDate </text>
<text text-anchor="start" x="133.36" y="-401.2" font-family="Arial" font-size="14.00" fill="#666666">[datetime]</text>
<polygon fill="none" stroke="black" stroke-width="3" points="44.7,-387.5 44.7,-610.9 351.14,-610.9 351.14,-387.5 44.7,-387.5"/>
</g>
<!-- bulkTransfer -->
<g id="node2" class="node">
<title>bulkTransfer</title>
<polygon fill="#efefef" stroke="none" points="82.2,-228 82.2,-263.6 313.65,-263.6 313.65,-228 82.2,-228"/>
<polygon fill="none" stroke="black" points="82.2,-228 82.2,-263.6 313.65,-263.6 313.65,-228 82.2,-228"/>
<text text-anchor="start" x="89.2" y="-241.4" font-family="Arial Bold" font-size="18.00">bulkTransfer</text>
<text text-anchor="start" x="182.16" y="-241.4" font-family="Arial" font-size="14.00">    </text>
<text text-anchor="start" x="213.27" y="-241.4" font-family="Arial" font-size="14.00" fill="#666666">[BASE TABLE]</text>
<polygon fill="none" stroke="black" points="82.2,-197.2 82.2,-228 313.65,-228 313.65,-197.2 82.2,-197.2"/>
<text text-anchor="start" x="89.2" y="-209.4" font-family="Arial" font-size="14.00">bulkTransferId </text>
<text text-anchor="start" x="182.57" y="-209.4" font-family="Arial" font-size="14.00" fill="#666666">[varchar(36)]</text>
<polygon fill="none" stroke="black" points="82.2,-166.4 82.2,-197.2 313.65,-197.2 313.65,-166.4 82.2,-166.4"/>
<text text-anchor="start" x="89.2" y="-178.6" font-family="Arial" font-size="14.00">bulkQuoteId </text>
<text text-anchor="start" x="168.58" y="-178.6" font-family="Arial" font-size="14.00" fill="#666666">[varchar(36)]</text>
<polygon fill="none" stroke="black" points="82.2,-135.6 82.2,-166.4 313.65,-166.4 313.65,-135.6 82.2,-135.6"/>
<text text-anchor="start" x="89.2" y="-147.8" font-family="Arial" font-size="14.00">payerParticipantId </text>
<text text-anchor="start" x="205.93" y="-147.8" font-family="Arial" font-size="14.00" fill="#666666">[int unsigned]</text>
<polygon fill="none" stroke="black" points="82.2,-104.8 82.2,-135.6 313.65,-135.6 313.65,-104.8 82.2,-104.8"/>
<text text-anchor="start" x="89.2" y="-117" font-family="Arial" font-size="14.00">payeeParticipantId </text>
<text text-anchor="start" x="209.05" y="-117" font-family="Arial" font-size="14.00" fill="#666666">[int unsigned]</text>
<polygon fill="none" stroke="black" points="82.2,-74 82.2,-104.8 313.65,-104.8 313.65,-74 82.2,-74"/>
<text text-anchor="start" x="89.2" y="-86.2" font-family="Arial" font-size="14.00">expirationDate </text>
<text text-anchor="start" x="183.36" y="-86.2" font-family="Arial" font-size="14.00" fill="#666666">[datetime]</text>
<polygon fill="none" stroke="black" points="82.2,-43.2 82.2,-74 313.65,-74 313.65,-43.2 82.2,-43.2"/>
<text text-anchor="start" x="89.2" y="-55.4" font-family="Arial" font-size="14.00">createdDate </text>
<text text-anchor="start" x="169.35" y="-55.4" font-family="Arial" font-size="14.00" fill="#666666">[datetime]</text>
</g>
<!-- bulkTransferExtension&#45;&gt;bulkTransfer -->
<g id="edge1" class="edge">
<title>bulkTransferExtension:bulkTransferId&#45;&gt;bulkTransfer:bulkTransferId</title>
<path fill="none" stroke="black" d="M360.56,-525.25C417.35,-496.42 381.52,-212.6 314.65,-212.6"/>
<polygon fill="black" stroke="black" points="360.7,-525.21 349.93,-523.14 355.51,-526.45 351.29,-527.45 351.29,-527.45 351.29,-527.45 355.51,-526.45 352.01,-531.9 360.7,-525.21"/>
<text text-anchor="start" x="357.64" y="-537.6" font-family="Arial" font-size="10.00">FOREIGN KEY (bulkTransferId) REFERENCES bulkTransfer (bulkTransferId)</text>
</g>
</g>
</svg>
