<?xml version="1.0" encoding="UTF-8" standalone="no"?>
<!DOCTYPE svg PUBLIC "-//W3C//DTD SVG 1.1//EN"
 "http://www.w3.org/Graphics/SVG/1.1/DTD/svg11.dtd">
<!-- Generated by graphviz version 12.1.2 (20240928.0832)
 -->
<!-- Title: contactType Pages: 1 -->
<svg width="547pt" height="418pt"
 viewBox="0.00 0.00 546.58 417.77" xmlns="http://www.w3.org/2000/svg" xmlns:xlink="http://www.w3.org/1999/xlink">
<g id="graph0" class="graph" transform="scale(1 1) rotate(0) translate(4 413.77)">
<title>contactType</title>
<polygon fill="white" stroke="none" points="-4,4 -4,-413.77 542.58,-413.77 542.58,4 -4,4"/>
<!-- contactType -->
<g id="node1" class="node">
<title>contactType</title>
<polygon fill="#efefef" stroke="none" points="241.5,-77.57 241.5,-113.17 468.94,-113.17 468.94,-77.57 241.5,-77.57"/>
<polygon fill="none" stroke="black" points="241.5,-77.57 241.5,-113.17 468.94,-113.17 468.94,-77.57 241.5,-77.57"/>
<text text-anchor="start" x="248.5" y="-90.97" font-family="Arial Bold" font-size="18.00">contactType</text>
<text text-anchor="start" x="337.45" y="-90.97" font-family="Arial" font-size="14.00">    </text>
<text text-anchor="start" x="368.57" y="-90.97" font-family="Arial" font-size="14.00" fill="#666666">[BASE TABLE]</text>
<polygon fill="none" stroke="black" points="241.5,-46.77 241.5,-77.57 468.94,-77.57 468.94,-46.77 241.5,-46.77"/>
<text text-anchor="start" x="248.5" y="-58.97" font-family="Arial" font-size="14.00">contactTypeId </text>
<text text-anchor="start" x="340.33" y="-58.97" font-family="Arial" font-size="14.00" fill="#666666">[int unsigned]</text>
<polygon fill="none" stroke="black" stroke-width="3" points="240,-45.27 240,-114.67 470.44,-114.67 470.44,-45.27 240,-45.27"/>
</g>
<!-- participantContact -->
<g id="node2" class="node">
<title>participantContact</title>
<polygon fill="#efefef" stroke="none" points="219.5,-330.97 219.5,-366.57 490.94,-366.57 490.94,-330.97 219.5,-330.97"/>
<polygon fill="none" stroke="black" points="219.5,-330.97 219.5,-366.57 490.94,-366.57 490.94,-330.97 219.5,-330.97"/>
<text text-anchor="start" x="226.5" y="-344.37" font-family="Arial Bold" font-size="18.00">participantContact</text>
<text text-anchor="start" x="359.45" y="-344.37" font-family="Arial" font-size="14.00">    </text>
<text text-anchor="start" x="390.57" y="-344.37" font-family="Arial" font-size="14.00" fill="#666666">[BASE TABLE]</text>
<polygon fill="none" stroke="black" points="219.5,-300.17 219.5,-330.97 490.94,-330.97 490.94,-300.17 219.5,-300.17"/>
<text text-anchor="start" x="226.5" y="-312.37" font-family="Arial" font-size="14.00">participantContactId </text>
<text text-anchor="start" x="354.91" y="-312.37" font-family="Arial" font-size="14.00" fill="#666666">[int unsigned]</text>
<polygon fill="none" stroke="black" points="219.5,-269.37 219.5,-300.17 490.94,-300.17 490.94,-269.37 219.5,-269.37"/>
<text text-anchor="start" x="226.5" y="-281.57" font-family="Arial" font-size="14.00">participantId </text>
<text text-anchor="start" x="306.66" y="-281.57" font-family="Arial" font-size="14.00" fill="#666666">[int unsigned]</text>
<polygon fill="none" stroke="black" points="219.5,-238.57 219.5,-269.37 490.94,-269.37 490.94,-238.57 219.5,-238.57"/>
<text text-anchor="start" x="226.5" y="-250.77" font-family="Arial" font-size="14.00">contactTypeId </text>
<text text-anchor="start" x="318.33" y="-250.77" font-family="Arial" font-size="14.00" fill="#666666">[int unsigned]</text>
</g>
<!-- participantContact&#45;&gt;contactType -->
<g id="edge1" class="edge">
<title>participantContact:contactTypeId&#45;&gt;contactType:contactTypeId</title>
<path fill="none" stroke="black" d="M355.98,-227.38C366.12,-164.53 475.21,-223.34 515.14,-159.37 541.64,-116.91 550.42,-82.27 515.14,-46.77 465.04,3.65 355.22,25.31 355.22,-45.77"/>
<polygon fill="black" stroke="black" points="355.99,-227.26 350.76,-236.9 355.59,-232.58 355.27,-236.9 355.27,-236.9 355.27,-236.9 355.59,-232.58 359.73,-237.57 355.99,-227.26"/>
<text text-anchor="start" x="7" y="-247.57" font-family="Arial" font-size="10.00">FOREIGN KEY (contactTypeId) REFERENCES contactType (contactTypeId)</text>
</g>
</g>
</svg>
