<?xml version="1.0" encoding="UTF-8" standalone="no"?>
<!DOCTYPE svg PUBLIC "-//W3C//DTD SVG 1.1//EN"
 "http://www.w3.org/Graphics/SVG/1.1/DTD/svg11.dtd">
<!-- Generated by graphviz version 12.1.2 (20240928.0832)
 -->
<!-- Title: contactType Pages: 1 -->
<svg width="679pt" height="694pt"
 viewBox="0.00 0.00 678.86 694.40" xmlns="http://www.w3.org/2000/svg" xmlns:xlink="http://www.w3.org/1999/xlink">
<g id="graph0" class="graph" transform="scale(1 1) rotate(0) translate(4 690.4)">
<title>contactType</title>
<polygon fill="white" stroke="none" points="-4,4 -4,-690.4 674.86,-690.4 674.86,4 -4,4"/>
<!-- contactType -->
<g id="node1" class="node">
<title>contactType</title>
<polygon fill="#efefef" stroke="none" points="65.2,-200.2 65.2,-235.8 292.64,-235.8 292.64,-200.2 65.2,-200.2"/>
<polygon fill="none" stroke="black" points="65.2,-200.2 65.2,-235.8 292.64,-235.8 292.64,-200.2 65.2,-200.2"/>
<text text-anchor="start" x="72.2" y="-213.6" font-family="Arial Bold" font-size="18.00">contactType</text>
<text text-anchor="start" x="161.15" y="-213.6" font-family="Arial" font-size="14.00">    </text>
<text text-anchor="start" x="192.27" y="-213.6" font-family="Arial" font-size="14.00" fill="#666666">[BASE TABLE]</text>
<polygon fill="none" stroke="black" points="65.2,-169.4 65.2,-200.2 292.64,-200.2 292.64,-169.4 65.2,-169.4"/>
<text text-anchor="start" x="72.2" y="-181.6" font-family="Arial" font-size="14.00">contactTypeId </text>
<text text-anchor="start" x="164.03" y="-181.6" font-family="Arial" font-size="14.00" fill="#666666">[int unsigned]</text>
<polygon fill="none" stroke="black" points="65.2,-138.6 65.2,-169.4 292.64,-169.4 292.64,-138.6 65.2,-138.6"/>
<text text-anchor="start" x="72.2" y="-150.8" font-family="Arial" font-size="14.00">name </text>
<text text-anchor="start" x="111.11" y="-150.8" font-family="Arial" font-size="14.00" fill="#666666">[varchar(50)]</text>
<polygon fill="none" stroke="black" points="65.2,-107.8 65.2,-138.6 292.64,-138.6 292.64,-107.8 65.2,-107.8"/>
<text text-anchor="start" x="72.2" y="-120" font-family="Arial" font-size="14.00">description </text>
<text text-anchor="start" x="143.79" y="-120" font-family="Arial" font-size="14.00" fill="#666666">[varchar(512)]</text>
<polygon fill="none" stroke="black" points="65.2,-77 65.2,-107.8 292.64,-107.8 292.64,-77 65.2,-77"/>
<text text-anchor="start" x="72.2" y="-89.2" font-family="Arial" font-size="14.00">isActive </text>
<text text-anchor="start" x="124.32" y="-89.2" font-family="Arial" font-size="14.00" fill="#666666">[tinyint(1)]</text>
<polygon fill="none" stroke="black" points="65.2,-46.2 65.2,-77 292.64,-77 292.64,-46.2 65.2,-46.2"/>
<text text-anchor="start" x="72.2" y="-58.4" font-family="Arial" font-size="14.00">createdDate </text>
<text text-anchor="start" x="152.36" y="-58.4" font-family="Arial" font-size="14.00" fill="#666666">[datetime]</text>
<polygon fill="none" stroke="black" stroke-width="3" points="63.7,-44.7 63.7,-237.3 294.14,-237.3 294.14,-44.7 63.7,-44.7"/>
</g>
<!-- participantContact -->
<g id="node2" class="node">
<title>participantContact</title>
<polygon fill="#efefef" stroke="none" points="43.2,-607.6 43.2,-643.2 314.64,-643.2 314.64,-607.6 43.2,-607.6"/>
<polygon fill="none" stroke="black" points="43.2,-607.6 43.2,-643.2 314.64,-643.2 314.64,-607.6 43.2,-607.6"/>
<text text-anchor="start" x="50.2" y="-621" font-family="Arial Bold" font-size="18.00">participantContact</text>
<text text-anchor="start" x="183.15" y="-621" font-family="Arial" font-size="14.00">    </text>
<text text-anchor="start" x="214.27" y="-621" font-family="Arial" font-size="14.00" fill="#666666">[BASE TABLE]</text>
<polygon fill="none" stroke="black" points="43.2,-576.8 43.2,-607.6 314.64,-607.6 314.64,-576.8 43.2,-576.8"/>
<text text-anchor="start" x="50.2" y="-589" font-family="Arial" font-size="14.00">participantContactId </text>
<text text-anchor="start" x="178.61" y="-589" font-family="Arial" font-size="14.00" fill="#666666">[int unsigned]</text>
<polygon fill="none" stroke="black" points="43.2,-546 43.2,-576.8 314.64,-576.8 314.64,-546 43.2,-546"/>
<text text-anchor="start" x="50.2" y="-558.2" font-family="Arial" font-size="14.00">participantId </text>
<text text-anchor="start" x="130.36" y="-558.2" font-family="Arial" font-size="14.00" fill="#666666">[int unsigned]</text>
<polygon fill="none" stroke="black" points="43.2,-515.2 43.2,-546 314.64,-546 314.64,-515.2 43.2,-515.2"/>
<text text-anchor="start" x="50.2" y="-527.4" font-family="Arial" font-size="14.00">contactTypeId </text>
<text text-anchor="start" x="142.03" y="-527.4" font-family="Arial" font-size="14.00" fill="#666666">[int unsigned]</text>
<polygon fill="none" stroke="black" points="43.2,-484.4 43.2,-515.2 314.64,-515.2 314.64,-484.4 43.2,-484.4"/>
<text text-anchor="start" x="50.2" y="-496.6" font-family="Arial" font-size="14.00">value </text>
<text text-anchor="start" x="87.56" y="-496.6" font-family="Arial" font-size="14.00" fill="#666666">[varchar(256)]</text>
<polygon fill="none" stroke="black" points="43.2,-453.6 43.2,-484.4 314.64,-484.4 314.64,-453.6 43.2,-453.6"/>
<text text-anchor="start" x="50.2" y="-465.8" font-family="Arial" font-size="14.00">priorityPreference </text>
<text text-anchor="start" x="164.58" y="-465.8" font-family="Arial" font-size="14.00" fill="#666666">[int]</text>
<polygon fill="none" stroke="black" points="43.2,-422.8 43.2,-453.6 314.64,-453.6 314.64,-422.8 43.2,-422.8"/>
<text text-anchor="start" x="50.2" y="-435" font-family="Arial" font-size="14.00">isActive </text>
<text text-anchor="start" x="102.32" y="-435" font-family="Arial" font-size="14.00" fill="#666666">[tinyint(1)]</text>
<polygon fill="none" stroke="black" points="43.2,-392 43.2,-422.8 314.64,-422.8 314.64,-392 43.2,-392"/>
<text text-anchor="start" x="50.2" y="-404.2" font-family="Arial" font-size="14.00">createdDate </text>
<text text-anchor="start" x="130.36" y="-404.2" font-family="Arial" font-size="14.00" fill="#666666">[datetime]</text>
<polygon fill="none" stroke="black" points="43.2,-361.2 43.2,-392 314.64,-392 314.64,-361.2 43.2,-361.2"/>
<text text-anchor="start" x="50.2" y="-373.4" font-family="Arial" font-size="14.00">createdBy </text>
<text text-anchor="start" x="117.12" y="-373.4" font-family="Arial" font-size="14.00" fill="#666666">[varchar(128)]</text>
</g>
<!-- participantContact&#45;&gt;contactType -->
<g id="edge1" class="edge">
<title>participantContact:contactTypeId&#45;&gt;contactType:contactTypeId</title>
<path fill="none" stroke="black" d="M325.82,-528.39C390.46,-498.94 367.03,-184.8 293.64,-184.8"/>
<polygon fill="black" stroke="black" points="325.74,-528.41 315.01,-526.13 320.53,-529.54 316.3,-530.46 316.3,-530.46 316.3,-530.46 320.53,-529.54 316.92,-534.93 325.74,-528.41"/>
<text text-anchor="start" x="322.64" y="-540.6" font-family="Arial" font-size="10.00">FOREIGN KEY (contactTypeId) REFERENCES contactType (contactTypeId)</text>
</g>
</g>
</svg>
