<?xml version="1.0" encoding="UTF-8" standalone="no"?>
<!DOCTYPE svg PUBLIC "-//W3C//DTD SVG 1.1//EN"
 "http://www.w3.org/Graphics/SVG/1.1/DTD/svg11.dtd">
<!-- Generated by graphviz version 12.1.2 (20240928.0832)
 -->
<!-- Title: currency Pages: 1 -->
<svg width="5960pt" height="602pt"
 viewBox="0.00 0.00 5959.93 602.00" xmlns="http://www.w3.org/2000/svg" xmlns:xlink="http://www.w3.org/1999/xlink">
<g id="graph0" class="graph" transform="scale(1 1) rotate(0) translate(4 598)">
<title>currency</title>
<polygon fill="white" stroke="none" points="-4,4 -4,-598 5955.93,-598 5955.93,4 -4,4"/>
<!-- currency -->
<g id="node1" class="node">
<title>currency</title>
<polygon fill="#efefef" stroke="none" points="2657.1,-77 2657.1,-112.6 2858.55,-112.6 2858.55,-77 2657.1,-77"/>
<polygon fill="none" stroke="black" points="2657.1,-77 2657.1,-112.6 2858.55,-112.6 2858.55,-77 2657.1,-77"/>
<text text-anchor="start" x="2664.1" y="-90.4" font-family="Arial Bold" font-size="18.00">currency</text>
<text text-anchor="start" x="2727.06" y="-90.4" font-family="Arial" font-size="14.00">    </text>
<text text-anchor="start" x="2758.17" y="-90.4" font-family="Arial" font-size="14.00" fill="#666666">[BASE TABLE]</text>
<polygon fill="none" stroke="black" points="2657.1,-46.2 2657.1,-77 2858.55,-77 2858.55,-46.2 2657.1,-46.2"/>
<text text-anchor="start" x="2664.1" y="-58.4" font-family="Arial" font-size="14.00">currencyId </text>
<text text-anchor="start" x="2733.35" y="-58.4" font-family="Arial" font-size="14.00" fill="#666666">[varchar(3)]</text>
<polygon fill="none" stroke="black" stroke-width="3" points="2655.6,-44.7 2655.6,-114.1 2860.05,-114.1 2860.05,-44.7 2655.6,-44.7"/>
</g>
<!-- fxQuoteConversionTerms -->
<g id="node2" class="node">
<title>fxQuoteConversionTerms</title>
<polygon fill="#efefef" stroke="none" points="43.2,-453.6 43.2,-489.2 740.45,-489.2 740.45,-453.6 43.2,-453.6"/>
<polygon fill="none" stroke="black" points="43.2,-453.6 43.2,-489.2 740.45,-489.2 740.45,-453.6 43.2,-453.6"/>
<text text-anchor="start" x="235.6" y="-467" font-family="Arial Bold" font-size="18.00">fxQuoteConversionTerms</text>
<text text-anchor="start" x="423.56" y="-467" font-family="Arial" font-size="14.00">    </text>
<text text-anchor="start" x="454.68" y="-467" font-family="Arial" font-size="14.00" fill="#666666">[BASE TABLE]</text>
<polygon fill="none" stroke="black" points="43.2,-422.8 43.2,-453.6 740.45,-453.6 740.45,-422.8 43.2,-422.8"/>
<text text-anchor="start" x="50.2" y="-435" font-family="Arial" font-size="14.00">conversionId </text>
<text text-anchor="start" x="133.47" y="-435" font-family="Arial" font-size="14.00" fill="#666666">[varchar(255)]</text>
<polygon fill="none" stroke="black" points="43.2,-392 43.2,-422.8 740.45,-422.8 740.45,-392 43.2,-392"/>
<text text-anchor="start" x="50.2" y="-404.2" font-family="Arial" font-size="14.00">conversionRequestId </text>
<text text-anchor="start" x="185.61" y="-404.2" font-family="Arial" font-size="14.00" fill="#666666">[varchar(36)]</text>
<polygon fill="none" stroke="black" points="43.2,-361.2 43.2,-392 740.45,-392 740.45,-361.2 43.2,-361.2"/>
<text text-anchor="start" x="50.2" y="-373.4" font-family="Arial" font-size="14.00">amountTypeId </text>
<text text-anchor="start" x="143.59" y="-373.4" font-family="Arial" font-size="14.00" fill="#666666">[int unsigned]</text>
<text text-anchor="start" x="226.87" y="-373.4" font-family="Arial" font-size="14.00"> This is part of the transaction type that contains valid elements for &#45; Amount Type</text>
<polygon fill="none" stroke="black" points="43.2,-330.4 43.2,-361.2 740.45,-361.2 740.45,-330.4 43.2,-330.4"/>
<text text-anchor="start" x="50.2" y="-342.6" font-family="Arial" font-size="14.00">sourceCurrency </text>
<text text-anchor="start" x="152.9" y="-342.6" font-family="Arial" font-size="14.00" fill="#666666">[varchar(3)]</text>
<polygon fill="none" stroke="black" points="43.2,-299.6 43.2,-330.4 740.45,-330.4 740.45,-299.6 43.2,-299.6"/>
<text text-anchor="start" x="50.2" y="-311.8" font-family="Arial" font-size="14.00">targetCurrency </text>
<text text-anchor="start" x="146.68" y="-311.8" font-family="Arial" font-size="14.00" fill="#666666">[varchar(3)]</text>
</g>
<!-- fxQuoteConversionTerms&#45;&gt;currency -->
<g id="edge1" class="edge">
<title>fxQuoteConversionTerms:sourceCurrency&#45;&gt;currency:currencyId</title>
<path fill="none" stroke="black" d="M751.81,-344.86C804.46,-334.21 739.76,-235.73 792.82,-194.8 957.16,-68.02 2448.54,-61.6 2656.1,-61.6"/>
<polygon fill="black" stroke="black" points="751.74,-344.87 741.37,-341.29 746.42,-345.35 742.11,-345.74 742.11,-345.74 742.11,-345.74 746.42,-345.35 742.18,-350.25 751.74,-344.87"/>
<text text-anchor="start" x="583.08" y="-329.8" font-family="Arial" font-size="10.00">FOREIGN KEY (sourceCurrency) REFERENCES currency (currencyId)</text>
</g>
<!-- fxQuoteConversionTerms&#45;&gt;currency -->
<g id="edge2" class="edge">
<title>fxQuoteConversionTerms:targetCurrency&#45;&gt;currency:currencyId</title>
<path fill="none" stroke="black" d="M751.6,-313.9C792.81,-303.75 748.65,-226.28 792.82,-194.8 961.86,-74.35 2448.54,-61.6 2656.1,-61.6"/>
<polygon fill="black" stroke="black" points="751.72,-313.88 741.29,-310.49 746.42,-314.46 742.11,-314.93 742.11,-314.93 742.11,-314.93 746.42,-314.46 742.26,-319.44 751.72,-313.88"/>
<text text-anchor="start" x="585.3" y="-299" font-family="Arial" font-size="10.00">FOREIGN KEY (targetCurrency) REFERENCES currency (currencyId)</text>
</g>
<!-- fxQuoteResponseConversionTerms -->
<g id="node3" class="node">
<title>fxQuoteResponseConversionTerms</title>
<polygon fill="#efefef" stroke="none" points="845.2,-469 845.2,-504.6 1542.45,-504.6 1542.45,-469 845.2,-469"/>
<polygon fill="none" stroke="black" points="845.2,-469 845.2,-504.6 1542.45,-504.6 1542.45,-469 845.2,-469"/>
<text text-anchor="start" x="1003.1" y="-482.4" font-family="Arial Bold" font-size="18.00">fxQuoteResponseConversionTerms</text>
<text text-anchor="start" x="1260.06" y="-482.4" font-family="Arial" font-size="14.00">    </text>
<text text-anchor="start" x="1291.17" y="-482.4" font-family="Arial" font-size="14.00" fill="#666666">[BASE TABLE]</text>
<polygon fill="none" stroke="black" points="845.2,-438.2 845.2,-469 1542.45,-469 1542.45,-438.2 845.2,-438.2"/>
<text text-anchor="start" x="852.2" y="-450.4" font-family="Arial" font-size="14.00">conversionId </text>
<text text-anchor="start" x="935.47" y="-450.4" font-family="Arial" font-size="14.00" fill="#666666">[varchar(255)]</text>
<polygon fill="none" stroke="black" points="845.2,-407.4 845.2,-438.2 1542.45,-438.2 1542.45,-407.4 845.2,-407.4"/>
<text text-anchor="start" x="852.2" y="-419.6" font-family="Arial" font-size="14.00">conversionRequestId </text>
<text text-anchor="start" x="987.61" y="-419.6" font-family="Arial" font-size="14.00" fill="#666666">[varchar(36)]</text>
<polygon fill="none" stroke="black" points="845.2,-376.6 845.2,-407.4 1542.45,-407.4 1542.45,-376.6 845.2,-376.6"/>
<text text-anchor="start" x="852.2" y="-388.8" font-family="Arial" font-size="14.00">fxQuoteResponseId </text>
<text text-anchor="start" x="979.83" y="-388.8" font-family="Arial" font-size="14.00" fill="#666666">[bigint unsigned]</text>
<polygon fill="none" stroke="black" points="845.2,-345.8 845.2,-376.6 1542.45,-376.6 1542.45,-345.8 845.2,-345.8"/>
<text text-anchor="start" x="852.2" y="-358" font-family="Arial" font-size="14.00">amountTypeId </text>
<text text-anchor="start" x="945.59" y="-358" font-family="Arial" font-size="14.00" fill="#666666">[int unsigned]</text>
<text text-anchor="start" x="1028.87" y="-358" font-family="Arial" font-size="14.00"> This is part of the transaction type that contains valid elements for &#45; Amount Type</text>
<polygon fill="none" stroke="black" points="845.2,-315 845.2,-345.8 1542.45,-345.8 1542.45,-315 845.2,-315"/>
<text text-anchor="start" x="852.2" y="-327.2" font-family="Arial" font-size="14.00">sourceCurrency </text>
<text text-anchor="start" x="954.9" y="-327.2" font-family="Arial" font-size="14.00" fill="#666666">[varchar(3)]</text>
<polygon fill="none" stroke="black" points="845.2,-284.2 845.2,-315 1542.45,-315 1542.45,-284.2 845.2,-284.2"/>
<text text-anchor="start" x="852.2" y="-296.4" font-family="Arial" font-size="14.00">targetCurrency </text>
<text text-anchor="start" x="948.68" y="-296.4" font-family="Arial" font-size="14.00" fill="#666666">[varchar(3)]</text>
</g>
<!-- fxQuoteResponseConversionTerms&#45;&gt;currency -->
<g id="edge3" class="edge">
<title>fxQuoteResponseConversionTerms:sourceCurrency&#45;&gt;currency:currencyId</title>
<path fill="none" stroke="black" d="M1553.8,-329.38C1600.6,-319.01 1547.24,-232.24 1594.82,-194.8 1688.22,-121.3 2537.26,-61.6 2656.1,-61.6"/>
<polygon fill="black" stroke="black" points="1553.73,-329.39 1543.34,-325.89 1548.42,-329.91 1544.11,-330.33 1544.11,-330.33 1544.11,-330.33 1548.42,-329.91 1544.22,-334.85 1553.73,-329.39"/>
<text text-anchor="start" x="1385.08" y="-314.4" font-family="Arial" font-size="10.00">FOREIGN KEY (sourceCurrency) REFERENCES currency (currencyId)</text>
</g>
<!-- fxQuoteResponseConversionTerms&#45;&gt;currency -->
<g id="edge4" class="edge">
<title>fxQuoteResponseConversionTerms:targetCurrency&#45;&gt;currency:currencyId</title>
<path fill="none" stroke="black" d="M1553.51,-298.41C1589.45,-288.76 1555.73,-222.7 1594.82,-194.8 1691.55,-125.75 2537.26,-61.6 2656.1,-61.6"/>
<polygon fill="black" stroke="black" points="1553.71,-298.39 1543.25,-295.09 1548.41,-299.02 1544.11,-299.52 1544.11,-299.52 1544.11,-299.52 1548.41,-299.02 1544.3,-304.03 1553.71,-298.39"/>
<text text-anchor="start" x="1468.87" y="-283.6" font-family="Arial" font-size="10.00">FOREIGN KEY (targetCurrency) REFERENCES currency (currencyId)</text>
</g>
<!-- fxTransfer -->
<g id="node4" class="node">
<title>fxTransfer</title>
<polygon fill="#efefef" stroke="none" points="1646.6,-422.8 1646.6,-458.4 1861.04,-458.4 1861.04,-422.8 1646.6,-422.8"/>
<polygon fill="none" stroke="black" points="1646.6,-422.8 1646.6,-458.4 1861.04,-458.4 1861.04,-422.8 1646.6,-422.8"/>
<text text-anchor="start" x="1653.6" y="-436.2" font-family="Arial Bold" font-size="18.00">fxTransfer</text>
<text text-anchor="start" x="1729.56" y="-436.2" font-family="Arial" font-size="14.00">    </text>
<text text-anchor="start" x="1760.67" y="-436.2" font-family="Arial" font-size="14.00" fill="#666666">[BASE TABLE]</text>
<polygon fill="none" stroke="black" points="1646.6,-392 1646.6,-422.8 1861.04,-422.8 1861.04,-392 1646.6,-392"/>
<text text-anchor="start" x="1653.6" y="-404.2" font-family="Arial" font-size="14.00">commitRequestId </text>
<text text-anchor="start" x="1766.42" y="-404.2" font-family="Arial" font-size="14.00" fill="#666666">[varchar(36)]</text>
<polygon fill="none" stroke="black" points="1646.6,-361.2 1646.6,-392 1861.04,-392 1861.04,-361.2 1646.6,-361.2"/>
<text text-anchor="start" x="1653.6" y="-373.4" font-family="Arial" font-size="14.00">sourceCurrency </text>
<text text-anchor="start" x="1756.3" y="-373.4" font-family="Arial" font-size="14.00" fill="#666666">[varchar(3)]</text>
<polygon fill="none" stroke="black" points="1646.6,-330.4 1646.6,-361.2 1861.04,-361.2 1861.04,-330.4 1646.6,-330.4"/>
<text text-anchor="start" x="1653.6" y="-342.6" font-family="Arial" font-size="14.00">targetCurrency </text>
<text text-anchor="start" x="1750.08" y="-342.6" font-family="Arial" font-size="14.00" fill="#666666">[varchar(3)]</text>
</g>
<!-- fxTransfer&#45;&gt;currency -->
<g id="edge5" class="edge">
<title>fxTransfer:sourceCurrency&#45;&gt;currency:currencyId</title>
<path fill="none" stroke="black" d="M1872.32,-375.86C1937.88,-365.47 1854.32,-248.63 1913.82,-194.8 2038.09,-82.36 2488.51,-61.6 2656.1,-61.6"/>
<polygon fill="black" stroke="black" points="1872.35,-375.86 1862.05,-372.09 1867.03,-376.24 1862.71,-376.55 1862.71,-376.55 1862.71,-376.55 1867.03,-376.24 1862.7,-381.06 1872.35,-375.86"/>
<text text-anchor="start" x="1869.04" y="-386.6" font-family="Arial" font-size="10.00">FOREIGN KEY (sourceCurrency) REFERENCES currency (currencyId)</text>
</g>
<!-- fxTransfer&#45;&gt;currency -->
<g id="edge6" class="edge">
<title>fxTransfer:targetCurrency&#45;&gt;currency:currencyId</title>
<path fill="none" stroke="black" d="M1872.44,-344.89C1925.38,-334.51 1862.92,-238.47 1913.82,-194.8 2041.02,-85.69 2488.51,-61.6 2656.1,-61.6"/>
<polygon fill="black" stroke="black" points="1872.34,-344.89 1861.98,-341.29 1867.03,-345.36 1862.71,-345.74 1862.71,-345.74 1862.71,-345.74 1867.03,-345.36 1862.77,-350.25 1872.34,-344.89"/>
<text text-anchor="start" x="1869.04" y="-355.8" font-family="Arial" font-size="10.00">FOREIGN KEY (targetCurrency) REFERENCES currency (currencyId)</text>
</g>
<!-- participantCurrency -->
<g id="node5" class="node">
<title>participantCurrency</title>
<polygon fill="#efefef" stroke="none" points="1965.61,-438.2 1965.61,-473.8 2248.04,-473.8 2248.04,-438.2 1965.61,-438.2"/>
<polygon fill="none" stroke="black" points="1965.61,-438.2 1965.61,-473.8 2248.04,-473.8 2248.04,-438.2 1965.61,-438.2"/>
<text text-anchor="start" x="1972.61" y="-451.6" font-family="Arial Bold" font-size="18.00">participantCurrency</text>
<text text-anchor="start" x="2116.55" y="-451.6" font-family="Arial" font-size="14.00">    </text>
<text text-anchor="start" x="2147.66" y="-451.6" font-family="Arial" font-size="14.00" fill="#666666">[BASE TABLE]</text>
<polygon fill="none" stroke="black" points="1965.61,-407.4 1965.61,-438.2 2248.04,-438.2 2248.04,-407.4 1965.61,-407.4"/>
<text text-anchor="start" x="1972.61" y="-419.6" font-family="Arial" font-size="14.00">participantCurrencyId </text>
<text text-anchor="start" x="2109.56" y="-419.6" font-family="Arial" font-size="14.00" fill="#666666">[int unsigned]</text>
<polygon fill="none" stroke="black" points="1965.61,-376.6 1965.61,-407.4 2248.04,-407.4 2248.04,-376.6 1965.61,-376.6"/>
<text text-anchor="start" x="1972.61" y="-388.8" font-family="Arial" font-size="14.00">participantId </text>
<text text-anchor="start" x="2052.77" y="-388.8" font-family="Arial" font-size="14.00" fill="#666666">[int unsigned]</text>
<polygon fill="none" stroke="black" points="1965.61,-345.8 1965.61,-376.6 2248.04,-376.6 2248.04,-345.8 1965.61,-345.8"/>
<text text-anchor="start" x="1972.61" y="-358" font-family="Arial" font-size="14.00">currencyId </text>
<text text-anchor="start" x="2041.86" y="-358" font-family="Arial" font-size="14.00" fill="#666666">[varchar(3)]</text>
<polygon fill="none" stroke="black" points="1965.61,-315 1965.61,-345.8 2248.04,-345.8 2248.04,-315 1965.61,-315"/>
<text text-anchor="start" x="1972.61" y="-327.2" font-family="Arial" font-size="14.00">ledgerAccountTypeId </text>
<text text-anchor="start" x="2108.8" y="-327.2" font-family="Arial" font-size="14.00" fill="#666666">[int unsigned]</text>
</g>
<!-- participantCurrency&#45;&gt;currency -->
<g id="edge7" class="edge">
<title>participantCurrency:currencyId&#45;&gt;currency:currencyId</title>
<path fill="none" stroke="black" d="M2259.28,-360.43C2318.91,-350.58 2249.44,-248.38 2299.82,-194.8 2415.62,-71.64 2487.05,-61.6 2656.1,-61.6"/>
<polygon fill="black" stroke="black" points="2259.34,-360.43 2249.03,-356.69 2254.02,-360.83 2249.7,-361.15 2249.7,-361.15 2249.7,-361.15 2254.02,-360.83 2249.71,-365.66 2259.34,-360.43"/>
<text text-anchor="start" x="2256.04" y="-371.2" font-family="Arial" font-size="10.00">FOREIGN KEY (currencyId) REFERENCES currency (currencyId)</text>
</g>
<!-- quote -->
<g id="node6" class="node">
<title>quote</title>
<polygon fill="#efefef" stroke="none" points="2352.02,-515.2 2352.02,-550.8 3163.63,-550.8 3163.63,-515.2 2352.02,-515.2"/>
<polygon fill="none" stroke="black" points="2352.02,-515.2 2352.02,-550.8 3163.63,-550.8 3163.63,-515.2 2352.02,-515.2"/>
<text text-anchor="start" x="2675.58" y="-528.6" font-family="Arial Bold" font-size="18.00">quote</text>
<text text-anchor="start" x="2715.57" y="-528.6" font-family="Arial" font-size="14.00">    </text>
<text text-anchor="start" x="2746.69" y="-528.6" font-family="Arial" font-size="14.00" fill="#666666">[BASE TABLE]</text>
<polygon fill="none" stroke="black" points="2352.02,-484.4 2352.02,-515.2 3163.63,-515.2 3163.63,-484.4 2352.02,-484.4"/>
<text text-anchor="start" x="2359.02" y="-496.6" font-family="Arial" font-size="14.00">quoteId </text>
<text text-anchor="start" x="2409.62" y="-496.6" font-family="Arial" font-size="14.00" fill="#666666">[varchar(36)]</text>
<polygon fill="none" stroke="black" points="2352.02,-453.6 2352.02,-484.4 3163.63,-484.4 3163.63,-453.6 2352.02,-453.6"/>
<text text-anchor="start" x="2359.02" y="-465.8" font-family="Arial" font-size="14.00">transactionReferenceId </text>
<text text-anchor="start" x="2507.66" y="-465.8" font-family="Arial" font-size="14.00" fill="#666666">[varchar(36)]</text>
<text text-anchor="start" x="2587.02" y="-465.8" font-family="Arial" font-size="14.00"> Common ID (decided by the Payer FSP) between the FSPs for the future transaction object</text>
<polygon fill="none" stroke="black" points="2352.02,-422.8 2352.02,-453.6 3163.63,-453.6 3163.63,-422.8 2352.02,-422.8"/>
<text text-anchor="start" x="2359.02" y="-435" font-family="Arial" font-size="14.00">transactionInitiatorId </text>
<text text-anchor="start" x="2488.98" y="-435" font-family="Arial" font-size="14.00" fill="#666666">[int unsigned]</text>
<text text-anchor="start" x="2572.26" y="-435" font-family="Arial" font-size="14.00"> This is part of the transaction initiator</text>
<polygon fill="none" stroke="black" points="2352.02,-392 2352.02,-422.8 3163.63,-422.8 3163.63,-392 2352.02,-392"/>
<text text-anchor="start" x="2359.02" y="-404.2" font-family="Arial" font-size="14.00">transactionInitiatorTypeId </text>
<text text-anchor="start" x="2520.1" y="-404.2" font-family="Arial" font-size="14.00" fill="#666666">[int unsigned]</text>
<text text-anchor="start" x="2603.38" y="-404.2" font-family="Arial" font-size="14.00"> This is part of the transaction initiator type</text>
<polygon fill="none" stroke="black" points="2352.02,-361.2 2352.02,-392 3163.63,-392 3163.63,-361.2 2352.02,-361.2"/>
<text text-anchor="start" x="2359.02" y="-373.4" font-family="Arial" font-size="14.00">transactionScenarioId </text>
<text text-anchor="start" x="2498.32" y="-373.4" font-family="Arial" font-size="14.00" fill="#666666">[int unsigned]</text>
<text text-anchor="start" x="2581.6" y="-373.4" font-family="Arial" font-size="14.00"> This is part of the transaction scenario</text>
<polygon fill="none" stroke="black" points="2352.02,-330.4 2352.02,-361.2 3163.63,-361.2 3163.63,-330.4 2352.02,-330.4"/>
<text text-anchor="start" x="2359.02" y="-342.6" font-family="Arial" font-size="14.00">balanceOfPaymentsId </text>
<text text-anchor="start" x="2500.65" y="-342.6" font-family="Arial" font-size="14.00" fill="#666666">[int unsigned]</text>
<text text-anchor="start" x="2583.93" y="-342.6" font-family="Arial" font-size="14.00"> This is part of the transaction type that contains the elements&#45; balance of payment</text>
<polygon fill="none" stroke="black" points="2352.02,-299.6 2352.02,-330.4 3163.63,-330.4 3163.63,-299.6 2352.02,-299.6"/>
<text text-anchor="start" x="2359.02" y="-311.8" font-family="Arial" font-size="14.00">transactionSubScenarioId </text>
<text text-anchor="start" x="2523.23" y="-311.8" font-family="Arial" font-size="14.00" fill="#666666">[int unsigned]</text>
<text text-anchor="start" x="2606.51" y="-311.8" font-family="Arial" font-size="14.00"> This is part of the transaction type sub scenario as defined by the local scheme</text>
<polygon fill="none" stroke="black" points="2352.02,-268.8 2352.02,-299.6 3163.63,-299.6 3163.63,-268.8 2352.02,-268.8"/>
<text text-anchor="start" x="2359.02" y="-281" font-family="Arial" font-size="14.00">amountTypeId </text>
<text text-anchor="start" x="2452.4" y="-281" font-family="Arial" font-size="14.00" fill="#666666">[int unsigned]</text>
<text text-anchor="start" x="2535.69" y="-281" font-family="Arial" font-size="14.00"> This is part of the transaction type that contains valid elements for &#45; Amount Type</text>
<polygon fill="none" stroke="black" points="2352.02,-238 2352.02,-268.8 3163.63,-268.8 3163.63,-238 2352.02,-238"/>
<text text-anchor="start" x="2359.02" y="-250.2" font-family="Arial" font-size="14.00">currencyId </text>
<text text-anchor="start" x="2428.27" y="-250.2" font-family="Arial" font-size="14.00" fill="#666666">[varchar(255)]</text>
<text text-anchor="start" x="2515.41" y="-250.2" font-family="Arial" font-size="14.00"> Trading currency pertaining to the Amount</text>
</g>
<!-- quote&#45;&gt;currency -->
<g id="edge8" class="edge">
<title>quote:currencyId&#45;&gt;currency:currencyId</title>
<path fill="none" stroke="black" d="M2758.79,-226.8C2767.63,-183.86 2835.03,-206.2 2858.55,-158.8 2877.74,-120.1 2902.75,-61.6 2859.55,-61.6"/>
<polygon fill="black" stroke="black" points="2758.79,-226.71 2753.37,-236.24 2758.29,-232.02 2757.89,-236.33 2757.89,-236.33 2757.89,-236.33 2758.29,-232.02 2762.33,-237.09 2758.79,-226.71"/>
<text text-anchor="start" x="2457.99" y="-247" font-family="Arial" font-size="10.00">FOREIGN KEY (currencyId) REFERENCES currency (currencyId)</text>
</g>
<!-- quoteParty -->
<g id="node7" class="node">
<title>quoteParty</title>
<polygon fill="#efefef" stroke="none" points="3267.53,-499.8 3267.53,-535.4 4002.11,-535.4 4002.11,-499.8 3267.53,-499.8"/>
<polygon fill="none" stroke="black" points="3267.53,-499.8 3267.53,-535.4 4002.11,-535.4 4002.11,-499.8 3267.53,-499.8"/>
<text text-anchor="start" x="3533.59" y="-513.2" font-family="Arial Bold" font-size="18.00">quoteParty</text>
<text text-anchor="start" x="3611.57" y="-513.2" font-family="Arial" font-size="14.00">    </text>
<text text-anchor="start" x="3642.69" y="-513.2" font-family="Arial" font-size="14.00" fill="#666666">[BASE TABLE]</text>
<polygon fill="none" stroke="black" points="3267.53,-469 3267.53,-499.8 4002.11,-499.8 4002.11,-469 3267.53,-469"/>
<text text-anchor="start" x="3274.53" y="-481.2" font-family="Arial" font-size="14.00">quotePartyId </text>
<text text-anchor="start" x="3357.81" y="-481.2" font-family="Arial" font-size="14.00" fill="#666666">[bigint unsigned]</text>
<polygon fill="none" stroke="black" points="3267.53,-438.2 3267.53,-469 4002.11,-469 4002.11,-438.2 3267.53,-438.2"/>
<text text-anchor="start" x="3274.53" y="-450.4" font-family="Arial" font-size="14.00">quoteId </text>
<text text-anchor="start" x="3325.13" y="-450.4" font-family="Arial" font-size="14.00" fill="#666666">[varchar(36)]</text>
<text text-anchor="start" x="3404.49" y="-450.4" font-family="Arial" font-size="14.00"> Common ID between the FSPs for the quote object, decided by the Payer FSP</text>
<polygon fill="none" stroke="black" points="3267.53,-407.4 3267.53,-438.2 4002.11,-438.2 4002.11,-407.4 3267.53,-407.4"/>
<text text-anchor="start" x="3274.53" y="-419.6" font-family="Arial" font-size="14.00">partyTypeId </text>
<text text-anchor="start" x="3352.34" y="-419.6" font-family="Arial" font-size="14.00" fill="#666666">[int unsigned]</text>
<text text-anchor="start" x="3435.63" y="-419.6" font-family="Arial" font-size="14.00"> Specifies the type of party this row relates to; typically PAYER or PAYEE</text>
<polygon fill="none" stroke="black" points="3267.53,-376.6 3267.53,-407.4 4002.11,-407.4 4002.11,-376.6 3267.53,-376.6"/>
<text text-anchor="start" x="3274.53" y="-388.8" font-family="Arial" font-size="14.00">partyIdentifierTypeId </text>
<text text-anchor="start" x="3406.04" y="-388.8" font-family="Arial" font-size="14.00" fill="#666666">[int unsigned]</text>
<text text-anchor="start" x="3489.32" y="-388.8" font-family="Arial" font-size="14.00"> Specifies the type of identifier used to identify this party e.g. MSISDN, IBAN etc...</text>
<polygon fill="none" stroke="black" points="3267.53,-345.8 3267.53,-376.6 4002.11,-376.6 4002.11,-345.8 3267.53,-345.8"/>
<text text-anchor="start" x="3274.53" y="-358" font-family="Arial" font-size="14.00">participantId </text>
<text text-anchor="start" x="3354.69" y="-358" font-family="Arial" font-size="14.00" fill="#666666">[int unsigned]</text>
<text text-anchor="start" x="3437.97" y="-358" font-family="Arial" font-size="14.00"> Reference to the resolved FSP ID (if supplied/known). If not an error will be reported</text>
<polygon fill="none" stroke="black" points="3267.53,-315 3267.53,-345.8 4002.11,-345.8 4002.11,-315 3267.53,-315"/>
<text text-anchor="start" x="3274.53" y="-327.2" font-family="Arial" font-size="14.00">transferParticipantRoleTypeId </text>
<text text-anchor="start" x="3463.62" y="-327.2" font-family="Arial" font-size="14.00" fill="#666666">[int unsigned]</text>
<text text-anchor="start" x="3546.9" y="-327.2" font-family="Arial" font-size="14.00"> The role this Party is playing in the transaction</text>
<polygon fill="none" stroke="black" points="3267.53,-284.2 3267.53,-315 4002.11,-315 4002.11,-284.2 3267.53,-284.2"/>
<text text-anchor="start" x="3274.53" y="-296.4" font-family="Arial" font-size="14.00">ledgerEntryTypeId </text>
<text text-anchor="start" x="3392.81" y="-296.4" font-family="Arial" font-size="14.00" fill="#666666">[int unsigned]</text>
<text text-anchor="start" x="3476.1" y="-296.4" font-family="Arial" font-size="14.00"> The type of financial entry this Party is presenting</text>
<polygon fill="none" stroke="black" points="3267.53,-253.4 3267.53,-284.2 4002.11,-284.2 4002.11,-253.4 3267.53,-253.4"/>
<text text-anchor="start" x="3274.53" y="-265.6" font-family="Arial" font-size="14.00">currencyId </text>
<text text-anchor="start" x="3343.78" y="-265.6" font-family="Arial" font-size="14.00" fill="#666666">[varchar(3)]</text>
<text text-anchor="start" x="3415.35" y="-265.6" font-family="Arial" font-size="14.00"> Trading currency pertaining to the party amount</text>
</g>
<!-- quoteParty&#45;&gt;currency -->
<g id="edge9" class="edge">
<title>quoteParty:currencyId&#45;&gt;currency:currencyId</title>
<path fill="none" stroke="black" d="M3256.47,-267.45C3230.18,-259.38 3244.16,-216.97 3215.82,-194.8 3082.68,-90.63 3028.6,-61.6 2859.55,-61.6"/>
<polygon fill="black" stroke="black" points="3256.29,-267.43 3265.6,-273.22 3261.58,-268.14 3265.87,-268.71 3265.87,-268.71 3265.87,-268.71 3261.58,-268.14 3266.8,-264.3 3256.29,-267.43"/>
<text text-anchor="start" x="2966.69" y="-278.8" font-family="Arial" font-size="10.00">FOREIGN KEY (currencyId) REFERENCES currency (currencyId)</text>
</g>
<!-- quoteResponse -->
<g id="node8" class="node">
<title>quoteResponse</title>
<polygon fill="#efefef" stroke="none" points="4106.32,-448.4 4106.32,-494.4 4741.32,-494.4 4741.32,-448.4 4106.32,-448.4"/>
<polygon fill="none" stroke="black" points="4106.32,-448.4 4106.32,-494.4 4741.32,-494.4 4741.32,-448.4 4106.32,-448.4"/>
<text text-anchor="start" x="4307.09" y="-472.2" font-family="Arial Bold" font-size="18.00">quoteResponse</text>
<text text-anchor="start" x="4416.07" y="-472.2" font-family="Arial" font-size="14.00">    </text>
<text text-anchor="start" x="4447.19" y="-472.2" font-family="Arial" font-size="14.00" fill="#666666">[BASE TABLE]</text>
<text text-anchor="start" x="4268.2" y="-457.8" font-family="Arial" font-size="14.00" fill="#333333">This table is the primary store for quote responses</text>
<polygon fill="none" stroke="black" points="4106.32,-417.6 4106.32,-448.4 4741.32,-448.4 4741.32,-417.6 4106.32,-417.6"/>
<text text-anchor="start" x="4113.32" y="-429.8" font-family="Arial" font-size="14.00">quoteResponseId </text>
<text text-anchor="start" x="4226.96" y="-429.8" font-family="Arial" font-size="14.00" fill="#666666">[bigint unsigned]</text>
<polygon fill="none" stroke="black" points="4106.32,-386.8 4106.32,-417.6 4741.32,-417.6 4741.32,-386.8 4106.32,-386.8"/>
<text text-anchor="start" x="4113.32" y="-399" font-family="Arial" font-size="14.00">quoteId </text>
<text text-anchor="start" x="4163.92" y="-399" font-family="Arial" font-size="14.00" fill="#666666">[varchar(36)]</text>
<text text-anchor="start" x="4243.28" y="-399" font-family="Arial" font-size="14.00"> Common ID between the FSPs for the quote object, decided by the Payer FSP</text>
<polygon fill="none" stroke="black" points="4106.32,-356 4106.32,-386.8 4741.32,-386.8 4741.32,-356 4106.32,-356"/>
<text text-anchor="start" x="4113.32" y="-368.2" font-family="Arial" font-size="14.00">transferAmountCurrencyId </text>
<text text-anchor="start" x="4281.39" y="-368.2" font-family="Arial" font-size="14.00" fill="#666666">[varchar(3)]</text>
<text text-anchor="start" x="4352.96" y="-368.2" font-family="Arial" font-size="14.00"> CurrencyId of the transfer amount</text>
<polygon fill="none" stroke="black" points="4106.32,-325.2 4106.32,-356 4741.32,-356 4741.32,-325.2 4106.32,-325.2"/>
<text text-anchor="start" x="4113.32" y="-337.4" font-family="Arial" font-size="14.00">payeeReceiveAmountCurrencyId </text>
<text text-anchor="start" x="4322.65" y="-337.4" font-family="Arial" font-size="14.00" fill="#666666">[varchar(3)]</text>
<text text-anchor="start" x="4394.23" y="-337.4" font-family="Arial" font-size="14.00"> CurrencyId of the payee receive amount</text>
<polygon fill="none" stroke="black" points="4106.32,-294.4 4106.32,-325.2 4741.32,-325.2 4741.32,-294.4 4106.32,-294.4"/>
<text text-anchor="start" x="4113.32" y="-306.6" font-family="Arial" font-size="14.00">payeeFspCommissionCurrencyId </text>
<text text-anchor="start" x="4324.18" y="-306.6" font-family="Arial" font-size="14.00" fill="#666666">[varchar(3)]</text>
<text text-anchor="start" x="4395.75" y="-306.6" font-family="Arial" font-size="14.00"> CurrencyId of the payee fsp commission amount</text>
</g>
<!-- quoteResponse&#45;&gt;currency -->
<g id="edge10" class="edge">
<title>quoteResponse:payeeFspCommissionCurrencyId&#45;&gt;currency:currencyId</title>
<path fill="none" stroke="black" d="M4095.01,-308.63C4055.85,-298.51 4095.88,-225.49 4053.82,-194.8 3945.97,-116.09 2993.07,-61.6 2859.55,-61.6"/>
<polygon fill="black" stroke="black" points="4095.06,-308.63 4104.48,-314.23 4100.36,-309.24 4104.66,-309.72 4104.66,-309.72 4104.66,-309.72 4100.36,-309.24 4105.5,-305.29 4095.06,-308.63"/>
<text text-anchor="start" x="3704.34" y="-319.8" font-family="Arial" font-size="10.00">FOREIGN KEY (payeeFspCommissionCurrencyId) REFERENCES currency (currencyId)</text>
</g>
<!-- quoteResponse&#45;&gt;currency -->
<g id="edge11" class="edge">
<title>quoteResponse:payeeReceiveAmountCurrencyId&#45;&gt;currency:currencyId</title>
<path fill="none" stroke="black" d="M4094.94,-339.64C4044.25,-329.12 4104.59,-235.12 4053.82,-194.8 3949.26,-111.76 2993.07,-61.6 2859.55,-61.6"/>
<polygon fill="black" stroke="black" points="4095.03,-339.65 4104.58,-345.05 4100.35,-340.14 4104.66,-340.54 4104.66,-340.54 4104.66,-340.54 4100.35,-340.14 4105.41,-336.09 4095.03,-339.65"/>
<text text-anchor="start" x="3705.43" y="-350.6" font-family="Arial" font-size="10.00">FOREIGN KEY (payeeReceiveAmountCurrencyId) REFERENCES currency (currencyId)</text>
</g>
<!-- quoteResponse&#45;&gt;currency -->
<g id="edge12" class="edge">
<title>quoteResponse:transferAmountCurrencyId&#45;&gt;currency:currencyId</title>
<path fill="none" stroke="black" d="M4094.94,-370.6C4031.93,-359.93 4113.47,-244.94 4053.82,-194.8 3951.62,-108.88 2993.07,-61.6 2859.55,-61.6"/>
<polygon fill="black" stroke="black" points="4095.02,-370.61 4104.65,-375.86 4100.34,-371.02 4104.66,-371.35 4104.66,-371.35 4104.66,-371.35 4100.34,-371.02 4105.34,-366.89 4095.02,-370.61"/>
<text text-anchor="start" x="3734.9" y="-381.4" font-family="Arial" font-size="10.00">FOREIGN KEY (transferAmountCurrencyId) REFERENCES currency (currencyId)</text>
</g>
<!-- settlementModel -->
<g id="node9" class="node">
<title>settlementModel</title>
<polygon fill="#efefef" stroke="none" points="4846.09,-469 4846.09,-504.6 5105.55,-504.6 5105.55,-469 4846.09,-469"/>
<polygon fill="none" stroke="black" points="4846.09,-469 4846.09,-504.6 5105.55,-504.6 5105.55,-469 4846.09,-469"/>
<text text-anchor="start" x="4853.09" y="-482.4" font-family="Arial Bold" font-size="18.00">settlementModel</text>
<text text-anchor="start" x="4974.06" y="-482.4" font-family="Arial" font-size="14.00">    </text>
<text text-anchor="start" x="5005.18" y="-482.4" font-family="Arial" font-size="14.00" fill="#666666">[BASE TABLE]</text>
<polygon fill="none" stroke="black" points="4846.09,-438.2 4846.09,-469 5105.55,-469 5105.55,-438.2 4846.09,-438.2"/>
<text text-anchor="start" x="4853.09" y="-450.4" font-family="Arial" font-size="14.00">settlementModelId </text>
<text text-anchor="start" x="4971.37" y="-450.4" font-family="Arial" font-size="14.00" fill="#666666">[int unsigned]</text>
<polygon fill="none" stroke="black" points="4846.09,-407.4 4846.09,-438.2 5105.55,-438.2 5105.55,-407.4 4846.09,-407.4"/>
<text text-anchor="start" x="4853.09" y="-419.6" font-family="Arial" font-size="14.00">settlementGranularityId </text>
<text text-anchor="start" x="5001.71" y="-419.6" font-family="Arial" font-size="14.00" fill="#666666">[int unsigned]</text>
<polygon fill="none" stroke="black" points="4846.09,-376.6 4846.09,-407.4 5105.55,-407.4 5105.55,-376.6 4846.09,-376.6"/>
<text text-anchor="start" x="4853.09" y="-388.8" font-family="Arial" font-size="14.00">settlementInterchangeId </text>
<text text-anchor="start" x="5007.19" y="-388.8" font-family="Arial" font-size="14.00" fill="#666666">[int unsigned]</text>
<polygon fill="none" stroke="black" points="4846.09,-345.8 4846.09,-376.6 5105.55,-376.6 5105.55,-345.8 4846.09,-345.8"/>
<text text-anchor="start" x="4853.09" y="-358" font-family="Arial" font-size="14.00">settlementDelayId </text>
<text text-anchor="start" x="4969.04" y="-358" font-family="Arial" font-size="14.00" fill="#666666">[int unsigned]</text>
<polygon fill="none" stroke="black" points="4846.09,-315 4846.09,-345.8 5105.55,-345.8 5105.55,-315 4846.09,-315"/>
<text text-anchor="start" x="4853.09" y="-327.2" font-family="Arial" font-size="14.00">currencyId </text>
<text text-anchor="start" x="4922.34" y="-327.2" font-family="Arial" font-size="14.00" fill="#666666">[varchar(3)]</text>
<polygon fill="none" stroke="black" points="4846.09,-284.2 4846.09,-315 5105.55,-315 5105.55,-284.2 4846.09,-284.2"/>
<text text-anchor="start" x="4853.09" y="-296.4" font-family="Arial" font-size="14.00">ledgerAccountTypeId </text>
<text text-anchor="start" x="4989.28" y="-296.4" font-family="Arial" font-size="14.00" fill="#666666">[int unsigned]</text>
</g>
<!-- settlementModel&#45;&gt;currency -->
<g id="edge13" class="edge">
<title>settlementModel:currencyId&#45;&gt;currency:currencyId</title>
<path fill="none" stroke="black" d="M4834.76,-329.37C4788.09,-318.85 4842.41,-230.9 4793.82,-194.8 4620.9,-66.31 3074.97,-61.6 2859.55,-61.6"/>
<polygon fill="black" stroke="black" points="4834.81,-329.37 4844.31,-334.84 4840.12,-329.9 4844.43,-330.33 4844.43,-330.33 4844.43,-330.33 4840.12,-329.9 4845.21,-325.89 4834.81,-329.37"/>
<text text-anchor="start" x="4621.96" y="-314.4" font-family="Arial" font-size="10.00">FOREIGN KEY (currencyId) REFERENCES currency (currencyId)</text>
</g>
<!-- settlementWindowContent -->
<g id="node10" class="node">
<title>settlementWindowContent</title>
<polygon fill="#efefef" stroke="none" points="5210.1,-484.4 5210.1,-520 5541.55,-520 5541.55,-484.4 5210.1,-484.4"/>
<polygon fill="none" stroke="black" points="5210.1,-484.4 5210.1,-520 5541.55,-520 5541.55,-484.4 5210.1,-484.4"/>
<text text-anchor="start" x="5217.1" y="-497.8" font-family="Arial Bold" font-size="18.00">settlementWindowContent</text>
<text text-anchor="start" x="5410.06" y="-497.8" font-family="Arial" font-size="14.00">    </text>
<text text-anchor="start" x="5441.18" y="-497.8" font-family="Arial" font-size="14.00" fill="#666666">[BASE TABLE]</text>
<polygon fill="none" stroke="black" points="5210.1,-453.6 5210.1,-484.4 5541.55,-484.4 5541.55,-453.6 5210.1,-453.6"/>
<text text-anchor="start" x="5217.1" y="-465.8" font-family="Arial" font-size="14.00">settlementWindowContentId </text>
<text text-anchor="start" x="5396.07" y="-465.8" font-family="Arial" font-size="14.00" fill="#666666">[bigint unsigned]</text>
<polygon fill="none" stroke="black" points="5210.1,-422.8 5210.1,-453.6 5541.55,-453.6 5541.55,-422.8 5210.1,-422.8"/>
<text text-anchor="start" x="5217.1" y="-435" font-family="Arial" font-size="14.00">settlementWindowId </text>
<text text-anchor="start" x="5347.04" y="-435" font-family="Arial" font-size="14.00" fill="#666666">[bigint unsigned]</text>
<polygon fill="none" stroke="black" points="5210.1,-392 5210.1,-422.8 5541.55,-422.8 5541.55,-392 5210.1,-392"/>
<text text-anchor="start" x="5217.1" y="-404.2" font-family="Arial" font-size="14.00">ledgerAccountTypeId </text>
<text text-anchor="start" x="5353.29" y="-404.2" font-family="Arial" font-size="14.00" fill="#666666">[int unsigned]</text>
<polygon fill="none" stroke="black" points="5210.1,-361.2 5210.1,-392 5541.55,-392 5541.55,-361.2 5210.1,-361.2"/>
<text text-anchor="start" x="5217.1" y="-373.4" font-family="Arial" font-size="14.00">currencyId </text>
<text text-anchor="start" x="5286.34" y="-373.4" font-family="Arial" font-size="14.00" fill="#666666">[varchar(3)]</text>
<polygon fill="none" stroke="black" points="5210.1,-330.4 5210.1,-361.2 5541.55,-361.2 5541.55,-330.4 5210.1,-330.4"/>
<text text-anchor="start" x="5217.1" y="-342.6" font-family="Arial" font-size="14.00">currentStateChangeId </text>
<text text-anchor="start" x="5357.96" y="-342.6" font-family="Arial" font-size="14.00" fill="#666666">[bigint unsigned]</text>
<polygon fill="none" stroke="black" points="5210.1,-299.6 5210.1,-330.4 5541.55,-330.4 5541.55,-299.6 5210.1,-299.6"/>
<text text-anchor="start" x="5217.1" y="-311.8" font-family="Arial" font-size="14.00">settlementId </text>
<text text-anchor="start" x="5297.25" y="-311.8" font-family="Arial" font-size="14.00" fill="#666666">[bigint unsigned]</text>
<polygon fill="none" stroke="black" points="5210.1,-268.8 5210.1,-299.6 5541.55,-299.6 5541.55,-268.8 5210.1,-268.8"/>
<text text-anchor="start" x="5217.1" y="-281" font-family="Arial" font-size="14.00">SettlementModelId </text>
<text text-anchor="start" x="5337.72" y="-281" font-family="Arial" font-size="14.00" fill="#666666">[int unsigned]</text>
</g>
<!-- settlementWindowContent&#45;&gt;currency -->
<g id="edge14" class="edge">
<title>settlementWindowContent:currencyId&#45;&gt;currency:currencyId</title>
<path fill="none" stroke="black" d="M5198.85,-375.84C5133.63,-365.15 5220.33,-245.02 5157.82,-194.8 5058.12,-114.69 2987.44,-61.6 2859.55,-61.6"/>
<polygon fill="black" stroke="black" points="5198.79,-375.83 5208.43,-381.06 5204.11,-376.23 5208.43,-376.55 5208.43,-376.55 5208.43,-376.55 5204.11,-376.23 5209.1,-372.09 5198.79,-375.83"/>
<text text-anchor="start" x="4985.97" y="-360.6" font-family="Arial" font-size="10.00">FOREIGN KEY (currencyId) REFERENCES currency (currencyId)</text>
</g>
<!-- transfer -->
<g id="node11" class="node">
<title>transfer</title>
<polygon fill="#efefef" stroke="none" points="5646.09,-407.4 5646.09,-443 5839.55,-443 5839.55,-407.4 5646.09,-407.4"/>
<polygon fill="none" stroke="black" points="5646.09,-407.4 5646.09,-443 5839.55,-443 5839.55,-407.4 5646.09,-407.4"/>
<text text-anchor="start" x="5653.09" y="-420.8" font-family="Arial Bold" font-size="18.00">transfer</text>
<text text-anchor="start" x="5708.06" y="-420.8" font-family="Arial" font-size="14.00">    </text>
<text text-anchor="start" x="5739.18" y="-420.8" font-family="Arial" font-size="14.00" fill="#666666">[BASE TABLE]</text>
<polygon fill="none" stroke="black" points="5646.09,-376.6 5646.09,-407.4 5839.55,-407.4 5839.55,-376.6 5646.09,-376.6"/>
<text text-anchor="start" x="5653.09" y="-388.8" font-family="Arial" font-size="14.00">transferId </text>
<text text-anchor="start" x="5716.12" y="-388.8" font-family="Arial" font-size="14.00" fill="#666666">[varchar(36)]</text>
<polygon fill="none" stroke="black" points="5646.09,-345.8 5646.09,-376.6 5839.55,-376.6 5839.55,-345.8 5646.09,-345.8"/>
<text text-anchor="start" x="5653.09" y="-358" font-family="Arial" font-size="14.00">currencyId </text>
<text text-anchor="start" x="5722.34" y="-358" font-family="Arial" font-size="14.00" fill="#666666">[varchar(3)]</text>
</g>
<!-- transfer&#45;&gt;currency -->
<g id="edge15" class="edge">
<title>transfer:currencyId&#45;&gt;currency:currencyId</title>
<path fill="none" stroke="black" d="M5634.9,-360.37C5575.87,-349.76 5651.96,-239.95 5593.82,-194.8 5473.7,-101.52 3011.63,-61.6 2859.55,-61.6"/>
<polygon fill="black" stroke="black" points="5634.79,-360.36 5644.4,-365.66 5640.11,-360.79 5644.43,-361.15 5644.43,-361.15 5644.43,-361.15 5640.11,-360.79 5645.13,-356.69 5634.79,-360.36"/>
<text text-anchor="start" x="5652.09" y="-371.2" font-family="Arial" font-size="10.00">FOREIGN KEY (currencyId) REFERENCES currency (currencyId)</text>
</g>
</g>
</svg>
