<?xml version="1.0" encoding="UTF-8" standalone="no"?>
<!DOCTYPE svg PUBLIC "-//W3C//DTD SVG 1.1//EN"
 "http://www.w3.org/Graphics/SVG/1.1/DTD/svg11.dtd">
<!-- Generated by graphviz version 12.1.2 (20240928.0832)
 -->
<!-- Title: endpointType Pages: 1 -->
<svg width="707pt" height="664pt"
 viewBox="0.00 0.00 707.26 663.60" xmlns="http://www.w3.org/2000/svg" xmlns:xlink="http://www.w3.org/1999/xlink">
<g id="graph0" class="graph" transform="scale(1 1) rotate(0) translate(4 659.6)">
<title>endpointType</title>
<polygon fill="white" stroke="none" points="-4,4 -4,-659.6 703.26,-659.6 703.26,4 -4,4"/>
<!-- endpointType -->
<g id="node1" class="node">
<title>endpointType</title>
<polygon fill="#efefef" stroke="none" points="64.69,-200.2 64.69,-235.8 303.16,-235.8 303.16,-200.2 64.69,-200.2"/>
<polygon fill="none" stroke="black" points="64.69,-200.2 64.69,-235.8 303.16,-235.8 303.16,-200.2 64.69,-200.2"/>
<text text-anchor="start" x="71.69" y="-213.6" font-family="Arial Bold" font-size="18.00">endpointType</text>
<text text-anchor="start" x="171.67" y="-213.6" font-family="Arial" font-size="14.00">    </text>
<text text-anchor="start" x="202.79" y="-213.6" font-family="Arial" font-size="14.00" fill="#666666">[BASE TABLE]</text>
<polygon fill="none" stroke="black" points="64.69,-169.4 64.69,-200.2 303.16,-200.2 303.16,-169.4 64.69,-169.4"/>
<text text-anchor="start" x="71.69" y="-181.6" font-family="Arial" font-size="14.00">endpointTypeId </text>
<text text-anchor="start" x="172.1" y="-181.6" font-family="Arial" font-size="14.00" fill="#666666">[int unsigned]</text>
<polygon fill="none" stroke="black" points="64.69,-138.6 64.69,-169.4 303.16,-169.4 303.16,-138.6 64.69,-138.6"/>
<text text-anchor="start" x="71.69" y="-150.8" font-family="Arial" font-size="14.00">name </text>
<text text-anchor="start" x="110.6" y="-150.8" font-family="Arial" font-size="14.00" fill="#666666">[varchar(50)]</text>
<polygon fill="none" stroke="black" points="64.69,-107.8 64.69,-138.6 303.16,-138.6 303.16,-107.8 64.69,-107.8"/>
<text text-anchor="start" x="71.69" y="-120" font-family="Arial" font-size="14.00">description </text>
<text text-anchor="start" x="143.29" y="-120" font-family="Arial" font-size="14.00" fill="#666666">[varchar(512)]</text>
<polygon fill="none" stroke="black" points="64.69,-77 64.69,-107.8 303.16,-107.8 303.16,-77 64.69,-77"/>
<text text-anchor="start" x="71.69" y="-89.2" font-family="Arial" font-size="14.00">isActive </text>
<text text-anchor="start" x="123.82" y="-89.2" font-family="Arial" font-size="14.00" fill="#666666">[tinyint(1)]</text>
<polygon fill="none" stroke="black" points="64.69,-46.2 64.69,-77 303.16,-77 303.16,-46.2 64.69,-46.2"/>
<text text-anchor="start" x="71.69" y="-58.4" font-family="Arial" font-size="14.00">createdDate </text>
<text text-anchor="start" x="151.85" y="-58.4" font-family="Arial" font-size="14.00" fill="#666666">[datetime]</text>
<polygon fill="none" stroke="black" stroke-width="3" points="63.19,-44.7 63.19,-237.3 304.66,-237.3 304.66,-44.7 63.19,-44.7"/>
</g>
<!-- participantEndpoint -->
<g id="node2" class="node">
<title>participantEndpoint</title>
<polygon fill="#efefef" stroke="none" points="43.2,-576.8 43.2,-612.4 324.65,-612.4 324.65,-576.8 43.2,-576.8"/>
<polygon fill="none" stroke="black" points="43.2,-576.8 43.2,-612.4 324.65,-612.4 324.65,-576.8 43.2,-576.8"/>
<text text-anchor="start" x="50.2" y="-590.2" font-family="Arial Bold" font-size="18.00">participantEndpoint</text>
<text text-anchor="start" x="193.16" y="-590.2" font-family="Arial" font-size="14.00">    </text>
<text text-anchor="start" x="224.28" y="-590.2" font-family="Arial" font-size="14.00" fill="#666666">[BASE TABLE]</text>
<polygon fill="none" stroke="black" points="43.2,-546 43.2,-576.8 324.65,-576.8 324.65,-546 43.2,-546"/>
<text text-anchor="start" x="50.2" y="-558.2" font-family="Arial" font-size="14.00">participantEndpointId </text>
<text text-anchor="start" x="185.63" y="-558.2" font-family="Arial" font-size="14.00" fill="#666666">[int unsigned]</text>
<polygon fill="none" stroke="black" points="43.2,-515.2 43.2,-546 324.65,-546 324.65,-515.2 43.2,-515.2"/>
<text text-anchor="start" x="50.2" y="-527.4" font-family="Arial" font-size="14.00">participantId </text>
<text text-anchor="start" x="130.36" y="-527.4" font-family="Arial" font-size="14.00" fill="#666666">[int unsigned]</text>
<polygon fill="none" stroke="black" points="43.2,-484.4 43.2,-515.2 324.65,-515.2 324.65,-484.4 43.2,-484.4"/>
<text text-anchor="start" x="50.2" y="-496.6" font-family="Arial" font-size="14.00">endpointTypeId </text>
<text text-anchor="start" x="150.61" y="-496.6" font-family="Arial" font-size="14.00" fill="#666666">[int unsigned]</text>
<polygon fill="none" stroke="black" points="43.2,-453.6 43.2,-484.4 324.65,-484.4 324.65,-453.6 43.2,-453.6"/>
<text text-anchor="start" x="50.2" y="-465.8" font-family="Arial" font-size="14.00">value </text>
<text text-anchor="start" x="87.56" y="-465.8" font-family="Arial" font-size="14.00" fill="#666666">[varchar(512)]</text>
<polygon fill="none" stroke="black" points="43.2,-422.8 43.2,-453.6 324.65,-453.6 324.65,-422.8 43.2,-422.8"/>
<text text-anchor="start" x="50.2" y="-435" font-family="Arial" font-size="14.00">isActive </text>
<text text-anchor="start" x="102.32" y="-435" font-family="Arial" font-size="14.00" fill="#666666">[tinyint(1)]</text>
<polygon fill="none" stroke="black" points="43.2,-392 43.2,-422.8 324.65,-422.8 324.65,-392 43.2,-392"/>
<text text-anchor="start" x="50.2" y="-404.2" font-family="Arial" font-size="14.00">createdDate </text>
<text text-anchor="start" x="130.36" y="-404.2" font-family="Arial" font-size="14.00" fill="#666666">[datetime]</text>
<polygon fill="none" stroke="black" points="43.2,-361.2 43.2,-392 324.65,-392 324.65,-361.2 43.2,-361.2"/>
<text text-anchor="start" x="50.2" y="-373.4" font-family="Arial" font-size="14.00">createdBy </text>
<text text-anchor="start" x="117.12" y="-373.4" font-family="Arial" font-size="14.00" fill="#666666">[varchar(128)]</text>
</g>
<!-- participantEndpoint&#45;&gt;endpointType -->
<g id="edge1" class="edge">
<title>participantEndpoint:endpointTypeId&#45;&gt;endpointType:endpointTypeId</title>
<path fill="none" stroke="black" d="M335.64,-497.45C393.51,-468.62 370.76,-184.8 304.16,-184.8"/>
<polygon fill="black" stroke="black" points="335.71,-497.43 324.94,-495.34 330.52,-498.65 326.3,-499.65 326.3,-499.65 326.3,-499.65 330.52,-498.65 327.01,-504.1 335.71,-497.43"/>
<text text-anchor="start" x="332.65" y="-509.8" font-family="Arial" font-size="10.00">FOREIGN KEY (endpointTypeId) REFERENCES endpointType (endpointTypeId)</text>
</g>
</g>
</svg>
