<?xml version="1.0" encoding="UTF-8" standalone="no"?>
<!DOCTYPE svg PUBLIC "-//W3C//DTD SVG 1.1//EN"
 "http://www.w3.org/Graphics/SVG/1.1/DTD/svg11.dtd">
<!-- Generated by graphviz version 12.1.2 (20240928.0832)
 -->
<!-- Title: endpointType Pages: 1 -->
<svg width="571pt" height="419pt"
 viewBox="0.00 0.00 570.57 419.36" xmlns="http://www.w3.org/2000/svg" xmlns:xlink="http://www.w3.org/1999/xlink">
<g id="graph0" class="graph" transform="scale(1 1) rotate(0) translate(4 415.36)">
<title>endpointType</title>
<polygon fill="white" stroke="none" points="-4,4 -4,-415.36 566.57,-415.36 566.57,4 -4,4"/>
<!-- endpointType -->
<g id="node1" class="node">
<title>endpointType</title>
<polygon fill="#efefef" stroke="none" points="254.37,-79.16 254.37,-114.76 492.84,-114.76 492.84,-79.16 254.37,-79.16"/>
<polygon fill="none" stroke="black" points="254.37,-79.16 254.37,-114.76 492.84,-114.76 492.84,-79.16 254.37,-79.16"/>
<text text-anchor="start" x="261.37" y="-92.56" font-family="Arial Bold" font-size="18.00">endpointType</text>
<text text-anchor="start" x="361.35" y="-92.56" font-family="Arial" font-size="14.00">    </text>
<text text-anchor="start" x="392.46" y="-92.56" font-family="Arial" font-size="14.00" fill="#666666">[BASE TABLE]</text>
<polygon fill="none" stroke="black" points="254.37,-48.36 254.37,-79.16 492.84,-79.16 492.84,-48.36 254.37,-48.36"/>
<text text-anchor="start" x="261.37" y="-60.56" font-family="Arial" font-size="14.00">endpointTypeId </text>
<text text-anchor="start" x="361.78" y="-60.56" font-family="Arial" font-size="14.00" fill="#666666">[int unsigned]</text>
<polygon fill="none" stroke="black" stroke-width="3" points="252.87,-46.86 252.87,-116.26 494.34,-116.26 494.34,-46.86 252.87,-46.86"/>
</g>
<!-- participantEndpoint -->
<g id="node2" class="node">
<title>participantEndpoint</title>
<polygon fill="#efefef" stroke="none" points="232.88,-332.56 232.88,-368.16 514.33,-368.16 514.33,-332.56 232.88,-332.56"/>
<polygon fill="none" stroke="black" points="232.88,-332.56 232.88,-368.16 514.33,-368.16 514.33,-332.56 232.88,-332.56"/>
<text text-anchor="start" x="239.88" y="-345.96" font-family="Arial Bold" font-size="18.00">participantEndpoint</text>
<text text-anchor="start" x="382.84" y="-345.96" font-family="Arial" font-size="14.00">    </text>
<text text-anchor="start" x="413.96" y="-345.96" font-family="Arial" font-size="14.00" fill="#666666">[BASE TABLE]</text>
<polygon fill="none" stroke="black" points="232.88,-301.76 232.88,-332.56 514.33,-332.56 514.33,-301.76 232.88,-301.76"/>
<text text-anchor="start" x="239.88" y="-313.96" font-family="Arial" font-size="14.00">participantEndpointId </text>
<text text-anchor="start" x="375.31" y="-313.96" font-family="Arial" font-size="14.00" fill="#666666">[int unsigned]</text>
<polygon fill="none" stroke="black" points="232.88,-270.96 232.88,-301.76 514.33,-301.76 514.33,-270.96 232.88,-270.96"/>
<text text-anchor="start" x="239.88" y="-283.16" font-family="Arial" font-size="14.00">participantId </text>
<text text-anchor="start" x="320.04" y="-283.16" font-family="Arial" font-size="14.00" fill="#666666">[int unsigned]</text>
<polygon fill="none" stroke="black" points="232.88,-240.16 232.88,-270.96 514.33,-270.96 514.33,-240.16 232.88,-240.16"/>
<text text-anchor="start" x="239.88" y="-252.36" font-family="Arial" font-size="14.00">endpointTypeId </text>
<text text-anchor="start" x="340.28" y="-252.36" font-family="Arial" font-size="14.00" fill="#666666">[int unsigned]</text>
</g>
<!-- participantEndpoint&#45;&gt;endpointType -->
<g id="edge1" class="edge">
<title>participantEndpoint:endpointTypeId&#45;&gt;endpointType:endpointTypeId</title>
<path fill="none" stroke="black" d="M374.32,-229.1C384.4,-164 497.48,-226.58 539.04,-160.96 565.82,-118.68 574.32,-83.85 539.04,-48.36 487.2,3.79 373.6,26.17 373.6,-47.36"/>
<polygon fill="black" stroke="black" points="374.34,-228.85 369.14,-238.5 373.96,-234.17 373.65,-238.49 373.65,-238.49 373.65,-238.49 373.96,-234.17 378.12,-239.15 374.34,-228.85"/>
<text text-anchor="start" x="7" y="-249.16" font-family="Arial" font-size="10.00">FOREIGN KEY (endpointTypeId) REFERENCES endpointType (endpointTypeId)</text>
</g>
</g>
</svg>
