<?xml version="1.0" encoding="UTF-8" standalone="no"?>
<!DOCTYPE svg PUBLIC "-//W3C//DTD SVG 1.1//EN"
 "http://www.w3.org/Graphics/SVG/1.1/DTD/svg11.dtd">
<!-- Generated by graphviz version 12.1.2 (20240928.0832)
 -->
<!-- Title: event Pages: 1 -->
<svg width="278pt" height="167pt"
 viewBox="0.00 0.00 277.87 166.80" xmlns="http://www.w3.org/2000/svg" xmlns:xlink="http://www.w3.org/1999/xlink">
<g id="graph0" class="graph" transform="scale(1 1) rotate(0) translate(4 162.8)">
<title>event</title>
<polygon fill="white" stroke="none" points="-4,4 -4,-162.8 273.87,-162.8 273.87,4 -4,4"/>
<!-- event -->
<g id="node1" class="node">
<title>event</title>
<polygon fill="#efefef" stroke="none" points="46.2,-77 46.2,-112.6 223.67,-112.6 223.67,-77 46.2,-77"/>
<polygon fill="none" stroke="black" points="46.2,-77 46.2,-112.6 223.67,-112.6 223.67,-77 46.2,-77"/>
<text text-anchor="start" x="53.2" y="-90.4" font-family="Arial Bold" font-size="18.00">event</text>
<text text-anchor="start" x="92.18" y="-90.4" font-family="Arial" font-size="14.00">    </text>
<text text-anchor="start" x="123.3" y="-90.4" font-family="Arial" font-size="14.00" fill="#666666">[BASE TABLE]</text>
<polygon fill="none" stroke="black" points="46.2,-46.2 46.2,-77 223.67,-77 223.67,-46.2 46.2,-46.2"/>
<text text-anchor="start" x="53.2" y="-58.4" font-family="Arial" font-size="14.00">eventId </text>
<text text-anchor="start" x="103.01" y="-58.4" font-family="Arial" font-size="14.00" fill="#666666">[int unsigned]</text>
<polygon fill="none" stroke="black" stroke-width="3" points="44.7,-44.7 44.7,-114.1 225.17,-114.1 225.17,-44.7 44.7,-44.7"/>
</g>
</g>
</svg>
