<?xml version="1.0" encoding="UTF-8" standalone="no"?>
<!DOCTYPE svg PUBLIC "-//W3C//DTD SVG 1.1//EN"
 "http://www.w3.org/Graphics/SVG/1.1/DTD/svg11.dtd">
<!-- Generated by graphviz version 12.1.2 (20240928.0832)
 -->
<!-- Title: expiringTransfer Pages: 1 -->
<svg width="477pt" height="417pt"
 viewBox="0.00 0.00 477.42 417.20" xmlns="http://www.w3.org/2000/svg" xmlns:xlink="http://www.w3.org/1999/xlink">
<g id="graph0" class="graph" transform="scale(1 1) rotate(0) translate(4 413.2)">
<title>expiringTransfer</title>
<polygon fill="white" stroke="none" points="-4,4 -4,-413.2 473.42,-413.2 473.42,4 -4,4"/>
<!-- expiringTransfer -->
<g id="node1" class="node">
<title>expiringTransfer</title>
<polygon fill="#efefef" stroke="none" points="163.79,-327.4 163.79,-363 423.22,-363 423.22,-327.4 163.79,-327.4"/>
<polygon fill="none" stroke="black" points="163.79,-327.4 163.79,-363 423.22,-363 423.22,-327.4 163.79,-327.4"/>
<text text-anchor="start" x="170.79" y="-340.8" font-family="Arial Bold" font-size="18.00">expiringTransfer</text>
<text text-anchor="start" x="291.74" y="-340.8" font-family="Arial" font-size="14.00">    </text>
<text text-anchor="start" x="322.85" y="-340.8" font-family="Arial" font-size="14.00" fill="#666666">[BASE TABLE]</text>
<polygon fill="none" stroke="black" points="163.79,-296.6 163.79,-327.4 423.22,-327.4 423.22,-296.6 163.79,-296.6"/>
<text text-anchor="start" x="170.79" y="-308.8" font-family="Arial" font-size="14.00">expiringTransferId </text>
<text text-anchor="start" x="287.51" y="-308.8" font-family="Arial" font-size="14.00" fill="#666666">[bigint unsigned]</text>
<polygon fill="none" stroke="black" points="163.79,-265.8 163.79,-296.6 423.22,-296.6 423.22,-265.8 163.79,-265.8"/>
<text text-anchor="start" x="170.79" y="-278" font-family="Arial" font-size="14.00">transferId </text>
<text text-anchor="start" x="233.82" y="-278" font-family="Arial" font-size="14.00" fill="#666666">[varchar(36)]</text>
<polygon fill="none" stroke="black" stroke-width="3" points="162.29,-264.3 162.29,-364.5 424.72,-364.5 424.72,-264.3 162.29,-264.3"/>
</g>
<!-- transfer -->
<g id="node2" class="node">
<title>transfer</title>
<polygon fill="#efefef" stroke="none" points="196.78,-104.8 196.78,-140.4 390.23,-140.4 390.23,-104.8 196.78,-104.8"/>
<polygon fill="none" stroke="black" points="196.78,-104.8 196.78,-140.4 390.23,-140.4 390.23,-104.8 196.78,-104.8"/>
<text text-anchor="start" x="203.78" y="-118.2" font-family="Arial Bold" font-size="18.00">transfer</text>
<text text-anchor="start" x="258.75" y="-118.2" font-family="Arial" font-size="14.00">    </text>
<text text-anchor="start" x="289.86" y="-118.2" font-family="Arial" font-size="14.00" fill="#666666">[BASE TABLE]</text>
<polygon fill="none" stroke="black" points="196.78,-74 196.78,-104.8 390.23,-104.8 390.23,-74 196.78,-74"/>
<text text-anchor="start" x="203.78" y="-86.2" font-family="Arial" font-size="14.00">transferId </text>
<text text-anchor="start" x="266.81" y="-86.2" font-family="Arial" font-size="14.00" fill="#666666">[varchar(36)]</text>
<polygon fill="none" stroke="black" points="196.78,-43.2 196.78,-74 390.23,-74 390.23,-43.2 196.78,-43.2"/>
<text text-anchor="start" x="203.78" y="-55.4" font-family="Arial" font-size="14.00">currencyId </text>
<text text-anchor="start" x="273.03" y="-55.4" font-family="Arial" font-size="14.00" fill="#666666">[varchar(3)]</text>
</g>
<!-- expiringTransfer&#45;&gt;transfer -->
<g id="edge1" class="edge">
<title>expiringTransfer:transferId&#45;&gt;transfer:transferId</title>
<path fill="none" stroke="black" d="M294.43,-254.65C302.95,-211.74 367.84,-230.98 390.23,-183.6 408.13,-145.75 433.1,-89.4 391.23,-89.4"/>
<polygon fill="black" stroke="black" points="294.45,-254.51 289.06,-264.06 293.96,-259.82 293.57,-264.13 293.57,-264.13 293.57,-264.13 293.96,-259.82 298.02,-264.88 294.45,-254.51"/>
<text text-anchor="start" x="7" y="-274.8" font-family="Arial" font-size="10.00">FOREIGN KEY (transferId) REFERENCES transfer (transferId)</text>
</g>
</g>
</svg>
