<?xml version="1.0" encoding="UTF-8" standalone="no"?>
<!DOCTYPE svg PUBLIC "-//W3C//DTD SVG 1.1//EN"
 "http://www.w3.org/Graphics/SVG/1.1/DTD/svg11.dtd">
<!-- Generated by graphviz version 12.1.2 (20240928.0832)
 -->
<!-- Title: expiringTransfer Pages: 1 -->
<svg width="608pt" height="602pt"
 viewBox="0.00 0.00 608.14 602.00" xmlns="http://www.w3.org/2000/svg" xmlns:xlink="http://www.w3.org/1999/xlink">
<g id="graph0" class="graph" transform="scale(1 1) rotate(0) translate(4 598)">
<title>expiringTransfer</title>
<polygon fill="white" stroke="none" points="-4,4 -4,-598 604.14,-598 604.14,4 -4,4"/>
<!-- expiringTransfer -->
<g id="node1" class="node">
<title>expiringTransfer</title>
<polygon fill="#efefef" stroke="none" points="46.2,-512.2 46.2,-547.8 305.64,-547.8 305.64,-512.2 46.2,-512.2"/>
<polygon fill="none" stroke="black" points="46.2,-512.2 46.2,-547.8 305.64,-547.8 305.64,-512.2 46.2,-512.2"/>
<text text-anchor="start" x="53.2" y="-525.6" font-family="Arial Bold" font-size="18.00">expiringTransfer</text>
<text text-anchor="start" x="174.15" y="-525.6" font-family="Arial" font-size="14.00">    </text>
<text text-anchor="start" x="205.26" y="-525.6" font-family="Arial" font-size="14.00" fill="#666666">[BASE TABLE]</text>
<polygon fill="none" stroke="black" points="46.2,-481.4 46.2,-512.2 305.64,-512.2 305.64,-481.4 46.2,-481.4"/>
<text text-anchor="start" x="53.2" y="-493.6" font-family="Arial" font-size="14.00">expiringTransferId </text>
<text text-anchor="start" x="169.92" y="-493.6" font-family="Arial" font-size="14.00" fill="#666666">[bigint unsigned]</text>
<polygon fill="none" stroke="black" points="46.2,-450.6 46.2,-481.4 305.64,-481.4 305.64,-450.6 46.2,-450.6"/>
<text text-anchor="start" x="53.2" y="-462.8" font-family="Arial" font-size="14.00">transferId </text>
<text text-anchor="start" x="116.23" y="-462.8" font-family="Arial" font-size="14.00" fill="#666666">[varchar(36)]</text>
<polygon fill="none" stroke="black" points="46.2,-419.8 46.2,-450.6 305.64,-450.6 305.64,-419.8 46.2,-419.8"/>
<text text-anchor="start" x="53.2" y="-432" font-family="Arial" font-size="14.00">expirationDate </text>
<text text-anchor="start" x="147.37" y="-432" font-family="Arial" font-size="14.00" fill="#666666">[datetime]</text>
<polygon fill="none" stroke="black" points="46.2,-389 46.2,-419.8 305.64,-419.8 305.64,-389 46.2,-389"/>
<text text-anchor="start" x="53.2" y="-401.2" font-family="Arial" font-size="14.00">createdDate </text>
<text text-anchor="start" x="133.36" y="-401.2" font-family="Arial" font-size="14.00" fill="#666666">[datetime]</text>
<polygon fill="none" stroke="black" stroke-width="3" points="44.7,-387.5 44.7,-549.3 307.14,-549.3 307.14,-387.5 44.7,-387.5"/>
</g>
<!-- transfer -->
<g id="node2" class="node">
<title>transfer</title>
<polygon fill="#efefef" stroke="none" points="79.19,-228 79.19,-263.6 272.65,-263.6 272.65,-228 79.19,-228"/>
<polygon fill="none" stroke="black" points="79.19,-228 79.19,-263.6 272.65,-263.6 272.65,-228 79.19,-228"/>
<text text-anchor="start" x="86.19" y="-241.4" font-family="Arial Bold" font-size="18.00">transfer</text>
<text text-anchor="start" x="141.16" y="-241.4" font-family="Arial" font-size="14.00">    </text>
<text text-anchor="start" x="172.27" y="-241.4" font-family="Arial" font-size="14.00" fill="#666666">[BASE TABLE]</text>
<polygon fill="none" stroke="black" points="79.19,-197.2 79.19,-228 272.65,-228 272.65,-197.2 79.19,-197.2"/>
<text text-anchor="start" x="86.19" y="-209.4" font-family="Arial" font-size="14.00">transferId </text>
<text text-anchor="start" x="149.22" y="-209.4" font-family="Arial" font-size="14.00" fill="#666666">[varchar(36)]</text>
<polygon fill="none" stroke="black" points="79.19,-166.4 79.19,-197.2 272.65,-197.2 272.65,-166.4 79.19,-166.4"/>
<text text-anchor="start" x="86.19" y="-178.6" font-family="Arial" font-size="14.00">amount </text>
<text text-anchor="start" x="136.78" y="-178.6" font-family="Arial" font-size="14.00" fill="#666666">[decimal(18,4)]</text>
<polygon fill="none" stroke="black" points="79.19,-135.6 79.19,-166.4 272.65,-166.4 272.65,-135.6 79.19,-135.6"/>
<text text-anchor="start" x="86.19" y="-147.8" font-family="Arial" font-size="14.00">currencyId </text>
<text text-anchor="start" x="155.44" y="-147.8" font-family="Arial" font-size="14.00" fill="#666666">[varchar(3)]</text>
<polygon fill="none" stroke="black" points="79.19,-104.8 79.19,-135.6 272.65,-135.6 272.65,-104.8 79.19,-104.8"/>
<text text-anchor="start" x="86.19" y="-117" font-family="Arial" font-size="14.00">ilpCondition </text>
<text text-anchor="start" x="163.24" y="-117" font-family="Arial" font-size="14.00" fill="#666666">[varchar(256)]</text>
<polygon fill="none" stroke="black" points="79.19,-74 79.19,-104.8 272.65,-104.8 272.65,-74 79.19,-74"/>
<text text-anchor="start" x="86.19" y="-86.2" font-family="Arial" font-size="14.00">expirationDate </text>
<text text-anchor="start" x="180.35" y="-86.2" font-family="Arial" font-size="14.00" fill="#666666">[datetime]</text>
<polygon fill="none" stroke="black" points="79.19,-43.2 79.19,-74 272.65,-74 272.65,-43.2 79.19,-43.2"/>
<text text-anchor="start" x="86.19" y="-55.4" font-family="Arial" font-size="14.00">createdDate </text>
<text text-anchor="start" x="166.35" y="-55.4" font-family="Arial" font-size="14.00" fill="#666666">[datetime]</text>
</g>
<!-- expiringTransfer&#45;&gt;transfer -->
<g id="edge1" class="edge">
<title>expiringTransfer:transferId&#45;&gt;transfer:transferId</title>
<path fill="none" stroke="black" d="M316.86,-465.27C418.07,-450.41 383.67,-212.6 273.65,-212.6"/>
<polygon fill="black" stroke="black" points="316.94,-465.27 306.65,-461.49 311.62,-465.65 307.3,-465.95 307.3,-465.95 307.3,-465.95 311.62,-465.65 307.29,-470.46 316.94,-465.27"/>
<text text-anchor="start" x="313.64" y="-476" font-family="Arial" font-size="10.00">FOREIGN KEY (transferId) REFERENCES transfer (transferId)</text>
</g>
</g>
</svg>
