<?xml version="1.0" encoding="UTF-8" standalone="no"?>
<!DOCTYPE svg PUBLIC "-//W3C//DTD SVG 1.1//EN"
 "http://www.w3.org/Graphics/SVG/1.1/DTD/svg11.dtd">
<!-- Generated by graphviz version 12.1.2 (20240928.0832)
 -->
<!-- Title: externalParticipant Pages: 1 -->
<svg width="991pt" height="1099pt"
 viewBox="0.00 0.00 991.14 1098.80" xmlns="http://www.w3.org/2000/svg" xmlns:xlink="http://www.w3.org/1999/xlink">
<g id="graph0" class="graph" transform="scale(1 1) rotate(0) translate(4 1094.8)">
<title>externalParticipant</title>
<polygon fill="white" stroke="none" points="-4,4 -4,-1094.8 987.14,-1094.8 987.14,4 -4,4"/>
<!-- externalParticipant -->
<g id="node1" class="node">
<title>externalParticipant</title>
<polygon fill="#efefef" stroke="none" points="352.84,-543 352.84,-578.6 627.27,-578.6 627.27,-543 352.84,-543"/>
<polygon fill="none" stroke="black" points="352.84,-543 352.84,-578.6 627.27,-578.6 627.27,-543 352.84,-543"/>
<text text-anchor="start" x="359.84" y="-556.4" font-family="Arial Bold" font-size="18.00">externalParticipant</text>
<text text-anchor="start" x="495.78" y="-556.4" font-family="Arial" font-size="14.00">    </text>
<text text-anchor="start" x="526.9" y="-556.4" font-family="Arial" font-size="14.00" fill="#666666">[BASE TABLE]</text>
<polygon fill="none" stroke="black" points="352.84,-512.2 352.84,-543 627.27,-543 627.27,-512.2 352.84,-512.2"/>
<text text-anchor="start" x="359.84" y="-524.4" font-family="Arial" font-size="14.00">externalParticipantId </text>
<text text-anchor="start" x="491.36" y="-524.4" font-family="Arial" font-size="14.00" fill="#666666">[bigint unsigned]</text>
<polygon fill="none" stroke="black" points="352.84,-481.4 352.84,-512.2 627.27,-512.2 627.27,-481.4 352.84,-481.4"/>
<text text-anchor="start" x="359.84" y="-493.6" font-family="Arial" font-size="14.00">name </text>
<text text-anchor="start" x="398.75" y="-493.6" font-family="Arial" font-size="14.00" fill="#666666">[varchar(30)]</text>
<polygon fill="none" stroke="black" points="352.84,-450.6 352.84,-481.4 627.27,-481.4 627.27,-450.6 352.84,-450.6"/>
<text text-anchor="start" x="359.84" y="-462.8" font-family="Arial" font-size="14.00">createdDate </text>
<text text-anchor="start" x="440" y="-462.8" font-family="Arial" font-size="14.00" fill="#666666">[datetime]</text>
<polygon fill="none" stroke="black" points="352.84,-419.8 352.84,-450.6 627.27,-450.6 627.27,-419.8 352.84,-419.8"/>
<text text-anchor="start" x="359.84" y="-432" font-family="Arial" font-size="14.00">proxyId </text>
<text text-anchor="start" x="409.64" y="-432" font-family="Arial" font-size="14.00" fill="#666666">[int unsigned]</text>
<polygon fill="none" stroke="black" stroke-width="3" points="351.34,-418.3 351.34,-580.1 628.77,-580.1 628.77,-418.3 351.34,-418.3"/>
</g>
<!-- participant -->
<g id="node4" class="node">
<title>participant</title>
<polygon fill="#efefef" stroke="none" points="382.33,-258.8 382.33,-294.4 597.79,-294.4 597.79,-258.8 382.33,-258.8"/>
<polygon fill="none" stroke="black" points="382.33,-258.8 382.33,-294.4 597.79,-294.4 597.79,-258.8 382.33,-258.8"/>
<text text-anchor="start" x="389.33" y="-272.2" font-family="Arial Bold" font-size="18.00">participant</text>
<text text-anchor="start" x="466.3" y="-272.2" font-family="Arial" font-size="14.00">    </text>
<text text-anchor="start" x="497.41" y="-272.2" font-family="Arial" font-size="14.00" fill="#666666">[BASE TABLE]</text>
<polygon fill="none" stroke="black" points="382.33,-228 382.33,-258.8 597.79,-258.8 597.79,-228 382.33,-228"/>
<text text-anchor="start" x="389.33" y="-240.2" font-family="Arial" font-size="14.00">participantId </text>
<text text-anchor="start" x="469.49" y="-240.2" font-family="Arial" font-size="14.00" fill="#666666">[int unsigned]</text>
<polygon fill="none" stroke="black" points="382.33,-197.2 382.33,-228 597.79,-228 597.79,-197.2 382.33,-197.2"/>
<text text-anchor="start" x="389.33" y="-209.4" font-family="Arial" font-size="14.00">name </text>
<text text-anchor="start" x="428.24" y="-209.4" font-family="Arial" font-size="14.00" fill="#666666">[varchar(256)]</text>
<polygon fill="none" stroke="black" points="382.33,-166.4 382.33,-197.2 597.79,-197.2 597.79,-166.4 382.33,-166.4"/>
<text text-anchor="start" x="389.33" y="-178.6" font-family="Arial" font-size="14.00">description </text>
<text text-anchor="start" x="460.92" y="-178.6" font-family="Arial" font-size="14.00" fill="#666666">[varchar(512)]</text>
<polygon fill="none" stroke="black" points="382.33,-135.6 382.33,-166.4 597.79,-166.4 597.79,-135.6 382.33,-135.6"/>
<text text-anchor="start" x="389.33" y="-147.8" font-family="Arial" font-size="14.00">isActive </text>
<text text-anchor="start" x="441.46" y="-147.8" font-family="Arial" font-size="14.00" fill="#666666">[tinyint(1)]</text>
<polygon fill="none" stroke="black" points="382.33,-104.8 382.33,-135.6 597.79,-135.6 597.79,-104.8 382.33,-104.8"/>
<text text-anchor="start" x="389.33" y="-117" font-family="Arial" font-size="14.00">createdDate </text>
<text text-anchor="start" x="469.49" y="-117" font-family="Arial" font-size="14.00" fill="#666666">[datetime]</text>
<polygon fill="none" stroke="black" points="382.33,-74 382.33,-104.8 597.79,-104.8 597.79,-74 382.33,-74"/>
<text text-anchor="start" x="389.33" y="-86.2" font-family="Arial" font-size="14.00">createdBy </text>
<text text-anchor="start" x="456.26" y="-86.2" font-family="Arial" font-size="14.00" fill="#666666">[varchar(128)]</text>
<polygon fill="none" stroke="black" points="382.33,-43.2 382.33,-74 597.79,-74 597.79,-43.2 382.33,-43.2"/>
<text text-anchor="start" x="389.33" y="-55.4" font-family="Arial" font-size="14.00">isProxy </text>
<text text-anchor="start" x="439.12" y="-55.4" font-family="Arial" font-size="14.00" fill="#666666">[tinyint(1)]</text>
</g>
<!-- externalParticipant&#45;&gt;participant -->
<g id="edge3" class="edge">
<title>externalParticipant:proxyId&#45;&gt;participant:participantId</title>
<path fill="none" stroke="black" d="M490.97,-408.6C499.94,-362.54 572.44,-387.77 597.79,-337.6 616.66,-300.23 640.66,-243.4 598.79,-243.4"/>
<polygon fill="black" stroke="black" points="490.98,-408.51 485.61,-418.07 490.5,-413.82 490.12,-418.13 490.12,-418.13 490.12,-418.13 490.5,-413.82 494.57,-418.87 490.98,-408.51"/>
<text text-anchor="start" x="188.53" y="-428.8" font-family="Arial" font-size="10.00">FOREIGN KEY (proxyId) REFERENCES participant (participantId)</text>
</g>
<!-- fxTransferParticipant -->
<g id="node2" class="node">
<title>fxTransferParticipant</title>
<polygon fill="#efefef" stroke="none" points="146.85,-1012 146.85,-1047.6 439.27,-1047.6 439.27,-1012 146.85,-1012"/>
<polygon fill="none" stroke="black" points="146.85,-1012 146.85,-1047.6 439.27,-1047.6 439.27,-1012 146.85,-1012"/>
<text text-anchor="start" x="153.85" y="-1025.4" font-family="Arial Bold" font-size="18.00">fxTransferParticipant</text>
<text text-anchor="start" x="307.78" y="-1025.4" font-family="Arial" font-size="14.00">    </text>
<text text-anchor="start" x="338.9" y="-1025.4" font-family="Arial" font-size="14.00" fill="#666666">[BASE TABLE]</text>
<polygon fill="none" stroke="black" points="146.85,-981.2 146.85,-1012 439.27,-1012 439.27,-981.2 146.85,-981.2"/>
<text text-anchor="start" x="153.85" y="-993.4" font-family="Arial" font-size="14.00">fxTransferParticipantId </text>
<text text-anchor="start" x="298.57" y="-993.4" font-family="Arial" font-size="14.00" fill="#666666">[bigint unsigned]</text>
<polygon fill="none" stroke="black" points="146.85,-950.4 146.85,-981.2 439.27,-981.2 439.27,-950.4 146.85,-950.4"/>
<text text-anchor="start" x="153.85" y="-962.6" font-family="Arial" font-size="14.00">commitRequestId </text>
<text text-anchor="start" x="266.67" y="-962.6" font-family="Arial" font-size="14.00" fill="#666666">[varchar(36)]</text>
<polygon fill="none" stroke="black" points="146.85,-919.6 146.85,-950.4 439.27,-950.4 439.27,-919.6 146.85,-919.6"/>
<text text-anchor="start" x="153.85" y="-931.8" font-family="Arial" font-size="14.00">participantCurrencyId </text>
<text text-anchor="start" x="290.8" y="-931.8" font-family="Arial" font-size="14.00" fill="#666666">[int unsigned]</text>
<polygon fill="none" stroke="black" points="146.85,-888.8 146.85,-919.6 439.27,-919.6 439.27,-888.8 146.85,-888.8"/>
<text text-anchor="start" x="153.85" y="-901" font-family="Arial" font-size="14.00">transferParticipantRoleTypeId </text>
<text text-anchor="start" x="342.94" y="-901" font-family="Arial" font-size="14.00" fill="#666666">[int unsigned]</text>
<polygon fill="none" stroke="black" points="146.85,-858 146.85,-888.8 439.27,-888.8 439.27,-858 146.85,-858"/>
<text text-anchor="start" x="153.85" y="-870.2" font-family="Arial" font-size="14.00">ledgerEntryTypeId </text>
<text text-anchor="start" x="272.13" y="-870.2" font-family="Arial" font-size="14.00" fill="#666666">[int unsigned]</text>
<polygon fill="none" stroke="black" points="146.85,-827.2 146.85,-858 439.27,-858 439.27,-827.2 146.85,-827.2"/>
<text text-anchor="start" x="153.85" y="-839.4" font-family="Arial" font-size="14.00">fxParticipantCurrencyTypeId </text>
<text text-anchor="start" x="334.37" y="-839.4" font-family="Arial" font-size="14.00" fill="#666666">[int unsigned]</text>
<polygon fill="none" stroke="black" points="146.85,-796.4 146.85,-827.2 439.27,-827.2 439.27,-796.4 146.85,-796.4"/>
<text text-anchor="start" x="153.85" y="-808.6" font-family="Arial" font-size="14.00">amount </text>
<text text-anchor="start" x="204.43" y="-808.6" font-family="Arial" font-size="14.00" fill="#666666">[decimal(18,4)]</text>
<polygon fill="none" stroke="black" points="146.85,-765.6 146.85,-796.4 439.27,-796.4 439.27,-765.6 146.85,-765.6"/>
<text text-anchor="start" x="153.85" y="-777.8" font-family="Arial" font-size="14.00">createdDate </text>
<text text-anchor="start" x="234.01" y="-777.8" font-family="Arial" font-size="14.00" fill="#666666">[datetime]</text>
<polygon fill="none" stroke="black" points="146.85,-734.8 146.85,-765.6 439.27,-765.6 439.27,-734.8 146.85,-734.8"/>
<text text-anchor="start" x="153.85" y="-747" font-family="Arial" font-size="14.00">participantId </text>
<text text-anchor="start" x="234.01" y="-747" font-family="Arial" font-size="14.00" fill="#666666">[int unsigned]</text>
<polygon fill="none" stroke="black" points="146.85,-704 146.85,-734.8 439.27,-734.8 439.27,-704 146.85,-704"/>
<text text-anchor="start" x="153.85" y="-716.2" font-family="Arial" font-size="14.00">externalParticipantId </text>
<text text-anchor="start" x="285.37" y="-716.2" font-family="Arial" font-size="14.00" fill="#666666">[bigint unsigned]</text>
</g>
<!-- fxTransferParticipant&#45;&gt;externalParticipant -->
<g id="edge1" class="edge">
<title>fxTransferParticipant:externalParticipantId&#45;&gt;externalParticipant:externalParticipantId</title>
<path fill="none" stroke="black" d="M450.14,-716.64C462.18,-707.66 451.5,-678.81 439.27,-660.8 415.89,-626.38 376.11,-659.3 352.84,-624.8 328.69,-588.98 308.64,-527.6 351.84,-527.6"/>
<polygon fill="black" stroke="black" points="450.22,-716.62 439.38,-714.98 445.09,-718.05 440.91,-719.22 440.91,-719.22 440.91,-719.22 445.09,-718.05 441.8,-723.64 450.22,-716.62"/>
<text text-anchor="start" x="7" y="-729.4" font-family="Arial" font-size="10.00">FOREIGN KEY (externalParticipantId) REFERENCES externalParticipant (externalParticipantId)</text>
</g>
<!-- transferParticipant -->
<g id="node3" class="node">
<title>transferParticipant</title>
<polygon fill="#efefef" stroke="none" points="543.87,-996.6 543.87,-1032.2 830.24,-1032.2 830.24,-996.6 543.87,-996.6"/>
<polygon fill="none" stroke="black" points="543.87,-996.6 543.87,-1032.2 830.24,-1032.2 830.24,-996.6 543.87,-996.6"/>
<text text-anchor="start" x="558.34" y="-1010" font-family="Arial Bold" font-size="18.00">transferParticipant</text>
<text text-anchor="start" x="691.29" y="-1010" font-family="Arial" font-size="14.00">    </text>
<text text-anchor="start" x="722.4" y="-1010" font-family="Arial" font-size="14.00" fill="#666666">[BASE TABLE]</text>
<polygon fill="none" stroke="black" points="543.87,-965.8 543.87,-996.6 830.24,-996.6 830.24,-965.8 543.87,-965.8"/>
<text text-anchor="start" x="550.87" y="-978" font-family="Arial" font-size="14.00">transferParticipantId </text>
<text text-anchor="start" x="680.05" y="-978" font-family="Arial" font-size="14.00" fill="#666666">[bigint unsigned]</text>
<polygon fill="none" stroke="black" points="543.87,-935 543.87,-965.8 830.24,-965.8 830.24,-935 543.87,-935"/>
<text text-anchor="start" x="550.87" y="-947.2" font-family="Arial" font-size="14.00">transferId </text>
<text text-anchor="start" x="613.9" y="-947.2" font-family="Arial" font-size="14.00" fill="#666666">[varchar(36)]</text>
<polygon fill="none" stroke="black" points="543.87,-904.2 543.87,-935 830.24,-935 830.24,-904.2 543.87,-904.2"/>
<text text-anchor="start" x="550.87" y="-916.4" font-family="Arial" font-size="14.00">participantCurrencyId </text>
<text text-anchor="start" x="687.82" y="-916.4" font-family="Arial" font-size="14.00" fill="#666666">[int unsigned]</text>
<polygon fill="none" stroke="black" points="543.87,-873.4 543.87,-904.2 830.24,-904.2 830.24,-873.4 543.87,-873.4"/>
<text text-anchor="start" x="550.87" y="-885.6" font-family="Arial" font-size="14.00">transferParticipantRoleTypeId </text>
<text text-anchor="start" x="739.96" y="-885.6" font-family="Arial" font-size="14.00" fill="#666666">[int unsigned]</text>
<polygon fill="none" stroke="black" points="543.87,-842.6 543.87,-873.4 830.24,-873.4 830.24,-842.6 543.87,-842.6"/>
<text text-anchor="start" x="550.87" y="-854.8" font-family="Arial" font-size="14.00">ledgerEntryTypeId </text>
<text text-anchor="start" x="669.16" y="-854.8" font-family="Arial" font-size="14.00" fill="#666666">[int unsigned]</text>
<polygon fill="none" stroke="black" points="543.87,-811.8 543.87,-842.6 830.24,-842.6 830.24,-811.8 543.87,-811.8"/>
<text text-anchor="start" x="550.87" y="-824" font-family="Arial" font-size="14.00">amount </text>
<text text-anchor="start" x="601.46" y="-824" font-family="Arial" font-size="14.00" fill="#666666">[decimal(18,4)]</text>
<polygon fill="none" stroke="black" points="543.87,-781 543.87,-811.8 830.24,-811.8 830.24,-781 543.87,-781"/>
<text text-anchor="start" x="550.87" y="-793.2" font-family="Arial" font-size="14.00">createdDate </text>
<text text-anchor="start" x="631.03" y="-793.2" font-family="Arial" font-size="14.00" fill="#666666">[datetime]</text>
<polygon fill="none" stroke="black" points="543.87,-750.2 543.87,-781 830.24,-781 830.24,-750.2 543.87,-750.2"/>
<text text-anchor="start" x="550.87" y="-762.4" font-family="Arial" font-size="14.00">participantId </text>
<text text-anchor="start" x="631.03" y="-762.4" font-family="Arial" font-size="14.00" fill="#666666">[int unsigned]</text>
<polygon fill="none" stroke="black" points="543.87,-719.4 543.87,-750.2 830.24,-750.2 830.24,-719.4 543.87,-719.4"/>
<text text-anchor="start" x="550.87" y="-731.6" font-family="Arial" font-size="14.00">externalParticipantId </text>
<text text-anchor="start" x="682.39" y="-731.6" font-family="Arial" font-size="14.00" fill="#666666">[bigint unsigned]</text>
</g>
<!-- transferParticipant&#45;&gt;externalParticipant -->
<g id="edge2" class="edge">
<title>transferParticipant:externalParticipantId&#45;&gt;externalParticipant:externalParticipantId</title>
<path fill="none" stroke="black" d="M533.12,-732.11C521.44,-723.36 533.1,-695.12 543.87,-676.2 565.42,-638.37 605.85,-662.71 627.27,-624.8 648.53,-587.19 671.48,-527.6 628.27,-527.6"/>
<polygon fill="black" stroke="black" points="532.91,-732.06 541.36,-739.05 538.05,-733.47 542.23,-734.62 542.23,-734.62 542.23,-734.62 538.05,-733.47 543.75,-730.37 532.91,-732.06"/>
<text text-anchor="start" x="549.87" y="-744.8" font-family="Arial" font-size="10.00">FOREIGN KEY (externalParticipantId) REFERENCES externalParticipant (externalParticipantId)</text>
</g>
</g>
</svg>
