<?xml version="1.0" encoding="UTF-8" standalone="no"?>
<!DOCTYPE svg PUBLIC "-//W3C//DTD SVG 1.1//EN"
 "http://www.w3.org/Graphics/SVG/1.1/DTD/svg11.dtd">
<!-- Generated by graphviz version 12.1.2 (20240928.0832)
 -->
<!-- Title: externalParticipant Pages: 1 -->
<svg width="991pt" height="761pt"
 viewBox="0.00 0.00 991.14 760.97" xmlns="http://www.w3.org/2000/svg" xmlns:xlink="http://www.w3.org/1999/xlink">
<g id="graph0" class="graph" transform="scale(1 1) rotate(0) translate(4 756.97)">
<title>externalParticipant</title>
<polygon fill="white" stroke="none" points="-4,4 -4,-756.97 987.14,-756.97 987.14,4 -4,4"/>
<!-- externalParticipant -->
<g id="node1" class="node">
<title>externalParticipant</title>
<polygon fill="#efefef" stroke="none" points="352.84,-297.57 352.84,-333.17 627.27,-333.17 627.27,-297.57 352.84,-297.57"/>
<polygon fill="none" stroke="black" points="352.84,-297.57 352.84,-333.17 627.27,-333.17 627.27,-297.57 352.84,-297.57"/>
<text text-anchor="start" x="359.84" y="-310.97" font-family="Arial Bold" font-size="18.00">externalParticipant</text>
<text text-anchor="start" x="495.78" y="-310.97" font-family="Arial" font-size="14.00">    </text>
<text text-anchor="start" x="526.9" y="-310.97" font-family="Arial" font-size="14.00" fill="#666666">[BASE TABLE]</text>
<polygon fill="none" stroke="black" points="352.84,-266.77 352.84,-297.57 627.27,-297.57 627.27,-266.77 352.84,-266.77"/>
<text text-anchor="start" x="359.84" y="-278.97" font-family="Arial" font-size="14.00">externalParticipantId </text>
<text text-anchor="start" x="491.36" y="-278.97" font-family="Arial" font-size="14.00" fill="#666666">[bigint unsigned]</text>
<polygon fill="none" stroke="black" points="352.84,-235.97 352.84,-266.77 627.27,-266.77 627.27,-235.97 352.84,-235.97"/>
<text text-anchor="start" x="359.84" y="-248.17" font-family="Arial" font-size="14.00">proxyId </text>
<text text-anchor="start" x="409.64" y="-248.17" font-family="Arial" font-size="14.00" fill="#666666">[int unsigned]</text>
<polygon fill="none" stroke="black" stroke-width="3" points="351.34,-234.47 351.34,-334.67 628.77,-334.67 628.77,-234.47 351.34,-234.47"/>
</g>
<!-- participant -->
<g id="node4" class="node">
<title>participant</title>
<polygon fill="#efefef" stroke="none" points="382.33,-74.97 382.33,-110.57 597.79,-110.57 597.79,-74.97 382.33,-74.97"/>
<polygon fill="none" stroke="black" points="382.33,-74.97 382.33,-110.57 597.79,-110.57 597.79,-74.97 382.33,-74.97"/>
<text text-anchor="start" x="389.33" y="-88.37" font-family="Arial Bold" font-size="18.00">participant</text>
<text text-anchor="start" x="466.3" y="-88.37" font-family="Arial" font-size="14.00">    </text>
<text text-anchor="start" x="497.41" y="-88.37" font-family="Arial" font-size="14.00" fill="#666666">[BASE TABLE]</text>
<polygon fill="none" stroke="black" points="382.33,-44.17 382.33,-74.97 597.79,-74.97 597.79,-44.17 382.33,-44.17"/>
<text text-anchor="start" x="389.33" y="-56.37" font-family="Arial" font-size="14.00">participantId </text>
<text text-anchor="start" x="469.49" y="-56.37" font-family="Arial" font-size="14.00" fill="#666666">[int unsigned]</text>
</g>
<!-- externalParticipant&#45;&gt;participant -->
<g id="edge3" class="edge">
<title>externalParticipant:proxyId&#45;&gt;participant:participantId</title>
<path fill="none" stroke="black" d="M490.84,-224.76C500.81,-164.4 603.82,-215.97 640.99,-153.77 665.97,-111.96 675.32,-78.73 640.99,-44.17 593.71,3.42 490.06,23.91 490.06,-43.17"/>
<polygon fill="black" stroke="black" points="490.84,-224.67 485.6,-234.3 490.44,-229.99 490.11,-234.31 490.11,-234.31 490.11,-234.31 490.44,-229.99 494.57,-234.98 490.84,-224.67"/>
<text text-anchor="start" x="188.53" y="-244.97" font-family="Arial" font-size="10.00">FOREIGN KEY (proxyId) REFERENCES participant (participantId)</text>
</g>
<!-- fxTransferParticipant -->
<g id="node2" class="node">
<title>fxTransferParticipant</title>
<polygon fill="#efefef" stroke="none" points="146.85,-674.17 146.85,-709.77 439.27,-709.77 439.27,-674.17 146.85,-674.17"/>
<polygon fill="none" stroke="black" points="146.85,-674.17 146.85,-709.77 439.27,-709.77 439.27,-674.17 146.85,-674.17"/>
<text text-anchor="start" x="153.85" y="-687.57" font-family="Arial Bold" font-size="18.00">fxTransferParticipant</text>
<text text-anchor="start" x="307.78" y="-687.57" font-family="Arial" font-size="14.00">    </text>
<text text-anchor="start" x="338.9" y="-687.57" font-family="Arial" font-size="14.00" fill="#666666">[BASE TABLE]</text>
<polygon fill="none" stroke="black" points="146.85,-643.37 146.85,-674.17 439.27,-674.17 439.27,-643.37 146.85,-643.37"/>
<text text-anchor="start" x="153.85" y="-655.57" font-family="Arial" font-size="14.00">fxTransferParticipantId </text>
<text text-anchor="start" x="298.57" y="-655.57" font-family="Arial" font-size="14.00" fill="#666666">[bigint unsigned]</text>
<polygon fill="none" stroke="black" points="146.85,-612.57 146.85,-643.37 439.27,-643.37 439.27,-612.57 146.85,-612.57"/>
<text text-anchor="start" x="153.85" y="-624.77" font-family="Arial" font-size="14.00">commitRequestId </text>
<text text-anchor="start" x="266.67" y="-624.77" font-family="Arial" font-size="14.00" fill="#666666">[varchar(36)]</text>
<polygon fill="none" stroke="black" points="146.85,-581.77 146.85,-612.57 439.27,-612.57 439.27,-581.77 146.85,-581.77"/>
<text text-anchor="start" x="153.85" y="-593.97" font-family="Arial" font-size="14.00">participantCurrencyId </text>
<text text-anchor="start" x="290.8" y="-593.97" font-family="Arial" font-size="14.00" fill="#666666">[int unsigned]</text>
<polygon fill="none" stroke="black" points="146.85,-550.97 146.85,-581.77 439.27,-581.77 439.27,-550.97 146.85,-550.97"/>
<text text-anchor="start" x="153.85" y="-563.17" font-family="Arial" font-size="14.00">transferParticipantRoleTypeId </text>
<text text-anchor="start" x="342.94" y="-563.17" font-family="Arial" font-size="14.00" fill="#666666">[int unsigned]</text>
<polygon fill="none" stroke="black" points="146.85,-520.17 146.85,-550.97 439.27,-550.97 439.27,-520.17 146.85,-520.17"/>
<text text-anchor="start" x="153.85" y="-532.37" font-family="Arial" font-size="14.00">ledgerEntryTypeId </text>
<text text-anchor="start" x="272.13" y="-532.37" font-family="Arial" font-size="14.00" fill="#666666">[int unsigned]</text>
<polygon fill="none" stroke="black" points="146.85,-489.37 146.85,-520.17 439.27,-520.17 439.27,-489.37 146.85,-489.37"/>
<text text-anchor="start" x="153.85" y="-501.57" font-family="Arial" font-size="14.00">fxParticipantCurrencyTypeId </text>
<text text-anchor="start" x="334.37" y="-501.57" font-family="Arial" font-size="14.00" fill="#666666">[int unsigned]</text>
<polygon fill="none" stroke="black" points="146.85,-458.57 146.85,-489.37 439.27,-489.37 439.27,-458.57 146.85,-458.57"/>
<text text-anchor="start" x="153.85" y="-470.77" font-family="Arial" font-size="14.00">externalParticipantId </text>
<text text-anchor="start" x="285.37" y="-470.77" font-family="Arial" font-size="14.00" fill="#666666">[bigint unsigned]</text>
</g>
<!-- fxTransferParticipant&#45;&gt;externalParticipant -->
<g id="edge1" class="edge">
<title>fxTransferParticipant:externalParticipantId&#45;&gt;externalParticipant:externalParticipantId</title>
<path fill="none" stroke="black" d="M450.14,-471.21C462.18,-462.23 451.5,-433.39 439.27,-415.37 415.89,-380.95 376.11,-413.87 352.84,-379.37 328.69,-343.55 308.64,-282.17 351.84,-282.17"/>
<polygon fill="black" stroke="black" points="450.22,-471.19 439.38,-469.55 445.09,-472.63 440.91,-473.79 440.91,-473.79 440.91,-473.79 445.09,-472.63 441.8,-478.22 450.22,-471.19"/>
<text text-anchor="start" x="7" y="-483.97" font-family="Arial" font-size="10.00">FOREIGN KEY (externalParticipantId) REFERENCES externalParticipant (externalParticipantId)</text>
</g>
<!-- transferParticipant -->
<g id="node3" class="node">
<title>transferParticipant</title>
<polygon fill="#efefef" stroke="none" points="543.87,-658.77 543.87,-694.37 830.24,-694.37 830.24,-658.77 543.87,-658.77"/>
<polygon fill="none" stroke="black" points="543.87,-658.77 543.87,-694.37 830.24,-694.37 830.24,-658.77 543.87,-658.77"/>
<text text-anchor="start" x="558.34" y="-672.17" font-family="Arial Bold" font-size="18.00">transferParticipant</text>
<text text-anchor="start" x="691.29" y="-672.17" font-family="Arial" font-size="14.00">    </text>
<text text-anchor="start" x="722.4" y="-672.17" font-family="Arial" font-size="14.00" fill="#666666">[BASE TABLE]</text>
<polygon fill="none" stroke="black" points="543.87,-627.97 543.87,-658.77 830.24,-658.77 830.24,-627.97 543.87,-627.97"/>
<text text-anchor="start" x="550.87" y="-640.17" font-family="Arial" font-size="14.00">transferParticipantId </text>
<text text-anchor="start" x="680.05" y="-640.17" font-family="Arial" font-size="14.00" fill="#666666">[bigint unsigned]</text>
<polygon fill="none" stroke="black" points="543.87,-597.17 543.87,-627.97 830.24,-627.97 830.24,-597.17 543.87,-597.17"/>
<text text-anchor="start" x="550.87" y="-609.37" font-family="Arial" font-size="14.00">transferId </text>
<text text-anchor="start" x="613.9" y="-609.37" font-family="Arial" font-size="14.00" fill="#666666">[varchar(36)]</text>
<polygon fill="none" stroke="black" points="543.87,-566.37 543.87,-597.17 830.24,-597.17 830.24,-566.37 543.87,-566.37"/>
<text text-anchor="start" x="550.87" y="-578.57" font-family="Arial" font-size="14.00">participantCurrencyId </text>
<text text-anchor="start" x="687.82" y="-578.57" font-family="Arial" font-size="14.00" fill="#666666">[int unsigned]</text>
<polygon fill="none" stroke="black" points="543.87,-535.57 543.87,-566.37 830.24,-566.37 830.24,-535.57 543.87,-535.57"/>
<text text-anchor="start" x="550.87" y="-547.77" font-family="Arial" font-size="14.00">transferParticipantRoleTypeId </text>
<text text-anchor="start" x="739.96" y="-547.77" font-family="Arial" font-size="14.00" fill="#666666">[int unsigned]</text>
<polygon fill="none" stroke="black" points="543.87,-504.77 543.87,-535.57 830.24,-535.57 830.24,-504.77 543.87,-504.77"/>
<text text-anchor="start" x="550.87" y="-516.97" font-family="Arial" font-size="14.00">ledgerEntryTypeId </text>
<text text-anchor="start" x="669.16" y="-516.97" font-family="Arial" font-size="14.00" fill="#666666">[int unsigned]</text>
<polygon fill="none" stroke="black" points="543.87,-473.97 543.87,-504.77 830.24,-504.77 830.24,-473.97 543.87,-473.97"/>
<text text-anchor="start" x="550.87" y="-486.17" font-family="Arial" font-size="14.00">externalParticipantId </text>
<text text-anchor="start" x="682.39" y="-486.17" font-family="Arial" font-size="14.00" fill="#666666">[bigint unsigned]</text>
</g>
<!-- transferParticipant&#45;&gt;externalParticipant -->
<g id="edge2" class="edge">
<title>transferParticipant:externalParticipantId&#45;&gt;externalParticipant:externalParticipantId</title>
<path fill="none" stroke="black" d="M533.12,-486.69C521.44,-477.93 533.1,-449.69 543.87,-430.77 565.42,-392.94 605.85,-417.28 627.27,-379.37 648.53,-341.76 671.48,-282.17 628.27,-282.17"/>
<polygon fill="black" stroke="black" points="532.91,-486.63 541.36,-493.62 538.05,-488.05 542.23,-489.2 542.23,-489.2 542.23,-489.2 538.05,-488.05 543.75,-484.95 532.91,-486.63"/>
<text text-anchor="start" x="549.87" y="-499.37" font-family="Arial" font-size="10.00">FOREIGN KEY (externalParticipantId) REFERENCES externalParticipant (externalParticipantId)</text>
</g>
</g>
</svg>
