<?xml version="1.0" encoding="UTF-8" standalone="no"?>
<!DOCTYPE svg PUBLIC "-//W3C//DTD SVG 1.1//EN"
 "http://www.w3.org/Graphics/SVG/1.1/DTD/svg11.dtd">
<!-- Generated by graphviz version 12.1.2 (20240928.0832)
 -->
<!-- Title: fxCharge Pages: 1 -->
<svg width="800pt" height="910pt"
 viewBox="0.00 0.00 800.14 910.00" xmlns="http://www.w3.org/2000/svg" xmlns:xlink="http://www.w3.org/1999/xlink">
<g id="graph0" class="graph" transform="scale(1 1) rotate(0) translate(4 906)">
<title>fxCharge</title>
<polygon fill="white" stroke="none" points="-4,4 -4,-906 796.14,-906 796.14,4 -4,4"/>
<!-- fxCharge -->
<g id="node1" class="node">
<title>fxCharge</title>
<polygon fill="#efefef" stroke="none" points="138.19,-820.2 138.19,-855.8 343.65,-855.8 343.65,-820.2 138.19,-820.2"/>
<polygon fill="none" stroke="black" points="138.19,-820.2 138.19,-855.8 343.65,-855.8 343.65,-820.2 138.19,-820.2"/>
<text text-anchor="start" x="145.19" y="-833.6" font-family="Arial Bold" font-size="18.00">fxCharge</text>
<text text-anchor="start" x="212.16" y="-833.6" font-family="Arial" font-size="14.00">    </text>
<text text-anchor="start" x="243.28" y="-833.6" font-family="Arial" font-size="14.00" fill="#666666">[BASE TABLE]</text>
<polygon fill="none" stroke="black" points="138.19,-789.4 138.19,-820.2 343.65,-820.2 343.65,-789.4 138.19,-789.4"/>
<text text-anchor="start" x="145.19" y="-801.6" font-family="Arial" font-size="14.00">fxChargeId </text>
<text text-anchor="start" x="217.56" y="-801.6" font-family="Arial" font-size="14.00" fill="#666666">[bigint unsigned]</text>
<polygon fill="none" stroke="black" points="138.19,-758.6 138.19,-789.4 343.65,-789.4 343.65,-758.6 138.19,-758.6"/>
<text text-anchor="start" x="145.19" y="-770.8" font-family="Arial" font-size="14.00">chargeType </text>
<text text-anchor="start" x="223.01" y="-770.8" font-family="Arial" font-size="14.00" fill="#666666">[varchar(32)]</text>
<polygon fill="none" stroke="black" points="138.19,-727.8 138.19,-758.6 343.65,-758.6 343.65,-727.8 138.19,-727.8"/>
<text text-anchor="start" x="145.19" y="-740" font-family="Arial" font-size="14.00">conversionId </text>
<text text-anchor="start" x="228.46" y="-740" font-family="Arial" font-size="14.00" fill="#666666">[varchar(36)]</text>
<polygon fill="none" stroke="black" points="138.19,-697 138.19,-727.8 343.65,-727.8 343.65,-697 138.19,-697"/>
<text text-anchor="start" x="145.19" y="-709.2" font-family="Arial" font-size="14.00">sourceAmount </text>
<text text-anchor="start" x="239.35" y="-709.2" font-family="Arial" font-size="14.00" fill="#666666">[decimal(18,4)]</text>
<polygon fill="none" stroke="black" points="138.19,-666.2 138.19,-697 343.65,-697 343.65,-666.2 138.19,-666.2"/>
<text text-anchor="start" x="145.19" y="-678.4" font-family="Arial" font-size="14.00">sourceCurrency </text>
<text text-anchor="start" x="247.9" y="-678.4" font-family="Arial" font-size="14.00" fill="#666666">[varchar(3)]</text>
<polygon fill="none" stroke="black" points="138.19,-635.4 138.19,-666.2 343.65,-666.2 343.65,-635.4 138.19,-635.4"/>
<text text-anchor="start" x="145.19" y="-647.6" font-family="Arial" font-size="14.00">targetAmount </text>
<text text-anchor="start" x="233.13" y="-647.6" font-family="Arial" font-size="14.00" fill="#666666">[decimal(18,4)]</text>
<polygon fill="none" stroke="black" points="138.19,-604.6 138.19,-635.4 343.65,-635.4 343.65,-604.6 138.19,-604.6"/>
<text text-anchor="start" x="145.19" y="-616.8" font-family="Arial" font-size="14.00">targetCurrency </text>
<text text-anchor="start" x="241.67" y="-616.8" font-family="Arial" font-size="14.00" fill="#666666">[varchar(3)]</text>
<polygon fill="none" stroke="black" stroke-width="3" points="136.69,-603.1 136.69,-857.3 345.15,-857.3 345.15,-603.1 136.69,-603.1"/>
</g>
<!-- fxQuoteResponseConversionTerms -->
<g id="node2" class="node">
<title>fxQuoteResponseConversionTerms</title>
<polygon fill="#efefef" stroke="none" points="43.2,-443.6 43.2,-479.2 438.65,-479.2 438.65,-443.6 43.2,-443.6"/>
<polygon fill="none" stroke="black" points="43.2,-443.6 43.2,-479.2 438.65,-479.2 438.65,-443.6 43.2,-443.6"/>
<text text-anchor="start" x="50.2" y="-457" font-family="Arial Bold" font-size="18.00">fxQuoteResponseConversionTerms</text>
<text text-anchor="start" x="307.16" y="-457" font-family="Arial" font-size="14.00">    </text>
<text text-anchor="start" x="338.27" y="-457" font-family="Arial" font-size="14.00" fill="#666666">[BASE TABLE]</text>
<polygon fill="none" stroke="black" points="43.2,-412.8 43.2,-443.6 438.65,-443.6 438.65,-412.8 43.2,-412.8"/>
<text text-anchor="start" x="50.2" y="-425" font-family="Arial" font-size="14.00">conversionId </text>
<text text-anchor="start" x="133.47" y="-425" font-family="Arial" font-size="14.00" fill="#666666">[varchar(255)]</text>
<polygon fill="none" stroke="black" points="43.2,-382 43.2,-412.8 438.65,-412.8 438.65,-382 43.2,-382"/>
<text text-anchor="start" x="50.2" y="-394.2" font-family="Arial" font-size="14.00">determiningTransferId </text>
<text text-anchor="start" x="191.04" y="-394.2" font-family="Arial" font-size="14.00" fill="#666666">[varchar(36)]</text>
<polygon fill="none" stroke="black" points="43.2,-351.2 43.2,-382 438.65,-382 438.65,-351.2 43.2,-351.2"/>
<text text-anchor="start" x="50.2" y="-363.4" font-family="Arial" font-size="14.00">conversionRequestId </text>
<text text-anchor="start" x="185.61" y="-363.4" font-family="Arial" font-size="14.00" fill="#666666">[varchar(36)]</text>
<polygon fill="none" stroke="black" points="43.2,-320.4 43.2,-351.2 438.65,-351.2 438.65,-320.4 43.2,-320.4"/>
<text text-anchor="start" x="50.2" y="-332.6" font-family="Arial" font-size="14.00">fxQuoteResponseId </text>
<text text-anchor="start" x="177.83" y="-332.6" font-family="Arial" font-size="14.00" fill="#666666">[bigint unsigned]</text>
<polygon fill="none" stroke="black" points="43.2,-289.6 43.2,-320.4 438.65,-320.4 438.65,-289.6 43.2,-289.6"/>
<text text-anchor="start" x="50.2" y="-301.8" font-family="Arial" font-size="14.00">amountTypeId </text>
<text text-anchor="start" x="143.59" y="-301.8" font-family="Arial" font-size="14.00" fill="#666666">[int unsigned]</text>
<polygon fill="none" stroke="black" points="43.2,-258.8 43.2,-289.6 438.65,-289.6 438.65,-258.8 43.2,-258.8"/>
<text text-anchor="start" x="50.2" y="-271" font-family="Arial" font-size="14.00">initiatingFsp </text>
<text text-anchor="start" x="128.79" y="-271" font-family="Arial" font-size="14.00" fill="#666666">[varchar(255)]</text>
<polygon fill="none" stroke="black" points="43.2,-228 43.2,-258.8 438.65,-258.8 438.65,-228 43.2,-228"/>
<text text-anchor="start" x="50.2" y="-240.2" font-family="Arial" font-size="14.00">counterPartyFsp </text>
<text text-anchor="start" x="156.8" y="-240.2" font-family="Arial" font-size="14.00" fill="#666666">[varchar(255)]</text>
<polygon fill="none" stroke="black" points="43.2,-197.2 43.2,-228 438.65,-228 438.65,-197.2 43.2,-197.2"/>
<text text-anchor="start" x="50.2" y="-209.4" font-family="Arial" font-size="14.00">sourceAmount </text>
<text text-anchor="start" x="144.36" y="-209.4" font-family="Arial" font-size="14.00" fill="#666666">[decimal(18,4)]</text>
<polygon fill="none" stroke="black" points="43.2,-166.4 43.2,-197.2 438.65,-197.2 438.65,-166.4 43.2,-166.4"/>
<text text-anchor="start" x="50.2" y="-178.6" font-family="Arial" font-size="14.00">sourceCurrency </text>
<text text-anchor="start" x="152.9" y="-178.6" font-family="Arial" font-size="14.00" fill="#666666">[varchar(3)]</text>
<polygon fill="none" stroke="black" points="43.2,-135.6 43.2,-166.4 438.65,-166.4 438.65,-135.6 43.2,-135.6"/>
<text text-anchor="start" x="50.2" y="-147.8" font-family="Arial" font-size="14.00">targetAmount </text>
<text text-anchor="start" x="138.14" y="-147.8" font-family="Arial" font-size="14.00" fill="#666666">[decimal(18,4)]</text>
<polygon fill="none" stroke="black" points="43.2,-104.8 43.2,-135.6 438.65,-135.6 438.65,-104.8 43.2,-104.8"/>
<text text-anchor="start" x="50.2" y="-117" font-family="Arial" font-size="14.00">targetCurrency </text>
<text text-anchor="start" x="146.68" y="-117" font-family="Arial" font-size="14.00" fill="#666666">[varchar(3)]</text>
<polygon fill="none" stroke="black" points="43.2,-74 43.2,-104.8 438.65,-104.8 438.65,-74 43.2,-74"/>
<text text-anchor="start" x="50.2" y="-86.2" font-family="Arial" font-size="14.00">expirationDate </text>
<text text-anchor="start" x="144.37" y="-86.2" font-family="Arial" font-size="14.00" fill="#666666">[datetime]</text>
<polygon fill="none" stroke="black" points="43.2,-43.2 43.2,-74 438.65,-74 438.65,-43.2 43.2,-43.2"/>
<text text-anchor="start" x="50.2" y="-55.4" font-family="Arial" font-size="14.00">createdDate </text>
<text text-anchor="start" x="130.36" y="-55.4" font-family="Arial" font-size="14.00" fill="#666666">[datetime]</text>
</g>
<!-- fxCharge&#45;&gt;fxQuoteResponseConversionTerms -->
<g id="edge1" class="edge">
<title>fxCharge:conversionId&#45;&gt;fxQuoteResponseConversionTerms:conversionId</title>
<path fill="none" stroke="black" d="M354.62,-741.35C425.96,-715.53 509.48,-428.2 439.65,-428.2"/>
<polygon fill="black" stroke="black" points="354.82,-741.31 344.16,-738.71 349.57,-742.29 345.31,-743.08 345.31,-743.08 345.31,-743.08 349.57,-742.29 345.8,-747.56 354.82,-741.31"/>
<text text-anchor="start" x="351.65" y="-753.2" font-family="Arial" font-size="10.00">FOREIGN KEY (conversionId) REFERENCES fxQuoteResponseConversionTerms (conversionId)</text>
</g>
</g>
</svg>
