<?xml version="1.0" encoding="UTF-8" standalone="no"?>
<!DOCTYPE svg PUBLIC "-//W3C//DTD SVG 1.1//EN"
 "http://www.w3.org/Graphics/SVG/1.1/DTD/svg11.dtd">
<!-- Generated by graphviz version 12.1.2 (20240928.0832)
 -->
<!-- Title: fxParticipantCurrencyType Pages: 1 -->
<svg width="914pt" height="725pt"
 viewBox="0.00 0.00 914.39 725.20" xmlns="http://www.w3.org/2000/svg" xmlns:xlink="http://www.w3.org/1999/xlink">
<g id="graph0" class="graph" transform="scale(1 1) rotate(0) translate(4 721.2)">
<title>fxParticipantCurrencyType</title>
<polygon fill="white" stroke="none" points="-4,4 -4,-721.2 910.39,-721.2 910.39,4 -4,4"/>
<!-- fxParticipantCurrencyType -->
<g id="node1" class="node">
<title>fxParticipantCurrencyType</title>
<polygon fill="#efefef" stroke="none" points="46.2,-169.4 46.2,-205 381.62,-205 381.62,-169.4 46.2,-169.4"/>
<polygon fill="none" stroke="black" points="46.2,-169.4 46.2,-205 381.62,-205 381.62,-169.4 46.2,-169.4"/>
<text text-anchor="start" x="53.2" y="-182.8" font-family="Arial Bold" font-size="18.00">fxParticipantCurrencyType</text>
<text text-anchor="start" x="250.13" y="-182.8" font-family="Arial" font-size="14.00">    </text>
<text text-anchor="start" x="281.24" y="-182.8" font-family="Arial" font-size="14.00" fill="#666666">[BASE TABLE]</text>
<polygon fill="none" stroke="black" points="46.2,-138.6 46.2,-169.4 381.62,-169.4 381.62,-138.6 46.2,-138.6"/>
<text text-anchor="start" x="53.2" y="-150.8" font-family="Arial" font-size="14.00">fxParticipantCurrencyTypeId </text>
<text text-anchor="start" x="233.72" y="-150.8" font-family="Arial" font-size="14.00" fill="#666666">[int unsigned]</text>
<polygon fill="none" stroke="black" points="46.2,-107.8 46.2,-138.6 381.62,-138.6 381.62,-107.8 46.2,-107.8"/>
<text text-anchor="start" x="53.2" y="-120" font-family="Arial" font-size="14.00">name </text>
<text text-anchor="start" x="92.11" y="-120" font-family="Arial" font-size="14.00" fill="#666666">[varchar(50)]</text>
<polygon fill="none" stroke="black" points="46.2,-77 46.2,-107.8 381.62,-107.8 381.62,-77 46.2,-77"/>
<text text-anchor="start" x="53.2" y="-89.2" font-family="Arial" font-size="14.00">description </text>
<text text-anchor="start" x="124.79" y="-89.2" font-family="Arial" font-size="14.00" fill="#666666">[varchar(512)]</text>
<polygon fill="none" stroke="black" points="46.2,-46.2 46.2,-77 381.62,-77 381.62,-46.2 46.2,-46.2"/>
<text text-anchor="start" x="53.2" y="-58.4" font-family="Arial" font-size="14.00">createdDate </text>
<text text-anchor="start" x="133.36" y="-58.4" font-family="Arial" font-size="14.00" fill="#666666">[datetime]</text>
<polygon fill="none" stroke="black" stroke-width="3" points="44.7,-44.7 44.7,-206.5 383.12,-206.5 383.12,-44.7 44.7,-44.7"/>
</g>
<!-- fxTransferParticipant -->
<g id="node2" class="node">
<title>fxTransferParticipant</title>
<polygon fill="#efefef" stroke="none" points="67.7,-638.4 67.7,-674 360.12,-674 360.12,-638.4 67.7,-638.4"/>
<polygon fill="none" stroke="black" points="67.7,-638.4 67.7,-674 360.12,-674 360.12,-638.4 67.7,-638.4"/>
<text text-anchor="start" x="74.7" y="-651.8" font-family="Arial Bold" font-size="18.00">fxTransferParticipant</text>
<text text-anchor="start" x="228.63" y="-651.8" font-family="Arial" font-size="14.00">    </text>
<text text-anchor="start" x="259.75" y="-651.8" font-family="Arial" font-size="14.00" fill="#666666">[BASE TABLE]</text>
<polygon fill="none" stroke="black" points="67.7,-607.6 67.7,-638.4 360.12,-638.4 360.12,-607.6 67.7,-607.6"/>
<text text-anchor="start" x="74.7" y="-619.8" font-family="Arial" font-size="14.00">fxTransferParticipantId </text>
<text text-anchor="start" x="219.42" y="-619.8" font-family="Arial" font-size="14.00" fill="#666666">[bigint unsigned]</text>
<polygon fill="none" stroke="black" points="67.7,-576.8 67.7,-607.6 360.12,-607.6 360.12,-576.8 67.7,-576.8"/>
<text text-anchor="start" x="74.7" y="-589" font-family="Arial" font-size="14.00">commitRequestId </text>
<text text-anchor="start" x="187.52" y="-589" font-family="Arial" font-size="14.00" fill="#666666">[varchar(36)]</text>
<polygon fill="none" stroke="black" points="67.7,-546 67.7,-576.8 360.12,-576.8 360.12,-546 67.7,-546"/>
<text text-anchor="start" x="74.7" y="-558.2" font-family="Arial" font-size="14.00">participantCurrencyId </text>
<text text-anchor="start" x="211.65" y="-558.2" font-family="Arial" font-size="14.00" fill="#666666">[int unsigned]</text>
<polygon fill="none" stroke="black" points="67.7,-515.2 67.7,-546 360.12,-546 360.12,-515.2 67.7,-515.2"/>
<text text-anchor="start" x="74.7" y="-527.4" font-family="Arial" font-size="14.00">transferParticipantRoleTypeId </text>
<text text-anchor="start" x="263.79" y="-527.4" font-family="Arial" font-size="14.00" fill="#666666">[int unsigned]</text>
<polygon fill="none" stroke="black" points="67.7,-484.4 67.7,-515.2 360.12,-515.2 360.12,-484.4 67.7,-484.4"/>
<text text-anchor="start" x="74.7" y="-496.6" font-family="Arial" font-size="14.00">ledgerEntryTypeId </text>
<text text-anchor="start" x="192.98" y="-496.6" font-family="Arial" font-size="14.00" fill="#666666">[int unsigned]</text>
<polygon fill="none" stroke="black" points="67.7,-453.6 67.7,-484.4 360.12,-484.4 360.12,-453.6 67.7,-453.6"/>
<text text-anchor="start" x="74.7" y="-465.8" font-family="Arial" font-size="14.00">fxParticipantCurrencyTypeId </text>
<text text-anchor="start" x="255.21" y="-465.8" font-family="Arial" font-size="14.00" fill="#666666">[int unsigned]</text>
<polygon fill="none" stroke="black" points="67.7,-422.8 67.7,-453.6 360.12,-453.6 360.12,-422.8 67.7,-422.8"/>
<text text-anchor="start" x="74.7" y="-435" font-family="Arial" font-size="14.00">amount </text>
<text text-anchor="start" x="125.28" y="-435" font-family="Arial" font-size="14.00" fill="#666666">[decimal(18,4)]</text>
<polygon fill="none" stroke="black" points="67.7,-392 67.7,-422.8 360.12,-422.8 360.12,-392 67.7,-392"/>
<text text-anchor="start" x="74.7" y="-404.2" font-family="Arial" font-size="14.00">createdDate </text>
<text text-anchor="start" x="154.86" y="-404.2" font-family="Arial" font-size="14.00" fill="#666666">[datetime]</text>
<polygon fill="none" stroke="black" points="67.7,-361.2 67.7,-392 360.12,-392 360.12,-361.2 67.7,-361.2"/>
<text text-anchor="start" x="74.7" y="-373.4" font-family="Arial" font-size="14.00">participantId </text>
<text text-anchor="start" x="154.86" y="-373.4" font-family="Arial" font-size="14.00" fill="#666666">[int unsigned]</text>
<polygon fill="none" stroke="black" points="67.7,-330.4 67.7,-361.2 360.12,-361.2 360.12,-330.4 67.7,-330.4"/>
<text text-anchor="start" x="74.7" y="-342.6" font-family="Arial" font-size="14.00">externalParticipantId </text>
<text text-anchor="start" x="206.21" y="-342.6" font-family="Arial" font-size="14.00" fill="#666666">[bigint unsigned]</text>
</g>
<!-- fxTransferParticipant&#45;&gt;fxParticipantCurrencyType -->
<g id="edge1" class="edge">
<title>fxTransferParticipant:fxParticipantCurrencyTypeId&#45;&gt;fxParticipantCurrencyType:fxParticipantCurrencyTypeId</title>
<path fill="none" stroke="black" d="M371.04,-466.82C433.16,-438.99 449.35,-154 382.62,-154"/>
<polygon fill="black" stroke="black" points="371.21,-466.78 360.48,-464.53 366,-467.93 361.77,-468.86 361.77,-468.86 361.77,-468.86 366,-467.93 362.41,-473.32 371.21,-466.78"/>
<text text-anchor="start" x="368.12" y="-479" font-family="Arial" font-size="10.00">FOREIGN KEY (fxParticipantCurrencyTypeId) REFERENCES fxParticipantCurrencyType (fxParticipantCurrencyTypeId)</text>
</g>
</g>
</svg>
