<?xml version="1.0" encoding="UTF-8" standalone="no"?>
<!DOCTYPE svg PUBLIC "-//W3C//DTD SVG 1.1//EN"
 "http://www.w3.org/Graphics/SVG/1.1/DTD/svg11.dtd">
<!-- Generated by graphviz version 12.1.2 (20240928.0832)
 -->
<!-- Title: fxParticipantCurrencyType Pages: 1 -->
<svg width="914pt" height="557pt"
 viewBox="0.00 0.00 914.39 556.55" xmlns="http://www.w3.org/2000/svg" xmlns:xlink="http://www.w3.org/1999/xlink">
<g id="graph0" class="graph" transform="scale(1 1) rotate(0) translate(4 552.55)">
<title>fxParticipantCurrencyType</title>
<polygon fill="white" stroke="none" points="-4,4 -4,-552.55 910.39,-552.55 910.39,4 -4,4"/>
<!-- fxParticipantCurrencyType -->
<g id="node1" class="node">
<title>fxParticipantCurrencyType</title>
<polygon fill="#efefef" stroke="none" points="46.2,-93.15 46.2,-128.75 381.62,-128.75 381.62,-93.15 46.2,-93.15"/>
<polygon fill="none" stroke="black" points="46.2,-93.15 46.2,-128.75 381.62,-128.75 381.62,-93.15 46.2,-93.15"/>
<text text-anchor="start" x="53.2" y="-106.55" font-family="Arial Bold" font-size="18.00">fxParticipantCurrencyType</text>
<text text-anchor="start" x="250.13" y="-106.55" font-family="Arial" font-size="14.00">    </text>
<text text-anchor="start" x="281.24" y="-106.55" font-family="Arial" font-size="14.00" fill="#666666">[BASE TABLE]</text>
<polygon fill="none" stroke="black" points="46.2,-62.35 46.2,-93.15 381.62,-93.15 381.62,-62.35 46.2,-62.35"/>
<text text-anchor="start" x="53.2" y="-74.55" font-family="Arial" font-size="14.00">fxParticipantCurrencyTypeId </text>
<text text-anchor="start" x="233.72" y="-74.55" font-family="Arial" font-size="14.00" fill="#666666">[int unsigned]</text>
<polygon fill="none" stroke="black" stroke-width="3" points="44.7,-60.85 44.7,-130.25 383.12,-130.25 383.12,-60.85 44.7,-60.85"/>
</g>
<!-- fxTransferParticipant -->
<g id="node2" class="node">
<title>fxTransferParticipant</title>
<polygon fill="#efefef" stroke="none" points="67.7,-469.75 67.7,-505.35 360.12,-505.35 360.12,-469.75 67.7,-469.75"/>
<polygon fill="none" stroke="black" points="67.7,-469.75 67.7,-505.35 360.12,-505.35 360.12,-469.75 67.7,-469.75"/>
<text text-anchor="start" x="74.7" y="-483.15" font-family="Arial Bold" font-size="18.00">fxTransferParticipant</text>
<text text-anchor="start" x="228.63" y="-483.15" font-family="Arial" font-size="14.00">    </text>
<text text-anchor="start" x="259.75" y="-483.15" font-family="Arial" font-size="14.00" fill="#666666">[BASE TABLE]</text>
<polygon fill="none" stroke="black" points="67.7,-438.95 67.7,-469.75 360.12,-469.75 360.12,-438.95 67.7,-438.95"/>
<text text-anchor="start" x="74.7" y="-451.15" font-family="Arial" font-size="14.00">fxTransferParticipantId </text>
<text text-anchor="start" x="219.42" y="-451.15" font-family="Arial" font-size="14.00" fill="#666666">[bigint unsigned]</text>
<polygon fill="none" stroke="black" points="67.7,-408.15 67.7,-438.95 360.12,-438.95 360.12,-408.15 67.7,-408.15"/>
<text text-anchor="start" x="74.7" y="-420.35" font-family="Arial" font-size="14.00">commitRequestId </text>
<text text-anchor="start" x="187.52" y="-420.35" font-family="Arial" font-size="14.00" fill="#666666">[varchar(36)]</text>
<polygon fill="none" stroke="black" points="67.7,-377.35 67.7,-408.15 360.12,-408.15 360.12,-377.35 67.7,-377.35"/>
<text text-anchor="start" x="74.7" y="-389.55" font-family="Arial" font-size="14.00">participantCurrencyId </text>
<text text-anchor="start" x="211.65" y="-389.55" font-family="Arial" font-size="14.00" fill="#666666">[int unsigned]</text>
<polygon fill="none" stroke="black" points="67.7,-346.55 67.7,-377.35 360.12,-377.35 360.12,-346.55 67.7,-346.55"/>
<text text-anchor="start" x="74.7" y="-358.75" font-family="Arial" font-size="14.00">transferParticipantRoleTypeId </text>
<text text-anchor="start" x="263.79" y="-358.75" font-family="Arial" font-size="14.00" fill="#666666">[int unsigned]</text>
<polygon fill="none" stroke="black" points="67.7,-315.75 67.7,-346.55 360.12,-346.55 360.12,-315.75 67.7,-315.75"/>
<text text-anchor="start" x="74.7" y="-327.95" font-family="Arial" font-size="14.00">ledgerEntryTypeId </text>
<text text-anchor="start" x="192.98" y="-327.95" font-family="Arial" font-size="14.00" fill="#666666">[int unsigned]</text>
<polygon fill="none" stroke="black" points="67.7,-284.95 67.7,-315.75 360.12,-315.75 360.12,-284.95 67.7,-284.95"/>
<text text-anchor="start" x="74.7" y="-297.15" font-family="Arial" font-size="14.00">fxParticipantCurrencyTypeId </text>
<text text-anchor="start" x="255.21" y="-297.15" font-family="Arial" font-size="14.00" fill="#666666">[int unsigned]</text>
<polygon fill="none" stroke="black" points="67.7,-254.15 67.7,-284.95 360.12,-284.95 360.12,-254.15 67.7,-254.15"/>
<text text-anchor="start" x="74.7" y="-266.35" font-family="Arial" font-size="14.00">externalParticipantId </text>
<text text-anchor="start" x="206.21" y="-266.35" font-family="Arial" font-size="14.00" fill="#666666">[bigint unsigned]</text>
</g>
<!-- fxTransferParticipant&#45;&gt;fxParticipantCurrencyType -->
<g id="edge1" class="edge">
<title>fxTransferParticipant:fxParticipantCurrencyTypeId&#45;&gt;fxParticipantCurrencyType:fxParticipantCurrencyTypeId</title>
<path fill="none" stroke="black" d="M371.03,-298.24C421.84,-276.83 464.22,-98.92 427.82,-62.35 360.75,5.03 213.91,33.72 213.91,-61.35"/>
<polygon fill="black" stroke="black" points="371.23,-298.2 360.51,-295.88 366.01,-299.31 361.77,-300.21 361.77,-300.21 361.77,-300.21 366.01,-299.31 362.38,-304.68 371.23,-298.2"/>
<text text-anchor="start" x="368.12" y="-310.35" font-family="Arial" font-size="10.00">FOREIGN KEY (fxParticipantCurrencyTypeId) REFERENCES fxParticipantCurrencyType (fxParticipantCurrencyTypeId)</text>
</g>
</g>
</svg>
