<?xml version="1.0" encoding="UTF-8" standalone="no"?>
<!DOCTYPE svg PUBLIC "-//W3C//DTD SVG 1.1//EN"
 "http://www.w3.org/Graphics/SVG/1.1/DTD/svg11.dtd">
<!-- Generated by graphviz version 12.1.2 (20240928.0832)
 -->
<!-- Title: fxQuoteConversionTermsExtension Pages: 1 -->
<svg width="856pt" height="818pt"
 viewBox="0.00 0.00 856.10 817.60" xmlns="http://www.w3.org/2000/svg" xmlns:xlink="http://www.w3.org/1999/xlink">
<g id="graph0" class="graph" transform="scale(1 1) rotate(0) translate(4 813.6)">
<title>fxQuoteConversionTermsExtension</title>
<polygon fill="white" stroke="none" points="-4,4 -4,-813.6 852.1,-813.6 852.1,4 -4,4"/>
<!-- fxQuoteConversionTermsExtension -->
<g id="node1" class="node">
<title>fxQuoteConversionTermsExtension</title>
<polygon fill="#efefef" stroke="none" points="46.2,-727.8 46.2,-763.4 444.64,-763.4 444.64,-727.8 46.2,-727.8"/>
<polygon fill="none" stroke="black" points="46.2,-727.8 46.2,-763.4 444.64,-763.4 444.64,-727.8 46.2,-727.8"/>
<text text-anchor="start" x="53.2" y="-741.2" font-family="Arial Bold" font-size="18.00">fxQuoteConversionTermsExtension</text>
<text text-anchor="start" x="313.15" y="-741.2" font-family="Arial" font-size="14.00">    </text>
<text text-anchor="start" x="344.27" y="-741.2" font-family="Arial" font-size="14.00" fill="#666666">[BASE TABLE]</text>
<polygon fill="none" stroke="black" points="46.2,-697 46.2,-727.8 444.64,-727.8 444.64,-697 46.2,-697"/>
<text text-anchor="start" x="53.2" y="-709.2" font-family="Arial" font-size="14.00">fxQuoteConversionTermExtension </text>
<text text-anchor="start" x="271.07" y="-709.2" font-family="Arial" font-size="14.00" fill="#666666">[bigint unsigned]</text>
<polygon fill="none" stroke="black" points="46.2,-666.2 46.2,-697 444.64,-697 444.64,-666.2 46.2,-666.2"/>
<text text-anchor="start" x="53.2" y="-678.4" font-family="Arial" font-size="14.00">conversionId </text>
<text text-anchor="start" x="136.47" y="-678.4" font-family="Arial" font-size="14.00" fill="#666666">[varchar(36)]</text>
<polygon fill="none" stroke="black" points="46.2,-635.4 46.2,-666.2 444.64,-666.2 444.64,-635.4 46.2,-635.4"/>
<text text-anchor="start" x="53.2" y="-647.6" font-family="Arial" font-size="14.00">key </text>
<text text-anchor="start" x="78.88" y="-647.6" font-family="Arial" font-size="14.00" fill="#666666">[varchar(128)]</text>
<polygon fill="none" stroke="black" points="46.2,-604.6 46.2,-635.4 444.64,-635.4 444.64,-604.6 46.2,-604.6"/>
<text text-anchor="start" x="53.2" y="-616.8" font-family="Arial" font-size="14.00">value </text>
<text text-anchor="start" x="90.56" y="-616.8" font-family="Arial" font-size="14.00" fill="#666666">[text]</text>
<polygon fill="none" stroke="black" points="46.2,-573.8 46.2,-604.6 444.64,-604.6 444.64,-573.8 46.2,-573.8"/>
<text text-anchor="start" x="53.2" y="-586" font-family="Arial" font-size="14.00">createdDate </text>
<text text-anchor="start" x="133.36" y="-586" font-family="Arial" font-size="14.00" fill="#666666">[datetime]</text>
<polygon fill="none" stroke="black" stroke-width="3" points="44.7,-572.3 44.7,-764.9 446.14,-764.9 446.14,-572.3 44.7,-572.3"/>
</g>
<!-- fxQuoteConversionTerms -->
<g id="node2" class="node">
<title>fxQuoteConversionTerms</title>
<polygon fill="#efefef" stroke="none" points="82.2,-412.8 82.2,-448.4 408.65,-448.4 408.65,-412.8 82.2,-412.8"/>
<polygon fill="none" stroke="black" points="82.2,-412.8 82.2,-448.4 408.65,-448.4 408.65,-412.8 82.2,-412.8"/>
<text text-anchor="start" x="89.2" y="-426.2" font-family="Arial Bold" font-size="18.00">fxQuoteConversionTerms</text>
<text text-anchor="start" x="277.16" y="-426.2" font-family="Arial" font-size="14.00">    </text>
<text text-anchor="start" x="308.28" y="-426.2" font-family="Arial" font-size="14.00" fill="#666666">[BASE TABLE]</text>
<polygon fill="none" stroke="black" points="82.2,-382 82.2,-412.8 408.65,-412.8 408.65,-382 82.2,-382"/>
<text text-anchor="start" x="89.2" y="-394.2" font-family="Arial" font-size="14.00">conversionId </text>
<text text-anchor="start" x="172.46" y="-394.2" font-family="Arial" font-size="14.00" fill="#666666">[varchar(255)]</text>
<polygon fill="none" stroke="black" points="82.2,-351.2 82.2,-382 408.65,-382 408.65,-351.2 82.2,-351.2"/>
<text text-anchor="start" x="89.2" y="-363.4" font-family="Arial" font-size="14.00">determiningTransferId </text>
<text text-anchor="start" x="230.04" y="-363.4" font-family="Arial" font-size="14.00" fill="#666666">[varchar(36)]</text>
<polygon fill="none" stroke="black" points="82.2,-320.4 82.2,-351.2 408.65,-351.2 408.65,-320.4 82.2,-320.4"/>
<text text-anchor="start" x="89.2" y="-332.6" font-family="Arial" font-size="14.00">conversionRequestId </text>
<text text-anchor="start" x="224.61" y="-332.6" font-family="Arial" font-size="14.00" fill="#666666">[varchar(36)]</text>
<polygon fill="none" stroke="black" points="82.2,-289.6 82.2,-320.4 408.65,-320.4 408.65,-289.6 82.2,-289.6"/>
<text text-anchor="start" x="89.2" y="-301.8" font-family="Arial" font-size="14.00">amountTypeId </text>
<text text-anchor="start" x="182.58" y="-301.8" font-family="Arial" font-size="14.00" fill="#666666">[int unsigned]</text>
<polygon fill="none" stroke="black" points="82.2,-258.8 82.2,-289.6 408.65,-289.6 408.65,-258.8 82.2,-258.8"/>
<text text-anchor="start" x="89.2" y="-271" font-family="Arial" font-size="14.00">initiatingFsp </text>
<text text-anchor="start" x="167.79" y="-271" font-family="Arial" font-size="14.00" fill="#666666">[varchar(255)]</text>
<polygon fill="none" stroke="black" points="82.2,-228 82.2,-258.8 408.65,-258.8 408.65,-228 82.2,-228"/>
<text text-anchor="start" x="89.2" y="-240.2" font-family="Arial" font-size="14.00">counterPartyFsp </text>
<text text-anchor="start" x="195.8" y="-240.2" font-family="Arial" font-size="14.00" fill="#666666">[varchar(255)]</text>
<polygon fill="none" stroke="black" points="82.2,-197.2 82.2,-228 408.65,-228 408.65,-197.2 82.2,-197.2"/>
<text text-anchor="start" x="89.2" y="-209.4" font-family="Arial" font-size="14.00">sourceAmount </text>
<text text-anchor="start" x="183.35" y="-209.4" font-family="Arial" font-size="14.00" fill="#666666">[decimal(18,4)]</text>
<polygon fill="none" stroke="black" points="82.2,-166.4 82.2,-197.2 408.65,-197.2 408.65,-166.4 82.2,-166.4"/>
<text text-anchor="start" x="89.2" y="-178.6" font-family="Arial" font-size="14.00">sourceCurrency </text>
<text text-anchor="start" x="191.9" y="-178.6" font-family="Arial" font-size="14.00" fill="#666666">[varchar(3)]</text>
<polygon fill="none" stroke="black" points="82.2,-135.6 82.2,-166.4 408.65,-166.4 408.65,-135.6 82.2,-135.6"/>
<text text-anchor="start" x="89.2" y="-147.8" font-family="Arial" font-size="14.00">targetAmount </text>
<text text-anchor="start" x="177.13" y="-147.8" font-family="Arial" font-size="14.00" fill="#666666">[decimal(18,4)]</text>
<polygon fill="none" stroke="black" points="82.2,-104.8 82.2,-135.6 408.65,-135.6 408.65,-104.8 82.2,-104.8"/>
<text text-anchor="start" x="89.2" y="-117" font-family="Arial" font-size="14.00">targetCurrency </text>
<text text-anchor="start" x="185.68" y="-117" font-family="Arial" font-size="14.00" fill="#666666">[varchar(3)]</text>
<polygon fill="none" stroke="black" points="82.2,-74 82.2,-104.8 408.65,-104.8 408.65,-74 82.2,-74"/>
<text text-anchor="start" x="89.2" y="-86.2" font-family="Arial" font-size="14.00">expirationDate </text>
<text text-anchor="start" x="183.36" y="-86.2" font-family="Arial" font-size="14.00" fill="#666666">[datetime]</text>
<polygon fill="none" stroke="black" points="82.2,-43.2 82.2,-74 408.65,-74 408.65,-43.2 82.2,-43.2"/>
<text text-anchor="start" x="89.2" y="-55.4" font-family="Arial" font-size="14.00">createdDate </text>
<text text-anchor="start" x="169.35" y="-55.4" font-family="Arial" font-size="14.00" fill="#666666">[datetime]</text>
</g>
<!-- fxQuoteConversionTermsExtension&#45;&gt;fxQuoteConversionTerms -->
<g id="edge1" class="edge">
<title>fxQuoteConversionTermsExtension:conversionId&#45;&gt;fxQuoteConversionTerms:conversionId</title>
<path fill="none" stroke="black" d="M455.51,-678.97C505.14,-650.32 469.7,-397.4 409.65,-397.4"/>
<polygon fill="black" stroke="black" points="455.63,-678.94 444.81,-677.17 450.47,-680.31 446.29,-681.43 446.29,-681.43 446.29,-681.43 450.47,-680.31 447.13,-685.86 455.63,-678.94"/>
<text text-anchor="start" x="452.64" y="-691.6" font-family="Arial" font-size="10.00">FOREIGN KEY (conversionId) REFERENCES fxQuoteConversionTerms (conversionId)</text>
</g>
</g>
</svg>
