<?xml version="1.0" encoding="UTF-8" standalone="no"?>
<!DOCTYPE svg PUBLIC "-//W3C//DTD SVG 1.1//EN"
 "http://www.w3.org/Graphics/SVG/1.1/DTD/svg11.dtd">
<!-- Generated by graphviz version 12.1.2 (20240928.0832)
 -->
<!-- Title: fxQuoteResponseConversionTermsExtension Pages: 1 -->
<svg width="847pt" height="540pt"
 viewBox="0.00 0.00 847.30 540.40" xmlns="http://www.w3.org/2000/svg" xmlns:xlink="http://www.w3.org/1999/xlink">
<g id="graph0" class="graph" transform="scale(1 1) rotate(0) translate(4 536.4)">
<title>fxQuoteResponseConversionTermsExtension</title>
<polygon fill="white" stroke="none" points="-4,4 -4,-536.4 843.3,-536.4 843.3,4 -4,4"/>
<!-- fxQuoteResponseConversionTermsExtension -->
<g id="node1" class="node">
<title>fxQuoteResponseConversionTermsExtension</title>
<polygon fill="#efefef" stroke="none" points="213.76,-450.6 213.76,-486.2 681.2,-486.2 681.2,-450.6 213.76,-450.6"/>
<polygon fill="none" stroke="black" points="213.76,-450.6 213.76,-486.2 681.2,-486.2 681.2,-450.6 213.76,-450.6"/>
<text text-anchor="start" x="220.76" y="-464" font-family="Arial Bold" font-size="18.00">fxQuoteResponseConversionTermsExtension</text>
<text text-anchor="start" x="549.71" y="-464" font-family="Arial" font-size="14.00">    </text>
<text text-anchor="start" x="580.83" y="-464" font-family="Arial" font-size="14.00" fill="#666666">[BASE TABLE]</text>
<polygon fill="none" stroke="black" points="213.76,-419.8 213.76,-450.6 681.2,-450.6 681.2,-419.8 213.76,-419.8"/>
<text text-anchor="start" x="220.76" y="-432" font-family="Arial" font-size="14.00">fxQuoteResponseConversionTermsExtension </text>
<text text-anchor="start" x="508.68" y="-432" font-family="Arial" font-size="14.00" fill="#666666">[bigint unsigned]</text>
<polygon fill="none" stroke="black" points="213.76,-389 213.76,-419.8 681.2,-419.8 681.2,-389 213.76,-389"/>
<text text-anchor="start" x="220.76" y="-401.2" font-family="Arial" font-size="14.00">conversionId </text>
<text text-anchor="start" x="304.03" y="-401.2" font-family="Arial" font-size="14.00" fill="#666666">[varchar(36)]</text>
<polygon fill="none" stroke="black" stroke-width="3" points="212.26,-387.5 212.26,-487.7 682.7,-487.7 682.7,-387.5 212.26,-387.5"/>
</g>
<!-- fxQuoteResponseConversionTerms -->
<g id="node2" class="node">
<title>fxQuoteResponseConversionTerms</title>
<polygon fill="#efefef" stroke="none" points="98.86,-228 98.86,-263.6 796.1,-263.6 796.1,-228 98.86,-228"/>
<polygon fill="none" stroke="black" points="98.86,-228 98.86,-263.6 796.1,-263.6 796.1,-228 98.86,-228"/>
<text text-anchor="start" x="256.76" y="-241.4" font-family="Arial Bold" font-size="18.00">fxQuoteResponseConversionTerms</text>
<text text-anchor="start" x="513.72" y="-241.4" font-family="Arial" font-size="14.00">    </text>
<text text-anchor="start" x="544.83" y="-241.4" font-family="Arial" font-size="14.00" fill="#666666">[BASE TABLE]</text>
<polygon fill="none" stroke="black" points="98.86,-197.2 98.86,-228 796.1,-228 796.1,-197.2 98.86,-197.2"/>
<text text-anchor="start" x="105.86" y="-209.4" font-family="Arial" font-size="14.00">conversionId </text>
<text text-anchor="start" x="189.13" y="-209.4" font-family="Arial" font-size="14.00" fill="#666666">[varchar(255)]</text>
<polygon fill="none" stroke="black" points="98.86,-166.4 98.86,-197.2 796.1,-197.2 796.1,-166.4 98.86,-166.4"/>
<text text-anchor="start" x="105.86" y="-178.6" font-family="Arial" font-size="14.00">conversionRequestId </text>
<text text-anchor="start" x="241.27" y="-178.6" font-family="Arial" font-size="14.00" fill="#666666">[varchar(36)]</text>
<polygon fill="none" stroke="black" points="98.86,-135.6 98.86,-166.4 796.1,-166.4 796.1,-135.6 98.86,-135.6"/>
<text text-anchor="start" x="105.86" y="-147.8" font-family="Arial" font-size="14.00">fxQuoteResponseId </text>
<text text-anchor="start" x="233.49" y="-147.8" font-family="Arial" font-size="14.00" fill="#666666">[bigint unsigned]</text>
<polygon fill="none" stroke="black" points="98.86,-104.8 98.86,-135.6 796.1,-135.6 796.1,-104.8 98.86,-104.8"/>
<text text-anchor="start" x="105.86" y="-117" font-family="Arial" font-size="14.00">amountTypeId </text>
<text text-anchor="start" x="199.24" y="-117" font-family="Arial" font-size="14.00" fill="#666666">[int unsigned]</text>
<text text-anchor="start" x="282.53" y="-117" font-family="Arial" font-size="14.00"> This is part of the transaction type that contains valid elements for &#45; Amount Type</text>
<polygon fill="none" stroke="black" points="98.86,-74 98.86,-104.8 796.1,-104.8 796.1,-74 98.86,-74"/>
<text text-anchor="start" x="105.86" y="-86.2" font-family="Arial" font-size="14.00">sourceCurrency </text>
<text text-anchor="start" x="208.56" y="-86.2" font-family="Arial" font-size="14.00" fill="#666666">[varchar(3)]</text>
<polygon fill="none" stroke="black" points="98.86,-43.2 98.86,-74 796.1,-74 796.1,-43.2 98.86,-43.2"/>
<text text-anchor="start" x="105.86" y="-55.4" font-family="Arial" font-size="14.00">targetCurrency </text>
<text text-anchor="start" x="202.34" y="-55.4" font-family="Arial" font-size="14.00" fill="#666666">[varchar(3)]</text>
</g>
<!-- fxQuoteResponseConversionTermsExtension&#45;&gt;fxQuoteResponseConversionTerms -->
<g id="edge1" class="edge">
<title>fxQuoteResponseConversionTermsExtension:conversionId&#45;&gt;fxQuoteResponseConversionTerms:conversionId</title>
<path fill="none" stroke="black" d="M447.85,-377.82C458.59,-237.82 698.77,-428.09 796.1,-306.8 822.31,-274.15 838.97,-212.6 797.1,-212.6"/>
<polygon fill="black" stroke="black" points="447.86,-377.67 443,-387.5 447.66,-383 447.51,-387.33 447.51,-387.33 447.51,-387.33 447.66,-383 451.99,-387.83 447.86,-377.67"/>
<text text-anchor="start" x="7" y="-398" font-family="Arial" font-size="10.00">FOREIGN KEY (conversionId) REFERENCES fxQuoteResponseConversionTerms (conversionId)</text>
</g>
</g>
</svg>
