<?xml version="1.0" encoding="UTF-8" standalone="no"?>
<!DOCTYPE svg PUBLIC "-//W3C//DTD SVG 1.1//EN"
 "http://www.w3.org/Graphics/SVG/1.1/DTD/svg11.dtd">
<!-- Generated by graphviz version 12.1.2 (20240928.0832)
 -->
<!-- Title: fxQuoteConversionTerms Pages: 1 -->
<svg width="1436pt" height="698pt"
 viewBox="0.00 0.00 1436.01 698.40" xmlns="http://www.w3.org/2000/svg" xmlns:xlink="http://www.w3.org/1999/xlink">
<g id="graph0" class="graph" transform="scale(1 1) rotate(0) translate(4 694.4)">
<title>fxQuoteConversionTerms</title>
<polygon fill="white" stroke="none" points="-4,4 -4,-694.4 1432.01,-694.4 1432.01,4 -4,4"/>
<!-- fxQuoteConversionTerms -->
<g id="node1" class="node">
<title>fxQuoteConversionTerms</title>
<polygon fill="#efefef" stroke="none" points="399.03,-389 399.03,-424.6 1096.28,-424.6 1096.28,-389 399.03,-389"/>
<polygon fill="none" stroke="black" points="399.03,-389 399.03,-424.6 1096.28,-424.6 1096.28,-389 399.03,-389"/>
<text text-anchor="start" x="591.43" y="-402.4" font-family="Arial Bold" font-size="18.00">fxQuoteConversionTerms</text>
<text text-anchor="start" x="779.39" y="-402.4" font-family="Arial" font-size="14.00">    </text>
<text text-anchor="start" x="810.51" y="-402.4" font-family="Arial" font-size="14.00" fill="#666666">[BASE TABLE]</text>
<polygon fill="none" stroke="black" points="399.03,-358.2 399.03,-389 1096.28,-389 1096.28,-358.2 399.03,-358.2"/>
<text text-anchor="start" x="406.03" y="-370.4" font-family="Arial" font-size="14.00">conversionId </text>
<text text-anchor="start" x="489.3" y="-370.4" font-family="Arial" font-size="14.00" fill="#666666">[varchar(255)]</text>
<polygon fill="none" stroke="black" points="399.03,-327.4 399.03,-358.2 1096.28,-358.2 1096.28,-327.4 399.03,-327.4"/>
<text text-anchor="start" x="406.03" y="-339.6" font-family="Arial" font-size="14.00">conversionRequestId </text>
<text text-anchor="start" x="541.45" y="-339.6" font-family="Arial" font-size="14.00" fill="#666666">[varchar(36)]</text>
<polygon fill="none" stroke="black" points="399.03,-296.6 399.03,-327.4 1096.28,-327.4 1096.28,-296.6 399.03,-296.6"/>
<text text-anchor="start" x="406.03" y="-308.8" font-family="Arial" font-size="14.00">amountTypeId </text>
<text text-anchor="start" x="499.42" y="-308.8" font-family="Arial" font-size="14.00" fill="#666666">[int unsigned]</text>
<text text-anchor="start" x="582.7" y="-308.8" font-family="Arial" font-size="14.00"> This is part of the transaction type that contains valid elements for &#45; Amount Type</text>
<polygon fill="none" stroke="black" points="399.03,-265.8 399.03,-296.6 1096.28,-296.6 1096.28,-265.8 399.03,-265.8"/>
<text text-anchor="start" x="406.03" y="-278" font-family="Arial" font-size="14.00">sourceCurrency </text>
<text text-anchor="start" x="508.74" y="-278" font-family="Arial" font-size="14.00" fill="#666666">[varchar(3)]</text>
<polygon fill="none" stroke="black" points="399.03,-235 399.03,-265.8 1096.28,-265.8 1096.28,-235 399.03,-235"/>
<text text-anchor="start" x="406.03" y="-247.2" font-family="Arial" font-size="14.00">targetCurrency </text>
<text text-anchor="start" x="502.52" y="-247.2" font-family="Arial" font-size="14.00" fill="#666666">[varchar(3)]</text>
<polygon fill="none" stroke="black" stroke-width="3" points="397.53,-233.5 397.53,-426.1 1097.78,-426.1 1097.78,-233.5 397.53,-233.5"/>
</g>
<!-- fxQuote -->
<g id="node3" class="node">
<title>fxQuote</title>
<polygon fill="#efefef" stroke="none" points="139.27,-74 139.27,-109.6 368.04,-109.6 368.04,-74 139.27,-74"/>
<polygon fill="none" stroke="black" points="139.27,-74 139.27,-109.6 368.04,-109.6 368.04,-74 139.27,-74"/>
<text text-anchor="start" x="161.92" y="-87.4" font-family="Arial Bold" font-size="18.00">fxQuote</text>
<text text-anchor="start" x="220.9" y="-87.4" font-family="Arial" font-size="14.00">    </text>
<text text-anchor="start" x="252.02" y="-87.4" font-family="Arial" font-size="14.00" fill="#666666">[BASE TABLE]</text>
<polygon fill="none" stroke="black" points="139.27,-43.2 139.27,-74 368.04,-74 368.04,-43.2 139.27,-43.2"/>
<text text-anchor="start" x="146.27" y="-55.4" font-family="Arial" font-size="14.00">conversionRequestId </text>
<text text-anchor="start" x="281.68" y="-55.4" font-family="Arial" font-size="14.00" fill="#666666">[varchar(36)]</text>
</g>
<!-- fxQuoteConversionTerms&#45;&gt;fxQuote -->
<g id="edge2" class="edge">
<title>fxQuoteConversionTerms:conversionRequestId&#45;&gt;fxQuote:conversionRequestId</title>
<path fill="none" stroke="black" d="M387.76,-342.08C283.94,-326.39 492.29,-58.6 369.04,-58.6"/>
<polygon fill="black" stroke="black" points="387.72,-342.08 397.39,-347.27 393.05,-342.45 397.37,-342.75 397.37,-342.75 397.37,-342.75 393.05,-342.45 398.01,-338.29 387.72,-342.08"/>
<text text-anchor="start" x="7" y="-352.8" font-family="Arial" font-size="10.00">FOREIGN KEY (conversionRequestId) REFERENCES fxQuote (conversionRequestId)</text>
</g>
<!-- amountType -->
<g id="node4" class="node">
<title>amountType</title>
<polygon fill="#efefef" stroke="none" points="472.92,-74 472.92,-109.6 702.39,-109.6 702.39,-74 472.92,-74"/>
<polygon fill="none" stroke="black" points="472.92,-74 472.92,-109.6 702.39,-109.6 702.39,-74 472.92,-74"/>
<text text-anchor="start" x="479.92" y="-87.4" font-family="Arial Bold" font-size="18.00">amountType</text>
<text text-anchor="start" x="570.9" y="-87.4" font-family="Arial" font-size="14.00">    </text>
<text text-anchor="start" x="602.02" y="-87.4" font-family="Arial" font-size="14.00" fill="#666666">[BASE TABLE]</text>
<polygon fill="none" stroke="black" points="472.92,-43.2 472.92,-74 702.39,-74 702.39,-43.2 472.92,-43.2"/>
<text text-anchor="start" x="479.92" y="-55.4" font-family="Arial" font-size="14.00">amountTypeId </text>
<text text-anchor="start" x="573.31" y="-55.4" font-family="Arial" font-size="14.00" fill="#666666">[int unsigned]</text>
</g>
<!-- fxQuoteConversionTerms&#45;&gt;amountType -->
<g id="edge3" class="edge">
<title>fxQuoteConversionTerms:amountTypeId&#45;&gt;amountType:amountTypeId</title>
<path fill="none" stroke="black" d="M387.82,-310.88C345.99,-300.93 365,-226.8 399.03,-188.8 489.61,-87.66 611.68,-253.82 702.39,-152.8 730.36,-121.65 745.26,-58.6 703.39,-58.6"/>
<polygon fill="black" stroke="black" points="387.76,-310.88 397.21,-316.44 393.06,-311.46 397.37,-311.93 397.37,-311.93 397.37,-311.93 393.06,-311.46 398.19,-307.49 387.76,-310.88"/>
<text text-anchor="start" x="46.47" y="-322" font-family="Arial" font-size="10.00">FOREIGN KEY (amountTypeId) REFERENCES amountType (amountTypeId)</text>
</g>
<!-- currency -->
<g id="node5" class="node">
<title>currency</title>
<polygon fill="#efefef" stroke="none" points="806.93,-74 806.93,-109.6 1008.38,-109.6 1008.38,-74 806.93,-74"/>
<polygon fill="none" stroke="black" points="806.93,-74 806.93,-109.6 1008.38,-109.6 1008.38,-74 806.93,-74"/>
<text text-anchor="start" x="813.93" y="-87.4" font-family="Arial Bold" font-size="18.00">currency</text>
<text text-anchor="start" x="876.89" y="-87.4" font-family="Arial" font-size="14.00">    </text>
<text text-anchor="start" x="908.01" y="-87.4" font-family="Arial" font-size="14.00" fill="#666666">[BASE TABLE]</text>
<polygon fill="none" stroke="black" points="806.93,-43.2 806.93,-74 1008.38,-74 1008.38,-43.2 806.93,-43.2"/>
<text text-anchor="start" x="813.93" y="-55.4" font-family="Arial" font-size="14.00">currencyId </text>
<text text-anchor="start" x="883.18" y="-55.4" font-family="Arial" font-size="14.00" fill="#666666">[varchar(3)]</text>
</g>
<!-- fxQuoteConversionTerms&#45;&gt;currency -->
<g id="edge4" class="edge">
<title>fxQuoteConversionTerms:sourceCurrency&#45;&gt;currency:currencyId</title>
<path fill="none" stroke="black" d="M1107.39,-279.65C1135.48,-269.89 1121.07,-216.56 1096.28,-188.8 1009.96,-92.14 893.24,-249.47 806.93,-152.8 779.05,-121.57 764.06,-58.6 805.93,-58.6"/>
<polygon fill="black" stroke="black" points="1107.49,-279.63 1096.93,-276.7 1102.22,-280.44 1097.94,-281.1 1097.94,-281.1 1097.94,-281.1 1102.22,-280.44 1098.29,-285.6 1107.49,-279.63"/>
<text text-anchor="start" x="1104.28" y="-291.2" font-family="Arial" font-size="10.00">FOREIGN KEY (sourceCurrency) REFERENCES currency (currencyId)</text>
</g>
<!-- fxQuoteConversionTerms&#45;&gt;currency -->
<g id="edge5" class="edge">
<title>fxQuoteConversionTerms:targetCurrency&#45;&gt;currency:currencyId</title>
<path fill="none" stroke="black" d="M747.93,-223.72C750.27,-174.21 767.83,-58.6 805.93,-58.6"/>
<polygon fill="black" stroke="black" points="747.93,-223.67 743.17,-233.55 747.79,-229 747.67,-233.33 747.67,-233.33 747.67,-233.33 747.79,-229 752.16,-233.78 747.93,-223.67"/>
<text text-anchor="start" x="673.08" y="-218" font-family="Arial" font-size="10.00">FOREIGN KEY (targetCurrency) REFERENCES currency (currencyId)</text>
</g>
<!-- fxQuoteConversionTermsExtension -->
<g id="node2" class="node">
<title>fxQuoteConversionTermsExtension</title>
<polygon fill="#efefef" stroke="none" points="548.43,-611.6 548.43,-647.2 946.88,-647.2 946.88,-611.6 548.43,-611.6"/>
<polygon fill="none" stroke="black" points="548.43,-611.6 548.43,-647.2 946.88,-647.2 946.88,-611.6 548.43,-611.6"/>
<text text-anchor="start" x="555.43" y="-625" font-family="Arial Bold" font-size="18.00">fxQuoteConversionTermsExtension</text>
<text text-anchor="start" x="815.39" y="-625" font-family="Arial" font-size="14.00">    </text>
<text text-anchor="start" x="846.51" y="-625" font-family="Arial" font-size="14.00" fill="#666666">[BASE TABLE]</text>
<polygon fill="none" stroke="black" points="548.43,-580.8 548.43,-611.6 946.88,-611.6 946.88,-580.8 548.43,-580.8"/>
<text text-anchor="start" x="555.43" y="-593" font-family="Arial" font-size="14.00">fxQuoteConversionTermExtension </text>
<text text-anchor="start" x="773.31" y="-593" font-family="Arial" font-size="14.00" fill="#666666">[bigint unsigned]</text>
<polygon fill="none" stroke="black" points="548.43,-550 548.43,-580.8 946.88,-580.8 946.88,-550 548.43,-550"/>
<text text-anchor="start" x="555.43" y="-562.2" font-family="Arial" font-size="14.00">conversionId </text>
<text text-anchor="start" x="638.7" y="-562.2" font-family="Arial" font-size="14.00" fill="#666666">[varchar(36)]</text>
</g>
<!-- fxQuoteConversionTermsExtension&#45;&gt;fxQuoteConversionTerms -->
<g id="edge1" class="edge">
<title>fxQuoteConversionTermsExtension:conversionId&#45;&gt;fxQuoteConversionTerms:conversionId</title>
<path fill="none" stroke="black" d="M748.03,-538.84C758.75,-399.21 998.65,-591.48 1096.28,-470.8 1123.45,-437.21 1140.48,-373.6 1097.28,-373.6"/>
<polygon fill="black" stroke="black" points="748.03,-538.67 743.17,-548.5 747.84,-544 747.68,-548.33 747.68,-548.33 747.68,-548.33 747.84,-544 752.16,-548.83 748.03,-538.67"/>
<text text-anchor="start" x="352.2" y="-559" font-family="Arial" font-size="10.00">FOREIGN KEY (conversionId) REFERENCES fxQuoteConversionTerms (conversionId)</text>
</g>
</g>
</svg>
