<?xml version="1.0" encoding="UTF-8" standalone="no"?>
<!DOCTYPE svg PUBLIC "-//W3C//DTD SVG 1.1//EN"
 "http://www.w3.org/Graphics/SVG/1.1/DTD/svg11.dtd">
<!-- Generated by graphviz version 12.1.2 (20240928.0832)
 -->
<!-- Title: fxQuoteError Pages: 1 -->
<svg width="1084pt" height="602pt"
 viewBox="0.00 0.00 1083.58 602.00" xmlns="http://www.w3.org/2000/svg" xmlns:xlink="http://www.w3.org/1999/xlink">
<g id="graph0" class="graph" transform="scale(1 1) rotate(0) translate(4 598)">
<title>fxQuoteError</title>
<polygon fill="white" stroke="none" points="-4,4 -4,-598 1079.58,-598 1079.58,4 -4,4"/>
<!-- fxQuoteError -->
<g id="node1" class="node">
<title>fxQuoteError</title>
<polygon fill="#efefef" stroke="none" points="399.03,-512.2 399.03,-547.8 642.63,-547.8 642.63,-512.2 399.03,-512.2"/>
<polygon fill="none" stroke="black" points="399.03,-512.2 399.03,-547.8 642.63,-547.8 642.63,-512.2 399.03,-512.2"/>
<text text-anchor="start" x="410.11" y="-525.6" font-family="Arial Bold" font-size="18.00">fxQuoteError</text>
<text text-anchor="start" x="507.07" y="-525.6" font-family="Arial" font-size="14.00">    </text>
<text text-anchor="start" x="538.19" y="-525.6" font-family="Arial" font-size="14.00" fill="#666666">[BASE TABLE]</text>
<polygon fill="none" stroke="black" points="399.03,-481.4 399.03,-512.2 642.63,-512.2 642.63,-481.4 399.03,-481.4"/>
<text text-anchor="start" x="406.03" y="-493.6" font-family="Arial" font-size="14.00">fxQuoteErrorId </text>
<text text-anchor="start" x="501.74" y="-493.6" font-family="Arial" font-size="14.00" fill="#666666">[bigint unsigned]</text>
<polygon fill="none" stroke="black" points="399.03,-450.6 399.03,-481.4 642.63,-481.4 642.63,-450.6 399.03,-450.6"/>
<text text-anchor="start" x="406.03" y="-462.8" font-family="Arial" font-size="14.00">conversionRequestId </text>
<text text-anchor="start" x="541.45" y="-462.8" font-family="Arial" font-size="14.00" fill="#666666">[varchar(36)]</text>
<polygon fill="none" stroke="black" points="399.03,-419.8 399.03,-450.6 642.63,-450.6 642.63,-419.8 399.03,-419.8"/>
<text text-anchor="start" x="406.03" y="-432" font-family="Arial" font-size="14.00">fxQuoteResponseId </text>
<text text-anchor="start" x="533.67" y="-432" font-family="Arial" font-size="14.00" fill="#666666">[bigint unsigned]</text>
<polygon fill="none" stroke="black" points="399.03,-389 399.03,-419.8 642.63,-419.8 642.63,-389 399.03,-389"/>
<text text-anchor="start" x="406.03" y="-401.2" font-family="Arial" font-size="14.00">errorCode </text>
<text text-anchor="start" x="472.95" y="-401.2" font-family="Arial" font-size="14.00" fill="#666666">[int unsigned]</text>
<polygon fill="none" stroke="black" points="399.03,-358.2 399.03,-389 642.63,-389 642.63,-358.2 399.03,-358.2"/>
<text text-anchor="start" x="406.03" y="-370.4" font-family="Arial" font-size="14.00">errorDescription </text>
<text text-anchor="start" x="509.51" y="-370.4" font-family="Arial" font-size="14.00" fill="#666666">[varchar(128)]</text>
<polygon fill="none" stroke="black" points="399.03,-327.4 399.03,-358.2 642.63,-358.2 642.63,-327.4 399.03,-327.4"/>
<text text-anchor="start" x="406.03" y="-339.6" font-family="Arial" font-size="14.00">createdDate </text>
<text text-anchor="start" x="486.19" y="-339.6" font-family="Arial" font-size="14.00" fill="#666666">[datetime]</text>
<polygon fill="none" stroke="black" stroke-width="3" points="397.53,-325.9 397.53,-549.3 644.13,-549.3 644.13,-325.9 397.53,-325.9"/>
</g>
<!-- fxQuote -->
<g id="node2" class="node">
<title>fxQuote</title>
<polygon fill="#efefef" stroke="none" points="230.45,-135.6 230.45,-171.2 459.22,-171.2 459.22,-135.6 230.45,-135.6"/>
<polygon fill="none" stroke="black" points="230.45,-135.6 230.45,-171.2 459.22,-171.2 459.22,-135.6 230.45,-135.6"/>
<text text-anchor="start" x="253.1" y="-149" font-family="Arial Bold" font-size="18.00">fxQuote</text>
<text text-anchor="start" x="312.08" y="-149" font-family="Arial" font-size="14.00">    </text>
<text text-anchor="start" x="343.2" y="-149" font-family="Arial" font-size="14.00" fill="#666666">[BASE TABLE]</text>
<polygon fill="none" stroke="black" points="230.45,-104.8 230.45,-135.6 459.22,-135.6 459.22,-104.8 230.45,-104.8"/>
<text text-anchor="start" x="237.45" y="-117" font-family="Arial" font-size="14.00">conversionRequestId </text>
<text text-anchor="start" x="372.86" y="-117" font-family="Arial" font-size="14.00" fill="#666666">[varchar(36)]</text>
<polygon fill="none" stroke="black" points="230.45,-74 230.45,-104.8 459.22,-104.8 459.22,-74 230.45,-74"/>
<text text-anchor="start" x="237.45" y="-86.2" font-family="Arial" font-size="14.00">createdDate </text>
<text text-anchor="start" x="317.6" y="-86.2" font-family="Arial" font-size="14.00" fill="#666666">[datetime]</text>
</g>
<!-- fxQuoteError&#45;&gt;fxQuote -->
<g id="edge1" class="edge">
<title>fxQuoteError:conversionRequestId&#45;&gt;fxQuote:conversionRequestId</title>
<path fill="none" stroke="black" d="M387.77,-465.36C320.66,-456.34 370.71,-354.35 399.03,-281.2 413.46,-243.93 444.69,-251.63 459.22,-214.4 474.44,-175.39 502.09,-120.2 460.22,-120.2"/>
<polygon fill="black" stroke="black" points="387.72,-465.35 397.42,-470.47 393.04,-465.69 397.37,-465.96 397.37,-465.96 397.37,-465.96 393.04,-465.69 397.98,-461.49 387.72,-465.35"/>
<text text-anchor="start" x="7" y="-476" font-family="Arial" font-size="10.00">FOREIGN KEY (conversionRequestId) REFERENCES fxQuote (conversionRequestId)</text>
</g>
<!-- fxQuoteResponse -->
<g id="node3" class="node">
<title>fxQuoteResponse</title>
<polygon fill="#efefef" stroke="none" points="563.6,-166.4 563.6,-202 830.07,-202 830.07,-166.4 563.6,-166.4"/>
<polygon fill="none" stroke="black" points="563.6,-166.4 563.6,-202 830.07,-202 830.07,-166.4 563.6,-166.4"/>
<text text-anchor="start" x="570.6" y="-179.8" font-family="Arial Bold" font-size="18.00">fxQuoteResponse</text>
<text text-anchor="start" x="698.58" y="-179.8" font-family="Arial" font-size="14.00">    </text>
<text text-anchor="start" x="729.69" y="-179.8" font-family="Arial" font-size="14.00" fill="#666666">[BASE TABLE]</text>
<polygon fill="none" stroke="black" points="563.6,-135.6 563.6,-166.4 830.07,-166.4 830.07,-135.6 563.6,-135.6"/>
<text text-anchor="start" x="570.6" y="-147.8" font-family="Arial" font-size="14.00">fxQuoteResponseId </text>
<text text-anchor="start" x="698.23" y="-147.8" font-family="Arial" font-size="14.00" fill="#666666">[bigint unsigned]</text>
<polygon fill="none" stroke="black" points="563.6,-104.8 563.6,-135.6 830.07,-135.6 830.07,-104.8 563.6,-104.8"/>
<text text-anchor="start" x="570.6" y="-117" font-family="Arial" font-size="14.00">conversionRequestId </text>
<text text-anchor="start" x="706.01" y="-117" font-family="Arial" font-size="14.00" fill="#666666">[varchar(36)]</text>
<polygon fill="none" stroke="black" points="563.6,-74 563.6,-104.8 830.07,-104.8 830.07,-74 563.6,-74"/>
<text text-anchor="start" x="570.6" y="-86.2" font-family="Arial" font-size="14.00">ilpCondition </text>
<text text-anchor="start" x="647.65" y="-86.2" font-family="Arial" font-size="14.00" fill="#666666">[varchar(256)]</text>
<polygon fill="none" stroke="black" points="563.6,-43.2 563.6,-74 830.07,-74 830.07,-43.2 563.6,-43.2"/>
<text text-anchor="start" x="570.6" y="-55.4" font-family="Arial" font-size="14.00">createdDate </text>
<text text-anchor="start" x="650.76" y="-55.4" font-family="Arial" font-size="14.00" fill="#666666">[datetime]</text>
</g>
<!-- fxQuoteError&#45;&gt;fxQuoteResponse -->
<g id="edge2" class="edge">
<title>fxQuoteError:fxQuoteResponseId&#45;&gt;fxQuoteResponse:fxQuoteResponseId</title>
<path fill="none" stroke="black" d="M653.97,-434.36C708.54,-424.76 677.82,-335.5 642.63,-281.2 621.64,-248.81 584.65,-277.55 563.6,-245.2 540.76,-210.11 520.73,-151 562.6,-151"/>
<polygon fill="black" stroke="black" points="653.93,-434.36 643.6,-430.69 648.62,-434.79 644.3,-435.15 644.3,-435.15 644.3,-435.15 648.62,-434.79 644.33,-439.66 653.93,-434.36"/>
<text text-anchor="start" x="650.63" y="-445.2" font-family="Arial" font-size="10.00">FOREIGN KEY (fxQuoteResponseId) REFERENCES fxQuoteResponse (fxQuoteResponseId)</text>
</g>
</g>
</svg>
