<?xml version="1.0" encoding="UTF-8" standalone="no"?>
<!DOCTYPE svg PUBLIC "-//W3C//DTD SVG 1.1//EN"
 "http://www.w3.org/Graphics/SVG/1.1/DTD/svg11.dtd">
<!-- Generated by graphviz version 12.1.2 (20240928.0832)
 -->
<!-- Title: fxQuoteResponseConversionTermsExtension Pages: 1 -->
<svg width="970pt" height="848pt"
 viewBox="0.00 0.00 970.12 848.40" xmlns="http://www.w3.org/2000/svg" xmlns:xlink="http://www.w3.org/1999/xlink">
<g id="graph0" class="graph" transform="scale(1 1) rotate(0) translate(4 844.4)">
<title>fxQuoteResponseConversionTermsExtension</title>
<polygon fill="white" stroke="none" points="-4,4 -4,-844.4 966.12,-844.4 966.12,4 -4,4"/>
<!-- fxQuoteResponseConversionTermsExtension -->
<g id="node1" class="node">
<title>fxQuoteResponseConversionTermsExtension</title>
<polygon fill="#efefef" stroke="none" points="46.2,-758.6 46.2,-794.2 513.64,-794.2 513.64,-758.6 46.2,-758.6"/>
<polygon fill="none" stroke="black" points="46.2,-758.6 46.2,-794.2 513.64,-794.2 513.64,-758.6 46.2,-758.6"/>
<text text-anchor="start" x="53.2" y="-772" font-family="Arial Bold" font-size="18.00">fxQuoteResponseConversionTermsExtension</text>
<text text-anchor="start" x="382.15" y="-772" font-family="Arial" font-size="14.00">    </text>
<text text-anchor="start" x="413.27" y="-772" font-family="Arial" font-size="14.00" fill="#666666">[BASE TABLE]</text>
<polygon fill="none" stroke="black" points="46.2,-727.8 46.2,-758.6 513.64,-758.6 513.64,-727.8 46.2,-727.8"/>
<text text-anchor="start" x="53.2" y="-740" font-family="Arial" font-size="14.00">fxQuoteResponseConversionTermsExtension </text>
<text text-anchor="start" x="341.12" y="-740" font-family="Arial" font-size="14.00" fill="#666666">[bigint unsigned]</text>
<polygon fill="none" stroke="black" points="46.2,-697 46.2,-727.8 513.64,-727.8 513.64,-697 46.2,-697"/>
<text text-anchor="start" x="53.2" y="-709.2" font-family="Arial" font-size="14.00">conversionId </text>
<text text-anchor="start" x="136.47" y="-709.2" font-family="Arial" font-size="14.00" fill="#666666">[varchar(36)]</text>
<polygon fill="none" stroke="black" points="46.2,-666.2 46.2,-697 513.64,-697 513.64,-666.2 46.2,-666.2"/>
<text text-anchor="start" x="53.2" y="-678.4" font-family="Arial" font-size="14.00">key </text>
<text text-anchor="start" x="78.88" y="-678.4" font-family="Arial" font-size="14.00" fill="#666666">[varchar(128)]</text>
<polygon fill="none" stroke="black" points="46.2,-635.4 46.2,-666.2 513.64,-666.2 513.64,-635.4 46.2,-635.4"/>
<text text-anchor="start" x="53.2" y="-647.6" font-family="Arial" font-size="14.00">value </text>
<text text-anchor="start" x="90.56" y="-647.6" font-family="Arial" font-size="14.00" fill="#666666">[text]</text>
<polygon fill="none" stroke="black" points="46.2,-604.6 46.2,-635.4 513.64,-635.4 513.64,-604.6 46.2,-604.6"/>
<text text-anchor="start" x="53.2" y="-616.8" font-family="Arial" font-size="14.00">createdDate </text>
<text text-anchor="start" x="133.36" y="-616.8" font-family="Arial" font-size="14.00" fill="#666666">[datetime]</text>
<polygon fill="none" stroke="black" stroke-width="3" points="44.7,-603.1 44.7,-795.7 515.14,-795.7 515.14,-603.1 44.7,-603.1"/>
</g>
<!-- fxQuoteResponseConversionTerms -->
<g id="node2" class="node">
<title>fxQuoteResponseConversionTerms</title>
<polygon fill="#efefef" stroke="none" points="82.2,-443.6 82.2,-479.2 477.64,-479.2 477.64,-443.6 82.2,-443.6"/>
<polygon fill="none" stroke="black" points="82.2,-443.6 82.2,-479.2 477.64,-479.2 477.64,-443.6 82.2,-443.6"/>
<text text-anchor="start" x="89.2" y="-457" font-family="Arial Bold" font-size="18.00">fxQuoteResponseConversionTerms</text>
<text text-anchor="start" x="346.15" y="-457" font-family="Arial" font-size="14.00">    </text>
<text text-anchor="start" x="377.27" y="-457" font-family="Arial" font-size="14.00" fill="#666666">[BASE TABLE]</text>
<polygon fill="none" stroke="black" points="82.2,-412.8 82.2,-443.6 477.64,-443.6 477.64,-412.8 82.2,-412.8"/>
<text text-anchor="start" x="89.2" y="-425" font-family="Arial" font-size="14.00">conversionId </text>
<text text-anchor="start" x="172.46" y="-425" font-family="Arial" font-size="14.00" fill="#666666">[varchar(255)]</text>
<polygon fill="none" stroke="black" points="82.2,-382 82.2,-412.8 477.64,-412.8 477.64,-382 82.2,-382"/>
<text text-anchor="start" x="89.2" y="-394.2" font-family="Arial" font-size="14.00">determiningTransferId </text>
<text text-anchor="start" x="230.04" y="-394.2" font-family="Arial" font-size="14.00" fill="#666666">[varchar(36)]</text>
<polygon fill="none" stroke="black" points="82.2,-351.2 82.2,-382 477.64,-382 477.64,-351.2 82.2,-351.2"/>
<text text-anchor="start" x="89.2" y="-363.4" font-family="Arial" font-size="14.00">conversionRequestId </text>
<text text-anchor="start" x="224.61" y="-363.4" font-family="Arial" font-size="14.00" fill="#666666">[varchar(36)]</text>
<polygon fill="none" stroke="black" points="82.2,-320.4 82.2,-351.2 477.64,-351.2 477.64,-320.4 82.2,-320.4"/>
<text text-anchor="start" x="89.2" y="-332.6" font-family="Arial" font-size="14.00">fxQuoteResponseId </text>
<text text-anchor="start" x="216.83" y="-332.6" font-family="Arial" font-size="14.00" fill="#666666">[bigint unsigned]</text>
<polygon fill="none" stroke="black" points="82.2,-289.6 82.2,-320.4 477.64,-320.4 477.64,-289.6 82.2,-289.6"/>
<text text-anchor="start" x="89.2" y="-301.8" font-family="Arial" font-size="14.00">amountTypeId </text>
<text text-anchor="start" x="182.58" y="-301.8" font-family="Arial" font-size="14.00" fill="#666666">[int unsigned]</text>
<polygon fill="none" stroke="black" points="82.2,-258.8 82.2,-289.6 477.64,-289.6 477.64,-258.8 82.2,-258.8"/>
<text text-anchor="start" x="89.2" y="-271" font-family="Arial" font-size="14.00">initiatingFsp </text>
<text text-anchor="start" x="167.79" y="-271" font-family="Arial" font-size="14.00" fill="#666666">[varchar(255)]</text>
<polygon fill="none" stroke="black" points="82.2,-228 82.2,-258.8 477.64,-258.8 477.64,-228 82.2,-228"/>
<text text-anchor="start" x="89.2" y="-240.2" font-family="Arial" font-size="14.00">counterPartyFsp </text>
<text text-anchor="start" x="195.8" y="-240.2" font-family="Arial" font-size="14.00" fill="#666666">[varchar(255)]</text>
<polygon fill="none" stroke="black" points="82.2,-197.2 82.2,-228 477.64,-228 477.64,-197.2 82.2,-197.2"/>
<text text-anchor="start" x="89.2" y="-209.4" font-family="Arial" font-size="14.00">sourceAmount </text>
<text text-anchor="start" x="183.35" y="-209.4" font-family="Arial" font-size="14.00" fill="#666666">[decimal(18,4)]</text>
<polygon fill="none" stroke="black" points="82.2,-166.4 82.2,-197.2 477.64,-197.2 477.64,-166.4 82.2,-166.4"/>
<text text-anchor="start" x="89.2" y="-178.6" font-family="Arial" font-size="14.00">sourceCurrency </text>
<text text-anchor="start" x="191.9" y="-178.6" font-family="Arial" font-size="14.00" fill="#666666">[varchar(3)]</text>
<polygon fill="none" stroke="black" points="82.2,-135.6 82.2,-166.4 477.64,-166.4 477.64,-135.6 82.2,-135.6"/>
<text text-anchor="start" x="89.2" y="-147.8" font-family="Arial" font-size="14.00">targetAmount </text>
<text text-anchor="start" x="177.13" y="-147.8" font-family="Arial" font-size="14.00" fill="#666666">[decimal(18,4)]</text>
<polygon fill="none" stroke="black" points="82.2,-104.8 82.2,-135.6 477.64,-135.6 477.64,-104.8 82.2,-104.8"/>
<text text-anchor="start" x="89.2" y="-117" font-family="Arial" font-size="14.00">targetCurrency </text>
<text text-anchor="start" x="185.68" y="-117" font-family="Arial" font-size="14.00" fill="#666666">[varchar(3)]</text>
<polygon fill="none" stroke="black" points="82.2,-74 82.2,-104.8 477.64,-104.8 477.64,-74 82.2,-74"/>
<text text-anchor="start" x="89.2" y="-86.2" font-family="Arial" font-size="14.00">expirationDate </text>
<text text-anchor="start" x="183.36" y="-86.2" font-family="Arial" font-size="14.00" fill="#666666">[datetime]</text>
<polygon fill="none" stroke="black" points="82.2,-43.2 82.2,-74 477.64,-74 477.64,-43.2 82.2,-43.2"/>
<text text-anchor="start" x="89.2" y="-55.4" font-family="Arial" font-size="14.00">createdDate </text>
<text text-anchor="start" x="169.35" y="-55.4" font-family="Arial" font-size="14.00" fill="#666666">[datetime]</text>
</g>
<!-- fxQuoteResponseConversionTermsExtension&#45;&gt;fxQuoteResponseConversionTerms -->
<g id="edge1" class="edge">
<title>fxQuoteResponseConversionTermsExtension:conversionId&#45;&gt;fxQuoteResponseConversionTerms:conversionId</title>
<path fill="none" stroke="black" d="M524.51,-709.77C574.13,-681.12 538.7,-428.2 478.64,-428.2"/>
<polygon fill="black" stroke="black" points="524.62,-709.74 513.8,-707.97 519.47,-711.11 515.28,-712.23 515.28,-712.23 515.28,-712.23 519.47,-711.11 516.12,-716.66 524.62,-709.74"/>
<text text-anchor="start" x="521.64" y="-722.4" font-family="Arial" font-size="10.00">FOREIGN KEY (conversionId) REFERENCES fxQuoteResponseConversionTerms (conversionId)</text>
</g>
</g>
</svg>
