<?xml version="1.0" encoding="UTF-8" standalone="no"?>
<!DOCTYPE svg PUBLIC "-//W3C//DTD SVG 1.1//EN"
 "http://www.w3.org/Graphics/SVG/1.1/DTD/svg11.dtd">
<!-- Generated by graphviz version 12.1.2 (20240928.0832)
 -->
<!-- Title: fxQuoteResponseDuplicateCheck Pages: 1 -->
<svg width="1222pt" height="540pt"
 viewBox="0.00 0.00 1222.40 540.40" xmlns="http://www.w3.org/2000/svg" xmlns:xlink="http://www.w3.org/1999/xlink">
<g id="graph0" class="graph" transform="scale(1 1) rotate(0) translate(4 536.4)">
<title>fxQuoteResponseDuplicateCheck</title>
<polygon fill="white" stroke="none" points="-4,4 -4,-536.4 1218.4,-536.4 1218.4,4 -4,4"/>
<!-- fxQuoteResponseDuplicateCheck -->
<g id="node1" class="node">
<title>fxQuoteResponseDuplicateCheck</title>
<polygon fill="#efefef" stroke="none" points="432.95,-450.6 432.95,-486.2 815.37,-486.2 815.37,-450.6 432.95,-450.6"/>
<polygon fill="none" stroke="black" points="432.95,-450.6 432.95,-486.2 815.37,-486.2 815.37,-450.6 432.95,-450.6"/>
<text text-anchor="start" x="439.95" y="-464" font-family="Arial Bold" font-size="18.00">fxQuoteResponseDuplicateCheck</text>
<text text-anchor="start" x="683.88" y="-464" font-family="Arial" font-size="14.00">    </text>
<text text-anchor="start" x="715" y="-464" font-family="Arial" font-size="14.00" fill="#666666">[BASE TABLE]</text>
<polygon fill="none" stroke="black" points="432.95,-419.8 432.95,-450.6 815.37,-450.6 815.37,-419.8 432.95,-419.8"/>
<text text-anchor="start" x="439.95" y="-432" font-family="Arial" font-size="14.00">fxQuoteResponseId </text>
<text text-anchor="start" x="567.58" y="-432" font-family="Arial" font-size="14.00" fill="#666666">[bigint unsigned]</text>
<polygon fill="none" stroke="black" points="432.95,-389 432.95,-419.8 815.37,-419.8 815.37,-389 432.95,-389"/>
<text text-anchor="start" x="439.95" y="-401.2" font-family="Arial" font-size="14.00">conversionRequestId </text>
<text text-anchor="start" x="575.36" y="-401.2" font-family="Arial" font-size="14.00" fill="#666666">[varchar(36)]</text>
<polygon fill="none" stroke="black" points="432.95,-358.2 432.95,-389 815.37,-389 815.37,-358.2 432.95,-358.2"/>
<text text-anchor="start" x="439.95" y="-370.4" font-family="Arial" font-size="14.00">hash </text>
<text text-anchor="start" x="474.2" y="-370.4" font-family="Arial" font-size="14.00" fill="#666666">[varchar(255)]</text>
<polygon fill="none" stroke="black" points="432.95,-327.4 432.95,-358.2 815.37,-358.2 815.37,-327.4 432.95,-327.4"/>
<text text-anchor="start" x="439.95" y="-339.6" font-family="Arial" font-size="14.00">createdDate </text>
<text text-anchor="start" x="520.11" y="-339.6" font-family="Arial" font-size="14.00" fill="#666666">[datetime]</text>
<polygon fill="none" stroke="black" stroke-width="3" points="431.45,-325.9 431.45,-487.7 816.87,-487.7 816.87,-325.9 431.45,-325.9"/>
</g>
<!-- fxQuoteResponse -->
<g id="node2" class="node">
<title>fxQuoteResponse</title>
<polygon fill="#efefef" stroke="none" points="314.93,-166.4 314.93,-202 581.39,-202 581.39,-166.4 314.93,-166.4"/>
<polygon fill="none" stroke="black" points="314.93,-166.4 314.93,-202 581.39,-202 581.39,-166.4 314.93,-166.4"/>
<text text-anchor="start" x="321.93" y="-179.8" font-family="Arial Bold" font-size="18.00">fxQuoteResponse</text>
<text text-anchor="start" x="449.9" y="-179.8" font-family="Arial" font-size="14.00">    </text>
<text text-anchor="start" x="481.02" y="-179.8" font-family="Arial" font-size="14.00" fill="#666666">[BASE TABLE]</text>
<polygon fill="none" stroke="black" points="314.93,-135.6 314.93,-166.4 581.39,-166.4 581.39,-135.6 314.93,-135.6"/>
<text text-anchor="start" x="321.93" y="-147.8" font-family="Arial" font-size="14.00">fxQuoteResponseId </text>
<text text-anchor="start" x="449.56" y="-147.8" font-family="Arial" font-size="14.00" fill="#666666">[bigint unsigned]</text>
<polygon fill="none" stroke="black" points="314.93,-104.8 314.93,-135.6 581.39,-135.6 581.39,-104.8 314.93,-104.8"/>
<text text-anchor="start" x="321.93" y="-117" font-family="Arial" font-size="14.00">conversionRequestId </text>
<text text-anchor="start" x="457.34" y="-117" font-family="Arial" font-size="14.00" fill="#666666">[varchar(36)]</text>
<polygon fill="none" stroke="black" points="314.93,-74 314.93,-104.8 581.39,-104.8 581.39,-74 314.93,-74"/>
<text text-anchor="start" x="321.93" y="-86.2" font-family="Arial" font-size="14.00">ilpCondition </text>
<text text-anchor="start" x="398.97" y="-86.2" font-family="Arial" font-size="14.00" fill="#666666">[varchar(256)]</text>
<polygon fill="none" stroke="black" points="314.93,-43.2 314.93,-74 581.39,-74 581.39,-43.2 314.93,-43.2"/>
<text text-anchor="start" x="321.93" y="-55.4" font-family="Arial" font-size="14.00">createdDate </text>
<text text-anchor="start" x="402.08" y="-55.4" font-family="Arial" font-size="14.00" fill="#666666">[datetime]</text>
</g>
<!-- fxQuoteResponseDuplicateCheck&#45;&gt;fxQuoteResponse -->
<g id="edge1" class="edge">
<title>fxQuoteResponseDuplicateCheck:fxQuoteResponseId&#45;&gt;fxQuoteResponse:fxQuoteResponseId</title>
<path fill="none" stroke="black" d="M421.56,-434.32C366.5,-424.37 392.79,-331.93 432.95,-281.2 475.09,-227.98 539.14,-298.34 581.39,-245.2 607.45,-212.43 624.26,-151 582.39,-151"/>
<polygon fill="black" stroke="black" points="421.65,-434.33 431.24,-439.66 426.97,-434.78 431.28,-435.14 431.28,-435.14 431.28,-435.14 426.97,-434.78 431.99,-430.69 421.65,-434.33"/>
<text text-anchor="start" x="7" y="-445.2" font-family="Arial" font-size="10.00">FOREIGN KEY (fxQuoteResponseId) REFERENCES fxQuoteResponse (fxQuoteResponseId)</text>
</g>
<!-- fxQuote -->
<g id="node3" class="node">
<title>fxQuote</title>
<polygon fill="#efefef" stroke="none" points="685.77,-135.6 685.77,-171.2 914.55,-171.2 914.55,-135.6 685.77,-135.6"/>
<polygon fill="none" stroke="black" points="685.77,-135.6 685.77,-171.2 914.55,-171.2 914.55,-135.6 685.77,-135.6"/>
<text text-anchor="start" x="708.42" y="-149" font-family="Arial Bold" font-size="18.00">fxQuote</text>
<text text-anchor="start" x="767.41" y="-149" font-family="Arial" font-size="14.00">    </text>
<text text-anchor="start" x="798.52" y="-149" font-family="Arial" font-size="14.00" fill="#666666">[BASE TABLE]</text>
<polygon fill="none" stroke="black" points="685.77,-104.8 685.77,-135.6 914.55,-135.6 914.55,-104.8 685.77,-104.8"/>
<text text-anchor="start" x="692.77" y="-117" font-family="Arial" font-size="14.00">conversionRequestId </text>
<text text-anchor="start" x="828.19" y="-117" font-family="Arial" font-size="14.00" fill="#666666">[varchar(36)]</text>
<polygon fill="none" stroke="black" points="685.77,-74 685.77,-104.8 914.55,-104.8 914.55,-74 685.77,-74"/>
<text text-anchor="start" x="692.77" y="-86.2" font-family="Arial" font-size="14.00">createdDate </text>
<text text-anchor="start" x="772.93" y="-86.2" font-family="Arial" font-size="14.00" fill="#666666">[datetime]</text>
</g>
<!-- fxQuoteResponseDuplicateCheck&#45;&gt;fxQuote -->
<g id="edge2" class="edge">
<title>fxQuoteResponseDuplicateCheck:conversionRequestId&#45;&gt;fxQuote:conversionRequestId</title>
<path fill="none" stroke="black" d="M826.73,-403.3C867.31,-393.78 842.04,-324.56 815.37,-281.2 781.42,-226.01 719.8,-269.55 685.77,-214.4 663.79,-178.77 642.9,-120.2 684.77,-120.2"/>
<polygon fill="black" stroke="black" points="826.65,-403.31 816.23,-399.89 821.34,-403.87 817.04,-404.33 817.04,-404.33 817.04,-404.33 821.34,-403.87 817.18,-408.84 826.65,-403.31"/>
<text text-anchor="start" x="823.37" y="-414.4" font-family="Arial" font-size="10.00">FOREIGN KEY (conversionRequestId) REFERENCES fxQuote (conversionRequestId)</text>
</g>
</g>
</svg>
