<?xml version="1.0" encoding="UTF-8" standalone="no"?>
<!DOCTYPE svg PUBLIC "-//W3C//DTD SVG 1.1//EN"
 "http://www.w3.org/Graphics/SVG/1.1/DTD/svg11.dtd">
<!-- Generated by graphviz version 12.1.2 (20240928.0832)
 -->
<!-- Title: fxQuoteResponseConversionTerms Pages: 1 -->
<svg width="1578pt" height="760pt"
 viewBox="0.00 0.00 1577.77 760.00" xmlns="http://www.w3.org/2000/svg" xmlns:xlink="http://www.w3.org/1999/xlink">
<g id="graph0" class="graph" transform="scale(1 1) rotate(0) translate(4 756)">
<title>fxQuoteResponseConversionTerms</title>
<polygon fill="white" stroke="none" points="-4,4 -4,-756 1573.77,-756 1573.77,4 -4,4"/>
<!-- fxQuoteResponseConversionTerms -->
<g id="node1" class="node">
<title>fxQuoteResponseConversionTerms</title>
<polygon fill="#efefef" stroke="none" points="512.96,-450.6 512.96,-486.2 1210.21,-486.2 1210.21,-450.6 512.96,-450.6"/>
<polygon fill="none" stroke="black" points="512.96,-450.6 512.96,-486.2 1210.21,-486.2 1210.21,-450.6 512.96,-450.6"/>
<text text-anchor="start" x="670.86" y="-464" font-family="Arial Bold" font-size="18.00">fxQuoteResponseConversionTerms</text>
<text text-anchor="start" x="927.82" y="-464" font-family="Arial" font-size="14.00">    </text>
<text text-anchor="start" x="958.94" y="-464" font-family="Arial" font-size="14.00" fill="#666666">[BASE TABLE]</text>
<polygon fill="none" stroke="black" points="512.96,-419.8 512.96,-450.6 1210.21,-450.6 1210.21,-419.8 512.96,-419.8"/>
<text text-anchor="start" x="519.96" y="-432" font-family="Arial" font-size="14.00">conversionId </text>
<text text-anchor="start" x="603.23" y="-432" font-family="Arial" font-size="14.00" fill="#666666">[varchar(255)]</text>
<polygon fill="none" stroke="black" points="512.96,-389 512.96,-419.8 1210.21,-419.8 1210.21,-389 512.96,-389"/>
<text text-anchor="start" x="519.96" y="-401.2" font-family="Arial" font-size="14.00">conversionRequestId </text>
<text text-anchor="start" x="655.38" y="-401.2" font-family="Arial" font-size="14.00" fill="#666666">[varchar(36)]</text>
<polygon fill="none" stroke="black" points="512.96,-358.2 512.96,-389 1210.21,-389 1210.21,-358.2 512.96,-358.2"/>
<text text-anchor="start" x="519.96" y="-370.4" font-family="Arial" font-size="14.00">fxQuoteResponseId </text>
<text text-anchor="start" x="647.6" y="-370.4" font-family="Arial" font-size="14.00" fill="#666666">[bigint unsigned]</text>
<polygon fill="none" stroke="black" points="512.96,-327.4 512.96,-358.2 1210.21,-358.2 1210.21,-327.4 512.96,-327.4"/>
<text text-anchor="start" x="519.96" y="-339.6" font-family="Arial" font-size="14.00">amountTypeId </text>
<text text-anchor="start" x="613.35" y="-339.6" font-family="Arial" font-size="14.00" fill="#666666">[int unsigned]</text>
<text text-anchor="start" x="696.63" y="-339.6" font-family="Arial" font-size="14.00"> This is part of the transaction type that contains valid elements for &#45; Amount Type</text>
<polygon fill="none" stroke="black" points="512.96,-296.6 512.96,-327.4 1210.21,-327.4 1210.21,-296.6 512.96,-296.6"/>
<text text-anchor="start" x="519.96" y="-308.8" font-family="Arial" font-size="14.00">sourceCurrency </text>
<text text-anchor="start" x="622.67" y="-308.8" font-family="Arial" font-size="14.00" fill="#666666">[varchar(3)]</text>
<polygon fill="none" stroke="black" points="512.96,-265.8 512.96,-296.6 1210.21,-296.6 1210.21,-265.8 512.96,-265.8"/>
<text text-anchor="start" x="519.96" y="-278" font-family="Arial" font-size="14.00">targetCurrency </text>
<text text-anchor="start" x="616.45" y="-278" font-family="Arial" font-size="14.00" fill="#666666">[varchar(3)]</text>
<polygon fill="none" stroke="black" stroke-width="3" points="511.46,-264.3 511.46,-487.7 1211.71,-487.7 1211.71,-264.3 511.46,-264.3"/>
</g>
<!-- fxQuote -->
<g id="node4" class="node">
<title>fxQuote</title>
<polygon fill="#efefef" stroke="none" points="43.2,-89.4 43.2,-125 271.97,-125 271.97,-89.4 43.2,-89.4"/>
<polygon fill="none" stroke="black" points="43.2,-89.4 43.2,-125 271.97,-125 271.97,-89.4 43.2,-89.4"/>
<text text-anchor="start" x="65.85" y="-102.8" font-family="Arial Bold" font-size="18.00">fxQuote</text>
<text text-anchor="start" x="124.83" y="-102.8" font-family="Arial" font-size="14.00">    </text>
<text text-anchor="start" x="155.95" y="-102.8" font-family="Arial" font-size="14.00" fill="#666666">[BASE TABLE]</text>
<polygon fill="none" stroke="black" points="43.2,-58.6 43.2,-89.4 271.97,-89.4 271.97,-58.6 43.2,-58.6"/>
<text text-anchor="start" x="50.2" y="-70.8" font-family="Arial" font-size="14.00">conversionRequestId </text>
<text text-anchor="start" x="185.61" y="-70.8" font-family="Arial" font-size="14.00" fill="#666666">[varchar(36)]</text>
</g>
<!-- fxQuoteResponseConversionTerms&#45;&gt;fxQuote -->
<g id="edge3" class="edge">
<title>fxQuoteResponseConversionTerms:conversionRequestId&#45;&gt;fxQuote:conversionRequestId</title>
<path fill="none" stroke="black" d="M501.71,-404.15C383.8,-398.25 392.34,-288.87 324.59,-183.6 295.44,-138.33 326.81,-74 272.97,-74"/>
<polygon fill="black" stroke="black" points="501.63,-404.15 511.52,-408.89 506.96,-404.28 511.29,-404.38 511.29,-404.38 511.29,-404.38 506.96,-404.28 511.74,-399.89 501.63,-404.15"/>
<text text-anchor="start" x="120.93" y="-414.4" font-family="Arial" font-size="10.00">FOREIGN KEY (conversionRequestId) REFERENCES fxQuote (conversionRequestId)</text>
</g>
<!-- fxQuoteResponse -->
<g id="node5" class="node">
<title>fxQuoteResponse</title>
<polygon fill="#efefef" stroke="none" points="376.35,-104.8 376.35,-140.4 642.82,-140.4 642.82,-104.8 376.35,-104.8"/>
<polygon fill="none" stroke="black" points="376.35,-104.8 376.35,-140.4 642.82,-140.4 642.82,-104.8 376.35,-104.8"/>
<text text-anchor="start" x="383.35" y="-118.2" font-family="Arial Bold" font-size="18.00">fxQuoteResponse</text>
<text text-anchor="start" x="511.33" y="-118.2" font-family="Arial" font-size="14.00">    </text>
<text text-anchor="start" x="542.45" y="-118.2" font-family="Arial" font-size="14.00" fill="#666666">[BASE TABLE]</text>
<polygon fill="none" stroke="black" points="376.35,-74 376.35,-104.8 642.82,-104.8 642.82,-74 376.35,-74"/>
<text text-anchor="start" x="383.35" y="-86.2" font-family="Arial" font-size="14.00">fxQuoteResponseId </text>
<text text-anchor="start" x="510.99" y="-86.2" font-family="Arial" font-size="14.00" fill="#666666">[bigint unsigned]</text>
<polygon fill="none" stroke="black" points="376.35,-43.2 376.35,-74 642.82,-74 642.82,-43.2 376.35,-43.2"/>
<text text-anchor="start" x="383.35" y="-55.4" font-family="Arial" font-size="14.00">conversionRequestId </text>
<text text-anchor="start" x="518.77" y="-55.4" font-family="Arial" font-size="14.00" fill="#666666">[varchar(36)]</text>
</g>
<!-- fxQuoteResponseConversionTerms&#45;&gt;fxQuoteResponse -->
<g id="edge4" class="edge">
<title>fxQuoteResponseConversionTerms:fxQuoteResponseId&#45;&gt;fxQuoteResponse:fxQuoteResponseId</title>
<path fill="none" stroke="black" d="M501.58,-372.73C446.6,-362.84 473.63,-270.97 512.96,-219.6 549.37,-172.05 606.31,-231.08 642.82,-183.6 668.34,-150.41 685.69,-89.4 643.82,-89.4"/>
<polygon fill="black" stroke="black" points="501.66,-372.74 511.25,-378.06 506.98,-373.18 511.3,-373.54 511.3,-373.54 511.3,-373.54 506.98,-373.18 512.01,-369.09 501.66,-372.74"/>
<text text-anchor="start" x="87.01" y="-383.6" font-family="Arial" font-size="10.00">FOREIGN KEY (fxQuoteResponseId) REFERENCES fxQuoteResponse (fxQuoteResponseId)</text>
</g>
<!-- amountType -->
<g id="node6" class="node">
<title>amountType</title>
<polygon fill="#efefef" stroke="none" points="746.85,-89.4 746.85,-125 976.32,-125 976.32,-89.4 746.85,-89.4"/>
<polygon fill="none" stroke="black" points="746.85,-89.4 746.85,-125 976.32,-125 976.32,-89.4 746.85,-89.4"/>
<text text-anchor="start" x="753.85" y="-102.8" font-family="Arial Bold" font-size="18.00">amountType</text>
<text text-anchor="start" x="844.83" y="-102.8" font-family="Arial" font-size="14.00">    </text>
<text text-anchor="start" x="875.95" y="-102.8" font-family="Arial" font-size="14.00" fill="#666666">[BASE TABLE]</text>
<polygon fill="none" stroke="black" points="746.85,-58.6 746.85,-89.4 976.32,-89.4 976.32,-58.6 746.85,-58.6"/>
<text text-anchor="start" x="753.85" y="-70.8" font-family="Arial" font-size="14.00">amountTypeId </text>
<text text-anchor="start" x="847.24" y="-70.8" font-family="Arial" font-size="14.00" fill="#666666">[int unsigned]</text>
</g>
<!-- fxQuoteResponseConversionTerms&#45;&gt;amountType -->
<g id="edge5" class="edge">
<title>fxQuoteResponseConversionTerms:amountTypeId&#45;&gt;amountType:amountTypeId</title>
<path fill="none" stroke="black" d="M1221.4,-341.7C1263.05,-331.9 1242.74,-258.89 1210.21,-219.6 1157.72,-156.22 1083.08,-245.26 1028.59,-183.6 1010.14,-162.73 1039.85,-77.63 1019.52,-58.6 968.27,-10.63 861.59,12.59 861.59,-57.6"/>
<polygon fill="black" stroke="black" points="1221.48,-341.69 1211.06,-338.29 1216.18,-342.26 1211.87,-342.73 1211.87,-342.73 1211.87,-342.73 1216.18,-342.26 1212.02,-347.24 1221.48,-341.69"/>
<text text-anchor="start" x="1218.21" y="-352.8" font-family="Arial" font-size="10.00">FOREIGN KEY (amountTypeId) REFERENCES amountType (amountTypeId)</text>
</g>
<!-- currency -->
<g id="node7" class="node">
<title>currency</title>
<polygon fill="#efefef" stroke="none" points="1080.86,-89.4 1080.86,-125 1282.31,-125 1282.31,-89.4 1080.86,-89.4"/>
<polygon fill="none" stroke="black" points="1080.86,-89.4 1080.86,-125 1282.31,-125 1282.31,-89.4 1080.86,-89.4"/>
<text text-anchor="start" x="1087.86" y="-102.8" font-family="Arial Bold" font-size="18.00">currency</text>
<text text-anchor="start" x="1150.82" y="-102.8" font-family="Arial" font-size="14.00">    </text>
<text text-anchor="start" x="1181.94" y="-102.8" font-family="Arial" font-size="14.00" fill="#666666">[BASE TABLE]</text>
<polygon fill="none" stroke="black" points="1080.86,-58.6 1080.86,-89.4 1282.31,-89.4 1282.31,-58.6 1080.86,-58.6"/>
<text text-anchor="start" x="1087.86" y="-70.8" font-family="Arial" font-size="14.00">currencyId </text>
<text text-anchor="start" x="1157.11" y="-70.8" font-family="Arial" font-size="14.00" fill="#666666">[varchar(3)]</text>
</g>
<!-- fxQuoteResponseConversionTerms&#45;&gt;currency -->
<g id="edge6" class="edge">
<title>fxQuoteResponseConversionTerms:sourceCurrency&#45;&gt;currency:currencyId</title>
<path fill="none" stroke="black" d="M1221.23,-310.52C1248.71,-301.24 1231.28,-250.28 1210.21,-219.6 1175.19,-168.6 1115.87,-219.2 1080.86,-168.2 1057.17,-133.68 1037.99,-74 1079.86,-74"/>
<polygon fill="black" stroke="black" points="1221.43,-310.49 1210.88,-307.5 1216.15,-311.27 1211.87,-311.9 1211.87,-311.9 1211.87,-311.9 1216.15,-311.27 1212.19,-316.4 1221.43,-310.49"/>
<text text-anchor="start" x="1218.21" y="-322" font-family="Arial" font-size="10.00">FOREIGN KEY (sourceCurrency) REFERENCES currency (currencyId)</text>
</g>
<!-- fxQuoteResponseConversionTerms&#45;&gt;currency -->
<g id="edge7" class="edge">
<title>fxQuoteResponseConversionTerms:targetCurrency&#45;&gt;currency:currencyId</title>
<path fill="none" stroke="black" d="M1221.24,-278.55C1234.52,-269.39 1223.34,-238.61 1210.21,-219.6 1175.06,-168.7 1115.87,-219.2 1080.86,-168.2 1057.17,-133.68 1037.99,-74 1079.86,-74"/>
<polygon fill="black" stroke="black" points="1221.2,-278.56 1210.38,-276.76 1216.04,-279.92 1211.86,-281.03 1211.86,-281.03 1211.86,-281.03 1216.04,-279.92 1212.68,-285.47 1221.2,-278.56"/>
<text text-anchor="start" x="1218.21" y="-291.2" font-family="Arial" font-size="10.00">FOREIGN KEY (targetCurrency) REFERENCES currency (currencyId)</text>
</g>
<!-- fxCharge -->
<g id="node2" class="node">
<title>fxCharge</title>
<polygon fill="#efefef" stroke="none" points="538.85,-673.2 538.85,-708.8 744.32,-708.8 744.32,-673.2 538.85,-673.2"/>
<polygon fill="none" stroke="black" points="538.85,-673.2 538.85,-708.8 744.32,-708.8 744.32,-673.2 538.85,-673.2"/>
<text text-anchor="start" x="545.85" y="-686.6" font-family="Arial Bold" font-size="18.00">fxCharge</text>
<text text-anchor="start" x="612.83" y="-686.6" font-family="Arial" font-size="14.00">    </text>
<text text-anchor="start" x="643.94" y="-686.6" font-family="Arial" font-size="14.00" fill="#666666">[BASE TABLE]</text>
<polygon fill="none" stroke="black" points="538.85,-642.4 538.85,-673.2 744.32,-673.2 744.32,-642.4 538.85,-642.4"/>
<text text-anchor="start" x="545.85" y="-654.6" font-family="Arial" font-size="14.00">fxChargeId </text>
<text text-anchor="start" x="618.23" y="-654.6" font-family="Arial" font-size="14.00" fill="#666666">[bigint unsigned]</text>
<polygon fill="none" stroke="black" points="538.85,-611.6 538.85,-642.4 744.32,-642.4 744.32,-611.6 538.85,-611.6"/>
<text text-anchor="start" x="545.85" y="-623.8" font-family="Arial" font-size="14.00">conversionId </text>
<text text-anchor="start" x="629.12" y="-623.8" font-family="Arial" font-size="14.00" fill="#666666">[varchar(36)]</text>
</g>
<!-- fxCharge&#45;&gt;fxQuoteResponseConversionTerms -->
<g id="edge1" class="edge">
<title>fxCharge:conversionId&#45;&gt;fxQuoteResponseConversionTerms:conversionId</title>
<path fill="none" stroke="black" d="M755,-624.37C768.08,-615.3 758.75,-584.97 744.32,-568.4 675.96,-489.94 581.06,-611.09 512.96,-532.4 484.69,-499.73 468.76,-435.2 511.96,-435.2"/>
<polygon fill="black" stroke="black" points="755.29,-624.29 744.46,-622.57 750.14,-625.69 745.96,-626.82 745.96,-626.82 745.96,-626.82 750.14,-625.69 746.82,-631.25 755.29,-624.29"/>
<text text-anchor="start" x="304.84" y="-637" font-family="Arial" font-size="10.00">FOREIGN KEY (conversionId) REFERENCES fxQuoteResponseConversionTerms (conversionId)</text>
</g>
<!-- fxQuoteResponseConversionTermsExtension -->
<g id="node3" class="node">
<title>fxQuoteResponseConversionTermsExtension</title>
<polygon fill="#efefef" stroke="none" points="848.87,-673.2 848.87,-708.8 1316.3,-708.8 1316.3,-673.2 848.87,-673.2"/>
<polygon fill="none" stroke="black" points="848.87,-673.2 848.87,-708.8 1316.3,-708.8 1316.3,-673.2 848.87,-673.2"/>
<text text-anchor="start" x="855.87" y="-686.6" font-family="Arial Bold" font-size="18.00">fxQuoteResponseConversionTermsExtension</text>
<text text-anchor="start" x="1184.82" y="-686.6" font-family="Arial" font-size="14.00">    </text>
<text text-anchor="start" x="1215.93" y="-686.6" font-family="Arial" font-size="14.00" fill="#666666">[BASE TABLE]</text>
<polygon fill="none" stroke="black" points="848.87,-642.4 848.87,-673.2 1316.3,-673.2 1316.3,-642.4 848.87,-642.4"/>
<text text-anchor="start" x="855.87" y="-654.6" font-family="Arial" font-size="14.00">fxQuoteResponseConversionTermsExtension </text>
<text text-anchor="start" x="1143.78" y="-654.6" font-family="Arial" font-size="14.00" fill="#666666">[bigint unsigned]</text>
<polygon fill="none" stroke="black" points="848.87,-611.6 848.87,-642.4 1316.3,-642.4 1316.3,-611.6 848.87,-611.6"/>
<text text-anchor="start" x="855.87" y="-623.8" font-family="Arial" font-size="14.00">conversionId </text>
<text text-anchor="start" x="939.14" y="-623.8" font-family="Arial" font-size="14.00" fill="#666666">[varchar(36)]</text>
</g>
<!-- fxQuoteResponseConversionTermsExtension&#45;&gt;fxQuoteResponseConversionTerms -->
<g id="edge2" class="edge">
<title>fxQuoteResponseConversionTermsExtension:conversionId&#45;&gt;fxQuoteResponseConversionTerms:conversionId</title>
<path fill="none" stroke="black" d="M838.15,-624.34C824.96,-615.17 833.98,-584.57 848.87,-568.4 903.53,-509.04 1155.74,-591.94 1210.21,-532.4 1239.37,-500.52 1254.41,-435.2 1211.21,-435.2"/>
<polygon fill="black" stroke="black" points="837.9,-624.27 846.36,-631.25 843.04,-625.68 847.22,-626.82 847.22,-626.82 847.22,-626.82 843.04,-625.68 848.73,-622.57 837.9,-624.27"/>
<text text-anchor="start" x="854.87" y="-637" font-family="Arial" font-size="10.00">FOREIGN KEY (conversionId) REFERENCES fxQuoteResponseConversionTerms (conversionId)</text>
</g>
</g>
</svg>
