<?xml version="1.0" encoding="UTF-8" standalone="no"?>
<!DOCTYPE svg PUBLIC "-//W3C//DTD SVG 1.1//EN"
 "http://www.w3.org/Graphics/SVG/1.1/DTD/svg11.dtd">
<!-- Generated by graphviz version 12.1.2 (20240928.0832)
 -->
<!-- Title: fxQuoteResponse Pages: 1 -->
<svg width="1474pt" height="1037pt"
 viewBox="0.00 0.00 1473.89 1037.20" xmlns="http://www.w3.org/2000/svg" xmlns:xlink="http://www.w3.org/1999/xlink">
<g id="graph0" class="graph" transform="scale(1 1) rotate(0) translate(4 1033.2)">
<title>fxQuoteResponse</title>
<polygon fill="white" stroke="none" points="-4,4 -4,-1033.2 1469.89,-1033.2 1469.89,4 -4,4"/>
<!-- fxQuoteResponse -->
<g id="node1" class="node">
<title>fxQuoteResponse</title>
<polygon fill="#efefef" stroke="none" points="599.92,-389 599.92,-424.6 866.38,-424.6 866.38,-389 599.92,-389"/>
<polygon fill="none" stroke="black" points="599.92,-389 599.92,-424.6 866.38,-424.6 866.38,-389 599.92,-389"/>
<text text-anchor="start" x="606.92" y="-402.4" font-family="Arial Bold" font-size="18.00">fxQuoteResponse</text>
<text text-anchor="start" x="734.89" y="-402.4" font-family="Arial" font-size="14.00">    </text>
<text text-anchor="start" x="766.01" y="-402.4" font-family="Arial" font-size="14.00" fill="#666666">[BASE TABLE]</text>
<polygon fill="none" stroke="black" points="599.92,-358.2 599.92,-389 866.38,-389 866.38,-358.2 599.92,-358.2"/>
<text text-anchor="start" x="606.92" y="-370.4" font-family="Arial" font-size="14.00">fxQuoteResponseId </text>
<text text-anchor="start" x="734.55" y="-370.4" font-family="Arial" font-size="14.00" fill="#666666">[bigint unsigned]</text>
<polygon fill="none" stroke="black" points="599.92,-327.4 599.92,-358.2 866.38,-358.2 866.38,-327.4 599.92,-327.4"/>
<text text-anchor="start" x="606.92" y="-339.6" font-family="Arial" font-size="14.00">conversionRequestId </text>
<text text-anchor="start" x="742.33" y="-339.6" font-family="Arial" font-size="14.00" fill="#666666">[varchar(36)]</text>
<polygon fill="none" stroke="black" points="599.92,-296.6 599.92,-327.4 866.38,-327.4 866.38,-296.6 599.92,-296.6"/>
<text text-anchor="start" x="606.92" y="-308.8" font-family="Arial" font-size="14.00">ilpCondition </text>
<text text-anchor="start" x="683.96" y="-308.8" font-family="Arial" font-size="14.00" fill="#666666">[varchar(256)]</text>
<polygon fill="none" stroke="black" points="599.92,-265.8 599.92,-296.6 866.38,-296.6 866.38,-265.8 599.92,-265.8"/>
<text text-anchor="start" x="606.92" y="-278" font-family="Arial" font-size="14.00">createdDate </text>
<text text-anchor="start" x="687.07" y="-278" font-family="Arial" font-size="14.00" fill="#666666">[datetime]</text>
<polygon fill="none" stroke="black" stroke-width="3" points="598.42,-264.3 598.42,-426.1 867.88,-426.1 867.88,-264.3 598.42,-264.3"/>
</g>
<!-- fxQuote -->
<g id="node5" class="node">
<title>fxQuote</title>
<polygon fill="#efefef" stroke="none" points="618.76,-104.8 618.76,-140.4 847.54,-140.4 847.54,-104.8 618.76,-104.8"/>
<polygon fill="none" stroke="black" points="618.76,-104.8 618.76,-140.4 847.54,-140.4 847.54,-104.8 618.76,-104.8"/>
<text text-anchor="start" x="641.41" y="-118.2" font-family="Arial Bold" font-size="18.00">fxQuote</text>
<text text-anchor="start" x="700.4" y="-118.2" font-family="Arial" font-size="14.00">    </text>
<text text-anchor="start" x="731.51" y="-118.2" font-family="Arial" font-size="14.00" fill="#666666">[BASE TABLE]</text>
<polygon fill="none" stroke="black" points="618.76,-74 618.76,-104.8 847.54,-104.8 847.54,-74 618.76,-74"/>
<text text-anchor="start" x="625.76" y="-86.2" font-family="Arial" font-size="14.00">conversionRequestId </text>
<text text-anchor="start" x="761.18" y="-86.2" font-family="Arial" font-size="14.00" fill="#666666">[varchar(36)]</text>
<polygon fill="none" stroke="black" points="618.76,-43.2 618.76,-74 847.54,-74 847.54,-43.2 618.76,-43.2"/>
<text text-anchor="start" x="625.76" y="-55.4" font-family="Arial" font-size="14.00">createdDate </text>
<text text-anchor="start" x="705.92" y="-55.4" font-family="Arial" font-size="14.00" fill="#666666">[datetime]</text>
</g>
<!-- fxQuoteResponse&#45;&gt;fxQuote -->
<g id="edge4" class="edge">
<title>fxQuoteResponse:conversionRequestId&#45;&gt;fxQuote:conversionRequestId</title>
<path fill="none" stroke="black" d="M877.59,-342.07C979.05,-327.21 957.94,-89.4 848.54,-89.4"/>
<polygon fill="black" stroke="black" points="877.69,-342.07 867.4,-338.29 872.37,-342.44 868.05,-342.75 868.05,-342.75 868.05,-342.75 872.37,-342.44 868.04,-347.26 877.69,-342.07"/>
<text text-anchor="start" x="874.38" y="-352.8" font-family="Arial" font-size="10.00">FOREIGN KEY (conversionRequestId) REFERENCES fxQuote (conversionRequestId)</text>
</g>
<!-- fxQuoteError -->
<g id="node2" class="node">
<title>fxQuoteError</title>
<polygon fill="#efefef" stroke="none" points="187.35,-842.6 187.35,-878.2 430.95,-878.2 430.95,-842.6 187.35,-842.6"/>
<polygon fill="none" stroke="black" points="187.35,-842.6 187.35,-878.2 430.95,-878.2 430.95,-842.6 187.35,-842.6"/>
<text text-anchor="start" x="198.42" y="-856" font-family="Arial Bold" font-size="18.00">fxQuoteError</text>
<text text-anchor="start" x="295.39" y="-856" font-family="Arial" font-size="14.00">    </text>
<text text-anchor="start" x="326.5" y="-856" font-family="Arial" font-size="14.00" fill="#666666">[BASE TABLE]</text>
<polygon fill="none" stroke="black" points="187.35,-811.8 187.35,-842.6 430.95,-842.6 430.95,-811.8 187.35,-811.8"/>
<text text-anchor="start" x="194.35" y="-824" font-family="Arial" font-size="14.00">fxQuoteErrorId </text>
<text text-anchor="start" x="290.05" y="-824" font-family="Arial" font-size="14.00" fill="#666666">[bigint unsigned]</text>
<polygon fill="none" stroke="black" points="187.35,-781 187.35,-811.8 430.95,-811.8 430.95,-781 187.35,-781"/>
<text text-anchor="start" x="194.35" y="-793.2" font-family="Arial" font-size="14.00">conversionRequestId </text>
<text text-anchor="start" x="329.76" y="-793.2" font-family="Arial" font-size="14.00" fill="#666666">[varchar(36)]</text>
<polygon fill="none" stroke="black" points="187.35,-750.2 187.35,-781 430.95,-781 430.95,-750.2 187.35,-750.2"/>
<text text-anchor="start" x="194.35" y="-762.4" font-family="Arial" font-size="14.00">fxQuoteResponseId </text>
<text text-anchor="start" x="321.98" y="-762.4" font-family="Arial" font-size="14.00" fill="#666666">[bigint unsigned]</text>
<polygon fill="none" stroke="black" points="187.35,-719.4 187.35,-750.2 430.95,-750.2 430.95,-719.4 187.35,-719.4"/>
<text text-anchor="start" x="194.35" y="-731.6" font-family="Arial" font-size="14.00">errorCode </text>
<text text-anchor="start" x="261.27" y="-731.6" font-family="Arial" font-size="14.00" fill="#666666">[int unsigned]</text>
<polygon fill="none" stroke="black" points="187.35,-688.6 187.35,-719.4 430.95,-719.4 430.95,-688.6 187.35,-688.6"/>
<text text-anchor="start" x="194.35" y="-700.8" font-family="Arial" font-size="14.00">errorDescription </text>
<text text-anchor="start" x="297.83" y="-700.8" font-family="Arial" font-size="14.00" fill="#666666">[varchar(128)]</text>
<polygon fill="none" stroke="black" points="187.35,-657.8 187.35,-688.6 430.95,-688.6 430.95,-657.8 187.35,-657.8"/>
<text text-anchor="start" x="194.35" y="-670" font-family="Arial" font-size="14.00">createdDate </text>
<text text-anchor="start" x="274.51" y="-670" font-family="Arial" font-size="14.00" fill="#666666">[datetime]</text>
</g>
<!-- fxQuoteError&#45;&gt;fxQuoteResponse -->
<g id="edge1" class="edge">
<title>fxQuoteError:fxQuoteResponseId&#45;&gt;fxQuoteResponse:fxQuoteResponseId</title>
<path fill="none" stroke="black" d="M441.9,-763.27C486.65,-740.43 458.98,-556.16 483.15,-506.8 517.65,-436.36 520.48,-373.6 598.92,-373.6"/>
<polygon fill="black" stroke="black" points="442.01,-763.25 431.25,-761.14 436.82,-764.46 432.6,-765.45 432.6,-765.45 432.6,-765.45 436.82,-764.46 433.3,-769.91 442.01,-763.25"/>
<text text-anchor="start" x="7" y="-775.6" font-family="Arial" font-size="10.00">FOREIGN KEY (fxQuoteResponseId) REFERENCES fxQuoteResponse (fxQuoteResponseId)</text>
</g>
<!-- fxQuoteResponseConversionTerms -->
<g id="node3" class="node">
<title>fxQuoteResponseConversionTerms</title>
<polygon fill="#efefef" stroke="none" points="535.43,-950.4 535.43,-986 930.87,-986 930.87,-950.4 535.43,-950.4"/>
<polygon fill="none" stroke="black" points="535.43,-950.4 535.43,-986 930.87,-986 930.87,-950.4 535.43,-950.4"/>
<text text-anchor="start" x="542.43" y="-963.8" font-family="Arial Bold" font-size="18.00">fxQuoteResponseConversionTerms</text>
<text text-anchor="start" x="799.38" y="-963.8" font-family="Arial" font-size="14.00">    </text>
<text text-anchor="start" x="830.5" y="-963.8" font-family="Arial" font-size="14.00" fill="#666666">[BASE TABLE]</text>
<polygon fill="none" stroke="black" points="535.43,-919.6 535.43,-950.4 930.87,-950.4 930.87,-919.6 535.43,-919.6"/>
<text text-anchor="start" x="542.43" y="-931.8" font-family="Arial" font-size="14.00">conversionId </text>
<text text-anchor="start" x="625.7" y="-931.8" font-family="Arial" font-size="14.00" fill="#666666">[varchar(255)]</text>
<polygon fill="none" stroke="black" points="535.43,-888.8 535.43,-919.6 930.87,-919.6 930.87,-888.8 535.43,-888.8"/>
<text text-anchor="start" x="542.43" y="-901" font-family="Arial" font-size="14.00">determiningTransferId </text>
<text text-anchor="start" x="683.27" y="-901" font-family="Arial" font-size="14.00" fill="#666666">[varchar(36)]</text>
<polygon fill="none" stroke="black" points="535.43,-858 535.43,-888.8 930.87,-888.8 930.87,-858 535.43,-858"/>
<text text-anchor="start" x="542.43" y="-870.2" font-family="Arial" font-size="14.00">conversionRequestId </text>
<text text-anchor="start" x="677.84" y="-870.2" font-family="Arial" font-size="14.00" fill="#666666">[varchar(36)]</text>
<polygon fill="none" stroke="black" points="535.43,-827.2 535.43,-858 930.87,-858 930.87,-827.2 535.43,-827.2"/>
<text text-anchor="start" x="542.43" y="-839.4" font-family="Arial" font-size="14.00">fxQuoteResponseId </text>
<text text-anchor="start" x="670.06" y="-839.4" font-family="Arial" font-size="14.00" fill="#666666">[bigint unsigned]</text>
<polygon fill="none" stroke="black" points="535.43,-796.4 535.43,-827.2 930.87,-827.2 930.87,-796.4 535.43,-796.4"/>
<text text-anchor="start" x="542.43" y="-808.6" font-family="Arial" font-size="14.00">amountTypeId </text>
<text text-anchor="start" x="635.81" y="-808.6" font-family="Arial" font-size="14.00" fill="#666666">[int unsigned]</text>
<polygon fill="none" stroke="black" points="535.43,-765.6 535.43,-796.4 930.87,-796.4 930.87,-765.6 535.43,-765.6"/>
<text text-anchor="start" x="542.43" y="-777.8" font-family="Arial" font-size="14.00">initiatingFsp </text>
<text text-anchor="start" x="621.02" y="-777.8" font-family="Arial" font-size="14.00" fill="#666666">[varchar(255)]</text>
<polygon fill="none" stroke="black" points="535.43,-734.8 535.43,-765.6 930.87,-765.6 930.87,-734.8 535.43,-734.8"/>
<text text-anchor="start" x="542.43" y="-747" font-family="Arial" font-size="14.00">counterPartyFsp </text>
<text text-anchor="start" x="649.03" y="-747" font-family="Arial" font-size="14.00" fill="#666666">[varchar(255)]</text>
<polygon fill="none" stroke="black" points="535.43,-704 535.43,-734.8 930.87,-734.8 930.87,-704 535.43,-704"/>
<text text-anchor="start" x="542.43" y="-716.2" font-family="Arial" font-size="14.00">sourceAmount </text>
<text text-anchor="start" x="636.58" y="-716.2" font-family="Arial" font-size="14.00" fill="#666666">[decimal(18,4)]</text>
<polygon fill="none" stroke="black" points="535.43,-673.2 535.43,-704 930.87,-704 930.87,-673.2 535.43,-673.2"/>
<text text-anchor="start" x="542.43" y="-685.4" font-family="Arial" font-size="14.00">sourceCurrency </text>
<text text-anchor="start" x="645.13" y="-685.4" font-family="Arial" font-size="14.00" fill="#666666">[varchar(3)]</text>
<polygon fill="none" stroke="black" points="535.43,-642.4 535.43,-673.2 930.87,-673.2 930.87,-642.4 535.43,-642.4"/>
<text text-anchor="start" x="542.43" y="-654.6" font-family="Arial" font-size="14.00">targetAmount </text>
<text text-anchor="start" x="630.36" y="-654.6" font-family="Arial" font-size="14.00" fill="#666666">[decimal(18,4)]</text>
<polygon fill="none" stroke="black" points="535.43,-611.6 535.43,-642.4 930.87,-642.4 930.87,-611.6 535.43,-611.6"/>
<text text-anchor="start" x="542.43" y="-623.8" font-family="Arial" font-size="14.00">targetCurrency </text>
<text text-anchor="start" x="638.91" y="-623.8" font-family="Arial" font-size="14.00" fill="#666666">[varchar(3)]</text>
<polygon fill="none" stroke="black" points="535.43,-580.8 535.43,-611.6 930.87,-611.6 930.87,-580.8 535.43,-580.8"/>
<text text-anchor="start" x="542.43" y="-593" font-family="Arial" font-size="14.00">expirationDate </text>
<text text-anchor="start" x="636.59" y="-593" font-family="Arial" font-size="14.00" fill="#666666">[datetime]</text>
<polygon fill="none" stroke="black" points="535.43,-550 535.43,-580.8 930.87,-580.8 930.87,-550 535.43,-550"/>
<text text-anchor="start" x="542.43" y="-562.2" font-family="Arial" font-size="14.00">createdDate </text>
<text text-anchor="start" x="622.58" y="-562.2" font-family="Arial" font-size="14.00" fill="#666666">[datetime]</text>
</g>
<!-- fxQuoteResponseConversionTerms&#45;&gt;fxQuoteResponse -->
<g id="edge2" class="edge">
<title>fxQuoteResponseConversionTerms:fxQuoteResponseId&#45;&gt;fxQuoteResponse:fxQuoteResponseId</title>
<path fill="none" stroke="black" d="M941.87,-840.77C1000.83,-817.37 946.63,-576.01 930.87,-506.8 916.31,-442.86 932.96,-373.6 867.38,-373.6"/>
<polygon fill="black" stroke="black" points="942.04,-840.74 931.39,-838.11 936.79,-841.7 932.53,-842.48 932.53,-842.48 932.53,-842.48 936.79,-841.7 933.01,-846.97 942.04,-840.74"/>
<text text-anchor="start" x="938.87" y="-852.6" font-family="Arial" font-size="10.00">FOREIGN KEY (fxQuoteResponseId) REFERENCES fxQuoteResponse (fxQuoteResponseId)</text>
</g>
<!-- fxQuoteResponseDuplicateCheck -->
<g id="node4" class="node">
<title>fxQuoteResponseDuplicateCheck</title>
<polygon fill="#efefef" stroke="none" points="1034.94,-811.8 1034.94,-847.4 1417.36,-847.4 1417.36,-811.8 1034.94,-811.8"/>
<polygon fill="none" stroke="black" points="1034.94,-811.8 1034.94,-847.4 1417.36,-847.4 1417.36,-811.8 1034.94,-811.8"/>
<text text-anchor="start" x="1041.94" y="-825.2" font-family="Arial Bold" font-size="18.00">fxQuoteResponseDuplicateCheck</text>
<text text-anchor="start" x="1285.87" y="-825.2" font-family="Arial" font-size="14.00">    </text>
<text text-anchor="start" x="1316.99" y="-825.2" font-family="Arial" font-size="14.00" fill="#666666">[BASE TABLE]</text>
<polygon fill="none" stroke="black" points="1034.94,-781 1034.94,-811.8 1417.36,-811.8 1417.36,-781 1034.94,-781"/>
<text text-anchor="start" x="1041.94" y="-793.2" font-family="Arial" font-size="14.00">fxQuoteResponseId </text>
<text text-anchor="start" x="1169.57" y="-793.2" font-family="Arial" font-size="14.00" fill="#666666">[bigint unsigned]</text>
<polygon fill="none" stroke="black" points="1034.94,-750.2 1034.94,-781 1417.36,-781 1417.36,-750.2 1034.94,-750.2"/>
<text text-anchor="start" x="1041.94" y="-762.4" font-family="Arial" font-size="14.00">conversionRequestId </text>
<text text-anchor="start" x="1177.35" y="-762.4" font-family="Arial" font-size="14.00" fill="#666666">[varchar(36)]</text>
<polygon fill="none" stroke="black" points="1034.94,-719.4 1034.94,-750.2 1417.36,-750.2 1417.36,-719.4 1034.94,-719.4"/>
<text text-anchor="start" x="1041.94" y="-731.6" font-family="Arial" font-size="14.00">hash </text>
<text text-anchor="start" x="1076.19" y="-731.6" font-family="Arial" font-size="14.00" fill="#666666">[varchar(255)]</text>
<polygon fill="none" stroke="black" points="1034.94,-688.6 1034.94,-719.4 1417.36,-719.4 1417.36,-688.6 1034.94,-688.6"/>
<text text-anchor="start" x="1041.94" y="-700.8" font-family="Arial" font-size="14.00">createdDate </text>
<text text-anchor="start" x="1122.1" y="-700.8" font-family="Arial" font-size="14.00" fill="#666666">[datetime]</text>
</g>
<!-- fxQuoteResponseDuplicateCheck&#45;&gt;fxQuoteResponse -->
<g id="edge3" class="edge">
<title>fxQuoteResponseDuplicateCheck:fxQuoteResponseId&#45;&gt;fxQuoteResponse:fxQuoteResponseId</title>
<path fill="none" stroke="black" d="M1023.84,-794.25C973.21,-770.83 1009.66,-562.45 983.15,-506.8 949.42,-435.99 945.82,-373.6 867.38,-373.6"/>
<polygon fill="black" stroke="black" points="1023.83,-794.25 1032.68,-800.73 1029.05,-795.36 1033.29,-796.26 1033.29,-796.26 1033.29,-796.26 1029.05,-795.36 1034.55,-791.93 1023.83,-794.25"/>
<text text-anchor="start" x="1040.94" y="-806.4" font-family="Arial" font-size="10.00">FOREIGN KEY (fxQuoteResponseId) REFERENCES fxQuoteResponse (fxQuoteResponseId)</text>
</g>
</g>
</svg>
