<?xml version="1.0" encoding="UTF-8" standalone="no"?>
<!DOCTYPE svg PUBLIC "-//W3C//DTD SVG 1.1//EN"
 "http://www.w3.org/Graphics/SVG/1.1/DTD/svg11.dtd">
<!-- Generated by graphviz version 12.1.2 (20240928.0832)
 -->
<!-- Title: fxQuote Pages: 1 -->
<svg width="2152pt" height="756pt"
 viewBox="0.00 0.00 2152.22 756.00" xmlns="http://www.w3.org/2000/svg" xmlns:xlink="http://www.w3.org/1999/xlink">
<g id="graph0" class="graph" transform="scale(1 1) rotate(0) translate(4 752)">
<title>fxQuote</title>
<polygon fill="white" stroke="none" points="-4,4 -4,-752 2148.22,-752 2148.22,4 -4,4"/>
<!-- fxQuote -->
<g id="node1" class="node">
<title>fxQuote</title>
<polygon fill="#efefef" stroke="none" points="867.42,-107.8 867.42,-143.4 1096.19,-143.4 1096.19,-107.8 867.42,-107.8"/>
<polygon fill="none" stroke="black" points="867.42,-107.8 867.42,-143.4 1096.19,-143.4 1096.19,-107.8 867.42,-107.8"/>
<text text-anchor="start" x="890.07" y="-121.2" font-family="Arial Bold" font-size="18.00">fxQuote</text>
<text text-anchor="start" x="949.05" y="-121.2" font-family="Arial" font-size="14.00">    </text>
<text text-anchor="start" x="980.17" y="-121.2" font-family="Arial" font-size="14.00" fill="#666666">[BASE TABLE]</text>
<polygon fill="none" stroke="black" points="867.42,-77 867.42,-107.8 1096.19,-107.8 1096.19,-77 867.42,-77"/>
<text text-anchor="start" x="874.42" y="-89.2" font-family="Arial" font-size="14.00">conversionRequestId </text>
<text text-anchor="start" x="1009.83" y="-89.2" font-family="Arial" font-size="14.00" fill="#666666">[varchar(36)]</text>
<polygon fill="none" stroke="black" points="867.42,-46.2 867.42,-77 1096.19,-77 1096.19,-46.2 867.42,-46.2"/>
<text text-anchor="start" x="874.42" y="-58.4" font-family="Arial" font-size="14.00">createdDate </text>
<text text-anchor="start" x="954.58" y="-58.4" font-family="Arial" font-size="14.00" fill="#666666">[datetime]</text>
<polygon fill="none" stroke="black" stroke-width="3" points="865.92,-44.7 865.92,-144.9 1097.69,-144.9 1097.69,-44.7 865.92,-44.7"/>
</g>
<!-- fxQuoteConversionTerms -->
<g id="node2" class="node">
<title>fxQuoteConversionTerms</title>
<polygon fill="#efefef" stroke="none" points="70.58,-653.8 70.58,-689.4 397.03,-689.4 397.03,-653.8 70.58,-653.8"/>
<polygon fill="none" stroke="black" points="70.58,-653.8 70.58,-689.4 397.03,-689.4 397.03,-653.8 70.58,-653.8"/>
<text text-anchor="start" x="77.58" y="-667.2" font-family="Arial Bold" font-size="18.00">fxQuoteConversionTerms</text>
<text text-anchor="start" x="265.54" y="-667.2" font-family="Arial" font-size="14.00">    </text>
<text text-anchor="start" x="296.66" y="-667.2" font-family="Arial" font-size="14.00" fill="#666666">[BASE TABLE]</text>
<polygon fill="none" stroke="black" points="70.58,-623 70.58,-653.8 397.03,-653.8 397.03,-623 70.58,-623"/>
<text text-anchor="start" x="77.58" y="-635.2" font-family="Arial" font-size="14.00">conversionId </text>
<text text-anchor="start" x="160.85" y="-635.2" font-family="Arial" font-size="14.00" fill="#666666">[varchar(255)]</text>
<polygon fill="none" stroke="black" points="70.58,-592.2 70.58,-623 397.03,-623 397.03,-592.2 70.58,-592.2"/>
<text text-anchor="start" x="77.58" y="-604.4" font-family="Arial" font-size="14.00">determiningTransferId </text>
<text text-anchor="start" x="218.42" y="-604.4" font-family="Arial" font-size="14.00" fill="#666666">[varchar(36)]</text>
<polygon fill="none" stroke="black" points="70.58,-561.4 70.58,-592.2 397.03,-592.2 397.03,-561.4 70.58,-561.4"/>
<text text-anchor="start" x="77.58" y="-573.6" font-family="Arial" font-size="14.00">conversionRequestId </text>
<text text-anchor="start" x="212.99" y="-573.6" font-family="Arial" font-size="14.00" fill="#666666">[varchar(36)]</text>
<polygon fill="none" stroke="black" points="70.58,-530.6 70.58,-561.4 397.03,-561.4 397.03,-530.6 70.58,-530.6"/>
<text text-anchor="start" x="77.58" y="-542.8" font-family="Arial" font-size="14.00">amountTypeId </text>
<text text-anchor="start" x="170.97" y="-542.8" font-family="Arial" font-size="14.00" fill="#666666">[int unsigned]</text>
<polygon fill="none" stroke="black" points="70.58,-499.8 70.58,-530.6 397.03,-530.6 397.03,-499.8 70.58,-499.8"/>
<text text-anchor="start" x="77.58" y="-512" font-family="Arial" font-size="14.00">initiatingFsp </text>
<text text-anchor="start" x="156.17" y="-512" font-family="Arial" font-size="14.00" fill="#666666">[varchar(255)]</text>
<polygon fill="none" stroke="black" points="70.58,-469 70.58,-499.8 397.03,-499.8 397.03,-469 70.58,-469"/>
<text text-anchor="start" x="77.58" y="-481.2" font-family="Arial" font-size="14.00">counterPartyFsp </text>
<text text-anchor="start" x="184.18" y="-481.2" font-family="Arial" font-size="14.00" fill="#666666">[varchar(255)]</text>
<polygon fill="none" stroke="black" points="70.58,-438.2 70.58,-469 397.03,-469 397.03,-438.2 70.58,-438.2"/>
<text text-anchor="start" x="77.58" y="-450.4" font-family="Arial" font-size="14.00">sourceAmount </text>
<text text-anchor="start" x="171.74" y="-450.4" font-family="Arial" font-size="14.00" fill="#666666">[decimal(18,4)]</text>
<polygon fill="none" stroke="black" points="70.58,-407.4 70.58,-438.2 397.03,-438.2 397.03,-407.4 70.58,-407.4"/>
<text text-anchor="start" x="77.58" y="-419.6" font-family="Arial" font-size="14.00">sourceCurrency </text>
<text text-anchor="start" x="180.28" y="-419.6" font-family="Arial" font-size="14.00" fill="#666666">[varchar(3)]</text>
<polygon fill="none" stroke="black" points="70.58,-376.6 70.58,-407.4 397.03,-407.4 397.03,-376.6 70.58,-376.6"/>
<text text-anchor="start" x="77.58" y="-388.8" font-family="Arial" font-size="14.00">targetAmount </text>
<text text-anchor="start" x="165.52" y="-388.8" font-family="Arial" font-size="14.00" fill="#666666">[decimal(18,4)]</text>
<polygon fill="none" stroke="black" points="70.58,-345.8 70.58,-376.6 397.03,-376.6 397.03,-345.8 70.58,-345.8"/>
<text text-anchor="start" x="77.58" y="-358" font-family="Arial" font-size="14.00">targetCurrency </text>
<text text-anchor="start" x="174.06" y="-358" font-family="Arial" font-size="14.00" fill="#666666">[varchar(3)]</text>
<polygon fill="none" stroke="black" points="70.58,-315 70.58,-345.8 397.03,-345.8 397.03,-315 70.58,-315"/>
<text text-anchor="start" x="77.58" y="-327.2" font-family="Arial" font-size="14.00">expirationDate </text>
<text text-anchor="start" x="171.75" y="-327.2" font-family="Arial" font-size="14.00" fill="#666666">[datetime]</text>
<polygon fill="none" stroke="black" points="70.58,-284.2 70.58,-315 397.03,-315 397.03,-284.2 70.58,-284.2"/>
<text text-anchor="start" x="77.58" y="-296.4" font-family="Arial" font-size="14.00">createdDate </text>
<text text-anchor="start" x="157.74" y="-296.4" font-family="Arial" font-size="14.00" fill="#666666">[datetime]</text>
</g>
<!-- fxQuoteConversionTerms&#45;&gt;fxQuote -->
<g id="edge1" class="edge">
<title>fxQuoteConversionTerms:conversionRequestId&#45;&gt;fxQuote:conversionRequestId</title>
<path fill="none" stroke="black" d="M408.11,-574.94C469.76,-550.02 400.23,-282.95 448.81,-225.6 511.77,-151.27 769.01,-92.4 866.42,-92.4"/>
<polygon fill="black" stroke="black" points="408.2,-574.92 397.54,-572.31 402.95,-575.89 398.69,-576.68 398.69,-576.68 398.69,-576.68 402.95,-575.89 399.18,-581.16 408.2,-574.92"/>
<text text-anchor="start" x="7" y="-586.8" font-family="Arial" font-size="10.00">FOREIGN KEY (conversionRequestId) REFERENCES fxQuote (conversionRequestId)</text>
</g>
<!-- fxQuoteError -->
<g id="node3" class="node">
<title>fxQuoteError</title>
<polygon fill="#efefef" stroke="none" points="501.01,-561.4 501.01,-597 744.61,-597 744.61,-561.4 501.01,-561.4"/>
<polygon fill="none" stroke="black" points="501.01,-561.4 501.01,-597 744.61,-597 744.61,-561.4 501.01,-561.4"/>
<text text-anchor="start" x="512.08" y="-574.8" font-family="Arial Bold" font-size="18.00">fxQuoteError</text>
<text text-anchor="start" x="609.04" y="-574.8" font-family="Arial" font-size="14.00">    </text>
<text text-anchor="start" x="640.16" y="-574.8" font-family="Arial" font-size="14.00" fill="#666666">[BASE TABLE]</text>
<polygon fill="none" stroke="black" points="501.01,-530.6 501.01,-561.4 744.61,-561.4 744.61,-530.6 501.01,-530.6"/>
<text text-anchor="start" x="508.01" y="-542.8" font-family="Arial" font-size="14.00">fxQuoteErrorId </text>
<text text-anchor="start" x="603.71" y="-542.8" font-family="Arial" font-size="14.00" fill="#666666">[bigint unsigned]</text>
<polygon fill="none" stroke="black" points="501.01,-499.8 501.01,-530.6 744.61,-530.6 744.61,-499.8 501.01,-499.8"/>
<text text-anchor="start" x="508.01" y="-512" font-family="Arial" font-size="14.00">conversionRequestId </text>
<text text-anchor="start" x="643.42" y="-512" font-family="Arial" font-size="14.00" fill="#666666">[varchar(36)]</text>
<polygon fill="none" stroke="black" points="501.01,-469 501.01,-499.8 744.61,-499.8 744.61,-469 501.01,-469"/>
<text text-anchor="start" x="508.01" y="-481.2" font-family="Arial" font-size="14.00">fxQuoteResponseId </text>
<text text-anchor="start" x="635.64" y="-481.2" font-family="Arial" font-size="14.00" fill="#666666">[bigint unsigned]</text>
<polygon fill="none" stroke="black" points="501.01,-438.2 501.01,-469 744.61,-469 744.61,-438.2 501.01,-438.2"/>
<text text-anchor="start" x="508.01" y="-450.4" font-family="Arial" font-size="14.00">errorCode </text>
<text text-anchor="start" x="574.92" y="-450.4" font-family="Arial" font-size="14.00" fill="#666666">[int unsigned]</text>
<polygon fill="none" stroke="black" points="501.01,-407.4 501.01,-438.2 744.61,-438.2 744.61,-407.4 501.01,-407.4"/>
<text text-anchor="start" x="508.01" y="-419.6" font-family="Arial" font-size="14.00">errorDescription </text>
<text text-anchor="start" x="611.48" y="-419.6" font-family="Arial" font-size="14.00" fill="#666666">[varchar(128)]</text>
<polygon fill="none" stroke="black" points="501.01,-376.6 501.01,-407.4 744.61,-407.4 744.61,-376.6 501.01,-376.6"/>
<text text-anchor="start" x="508.01" y="-388.8" font-family="Arial" font-size="14.00">createdDate </text>
<text text-anchor="start" x="588.17" y="-388.8" font-family="Arial" font-size="14.00" fill="#666666">[datetime]</text>
</g>
<!-- fxQuoteError&#45;&gt;fxQuote -->
<g id="edge2" class="edge">
<title>fxQuoteError:conversionRequestId&#45;&gt;fxQuote:conversionRequestId</title>
<path fill="none" stroke="black" d="M755.77,-513.08C807.15,-489.93 776.93,-283.96 796.81,-225.6 818.34,-162.37 799.62,-92.4 866.42,-92.4"/>
<polygon fill="black" stroke="black" points="755.72,-513.09 745.02,-510.73 750.5,-514.18 746.26,-515.06 746.26,-515.06 746.26,-515.06 750.5,-514.18 746.85,-519.54 755.72,-513.09"/>
<text text-anchor="start" x="752.61" y="-525.2" font-family="Arial" font-size="10.00">FOREIGN KEY (conversionRequestId) REFERENCES fxQuote (conversionRequestId)</text>
</g>
<!-- fxQuoteResponse -->
<g id="node4" class="node">
<title>fxQuoteResponse</title>
<polygon fill="#efefef" stroke="none" points="848.57,-530.6 848.57,-566.2 1115.04,-566.2 1115.04,-530.6 848.57,-530.6"/>
<polygon fill="none" stroke="black" points="848.57,-530.6 848.57,-566.2 1115.04,-566.2 1115.04,-530.6 848.57,-530.6"/>
<text text-anchor="start" x="855.57" y="-544" font-family="Arial Bold" font-size="18.00">fxQuoteResponse</text>
<text text-anchor="start" x="983.55" y="-544" font-family="Arial" font-size="14.00">    </text>
<text text-anchor="start" x="1014.67" y="-544" font-family="Arial" font-size="14.00" fill="#666666">[BASE TABLE]</text>
<polygon fill="none" stroke="black" points="848.57,-499.8 848.57,-530.6 1115.04,-530.6 1115.04,-499.8 848.57,-499.8"/>
<text text-anchor="start" x="855.57" y="-512" font-family="Arial" font-size="14.00">fxQuoteResponseId </text>
<text text-anchor="start" x="983.21" y="-512" font-family="Arial" font-size="14.00" fill="#666666">[bigint unsigned]</text>
<polygon fill="none" stroke="black" points="848.57,-469 848.57,-499.8 1115.04,-499.8 1115.04,-469 848.57,-469"/>
<text text-anchor="start" x="855.57" y="-481.2" font-family="Arial" font-size="14.00">conversionRequestId </text>
<text text-anchor="start" x="990.99" y="-481.2" font-family="Arial" font-size="14.00" fill="#666666">[varchar(36)]</text>
<polygon fill="none" stroke="black" points="848.57,-438.2 848.57,-469 1115.04,-469 1115.04,-438.2 848.57,-438.2"/>
<text text-anchor="start" x="855.57" y="-450.4" font-family="Arial" font-size="14.00">ilpCondition </text>
<text text-anchor="start" x="932.62" y="-450.4" font-family="Arial" font-size="14.00" fill="#666666">[varchar(256)]</text>
<polygon fill="none" stroke="black" points="848.57,-407.4 848.57,-438.2 1115.04,-438.2 1115.04,-407.4 848.57,-407.4"/>
<text text-anchor="start" x="855.57" y="-419.6" font-family="Arial" font-size="14.00">createdDate </text>
<text text-anchor="start" x="935.73" y="-419.6" font-family="Arial" font-size="14.00" fill="#666666">[datetime]</text>
</g>
<!-- fxQuoteResponse&#45;&gt;fxQuote -->
<g id="edge3" class="edge">
<title>fxQuoteResponse:conversionRequestId&#45;&gt;fxQuote:conversionRequestId</title>
<path fill="none" stroke="black" d="M1124.53,-478.55C1156.79,-429.79 1137.65,-92.4 1097.19,-92.4"/>
<polygon fill="black" stroke="black" points="1124.55,-478.54 1113.76,-480.5 1120.16,-481.56 1116.59,-484.02 1116.59,-484.02 1116.59,-484.02 1120.16,-481.56 1118.87,-487.92 1124.55,-478.54"/>
<text text-anchor="start" x="725.01" y="-494.4" font-family="Arial" font-size="10.00">FOREIGN KEY (conversionRequestId) REFERENCES fxQuote (conversionRequestId)</text>
</g>
<!-- fxQuoteResponseConversionTerms -->
<g id="node5" class="node">
<title>fxQuoteResponseConversionTerms</title>
<polygon fill="#efefef" stroke="none" points="1219.08,-669.2 1219.08,-704.8 1614.53,-704.8 1614.53,-669.2 1219.08,-669.2"/>
<polygon fill="none" stroke="black" points="1219.08,-669.2 1219.08,-704.8 1614.53,-704.8 1614.53,-669.2 1219.08,-669.2"/>
<text text-anchor="start" x="1226.08" y="-682.6" font-family="Arial Bold" font-size="18.00">fxQuoteResponseConversionTerms</text>
<text text-anchor="start" x="1483.04" y="-682.6" font-family="Arial" font-size="14.00">    </text>
<text text-anchor="start" x="1514.16" y="-682.6" font-family="Arial" font-size="14.00" fill="#666666">[BASE TABLE]</text>
<polygon fill="none" stroke="black" points="1219.08,-638.4 1219.08,-669.2 1614.53,-669.2 1614.53,-638.4 1219.08,-638.4"/>
<text text-anchor="start" x="1226.08" y="-650.6" font-family="Arial" font-size="14.00">conversionId </text>
<text text-anchor="start" x="1309.35" y="-650.6" font-family="Arial" font-size="14.00" fill="#666666">[varchar(255)]</text>
<polygon fill="none" stroke="black" points="1219.08,-607.6 1219.08,-638.4 1614.53,-638.4 1614.53,-607.6 1219.08,-607.6"/>
<text text-anchor="start" x="1226.08" y="-619.8" font-family="Arial" font-size="14.00">determiningTransferId </text>
<text text-anchor="start" x="1366.92" y="-619.8" font-family="Arial" font-size="14.00" fill="#666666">[varchar(36)]</text>
<polygon fill="none" stroke="black" points="1219.08,-576.8 1219.08,-607.6 1614.53,-607.6 1614.53,-576.8 1219.08,-576.8"/>
<text text-anchor="start" x="1226.08" y="-589" font-family="Arial" font-size="14.00">conversionRequestId </text>
<text text-anchor="start" x="1361.5" y="-589" font-family="Arial" font-size="14.00" fill="#666666">[varchar(36)]</text>
<polygon fill="none" stroke="black" points="1219.08,-546 1219.08,-576.8 1614.53,-576.8 1614.53,-546 1219.08,-546"/>
<text text-anchor="start" x="1226.08" y="-558.2" font-family="Arial" font-size="14.00">fxQuoteResponseId </text>
<text text-anchor="start" x="1353.72" y="-558.2" font-family="Arial" font-size="14.00" fill="#666666">[bigint unsigned]</text>
<polygon fill="none" stroke="black" points="1219.08,-515.2 1219.08,-546 1614.53,-546 1614.53,-515.2 1219.08,-515.2"/>
<text text-anchor="start" x="1226.08" y="-527.4" font-family="Arial" font-size="14.00">amountTypeId </text>
<text text-anchor="start" x="1319.47" y="-527.4" font-family="Arial" font-size="14.00" fill="#666666">[int unsigned]</text>
<polygon fill="none" stroke="black" points="1219.08,-484.4 1219.08,-515.2 1614.53,-515.2 1614.53,-484.4 1219.08,-484.4"/>
<text text-anchor="start" x="1226.08" y="-496.6" font-family="Arial" font-size="14.00">initiatingFsp </text>
<text text-anchor="start" x="1304.68" y="-496.6" font-family="Arial" font-size="14.00" fill="#666666">[varchar(255)]</text>
<polygon fill="none" stroke="black" points="1219.08,-453.6 1219.08,-484.4 1614.53,-484.4 1614.53,-453.6 1219.08,-453.6"/>
<text text-anchor="start" x="1226.08" y="-465.8" font-family="Arial" font-size="14.00">counterPartyFsp </text>
<text text-anchor="start" x="1332.68" y="-465.8" font-family="Arial" font-size="14.00" fill="#666666">[varchar(255)]</text>
<polygon fill="none" stroke="black" points="1219.08,-422.8 1219.08,-453.6 1614.53,-453.6 1614.53,-422.8 1219.08,-422.8"/>
<text text-anchor="start" x="1226.08" y="-435" font-family="Arial" font-size="14.00">sourceAmount </text>
<text text-anchor="start" x="1320.24" y="-435" font-family="Arial" font-size="14.00" fill="#666666">[decimal(18,4)]</text>
<polygon fill="none" stroke="black" points="1219.08,-392 1219.08,-422.8 1614.53,-422.8 1614.53,-392 1219.08,-392"/>
<text text-anchor="start" x="1226.08" y="-404.2" font-family="Arial" font-size="14.00">sourceCurrency </text>
<text text-anchor="start" x="1328.79" y="-404.2" font-family="Arial" font-size="14.00" fill="#666666">[varchar(3)]</text>
<polygon fill="none" stroke="black" points="1219.08,-361.2 1219.08,-392 1614.53,-392 1614.53,-361.2 1219.08,-361.2"/>
<text text-anchor="start" x="1226.08" y="-373.4" font-family="Arial" font-size="14.00">targetAmount </text>
<text text-anchor="start" x="1314.02" y="-373.4" font-family="Arial" font-size="14.00" fill="#666666">[decimal(18,4)]</text>
<polygon fill="none" stroke="black" points="1219.08,-330.4 1219.08,-361.2 1614.53,-361.2 1614.53,-330.4 1219.08,-330.4"/>
<text text-anchor="start" x="1226.08" y="-342.6" font-family="Arial" font-size="14.00">targetCurrency </text>
<text text-anchor="start" x="1322.57" y="-342.6" font-family="Arial" font-size="14.00" fill="#666666">[varchar(3)]</text>
<polygon fill="none" stroke="black" points="1219.08,-299.6 1219.08,-330.4 1614.53,-330.4 1614.53,-299.6 1219.08,-299.6"/>
<text text-anchor="start" x="1226.08" y="-311.8" font-family="Arial" font-size="14.00">expirationDate </text>
<text text-anchor="start" x="1320.25" y="-311.8" font-family="Arial" font-size="14.00" fill="#666666">[datetime]</text>
<polygon fill="none" stroke="black" points="1219.08,-268.8 1219.08,-299.6 1614.53,-299.6 1614.53,-268.8 1219.08,-268.8"/>
<text text-anchor="start" x="1226.08" y="-281" font-family="Arial" font-size="14.00">createdDate </text>
<text text-anchor="start" x="1306.24" y="-281" font-family="Arial" font-size="14.00" fill="#666666">[datetime]</text>
</g>
<!-- fxQuoteResponseConversionTerms&#45;&gt;fxQuote -->
<g id="edge4" class="edge">
<title>fxQuoteResponseConversionTerms:conversionRequestId&#45;&gt;fxQuote:conversionRequestId</title>
<path fill="none" stroke="black" d="M1207.82,-590.5C1140.7,-566.72 1190.79,-300.41 1166.81,-225.6 1146.41,-161.99 1163.99,-92.4 1097.19,-92.4"/>
<polygon fill="black" stroke="black" points="1207.89,-590.51 1217.02,-596.58 1213.15,-591.38 1217.42,-592.09 1217.42,-592.09 1217.42,-592.09 1213.15,-591.38 1218.49,-587.71 1207.89,-590.51"/>
<text text-anchor="start" x="827.05" y="-602.2" font-family="Arial" font-size="10.00">FOREIGN KEY (conversionRequestId) REFERENCES fxQuote (conversionRequestId)</text>
</g>
<!-- fxQuoteResponseDuplicateCheck -->
<g id="node6" class="node">
<title>fxQuoteResponseDuplicateCheck</title>
<polygon fill="#efefef" stroke="none" points="1718.6,-530.6 1718.6,-566.2 2101.02,-566.2 2101.02,-530.6 1718.6,-530.6"/>
<polygon fill="none" stroke="black" points="1718.6,-530.6 1718.6,-566.2 2101.02,-566.2 2101.02,-530.6 1718.6,-530.6"/>
<text text-anchor="start" x="1725.6" y="-544" font-family="Arial Bold" font-size="18.00">fxQuoteResponseDuplicateCheck</text>
<text text-anchor="start" x="1969.53" y="-544" font-family="Arial" font-size="14.00">    </text>
<text text-anchor="start" x="2000.65" y="-544" font-family="Arial" font-size="14.00" fill="#666666">[BASE TABLE]</text>
<polygon fill="none" stroke="black" points="1718.6,-499.8 1718.6,-530.6 2101.02,-530.6 2101.02,-499.8 1718.6,-499.8"/>
<text text-anchor="start" x="1725.6" y="-512" font-family="Arial" font-size="14.00">fxQuoteResponseId </text>
<text text-anchor="start" x="1853.23" y="-512" font-family="Arial" font-size="14.00" fill="#666666">[bigint unsigned]</text>
<polygon fill="none" stroke="black" points="1718.6,-469 1718.6,-499.8 2101.02,-499.8 2101.02,-469 1718.6,-469"/>
<text text-anchor="start" x="1725.6" y="-481.2" font-family="Arial" font-size="14.00">conversionRequestId </text>
<text text-anchor="start" x="1861.01" y="-481.2" font-family="Arial" font-size="14.00" fill="#666666">[varchar(36)]</text>
<polygon fill="none" stroke="black" points="1718.6,-438.2 1718.6,-469 2101.02,-469 2101.02,-438.2 1718.6,-438.2"/>
<text text-anchor="start" x="1725.6" y="-450.4" font-family="Arial" font-size="14.00">hash </text>
<text text-anchor="start" x="1759.84" y="-450.4" font-family="Arial" font-size="14.00" fill="#666666">[varchar(255)]</text>
<polygon fill="none" stroke="black" points="1718.6,-407.4 1718.6,-438.2 2101.02,-438.2 2101.02,-407.4 1718.6,-407.4"/>
<text text-anchor="start" x="1725.6" y="-419.6" font-family="Arial" font-size="14.00">createdDate </text>
<text text-anchor="start" x="1805.75" y="-419.6" font-family="Arial" font-size="14.00" fill="#666666">[datetime]</text>
</g>
<!-- fxQuoteResponseDuplicateCheck&#45;&gt;fxQuote -->
<g id="edge5" class="edge">
<title>fxQuoteResponseDuplicateCheck:conversionRequestId&#45;&gt;fxQuote:conversionRequestId</title>
<path fill="none" stroke="black" d="M1707.37,-483.9C1609.39,-473.59 1745.65,-307.32 1666.81,-225.6 1576.55,-132.04 1227.19,-92.4 1097.19,-92.4"/>
<polygon fill="black" stroke="black" points="1707.27,-483.89 1717.04,-488.88 1712.6,-484.15 1716.93,-484.37 1716.93,-484.37 1716.93,-484.37 1712.6,-484.15 1717.48,-479.89 1707.27,-483.89"/>
<text text-anchor="start" x="1326.56" y="-494.4" font-family="Arial" font-size="10.00">FOREIGN KEY (conversionRequestId) REFERENCES fxQuote (conversionRequestId)</text>
</g>
</g>
</svg>
