<?xml version="1.0" encoding="UTF-8" standalone="no"?>
<!DOCTYPE svg PUBLIC "-//W3C//DTD SVG 1.1//EN"
 "http://www.w3.org/Graphics/SVG/1.1/DTD/svg11.dtd">
<!-- Generated by graphviz version 12.1.2 (20240928.0832)
 -->
<!-- Title: fxQuoteConversionTermsExtension Pages: 1 -->
<svg width="802pt" height="510pt"
 viewBox="0.00 0.00 802.27 509.60" xmlns="http://www.w3.org/2000/svg" xmlns:xlink="http://www.w3.org/1999/xlink">
<g id="graph0" class="graph" transform="scale(1 1) rotate(0) translate(4 505.6)">
<title>fxQuoteConversionTermsExtension</title>
<polygon fill="white" stroke="none" points="-4,4 -4,-505.6 798.27,-505.6 798.27,4 -4,4"/>
<!-- fxQuoteConversionTermsExtension -->
<g id="node1" class="node">
<title>fxQuoteConversionTermsExtension</title>
<polygon fill="#efefef" stroke="none" points="203.23,-419.8 203.23,-455.4 601.67,-455.4 601.67,-419.8 203.23,-419.8"/>
<polygon fill="none" stroke="black" points="203.23,-419.8 203.23,-455.4 601.67,-455.4 601.67,-419.8 203.23,-419.8"/>
<text text-anchor="start" x="210.23" y="-433.2" font-family="Arial Bold" font-size="18.00">fxQuoteConversionTermsExtension</text>
<text text-anchor="start" x="470.18" y="-433.2" font-family="Arial" font-size="14.00">    </text>
<text text-anchor="start" x="501.3" y="-433.2" font-family="Arial" font-size="14.00" fill="#666666">[BASE TABLE]</text>
<polygon fill="none" stroke="black" points="203.23,-389 203.23,-419.8 601.67,-419.8 601.67,-389 203.23,-389"/>
<text text-anchor="start" x="210.23" y="-401.2" font-family="Arial" font-size="14.00">fxQuoteConversionTermExtension </text>
<text text-anchor="start" x="428.11" y="-401.2" font-family="Arial" font-size="14.00" fill="#666666">[bigint unsigned]</text>
<polygon fill="none" stroke="black" points="203.23,-358.2 203.23,-389 601.67,-389 601.67,-358.2 203.23,-358.2"/>
<text text-anchor="start" x="210.23" y="-370.4" font-family="Arial" font-size="14.00">conversionId </text>
<text text-anchor="start" x="293.5" y="-370.4" font-family="Arial" font-size="14.00" fill="#666666">[varchar(36)]</text>
<polygon fill="none" stroke="black" stroke-width="3" points="201.73,-356.7 201.73,-456.9 603.17,-456.9 603.17,-356.7 201.73,-356.7"/>
</g>
<!-- fxQuoteConversionTerms -->
<g id="node2" class="node">
<title>fxQuoteConversionTerms</title>
<polygon fill="#efefef" stroke="none" points="53.83,-197.2 53.83,-232.8 751.07,-232.8 751.07,-197.2 53.83,-197.2"/>
<polygon fill="none" stroke="black" points="53.83,-197.2 53.83,-232.8 751.07,-232.8 751.07,-197.2 53.83,-197.2"/>
<text text-anchor="start" x="246.23" y="-210.6" font-family="Arial Bold" font-size="18.00">fxQuoteConversionTerms</text>
<text text-anchor="start" x="434.19" y="-210.6" font-family="Arial" font-size="14.00">    </text>
<text text-anchor="start" x="465.31" y="-210.6" font-family="Arial" font-size="14.00" fill="#666666">[BASE TABLE]</text>
<polygon fill="none" stroke="black" points="53.83,-166.4 53.83,-197.2 751.07,-197.2 751.07,-166.4 53.83,-166.4"/>
<text text-anchor="start" x="60.83" y="-178.6" font-family="Arial" font-size="14.00">conversionId </text>
<text text-anchor="start" x="144.1" y="-178.6" font-family="Arial" font-size="14.00" fill="#666666">[varchar(255)]</text>
<polygon fill="none" stroke="black" points="53.83,-135.6 53.83,-166.4 751.07,-166.4 751.07,-135.6 53.83,-135.6"/>
<text text-anchor="start" x="60.83" y="-147.8" font-family="Arial" font-size="14.00">conversionRequestId </text>
<text text-anchor="start" x="196.24" y="-147.8" font-family="Arial" font-size="14.00" fill="#666666">[varchar(36)]</text>
<polygon fill="none" stroke="black" points="53.83,-104.8 53.83,-135.6 751.07,-135.6 751.07,-104.8 53.83,-104.8"/>
<text text-anchor="start" x="60.83" y="-117" font-family="Arial" font-size="14.00">amountTypeId </text>
<text text-anchor="start" x="154.22" y="-117" font-family="Arial" font-size="14.00" fill="#666666">[int unsigned]</text>
<text text-anchor="start" x="237.5" y="-117" font-family="Arial" font-size="14.00"> This is part of the transaction type that contains valid elements for &#45; Amount Type</text>
<polygon fill="none" stroke="black" points="53.83,-74 53.83,-104.8 751.07,-104.8 751.07,-74 53.83,-74"/>
<text text-anchor="start" x="60.83" y="-86.2" font-family="Arial" font-size="14.00">sourceCurrency </text>
<text text-anchor="start" x="163.53" y="-86.2" font-family="Arial" font-size="14.00" fill="#666666">[varchar(3)]</text>
<polygon fill="none" stroke="black" points="53.83,-43.2 53.83,-74 751.07,-74 751.07,-43.2 53.83,-43.2"/>
<text text-anchor="start" x="60.83" y="-55.4" font-family="Arial" font-size="14.00">targetCurrency </text>
<text text-anchor="start" x="157.31" y="-55.4" font-family="Arial" font-size="14.00" fill="#666666">[varchar(3)]</text>
</g>
<!-- fxQuoteConversionTermsExtension&#45;&gt;fxQuoteConversionTerms -->
<g id="edge1" class="edge">
<title>fxQuoteConversionTermsExtension:conversionId&#45;&gt;fxQuoteConversionTerms:conversionId</title>
<path fill="none" stroke="black" d="M402.82,-347.02C413.56,-207.02 653.74,-397.29 751.07,-276 777.28,-243.35 793.94,-181.8 752.07,-181.8"/>
<polygon fill="black" stroke="black" points="402.83,-346.87 397.97,-356.7 402.63,-352.2 402.48,-356.53 402.48,-356.53 402.48,-356.53 402.63,-352.2 406.96,-357.03 402.83,-346.87"/>
<text text-anchor="start" x="7" y="-367.2" font-family="Arial" font-size="10.00">FOREIGN KEY (conversionId) REFERENCES fxQuoteConversionTerms (conversionId)</text>
</g>
</g>
</svg>
