<?xml version="1.0" encoding="UTF-8" standalone="no"?>
<!DOCTYPE svg PUBLIC "-//W3C//DTD SVG 1.1//EN"
 "http://www.w3.org/Graphics/SVG/1.1/DTD/svg11.dtd">
<!-- Generated by graphviz version 12.1.2 (20240928.0832)
 -->
<!-- Title: fxQuoteResponse Pages: 1 -->
<svg width="1907pt" height="732pt"
 viewBox="0.00 0.00 1907.13 732.09" xmlns="http://www.w3.org/2000/svg" xmlns:xlink="http://www.w3.org/1999/xlink">
<g id="graph0" class="graph" transform="scale(1 1) rotate(0) translate(4 728.09)">
<title>fxQuoteResponse</title>
<polygon fill="white" stroke="none" points="-4,4 -4,-728.09 1903.13,-728.09 1903.13,4 -4,4"/>
<!-- fxQuoteResponse -->
<g id="node1" class="node">
<title>fxQuoteResponse</title>
<polygon fill="#efefef" stroke="none" points="823.33,-299.49 823.33,-335.09 1089.79,-335.09 1089.79,-299.49 823.33,-299.49"/>
<polygon fill="none" stroke="black" points="823.33,-299.49 823.33,-335.09 1089.79,-335.09 1089.79,-299.49 823.33,-299.49"/>
<text text-anchor="start" x="830.33" y="-312.89" font-family="Arial Bold" font-size="18.00">fxQuoteResponse</text>
<text text-anchor="start" x="958.3" y="-312.89" font-family="Arial" font-size="14.00">    </text>
<text text-anchor="start" x="989.42" y="-312.89" font-family="Arial" font-size="14.00" fill="#666666">[BASE TABLE]</text>
<polygon fill="none" stroke="black" points="823.33,-268.69 823.33,-299.49 1089.79,-299.49 1089.79,-268.69 823.33,-268.69"/>
<text text-anchor="start" x="830.33" y="-280.89" font-family="Arial" font-size="14.00">fxQuoteResponseId </text>
<text text-anchor="start" x="957.96" y="-280.89" font-family="Arial" font-size="14.00" fill="#666666">[bigint unsigned]</text>
<polygon fill="none" stroke="black" points="823.33,-237.89 823.33,-268.69 1089.79,-268.69 1089.79,-237.89 823.33,-237.89"/>
<text text-anchor="start" x="830.33" y="-250.09" font-family="Arial" font-size="14.00">conversionRequestId </text>
<text text-anchor="start" x="965.74" y="-250.09" font-family="Arial" font-size="14.00" fill="#666666">[varchar(36)]</text>
<polygon fill="none" stroke="black" stroke-width="3" points="821.83,-236.39 821.83,-336.59 1091.29,-336.59 1091.29,-236.39 821.83,-236.39"/>
</g>
<!-- fxQuote -->
<g id="node5" class="node">
<title>fxQuote</title>
<polygon fill="#efefef" stroke="none" points="842.18,-76.89 842.18,-112.49 1070.95,-112.49 1070.95,-76.89 842.18,-76.89"/>
<polygon fill="none" stroke="black" points="842.18,-76.89 842.18,-112.49 1070.95,-112.49 1070.95,-76.89 842.18,-76.89"/>
<text text-anchor="start" x="864.82" y="-90.29" font-family="Arial Bold" font-size="18.00">fxQuote</text>
<text text-anchor="start" x="923.81" y="-90.29" font-family="Arial" font-size="14.00">    </text>
<text text-anchor="start" x="954.93" y="-90.29" font-family="Arial" font-size="14.00" fill="#666666">[BASE TABLE]</text>
<polygon fill="none" stroke="black" points="842.18,-46.09 842.18,-76.89 1070.95,-76.89 1070.95,-46.09 842.18,-46.09"/>
<text text-anchor="start" x="849.18" y="-58.29" font-family="Arial" font-size="14.00">conversionRequestId </text>
<text text-anchor="start" x="984.59" y="-58.29" font-family="Arial" font-size="14.00" fill="#666666">[varchar(36)]</text>
</g>
<!-- fxQuoteResponse&#45;&gt;fxQuote -->
<g id="edge4" class="edge">
<title>fxQuoteResponse:conversionRequestId&#45;&gt;fxQuote:conversionRequestId</title>
<path fill="none" stroke="black" d="M957.31,-226.73C967.32,-163.9 1075.05,-219.81 1114.15,-155.69 1139.5,-114.1 1148.48,-80.65 1114.15,-46.09 1064.78,3.59 956.56,24.95 956.56,-45.09"/>
<polygon fill="black" stroke="black" points="957.32,-226.59 952.1,-236.23 956.93,-231.91 956.61,-236.23 956.61,-236.23 956.61,-236.23 956.93,-231.91 961.07,-236.89 957.32,-226.59"/>
<text text-anchor="start" x="565.53" y="-246.89" font-family="Arial" font-size="10.00">FOREIGN KEY (conversionRequestId) REFERENCES fxQuote (conversionRequestId)</text>
</g>
<!-- fxQuoteError -->
<g id="node2" class="node">
<title>fxQuoteError</title>
<polygon fill="#efefef" stroke="none" points="43.2,-599.09 43.2,-634.69 503.92,-634.69 503.92,-599.09 43.2,-599.09"/>
<polygon fill="none" stroke="black" points="43.2,-599.09 43.2,-634.69 503.92,-634.69 503.92,-599.09 43.2,-599.09"/>
<text text-anchor="start" x="162.84" y="-612.49" font-family="Arial Bold" font-size="18.00">fxQuoteError</text>
<text text-anchor="start" x="259.8" y="-612.49" font-family="Arial" font-size="14.00">    </text>
<text text-anchor="start" x="290.91" y="-612.49" font-family="Arial" font-size="14.00" fill="#666666">[BASE TABLE]</text>
<polygon fill="none" stroke="black" points="43.2,-568.29 43.2,-599.09 503.92,-599.09 503.92,-568.29 43.2,-568.29"/>
<text text-anchor="start" x="50.2" y="-580.49" font-family="Arial" font-size="14.00">fxQuoteErrorId </text>
<text text-anchor="start" x="145.9" y="-580.49" font-family="Arial" font-size="14.00" fill="#666666">[bigint unsigned]</text>
<polygon fill="none" stroke="black" points="43.2,-537.49 43.2,-568.29 503.92,-568.29 503.92,-537.49 43.2,-537.49"/>
<text text-anchor="start" x="50.2" y="-549.69" font-family="Arial" font-size="14.00">conversionRequestId </text>
<text text-anchor="start" x="185.61" y="-549.69" font-family="Arial" font-size="14.00" fill="#666666">[varchar(36)]</text>
<polygon fill="none" stroke="black" points="43.2,-506.69 43.2,-537.49 503.92,-537.49 503.92,-506.69 43.2,-506.69"/>
<text text-anchor="start" x="50.2" y="-518.89" font-family="Arial" font-size="14.00">fxQuoteResponseId </text>
<text text-anchor="start" x="177.83" y="-518.89" font-family="Arial" font-size="14.00" fill="#666666">[bigint unsigned]</text>
<text text-anchor="start" x="279.8" y="-518.89" font-family="Arial" font-size="14.00"> The response to the initial fxQuote</text>
</g>
<!-- fxQuoteError&#45;&gt;fxQuoteResponse -->
<g id="edge1" class="edge">
<title>fxQuoteError:fxQuoteResponseId&#45;&gt;fxQuoteResponse:fxQuoteResponseId</title>
<path fill="none" stroke="black" d="M515.03,-521.01C551.5,-512.17 521.92,-451.38 555.56,-417.29 648.66,-322.98 689.81,-284.09 822.33,-284.09"/>
<polygon fill="black" stroke="black" points="515.2,-520.99 504.78,-517.58 509.89,-521.56 505.59,-522.02 505.59,-522.02 505.59,-522.02 509.89,-521.56 505.73,-526.53 515.2,-520.99"/>
<text text-anchor="start" x="511.92" y="-532.09" font-family="Arial" font-size="10.00">FOREIGN KEY (fxQuoteResponseId) REFERENCES fxQuoteResponse (fxQuoteResponseId)</text>
</g>
<!-- fxQuoteResponseConversionTerms -->
<g id="node3" class="node">
<title>fxQuoteResponseConversionTerms</title>
<polygon fill="#efefef" stroke="none" points="607.94,-645.29 607.94,-680.89 1305.18,-680.89 1305.18,-645.29 607.94,-645.29"/>
<polygon fill="none" stroke="black" points="607.94,-645.29 607.94,-680.89 1305.18,-680.89 1305.18,-645.29 607.94,-645.29"/>
<text text-anchor="start" x="765.84" y="-658.69" font-family="Arial Bold" font-size="18.00">fxQuoteResponseConversionTerms</text>
<text text-anchor="start" x="1022.79" y="-658.69" font-family="Arial" font-size="14.00">    </text>
<text text-anchor="start" x="1053.91" y="-658.69" font-family="Arial" font-size="14.00" fill="#666666">[BASE TABLE]</text>
<polygon fill="none" stroke="black" points="607.94,-614.49 607.94,-645.29 1305.18,-645.29 1305.18,-614.49 607.94,-614.49"/>
<text text-anchor="start" x="614.94" y="-626.69" font-family="Arial" font-size="14.00">conversionId </text>
<text text-anchor="start" x="698.21" y="-626.69" font-family="Arial" font-size="14.00" fill="#666666">[varchar(255)]</text>
<polygon fill="none" stroke="black" points="607.94,-583.69 607.94,-614.49 1305.18,-614.49 1305.18,-583.69 607.94,-583.69"/>
<text text-anchor="start" x="614.94" y="-595.89" font-family="Arial" font-size="14.00">conversionRequestId </text>
<text text-anchor="start" x="750.35" y="-595.89" font-family="Arial" font-size="14.00" fill="#666666">[varchar(36)]</text>
<polygon fill="none" stroke="black" points="607.94,-552.89 607.94,-583.69 1305.18,-583.69 1305.18,-552.89 607.94,-552.89"/>
<text text-anchor="start" x="614.94" y="-565.09" font-family="Arial" font-size="14.00">fxQuoteResponseId </text>
<text text-anchor="start" x="742.57" y="-565.09" font-family="Arial" font-size="14.00" fill="#666666">[bigint unsigned]</text>
<polygon fill="none" stroke="black" points="607.94,-522.09 607.94,-552.89 1305.18,-552.89 1305.18,-522.09 607.94,-522.09"/>
<text text-anchor="start" x="614.94" y="-534.29" font-family="Arial" font-size="14.00">amountTypeId </text>
<text text-anchor="start" x="708.32" y="-534.29" font-family="Arial" font-size="14.00" fill="#666666">[int unsigned]</text>
<text text-anchor="start" x="791.61" y="-534.29" font-family="Arial" font-size="14.00"> This is part of the transaction type that contains valid elements for &#45; Amount Type</text>
<polygon fill="none" stroke="black" points="607.94,-491.29 607.94,-522.09 1305.18,-522.09 1305.18,-491.29 607.94,-491.29"/>
<text text-anchor="start" x="614.94" y="-503.49" font-family="Arial" font-size="14.00">sourceCurrency </text>
<text text-anchor="start" x="717.64" y="-503.49" font-family="Arial" font-size="14.00" fill="#666666">[varchar(3)]</text>
<polygon fill="none" stroke="black" points="607.94,-460.49 607.94,-491.29 1305.18,-491.29 1305.18,-460.49 607.94,-460.49"/>
<text text-anchor="start" x="614.94" y="-472.69" font-family="Arial" font-size="14.00">targetCurrency </text>
<text text-anchor="start" x="711.42" y="-472.69" font-family="Arial" font-size="14.00" fill="#666666">[varchar(3)]</text>
</g>
<!-- fxQuoteResponseConversionTerms&#45;&gt;fxQuoteResponse -->
<g id="edge2" class="edge">
<title>fxQuoteResponseConversionTerms:fxQuoteResponseId&#45;&gt;fxQuoteResponse:fxQuoteResponseId</title>
<path fill="none" stroke="black" d="M1316.29,-567.49C1369.44,-558.28 1336.2,-472.64 1305.18,-417.29 1250.35,-319.43 1202.97,-284.09 1090.79,-284.09"/>
<polygon fill="black" stroke="black" points="1316.48,-567.47 1306.16,-563.78 1311.17,-567.9 1306.85,-568.24 1306.85,-568.24 1306.85,-568.24 1311.17,-567.9 1306.88,-572.75 1316.48,-567.47"/>
<text text-anchor="start" x="1097.21" y="-552.29" font-family="Arial" font-size="10.00">FOREIGN KEY (fxQuoteResponseId) REFERENCES fxQuoteResponse (fxQuoteResponseId)</text>
</g>
<!-- fxQuoteResponseDuplicateCheck -->
<g id="node4" class="node">
<title>fxQuoteResponseDuplicateCheck</title>
<polygon fill="#efefef" stroke="none" points="1409.2,-583.69 1409.2,-619.29 1855.93,-619.29 1855.93,-583.69 1409.2,-583.69"/>
<polygon fill="none" stroke="black" points="1409.2,-583.69 1409.2,-619.29 1855.93,-619.29 1855.93,-583.69 1409.2,-583.69"/>
<text text-anchor="start" x="1448.35" y="-597.09" font-family="Arial Bold" font-size="18.00">fxQuoteResponseDuplicateCheck</text>
<text text-anchor="start" x="1692.28" y="-597.09" font-family="Arial" font-size="14.00">    </text>
<text text-anchor="start" x="1723.4" y="-597.09" font-family="Arial" font-size="14.00" fill="#666666">[BASE TABLE]</text>
<polygon fill="none" stroke="black" points="1409.2,-552.89 1409.2,-583.69 1855.93,-583.69 1855.93,-552.89 1409.2,-552.89"/>
<text text-anchor="start" x="1416.2" y="-565.09" font-family="Arial" font-size="14.00">fxQuoteResponseId </text>
<text text-anchor="start" x="1543.83" y="-565.09" font-family="Arial" font-size="14.00" fill="#666666">[bigint unsigned]</text>
<text text-anchor="start" x="1645.8" y="-565.09" font-family="Arial" font-size="14.00"> The response to the initial quote</text>
<polygon fill="none" stroke="black" points="1409.2,-522.09 1409.2,-552.89 1855.93,-552.89 1855.93,-522.09 1409.2,-522.09"/>
<text text-anchor="start" x="1416.2" y="-534.29" font-family="Arial" font-size="14.00">conversionRequestId </text>
<text text-anchor="start" x="1551.61" y="-534.29" font-family="Arial" font-size="14.00" fill="#666666">[varchar(36)]</text>
</g>
<!-- fxQuoteResponseDuplicateCheck&#45;&gt;fxQuoteResponse -->
<g id="edge3" class="edge">
<title>fxQuoteResponseDuplicateCheck:fxQuoteResponseId&#45;&gt;fxQuoteResponse:fxQuoteResponseId</title>
<path fill="none" stroke="black" d="M1398.11,-567.5C1344.12,-558.13 1401.55,-467.9 1357.56,-417.29 1270.62,-317.28 1223.32,-284.09 1090.79,-284.09"/>
<polygon fill="black" stroke="black" points="1397.89,-567.48 1407.51,-572.75 1403.21,-567.9 1407.53,-568.24 1407.53,-568.24 1407.53,-568.24 1403.21,-567.9 1408.22,-563.78 1397.89,-567.48"/>
<text text-anchor="start" x="983.25" y="-578.29" font-family="Arial" font-size="10.00">FOREIGN KEY (fxQuoteResponseId) REFERENCES fxQuoteResponse (fxQuoteResponseId)</text>
</g>
</g>
</svg>
