<?xml version="1.0" encoding="UTF-8" standalone="no"?>
<!DOCTYPE svg PUBLIC "-//W3C//DTD SVG 1.1//EN"
 "http://www.w3.org/Graphics/SVG/1.1/DTD/svg11.dtd">
<!-- Generated by graphviz version 12.1.2 (20240928.0832)
 -->
<!-- Title: fxQuote Pages: 1 -->
<svg width="3079pt" height="510pt"
 viewBox="0.00 0.00 3079.39 510.36" xmlns="http://www.w3.org/2000/svg" xmlns:xlink="http://www.w3.org/1999/xlink">
<g id="graph0" class="graph" transform="scale(1 1) rotate(0) translate(4 506.36)">
<title>fxQuote</title>
<polygon fill="white" stroke="none" points="-4,4 -4,-506.36 3075.39,-506.36 3075.39,4 -4,4"/>
<!-- fxQuote -->
<g id="node1" class="node">
<title>fxQuote</title>
<polygon fill="#efefef" stroke="none" points="1428.44,-77.76 1428.44,-113.36 1657.21,-113.36 1657.21,-77.76 1428.44,-77.76"/>
<polygon fill="none" stroke="black" points="1428.44,-77.76 1428.44,-113.36 1657.21,-113.36 1657.21,-77.76 1428.44,-77.76"/>
<text text-anchor="start" x="1451.09" y="-91.16" font-family="Arial Bold" font-size="18.00">fxQuote</text>
<text text-anchor="start" x="1510.07" y="-91.16" font-family="Arial" font-size="14.00">    </text>
<text text-anchor="start" x="1541.19" y="-91.16" font-family="Arial" font-size="14.00" fill="#666666">[BASE TABLE]</text>
<polygon fill="none" stroke="black" points="1428.44,-46.96 1428.44,-77.76 1657.21,-77.76 1657.21,-46.96 1428.44,-46.96"/>
<text text-anchor="start" x="1435.44" y="-59.16" font-family="Arial" font-size="14.00">conversionRequestId </text>
<text text-anchor="start" x="1570.85" y="-59.16" font-family="Arial" font-size="14.00" fill="#666666">[varchar(36)]</text>
<polygon fill="none" stroke="black" stroke-width="3" points="1426.94,-45.46 1426.94,-114.86 1658.71,-114.86 1658.71,-45.46 1426.94,-45.46"/>
</g>
<!-- fxQuoteConversionTerms -->
<g id="node2" class="node">
<title>fxQuoteConversionTerms</title>
<polygon fill="#efefef" stroke="none" points="43.2,-408.16 43.2,-443.76 740.45,-443.76 740.45,-408.16 43.2,-408.16"/>
<polygon fill="none" stroke="black" points="43.2,-408.16 43.2,-443.76 740.45,-443.76 740.45,-408.16 43.2,-408.16"/>
<text text-anchor="start" x="235.6" y="-421.56" font-family="Arial Bold" font-size="18.00">fxQuoteConversionTerms</text>
<text text-anchor="start" x="423.56" y="-421.56" font-family="Arial" font-size="14.00">    </text>
<text text-anchor="start" x="454.68" y="-421.56" font-family="Arial" font-size="14.00" fill="#666666">[BASE TABLE]</text>
<polygon fill="none" stroke="black" points="43.2,-377.36 43.2,-408.16 740.45,-408.16 740.45,-377.36 43.2,-377.36"/>
<text text-anchor="start" x="50.2" y="-389.56" font-family="Arial" font-size="14.00">conversionId </text>
<text text-anchor="start" x="133.47" y="-389.56" font-family="Arial" font-size="14.00" fill="#666666">[varchar(255)]</text>
<polygon fill="none" stroke="black" points="43.2,-346.56 43.2,-377.36 740.45,-377.36 740.45,-346.56 43.2,-346.56"/>
<text text-anchor="start" x="50.2" y="-358.76" font-family="Arial" font-size="14.00">conversionRequestId </text>
<text text-anchor="start" x="185.61" y="-358.76" font-family="Arial" font-size="14.00" fill="#666666">[varchar(36)]</text>
<polygon fill="none" stroke="black" points="43.2,-315.76 43.2,-346.56 740.45,-346.56 740.45,-315.76 43.2,-315.76"/>
<text text-anchor="start" x="50.2" y="-327.96" font-family="Arial" font-size="14.00">amountTypeId </text>
<text text-anchor="start" x="143.59" y="-327.96" font-family="Arial" font-size="14.00" fill="#666666">[int unsigned]</text>
<text text-anchor="start" x="226.87" y="-327.96" font-family="Arial" font-size="14.00"> This is part of the transaction type that contains valid elements for &#45; Amount Type</text>
<polygon fill="none" stroke="black" points="43.2,-284.96 43.2,-315.76 740.45,-315.76 740.45,-284.96 43.2,-284.96"/>
<text text-anchor="start" x="50.2" y="-297.16" font-family="Arial" font-size="14.00">sourceCurrency </text>
<text text-anchor="start" x="152.9" y="-297.16" font-family="Arial" font-size="14.00" fill="#666666">[varchar(3)]</text>
<polygon fill="none" stroke="black" points="43.2,-254.16 43.2,-284.96 740.45,-284.96 740.45,-254.16 43.2,-254.16"/>
<text text-anchor="start" x="50.2" y="-266.36" font-family="Arial" font-size="14.00">targetCurrency </text>
<text text-anchor="start" x="146.68" y="-266.36" font-family="Arial" font-size="14.00" fill="#666666">[varchar(3)]</text>
</g>
<!-- fxQuoteConversionTerms&#45;&gt;fxQuote -->
<g id="edge1" class="edge">
<title>fxQuoteConversionTerms:conversionRequestId&#45;&gt;fxQuote:conversionRequestId</title>
<path fill="none" stroke="black" d="M751.65,-361.16C810.86,-350.96 737.63,-245.21 791.82,-195.56 898.23,-98.07 1283.12,-62.36 1427.44,-62.36"/>
<polygon fill="black" stroke="black" points="751.75,-361.16 741.43,-357.45 746.43,-361.57 742.11,-361.91 742.11,-361.91 742.11,-361.91 746.43,-361.57 742.13,-366.42 751.75,-361.16"/>
<text text-anchor="start" x="549.43" y="-345.96" font-family="Arial" font-size="10.00">FOREIGN KEY (conversionRequestId) REFERENCES fxQuote (conversionRequestId)</text>
</g>
<!-- fxQuoteError -->
<g id="node3" class="node">
<title>fxQuoteError</title>
<polygon fill="#efefef" stroke="none" points="844.46,-377.36 844.46,-412.96 1305.18,-412.96 1305.18,-377.36 844.46,-377.36"/>
<polygon fill="none" stroke="black" points="844.46,-377.36 844.46,-412.96 1305.18,-412.96 1305.18,-377.36 844.46,-377.36"/>
<text text-anchor="start" x="964.1" y="-390.76" font-family="Arial Bold" font-size="18.00">fxQuoteError</text>
<text text-anchor="start" x="1061.06" y="-390.76" font-family="Arial" font-size="14.00">    </text>
<text text-anchor="start" x="1092.18" y="-390.76" font-family="Arial" font-size="14.00" fill="#666666">[BASE TABLE]</text>
<polygon fill="none" stroke="black" points="844.46,-346.56 844.46,-377.36 1305.18,-377.36 1305.18,-346.56 844.46,-346.56"/>
<text text-anchor="start" x="851.46" y="-358.76" font-family="Arial" font-size="14.00">fxQuoteErrorId </text>
<text text-anchor="start" x="947.16" y="-358.76" font-family="Arial" font-size="14.00" fill="#666666">[bigint unsigned]</text>
<polygon fill="none" stroke="black" points="844.46,-315.76 844.46,-346.56 1305.18,-346.56 1305.18,-315.76 844.46,-315.76"/>
<text text-anchor="start" x="851.46" y="-327.96" font-family="Arial" font-size="14.00">conversionRequestId </text>
<text text-anchor="start" x="986.87" y="-327.96" font-family="Arial" font-size="14.00" fill="#666666">[varchar(36)]</text>
<polygon fill="none" stroke="black" points="844.46,-284.96 844.46,-315.76 1305.18,-315.76 1305.18,-284.96 844.46,-284.96"/>
<text text-anchor="start" x="851.46" y="-297.16" font-family="Arial" font-size="14.00">fxQuoteResponseId </text>
<text text-anchor="start" x="979.1" y="-297.16" font-family="Arial" font-size="14.00" fill="#666666">[bigint unsigned]</text>
<text text-anchor="start" x="1081.06" y="-297.16" font-family="Arial" font-size="14.00"> The response to the initial fxQuote</text>
</g>
<!-- fxQuoteError&#45;&gt;fxQuote -->
<g id="edge2" class="edge">
<title>fxQuoteError:conversionRequestId&#45;&gt;fxQuote:conversionRequestId</title>
<path fill="none" stroke="black" d="M1316.48,-330.39C1366.29,-322.22 1332.92,-250.93 1357.82,-195.56 1385.23,-134.64 1360.64,-62.36 1427.44,-62.36"/>
<polygon fill="black" stroke="black" points="1316.49,-330.39 1306.18,-326.65 1311.17,-330.79 1306.85,-331.11 1306.85,-331.11 1306.85,-331.11 1311.17,-330.79 1306.85,-335.62 1316.49,-330.39"/>
<text text-anchor="start" x="1313.18" y="-341.16" font-family="Arial" font-size="10.00">FOREIGN KEY (conversionRequestId) REFERENCES fxQuote (conversionRequestId)</text>
</g>
<!-- fxQuoteResponse -->
<g id="node4" class="node">
<title>fxQuoteResponse</title>
<polygon fill="#efefef" stroke="none" points="1409.59,-361.96 1409.59,-397.56 1676.06,-397.56 1676.06,-361.96 1409.59,-361.96"/>
<polygon fill="none" stroke="black" points="1409.59,-361.96 1409.59,-397.56 1676.06,-397.56 1676.06,-361.96 1409.59,-361.96"/>
<text text-anchor="start" x="1416.59" y="-375.36" font-family="Arial Bold" font-size="18.00">fxQuoteResponse</text>
<text text-anchor="start" x="1544.57" y="-375.36" font-family="Arial" font-size="14.00">    </text>
<text text-anchor="start" x="1575.68" y="-375.36" font-family="Arial" font-size="14.00" fill="#666666">[BASE TABLE]</text>
<polygon fill="none" stroke="black" points="1409.59,-331.16 1409.59,-361.96 1676.06,-361.96 1676.06,-331.16 1409.59,-331.16"/>
<text text-anchor="start" x="1416.59" y="-343.36" font-family="Arial" font-size="14.00">fxQuoteResponseId </text>
<text text-anchor="start" x="1544.22" y="-343.36" font-family="Arial" font-size="14.00" fill="#666666">[bigint unsigned]</text>
<polygon fill="none" stroke="black" points="1409.59,-300.36 1409.59,-331.16 1676.06,-331.16 1676.06,-300.36 1409.59,-300.36"/>
<text text-anchor="start" x="1416.59" y="-312.56" font-family="Arial" font-size="14.00">conversionRequestId </text>
<text text-anchor="start" x="1552" y="-312.56" font-family="Arial" font-size="14.00" fill="#666666">[varchar(36)]</text>
</g>
<!-- fxQuoteResponse&#45;&gt;fxQuote -->
<g id="edge3" class="edge">
<title>fxQuoteResponse:conversionRequestId&#45;&gt;fxQuote:conversionRequestId</title>
<path fill="none" stroke="black" d="M1543.31,-289.37C1551.72,-207.6 1665.65,-242.49 1703.41,-159.56 1724.14,-114.01 1738.68,-82.46 1703.41,-46.96 1653.1,3.67 1542.82,25.41 1542.82,-45.96"/>
<polygon fill="black" stroke="black" points="1543.33,-289.04 1538.34,-298.81 1543.07,-294.37 1542.86,-298.69 1542.86,-298.69 1542.86,-298.69 1543.07,-294.37 1547.33,-299.25 1543.33,-289.04"/>
<text text-anchor="start" x="1450.31" y="-283.36" font-family="Arial" font-size="10.00">FOREIGN KEY (conversionRequestId) REFERENCES fxQuote (conversionRequestId)</text>
</g>
<!-- fxQuoteResponseConversionTerms -->
<g id="node5" class="node">
<title>fxQuoteResponseConversionTerms</title>
<polygon fill="#efefef" stroke="none" points="1780.2,-423.56 1780.2,-459.16 2477.45,-459.16 2477.45,-423.56 1780.2,-423.56"/>
<polygon fill="none" stroke="black" points="1780.2,-423.56 1780.2,-459.16 2477.45,-459.16 2477.45,-423.56 1780.2,-423.56"/>
<text text-anchor="start" x="1938.1" y="-436.96" font-family="Arial Bold" font-size="18.00">fxQuoteResponseConversionTerms</text>
<text text-anchor="start" x="2195.06" y="-436.96" font-family="Arial" font-size="14.00">    </text>
<text text-anchor="start" x="2226.17" y="-436.96" font-family="Arial" font-size="14.00" fill="#666666">[BASE TABLE]</text>
<polygon fill="none" stroke="black" points="1780.2,-392.76 1780.2,-423.56 2477.45,-423.56 2477.45,-392.76 1780.2,-392.76"/>
<text text-anchor="start" x="1787.2" y="-404.96" font-family="Arial" font-size="14.00">conversionId </text>
<text text-anchor="start" x="1870.47" y="-404.96" font-family="Arial" font-size="14.00" fill="#666666">[varchar(255)]</text>
<polygon fill="none" stroke="black" points="1780.2,-361.96 1780.2,-392.76 2477.45,-392.76 2477.45,-361.96 1780.2,-361.96"/>
<text text-anchor="start" x="1787.2" y="-374.16" font-family="Arial" font-size="14.00">conversionRequestId </text>
<text text-anchor="start" x="1922.61" y="-374.16" font-family="Arial" font-size="14.00" fill="#666666">[varchar(36)]</text>
<polygon fill="none" stroke="black" points="1780.2,-331.16 1780.2,-361.96 2477.45,-361.96 2477.45,-331.16 1780.2,-331.16"/>
<text text-anchor="start" x="1787.2" y="-343.36" font-family="Arial" font-size="14.00">fxQuoteResponseId </text>
<text text-anchor="start" x="1914.83" y="-343.36" font-family="Arial" font-size="14.00" fill="#666666">[bigint unsigned]</text>
<polygon fill="none" stroke="black" points="1780.2,-300.36 1780.2,-331.16 2477.45,-331.16 2477.45,-300.36 1780.2,-300.36"/>
<text text-anchor="start" x="1787.2" y="-312.56" font-family="Arial" font-size="14.00">amountTypeId </text>
<text text-anchor="start" x="1880.59" y="-312.56" font-family="Arial" font-size="14.00" fill="#666666">[int unsigned]</text>
<text text-anchor="start" x="1963.87" y="-312.56" font-family="Arial" font-size="14.00"> This is part of the transaction type that contains valid elements for &#45; Amount Type</text>
<polygon fill="none" stroke="black" points="1780.2,-269.56 1780.2,-300.36 2477.45,-300.36 2477.45,-269.56 1780.2,-269.56"/>
<text text-anchor="start" x="1787.2" y="-281.76" font-family="Arial" font-size="14.00">sourceCurrency </text>
<text text-anchor="start" x="1889.9" y="-281.76" font-family="Arial" font-size="14.00" fill="#666666">[varchar(3)]</text>
<polygon fill="none" stroke="black" points="1780.2,-238.76 1780.2,-269.56 2477.45,-269.56 2477.45,-238.76 1780.2,-238.76"/>
<text text-anchor="start" x="1787.2" y="-250.96" font-family="Arial" font-size="14.00">targetCurrency </text>
<text text-anchor="start" x="1883.68" y="-250.96" font-family="Arial" font-size="14.00" fill="#666666">[varchar(3)]</text>
</g>
<!-- fxQuoteResponseConversionTerms&#45;&gt;fxQuote -->
<g id="edge4" class="edge">
<title>fxQuoteResponseConversionTerms:conversionRequestId&#45;&gt;fxQuote:conversionRequestId</title>
<path fill="none" stroke="black" d="M1769.17,-376.8C1700.53,-368.49 1757.52,-270.23 1727.82,-195.56 1703.14,-133.49 1725.01,-62.36 1658.21,-62.36"/>
<polygon fill="black" stroke="black" points="1768.88,-376.78 1778.61,-381.83 1774.21,-377.08 1778.53,-377.32 1778.53,-377.32 1778.53,-377.32 1774.21,-377.08 1779.12,-372.85 1768.88,-376.78"/>
<text text-anchor="start" x="1388.17" y="-387.36" font-family="Arial" font-size="10.00">FOREIGN KEY (conversionRequestId) REFERENCES fxQuote (conversionRequestId)</text>
</g>
<!-- fxQuoteResponseDuplicateCheck -->
<g id="node6" class="node">
<title>fxQuoteResponseDuplicateCheck</title>
<polygon fill="#efefef" stroke="none" points="2581.46,-361.96 2581.46,-397.56 3028.19,-397.56 3028.19,-361.96 2581.46,-361.96"/>
<polygon fill="none" stroke="black" points="2581.46,-361.96 2581.46,-397.56 3028.19,-397.56 3028.19,-361.96 2581.46,-361.96"/>
<text text-anchor="start" x="2620.61" y="-375.36" font-family="Arial Bold" font-size="18.00">fxQuoteResponseDuplicateCheck</text>
<text text-anchor="start" x="2864.54" y="-375.36" font-family="Arial" font-size="14.00">    </text>
<text text-anchor="start" x="2895.66" y="-375.36" font-family="Arial" font-size="14.00" fill="#666666">[BASE TABLE]</text>
<polygon fill="none" stroke="black" points="2581.46,-331.16 2581.46,-361.96 3028.19,-361.96 3028.19,-331.16 2581.46,-331.16"/>
<text text-anchor="start" x="2588.46" y="-343.36" font-family="Arial" font-size="14.00">fxQuoteResponseId </text>
<text text-anchor="start" x="2716.09" y="-343.36" font-family="Arial" font-size="14.00" fill="#666666">[bigint unsigned]</text>
<text text-anchor="start" x="2818.06" y="-343.36" font-family="Arial" font-size="14.00"> The response to the initial quote</text>
<polygon fill="none" stroke="black" points="2581.46,-300.36 2581.46,-331.16 3028.19,-331.16 3028.19,-300.36 2581.46,-300.36"/>
<text text-anchor="start" x="2588.46" y="-312.56" font-family="Arial" font-size="14.00">conversionRequestId </text>
<text text-anchor="start" x="2723.87" y="-312.56" font-family="Arial" font-size="14.00" fill="#666666">[varchar(36)]</text>
</g>
<!-- fxQuoteResponseDuplicateCheck&#45;&gt;fxQuote -->
<g id="edge5" class="edge">
<title>fxQuoteResponseDuplicateCheck:conversionRequestId&#45;&gt;fxQuote:conversionRequestId</title>
<path fill="none" stroke="black" d="M2570.32,-314.68C2529.1,-304.74 2572.51,-228.82 2529.82,-195.56 2375.26,-75.14 1854.15,-62.36 1658.21,-62.36"/>
<polygon fill="black" stroke="black" points="2570.18,-314.67 2579.65,-320.2 2575.49,-315.23 2579.79,-315.69 2579.79,-315.69 2579.79,-315.69 2575.49,-315.23 2580.6,-311.25 2570.18,-314.67"/>
<text text-anchor="start" x="2189.43" y="-325.76" font-family="Arial" font-size="10.00">FOREIGN KEY (conversionRequestId) REFERENCES fxQuote (conversionRequestId)</text>
</g>
</g>
</svg>
