<?xml version="1.0" encoding="UTF-8" standalone="no"?>
<!DOCTYPE svg PUBLIC "-//W3C//DTD SVG 1.1//EN"
 "http://www.w3.org/Graphics/SVG/1.1/DTD/svg11.dtd">
<!-- Generated by graphviz version 12.1.2 (20240928.0832)
 -->
<!-- Title: fxQuoteConversionTerms Pages: 1 -->
<svg width="1262pt" height="1130pt"
 viewBox="0.00 0.00 1262.26 1129.60" xmlns="http://www.w3.org/2000/svg" xmlns:xlink="http://www.w3.org/1999/xlink">
<g id="graph0" class="graph" transform="scale(1 1) rotate(0) translate(4 1125.6)">
<title>fxQuoteConversionTerms</title>
<polygon fill="white" stroke="none" points="-4,4 -4,-1125.6 1258.26,-1125.6 1258.26,4 -4,4"/>
<!-- fxQuoteConversionTerms -->
<g id="node1" class="node">
<title>fxQuoteConversionTerms</title>
<polygon fill="#efefef" stroke="none" points="488.36,-727.8 488.36,-763.4 814.81,-763.4 814.81,-727.8 488.36,-727.8"/>
<polygon fill="none" stroke="black" points="488.36,-727.8 488.36,-763.4 814.81,-763.4 814.81,-727.8 488.36,-727.8"/>
<text text-anchor="start" x="495.36" y="-741.2" font-family="Arial Bold" font-size="18.00">fxQuoteConversionTerms</text>
<text text-anchor="start" x="683.32" y="-741.2" font-family="Arial" font-size="14.00">    </text>
<text text-anchor="start" x="714.44" y="-741.2" font-family="Arial" font-size="14.00" fill="#666666">[BASE TABLE]</text>
<polygon fill="none" stroke="black" points="488.36,-697 488.36,-727.8 814.81,-727.8 814.81,-697 488.36,-697"/>
<text text-anchor="start" x="495.36" y="-709.2" font-family="Arial" font-size="14.00">conversionId </text>
<text text-anchor="start" x="578.63" y="-709.2" font-family="Arial" font-size="14.00" fill="#666666">[varchar(255)]</text>
<polygon fill="none" stroke="black" points="488.36,-666.2 488.36,-697 814.81,-697 814.81,-666.2 488.36,-666.2"/>
<text text-anchor="start" x="495.36" y="-678.4" font-family="Arial" font-size="14.00">determiningTransferId </text>
<text text-anchor="start" x="636.2" y="-678.4" font-family="Arial" font-size="14.00" fill="#666666">[varchar(36)]</text>
<polygon fill="none" stroke="black" points="488.36,-635.4 488.36,-666.2 814.81,-666.2 814.81,-635.4 488.36,-635.4"/>
<text text-anchor="start" x="495.36" y="-647.6" font-family="Arial" font-size="14.00">conversionRequestId </text>
<text text-anchor="start" x="630.77" y="-647.6" font-family="Arial" font-size="14.00" fill="#666666">[varchar(36)]</text>
<polygon fill="none" stroke="black" points="488.36,-604.6 488.36,-635.4 814.81,-635.4 814.81,-604.6 488.36,-604.6"/>
<text text-anchor="start" x="495.36" y="-616.8" font-family="Arial" font-size="14.00">amountTypeId </text>
<text text-anchor="start" x="588.75" y="-616.8" font-family="Arial" font-size="14.00" fill="#666666">[int unsigned]</text>
<polygon fill="none" stroke="black" points="488.36,-573.8 488.36,-604.6 814.81,-604.6 814.81,-573.8 488.36,-573.8"/>
<text text-anchor="start" x="495.36" y="-586" font-family="Arial" font-size="14.00">initiatingFsp </text>
<text text-anchor="start" x="573.95" y="-586" font-family="Arial" font-size="14.00" fill="#666666">[varchar(255)]</text>
<polygon fill="none" stroke="black" points="488.36,-543 488.36,-573.8 814.81,-573.8 814.81,-543 488.36,-543"/>
<text text-anchor="start" x="495.36" y="-555.2" font-family="Arial" font-size="14.00">counterPartyFsp </text>
<text text-anchor="start" x="601.96" y="-555.2" font-family="Arial" font-size="14.00" fill="#666666">[varchar(255)]</text>
<polygon fill="none" stroke="black" points="488.36,-512.2 488.36,-543 814.81,-543 814.81,-512.2 488.36,-512.2"/>
<text text-anchor="start" x="495.36" y="-524.4" font-family="Arial" font-size="14.00">sourceAmount </text>
<text text-anchor="start" x="589.52" y="-524.4" font-family="Arial" font-size="14.00" fill="#666666">[decimal(18,4)]</text>
<polygon fill="none" stroke="black" points="488.36,-481.4 488.36,-512.2 814.81,-512.2 814.81,-481.4 488.36,-481.4"/>
<text text-anchor="start" x="495.36" y="-493.6" font-family="Arial" font-size="14.00">sourceCurrency </text>
<text text-anchor="start" x="598.06" y="-493.6" font-family="Arial" font-size="14.00" fill="#666666">[varchar(3)]</text>
<polygon fill="none" stroke="black" points="488.36,-450.6 488.36,-481.4 814.81,-481.4 814.81,-450.6 488.36,-450.6"/>
<text text-anchor="start" x="495.36" y="-462.8" font-family="Arial" font-size="14.00">targetAmount </text>
<text text-anchor="start" x="583.3" y="-462.8" font-family="Arial" font-size="14.00" fill="#666666">[decimal(18,4)]</text>
<polygon fill="none" stroke="black" points="488.36,-419.8 488.36,-450.6 814.81,-450.6 814.81,-419.8 488.36,-419.8"/>
<text text-anchor="start" x="495.36" y="-432" font-family="Arial" font-size="14.00">targetCurrency </text>
<text text-anchor="start" x="591.84" y="-432" font-family="Arial" font-size="14.00" fill="#666666">[varchar(3)]</text>
<polygon fill="none" stroke="black" points="488.36,-389 488.36,-419.8 814.81,-419.8 814.81,-389 488.36,-389"/>
<text text-anchor="start" x="495.36" y="-401.2" font-family="Arial" font-size="14.00">expirationDate </text>
<text text-anchor="start" x="589.52" y="-401.2" font-family="Arial" font-size="14.00" fill="#666666">[datetime]</text>
<polygon fill="none" stroke="black" points="488.36,-358.2 488.36,-389 814.81,-389 814.81,-358.2 488.36,-358.2"/>
<text text-anchor="start" x="495.36" y="-370.4" font-family="Arial" font-size="14.00">createdDate </text>
<text text-anchor="start" x="575.52" y="-370.4" font-family="Arial" font-size="14.00" fill="#666666">[datetime]</text>
<polygon fill="none" stroke="black" stroke-width="3" points="486.86,-356.7 486.86,-764.9 816.31,-764.9 816.31,-356.7 486.86,-356.7"/>
</g>
<!-- fxQuote -->
<g id="node3" class="node">
<title>fxQuote</title>
<polygon fill="#efefef" stroke="none" points="43.2,-151 43.2,-186.6 271.97,-186.6 271.97,-151 43.2,-151"/>
<polygon fill="none" stroke="black" points="43.2,-151 43.2,-186.6 271.97,-186.6 271.97,-151 43.2,-151"/>
<text text-anchor="start" x="65.85" y="-164.4" font-family="Arial Bold" font-size="18.00">fxQuote</text>
<text text-anchor="start" x="124.83" y="-164.4" font-family="Arial" font-size="14.00">    </text>
<text text-anchor="start" x="155.95" y="-164.4" font-family="Arial" font-size="14.00" fill="#666666">[BASE TABLE]</text>
<polygon fill="none" stroke="black" points="43.2,-120.2 43.2,-151 271.97,-151 271.97,-120.2 43.2,-120.2"/>
<text text-anchor="start" x="50.2" y="-132.4" font-family="Arial" font-size="14.00">conversionRequestId </text>
<text text-anchor="start" x="185.61" y="-132.4" font-family="Arial" font-size="14.00" fill="#666666">[varchar(36)]</text>
<polygon fill="none" stroke="black" points="43.2,-89.4 43.2,-120.2 271.97,-120.2 271.97,-89.4 43.2,-89.4"/>
<text text-anchor="start" x="50.2" y="-101.6" font-family="Arial" font-size="14.00">createdDate </text>
<text text-anchor="start" x="130.36" y="-101.6" font-family="Arial" font-size="14.00" fill="#666666">[datetime]</text>
</g>
<!-- fxQuoteConversionTerms&#45;&gt;fxQuote -->
<g id="edge2" class="edge">
<title>fxQuoteConversionTerms:conversionRequestId&#45;&gt;fxQuote:conversionRequestId</title>
<path fill="none" stroke="black" d="M477.02,-650.57C309.07,-642.76 390.8,-441.29 324.59,-276 299.86,-214.28 339.45,-135.6 272.97,-135.6"/>
<polygon fill="black" stroke="black" points="477.03,-650.57 486.92,-655.29 482.36,-650.69 486.69,-650.78 486.69,-650.78 486.69,-650.78 482.36,-650.69 487.13,-646.29 477.03,-650.57"/>
<text text-anchor="start" x="96.33" y="-660.8" font-family="Arial" font-size="10.00">FOREIGN KEY (conversionRequestId) REFERENCES fxQuote (conversionRequestId)</text>
</g>
<!-- amountType -->
<g id="node4" class="node">
<title>amountType</title>
<polygon fill="#efefef" stroke="none" points="376.85,-181.8 376.85,-217.4 606.32,-217.4 606.32,-181.8 376.85,-181.8"/>
<polygon fill="none" stroke="black" points="376.85,-181.8 376.85,-217.4 606.32,-217.4 606.32,-181.8 376.85,-181.8"/>
<text text-anchor="start" x="383.85" y="-195.2" font-family="Arial Bold" font-size="18.00">amountType</text>
<text text-anchor="start" x="474.83" y="-195.2" font-family="Arial" font-size="14.00">    </text>
<text text-anchor="start" x="505.95" y="-195.2" font-family="Arial" font-size="14.00" fill="#666666">[BASE TABLE]</text>
<polygon fill="none" stroke="black" points="376.85,-151 376.85,-181.8 606.32,-181.8 606.32,-151 376.85,-151"/>
<text text-anchor="start" x="383.85" y="-163.2" font-family="Arial" font-size="14.00">amountTypeId </text>
<text text-anchor="start" x="477.24" y="-163.2" font-family="Arial" font-size="14.00" fill="#666666">[int unsigned]</text>
<polygon fill="none" stroke="black" points="376.85,-120.2 376.85,-151 606.32,-151 606.32,-120.2 376.85,-120.2"/>
<text text-anchor="start" x="383.85" y="-132.4" font-family="Arial" font-size="14.00">name </text>
<text text-anchor="start" x="422.76" y="-132.4" font-family="Arial" font-size="14.00" fill="#666666">[varchar(256)]</text>
<polygon fill="none" stroke="black" points="376.85,-89.4 376.85,-120.2 606.32,-120.2 606.32,-89.4 376.85,-89.4"/>
<text text-anchor="start" x="383.85" y="-101.6" font-family="Arial" font-size="14.00">description </text>
<text text-anchor="start" x="455.45" y="-101.6" font-family="Arial" font-size="14.00" fill="#666666">[varchar(1024)]</text>
<polygon fill="none" stroke="black" points="376.85,-58.6 376.85,-89.4 606.32,-89.4 606.32,-58.6 376.85,-58.6"/>
<text text-anchor="start" x="383.85" y="-70.8" font-family="Arial" font-size="14.00">createdDate </text>
<text text-anchor="start" x="464.01" y="-70.8" font-family="Arial" font-size="14.00" fill="#666666">[datetime]</text>
</g>
<!-- fxQuoteConversionTerms&#45;&gt;amountType -->
<g id="edge3" class="edge">
<title>fxQuoteConversionTerms:amountTypeId&#45;&gt;amountType:amountTypeId</title>
<path fill="none" stroke="black" d="M476.94,-619.6C353.78,-609.84 415.15,-423.37 488.36,-312 519.77,-264.21 574.73,-308.27 606.32,-260.6 629.45,-225.7 649.19,-166.4 607.32,-166.4"/>
<polygon fill="black" stroke="black" points="477.03,-619.6 486.85,-624.48 482.36,-619.81 486.69,-619.97 486.69,-619.97 486.69,-619.97 482.36,-619.81 487.2,-615.49 477.03,-619.6"/>
<text text-anchor="start" x="135.8" y="-630" font-family="Arial" font-size="10.00">FOREIGN KEY (amountTypeId) REFERENCES amountType (amountTypeId)</text>
</g>
<!-- currency -->
<g id="node5" class="node">
<title>currency</title>
<polygon fill="#efefef" stroke="none" points="710.86,-197.2 710.86,-232.8 912.31,-232.8 912.31,-197.2 710.86,-197.2"/>
<polygon fill="none" stroke="black" points="710.86,-197.2 710.86,-232.8 912.31,-232.8 912.31,-197.2 710.86,-197.2"/>
<text text-anchor="start" x="717.86" y="-210.6" font-family="Arial Bold" font-size="18.00">currency</text>
<text text-anchor="start" x="780.82" y="-210.6" font-family="Arial" font-size="14.00">    </text>
<text text-anchor="start" x="811.94" y="-210.6" font-family="Arial" font-size="14.00" fill="#666666">[BASE TABLE]</text>
<polygon fill="none" stroke="black" points="710.86,-166.4 710.86,-197.2 912.31,-197.2 912.31,-166.4 710.86,-166.4"/>
<text text-anchor="start" x="717.86" y="-178.6" font-family="Arial" font-size="14.00">currencyId </text>
<text text-anchor="start" x="787.11" y="-178.6" font-family="Arial" font-size="14.00" fill="#666666">[varchar(3)]</text>
<polygon fill="none" stroke="black" points="710.86,-135.6 710.86,-166.4 912.31,-166.4 912.31,-135.6 710.86,-135.6"/>
<text text-anchor="start" x="717.86" y="-147.8" font-family="Arial" font-size="14.00">name </text>
<text text-anchor="start" x="756.77" y="-147.8" font-family="Arial" font-size="14.00" fill="#666666">[varchar(128)]</text>
<polygon fill="none" stroke="black" points="710.86,-104.8 710.86,-135.6 912.31,-135.6 912.31,-104.8 710.86,-104.8"/>
<text text-anchor="start" x="717.86" y="-117" font-family="Arial" font-size="14.00">isActive </text>
<text text-anchor="start" x="769.99" y="-117" font-family="Arial" font-size="14.00" fill="#666666">[tinyint(1)]</text>
<polygon fill="none" stroke="black" points="710.86,-74 710.86,-104.8 912.31,-104.8 912.31,-74 710.86,-74"/>
<text text-anchor="start" x="717.86" y="-86.2" font-family="Arial" font-size="14.00">createdDate </text>
<text text-anchor="start" x="798.02" y="-86.2" font-family="Arial" font-size="14.00" fill="#666666">[datetime]</text>
<polygon fill="none" stroke="black" points="710.86,-43.2 710.86,-74 912.31,-74 912.31,-43.2 710.86,-43.2"/>
<text text-anchor="start" x="717.86" y="-55.4" font-family="Arial" font-size="14.00">scale </text>
<text text-anchor="start" x="754.44" y="-55.4" font-family="Arial" font-size="14.00" fill="#666666">[int unsigned]</text>
</g>
<!-- fxQuoteConversionTerms&#45;&gt;currency -->
<g id="edge4" class="edge">
<title>fxQuoteConversionTerms:sourceCurrency&#45;&gt;currency:currencyId</title>
<path fill="none" stroke="black" d="M826.18,-496.1C894.75,-486.3 860.48,-375.78 814.81,-312 786.35,-272.25 739.43,-315.68 710.86,-276 686.4,-242.02 667.99,-181.8 709.86,-181.8"/>
<polygon fill="black" stroke="black" points="826.12,-496.1 815.84,-492.29 820.8,-496.46 816.48,-496.75 816.48,-496.75 816.48,-496.75 820.8,-496.46 816.45,-501.27 826.12,-496.1"/>
<text text-anchor="start" x="822.81" y="-506.8" font-family="Arial" font-size="10.00">FOREIGN KEY (sourceCurrency) REFERENCES currency (currencyId)</text>
</g>
<!-- fxQuoteConversionTerms&#45;&gt;currency -->
<g id="edge5" class="edge">
<title>fxQuoteConversionTerms:targetCurrency&#45;&gt;currency:currencyId</title>
<path fill="none" stroke="black" d="M825.96,-434.13C867.27,-424.6 844.57,-353.44 814.81,-312 786.29,-272.29 739.43,-315.68 710.86,-276 686.4,-242.02 667.99,-181.8 709.86,-181.8"/>
<polygon fill="black" stroke="black" points="826.09,-434.12 815.67,-430.69 820.78,-434.68 816.48,-435.13 816.48,-435.13 816.48,-435.13 820.78,-434.68 816.62,-439.64 826.09,-434.12"/>
<text text-anchor="start" x="822.81" y="-445.2" font-family="Arial" font-size="10.00">FOREIGN KEY (targetCurrency) REFERENCES currency (currencyId)</text>
</g>
<!-- fxQuoteConversionTermsExtension -->
<g id="node2" class="node">
<title>fxQuoteConversionTermsExtension</title>
<polygon fill="#efefef" stroke="none" points="452.36,-1042.8 452.36,-1078.4 850.81,-1078.4 850.81,-1042.8 452.36,-1042.8"/>
<polygon fill="none" stroke="black" points="452.36,-1042.8 452.36,-1078.4 850.81,-1078.4 850.81,-1042.8 452.36,-1042.8"/>
<text text-anchor="start" x="459.36" y="-1056.2" font-family="Arial Bold" font-size="18.00">fxQuoteConversionTermsExtension</text>
<text text-anchor="start" x="719.32" y="-1056.2" font-family="Arial" font-size="14.00">    </text>
<text text-anchor="start" x="750.44" y="-1056.2" font-family="Arial" font-size="14.00" fill="#666666">[BASE TABLE]</text>
<polygon fill="none" stroke="black" points="452.36,-1012 452.36,-1042.8 850.81,-1042.8 850.81,-1012 452.36,-1012"/>
<text text-anchor="start" x="459.36" y="-1024.2" font-family="Arial" font-size="14.00">fxQuoteConversionTermExtension </text>
<text text-anchor="start" x="677.24" y="-1024.2" font-family="Arial" font-size="14.00" fill="#666666">[bigint unsigned]</text>
<polygon fill="none" stroke="black" points="452.36,-981.2 452.36,-1012 850.81,-1012 850.81,-981.2 452.36,-981.2"/>
<text text-anchor="start" x="459.36" y="-993.4" font-family="Arial" font-size="14.00">conversionId </text>
<text text-anchor="start" x="542.63" y="-993.4" font-family="Arial" font-size="14.00" fill="#666666">[varchar(36)]</text>
<polygon fill="none" stroke="black" points="452.36,-950.4 452.36,-981.2 850.81,-981.2 850.81,-950.4 452.36,-950.4"/>
<text text-anchor="start" x="459.36" y="-962.6" font-family="Arial" font-size="14.00">key </text>
<text text-anchor="start" x="485.04" y="-962.6" font-family="Arial" font-size="14.00" fill="#666666">[varchar(128)]</text>
<polygon fill="none" stroke="black" points="452.36,-919.6 452.36,-950.4 850.81,-950.4 850.81,-919.6 452.36,-919.6"/>
<text text-anchor="start" x="459.36" y="-931.8" font-family="Arial" font-size="14.00">value </text>
<text text-anchor="start" x="496.72" y="-931.8" font-family="Arial" font-size="14.00" fill="#666666">[text]</text>
<polygon fill="none" stroke="black" points="452.36,-888.8 452.36,-919.6 850.81,-919.6 850.81,-888.8 452.36,-888.8"/>
<text text-anchor="start" x="459.36" y="-901" font-family="Arial" font-size="14.00">createdDate </text>
<text text-anchor="start" x="539.52" y="-901" font-family="Arial" font-size="14.00" fill="#666666">[datetime]</text>
</g>
<!-- fxQuoteConversionTermsExtension&#45;&gt;fxQuoteConversionTerms -->
<g id="edge1" class="edge">
<title>fxQuoteConversionTermsExtension:conversionId&#45;&gt;fxQuoteConversionTerms:conversionId</title>
<path fill="none" stroke="black" d="M861.89,-995.97C977.09,-981.27 939.65,-712.4 815.81,-712.4"/>
<polygon fill="black" stroke="black" points="862.12,-995.96 851.86,-992.09 856.8,-996.29 852.48,-996.56 852.48,-996.56 852.48,-996.56 856.8,-996.29 852.42,-1001.07 862.12,-995.96"/>
<text text-anchor="start" x="858.81" y="-1006.6" font-family="Arial" font-size="10.00">FOREIGN KEY (conversionId) REFERENCES fxQuoteConversionTerms (conversionId)</text>
</g>
</g>
</svg>
