<?xml version="1.0" encoding="UTF-8" standalone="no"?>
<!DOCTYPE svg PUBLIC "-//W3C//DTD SVG 1.1//EN"
 "http://www.w3.org/Graphics/SVG/1.1/DTD/svg11.dtd">
<!-- Generated by graphviz version 12.1.2 (20240928.0832)
 -->
<!-- Title: fxQuoteDuplicateCheck Pages: 1 -->
<svg width="414pt" height="228pt"
 viewBox="0.00 0.00 413.83 228.40" xmlns="http://www.w3.org/2000/svg" xmlns:xlink="http://www.w3.org/1999/xlink">
<g id="graph0" class="graph" transform="scale(1 1) rotate(0) translate(4 224.4)">
<title>fxQuoteDuplicateCheck</title>
<polygon fill="white" stroke="none" points="-4,4 -4,-224.4 409.83,-224.4 409.83,4 -4,4"/>
<!-- fxQuoteDuplicateCheck -->
<g id="node1" class="node">
<title>fxQuoteDuplicateCheck</title>
<polygon fill="#efefef" stroke="none" points="46.2,-138.6 46.2,-174.2 359.63,-174.2 359.63,-138.6 46.2,-138.6"/>
<polygon fill="none" stroke="black" points="46.2,-138.6 46.2,-174.2 359.63,-174.2 359.63,-138.6 46.2,-138.6"/>
<text text-anchor="start" x="53.2" y="-152" font-family="Arial Bold" font-size="18.00">fxQuoteDuplicateCheck</text>
<text text-anchor="start" x="228.14" y="-152" font-family="Arial" font-size="14.00">    </text>
<text text-anchor="start" x="259.25" y="-152" font-family="Arial" font-size="14.00" fill="#666666">[BASE TABLE]</text>
<polygon fill="none" stroke="black" points="46.2,-107.8 46.2,-138.6 359.63,-138.6 359.63,-107.8 46.2,-107.8"/>
<text text-anchor="start" x="53.2" y="-120" font-family="Arial" font-size="14.00">conversionRequestId </text>
<text text-anchor="start" x="188.61" y="-120" font-family="Arial" font-size="14.00" fill="#666666">[varchar(36)]</text>
<polygon fill="none" stroke="black" points="46.2,-77 46.2,-107.8 359.63,-107.8 359.63,-77 46.2,-77"/>
<text text-anchor="start" x="53.2" y="-89.2" font-family="Arial" font-size="14.00">hash </text>
<text text-anchor="start" x="87.45" y="-89.2" font-family="Arial" font-size="14.00" fill="#666666">[varchar(1024)]</text>
<polygon fill="none" stroke="black" points="46.2,-46.2 46.2,-77 359.63,-77 359.63,-46.2 46.2,-46.2"/>
<text text-anchor="start" x="53.2" y="-58.4" font-family="Arial" font-size="14.00">createdDate </text>
<text text-anchor="start" x="133.36" y="-58.4" font-family="Arial" font-size="14.00" fill="#666666">[datetime]</text>
<polygon fill="none" stroke="black" stroke-width="3" points="44.7,-44.7 44.7,-175.7 361.13,-175.7 361.13,-44.7 44.7,-44.7"/>
</g>
</g>
</svg>
