<?xml version="1.0" encoding="UTF-8" standalone="no"?>
<!DOCTYPE svg PUBLIC "-//W3C//DTD SVG 1.1//EN"
 "http://www.w3.org/Graphics/SVG/1.1/DTD/svg11.dtd">
<!-- Generated by graphviz version 12.1.2 (20240928.0832)
 -->
<!-- Title: fxQuoteResponseConversionTerms Pages: 1 -->
<svg width="1427pt" height="1222pt"
 viewBox="0.00 0.00 1426.87 1222.00" xmlns="http://www.w3.org/2000/svg" xmlns:xlink="http://www.w3.org/1999/xlink">
<g id="graph0" class="graph" transform="scale(1 1) rotate(0) translate(4 1218)">
<title>fxQuoteResponseConversionTerms</title>
<polygon fill="white" stroke="none" points="-4,4 -4,-1218 1422.87,-1218 1422.87,4 -4,4"/>
<!-- fxQuoteResponseConversionTerms -->
<g id="node1" class="node">
<title>fxQuoteResponseConversionTerms</title>
<polygon fill="#efefef" stroke="none" points="663.86,-758.6 663.86,-794.2 1059.31,-794.2 1059.31,-758.6 663.86,-758.6"/>
<polygon fill="none" stroke="black" points="663.86,-758.6 663.86,-794.2 1059.31,-794.2 1059.31,-758.6 663.86,-758.6"/>
<text text-anchor="start" x="670.86" y="-772" font-family="Arial Bold" font-size="18.00">fxQuoteResponseConversionTerms</text>
<text text-anchor="start" x="927.82" y="-772" font-family="Arial" font-size="14.00">    </text>
<text text-anchor="start" x="958.94" y="-772" font-family="Arial" font-size="14.00" fill="#666666">[BASE TABLE]</text>
<polygon fill="none" stroke="black" points="663.86,-727.8 663.86,-758.6 1059.31,-758.6 1059.31,-727.8 663.86,-727.8"/>
<text text-anchor="start" x="670.86" y="-740" font-family="Arial" font-size="14.00">conversionId </text>
<text text-anchor="start" x="754.13" y="-740" font-family="Arial" font-size="14.00" fill="#666666">[varchar(255)]</text>
<polygon fill="none" stroke="black" points="663.86,-697 663.86,-727.8 1059.31,-727.8 1059.31,-697 663.86,-697"/>
<text text-anchor="start" x="670.86" y="-709.2" font-family="Arial" font-size="14.00">determiningTransferId </text>
<text text-anchor="start" x="811.7" y="-709.2" font-family="Arial" font-size="14.00" fill="#666666">[varchar(36)]</text>
<polygon fill="none" stroke="black" points="663.86,-666.2 663.86,-697 1059.31,-697 1059.31,-666.2 663.86,-666.2"/>
<text text-anchor="start" x="670.86" y="-678.4" font-family="Arial" font-size="14.00">conversionRequestId </text>
<text text-anchor="start" x="806.28" y="-678.4" font-family="Arial" font-size="14.00" fill="#666666">[varchar(36)]</text>
<polygon fill="none" stroke="black" points="663.86,-635.4 663.86,-666.2 1059.31,-666.2 1059.31,-635.4 663.86,-635.4"/>
<text text-anchor="start" x="670.86" y="-647.6" font-family="Arial" font-size="14.00">fxQuoteResponseId </text>
<text text-anchor="start" x="798.5" y="-647.6" font-family="Arial" font-size="14.00" fill="#666666">[bigint unsigned]</text>
<polygon fill="none" stroke="black" points="663.86,-604.6 663.86,-635.4 1059.31,-635.4 1059.31,-604.6 663.86,-604.6"/>
<text text-anchor="start" x="670.86" y="-616.8" font-family="Arial" font-size="14.00">amountTypeId </text>
<text text-anchor="start" x="764.25" y="-616.8" font-family="Arial" font-size="14.00" fill="#666666">[int unsigned]</text>
<polygon fill="none" stroke="black" points="663.86,-573.8 663.86,-604.6 1059.31,-604.6 1059.31,-573.8 663.86,-573.8"/>
<text text-anchor="start" x="670.86" y="-586" font-family="Arial" font-size="14.00">initiatingFsp </text>
<text text-anchor="start" x="749.46" y="-586" font-family="Arial" font-size="14.00" fill="#666666">[varchar(255)]</text>
<polygon fill="none" stroke="black" points="663.86,-543 663.86,-573.8 1059.31,-573.8 1059.31,-543 663.86,-543"/>
<text text-anchor="start" x="670.86" y="-555.2" font-family="Arial" font-size="14.00">counterPartyFsp </text>
<text text-anchor="start" x="777.46" y="-555.2" font-family="Arial" font-size="14.00" fill="#666666">[varchar(255)]</text>
<polygon fill="none" stroke="black" points="663.86,-512.2 663.86,-543 1059.31,-543 1059.31,-512.2 663.86,-512.2"/>
<text text-anchor="start" x="670.86" y="-524.4" font-family="Arial" font-size="14.00">sourceAmount </text>
<text text-anchor="start" x="765.02" y="-524.4" font-family="Arial" font-size="14.00" fill="#666666">[decimal(18,4)]</text>
<polygon fill="none" stroke="black" points="663.86,-481.4 663.86,-512.2 1059.31,-512.2 1059.31,-481.4 663.86,-481.4"/>
<text text-anchor="start" x="670.86" y="-493.6" font-family="Arial" font-size="14.00">sourceCurrency </text>
<text text-anchor="start" x="773.57" y="-493.6" font-family="Arial" font-size="14.00" fill="#666666">[varchar(3)]</text>
<polygon fill="none" stroke="black" points="663.86,-450.6 663.86,-481.4 1059.31,-481.4 1059.31,-450.6 663.86,-450.6"/>
<text text-anchor="start" x="670.86" y="-462.8" font-family="Arial" font-size="14.00">targetAmount </text>
<text text-anchor="start" x="758.8" y="-462.8" font-family="Arial" font-size="14.00" fill="#666666">[decimal(18,4)]</text>
<polygon fill="none" stroke="black" points="663.86,-419.8 663.86,-450.6 1059.31,-450.6 1059.31,-419.8 663.86,-419.8"/>
<text text-anchor="start" x="670.86" y="-432" font-family="Arial" font-size="14.00">targetCurrency </text>
<text text-anchor="start" x="767.35" y="-432" font-family="Arial" font-size="14.00" fill="#666666">[varchar(3)]</text>
<polygon fill="none" stroke="black" points="663.86,-389 663.86,-419.8 1059.31,-419.8 1059.31,-389 663.86,-389"/>
<text text-anchor="start" x="670.86" y="-401.2" font-family="Arial" font-size="14.00">expirationDate </text>
<text text-anchor="start" x="765.03" y="-401.2" font-family="Arial" font-size="14.00" fill="#666666">[datetime]</text>
<polygon fill="none" stroke="black" points="663.86,-358.2 663.86,-389 1059.31,-389 1059.31,-358.2 663.86,-358.2"/>
<text text-anchor="start" x="670.86" y="-370.4" font-family="Arial" font-size="14.00">createdDate </text>
<text text-anchor="start" x="751.02" y="-370.4" font-family="Arial" font-size="14.00" fill="#666666">[datetime]</text>
<polygon fill="none" stroke="black" stroke-width="3" points="662.36,-356.7 662.36,-795.7 1060.81,-795.7 1060.81,-356.7 662.36,-356.7"/>
</g>
<!-- fxQuote -->
<g id="node4" class="node">
<title>fxQuote</title>
<polygon fill="#efefef" stroke="none" points="43.2,-151 43.2,-186.6 271.97,-186.6 271.97,-151 43.2,-151"/>
<polygon fill="none" stroke="black" points="43.2,-151 43.2,-186.6 271.97,-186.6 271.97,-151 43.2,-151"/>
<text text-anchor="start" x="65.85" y="-164.4" font-family="Arial Bold" font-size="18.00">fxQuote</text>
<text text-anchor="start" x="124.83" y="-164.4" font-family="Arial" font-size="14.00">    </text>
<text text-anchor="start" x="155.95" y="-164.4" font-family="Arial" font-size="14.00" fill="#666666">[BASE TABLE]</text>
<polygon fill="none" stroke="black" points="43.2,-120.2 43.2,-151 271.97,-151 271.97,-120.2 43.2,-120.2"/>
<text text-anchor="start" x="50.2" y="-132.4" font-family="Arial" font-size="14.00">conversionRequestId </text>
<text text-anchor="start" x="185.61" y="-132.4" font-family="Arial" font-size="14.00" fill="#666666">[varchar(36)]</text>
<polygon fill="none" stroke="black" points="43.2,-89.4 43.2,-120.2 271.97,-120.2 271.97,-89.4 43.2,-89.4"/>
<text text-anchor="start" x="50.2" y="-101.6" font-family="Arial" font-size="14.00">createdDate </text>
<text text-anchor="start" x="130.36" y="-101.6" font-family="Arial" font-size="14.00" fill="#666666">[datetime]</text>
</g>
<!-- fxQuoteResponseConversionTerms&#45;&gt;fxQuote -->
<g id="edge3" class="edge">
<title>fxQuoteResponseConversionTerms:conversionRequestId&#45;&gt;fxQuote:conversionRequestId</title>
<path fill="none" stroke="black" d="M652.71,-681.47C428.51,-675.67 440.26,-476.29 324.59,-276 291.34,-218.43 339.45,-135.6 272.97,-135.6"/>
<polygon fill="black" stroke="black" points="652.53,-681.47 662.47,-686.1 657.86,-681.54 662.19,-681.59 662.19,-681.59 662.19,-681.59 657.86,-681.54 662.59,-677.1 652.53,-681.47"/>
<text text-anchor="start" x="271.83" y="-691.6" font-family="Arial" font-size="10.00">FOREIGN KEY (conversionRequestId) REFERENCES fxQuote (conversionRequestId)</text>
</g>
<!-- fxQuoteResponse -->
<g id="node5" class="node">
<title>fxQuoteResponse</title>
<polygon fill="#efefef" stroke="none" points="376.35,-181.8 376.35,-217.4 642.82,-217.4 642.82,-181.8 376.35,-181.8"/>
<polygon fill="none" stroke="black" points="376.35,-181.8 376.35,-217.4 642.82,-217.4 642.82,-181.8 376.35,-181.8"/>
<text text-anchor="start" x="383.35" y="-195.2" font-family="Arial Bold" font-size="18.00">fxQuoteResponse</text>
<text text-anchor="start" x="511.33" y="-195.2" font-family="Arial" font-size="14.00">    </text>
<text text-anchor="start" x="542.45" y="-195.2" font-family="Arial" font-size="14.00" fill="#666666">[BASE TABLE]</text>
<polygon fill="none" stroke="black" points="376.35,-151 376.35,-181.8 642.82,-181.8 642.82,-151 376.35,-151"/>
<text text-anchor="start" x="383.35" y="-163.2" font-family="Arial" font-size="14.00">fxQuoteResponseId </text>
<text text-anchor="start" x="510.99" y="-163.2" font-family="Arial" font-size="14.00" fill="#666666">[bigint unsigned]</text>
<polygon fill="none" stroke="black" points="376.35,-120.2 376.35,-151 642.82,-151 642.82,-120.2 376.35,-120.2"/>
<text text-anchor="start" x="383.35" y="-132.4" font-family="Arial" font-size="14.00">conversionRequestId </text>
<text text-anchor="start" x="518.77" y="-132.4" font-family="Arial" font-size="14.00" fill="#666666">[varchar(36)]</text>
<polygon fill="none" stroke="black" points="376.35,-89.4 376.35,-120.2 642.82,-120.2 642.82,-89.4 376.35,-89.4"/>
<text text-anchor="start" x="383.35" y="-101.6" font-family="Arial" font-size="14.00">ilpCondition </text>
<text text-anchor="start" x="460.4" y="-101.6" font-family="Arial" font-size="14.00" fill="#666666">[varchar(256)]</text>
<polygon fill="none" stroke="black" points="376.35,-58.6 376.35,-89.4 642.82,-89.4 642.82,-58.6 376.35,-58.6"/>
<text text-anchor="start" x="383.35" y="-70.8" font-family="Arial" font-size="14.00">createdDate </text>
<text text-anchor="start" x="463.51" y="-70.8" font-family="Arial" font-size="14.00" fill="#666666">[datetime]</text>
</g>
<!-- fxQuoteResponseConversionTerms&#45;&gt;fxQuoteResponse -->
<g id="edge4" class="edge">
<title>fxQuoteResponseConversionTerms:fxQuoteResponseId&#45;&gt;fxQuoteResponse:fxQuoteResponseId</title>
<path fill="none" stroke="black" d="M654.36,-645.36C619.53,-592.14 694.32,-166.4 643.82,-166.4"/>
<polygon fill="black" stroke="black" points="654.16,-645.23 660.15,-654.41 658.65,-648.1 662.3,-650.44 662.3,-650.44 662.3,-650.44 658.65,-648.1 665.01,-646.83 654.16,-645.23"/>
<text text-anchor="start" x="237.91" y="-660.8" font-family="Arial" font-size="10.00">FOREIGN KEY (fxQuoteResponseId) REFERENCES fxQuoteResponse (fxQuoteResponseId)</text>
</g>
<!-- amountType -->
<g id="node6" class="node">
<title>amountType</title>
<polygon fill="#efefef" stroke="none" points="746.85,-181.8 746.85,-217.4 976.32,-217.4 976.32,-181.8 746.85,-181.8"/>
<polygon fill="none" stroke="black" points="746.85,-181.8 746.85,-217.4 976.32,-217.4 976.32,-181.8 746.85,-181.8"/>
<text text-anchor="start" x="753.85" y="-195.2" font-family="Arial Bold" font-size="18.00">amountType</text>
<text text-anchor="start" x="844.83" y="-195.2" font-family="Arial" font-size="14.00">    </text>
<text text-anchor="start" x="875.95" y="-195.2" font-family="Arial" font-size="14.00" fill="#666666">[BASE TABLE]</text>
<polygon fill="none" stroke="black" points="746.85,-151 746.85,-181.8 976.32,-181.8 976.32,-151 746.85,-151"/>
<text text-anchor="start" x="753.85" y="-163.2" font-family="Arial" font-size="14.00">amountTypeId </text>
<text text-anchor="start" x="847.24" y="-163.2" font-family="Arial" font-size="14.00" fill="#666666">[int unsigned]</text>
<polygon fill="none" stroke="black" points="746.85,-120.2 746.85,-151 976.32,-151 976.32,-120.2 746.85,-120.2"/>
<text text-anchor="start" x="753.85" y="-132.4" font-family="Arial" font-size="14.00">name </text>
<text text-anchor="start" x="792.76" y="-132.4" font-family="Arial" font-size="14.00" fill="#666666">[varchar(256)]</text>
<polygon fill="none" stroke="black" points="746.85,-89.4 746.85,-120.2 976.32,-120.2 976.32,-89.4 746.85,-89.4"/>
<text text-anchor="start" x="753.85" y="-101.6" font-family="Arial" font-size="14.00">description </text>
<text text-anchor="start" x="825.45" y="-101.6" font-family="Arial" font-size="14.00" fill="#666666">[varchar(1024)]</text>
<polygon fill="none" stroke="black" points="746.85,-58.6 746.85,-89.4 976.32,-89.4 976.32,-58.6 746.85,-58.6"/>
<text text-anchor="start" x="753.85" y="-70.8" font-family="Arial" font-size="14.00">createdDate </text>
<text text-anchor="start" x="834.01" y="-70.8" font-family="Arial" font-size="14.00" fill="#666666">[datetime]</text>
</g>
<!-- fxQuoteResponseConversionTerms&#45;&gt;amountType -->
<g id="edge5" class="edge">
<title>fxQuoteResponseConversionTerms:amountTypeId&#45;&gt;amountType:amountTypeId</title>
<path fill="none" stroke="black" d="M1070.67,-619.63C1192.46,-610.56 1105.62,-436.98 1059.31,-312 1052,-292.28 1039.97,-293.69 1028.59,-276 999.48,-230.78 1031.1,-166.4 977.32,-166.4"/>
<polygon fill="black" stroke="black" points="1070.64,-619.63 1060.48,-615.49 1065.31,-619.82 1060.98,-619.98 1060.98,-619.98 1060.98,-619.98 1065.31,-619.82 1060.8,-624.49 1070.64,-619.63"/>
<text text-anchor="start" x="1067.31" y="-630" font-family="Arial" font-size="10.00">FOREIGN KEY (amountTypeId) REFERENCES amountType (amountTypeId)</text>
</g>
<!-- currency -->
<g id="node7" class="node">
<title>currency</title>
<polygon fill="#efefef" stroke="none" points="1080.86,-197.2 1080.86,-232.8 1282.31,-232.8 1282.31,-197.2 1080.86,-197.2"/>
<polygon fill="none" stroke="black" points="1080.86,-197.2 1080.86,-232.8 1282.31,-232.8 1282.31,-197.2 1080.86,-197.2"/>
<text text-anchor="start" x="1087.86" y="-210.6" font-family="Arial Bold" font-size="18.00">currency</text>
<text text-anchor="start" x="1150.82" y="-210.6" font-family="Arial" font-size="14.00">    </text>
<text text-anchor="start" x="1181.94" y="-210.6" font-family="Arial" font-size="14.00" fill="#666666">[BASE TABLE]</text>
<polygon fill="none" stroke="black" points="1080.86,-166.4 1080.86,-197.2 1282.31,-197.2 1282.31,-166.4 1080.86,-166.4"/>
<text text-anchor="start" x="1087.86" y="-178.6" font-family="Arial" font-size="14.00">currencyId </text>
<text text-anchor="start" x="1157.11" y="-178.6" font-family="Arial" font-size="14.00" fill="#666666">[varchar(3)]</text>
<polygon fill="none" stroke="black" points="1080.86,-135.6 1080.86,-166.4 1282.31,-166.4 1282.31,-135.6 1080.86,-135.6"/>
<text text-anchor="start" x="1087.86" y="-147.8" font-family="Arial" font-size="14.00">name </text>
<text text-anchor="start" x="1126.77" y="-147.8" font-family="Arial" font-size="14.00" fill="#666666">[varchar(128)]</text>
<polygon fill="none" stroke="black" points="1080.86,-104.8 1080.86,-135.6 1282.31,-135.6 1282.31,-104.8 1080.86,-104.8"/>
<text text-anchor="start" x="1087.86" y="-117" font-family="Arial" font-size="14.00">isActive </text>
<text text-anchor="start" x="1139.99" y="-117" font-family="Arial" font-size="14.00" fill="#666666">[tinyint(1)]</text>
<polygon fill="none" stroke="black" points="1080.86,-74 1080.86,-104.8 1282.31,-104.8 1282.31,-74 1080.86,-74"/>
<text text-anchor="start" x="1087.86" y="-86.2" font-family="Arial" font-size="14.00">createdDate </text>
<text text-anchor="start" x="1168.02" y="-86.2" font-family="Arial" font-size="14.00" fill="#666666">[datetime]</text>
<polygon fill="none" stroke="black" points="1080.86,-43.2 1080.86,-74 1282.31,-74 1282.31,-43.2 1080.86,-43.2"/>
<text text-anchor="start" x="1087.86" y="-55.4" font-family="Arial" font-size="14.00">scale </text>
<text text-anchor="start" x="1124.44" y="-55.4" font-family="Arial" font-size="14.00" fill="#666666">[int unsigned]</text>
</g>
<!-- fxQuoteResponseConversionTerms&#45;&gt;currency -->
<g id="edge6" class="edge">
<title>fxQuoteResponseConversionTerms:sourceCurrency&#45;&gt;currency:currencyId</title>
<path fill="none" stroke="black" d="M1070.58,-496.15C1187.09,-480.41 943.29,-181.8 1079.86,-181.8"/>
<polygon fill="black" stroke="black" points="1070.62,-496.15 1060.36,-492.29 1065.3,-496.49 1060.98,-496.76 1060.98,-496.76 1060.98,-496.76 1065.3,-496.49 1060.92,-501.27 1070.62,-496.15"/>
<text text-anchor="start" x="1067.31" y="-506.8" font-family="Arial" font-size="10.00">FOREIGN KEY (sourceCurrency) REFERENCES currency (currencyId)</text>
</g>
<!-- fxQuoteResponseConversionTerms&#45;&gt;currency -->
<g id="edge7" class="edge">
<title>fxQuoteResponseConversionTerms:targetCurrency&#45;&gt;currency:currencyId</title>
<path fill="none" stroke="black" d="M1070.53,-434.38C1159.91,-418.65 970.66,-181.8 1079.86,-181.8"/>
<polygon fill="black" stroke="black" points="1070.61,-434.37 1060.28,-430.69 1065.29,-434.8 1060.98,-435.15 1060.98,-435.15 1060.98,-435.15 1065.29,-434.8 1061,-439.66 1070.61,-434.37"/>
<text text-anchor="start" x="1067.31" y="-445.2" font-family="Arial" font-size="10.00">FOREIGN KEY (targetCurrency) REFERENCES currency (currencyId)</text>
</g>
<!-- fxCharge -->
<g id="node2" class="node">
<title>fxCharge</title>
<polygon fill="#efefef" stroke="none" points="538.85,-1135.2 538.85,-1170.8 744.32,-1170.8 744.32,-1135.2 538.85,-1135.2"/>
<polygon fill="none" stroke="black" points="538.85,-1135.2 538.85,-1170.8 744.32,-1170.8 744.32,-1135.2 538.85,-1135.2"/>
<text text-anchor="start" x="545.85" y="-1148.6" font-family="Arial Bold" font-size="18.00">fxCharge</text>
<text text-anchor="start" x="612.83" y="-1148.6" font-family="Arial" font-size="14.00">    </text>
<text text-anchor="start" x="643.94" y="-1148.6" font-family="Arial" font-size="14.00" fill="#666666">[BASE TABLE]</text>
<polygon fill="none" stroke="black" points="538.85,-1104.4 538.85,-1135.2 744.32,-1135.2 744.32,-1104.4 538.85,-1104.4"/>
<text text-anchor="start" x="545.85" y="-1116.6" font-family="Arial" font-size="14.00">fxChargeId </text>
<text text-anchor="start" x="618.23" y="-1116.6" font-family="Arial" font-size="14.00" fill="#666666">[bigint unsigned]</text>
<polygon fill="none" stroke="black" points="538.85,-1073.6 538.85,-1104.4 744.32,-1104.4 744.32,-1073.6 538.85,-1073.6"/>
<text text-anchor="start" x="545.85" y="-1085.8" font-family="Arial" font-size="14.00">chargeType </text>
<text text-anchor="start" x="623.68" y="-1085.8" font-family="Arial" font-size="14.00" fill="#666666">[varchar(32)]</text>
<polygon fill="none" stroke="black" points="538.85,-1042.8 538.85,-1073.6 744.32,-1073.6 744.32,-1042.8 538.85,-1042.8"/>
<text text-anchor="start" x="545.85" y="-1055" font-family="Arial" font-size="14.00">conversionId </text>
<text text-anchor="start" x="629.12" y="-1055" font-family="Arial" font-size="14.00" fill="#666666">[varchar(36)]</text>
<polygon fill="none" stroke="black" points="538.85,-1012 538.85,-1042.8 744.32,-1042.8 744.32,-1012 538.85,-1012"/>
<text text-anchor="start" x="545.85" y="-1024.2" font-family="Arial" font-size="14.00">sourceAmount </text>
<text text-anchor="start" x="640.01" y="-1024.2" font-family="Arial" font-size="14.00" fill="#666666">[decimal(18,4)]</text>
<polygon fill="none" stroke="black" points="538.85,-981.2 538.85,-1012 744.32,-1012 744.32,-981.2 538.85,-981.2"/>
<text text-anchor="start" x="545.85" y="-993.4" font-family="Arial" font-size="14.00">sourceCurrency </text>
<text text-anchor="start" x="648.56" y="-993.4" font-family="Arial" font-size="14.00" fill="#666666">[varchar(3)]</text>
<polygon fill="none" stroke="black" points="538.85,-950.4 538.85,-981.2 744.32,-981.2 744.32,-950.4 538.85,-950.4"/>
<text text-anchor="start" x="545.85" y="-962.6" font-family="Arial" font-size="14.00">targetAmount </text>
<text text-anchor="start" x="633.79" y="-962.6" font-family="Arial" font-size="14.00" fill="#666666">[decimal(18,4)]</text>
<polygon fill="none" stroke="black" points="538.85,-919.6 538.85,-950.4 744.32,-950.4 744.32,-919.6 538.85,-919.6"/>
<text text-anchor="start" x="545.85" y="-931.8" font-family="Arial" font-size="14.00">targetCurrency </text>
<text text-anchor="start" x="642.34" y="-931.8" font-family="Arial" font-size="14.00" fill="#666666">[varchar(3)]</text>
</g>
<!-- fxCharge&#45;&gt;fxQuoteResponseConversionTerms -->
<g id="edge1" class="edge">
<title>fxCharge:conversionId&#45;&gt;fxQuoteResponseConversionTerms:conversionId</title>
<path fill="none" stroke="black" d="M755.5,-1057.52C822.72,-1048.04 786.47,-941.04 744.32,-876.4 722.92,-843.58 685.34,-873.16 663.86,-840.4 640.18,-804.27 619.66,-743.2 662.86,-743.2"/>
<polygon fill="black" stroke="black" points="755.63,-1057.52 745.35,-1053.69 750.31,-1057.87 745.98,-1058.16 745.98,-1058.16 745.98,-1058.16 750.31,-1057.87 745.95,-1062.67 755.63,-1057.52"/>
<text text-anchor="start" x="304.84" y="-1068.2" font-family="Arial" font-size="10.00">FOREIGN KEY (conversionId) REFERENCES fxQuoteResponseConversionTerms (conversionId)</text>
</g>
<!-- fxQuoteResponseConversionTermsExtension -->
<g id="node3" class="node">
<title>fxQuoteResponseConversionTermsExtension</title>
<polygon fill="#efefef" stroke="none" points="848.87,-1104.4 848.87,-1140 1316.3,-1140 1316.3,-1104.4 848.87,-1104.4"/>
<polygon fill="none" stroke="black" points="848.87,-1104.4 848.87,-1140 1316.3,-1140 1316.3,-1104.4 848.87,-1104.4"/>
<text text-anchor="start" x="855.87" y="-1117.8" font-family="Arial Bold" font-size="18.00">fxQuoteResponseConversionTermsExtension</text>
<text text-anchor="start" x="1184.82" y="-1117.8" font-family="Arial" font-size="14.00">    </text>
<text text-anchor="start" x="1215.93" y="-1117.8" font-family="Arial" font-size="14.00" fill="#666666">[BASE TABLE]</text>
<polygon fill="none" stroke="black" points="848.87,-1073.6 848.87,-1104.4 1316.3,-1104.4 1316.3,-1073.6 848.87,-1073.6"/>
<text text-anchor="start" x="855.87" y="-1085.8" font-family="Arial" font-size="14.00">fxQuoteResponseConversionTermsExtension </text>
<text text-anchor="start" x="1143.78" y="-1085.8" font-family="Arial" font-size="14.00" fill="#666666">[bigint unsigned]</text>
<polygon fill="none" stroke="black" points="848.87,-1042.8 848.87,-1073.6 1316.3,-1073.6 1316.3,-1042.8 848.87,-1042.8"/>
<text text-anchor="start" x="855.87" y="-1055" font-family="Arial" font-size="14.00">conversionId </text>
<text text-anchor="start" x="939.14" y="-1055" font-family="Arial" font-size="14.00" fill="#666666">[varchar(36)]</text>
<polygon fill="none" stroke="black" points="848.87,-1012 848.87,-1042.8 1316.3,-1042.8 1316.3,-1012 848.87,-1012"/>
<text text-anchor="start" x="855.87" y="-1024.2" font-family="Arial" font-size="14.00">key </text>
<text text-anchor="start" x="881.54" y="-1024.2" font-family="Arial" font-size="14.00" fill="#666666">[varchar(128)]</text>
<polygon fill="none" stroke="black" points="848.87,-981.2 848.87,-1012 1316.3,-1012 1316.3,-981.2 848.87,-981.2"/>
<text text-anchor="start" x="855.87" y="-993.4" font-family="Arial" font-size="14.00">value </text>
<text text-anchor="start" x="893.23" y="-993.4" font-family="Arial" font-size="14.00" fill="#666666">[text]</text>
<polygon fill="none" stroke="black" points="848.87,-950.4 848.87,-981.2 1316.3,-981.2 1316.3,-950.4 848.87,-950.4"/>
<text text-anchor="start" x="855.87" y="-962.6" font-family="Arial" font-size="14.00">createdDate </text>
<text text-anchor="start" x="936.03" y="-962.6" font-family="Arial" font-size="14.00" fill="#666666">[datetime]</text>
</g>
<!-- fxQuoteResponseConversionTermsExtension&#45;&gt;fxQuoteResponseConversionTerms -->
<g id="edge2" class="edge">
<title>fxQuoteResponseConversionTermsExtension:conversionId&#45;&gt;fxQuoteResponseConversionTerms:conversionId</title>
<path fill="none" stroke="black" d="M837.7,-1057.35C783.88,-1047.72 811.23,-958.27 848.87,-907.2 907.08,-828.2 1000.95,-919.29 1059.31,-840.4 1085,-805.67 1103.51,-743.2 1060.31,-743.2"/>
<polygon fill="black" stroke="black" points="837.57,-1057.34 847.16,-1062.66 842.88,-1057.78 847.2,-1058.14 847.2,-1058.14 847.2,-1058.14 842.88,-1057.78 847.91,-1053.69 837.57,-1057.34"/>
<text text-anchor="start" x="854.87" y="-1068.2" font-family="Arial" font-size="10.00">FOREIGN KEY (conversionId) REFERENCES fxQuoteResponseConversionTerms (conversionId)</text>
</g>
</g>
</svg>
