<?xml version="1.0" encoding="UTF-8" standalone="no"?>
<!DOCTYPE svg PUBLIC "-//W3C//DTD SVG 1.1//EN"
 "http://www.w3.org/Graphics/SVG/1.1/DTD/svg11.dtd">
<!-- Generated by graphviz version 12.1.2 (20240928.0832)
 -->
<!-- Title: fxQuoteResponseDuplicateCheck Pages: 1 -->
<svg width="1287pt" height="417pt"
 viewBox="0.00 0.00 1286.71 417.20" xmlns="http://www.w3.org/2000/svg" xmlns:xlink="http://www.w3.org/1999/xlink">
<g id="graph0" class="graph" transform="scale(1 1) rotate(0) translate(4 413.2)">
<title>fxQuoteResponseDuplicateCheck</title>
<polygon fill="white" stroke="none" points="-4,4 -4,-413.2 1282.71,-413.2 1282.71,4 -4,4"/>
<!-- fxQuoteResponseDuplicateCheck -->
<g id="node1" class="node">
<title>fxQuoteResponseDuplicateCheck</title>
<polygon fill="#efefef" stroke="none" points="432.95,-327.4 432.95,-363 879.68,-363 879.68,-327.4 432.95,-327.4"/>
<polygon fill="none" stroke="black" points="432.95,-327.4 432.95,-363 879.68,-363 879.68,-327.4 432.95,-327.4"/>
<text text-anchor="start" x="472.1" y="-340.8" font-family="Arial Bold" font-size="18.00">fxQuoteResponseDuplicateCheck</text>
<text text-anchor="start" x="716.03" y="-340.8" font-family="Arial" font-size="14.00">    </text>
<text text-anchor="start" x="747.15" y="-340.8" font-family="Arial" font-size="14.00" fill="#666666">[BASE TABLE]</text>
<polygon fill="none" stroke="black" points="432.95,-296.6 432.95,-327.4 879.68,-327.4 879.68,-296.6 432.95,-296.6"/>
<text text-anchor="start" x="439.95" y="-308.8" font-family="Arial" font-size="14.00">fxQuoteResponseId </text>
<text text-anchor="start" x="567.58" y="-308.8" font-family="Arial" font-size="14.00" fill="#666666">[bigint unsigned]</text>
<text text-anchor="start" x="669.55" y="-308.8" font-family="Arial" font-size="14.00"> The response to the initial quote</text>
<polygon fill="none" stroke="black" points="432.95,-265.8 432.95,-296.6 879.68,-296.6 879.68,-265.8 432.95,-265.8"/>
<text text-anchor="start" x="439.95" y="-278" font-family="Arial" font-size="14.00">conversionRequestId </text>
<text text-anchor="start" x="575.36" y="-278" font-family="Arial" font-size="14.00" fill="#666666">[varchar(36)]</text>
<polygon fill="none" stroke="black" stroke-width="3" points="431.45,-264.3 431.45,-364.5 881.18,-364.5 881.18,-264.3 431.45,-264.3"/>
</g>
<!-- fxQuoteResponse -->
<g id="node2" class="node">
<title>fxQuoteResponse</title>
<polygon fill="#efefef" stroke="none" points="347.08,-104.8 347.08,-140.4 613.55,-140.4 613.55,-104.8 347.08,-104.8"/>
<polygon fill="none" stroke="black" points="347.08,-104.8 347.08,-140.4 613.55,-140.4 613.55,-104.8 347.08,-104.8"/>
<text text-anchor="start" x="354.08" y="-118.2" font-family="Arial Bold" font-size="18.00">fxQuoteResponse</text>
<text text-anchor="start" x="482.06" y="-118.2" font-family="Arial" font-size="14.00">    </text>
<text text-anchor="start" x="513.17" y="-118.2" font-family="Arial" font-size="14.00" fill="#666666">[BASE TABLE]</text>
<polygon fill="none" stroke="black" points="347.08,-74 347.08,-104.8 613.55,-104.8 613.55,-74 347.08,-74"/>
<text text-anchor="start" x="354.08" y="-86.2" font-family="Arial" font-size="14.00">fxQuoteResponseId </text>
<text text-anchor="start" x="481.71" y="-86.2" font-family="Arial" font-size="14.00" fill="#666666">[bigint unsigned]</text>
<polygon fill="none" stroke="black" points="347.08,-43.2 347.08,-74 613.55,-74 613.55,-43.2 347.08,-43.2"/>
<text text-anchor="start" x="354.08" y="-55.4" font-family="Arial" font-size="14.00">conversionRequestId </text>
<text text-anchor="start" x="489.49" y="-55.4" font-family="Arial" font-size="14.00" fill="#666666">[varchar(36)]</text>
</g>
<!-- fxQuoteResponseDuplicateCheck&#45;&gt;fxQuoteResponse -->
<g id="edge1" class="edge">
<title>fxQuoteResponseDuplicateCheck:fxQuoteResponseId&#45;&gt;fxQuoteResponse:fxQuoteResponseId</title>
<path fill="none" stroke="black" d="M421.86,-310.47C393.94,-300.86 409.19,-248.25 432.95,-219.6 485.2,-156.6 561.3,-246.6 613.55,-183.6 640.27,-151.37 656.42,-89.4 614.55,-89.4"/>
<polygon fill="black" stroke="black" points="421.73,-310.45 430.94,-316.4 427.01,-311.25 431.29,-311.9 431.29,-311.9 431.29,-311.9 427.01,-311.25 432.29,-307.5 421.73,-310.45"/>
<text text-anchor="start" x="7" y="-322" font-family="Arial" font-size="10.00">FOREIGN KEY (fxQuoteResponseId) REFERENCES fxQuoteResponse (fxQuoteResponseId)</text>
</g>
<!-- fxQuote -->
<g id="node3" class="node">
<title>fxQuote</title>
<polygon fill="#efefef" stroke="none" points="717.93,-89.4 717.93,-125 946.7,-125 946.7,-89.4 717.93,-89.4"/>
<polygon fill="none" stroke="black" points="717.93,-89.4 717.93,-125 946.7,-125 946.7,-89.4 717.93,-89.4"/>
<text text-anchor="start" x="740.58" y="-102.8" font-family="Arial Bold" font-size="18.00">fxQuote</text>
<text text-anchor="start" x="799.56" y="-102.8" font-family="Arial" font-size="14.00">    </text>
<text text-anchor="start" x="830.68" y="-102.8" font-family="Arial" font-size="14.00" fill="#666666">[BASE TABLE]</text>
<polygon fill="none" stroke="black" points="717.93,-58.6 717.93,-89.4 946.7,-89.4 946.7,-58.6 717.93,-58.6"/>
<text text-anchor="start" x="724.93" y="-70.8" font-family="Arial" font-size="14.00">conversionRequestId </text>
<text text-anchor="start" x="860.34" y="-70.8" font-family="Arial" font-size="14.00" fill="#666666">[varchar(36)]</text>
</g>
<!-- fxQuoteResponseDuplicateCheck&#45;&gt;fxQuote -->
<g id="edge2" class="edge">
<title>fxQuoteResponseDuplicateCheck:conversionRequestId&#45;&gt;fxQuote:conversionRequestId</title>
<path fill="none" stroke="black" d="M890.76,-278.52C904.19,-269.25 893.47,-238.14 879.68,-219.6 834.65,-159.08 762.79,-228.84 717.93,-168.2 693.03,-134.54 675.06,-74 716.93,-74"/>
<polygon fill="black" stroke="black" points="890.66,-278.54 879.84,-276.77 885.51,-279.91 881.32,-281.03 881.32,-281.03 881.32,-281.03 885.51,-279.91 882.16,-285.46 890.66,-278.54"/>
<text text-anchor="start" x="887.68" y="-291.2" font-family="Arial" font-size="10.00">FOREIGN KEY (conversionRequestId) REFERENCES fxQuote (conversionRequestId)</text>
</g>
</g>
</svg>
