<?xml version="1.0" encoding="UTF-8" standalone="no"?>
<!DOCTYPE svg PUBLIC "-//W3C//DTD SVG 1.1//EN"
 "http://www.w3.org/Graphics/SVG/1.1/DTD/svg11.dtd">
<!-- Generated by graphviz version 12.1.2 (20240928.0832)
 -->
<!-- Title: fxQuoteError Pages: 1 -->
<svg width="1301pt" height="448pt"
 viewBox="0.00 0.00 1300.70 448.00" xmlns="http://www.w3.org/2000/svg" xmlns:xlink="http://www.w3.org/1999/xlink">
<g id="graph0" class="graph" transform="scale(1 1) rotate(0) translate(4 444)">
<title>fxQuoteError</title>
<polygon fill="white" stroke="none" points="-4,4 -4,-444 1296.7,-444 1296.7,4 -4,4"/>
<!-- fxQuoteError -->
<g id="node1" class="node">
<title>fxQuoteError</title>
<polygon fill="#efefef" stroke="none" points="399.03,-358.2 399.03,-393.8 859.75,-393.8 859.75,-358.2 399.03,-358.2"/>
<polygon fill="none" stroke="black" points="399.03,-358.2 399.03,-393.8 859.75,-393.8 859.75,-358.2 399.03,-358.2"/>
<text text-anchor="start" x="518.67" y="-371.6" font-family="Arial Bold" font-size="18.00">fxQuoteError</text>
<text text-anchor="start" x="615.63" y="-371.6" font-family="Arial" font-size="14.00">    </text>
<text text-anchor="start" x="646.75" y="-371.6" font-family="Arial" font-size="14.00" fill="#666666">[BASE TABLE]</text>
<polygon fill="none" stroke="black" points="399.03,-327.4 399.03,-358.2 859.75,-358.2 859.75,-327.4 399.03,-327.4"/>
<text text-anchor="start" x="406.03" y="-339.6" font-family="Arial" font-size="14.00">fxQuoteErrorId </text>
<text text-anchor="start" x="501.74" y="-339.6" font-family="Arial" font-size="14.00" fill="#666666">[bigint unsigned]</text>
<polygon fill="none" stroke="black" points="399.03,-296.6 399.03,-327.4 859.75,-327.4 859.75,-296.6 399.03,-296.6"/>
<text text-anchor="start" x="406.03" y="-308.8" font-family="Arial" font-size="14.00">conversionRequestId </text>
<text text-anchor="start" x="541.45" y="-308.8" font-family="Arial" font-size="14.00" fill="#666666">[varchar(36)]</text>
<polygon fill="none" stroke="black" points="399.03,-265.8 399.03,-296.6 859.75,-296.6 859.75,-265.8 399.03,-265.8"/>
<text text-anchor="start" x="406.03" y="-278" font-family="Arial" font-size="14.00">fxQuoteResponseId </text>
<text text-anchor="start" x="533.67" y="-278" font-family="Arial" font-size="14.00" fill="#666666">[bigint unsigned]</text>
<text text-anchor="start" x="635.63" y="-278" font-family="Arial" font-size="14.00"> The response to the initial fxQuote</text>
<polygon fill="none" stroke="black" stroke-width="3" points="397.53,-264.3 397.53,-395.3 861.25,-395.3 861.25,-264.3 397.53,-264.3"/>
</g>
<!-- fxQuote -->
<g id="node2" class="node">
<title>fxQuote</title>
<polygon fill="#efefef" stroke="none" points="339.01,-89.4 339.01,-125 567.78,-125 567.78,-89.4 339.01,-89.4"/>
<polygon fill="none" stroke="black" points="339.01,-89.4 339.01,-125 567.78,-125 567.78,-89.4 339.01,-89.4"/>
<text text-anchor="start" x="361.66" y="-102.8" font-family="Arial Bold" font-size="18.00">fxQuote</text>
<text text-anchor="start" x="420.64" y="-102.8" font-family="Arial" font-size="14.00">    </text>
<text text-anchor="start" x="451.76" y="-102.8" font-family="Arial" font-size="14.00" fill="#666666">[BASE TABLE]</text>
<polygon fill="none" stroke="black" points="339.01,-58.6 339.01,-89.4 567.78,-89.4 567.78,-58.6 339.01,-58.6"/>
<text text-anchor="start" x="346.01" y="-70.8" font-family="Arial" font-size="14.00">conversionRequestId </text>
<text text-anchor="start" x="481.42" y="-70.8" font-family="Arial" font-size="14.00" fill="#666666">[varchar(36)]</text>
</g>
<!-- fxQuoteError&#45;&gt;fxQuote -->
<g id="edge1" class="edge">
<title>fxQuoteError:conversionRequestId&#45;&gt;fxQuote:conversionRequestId</title>
<path fill="none" stroke="black" d="M387.98,-310.5C360.3,-301.07 376.72,-249.39 399.03,-219.6 446.04,-156.85 520.78,-230.95 567.78,-168.2 592.88,-134.69 610.65,-74 568.78,-74"/>
<polygon fill="black" stroke="black" points="387.81,-310.48 397.04,-316.4 393.09,-311.26 397.37,-311.9 397.37,-311.9 397.37,-311.9 393.09,-311.26 398.37,-307.5 387.81,-310.48"/>
<text text-anchor="start" x="7" y="-322" font-family="Arial" font-size="10.00">FOREIGN KEY (conversionRequestId) REFERENCES fxQuote (conversionRequestId)</text>
</g>
<!-- fxQuoteResponse -->
<g id="node3" class="node">
<title>fxQuoteResponse</title>
<polygon fill="#efefef" stroke="none" points="672.16,-104.8 672.16,-140.4 938.63,-140.4 938.63,-104.8 672.16,-104.8"/>
<polygon fill="none" stroke="black" points="672.16,-104.8 672.16,-140.4 938.63,-140.4 938.63,-104.8 672.16,-104.8"/>
<text text-anchor="start" x="679.16" y="-118.2" font-family="Arial Bold" font-size="18.00">fxQuoteResponse</text>
<text text-anchor="start" x="807.14" y="-118.2" font-family="Arial" font-size="14.00">    </text>
<text text-anchor="start" x="838.26" y="-118.2" font-family="Arial" font-size="14.00" fill="#666666">[BASE TABLE]</text>
<polygon fill="none" stroke="black" points="672.16,-74 672.16,-104.8 938.63,-104.8 938.63,-74 672.16,-74"/>
<text text-anchor="start" x="679.16" y="-86.2" font-family="Arial" font-size="14.00">fxQuoteResponseId </text>
<text text-anchor="start" x="806.79" y="-86.2" font-family="Arial" font-size="14.00" fill="#666666">[bigint unsigned]</text>
<polygon fill="none" stroke="black" points="672.16,-43.2 672.16,-74 938.63,-74 938.63,-43.2 672.16,-43.2"/>
<text text-anchor="start" x="679.16" y="-55.4" font-family="Arial" font-size="14.00">conversionRequestId </text>
<text text-anchor="start" x="814.57" y="-55.4" font-family="Arial" font-size="14.00" fill="#666666">[varchar(36)]</text>
</g>
<!-- fxQuoteError&#45;&gt;fxQuoteResponse -->
<g id="edge2" class="edge">
<title>fxQuoteError:fxQuoteResponseId&#45;&gt;fxQuoteResponse:fxQuoteResponseId</title>
<path fill="none" stroke="black" d="M870.53,-278.71C884.79,-269.57 874.75,-237.45 859.75,-219.6 805.15,-154.6 726.59,-248.76 672.16,-183.6 645.32,-151.47 629.29,-89.4 671.16,-89.4"/>
<polygon fill="black" stroke="black" points="870.77,-278.65 859.97,-276.76 865.6,-279.97 861.4,-281.03 861.4,-281.03 861.4,-281.03 865.6,-279.97 862.19,-285.48 870.77,-278.65"/>
<text text-anchor="start" x="867.75" y="-291.2" font-family="Arial" font-size="10.00">FOREIGN KEY (fxQuoteResponseId) REFERENCES fxQuoteResponse (fxQuoteResponseId)</text>
</g>
</g>
</svg>
