<?xml version="1.0" encoding="UTF-8" standalone="no"?>
<!DOCTYPE svg PUBLIC "-//W3C//DTD SVG 1.1//EN"
 "http://www.w3.org/Graphics/SVG/1.1/DTD/svg11.dtd">
<!-- Generated by graphviz version 12.1.2 (20240928.0832)
 -->
<!-- Title: fxTransferType Pages: 1 -->
<svg width="692pt" height="571pt"
 viewBox="0.00 0.00 691.54 571.20" xmlns="http://www.w3.org/2000/svg" xmlns:xlink="http://www.w3.org/1999/xlink">
<g id="graph0" class="graph" transform="scale(1 1) rotate(0) translate(4 567.2)">
<title>fxTransferType</title>
<polygon fill="white" stroke="none" points="-4,4 -4,-567.2 687.54,-567.2 687.54,4 -4,4"/>
<!-- fxTransferType -->
<g id="node1" class="node">
<title>fxTransferType</title>
<polygon fill="#efefef" stroke="none" points="46.2,-169.4 46.2,-205 297.63,-205 297.63,-169.4 46.2,-169.4"/>
<polygon fill="none" stroke="black" points="46.2,-169.4 46.2,-205 297.63,-205 297.63,-169.4 46.2,-169.4"/>
<text text-anchor="start" x="53.2" y="-182.8" font-family="Arial Bold" font-size="18.00">fxTransferType</text>
<text text-anchor="start" x="166.14" y="-182.8" font-family="Arial" font-size="14.00">    </text>
<text text-anchor="start" x="197.26" y="-182.8" font-family="Arial" font-size="14.00" fill="#666666">[BASE TABLE]</text>
<polygon fill="none" stroke="black" points="46.2,-138.6 46.2,-169.4 297.63,-169.4 297.63,-138.6 46.2,-138.6"/>
<text text-anchor="start" x="53.2" y="-150.8" font-family="Arial" font-size="14.00">fxTransferTypeId </text>
<text text-anchor="start" x="162.9" y="-150.8" font-family="Arial" font-size="14.00" fill="#666666">[int unsigned]</text>
<polygon fill="none" stroke="black" points="46.2,-107.8 46.2,-138.6 297.63,-138.6 297.63,-107.8 46.2,-107.8"/>
<text text-anchor="start" x="53.2" y="-120" font-family="Arial" font-size="14.00">name </text>
<text text-anchor="start" x="92.11" y="-120" font-family="Arial" font-size="14.00" fill="#666666">[varchar(50)]</text>
<polygon fill="none" stroke="black" points="46.2,-77 46.2,-107.8 297.63,-107.8 297.63,-77 46.2,-77"/>
<text text-anchor="start" x="53.2" y="-89.2" font-family="Arial" font-size="14.00">description </text>
<text text-anchor="start" x="124.79" y="-89.2" font-family="Arial" font-size="14.00" fill="#666666">[varchar(512)]</text>
<polygon fill="none" stroke="black" points="46.2,-46.2 46.2,-77 297.63,-77 297.63,-46.2 46.2,-46.2"/>
<text text-anchor="start" x="53.2" y="-58.4" font-family="Arial" font-size="14.00">createdDate </text>
<text text-anchor="start" x="133.36" y="-58.4" font-family="Arial" font-size="14.00" fill="#666666">[datetime]</text>
<polygon fill="none" stroke="black" stroke-width="3" points="44.7,-44.7 44.7,-206.5 299.13,-206.5 299.13,-44.7 44.7,-44.7"/>
</g>
<!-- fxWatchList -->
<g id="node2" class="node">
<title>fxWatchList</title>
<polygon fill="#efefef" stroke="none" points="54.81,-484.4 54.81,-520 289.01,-520 289.01,-484.4 54.81,-484.4"/>
<polygon fill="none" stroke="black" points="54.81,-484.4 54.81,-520 289.01,-520 289.01,-484.4 54.81,-484.4"/>
<text text-anchor="start" x="64.69" y="-497.8" font-family="Arial Bold" font-size="18.00">fxWatchList</text>
<text text-anchor="start" x="154.65" y="-497.8" font-family="Arial" font-size="14.00">    </text>
<text text-anchor="start" x="185.77" y="-497.8" font-family="Arial" font-size="14.00" fill="#666666">[BASE TABLE]</text>
<polygon fill="none" stroke="black" points="54.81,-453.6 54.81,-484.4 289.01,-484.4 289.01,-453.6 54.81,-453.6"/>
<text text-anchor="start" x="61.81" y="-465.8" font-family="Arial" font-size="14.00">fxWatchListId </text>
<text text-anchor="start" x="149.73" y="-465.8" font-family="Arial" font-size="14.00" fill="#666666">[bigint unsigned]</text>
<polygon fill="none" stroke="black" points="54.81,-422.8 54.81,-453.6 289.01,-453.6 289.01,-422.8 54.81,-422.8"/>
<text text-anchor="start" x="61.81" y="-435" font-family="Arial" font-size="14.00">commitRequestId </text>
<text text-anchor="start" x="174.64" y="-435" font-family="Arial" font-size="14.00" fill="#666666">[varchar(36)]</text>
<polygon fill="none" stroke="black" points="54.81,-392 54.81,-422.8 289.01,-422.8 289.01,-392 54.81,-392"/>
<text text-anchor="start" x="61.81" y="-404.2" font-family="Arial" font-size="14.00">determiningTransferId </text>
<text text-anchor="start" x="202.66" y="-404.2" font-family="Arial" font-size="14.00" fill="#666666">[varchar(36)]</text>
<polygon fill="none" stroke="black" points="54.81,-361.2 54.81,-392 289.01,-392 289.01,-361.2 54.81,-361.2"/>
<text text-anchor="start" x="61.81" y="-373.4" font-family="Arial" font-size="14.00">fxTransferTypeId </text>
<text text-anchor="start" x="171.52" y="-373.4" font-family="Arial" font-size="14.00" fill="#666666">[int unsigned]</text>
<polygon fill="none" stroke="black" points="54.81,-330.4 54.81,-361.2 289.01,-361.2 289.01,-330.4 54.81,-330.4"/>
<text text-anchor="start" x="61.81" y="-342.6" font-family="Arial" font-size="14.00">createdDate </text>
<text text-anchor="start" x="141.97" y="-342.6" font-family="Arial" font-size="14.00" fill="#666666">[datetime]</text>
</g>
<!-- fxWatchList&#45;&gt;fxTransferType -->
<g id="edge1" class="edge">
<title>fxWatchList:fxTransferTypeId&#45;&gt;fxTransferType:fxTransferTypeId</title>
<path fill="none" stroke="black" d="M299.84,-373.45C340.44,-346.4 344.65,-154 298.63,-154"/>
<polygon fill="black" stroke="black" points="299.86,-373.45 288.96,-372.21 294.78,-375.08 290.65,-376.4 290.65,-376.4 290.65,-376.4 294.78,-375.08 291.7,-380.78 299.86,-373.45"/>
<text text-anchor="start" x="297.01" y="-386.6" font-family="Arial" font-size="10.00">FOREIGN KEY (fxTransferTypeId) REFERENCES fxTransferType (fxTransferTypeId)</text>
</g>
</g>
</svg>
