<?xml version="1.0" encoding="UTF-8" standalone="no"?>
<!DOCTYPE svg PUBLIC "-//W3C//DTD SVG 1.1//EN"
 "http://www.w3.org/Graphics/SVG/1.1/DTD/svg11.dtd">
<!-- Generated by graphviz version 12.1.2 (20240928.0832)
 -->
<!-- Title: fxTransferFulfilmentDuplicateCheck Pages: 1 -->
<svg width="633pt" height="417pt"
 viewBox="0.00 0.00 633.15 417.20" xmlns="http://www.w3.org/2000/svg" xmlns:xlink="http://www.w3.org/1999/xlink">
<g id="graph0" class="graph" transform="scale(1 1) rotate(0) translate(4 413.2)">
<title>fxTransferFulfilmentDuplicateCheck</title>
<polygon fill="white" stroke="none" points="-4,4 -4,-413.2 629.15,-413.2 629.15,4 -4,4"/>
<!-- fxTransferFulfilmentDuplicateCheck -->
<g id="node1" class="node">
<title>fxTransferFulfilmentDuplicateCheck</title>
<polygon fill="#efefef" stroke="none" points="172.55,-327.4 172.55,-363 578.95,-363 578.95,-327.4 172.55,-327.4"/>
<polygon fill="none" stroke="black" points="172.55,-327.4 172.55,-363 578.95,-363 578.95,-327.4 172.55,-327.4"/>
<text text-anchor="start" x="179.55" y="-340.8" font-family="Arial Bold" font-size="18.00">fxTransferFulfilmentDuplicateCheck</text>
<text text-anchor="start" x="447.46" y="-340.8" font-family="Arial" font-size="14.00">    </text>
<text text-anchor="start" x="478.57" y="-340.8" font-family="Arial" font-size="14.00" fill="#666666">[BASE TABLE]</text>
<polygon fill="none" stroke="black" points="172.55,-296.6 172.55,-327.4 578.95,-327.4 578.95,-296.6 172.55,-296.6"/>
<text text-anchor="start" x="179.55" y="-308.8" font-family="Arial" font-size="14.00">commitRequestId </text>
<text text-anchor="start" x="292.37" y="-308.8" font-family="Arial" font-size="14.00" fill="#666666">[varchar(36)]</text>
<polygon fill="none" stroke="black" stroke-width="3" points="171.05,-295.1 171.05,-364.5 580.45,-364.5 580.45,-295.1 171.05,-295.1"/>
</g>
<!-- fxTransfer -->
<g id="node2" class="node">
<title>fxTransfer</title>
<polygon fill="#efefef" stroke="none" points="268.53,-135.6 268.53,-171.2 482.97,-171.2 482.97,-135.6 268.53,-135.6"/>
<polygon fill="none" stroke="black" points="268.53,-135.6 268.53,-171.2 482.97,-171.2 482.97,-135.6 268.53,-135.6"/>
<text text-anchor="start" x="275.53" y="-149" font-family="Arial Bold" font-size="18.00">fxTransfer</text>
<text text-anchor="start" x="351.48" y="-149" font-family="Arial" font-size="14.00">    </text>
<text text-anchor="start" x="382.6" y="-149" font-family="Arial" font-size="14.00" fill="#666666">[BASE TABLE]</text>
<polygon fill="none" stroke="black" points="268.53,-104.8 268.53,-135.6 482.97,-135.6 482.97,-104.8 268.53,-104.8"/>
<text text-anchor="start" x="275.53" y="-117" font-family="Arial" font-size="14.00">commitRequestId </text>
<text text-anchor="start" x="388.35" y="-117" font-family="Arial" font-size="14.00" fill="#666666">[varchar(36)]</text>
<polygon fill="none" stroke="black" points="268.53,-74 268.53,-104.8 482.97,-104.8 482.97,-74 268.53,-74"/>
<text text-anchor="start" x="275.53" y="-86.2" font-family="Arial" font-size="14.00">sourceCurrency </text>
<text text-anchor="start" x="378.23" y="-86.2" font-family="Arial" font-size="14.00" fill="#666666">[varchar(3)]</text>
<polygon fill="none" stroke="black" points="268.53,-43.2 268.53,-74 482.97,-74 482.97,-43.2 268.53,-43.2"/>
<text text-anchor="start" x="275.53" y="-55.4" font-family="Arial" font-size="14.00">targetCurrency </text>
<text text-anchor="start" x="372.01" y="-55.4" font-family="Arial" font-size="14.00" fill="#666666">[varchar(3)]</text>
</g>
<!-- fxTransferFulfilmentDuplicateCheck&#45;&gt;fxTransfer -->
<g id="edge1" class="edge">
<title>fxTransferFulfilmentDuplicateCheck:commitRequestId&#45;&gt;fxTransfer:commitRequestId</title>
<path fill="none" stroke="black" d="M376.66,-285.42C385.58,-239.48 457.76,-264.45 482.97,-214.4 501.81,-177.01 525.84,-120.2 483.97,-120.2"/>
<polygon fill="black" stroke="black" points="376.67,-285.31 371.3,-294.87 376.19,-290.62 375.81,-294.93 375.81,-294.93 375.81,-294.93 376.19,-290.62 380.26,-295.67 376.67,-285.31"/>
<text text-anchor="start" x="7" y="-305.6" font-family="Arial" font-size="10.00">FOREIGN KEY (commitRequestId) REFERENCES fxTransfer (commitRequestId)</text>
</g>
</g>
</svg>
