<?xml version="1.0" encoding="UTF-8" standalone="no"?>
<!DOCTYPE svg PUBLIC "-//W3C//DTD SVG 1.1//EN"
 "http://www.w3.org/Graphics/SVG/1.1/DTD/svg11.dtd">
<!-- Generated by graphviz version 12.1.2 (20240928.0832)
 -->
<!-- Title: fxTransferError Pages: 1 -->
<svg width="706pt" height="448pt"
 viewBox="0.00 0.00 705.88 448.00" xmlns="http://www.w3.org/2000/svg" xmlns:xlink="http://www.w3.org/1999/xlink">
<g id="graph0" class="graph" transform="scale(1 1) rotate(0) translate(4 444)">
<title>fxTransferError</title>
<polygon fill="white" stroke="none" points="-4,4 -4,-444 701.88,-444 701.88,4 -4,4"/>
<!-- fxTransferError -->
<g id="node1" class="node">
<title>fxTransferError</title>
<polygon fill="#efefef" stroke="none" points="363.83,-358.2 363.83,-393.8 640.11,-393.8 640.11,-358.2 363.83,-358.2"/>
<polygon fill="none" stroke="black" points="363.83,-358.2 363.83,-393.8 640.11,-393.8 640.11,-358.2 363.83,-358.2"/>
<text text-anchor="start" x="382.76" y="-371.6" font-family="Arial Bold" font-size="18.00">fxTransferError</text>
<text text-anchor="start" x="496.69" y="-371.6" font-family="Arial" font-size="14.00">    </text>
<text text-anchor="start" x="527.81" y="-371.6" font-family="Arial" font-size="14.00" fill="#666666">[BASE TABLE]</text>
<polygon fill="none" stroke="black" points="363.83,-327.4 363.83,-358.2 640.11,-358.2 640.11,-327.4 363.83,-327.4"/>
<text text-anchor="start" x="370.83" y="-339.6" font-family="Arial" font-size="14.00">commitRequestId </text>
<text text-anchor="start" x="483.65" y="-339.6" font-family="Arial" font-size="14.00" fill="#666666">[varchar(36)]</text>
<polygon fill="none" stroke="black" points="363.83,-296.6 363.83,-327.4 640.11,-327.4 640.11,-296.6 363.83,-296.6"/>
<text text-anchor="start" x="370.83" y="-308.8" font-family="Arial" font-size="14.00">fxTransferStateChangeId </text>
<text text-anchor="start" x="531.14" y="-308.8" font-family="Arial" font-size="14.00" fill="#666666">[bigint unsigned]</text>
<polygon fill="none" stroke="black" stroke-width="3" points="362.33,-295.1 362.33,-395.3 641.61,-395.3 641.61,-295.1 362.33,-295.1"/>
</g>
<!-- fxTransferStateChange -->
<g id="node2" class="node">
<title>fxTransferStateChange</title>
<polygon fill="#efefef" stroke="none" points="349.26,-135.6 349.26,-171.2 654.68,-171.2 654.68,-135.6 349.26,-135.6"/>
<polygon fill="none" stroke="black" points="349.26,-135.6 349.26,-171.2 654.68,-171.2 654.68,-135.6 349.26,-135.6"/>
<text text-anchor="start" x="356.26" y="-149" font-family="Arial Bold" font-size="18.00">fxTransferStateChange</text>
<text text-anchor="start" x="523.19" y="-149" font-family="Arial" font-size="14.00">    </text>
<text text-anchor="start" x="554.31" y="-149" font-family="Arial" font-size="14.00" fill="#666666">[BASE TABLE]</text>
<polygon fill="none" stroke="black" points="349.26,-104.8 349.26,-135.6 654.68,-135.6 654.68,-104.8 349.26,-104.8"/>
<text text-anchor="start" x="356.26" y="-117" font-family="Arial" font-size="14.00">fxTransferStateChangeId </text>
<text text-anchor="start" x="516.57" y="-117" font-family="Arial" font-size="14.00" fill="#666666">[bigint unsigned]</text>
<polygon fill="none" stroke="black" points="349.26,-74 349.26,-104.8 654.68,-104.8 654.68,-74 349.26,-74"/>
<text text-anchor="start" x="356.26" y="-86.2" font-family="Arial" font-size="14.00">commitRequestId </text>
<text text-anchor="start" x="469.08" y="-86.2" font-family="Arial" font-size="14.00" fill="#666666">[varchar(36)]</text>
<polygon fill="none" stroke="black" points="349.26,-43.2 349.26,-74 654.68,-74 654.68,-43.2 349.26,-43.2"/>
<text text-anchor="start" x="356.26" y="-55.4" font-family="Arial" font-size="14.00">transferStateId </text>
<text text-anchor="start" x="451.98" y="-55.4" font-family="Arial" font-size="14.00" fill="#666666">[varchar(50)]</text>
</g>
<!-- fxTransferError&#45;&gt;fxTransferStateChange -->
<g id="edge1" class="edge">
<title>fxTransferError:fxTransferStateChangeId&#45;&gt;fxTransferStateChange:fxTransferStateChangeId</title>
<path fill="none" stroke="black" d="M502.75,-285.3C512.81,-224.42 616.69,-276.87 654.68,-214.4 676.43,-178.63 697.55,-120.2 655.68,-120.2"/>
<polygon fill="black" stroke="black" points="502.75,-285.3 497.51,-294.92 502.35,-290.61 502.02,-294.93 502.02,-294.93 502.02,-294.93 502.35,-290.61 506.48,-295.61 502.75,-285.3"/>
<text text-anchor="start" x="7" y="-305.6" font-family="Arial" font-size="10.00">FOREIGN KEY (fxTransferStateChangeId) REFERENCES fxTransferStateChange (fxTransferStateChangeId)</text>
</g>
</g>
</svg>
