<?xml version="1.0" encoding="UTF-8" standalone="no"?>
<!DOCTYPE svg PUBLIC "-//W3C//DTD SVG 1.1//EN"
 "http://www.w3.org/Graphics/SVG/1.1/DTD/svg11.dtd">
<!-- Generated by graphviz version 12.1.2 (20240928.0832)
 -->
<!-- Title: fxTransferTimeout Pages: 1 -->
<svg width="706pt" height="694pt"
 viewBox="0.00 0.00 706.38 694.40" xmlns="http://www.w3.org/2000/svg" xmlns:xlink="http://www.w3.org/1999/xlink">
<g id="graph0" class="graph" transform="scale(1 1) rotate(0) translate(4 690.4)">
<title>fxTransferTimeout</title>
<polygon fill="white" stroke="none" points="-4,4 -4,-690.4 702.38,-690.4 702.38,4 -4,4"/>
<!-- fxTransferTimeout -->
<g id="node1" class="node">
<title>fxTransferTimeout</title>
<polygon fill="#efefef" stroke="none" points="46.2,-604.6 46.2,-640.2 321.63,-640.2 321.63,-604.6 46.2,-604.6"/>
<polygon fill="none" stroke="black" points="46.2,-604.6 46.2,-640.2 321.63,-640.2 321.63,-604.6 46.2,-604.6"/>
<text text-anchor="start" x="53.2" y="-618" font-family="Arial Bold" font-size="18.00">fxTransferTimeout</text>
<text text-anchor="start" x="190.14" y="-618" font-family="Arial" font-size="14.00">    </text>
<text text-anchor="start" x="221.26" y="-618" font-family="Arial" font-size="14.00" fill="#666666">[BASE TABLE]</text>
<polygon fill="none" stroke="black" points="46.2,-573.8 46.2,-604.6 321.63,-604.6 321.63,-573.8 46.2,-573.8"/>
<text text-anchor="start" x="53.2" y="-586" font-family="Arial" font-size="14.00">fxTransferTimeoutId </text>
<text text-anchor="start" x="182.35" y="-586" font-family="Arial" font-size="14.00" fill="#666666">[bigint unsigned]</text>
<polygon fill="none" stroke="black" points="46.2,-543 46.2,-573.8 321.63,-573.8 321.63,-543 46.2,-543"/>
<text text-anchor="start" x="53.2" y="-555.2" font-family="Arial" font-size="14.00">commitRequestId </text>
<text text-anchor="start" x="166.02" y="-555.2" font-family="Arial" font-size="14.00" fill="#666666">[varchar(36)]</text>
<polygon fill="none" stroke="black" points="46.2,-512.2 46.2,-543 321.63,-543 321.63,-512.2 46.2,-512.2"/>
<text text-anchor="start" x="53.2" y="-524.4" font-family="Arial" font-size="14.00">expirationDate </text>
<text text-anchor="start" x="147.37" y="-524.4" font-family="Arial" font-size="14.00" fill="#666666">[datetime]</text>
<polygon fill="none" stroke="black" points="46.2,-481.4 46.2,-512.2 321.63,-512.2 321.63,-481.4 46.2,-481.4"/>
<text text-anchor="start" x="53.2" y="-493.6" font-family="Arial" font-size="14.00">createdDate </text>
<text text-anchor="start" x="133.36" y="-493.6" font-family="Arial" font-size="14.00" fill="#666666">[datetime]</text>
<polygon fill="none" stroke="black" stroke-width="3" points="44.7,-479.9 44.7,-641.7 323.13,-641.7 323.13,-479.9 44.7,-479.9"/>
</g>
<!-- fxTransfer -->
<g id="node2" class="node">
<title>fxTransfer</title>
<polygon fill="#efefef" stroke="none" points="66.82,-320.4 66.82,-356 301.02,-356 301.02,-320.4 66.82,-320.4"/>
<polygon fill="none" stroke="black" points="66.82,-320.4 66.82,-356 301.02,-356 301.02,-320.4 66.82,-320.4"/>
<text text-anchor="start" x="83.69" y="-333.8" font-family="Arial Bold" font-size="18.00">fxTransfer</text>
<text text-anchor="start" x="159.65" y="-333.8" font-family="Arial" font-size="14.00">    </text>
<text text-anchor="start" x="190.77" y="-333.8" font-family="Arial" font-size="14.00" fill="#666666">[BASE TABLE]</text>
<polygon fill="none" stroke="black" points="66.82,-289.6 66.82,-320.4 301.02,-320.4 301.02,-289.6 66.82,-289.6"/>
<text text-anchor="start" x="73.82" y="-301.8" font-family="Arial" font-size="14.00">commitRequestId </text>
<text text-anchor="start" x="186.64" y="-301.8" font-family="Arial" font-size="14.00" fill="#666666">[varchar(36)]</text>
<polygon fill="none" stroke="black" points="66.82,-258.8 66.82,-289.6 301.02,-289.6 301.02,-258.8 66.82,-258.8"/>
<text text-anchor="start" x="73.82" y="-271" font-family="Arial" font-size="14.00">determiningTransferId </text>
<text text-anchor="start" x="214.66" y="-271" font-family="Arial" font-size="14.00" fill="#666666">[varchar(36)]</text>
<polygon fill="none" stroke="black" points="66.82,-228 66.82,-258.8 301.02,-258.8 301.02,-228 66.82,-228"/>
<text text-anchor="start" x="73.82" y="-240.2" font-family="Arial" font-size="14.00">sourceAmount </text>
<text text-anchor="start" x="167.97" y="-240.2" font-family="Arial" font-size="14.00" fill="#666666">[decimal(18,4)]</text>
<polygon fill="none" stroke="black" points="66.82,-197.2 66.82,-228 301.02,-228 301.02,-197.2 66.82,-197.2"/>
<text text-anchor="start" x="73.82" y="-209.4" font-family="Arial" font-size="14.00">targetAmount </text>
<text text-anchor="start" x="161.75" y="-209.4" font-family="Arial" font-size="14.00" fill="#666666">[decimal(18,4)]</text>
<polygon fill="none" stroke="black" points="66.82,-166.4 66.82,-197.2 301.02,-197.2 301.02,-166.4 66.82,-166.4"/>
<text text-anchor="start" x="73.82" y="-178.6" font-family="Arial" font-size="14.00">sourceCurrency </text>
<text text-anchor="start" x="176.52" y="-178.6" font-family="Arial" font-size="14.00" fill="#666666">[varchar(3)]</text>
<polygon fill="none" stroke="black" points="66.82,-135.6 66.82,-166.4 301.02,-166.4 301.02,-135.6 66.82,-135.6"/>
<text text-anchor="start" x="73.82" y="-147.8" font-family="Arial" font-size="14.00">targetCurrency </text>
<text text-anchor="start" x="170.3" y="-147.8" font-family="Arial" font-size="14.00" fill="#666666">[varchar(3)]</text>
<polygon fill="none" stroke="black" points="66.82,-104.8 66.82,-135.6 301.02,-135.6 301.02,-104.8 66.82,-104.8"/>
<text text-anchor="start" x="73.82" y="-117" font-family="Arial" font-size="14.00">ilpCondition </text>
<text text-anchor="start" x="150.86" y="-117" font-family="Arial" font-size="14.00" fill="#666666">[varchar(256)]</text>
<polygon fill="none" stroke="black" points="66.82,-74 66.82,-104.8 301.02,-104.8 301.02,-74 66.82,-74"/>
<text text-anchor="start" x="73.82" y="-86.2" font-family="Arial" font-size="14.00">expirationDate </text>
<text text-anchor="start" x="167.98" y="-86.2" font-family="Arial" font-size="14.00" fill="#666666">[datetime]</text>
<polygon fill="none" stroke="black" points="66.82,-43.2 66.82,-74 301.02,-74 301.02,-43.2 66.82,-43.2"/>
<text text-anchor="start" x="73.82" y="-55.4" font-family="Arial" font-size="14.00">createdDate </text>
<text text-anchor="start" x="153.97" y="-55.4" font-family="Arial" font-size="14.00" fill="#666666">[datetime]</text>
</g>
<!-- fxTransferTimeout&#45;&gt;fxTransfer -->
<g id="edge1" class="edge">
<title>fxTransferTimeout:commitRequestId&#45;&gt;fxTransfer:commitRequestId</title>
<path fill="none" stroke="black" d="M332.83,-557.67C434.25,-542.81 411.48,-305 302.02,-305"/>
<polygon fill="black" stroke="black" points="332.94,-557.67 322.65,-553.89 327.62,-558.04 323.3,-558.35 323.3,-558.35 323.3,-558.35 327.62,-558.04 323.29,-562.86 332.94,-557.67"/>
<text text-anchor="start" x="329.63" y="-568.4" font-family="Arial" font-size="10.00">FOREIGN KEY (commitRequestId) REFERENCES fxTransfer (commitRequestId)</text>
</g>
</g>
</svg>
