<?xml version="1.0" encoding="UTF-8" standalone="no"?>
<!DOCTYPE svg PUBLIC "-//W3C//DTD SVG 1.1//EN"
 "http://www.w3.org/Graphics/SVG/1.1/DTD/svg11.dtd">
<!-- Generated by graphviz version 12.1.2 (20240928.0832)
 -->
<!-- Title: fxTransferExtension Pages: 1 -->
<svg width="573pt" height="448pt"
 viewBox="0.00 0.00 573.17 448.00" xmlns="http://www.w3.org/2000/svg" xmlns:xlink="http://www.w3.org/1999/xlink">
<g id="graph0" class="graph" transform="scale(1 1) rotate(0) translate(4 444)">
<title>fxTransferExtension</title>
<polygon fill="white" stroke="none" points="-4,4 -4,-444 569.17,-444 569.17,4 -4,4"/>
<!-- fxTransferExtension -->
<g id="node1" class="node">
<title>fxTransferExtension</title>
<polygon fill="#efefef" stroke="none" points="232.53,-358.2 232.53,-393.8 518.97,-393.8 518.97,-358.2 232.53,-358.2"/>
<polygon fill="none" stroke="black" points="232.53,-358.2 232.53,-393.8 518.97,-393.8 518.97,-358.2 232.53,-358.2"/>
<text text-anchor="start" x="239.53" y="-371.6" font-family="Arial Bold" font-size="18.00">fxTransferExtension</text>
<text text-anchor="start" x="387.48" y="-371.6" font-family="Arial" font-size="14.00">    </text>
<text text-anchor="start" x="418.59" y="-371.6" font-family="Arial" font-size="14.00" fill="#666666">[BASE TABLE]</text>
<polygon fill="none" stroke="black" points="232.53,-327.4 232.53,-358.2 518.97,-358.2 518.97,-327.4 232.53,-327.4"/>
<text text-anchor="start" x="239.53" y="-339.6" font-family="Arial" font-size="14.00">fxTransferExtensionId </text>
<text text-anchor="start" x="379.59" y="-339.6" font-family="Arial" font-size="14.00" fill="#666666">[bigint unsigned]</text>
<polygon fill="none" stroke="black" points="232.53,-296.6 232.53,-327.4 518.97,-327.4 518.97,-296.6 232.53,-296.6"/>
<text text-anchor="start" x="239.53" y="-308.8" font-family="Arial" font-size="14.00">commitRequestId </text>
<text text-anchor="start" x="352.35" y="-308.8" font-family="Arial" font-size="14.00" fill="#666666">[varchar(36)]</text>
<polygon fill="none" stroke="black" stroke-width="3" points="231.03,-295.1 231.03,-395.3 520.47,-395.3 520.47,-295.1 231.03,-295.1"/>
</g>
<!-- fxTransfer -->
<g id="node2" class="node">
<title>fxTransfer</title>
<polygon fill="#efefef" stroke="none" points="268.53,-135.6 268.53,-171.2 482.97,-171.2 482.97,-135.6 268.53,-135.6"/>
<polygon fill="none" stroke="black" points="268.53,-135.6 268.53,-171.2 482.97,-171.2 482.97,-135.6 268.53,-135.6"/>
<text text-anchor="start" x="275.53" y="-149" font-family="Arial Bold" font-size="18.00">fxTransfer</text>
<text text-anchor="start" x="351.48" y="-149" font-family="Arial" font-size="14.00">    </text>
<text text-anchor="start" x="382.6" y="-149" font-family="Arial" font-size="14.00" fill="#666666">[BASE TABLE]</text>
<polygon fill="none" stroke="black" points="268.53,-104.8 268.53,-135.6 482.97,-135.6 482.97,-104.8 268.53,-104.8"/>
<text text-anchor="start" x="275.53" y="-117" font-family="Arial" font-size="14.00">commitRequestId </text>
<text text-anchor="start" x="388.35" y="-117" font-family="Arial" font-size="14.00" fill="#666666">[varchar(36)]</text>
<polygon fill="none" stroke="black" points="268.53,-74 268.53,-104.8 482.97,-104.8 482.97,-74 268.53,-74"/>
<text text-anchor="start" x="275.53" y="-86.2" font-family="Arial" font-size="14.00">sourceCurrency </text>
<text text-anchor="start" x="378.23" y="-86.2" font-family="Arial" font-size="14.00" fill="#666666">[varchar(3)]</text>
<polygon fill="none" stroke="black" points="268.53,-43.2 268.53,-74 482.97,-74 482.97,-43.2 268.53,-43.2"/>
<text text-anchor="start" x="275.53" y="-55.4" font-family="Arial" font-size="14.00">targetCurrency </text>
<text text-anchor="start" x="372.01" y="-55.4" font-family="Arial" font-size="14.00" fill="#666666">[varchar(3)]</text>
</g>
<!-- fxTransferExtension&#45;&gt;fxTransfer -->
<g id="edge1" class="edge">
<title>fxTransferExtension:commitRequestId&#45;&gt;fxTransfer:commitRequestId</title>
<path fill="none" stroke="black" d="M376.66,-285.42C385.58,-239.48 457.76,-264.45 482.97,-214.4 501.81,-177.01 525.84,-120.2 483.97,-120.2"/>
<polygon fill="black" stroke="black" points="376.67,-285.31 371.3,-294.87 376.19,-290.62 375.81,-294.93 375.81,-294.93 375.81,-294.93 376.19,-290.62 380.26,-295.67 376.67,-285.31"/>
<text text-anchor="start" x="7" y="-305.6" font-family="Arial" font-size="10.00">FOREIGN KEY (commitRequestId) REFERENCES fxTransfer (commitRequestId)</text>
</g>
</g>
</svg>
