<?xml version="1.0" encoding="UTF-8" standalone="no"?>
<!DOCTYPE svg PUBLIC "-//W3C//DTD SVG 1.1//EN"
 "http://www.w3.org/Graphics/SVG/1.1/DTD/svg11.dtd">
<!-- Generated by graphviz version 12.1.2 (20240928.0832)
 -->
<!-- Title: fxTransferDuplicateCheck Pages: 1 -->
<svg width="783pt" height="664pt"
 viewBox="0.00 0.00 783.28 663.60" xmlns="http://www.w3.org/2000/svg" xmlns:xlink="http://www.w3.org/1999/xlink">
<g id="graph0" class="graph" transform="scale(1 1) rotate(0) translate(4 659.6)">
<title>fxTransferDuplicateCheck</title>
<polygon fill="white" stroke="none" points="-4,4 -4,-659.6 779.28,-659.6 779.28,4 -4,4"/>
<!-- fxTransferDuplicateCheck -->
<g id="node1" class="node">
<title>fxTransferDuplicateCheck</title>
<polygon fill="#efefef" stroke="none" points="46.2,-138.6 46.2,-174.2 376.6,-174.2 376.6,-138.6 46.2,-138.6"/>
<polygon fill="none" stroke="black" points="46.2,-138.6 46.2,-174.2 376.6,-174.2 376.6,-138.6 46.2,-138.6"/>
<text text-anchor="start" x="53.2" y="-152" font-family="Arial Bold" font-size="18.00">fxTransferDuplicateCheck</text>
<text text-anchor="start" x="245.11" y="-152" font-family="Arial" font-size="14.00">    </text>
<text text-anchor="start" x="276.23" y="-152" font-family="Arial" font-size="14.00" fill="#666666">[BASE TABLE]</text>
<polygon fill="none" stroke="black" points="46.2,-107.8 46.2,-138.6 376.6,-138.6 376.6,-107.8 46.2,-107.8"/>
<text text-anchor="start" x="53.2" y="-120" font-family="Arial" font-size="14.00">commitRequestId </text>
<text text-anchor="start" x="166.02" y="-120" font-family="Arial" font-size="14.00" fill="#666666">[varchar(36)]</text>
<polygon fill="none" stroke="black" points="46.2,-77 46.2,-107.8 376.6,-107.8 376.6,-77 46.2,-77"/>
<text text-anchor="start" x="53.2" y="-89.2" font-family="Arial" font-size="14.00">hash </text>
<text text-anchor="start" x="87.45" y="-89.2" font-family="Arial" font-size="14.00" fill="#666666">[varchar(256)]</text>
<polygon fill="none" stroke="black" points="46.2,-46.2 46.2,-77 376.6,-77 376.6,-46.2 46.2,-46.2"/>
<text text-anchor="start" x="53.2" y="-58.4" font-family="Arial" font-size="14.00">createdDate </text>
<text text-anchor="start" x="133.36" y="-58.4" font-family="Arial" font-size="14.00" fill="#666666">[datetime]</text>
<polygon fill="none" stroke="black" stroke-width="3" points="44.7,-44.7 44.7,-175.7 378.1,-175.7 378.1,-44.7 44.7,-44.7"/>
</g>
<!-- fxTransfer -->
<g id="node2" class="node">
<title>fxTransfer</title>
<polygon fill="#efefef" stroke="none" points="94.3,-576.8 94.3,-612.4 328.5,-612.4 328.5,-576.8 94.3,-576.8"/>
<polygon fill="none" stroke="black" points="94.3,-576.8 94.3,-612.4 328.5,-612.4 328.5,-576.8 94.3,-576.8"/>
<text text-anchor="start" x="111.18" y="-590.2" font-family="Arial Bold" font-size="18.00">fxTransfer</text>
<text text-anchor="start" x="187.13" y="-590.2" font-family="Arial" font-size="14.00">    </text>
<text text-anchor="start" x="218.25" y="-590.2" font-family="Arial" font-size="14.00" fill="#666666">[BASE TABLE]</text>
<polygon fill="none" stroke="black" points="94.3,-546 94.3,-576.8 328.5,-576.8 328.5,-546 94.3,-546"/>
<text text-anchor="start" x="101.3" y="-558.2" font-family="Arial" font-size="14.00">commitRequestId </text>
<text text-anchor="start" x="214.12" y="-558.2" font-family="Arial" font-size="14.00" fill="#666666">[varchar(36)]</text>
<polygon fill="none" stroke="black" points="94.3,-515.2 94.3,-546 328.5,-546 328.5,-515.2 94.3,-515.2"/>
<text text-anchor="start" x="101.3" y="-527.4" font-family="Arial" font-size="14.00">determiningTransferId </text>
<text text-anchor="start" x="242.14" y="-527.4" font-family="Arial" font-size="14.00" fill="#666666">[varchar(36)]</text>
<polygon fill="none" stroke="black" points="94.3,-484.4 94.3,-515.2 328.5,-515.2 328.5,-484.4 94.3,-484.4"/>
<text text-anchor="start" x="101.3" y="-496.6" font-family="Arial" font-size="14.00">sourceAmount </text>
<text text-anchor="start" x="195.46" y="-496.6" font-family="Arial" font-size="14.00" fill="#666666">[decimal(18,4)]</text>
<polygon fill="none" stroke="black" points="94.3,-453.6 94.3,-484.4 328.5,-484.4 328.5,-453.6 94.3,-453.6"/>
<text text-anchor="start" x="101.3" y="-465.8" font-family="Arial" font-size="14.00">targetAmount </text>
<text text-anchor="start" x="189.24" y="-465.8" font-family="Arial" font-size="14.00" fill="#666666">[decimal(18,4)]</text>
<polygon fill="none" stroke="black" points="94.3,-422.8 94.3,-453.6 328.5,-453.6 328.5,-422.8 94.3,-422.8"/>
<text text-anchor="start" x="101.3" y="-435" font-family="Arial" font-size="14.00">sourceCurrency </text>
<text text-anchor="start" x="204" y="-435" font-family="Arial" font-size="14.00" fill="#666666">[varchar(3)]</text>
<polygon fill="none" stroke="black" points="94.3,-392 94.3,-422.8 328.5,-422.8 328.5,-392 94.3,-392"/>
<text text-anchor="start" x="101.3" y="-404.2" font-family="Arial" font-size="14.00">targetCurrency </text>
<text text-anchor="start" x="197.78" y="-404.2" font-family="Arial" font-size="14.00" fill="#666666">[varchar(3)]</text>
<polygon fill="none" stroke="black" points="94.3,-361.2 94.3,-392 328.5,-392 328.5,-361.2 94.3,-361.2"/>
<text text-anchor="start" x="101.3" y="-373.4" font-family="Arial" font-size="14.00">ilpCondition </text>
<text text-anchor="start" x="178.35" y="-373.4" font-family="Arial" font-size="14.00" fill="#666666">[varchar(256)]</text>
<polygon fill="none" stroke="black" points="94.3,-330.4 94.3,-361.2 328.5,-361.2 328.5,-330.4 94.3,-330.4"/>
<text text-anchor="start" x="101.3" y="-342.6" font-family="Arial" font-size="14.00">expirationDate </text>
<text text-anchor="start" x="195.46" y="-342.6" font-family="Arial" font-size="14.00" fill="#666666">[datetime]</text>
<polygon fill="none" stroke="black" points="94.3,-299.6 94.3,-330.4 328.5,-330.4 328.5,-299.6 94.3,-299.6"/>
<text text-anchor="start" x="101.3" y="-311.8" font-family="Arial" font-size="14.00">createdDate </text>
<text text-anchor="start" x="181.46" y="-311.8" font-family="Arial" font-size="14.00" fill="#666666">[datetime]</text>
</g>
<!-- fxTransfer&#45;&gt;fxTransferDuplicateCheck -->
<g id="edge1" class="edge">
<title>fxTransfer:commitRequestId&#45;&gt;fxTransferDuplicateCheck:commitRequestId</title>
<path fill="none" stroke="black" d="M339.64,-559.81C430.66,-531.13 472.12,-123.2 377.6,-123.2"/>
<polygon fill="black" stroke="black" points="339.71,-559.8 329.13,-556.9 334.44,-560.63 330.16,-561.3 330.16,-561.3 330.16,-561.3 334.44,-560.63 330.52,-565.79 339.71,-559.8"/>
<text text-anchor="start" x="336.5" y="-571.4" font-family="Arial" font-size="10.00">FOREIGN KEY (commitRequestId) REFERENCES fxTransferDuplicateCheck (commitRequestId)</text>
</g>
</g>
</svg>
