<?xml version="1.0" encoding="UTF-8" standalone="no"?>
<!DOCTYPE svg PUBLIC "-//W3C//DTD SVG 1.1//EN"
 "http://www.w3.org/Graphics/SVG/1.1/DTD/svg11.dtd">
<!-- Generated by graphviz version 12.1.2 (20240928.0832)
 -->
<!-- Title: fxTransferError Pages: 1 -->
<svg width="845pt" height="602pt"
 viewBox="0.00 0.00 845.02 602.00" xmlns="http://www.w3.org/2000/svg" xmlns:xlink="http://www.w3.org/1999/xlink">
<g id="graph0" class="graph" transform="scale(1 1) rotate(0) translate(4 598)">
<title>fxTransferError</title>
<polygon fill="white" stroke="none" points="-4,4 -4,-598 841.02,-598 841.02,4 -4,4"/>
<!-- fxTransferError -->
<g id="node1" class="node">
<title>fxTransferError</title>
<polygon fill="#efefef" stroke="none" points="57.77,-512.2 57.77,-547.8 334.05,-547.8 334.05,-512.2 57.77,-512.2"/>
<polygon fill="none" stroke="black" points="57.77,-512.2 57.77,-547.8 334.05,-547.8 334.05,-512.2 57.77,-512.2"/>
<text text-anchor="start" x="76.7" y="-525.6" font-family="Arial Bold" font-size="18.00">fxTransferError</text>
<text text-anchor="start" x="190.63" y="-525.6" font-family="Arial" font-size="14.00">    </text>
<text text-anchor="start" x="221.75" y="-525.6" font-family="Arial" font-size="14.00" fill="#666666">[BASE TABLE]</text>
<polygon fill="none" stroke="black" points="57.77,-481.4 57.77,-512.2 334.05,-512.2 334.05,-481.4 57.77,-481.4"/>
<text text-anchor="start" x="64.77" y="-493.6" font-family="Arial" font-size="14.00">commitRequestId </text>
<text text-anchor="start" x="177.59" y="-493.6" font-family="Arial" font-size="14.00" fill="#666666">[varchar(36)]</text>
<polygon fill="none" stroke="black" points="57.77,-450.6 57.77,-481.4 334.05,-481.4 334.05,-450.6 57.77,-450.6"/>
<text text-anchor="start" x="64.77" y="-462.8" font-family="Arial" font-size="14.00">fxTransferStateChangeId </text>
<text text-anchor="start" x="225.08" y="-462.8" font-family="Arial" font-size="14.00" fill="#666666">[bigint unsigned]</text>
<polygon fill="none" stroke="black" points="57.77,-419.8 57.77,-450.6 334.05,-450.6 334.05,-419.8 57.77,-419.8"/>
<text text-anchor="start" x="64.77" y="-432" font-family="Arial" font-size="14.00">errorCode </text>
<text text-anchor="start" x="131.69" y="-432" font-family="Arial" font-size="14.00" fill="#666666">[int unsigned]</text>
<polygon fill="none" stroke="black" points="57.77,-389 57.77,-419.8 334.05,-419.8 334.05,-389 57.77,-389"/>
<text text-anchor="start" x="64.77" y="-401.2" font-family="Arial" font-size="14.00">errorDescription </text>
<text text-anchor="start" x="168.25" y="-401.2" font-family="Arial" font-size="14.00" fill="#666666">[varchar(128)]</text>
<polygon fill="none" stroke="black" points="57.77,-358.2 57.77,-389 334.05,-389 334.05,-358.2 57.77,-358.2"/>
<text text-anchor="start" x="64.77" y="-370.4" font-family="Arial" font-size="14.00">createdDate </text>
<text text-anchor="start" x="144.93" y="-370.4" font-family="Arial" font-size="14.00" fill="#666666">[datetime]</text>
<polygon fill="none" stroke="black" stroke-width="3" points="56.27,-356.7 56.27,-549.3 335.55,-549.3 335.55,-356.7 56.27,-356.7"/>
</g>
<!-- fxTransferStateChange -->
<g id="node2" class="node">
<title>fxTransferStateChange</title>
<polygon fill="#efefef" stroke="none" points="43.2,-197.2 43.2,-232.8 348.62,-232.8 348.62,-197.2 43.2,-197.2"/>
<polygon fill="none" stroke="black" points="43.2,-197.2 43.2,-232.8 348.62,-232.8 348.62,-197.2 43.2,-197.2"/>
<text text-anchor="start" x="50.2" y="-210.6" font-family="Arial Bold" font-size="18.00">fxTransferStateChange</text>
<text text-anchor="start" x="217.13" y="-210.6" font-family="Arial" font-size="14.00">    </text>
<text text-anchor="start" x="248.25" y="-210.6" font-family="Arial" font-size="14.00" fill="#666666">[BASE TABLE]</text>
<polygon fill="none" stroke="black" points="43.2,-166.4 43.2,-197.2 348.62,-197.2 348.62,-166.4 43.2,-166.4"/>
<text text-anchor="start" x="50.2" y="-178.6" font-family="Arial" font-size="14.00">fxTransferStateChangeId </text>
<text text-anchor="start" x="210.51" y="-178.6" font-family="Arial" font-size="14.00" fill="#666666">[bigint unsigned]</text>
<polygon fill="none" stroke="black" points="43.2,-135.6 43.2,-166.4 348.62,-166.4 348.62,-135.6 43.2,-135.6"/>
<text text-anchor="start" x="50.2" y="-147.8" font-family="Arial" font-size="14.00">commitRequestId </text>
<text text-anchor="start" x="163.02" y="-147.8" font-family="Arial" font-size="14.00" fill="#666666">[varchar(36)]</text>
<polygon fill="none" stroke="black" points="43.2,-104.8 43.2,-135.6 348.62,-135.6 348.62,-104.8 43.2,-104.8"/>
<text text-anchor="start" x="50.2" y="-117" font-family="Arial" font-size="14.00">transferStateId </text>
<text text-anchor="start" x="145.92" y="-117" font-family="Arial" font-size="14.00" fill="#666666">[varchar(50)]</text>
<polygon fill="none" stroke="black" points="43.2,-74 43.2,-104.8 348.62,-104.8 348.62,-74 43.2,-74"/>
<text text-anchor="start" x="50.2" y="-86.2" font-family="Arial" font-size="14.00">reason </text>
<text text-anchor="start" x="96.9" y="-86.2" font-family="Arial" font-size="14.00" fill="#666666">[varchar(512)]</text>
<polygon fill="none" stroke="black" points="43.2,-43.2 43.2,-74 348.62,-74 348.62,-43.2 43.2,-43.2"/>
<text text-anchor="start" x="50.2" y="-55.4" font-family="Arial" font-size="14.00">createdDate </text>
<text text-anchor="start" x="130.36" y="-55.4" font-family="Arial" font-size="14.00" fill="#666666">[datetime]</text>
</g>
<!-- fxTransferError&#45;&gt;fxTransferStateChange -->
<g id="edge1" class="edge">
<title>fxTransferError:fxTransferStateChangeId&#45;&gt;fxTransferStateChange:fxTransferStateChangeId</title>
<path fill="none" stroke="black" d="M344.98,-463.54C399.65,-435.77 409.4,-181.8 349.62,-181.8"/>
<polygon fill="black" stroke="black" points="345.08,-463.52 334.29,-461.55 339.9,-464.8 335.7,-465.84 335.7,-465.84 335.7,-465.84 339.9,-464.8 336.45,-470.29 345.08,-463.52"/>
<text text-anchor="start" x="342.05" y="-476" font-family="Arial" font-size="10.00">FOREIGN KEY (fxTransferStateChangeId) REFERENCES fxTransferStateChange (fxTransferStateChangeId)</text>
</g>
</g>
</svg>
