<?xml version="1.0" encoding="UTF-8" standalone="no"?>
<!DOCTYPE svg PUBLIC "-//W3C//DTD SVG 1.1//EN"
 "http://www.w3.org/Graphics/SVG/1.1/DTD/svg11.dtd">
<!-- Generated by graphviz version 12.1.2 (20240928.0832)
 -->
<!-- Title: fxTransferErrorDuplicateCheck Pages: 1 -->
<svg width="469pt" height="167pt"
 viewBox="0.00 0.00 468.78 166.80" xmlns="http://www.w3.org/2000/svg" xmlns:xlink="http://www.w3.org/1999/xlink">
<g id="graph0" class="graph" transform="scale(1 1) rotate(0) translate(4 162.8)">
<title>fxTransferErrorDuplicateCheck</title>
<polygon fill="white" stroke="none" points="-4,4 -4,-162.8 464.78,-162.8 464.78,4 -4,4"/>
<!-- fxTransferErrorDuplicateCheck -->
<g id="node1" class="node">
<title>fxTransferErrorDuplicateCheck</title>
<polygon fill="#efefef" stroke="none" points="46.2,-77 46.2,-112.6 414.58,-112.6 414.58,-77 46.2,-77"/>
<polygon fill="none" stroke="black" points="46.2,-77 46.2,-112.6 414.58,-112.6 414.58,-77 46.2,-77"/>
<text text-anchor="start" x="53.2" y="-90.4" font-family="Arial Bold" font-size="18.00">fxTransferErrorDuplicateCheck</text>
<text text-anchor="start" x="283.09" y="-90.4" font-family="Arial" font-size="14.00">    </text>
<text text-anchor="start" x="314.2" y="-90.4" font-family="Arial" font-size="14.00" fill="#666666">[BASE TABLE]</text>
<polygon fill="none" stroke="black" points="46.2,-46.2 46.2,-77 414.58,-77 414.58,-46.2 46.2,-46.2"/>
<text text-anchor="start" x="53.2" y="-58.4" font-family="Arial" font-size="14.00">commitRequestId </text>
<text text-anchor="start" x="166.02" y="-58.4" font-family="Arial" font-size="14.00" fill="#666666">[varchar(36)]</text>
<polygon fill="none" stroke="black" stroke-width="3" points="44.7,-44.7 44.7,-114.1 416.08,-114.1 416.08,-44.7 44.7,-44.7"/>
</g>
</g>
</svg>
