<?xml version="1.0" encoding="UTF-8" standalone="no"?>
<!DOCTYPE svg PUBLIC "-//W3C//DTD SVG 1.1//EN"
 "http://www.w3.org/Graphics/SVG/1.1/DTD/svg11.dtd">
<!-- Generated by graphviz version 12.1.2 (20240928.0832)
 -->
<!-- Title: fxTransfer Pages: 1 -->
<svg width="2954pt" height="791pt"
 viewBox="0.00 0.00 2954.05 790.80" xmlns="http://www.w3.org/2000/svg" xmlns:xlink="http://www.w3.org/1999/xlink">
<g id="graph0" class="graph" transform="scale(1 1) rotate(0) translate(4 786.8)">
<title>fxTransfer</title>
<polygon fill="white" stroke="none" points="-4,4 -4,-786.8 2950.05,-786.8 2950.05,4 -4,4"/>
<!-- fxTransfer -->
<g id="node1" class="node">
<title>fxTransfer</title>
<polygon fill="#efefef" stroke="none" points="1424.31,-327.4 1424.31,-363 1638.75,-363 1638.75,-327.4 1424.31,-327.4"/>
<polygon fill="none" stroke="black" points="1424.31,-327.4 1424.31,-363 1638.75,-363 1638.75,-327.4 1424.31,-327.4"/>
<text text-anchor="start" x="1431.31" y="-340.8" font-family="Arial Bold" font-size="18.00">fxTransfer</text>
<text text-anchor="start" x="1507.26" y="-340.8" font-family="Arial" font-size="14.00">    </text>
<text text-anchor="start" x="1538.38" y="-340.8" font-family="Arial" font-size="14.00" fill="#666666">[BASE TABLE]</text>
<polygon fill="none" stroke="black" points="1424.31,-296.6 1424.31,-327.4 1638.75,-327.4 1638.75,-296.6 1424.31,-296.6"/>
<text text-anchor="start" x="1431.31" y="-308.8" font-family="Arial" font-size="14.00">commitRequestId </text>
<text text-anchor="start" x="1544.13" y="-308.8" font-family="Arial" font-size="14.00" fill="#666666">[varchar(36)]</text>
<polygon fill="none" stroke="black" points="1424.31,-265.8 1424.31,-296.6 1638.75,-296.6 1638.75,-265.8 1424.31,-265.8"/>
<text text-anchor="start" x="1431.31" y="-278" font-family="Arial" font-size="14.00">sourceCurrency </text>
<text text-anchor="start" x="1534.01" y="-278" font-family="Arial" font-size="14.00" fill="#666666">[varchar(3)]</text>
<polygon fill="none" stroke="black" points="1424.31,-235 1424.31,-265.8 1638.75,-265.8 1638.75,-235 1424.31,-235"/>
<text text-anchor="start" x="1431.31" y="-247.2" font-family="Arial" font-size="14.00">targetCurrency </text>
<text text-anchor="start" x="1527.79" y="-247.2" font-family="Arial" font-size="14.00" fill="#666666">[varchar(3)]</text>
<polygon fill="none" stroke="black" stroke-width="3" points="1422.81,-233.5 1422.81,-364.5 1640.25,-364.5 1640.25,-233.5 1422.81,-233.5"/>
</g>
<!-- fxTransferDuplicateCheck -->
<g id="node2" class="node">
<title>fxTransferDuplicateCheck</title>
<polygon fill="#efefef" stroke="none" points="996.33,-74 996.33,-109.6 1326.73,-109.6 1326.73,-74 996.33,-74"/>
<polygon fill="none" stroke="black" points="996.33,-74 996.33,-109.6 1326.73,-109.6 1326.73,-74 996.33,-74"/>
<text text-anchor="start" x="1003.33" y="-87.4" font-family="Arial Bold" font-size="18.00">fxTransferDuplicateCheck</text>
<text text-anchor="start" x="1195.24" y="-87.4" font-family="Arial" font-size="14.00">    </text>
<text text-anchor="start" x="1226.36" y="-87.4" font-family="Arial" font-size="14.00" fill="#666666">[BASE TABLE]</text>
<polygon fill="none" stroke="black" points="996.33,-43.2 996.33,-74 1326.73,-74 1326.73,-43.2 996.33,-43.2"/>
<text text-anchor="start" x="1003.33" y="-55.4" font-family="Arial" font-size="14.00">commitRequestId </text>
<text text-anchor="start" x="1116.15" y="-55.4" font-family="Arial" font-size="14.00" fill="#666666">[varchar(36)]</text>
</g>
<!-- fxTransfer&#45;&gt;fxTransferDuplicateCheck -->
<g id="edge1" class="edge">
<title>fxTransfer:commitRequestId&#45;&gt;fxTransferDuplicateCheck:commitRequestId</title>
<path fill="none" stroke="black" d="M1413.27,-309.33C1365.81,-282.24 1384.27,-58.6 1327.73,-58.6"/>
<polygon fill="black" stroke="black" points="1413.32,-309.34 1421.83,-316.26 1418.48,-310.71 1422.66,-311.83 1422.66,-311.83 1422.66,-311.83 1418.48,-310.71 1424.14,-307.57 1413.32,-309.34"/>
<text text-anchor="start" x="984.53" y="-322" font-family="Arial" font-size="10.00">FOREIGN KEY (commitRequestId) REFERENCES fxTransferDuplicateCheck (commitRequestId)</text>
</g>
<!-- currency -->
<g id="node10" class="node">
<title>currency</title>
<polygon fill="#efefef" stroke="none" points="1430.81,-74 1430.81,-109.6 1632.25,-109.6 1632.25,-74 1430.81,-74"/>
<polygon fill="none" stroke="black" points="1430.81,-74 1430.81,-109.6 1632.25,-109.6 1632.25,-74 1430.81,-74"/>
<text text-anchor="start" x="1437.81" y="-87.4" font-family="Arial Bold" font-size="18.00">currency</text>
<text text-anchor="start" x="1500.76" y="-87.4" font-family="Arial" font-size="14.00">    </text>
<text text-anchor="start" x="1531.88" y="-87.4" font-family="Arial" font-size="14.00" fill="#666666">[BASE TABLE]</text>
<polygon fill="none" stroke="black" points="1430.81,-43.2 1430.81,-74 1632.25,-74 1632.25,-43.2 1430.81,-43.2"/>
<text text-anchor="start" x="1437.81" y="-55.4" font-family="Arial" font-size="14.00">currencyId </text>
<text text-anchor="start" x="1507.06" y="-55.4" font-family="Arial" font-size="14.00" fill="#666666">[varchar(3)]</text>
</g>
<!-- fxTransfer&#45;&gt;currency -->
<g id="edge9" class="edge">
<title>fxTransfer:sourceCurrency&#45;&gt;currency:currencyId</title>
<path fill="none" stroke="black" d="M1650.07,-280.67C1746.9,-270.53 1748.32,-116.58 1675.45,-43.2 1630.38,2.19 1531.53,21.77 1531.53,-42.2"/>
<polygon fill="black" stroke="black" points="1650.07,-280.67 1639.86,-276.69 1644.75,-280.94 1640.42,-281.17 1640.42,-281.17 1640.42,-281.17 1644.75,-280.94 1640.32,-285.68 1650.07,-280.67"/>
<text text-anchor="start" x="1646.75" y="-291.2" font-family="Arial" font-size="10.00">FOREIGN KEY (sourceCurrency) REFERENCES currency (currencyId)</text>
</g>
<!-- fxTransfer&#45;&gt;currency -->
<g id="edge10" class="edge">
<title>fxTransfer:targetCurrency&#45;&gt;currency:currencyId</title>
<path fill="none" stroke="black" d="M1532.33,-223.78C1542.21,-165.9 1640.3,-213 1675.45,-152.8 1700.02,-110.74 1709.78,-77.76 1675.45,-43.2 1630.38,2.19 1531.53,21.77 1531.53,-42.2"/>
<polygon fill="black" stroke="black" points="1532.34,-223.7 1527.07,-233.31 1531.92,-229.02 1531.58,-233.33 1531.58,-233.33 1531.58,-233.33 1531.92,-229.02 1536.04,-234.02 1532.34,-223.7"/>
<text text-anchor="start" x="1212.24" y="-244" font-family="Arial" font-size="10.00">FOREIGN KEY (targetCurrency) REFERENCES currency (currencyId)</text>
</g>
<!-- fxTransferExtension -->
<g id="node3" class="node">
<title>fxTransferExtension</title>
<polygon fill="#efefef" stroke="none" points="88.31,-627 88.31,-662.6 374.75,-662.6 374.75,-627 88.31,-627"/>
<polygon fill="none" stroke="black" points="88.31,-627 88.31,-662.6 374.75,-662.6 374.75,-627 88.31,-627"/>
<text text-anchor="start" x="95.31" y="-640.4" font-family="Arial Bold" font-size="18.00">fxTransferExtension</text>
<text text-anchor="start" x="243.26" y="-640.4" font-family="Arial" font-size="14.00">    </text>
<text text-anchor="start" x="274.38" y="-640.4" font-family="Arial" font-size="14.00" fill="#666666">[BASE TABLE]</text>
<polygon fill="none" stroke="black" points="88.31,-596.2 88.31,-627 374.75,-627 374.75,-596.2 88.31,-596.2"/>
<text text-anchor="start" x="95.31" y="-608.4" font-family="Arial" font-size="14.00">fxTransferExtensionId </text>
<text text-anchor="start" x="235.37" y="-608.4" font-family="Arial" font-size="14.00" fill="#666666">[bigint unsigned]</text>
<polygon fill="none" stroke="black" points="88.31,-565.4 88.31,-596.2 374.75,-596.2 374.75,-565.4 88.31,-565.4"/>
<text text-anchor="start" x="95.31" y="-577.6" font-family="Arial" font-size="14.00">commitRequestId </text>
<text text-anchor="start" x="208.13" y="-577.6" font-family="Arial" font-size="14.00" fill="#666666">[varchar(36)]</text>
</g>
<!-- fxTransferExtension&#45;&gt;fxTransfer -->
<g id="edge2" class="edge">
<title>fxTransferExtension:commitRequestId&#45;&gt;fxTransfer:commitRequestId</title>
<path fill="none" stroke="black" d="M386.11,-579.78C433.01,-569.43 380.01,-482.81 427.53,-445.2 515.06,-375.93 1311.68,-312 1423.31,-312"/>
<polygon fill="black" stroke="black" points="386.03,-579.79 375.64,-576.29 380.72,-580.31 376.41,-580.73 376.41,-580.73 376.41,-580.73 380.72,-580.31 376.52,-585.25 386.03,-579.79"/>
<text text-anchor="start" x="7" y="-590.8" font-family="Arial" font-size="10.00">FOREIGN KEY (commitRequestId) REFERENCES fxTransfer (commitRequestId)</text>
</g>
<!-- fxTransferFulfilment -->
<g id="node4" class="node">
<title>fxTransferFulfilment</title>
<polygon fill="#efefef" stroke="none" points="479.31,-627 479.31,-662.6 769.75,-662.6 769.75,-627 479.31,-627"/>
<polygon fill="none" stroke="black" points="479.31,-627 479.31,-662.6 769.75,-662.6 769.75,-627 479.31,-627"/>
<text text-anchor="start" x="486.31" y="-640.4" font-family="Arial Bold" font-size="18.00">fxTransferFulfilment</text>
<text text-anchor="start" x="638.26" y="-640.4" font-family="Arial" font-size="14.00">    </text>
<text text-anchor="start" x="669.38" y="-640.4" font-family="Arial" font-size="14.00" fill="#666666">[BASE TABLE]</text>
<polygon fill="none" stroke="black" points="479.31,-596.2 479.31,-627 769.75,-627 769.75,-596.2 479.31,-596.2"/>
<text text-anchor="start" x="486.31" y="-608.4" font-family="Arial" font-size="14.00">commitRequestId </text>
<text text-anchor="start" x="599.13" y="-608.4" font-family="Arial" font-size="14.00" fill="#666666">[varchar(36)]</text>
<polygon fill="none" stroke="black" points="479.31,-565.4 479.31,-596.2 769.75,-596.2 769.75,-565.4 479.31,-565.4"/>
<text text-anchor="start" x="486.31" y="-577.6" font-family="Arial" font-size="14.00">settlementWindowId </text>
<text text-anchor="start" x="616.25" y="-577.6" font-family="Arial" font-size="14.00" fill="#666666">[bigint unsigned]</text>
</g>
<!-- fxTransferFulfilment&#45;&gt;fxTransfer -->
<g id="edge3" class="edge">
<title>fxTransferFulfilment:commitRequestId&#45;&gt;fxTransfer:commitRequestId</title>
<path fill="none" stroke="black" d="M780.99,-610.81C840.46,-600.62 768.31,-495.07 822.53,-445.2 923.18,-352.62 1286.56,-312 1423.31,-312"/>
<polygon fill="black" stroke="black" points="781.06,-610.8 770.74,-607.09 775.74,-611.21 771.42,-611.55 771.42,-611.55 771.42,-611.55 775.74,-611.21 771.43,-616.06 781.06,-610.8"/>
<text text-anchor="start" x="777.75" y="-621.6" font-family="Arial" font-size="10.00">FOREIGN KEY (commitRequestId) REFERENCES fxTransfer (commitRequestId)</text>
</g>
<!-- fxTransferFulfilmentDuplicateCheck -->
<g id="node5" class="node">
<title>fxTransferFulfilmentDuplicateCheck</title>
<polygon fill="#efefef" stroke="none" points="874.33,-611.6 874.33,-647.2 1280.73,-647.2 1280.73,-611.6 874.33,-611.6"/>
<polygon fill="none" stroke="black" points="874.33,-611.6 874.33,-647.2 1280.73,-647.2 1280.73,-611.6 874.33,-611.6"/>
<text text-anchor="start" x="881.33" y="-625" font-family="Arial Bold" font-size="18.00">fxTransferFulfilmentDuplicateCheck</text>
<text text-anchor="start" x="1149.24" y="-625" font-family="Arial" font-size="14.00">    </text>
<text text-anchor="start" x="1180.36" y="-625" font-family="Arial" font-size="14.00" fill="#666666">[BASE TABLE]</text>
<polygon fill="none" stroke="black" points="874.33,-580.8 874.33,-611.6 1280.73,-611.6 1280.73,-580.8 874.33,-580.8"/>
<text text-anchor="start" x="881.33" y="-593" font-family="Arial" font-size="14.00">commitRequestId </text>
<text text-anchor="start" x="994.15" y="-593" font-family="Arial" font-size="14.00" fill="#666666">[varchar(36)]</text>
</g>
<!-- fxTransferFulfilmentDuplicateCheck&#45;&gt;fxTransfer -->
<g id="edge4" class="edge">
<title>fxTransferFulfilmentDuplicateCheck:commitRequestId&#45;&gt;fxTransfer:commitRequestId</title>
<path fill="none" stroke="black" d="M1291.97,-595.49C1347.55,-587.04 1303.59,-505.37 1333.53,-445.2 1365.34,-381.29 1351.92,-312 1423.31,-312"/>
<polygon fill="black" stroke="black" points="1292.04,-595.48 1281.75,-591.69 1286.72,-595.85 1282.4,-596.15 1282.4,-596.15 1282.4,-596.15 1286.72,-595.85 1282.38,-600.67 1292.04,-595.48"/>
<text text-anchor="start" x="1288.73" y="-606.2" font-family="Arial" font-size="10.00">FOREIGN KEY (commitRequestId) REFERENCES fxTransfer (commitRequestId)</text>
</g>
<!-- fxTransferParticipant -->
<g id="node6" class="node">
<title>fxTransferParticipant</title>
<polygon fill="#efefef" stroke="none" points="1385.32,-704 1385.32,-739.6 1677.74,-739.6 1677.74,-704 1385.32,-704"/>
<polygon fill="none" stroke="black" points="1385.32,-704 1385.32,-739.6 1677.74,-739.6 1677.74,-704 1385.32,-704"/>
<text text-anchor="start" x="1392.32" y="-717.4" font-family="Arial Bold" font-size="18.00">fxTransferParticipant</text>
<text text-anchor="start" x="1546.25" y="-717.4" font-family="Arial" font-size="14.00">    </text>
<text text-anchor="start" x="1577.37" y="-717.4" font-family="Arial" font-size="14.00" fill="#666666">[BASE TABLE]</text>
<polygon fill="none" stroke="black" points="1385.32,-673.2 1385.32,-704 1677.74,-704 1677.74,-673.2 1385.32,-673.2"/>
<text text-anchor="start" x="1392.32" y="-685.4" font-family="Arial" font-size="14.00">fxTransferParticipantId </text>
<text text-anchor="start" x="1537.04" y="-685.4" font-family="Arial" font-size="14.00" fill="#666666">[bigint unsigned]</text>
<polygon fill="none" stroke="black" points="1385.32,-642.4 1385.32,-673.2 1677.74,-673.2 1677.74,-642.4 1385.32,-642.4"/>
<text text-anchor="start" x="1392.32" y="-654.6" font-family="Arial" font-size="14.00">commitRequestId </text>
<text text-anchor="start" x="1505.14" y="-654.6" font-family="Arial" font-size="14.00" fill="#666666">[varchar(36)]</text>
<polygon fill="none" stroke="black" points="1385.32,-611.6 1385.32,-642.4 1677.74,-642.4 1677.74,-611.6 1385.32,-611.6"/>
<text text-anchor="start" x="1392.32" y="-623.8" font-family="Arial" font-size="14.00">participantCurrencyId </text>
<text text-anchor="start" x="1529.27" y="-623.8" font-family="Arial" font-size="14.00" fill="#666666">[int unsigned]</text>
<polygon fill="none" stroke="black" points="1385.32,-580.8 1385.32,-611.6 1677.74,-611.6 1677.74,-580.8 1385.32,-580.8"/>
<text text-anchor="start" x="1392.32" y="-593" font-family="Arial" font-size="14.00">transferParticipantRoleTypeId </text>
<text text-anchor="start" x="1581.41" y="-593" font-family="Arial" font-size="14.00" fill="#666666">[int unsigned]</text>
<polygon fill="none" stroke="black" points="1385.32,-550 1385.32,-580.8 1677.74,-580.8 1677.74,-550 1385.32,-550"/>
<text text-anchor="start" x="1392.32" y="-562.2" font-family="Arial" font-size="14.00">ledgerEntryTypeId </text>
<text text-anchor="start" x="1510.6" y="-562.2" font-family="Arial" font-size="14.00" fill="#666666">[int unsigned]</text>
<polygon fill="none" stroke="black" points="1385.32,-519.2 1385.32,-550 1677.74,-550 1677.74,-519.2 1385.32,-519.2"/>
<text text-anchor="start" x="1392.32" y="-531.4" font-family="Arial" font-size="14.00">fxParticipantCurrencyTypeId </text>
<text text-anchor="start" x="1572.84" y="-531.4" font-family="Arial" font-size="14.00" fill="#666666">[int unsigned]</text>
<polygon fill="none" stroke="black" points="1385.32,-488.4 1385.32,-519.2 1677.74,-519.2 1677.74,-488.4 1385.32,-488.4"/>
<text text-anchor="start" x="1392.32" y="-500.6" font-family="Arial" font-size="14.00">externalParticipantId </text>
<text text-anchor="start" x="1523.84" y="-500.6" font-family="Arial" font-size="14.00" fill="#666666">[bigint unsigned]</text>
</g>
<!-- fxTransferParticipant&#45;&gt;fxTransfer -->
<g id="edge5" class="edge">
<title>fxTransferParticipant:commitRequestId&#45;&gt;fxTransfer:commitRequestId</title>
<path fill="none" stroke="black" d="M1688.86,-655.59C1752.33,-626.14 1713.46,-312 1639.75,-312"/>
<polygon fill="black" stroke="black" points="1688.84,-655.6 1678.11,-653.33 1683.63,-656.73 1679.39,-657.66 1679.39,-657.66 1679.39,-657.66 1683.63,-656.73 1680.03,-662.13 1688.84,-655.6"/>
<text text-anchor="start" x="1309.99" y="-667.8" font-family="Arial" font-size="10.00">FOREIGN KEY (commitRequestId) REFERENCES fxTransfer (commitRequestId)</text>
</g>
<!-- fxTransferStateChange -->
<g id="node7" class="node">
<title>fxTransferStateChange</title>
<polygon fill="#efefef" stroke="none" points="1781.82,-642.4 1781.82,-678 2087.24,-678 2087.24,-642.4 1781.82,-642.4"/>
<polygon fill="none" stroke="black" points="1781.82,-642.4 1781.82,-678 2087.24,-678 2087.24,-642.4 1781.82,-642.4"/>
<text text-anchor="start" x="1788.82" y="-655.8" font-family="Arial Bold" font-size="18.00">fxTransferStateChange</text>
<text text-anchor="start" x="1955.75" y="-655.8" font-family="Arial" font-size="14.00">    </text>
<text text-anchor="start" x="1986.87" y="-655.8" font-family="Arial" font-size="14.00" fill="#666666">[BASE TABLE]</text>
<polygon fill="none" stroke="black" points="1781.82,-611.6 1781.82,-642.4 2087.24,-642.4 2087.24,-611.6 1781.82,-611.6"/>
<text text-anchor="start" x="1788.82" y="-623.8" font-family="Arial" font-size="14.00">fxTransferStateChangeId </text>
<text text-anchor="start" x="1949.13" y="-623.8" font-family="Arial" font-size="14.00" fill="#666666">[bigint unsigned]</text>
<polygon fill="none" stroke="black" points="1781.82,-580.8 1781.82,-611.6 2087.24,-611.6 2087.24,-580.8 1781.82,-580.8"/>
<text text-anchor="start" x="1788.82" y="-593" font-family="Arial" font-size="14.00">commitRequestId </text>
<text text-anchor="start" x="1901.64" y="-593" font-family="Arial" font-size="14.00" fill="#666666">[varchar(36)]</text>
<polygon fill="none" stroke="black" points="1781.82,-550 1781.82,-580.8 2087.24,-580.8 2087.24,-550 1781.82,-550"/>
<text text-anchor="start" x="1788.82" y="-562.2" font-family="Arial" font-size="14.00">transferStateId </text>
<text text-anchor="start" x="1884.54" y="-562.2" font-family="Arial" font-size="14.00" fill="#666666">[varchar(50)]</text>
</g>
<!-- fxTransferStateChange&#45;&gt;fxTransfer -->
<g id="edge6" class="edge">
<title>fxTransferStateChange:commitRequestId&#45;&gt;fxTransfer:commitRequestId</title>
<path fill="none" stroke="black" d="M1770.59,-595.49C1715.1,-587.04 1759.35,-505.35 1729.53,-445.2 1697.82,-381.24 1711.14,-312 1639.75,-312"/>
<polygon fill="black" stroke="black" points="1770.51,-595.48 1780.17,-600.67 1775.83,-595.85 1780.15,-596.15 1780.15,-596.15 1780.15,-596.15 1775.83,-595.85 1780.8,-591.69 1770.51,-595.48"/>
<text text-anchor="start" x="1506.01" y="-580.2" font-family="Arial" font-size="10.00">FOREIGN KEY (commitRequestId) REFERENCES fxTransfer (commitRequestId)</text>
</g>
<!-- fxTransferTimeout -->
<g id="node8" class="node">
<title>fxTransferTimeout</title>
<polygon fill="#efefef" stroke="none" points="2191.81,-627 2191.81,-662.6 2467.25,-662.6 2467.25,-627 2191.81,-627"/>
<polygon fill="none" stroke="black" points="2191.81,-627 2191.81,-662.6 2467.25,-662.6 2467.25,-627 2191.81,-627"/>
<text text-anchor="start" x="2198.81" y="-640.4" font-family="Arial Bold" font-size="18.00">fxTransferTimeout</text>
<text text-anchor="start" x="2335.76" y="-640.4" font-family="Arial" font-size="14.00">    </text>
<text text-anchor="start" x="2366.87" y="-640.4" font-family="Arial" font-size="14.00" fill="#666666">[BASE TABLE]</text>
<polygon fill="none" stroke="black" points="2191.81,-596.2 2191.81,-627 2467.25,-627 2467.25,-596.2 2191.81,-596.2"/>
<text text-anchor="start" x="2198.81" y="-608.4" font-family="Arial" font-size="14.00">fxTransferTimeoutId </text>
<text text-anchor="start" x="2327.97" y="-608.4" font-family="Arial" font-size="14.00" fill="#666666">[bigint unsigned]</text>
<polygon fill="none" stroke="black" points="2191.81,-565.4 2191.81,-596.2 2467.25,-596.2 2467.25,-565.4 2191.81,-565.4"/>
<text text-anchor="start" x="2198.81" y="-577.6" font-family="Arial" font-size="14.00">commitRequestId </text>
<text text-anchor="start" x="2311.63" y="-577.6" font-family="Arial" font-size="14.00" fill="#666666">[varchar(36)]</text>
</g>
<!-- fxTransferTimeout&#45;&gt;fxTransfer -->
<g id="edge7" class="edge">
<title>fxTransferTimeout:commitRequestId&#45;&gt;fxTransfer:commitRequestId</title>
<path fill="none" stroke="black" d="M2180.44,-579.82C2133.36,-569.79 2184.44,-485.78 2139.53,-445.2 2054.25,-368.14 1754.69,-312 1639.75,-312"/>
<polygon fill="black" stroke="black" points="2180.53,-579.82 2190.06,-585.25 2185.84,-580.33 2190.15,-580.74 2190.15,-580.74 2190.15,-580.74 2185.84,-580.33 2190.91,-576.29 2180.53,-579.82"/>
<text text-anchor="start" x="2197.81" y="-590.8" font-family="Arial" font-size="10.00">FOREIGN KEY (commitRequestId) REFERENCES fxTransfer (commitRequestId)</text>
</g>
<!-- fxWatchList -->
<g id="node9" class="node">
<title>fxWatchList</title>
<polygon fill="#efefef" stroke="none" points="2571.3,-642.4 2571.3,-678 2799.76,-678 2799.76,-642.4 2571.3,-642.4"/>
<polygon fill="none" stroke="black" points="2571.3,-642.4 2571.3,-678 2799.76,-678 2799.76,-642.4 2571.3,-642.4"/>
<text text-anchor="start" x="2578.3" y="-655.8" font-family="Arial Bold" font-size="18.00">fxWatchList</text>
<text text-anchor="start" x="2668.27" y="-655.8" font-family="Arial" font-size="14.00">    </text>
<text text-anchor="start" x="2699.39" y="-655.8" font-family="Arial" font-size="14.00" fill="#666666">[BASE TABLE]</text>
<polygon fill="none" stroke="black" points="2571.3,-611.6 2571.3,-642.4 2799.76,-642.4 2799.76,-611.6 2571.3,-611.6"/>
<text text-anchor="start" x="2578.3" y="-623.8" font-family="Arial" font-size="14.00">fxWatchListId </text>
<text text-anchor="start" x="2666.22" y="-623.8" font-family="Arial" font-size="14.00" fill="#666666">[bigint unsigned]</text>
<polygon fill="none" stroke="black" points="2571.3,-580.8 2571.3,-611.6 2799.76,-611.6 2799.76,-580.8 2571.3,-580.8"/>
<text text-anchor="start" x="2578.3" y="-593" font-family="Arial" font-size="14.00">commitRequestId </text>
<text text-anchor="start" x="2691.12" y="-593" font-family="Arial" font-size="14.00" fill="#666666">[varchar(36)]</text>
<polygon fill="none" stroke="black" points="2571.3,-550 2571.3,-580.8 2799.76,-580.8 2799.76,-550 2571.3,-550"/>
<text text-anchor="start" x="2578.3" y="-562.2" font-family="Arial" font-size="14.00">fxTransferTypeId </text>
<text text-anchor="start" x="2688.01" y="-562.2" font-family="Arial" font-size="14.00" fill="#666666">[int unsigned]</text>
</g>
<!-- fxWatchList&#45;&gt;fxTransfer -->
<g id="edge8" class="edge">
<title>fxWatchList:commitRequestId&#45;&gt;fxTransfer:commitRequestId</title>
<path fill="none" stroke="black" d="M2559.94,-595.28C2507.24,-584.84 2570.79,-488.23 2519.53,-445.2 2368.08,-318.07 1837.49,-312 1639.75,-312"/>
<polygon fill="black" stroke="black" points="2560.01,-595.29 2569.57,-600.65 2565.32,-595.76 2569.64,-596.14 2569.64,-596.14 2569.64,-596.14 2565.32,-595.76 2570.37,-591.69 2560.01,-595.29"/>
<text text-anchor="start" x="2577.3" y="-606.2" font-family="Arial" font-size="10.00">FOREIGN KEY (commitRequestId) REFERENCES fxTransfer (commitRequestId)</text>
</g>
</g>
</svg>
