<?xml version="1.0" encoding="UTF-8" standalone="no"?>
<!DOCTYPE svg PUBLIC "-//W3C//DTD SVG 1.1//EN"
 "http://www.w3.org/Graphics/SVG/1.1/DTD/svg11.dtd">
<!-- Generated by graphviz version 12.1.2 (20240928.0832)
 -->
<!-- Title: fxTransferDuplicateCheck Pages: 1 -->
<svg width="773pt" height="433pt"
 viewBox="0.00 0.00 773.40 432.62" xmlns="http://www.w3.org/2000/svg" xmlns:xlink="http://www.w3.org/1999/xlink">
<g id="graph0" class="graph" transform="scale(1 1) rotate(0) translate(4 428.62)">
<title>fxTransferDuplicateCheck</title>
<polygon fill="white" stroke="none" points="-4,4 -4,-428.62 769.4,-428.62 769.4,4 -4,4"/>
<!-- fxTransferDuplicateCheck -->
<g id="node1" class="node">
<title>fxTransferDuplicateCheck</title>
<polygon fill="#efefef" stroke="none" points="46.2,-92.42 46.2,-128.02 376.6,-128.02 376.6,-92.42 46.2,-92.42"/>
<polygon fill="none" stroke="black" points="46.2,-92.42 46.2,-128.02 376.6,-128.02 376.6,-92.42 46.2,-92.42"/>
<text text-anchor="start" x="53.2" y="-105.82" font-family="Arial Bold" font-size="18.00">fxTransferDuplicateCheck</text>
<text text-anchor="start" x="245.11" y="-105.82" font-family="Arial" font-size="14.00">    </text>
<text text-anchor="start" x="276.23" y="-105.82" font-family="Arial" font-size="14.00" fill="#666666">[BASE TABLE]</text>
<polygon fill="none" stroke="black" points="46.2,-61.62 46.2,-92.42 376.6,-92.42 376.6,-61.62 46.2,-61.62"/>
<text text-anchor="start" x="53.2" y="-73.82" font-family="Arial" font-size="14.00">commitRequestId </text>
<text text-anchor="start" x="166.02" y="-73.82" font-family="Arial" font-size="14.00" fill="#666666">[varchar(36)]</text>
<polygon fill="none" stroke="black" stroke-width="3" points="44.7,-60.12 44.7,-129.52 378.1,-129.52 378.1,-60.12 44.7,-60.12"/>
</g>
<!-- fxTransfer -->
<g id="node2" class="node">
<title>fxTransfer</title>
<polygon fill="#efefef" stroke="none" points="104.18,-345.82 104.18,-381.42 318.62,-381.42 318.62,-345.82 104.18,-345.82"/>
<polygon fill="none" stroke="black" points="104.18,-345.82 104.18,-381.42 318.62,-381.42 318.62,-345.82 104.18,-345.82"/>
<text text-anchor="start" x="111.18" y="-359.22" font-family="Arial Bold" font-size="18.00">fxTransfer</text>
<text text-anchor="start" x="187.13" y="-359.22" font-family="Arial" font-size="14.00">    </text>
<text text-anchor="start" x="218.25" y="-359.22" font-family="Arial" font-size="14.00" fill="#666666">[BASE TABLE]</text>
<polygon fill="none" stroke="black" points="104.18,-315.02 104.18,-345.82 318.62,-345.82 318.62,-315.02 104.18,-315.02"/>
<text text-anchor="start" x="111.18" y="-327.22" font-family="Arial" font-size="14.00">commitRequestId </text>
<text text-anchor="start" x="224" y="-327.22" font-family="Arial" font-size="14.00" fill="#666666">[varchar(36)]</text>
<polygon fill="none" stroke="black" points="104.18,-284.22 104.18,-315.02 318.62,-315.02 318.62,-284.22 104.18,-284.22"/>
<text text-anchor="start" x="111.18" y="-296.42" font-family="Arial" font-size="14.00">sourceCurrency </text>
<text text-anchor="start" x="213.88" y="-296.42" font-family="Arial" font-size="14.00" fill="#666666">[varchar(3)]</text>
<polygon fill="none" stroke="black" points="104.18,-253.42 104.18,-284.22 318.62,-284.22 318.62,-253.42 104.18,-253.42"/>
<text text-anchor="start" x="111.18" y="-265.62" font-family="Arial" font-size="14.00">targetCurrency </text>
<text text-anchor="start" x="207.66" y="-265.62" font-family="Arial" font-size="14.00" fill="#666666">[varchar(3)]</text>
</g>
<!-- fxTransfer&#45;&gt;fxTransferDuplicateCheck -->
<g id="edge1" class="edge">
<title>fxTransfer:commitRequestId&#45;&gt;fxTransferDuplicateCheck:commitRequestId</title>
<path fill="none" stroke="black" d="M329.89,-328.62C392.14,-307.35 465.55,-104.58 422.8,-61.62 356.52,4.97 211.4,33.33 211.4,-60.62"/>
<polygon fill="black" stroke="black" points="329.8,-328.63 319.17,-325.93 324.55,-329.56 320.28,-330.31 320.28,-330.31 320.28,-330.31 324.55,-329.56 320.73,-334.8 329.8,-328.63"/>
<text text-anchor="start" x="326.62" y="-340.42" font-family="Arial" font-size="10.00">FOREIGN KEY (commitRequestId) REFERENCES fxTransferDuplicateCheck (commitRequestId)</text>
</g>
</g>
</svg>
