<?xml version="1.0" encoding="UTF-8" standalone="no"?>
<!DOCTYPE svg PUBLIC "-//W3C//DTD SVG 1.1//EN"
 "http://www.w3.org/Graphics/SVG/1.1/DTD/svg11.dtd">
<!-- Generated by graphviz version 12.1.2 (20240928.0832)
 -->
<!-- Title: fxTransferStateChange Pages: 1 -->
<svg width="1091pt" height="1160pt"
 viewBox="0.00 0.00 1091.10 1160.40" xmlns="http://www.w3.org/2000/svg" xmlns:xlink="http://www.w3.org/1999/xlink">
<g id="graph0" class="graph" transform="scale(1 1) rotate(0) translate(4 1156.4)">
<title>fxTransferStateChange</title>
<polygon fill="white" stroke="none" points="-4,4 -4,-1156.4 1087.1,-1156.4 1087.1,4 -4,4"/>
<!-- fxTransferStateChange -->
<g id="node1" class="node">
<title>fxTransferStateChange</title>
<polygon fill="#efefef" stroke="none" points="413.12,-635.4 413.12,-671 718.54,-671 718.54,-635.4 413.12,-635.4"/>
<polygon fill="none" stroke="black" points="413.12,-635.4 413.12,-671 718.54,-671 718.54,-635.4 413.12,-635.4"/>
<text text-anchor="start" x="420.12" y="-648.8" font-family="Arial Bold" font-size="18.00">fxTransferStateChange</text>
<text text-anchor="start" x="587.05" y="-648.8" font-family="Arial" font-size="14.00">    </text>
<text text-anchor="start" x="618.17" y="-648.8" font-family="Arial" font-size="14.00" fill="#666666">[BASE TABLE]</text>
<polygon fill="none" stroke="black" points="413.12,-604.6 413.12,-635.4 718.54,-635.4 718.54,-604.6 413.12,-604.6"/>
<text text-anchor="start" x="420.12" y="-616.8" font-family="Arial" font-size="14.00">fxTransferStateChangeId </text>
<text text-anchor="start" x="580.43" y="-616.8" font-family="Arial" font-size="14.00" fill="#666666">[bigint unsigned]</text>
<polygon fill="none" stroke="black" points="413.12,-573.8 413.12,-604.6 718.54,-604.6 718.54,-573.8 413.12,-573.8"/>
<text text-anchor="start" x="420.12" y="-586" font-family="Arial" font-size="14.00">commitRequestId </text>
<text text-anchor="start" x="532.94" y="-586" font-family="Arial" font-size="14.00" fill="#666666">[varchar(36)]</text>
<polygon fill="none" stroke="black" points="413.12,-543 413.12,-573.8 718.54,-573.8 718.54,-543 413.12,-543"/>
<text text-anchor="start" x="420.12" y="-555.2" font-family="Arial" font-size="14.00">transferStateId </text>
<text text-anchor="start" x="515.84" y="-555.2" font-family="Arial" font-size="14.00" fill="#666666">[varchar(50)]</text>
<polygon fill="none" stroke="black" points="413.12,-512.2 413.12,-543 718.54,-543 718.54,-512.2 413.12,-512.2"/>
<text text-anchor="start" x="420.12" y="-524.4" font-family="Arial" font-size="14.00">reason </text>
<text text-anchor="start" x="466.82" y="-524.4" font-family="Arial" font-size="14.00" fill="#666666">[varchar(512)]</text>
<polygon fill="none" stroke="black" points="413.12,-481.4 413.12,-512.2 718.54,-512.2 718.54,-481.4 413.12,-481.4"/>
<text text-anchor="start" x="420.12" y="-493.6" font-family="Arial" font-size="14.00">createdDate </text>
<text text-anchor="start" x="500.28" y="-493.6" font-family="Arial" font-size="14.00" fill="#666666">[datetime]</text>
<polygon fill="none" stroke="black" stroke-width="3" points="411.62,-479.9 411.62,-672.5 720.04,-672.5 720.04,-479.9 411.62,-479.9"/>
</g>
<!-- fxTransfer -->
<g id="node4" class="node">
<title>fxTransfer</title>
<polygon fill="#efefef" stroke="none" points="280.73,-320.4 280.73,-356 514.93,-356 514.93,-320.4 280.73,-320.4"/>
<polygon fill="none" stroke="black" points="280.73,-320.4 280.73,-356 514.93,-356 514.93,-320.4 280.73,-320.4"/>
<text text-anchor="start" x="297.61" y="-333.8" font-family="Arial Bold" font-size="18.00">fxTransfer</text>
<text text-anchor="start" x="373.56" y="-333.8" font-family="Arial" font-size="14.00">    </text>
<text text-anchor="start" x="404.68" y="-333.8" font-family="Arial" font-size="14.00" fill="#666666">[BASE TABLE]</text>
<polygon fill="none" stroke="black" points="280.73,-289.6 280.73,-320.4 514.93,-320.4 514.93,-289.6 280.73,-289.6"/>
<text text-anchor="start" x="287.73" y="-301.8" font-family="Arial" font-size="14.00">commitRequestId </text>
<text text-anchor="start" x="400.55" y="-301.8" font-family="Arial" font-size="14.00" fill="#666666">[varchar(36)]</text>
<polygon fill="none" stroke="black" points="280.73,-258.8 280.73,-289.6 514.93,-289.6 514.93,-258.8 280.73,-258.8"/>
<text text-anchor="start" x="287.73" y="-271" font-family="Arial" font-size="14.00">determiningTransferId </text>
<text text-anchor="start" x="428.57" y="-271" font-family="Arial" font-size="14.00" fill="#666666">[varchar(36)]</text>
<polygon fill="none" stroke="black" points="280.73,-228 280.73,-258.8 514.93,-258.8 514.93,-228 280.73,-228"/>
<text text-anchor="start" x="287.73" y="-240.2" font-family="Arial" font-size="14.00">sourceAmount </text>
<text text-anchor="start" x="381.89" y="-240.2" font-family="Arial" font-size="14.00" fill="#666666">[decimal(18,4)]</text>
<polygon fill="none" stroke="black" points="280.73,-197.2 280.73,-228 514.93,-228 514.93,-197.2 280.73,-197.2"/>
<text text-anchor="start" x="287.73" y="-209.4" font-family="Arial" font-size="14.00">targetAmount </text>
<text text-anchor="start" x="375.67" y="-209.4" font-family="Arial" font-size="14.00" fill="#666666">[decimal(18,4)]</text>
<polygon fill="none" stroke="black" points="280.73,-166.4 280.73,-197.2 514.93,-197.2 514.93,-166.4 280.73,-166.4"/>
<text text-anchor="start" x="287.73" y="-178.6" font-family="Arial" font-size="14.00">sourceCurrency </text>
<text text-anchor="start" x="390.44" y="-178.6" font-family="Arial" font-size="14.00" fill="#666666">[varchar(3)]</text>
<polygon fill="none" stroke="black" points="280.73,-135.6 280.73,-166.4 514.93,-166.4 514.93,-135.6 280.73,-135.6"/>
<text text-anchor="start" x="287.73" y="-147.8" font-family="Arial" font-size="14.00">targetCurrency </text>
<text text-anchor="start" x="384.21" y="-147.8" font-family="Arial" font-size="14.00" fill="#666666">[varchar(3)]</text>
<polygon fill="none" stroke="black" points="280.73,-104.8 280.73,-135.6 514.93,-135.6 514.93,-104.8 280.73,-104.8"/>
<text text-anchor="start" x="287.73" y="-117" font-family="Arial" font-size="14.00">ilpCondition </text>
<text text-anchor="start" x="364.78" y="-117" font-family="Arial" font-size="14.00" fill="#666666">[varchar(256)]</text>
<polygon fill="none" stroke="black" points="280.73,-74 280.73,-104.8 514.93,-104.8 514.93,-74 280.73,-74"/>
<text text-anchor="start" x="287.73" y="-86.2" font-family="Arial" font-size="14.00">expirationDate </text>
<text text-anchor="start" x="381.9" y="-86.2" font-family="Arial" font-size="14.00" fill="#666666">[datetime]</text>
<polygon fill="none" stroke="black" points="280.73,-43.2 280.73,-74 514.93,-74 514.93,-43.2 280.73,-43.2"/>
<text text-anchor="start" x="287.73" y="-55.4" font-family="Arial" font-size="14.00">createdDate </text>
<text text-anchor="start" x="367.89" y="-55.4" font-family="Arial" font-size="14.00" fill="#666666">[datetime]</text>
</g>
<!-- fxTransferStateChange&#45;&gt;fxTransfer -->
<g id="edge3" class="edge">
<title>fxTransferStateChange:commitRequestId&#45;&gt;fxTransfer:commitRequestId</title>
<path fill="none" stroke="black" d="M401.76,-588.34C346.96,-578.58 375.6,-487.91 413.12,-435.2 440.96,-396.1 487.01,-438.24 514.93,-399.2 539.28,-365.14 557.8,-305 515.93,-305"/>
<polygon fill="black" stroke="black" points="401.82,-588.35 411.42,-593.66 407.14,-588.79 411.45,-589.14 411.45,-589.14 411.45,-589.14 407.14,-588.79 412.16,-584.69 401.82,-588.35"/>
<text text-anchor="start" x="43.37" y="-599.2" font-family="Arial" font-size="10.00">FOREIGN KEY (commitRequestId) REFERENCES fxTransfer (commitRequestId)</text>
</g>
<!-- transferState -->
<g id="node5" class="node">
<title>transferState</title>
<polygon fill="#efefef" stroke="none" points="619.11,-258.8 619.11,-294.4 848.56,-294.4 848.56,-258.8 619.11,-258.8"/>
<polygon fill="none" stroke="black" points="619.11,-258.8 619.11,-294.4 848.56,-294.4 848.56,-258.8 619.11,-258.8"/>
<text text-anchor="start" x="626.11" y="-272.2" font-family="Arial Bold" font-size="18.00">transferState</text>
<text text-anchor="start" x="717.07" y="-272.2" font-family="Arial" font-size="14.00">    </text>
<text text-anchor="start" x="748.18" y="-272.2" font-family="Arial" font-size="14.00" fill="#666666">[BASE TABLE]</text>
<polygon fill="none" stroke="black" points="619.11,-228 619.11,-258.8 848.56,-258.8 848.56,-228 619.11,-228"/>
<text text-anchor="start" x="626.11" y="-240.2" font-family="Arial" font-size="14.00">transferStateId </text>
<text text-anchor="start" x="721.82" y="-240.2" font-family="Arial" font-size="14.00" fill="#666666">[varchar(50)]</text>
<polygon fill="none" stroke="black" points="619.11,-197.2 619.11,-228 848.56,-228 848.56,-197.2 619.11,-197.2"/>
<text text-anchor="start" x="626.11" y="-209.4" font-family="Arial" font-size="14.00">enumeration </text>
<text text-anchor="start" x="707.82" y="-209.4" font-family="Arial" font-size="14.00" fill="#666666">[varchar(50)]</text>
<polygon fill="none" stroke="black" points="619.11,-166.4 619.11,-197.2 848.56,-197.2 848.56,-166.4 619.11,-166.4"/>
<text text-anchor="start" x="626.11" y="-178.6" font-family="Arial" font-size="14.00">description </text>
<text text-anchor="start" x="697.7" y="-178.6" font-family="Arial" font-size="14.00" fill="#666666">[varchar(512)]</text>
<polygon fill="none" stroke="black" points="619.11,-135.6 619.11,-166.4 848.56,-166.4 848.56,-135.6 619.11,-135.6"/>
<text text-anchor="start" x="626.11" y="-147.8" font-family="Arial" font-size="14.00">isActive </text>
<text text-anchor="start" x="678.23" y="-147.8" font-family="Arial" font-size="14.00" fill="#666666">[tinyint(1)]</text>
<polygon fill="none" stroke="black" points="619.11,-104.8 619.11,-135.6 848.56,-135.6 848.56,-104.8 619.11,-104.8"/>
<text text-anchor="start" x="626.11" y="-117" font-family="Arial" font-size="14.00">createdDate </text>
<text text-anchor="start" x="706.27" y="-117" font-family="Arial" font-size="14.00" fill="#666666">[datetime]</text>
</g>
<!-- fxTransferStateChange&#45;&gt;transferState -->
<g id="edge4" class="edge">
<title>fxTransferStateChange:transferStateId&#45;&gt;transferState:transferStateId</title>
<path fill="none" stroke="black" d="M729.81,-557.35C769.53,-548.27 738.43,-482.06 718.54,-435.2 694.35,-378.2 643.37,-394.57 619.11,-337.6 602.7,-299.08 576.24,-243.4 618.11,-243.4"/>
<polygon fill="black" stroke="black" points="729.82,-557.35 719.42,-553.89 724.52,-557.89 720.21,-558.33 720.21,-558.33 720.21,-558.33 724.52,-557.89 720.33,-562.84 729.82,-557.35"/>
<text text-anchor="start" x="726.54" y="-568.4" font-family="Arial" font-size="10.00">FOREIGN KEY (transferStateId) REFERENCES transferState (transferStateId)</text>
</g>
<!-- fxTransferError -->
<g id="node2" class="node">
<title>fxTransferError</title>
<polygon fill="#efefef" stroke="none" points="224.69,-1012 224.69,-1047.6 500.97,-1047.6 500.97,-1012 224.69,-1012"/>
<polygon fill="none" stroke="black" points="224.69,-1012 224.69,-1047.6 500.97,-1047.6 500.97,-1012 224.69,-1012"/>
<text text-anchor="start" x="243.62" y="-1025.4" font-family="Arial Bold" font-size="18.00">fxTransferError</text>
<text text-anchor="start" x="357.55" y="-1025.4" font-family="Arial" font-size="14.00">    </text>
<text text-anchor="start" x="388.67" y="-1025.4" font-family="Arial" font-size="14.00" fill="#666666">[BASE TABLE]</text>
<polygon fill="none" stroke="black" points="224.69,-981.2 224.69,-1012 500.97,-1012 500.97,-981.2 224.69,-981.2"/>
<text text-anchor="start" x="231.69" y="-993.4" font-family="Arial" font-size="14.00">commitRequestId </text>
<text text-anchor="start" x="344.51" y="-993.4" font-family="Arial" font-size="14.00" fill="#666666">[varchar(36)]</text>
<polygon fill="none" stroke="black" points="224.69,-950.4 224.69,-981.2 500.97,-981.2 500.97,-950.4 224.69,-950.4"/>
<text text-anchor="start" x="231.69" y="-962.6" font-family="Arial" font-size="14.00">fxTransferStateChangeId </text>
<text text-anchor="start" x="392" y="-962.6" font-family="Arial" font-size="14.00" fill="#666666">[bigint unsigned]</text>
<polygon fill="none" stroke="black" points="224.69,-919.6 224.69,-950.4 500.97,-950.4 500.97,-919.6 224.69,-919.6"/>
<text text-anchor="start" x="231.69" y="-931.8" font-family="Arial" font-size="14.00">errorCode </text>
<text text-anchor="start" x="298.61" y="-931.8" font-family="Arial" font-size="14.00" fill="#666666">[int unsigned]</text>
<polygon fill="none" stroke="black" points="224.69,-888.8 224.69,-919.6 500.97,-919.6 500.97,-888.8 224.69,-888.8"/>
<text text-anchor="start" x="231.69" y="-901" font-family="Arial" font-size="14.00">errorDescription </text>
<text text-anchor="start" x="335.17" y="-901" font-family="Arial" font-size="14.00" fill="#666666">[varchar(128)]</text>
<polygon fill="none" stroke="black" points="224.69,-858 224.69,-888.8 500.97,-888.8 500.97,-858 224.69,-858"/>
<text text-anchor="start" x="231.69" y="-870.2" font-family="Arial" font-size="14.00">createdDate </text>
<text text-anchor="start" x="311.85" y="-870.2" font-family="Arial" font-size="14.00" fill="#666666">[datetime]</text>
</g>
<!-- fxTransferError&#45;&gt;fxTransferStateChange -->
<g id="edge1" class="edge">
<title>fxTransferError:fxTransferStateChangeId&#45;&gt;fxTransferStateChange:fxTransferStateChangeId</title>
<path fill="none" stroke="black" d="M512.33,-964.97C564.18,-955.87 523.85,-873.83 500.97,-814.8 479.88,-760.38 434.31,-771.58 413.12,-717.2 397.44,-676.95 368.92,-620 412.12,-620"/>
<polygon fill="black" stroke="black" points="512.27,-964.97 501.94,-961.29 506.95,-965.4 502.64,-965.75 502.64,-965.75 502.64,-965.75 506.95,-965.4 502.66,-970.26 512.27,-964.97"/>
<text text-anchor="start" x="7" y="-975.8" font-family="Arial" font-size="10.00">FOREIGN KEY (fxTransferStateChangeId) REFERENCES fxTransferStateChange (fxTransferStateChangeId)</text>
</g>
<!-- participantPositionChange -->
<g id="node3" class="node">
<title>participantPositionChange</title>
<polygon fill="#efefef" stroke="none" points="605.1,-1073.6 605.1,-1109.2 934.56,-1109.2 934.56,-1073.6 605.1,-1073.6"/>
<polygon fill="none" stroke="black" points="605.1,-1073.6 605.1,-1109.2 934.56,-1109.2 934.56,-1073.6 605.1,-1073.6"/>
<text text-anchor="start" x="612.1" y="-1087" font-family="Arial Bold" font-size="18.00">participantPositionChange</text>
<text text-anchor="start" x="803.07" y="-1087" font-family="Arial" font-size="14.00">    </text>
<text text-anchor="start" x="834.19" y="-1087" font-family="Arial" font-size="14.00" fill="#666666">[BASE TABLE]</text>
<polygon fill="none" stroke="black" points="605.1,-1042.8 605.1,-1073.6 934.56,-1073.6 934.56,-1042.8 605.1,-1042.8"/>
<text text-anchor="start" x="612.1" y="-1055" font-family="Arial" font-size="14.00">participantPositionChangeId </text>
<text text-anchor="start" x="791.11" y="-1055" font-family="Arial" font-size="14.00" fill="#666666">[bigint unsigned]</text>
<polygon fill="none" stroke="black" points="605.1,-1012 605.1,-1042.8 934.56,-1042.8 934.56,-1012 605.1,-1012"/>
<text text-anchor="start" x="612.1" y="-1024.2" font-family="Arial" font-size="14.00">participantPositionId </text>
<text text-anchor="start" x="742.07" y="-1024.2" font-family="Arial" font-size="14.00" fill="#666666">[bigint unsigned]</text>
<polygon fill="none" stroke="black" points="605.1,-981.2 605.1,-1012 934.56,-1012 934.56,-981.2 605.1,-981.2"/>
<text text-anchor="start" x="612.1" y="-993.4" font-family="Arial" font-size="14.00">transferStateChangeId </text>
<text text-anchor="start" x="756.86" y="-993.4" font-family="Arial" font-size="14.00" fill="#666666">[bigint unsigned]</text>
<polygon fill="none" stroke="black" points="605.1,-950.4 605.1,-981.2 934.56,-981.2 934.56,-950.4 605.1,-950.4"/>
<text text-anchor="start" x="612.1" y="-962.6" font-family="Arial" font-size="14.00">value </text>
<text text-anchor="start" x="649.46" y="-962.6" font-family="Arial" font-size="14.00" fill="#666666">[decimal(18,4)]</text>
<polygon fill="none" stroke="black" points="605.1,-919.6 605.1,-950.4 934.56,-950.4 934.56,-919.6 605.1,-919.6"/>
<text text-anchor="start" x="612.1" y="-931.8" font-family="Arial" font-size="14.00">reservedValue </text>
<text text-anchor="start" x="706.27" y="-931.8" font-family="Arial" font-size="14.00" fill="#666666">[decimal(18,4)]</text>
<polygon fill="none" stroke="black" points="605.1,-888.8 605.1,-919.6 934.56,-919.6 934.56,-888.8 605.1,-888.8"/>
<text text-anchor="start" x="612.1" y="-901" font-family="Arial" font-size="14.00">createdDate </text>
<text text-anchor="start" x="692.26" y="-901" font-family="Arial" font-size="14.00" fill="#666666">[datetime]</text>
<polygon fill="none" stroke="black" points="605.1,-858 605.1,-888.8 934.56,-888.8 934.56,-858 605.1,-858"/>
<text text-anchor="start" x="612.1" y="-870.2" font-family="Arial" font-size="14.00">participantCurrencyId </text>
<text text-anchor="start" x="749.05" y="-870.2" font-family="Arial" font-size="14.00" fill="#666666">[int unsigned]</text>
<polygon fill="none" stroke="black" points="605.1,-827.2 605.1,-858 934.56,-858 934.56,-827.2 605.1,-827.2"/>
<text text-anchor="start" x="612.1" y="-839.4" font-family="Arial" font-size="14.00">change </text>
<text text-anchor="start" x="661.92" y="-839.4" font-family="Arial" font-size="14.00" fill="#666666">[decimal(18,4)]</text>
<polygon fill="none" stroke="black" points="605.1,-796.4 605.1,-827.2 934.56,-827.2 934.56,-796.4 605.1,-796.4"/>
<text text-anchor="start" x="612.1" y="-808.6" font-family="Arial" font-size="14.00">fxTransferStateChangeId </text>
<text text-anchor="start" x="772.41" y="-808.6" font-family="Arial" font-size="14.00" fill="#666666">[bigint unsigned]</text>
</g>
<!-- participantPositionChange&#45;&gt;fxTransferStateChange -->
<g id="edge2" class="edge">
<title>participantPositionChange:fxTransferStateChangeId&#45;&gt;fxTransferStateChange:fxTransferStateChangeId</title>
<path fill="none" stroke="black" d="M594.17,-809C581.93,-799.88 592.09,-770.66 605.1,-753.2 636.7,-710.78 687.08,-759.72 718.54,-717.2 744.23,-682.47 762.74,-620 719.54,-620"/>
<polygon fill="black" stroke="black" points="594.16,-808.99 602.56,-816.04 599.29,-810.44 603.46,-811.62 603.46,-811.62 603.46,-811.62 599.29,-810.44 605,-807.38 594.16,-808.99"/>
<text text-anchor="start" x="109.13" y="-795.8" font-family="Arial" font-size="10.00">FOREIGN KEY (fxTransferStateChangeId) REFERENCES fxTransferStateChange (fxTransferStateChangeId)</text>
</g>
</g>
</svg>
