<?xml version="1.0" encoding="UTF-8" standalone="no"?>
<!DOCTYPE svg PUBLIC "-//W3C//DTD SVG 1.1//EN"
 "http://www.w3.org/Graphics/SVG/1.1/DTD/svg11.dtd">
<!-- Generated by graphviz version 12.1.2 (20240928.0832)
 -->
<!-- Title: fxTransferType Pages: 1 -->
<svg width="585pt" height="421pt"
 viewBox="0.00 0.00 585.39 421.23" xmlns="http://www.w3.org/2000/svg" xmlns:xlink="http://www.w3.org/1999/xlink">
<g id="graph0" class="graph" transform="scale(1 1) rotate(0) translate(4 417.23)">
<title>fxTransferType</title>
<polygon fill="white" stroke="none" points="-4,4 -4,-417.23 581.39,-417.23 581.39,4 -4,4"/>
<!-- fxTransferType -->
<g id="node1" class="node">
<title>fxTransferType</title>
<polygon fill="#efefef" stroke="none" points="267.81,-81.03 267.81,-116.63 519.24,-116.63 519.24,-81.03 267.81,-81.03"/>
<polygon fill="none" stroke="black" points="267.81,-81.03 267.81,-116.63 519.24,-116.63 519.24,-81.03 267.81,-81.03"/>
<text text-anchor="start" x="274.81" y="-94.43" font-family="Arial Bold" font-size="18.00">fxTransferType</text>
<text text-anchor="start" x="387.75" y="-94.43" font-family="Arial" font-size="14.00">    </text>
<text text-anchor="start" x="418.87" y="-94.43" font-family="Arial" font-size="14.00" fill="#666666">[BASE TABLE]</text>
<polygon fill="none" stroke="black" points="267.81,-50.23 267.81,-81.03 519.24,-81.03 519.24,-50.23 267.81,-50.23"/>
<text text-anchor="start" x="274.81" y="-62.43" font-family="Arial" font-size="14.00">fxTransferTypeId </text>
<text text-anchor="start" x="384.52" y="-62.43" font-family="Arial" font-size="14.00" fill="#666666">[int unsigned]</text>
<polygon fill="none" stroke="black" stroke-width="3" points="266.31,-48.73 266.31,-118.13 520.74,-118.13 520.74,-48.73 266.31,-48.73"/>
</g>
<!-- fxWatchList -->
<g id="node2" class="node">
<title>fxWatchList</title>
<polygon fill="#efefef" stroke="none" points="279.3,-334.43 279.3,-370.03 507.75,-370.03 507.75,-334.43 279.3,-334.43"/>
<polygon fill="none" stroke="black" points="279.3,-334.43 279.3,-370.03 507.75,-370.03 507.75,-334.43 279.3,-334.43"/>
<text text-anchor="start" x="286.3" y="-347.83" font-family="Arial Bold" font-size="18.00">fxWatchList</text>
<text text-anchor="start" x="376.26" y="-347.83" font-family="Arial" font-size="14.00">    </text>
<text text-anchor="start" x="407.38" y="-347.83" font-family="Arial" font-size="14.00" fill="#666666">[BASE TABLE]</text>
<polygon fill="none" stroke="black" points="279.3,-303.63 279.3,-334.43 507.75,-334.43 507.75,-303.63 279.3,-303.63"/>
<text text-anchor="start" x="286.3" y="-315.83" font-family="Arial" font-size="14.00">fxWatchListId </text>
<text text-anchor="start" x="374.22" y="-315.83" font-family="Arial" font-size="14.00" fill="#666666">[bigint unsigned]</text>
<polygon fill="none" stroke="black" points="279.3,-272.83 279.3,-303.63 507.75,-303.63 507.75,-272.83 279.3,-272.83"/>
<text text-anchor="start" x="286.3" y="-285.03" font-family="Arial" font-size="14.00">commitRequestId </text>
<text text-anchor="start" x="399.12" y="-285.03" font-family="Arial" font-size="14.00" fill="#666666">[varchar(36)]</text>
<polygon fill="none" stroke="black" points="279.3,-242.03 279.3,-272.83 507.75,-272.83 507.75,-242.03 279.3,-242.03"/>
<text text-anchor="start" x="286.3" y="-254.23" font-family="Arial" font-size="14.00">fxTransferTypeId </text>
<text text-anchor="start" x="396" y="-254.23" font-family="Arial" font-size="14.00" fill="#666666">[int unsigned]</text>
</g>
<!-- fxWatchList&#45;&gt;fxTransferType -->
<g id="edge1" class="edge">
<title>fxWatchList:fxTransferTypeId&#45;&gt;fxTransferType:fxTransferTypeId</title>
<path fill="none" stroke="black" d="M394.27,-230.66C404.73,-163.65 522.05,-230.24 565.44,-162.83 578.98,-141.79 583.08,-67.97 565.44,-50.23 511.57,3.96 393.53,27.18 393.53,-49.23"/>
<polygon fill="black" stroke="black" points="394.27,-230.72 389.06,-240.37 393.89,-236.04 393.57,-240.36 393.57,-240.36 393.57,-240.36 393.89,-236.04 398.04,-241.02 394.27,-230.72"/>
<text text-anchor="start" x="7" y="-251.03" font-family="Arial" font-size="10.00">FOREIGN KEY (fxTransferTypeId) REFERENCES fxTransferType (fxTransferTypeId)</text>
</g>
</g>
</svg>
