<?xml version="1.0" encoding="UTF-8" standalone="no"?>
<!DOCTYPE svg PUBLIC "-//W3C//DTD SVG 1.1//EN"
 "http://www.w3.org/Graphics/SVG/1.1/DTD/svg11.dtd">
<!-- Generated by graphviz version 12.1.2 (20240928.0832)
 -->
<!-- Title: fxTransferFulfilment Pages: 1 -->
<svg width="1113pt" height="448pt"
 viewBox="0.00 0.00 1113.09 448.00" xmlns="http://www.w3.org/2000/svg" xmlns:xlink="http://www.w3.org/1999/xlink">
<g id="graph0" class="graph" transform="scale(1 1) rotate(0) translate(4 444)">
<title>fxTransferFulfilment</title>
<polygon fill="white" stroke="none" points="-4,4 -4,-444 1109.09,-444 1109.09,4 -4,4"/>
<!-- fxTransferFulfilment -->
<g id="node1" class="node">
<title>fxTransferFulfilment</title>
<polygon fill="#efefef" stroke="none" points="376.75,-358.2 376.75,-393.8 667.19,-393.8 667.19,-358.2 376.75,-358.2"/>
<polygon fill="none" stroke="black" points="376.75,-358.2 376.75,-393.8 667.19,-393.8 667.19,-358.2 376.75,-358.2"/>
<text text-anchor="start" x="383.75" y="-371.6" font-family="Arial Bold" font-size="18.00">fxTransferFulfilment</text>
<text text-anchor="start" x="535.7" y="-371.6" font-family="Arial" font-size="14.00">    </text>
<text text-anchor="start" x="566.82" y="-371.6" font-family="Arial" font-size="14.00" fill="#666666">[BASE TABLE]</text>
<polygon fill="none" stroke="black" points="376.75,-327.4 376.75,-358.2 667.19,-358.2 667.19,-327.4 376.75,-327.4"/>
<text text-anchor="start" x="383.75" y="-339.6" font-family="Arial" font-size="14.00">commitRequestId </text>
<text text-anchor="start" x="496.57" y="-339.6" font-family="Arial" font-size="14.00" fill="#666666">[varchar(36)]</text>
<polygon fill="none" stroke="black" points="376.75,-296.6 376.75,-327.4 667.19,-327.4 667.19,-296.6 376.75,-296.6"/>
<text text-anchor="start" x="383.75" y="-308.8" font-family="Arial" font-size="14.00">settlementWindowId </text>
<text text-anchor="start" x="513.69" y="-308.8" font-family="Arial" font-size="14.00" fill="#666666">[bigint unsigned]</text>
<polygon fill="none" stroke="black" stroke-width="3" points="375.25,-295.1 375.25,-395.3 668.69,-395.3 668.69,-295.1 375.25,-295.1"/>
</g>
<!-- fxTransfer -->
<g id="node2" class="node">
<title>fxTransfer</title>
<polygon fill="#efefef" stroke="none" points="240.75,-135.6 240.75,-171.2 455.19,-171.2 455.19,-135.6 240.75,-135.6"/>
<polygon fill="none" stroke="black" points="240.75,-135.6 240.75,-171.2 455.19,-171.2 455.19,-135.6 240.75,-135.6"/>
<text text-anchor="start" x="247.75" y="-149" font-family="Arial Bold" font-size="18.00">fxTransfer</text>
<text text-anchor="start" x="323.7" y="-149" font-family="Arial" font-size="14.00">    </text>
<text text-anchor="start" x="354.82" y="-149" font-family="Arial" font-size="14.00" fill="#666666">[BASE TABLE]</text>
<polygon fill="none" stroke="black" points="240.75,-104.8 240.75,-135.6 455.19,-135.6 455.19,-104.8 240.75,-104.8"/>
<text text-anchor="start" x="247.75" y="-117" font-family="Arial" font-size="14.00">commitRequestId </text>
<text text-anchor="start" x="360.57" y="-117" font-family="Arial" font-size="14.00" fill="#666666">[varchar(36)]</text>
<polygon fill="none" stroke="black" points="240.75,-74 240.75,-104.8 455.19,-104.8 455.19,-74 240.75,-74"/>
<text text-anchor="start" x="247.75" y="-86.2" font-family="Arial" font-size="14.00">sourceCurrency </text>
<text text-anchor="start" x="350.45" y="-86.2" font-family="Arial" font-size="14.00" fill="#666666">[varchar(3)]</text>
<polygon fill="none" stroke="black" points="240.75,-43.2 240.75,-74 455.19,-74 455.19,-43.2 240.75,-43.2"/>
<text text-anchor="start" x="247.75" y="-55.4" font-family="Arial" font-size="14.00">targetCurrency </text>
<text text-anchor="start" x="344.23" y="-55.4" font-family="Arial" font-size="14.00" fill="#666666">[varchar(3)]</text>
</g>
<!-- fxTransferFulfilment&#45;&gt;fxTransfer -->
<g id="edge1" class="edge">
<title>fxTransferFulfilment:commitRequestId&#45;&gt;fxTransfer:commitRequestId</title>
<path fill="none" stroke="black" d="M365.75,-341.34C338.4,-332.14 356.49,-281.62 376.75,-250.4 397.63,-218.22 434.31,-246.58 455.19,-214.4 477.98,-179.28 498.06,-120.2 456.19,-120.2"/>
<polygon fill="black" stroke="black" points="365.52,-341.31 374.77,-347.2 370.8,-342.08 375.09,-342.7 375.09,-342.7 375.09,-342.7 370.8,-342.08 376.07,-338.3 365.52,-341.31"/>
<text text-anchor="start" x="7" y="-352.8" font-family="Arial" font-size="10.00">FOREIGN KEY (commitRequestId) REFERENCES fxTransfer (commitRequestId)</text>
</g>
<!-- settlementWindow -->
<g id="node3" class="node">
<title>settlementWindow</title>
<polygon fill="#efefef" stroke="none" points="559.74,-120.2 559.74,-155.8 834.2,-155.8 834.2,-120.2 559.74,-120.2"/>
<polygon fill="none" stroke="black" points="559.74,-120.2 559.74,-155.8 834.2,-155.8 834.2,-120.2 559.74,-120.2"/>
<text text-anchor="start" x="566.74" y="-133.6" font-family="Arial Bold" font-size="18.00">settlementWindow</text>
<text text-anchor="start" x="702.71" y="-133.6" font-family="Arial" font-size="14.00">    </text>
<text text-anchor="start" x="733.83" y="-133.6" font-family="Arial" font-size="14.00" fill="#666666">[BASE TABLE]</text>
<polygon fill="none" stroke="black" points="559.74,-89.4 559.74,-120.2 834.2,-120.2 834.2,-89.4 559.74,-89.4"/>
<text text-anchor="start" x="566.74" y="-101.6" font-family="Arial" font-size="14.00">settlementWindowId </text>
<text text-anchor="start" x="696.69" y="-101.6" font-family="Arial" font-size="14.00" fill="#666666">[bigint unsigned]</text>
<polygon fill="none" stroke="black" points="559.74,-58.6 559.74,-89.4 834.2,-89.4 834.2,-58.6 559.74,-58.6"/>
<text text-anchor="start" x="566.74" y="-70.8" font-family="Arial" font-size="14.00">currentStateChangeId </text>
<text text-anchor="start" x="707.61" y="-70.8" font-family="Arial" font-size="14.00" fill="#666666">[bigint unsigned]</text>
</g>
<!-- fxTransferFulfilment&#45;&gt;settlementWindow -->
<g id="edge2" class="edge">
<title>fxTransferFulfilment:settlementWindowId&#45;&gt;settlementWindow:settlementWindowId</title>
<path fill="none" stroke="black" d="M678.18,-309.38C691.3,-300.33 679.67,-269.85 667.19,-250.4 638.61,-205.84 588.2,-243.64 559.74,-199 537.23,-163.7 516.87,-104.8 558.74,-104.8"/>
<polygon fill="black" stroke="black" points="678.19,-309.38 667.37,-307.56 673.03,-310.73 668.84,-311.83 668.84,-311.83 668.84,-311.83 673.03,-310.73 669.66,-316.27 678.19,-309.38"/>
<text text-anchor="start" x="675.19" y="-322" font-family="Arial" font-size="10.00">FOREIGN KEY (settlementWindowId) REFERENCES settlementWindow (settlementWindowId)</text>
</g>
</g>
</svg>
