<?xml version="1.0" encoding="UTF-8" standalone="no"?>
<!DOCTYPE svg PUBLIC "-//W3C//DTD SVG 1.1//EN"
 "http://www.w3.org/Graphics/SVG/1.1/DTD/svg11.dtd">
<!-- Generated by graphviz version 12.1.2 (20240928.0832)
 -->
<!-- Title: fxTransferFulfilment Pages: 1 -->
<svg width="1113pt" height="756pt"
 viewBox="0.00 0.00 1113.09 756.00" xmlns="http://www.w3.org/2000/svg" xmlns:xlink="http://www.w3.org/1999/xlink">
<g id="graph0" class="graph" transform="scale(1 1) rotate(0) translate(4 752)">
<title>fxTransferFulfilment</title>
<polygon fill="white" stroke="none" points="-4,4 -4,-752 1109.09,-752 1109.09,4 -4,4"/>
<!-- fxTransferFulfilment -->
<g id="node1" class="node">
<title>fxTransferFulfilment</title>
<polygon fill="#efefef" stroke="none" points="376.75,-666.2 376.75,-701.8 667.19,-701.8 667.19,-666.2 376.75,-666.2"/>
<polygon fill="none" stroke="black" points="376.75,-666.2 376.75,-701.8 667.19,-701.8 667.19,-666.2 376.75,-666.2"/>
<text text-anchor="start" x="383.75" y="-679.6" font-family="Arial Bold" font-size="18.00">fxTransferFulfilment</text>
<text text-anchor="start" x="535.7" y="-679.6" font-family="Arial" font-size="14.00">    </text>
<text text-anchor="start" x="566.82" y="-679.6" font-family="Arial" font-size="14.00" fill="#666666">[BASE TABLE]</text>
<polygon fill="none" stroke="black" points="376.75,-635.4 376.75,-666.2 667.19,-666.2 667.19,-635.4 376.75,-635.4"/>
<text text-anchor="start" x="383.75" y="-647.6" font-family="Arial" font-size="14.00">commitRequestId </text>
<text text-anchor="start" x="496.57" y="-647.6" font-family="Arial" font-size="14.00" fill="#666666">[varchar(36)]</text>
<polygon fill="none" stroke="black" points="376.75,-604.6 376.75,-635.4 667.19,-635.4 667.19,-604.6 376.75,-604.6"/>
<text text-anchor="start" x="383.75" y="-616.8" font-family="Arial" font-size="14.00">ilpFulfilment </text>
<text text-anchor="start" x="462.33" y="-616.8" font-family="Arial" font-size="14.00" fill="#666666">[varchar(256)]</text>
<polygon fill="none" stroke="black" points="376.75,-573.8 376.75,-604.6 667.19,-604.6 667.19,-573.8 376.75,-573.8"/>
<text text-anchor="start" x="383.75" y="-586" font-family="Arial" font-size="14.00">completedDate </text>
<text text-anchor="start" x="481.8" y="-586" font-family="Arial" font-size="14.00" fill="#666666">[datetime]</text>
<polygon fill="none" stroke="black" points="376.75,-543 376.75,-573.8 667.19,-573.8 667.19,-543 376.75,-543"/>
<text text-anchor="start" x="383.75" y="-555.2" font-family="Arial" font-size="14.00">isValid </text>
<text text-anchor="start" x="428.88" y="-555.2" font-family="Arial" font-size="14.00" fill="#666666">[tinyint(1)]</text>
<polygon fill="none" stroke="black" points="376.75,-512.2 376.75,-543 667.19,-543 667.19,-512.2 376.75,-512.2"/>
<text text-anchor="start" x="383.75" y="-524.4" font-family="Arial" font-size="14.00">settlementWindowId </text>
<text text-anchor="start" x="513.69" y="-524.4" font-family="Arial" font-size="14.00" fill="#666666">[bigint unsigned]</text>
<polygon fill="none" stroke="black" points="376.75,-481.4 376.75,-512.2 667.19,-512.2 667.19,-481.4 376.75,-481.4"/>
<text text-anchor="start" x="383.75" y="-493.6" font-family="Arial" font-size="14.00">createdDate </text>
<text text-anchor="start" x="463.91" y="-493.6" font-family="Arial" font-size="14.00" fill="#666666">[datetime]</text>
<polygon fill="none" stroke="black" stroke-width="3" points="375.25,-479.9 375.25,-703.3 668.69,-703.3 668.69,-479.9 375.25,-479.9"/>
</g>
<!-- fxTransfer -->
<g id="node2" class="node">
<title>fxTransfer</title>
<polygon fill="#efefef" stroke="none" points="225.87,-320.4 225.87,-356 460.07,-356 460.07,-320.4 225.87,-320.4"/>
<polygon fill="none" stroke="black" points="225.87,-320.4 225.87,-356 460.07,-356 460.07,-320.4 225.87,-320.4"/>
<text text-anchor="start" x="242.75" y="-333.8" font-family="Arial Bold" font-size="18.00">fxTransfer</text>
<text text-anchor="start" x="318.7" y="-333.8" font-family="Arial" font-size="14.00">    </text>
<text text-anchor="start" x="349.82" y="-333.8" font-family="Arial" font-size="14.00" fill="#666666">[BASE TABLE]</text>
<polygon fill="none" stroke="black" points="225.87,-289.6 225.87,-320.4 460.07,-320.4 460.07,-289.6 225.87,-289.6"/>
<text text-anchor="start" x="232.87" y="-301.8" font-family="Arial" font-size="14.00">commitRequestId </text>
<text text-anchor="start" x="345.69" y="-301.8" font-family="Arial" font-size="14.00" fill="#666666">[varchar(36)]</text>
<polygon fill="none" stroke="black" points="225.87,-258.8 225.87,-289.6 460.07,-289.6 460.07,-258.8 225.87,-258.8"/>
<text text-anchor="start" x="232.87" y="-271" font-family="Arial" font-size="14.00">determiningTransferId </text>
<text text-anchor="start" x="373.71" y="-271" font-family="Arial" font-size="14.00" fill="#666666">[varchar(36)]</text>
<polygon fill="none" stroke="black" points="225.87,-228 225.87,-258.8 460.07,-258.8 460.07,-228 225.87,-228"/>
<text text-anchor="start" x="232.87" y="-240.2" font-family="Arial" font-size="14.00">sourceAmount </text>
<text text-anchor="start" x="327.03" y="-240.2" font-family="Arial" font-size="14.00" fill="#666666">[decimal(18,4)]</text>
<polygon fill="none" stroke="black" points="225.87,-197.2 225.87,-228 460.07,-228 460.07,-197.2 225.87,-197.2"/>
<text text-anchor="start" x="232.87" y="-209.4" font-family="Arial" font-size="14.00">targetAmount </text>
<text text-anchor="start" x="320.81" y="-209.4" font-family="Arial" font-size="14.00" fill="#666666">[decimal(18,4)]</text>
<polygon fill="none" stroke="black" points="225.87,-166.4 225.87,-197.2 460.07,-197.2 460.07,-166.4 225.87,-166.4"/>
<text text-anchor="start" x="232.87" y="-178.6" font-family="Arial" font-size="14.00">sourceCurrency </text>
<text text-anchor="start" x="335.57" y="-178.6" font-family="Arial" font-size="14.00" fill="#666666">[varchar(3)]</text>
<polygon fill="none" stroke="black" points="225.87,-135.6 225.87,-166.4 460.07,-166.4 460.07,-135.6 225.87,-135.6"/>
<text text-anchor="start" x="232.87" y="-147.8" font-family="Arial" font-size="14.00">targetCurrency </text>
<text text-anchor="start" x="329.35" y="-147.8" font-family="Arial" font-size="14.00" fill="#666666">[varchar(3)]</text>
<polygon fill="none" stroke="black" points="225.87,-104.8 225.87,-135.6 460.07,-135.6 460.07,-104.8 225.87,-104.8"/>
<text text-anchor="start" x="232.87" y="-117" font-family="Arial" font-size="14.00">ilpCondition </text>
<text text-anchor="start" x="309.92" y="-117" font-family="Arial" font-size="14.00" fill="#666666">[varchar(256)]</text>
<polygon fill="none" stroke="black" points="225.87,-74 225.87,-104.8 460.07,-104.8 460.07,-74 225.87,-74"/>
<text text-anchor="start" x="232.87" y="-86.2" font-family="Arial" font-size="14.00">expirationDate </text>
<text text-anchor="start" x="327.04" y="-86.2" font-family="Arial" font-size="14.00" fill="#666666">[datetime]</text>
<polygon fill="none" stroke="black" points="225.87,-43.2 225.87,-74 460.07,-74 460.07,-43.2 225.87,-43.2"/>
<text text-anchor="start" x="232.87" y="-55.4" font-family="Arial" font-size="14.00">createdDate </text>
<text text-anchor="start" x="313.03" y="-55.4" font-family="Arial" font-size="14.00" fill="#666666">[datetime]</text>
</g>
<!-- fxTransferFulfilment&#45;&gt;fxTransfer -->
<g id="edge1" class="edge">
<title>fxTransferFulfilment:commitRequestId&#45;&gt;fxTransfer:commitRequestId</title>
<path fill="none" stroke="black" d="M365.4,-650.22C283.29,-640.55 325.94,-512.11 376.75,-435.2 398.98,-401.54 437.73,-432.79 460.07,-399.2 483.25,-364.33 502.94,-305 461.07,-305"/>
<polygon fill="black" stroke="black" points="365.43,-650.22 375.16,-655.27 370.76,-650.52 375.08,-650.76 375.08,-650.76 375.08,-650.76 370.76,-650.52 375.67,-646.29 365.43,-650.22"/>
<text text-anchor="start" x="7" y="-660.8" font-family="Arial" font-size="10.00">FOREIGN KEY (commitRequestId) REFERENCES fxTransfer (commitRequestId)</text>
</g>
<!-- settlementWindow -->
<g id="node3" class="node">
<title>settlementWindow</title>
<polygon fill="#efefef" stroke="none" points="564.74,-243.4 564.74,-279 839.2,-279 839.2,-243.4 564.74,-243.4"/>
<polygon fill="none" stroke="black" points="564.74,-243.4 564.74,-279 839.2,-279 839.2,-243.4 564.74,-243.4"/>
<text text-anchor="start" x="571.74" y="-256.8" font-family="Arial Bold" font-size="18.00">settlementWindow</text>
<text text-anchor="start" x="707.71" y="-256.8" font-family="Arial" font-size="14.00">    </text>
<text text-anchor="start" x="738.83" y="-256.8" font-family="Arial" font-size="14.00" fill="#666666">[BASE TABLE]</text>
<polygon fill="none" stroke="black" points="564.74,-212.6 564.74,-243.4 839.2,-243.4 839.2,-212.6 564.74,-212.6"/>
<text text-anchor="start" x="571.74" y="-224.8" font-family="Arial" font-size="14.00">settlementWindowId </text>
<text text-anchor="start" x="701.69" y="-224.8" font-family="Arial" font-size="14.00" fill="#666666">[bigint unsigned]</text>
<polygon fill="none" stroke="black" points="564.74,-181.8 564.74,-212.6 839.2,-212.6 839.2,-181.8 564.74,-181.8"/>
<text text-anchor="start" x="571.74" y="-194" font-family="Arial" font-size="14.00">reason </text>
<text text-anchor="start" x="618.44" y="-194" font-family="Arial" font-size="14.00" fill="#666666">[varchar(512)]</text>
<polygon fill="none" stroke="black" points="564.74,-151 564.74,-181.8 839.2,-181.8 839.2,-151 564.74,-151"/>
<text text-anchor="start" x="571.74" y="-163.2" font-family="Arial" font-size="14.00">createdDate </text>
<text text-anchor="start" x="651.9" y="-163.2" font-family="Arial" font-size="14.00" fill="#666666">[datetime]</text>
<polygon fill="none" stroke="black" points="564.74,-120.2 564.74,-151 839.2,-151 839.2,-120.2 564.74,-120.2"/>
<text text-anchor="start" x="571.74" y="-132.4" font-family="Arial" font-size="14.00">currentStateChangeId </text>
<text text-anchor="start" x="712.61" y="-132.4" font-family="Arial" font-size="14.00" fill="#666666">[bigint unsigned]</text>
</g>
<!-- fxTransferFulfilment&#45;&gt;settlementWindow -->
<g id="edge2" class="edge">
<title>fxTransferFulfilment:settlementWindowId&#45;&gt;settlementWindow:settlementWindowId</title>
<path fill="none" stroke="black" d="M678.35,-526.12C704.09,-517.17 680.72,-469.7 667.19,-435.2 642.45,-372.09 589.48,-385.32 564.74,-322.2 549.46,-283.22 521.87,-228 563.74,-228"/>
<polygon fill="black" stroke="black" points="678.42,-526.11 667.87,-523.1 673.14,-526.88 668.85,-527.5 668.85,-527.5 668.85,-527.5 673.14,-526.88 669.17,-532 678.42,-526.11"/>
<text text-anchor="start" x="675.19" y="-537.6" font-family="Arial" font-size="10.00">FOREIGN KEY (settlementWindowId) REFERENCES settlementWindow (settlementWindowId)</text>
</g>
</g>
</svg>
