<?xml version="1.0" encoding="UTF-8" standalone="no"?>
<!DOCTYPE svg PUBLIC "-//W3C//DTD SVG 1.1//EN"
 "http://www.w3.org/Graphics/SVG/1.1/DTD/svg11.dtd">
<!-- Generated by graphviz version 12.1.2 (20240928.0832)
 -->
<!-- Title: fxTransferParticipant Pages: 1 -->
<svg width="2346pt" height="879pt"
 viewBox="0.00 0.00 2345.71 879.20" xmlns="http://www.w3.org/2000/svg" xmlns:xlink="http://www.w3.org/1999/xlink">
<g id="graph0" class="graph" transform="scale(1 1) rotate(0) translate(4 875.2)">
<title>fxTransferParticipant</title>
<polygon fill="white" stroke="none" points="-4,4 -4,-875.2 2341.71,-875.2 2341.71,4 -4,4"/>
<!-- fxTransferParticipant -->
<g id="node1" class="node">
<title>fxTransferParticipant</title>
<polygon fill="#efefef" stroke="none" points="997.09,-789.4 997.09,-825 1289.51,-825 1289.51,-789.4 997.09,-789.4"/>
<polygon fill="none" stroke="black" points="997.09,-789.4 997.09,-825 1289.51,-825 1289.51,-789.4 997.09,-789.4"/>
<text text-anchor="start" x="1004.09" y="-802.8" font-family="Arial Bold" font-size="18.00">fxTransferParticipant</text>
<text text-anchor="start" x="1158.02" y="-802.8" font-family="Arial" font-size="14.00">    </text>
<text text-anchor="start" x="1189.14" y="-802.8" font-family="Arial" font-size="14.00" fill="#666666">[BASE TABLE]</text>
<polygon fill="none" stroke="black" points="997.09,-758.6 997.09,-789.4 1289.51,-789.4 1289.51,-758.6 997.09,-758.6"/>
<text text-anchor="start" x="1004.09" y="-770.8" font-family="Arial" font-size="14.00">fxTransferParticipantId </text>
<text text-anchor="start" x="1148.81" y="-770.8" font-family="Arial" font-size="14.00" fill="#666666">[bigint unsigned]</text>
<polygon fill="none" stroke="black" points="997.09,-727.8 997.09,-758.6 1289.51,-758.6 1289.51,-727.8 997.09,-727.8"/>
<text text-anchor="start" x="1004.09" y="-740" font-family="Arial" font-size="14.00">commitRequestId </text>
<text text-anchor="start" x="1116.91" y="-740" font-family="Arial" font-size="14.00" fill="#666666">[varchar(36)]</text>
<polygon fill="none" stroke="black" points="997.09,-697 997.09,-727.8 1289.51,-727.8 1289.51,-697 997.09,-697"/>
<text text-anchor="start" x="1004.09" y="-709.2" font-family="Arial" font-size="14.00">participantCurrencyId </text>
<text text-anchor="start" x="1141.04" y="-709.2" font-family="Arial" font-size="14.00" fill="#666666">[int unsigned]</text>
<polygon fill="none" stroke="black" points="997.09,-666.2 997.09,-697 1289.51,-697 1289.51,-666.2 997.09,-666.2"/>
<text text-anchor="start" x="1004.09" y="-678.4" font-family="Arial" font-size="14.00">transferParticipantRoleTypeId </text>
<text text-anchor="start" x="1193.18" y="-678.4" font-family="Arial" font-size="14.00" fill="#666666">[int unsigned]</text>
<polygon fill="none" stroke="black" points="997.09,-635.4 997.09,-666.2 1289.51,-666.2 1289.51,-635.4 997.09,-635.4"/>
<text text-anchor="start" x="1004.09" y="-647.6" font-family="Arial" font-size="14.00">ledgerEntryTypeId </text>
<text text-anchor="start" x="1122.37" y="-647.6" font-family="Arial" font-size="14.00" fill="#666666">[int unsigned]</text>
<polygon fill="none" stroke="black" points="997.09,-604.6 997.09,-635.4 1289.51,-635.4 1289.51,-604.6 997.09,-604.6"/>
<text text-anchor="start" x="1004.09" y="-616.8" font-family="Arial" font-size="14.00">fxParticipantCurrencyTypeId </text>
<text text-anchor="start" x="1184.61" y="-616.8" font-family="Arial" font-size="14.00" fill="#666666">[int unsigned]</text>
<polygon fill="none" stroke="black" points="997.09,-573.8 997.09,-604.6 1289.51,-604.6 1289.51,-573.8 997.09,-573.8"/>
<text text-anchor="start" x="1004.09" y="-586" font-family="Arial" font-size="14.00">amount </text>
<text text-anchor="start" x="1054.68" y="-586" font-family="Arial" font-size="14.00" fill="#666666">[decimal(18,4)]</text>
<polygon fill="none" stroke="black" points="997.09,-543 997.09,-573.8 1289.51,-573.8 1289.51,-543 997.09,-543"/>
<text text-anchor="start" x="1004.09" y="-555.2" font-family="Arial" font-size="14.00">createdDate </text>
<text text-anchor="start" x="1084.25" y="-555.2" font-family="Arial" font-size="14.00" fill="#666666">[datetime]</text>
<polygon fill="none" stroke="black" points="997.09,-512.2 997.09,-543 1289.51,-543 1289.51,-512.2 997.09,-512.2"/>
<text text-anchor="start" x="1004.09" y="-524.4" font-family="Arial" font-size="14.00">participantId </text>
<text text-anchor="start" x="1084.25" y="-524.4" font-family="Arial" font-size="14.00" fill="#666666">[int unsigned]</text>
<polygon fill="none" stroke="black" points="997.09,-481.4 997.09,-512.2 1289.51,-512.2 1289.51,-481.4 997.09,-481.4"/>
<text text-anchor="start" x="1004.09" y="-493.6" font-family="Arial" font-size="14.00">externalParticipantId </text>
<text text-anchor="start" x="1135.61" y="-493.6" font-family="Arial" font-size="14.00" fill="#666666">[bigint unsigned]</text>
<polygon fill="none" stroke="black" stroke-width="3" points="995.59,-479.9 995.59,-826.5 1291.01,-826.5 1291.01,-479.9 995.59,-479.9"/>
</g>
<!-- fxTransfer -->
<g id="node2" class="node">
<title>fxTransfer</title>
<polygon fill="#efefef" stroke="none" points="43.2,-320.4 43.2,-356 277.4,-356 277.4,-320.4 43.2,-320.4"/>
<polygon fill="none" stroke="black" points="43.2,-320.4 43.2,-356 277.4,-356 277.4,-320.4 43.2,-320.4"/>
<text text-anchor="start" x="60.08" y="-333.8" font-family="Arial Bold" font-size="18.00">fxTransfer</text>
<text text-anchor="start" x="136.03" y="-333.8" font-family="Arial" font-size="14.00">    </text>
<text text-anchor="start" x="167.15" y="-333.8" font-family="Arial" font-size="14.00" fill="#666666">[BASE TABLE]</text>
<polygon fill="none" stroke="black" points="43.2,-289.6 43.2,-320.4 277.4,-320.4 277.4,-289.6 43.2,-289.6"/>
<text text-anchor="start" x="50.2" y="-301.8" font-family="Arial" font-size="14.00">commitRequestId </text>
<text text-anchor="start" x="163.02" y="-301.8" font-family="Arial" font-size="14.00" fill="#666666">[varchar(36)]</text>
<polygon fill="none" stroke="black" points="43.2,-258.8 43.2,-289.6 277.4,-289.6 277.4,-258.8 43.2,-258.8"/>
<text text-anchor="start" x="50.2" y="-271" font-family="Arial" font-size="14.00">determiningTransferId </text>
<text text-anchor="start" x="191.04" y="-271" font-family="Arial" font-size="14.00" fill="#666666">[varchar(36)]</text>
<polygon fill="none" stroke="black" points="43.2,-228 43.2,-258.8 277.4,-258.8 277.4,-228 43.2,-228"/>
<text text-anchor="start" x="50.2" y="-240.2" font-family="Arial" font-size="14.00">sourceAmount </text>
<text text-anchor="start" x="144.36" y="-240.2" font-family="Arial" font-size="14.00" fill="#666666">[decimal(18,4)]</text>
<polygon fill="none" stroke="black" points="43.2,-197.2 43.2,-228 277.4,-228 277.4,-197.2 43.2,-197.2"/>
<text text-anchor="start" x="50.2" y="-209.4" font-family="Arial" font-size="14.00">targetAmount </text>
<text text-anchor="start" x="138.14" y="-209.4" font-family="Arial" font-size="14.00" fill="#666666">[decimal(18,4)]</text>
<polygon fill="none" stroke="black" points="43.2,-166.4 43.2,-197.2 277.4,-197.2 277.4,-166.4 43.2,-166.4"/>
<text text-anchor="start" x="50.2" y="-178.6" font-family="Arial" font-size="14.00">sourceCurrency </text>
<text text-anchor="start" x="152.9" y="-178.6" font-family="Arial" font-size="14.00" fill="#666666">[varchar(3)]</text>
<polygon fill="none" stroke="black" points="43.2,-135.6 43.2,-166.4 277.4,-166.4 277.4,-135.6 43.2,-135.6"/>
<text text-anchor="start" x="50.2" y="-147.8" font-family="Arial" font-size="14.00">targetCurrency </text>
<text text-anchor="start" x="146.68" y="-147.8" font-family="Arial" font-size="14.00" fill="#666666">[varchar(3)]</text>
<polygon fill="none" stroke="black" points="43.2,-104.8 43.2,-135.6 277.4,-135.6 277.4,-104.8 43.2,-104.8"/>
<text text-anchor="start" x="50.2" y="-117" font-family="Arial" font-size="14.00">ilpCondition </text>
<text text-anchor="start" x="127.25" y="-117" font-family="Arial" font-size="14.00" fill="#666666">[varchar(256)]</text>
<polygon fill="none" stroke="black" points="43.2,-74 43.2,-104.8 277.4,-104.8 277.4,-74 43.2,-74"/>
<text text-anchor="start" x="50.2" y="-86.2" font-family="Arial" font-size="14.00">expirationDate </text>
<text text-anchor="start" x="144.37" y="-86.2" font-family="Arial" font-size="14.00" fill="#666666">[datetime]</text>
<polygon fill="none" stroke="black" points="43.2,-43.2 43.2,-74 277.4,-74 277.4,-43.2 43.2,-43.2"/>
<text text-anchor="start" x="50.2" y="-55.4" font-family="Arial" font-size="14.00">createdDate </text>
<text text-anchor="start" x="130.36" y="-55.4" font-family="Arial" font-size="14.00" fill="#666666">[datetime]</text>
</g>
<!-- fxTransferParticipant&#45;&gt;fxTransfer -->
<g id="edge1" class="edge">
<title>fxTransferParticipant:commitRequestId&#45;&gt;fxTransfer:commitRequestId</title>
<path fill="none" stroke="black" d="M985.92,-743.16C661.07,-740.9 566.49,-629.17 330.3,-399.2 296.05,-365.85 326.2,-305 278.4,-305"/>
<polygon fill="black" stroke="black" points="985.75,-743.16 995.74,-747.7 991.09,-743.18 995.42,-743.2 995.42,-743.2 995.42,-743.2 991.09,-743.18 995.77,-738.7 985.75,-743.16"/>
<text text-anchor="start" x="627.34" y="-753.2" font-family="Arial" font-size="10.00">FOREIGN KEY (commitRequestId) REFERENCES fxTransfer (commitRequestId)</text>
</g>
<!-- participantCurrency -->
<g id="node3" class="node">
<title>participantCurrency</title>
<polygon fill="#efefef" stroke="none" points="382.09,-289.6 382.09,-325.2 664.51,-325.2 664.51,-289.6 382.09,-289.6"/>
<polygon fill="none" stroke="black" points="382.09,-289.6 382.09,-325.2 664.51,-325.2 664.51,-289.6 382.09,-289.6"/>
<text text-anchor="start" x="389.09" y="-303" font-family="Arial Bold" font-size="18.00">participantCurrency</text>
<text text-anchor="start" x="533.02" y="-303" font-family="Arial" font-size="14.00">    </text>
<text text-anchor="start" x="564.14" y="-303" font-family="Arial" font-size="14.00" fill="#666666">[BASE TABLE]</text>
<polygon fill="none" stroke="black" points="382.09,-258.8 382.09,-289.6 664.51,-289.6 664.51,-258.8 382.09,-258.8"/>
<text text-anchor="start" x="389.09" y="-271" font-family="Arial" font-size="14.00">participantCurrencyId </text>
<text text-anchor="start" x="526.04" y="-271" font-family="Arial" font-size="14.00" fill="#666666">[int unsigned]</text>
<polygon fill="none" stroke="black" points="382.09,-228 382.09,-258.8 664.51,-258.8 664.51,-228 382.09,-228"/>
<text text-anchor="start" x="389.09" y="-240.2" font-family="Arial" font-size="14.00">participantId </text>
<text text-anchor="start" x="469.24" y="-240.2" font-family="Arial" font-size="14.00" fill="#666666">[int unsigned]</text>
<polygon fill="none" stroke="black" points="382.09,-197.2 382.09,-228 664.51,-228 664.51,-197.2 382.09,-197.2"/>
<text text-anchor="start" x="389.09" y="-209.4" font-family="Arial" font-size="14.00">currencyId </text>
<text text-anchor="start" x="458.33" y="-209.4" font-family="Arial" font-size="14.00" fill="#666666">[varchar(3)]</text>
<polygon fill="none" stroke="black" points="382.09,-166.4 382.09,-197.2 664.51,-197.2 664.51,-166.4 382.09,-166.4"/>
<text text-anchor="start" x="389.09" y="-178.6" font-family="Arial" font-size="14.00">ledgerAccountTypeId </text>
<text text-anchor="start" x="525.28" y="-178.6" font-family="Arial" font-size="14.00" fill="#666666">[int unsigned]</text>
<polygon fill="none" stroke="black" points="382.09,-135.6 382.09,-166.4 664.51,-166.4 664.51,-135.6 382.09,-135.6"/>
<text text-anchor="start" x="389.09" y="-147.8" font-family="Arial" font-size="14.00">isActive </text>
<text text-anchor="start" x="441.21" y="-147.8" font-family="Arial" font-size="14.00" fill="#666666">[tinyint(1)]</text>
<polygon fill="none" stroke="black" points="382.09,-104.8 382.09,-135.6 664.51,-135.6 664.51,-104.8 382.09,-104.8"/>
<text text-anchor="start" x="389.09" y="-117" font-family="Arial" font-size="14.00">createdDate </text>
<text text-anchor="start" x="469.24" y="-117" font-family="Arial" font-size="14.00" fill="#666666">[datetime]</text>
<polygon fill="none" stroke="black" points="382.09,-74 382.09,-104.8 664.51,-104.8 664.51,-74 382.09,-74"/>
<text text-anchor="start" x="389.09" y="-86.2" font-family="Arial" font-size="14.00">createdBy </text>
<text text-anchor="start" x="456.01" y="-86.2" font-family="Arial" font-size="14.00" fill="#666666">[varchar(128)]</text>
</g>
<!-- fxTransferParticipant&#45;&gt;participantCurrency -->
<g id="edge2" class="edge">
<title>fxTransferParticipant:participantCurrencyId&#45;&gt;participantCurrency:participantCurrencyId</title>
<path fill="none" stroke="black" d="M985.65,-712.23C809.94,-706.48 814.41,-554.08 717.3,-399.2 685.35,-348.25 725.65,-274.2 665.51,-274.2"/>
<polygon fill="black" stroke="black" points="985.76,-712.23 995.68,-716.89 991.09,-712.32 995.42,-712.39 995.42,-712.39 995.42,-712.39 991.09,-712.32 995.83,-707.9 985.76,-712.23"/>
<text text-anchor="start" x="551.17" y="-722.4" font-family="Arial" font-size="10.00">FOREIGN KEY (participantCurrencyId) REFERENCES participantCurrency (participantCurrencyId)</text>
</g>
<!-- transferParticipantRoleType -->
<g id="node4" class="node">
<title>transferParticipantRoleType</title>
<polygon fill="#efefef" stroke="none" points="769.09,-258.8 769.09,-294.4 1111.51,-294.4 1111.51,-258.8 769.09,-258.8"/>
<polygon fill="none" stroke="black" points="769.09,-258.8 769.09,-294.4 1111.51,-294.4 1111.51,-258.8 769.09,-258.8"/>
<text text-anchor="start" x="776.09" y="-272.2" font-family="Arial Bold" font-size="18.00">transferParticipantRoleType</text>
<text text-anchor="start" x="980.02" y="-272.2" font-family="Arial" font-size="14.00">    </text>
<text text-anchor="start" x="1011.13" y="-272.2" font-family="Arial" font-size="14.00" fill="#666666">[BASE TABLE]</text>
<polygon fill="none" stroke="black" points="769.09,-228 769.09,-258.8 1111.51,-258.8 1111.51,-228 769.09,-228"/>
<text text-anchor="start" x="776.09" y="-240.2" font-family="Arial" font-size="14.00">transferParticipantRoleTypeId </text>
<text text-anchor="start" x="965.18" y="-240.2" font-family="Arial" font-size="14.00" fill="#666666">[int unsigned]</text>
<polygon fill="none" stroke="black" points="769.09,-197.2 769.09,-228 1111.51,-228 1111.51,-197.2 769.09,-197.2"/>
<text text-anchor="start" x="776.09" y="-209.4" font-family="Arial" font-size="14.00">name </text>
<text text-anchor="start" x="815" y="-209.4" font-family="Arial" font-size="14.00" fill="#666666">[varchar(50)]</text>
<polygon fill="none" stroke="black" points="769.09,-166.4 769.09,-197.2 1111.51,-197.2 1111.51,-166.4 769.09,-166.4"/>
<text text-anchor="start" x="776.09" y="-178.6" font-family="Arial" font-size="14.00">description </text>
<text text-anchor="start" x="847.69" y="-178.6" font-family="Arial" font-size="14.00" fill="#666666">[varchar(512)]</text>
<polygon fill="none" stroke="black" points="769.09,-135.6 769.09,-166.4 1111.51,-166.4 1111.51,-135.6 769.09,-135.6"/>
<text text-anchor="start" x="776.09" y="-147.8" font-family="Arial" font-size="14.00">isActive </text>
<text text-anchor="start" x="828.22" y="-147.8" font-family="Arial" font-size="14.00" fill="#666666">[tinyint(1)]</text>
<polygon fill="none" stroke="black" points="769.09,-104.8 769.09,-135.6 1111.51,-135.6 1111.51,-104.8 769.09,-104.8"/>
<text text-anchor="start" x="776.09" y="-117" font-family="Arial" font-size="14.00">createdDate </text>
<text text-anchor="start" x="856.25" y="-117" font-family="Arial" font-size="14.00" fill="#666666">[datetime]</text>
</g>
<!-- fxTransferParticipant&#45;&gt;transferParticipantRoleType -->
<g id="edge3" class="edge">
<title>fxTransferParticipant:transferParticipantRoleTypeId&#45;&gt;transferParticipantRoleType:transferParticipantRoleTypeId</title>
<path fill="none" stroke="black" d="M985.75,-681.12C890.84,-671.89 952.54,-531.25 997.09,-435.2 1025.21,-374.57 1083.18,-398.14 1111.51,-337.6 1129.25,-299.68 1154.38,-243.4 1112.51,-243.4"/>
<polygon fill="black" stroke="black" points="985.77,-681.12 995.55,-686.08 991.09,-681.37 995.42,-681.57 995.42,-681.57 995.42,-681.57 991.09,-681.37 995.96,-677.09 985.77,-681.12"/>
<text text-anchor="start" x="439.45" y="-691.6" font-family="Arial" font-size="10.00">FOREIGN KEY (transferParticipantRoleTypeId) REFERENCES transferParticipantRoleType (transferParticipantRoleTypeId)</text>
</g>
<!-- ledgerEntryType -->
<g id="node5" class="node">
<title>ledgerEntryType</title>
<polygon fill="#efefef" stroke="none" points="1216.08,-274.2 1216.08,-309.8 1476.52,-309.8 1476.52,-274.2 1216.08,-274.2"/>
<polygon fill="none" stroke="black" points="1216.08,-274.2 1216.08,-309.8 1476.52,-309.8 1476.52,-274.2 1216.08,-274.2"/>
<text text-anchor="start" x="1223.08" y="-287.6" font-family="Arial Bold" font-size="18.00">ledgerEntryType</text>
<text text-anchor="start" x="1345.03" y="-287.6" font-family="Arial" font-size="14.00">    </text>
<text text-anchor="start" x="1376.15" y="-287.6" font-family="Arial" font-size="14.00" fill="#666666">[BASE TABLE]</text>
<polygon fill="none" stroke="black" points="1216.08,-243.4 1216.08,-274.2 1476.52,-274.2 1476.52,-243.4 1216.08,-243.4"/>
<text text-anchor="start" x="1223.08" y="-255.6" font-family="Arial" font-size="14.00">ledgerEntryTypeId </text>
<text text-anchor="start" x="1341.36" y="-255.6" font-family="Arial" font-size="14.00" fill="#666666">[int unsigned]</text>
<polygon fill="none" stroke="black" points="1216.08,-212.6 1216.08,-243.4 1476.52,-243.4 1476.52,-212.6 1216.08,-212.6"/>
<text text-anchor="start" x="1223.08" y="-224.8" font-family="Arial" font-size="14.00">name </text>
<text text-anchor="start" x="1261.99" y="-224.8" font-family="Arial" font-size="14.00" fill="#666666">[varchar(50)]</text>
<polygon fill="none" stroke="black" points="1216.08,-181.8 1216.08,-212.6 1476.52,-212.6 1476.52,-181.8 1216.08,-181.8"/>
<text text-anchor="start" x="1223.08" y="-194" font-family="Arial" font-size="14.00">description </text>
<text text-anchor="start" x="1294.67" y="-194" font-family="Arial" font-size="14.00" fill="#666666">[varchar(512)]</text>
<polygon fill="none" stroke="black" points="1216.08,-151 1216.08,-181.8 1476.52,-181.8 1476.52,-151 1216.08,-151"/>
<text text-anchor="start" x="1223.08" y="-163.2" font-family="Arial" font-size="14.00">isActive </text>
<text text-anchor="start" x="1275.2" y="-163.2" font-family="Arial" font-size="14.00" fill="#666666">[tinyint(1)]</text>
<polygon fill="none" stroke="black" points="1216.08,-120.2 1216.08,-151 1476.52,-151 1476.52,-120.2 1216.08,-120.2"/>
<text text-anchor="start" x="1223.08" y="-132.4" font-family="Arial" font-size="14.00">createdDate </text>
<text text-anchor="start" x="1303.24" y="-132.4" font-family="Arial" font-size="14.00" fill="#666666">[datetime]</text>
<polygon fill="none" stroke="black" points="1216.08,-89.4 1216.08,-120.2 1476.52,-120.2 1476.52,-89.4 1216.08,-89.4"/>
<text text-anchor="start" x="1223.08" y="-101.6" font-family="Arial" font-size="14.00">ledgerAccountTypeId </text>
<text text-anchor="start" x="1359.27" y="-101.6" font-family="Arial" font-size="14.00" fill="#666666">[int unsigned]</text>
</g>
<!-- fxTransferParticipant&#45;&gt;ledgerEntryType -->
<g id="edge4" class="edge">
<title>fxTransferParticipant:ledgerEntryTypeId&#45;&gt;ledgerEntryType:ledgerEntryTypeId</title>
<path fill="none" stroke="black" d="M1300.53,-650.29C1381.74,-641.49 1322.61,-521.33 1289.51,-435.2 1271.94,-389.47 1233.79,-398.67 1216.08,-353 1200.95,-313.96 1173.21,-258.8 1215.08,-258.8"/>
<polygon fill="black" stroke="black" points="1300.83,-650.27 1290.61,-646.29 1295.5,-650.54 1291.18,-650.77 1291.18,-650.77 1291.18,-650.77 1295.5,-650.54 1291.07,-655.28 1300.83,-650.27"/>
<text text-anchor="start" x="1297.51" y="-660.8" font-family="Arial" font-size="10.00">FOREIGN KEY (ledgerEntryTypeId) REFERENCES ledgerEntryType (ledgerEntryTypeId)</text>
</g>
<!-- fxParticipantCurrencyType -->
<g id="node6" class="node">
<title>fxParticipantCurrencyType</title>
<polygon fill="#efefef" stroke="none" points="1580.59,-243.4 1580.59,-279 1916.01,-279 1916.01,-243.4 1580.59,-243.4"/>
<polygon fill="none" stroke="black" points="1580.59,-243.4 1580.59,-279 1916.01,-279 1916.01,-243.4 1580.59,-243.4"/>
<text text-anchor="start" x="1587.59" y="-256.8" font-family="Arial Bold" font-size="18.00">fxParticipantCurrencyType</text>
<text text-anchor="start" x="1784.52" y="-256.8" font-family="Arial" font-size="14.00">    </text>
<text text-anchor="start" x="1815.64" y="-256.8" font-family="Arial" font-size="14.00" fill="#666666">[BASE TABLE]</text>
<polygon fill="none" stroke="black" points="1580.59,-212.6 1580.59,-243.4 1916.01,-243.4 1916.01,-212.6 1580.59,-212.6"/>
<text text-anchor="start" x="1587.59" y="-224.8" font-family="Arial" font-size="14.00">fxParticipantCurrencyTypeId </text>
<text text-anchor="start" x="1768.11" y="-224.8" font-family="Arial" font-size="14.00" fill="#666666">[int unsigned]</text>
<polygon fill="none" stroke="black" points="1580.59,-181.8 1580.59,-212.6 1916.01,-212.6 1916.01,-181.8 1580.59,-181.8"/>
<text text-anchor="start" x="1587.59" y="-194" font-family="Arial" font-size="14.00">name </text>
<text text-anchor="start" x="1626.5" y="-194" font-family="Arial" font-size="14.00" fill="#666666">[varchar(50)]</text>
<polygon fill="none" stroke="black" points="1580.59,-151 1580.59,-181.8 1916.01,-181.8 1916.01,-151 1580.59,-151"/>
<text text-anchor="start" x="1587.59" y="-163.2" font-family="Arial" font-size="14.00">description </text>
<text text-anchor="start" x="1659.18" y="-163.2" font-family="Arial" font-size="14.00" fill="#666666">[varchar(512)]</text>
<polygon fill="none" stroke="black" points="1580.59,-120.2 1580.59,-151 1916.01,-151 1916.01,-120.2 1580.59,-120.2"/>
<text text-anchor="start" x="1587.59" y="-132.4" font-family="Arial" font-size="14.00">createdDate </text>
<text text-anchor="start" x="1667.75" y="-132.4" font-family="Arial" font-size="14.00" fill="#666666">[datetime]</text>
</g>
<!-- fxTransferParticipant&#45;&gt;fxParticipantCurrencyType -->
<g id="edge5" class="edge">
<title>fxTransferParticipant:fxParticipantCurrencyTypeId&#45;&gt;fxParticipantCurrencyType:fxParticipantCurrencyTypeId</title>
<path fill="none" stroke="black" d="M1300.85,-619.83C1435.61,-615.18 1453.95,-518.65 1528.3,-399.2 1570.27,-331.77 1500.16,-228 1579.59,-228"/>
<polygon fill="black" stroke="black" points="1300.84,-619.83 1290.77,-615.49 1295.51,-619.92 1291.18,-619.99 1291.18,-619.99 1291.18,-619.99 1295.51,-619.92 1290.92,-624.49 1300.84,-619.83"/>
<text text-anchor="start" x="1297.51" y="-630" font-family="Arial" font-size="10.00">FOREIGN KEY (fxParticipantCurrencyTypeId) REFERENCES fxParticipantCurrencyType (fxParticipantCurrencyTypeId)</text>
</g>
<!-- externalParticipant -->
<g id="node7" class="node">
<title>externalParticipant</title>
<polygon fill="#efefef" stroke="none" points="2020.08,-243.4 2020.08,-279 2294.51,-279 2294.51,-243.4 2020.08,-243.4"/>
<polygon fill="none" stroke="black" points="2020.08,-243.4 2020.08,-279 2294.51,-279 2294.51,-243.4 2020.08,-243.4"/>
<text text-anchor="start" x="2027.08" y="-256.8" font-family="Arial Bold" font-size="18.00">externalParticipant</text>
<text text-anchor="start" x="2163.03" y="-256.8" font-family="Arial" font-size="14.00">    </text>
<text text-anchor="start" x="2194.14" y="-256.8" font-family="Arial" font-size="14.00" fill="#666666">[BASE TABLE]</text>
<polygon fill="none" stroke="black" points="2020.08,-212.6 2020.08,-243.4 2294.51,-243.4 2294.51,-212.6 2020.08,-212.6"/>
<text text-anchor="start" x="2027.08" y="-224.8" font-family="Arial" font-size="14.00">externalParticipantId </text>
<text text-anchor="start" x="2158.6" y="-224.8" font-family="Arial" font-size="14.00" fill="#666666">[bigint unsigned]</text>
<polygon fill="none" stroke="black" points="2020.08,-181.8 2020.08,-212.6 2294.51,-212.6 2294.51,-181.8 2020.08,-181.8"/>
<text text-anchor="start" x="2027.08" y="-194" font-family="Arial" font-size="14.00">name </text>
<text text-anchor="start" x="2065.99" y="-194" font-family="Arial" font-size="14.00" fill="#666666">[varchar(30)]</text>
<polygon fill="none" stroke="black" points="2020.08,-151 2020.08,-181.8 2294.51,-181.8 2294.51,-151 2020.08,-151"/>
<text text-anchor="start" x="2027.08" y="-163.2" font-family="Arial" font-size="14.00">createdDate </text>
<text text-anchor="start" x="2107.24" y="-163.2" font-family="Arial" font-size="14.00" fill="#666666">[datetime]</text>
<polygon fill="none" stroke="black" points="2020.08,-120.2 2020.08,-151 2294.51,-151 2294.51,-120.2 2020.08,-120.2"/>
<text text-anchor="start" x="2027.08" y="-132.4" font-family="Arial" font-size="14.00">proxyId </text>
<text text-anchor="start" x="2076.88" y="-132.4" font-family="Arial" font-size="14.00" fill="#666666">[int unsigned]</text>
</g>
<!-- fxTransferParticipant&#45;&gt;externalParticipant -->
<g id="edge6" class="edge">
<title>fxTransferParticipant:externalParticipantId&#45;&gt;externalParticipant:externalParticipantId</title>
<path fill="none" stroke="black" d="M1300.87,-496.6C1406.31,-493.25 1912.87,-447.11 1968.3,-399.2 2028.35,-347.3 1939.72,-228 2019.08,-228"/>
<polygon fill="black" stroke="black" points="1300.84,-496.61 1290.76,-492.29 1295.51,-496.71 1291.18,-496.79 1291.18,-496.79 1291.18,-496.79 1295.51,-496.71 1290.93,-501.29 1300.84,-496.61"/>
<text text-anchor="start" x="1297.51" y="-506.8" font-family="Arial" font-size="10.00">FOREIGN KEY (externalParticipantId) REFERENCES externalParticipant (externalParticipantId)</text>
</g>
</g>
</svg>
