<?xml version="1.0" encoding="UTF-8" standalone="no"?>
<!DOCTYPE svg PUBLIC "-//W3C//DTD SVG 1.1//EN"
 "http://www.w3.org/Graphics/SVG/1.1/DTD/svg11.dtd">
<!-- Generated by graphviz version 12.1.2 (20240928.0832)
 -->
<!-- Title: fxTransferStateChange Pages: 1 -->
<svg width="1091pt" height="791pt"
 viewBox="0.00 0.00 1091.10 790.80" xmlns="http://www.w3.org/2000/svg" xmlns:xlink="http://www.w3.org/1999/xlink">
<g id="graph0" class="graph" transform="scale(1 1) rotate(0) translate(4 786.8)">
<title>fxTransferStateChange</title>
<polygon fill="white" stroke="none" points="-4,4 -4,-786.8 1087.1,-786.8 1087.1,4 -4,4"/>
<!-- fxTransferStateChange -->
<g id="node1" class="node">
<title>fxTransferStateChange</title>
<polygon fill="#efefef" stroke="none" points="413.12,-389 413.12,-424.6 718.54,-424.6 718.54,-389 413.12,-389"/>
<polygon fill="none" stroke="black" points="413.12,-389 413.12,-424.6 718.54,-424.6 718.54,-389 413.12,-389"/>
<text text-anchor="start" x="420.12" y="-402.4" font-family="Arial Bold" font-size="18.00">fxTransferStateChange</text>
<text text-anchor="start" x="587.05" y="-402.4" font-family="Arial" font-size="14.00">    </text>
<text text-anchor="start" x="618.17" y="-402.4" font-family="Arial" font-size="14.00" fill="#666666">[BASE TABLE]</text>
<polygon fill="none" stroke="black" points="413.12,-358.2 413.12,-389 718.54,-389 718.54,-358.2 413.12,-358.2"/>
<text text-anchor="start" x="420.12" y="-370.4" font-family="Arial" font-size="14.00">fxTransferStateChangeId </text>
<text text-anchor="start" x="580.43" y="-370.4" font-family="Arial" font-size="14.00" fill="#666666">[bigint unsigned]</text>
<polygon fill="none" stroke="black" points="413.12,-327.4 413.12,-358.2 718.54,-358.2 718.54,-327.4 413.12,-327.4"/>
<text text-anchor="start" x="420.12" y="-339.6" font-family="Arial" font-size="14.00">commitRequestId </text>
<text text-anchor="start" x="532.94" y="-339.6" font-family="Arial" font-size="14.00" fill="#666666">[varchar(36)]</text>
<polygon fill="none" stroke="black" points="413.12,-296.6 413.12,-327.4 718.54,-327.4 718.54,-296.6 413.12,-296.6"/>
<text text-anchor="start" x="420.12" y="-308.8" font-family="Arial" font-size="14.00">transferStateId </text>
<text text-anchor="start" x="515.84" y="-308.8" font-family="Arial" font-size="14.00" fill="#666666">[varchar(50)]</text>
<polygon fill="none" stroke="black" stroke-width="3" points="411.62,-295.1 411.62,-426.1 720.04,-426.1 720.04,-295.1 411.62,-295.1"/>
</g>
<!-- fxTransfer -->
<g id="node4" class="node">
<title>fxTransfer</title>
<polygon fill="#efefef" stroke="none" points="295.61,-135.6 295.61,-171.2 510.05,-171.2 510.05,-135.6 295.61,-135.6"/>
<polygon fill="none" stroke="black" points="295.61,-135.6 295.61,-171.2 510.05,-171.2 510.05,-135.6 295.61,-135.6"/>
<text text-anchor="start" x="302.61" y="-149" font-family="Arial Bold" font-size="18.00">fxTransfer</text>
<text text-anchor="start" x="378.56" y="-149" font-family="Arial" font-size="14.00">    </text>
<text text-anchor="start" x="409.68" y="-149" font-family="Arial" font-size="14.00" fill="#666666">[BASE TABLE]</text>
<polygon fill="none" stroke="black" points="295.61,-104.8 295.61,-135.6 510.05,-135.6 510.05,-104.8 295.61,-104.8"/>
<text text-anchor="start" x="302.61" y="-117" font-family="Arial" font-size="14.00">commitRequestId </text>
<text text-anchor="start" x="415.43" y="-117" font-family="Arial" font-size="14.00" fill="#666666">[varchar(36)]</text>
<polygon fill="none" stroke="black" points="295.61,-74 295.61,-104.8 510.05,-104.8 510.05,-74 295.61,-74"/>
<text text-anchor="start" x="302.61" y="-86.2" font-family="Arial" font-size="14.00">sourceCurrency </text>
<text text-anchor="start" x="405.31" y="-86.2" font-family="Arial" font-size="14.00" fill="#666666">[varchar(3)]</text>
<polygon fill="none" stroke="black" points="295.61,-43.2 295.61,-74 510.05,-74 510.05,-43.2 295.61,-43.2"/>
<text text-anchor="start" x="302.61" y="-55.4" font-family="Arial" font-size="14.00">targetCurrency </text>
<text text-anchor="start" x="399.09" y="-55.4" font-family="Arial" font-size="14.00" fill="#666666">[varchar(3)]</text>
</g>
<!-- fxTransferStateChange&#45;&gt;fxTransfer -->
<g id="edge3" class="edge">
<title>fxTransferStateChange:commitRequestId&#45;&gt;fxTransfer:commitRequestId</title>
<path fill="none" stroke="black" d="M402.1,-341.32C374.56,-332 391.71,-280.84 413.12,-250.4 439.56,-212.81 483.62,-251.99 510.05,-214.4 534.14,-180.15 552.92,-120.2 511.05,-120.2"/>
<polygon fill="black" stroke="black" points="401.9,-341.29 411.13,-347.2 407.18,-342.07 411.46,-342.7 411.46,-342.7 411.46,-342.7 407.18,-342.07 412.45,-338.3 401.9,-341.29"/>
<text text-anchor="start" x="43.37" y="-352.8" font-family="Arial" font-size="10.00">FOREIGN KEY (commitRequestId) REFERENCES fxTransfer (commitRequestId)</text>
</g>
<!-- transferState -->
<g id="node5" class="node">
<title>transferState</title>
<polygon fill="#efefef" stroke="none" points="614.11,-104.8 614.11,-140.4 843.56,-140.4 843.56,-104.8 614.11,-104.8"/>
<polygon fill="none" stroke="black" points="614.11,-104.8 614.11,-140.4 843.56,-140.4 843.56,-104.8 614.11,-104.8"/>
<text text-anchor="start" x="621.11" y="-118.2" font-family="Arial Bold" font-size="18.00">transferState</text>
<text text-anchor="start" x="712.07" y="-118.2" font-family="Arial" font-size="14.00">    </text>
<text text-anchor="start" x="743.18" y="-118.2" font-family="Arial" font-size="14.00" fill="#666666">[BASE TABLE]</text>
<polygon fill="none" stroke="black" points="614.11,-74 614.11,-104.8 843.56,-104.8 843.56,-74 614.11,-74"/>
<text text-anchor="start" x="621.11" y="-86.2" font-family="Arial" font-size="14.00">transferStateId </text>
<text text-anchor="start" x="716.82" y="-86.2" font-family="Arial" font-size="14.00" fill="#666666">[varchar(50)]</text>
</g>
<!-- fxTransferStateChange&#45;&gt;transferState -->
<g id="edge4" class="edge">
<title>fxTransferStateChange:transferStateId&#45;&gt;transferState:transferStateId</title>
<path fill="none" stroke="black" d="M729.44,-309.44C742.26,-300.56 729.8,-270.57 718.54,-250.4 691.69,-202.29 640.82,-231.79 614.11,-183.6 593.81,-146.98 571.24,-89.4 613.11,-89.4"/>
<polygon fill="black" stroke="black" points="729.55,-309.41 718.74,-307.56 724.38,-310.75 720.19,-311.83 720.19,-311.83 720.19,-311.83 724.38,-310.75 720.99,-316.27 729.55,-309.41"/>
<text text-anchor="start" x="726.54" y="-322" font-family="Arial" font-size="10.00">FOREIGN KEY (transferStateId) REFERENCES transferState (transferStateId)</text>
</g>
<!-- fxTransferError -->
<g id="node2" class="node">
<title>fxTransferError</title>
<polygon fill="#efefef" stroke="none" points="224.69,-657.8 224.69,-693.4 500.97,-693.4 500.97,-657.8 224.69,-657.8"/>
<polygon fill="none" stroke="black" points="224.69,-657.8 224.69,-693.4 500.97,-693.4 500.97,-657.8 224.69,-657.8"/>
<text text-anchor="start" x="243.62" y="-671.2" font-family="Arial Bold" font-size="18.00">fxTransferError</text>
<text text-anchor="start" x="357.55" y="-671.2" font-family="Arial" font-size="14.00">    </text>
<text text-anchor="start" x="388.67" y="-671.2" font-family="Arial" font-size="14.00" fill="#666666">[BASE TABLE]</text>
<polygon fill="none" stroke="black" points="224.69,-627 224.69,-657.8 500.97,-657.8 500.97,-627 224.69,-627"/>
<text text-anchor="start" x="231.69" y="-639.2" font-family="Arial" font-size="14.00">commitRequestId </text>
<text text-anchor="start" x="344.51" y="-639.2" font-family="Arial" font-size="14.00" fill="#666666">[varchar(36)]</text>
<polygon fill="none" stroke="black" points="224.69,-596.2 224.69,-627 500.97,-627 500.97,-596.2 224.69,-596.2"/>
<text text-anchor="start" x="231.69" y="-608.4" font-family="Arial" font-size="14.00">fxTransferStateChangeId </text>
<text text-anchor="start" x="392" y="-608.4" font-family="Arial" font-size="14.00" fill="#666666">[bigint unsigned]</text>
</g>
<!-- fxTransferError&#45;&gt;fxTransferStateChange -->
<g id="edge1" class="edge">
<title>fxTransferError:fxTransferStateChangeId&#45;&gt;fxTransferStateChange:fxTransferStateChangeId</title>
<path fill="none" stroke="black" d="M511.88,-608.75C522.53,-599.96 509.72,-572.72 500.97,-553 479.27,-504.13 434.65,-519.74 413.12,-470.8 395.72,-431.26 368.92,-373.6 412.12,-373.6"/>
<polygon fill="black" stroke="black" points="511.9,-608.74 501.05,-607.18 506.77,-610.22 502.61,-611.42 502.61,-611.42 502.61,-611.42 506.77,-610.22 503.53,-615.83 511.9,-608.74"/>
<text text-anchor="start" x="7" y="-621.6" font-family="Arial" font-size="10.00">FOREIGN KEY (fxTransferStateChangeId) REFERENCES fxTransferStateChange (fxTransferStateChangeId)</text>
</g>
<!-- participantPositionChange -->
<g id="node3" class="node">
<title>participantPositionChange</title>
<polygon fill="#efefef" stroke="none" points="605.1,-704 605.1,-739.6 934.56,-739.6 934.56,-704 605.1,-704"/>
<polygon fill="none" stroke="black" points="605.1,-704 605.1,-739.6 934.56,-739.6 934.56,-704 605.1,-704"/>
<text text-anchor="start" x="612.1" y="-717.4" font-family="Arial Bold" font-size="18.00">participantPositionChange</text>
<text text-anchor="start" x="803.07" y="-717.4" font-family="Arial" font-size="14.00">    </text>
<text text-anchor="start" x="834.19" y="-717.4" font-family="Arial" font-size="14.00" fill="#666666">[BASE TABLE]</text>
<polygon fill="none" stroke="black" points="605.1,-673.2 605.1,-704 934.56,-704 934.56,-673.2 605.1,-673.2"/>
<text text-anchor="start" x="612.1" y="-685.4" font-family="Arial" font-size="14.00">participantPositionChangeId </text>
<text text-anchor="start" x="791.11" y="-685.4" font-family="Arial" font-size="14.00" fill="#666666">[bigint unsigned]</text>
<polygon fill="none" stroke="black" points="605.1,-642.4 605.1,-673.2 934.56,-673.2 934.56,-642.4 605.1,-642.4"/>
<text text-anchor="start" x="612.1" y="-654.6" font-family="Arial" font-size="14.00">participantPositionId </text>
<text text-anchor="start" x="742.07" y="-654.6" font-family="Arial" font-size="14.00" fill="#666666">[bigint unsigned]</text>
<polygon fill="none" stroke="black" points="605.1,-611.6 605.1,-642.4 934.56,-642.4 934.56,-611.6 605.1,-611.6"/>
<text text-anchor="start" x="612.1" y="-623.8" font-family="Arial" font-size="14.00">transferStateChangeId </text>
<text text-anchor="start" x="756.86" y="-623.8" font-family="Arial" font-size="14.00" fill="#666666">[bigint unsigned]</text>
<polygon fill="none" stroke="black" points="605.1,-580.8 605.1,-611.6 934.56,-611.6 934.56,-580.8 605.1,-580.8"/>
<text text-anchor="start" x="612.1" y="-593" font-family="Arial" font-size="14.00">participantCurrencyId </text>
<text text-anchor="start" x="749.05" y="-593" font-family="Arial" font-size="14.00" fill="#666666">[int unsigned]</text>
<polygon fill="none" stroke="black" points="605.1,-550 605.1,-580.8 934.56,-580.8 934.56,-550 605.1,-550"/>
<text text-anchor="start" x="612.1" y="-562.2" font-family="Arial" font-size="14.00">fxTransferStateChangeId </text>
<text text-anchor="start" x="772.41" y="-562.2" font-family="Arial" font-size="14.00" fill="#666666">[bigint unsigned]</text>
</g>
<!-- participantPositionChange&#45;&gt;fxTransferStateChange -->
<g id="edge2" class="edge">
<title>participantPositionChange:fxTransferStateChangeId&#45;&gt;fxTransferStateChange:fxTransferStateChangeId</title>
<path fill="none" stroke="black" d="M594.17,-562.6C581.93,-553.48 592.09,-524.26 605.1,-506.8 636.7,-464.38 687.08,-513.32 718.54,-470.8 744.23,-436.07 762.74,-373.6 719.54,-373.6"/>
<polygon fill="black" stroke="black" points="594.16,-562.59 602.56,-569.64 599.29,-564.04 603.46,-565.22 603.46,-565.22 603.46,-565.22 599.29,-564.04 605,-560.98 594.16,-562.59"/>
<text text-anchor="start" x="234.63" y="-549.4" font-family="Arial" font-size="10.00">FOREIGN KEY (fxTransferStateChangeId) REFERENCES fxTransferStateChange (fxTransferStateChangeId)</text>
</g>
</g>
</svg>
