<?xml version="1.0" encoding="UTF-8" standalone="no"?>
<!DOCTYPE svg PUBLIC "-//W3C//DTD SVG 1.1//EN"
 "http://www.w3.org/Graphics/SVG/1.1/DTD/svg11.dtd">
<!-- Generated by graphviz version 12.1.2 (20240928.0832)
 -->
<!-- Title: fxTransferExtension Pages: 1 -->
<svg width="717pt" height="787pt"
 viewBox="0.00 0.00 717.38 786.80" xmlns="http://www.w3.org/2000/svg" xmlns:xlink="http://www.w3.org/1999/xlink">
<g id="graph0" class="graph" transform="scale(1 1) rotate(0) translate(4 782.8)">
<title>fxTransferExtension</title>
<polygon fill="white" stroke="none" points="-4,4 -4,-782.8 713.38,-782.8 713.38,4 -4,4"/>
<!-- fxTransferExtension -->
<g id="node1" class="node">
<title>fxTransferExtension</title>
<polygon fill="#efefef" stroke="none" points="46.2,-697 46.2,-732.6 332.64,-732.6 332.64,-697 46.2,-697"/>
<polygon fill="none" stroke="black" points="46.2,-697 46.2,-732.6 332.64,-732.6 332.64,-697 46.2,-697"/>
<text text-anchor="start" x="53.2" y="-710.4" font-family="Arial Bold" font-size="18.00">fxTransferExtension</text>
<text text-anchor="start" x="201.15" y="-710.4" font-family="Arial" font-size="14.00">    </text>
<text text-anchor="start" x="232.26" y="-710.4" font-family="Arial" font-size="14.00" fill="#666666">[BASE TABLE]</text>
<polygon fill="none" stroke="black" points="46.2,-666.2 46.2,-697 332.64,-697 332.64,-666.2 46.2,-666.2"/>
<text text-anchor="start" x="53.2" y="-678.4" font-family="Arial" font-size="14.00">fxTransferExtensionId </text>
<text text-anchor="start" x="193.26" y="-678.4" font-family="Arial" font-size="14.00" fill="#666666">[bigint unsigned]</text>
<polygon fill="none" stroke="black" points="46.2,-635.4 46.2,-666.2 332.64,-666.2 332.64,-635.4 46.2,-635.4"/>
<text text-anchor="start" x="53.2" y="-647.6" font-family="Arial" font-size="14.00">commitRequestId </text>
<text text-anchor="start" x="166.02" y="-647.6" font-family="Arial" font-size="14.00" fill="#666666">[varchar(36)]</text>
<polygon fill="none" stroke="black" points="46.2,-604.6 46.2,-635.4 332.64,-635.4 332.64,-604.6 46.2,-604.6"/>
<text text-anchor="start" x="53.2" y="-616.8" font-family="Arial" font-size="14.00">isFulfilment </text>
<text text-anchor="start" x="127.88" y="-616.8" font-family="Arial" font-size="14.00" fill="#666666">[tinyint(1)]</text>
<polygon fill="none" stroke="black" points="46.2,-573.8 46.2,-604.6 332.64,-604.6 332.64,-573.8 46.2,-573.8"/>
<text text-anchor="start" x="53.2" y="-586" font-family="Arial" font-size="14.00">isError </text>
<text text-anchor="start" x="98.31" y="-586" font-family="Arial" font-size="14.00" fill="#666666">[tinyint(1)]</text>
<polygon fill="none" stroke="black" points="46.2,-543 46.2,-573.8 332.64,-573.8 332.64,-543 46.2,-543"/>
<text text-anchor="start" x="53.2" y="-555.2" font-family="Arial" font-size="14.00">key </text>
<text text-anchor="start" x="78.88" y="-555.2" font-family="Arial" font-size="14.00" fill="#666666">[varchar(128)]</text>
<polygon fill="none" stroke="black" points="46.2,-512.2 46.2,-543 332.64,-543 332.64,-512.2 46.2,-512.2"/>
<text text-anchor="start" x="53.2" y="-524.4" font-family="Arial" font-size="14.00">value </text>
<text text-anchor="start" x="90.56" y="-524.4" font-family="Arial" font-size="14.00" fill="#666666">[text]</text>
<polygon fill="none" stroke="black" points="46.2,-481.4 46.2,-512.2 332.64,-512.2 332.64,-481.4 46.2,-481.4"/>
<text text-anchor="start" x="53.2" y="-493.6" font-family="Arial" font-size="14.00">createdDate </text>
<text text-anchor="start" x="133.36" y="-493.6" font-family="Arial" font-size="14.00" fill="#666666">[datetime]</text>
<polygon fill="none" stroke="black" stroke-width="3" points="44.7,-479.9 44.7,-734.1 334.14,-734.1 334.14,-479.9 44.7,-479.9"/>
</g>
<!-- fxTransfer -->
<g id="node2" class="node">
<title>fxTransfer</title>
<polygon fill="#efefef" stroke="none" points="72.32,-320.4 72.32,-356 306.52,-356 306.52,-320.4 72.32,-320.4"/>
<polygon fill="none" stroke="black" points="72.32,-320.4 72.32,-356 306.52,-356 306.52,-320.4 72.32,-320.4"/>
<text text-anchor="start" x="89.2" y="-333.8" font-family="Arial Bold" font-size="18.00">fxTransfer</text>
<text text-anchor="start" x="165.15" y="-333.8" font-family="Arial" font-size="14.00">    </text>
<text text-anchor="start" x="196.27" y="-333.8" font-family="Arial" font-size="14.00" fill="#666666">[BASE TABLE]</text>
<polygon fill="none" stroke="black" points="72.32,-289.6 72.32,-320.4 306.52,-320.4 306.52,-289.6 72.32,-289.6"/>
<text text-anchor="start" x="79.32" y="-301.8" font-family="Arial" font-size="14.00">commitRequestId </text>
<text text-anchor="start" x="192.14" y="-301.8" font-family="Arial" font-size="14.00" fill="#666666">[varchar(36)]</text>
<polygon fill="none" stroke="black" points="72.32,-258.8 72.32,-289.6 306.52,-289.6 306.52,-258.8 72.32,-258.8"/>
<text text-anchor="start" x="79.32" y="-271" font-family="Arial" font-size="14.00">determiningTransferId </text>
<text text-anchor="start" x="220.16" y="-271" font-family="Arial" font-size="14.00" fill="#666666">[varchar(36)]</text>
<polygon fill="none" stroke="black" points="72.32,-228 72.32,-258.8 306.52,-258.8 306.52,-228 72.32,-228"/>
<text text-anchor="start" x="79.32" y="-240.2" font-family="Arial" font-size="14.00">sourceAmount </text>
<text text-anchor="start" x="173.48" y="-240.2" font-family="Arial" font-size="14.00" fill="#666666">[decimal(18,4)]</text>
<polygon fill="none" stroke="black" points="72.32,-197.2 72.32,-228 306.52,-228 306.52,-197.2 72.32,-197.2"/>
<text text-anchor="start" x="79.32" y="-209.4" font-family="Arial" font-size="14.00">targetAmount </text>
<text text-anchor="start" x="167.26" y="-209.4" font-family="Arial" font-size="14.00" fill="#666666">[decimal(18,4)]</text>
<polygon fill="none" stroke="black" points="72.32,-166.4 72.32,-197.2 306.52,-197.2 306.52,-166.4 72.32,-166.4"/>
<text text-anchor="start" x="79.32" y="-178.6" font-family="Arial" font-size="14.00">sourceCurrency </text>
<text text-anchor="start" x="182.02" y="-178.6" font-family="Arial" font-size="14.00" fill="#666666">[varchar(3)]</text>
<polygon fill="none" stroke="black" points="72.32,-135.6 72.32,-166.4 306.52,-166.4 306.52,-135.6 72.32,-135.6"/>
<text text-anchor="start" x="79.32" y="-147.8" font-family="Arial" font-size="14.00">targetCurrency </text>
<text text-anchor="start" x="175.8" y="-147.8" font-family="Arial" font-size="14.00" fill="#666666">[varchar(3)]</text>
<polygon fill="none" stroke="black" points="72.32,-104.8 72.32,-135.6 306.52,-135.6 306.52,-104.8 72.32,-104.8"/>
<text text-anchor="start" x="79.32" y="-117" font-family="Arial" font-size="14.00">ilpCondition </text>
<text text-anchor="start" x="156.37" y="-117" font-family="Arial" font-size="14.00" fill="#666666">[varchar(256)]</text>
<polygon fill="none" stroke="black" points="72.32,-74 72.32,-104.8 306.52,-104.8 306.52,-74 72.32,-74"/>
<text text-anchor="start" x="79.32" y="-86.2" font-family="Arial" font-size="14.00">expirationDate </text>
<text text-anchor="start" x="173.48" y="-86.2" font-family="Arial" font-size="14.00" fill="#666666">[datetime]</text>
<polygon fill="none" stroke="black" points="72.32,-43.2 72.32,-74 306.52,-74 306.52,-43.2 72.32,-43.2"/>
<text text-anchor="start" x="79.32" y="-55.4" font-family="Arial" font-size="14.00">createdDate </text>
<text text-anchor="start" x="159.48" y="-55.4" font-family="Arial" font-size="14.00" fill="#666666">[datetime]</text>
</g>
<!-- fxTransferExtension&#45;&gt;fxTransfer -->
<g id="edge1" class="edge">
<title>fxTransferExtension:commitRequestId&#45;&gt;fxTransfer:commitRequestId</title>
<path fill="none" stroke="black" d="M343.8,-648.59C408.14,-619.14 380.97,-305 307.52,-305"/>
<polygon fill="black" stroke="black" points="343.73,-648.61 333.01,-646.33 338.52,-649.74 334.29,-650.66 334.29,-650.66 334.29,-650.66 338.52,-649.74 334.92,-655.13 343.73,-648.61"/>
<text text-anchor="start" x="340.64" y="-660.8" font-family="Arial" font-size="10.00">FOREIGN KEY (commitRequestId) REFERENCES fxTransfer (commitRequestId)</text>
</g>
</g>
</svg>
