<?xml version="1.0" encoding="UTF-8" standalone="no"?>
<!DOCTYPE svg PUBLIC "-//W3C//DTD SVG 1.1//EN"
 "http://www.w3.org/Graphics/SVG/1.1/DTD/svg11.dtd">
<!-- Generated by graphviz version 12.1.2 (20240928.0832)
 -->
<!-- Title: fxTransfer Pages: 1 -->
<svg width="2954pt" height="1191pt"
 viewBox="0.00 0.00 2954.18 1191.20" xmlns="http://www.w3.org/2000/svg" xmlns:xlink="http://www.w3.org/1999/xlink">
<g id="graph0" class="graph" transform="scale(1 1) rotate(0) translate(4 1187.2)">
<title>fxTransfer</title>
<polygon fill="white" stroke="none" points="-4,4 -4,-1187.2 2950.18,-1187.2 2950.18,4 -4,4"/>
<!-- fxTransfer -->
<g id="node1" class="node">
<title>fxTransfer</title>
<polygon fill="#efefef" stroke="none" points="1414.43,-635.4 1414.43,-671 1648.63,-671 1648.63,-635.4 1414.43,-635.4"/>
<polygon fill="none" stroke="black" points="1414.43,-635.4 1414.43,-671 1648.63,-671 1648.63,-635.4 1414.43,-635.4"/>
<text text-anchor="start" x="1431.31" y="-648.8" font-family="Arial Bold" font-size="18.00">fxTransfer</text>
<text text-anchor="start" x="1507.26" y="-648.8" font-family="Arial" font-size="14.00">    </text>
<text text-anchor="start" x="1538.38" y="-648.8" font-family="Arial" font-size="14.00" fill="#666666">[BASE TABLE]</text>
<polygon fill="none" stroke="black" points="1414.43,-604.6 1414.43,-635.4 1648.63,-635.4 1648.63,-604.6 1414.43,-604.6"/>
<text text-anchor="start" x="1421.43" y="-616.8" font-family="Arial" font-size="14.00">commitRequestId </text>
<text text-anchor="start" x="1534.25" y="-616.8" font-family="Arial" font-size="14.00" fill="#666666">[varchar(36)]</text>
<polygon fill="none" stroke="black" points="1414.43,-573.8 1414.43,-604.6 1648.63,-604.6 1648.63,-573.8 1414.43,-573.8"/>
<text text-anchor="start" x="1421.43" y="-586" font-family="Arial" font-size="14.00">determiningTransferId </text>
<text text-anchor="start" x="1562.27" y="-586" font-family="Arial" font-size="14.00" fill="#666666">[varchar(36)]</text>
<polygon fill="none" stroke="black" points="1414.43,-543 1414.43,-573.8 1648.63,-573.8 1648.63,-543 1414.43,-543"/>
<text text-anchor="start" x="1421.43" y="-555.2" font-family="Arial" font-size="14.00">sourceAmount </text>
<text text-anchor="start" x="1515.59" y="-555.2" font-family="Arial" font-size="14.00" fill="#666666">[decimal(18,4)]</text>
<polygon fill="none" stroke="black" points="1414.43,-512.2 1414.43,-543 1648.63,-543 1648.63,-512.2 1414.43,-512.2"/>
<text text-anchor="start" x="1421.43" y="-524.4" font-family="Arial" font-size="14.00">targetAmount </text>
<text text-anchor="start" x="1509.37" y="-524.4" font-family="Arial" font-size="14.00" fill="#666666">[decimal(18,4)]</text>
<polygon fill="none" stroke="black" points="1414.43,-481.4 1414.43,-512.2 1648.63,-512.2 1648.63,-481.4 1414.43,-481.4"/>
<text text-anchor="start" x="1421.43" y="-493.6" font-family="Arial" font-size="14.00">sourceCurrency </text>
<text text-anchor="start" x="1524.13" y="-493.6" font-family="Arial" font-size="14.00" fill="#666666">[varchar(3)]</text>
<polygon fill="none" stroke="black" points="1414.43,-450.6 1414.43,-481.4 1648.63,-481.4 1648.63,-450.6 1414.43,-450.6"/>
<text text-anchor="start" x="1421.43" y="-462.8" font-family="Arial" font-size="14.00">targetCurrency </text>
<text text-anchor="start" x="1517.91" y="-462.8" font-family="Arial" font-size="14.00" fill="#666666">[varchar(3)]</text>
<polygon fill="none" stroke="black" points="1414.43,-419.8 1414.43,-450.6 1648.63,-450.6 1648.63,-419.8 1414.43,-419.8"/>
<text text-anchor="start" x="1421.43" y="-432" font-family="Arial" font-size="14.00">ilpCondition </text>
<text text-anchor="start" x="1498.48" y="-432" font-family="Arial" font-size="14.00" fill="#666666">[varchar(256)]</text>
<polygon fill="none" stroke="black" points="1414.43,-389 1414.43,-419.8 1648.63,-419.8 1648.63,-389 1414.43,-389"/>
<text text-anchor="start" x="1421.43" y="-401.2" font-family="Arial" font-size="14.00">expirationDate </text>
<text text-anchor="start" x="1515.6" y="-401.2" font-family="Arial" font-size="14.00" fill="#666666">[datetime]</text>
<polygon fill="none" stroke="black" points="1414.43,-358.2 1414.43,-389 1648.63,-389 1648.63,-358.2 1414.43,-358.2"/>
<text text-anchor="start" x="1421.43" y="-370.4" font-family="Arial" font-size="14.00">createdDate </text>
<text text-anchor="start" x="1501.59" y="-370.4" font-family="Arial" font-size="14.00" fill="#666666">[datetime]</text>
<polygon fill="none" stroke="black" stroke-width="3" points="1412.93,-356.7 1412.93,-672.5 1650.13,-672.5 1650.13,-356.7 1412.93,-356.7"/>
</g>
<!-- fxTransferDuplicateCheck -->
<g id="node2" class="node">
<title>fxTransferDuplicateCheck</title>
<polygon fill="#efefef" stroke="none" points="996.33,-166.4 996.33,-202 1326.73,-202 1326.73,-166.4 996.33,-166.4"/>
<polygon fill="none" stroke="black" points="996.33,-166.4 996.33,-202 1326.73,-202 1326.73,-166.4 996.33,-166.4"/>
<text text-anchor="start" x="1003.33" y="-179.8" font-family="Arial Bold" font-size="18.00">fxTransferDuplicateCheck</text>
<text text-anchor="start" x="1195.24" y="-179.8" font-family="Arial" font-size="14.00">    </text>
<text text-anchor="start" x="1226.36" y="-179.8" font-family="Arial" font-size="14.00" fill="#666666">[BASE TABLE]</text>
<polygon fill="none" stroke="black" points="996.33,-135.6 996.33,-166.4 1326.73,-166.4 1326.73,-135.6 996.33,-135.6"/>
<text text-anchor="start" x="1003.33" y="-147.8" font-family="Arial" font-size="14.00">commitRequestId </text>
<text text-anchor="start" x="1116.15" y="-147.8" font-family="Arial" font-size="14.00" fill="#666666">[varchar(36)]</text>
<polygon fill="none" stroke="black" points="996.33,-104.8 996.33,-135.6 1326.73,-135.6 1326.73,-104.8 996.33,-104.8"/>
<text text-anchor="start" x="1003.33" y="-117" font-family="Arial" font-size="14.00">hash </text>
<text text-anchor="start" x="1037.58" y="-117" font-family="Arial" font-size="14.00" fill="#666666">[varchar(256)]</text>
<polygon fill="none" stroke="black" points="996.33,-74 996.33,-104.8 1326.73,-104.8 1326.73,-74 996.33,-74"/>
<text text-anchor="start" x="1003.33" y="-86.2" font-family="Arial" font-size="14.00">createdDate </text>
<text text-anchor="start" x="1083.49" y="-86.2" font-family="Arial" font-size="14.00" fill="#666666">[datetime]</text>
</g>
<!-- fxTransfer&#45;&gt;fxTransferDuplicateCheck -->
<g id="edge1" class="edge">
<title>fxTransfer:commitRequestId&#45;&gt;fxTransferDuplicateCheck:commitRequestId</title>
<path fill="none" stroke="black" d="M1403.36,-618.39C1315.84,-588.49 1430.06,-151 1327.73,-151"/>
<polygon fill="black" stroke="black" points="1403.23,-618.37 1412.39,-624.39 1408.49,-619.21 1412.77,-619.89 1412.77,-619.89 1412.77,-619.89 1408.49,-619.21 1413.81,-615.5 1403.23,-618.37"/>
<text text-anchor="start" x="974.65" y="-630" font-family="Arial" font-size="10.00">FOREIGN KEY (commitRequestId) REFERENCES fxTransferDuplicateCheck (commitRequestId)</text>
</g>
<!-- currency -->
<g id="node10" class="node">
<title>currency</title>
<polygon fill="#efefef" stroke="none" points="1430.81,-197.2 1430.81,-232.8 1632.25,-232.8 1632.25,-197.2 1430.81,-197.2"/>
<polygon fill="none" stroke="black" points="1430.81,-197.2 1430.81,-232.8 1632.25,-232.8 1632.25,-197.2 1430.81,-197.2"/>
<text text-anchor="start" x="1437.81" y="-210.6" font-family="Arial Bold" font-size="18.00">currency</text>
<text text-anchor="start" x="1500.76" y="-210.6" font-family="Arial" font-size="14.00">    </text>
<text text-anchor="start" x="1531.88" y="-210.6" font-family="Arial" font-size="14.00" fill="#666666">[BASE TABLE]</text>
<polygon fill="none" stroke="black" points="1430.81,-166.4 1430.81,-197.2 1632.25,-197.2 1632.25,-166.4 1430.81,-166.4"/>
<text text-anchor="start" x="1437.81" y="-178.6" font-family="Arial" font-size="14.00">currencyId </text>
<text text-anchor="start" x="1507.06" y="-178.6" font-family="Arial" font-size="14.00" fill="#666666">[varchar(3)]</text>
<polygon fill="none" stroke="black" points="1430.81,-135.6 1430.81,-166.4 1632.25,-166.4 1632.25,-135.6 1430.81,-135.6"/>
<text text-anchor="start" x="1437.81" y="-147.8" font-family="Arial" font-size="14.00">name </text>
<text text-anchor="start" x="1476.72" y="-147.8" font-family="Arial" font-size="14.00" fill="#666666">[varchar(128)]</text>
<polygon fill="none" stroke="black" points="1430.81,-104.8 1430.81,-135.6 1632.25,-135.6 1632.25,-104.8 1430.81,-104.8"/>
<text text-anchor="start" x="1437.81" y="-117" font-family="Arial" font-size="14.00">isActive </text>
<text text-anchor="start" x="1489.93" y="-117" font-family="Arial" font-size="14.00" fill="#666666">[tinyint(1)]</text>
<polygon fill="none" stroke="black" points="1430.81,-74 1430.81,-104.8 1632.25,-104.8 1632.25,-74 1430.81,-74"/>
<text text-anchor="start" x="1437.81" y="-86.2" font-family="Arial" font-size="14.00">createdDate </text>
<text text-anchor="start" x="1517.97" y="-86.2" font-family="Arial" font-size="14.00" fill="#666666">[datetime]</text>
<polygon fill="none" stroke="black" points="1430.81,-43.2 1430.81,-74 1632.25,-74 1632.25,-43.2 1430.81,-43.2"/>
<text text-anchor="start" x="1437.81" y="-55.4" font-family="Arial" font-size="14.00">scale </text>
<text text-anchor="start" x="1474.38" y="-55.4" font-family="Arial" font-size="14.00" fill="#666666">[int unsigned]</text>
</g>
<!-- fxTransfer&#45;&gt;currency -->
<g id="edge9" class="edge">
<title>fxTransfer:sourceCurrency&#45;&gt;currency:currencyId</title>
<path fill="none" stroke="black" d="M1660.01,-496.2C1788.91,-481.01 1769.88,-181.8 1633.25,-181.8"/>
<polygon fill="black" stroke="black" points="1659.95,-496.2 1649.7,-492.29 1654.62,-496.51 1650.3,-496.76 1650.3,-496.76 1650.3,-496.76 1654.62,-496.51 1650.22,-501.27 1659.95,-496.2"/>
<text text-anchor="start" x="1656.63" y="-506.8" font-family="Arial" font-size="10.00">FOREIGN KEY (sourceCurrency) REFERENCES currency (currencyId)</text>
</g>
<!-- fxTransfer&#45;&gt;currency -->
<g id="edge10" class="edge">
<title>fxTransfer:targetCurrency&#45;&gt;currency:currencyId</title>
<path fill="none" stroke="black" d="M1660.04,-465.33C1775.13,-450.13 1756.19,-181.8 1633.25,-181.8"/>
<polygon fill="black" stroke="black" points="1659.94,-465.34 1649.67,-461.49 1654.62,-465.68 1650.3,-465.96 1650.3,-465.96 1650.3,-465.96 1654.62,-465.68 1650.25,-470.47 1659.94,-465.34"/>
<text text-anchor="start" x="1656.63" y="-476" font-family="Arial" font-size="10.00">FOREIGN KEY (targetCurrency) REFERENCES currency (currencyId)</text>
</g>
<!-- fxTransferExtension -->
<g id="node3" class="node">
<title>fxTransferExtension</title>
<polygon fill="#efefef" stroke="none" points="88.31,-1058.2 88.31,-1093.8 374.75,-1093.8 374.75,-1058.2 88.31,-1058.2"/>
<polygon fill="none" stroke="black" points="88.31,-1058.2 88.31,-1093.8 374.75,-1093.8 374.75,-1058.2 88.31,-1058.2"/>
<text text-anchor="start" x="95.31" y="-1071.6" font-family="Arial Bold" font-size="18.00">fxTransferExtension</text>
<text text-anchor="start" x="243.26" y="-1071.6" font-family="Arial" font-size="14.00">    </text>
<text text-anchor="start" x="274.38" y="-1071.6" font-family="Arial" font-size="14.00" fill="#666666">[BASE TABLE]</text>
<polygon fill="none" stroke="black" points="88.31,-1027.4 88.31,-1058.2 374.75,-1058.2 374.75,-1027.4 88.31,-1027.4"/>
<text text-anchor="start" x="95.31" y="-1039.6" font-family="Arial" font-size="14.00">fxTransferExtensionId </text>
<text text-anchor="start" x="235.37" y="-1039.6" font-family="Arial" font-size="14.00" fill="#666666">[bigint unsigned]</text>
<polygon fill="none" stroke="black" points="88.31,-996.6 88.31,-1027.4 374.75,-1027.4 374.75,-996.6 88.31,-996.6"/>
<text text-anchor="start" x="95.31" y="-1008.8" font-family="Arial" font-size="14.00">commitRequestId </text>
<text text-anchor="start" x="208.13" y="-1008.8" font-family="Arial" font-size="14.00" fill="#666666">[varchar(36)]</text>
<polygon fill="none" stroke="black" points="88.31,-965.8 88.31,-996.6 374.75,-996.6 374.75,-965.8 88.31,-965.8"/>
<text text-anchor="start" x="95.31" y="-978" font-family="Arial" font-size="14.00">isFulfilment </text>
<text text-anchor="start" x="170" y="-978" font-family="Arial" font-size="14.00" fill="#666666">[tinyint(1)]</text>
<polygon fill="none" stroke="black" points="88.31,-935 88.31,-965.8 374.75,-965.8 374.75,-935 88.31,-935"/>
<text text-anchor="start" x="95.31" y="-947.2" font-family="Arial" font-size="14.00">isError </text>
<text text-anchor="start" x="140.42" y="-947.2" font-family="Arial" font-size="14.00" fill="#666666">[tinyint(1)]</text>
<polygon fill="none" stroke="black" points="88.31,-904.2 88.31,-935 374.75,-935 374.75,-904.2 88.31,-904.2"/>
<text text-anchor="start" x="95.31" y="-916.4" font-family="Arial" font-size="14.00">key </text>
<text text-anchor="start" x="120.99" y="-916.4" font-family="Arial" font-size="14.00" fill="#666666">[varchar(128)]</text>
<polygon fill="none" stroke="black" points="88.31,-873.4 88.31,-904.2 374.75,-904.2 374.75,-873.4 88.31,-873.4"/>
<text text-anchor="start" x="95.31" y="-885.6" font-family="Arial" font-size="14.00">value </text>
<text text-anchor="start" x="132.67" y="-885.6" font-family="Arial" font-size="14.00" fill="#666666">[text]</text>
<polygon fill="none" stroke="black" points="88.31,-842.6 88.31,-873.4 374.75,-873.4 374.75,-842.6 88.31,-842.6"/>
<text text-anchor="start" x="95.31" y="-854.8" font-family="Arial" font-size="14.00">createdDate </text>
<text text-anchor="start" x="175.47" y="-854.8" font-family="Arial" font-size="14.00" fill="#666666">[datetime]</text>
</g>
<!-- fxTransferExtension&#45;&gt;fxTransfer -->
<g id="edge2" class="edge">
<title>fxTransferExtension:commitRequestId&#45;&gt;fxTransfer:commitRequestId</title>
<path fill="none" stroke="black" d="M385.97,-1011.49C483.84,-1000.94 344.68,-830.97 427.53,-753.2 508.12,-677.54 1302.89,-620 1413.43,-620"/>
<polygon fill="black" stroke="black" points="386.07,-1011.48 375.86,-1007.49 380.74,-1011.75 376.42,-1011.97 376.42,-1011.97 376.42,-1011.97 380.74,-1011.75 376.31,-1016.48 386.07,-1011.48"/>
<text text-anchor="start" x="7" y="-1022" font-family="Arial" font-size="10.00">FOREIGN KEY (commitRequestId) REFERENCES fxTransfer (commitRequestId)</text>
</g>
<!-- fxTransferFulfilment -->
<g id="node4" class="node">
<title>fxTransferFulfilment</title>
<polygon fill="#efefef" stroke="none" points="479.31,-1042.8 479.31,-1078.4 769.75,-1078.4 769.75,-1042.8 479.31,-1042.8"/>
<polygon fill="none" stroke="black" points="479.31,-1042.8 479.31,-1078.4 769.75,-1078.4 769.75,-1042.8 479.31,-1042.8"/>
<text text-anchor="start" x="486.31" y="-1056.2" font-family="Arial Bold" font-size="18.00">fxTransferFulfilment</text>
<text text-anchor="start" x="638.26" y="-1056.2" font-family="Arial" font-size="14.00">    </text>
<text text-anchor="start" x="669.38" y="-1056.2" font-family="Arial" font-size="14.00" fill="#666666">[BASE TABLE]</text>
<polygon fill="none" stroke="black" points="479.31,-1012 479.31,-1042.8 769.75,-1042.8 769.75,-1012 479.31,-1012"/>
<text text-anchor="start" x="486.31" y="-1024.2" font-family="Arial" font-size="14.00">commitRequestId </text>
<text text-anchor="start" x="599.13" y="-1024.2" font-family="Arial" font-size="14.00" fill="#666666">[varchar(36)]</text>
<polygon fill="none" stroke="black" points="479.31,-981.2 479.31,-1012 769.75,-1012 769.75,-981.2 479.31,-981.2"/>
<text text-anchor="start" x="486.31" y="-993.4" font-family="Arial" font-size="14.00">ilpFulfilment </text>
<text text-anchor="start" x="564.89" y="-993.4" font-family="Arial" font-size="14.00" fill="#666666">[varchar(256)]</text>
<polygon fill="none" stroke="black" points="479.31,-950.4 479.31,-981.2 769.75,-981.2 769.75,-950.4 479.31,-950.4"/>
<text text-anchor="start" x="486.31" y="-962.6" font-family="Arial" font-size="14.00">completedDate </text>
<text text-anchor="start" x="584.36" y="-962.6" font-family="Arial" font-size="14.00" fill="#666666">[datetime]</text>
<polygon fill="none" stroke="black" points="479.31,-919.6 479.31,-950.4 769.75,-950.4 769.75,-919.6 479.31,-919.6"/>
<text text-anchor="start" x="486.31" y="-931.8" font-family="Arial" font-size="14.00">isValid </text>
<text text-anchor="start" x="531.44" y="-931.8" font-family="Arial" font-size="14.00" fill="#666666">[tinyint(1)]</text>
<polygon fill="none" stroke="black" points="479.31,-888.8 479.31,-919.6 769.75,-919.6 769.75,-888.8 479.31,-888.8"/>
<text text-anchor="start" x="486.31" y="-901" font-family="Arial" font-size="14.00">settlementWindowId </text>
<text text-anchor="start" x="616.25" y="-901" font-family="Arial" font-size="14.00" fill="#666666">[bigint unsigned]</text>
<polygon fill="none" stroke="black" points="479.31,-858 479.31,-888.8 769.75,-888.8 769.75,-858 479.31,-858"/>
<text text-anchor="start" x="486.31" y="-870.2" font-family="Arial" font-size="14.00">createdDate </text>
<text text-anchor="start" x="566.47" y="-870.2" font-family="Arial" font-size="14.00" fill="#666666">[datetime]</text>
</g>
<!-- fxTransferFulfilment&#45;&gt;fxTransfer -->
<g id="edge3" class="edge">
<title>fxTransferFulfilment:commitRequestId&#45;&gt;fxTransfer:commitRequestId</title>
<path fill="none" stroke="black" d="M780.94,-1026.93C885.7,-1016.64 738.91,-839.81 822.53,-753.2 916.03,-656.36 1278.82,-620 1413.43,-620"/>
<polygon fill="black" stroke="black" points="781.08,-1026.92 770.88,-1022.89 775.75,-1027.17 771.42,-1027.37 771.42,-1027.37 771.42,-1027.37 775.75,-1027.17 771.29,-1031.88 781.08,-1026.92"/>
<text text-anchor="start" x="777.75" y="-1037.4" font-family="Arial" font-size="10.00">FOREIGN KEY (commitRequestId) REFERENCES fxTransfer (commitRequestId)</text>
</g>
<!-- fxTransferFulfilmentDuplicateCheck -->
<g id="node5" class="node">
<title>fxTransferFulfilmentDuplicateCheck</title>
<polygon fill="#efefef" stroke="none" points="874.33,-996.6 874.33,-1032.2 1280.73,-1032.2 1280.73,-996.6 874.33,-996.6"/>
<polygon fill="none" stroke="black" points="874.33,-996.6 874.33,-1032.2 1280.73,-1032.2 1280.73,-996.6 874.33,-996.6"/>
<text text-anchor="start" x="881.33" y="-1010" font-family="Arial Bold" font-size="18.00">fxTransferFulfilmentDuplicateCheck</text>
<text text-anchor="start" x="1149.24" y="-1010" font-family="Arial" font-size="14.00">    </text>
<text text-anchor="start" x="1180.36" y="-1010" font-family="Arial" font-size="14.00" fill="#666666">[BASE TABLE]</text>
<polygon fill="none" stroke="black" points="874.33,-965.8 874.33,-996.6 1280.73,-996.6 1280.73,-965.8 874.33,-965.8"/>
<text text-anchor="start" x="881.33" y="-978" font-family="Arial" font-size="14.00">commitRequestId </text>
<text text-anchor="start" x="994.15" y="-978" font-family="Arial" font-size="14.00" fill="#666666">[varchar(36)]</text>
<polygon fill="none" stroke="black" points="874.33,-935 874.33,-965.8 1280.73,-965.8 1280.73,-935 874.33,-935"/>
<text text-anchor="start" x="881.33" y="-947.2" font-family="Arial" font-size="14.00">hash </text>
<text text-anchor="start" x="915.58" y="-947.2" font-family="Arial" font-size="14.00" fill="#666666">[varchar(256)]</text>
<polygon fill="none" stroke="black" points="874.33,-904.2 874.33,-935 1280.73,-935 1280.73,-904.2 874.33,-904.2"/>
<text text-anchor="start" x="881.33" y="-916.4" font-family="Arial" font-size="14.00">createdDate </text>
<text text-anchor="start" x="961.49" y="-916.4" font-family="Arial" font-size="14.00" fill="#666666">[datetime]</text>
</g>
<!-- fxTransferFulfilmentDuplicateCheck&#45;&gt;fxTransfer -->
<g id="edge4" class="edge">
<title>fxTransferFulfilmentDuplicateCheck:commitRequestId&#45;&gt;fxTransfer:commitRequestId</title>
<path fill="none" stroke="black" d="M1291.67,-978.64C1331.13,-956.57 1315.53,-798.03 1333.53,-753.2 1359.26,-689.14 1344.4,-620 1413.43,-620"/>
<polygon fill="black" stroke="black" points="1291.74,-978.62 1280.93,-976.76 1286.57,-979.95 1282.38,-981.03 1282.38,-981.03 1282.38,-981.03 1286.57,-979.95 1283.17,-985.47 1291.74,-978.62"/>
<text text-anchor="start" x="1288.73" y="-991.2" font-family="Arial" font-size="10.00">FOREIGN KEY (commitRequestId) REFERENCES fxTransfer (commitRequestId)</text>
</g>
<!-- fxTransferParticipant -->
<g id="node6" class="node">
<title>fxTransferParticipant</title>
<polygon fill="#efefef" stroke="none" points="1385.32,-1104.4 1385.32,-1140 1677.74,-1140 1677.74,-1104.4 1385.32,-1104.4"/>
<polygon fill="none" stroke="black" points="1385.32,-1104.4 1385.32,-1140 1677.74,-1140 1677.74,-1104.4 1385.32,-1104.4"/>
<text text-anchor="start" x="1392.32" y="-1117.8" font-family="Arial Bold" font-size="18.00">fxTransferParticipant</text>
<text text-anchor="start" x="1546.25" y="-1117.8" font-family="Arial" font-size="14.00">    </text>
<text text-anchor="start" x="1577.37" y="-1117.8" font-family="Arial" font-size="14.00" fill="#666666">[BASE TABLE]</text>
<polygon fill="none" stroke="black" points="1385.32,-1073.6 1385.32,-1104.4 1677.74,-1104.4 1677.74,-1073.6 1385.32,-1073.6"/>
<text text-anchor="start" x="1392.32" y="-1085.8" font-family="Arial" font-size="14.00">fxTransferParticipantId </text>
<text text-anchor="start" x="1537.04" y="-1085.8" font-family="Arial" font-size="14.00" fill="#666666">[bigint unsigned]</text>
<polygon fill="none" stroke="black" points="1385.32,-1042.8 1385.32,-1073.6 1677.74,-1073.6 1677.74,-1042.8 1385.32,-1042.8"/>
<text text-anchor="start" x="1392.32" y="-1055" font-family="Arial" font-size="14.00">commitRequestId </text>
<text text-anchor="start" x="1505.14" y="-1055" font-family="Arial" font-size="14.00" fill="#666666">[varchar(36)]</text>
<polygon fill="none" stroke="black" points="1385.32,-1012 1385.32,-1042.8 1677.74,-1042.8 1677.74,-1012 1385.32,-1012"/>
<text text-anchor="start" x="1392.32" y="-1024.2" font-family="Arial" font-size="14.00">participantCurrencyId </text>
<text text-anchor="start" x="1529.27" y="-1024.2" font-family="Arial" font-size="14.00" fill="#666666">[int unsigned]</text>
<polygon fill="none" stroke="black" points="1385.32,-981.2 1385.32,-1012 1677.74,-1012 1677.74,-981.2 1385.32,-981.2"/>
<text text-anchor="start" x="1392.32" y="-993.4" font-family="Arial" font-size="14.00">transferParticipantRoleTypeId </text>
<text text-anchor="start" x="1581.41" y="-993.4" font-family="Arial" font-size="14.00" fill="#666666">[int unsigned]</text>
<polygon fill="none" stroke="black" points="1385.32,-950.4 1385.32,-981.2 1677.74,-981.2 1677.74,-950.4 1385.32,-950.4"/>
<text text-anchor="start" x="1392.32" y="-962.6" font-family="Arial" font-size="14.00">ledgerEntryTypeId </text>
<text text-anchor="start" x="1510.6" y="-962.6" font-family="Arial" font-size="14.00" fill="#666666">[int unsigned]</text>
<polygon fill="none" stroke="black" points="1385.32,-919.6 1385.32,-950.4 1677.74,-950.4 1677.74,-919.6 1385.32,-919.6"/>
<text text-anchor="start" x="1392.32" y="-931.8" font-family="Arial" font-size="14.00">fxParticipantCurrencyTypeId </text>
<text text-anchor="start" x="1572.84" y="-931.8" font-family="Arial" font-size="14.00" fill="#666666">[int unsigned]</text>
<polygon fill="none" stroke="black" points="1385.32,-888.8 1385.32,-919.6 1677.74,-919.6 1677.74,-888.8 1385.32,-888.8"/>
<text text-anchor="start" x="1392.32" y="-901" font-family="Arial" font-size="14.00">amount </text>
<text text-anchor="start" x="1442.91" y="-901" font-family="Arial" font-size="14.00" fill="#666666">[decimal(18,4)]</text>
<polygon fill="none" stroke="black" points="1385.32,-858 1385.32,-888.8 1677.74,-888.8 1677.74,-858 1385.32,-858"/>
<text text-anchor="start" x="1392.32" y="-870.2" font-family="Arial" font-size="14.00">createdDate </text>
<text text-anchor="start" x="1472.48" y="-870.2" font-family="Arial" font-size="14.00" fill="#666666">[datetime]</text>
<polygon fill="none" stroke="black" points="1385.32,-827.2 1385.32,-858 1677.74,-858 1677.74,-827.2 1385.32,-827.2"/>
<text text-anchor="start" x="1392.32" y="-839.4" font-family="Arial" font-size="14.00">participantId </text>
<text text-anchor="start" x="1472.48" y="-839.4" font-family="Arial" font-size="14.00" fill="#666666">[int unsigned]</text>
<polygon fill="none" stroke="black" points="1385.32,-796.4 1385.32,-827.2 1677.74,-827.2 1677.74,-796.4 1385.32,-796.4"/>
<text text-anchor="start" x="1392.32" y="-808.6" font-family="Arial" font-size="14.00">externalParticipantId </text>
<text text-anchor="start" x="1523.84" y="-808.6" font-family="Arial" font-size="14.00" fill="#666666">[bigint unsigned]</text>
</g>
<!-- fxTransferParticipant&#45;&gt;fxTransfer -->
<g id="edge5" class="edge">
<title>fxTransferParticipant:commitRequestId&#45;&gt;fxTransfer:commitRequestId</title>
<path fill="none" stroke="black" d="M1687.45,-1052.66C1723.58,-1001.93 1695.19,-620 1649.63,-620"/>
<polygon fill="black" stroke="black" points="1687.46,-1052.65 1676.61,-1054.22 1682.96,-1055.52 1679.31,-1057.84 1679.31,-1057.84 1679.31,-1057.84 1682.96,-1055.52 1681.44,-1061.82 1687.46,-1052.65"/>
<text text-anchor="start" x="1309.99" y="-1068.2" font-family="Arial" font-size="10.00">FOREIGN KEY (commitRequestId) REFERENCES fxTransfer (commitRequestId)</text>
</g>
<!-- fxTransferStateChange -->
<g id="node7" class="node">
<title>fxTransferStateChange</title>
<polygon fill="#efefef" stroke="none" points="1781.82,-1027.4 1781.82,-1063 2087.24,-1063 2087.24,-1027.4 1781.82,-1027.4"/>
<polygon fill="none" stroke="black" points="1781.82,-1027.4 1781.82,-1063 2087.24,-1063 2087.24,-1027.4 1781.82,-1027.4"/>
<text text-anchor="start" x="1788.82" y="-1040.8" font-family="Arial Bold" font-size="18.00">fxTransferStateChange</text>
<text text-anchor="start" x="1955.75" y="-1040.8" font-family="Arial" font-size="14.00">    </text>
<text text-anchor="start" x="1986.87" y="-1040.8" font-family="Arial" font-size="14.00" fill="#666666">[BASE TABLE]</text>
<polygon fill="none" stroke="black" points="1781.82,-996.6 1781.82,-1027.4 2087.24,-1027.4 2087.24,-996.6 1781.82,-996.6"/>
<text text-anchor="start" x="1788.82" y="-1008.8" font-family="Arial" font-size="14.00">fxTransferStateChangeId </text>
<text text-anchor="start" x="1949.13" y="-1008.8" font-family="Arial" font-size="14.00" fill="#666666">[bigint unsigned]</text>
<polygon fill="none" stroke="black" points="1781.82,-965.8 1781.82,-996.6 2087.24,-996.6 2087.24,-965.8 1781.82,-965.8"/>
<text text-anchor="start" x="1788.82" y="-978" font-family="Arial" font-size="14.00">commitRequestId </text>
<text text-anchor="start" x="1901.64" y="-978" font-family="Arial" font-size="14.00" fill="#666666">[varchar(36)]</text>
<polygon fill="none" stroke="black" points="1781.82,-935 1781.82,-965.8 2087.24,-965.8 2087.24,-935 1781.82,-935"/>
<text text-anchor="start" x="1788.82" y="-947.2" font-family="Arial" font-size="14.00">transferStateId </text>
<text text-anchor="start" x="1884.54" y="-947.2" font-family="Arial" font-size="14.00" fill="#666666">[varchar(50)]</text>
<polygon fill="none" stroke="black" points="1781.82,-904.2 1781.82,-935 2087.24,-935 2087.24,-904.2 1781.82,-904.2"/>
<text text-anchor="start" x="1788.82" y="-916.4" font-family="Arial" font-size="14.00">reason </text>
<text text-anchor="start" x="1835.52" y="-916.4" font-family="Arial" font-size="14.00" fill="#666666">[varchar(512)]</text>
<polygon fill="none" stroke="black" points="1781.82,-873.4 1781.82,-904.2 2087.24,-904.2 2087.24,-873.4 1781.82,-873.4"/>
<text text-anchor="start" x="1788.82" y="-885.6" font-family="Arial" font-size="14.00">createdDate </text>
<text text-anchor="start" x="1868.98" y="-885.6" font-family="Arial" font-size="14.00" fill="#666666">[datetime]</text>
</g>
<!-- fxTransferStateChange&#45;&gt;fxTransfer -->
<g id="edge6" class="edge">
<title>fxTransferStateChange:commitRequestId&#45;&gt;fxTransfer:commitRequestId</title>
<path fill="none" stroke="black" d="M1770.89,-978.64C1731.5,-956.57 1747.47,-798.02 1729.53,-753.2 1703.87,-689.11 1718.66,-620 1649.63,-620"/>
<polygon fill="black" stroke="black" points="1770.81,-978.62 1779.37,-985.47 1775.98,-979.95 1780.17,-981.03 1780.17,-981.03 1780.17,-981.03 1775.98,-979.95 1781.62,-976.76 1770.81,-978.62"/>
<text text-anchor="start" x="1506.01" y="-965.2" font-family="Arial" font-size="10.00">FOREIGN KEY (commitRequestId) REFERENCES fxTransfer (commitRequestId)</text>
</g>
<!-- fxTransferTimeout -->
<g id="node8" class="node">
<title>fxTransferTimeout</title>
<polygon fill="#efefef" stroke="none" points="2191.81,-1012 2191.81,-1047.6 2467.25,-1047.6 2467.25,-1012 2191.81,-1012"/>
<polygon fill="none" stroke="black" points="2191.81,-1012 2191.81,-1047.6 2467.25,-1047.6 2467.25,-1012 2191.81,-1012"/>
<text text-anchor="start" x="2198.81" y="-1025.4" font-family="Arial Bold" font-size="18.00">fxTransferTimeout</text>
<text text-anchor="start" x="2335.76" y="-1025.4" font-family="Arial" font-size="14.00">    </text>
<text text-anchor="start" x="2366.87" y="-1025.4" font-family="Arial" font-size="14.00" fill="#666666">[BASE TABLE]</text>
<polygon fill="none" stroke="black" points="2191.81,-981.2 2191.81,-1012 2467.25,-1012 2467.25,-981.2 2191.81,-981.2"/>
<text text-anchor="start" x="2198.81" y="-993.4" font-family="Arial" font-size="14.00">fxTransferTimeoutId </text>
<text text-anchor="start" x="2327.97" y="-993.4" font-family="Arial" font-size="14.00" fill="#666666">[bigint unsigned]</text>
<polygon fill="none" stroke="black" points="2191.81,-950.4 2191.81,-981.2 2467.25,-981.2 2467.25,-950.4 2191.81,-950.4"/>
<text text-anchor="start" x="2198.81" y="-962.6" font-family="Arial" font-size="14.00">commitRequestId </text>
<text text-anchor="start" x="2311.63" y="-962.6" font-family="Arial" font-size="14.00" fill="#666666">[varchar(36)]</text>
<polygon fill="none" stroke="black" points="2191.81,-919.6 2191.81,-950.4 2467.25,-950.4 2467.25,-919.6 2191.81,-919.6"/>
<text text-anchor="start" x="2198.81" y="-931.8" font-family="Arial" font-size="14.00">expirationDate </text>
<text text-anchor="start" x="2292.98" y="-931.8" font-family="Arial" font-size="14.00" fill="#666666">[datetime]</text>
<polygon fill="none" stroke="black" points="2191.81,-888.8 2191.81,-919.6 2467.25,-919.6 2467.25,-888.8 2191.81,-888.8"/>
<text text-anchor="start" x="2198.81" y="-901" font-family="Arial" font-size="14.00">createdDate </text>
<text text-anchor="start" x="2278.97" y="-901" font-family="Arial" font-size="14.00" fill="#666666">[datetime]</text>
</g>
<!-- fxTransferTimeout&#45;&gt;fxTransfer -->
<g id="edge7" class="edge">
<title>fxTransferTimeout:commitRequestId&#45;&gt;fxTransfer:commitRequestId</title>
<path fill="none" stroke="black" d="M2180.84,-965.22C2101.8,-955.3 2204.75,-820.32 2139.53,-753.2 2060.91,-672.29 1762.45,-620 1649.63,-620"/>
<polygon fill="black" stroke="black" points="2180.5,-965.2 2190.22,-970.27 2185.82,-965.51 2190.15,-965.76 2190.15,-965.76 2190.15,-965.76 2185.82,-965.51 2190.74,-961.29 2180.5,-965.2"/>
<text text-anchor="start" x="2197.81" y="-975.8" font-family="Arial" font-size="10.00">FOREIGN KEY (commitRequestId) REFERENCES fxTransfer (commitRequestId)</text>
</g>
<!-- fxWatchList -->
<g id="node9" class="node">
<title>fxWatchList</title>
<polygon fill="#efefef" stroke="none" points="2571.43,-1027.4 2571.43,-1063 2805.63,-1063 2805.63,-1027.4 2571.43,-1027.4"/>
<polygon fill="none" stroke="black" points="2571.43,-1027.4 2571.43,-1063 2805.63,-1063 2805.63,-1027.4 2571.43,-1027.4"/>
<text text-anchor="start" x="2581.3" y="-1040.8" font-family="Arial Bold" font-size="18.00">fxWatchList</text>
<text text-anchor="start" x="2671.27" y="-1040.8" font-family="Arial" font-size="14.00">    </text>
<text text-anchor="start" x="2702.39" y="-1040.8" font-family="Arial" font-size="14.00" fill="#666666">[BASE TABLE]</text>
<polygon fill="none" stroke="black" points="2571.43,-996.6 2571.43,-1027.4 2805.63,-1027.4 2805.63,-996.6 2571.43,-996.6"/>
<text text-anchor="start" x="2578.43" y="-1008.8" font-family="Arial" font-size="14.00">fxWatchListId </text>
<text text-anchor="start" x="2666.35" y="-1008.8" font-family="Arial" font-size="14.00" fill="#666666">[bigint unsigned]</text>
<polygon fill="none" stroke="black" points="2571.43,-965.8 2571.43,-996.6 2805.63,-996.6 2805.63,-965.8 2571.43,-965.8"/>
<text text-anchor="start" x="2578.43" y="-978" font-family="Arial" font-size="14.00">commitRequestId </text>
<text text-anchor="start" x="2691.25" y="-978" font-family="Arial" font-size="14.00" fill="#666666">[varchar(36)]</text>
<polygon fill="none" stroke="black" points="2571.43,-935 2571.43,-965.8 2805.63,-965.8 2805.63,-935 2571.43,-935"/>
<text text-anchor="start" x="2578.43" y="-947.2" font-family="Arial" font-size="14.00">determiningTransferId </text>
<text text-anchor="start" x="2719.27" y="-947.2" font-family="Arial" font-size="14.00" fill="#666666">[varchar(36)]</text>
<polygon fill="none" stroke="black" points="2571.43,-904.2 2571.43,-935 2805.63,-935 2805.63,-904.2 2571.43,-904.2"/>
<text text-anchor="start" x="2578.43" y="-916.4" font-family="Arial" font-size="14.00">fxTransferTypeId </text>
<text text-anchor="start" x="2688.13" y="-916.4" font-family="Arial" font-size="14.00" fill="#666666">[int unsigned]</text>
<polygon fill="none" stroke="black" points="2571.43,-873.4 2571.43,-904.2 2805.63,-904.2 2805.63,-873.4 2571.43,-873.4"/>
<text text-anchor="start" x="2578.43" y="-885.6" font-family="Arial" font-size="14.00">createdDate </text>
<text text-anchor="start" x="2658.59" y="-885.6" font-family="Arial" font-size="14.00" fill="#666666">[datetime]</text>
</g>
<!-- fxWatchList&#45;&gt;fxTransfer -->
<g id="edge8" class="edge">
<title>fxWatchList:commitRequestId&#45;&gt;fxTransfer:commitRequestId</title>
<path fill="none" stroke="black" d="M2560.07,-980.6C2475.64,-969.96 2592.65,-821.53 2519.53,-753.2 2448.09,-686.44 1747.41,-620 1649.63,-620"/>
<polygon fill="black" stroke="black" points="2560.11,-980.6 2569.83,-985.67 2565.44,-980.91 2569.76,-981.16 2569.76,-981.16 2569.76,-981.16 2565.44,-980.91 2570.36,-976.69 2560.11,-980.6"/>
<text text-anchor="start" x="2577.43" y="-991.2" font-family="Arial" font-size="10.00">FOREIGN KEY (commitRequestId) REFERENCES fxTransfer (commitRequestId)</text>
</g>
</g>
</svg>
