<?xml version="1.0" encoding="UTF-8" standalone="no"?>
<!DOCTYPE svg PUBLIC "-//W3C//DTD SVG 1.1//EN"
 "http://www.w3.org/Graphics/SVG/1.1/DTD/svg11.dtd">
<!-- Generated by graphviz version 12.1.2 (20240928.0832)
 -->
<!-- Title: fxTransferParticipant Pages: 1 -->
<svg width="2326pt" height="633pt"
 viewBox="0.00 0.00 2325.84 632.80" xmlns="http://www.w3.org/2000/svg" xmlns:xlink="http://www.w3.org/1999/xlink">
<g id="graph0" class="graph" transform="scale(1 1) rotate(0) translate(4 628.8)">
<title>fxTransferParticipant</title>
<polygon fill="white" stroke="none" points="-4,4 -4,-628.8 2321.84,-628.8 2321.84,4 -4,4"/>
<!-- fxTransferParticipant -->
<g id="node1" class="node">
<title>fxTransferParticipant</title>
<polygon fill="#efefef" stroke="none" points="977.21,-543 977.21,-578.6 1269.63,-578.6 1269.63,-543 977.21,-543"/>
<polygon fill="none" stroke="black" points="977.21,-543 977.21,-578.6 1269.63,-578.6 1269.63,-543 977.21,-543"/>
<text text-anchor="start" x="984.21" y="-556.4" font-family="Arial Bold" font-size="18.00">fxTransferParticipant</text>
<text text-anchor="start" x="1138.14" y="-556.4" font-family="Arial" font-size="14.00">    </text>
<text text-anchor="start" x="1169.26" y="-556.4" font-family="Arial" font-size="14.00" fill="#666666">[BASE TABLE]</text>
<polygon fill="none" stroke="black" points="977.21,-512.2 977.21,-543 1269.63,-543 1269.63,-512.2 977.21,-512.2"/>
<text text-anchor="start" x="984.21" y="-524.4" font-family="Arial" font-size="14.00">fxTransferParticipantId </text>
<text text-anchor="start" x="1128.94" y="-524.4" font-family="Arial" font-size="14.00" fill="#666666">[bigint unsigned]</text>
<polygon fill="none" stroke="black" points="977.21,-481.4 977.21,-512.2 1269.63,-512.2 1269.63,-481.4 977.21,-481.4"/>
<text text-anchor="start" x="984.21" y="-493.6" font-family="Arial" font-size="14.00">commitRequestId </text>
<text text-anchor="start" x="1097.03" y="-493.6" font-family="Arial" font-size="14.00" fill="#666666">[varchar(36)]</text>
<polygon fill="none" stroke="black" points="977.21,-450.6 977.21,-481.4 1269.63,-481.4 1269.63,-450.6 977.21,-450.6"/>
<text text-anchor="start" x="984.21" y="-462.8" font-family="Arial" font-size="14.00">participantCurrencyId </text>
<text text-anchor="start" x="1121.16" y="-462.8" font-family="Arial" font-size="14.00" fill="#666666">[int unsigned]</text>
<polygon fill="none" stroke="black" points="977.21,-419.8 977.21,-450.6 1269.63,-450.6 1269.63,-419.8 977.21,-419.8"/>
<text text-anchor="start" x="984.21" y="-432" font-family="Arial" font-size="14.00">transferParticipantRoleTypeId </text>
<text text-anchor="start" x="1173.3" y="-432" font-family="Arial" font-size="14.00" fill="#666666">[int unsigned]</text>
<polygon fill="none" stroke="black" points="977.21,-389 977.21,-419.8 1269.63,-419.8 1269.63,-389 977.21,-389"/>
<text text-anchor="start" x="984.21" y="-401.2" font-family="Arial" font-size="14.00">ledgerEntryTypeId </text>
<text text-anchor="start" x="1102.49" y="-401.2" font-family="Arial" font-size="14.00" fill="#666666">[int unsigned]</text>
<polygon fill="none" stroke="black" points="977.21,-358.2 977.21,-389 1269.63,-389 1269.63,-358.2 977.21,-358.2"/>
<text text-anchor="start" x="984.21" y="-370.4" font-family="Arial" font-size="14.00">fxParticipantCurrencyTypeId </text>
<text text-anchor="start" x="1164.73" y="-370.4" font-family="Arial" font-size="14.00" fill="#666666">[int unsigned]</text>
<polygon fill="none" stroke="black" points="977.21,-327.4 977.21,-358.2 1269.63,-358.2 1269.63,-327.4 977.21,-327.4"/>
<text text-anchor="start" x="984.21" y="-339.6" font-family="Arial" font-size="14.00">externalParticipantId </text>
<text text-anchor="start" x="1115.73" y="-339.6" font-family="Arial" font-size="14.00" fill="#666666">[bigint unsigned]</text>
<polygon fill="none" stroke="black" stroke-width="3" points="975.71,-325.9 975.71,-580.1 1271.13,-580.1 1271.13,-325.9 975.71,-325.9"/>
</g>
<!-- fxTransfer -->
<g id="node2" class="node">
<title>fxTransfer</title>
<polygon fill="#efefef" stroke="none" points="43.2,-151 43.2,-186.6 257.64,-186.6 257.64,-151 43.2,-151"/>
<polygon fill="none" stroke="black" points="43.2,-151 43.2,-186.6 257.64,-186.6 257.64,-151 43.2,-151"/>
<text text-anchor="start" x="50.2" y="-164.4" font-family="Arial Bold" font-size="18.00">fxTransfer</text>
<text text-anchor="start" x="126.16" y="-164.4" font-family="Arial" font-size="14.00">    </text>
<text text-anchor="start" x="157.27" y="-164.4" font-family="Arial" font-size="14.00" fill="#666666">[BASE TABLE]</text>
<polygon fill="none" stroke="black" points="43.2,-120.2 43.2,-151 257.64,-151 257.64,-120.2 43.2,-120.2"/>
<text text-anchor="start" x="50.2" y="-132.4" font-family="Arial" font-size="14.00">commitRequestId </text>
<text text-anchor="start" x="163.02" y="-132.4" font-family="Arial" font-size="14.00" fill="#666666">[varchar(36)]</text>
<polygon fill="none" stroke="black" points="43.2,-89.4 43.2,-120.2 257.64,-120.2 257.64,-89.4 43.2,-89.4"/>
<text text-anchor="start" x="50.2" y="-101.6" font-family="Arial" font-size="14.00">sourceCurrency </text>
<text text-anchor="start" x="152.9" y="-101.6" font-family="Arial" font-size="14.00" fill="#666666">[varchar(3)]</text>
<polygon fill="none" stroke="black" points="43.2,-58.6 43.2,-89.4 257.64,-89.4 257.64,-58.6 43.2,-58.6"/>
<text text-anchor="start" x="50.2" y="-70.8" font-family="Arial" font-size="14.00">targetCurrency </text>
<text text-anchor="start" x="146.68" y="-70.8" font-family="Arial" font-size="14.00" fill="#666666">[varchar(3)]</text>
</g>
<!-- fxTransferParticipant&#45;&gt;fxTransfer -->
<g id="edge1" class="edge">
<title>fxTransferParticipant:commitRequestId&#45;&gt;fxTransfer:commitRequestId</title>
<path fill="none" stroke="black" d="M966.09,-496.79C657.35,-495.98 540.37,-457.45 310.42,-245.2 270.83,-208.66 312.52,-135.6 258.64,-135.6"/>
<polygon fill="black" stroke="black" points="965.88,-496.79 975.87,-501.3 971.21,-496.79 975.54,-496.8 975.54,-496.8 975.54,-496.8 971.21,-496.79 975.88,-492.3 965.88,-496.79"/>
<text text-anchor="start" x="607.46" y="-506.8" font-family="Arial" font-size="10.00">FOREIGN KEY (commitRequestId) REFERENCES fxTransfer (commitRequestId)</text>
</g>
<!-- participantCurrency -->
<g id="node3" class="node">
<title>participantCurrency</title>
<polygon fill="#efefef" stroke="none" points="362.21,-166.4 362.21,-202 644.64,-202 644.64,-166.4 362.21,-166.4"/>
<polygon fill="none" stroke="black" points="362.21,-166.4 362.21,-202 644.64,-202 644.64,-166.4 362.21,-166.4"/>
<text text-anchor="start" x="369.21" y="-179.8" font-family="Arial Bold" font-size="18.00">participantCurrency</text>
<text text-anchor="start" x="513.15" y="-179.8" font-family="Arial" font-size="14.00">    </text>
<text text-anchor="start" x="544.26" y="-179.8" font-family="Arial" font-size="14.00" fill="#666666">[BASE TABLE]</text>
<polygon fill="none" stroke="black" points="362.21,-135.6 362.21,-166.4 644.64,-166.4 644.64,-135.6 362.21,-135.6"/>
<text text-anchor="start" x="369.21" y="-147.8" font-family="Arial" font-size="14.00">participantCurrencyId </text>
<text text-anchor="start" x="506.16" y="-147.8" font-family="Arial" font-size="14.00" fill="#666666">[int unsigned]</text>
<polygon fill="none" stroke="black" points="362.21,-104.8 362.21,-135.6 644.64,-135.6 644.64,-104.8 362.21,-104.8"/>
<text text-anchor="start" x="369.21" y="-117" font-family="Arial" font-size="14.00">participantId </text>
<text text-anchor="start" x="449.37" y="-117" font-family="Arial" font-size="14.00" fill="#666666">[int unsigned]</text>
<polygon fill="none" stroke="black" points="362.21,-74 362.21,-104.8 644.64,-104.8 644.64,-74 362.21,-74"/>
<text text-anchor="start" x="369.21" y="-86.2" font-family="Arial" font-size="14.00">currencyId </text>
<text text-anchor="start" x="438.46" y="-86.2" font-family="Arial" font-size="14.00" fill="#666666">[varchar(3)]</text>
<polygon fill="none" stroke="black" points="362.21,-43.2 362.21,-74 644.64,-74 644.64,-43.2 362.21,-43.2"/>
<text text-anchor="start" x="369.21" y="-55.4" font-family="Arial" font-size="14.00">ledgerAccountTypeId </text>
<text text-anchor="start" x="505.4" y="-55.4" font-family="Arial" font-size="14.00" fill="#666666">[int unsigned]</text>
</g>
<!-- fxTransferParticipant&#45;&gt;participantCurrency -->
<g id="edge2" class="edge">
<title>fxTransferParticipant:participantCurrencyId&#45;&gt;participantCurrency:participantCurrencyId</title>
<path fill="none" stroke="black" d="M966.22,-465.86C817.31,-461.69 797.27,-363.31 697.42,-245.2 666.58,-208.71 693.41,-151 645.64,-151"/>
<polygon fill="black" stroke="black" points="965.88,-465.86 975.82,-470.49 971.21,-465.93 975.54,-465.99 975.54,-465.99 975.54,-465.99 971.21,-465.93 975.94,-461.5 965.88,-465.86"/>
<text text-anchor="start" x="531.3" y="-476" font-family="Arial" font-size="10.00">FOREIGN KEY (participantCurrencyId) REFERENCES participantCurrency (participantCurrencyId)</text>
</g>
<!-- transferParticipantRoleType -->
<g id="node4" class="node">
<title>transferParticipantRoleType</title>
<polygon fill="#efefef" stroke="none" points="749.22,-120.2 749.22,-155.8 1091.63,-155.8 1091.63,-120.2 749.22,-120.2"/>
<polygon fill="none" stroke="black" points="749.22,-120.2 749.22,-155.8 1091.63,-155.8 1091.63,-120.2 749.22,-120.2"/>
<text text-anchor="start" x="756.22" y="-133.6" font-family="Arial Bold" font-size="18.00">transferParticipantRoleType</text>
<text text-anchor="start" x="960.14" y="-133.6" font-family="Arial" font-size="14.00">    </text>
<text text-anchor="start" x="991.26" y="-133.6" font-family="Arial" font-size="14.00" fill="#666666">[BASE TABLE]</text>
<polygon fill="none" stroke="black" points="749.22,-89.4 749.22,-120.2 1091.63,-120.2 1091.63,-89.4 749.22,-89.4"/>
<text text-anchor="start" x="756.22" y="-101.6" font-family="Arial" font-size="14.00">transferParticipantRoleTypeId </text>
<text text-anchor="start" x="945.3" y="-101.6" font-family="Arial" font-size="14.00" fill="#666666">[int unsigned]</text>
</g>
<!-- fxTransferParticipant&#45;&gt;transferParticipantRoleType -->
<g id="edge3" class="edge">
<title>fxTransferParticipant:transferParticipantRoleTypeId&#45;&gt;transferParticipantRoleType:transferParticipantRoleTypeId</title>
<path fill="none" stroke="black" d="M965.92,-434.38C911.9,-425.1 947.5,-338.68 977.21,-281.2 1005.97,-225.58 1062.76,-254.56 1091.63,-199 1110.93,-161.85 1134.5,-104.8 1092.63,-104.8"/>
<polygon fill="black" stroke="black" points="965.91,-434.38 975.52,-439.66 971.23,-434.8 975.54,-435.15 975.54,-435.15 975.54,-435.15 971.23,-434.8 976.23,-430.69 965.91,-434.38"/>
<text text-anchor="start" x="419.57" y="-445.2" font-family="Arial" font-size="10.00">FOREIGN KEY (transferParticipantRoleTypeId) REFERENCES transferParticipantRoleType (transferParticipantRoleTypeId)</text>
</g>
<!-- ledgerEntryType -->
<g id="node5" class="node">
<title>ledgerEntryType</title>
<polygon fill="#efefef" stroke="none" points="1196.2,-135.6 1196.2,-171.2 1456.64,-171.2 1456.64,-135.6 1196.2,-135.6"/>
<polygon fill="none" stroke="black" points="1196.2,-135.6 1196.2,-171.2 1456.64,-171.2 1456.64,-135.6 1196.2,-135.6"/>
<text text-anchor="start" x="1203.2" y="-149" font-family="Arial Bold" font-size="18.00">ledgerEntryType</text>
<text text-anchor="start" x="1325.15" y="-149" font-family="Arial" font-size="14.00">    </text>
<text text-anchor="start" x="1356.27" y="-149" font-family="Arial" font-size="14.00" fill="#666666">[BASE TABLE]</text>
<polygon fill="none" stroke="black" points="1196.2,-104.8 1196.2,-135.6 1456.64,-135.6 1456.64,-104.8 1196.2,-104.8"/>
<text text-anchor="start" x="1203.2" y="-117" font-family="Arial" font-size="14.00">ledgerEntryTypeId </text>
<text text-anchor="start" x="1321.49" y="-117" font-family="Arial" font-size="14.00" fill="#666666">[int unsigned]</text>
<polygon fill="none" stroke="black" points="1196.2,-74 1196.2,-104.8 1456.64,-104.8 1456.64,-74 1196.2,-74"/>
<text text-anchor="start" x="1203.2" y="-86.2" font-family="Arial" font-size="14.00">ledgerAccountTypeId </text>
<text text-anchor="start" x="1339.4" y="-86.2" font-family="Arial" font-size="14.00" fill="#666666">[int unsigned]</text>
</g>
<!-- fxTransferParticipant&#45;&gt;ledgerEntryType -->
<g id="edge4" class="edge">
<title>fxTransferParticipant:ledgerEntryTypeId&#45;&gt;ledgerEntryType:ledgerEntryTypeId</title>
<path fill="none" stroke="black" d="M1280.91,-403.35C1320.75,-394.22 1290.41,-327.68 1269.63,-281.2 1251.63,-240.92 1214.26,-254.66 1196.2,-214.4 1179.07,-176.2 1153.33,-120.2 1195.2,-120.2"/>
<polygon fill="black" stroke="black" points="1280.91,-403.35 1270.51,-399.89 1275.61,-403.89 1271.3,-404.33 1271.3,-404.33 1271.3,-404.33 1275.61,-403.89 1271.42,-408.84 1280.91,-403.35"/>
<text text-anchor="start" x="1277.63" y="-414.4" font-family="Arial" font-size="10.00">FOREIGN KEY (ledgerEntryTypeId) REFERENCES ledgerEntryType (ledgerEntryTypeId)</text>
</g>
<!-- fxParticipantCurrencyType -->
<g id="node6" class="node">
<title>fxParticipantCurrencyType</title>
<polygon fill="#efefef" stroke="none" points="1560.71,-120.2 1560.71,-155.8 1896.13,-155.8 1896.13,-120.2 1560.71,-120.2"/>
<polygon fill="none" stroke="black" points="1560.71,-120.2 1560.71,-155.8 1896.13,-155.8 1896.13,-120.2 1560.71,-120.2"/>
<text text-anchor="start" x="1567.71" y="-133.6" font-family="Arial Bold" font-size="18.00">fxParticipantCurrencyType</text>
<text text-anchor="start" x="1764.64" y="-133.6" font-family="Arial" font-size="14.00">    </text>
<text text-anchor="start" x="1795.76" y="-133.6" font-family="Arial" font-size="14.00" fill="#666666">[BASE TABLE]</text>
<polygon fill="none" stroke="black" points="1560.71,-89.4 1560.71,-120.2 1896.13,-120.2 1896.13,-89.4 1560.71,-89.4"/>
<text text-anchor="start" x="1567.71" y="-101.6" font-family="Arial" font-size="14.00">fxParticipantCurrencyTypeId </text>
<text text-anchor="start" x="1748.23" y="-101.6" font-family="Arial" font-size="14.00" fill="#666666">[int unsigned]</text>
</g>
<!-- fxTransferParticipant&#45;&gt;fxParticipantCurrencyType -->
<g id="edge5" class="edge">
<title>fxTransferParticipant:fxParticipantCurrencyTypeId&#45;&gt;fxParticipantCurrencyType:fxParticipantCurrencyTypeId</title>
<path fill="none" stroke="black" d="M1280.98,-373.5C1393.07,-371.35 1432.16,-333.39 1508.42,-245.2 1551.88,-194.95 1493.28,-104.8 1559.71,-104.8"/>
<polygon fill="black" stroke="black" points="1280.97,-373.5 1270.92,-369.1 1275.63,-373.55 1271.3,-373.59 1271.3,-373.59 1271.3,-373.59 1275.63,-373.55 1271.01,-378.1 1280.97,-373.5"/>
<text text-anchor="start" x="1277.63" y="-383.6" font-family="Arial" font-size="10.00">FOREIGN KEY (fxParticipantCurrencyTypeId) REFERENCES fxParticipantCurrencyType (fxParticipantCurrencyTypeId)</text>
</g>
<!-- externalParticipant -->
<g id="node7" class="node">
<title>externalParticipant</title>
<polygon fill="#efefef" stroke="none" points="2000.21,-135.6 2000.21,-171.2 2274.64,-171.2 2274.64,-135.6 2000.21,-135.6"/>
<polygon fill="none" stroke="black" points="2000.21,-135.6 2000.21,-171.2 2274.64,-171.2 2274.64,-135.6 2000.21,-135.6"/>
<text text-anchor="start" x="2007.21" y="-149" font-family="Arial Bold" font-size="18.00">externalParticipant</text>
<text text-anchor="start" x="2143.15" y="-149" font-family="Arial" font-size="14.00">    </text>
<text text-anchor="start" x="2174.26" y="-149" font-family="Arial" font-size="14.00" fill="#666666">[BASE TABLE]</text>
<polygon fill="none" stroke="black" points="2000.21,-104.8 2000.21,-135.6 2274.64,-135.6 2274.64,-104.8 2000.21,-104.8"/>
<text text-anchor="start" x="2007.21" y="-117" font-family="Arial" font-size="14.00">externalParticipantId </text>
<text text-anchor="start" x="2138.72" y="-117" font-family="Arial" font-size="14.00" fill="#666666">[bigint unsigned]</text>
<polygon fill="none" stroke="black" points="2000.21,-74 2000.21,-104.8 2274.64,-104.8 2274.64,-74 2000.21,-74"/>
<text text-anchor="start" x="2007.21" y="-86.2" font-family="Arial" font-size="14.00">proxyId </text>
<text text-anchor="start" x="2057.01" y="-86.2" font-family="Arial" font-size="14.00" fill="#666666">[int unsigned]</text>
</g>
<!-- fxTransferParticipant&#45;&gt;externalParticipant -->
<g id="edge6" class="edge">
<title>fxTransferParticipant:externalParticipantId&#45;&gt;externalParticipant:externalParticipantId</title>
<path fill="none" stroke="black" d="M1280.79,-342.79C1440.11,-342.59 1831.15,-336.96 1948.42,-245.2 1995.65,-208.25 1939.24,-120.2 1999.21,-120.2"/>
<polygon fill="black" stroke="black" points="1280.97,-342.79 1270.96,-338.3 1275.63,-342.8 1271.3,-342.8 1271.3,-342.8 1271.3,-342.8 1275.63,-342.8 1270.97,-347.3 1280.97,-342.79"/>
<text text-anchor="start" x="1277.63" y="-352.8" font-family="Arial" font-size="10.00">FOREIGN KEY (externalParticipantId) REFERENCES externalParticipant (externalParticipantId)</text>
</g>
</g>
</svg>
