<?xml version="1.0" encoding="UTF-8" standalone="no"?>
<!DOCTYPE svg PUBLIC "-//W3C//DTD SVG 1.1//EN"
 "http://www.w3.org/Graphics/SVG/1.1/DTD/svg11.dtd">
<!-- Generated by graphviz version 12.1.2 (20240928.0832)
 -->
<!-- Title: fxTransferFulfilmentDuplicateCheck Pages: 1 -->
<svg width="837pt" height="664pt"
 viewBox="0.00 0.00 837.35 663.60" xmlns="http://www.w3.org/2000/svg" xmlns:xlink="http://www.w3.org/1999/xlink">
<g id="graph0" class="graph" transform="scale(1 1) rotate(0) translate(4 659.6)">
<title>fxTransferFulfilmentDuplicateCheck</title>
<polygon fill="white" stroke="none" points="-4,4 -4,-659.6 833.35,-659.6 833.35,4 -4,4"/>
<!-- fxTransferFulfilmentDuplicateCheck -->
<g id="node1" class="node">
<title>fxTransferFulfilmentDuplicateCheck</title>
<polygon fill="#efefef" stroke="none" points="46.2,-573.8 46.2,-609.4 452.6,-609.4 452.6,-573.8 46.2,-573.8"/>
<polygon fill="none" stroke="black" points="46.2,-573.8 46.2,-609.4 452.6,-609.4 452.6,-573.8 46.2,-573.8"/>
<text text-anchor="start" x="53.2" y="-587.2" font-family="Arial Bold" font-size="18.00">fxTransferFulfilmentDuplicateCheck</text>
<text text-anchor="start" x="321.11" y="-587.2" font-family="Arial" font-size="14.00">    </text>
<text text-anchor="start" x="352.23" y="-587.2" font-family="Arial" font-size="14.00" fill="#666666">[BASE TABLE]</text>
<polygon fill="none" stroke="black" points="46.2,-543 46.2,-573.8 452.6,-573.8 452.6,-543 46.2,-543"/>
<text text-anchor="start" x="53.2" y="-555.2" font-family="Arial" font-size="14.00">commitRequestId </text>
<text text-anchor="start" x="166.02" y="-555.2" font-family="Arial" font-size="14.00" fill="#666666">[varchar(36)]</text>
<polygon fill="none" stroke="black" points="46.2,-512.2 46.2,-543 452.6,-543 452.6,-512.2 46.2,-512.2"/>
<text text-anchor="start" x="53.2" y="-524.4" font-family="Arial" font-size="14.00">hash </text>
<text text-anchor="start" x="87.45" y="-524.4" font-family="Arial" font-size="14.00" fill="#666666">[varchar(256)]</text>
<polygon fill="none" stroke="black" points="46.2,-481.4 46.2,-512.2 452.6,-512.2 452.6,-481.4 46.2,-481.4"/>
<text text-anchor="start" x="53.2" y="-493.6" font-family="Arial" font-size="14.00">createdDate </text>
<text text-anchor="start" x="133.36" y="-493.6" font-family="Arial" font-size="14.00" fill="#666666">[datetime]</text>
<polygon fill="none" stroke="black" stroke-width="3" points="44.7,-479.9 44.7,-610.9 454.1,-610.9 454.1,-479.9 44.7,-479.9"/>
</g>
<!-- fxTransfer -->
<g id="node2" class="node">
<title>fxTransfer</title>
<polygon fill="#efefef" stroke="none" points="132.3,-320.4 132.3,-356 366.5,-356 366.5,-320.4 132.3,-320.4"/>
<polygon fill="none" stroke="black" points="132.3,-320.4 132.3,-356 366.5,-356 366.5,-320.4 132.3,-320.4"/>
<text text-anchor="start" x="149.18" y="-333.8" font-family="Arial Bold" font-size="18.00">fxTransfer</text>
<text text-anchor="start" x="225.13" y="-333.8" font-family="Arial" font-size="14.00">    </text>
<text text-anchor="start" x="256.25" y="-333.8" font-family="Arial" font-size="14.00" fill="#666666">[BASE TABLE]</text>
<polygon fill="none" stroke="black" points="132.3,-289.6 132.3,-320.4 366.5,-320.4 366.5,-289.6 132.3,-289.6"/>
<text text-anchor="start" x="139.3" y="-301.8" font-family="Arial" font-size="14.00">commitRequestId </text>
<text text-anchor="start" x="252.12" y="-301.8" font-family="Arial" font-size="14.00" fill="#666666">[varchar(36)]</text>
<polygon fill="none" stroke="black" points="132.3,-258.8 132.3,-289.6 366.5,-289.6 366.5,-258.8 132.3,-258.8"/>
<text text-anchor="start" x="139.3" y="-271" font-family="Arial" font-size="14.00">determiningTransferId </text>
<text text-anchor="start" x="280.14" y="-271" font-family="Arial" font-size="14.00" fill="#666666">[varchar(36)]</text>
<polygon fill="none" stroke="black" points="132.3,-228 132.3,-258.8 366.5,-258.8 366.5,-228 132.3,-228"/>
<text text-anchor="start" x="139.3" y="-240.2" font-family="Arial" font-size="14.00">sourceAmount </text>
<text text-anchor="start" x="233.46" y="-240.2" font-family="Arial" font-size="14.00" fill="#666666">[decimal(18,4)]</text>
<polygon fill="none" stroke="black" points="132.3,-197.2 132.3,-228 366.5,-228 366.5,-197.2 132.3,-197.2"/>
<text text-anchor="start" x="139.3" y="-209.4" font-family="Arial" font-size="14.00">targetAmount </text>
<text text-anchor="start" x="227.24" y="-209.4" font-family="Arial" font-size="14.00" fill="#666666">[decimal(18,4)]</text>
<polygon fill="none" stroke="black" points="132.3,-166.4 132.3,-197.2 366.5,-197.2 366.5,-166.4 132.3,-166.4"/>
<text text-anchor="start" x="139.3" y="-178.6" font-family="Arial" font-size="14.00">sourceCurrency </text>
<text text-anchor="start" x="242" y="-178.6" font-family="Arial" font-size="14.00" fill="#666666">[varchar(3)]</text>
<polygon fill="none" stroke="black" points="132.3,-135.6 132.3,-166.4 366.5,-166.4 366.5,-135.6 132.3,-135.6"/>
<text text-anchor="start" x="139.3" y="-147.8" font-family="Arial" font-size="14.00">targetCurrency </text>
<text text-anchor="start" x="235.78" y="-147.8" font-family="Arial" font-size="14.00" fill="#666666">[varchar(3)]</text>
<polygon fill="none" stroke="black" points="132.3,-104.8 132.3,-135.6 366.5,-135.6 366.5,-104.8 132.3,-104.8"/>
<text text-anchor="start" x="139.3" y="-117" font-family="Arial" font-size="14.00">ilpCondition </text>
<text text-anchor="start" x="216.35" y="-117" font-family="Arial" font-size="14.00" fill="#666666">[varchar(256)]</text>
<polygon fill="none" stroke="black" points="132.3,-74 132.3,-104.8 366.5,-104.8 366.5,-74 132.3,-74"/>
<text text-anchor="start" x="139.3" y="-86.2" font-family="Arial" font-size="14.00">expirationDate </text>
<text text-anchor="start" x="233.46" y="-86.2" font-family="Arial" font-size="14.00" fill="#666666">[datetime]</text>
<polygon fill="none" stroke="black" points="132.3,-43.2 132.3,-74 366.5,-74 366.5,-43.2 132.3,-43.2"/>
<text text-anchor="start" x="139.3" y="-55.4" font-family="Arial" font-size="14.00">createdDate </text>
<text text-anchor="start" x="219.46" y="-55.4" font-family="Arial" font-size="14.00" fill="#666666">[datetime]</text>
</g>
<!-- fxTransferFulfilmentDuplicateCheck&#45;&gt;fxTransfer -->
<g id="edge1" class="edge">
<title>fxTransferFulfilmentDuplicateCheck:commitRequestId&#45;&gt;fxTransfer:commitRequestId</title>
<path fill="none" stroke="black" d="M463.84,-557.72C567.3,-543.29 482.84,-305 367.5,-305"/>
<polygon fill="black" stroke="black" points="463.91,-557.71 453.63,-553.89 458.59,-558.07 454.26,-558.36 454.26,-558.36 454.26,-558.36 458.59,-558.07 454.23,-562.87 463.91,-557.71"/>
<text text-anchor="start" x="460.6" y="-568.4" font-family="Arial" font-size="10.00">FOREIGN KEY (commitRequestId) REFERENCES fxTransfer (commitRequestId)</text>
</g>
</g>
</svg>
