<?xml version="1.0" encoding="UTF-8" standalone="no"?>
<!DOCTYPE svg PUBLIC "-//W3C//DTD SVG 1.1//EN"
 "http://www.w3.org/Graphics/SVG/1.1/DTD/svg11.dtd">
<!-- Generated by graphviz version 12.1.2 (20240928.0832)
 -->
<!-- Title: fxWatchList Pages: 1 -->
<svg width="1013pt" height="725pt"
 viewBox="0.00 0.00 1013.47 725.20" xmlns="http://www.w3.org/2000/svg" xmlns:xlink="http://www.w3.org/1999/xlink">
<g id="graph0" class="graph" transform="scale(1 1) rotate(0) translate(4 721.2)">
<title>fxWatchList</title>
<polygon fill="white" stroke="none" points="-4,4 -4,-721.2 1009.47,-721.2 1009.47,4 -4,4"/>
<!-- fxWatchList -->
<g id="node1" class="node">
<title>fxWatchList</title>
<polygon fill="#efefef" stroke="none" points="376.75,-635.4 376.75,-671 610.95,-671 610.95,-635.4 376.75,-635.4"/>
<polygon fill="none" stroke="black" points="376.75,-635.4 376.75,-671 610.95,-671 610.95,-635.4 376.75,-635.4"/>
<text text-anchor="start" x="386.62" y="-648.8" font-family="Arial Bold" font-size="18.00">fxWatchList</text>
<text text-anchor="start" x="476.59" y="-648.8" font-family="Arial" font-size="14.00">    </text>
<text text-anchor="start" x="507.7" y="-648.8" font-family="Arial" font-size="14.00" fill="#666666">[BASE TABLE]</text>
<polygon fill="none" stroke="black" points="376.75,-604.6 376.75,-635.4 610.95,-635.4 610.95,-604.6 376.75,-604.6"/>
<text text-anchor="start" x="383.75" y="-616.8" font-family="Arial" font-size="14.00">fxWatchListId </text>
<text text-anchor="start" x="471.67" y="-616.8" font-family="Arial" font-size="14.00" fill="#666666">[bigint unsigned]</text>
<polygon fill="none" stroke="black" points="376.75,-573.8 376.75,-604.6 610.95,-604.6 610.95,-573.8 376.75,-573.8"/>
<text text-anchor="start" x="383.75" y="-586" font-family="Arial" font-size="14.00">commitRequestId </text>
<text text-anchor="start" x="496.57" y="-586" font-family="Arial" font-size="14.00" fill="#666666">[varchar(36)]</text>
<polygon fill="none" stroke="black" points="376.75,-543 376.75,-573.8 610.95,-573.8 610.95,-543 376.75,-543"/>
<text text-anchor="start" x="383.75" y="-555.2" font-family="Arial" font-size="14.00">determiningTransferId </text>
<text text-anchor="start" x="524.59" y="-555.2" font-family="Arial" font-size="14.00" fill="#666666">[varchar(36)]</text>
<polygon fill="none" stroke="black" points="376.75,-512.2 376.75,-543 610.95,-543 610.95,-512.2 376.75,-512.2"/>
<text text-anchor="start" x="383.75" y="-524.4" font-family="Arial" font-size="14.00">fxTransferTypeId </text>
<text text-anchor="start" x="493.45" y="-524.4" font-family="Arial" font-size="14.00" fill="#666666">[int unsigned]</text>
<polygon fill="none" stroke="black" points="376.75,-481.4 376.75,-512.2 610.95,-512.2 610.95,-481.4 376.75,-481.4"/>
<text text-anchor="start" x="383.75" y="-493.6" font-family="Arial" font-size="14.00">createdDate </text>
<text text-anchor="start" x="463.91" y="-493.6" font-family="Arial" font-size="14.00" fill="#666666">[datetime]</text>
<polygon fill="none" stroke="black" stroke-width="3" points="375.25,-479.9 375.25,-672.5 612.45,-672.5 612.45,-479.9 375.25,-479.9"/>
</g>
<!-- fxTransfer -->
<g id="node2" class="node">
<title>fxTransfer</title>
<polygon fill="#efefef" stroke="none" points="203.75,-320.4 203.75,-356 437.95,-356 437.95,-320.4 203.75,-320.4"/>
<polygon fill="none" stroke="black" points="203.75,-320.4 203.75,-356 437.95,-356 437.95,-320.4 203.75,-320.4"/>
<text text-anchor="start" x="220.63" y="-333.8" font-family="Arial Bold" font-size="18.00">fxTransfer</text>
<text text-anchor="start" x="296.58" y="-333.8" font-family="Arial" font-size="14.00">    </text>
<text text-anchor="start" x="327.7" y="-333.8" font-family="Arial" font-size="14.00" fill="#666666">[BASE TABLE]</text>
<polygon fill="none" stroke="black" points="203.75,-289.6 203.75,-320.4 437.95,-320.4 437.95,-289.6 203.75,-289.6"/>
<text text-anchor="start" x="210.75" y="-301.8" font-family="Arial" font-size="14.00">commitRequestId </text>
<text text-anchor="start" x="323.57" y="-301.8" font-family="Arial" font-size="14.00" fill="#666666">[varchar(36)]</text>
<polygon fill="none" stroke="black" points="203.75,-258.8 203.75,-289.6 437.95,-289.6 437.95,-258.8 203.75,-258.8"/>
<text text-anchor="start" x="210.75" y="-271" font-family="Arial" font-size="14.00">determiningTransferId </text>
<text text-anchor="start" x="351.59" y="-271" font-family="Arial" font-size="14.00" fill="#666666">[varchar(36)]</text>
<polygon fill="none" stroke="black" points="203.75,-228 203.75,-258.8 437.95,-258.8 437.95,-228 203.75,-228"/>
<text text-anchor="start" x="210.75" y="-240.2" font-family="Arial" font-size="14.00">sourceAmount </text>
<text text-anchor="start" x="304.91" y="-240.2" font-family="Arial" font-size="14.00" fill="#666666">[decimal(18,4)]</text>
<polygon fill="none" stroke="black" points="203.75,-197.2 203.75,-228 437.95,-228 437.95,-197.2 203.75,-197.2"/>
<text text-anchor="start" x="210.75" y="-209.4" font-family="Arial" font-size="14.00">targetAmount </text>
<text text-anchor="start" x="298.69" y="-209.4" font-family="Arial" font-size="14.00" fill="#666666">[decimal(18,4)]</text>
<polygon fill="none" stroke="black" points="203.75,-166.4 203.75,-197.2 437.95,-197.2 437.95,-166.4 203.75,-166.4"/>
<text text-anchor="start" x="210.75" y="-178.6" font-family="Arial" font-size="14.00">sourceCurrency </text>
<text text-anchor="start" x="313.45" y="-178.6" font-family="Arial" font-size="14.00" fill="#666666">[varchar(3)]</text>
<polygon fill="none" stroke="black" points="203.75,-135.6 203.75,-166.4 437.95,-166.4 437.95,-135.6 203.75,-135.6"/>
<text text-anchor="start" x="210.75" y="-147.8" font-family="Arial" font-size="14.00">targetCurrency </text>
<text text-anchor="start" x="307.23" y="-147.8" font-family="Arial" font-size="14.00" fill="#666666">[varchar(3)]</text>
<polygon fill="none" stroke="black" points="203.75,-104.8 203.75,-135.6 437.95,-135.6 437.95,-104.8 203.75,-104.8"/>
<text text-anchor="start" x="210.75" y="-117" font-family="Arial" font-size="14.00">ilpCondition </text>
<text text-anchor="start" x="287.8" y="-117" font-family="Arial" font-size="14.00" fill="#666666">[varchar(256)]</text>
<polygon fill="none" stroke="black" points="203.75,-74 203.75,-104.8 437.95,-104.8 437.95,-74 203.75,-74"/>
<text text-anchor="start" x="210.75" y="-86.2" font-family="Arial" font-size="14.00">expirationDate </text>
<text text-anchor="start" x="304.91" y="-86.2" font-family="Arial" font-size="14.00" fill="#666666">[datetime]</text>
<polygon fill="none" stroke="black" points="203.75,-43.2 203.75,-74 437.95,-74 437.95,-43.2 203.75,-43.2"/>
<text text-anchor="start" x="210.75" y="-55.4" font-family="Arial" font-size="14.00">createdDate </text>
<text text-anchor="start" x="290.91" y="-55.4" font-family="Arial" font-size="14.00" fill="#666666">[datetime]</text>
</g>
<!-- fxWatchList&#45;&gt;fxTransfer -->
<g id="edge1" class="edge">
<title>fxWatchList:commitRequestId&#45;&gt;fxTransfer:commitRequestId</title>
<path fill="none" stroke="black" d="M365.43,-588.37C311.16,-578.95 344.44,-491.26 376.75,-435.2 392.5,-407.86 422.14,-426.51 437.95,-399.2 458.93,-362.97 480.82,-305 438.95,-305"/>
<polygon fill="black" stroke="black" points="365.45,-588.37 375.05,-593.66 370.76,-588.8 375.08,-589.15 375.08,-589.15 375.08,-589.15 370.76,-588.8 375.77,-584.69 365.45,-588.37"/>
<text text-anchor="start" x="7" y="-599.2" font-family="Arial" font-size="10.00">FOREIGN KEY (commitRequestId) REFERENCES fxTransfer (commitRequestId)</text>
</g>
<!-- fxTransferType -->
<g id="node3" class="node">
<title>fxTransferType</title>
<polygon fill="#efefef" stroke="none" points="542.13,-243.4 542.13,-279 793.56,-279 793.56,-243.4 542.13,-243.4"/>
<polygon fill="none" stroke="black" points="542.13,-243.4 542.13,-279 793.56,-279 793.56,-243.4 542.13,-243.4"/>
<text text-anchor="start" x="549.13" y="-256.8" font-family="Arial Bold" font-size="18.00">fxTransferType</text>
<text text-anchor="start" x="662.07" y="-256.8" font-family="Arial" font-size="14.00">    </text>
<text text-anchor="start" x="693.19" y="-256.8" font-family="Arial" font-size="14.00" fill="#666666">[BASE TABLE]</text>
<polygon fill="none" stroke="black" points="542.13,-212.6 542.13,-243.4 793.56,-243.4 793.56,-212.6 542.13,-212.6"/>
<text text-anchor="start" x="549.13" y="-224.8" font-family="Arial" font-size="14.00">fxTransferTypeId </text>
<text text-anchor="start" x="658.84" y="-224.8" font-family="Arial" font-size="14.00" fill="#666666">[int unsigned]</text>
<polygon fill="none" stroke="black" points="542.13,-181.8 542.13,-212.6 793.56,-212.6 793.56,-181.8 542.13,-181.8"/>
<text text-anchor="start" x="549.13" y="-194" font-family="Arial" font-size="14.00">name </text>
<text text-anchor="start" x="588.04" y="-194" font-family="Arial" font-size="14.00" fill="#666666">[varchar(50)]</text>
<polygon fill="none" stroke="black" points="542.13,-151 542.13,-181.8 793.56,-181.8 793.56,-151 542.13,-151"/>
<text text-anchor="start" x="549.13" y="-163.2" font-family="Arial" font-size="14.00">description </text>
<text text-anchor="start" x="620.73" y="-163.2" font-family="Arial" font-size="14.00" fill="#666666">[varchar(512)]</text>
<polygon fill="none" stroke="black" points="542.13,-120.2 542.13,-151 793.56,-151 793.56,-120.2 542.13,-120.2"/>
<text text-anchor="start" x="549.13" y="-132.4" font-family="Arial" font-size="14.00">createdDate </text>
<text text-anchor="start" x="629.29" y="-132.4" font-family="Arial" font-size="14.00" fill="#666666">[datetime]</text>
</g>
<!-- fxWatchList&#45;&gt;fxTransferType -->
<g id="edge2" class="edge">
<title>fxWatchList:fxTransferTypeId&#45;&gt;fxTransferType:fxTransferTypeId</title>
<path fill="none" stroke="black" d="M622.11,-526.94C730.29,-511.44 408.05,-228 541.13,-228"/>
<polygon fill="black" stroke="black" points="622.26,-526.93 611.99,-523.09 616.94,-527.28 612.61,-527.56 612.61,-527.56 612.61,-527.56 616.94,-527.28 612.57,-532.07 622.26,-526.93"/>
<text text-anchor="start" x="618.95" y="-537.6" font-family="Arial" font-size="10.00">FOREIGN KEY (fxTransferTypeId) REFERENCES fxTransferType (fxTransferTypeId)</text>
</g>
</g>
</svg>
