<?xml version="1.0" encoding="UTF-8" standalone="no"?>
<!DOCTYPE svg PUBLIC "-//W3C//DTD SVG 1.1//EN"
 "http://www.w3.org/Graphics/SVG/1.1/DTD/svg11.dtd">
<!-- Generated by graphviz version 12.1.2 (20240928.0832)
 -->
<!-- Title: fxWatchList Pages: 1 -->
<svg width="1008pt" height="479pt"
 viewBox="0.00 0.00 1007.73 478.80" xmlns="http://www.w3.org/2000/svg" xmlns:xlink="http://www.w3.org/1999/xlink">
<g id="graph0" class="graph" transform="scale(1 1) rotate(0) translate(4 474.8)">
<title>fxWatchList</title>
<polygon fill="white" stroke="none" points="-4,4 -4,-474.8 1003.73,-474.8 1003.73,4 -4,4"/>
<!-- fxWatchList -->
<g id="node1" class="node">
<title>fxWatchList</title>
<polygon fill="#efefef" stroke="none" points="376.75,-389 376.75,-424.6 605.2,-424.6 605.2,-389 376.75,-389"/>
<polygon fill="none" stroke="black" points="376.75,-389 376.75,-424.6 605.2,-424.6 605.2,-389 376.75,-389"/>
<text text-anchor="start" x="383.75" y="-402.4" font-family="Arial Bold" font-size="18.00">fxWatchList</text>
<text text-anchor="start" x="473.71" y="-402.4" font-family="Arial" font-size="14.00">    </text>
<text text-anchor="start" x="504.83" y="-402.4" font-family="Arial" font-size="14.00" fill="#666666">[BASE TABLE]</text>
<polygon fill="none" stroke="black" points="376.75,-358.2 376.75,-389 605.2,-389 605.2,-358.2 376.75,-358.2"/>
<text text-anchor="start" x="383.75" y="-370.4" font-family="Arial" font-size="14.00">fxWatchListId </text>
<text text-anchor="start" x="471.67" y="-370.4" font-family="Arial" font-size="14.00" fill="#666666">[bigint unsigned]</text>
<polygon fill="none" stroke="black" points="376.75,-327.4 376.75,-358.2 605.2,-358.2 605.2,-327.4 376.75,-327.4"/>
<text text-anchor="start" x="383.75" y="-339.6" font-family="Arial" font-size="14.00">commitRequestId </text>
<text text-anchor="start" x="496.57" y="-339.6" font-family="Arial" font-size="14.00" fill="#666666">[varchar(36)]</text>
<polygon fill="none" stroke="black" points="376.75,-296.6 376.75,-327.4 605.2,-327.4 605.2,-296.6 376.75,-296.6"/>
<text text-anchor="start" x="383.75" y="-308.8" font-family="Arial" font-size="14.00">fxTransferTypeId </text>
<text text-anchor="start" x="493.45" y="-308.8" font-family="Arial" font-size="14.00" fill="#666666">[int unsigned]</text>
<polygon fill="none" stroke="black" stroke-width="3" points="375.25,-295.1 375.25,-426.1 606.7,-426.1 606.7,-295.1 375.25,-295.1"/>
</g>
<!-- fxTransfer -->
<g id="node2" class="node">
<title>fxTransfer</title>
<polygon fill="#efefef" stroke="none" points="215.75,-135.6 215.75,-171.2 430.2,-171.2 430.2,-135.6 215.75,-135.6"/>
<polygon fill="none" stroke="black" points="215.75,-135.6 215.75,-171.2 430.2,-171.2 430.2,-135.6 215.75,-135.6"/>
<text text-anchor="start" x="222.75" y="-149" font-family="Arial Bold" font-size="18.00">fxTransfer</text>
<text text-anchor="start" x="298.71" y="-149" font-family="Arial" font-size="14.00">    </text>
<text text-anchor="start" x="329.83" y="-149" font-family="Arial" font-size="14.00" fill="#666666">[BASE TABLE]</text>
<polygon fill="none" stroke="black" points="215.75,-104.8 215.75,-135.6 430.2,-135.6 430.2,-104.8 215.75,-104.8"/>
<text text-anchor="start" x="222.75" y="-117" font-family="Arial" font-size="14.00">commitRequestId </text>
<text text-anchor="start" x="335.57" y="-117" font-family="Arial" font-size="14.00" fill="#666666">[varchar(36)]</text>
<polygon fill="none" stroke="black" points="215.75,-74 215.75,-104.8 430.2,-104.8 430.2,-74 215.75,-74"/>
<text text-anchor="start" x="222.75" y="-86.2" font-family="Arial" font-size="14.00">sourceCurrency </text>
<text text-anchor="start" x="325.46" y="-86.2" font-family="Arial" font-size="14.00" fill="#666666">[varchar(3)]</text>
<polygon fill="none" stroke="black" points="215.75,-43.2 215.75,-74 430.2,-74 430.2,-43.2 215.75,-43.2"/>
<text text-anchor="start" x="222.75" y="-55.4" font-family="Arial" font-size="14.00">targetCurrency </text>
<text text-anchor="start" x="319.24" y="-55.4" font-family="Arial" font-size="14.00" fill="#666666">[varchar(3)]</text>
</g>
<!-- fxWatchList&#45;&gt;fxTransfer -->
<g id="edge1" class="edge">
<title>fxWatchList:commitRequestId&#45;&gt;fxTransfer:commitRequestId</title>
<path fill="none" stroke="black" d="M365.47,-341.26C339.06,-332.01 359.16,-283.02 376.75,-250.4 390.34,-225.19 416.61,-239.61 430.2,-214.4 450.06,-177.54 473.07,-120.2 431.2,-120.2"/>
<polygon fill="black" stroke="black" points="365.53,-341.27 374.75,-347.2 370.8,-342.06 375.09,-342.7 375.09,-342.7 375.09,-342.7 370.8,-342.06 376.08,-338.3 365.53,-341.27"/>
<text text-anchor="start" x="7" y="-352.8" font-family="Arial" font-size="10.00">FOREIGN KEY (commitRequestId) REFERENCES fxTransfer (commitRequestId)</text>
</g>
<!-- fxTransferType -->
<g id="node3" class="node">
<title>fxTransferType</title>
<polygon fill="#efefef" stroke="none" points="534.26,-104.8 534.26,-140.4 785.69,-140.4 785.69,-104.8 534.26,-104.8"/>
<polygon fill="none" stroke="black" points="534.26,-104.8 534.26,-140.4 785.69,-140.4 785.69,-104.8 534.26,-104.8"/>
<text text-anchor="start" x="541.26" y="-118.2" font-family="Arial Bold" font-size="18.00">fxTransferType</text>
<text text-anchor="start" x="654.2" y="-118.2" font-family="Arial" font-size="14.00">    </text>
<text text-anchor="start" x="685.32" y="-118.2" font-family="Arial" font-size="14.00" fill="#666666">[BASE TABLE]</text>
<polygon fill="none" stroke="black" points="534.26,-74 534.26,-104.8 785.69,-104.8 785.69,-74 534.26,-74"/>
<text text-anchor="start" x="541.26" y="-86.2" font-family="Arial" font-size="14.00">fxTransferTypeId </text>
<text text-anchor="start" x="650.96" y="-86.2" font-family="Arial" font-size="14.00" fill="#666666">[int unsigned]</text>
</g>
<!-- fxWatchList&#45;&gt;fxTransferType -->
<g id="edge2" class="edge">
<title>fxWatchList:fxTransferTypeId&#45;&gt;fxTransferType:fxTransferTypeId</title>
<path fill="none" stroke="black" d="M615.96,-309.51C628.32,-300.86 614.53,-271.53 605.2,-250.4 587.71,-210.78 551.64,-223.27 534.26,-183.6 517.45,-145.25 491.39,-89.4 533.26,-89.4"/>
<polygon fill="black" stroke="black" points="616.21,-309.44 605.41,-307.56 611.05,-310.76 606.85,-311.83 606.85,-311.83 606.85,-311.83 611.05,-310.76 607.64,-316.28 616.21,-309.44"/>
<text text-anchor="start" x="613.2" y="-322" font-family="Arial" font-size="10.00">FOREIGN KEY (fxTransferTypeId) REFERENCES fxTransferType (fxTransferTypeId)</text>
</g>
</g>
</svg>
