<?xml version="1.0" encoding="UTF-8" standalone="no"?>
<!DOCTYPE svg PUBLIC "-//W3C//DTD SVG 1.1//EN"
 "http://www.w3.org/Graphics/SVG/1.1/DTD/svg11.dtd">
<!-- Generated by graphviz version 12.1.2 (20240928.0832)
 -->
<!-- Title: geoCode Pages: 1 -->
<svg width="1257pt" height="602pt"
 viewBox="0.00 0.00 1256.91 602.00" xmlns="http://www.w3.org/2000/svg" xmlns:xlink="http://www.w3.org/1999/xlink">
<g id="graph0" class="graph" transform="scale(1 1) rotate(0) translate(4 598)">
<title>geoCode</title>
<polygon fill="white" stroke="none" points="-4,4 -4,-598 1252.91,-598 1252.91,4 -4,4"/>
<!-- geoCode -->
<g id="node1" class="node">
<title>geoCode</title>
<polygon fill="#efefef" stroke="none" points="46.2,-512.2 46.2,-547.8 1202.71,-547.8 1202.71,-512.2 46.2,-512.2"/>
<polygon fill="none" stroke="black" points="46.2,-512.2 46.2,-547.8 1202.71,-547.8 1202.71,-512.2 46.2,-512.2"/>
<text text-anchor="start" x="530.22" y="-525.6" font-family="Arial Bold" font-size="18.00">geoCode</text>
<text text-anchor="start" x="594.2" y="-525.6" font-family="Arial" font-size="14.00">    </text>
<text text-anchor="start" x="625.32" y="-525.6" font-family="Arial" font-size="14.00" fill="#666666">[BASE TABLE]</text>
<polygon fill="none" stroke="black" points="46.2,-481.4 46.2,-512.2 1202.71,-512.2 1202.71,-481.4 46.2,-481.4"/>
<text text-anchor="start" x="53.2" y="-493.6" font-family="Arial" font-size="14.00">geoCodeId </text>
<text text-anchor="start" x="125.59" y="-493.6" font-family="Arial" font-size="14.00" fill="#666666">[int unsigned]</text>
<polygon fill="none" stroke="black" points="46.2,-450.6 46.2,-481.4 1202.71,-481.4 1202.71,-450.6 46.2,-450.6"/>
<text text-anchor="start" x="53.2" y="-462.8" font-family="Arial" font-size="14.00">quotePartyId </text>
<text text-anchor="start" x="136.48" y="-462.8" font-family="Arial" font-size="14.00" fill="#666666">[bigint unsigned]</text>
<text text-anchor="start" x="238.44" y="-462.8" font-family="Arial" font-size="14.00"> Optionally the GeoCode for the Payer/Payee may have been provided. If the Quote Response has the GeoCode for the Payee, an additional row is added</text>
<polygon fill="none" stroke="black" stroke-width="3" points="44.7,-449.1 44.7,-549.3 1204.21,-549.3 1204.21,-449.1 44.7,-449.1"/>
</g>
<!-- quoteParty -->
<g id="node2" class="node">
<title>quoteParty</title>
<polygon fill="#efefef" stroke="none" points="257.16,-289.6 257.16,-325.2 991.75,-325.2 991.75,-289.6 257.16,-289.6"/>
<polygon fill="none" stroke="black" points="257.16,-289.6 257.16,-325.2 991.75,-325.2 991.75,-289.6 257.16,-289.6"/>
<text text-anchor="start" x="523.22" y="-303" font-family="Arial Bold" font-size="18.00">quoteParty</text>
<text text-anchor="start" x="601.2" y="-303" font-family="Arial" font-size="14.00">    </text>
<text text-anchor="start" x="632.32" y="-303" font-family="Arial" font-size="14.00" fill="#666666">[BASE TABLE]</text>
<polygon fill="none" stroke="black" points="257.16,-258.8 257.16,-289.6 991.75,-289.6 991.75,-258.8 257.16,-258.8"/>
<text text-anchor="start" x="264.16" y="-271" font-family="Arial" font-size="14.00">quotePartyId </text>
<text text-anchor="start" x="347.44" y="-271" font-family="Arial" font-size="14.00" fill="#666666">[bigint unsigned]</text>
<polygon fill="none" stroke="black" points="257.16,-228 257.16,-258.8 991.75,-258.8 991.75,-228 257.16,-228"/>
<text text-anchor="start" x="264.16" y="-240.2" font-family="Arial" font-size="14.00">quoteId </text>
<text text-anchor="start" x="314.76" y="-240.2" font-family="Arial" font-size="14.00" fill="#666666">[varchar(36)]</text>
<text text-anchor="start" x="394.12" y="-240.2" font-family="Arial" font-size="14.00"> Common ID between the FSPs for the quote object, decided by the Payer FSP</text>
<polygon fill="none" stroke="black" points="257.16,-197.2 257.16,-228 991.75,-228 991.75,-197.2 257.16,-197.2"/>
<text text-anchor="start" x="264.16" y="-209.4" font-family="Arial" font-size="14.00">partyTypeId </text>
<text text-anchor="start" x="341.98" y="-209.4" font-family="Arial" font-size="14.00" fill="#666666">[int unsigned]</text>
<text text-anchor="start" x="425.26" y="-209.4" font-family="Arial" font-size="14.00"> Specifies the type of party this row relates to; typically PAYER or PAYEE</text>
<polygon fill="none" stroke="black" points="257.16,-166.4 257.16,-197.2 991.75,-197.2 991.75,-166.4 257.16,-166.4"/>
<text text-anchor="start" x="264.16" y="-178.6" font-family="Arial" font-size="14.00">partyIdentifierTypeId </text>
<text text-anchor="start" x="395.67" y="-178.6" font-family="Arial" font-size="14.00" fill="#666666">[int unsigned]</text>
<text text-anchor="start" x="478.96" y="-178.6" font-family="Arial" font-size="14.00"> Specifies the type of identifier used to identify this party e.g. MSISDN, IBAN etc...</text>
<polygon fill="none" stroke="black" points="257.16,-135.6 257.16,-166.4 991.75,-166.4 991.75,-135.6 257.16,-135.6"/>
<text text-anchor="start" x="264.16" y="-147.8" font-family="Arial" font-size="14.00">participantId </text>
<text text-anchor="start" x="344.32" y="-147.8" font-family="Arial" font-size="14.00" fill="#666666">[int unsigned]</text>
<text text-anchor="start" x="427.6" y="-147.8" font-family="Arial" font-size="14.00"> Reference to the resolved FSP ID (if supplied/known). If not an error will be reported</text>
<polygon fill="none" stroke="black" points="257.16,-104.8 257.16,-135.6 991.75,-135.6 991.75,-104.8 257.16,-104.8"/>
<text text-anchor="start" x="264.16" y="-117" font-family="Arial" font-size="14.00">transferParticipantRoleTypeId </text>
<text text-anchor="start" x="453.25" y="-117" font-family="Arial" font-size="14.00" fill="#666666">[int unsigned]</text>
<text text-anchor="start" x="536.53" y="-117" font-family="Arial" font-size="14.00"> The role this Party is playing in the transaction</text>
<polygon fill="none" stroke="black" points="257.16,-74 257.16,-104.8 991.75,-104.8 991.75,-74 257.16,-74"/>
<text text-anchor="start" x="264.16" y="-86.2" font-family="Arial" font-size="14.00">ledgerEntryTypeId </text>
<text text-anchor="start" x="382.45" y="-86.2" font-family="Arial" font-size="14.00" fill="#666666">[int unsigned]</text>
<text text-anchor="start" x="465.73" y="-86.2" font-family="Arial" font-size="14.00"> The type of financial entry this Party is presenting</text>
<polygon fill="none" stroke="black" points="257.16,-43.2 257.16,-74 991.75,-74 991.75,-43.2 257.16,-43.2"/>
<text text-anchor="start" x="264.16" y="-55.4" font-family="Arial" font-size="14.00">currencyId </text>
<text text-anchor="start" x="333.41" y="-55.4" font-family="Arial" font-size="14.00" fill="#666666">[varchar(3)]</text>
<text text-anchor="start" x="404.98" y="-55.4" font-family="Arial" font-size="14.00"> Trading currency pertaining to the party amount</text>
</g>
<!-- geoCode&#45;&gt;quoteParty -->
<g id="edge1" class="edge">
<title>geoCode:quotePartyId&#45;&gt;quoteParty:quotePartyId</title>
<path fill="none" stroke="black" d="M624.81,-439.35C635.64,-291.53 888.64,-495.41 991.75,-368.4 1018.14,-335.89 1034.62,-274.2 992.75,-274.2"/>
<polygon fill="black" stroke="black" points="624.82,-439.27 619.97,-449.11 624.63,-444.6 624.48,-448.93 624.48,-448.93 624.48,-448.93 624.63,-444.6 628.96,-449.42 624.82,-439.27"/>
<text text-anchor="start" x="294.56" y="-459.6" font-family="Arial" font-size="10.00">FOREIGN KEY (quotePartyId) REFERENCES quoteParty (quotePartyId)</text>
</g>
</g>
</svg>
