<?xml version="1.0" encoding="UTF-8" standalone="no"?>
<!DOCTYPE svg PUBLIC "-//W3C//DTD SVG 1.1//EN"
 "http://www.w3.org/Graphics/SVG/1.1/DTD/svg11.dtd">
<!-- Generated by graphviz version 12.1.2 (20240928.0832)
 -->
<!-- Title: geoCode Pages: 1 -->
<svg width="634pt" height="910pt"
 viewBox="0.00 0.00 633.52 910.00" xmlns="http://www.w3.org/2000/svg" xmlns:xlink="http://www.w3.org/1999/xlink">
<g id="graph0" class="graph" transform="scale(1 1) rotate(0) translate(4 906)">
<title>geoCode</title>
<polygon fill="white" stroke="none" points="-4,4 -4,-906 629.52,-906 629.52,4 -4,4"/>
<!-- geoCode -->
<g id="node1" class="node">
<title>geoCode</title>
<polygon fill="#efefef" stroke="none" points="85.15,-820.2 85.15,-855.8 287.62,-855.8 287.62,-820.2 85.15,-820.2"/>
<polygon fill="none" stroke="black" points="85.15,-820.2 85.15,-855.8 287.62,-855.8 287.62,-820.2 85.15,-820.2"/>
<text text-anchor="start" x="92.15" y="-833.6" font-family="Arial Bold" font-size="18.00">geoCode</text>
<text text-anchor="start" x="156.13" y="-833.6" font-family="Arial" font-size="14.00">    </text>
<text text-anchor="start" x="187.25" y="-833.6" font-family="Arial" font-size="14.00" fill="#666666">[BASE TABLE]</text>
<polygon fill="none" stroke="black" points="85.15,-789.4 85.15,-820.2 287.62,-820.2 287.62,-789.4 85.15,-789.4"/>
<text text-anchor="start" x="92.15" y="-801.6" font-family="Arial" font-size="14.00">geoCodeId </text>
<text text-anchor="start" x="164.54" y="-801.6" font-family="Arial" font-size="14.00" fill="#666666">[int unsigned]</text>
<polygon fill="none" stroke="black" points="85.15,-758.6 85.15,-789.4 287.62,-789.4 287.62,-758.6 85.15,-758.6"/>
<text text-anchor="start" x="92.15" y="-770.8" font-family="Arial" font-size="14.00">quotePartyId </text>
<text text-anchor="start" x="175.42" y="-770.8" font-family="Arial" font-size="14.00" fill="#666666">[bigint unsigned]</text>
<polygon fill="none" stroke="black" points="85.15,-727.8 85.15,-758.6 287.62,-758.6 287.62,-727.8 85.15,-727.8"/>
<text text-anchor="start" x="92.15" y="-740" font-family="Arial" font-size="14.00">latitude </text>
<text text-anchor="start" x="141.18" y="-740" font-family="Arial" font-size="14.00" fill="#666666">[varchar(50)]</text>
<polygon fill="none" stroke="black" points="85.15,-697 85.15,-727.8 287.62,-727.8 287.62,-697 85.15,-697"/>
<text text-anchor="start" x="92.15" y="-709.2" font-family="Arial" font-size="14.00">longitude </text>
<text text-anchor="start" x="152.87" y="-709.2" font-family="Arial" font-size="14.00" fill="#666666">[varchar(50)]</text>
<polygon fill="none" stroke="black" points="85.15,-666.2 85.15,-697 287.62,-697 287.62,-666.2 85.15,-666.2"/>
<text text-anchor="start" x="92.15" y="-678.4" font-family="Arial" font-size="14.00">createdDate </text>
<text text-anchor="start" x="172.31" y="-678.4" font-family="Arial" font-size="14.00" fill="#666666">[datetime]</text>
<polygon fill="none" stroke="black" stroke-width="3" points="83.65,-664.7 83.65,-857.3 289.12,-857.3 289.12,-664.7 83.65,-664.7"/>
</g>
<!-- quoteParty -->
<g id="node2" class="node">
<title>quoteParty</title>
<polygon fill="#efefef" stroke="none" points="43.2,-505.2 43.2,-540.8 329.57,-540.8 329.57,-505.2 43.2,-505.2"/>
<polygon fill="none" stroke="black" points="43.2,-505.2 43.2,-540.8 329.57,-540.8 329.57,-505.2 43.2,-505.2"/>
<text text-anchor="start" x="85.15" y="-518.6" font-family="Arial Bold" font-size="18.00">quoteParty</text>
<text text-anchor="start" x="163.13" y="-518.6" font-family="Arial" font-size="14.00">    </text>
<text text-anchor="start" x="194.25" y="-518.6" font-family="Arial" font-size="14.00" fill="#666666">[BASE TABLE]</text>
<polygon fill="none" stroke="black" points="43.2,-474.4 43.2,-505.2 329.57,-505.2 329.57,-474.4 43.2,-474.4"/>
<text text-anchor="start" x="50.2" y="-486.6" font-family="Arial" font-size="14.00">quotePartyId </text>
<text text-anchor="start" x="133.48" y="-486.6" font-family="Arial" font-size="14.00" fill="#666666">[bigint unsigned]</text>
<polygon fill="none" stroke="black" points="43.2,-443.6 43.2,-474.4 329.57,-474.4 329.57,-443.6 43.2,-443.6"/>
<text text-anchor="start" x="50.2" y="-455.8" font-family="Arial" font-size="14.00">quoteId </text>
<text text-anchor="start" x="100.8" y="-455.8" font-family="Arial" font-size="14.00" fill="#666666">[varchar(36)]</text>
<polygon fill="none" stroke="black" points="43.2,-412.8 43.2,-443.6 329.57,-443.6 329.57,-412.8 43.2,-412.8"/>
<text text-anchor="start" x="50.2" y="-425" font-family="Arial" font-size="14.00">partyTypeId </text>
<text text-anchor="start" x="128.01" y="-425" font-family="Arial" font-size="14.00" fill="#666666">[int unsigned]</text>
<polygon fill="none" stroke="black" points="43.2,-382 43.2,-412.8 329.57,-412.8 329.57,-382 43.2,-382"/>
<text text-anchor="start" x="50.2" y="-394.2" font-family="Arial" font-size="14.00">partyIdentifierTypeId </text>
<text text-anchor="start" x="181.71" y="-394.2" font-family="Arial" font-size="14.00" fill="#666666">[int unsigned]</text>
<polygon fill="none" stroke="black" points="43.2,-351.2 43.2,-382 329.57,-382 329.57,-351.2 43.2,-351.2"/>
<text text-anchor="start" x="50.2" y="-363.4" font-family="Arial" font-size="14.00">partyIdentifierValue </text>
<text text-anchor="start" x="174.72" y="-363.4" font-family="Arial" font-size="14.00" fill="#666666">[varchar(128)]</text>
<polygon fill="none" stroke="black" points="43.2,-320.4 43.2,-351.2 329.57,-351.2 329.57,-320.4 43.2,-320.4"/>
<text text-anchor="start" x="50.2" y="-332.6" font-family="Arial" font-size="14.00">partySubIdOrTypeId </text>
<text text-anchor="start" x="180.15" y="-332.6" font-family="Arial" font-size="14.00" fill="#666666">[varchar(128)]</text>
<polygon fill="none" stroke="black" points="43.2,-289.6 43.2,-320.4 329.57,-320.4 329.57,-289.6 43.2,-289.6"/>
<text text-anchor="start" x="50.2" y="-301.8" font-family="Arial" font-size="14.00">fspId </text>
<text text-anchor="start" x="84.44" y="-301.8" font-family="Arial" font-size="14.00" fill="#666666">[varchar(255)]</text>
<polygon fill="none" stroke="black" points="43.2,-258.8 43.2,-289.6 329.57,-289.6 329.57,-258.8 43.2,-258.8"/>
<text text-anchor="start" x="50.2" y="-271" font-family="Arial" font-size="14.00">participantId </text>
<text text-anchor="start" x="130.36" y="-271" font-family="Arial" font-size="14.00" fill="#666666">[int unsigned]</text>
<polygon fill="none" stroke="black" points="43.2,-228 43.2,-258.8 329.57,-258.8 329.57,-228 43.2,-228"/>
<text text-anchor="start" x="50.2" y="-240.2" font-family="Arial" font-size="14.00">merchantClassificationCode </text>
<text text-anchor="start" x="228.39" y="-240.2" font-family="Arial" font-size="14.00" fill="#666666">[varchar(4)]</text>
<polygon fill="none" stroke="black" points="43.2,-197.2 43.2,-228 329.57,-228 329.57,-197.2 43.2,-197.2"/>
<text text-anchor="start" x="50.2" y="-209.4" font-family="Arial" font-size="14.00">partyName </text>
<text text-anchor="start" x="122.56" y="-209.4" font-family="Arial" font-size="14.00" fill="#666666">[varchar(128)]</text>
<polygon fill="none" stroke="black" points="43.2,-166.4 43.2,-197.2 329.57,-197.2 329.57,-166.4 43.2,-166.4"/>
<text text-anchor="start" x="50.2" y="-178.6" font-family="Arial" font-size="14.00">transferParticipantRoleTypeId </text>
<text text-anchor="start" x="239.29" y="-178.6" font-family="Arial" font-size="14.00" fill="#666666">[int unsigned]</text>
<polygon fill="none" stroke="black" points="43.2,-135.6 43.2,-166.4 329.57,-166.4 329.57,-135.6 43.2,-135.6"/>
<text text-anchor="start" x="50.2" y="-147.8" font-family="Arial" font-size="14.00">ledgerEntryTypeId </text>
<text text-anchor="start" x="168.48" y="-147.8" font-family="Arial" font-size="14.00" fill="#666666">[int unsigned]</text>
<polygon fill="none" stroke="black" points="43.2,-104.8 43.2,-135.6 329.57,-135.6 329.57,-104.8 43.2,-104.8"/>
<text text-anchor="start" x="50.2" y="-117" font-family="Arial" font-size="14.00">amount </text>
<text text-anchor="start" x="100.79" y="-117" font-family="Arial" font-size="14.00" fill="#666666">[decimal(18,4)]</text>
<polygon fill="none" stroke="black" points="43.2,-74 43.2,-104.8 329.57,-104.8 329.57,-74 43.2,-74"/>
<text text-anchor="start" x="50.2" y="-86.2" font-family="Arial" font-size="14.00">currencyId </text>
<text text-anchor="start" x="119.45" y="-86.2" font-family="Arial" font-size="14.00" fill="#666666">[varchar(3)]</text>
<polygon fill="none" stroke="black" points="43.2,-43.2 43.2,-74 329.57,-74 329.57,-43.2 43.2,-43.2"/>
<text text-anchor="start" x="50.2" y="-55.4" font-family="Arial" font-size="14.00">createdDate </text>
<text text-anchor="start" x="130.36" y="-55.4" font-family="Arial" font-size="14.00" fill="#666666">[datetime]</text>
</g>
<!-- geoCode&#45;&gt;quoteParty -->
<g id="edge1" class="edge">
<title>geoCode:quotePartyId&#45;&gt;quoteParty:quotePartyId</title>
<path fill="none" stroke="black" d="M298.53,-771.71C356.59,-744.82 391.04,-489.8 330.57,-489.8"/>
<polygon fill="black" stroke="black" points="298.69,-771.67 287.94,-769.54 293.49,-772.87 289.27,-773.85 289.27,-773.85 289.27,-773.85 293.49,-772.87 289.96,-778.31 298.69,-771.67"/>
<text text-anchor="start" x="295.62" y="-784" font-family="Arial" font-size="10.00">FOREIGN KEY (quotePartyId) REFERENCES quoteParty (quotePartyId)</text>
</g>
</g>
</svg>
