<?xml version="1.0" encoding="UTF-8" standalone="no"?>
<!DOCTYPE svg PUBLIC "-//W3C//DTD SVG 1.1//EN"
 "http://www.w3.org/Graphics/SVG/1.1/DTD/svg11.dtd">
<!-- Generated by graphviz version 12.1.2 (20240928.0832)
 -->
<!-- Title: ilpPacket Pages: 1 -->
<svg width="450pt" height="386pt"
 viewBox="0.00 0.00 450.44 386.40" xmlns="http://www.w3.org/2000/svg" xmlns:xlink="http://www.w3.org/1999/xlink">
<g id="graph0" class="graph" transform="scale(1 1) rotate(0) translate(4 382.4)">
<title>ilpPacket</title>
<polygon fill="white" stroke="none" points="-4,4 -4,-382.4 446.44,-382.4 446.44,4 -4,4"/>
<!-- ilpPacket -->
<g id="node1" class="node">
<title>ilpPacket</title>
<polygon fill="#efefef" stroke="none" points="190.77,-296.6 190.77,-332.2 396.24,-332.2 396.24,-296.6 190.77,-296.6"/>
<polygon fill="none" stroke="black" points="190.77,-296.6 190.77,-332.2 396.24,-332.2 396.24,-296.6 190.77,-296.6"/>
<text text-anchor="start" x="197.77" y="-310" font-family="Arial Bold" font-size="18.00">ilpPacket</text>
<text text-anchor="start" x="264.75" y="-310" font-family="Arial" font-size="14.00">    </text>
<text text-anchor="start" x="295.87" y="-310" font-family="Arial" font-size="14.00" fill="#666666">[BASE TABLE]</text>
<polygon fill="none" stroke="black" points="190.77,-265.8 190.77,-296.6 396.24,-296.6 396.24,-265.8 190.77,-265.8"/>
<text text-anchor="start" x="197.77" y="-278" font-family="Arial" font-size="14.00">transferId </text>
<text text-anchor="start" x="260.8" y="-278" font-family="Arial" font-size="14.00" fill="#666666">[varchar(36)]</text>
<polygon fill="none" stroke="black" stroke-width="3" points="189.27,-264.3 189.27,-333.7 397.74,-333.7 397.74,-264.3 189.27,-264.3"/>
</g>
<!-- transfer -->
<g id="node2" class="node">
<title>transfer</title>
<polygon fill="#efefef" stroke="none" points="196.78,-104.8 196.78,-140.4 390.23,-140.4 390.23,-104.8 196.78,-104.8"/>
<polygon fill="none" stroke="black" points="196.78,-104.8 196.78,-140.4 390.23,-140.4 390.23,-104.8 196.78,-104.8"/>
<text text-anchor="start" x="203.78" y="-118.2" font-family="Arial Bold" font-size="18.00">transfer</text>
<text text-anchor="start" x="258.75" y="-118.2" font-family="Arial" font-size="14.00">    </text>
<text text-anchor="start" x="289.86" y="-118.2" font-family="Arial" font-size="14.00" fill="#666666">[BASE TABLE]</text>
<polygon fill="none" stroke="black" points="196.78,-74 196.78,-104.8 390.23,-104.8 390.23,-74 196.78,-74"/>
<text text-anchor="start" x="203.78" y="-86.2" font-family="Arial" font-size="14.00">transferId </text>
<text text-anchor="start" x="266.81" y="-86.2" font-family="Arial" font-size="14.00" fill="#666666">[varchar(36)]</text>
<polygon fill="none" stroke="black" points="196.78,-43.2 196.78,-74 390.23,-74 390.23,-43.2 196.78,-43.2"/>
<text text-anchor="start" x="203.78" y="-55.4" font-family="Arial" font-size="14.00">currencyId </text>
<text text-anchor="start" x="273.03" y="-55.4" font-family="Arial" font-size="14.00" fill="#666666">[varchar(3)]</text>
</g>
<!-- ilpPacket&#45;&gt;transfer -->
<g id="edge1" class="edge">
<title>ilpPacket:transferId&#45;&gt;transfer:transferId</title>
<path fill="none" stroke="black" d="M294.43,-254.65C302.95,-211.74 367.84,-230.98 390.23,-183.6 408.13,-145.75 433.1,-89.4 391.23,-89.4"/>
<polygon fill="black" stroke="black" points="294.45,-254.51 289.06,-264.06 293.96,-259.82 293.57,-264.13 293.57,-264.13 293.57,-264.13 293.96,-259.82 298.02,-264.88 294.45,-254.51"/>
<text text-anchor="start" x="7" y="-274.8" font-family="Arial" font-size="10.00">FOREIGN KEY (transferId) REFERENCES transfer (transferId)</text>
</g>
</g>
</svg>
