<?xml version="1.0" encoding="UTF-8" standalone="no"?>
<!DOCTYPE svg PUBLIC "-//W3C//DTD SVG 1.1//EN"
 "http://www.w3.org/Graphics/SVG/1.1/DTD/svg11.dtd">
<!-- Generated by graphviz version 12.1.2 (20240928.0832)
 -->
<!-- Title: ilpPacket Pages: 1 -->
<svg width="554pt" height="571pt"
 viewBox="0.00 0.00 554.18 571.20" xmlns="http://www.w3.org/2000/svg" xmlns:xlink="http://www.w3.org/1999/xlink">
<g id="graph0" class="graph" transform="scale(1 1) rotate(0) translate(4 567.2)">
<title>ilpPacket</title>
<polygon fill="white" stroke="none" points="-4,4 -4,-567.2 550.18,-567.2 550.18,4 -4,4"/>
<!-- ilpPacket -->
<g id="node1" class="node">
<title>ilpPacket</title>
<polygon fill="#efefef" stroke="none" points="46.2,-481.4 46.2,-517 251.67,-517 251.67,-481.4 46.2,-481.4"/>
<polygon fill="none" stroke="black" points="46.2,-481.4 46.2,-517 251.67,-517 251.67,-481.4 46.2,-481.4"/>
<text text-anchor="start" x="53.2" y="-494.8" font-family="Arial Bold" font-size="18.00">ilpPacket</text>
<text text-anchor="start" x="120.18" y="-494.8" font-family="Arial" font-size="14.00">    </text>
<text text-anchor="start" x="151.3" y="-494.8" font-family="Arial" font-size="14.00" fill="#666666">[BASE TABLE]</text>
<polygon fill="none" stroke="black" points="46.2,-450.6 46.2,-481.4 251.67,-481.4 251.67,-450.6 46.2,-450.6"/>
<text text-anchor="start" x="53.2" y="-462.8" font-family="Arial" font-size="14.00">transferId </text>
<text text-anchor="start" x="116.23" y="-462.8" font-family="Arial" font-size="14.00" fill="#666666">[varchar(36)]</text>
<polygon fill="none" stroke="black" points="46.2,-419.8 46.2,-450.6 251.67,-450.6 251.67,-419.8 46.2,-419.8"/>
<text text-anchor="start" x="53.2" y="-432" font-family="Arial" font-size="14.00">value </text>
<text text-anchor="start" x="90.56" y="-432" font-family="Arial" font-size="14.00" fill="#666666">[text]</text>
<polygon fill="none" stroke="black" points="46.2,-389 46.2,-419.8 251.67,-419.8 251.67,-389 46.2,-389"/>
<text text-anchor="start" x="53.2" y="-401.2" font-family="Arial" font-size="14.00">createdDate </text>
<text text-anchor="start" x="133.36" y="-401.2" font-family="Arial" font-size="14.00" fill="#666666">[datetime]</text>
<polygon fill="none" stroke="black" stroke-width="3" points="44.7,-387.5 44.7,-518.5 253.17,-518.5 253.17,-387.5 44.7,-387.5"/>
</g>
<!-- transfer -->
<g id="node2" class="node">
<title>transfer</title>
<polygon fill="#efefef" stroke="none" points="52.21,-228 52.21,-263.6 245.66,-263.6 245.66,-228 52.21,-228"/>
<polygon fill="none" stroke="black" points="52.21,-228 52.21,-263.6 245.66,-263.6 245.66,-228 52.21,-228"/>
<text text-anchor="start" x="59.21" y="-241.4" font-family="Arial Bold" font-size="18.00">transfer</text>
<text text-anchor="start" x="114.17" y="-241.4" font-family="Arial" font-size="14.00">    </text>
<text text-anchor="start" x="145.29" y="-241.4" font-family="Arial" font-size="14.00" fill="#666666">[BASE TABLE]</text>
<polygon fill="none" stroke="black" points="52.21,-197.2 52.21,-228 245.66,-228 245.66,-197.2 52.21,-197.2"/>
<text text-anchor="start" x="59.21" y="-209.4" font-family="Arial" font-size="14.00">transferId </text>
<text text-anchor="start" x="122.23" y="-209.4" font-family="Arial" font-size="14.00" fill="#666666">[varchar(36)]</text>
<polygon fill="none" stroke="black" points="52.21,-166.4 52.21,-197.2 245.66,-197.2 245.66,-166.4 52.21,-166.4"/>
<text text-anchor="start" x="59.21" y="-178.6" font-family="Arial" font-size="14.00">amount </text>
<text text-anchor="start" x="109.79" y="-178.6" font-family="Arial" font-size="14.00" fill="#666666">[decimal(18,4)]</text>
<polygon fill="none" stroke="black" points="52.21,-135.6 52.21,-166.4 245.66,-166.4 245.66,-135.6 52.21,-135.6"/>
<text text-anchor="start" x="59.21" y="-147.8" font-family="Arial" font-size="14.00">currencyId </text>
<text text-anchor="start" x="128.46" y="-147.8" font-family="Arial" font-size="14.00" fill="#666666">[varchar(3)]</text>
<polygon fill="none" stroke="black" points="52.21,-104.8 52.21,-135.6 245.66,-135.6 245.66,-104.8 52.21,-104.8"/>
<text text-anchor="start" x="59.21" y="-117" font-family="Arial" font-size="14.00">ilpCondition </text>
<text text-anchor="start" x="136.26" y="-117" font-family="Arial" font-size="14.00" fill="#666666">[varchar(256)]</text>
<polygon fill="none" stroke="black" points="52.21,-74 52.21,-104.8 245.66,-104.8 245.66,-74 52.21,-74"/>
<text text-anchor="start" x="59.21" y="-86.2" font-family="Arial" font-size="14.00">expirationDate </text>
<text text-anchor="start" x="153.37" y="-86.2" font-family="Arial" font-size="14.00" fill="#666666">[datetime]</text>
<polygon fill="none" stroke="black" points="52.21,-43.2 52.21,-74 245.66,-74 245.66,-43.2 52.21,-43.2"/>
<text text-anchor="start" x="59.21" y="-55.4" font-family="Arial" font-size="14.00">createdDate </text>
<text text-anchor="start" x="139.37" y="-55.4" font-family="Arial" font-size="14.00" fill="#666666">[datetime]</text>
</g>
<!-- ilpPacket&#45;&gt;transfer -->
<g id="edge1" class="edge">
<title>ilpPacket:transferId&#45;&gt;transfer:transferId</title>
<path fill="none" stroke="black" d="M262.5,-463.15C308.05,-435.31 299.47,-212.6 246.66,-212.6"/>
<polygon fill="black" stroke="black" points="262.6,-463.13 251.74,-461.58 257.47,-464.61 253.31,-465.81 253.31,-465.81 253.31,-465.81 257.47,-464.61 254.24,-470.23 262.6,-463.13"/>
<text text-anchor="start" x="259.67" y="-476" font-family="Arial" font-size="10.00">FOREIGN KEY (transferId) REFERENCES transfer (transferId)</text>
</g>
</g>
</svg>
