<?xml version="1.0" encoding="UTF-8" standalone="no"?>
<!DOCTYPE svg PUBLIC "-//W3C//DTD SVG 1.1//EN"
 "http://www.w3.org/Graphics/SVG/1.1/DTD/svg11.dtd">
<!-- Generated by graphviz version 12.1.2 (20240928.0832)
 -->
<!-- Title: ledgerEntryType Pages: 1 -->
<svg width="2244pt" height="1284pt"
 viewBox="0.00 0.00 2244.42 1283.60" xmlns="http://www.w3.org/2000/svg" xmlns:xlink="http://www.w3.org/1999/xlink">
<g id="graph0" class="graph" transform="scale(1 1) rotate(0) translate(4 1279.6)">
<title>ledgerEntryType</title>
<polygon fill="white" stroke="none" points="-4,4 -4,-1279.6 2240.42,-1279.6 2240.42,4 -4,4"/>
<!-- ledgerEntryType -->
<g id="node1" class="node">
<title>ledgerEntryType</title>
<polygon fill="#efefef" stroke="none" points="955.48,-573.8 955.48,-609.4 1215.92,-609.4 1215.92,-573.8 955.48,-573.8"/>
<polygon fill="none" stroke="black" points="955.48,-573.8 955.48,-609.4 1215.92,-609.4 1215.92,-573.8 955.48,-573.8"/>
<text text-anchor="start" x="962.48" y="-587.2" font-family="Arial Bold" font-size="18.00">ledgerEntryType</text>
<text text-anchor="start" x="1084.43" y="-587.2" font-family="Arial" font-size="14.00">    </text>
<text text-anchor="start" x="1115.55" y="-587.2" font-family="Arial" font-size="14.00" fill="#666666">[BASE TABLE]</text>
<polygon fill="none" stroke="black" points="955.48,-543 955.48,-573.8 1215.92,-573.8 1215.92,-543 955.48,-543"/>
<text text-anchor="start" x="962.48" y="-555.2" font-family="Arial" font-size="14.00">ledgerEntryTypeId </text>
<text text-anchor="start" x="1080.76" y="-555.2" font-family="Arial" font-size="14.00" fill="#666666">[int unsigned]</text>
<polygon fill="none" stroke="black" points="955.48,-512.2 955.48,-543 1215.92,-543 1215.92,-512.2 955.48,-512.2"/>
<text text-anchor="start" x="962.48" y="-524.4" font-family="Arial" font-size="14.00">name </text>
<text text-anchor="start" x="1001.39" y="-524.4" font-family="Arial" font-size="14.00" fill="#666666">[varchar(50)]</text>
<polygon fill="none" stroke="black" points="955.48,-481.4 955.48,-512.2 1215.92,-512.2 1215.92,-481.4 955.48,-481.4"/>
<text text-anchor="start" x="962.48" y="-493.6" font-family="Arial" font-size="14.00">description </text>
<text text-anchor="start" x="1034.07" y="-493.6" font-family="Arial" font-size="14.00" fill="#666666">[varchar(512)]</text>
<polygon fill="none" stroke="black" points="955.48,-450.6 955.48,-481.4 1215.92,-481.4 1215.92,-450.6 955.48,-450.6"/>
<text text-anchor="start" x="962.48" y="-462.8" font-family="Arial" font-size="14.00">isActive </text>
<text text-anchor="start" x="1014.6" y="-462.8" font-family="Arial" font-size="14.00" fill="#666666">[tinyint(1)]</text>
<polygon fill="none" stroke="black" points="955.48,-419.8 955.48,-450.6 1215.92,-450.6 1215.92,-419.8 955.48,-419.8"/>
<text text-anchor="start" x="962.48" y="-432" font-family="Arial" font-size="14.00">createdDate </text>
<text text-anchor="start" x="1042.64" y="-432" font-family="Arial" font-size="14.00" fill="#666666">[datetime]</text>
<polygon fill="none" stroke="black" points="955.48,-389 955.48,-419.8 1215.92,-419.8 1215.92,-389 955.48,-389"/>
<text text-anchor="start" x="962.48" y="-401.2" font-family="Arial" font-size="14.00">ledgerAccountTypeId </text>
<text text-anchor="start" x="1098.67" y="-401.2" font-family="Arial" font-size="14.00" fill="#666666">[int unsigned]</text>
<polygon fill="none" stroke="black" stroke-width="3" points="953.98,-387.5 953.98,-610.9 1217.42,-610.9 1217.42,-387.5 953.98,-387.5"/>
</g>
<!-- ledgerAccountType -->
<g id="node7" class="node">
<title>ledgerAccountType</title>
<polygon fill="#efefef" stroke="none" points="944.99,-228 944.99,-263.6 1226.41,-263.6 1226.41,-228 944.99,-228"/>
<polygon fill="none" stroke="black" points="944.99,-228 944.99,-263.6 1226.41,-263.6 1226.41,-228 944.99,-228"/>
<text text-anchor="start" x="951.99" y="-241.4" font-family="Arial Bold" font-size="18.00">ledgerAccountType</text>
<text text-anchor="start" x="1094.92" y="-241.4" font-family="Arial" font-size="14.00">    </text>
<text text-anchor="start" x="1126.04" y="-241.4" font-family="Arial" font-size="14.00" fill="#666666">[BASE TABLE]</text>
<polygon fill="none" stroke="black" points="944.99,-197.2 944.99,-228 1226.41,-228 1226.41,-197.2 944.99,-197.2"/>
<text text-anchor="start" x="951.99" y="-209.4" font-family="Arial" font-size="14.00">ledgerAccountTypeId </text>
<text text-anchor="start" x="1088.18" y="-209.4" font-family="Arial" font-size="14.00" fill="#666666">[int unsigned]</text>
<polygon fill="none" stroke="black" points="944.99,-166.4 944.99,-197.2 1226.41,-197.2 1226.41,-166.4 944.99,-166.4"/>
<text text-anchor="start" x="951.99" y="-178.6" font-family="Arial" font-size="14.00">name </text>
<text text-anchor="start" x="990.9" y="-178.6" font-family="Arial" font-size="14.00" fill="#666666">[varchar(50)]</text>
<polygon fill="none" stroke="black" points="944.99,-135.6 944.99,-166.4 1226.41,-166.4 1226.41,-135.6 944.99,-135.6"/>
<text text-anchor="start" x="951.99" y="-147.8" font-family="Arial" font-size="14.00">description </text>
<text text-anchor="start" x="1023.58" y="-147.8" font-family="Arial" font-size="14.00" fill="#666666">[varchar(512)]</text>
<polygon fill="none" stroke="black" points="944.99,-104.8 944.99,-135.6 1226.41,-135.6 1226.41,-104.8 944.99,-104.8"/>
<text text-anchor="start" x="951.99" y="-117" font-family="Arial" font-size="14.00">isActive </text>
<text text-anchor="start" x="1004.11" y="-117" font-family="Arial" font-size="14.00" fill="#666666">[tinyint(1)]</text>
<polygon fill="none" stroke="black" points="944.99,-74 944.99,-104.8 1226.41,-104.8 1226.41,-74 944.99,-74"/>
<text text-anchor="start" x="951.99" y="-86.2" font-family="Arial" font-size="14.00">createdDate </text>
<text text-anchor="start" x="1032.15" y="-86.2" font-family="Arial" font-size="14.00" fill="#666666">[datetime]</text>
<polygon fill="none" stroke="black" points="944.99,-43.2 944.99,-74 1226.41,-74 1226.41,-43.2 944.99,-43.2"/>
<text text-anchor="start" x="951.99" y="-55.4" font-family="Arial" font-size="14.00">isSettleable </text>
<text text-anchor="start" x="1028.26" y="-55.4" font-family="Arial" font-size="14.00" fill="#666666">[tinyint(1)]</text>
</g>
<!-- ledgerEntryType&#45;&gt;ledgerAccountType -->
<g id="edge6" class="edge">
<title>ledgerEntryType:ledgerAccountTypeId&#45;&gt;ledgerAccountType:ledgerAccountTypeId</title>
<path fill="none" stroke="black" d="M1086.48,-377.94C1096.11,-320.91 1191.82,-365.97 1226.41,-306.8 1247.54,-270.65 1269.28,-212.6 1227.41,-212.6"/>
<polygon fill="black" stroke="black" points="1086.5,-377.7 1081.24,-387.32 1086.09,-383.02 1085.75,-387.33 1085.75,-387.33 1085.75,-387.33 1086.09,-383.02 1090.21,-388.02 1086.5,-377.7"/>
<text text-anchor="start" x="642.41" y="-398" font-family="Arial" font-size="10.00">FOREIGN KEY (ledgerAccountTypeId) REFERENCES ledgerAccountType (ledgerAccountTypeId)</text>
</g>
<!-- fxTransferParticipant -->
<g id="node2" class="node">
<title>fxTransferParticipant</title>
<polygon fill="#efefef" stroke="none" points="118.49,-1119.8 118.49,-1155.4 410.91,-1155.4 410.91,-1119.8 118.49,-1119.8"/>
<polygon fill="none" stroke="black" points="118.49,-1119.8 118.49,-1155.4 410.91,-1155.4 410.91,-1119.8 118.49,-1119.8"/>
<text text-anchor="start" x="125.49" y="-1133.2" font-family="Arial Bold" font-size="18.00">fxTransferParticipant</text>
<text text-anchor="start" x="279.42" y="-1133.2" font-family="Arial" font-size="14.00">    </text>
<text text-anchor="start" x="310.54" y="-1133.2" font-family="Arial" font-size="14.00" fill="#666666">[BASE TABLE]</text>
<polygon fill="none" stroke="black" points="118.49,-1089 118.49,-1119.8 410.91,-1119.8 410.91,-1089 118.49,-1089"/>
<text text-anchor="start" x="125.49" y="-1101.2" font-family="Arial" font-size="14.00">fxTransferParticipantId </text>
<text text-anchor="start" x="270.21" y="-1101.2" font-family="Arial" font-size="14.00" fill="#666666">[bigint unsigned]</text>
<polygon fill="none" stroke="black" points="118.49,-1058.2 118.49,-1089 410.91,-1089 410.91,-1058.2 118.49,-1058.2"/>
<text text-anchor="start" x="125.49" y="-1070.4" font-family="Arial" font-size="14.00">commitRequestId </text>
<text text-anchor="start" x="238.31" y="-1070.4" font-family="Arial" font-size="14.00" fill="#666666">[varchar(36)]</text>
<polygon fill="none" stroke="black" points="118.49,-1027.4 118.49,-1058.2 410.91,-1058.2 410.91,-1027.4 118.49,-1027.4"/>
<text text-anchor="start" x="125.49" y="-1039.6" font-family="Arial" font-size="14.00">participantCurrencyId </text>
<text text-anchor="start" x="262.44" y="-1039.6" font-family="Arial" font-size="14.00" fill="#666666">[int unsigned]</text>
<polygon fill="none" stroke="black" points="118.49,-996.6 118.49,-1027.4 410.91,-1027.4 410.91,-996.6 118.49,-996.6"/>
<text text-anchor="start" x="125.49" y="-1008.8" font-family="Arial" font-size="14.00">transferParticipantRoleTypeId </text>
<text text-anchor="start" x="314.58" y="-1008.8" font-family="Arial" font-size="14.00" fill="#666666">[int unsigned]</text>
<polygon fill="none" stroke="black" points="118.49,-965.8 118.49,-996.6 410.91,-996.6 410.91,-965.8 118.49,-965.8"/>
<text text-anchor="start" x="125.49" y="-978" font-family="Arial" font-size="14.00">ledgerEntryTypeId </text>
<text text-anchor="start" x="243.77" y="-978" font-family="Arial" font-size="14.00" fill="#666666">[int unsigned]</text>
<polygon fill="none" stroke="black" points="118.49,-935 118.49,-965.8 410.91,-965.8 410.91,-935 118.49,-935"/>
<text text-anchor="start" x="125.49" y="-947.2" font-family="Arial" font-size="14.00">fxParticipantCurrencyTypeId </text>
<text text-anchor="start" x="306.01" y="-947.2" font-family="Arial" font-size="14.00" fill="#666666">[int unsigned]</text>
<polygon fill="none" stroke="black" points="118.49,-904.2 118.49,-935 410.91,-935 410.91,-904.2 118.49,-904.2"/>
<text text-anchor="start" x="125.49" y="-916.4" font-family="Arial" font-size="14.00">amount </text>
<text text-anchor="start" x="176.08" y="-916.4" font-family="Arial" font-size="14.00" fill="#666666">[decimal(18,4)]</text>
<polygon fill="none" stroke="black" points="118.49,-873.4 118.49,-904.2 410.91,-904.2 410.91,-873.4 118.49,-873.4"/>
<text text-anchor="start" x="125.49" y="-885.6" font-family="Arial" font-size="14.00">createdDate </text>
<text text-anchor="start" x="205.65" y="-885.6" font-family="Arial" font-size="14.00" fill="#666666">[datetime]</text>
<polygon fill="none" stroke="black" points="118.49,-842.6 118.49,-873.4 410.91,-873.4 410.91,-842.6 118.49,-842.6"/>
<text text-anchor="start" x="125.49" y="-854.8" font-family="Arial" font-size="14.00">participantId </text>
<text text-anchor="start" x="205.65" y="-854.8" font-family="Arial" font-size="14.00" fill="#666666">[int unsigned]</text>
<polygon fill="none" stroke="black" points="118.49,-811.8 118.49,-842.6 410.91,-842.6 410.91,-811.8 118.49,-811.8"/>
<text text-anchor="start" x="125.49" y="-824" font-family="Arial" font-size="14.00">externalParticipantId </text>
<text text-anchor="start" x="257.01" y="-824" font-family="Arial" font-size="14.00" fill="#666666">[bigint unsigned]</text>
</g>
<!-- fxTransferParticipant&#45;&gt;ledgerEntryType -->
<g id="edge1" class="edge">
<title>fxTransferParticipant:ledgerEntryTypeId&#45;&gt;ledgerEntryType:ledgerEntryTypeId</title>
<path fill="none" stroke="black" d="M421.88,-978.96C471.07,-954.48 422.05,-737.09 463.7,-691.6 540.01,-608.25 841.47,-558.4 954.48,-558.4"/>
<polygon fill="black" stroke="black" points="421.99,-978.93 411.25,-976.74 416.79,-980.1 412.56,-981.05 412.56,-981.05 412.56,-981.05 416.79,-980.1 413.23,-985.52 421.99,-978.93"/>
<text text-anchor="start" x="7" y="-991.2" font-family="Arial" font-size="10.00">FOREIGN KEY (ledgerEntryTypeId) REFERENCES ledgerEntryType (ledgerEntryTypeId)</text>
</g>
<!-- quoteParty -->
<g id="node3" class="node">
<title>quoteParty</title>
<polygon fill="#efefef" stroke="none" points="515.51,-1196.8 515.51,-1232.4 801.89,-1232.4 801.89,-1196.8 515.51,-1196.8"/>
<polygon fill="none" stroke="black" points="515.51,-1196.8 515.51,-1232.4 801.89,-1232.4 801.89,-1196.8 515.51,-1196.8"/>
<text text-anchor="start" x="557.46" y="-1210.2" font-family="Arial Bold" font-size="18.00">quoteParty</text>
<text text-anchor="start" x="635.45" y="-1210.2" font-family="Arial" font-size="14.00">    </text>
<text text-anchor="start" x="666.56" y="-1210.2" font-family="Arial" font-size="14.00" fill="#666666">[BASE TABLE]</text>
<polygon fill="none" stroke="black" points="515.51,-1166 515.51,-1196.8 801.89,-1196.8 801.89,-1166 515.51,-1166"/>
<text text-anchor="start" x="522.51" y="-1178.2" font-family="Arial" font-size="14.00">quotePartyId </text>
<text text-anchor="start" x="605.79" y="-1178.2" font-family="Arial" font-size="14.00" fill="#666666">[bigint unsigned]</text>
<polygon fill="none" stroke="black" points="515.51,-1135.2 515.51,-1166 801.89,-1166 801.89,-1135.2 515.51,-1135.2"/>
<text text-anchor="start" x="522.51" y="-1147.4" font-family="Arial" font-size="14.00">quoteId </text>
<text text-anchor="start" x="573.11" y="-1147.4" font-family="Arial" font-size="14.00" fill="#666666">[varchar(36)]</text>
<polygon fill="none" stroke="black" points="515.51,-1104.4 515.51,-1135.2 801.89,-1135.2 801.89,-1104.4 515.51,-1104.4"/>
<text text-anchor="start" x="522.51" y="-1116.6" font-family="Arial" font-size="14.00">partyTypeId </text>
<text text-anchor="start" x="600.33" y="-1116.6" font-family="Arial" font-size="14.00" fill="#666666">[int unsigned]</text>
<polygon fill="none" stroke="black" points="515.51,-1073.6 515.51,-1104.4 801.89,-1104.4 801.89,-1073.6 515.51,-1073.6"/>
<text text-anchor="start" x="522.51" y="-1085.8" font-family="Arial" font-size="14.00">partyIdentifierTypeId </text>
<text text-anchor="start" x="654.02" y="-1085.8" font-family="Arial" font-size="14.00" fill="#666666">[int unsigned]</text>
<polygon fill="none" stroke="black" points="515.51,-1042.8 515.51,-1073.6 801.89,-1073.6 801.89,-1042.8 515.51,-1042.8"/>
<text text-anchor="start" x="522.51" y="-1055" font-family="Arial" font-size="14.00">partyIdentifierValue </text>
<text text-anchor="start" x="647.03" y="-1055" font-family="Arial" font-size="14.00" fill="#666666">[varchar(128)]</text>
<polygon fill="none" stroke="black" points="515.51,-1012 515.51,-1042.8 801.89,-1042.8 801.89,-1012 515.51,-1012"/>
<text text-anchor="start" x="522.51" y="-1024.2" font-family="Arial" font-size="14.00">partySubIdOrTypeId </text>
<text text-anchor="start" x="652.47" y="-1024.2" font-family="Arial" font-size="14.00" fill="#666666">[varchar(128)]</text>
<polygon fill="none" stroke="black" points="515.51,-981.2 515.51,-1012 801.89,-1012 801.89,-981.2 515.51,-981.2"/>
<text text-anchor="start" x="522.51" y="-993.4" font-family="Arial" font-size="14.00">fspId </text>
<text text-anchor="start" x="556.76" y="-993.4" font-family="Arial" font-size="14.00" fill="#666666">[varchar(255)]</text>
<polygon fill="none" stroke="black" points="515.51,-950.4 515.51,-981.2 801.89,-981.2 801.89,-950.4 515.51,-950.4"/>
<text text-anchor="start" x="522.51" y="-962.6" font-family="Arial" font-size="14.00">participantId </text>
<text text-anchor="start" x="602.67" y="-962.6" font-family="Arial" font-size="14.00" fill="#666666">[int unsigned]</text>
<polygon fill="none" stroke="black" points="515.51,-919.6 515.51,-950.4 801.89,-950.4 801.89,-919.6 515.51,-919.6"/>
<text text-anchor="start" x="522.51" y="-931.8" font-family="Arial" font-size="14.00">merchantClassificationCode </text>
<text text-anchor="start" x="700.71" y="-931.8" font-family="Arial" font-size="14.00" fill="#666666">[varchar(4)]</text>
<polygon fill="none" stroke="black" points="515.51,-888.8 515.51,-919.6 801.89,-919.6 801.89,-888.8 515.51,-888.8"/>
<text text-anchor="start" x="522.51" y="-901" font-family="Arial" font-size="14.00">partyName </text>
<text text-anchor="start" x="594.87" y="-901" font-family="Arial" font-size="14.00" fill="#666666">[varchar(128)]</text>
<polygon fill="none" stroke="black" points="515.51,-858 515.51,-888.8 801.89,-888.8 801.89,-858 515.51,-858"/>
<text text-anchor="start" x="522.51" y="-870.2" font-family="Arial" font-size="14.00">transferParticipantRoleTypeId </text>
<text text-anchor="start" x="711.6" y="-870.2" font-family="Arial" font-size="14.00" fill="#666666">[int unsigned]</text>
<polygon fill="none" stroke="black" points="515.51,-827.2 515.51,-858 801.89,-858 801.89,-827.2 515.51,-827.2"/>
<text text-anchor="start" x="522.51" y="-839.4" font-family="Arial" font-size="14.00">ledgerEntryTypeId </text>
<text text-anchor="start" x="640.8" y="-839.4" font-family="Arial" font-size="14.00" fill="#666666">[int unsigned]</text>
<polygon fill="none" stroke="black" points="515.51,-796.4 515.51,-827.2 801.89,-827.2 801.89,-796.4 515.51,-796.4"/>
<text text-anchor="start" x="522.51" y="-808.6" font-family="Arial" font-size="14.00">amount </text>
<text text-anchor="start" x="573.1" y="-808.6" font-family="Arial" font-size="14.00" fill="#666666">[decimal(18,4)]</text>
<polygon fill="none" stroke="black" points="515.51,-765.6 515.51,-796.4 801.89,-796.4 801.89,-765.6 515.51,-765.6"/>
<text text-anchor="start" x="522.51" y="-777.8" font-family="Arial" font-size="14.00">currencyId </text>
<text text-anchor="start" x="591.76" y="-777.8" font-family="Arial" font-size="14.00" fill="#666666">[varchar(3)]</text>
<polygon fill="none" stroke="black" points="515.51,-734.8 515.51,-765.6 801.89,-765.6 801.89,-734.8 515.51,-734.8"/>
<text text-anchor="start" x="522.51" y="-747" font-family="Arial" font-size="14.00">createdDate </text>
<text text-anchor="start" x="602.67" y="-747" font-family="Arial" font-size="14.00" fill="#666666">[datetime]</text>
</g>
<!-- quoteParty&#45;&gt;ledgerEntryType -->
<g id="edge2" class="edge">
<title>quoteParty:ledgerEntryTypeId&#45;&gt;ledgerEntryType:ledgerEntryTypeId</title>
<path fill="none" stroke="black" d="M813.08,-841.88C868.34,-833.35 822.36,-750.9 853.7,-691.6 888.39,-625.97 880.25,-558.4 954.48,-558.4"/>
<polygon fill="black" stroke="black" points="813.19,-841.87 802.9,-838.09 807.87,-842.25 803.55,-842.55 803.55,-842.55 803.55,-842.55 807.87,-842.25 803.54,-847.07 813.19,-841.87"/>
<text text-anchor="start" x="809.89" y="-852.6" font-family="Arial" font-size="10.00">FOREIGN KEY (ledgerEntryTypeId) REFERENCES ledgerEntryType (ledgerEntryTypeId)</text>
</g>
<!-- settlementContentAggregation -->
<g id="node4" class="node">
<title>settlementContentAggregation</title>
<polygon fill="#efefef" stroke="none" points="905.98,-1104.4 905.98,-1140 1265.42,-1140 1265.42,-1104.4 905.98,-1104.4"/>
<polygon fill="none" stroke="black" points="905.98,-1104.4 905.98,-1140 1265.42,-1140 1265.42,-1104.4 905.98,-1104.4"/>
<text text-anchor="start" x="912.98" y="-1117.8" font-family="Arial Bold" font-size="18.00">settlementContentAggregation</text>
<text text-anchor="start" x="1133.93" y="-1117.8" font-family="Arial" font-size="14.00">    </text>
<text text-anchor="start" x="1165.05" y="-1117.8" font-family="Arial" font-size="14.00" fill="#666666">[BASE TABLE]</text>
<polygon fill="none" stroke="black" points="905.98,-1073.6 905.98,-1104.4 1265.42,-1104.4 1265.42,-1073.6 905.98,-1073.6"/>
<text text-anchor="start" x="912.98" y="-1085.8" font-family="Arial" font-size="14.00">settlementContentAggregationId </text>
<text text-anchor="start" x="1117.67" y="-1085.8" font-family="Arial" font-size="14.00" fill="#666666">[bigint unsigned]</text>
<polygon fill="none" stroke="black" points="905.98,-1042.8 905.98,-1073.6 1265.42,-1073.6 1265.42,-1042.8 905.98,-1042.8"/>
<text text-anchor="start" x="912.98" y="-1055" font-family="Arial" font-size="14.00">settlementWindowContentId </text>
<text text-anchor="start" x="1091.96" y="-1055" font-family="Arial" font-size="14.00" fill="#666666">[bigint unsigned]</text>
<polygon fill="none" stroke="black" points="905.98,-1012 905.98,-1042.8 1265.42,-1042.8 1265.42,-1012 905.98,-1012"/>
<text text-anchor="start" x="912.98" y="-1024.2" font-family="Arial" font-size="14.00">participantCurrencyId </text>
<text text-anchor="start" x="1049.93" y="-1024.2" font-family="Arial" font-size="14.00" fill="#666666">[int unsigned]</text>
<polygon fill="none" stroke="black" points="905.98,-981.2 905.98,-1012 1265.42,-1012 1265.42,-981.2 905.98,-981.2"/>
<text text-anchor="start" x="912.98" y="-993.4" font-family="Arial" font-size="14.00">transferParticipantRoleTypeId </text>
<text text-anchor="start" x="1102.07" y="-993.4" font-family="Arial" font-size="14.00" fill="#666666">[int unsigned]</text>
<polygon fill="none" stroke="black" points="905.98,-950.4 905.98,-981.2 1265.42,-981.2 1265.42,-950.4 905.98,-950.4"/>
<text text-anchor="start" x="912.98" y="-962.6" font-family="Arial" font-size="14.00">ledgerEntryTypeId </text>
<text text-anchor="start" x="1031.26" y="-962.6" font-family="Arial" font-size="14.00" fill="#666666">[int unsigned]</text>
<polygon fill="none" stroke="black" points="905.98,-919.6 905.98,-950.4 1265.42,-950.4 1265.42,-919.6 905.98,-919.6"/>
<text text-anchor="start" x="912.98" y="-931.8" font-family="Arial" font-size="14.00">amount </text>
<text text-anchor="start" x="963.57" y="-931.8" font-family="Arial" font-size="14.00" fill="#666666">[decimal(18,4)]</text>
<polygon fill="none" stroke="black" points="905.98,-888.8 905.98,-919.6 1265.42,-919.6 1265.42,-888.8 905.98,-888.8"/>
<text text-anchor="start" x="912.98" y="-901" font-family="Arial" font-size="14.00">createdDate </text>
<text text-anchor="start" x="993.14" y="-901" font-family="Arial" font-size="14.00" fill="#666666">[datetime]</text>
<polygon fill="none" stroke="black" points="905.98,-858 905.98,-888.8 1265.42,-888.8 1265.42,-858 905.98,-858"/>
<text text-anchor="start" x="912.98" y="-870.2" font-family="Arial" font-size="14.00">currentStateId </text>
<text text-anchor="start" x="1004.81" y="-870.2" font-family="Arial" font-size="14.00" fill="#666666">[varchar(50)]</text>
<polygon fill="none" stroke="black" points="905.98,-827.2 905.98,-858 1265.42,-858 1265.42,-827.2 905.98,-827.2"/>
<text text-anchor="start" x="912.98" y="-839.4" font-family="Arial" font-size="14.00">settlementId </text>
<text text-anchor="start" x="993.13" y="-839.4" font-family="Arial" font-size="14.00" fill="#666666">[bigint unsigned]</text>
</g>
<!-- settlementContentAggregation&#45;&gt;ledgerEntryType -->
<g id="edge3" class="edge">
<title>settlementContentAggregation:ledgerEntryTypeId&#45;&gt;ledgerEntryType:ledgerEntryTypeId</title>
<path fill="none" stroke="black" d="M1276.47,-963.98C1353.69,-934.59 1304.56,-558.4 1216.92,-558.4"/>
<polygon fill="black" stroke="black" points="1276.59,-963.96 1265.95,-961.31 1271.34,-964.91 1267.08,-965.68 1267.08,-965.68 1267.08,-965.68 1271.34,-964.91 1267.55,-970.17 1276.59,-963.96"/>
<text text-anchor="start" x="1273.42" y="-975.8" font-family="Arial" font-size="10.00">FOREIGN KEY (ledgerEntryTypeId) REFERENCES ledgerEntryType (ledgerEntryTypeId)</text>
</g>
<!-- settlementTransferParticipant -->
<g id="node5" class="node">
<title>settlementTransferParticipant</title>
<polygon fill="#efefef" stroke="none" points="1370,-1089 1370,-1124.6 1721.4,-1124.6 1721.4,-1089 1370,-1089"/>
<polygon fill="none" stroke="black" points="1370,-1089 1370,-1124.6 1721.4,-1124.6 1721.4,-1089 1370,-1089"/>
<text text-anchor="start" x="1377" y="-1102.4" font-family="Arial Bold" font-size="18.00">settlementTransferParticipant</text>
<text text-anchor="start" x="1589.91" y="-1102.4" font-family="Arial" font-size="14.00">    </text>
<text text-anchor="start" x="1621.03" y="-1102.4" font-family="Arial" font-size="14.00" fill="#666666">[BASE TABLE]</text>
<polygon fill="none" stroke="black" points="1370,-1058.2 1370,-1089 1721.4,-1089 1721.4,-1058.2 1370,-1058.2"/>
<text text-anchor="start" x="1377" y="-1070.4" font-family="Arial" font-size="14.00">settlementTransferParticipantId </text>
<text text-anchor="start" x="1575.42" y="-1070.4" font-family="Arial" font-size="14.00" fill="#666666">[bigint unsigned]</text>
<polygon fill="none" stroke="black" points="1370,-1027.4 1370,-1058.2 1721.4,-1058.2 1721.4,-1027.4 1370,-1027.4"/>
<text text-anchor="start" x="1377" y="-1039.6" font-family="Arial" font-size="14.00">settlementId </text>
<text text-anchor="start" x="1457.15" y="-1039.6" font-family="Arial" font-size="14.00" fill="#666666">[bigint unsigned]</text>
<polygon fill="none" stroke="black" points="1370,-996.6 1370,-1027.4 1721.4,-1027.4 1721.4,-996.6 1370,-996.6"/>
<text text-anchor="start" x="1377" y="-1008.8" font-family="Arial" font-size="14.00">settlementWindowId </text>
<text text-anchor="start" x="1506.94" y="-1008.8" font-family="Arial" font-size="14.00" fill="#666666">[bigint unsigned]</text>
<polygon fill="none" stroke="black" points="1370,-965.8 1370,-996.6 1721.4,-996.6 1721.4,-965.8 1370,-965.8"/>
<text text-anchor="start" x="1377" y="-978" font-family="Arial" font-size="14.00">participantCurrencyId </text>
<text text-anchor="start" x="1513.95" y="-978" font-family="Arial" font-size="14.00" fill="#666666">[int unsigned]</text>
<polygon fill="none" stroke="black" points="1370,-935 1370,-965.8 1721.4,-965.8 1721.4,-935 1370,-935"/>
<text text-anchor="start" x="1377" y="-947.2" font-family="Arial" font-size="14.00">transferParticipantRoleTypeId </text>
<text text-anchor="start" x="1566.09" y="-947.2" font-family="Arial" font-size="14.00" fill="#666666">[int unsigned]</text>
<polygon fill="none" stroke="black" points="1370,-904.2 1370,-935 1721.4,-935 1721.4,-904.2 1370,-904.2"/>
<text text-anchor="start" x="1377" y="-916.4" font-family="Arial" font-size="14.00">ledgerEntryTypeId </text>
<text text-anchor="start" x="1495.28" y="-916.4" font-family="Arial" font-size="14.00" fill="#666666">[int unsigned]</text>
<polygon fill="none" stroke="black" points="1370,-873.4 1370,-904.2 1721.4,-904.2 1721.4,-873.4 1370,-873.4"/>
<text text-anchor="start" x="1377" y="-885.6" font-family="Arial" font-size="14.00">amount </text>
<text text-anchor="start" x="1427.58" y="-885.6" font-family="Arial" font-size="14.00" fill="#666666">[decimal(18,4)]</text>
<polygon fill="none" stroke="black" points="1370,-842.6 1370,-873.4 1721.4,-873.4 1721.4,-842.6 1370,-842.6"/>
<text text-anchor="start" x="1377" y="-854.8" font-family="Arial" font-size="14.00">createdDate </text>
<text text-anchor="start" x="1457.16" y="-854.8" font-family="Arial" font-size="14.00" fill="#666666">[datetime]</text>
</g>
<!-- settlementTransferParticipant&#45;&gt;ledgerEntryType -->
<g id="edge4" class="edge">
<title>settlementTransferParticipant:ledgerEntryTypeId&#45;&gt;ledgerEntryType:ledgerEntryTypeId</title>
<path fill="none" stroke="black" d="M1358.77,-919.11C1271.73,-910.24 1359.89,-782.5 1317.7,-691.6 1286.45,-624.26 1291.15,-558.4 1216.92,-558.4"/>
<polygon fill="black" stroke="black" points="1358.67,-919.11 1368.45,-924.08 1364,-919.36 1368.33,-919.57 1368.33,-919.57 1368.33,-919.57 1364,-919.36 1368.88,-915.09 1358.67,-919.11"/>
<text text-anchor="start" x="1376" y="-929.6" font-family="Arial" font-size="10.00">FOREIGN KEY (ledgerEntryTypeId) REFERENCES ledgerEntryType (ledgerEntryTypeId)</text>
</g>
<!-- transferParticipant -->
<g id="node6" class="node">
<title>transferParticipant</title>
<polygon fill="#efefef" stroke="none" points="1825.51,-1104.4 1825.51,-1140 2111.89,-1140 2111.89,-1104.4 1825.51,-1104.4"/>
<polygon fill="none" stroke="black" points="1825.51,-1104.4 1825.51,-1140 2111.89,-1140 2111.89,-1104.4 1825.51,-1104.4"/>
<text text-anchor="start" x="1839.98" y="-1117.8" font-family="Arial Bold" font-size="18.00">transferParticipant</text>
<text text-anchor="start" x="1972.93" y="-1117.8" font-family="Arial" font-size="14.00">    </text>
<text text-anchor="start" x="2004.04" y="-1117.8" font-family="Arial" font-size="14.00" fill="#666666">[BASE TABLE]</text>
<polygon fill="none" stroke="black" points="1825.51,-1073.6 1825.51,-1104.4 2111.89,-1104.4 2111.89,-1073.6 1825.51,-1073.6"/>
<text text-anchor="start" x="1832.51" y="-1085.8" font-family="Arial" font-size="14.00">transferParticipantId </text>
<text text-anchor="start" x="1961.69" y="-1085.8" font-family="Arial" font-size="14.00" fill="#666666">[bigint unsigned]</text>
<polygon fill="none" stroke="black" points="1825.51,-1042.8 1825.51,-1073.6 2111.89,-1073.6 2111.89,-1042.8 1825.51,-1042.8"/>
<text text-anchor="start" x="1832.51" y="-1055" font-family="Arial" font-size="14.00">transferId </text>
<text text-anchor="start" x="1895.54" y="-1055" font-family="Arial" font-size="14.00" fill="#666666">[varchar(36)]</text>
<polygon fill="none" stroke="black" points="1825.51,-1012 1825.51,-1042.8 2111.89,-1042.8 2111.89,-1012 1825.51,-1012"/>
<text text-anchor="start" x="1832.51" y="-1024.2" font-family="Arial" font-size="14.00">participantCurrencyId </text>
<text text-anchor="start" x="1969.47" y="-1024.2" font-family="Arial" font-size="14.00" fill="#666666">[int unsigned]</text>
<polygon fill="none" stroke="black" points="1825.51,-981.2 1825.51,-1012 2111.89,-1012 2111.89,-981.2 1825.51,-981.2"/>
<text text-anchor="start" x="1832.51" y="-993.4" font-family="Arial" font-size="14.00">transferParticipantRoleTypeId </text>
<text text-anchor="start" x="2021.6" y="-993.4" font-family="Arial" font-size="14.00" fill="#666666">[int unsigned]</text>
<polygon fill="none" stroke="black" points="1825.51,-950.4 1825.51,-981.2 2111.89,-981.2 2111.89,-950.4 1825.51,-950.4"/>
<text text-anchor="start" x="1832.51" y="-962.6" font-family="Arial" font-size="14.00">ledgerEntryTypeId </text>
<text text-anchor="start" x="1950.8" y="-962.6" font-family="Arial" font-size="14.00" fill="#666666">[int unsigned]</text>
<polygon fill="none" stroke="black" points="1825.51,-919.6 1825.51,-950.4 2111.89,-950.4 2111.89,-919.6 1825.51,-919.6"/>
<text text-anchor="start" x="1832.51" y="-931.8" font-family="Arial" font-size="14.00">amount </text>
<text text-anchor="start" x="1883.1" y="-931.8" font-family="Arial" font-size="14.00" fill="#666666">[decimal(18,4)]</text>
<polygon fill="none" stroke="black" points="1825.51,-888.8 1825.51,-919.6 2111.89,-919.6 2111.89,-888.8 1825.51,-888.8"/>
<text text-anchor="start" x="1832.51" y="-901" font-family="Arial" font-size="14.00">createdDate </text>
<text text-anchor="start" x="1912.67" y="-901" font-family="Arial" font-size="14.00" fill="#666666">[datetime]</text>
<polygon fill="none" stroke="black" points="1825.51,-858 1825.51,-888.8 2111.89,-888.8 2111.89,-858 1825.51,-858"/>
<text text-anchor="start" x="1832.51" y="-870.2" font-family="Arial" font-size="14.00">participantId </text>
<text text-anchor="start" x="1912.67" y="-870.2" font-family="Arial" font-size="14.00" fill="#666666">[int unsigned]</text>
<polygon fill="none" stroke="black" points="1825.51,-827.2 1825.51,-858 2111.89,-858 2111.89,-827.2 1825.51,-827.2"/>
<text text-anchor="start" x="1832.51" y="-839.4" font-family="Arial" font-size="14.00">externalParticipantId </text>
<text text-anchor="start" x="1964.03" y="-839.4" font-family="Arial" font-size="14.00" fill="#666666">[bigint unsigned]</text>
</g>
<!-- transferParticipant&#45;&gt;ledgerEntryType -->
<g id="edge5" class="edge">
<title>transferParticipant:ledgerEntryTypeId&#45;&gt;ledgerEntryType:ledgerEntryTypeId</title>
<path fill="none" stroke="black" d="M1814.33,-965.33C1709.65,-955.08 1856.55,-778.84 1773.7,-691.6 1686.09,-599.35 1344.14,-558.4 1216.92,-558.4"/>
<polygon fill="black" stroke="black" points="1814.19,-965.33 1823.97,-970.28 1819.52,-965.57 1823.85,-965.77 1823.85,-965.77 1823.85,-965.77 1819.52,-965.57 1824.39,-961.29 1814.19,-965.33"/>
<text text-anchor="start" x="1831.51" y="-975.8" font-family="Arial" font-size="10.00">FOREIGN KEY (ledgerEntryTypeId) REFERENCES ledgerEntryType (ledgerEntryTypeId)</text>
</g>
</g>
</svg>
