<?xml version="1.0" encoding="UTF-8" standalone="no"?>
<!DOCTYPE svg PUBLIC "-//W3C//DTD SVG 1.1//EN"
 "http://www.w3.org/Graphics/SVG/1.1/DTD/svg11.dtd">
<!-- Generated by graphviz version 12.1.2 (20240928.0832)
 -->
<!-- Title: ledgerEntryType Pages: 1 -->
<svg width="2692pt" height="801pt"
 viewBox="0.00 0.00 2692.42 801.29" xmlns="http://www.w3.org/2000/svg" xmlns:xlink="http://www.w3.org/1999/xlink">
<g id="graph0" class="graph" transform="scale(1 1) rotate(0) translate(4 797.29)">
<title>ledgerEntryType</title>
<polygon fill="white" stroke="none" points="-4,4 -4,-797.29 2688.42,-797.29 2688.42,4 -4,4"/>
<!-- ledgerEntryType -->
<g id="node1" class="node">
<title>ledgerEntryType</title>
<polygon fill="#efefef" stroke="none" points="1403.48,-307.09 1403.48,-342.69 1663.92,-342.69 1663.92,-307.09 1403.48,-307.09"/>
<polygon fill="none" stroke="black" points="1403.48,-307.09 1403.48,-342.69 1663.92,-342.69 1663.92,-307.09 1403.48,-307.09"/>
<text text-anchor="start" x="1410.48" y="-320.49" font-family="Arial Bold" font-size="18.00">ledgerEntryType</text>
<text text-anchor="start" x="1532.43" y="-320.49" font-family="Arial" font-size="14.00">    </text>
<text text-anchor="start" x="1563.55" y="-320.49" font-family="Arial" font-size="14.00" fill="#666666">[BASE TABLE]</text>
<polygon fill="none" stroke="black" points="1403.48,-276.29 1403.48,-307.09 1663.92,-307.09 1663.92,-276.29 1403.48,-276.29"/>
<text text-anchor="start" x="1410.48" y="-288.49" font-family="Arial" font-size="14.00">ledgerEntryTypeId </text>
<text text-anchor="start" x="1528.76" y="-288.49" font-family="Arial" font-size="14.00" fill="#666666">[int unsigned]</text>
<polygon fill="none" stroke="black" points="1403.48,-245.49 1403.48,-276.29 1663.92,-276.29 1663.92,-245.49 1403.48,-245.49"/>
<text text-anchor="start" x="1410.48" y="-257.69" font-family="Arial" font-size="14.00">ledgerAccountTypeId </text>
<text text-anchor="start" x="1546.67" y="-257.69" font-family="Arial" font-size="14.00" fill="#666666">[int unsigned]</text>
<polygon fill="none" stroke="black" stroke-width="3" points="1401.98,-243.99 1401.98,-344.19 1665.42,-344.19 1665.42,-243.99 1401.98,-243.99"/>
</g>
<!-- ledgerAccountType -->
<g id="node7" class="node">
<title>ledgerAccountType</title>
<polygon fill="#efefef" stroke="none" points="1392.99,-84.49 1392.99,-120.09 1674.41,-120.09 1674.41,-84.49 1392.99,-84.49"/>
<polygon fill="none" stroke="black" points="1392.99,-84.49 1392.99,-120.09 1674.41,-120.09 1674.41,-84.49 1392.99,-84.49"/>
<text text-anchor="start" x="1399.99" y="-97.89" font-family="Arial Bold" font-size="18.00">ledgerAccountType</text>
<text text-anchor="start" x="1542.92" y="-97.89" font-family="Arial" font-size="14.00">    </text>
<text text-anchor="start" x="1574.04" y="-97.89" font-family="Arial" font-size="14.00" fill="#666666">[BASE TABLE]</text>
<polygon fill="none" stroke="black" points="1392.99,-53.69 1392.99,-84.49 1674.41,-84.49 1674.41,-53.69 1392.99,-53.69"/>
<text text-anchor="start" x="1399.99" y="-65.89" font-family="Arial" font-size="14.00">ledgerAccountTypeId </text>
<text text-anchor="start" x="1536.18" y="-65.89" font-family="Arial" font-size="14.00" fill="#666666">[int unsigned]</text>
</g>
<!-- ledgerEntryType&#45;&gt;ledgerAccountType -->
<g id="edge6" class="edge">
<title>ledgerEntryType:ledgerAccountTypeId&#45;&gt;ledgerAccountType:ledgerAccountTypeId</title>
<path fill="none" stroke="black" d="M1534.37,-234.34C1544.64,-161.68 1670.83,-235.08 1717.61,-163.29 1744.21,-122.48 1751.96,-88.23 1717.61,-53.69 1659.97,4.26 1533.7,29.05 1533.7,-52.69"/>
<polygon fill="black" stroke="black" points="1534.38,-234.18 1529.23,-243.86 1534.03,-239.5 1533.74,-243.82 1533.74,-243.82 1533.74,-243.82 1534.03,-239.5 1538.21,-244.45 1534.38,-234.18"/>
<text text-anchor="start" x="1090.41" y="-254.49" font-family="Arial" font-size="10.00">FOREIGN KEY (ledgerAccountTypeId) REFERENCES ledgerAccountType (ledgerAccountTypeId)</text>
</g>
<!-- fxTransferParticipant -->
<g id="node2" class="node">
<title>fxTransferParticipant</title>
<polygon fill="#efefef" stroke="none" points="118.49,-699.09 118.49,-734.69 410.91,-734.69 410.91,-699.09 118.49,-699.09"/>
<polygon fill="none" stroke="black" points="118.49,-699.09 118.49,-734.69 410.91,-734.69 410.91,-699.09 118.49,-699.09"/>
<text text-anchor="start" x="125.49" y="-712.49" font-family="Arial Bold" font-size="18.00">fxTransferParticipant</text>
<text text-anchor="start" x="279.42" y="-712.49" font-family="Arial" font-size="14.00">    </text>
<text text-anchor="start" x="310.54" y="-712.49" font-family="Arial" font-size="14.00" fill="#666666">[BASE TABLE]</text>
<polygon fill="none" stroke="black" points="118.49,-668.29 118.49,-699.09 410.91,-699.09 410.91,-668.29 118.49,-668.29"/>
<text text-anchor="start" x="125.49" y="-680.49" font-family="Arial" font-size="14.00">fxTransferParticipantId </text>
<text text-anchor="start" x="270.21" y="-680.49" font-family="Arial" font-size="14.00" fill="#666666">[bigint unsigned]</text>
<polygon fill="none" stroke="black" points="118.49,-637.49 118.49,-668.29 410.91,-668.29 410.91,-637.49 118.49,-637.49"/>
<text text-anchor="start" x="125.49" y="-649.69" font-family="Arial" font-size="14.00">commitRequestId </text>
<text text-anchor="start" x="238.31" y="-649.69" font-family="Arial" font-size="14.00" fill="#666666">[varchar(36)]</text>
<polygon fill="none" stroke="black" points="118.49,-606.69 118.49,-637.49 410.91,-637.49 410.91,-606.69 118.49,-606.69"/>
<text text-anchor="start" x="125.49" y="-618.89" font-family="Arial" font-size="14.00">participantCurrencyId </text>
<text text-anchor="start" x="262.44" y="-618.89" font-family="Arial" font-size="14.00" fill="#666666">[int unsigned]</text>
<polygon fill="none" stroke="black" points="118.49,-575.89 118.49,-606.69 410.91,-606.69 410.91,-575.89 118.49,-575.89"/>
<text text-anchor="start" x="125.49" y="-588.09" font-family="Arial" font-size="14.00">transferParticipantRoleTypeId </text>
<text text-anchor="start" x="314.58" y="-588.09" font-family="Arial" font-size="14.00" fill="#666666">[int unsigned]</text>
<polygon fill="none" stroke="black" points="118.49,-545.09 118.49,-575.89 410.91,-575.89 410.91,-545.09 118.49,-545.09"/>
<text text-anchor="start" x="125.49" y="-557.29" font-family="Arial" font-size="14.00">ledgerEntryTypeId </text>
<text text-anchor="start" x="243.77" y="-557.29" font-family="Arial" font-size="14.00" fill="#666666">[int unsigned]</text>
<polygon fill="none" stroke="black" points="118.49,-514.29 118.49,-545.09 410.91,-545.09 410.91,-514.29 118.49,-514.29"/>
<text text-anchor="start" x="125.49" y="-526.49" font-family="Arial" font-size="14.00">fxParticipantCurrencyTypeId </text>
<text text-anchor="start" x="306.01" y="-526.49" font-family="Arial" font-size="14.00" fill="#666666">[int unsigned]</text>
<polygon fill="none" stroke="black" points="118.49,-483.49 118.49,-514.29 410.91,-514.29 410.91,-483.49 118.49,-483.49"/>
<text text-anchor="start" x="125.49" y="-495.69" font-family="Arial" font-size="14.00">externalParticipantId </text>
<text text-anchor="start" x="257.01" y="-495.69" font-family="Arial" font-size="14.00" fill="#666666">[bigint unsigned]</text>
</g>
<!-- fxTransferParticipant&#45;&gt;ledgerEntryType -->
<g id="edge1" class="edge">
<title>fxTransferParticipant:ledgerEntryTypeId&#45;&gt;ledgerEntryType:ledgerEntryTypeId</title>
<path fill="none" stroke="black" d="M422.28,-559.48C469.19,-549.15 416.33,-462.69 463.7,-424.89 628.4,-293.48 1191.77,-291.69 1402.48,-291.69"/>
<polygon fill="black" stroke="black" points="422.2,-559.48 411.8,-555.98 416.89,-560 412.58,-560.43 412.58,-560.43 412.58,-560.43 416.89,-560 412.68,-564.94 422.2,-559.48"/>
<text text-anchor="start" x="7" y="-570.49" font-family="Arial" font-size="10.00">FOREIGN KEY (ledgerEntryTypeId) REFERENCES ledgerEntryType (ledgerEntryTypeId)</text>
</g>
<!-- quoteParty -->
<g id="node3" class="node">
<title>quoteParty</title>
<polygon fill="#efefef" stroke="none" points="515.41,-714.49 515.41,-750.09 1249.99,-750.09 1249.99,-714.49 515.41,-714.49"/>
<polygon fill="none" stroke="black" points="515.41,-714.49 515.41,-750.09 1249.99,-750.09 1249.99,-714.49 515.41,-714.49"/>
<text text-anchor="start" x="781.46" y="-727.89" font-family="Arial Bold" font-size="18.00">quoteParty</text>
<text text-anchor="start" x="859.45" y="-727.89" font-family="Arial" font-size="14.00">    </text>
<text text-anchor="start" x="890.56" y="-727.89" font-family="Arial" font-size="14.00" fill="#666666">[BASE TABLE]</text>
<polygon fill="none" stroke="black" points="515.41,-683.69 515.41,-714.49 1249.99,-714.49 1249.99,-683.69 515.41,-683.69"/>
<text text-anchor="start" x="522.41" y="-695.89" font-family="Arial" font-size="14.00">quotePartyId </text>
<text text-anchor="start" x="605.68" y="-695.89" font-family="Arial" font-size="14.00" fill="#666666">[bigint unsigned]</text>
<polygon fill="none" stroke="black" points="515.41,-652.89 515.41,-683.69 1249.99,-683.69 1249.99,-652.89 515.41,-652.89"/>
<text text-anchor="start" x="522.41" y="-665.09" font-family="Arial" font-size="14.00">quoteId </text>
<text text-anchor="start" x="573.01" y="-665.09" font-family="Arial" font-size="14.00" fill="#666666">[varchar(36)]</text>
<text text-anchor="start" x="652.37" y="-665.09" font-family="Arial" font-size="14.00"> Common ID between the FSPs for the quote object, decided by the Payer FSP</text>
<polygon fill="none" stroke="black" points="515.41,-622.09 515.41,-652.89 1249.99,-652.89 1249.99,-622.09 515.41,-622.09"/>
<text text-anchor="start" x="522.41" y="-634.29" font-family="Arial" font-size="14.00">partyTypeId </text>
<text text-anchor="start" x="600.22" y="-634.29" font-family="Arial" font-size="14.00" fill="#666666">[int unsigned]</text>
<text text-anchor="start" x="683.5" y="-634.29" font-family="Arial" font-size="14.00"> Specifies the type of party this row relates to; typically PAYER or PAYEE</text>
<polygon fill="none" stroke="black" points="515.41,-591.29 515.41,-622.09 1249.99,-622.09 1249.99,-591.29 515.41,-591.29"/>
<text text-anchor="start" x="522.41" y="-603.49" font-family="Arial" font-size="14.00">partyIdentifierTypeId </text>
<text text-anchor="start" x="653.92" y="-603.49" font-family="Arial" font-size="14.00" fill="#666666">[int unsigned]</text>
<text text-anchor="start" x="737.2" y="-603.49" font-family="Arial" font-size="14.00"> Specifies the type of identifier used to identify this party e.g. MSISDN, IBAN etc...</text>
<polygon fill="none" stroke="black" points="515.41,-560.49 515.41,-591.29 1249.99,-591.29 1249.99,-560.49 515.41,-560.49"/>
<text text-anchor="start" x="522.41" y="-572.69" font-family="Arial" font-size="14.00">participantId </text>
<text text-anchor="start" x="602.57" y="-572.69" font-family="Arial" font-size="14.00" fill="#666666">[int unsigned]</text>
<text text-anchor="start" x="685.85" y="-572.69" font-family="Arial" font-size="14.00"> Reference to the resolved FSP ID (if supplied/known). If not an error will be reported</text>
<polygon fill="none" stroke="black" points="515.41,-529.69 515.41,-560.49 1249.99,-560.49 1249.99,-529.69 515.41,-529.69"/>
<text text-anchor="start" x="522.41" y="-541.89" font-family="Arial" font-size="14.00">transferParticipantRoleTypeId </text>
<text text-anchor="start" x="711.5" y="-541.89" font-family="Arial" font-size="14.00" fill="#666666">[int unsigned]</text>
<text text-anchor="start" x="794.78" y="-541.89" font-family="Arial" font-size="14.00"> The role this Party is playing in the transaction</text>
<polygon fill="none" stroke="black" points="515.41,-498.89 515.41,-529.69 1249.99,-529.69 1249.99,-498.89 515.41,-498.89"/>
<text text-anchor="start" x="522.41" y="-511.09" font-family="Arial" font-size="14.00">ledgerEntryTypeId </text>
<text text-anchor="start" x="640.69" y="-511.09" font-family="Arial" font-size="14.00" fill="#666666">[int unsigned]</text>
<text text-anchor="start" x="723.97" y="-511.09" font-family="Arial" font-size="14.00"> The type of financial entry this Party is presenting</text>
<polygon fill="none" stroke="black" points="515.41,-468.09 515.41,-498.89 1249.99,-498.89 1249.99,-468.09 515.41,-468.09"/>
<text text-anchor="start" x="522.41" y="-480.29" font-family="Arial" font-size="14.00">currencyId </text>
<text text-anchor="start" x="591.66" y="-480.29" font-family="Arial" font-size="14.00" fill="#666666">[varchar(3)]</text>
<text text-anchor="start" x="663.23" y="-480.29" font-family="Arial" font-size="14.00"> Trading currency pertaining to the party amount</text>
</g>
<!-- quoteParty&#45;&gt;ledgerEntryType -->
<g id="edge2" class="edge">
<title>quoteParty:ledgerEntryTypeId&#45;&gt;ledgerEntryType:ledgerEntryTypeId</title>
<path fill="none" stroke="black" d="M1260.97,-513.29C1293.68,-505.97 1278.66,-459.92 1301.7,-424.89 1342.5,-362.87 1328.25,-291.69 1402.48,-291.69"/>
<polygon fill="black" stroke="black" points="1261.27,-513.26 1250.88,-509.78 1255.97,-513.79 1251.66,-514.23 1251.66,-514.23 1251.66,-514.23 1255.97,-513.79 1251.77,-518.74 1261.27,-513.26"/>
<text text-anchor="start" x="1257.99" y="-524.29" font-family="Arial" font-size="10.00">FOREIGN KEY (ledgerEntryTypeId) REFERENCES ledgerEntryType (ledgerEntryTypeId)</text>
</g>
<!-- settlementContentAggregation -->
<g id="node4" class="node">
<title>settlementContentAggregation</title>
<polygon fill="#efefef" stroke="none" points="1353.98,-699.09 1353.98,-734.69 1713.42,-734.69 1713.42,-699.09 1353.98,-699.09"/>
<polygon fill="none" stroke="black" points="1353.98,-699.09 1353.98,-734.69 1713.42,-734.69 1713.42,-699.09 1353.98,-699.09"/>
<text text-anchor="start" x="1360.98" y="-712.49" font-family="Arial Bold" font-size="18.00">settlementContentAggregation</text>
<text text-anchor="start" x="1581.93" y="-712.49" font-family="Arial" font-size="14.00">    </text>
<text text-anchor="start" x="1613.05" y="-712.49" font-family="Arial" font-size="14.00" fill="#666666">[BASE TABLE]</text>
<polygon fill="none" stroke="black" points="1353.98,-668.29 1353.98,-699.09 1713.42,-699.09 1713.42,-668.29 1353.98,-668.29"/>
<text text-anchor="start" x="1360.98" y="-680.49" font-family="Arial" font-size="14.00">settlementContentAggregationId </text>
<text text-anchor="start" x="1565.67" y="-680.49" font-family="Arial" font-size="14.00" fill="#666666">[bigint unsigned]</text>
<polygon fill="none" stroke="black" points="1353.98,-637.49 1353.98,-668.29 1713.42,-668.29 1713.42,-637.49 1353.98,-637.49"/>
<text text-anchor="start" x="1360.98" y="-649.69" font-family="Arial" font-size="14.00">settlementWindowContentId </text>
<text text-anchor="start" x="1539.96" y="-649.69" font-family="Arial" font-size="14.00" fill="#666666">[bigint unsigned]</text>
<polygon fill="none" stroke="black" points="1353.98,-606.69 1353.98,-637.49 1713.42,-637.49 1713.42,-606.69 1353.98,-606.69"/>
<text text-anchor="start" x="1360.98" y="-618.89" font-family="Arial" font-size="14.00">participantCurrencyId </text>
<text text-anchor="start" x="1497.93" y="-618.89" font-family="Arial" font-size="14.00" fill="#666666">[int unsigned]</text>
<polygon fill="none" stroke="black" points="1353.98,-575.89 1353.98,-606.69 1713.42,-606.69 1713.42,-575.89 1353.98,-575.89"/>
<text text-anchor="start" x="1360.98" y="-588.09" font-family="Arial" font-size="14.00">transferParticipantRoleTypeId </text>
<text text-anchor="start" x="1550.07" y="-588.09" font-family="Arial" font-size="14.00" fill="#666666">[int unsigned]</text>
<polygon fill="none" stroke="black" points="1353.98,-545.09 1353.98,-575.89 1713.42,-575.89 1713.42,-545.09 1353.98,-545.09"/>
<text text-anchor="start" x="1360.98" y="-557.29" font-family="Arial" font-size="14.00">ledgerEntryTypeId </text>
<text text-anchor="start" x="1479.26" y="-557.29" font-family="Arial" font-size="14.00" fill="#666666">[int unsigned]</text>
<polygon fill="none" stroke="black" points="1353.98,-514.29 1353.98,-545.09 1713.42,-545.09 1713.42,-514.29 1353.98,-514.29"/>
<text text-anchor="start" x="1360.98" y="-526.49" font-family="Arial" font-size="14.00">currentStateId </text>
<text text-anchor="start" x="1452.81" y="-526.49" font-family="Arial" font-size="14.00" fill="#666666">[varchar(50)]</text>
<polygon fill="none" stroke="black" points="1353.98,-483.49 1353.98,-514.29 1713.42,-514.29 1713.42,-483.49 1353.98,-483.49"/>
<text text-anchor="start" x="1360.98" y="-495.69" font-family="Arial" font-size="14.00">settlementId </text>
<text text-anchor="start" x="1441.13" y="-495.69" font-family="Arial" font-size="14.00" fill="#666666">[bigint unsigned]</text>
</g>
<!-- settlementContentAggregation&#45;&gt;ledgerEntryType -->
<g id="edge3" class="edge">
<title>settlementContentAggregation:ledgerEntryTypeId&#45;&gt;ledgerEntryType:ledgerEntryTypeId</title>
<path fill="none" stroke="black" d="M1724.26,-557.65C1769.12,-528.93 1721.98,-291.69 1664.92,-291.69"/>
<polygon fill="black" stroke="black" points="1724.35,-557.63 1713.49,-556.08 1719.22,-559.11 1715.06,-560.31 1715.06,-560.31 1715.06,-560.31 1719.22,-559.11 1715.99,-564.72 1724.35,-557.63"/>
<text text-anchor="start" x="1721.42" y="-570.49" font-family="Arial" font-size="10.00">FOREIGN KEY (ledgerEntryTypeId) REFERENCES ledgerEntryType (ledgerEntryTypeId)</text>
</g>
<!-- settlementTransferParticipant -->
<g id="node5" class="node">
<title>settlementTransferParticipant</title>
<polygon fill="#efefef" stroke="none" points="1818,-683.69 1818,-719.29 2169.4,-719.29 2169.4,-683.69 1818,-683.69"/>
<polygon fill="none" stroke="black" points="1818,-683.69 1818,-719.29 2169.4,-719.29 2169.4,-683.69 1818,-683.69"/>
<text text-anchor="start" x="1825" y="-697.09" font-family="Arial Bold" font-size="18.00">settlementTransferParticipant</text>
<text text-anchor="start" x="2037.91" y="-697.09" font-family="Arial" font-size="14.00">    </text>
<text text-anchor="start" x="2069.03" y="-697.09" font-family="Arial" font-size="14.00" fill="#666666">[BASE TABLE]</text>
<polygon fill="none" stroke="black" points="1818,-652.89 1818,-683.69 2169.4,-683.69 2169.4,-652.89 1818,-652.89"/>
<text text-anchor="start" x="1825" y="-665.09" font-family="Arial" font-size="14.00">settlementTransferParticipantId </text>
<text text-anchor="start" x="2023.42" y="-665.09" font-family="Arial" font-size="14.00" fill="#666666">[bigint unsigned]</text>
<polygon fill="none" stroke="black" points="1818,-622.09 1818,-652.89 2169.4,-652.89 2169.4,-622.09 1818,-622.09"/>
<text text-anchor="start" x="1825" y="-634.29" font-family="Arial" font-size="14.00">settlementId </text>
<text text-anchor="start" x="1905.15" y="-634.29" font-family="Arial" font-size="14.00" fill="#666666">[bigint unsigned]</text>
<polygon fill="none" stroke="black" points="1818,-591.29 1818,-622.09 2169.4,-622.09 2169.4,-591.29 1818,-591.29"/>
<text text-anchor="start" x="1825" y="-603.49" font-family="Arial" font-size="14.00">settlementWindowId </text>
<text text-anchor="start" x="1954.94" y="-603.49" font-family="Arial" font-size="14.00" fill="#666666">[bigint unsigned]</text>
<polygon fill="none" stroke="black" points="1818,-560.49 1818,-591.29 2169.4,-591.29 2169.4,-560.49 1818,-560.49"/>
<text text-anchor="start" x="1825" y="-572.69" font-family="Arial" font-size="14.00">participantCurrencyId </text>
<text text-anchor="start" x="1961.95" y="-572.69" font-family="Arial" font-size="14.00" fill="#666666">[int unsigned]</text>
<polygon fill="none" stroke="black" points="1818,-529.69 1818,-560.49 2169.4,-560.49 2169.4,-529.69 1818,-529.69"/>
<text text-anchor="start" x="1825" y="-541.89" font-family="Arial" font-size="14.00">transferParticipantRoleTypeId </text>
<text text-anchor="start" x="2014.09" y="-541.89" font-family="Arial" font-size="14.00" fill="#666666">[int unsigned]</text>
<polygon fill="none" stroke="black" points="1818,-498.89 1818,-529.69 2169.4,-529.69 2169.4,-498.89 1818,-498.89"/>
<text text-anchor="start" x="1825" y="-511.09" font-family="Arial" font-size="14.00">ledgerEntryTypeId </text>
<text text-anchor="start" x="1943.28" y="-511.09" font-family="Arial" font-size="14.00" fill="#666666">[int unsigned]</text>
</g>
<!-- settlementTransferParticipant&#45;&gt;ledgerEntryType -->
<g id="edge4" class="edge">
<title>settlementTransferParticipant:ledgerEntryTypeId&#45;&gt;ledgerEntryType:ledgerEntryTypeId</title>
<path fill="none" stroke="black" d="M1806.99,-513.29C1774.13,-505.98 1788.9,-459.97 1765.7,-424.89 1724.75,-362.97 1739.15,-291.69 1664.92,-291.69"/>
<polygon fill="black" stroke="black" points="1806.71,-513.27 1816.22,-518.74 1812.02,-513.8 1816.33,-514.23 1816.33,-514.23 1816.33,-514.23 1812.02,-513.8 1817.11,-509.78 1806.71,-513.27"/>
<text text-anchor="start" x="1824" y="-524.29" font-family="Arial" font-size="10.00">FOREIGN KEY (ledgerEntryTypeId) REFERENCES ledgerEntryType (ledgerEntryTypeId)</text>
</g>
<!-- transferParticipant -->
<g id="node6" class="node">
<title>transferParticipant</title>
<polygon fill="#efefef" stroke="none" points="2273.51,-683.69 2273.51,-719.29 2559.89,-719.29 2559.89,-683.69 2273.51,-683.69"/>
<polygon fill="none" stroke="black" points="2273.51,-683.69 2273.51,-719.29 2559.89,-719.29 2559.89,-683.69 2273.51,-683.69"/>
<text text-anchor="start" x="2287.98" y="-697.09" font-family="Arial Bold" font-size="18.00">transferParticipant</text>
<text text-anchor="start" x="2420.93" y="-697.09" font-family="Arial" font-size="14.00">    </text>
<text text-anchor="start" x="2452.04" y="-697.09" font-family="Arial" font-size="14.00" fill="#666666">[BASE TABLE]</text>
<polygon fill="none" stroke="black" points="2273.51,-652.89 2273.51,-683.69 2559.89,-683.69 2559.89,-652.89 2273.51,-652.89"/>
<text text-anchor="start" x="2280.51" y="-665.09" font-family="Arial" font-size="14.00">transferParticipantId </text>
<text text-anchor="start" x="2409.69" y="-665.09" font-family="Arial" font-size="14.00" fill="#666666">[bigint unsigned]</text>
<polygon fill="none" stroke="black" points="2273.51,-622.09 2273.51,-652.89 2559.89,-652.89 2559.89,-622.09 2273.51,-622.09"/>
<text text-anchor="start" x="2280.51" y="-634.29" font-family="Arial" font-size="14.00">transferId </text>
<text text-anchor="start" x="2343.54" y="-634.29" font-family="Arial" font-size="14.00" fill="#666666">[varchar(36)]</text>
<polygon fill="none" stroke="black" points="2273.51,-591.29 2273.51,-622.09 2559.89,-622.09 2559.89,-591.29 2273.51,-591.29"/>
<text text-anchor="start" x="2280.51" y="-603.49" font-family="Arial" font-size="14.00">participantCurrencyId </text>
<text text-anchor="start" x="2417.47" y="-603.49" font-family="Arial" font-size="14.00" fill="#666666">[int unsigned]</text>
<polygon fill="none" stroke="black" points="2273.51,-560.49 2273.51,-591.29 2559.89,-591.29 2559.89,-560.49 2273.51,-560.49"/>
<text text-anchor="start" x="2280.51" y="-572.69" font-family="Arial" font-size="14.00">transferParticipantRoleTypeId </text>
<text text-anchor="start" x="2469.6" y="-572.69" font-family="Arial" font-size="14.00" fill="#666666">[int unsigned]</text>
<polygon fill="none" stroke="black" points="2273.51,-529.69 2273.51,-560.49 2559.89,-560.49 2559.89,-529.69 2273.51,-529.69"/>
<text text-anchor="start" x="2280.51" y="-541.89" font-family="Arial" font-size="14.00">ledgerEntryTypeId </text>
<text text-anchor="start" x="2398.8" y="-541.89" font-family="Arial" font-size="14.00" fill="#666666">[int unsigned]</text>
<polygon fill="none" stroke="black" points="2273.51,-498.89 2273.51,-529.69 2559.89,-529.69 2559.89,-498.89 2273.51,-498.89"/>
<text text-anchor="start" x="2280.51" y="-511.09" font-family="Arial" font-size="14.00">externalParticipantId </text>
<text text-anchor="start" x="2412.03" y="-511.09" font-family="Arial" font-size="14.00" fill="#666666">[bigint unsigned]</text>
</g>
<!-- transferParticipant&#45;&gt;ledgerEntryType -->
<g id="edge5" class="edge">
<title>transferParticipant:ledgerEntryTypeId&#45;&gt;ledgerEntryType:ledgerEntryTypeId</title>
<path fill="none" stroke="black" d="M2262.35,-544.04C2220.92,-534.31 2263.02,-459.89 2221.7,-424.89 2124.63,-342.66 1792.14,-291.69 1664.92,-291.69"/>
<polygon fill="black" stroke="black" points="2262.24,-544.02 2271.72,-549.53 2267.54,-544.57 2271.85,-545.02 2271.85,-545.02 2271.85,-545.02 2267.54,-544.57 2272.65,-540.58 2262.24,-544.02"/>
<text text-anchor="start" x="2279.51" y="-555.09" font-family="Arial" font-size="10.00">FOREIGN KEY (ledgerEntryTypeId) REFERENCES ledgerEntryType (ledgerEntryTypeId)</text>
</g>
</g>
</svg>
