<?xml version="1.0" encoding="UTF-8" standalone="no"?>
<!DOCTYPE svg PUBLIC "-//W3C//DTD SVG 1.1//EN"
 "http://www.w3.org/Graphics/SVG/1.1/DTD/svg11.dtd">
<!-- Generated by graphviz version 12.1.2 (20240928.0832)
 -->
<!-- Title: ledgerAccountType Pages: 1 -->
<svg width="1762pt" height="540pt"
 viewBox="0.00 0.00 1761.63 540.40" xmlns="http://www.w3.org/2000/svg" xmlns:xlink="http://www.w3.org/1999/xlink">
<g id="graph0" class="graph" transform="scale(1 1) rotate(0) translate(4 536.4)">
<title>ledgerAccountType</title>
<polygon fill="white" stroke="none" points="-4,4 -4,-536.4 1757.63,-536.4 1757.63,4 -4,4"/>
<!-- ledgerAccountType -->
<g id="node1" class="node">
<title>ledgerAccountType</title>
<polygon fill="#efefef" stroke="none" points="741.36,-77 741.36,-112.6 1022.78,-112.6 1022.78,-77 741.36,-77"/>
<polygon fill="none" stroke="black" points="741.36,-77 741.36,-112.6 1022.78,-112.6 1022.78,-77 741.36,-77"/>
<text text-anchor="start" x="748.36" y="-90.4" font-family="Arial Bold" font-size="18.00">ledgerAccountType</text>
<text text-anchor="start" x="891.29" y="-90.4" font-family="Arial" font-size="14.00">    </text>
<text text-anchor="start" x="922.41" y="-90.4" font-family="Arial" font-size="14.00" fill="#666666">[BASE TABLE]</text>
<polygon fill="none" stroke="black" points="741.36,-46.2 741.36,-77 1022.78,-77 1022.78,-46.2 741.36,-46.2"/>
<text text-anchor="start" x="748.36" y="-58.4" font-family="Arial" font-size="14.00">ledgerAccountTypeId </text>
<text text-anchor="start" x="884.55" y="-58.4" font-family="Arial" font-size="14.00" fill="#666666">[int unsigned]</text>
<polygon fill="none" stroke="black" stroke-width="3" points="739.86,-44.7 739.86,-114.1 1024.28,-114.1 1024.28,-44.7 739.86,-44.7"/>
</g>
<!-- ledgerEntryType -->
<g id="node2" class="node">
<title>ledgerEntryType</title>
<polygon fill="#efefef" stroke="none" points="188.85,-376.6 188.85,-412.2 449.29,-412.2 449.29,-376.6 188.85,-376.6"/>
<polygon fill="none" stroke="black" points="188.85,-376.6 188.85,-412.2 449.29,-412.2 449.29,-376.6 188.85,-376.6"/>
<text text-anchor="start" x="195.85" y="-390" font-family="Arial Bold" font-size="18.00">ledgerEntryType</text>
<text text-anchor="start" x="317.8" y="-390" font-family="Arial" font-size="14.00">    </text>
<text text-anchor="start" x="348.92" y="-390" font-family="Arial" font-size="14.00" fill="#666666">[BASE TABLE]</text>
<polygon fill="none" stroke="black" points="188.85,-345.8 188.85,-376.6 449.29,-376.6 449.29,-345.8 188.85,-345.8"/>
<text text-anchor="start" x="195.85" y="-358" font-family="Arial" font-size="14.00">ledgerEntryTypeId </text>
<text text-anchor="start" x="314.13" y="-358" font-family="Arial" font-size="14.00" fill="#666666">[int unsigned]</text>
<polygon fill="none" stroke="black" points="188.85,-315 188.85,-345.8 449.29,-345.8 449.29,-315 188.85,-315"/>
<text text-anchor="start" x="195.85" y="-327.2" font-family="Arial" font-size="14.00">ledgerAccountTypeId </text>
<text text-anchor="start" x="332.04" y="-327.2" font-family="Arial" font-size="14.00" fill="#666666">[int unsigned]</text>
</g>
<!-- ledgerEntryType&#45;&gt;ledgerAccountType -->
<g id="edge1" class="edge">
<title>ledgerEntryType:ledgerAccountTypeId&#45;&gt;ledgerAccountType:ledgerAccountTypeId</title>
<path fill="none" stroke="black" d="M460.44,-329.53C508.7,-320.36 462.35,-240.74 502.07,-194.8 581.43,-103.02 619.03,-61.6 740.36,-61.6"/>
<polygon fill="black" stroke="black" points="460.59,-329.52 450.24,-325.89 455.27,-329.97 450.96,-330.34 450.96,-330.34 450.96,-330.34 455.27,-329.97 451.01,-334.86 460.59,-329.52"/>
<text text-anchor="start" x="7" y="-340.4" font-family="Arial" font-size="10.00">FOREIGN KEY (ledgerAccountTypeId) REFERENCES ledgerAccountType (ledgerAccountTypeId)</text>
</g>
<!-- participantCurrency -->
<g id="node3" class="node">
<title>participantCurrency</title>
<polygon fill="#efefef" stroke="none" points="553.86,-407.4 553.86,-443 836.28,-443 836.28,-407.4 553.86,-407.4"/>
<polygon fill="none" stroke="black" points="553.86,-407.4 553.86,-443 836.28,-443 836.28,-407.4 553.86,-407.4"/>
<text text-anchor="start" x="560.86" y="-420.8" font-family="Arial Bold" font-size="18.00">participantCurrency</text>
<text text-anchor="start" x="704.79" y="-420.8" font-family="Arial" font-size="14.00">    </text>
<text text-anchor="start" x="735.91" y="-420.8" font-family="Arial" font-size="14.00" fill="#666666">[BASE TABLE]</text>
<polygon fill="none" stroke="black" points="553.86,-376.6 553.86,-407.4 836.28,-407.4 836.28,-376.6 553.86,-376.6"/>
<text text-anchor="start" x="560.86" y="-388.8" font-family="Arial" font-size="14.00">participantCurrencyId </text>
<text text-anchor="start" x="697.81" y="-388.8" font-family="Arial" font-size="14.00" fill="#666666">[int unsigned]</text>
<polygon fill="none" stroke="black" points="553.86,-345.8 553.86,-376.6 836.28,-376.6 836.28,-345.8 553.86,-345.8"/>
<text text-anchor="start" x="560.86" y="-358" font-family="Arial" font-size="14.00">participantId </text>
<text text-anchor="start" x="641.01" y="-358" font-family="Arial" font-size="14.00" fill="#666666">[int unsigned]</text>
<polygon fill="none" stroke="black" points="553.86,-315 553.86,-345.8 836.28,-345.8 836.28,-315 553.86,-315"/>
<text text-anchor="start" x="560.86" y="-327.2" font-family="Arial" font-size="14.00">currencyId </text>
<text text-anchor="start" x="630.1" y="-327.2" font-family="Arial" font-size="14.00" fill="#666666">[varchar(3)]</text>
<polygon fill="none" stroke="black" points="553.86,-284.2 553.86,-315 836.28,-315 836.28,-284.2 553.86,-284.2"/>
<text text-anchor="start" x="560.86" y="-296.4" font-family="Arial" font-size="14.00">ledgerAccountTypeId </text>
<text text-anchor="start" x="697.05" y="-296.4" font-family="Arial" font-size="14.00" fill="#666666">[int unsigned]</text>
</g>
<!-- participantCurrency&#45;&gt;ledgerAccountType -->
<g id="edge2" class="edge">
<title>participantCurrency:ledgerAccountTypeId&#45;&gt;ledgerAccountType:ledgerAccountTypeId</title>
<path fill="none" stroke="black" d="M847.23,-296.73C857.97,-287.91 845.42,-260.54 836.28,-241 812.66,-190.44 764.81,-209.44 741.36,-158.8 723.2,-119.6 697.16,-61.6 740.36,-61.6"/>
<polygon fill="black" stroke="black" points="847.21,-296.74 836.36,-295.18 842.09,-298.21 837.93,-299.41 837.93,-299.41 837.93,-299.41 842.09,-298.21 838.85,-303.83 847.21,-296.74"/>
<text text-anchor="start" x="844.28" y="-309.6" font-family="Arial" font-size="10.00">FOREIGN KEY (ledgerAccountTypeId) REFERENCES ledgerAccountType (ledgerAccountTypeId)</text>
</g>
<!-- settlementModel -->
<g id="node4" class="node">
<title>settlementModel</title>
<polygon fill="#efefef" stroke="none" points="940.34,-438.2 940.34,-473.8 1199.8,-473.8 1199.8,-438.2 940.34,-438.2"/>
<polygon fill="none" stroke="black" points="940.34,-438.2 940.34,-473.8 1199.8,-473.8 1199.8,-438.2 940.34,-438.2"/>
<text text-anchor="start" x="947.34" y="-451.6" font-family="Arial Bold" font-size="18.00">settlementModel</text>
<text text-anchor="start" x="1068.31" y="-451.6" font-family="Arial" font-size="14.00">    </text>
<text text-anchor="start" x="1099.43" y="-451.6" font-family="Arial" font-size="14.00" fill="#666666">[BASE TABLE]</text>
<polygon fill="none" stroke="black" points="940.34,-407.4 940.34,-438.2 1199.8,-438.2 1199.8,-407.4 940.34,-407.4"/>
<text text-anchor="start" x="947.34" y="-419.6" font-family="Arial" font-size="14.00">settlementModelId </text>
<text text-anchor="start" x="1065.62" y="-419.6" font-family="Arial" font-size="14.00" fill="#666666">[int unsigned]</text>
<polygon fill="none" stroke="black" points="940.34,-376.6 940.34,-407.4 1199.8,-407.4 1199.8,-376.6 940.34,-376.6"/>
<text text-anchor="start" x="947.34" y="-388.8" font-family="Arial" font-size="14.00">settlementGranularityId </text>
<text text-anchor="start" x="1095.96" y="-388.8" font-family="Arial" font-size="14.00" fill="#666666">[int unsigned]</text>
<polygon fill="none" stroke="black" points="940.34,-345.8 940.34,-376.6 1199.8,-376.6 1199.8,-345.8 940.34,-345.8"/>
<text text-anchor="start" x="947.34" y="-358" font-family="Arial" font-size="14.00">settlementInterchangeId </text>
<text text-anchor="start" x="1101.44" y="-358" font-family="Arial" font-size="14.00" fill="#666666">[int unsigned]</text>
<polygon fill="none" stroke="black" points="940.34,-315 940.34,-345.8 1199.8,-345.8 1199.8,-315 940.34,-315"/>
<text text-anchor="start" x="947.34" y="-327.2" font-family="Arial" font-size="14.00">settlementDelayId </text>
<text text-anchor="start" x="1063.28" y="-327.2" font-family="Arial" font-size="14.00" fill="#666666">[int unsigned]</text>
<polygon fill="none" stroke="black" points="940.34,-284.2 940.34,-315 1199.8,-315 1199.8,-284.2 940.34,-284.2"/>
<text text-anchor="start" x="947.34" y="-296.4" font-family="Arial" font-size="14.00">currencyId </text>
<text text-anchor="start" x="1016.59" y="-296.4" font-family="Arial" font-size="14.00" fill="#666666">[varchar(3)]</text>
<polygon fill="none" stroke="black" points="940.34,-253.4 940.34,-284.2 1199.8,-284.2 1199.8,-253.4 940.34,-253.4"/>
<text text-anchor="start" x="947.34" y="-265.6" font-family="Arial" font-size="14.00">ledgerAccountTypeId </text>
<text text-anchor="start" x="1083.53" y="-265.6" font-family="Arial" font-size="14.00" fill="#666666">[int unsigned]</text>
</g>
<!-- settlementModel&#45;&gt;ledgerAccountType -->
<g id="edge3" class="edge">
<title>settlementModel:ledgerAccountTypeId&#45;&gt;ledgerAccountType:ledgerAccountTypeId</title>
<path fill="none" stroke="black" d="M929.59,-266.12C917.92,-257.37 929.61,-229.15 940.34,-210.2 961.61,-172.63 1001.64,-196.45 1022.78,-158.8 1043.94,-121.13 1066.99,-61.6 1023.78,-61.6"/>
<polygon fill="black" stroke="black" points="929.38,-266.06 937.82,-273.05 934.52,-267.47 938.69,-268.62 938.69,-268.62 938.69,-268.62 934.52,-267.47 940.21,-264.37 929.38,-266.06"/>
<text text-anchor="start" x="946.34" y="-278.8" font-family="Arial" font-size="10.00">FOREIGN KEY (ledgerAccountTypeId) REFERENCES ledgerAccountType (ledgerAccountTypeId)</text>
</g>
<!-- settlementWindowContent -->
<g id="node5" class="node">
<title>settlementWindowContent</title>
<polygon fill="#efefef" stroke="none" points="1304.34,-453.6 1304.34,-489.2 1635.8,-489.2 1635.8,-453.6 1304.34,-453.6"/>
<polygon fill="none" stroke="black" points="1304.34,-453.6 1304.34,-489.2 1635.8,-489.2 1635.8,-453.6 1304.34,-453.6"/>
<text text-anchor="start" x="1311.34" y="-467" font-family="Arial Bold" font-size="18.00">settlementWindowContent</text>
<text text-anchor="start" x="1504.31" y="-467" font-family="Arial" font-size="14.00">    </text>
<text text-anchor="start" x="1535.42" y="-467" font-family="Arial" font-size="14.00" fill="#666666">[BASE TABLE]</text>
<polygon fill="none" stroke="black" points="1304.34,-422.8 1304.34,-453.6 1635.8,-453.6 1635.8,-422.8 1304.34,-422.8"/>
<text text-anchor="start" x="1311.34" y="-435" font-family="Arial" font-size="14.00">settlementWindowContentId </text>
<text text-anchor="start" x="1490.32" y="-435" font-family="Arial" font-size="14.00" fill="#666666">[bigint unsigned]</text>
<polygon fill="none" stroke="black" points="1304.34,-392 1304.34,-422.8 1635.8,-422.8 1635.8,-392 1304.34,-392"/>
<text text-anchor="start" x="1311.34" y="-404.2" font-family="Arial" font-size="14.00">settlementWindowId </text>
<text text-anchor="start" x="1441.29" y="-404.2" font-family="Arial" font-size="14.00" fill="#666666">[bigint unsigned]</text>
<polygon fill="none" stroke="black" points="1304.34,-361.2 1304.34,-392 1635.8,-392 1635.8,-361.2 1304.34,-361.2"/>
<text text-anchor="start" x="1311.34" y="-373.4" font-family="Arial" font-size="14.00">ledgerAccountTypeId </text>
<text text-anchor="start" x="1447.54" y="-373.4" font-family="Arial" font-size="14.00" fill="#666666">[int unsigned]</text>
<polygon fill="none" stroke="black" points="1304.34,-330.4 1304.34,-361.2 1635.8,-361.2 1635.8,-330.4 1304.34,-330.4"/>
<text text-anchor="start" x="1311.34" y="-342.6" font-family="Arial" font-size="14.00">currencyId </text>
<text text-anchor="start" x="1380.59" y="-342.6" font-family="Arial" font-size="14.00" fill="#666666">[varchar(3)]</text>
<polygon fill="none" stroke="black" points="1304.34,-299.6 1304.34,-330.4 1635.8,-330.4 1635.8,-299.6 1304.34,-299.6"/>
<text text-anchor="start" x="1311.34" y="-311.8" font-family="Arial" font-size="14.00">currentStateChangeId </text>
<text text-anchor="start" x="1452.21" y="-311.8" font-family="Arial" font-size="14.00" fill="#666666">[bigint unsigned]</text>
<polygon fill="none" stroke="black" points="1304.34,-268.8 1304.34,-299.6 1635.8,-299.6 1635.8,-268.8 1304.34,-268.8"/>
<text text-anchor="start" x="1311.34" y="-281" font-family="Arial" font-size="14.00">settlementId </text>
<text text-anchor="start" x="1391.5" y="-281" font-family="Arial" font-size="14.00" fill="#666666">[bigint unsigned]</text>
<polygon fill="none" stroke="black" points="1304.34,-238 1304.34,-268.8 1635.8,-268.8 1635.8,-238 1304.34,-238"/>
<text text-anchor="start" x="1311.34" y="-250.2" font-family="Arial" font-size="14.00">SettlementModelId </text>
<text text-anchor="start" x="1431.96" y="-250.2" font-family="Arial" font-size="14.00" fill="#666666">[int unsigned]</text>
</g>
<!-- settlementWindowContent&#45;&gt;ledgerAccountType -->
<g id="edge4" class="edge">
<title>settlementWindowContent:ledgerAccountTypeId&#45;&gt;ledgerAccountType:ledgerAccountTypeId</title>
<path fill="none" stroke="black" d="M1293.02,-375.92C1226.67,-366.33 1301.15,-258.2 1252.07,-194.8 1180.16,-101.91 1141.25,-61.6 1023.78,-61.6"/>
<polygon fill="black" stroke="black" points="1293.03,-375.92 1302.71,-381.07 1298.35,-376.27 1302.68,-376.56 1302.68,-376.56 1302.68,-376.56 1298.35,-376.27 1303.31,-372.09 1293.03,-375.92"/>
<text text-anchor="start" x="1310.34" y="-386.6" font-family="Arial" font-size="10.00">FOREIGN KEY (ledgerAccountTypeId) REFERENCES ledgerAccountType (ledgerAccountTypeId)</text>
</g>
</g>
</svg>
