<?xml version="1.0" encoding="UTF-8" standalone="no"?>
<!DOCTYPE svg PUBLIC "-//W3C//DTD SVG 1.1//EN"
 "http://www.w3.org/Graphics/SVG/1.1/DTD/svg11.dtd">
<!-- Generated by graphviz version 12.1.2 (20240928.0832)
 -->
<!-- Title: ledgerAccountType Pages: 1 -->
<svg width="1762pt" height="848pt"
 viewBox="0.00 0.00 1761.63 848.40" xmlns="http://www.w3.org/2000/svg" xmlns:xlink="http://www.w3.org/1999/xlink">
<g id="graph0" class="graph" transform="scale(1 1) rotate(0) translate(4 844.4)">
<title>ledgerAccountType</title>
<polygon fill="white" stroke="none" points="-4,4 -4,-844.4 1757.63,-844.4 1757.63,4 -4,4"/>
<!-- ledgerAccountType -->
<g id="node1" class="node">
<title>ledgerAccountType</title>
<polygon fill="#efefef" stroke="none" points="741.36,-231 741.36,-266.6 1022.78,-266.6 1022.78,-231 741.36,-231"/>
<polygon fill="none" stroke="black" points="741.36,-231 741.36,-266.6 1022.78,-266.6 1022.78,-231 741.36,-231"/>
<text text-anchor="start" x="748.36" y="-244.4" font-family="Arial Bold" font-size="18.00">ledgerAccountType</text>
<text text-anchor="start" x="891.29" y="-244.4" font-family="Arial" font-size="14.00">    </text>
<text text-anchor="start" x="922.41" y="-244.4" font-family="Arial" font-size="14.00" fill="#666666">[BASE TABLE]</text>
<polygon fill="none" stroke="black" points="741.36,-200.2 741.36,-231 1022.78,-231 1022.78,-200.2 741.36,-200.2"/>
<text text-anchor="start" x="748.36" y="-212.4" font-family="Arial" font-size="14.00">ledgerAccountTypeId </text>
<text text-anchor="start" x="884.55" y="-212.4" font-family="Arial" font-size="14.00" fill="#666666">[int unsigned]</text>
<polygon fill="none" stroke="black" points="741.36,-169.4 741.36,-200.2 1022.78,-200.2 1022.78,-169.4 741.36,-169.4"/>
<text text-anchor="start" x="748.36" y="-181.6" font-family="Arial" font-size="14.00">name </text>
<text text-anchor="start" x="787.27" y="-181.6" font-family="Arial" font-size="14.00" fill="#666666">[varchar(50)]</text>
<polygon fill="none" stroke="black" points="741.36,-138.6 741.36,-169.4 1022.78,-169.4 1022.78,-138.6 741.36,-138.6"/>
<text text-anchor="start" x="748.36" y="-150.8" font-family="Arial" font-size="14.00">description </text>
<text text-anchor="start" x="819.95" y="-150.8" font-family="Arial" font-size="14.00" fill="#666666">[varchar(512)]</text>
<polygon fill="none" stroke="black" points="741.36,-107.8 741.36,-138.6 1022.78,-138.6 1022.78,-107.8 741.36,-107.8"/>
<text text-anchor="start" x="748.36" y="-120" font-family="Arial" font-size="14.00">isActive </text>
<text text-anchor="start" x="800.48" y="-120" font-family="Arial" font-size="14.00" fill="#666666">[tinyint(1)]</text>
<polygon fill="none" stroke="black" points="741.36,-77 741.36,-107.8 1022.78,-107.8 1022.78,-77 741.36,-77"/>
<text text-anchor="start" x="748.36" y="-89.2" font-family="Arial" font-size="14.00">createdDate </text>
<text text-anchor="start" x="828.52" y="-89.2" font-family="Arial" font-size="14.00" fill="#666666">[datetime]</text>
<polygon fill="none" stroke="black" points="741.36,-46.2 741.36,-77 1022.78,-77 1022.78,-46.2 741.36,-46.2"/>
<text text-anchor="start" x="748.36" y="-58.4" font-family="Arial" font-size="14.00">isSettleable </text>
<text text-anchor="start" x="824.63" y="-58.4" font-family="Arial" font-size="14.00" fill="#666666">[tinyint(1)]</text>
<polygon fill="none" stroke="black" stroke-width="3" points="739.86,-44.7 739.86,-268.1 1024.28,-268.1 1024.28,-44.7 739.86,-44.7"/>
</g>
<!-- ledgerEntryType -->
<g id="node2" class="node">
<title>ledgerEntryType</title>
<polygon fill="#efefef" stroke="none" points="188.85,-669.2 188.85,-704.8 449.29,-704.8 449.29,-669.2 188.85,-669.2"/>
<polygon fill="none" stroke="black" points="188.85,-669.2 188.85,-704.8 449.29,-704.8 449.29,-669.2 188.85,-669.2"/>
<text text-anchor="start" x="195.85" y="-682.6" font-family="Arial Bold" font-size="18.00">ledgerEntryType</text>
<text text-anchor="start" x="317.8" y="-682.6" font-family="Arial" font-size="14.00">    </text>
<text text-anchor="start" x="348.92" y="-682.6" font-family="Arial" font-size="14.00" fill="#666666">[BASE TABLE]</text>
<polygon fill="none" stroke="black" points="188.85,-638.4 188.85,-669.2 449.29,-669.2 449.29,-638.4 188.85,-638.4"/>
<text text-anchor="start" x="195.85" y="-650.6" font-family="Arial" font-size="14.00">ledgerEntryTypeId </text>
<text text-anchor="start" x="314.13" y="-650.6" font-family="Arial" font-size="14.00" fill="#666666">[int unsigned]</text>
<polygon fill="none" stroke="black" points="188.85,-607.6 188.85,-638.4 449.29,-638.4 449.29,-607.6 188.85,-607.6"/>
<text text-anchor="start" x="195.85" y="-619.8" font-family="Arial" font-size="14.00">name </text>
<text text-anchor="start" x="234.76" y="-619.8" font-family="Arial" font-size="14.00" fill="#666666">[varchar(50)]</text>
<polygon fill="none" stroke="black" points="188.85,-576.8 188.85,-607.6 449.29,-607.6 449.29,-576.8 188.85,-576.8"/>
<text text-anchor="start" x="195.85" y="-589" font-family="Arial" font-size="14.00">description </text>
<text text-anchor="start" x="267.44" y="-589" font-family="Arial" font-size="14.00" fill="#666666">[varchar(512)]</text>
<polygon fill="none" stroke="black" points="188.85,-546 188.85,-576.8 449.29,-576.8 449.29,-546 188.85,-546"/>
<text text-anchor="start" x="195.85" y="-558.2" font-family="Arial" font-size="14.00">isActive </text>
<text text-anchor="start" x="247.98" y="-558.2" font-family="Arial" font-size="14.00" fill="#666666">[tinyint(1)]</text>
<polygon fill="none" stroke="black" points="188.85,-515.2 188.85,-546 449.29,-546 449.29,-515.2 188.85,-515.2"/>
<text text-anchor="start" x="195.85" y="-527.4" font-family="Arial" font-size="14.00">createdDate </text>
<text text-anchor="start" x="276.01" y="-527.4" font-family="Arial" font-size="14.00" fill="#666666">[datetime]</text>
<polygon fill="none" stroke="black" points="188.85,-484.4 188.85,-515.2 449.29,-515.2 449.29,-484.4 188.85,-484.4"/>
<text text-anchor="start" x="195.85" y="-496.6" font-family="Arial" font-size="14.00">ledgerAccountTypeId </text>
<text text-anchor="start" x="332.04" y="-496.6" font-family="Arial" font-size="14.00" fill="#666666">[int unsigned]</text>
</g>
<!-- ledgerEntryType&#45;&gt;ledgerAccountType -->
<g id="edge1" class="edge">
<title>ledgerEntryType:ledgerAccountTypeId&#45;&gt;ledgerAccountType:ledgerAccountTypeId</title>
<path fill="none" stroke="black" d="M460.42,-499.01C514.73,-489.73 459,-400.39 502.07,-348.8 579.83,-255.67 619.03,-215.6 740.36,-215.6"/>
<polygon fill="black" stroke="black" points="460.59,-499 450.27,-495.29 455.27,-499.41 450.96,-499.75 450.96,-499.75 450.96,-499.75 455.27,-499.41 450.97,-504.26 460.59,-499"/>
<text text-anchor="start" x="7" y="-509.8" font-family="Arial" font-size="10.00">FOREIGN KEY (ledgerAccountTypeId) REFERENCES ledgerAccountType (ledgerAccountTypeId)</text>
</g>
<!-- participantCurrency -->
<g id="node3" class="node">
<title>participantCurrency</title>
<polygon fill="#efefef" stroke="none" points="553.86,-684.6 553.86,-720.2 836.28,-720.2 836.28,-684.6 553.86,-684.6"/>
<polygon fill="none" stroke="black" points="553.86,-684.6 553.86,-720.2 836.28,-720.2 836.28,-684.6 553.86,-684.6"/>
<text text-anchor="start" x="560.86" y="-698" font-family="Arial Bold" font-size="18.00">participantCurrency</text>
<text text-anchor="start" x="704.79" y="-698" font-family="Arial" font-size="14.00">    </text>
<text text-anchor="start" x="735.91" y="-698" font-family="Arial" font-size="14.00" fill="#666666">[BASE TABLE]</text>
<polygon fill="none" stroke="black" points="553.86,-653.8 553.86,-684.6 836.28,-684.6 836.28,-653.8 553.86,-653.8"/>
<text text-anchor="start" x="560.86" y="-666" font-family="Arial" font-size="14.00">participantCurrencyId </text>
<text text-anchor="start" x="697.81" y="-666" font-family="Arial" font-size="14.00" fill="#666666">[int unsigned]</text>
<polygon fill="none" stroke="black" points="553.86,-623 553.86,-653.8 836.28,-653.8 836.28,-623 553.86,-623"/>
<text text-anchor="start" x="560.86" y="-635.2" font-family="Arial" font-size="14.00">participantId </text>
<text text-anchor="start" x="641.01" y="-635.2" font-family="Arial" font-size="14.00" fill="#666666">[int unsigned]</text>
<polygon fill="none" stroke="black" points="553.86,-592.2 553.86,-623 836.28,-623 836.28,-592.2 553.86,-592.2"/>
<text text-anchor="start" x="560.86" y="-604.4" font-family="Arial" font-size="14.00">currencyId </text>
<text text-anchor="start" x="630.1" y="-604.4" font-family="Arial" font-size="14.00" fill="#666666">[varchar(3)]</text>
<polygon fill="none" stroke="black" points="553.86,-561.4 553.86,-592.2 836.28,-592.2 836.28,-561.4 553.86,-561.4"/>
<text text-anchor="start" x="560.86" y="-573.6" font-family="Arial" font-size="14.00">ledgerAccountTypeId </text>
<text text-anchor="start" x="697.05" y="-573.6" font-family="Arial" font-size="14.00" fill="#666666">[int unsigned]</text>
<polygon fill="none" stroke="black" points="553.86,-530.6 553.86,-561.4 836.28,-561.4 836.28,-530.6 553.86,-530.6"/>
<text text-anchor="start" x="560.86" y="-542.8" font-family="Arial" font-size="14.00">isActive </text>
<text text-anchor="start" x="612.98" y="-542.8" font-family="Arial" font-size="14.00" fill="#666666">[tinyint(1)]</text>
<polygon fill="none" stroke="black" points="553.86,-499.8 553.86,-530.6 836.28,-530.6 836.28,-499.8 553.86,-499.8"/>
<text text-anchor="start" x="560.86" y="-512" font-family="Arial" font-size="14.00">createdDate </text>
<text text-anchor="start" x="641.01" y="-512" font-family="Arial" font-size="14.00" fill="#666666">[datetime]</text>
<polygon fill="none" stroke="black" points="553.86,-469 553.86,-499.8 836.28,-499.8 836.28,-469 553.86,-469"/>
<text text-anchor="start" x="560.86" y="-481.2" font-family="Arial" font-size="14.00">createdBy </text>
<text text-anchor="start" x="627.78" y="-481.2" font-family="Arial" font-size="14.00" fill="#666666">[varchar(128)]</text>
</g>
<!-- participantCurrency&#45;&gt;ledgerAccountType -->
<g id="edge2" class="edge">
<title>participantCurrency:ledgerAccountTypeId&#45;&gt;ledgerAccountType:ledgerAccountTypeId</title>
<path fill="none" stroke="black" d="M847.63,-575.97C899.38,-566.91 858.15,-485.21 836.28,-425.8 813.63,-364.25 764.13,-374.31 741.36,-312.8 726.36,-272.28 697.16,-215.6 740.36,-215.6"/>
<polygon fill="black" stroke="black" points="847.59,-575.98 837.26,-572.29 842.27,-576.4 837.95,-576.75 837.95,-576.75 837.95,-576.75 842.27,-576.4 837.98,-581.26 847.59,-575.98"/>
<text text-anchor="start" x="844.28" y="-586.8" font-family="Arial" font-size="10.00">FOREIGN KEY (ledgerAccountTypeId) REFERENCES ledgerAccountType (ledgerAccountTypeId)</text>
</g>
<!-- settlementModel -->
<g id="node4" class="node">
<title>settlementModel</title>
<polygon fill="#efefef" stroke="none" points="940.34,-761.6 940.34,-797.2 1199.8,-797.2 1199.8,-761.6 940.34,-761.6"/>
<polygon fill="none" stroke="black" points="940.34,-761.6 940.34,-797.2 1199.8,-797.2 1199.8,-761.6 940.34,-761.6"/>
<text text-anchor="start" x="947.34" y="-775" font-family="Arial Bold" font-size="18.00">settlementModel</text>
<text text-anchor="start" x="1068.31" y="-775" font-family="Arial" font-size="14.00">    </text>
<text text-anchor="start" x="1099.43" y="-775" font-family="Arial" font-size="14.00" fill="#666666">[BASE TABLE]</text>
<polygon fill="none" stroke="black" points="940.34,-730.8 940.34,-761.6 1199.8,-761.6 1199.8,-730.8 940.34,-730.8"/>
<text text-anchor="start" x="947.34" y="-743" font-family="Arial" font-size="14.00">settlementModelId </text>
<text text-anchor="start" x="1065.62" y="-743" font-family="Arial" font-size="14.00" fill="#666666">[int unsigned]</text>
<polygon fill="none" stroke="black" points="940.34,-700 940.34,-730.8 1199.8,-730.8 1199.8,-700 940.34,-700"/>
<text text-anchor="start" x="947.34" y="-712.2" font-family="Arial" font-size="14.00">name </text>
<text text-anchor="start" x="986.25" y="-712.2" font-family="Arial" font-size="14.00" fill="#666666">[varchar(50)]</text>
<polygon fill="none" stroke="black" points="940.34,-669.2 940.34,-700 1199.8,-700 1199.8,-669.2 940.34,-669.2"/>
<text text-anchor="start" x="947.34" y="-681.4" font-family="Arial" font-size="14.00">isActive </text>
<text text-anchor="start" x="999.46" y="-681.4" font-family="Arial" font-size="14.00" fill="#666666">[tinyint(1)]</text>
<polygon fill="none" stroke="black" points="940.34,-638.4 940.34,-669.2 1199.8,-669.2 1199.8,-638.4 940.34,-638.4"/>
<text text-anchor="start" x="947.34" y="-650.6" font-family="Arial" font-size="14.00">settlementGranularityId </text>
<text text-anchor="start" x="1095.96" y="-650.6" font-family="Arial" font-size="14.00" fill="#666666">[int unsigned]</text>
<polygon fill="none" stroke="black" points="940.34,-607.6 940.34,-638.4 1199.8,-638.4 1199.8,-607.6 940.34,-607.6"/>
<text text-anchor="start" x="947.34" y="-619.8" font-family="Arial" font-size="14.00">settlementInterchangeId </text>
<text text-anchor="start" x="1101.44" y="-619.8" font-family="Arial" font-size="14.00" fill="#666666">[int unsigned]</text>
<polygon fill="none" stroke="black" points="940.34,-576.8 940.34,-607.6 1199.8,-607.6 1199.8,-576.8 940.34,-576.8"/>
<text text-anchor="start" x="947.34" y="-589" font-family="Arial" font-size="14.00">settlementDelayId </text>
<text text-anchor="start" x="1063.28" y="-589" font-family="Arial" font-size="14.00" fill="#666666">[int unsigned]</text>
<polygon fill="none" stroke="black" points="940.34,-546 940.34,-576.8 1199.8,-576.8 1199.8,-546 940.34,-546"/>
<text text-anchor="start" x="947.34" y="-558.2" font-family="Arial" font-size="14.00">currencyId </text>
<text text-anchor="start" x="1016.59" y="-558.2" font-family="Arial" font-size="14.00" fill="#666666">[varchar(3)]</text>
<polygon fill="none" stroke="black" points="940.34,-515.2 940.34,-546 1199.8,-546 1199.8,-515.2 940.34,-515.2"/>
<text text-anchor="start" x="947.34" y="-527.4" font-family="Arial" font-size="14.00">requireLiquidityCheck </text>
<text text-anchor="start" x="1085.86" y="-527.4" font-family="Arial" font-size="14.00" fill="#666666">[tinyint(1)]</text>
<polygon fill="none" stroke="black" points="940.34,-484.4 940.34,-515.2 1199.8,-515.2 1199.8,-484.4 940.34,-484.4"/>
<text text-anchor="start" x="947.34" y="-496.6" font-family="Arial" font-size="14.00">ledgerAccountTypeId </text>
<text text-anchor="start" x="1083.53" y="-496.6" font-family="Arial" font-size="14.00" fill="#666666">[int unsigned]</text>
<polygon fill="none" stroke="black" points="940.34,-453.6 940.34,-484.4 1199.8,-484.4 1199.8,-453.6 940.34,-453.6"/>
<text text-anchor="start" x="947.34" y="-465.8" font-family="Arial" font-size="14.00">autoPositionReset </text>
<text text-anchor="start" x="1064.86" y="-465.8" font-family="Arial" font-size="14.00" fill="#666666">[tinyint(1)]</text>
<polygon fill="none" stroke="black" points="940.34,-422.8 940.34,-453.6 1199.8,-453.6 1199.8,-422.8 940.34,-422.8"/>
<text text-anchor="start" x="947.34" y="-435" font-family="Arial" font-size="14.00">adjustPosition </text>
<text text-anchor="start" x="1038.39" y="-435" font-family="Arial" font-size="14.00" fill="#666666">[tinyint(1)]</text>
<polygon fill="none" stroke="black" points="940.34,-392 940.34,-422.8 1199.8,-422.8 1199.8,-392 940.34,-392"/>
<text text-anchor="start" x="947.34" y="-404.2" font-family="Arial" font-size="14.00">settlementAccountTypeId </text>
<text text-anchor="start" x="1109.2" y="-404.2" font-family="Arial" font-size="14.00" fill="#666666">[int]</text>
</g>
<!-- settlementModel&#45;&gt;ledgerAccountType -->
<g id="edge3" class="edge">
<title>settlementModel:ledgerAccountTypeId&#45;&gt;ledgerAccountType:ledgerAccountTypeId</title>
<path fill="none" stroke="black" d="M929.2,-498.97C875.65,-489.53 905.42,-401.77 940.34,-348.8 962.35,-315.42 1000.72,-346.14 1022.78,-312.8 1046.63,-276.77 1066.99,-215.6 1023.78,-215.6"/>
<polygon fill="black" stroke="black" points="929.04,-498.96 938.64,-504.26 934.36,-499.39 938.67,-499.75 938.67,-499.75 938.67,-499.75 934.36,-499.39 939.37,-495.29 929.04,-498.96"/>
<text text-anchor="start" x="946.34" y="-509.8" font-family="Arial" font-size="10.00">FOREIGN KEY (ledgerAccountTypeId) REFERENCES ledgerAccountType (ledgerAccountTypeId)</text>
</g>
<!-- settlementWindowContent -->
<g id="node5" class="node">
<title>settlementWindowContent</title>
<polygon fill="#efefef" stroke="none" points="1304.34,-700 1304.34,-735.6 1635.8,-735.6 1635.8,-700 1304.34,-700"/>
<polygon fill="none" stroke="black" points="1304.34,-700 1304.34,-735.6 1635.8,-735.6 1635.8,-700 1304.34,-700"/>
<text text-anchor="start" x="1311.34" y="-713.4" font-family="Arial Bold" font-size="18.00">settlementWindowContent</text>
<text text-anchor="start" x="1504.31" y="-713.4" font-family="Arial" font-size="14.00">    </text>
<text text-anchor="start" x="1535.42" y="-713.4" font-family="Arial" font-size="14.00" fill="#666666">[BASE TABLE]</text>
<polygon fill="none" stroke="black" points="1304.34,-669.2 1304.34,-700 1635.8,-700 1635.8,-669.2 1304.34,-669.2"/>
<text text-anchor="start" x="1311.34" y="-681.4" font-family="Arial" font-size="14.00">settlementWindowContentId </text>
<text text-anchor="start" x="1490.32" y="-681.4" font-family="Arial" font-size="14.00" fill="#666666">[bigint unsigned]</text>
<polygon fill="none" stroke="black" points="1304.34,-638.4 1304.34,-669.2 1635.8,-669.2 1635.8,-638.4 1304.34,-638.4"/>
<text text-anchor="start" x="1311.34" y="-650.6" font-family="Arial" font-size="14.00">settlementWindowId </text>
<text text-anchor="start" x="1441.29" y="-650.6" font-family="Arial" font-size="14.00" fill="#666666">[bigint unsigned]</text>
<polygon fill="none" stroke="black" points="1304.34,-607.6 1304.34,-638.4 1635.8,-638.4 1635.8,-607.6 1304.34,-607.6"/>
<text text-anchor="start" x="1311.34" y="-619.8" font-family="Arial" font-size="14.00">ledgerAccountTypeId </text>
<text text-anchor="start" x="1447.54" y="-619.8" font-family="Arial" font-size="14.00" fill="#666666">[int unsigned]</text>
<polygon fill="none" stroke="black" points="1304.34,-576.8 1304.34,-607.6 1635.8,-607.6 1635.8,-576.8 1304.34,-576.8"/>
<text text-anchor="start" x="1311.34" y="-589" font-family="Arial" font-size="14.00">currencyId </text>
<text text-anchor="start" x="1380.59" y="-589" font-family="Arial" font-size="14.00" fill="#666666">[varchar(3)]</text>
<polygon fill="none" stroke="black" points="1304.34,-546 1304.34,-576.8 1635.8,-576.8 1635.8,-546 1304.34,-546"/>
<text text-anchor="start" x="1311.34" y="-558.2" font-family="Arial" font-size="14.00">createdDate </text>
<text text-anchor="start" x="1391.5" y="-558.2" font-family="Arial" font-size="14.00" fill="#666666">[datetime]</text>
<polygon fill="none" stroke="black" points="1304.34,-515.2 1304.34,-546 1635.8,-546 1635.8,-515.2 1304.34,-515.2"/>
<text text-anchor="start" x="1311.34" y="-527.4" font-family="Arial" font-size="14.00">currentStateChangeId </text>
<text text-anchor="start" x="1452.21" y="-527.4" font-family="Arial" font-size="14.00" fill="#666666">[bigint unsigned]</text>
<polygon fill="none" stroke="black" points="1304.34,-484.4 1304.34,-515.2 1635.8,-515.2 1635.8,-484.4 1304.34,-484.4"/>
<text text-anchor="start" x="1311.34" y="-496.6" font-family="Arial" font-size="14.00">settlementId </text>
<text text-anchor="start" x="1391.5" y="-496.6" font-family="Arial" font-size="14.00" fill="#666666">[bigint unsigned]</text>
<polygon fill="none" stroke="black" points="1304.34,-453.6 1304.34,-484.4 1635.8,-484.4 1635.8,-453.6 1304.34,-453.6"/>
<text text-anchor="start" x="1311.34" y="-465.8" font-family="Arial" font-size="14.00">SettlementModelId </text>
<text text-anchor="start" x="1431.96" y="-465.8" font-family="Arial" font-size="14.00" fill="#666666">[int unsigned]</text>
</g>
<!-- settlementWindowContent&#45;&gt;ledgerAccountType -->
<g id="edge4" class="edge">
<title>settlementWindowContent:ledgerAccountTypeId&#45;&gt;ledgerAccountType:ledgerAccountTypeId</title>
<path fill="none" stroke="black" d="M1293.23,-620.63C1246.67,-596.57 1285.61,-396.41 1252.07,-348.8 1184.42,-252.77 1141.25,-215.6 1023.78,-215.6"/>
<polygon fill="black" stroke="black" points="1293.28,-620.64 1301.99,-627.3 1298.48,-621.86 1302.69,-622.85 1302.69,-622.85 1302.69,-622.85 1298.48,-621.86 1304.05,-618.54 1293.28,-620.64"/>
<text text-anchor="start" x="1310.34" y="-633" font-family="Arial" font-size="10.00">FOREIGN KEY (ledgerAccountTypeId) REFERENCES ledgerAccountType (ledgerAccountTypeId)</text>
</g>
</g>
</svg>
