<?xml version="1.0" encoding="UTF-8" standalone="no"?>
<!DOCTYPE svg PUBLIC "-//W3C//DTD SVG 1.1//EN"
 "http://www.w3.org/Graphics/SVG/1.1/DTD/svg11.dtd">
<!-- Generated by graphviz version 12.1.2 (20240928.0832)
 -->
<!-- Title: participantCurrency Pages: 1 -->
<svg width="3665pt" height="822pt"
 viewBox="0.00 0.00 3665.43 821.60" xmlns="http://www.w3.org/2000/svg" xmlns:xlink="http://www.w3.org/1999/xlink">
<g id="graph0" class="graph" transform="scale(1 1) rotate(0) translate(4 817.6)">
<title>participantCurrency</title>
<polygon fill="white" stroke="none" points="-4,4 -4,-817.6 3661.43,-817.6 3661.43,4 -4,4"/>
<!-- participantCurrency -->
<g id="node1" class="node">
<title>participantCurrency</title>
<polygon fill="#efefef" stroke="none" points="1638.49,-358.2 1638.49,-393.8 1920.92,-393.8 1920.92,-358.2 1638.49,-358.2"/>
<polygon fill="none" stroke="black" points="1638.49,-358.2 1638.49,-393.8 1920.92,-393.8 1920.92,-358.2 1638.49,-358.2"/>
<text text-anchor="start" x="1645.49" y="-371.6" font-family="Arial Bold" font-size="18.00">participantCurrency</text>
<text text-anchor="start" x="1789.43" y="-371.6" font-family="Arial" font-size="14.00">    </text>
<text text-anchor="start" x="1820.55" y="-371.6" font-family="Arial" font-size="14.00" fill="#666666">[BASE TABLE]</text>
<polygon fill="none" stroke="black" points="1638.49,-327.4 1638.49,-358.2 1920.92,-358.2 1920.92,-327.4 1638.49,-327.4"/>
<text text-anchor="start" x="1645.49" y="-339.6" font-family="Arial" font-size="14.00">participantCurrencyId </text>
<text text-anchor="start" x="1782.44" y="-339.6" font-family="Arial" font-size="14.00" fill="#666666">[int unsigned]</text>
<polygon fill="none" stroke="black" points="1638.49,-296.6 1638.49,-327.4 1920.92,-327.4 1920.92,-296.6 1638.49,-296.6"/>
<text text-anchor="start" x="1645.49" y="-308.8" font-family="Arial" font-size="14.00">participantId </text>
<text text-anchor="start" x="1725.65" y="-308.8" font-family="Arial" font-size="14.00" fill="#666666">[int unsigned]</text>
<polygon fill="none" stroke="black" points="1638.49,-265.8 1638.49,-296.6 1920.92,-296.6 1920.92,-265.8 1638.49,-265.8"/>
<text text-anchor="start" x="1645.49" y="-278" font-family="Arial" font-size="14.00">currencyId </text>
<text text-anchor="start" x="1714.74" y="-278" font-family="Arial" font-size="14.00" fill="#666666">[varchar(3)]</text>
<polygon fill="none" stroke="black" points="1638.49,-235 1638.49,-265.8 1920.92,-265.8 1920.92,-235 1638.49,-235"/>
<text text-anchor="start" x="1645.49" y="-247.2" font-family="Arial" font-size="14.00">ledgerAccountTypeId </text>
<text text-anchor="start" x="1781.68" y="-247.2" font-family="Arial" font-size="14.00" fill="#666666">[int unsigned]</text>
<polygon fill="none" stroke="black" stroke-width="3" points="1636.99,-233.5 1636.99,-395.3 1922.42,-395.3 1922.42,-233.5 1636.99,-233.5"/>
</g>
<!-- participant -->
<g id="node10" class="node">
<title>participant</title>
<polygon fill="#efefef" stroke="none" points="1358.98,-74 1358.98,-109.6 1574.43,-109.6 1574.43,-74 1358.98,-74"/>
<polygon fill="none" stroke="black" points="1358.98,-74 1358.98,-109.6 1574.43,-109.6 1574.43,-74 1358.98,-74"/>
<text text-anchor="start" x="1365.98" y="-87.4" font-family="Arial Bold" font-size="18.00">participant</text>
<text text-anchor="start" x="1442.94" y="-87.4" font-family="Arial" font-size="14.00">    </text>
<text text-anchor="start" x="1474.06" y="-87.4" font-family="Arial" font-size="14.00" fill="#666666">[BASE TABLE]</text>
<polygon fill="none" stroke="black" points="1358.98,-43.2 1358.98,-74 1574.43,-74 1574.43,-43.2 1358.98,-43.2"/>
<text text-anchor="start" x="1365.98" y="-55.4" font-family="Arial" font-size="14.00">participantId </text>
<text text-anchor="start" x="1446.14" y="-55.4" font-family="Arial" font-size="14.00" fill="#666666">[int unsigned]</text>
</g>
<!-- participantCurrency&#45;&gt;participant -->
<g id="edge9" class="edge">
<title>participantCurrency:participantId&#45;&gt;participant:participantId</title>
<path fill="none" stroke="black" d="M1627.15,-311.23C1532.19,-295.93 1687.65,-58.6 1575.43,-58.6"/>
<polygon fill="black" stroke="black" points="1627.18,-311.23 1636.82,-316.46 1632.5,-311.63 1636.82,-311.95 1636.82,-311.95 1636.82,-311.95 1632.5,-311.63 1637.49,-307.49 1627.18,-311.23"/>
<text text-anchor="start" x="1314.27" y="-322" font-family="Arial" font-size="10.00">FOREIGN KEY (participantId) REFERENCES participant (participantId)</text>
</g>
<!-- currency -->
<g id="node11" class="node">
<title>currency</title>
<polygon fill="#efefef" stroke="none" points="1678.98,-74 1678.98,-109.6 1880.43,-109.6 1880.43,-74 1678.98,-74"/>
<polygon fill="none" stroke="black" points="1678.98,-74 1678.98,-109.6 1880.43,-109.6 1880.43,-74 1678.98,-74"/>
<text text-anchor="start" x="1685.98" y="-87.4" font-family="Arial Bold" font-size="18.00">currency</text>
<text text-anchor="start" x="1748.94" y="-87.4" font-family="Arial" font-size="14.00">    </text>
<text text-anchor="start" x="1780.06" y="-87.4" font-family="Arial" font-size="14.00" fill="#666666">[BASE TABLE]</text>
<polygon fill="none" stroke="black" points="1678.98,-43.2 1678.98,-74 1880.43,-74 1880.43,-43.2 1678.98,-43.2"/>
<text text-anchor="start" x="1685.98" y="-55.4" font-family="Arial" font-size="14.00">currencyId </text>
<text text-anchor="start" x="1755.23" y="-55.4" font-family="Arial" font-size="14.00" fill="#666666">[varchar(3)]</text>
</g>
<!-- participantCurrency&#45;&gt;currency -->
<g id="edge10" class="edge">
<title>participantCurrency:currencyId&#45;&gt;currency:currencyId</title>
<path fill="none" stroke="black" d="M1926.11,-271.65C1934.49,-228.26 1931.8,-51.43 1923.63,-43.2 1878.55,2.19 1779.7,21.77 1779.7,-42.2"/>
<polygon fill="black" stroke="black" points="1926.08,-271.74 1917.93,-279.08 1923.93,-276.62 1922.19,-280.59 1922.19,-280.59 1922.19,-280.59 1923.93,-276.62 1926.17,-282.7 1926.08,-271.74"/>
<text text-anchor="start" x="1928.92" y="-291.2" font-family="Arial" font-size="10.00">FOREIGN KEY (currencyId) REFERENCES currency (currencyId)</text>
</g>
<!-- ledgerAccountType -->
<g id="node12" class="node">
<title>ledgerAccountType</title>
<polygon fill="#efefef" stroke="none" points="1984.99,-74 1984.99,-109.6 2266.42,-109.6 2266.42,-74 1984.99,-74"/>
<polygon fill="none" stroke="black" points="1984.99,-74 1984.99,-109.6 2266.42,-109.6 2266.42,-74 1984.99,-74"/>
<text text-anchor="start" x="1991.99" y="-87.4" font-family="Arial Bold" font-size="18.00">ledgerAccountType</text>
<text text-anchor="start" x="2134.93" y="-87.4" font-family="Arial" font-size="14.00">    </text>
<text text-anchor="start" x="2166.05" y="-87.4" font-family="Arial" font-size="14.00" fill="#666666">[BASE TABLE]</text>
<polygon fill="none" stroke="black" points="1984.99,-43.2 1984.99,-74 2266.42,-74 2266.42,-43.2 1984.99,-43.2"/>
<text text-anchor="start" x="1991.99" y="-55.4" font-family="Arial" font-size="14.00">ledgerAccountTypeId </text>
<text text-anchor="start" x="2128.18" y="-55.4" font-family="Arial" font-size="14.00" fill="#666666">[int unsigned]</text>
</g>
<!-- participantCurrency&#45;&gt;ledgerAccountType -->
<g id="edge11" class="edge">
<title>participantCurrency:ledgerAccountTypeId&#45;&gt;ledgerAccountType:ledgerAccountTypeId</title>
<path fill="none" stroke="black" d="M1931.93,-249.46C2002.26,-234.99 1898.07,-58.6 1983.99,-58.6"/>
<polygon fill="black" stroke="black" points="1932.21,-249.43 1921.83,-245.89 1926.9,-249.93 1922.58,-250.34 1922.58,-250.34 1922.58,-250.34 1926.9,-249.93 1922.67,-254.85 1932.21,-249.43"/>
<text text-anchor="start" x="1928.92" y="-260.4" font-family="Arial" font-size="10.00">FOREIGN KEY (ledgerAccountTypeId) REFERENCES ledgerAccountType (ledgerAccountTypeId)</text>
</g>
<!-- fxTransferParticipant -->
<g id="node2" class="node">
<title>fxTransferParticipant</title>
<polygon fill="#efefef" stroke="none" points="158.49,-734.8 158.49,-770.4 450.92,-770.4 450.92,-734.8 158.49,-734.8"/>
<polygon fill="none" stroke="black" points="158.49,-734.8 158.49,-770.4 450.92,-770.4 450.92,-734.8 158.49,-734.8"/>
<text text-anchor="start" x="165.49" y="-748.2" font-family="Arial Bold" font-size="18.00">fxTransferParticipant</text>
<text text-anchor="start" x="319.43" y="-748.2" font-family="Arial" font-size="14.00">    </text>
<text text-anchor="start" x="350.54" y="-748.2" font-family="Arial" font-size="14.00" fill="#666666">[BASE TABLE]</text>
<polygon fill="none" stroke="black" points="158.49,-704 158.49,-734.8 450.92,-734.8 450.92,-704 158.49,-704"/>
<text text-anchor="start" x="165.49" y="-716.2" font-family="Arial" font-size="14.00">fxTransferParticipantId </text>
<text text-anchor="start" x="310.22" y="-716.2" font-family="Arial" font-size="14.00" fill="#666666">[bigint unsigned]</text>
<polygon fill="none" stroke="black" points="158.49,-673.2 158.49,-704 450.92,-704 450.92,-673.2 158.49,-673.2"/>
<text text-anchor="start" x="165.49" y="-685.4" font-family="Arial" font-size="14.00">commitRequestId </text>
<text text-anchor="start" x="278.31" y="-685.4" font-family="Arial" font-size="14.00" fill="#666666">[varchar(36)]</text>
<polygon fill="none" stroke="black" points="158.49,-642.4 158.49,-673.2 450.92,-673.2 450.92,-642.4 158.49,-642.4"/>
<text text-anchor="start" x="165.49" y="-654.6" font-family="Arial" font-size="14.00">participantCurrencyId </text>
<text text-anchor="start" x="302.45" y="-654.6" font-family="Arial" font-size="14.00" fill="#666666">[int unsigned]</text>
<polygon fill="none" stroke="black" points="158.49,-611.6 158.49,-642.4 450.92,-642.4 450.92,-611.6 158.49,-611.6"/>
<text text-anchor="start" x="165.49" y="-623.8" font-family="Arial" font-size="14.00">transferParticipantRoleTypeId </text>
<text text-anchor="start" x="354.58" y="-623.8" font-family="Arial" font-size="14.00" fill="#666666">[int unsigned]</text>
<polygon fill="none" stroke="black" points="158.49,-580.8 158.49,-611.6 450.92,-611.6 450.92,-580.8 158.49,-580.8"/>
<text text-anchor="start" x="165.49" y="-593" font-family="Arial" font-size="14.00">ledgerEntryTypeId </text>
<text text-anchor="start" x="283.78" y="-593" font-family="Arial" font-size="14.00" fill="#666666">[int unsigned]</text>
<polygon fill="none" stroke="black" points="158.49,-550 158.49,-580.8 450.92,-580.8 450.92,-550 158.49,-550"/>
<text text-anchor="start" x="165.49" y="-562.2" font-family="Arial" font-size="14.00">fxParticipantCurrencyTypeId </text>
<text text-anchor="start" x="346.01" y="-562.2" font-family="Arial" font-size="14.00" fill="#666666">[int unsigned]</text>
<polygon fill="none" stroke="black" points="158.49,-519.2 158.49,-550 450.92,-550 450.92,-519.2 158.49,-519.2"/>
<text text-anchor="start" x="165.49" y="-531.4" font-family="Arial" font-size="14.00">externalParticipantId </text>
<text text-anchor="start" x="297.01" y="-531.4" font-family="Arial" font-size="14.00" fill="#666666">[bigint unsigned]</text>
</g>
<!-- fxTransferParticipant&#45;&gt;participantCurrency -->
<g id="edge1" class="edge">
<title>fxTransferParticipant:participantCurrencyId&#45;&gt;participantCurrency:participantCurrencyId</title>
<path fill="none" stroke="black" d="M462.16,-657.05C527.43,-646.51 441.82,-528.08 502.7,-476 599.18,-393.48 1510.54,-342.8 1637.49,-342.8"/>
<polygon fill="black" stroke="black" points="462.22,-657.04 451.92,-653.29 456.9,-657.43 452.58,-657.75 452.58,-657.75 452.58,-657.75 456.9,-657.43 452.58,-662.26 462.22,-657.04"/>
<text text-anchor="start" x="7" y="-667.8" font-family="Arial" font-size="10.00">FOREIGN KEY (participantCurrencyId) REFERENCES participantCurrency (participantCurrencyId)</text>
</g>
<!-- participantLimit -->
<g id="node3" class="node">
<title>participantLimit</title>
<polygon fill="#efefef" stroke="none" points="555.05,-688.6 555.05,-724.2 908.36,-724.2 908.36,-688.6 555.05,-688.6"/>
<polygon fill="none" stroke="black" points="555.05,-688.6 555.05,-724.2 908.36,-724.2 908.36,-688.6 555.05,-688.6"/>
<text text-anchor="start" x="610.98" y="-702" font-family="Arial Bold" font-size="18.00">participantLimit</text>
<text text-anchor="start" x="727.94" y="-702" font-family="Arial" font-size="14.00">    </text>
<text text-anchor="start" x="759.06" y="-702" font-family="Arial" font-size="14.00" fill="#666666">[BASE TABLE]</text>
<polygon fill="none" stroke="black" points="555.05,-657.8 555.05,-688.6 908.36,-688.6 908.36,-657.8 555.05,-657.8"/>
<text text-anchor="start" x="562.05" y="-670" font-family="Arial" font-size="14.00">participantLimitId </text>
<text text-anchor="start" x="671.76" y="-670" font-family="Arial" font-size="14.00" fill="#666666">[int unsigned]</text>
<polygon fill="none" stroke="black" points="555.05,-627 555.05,-657.8 908.36,-657.8 908.36,-627 555.05,-627"/>
<text text-anchor="start" x="562.05" y="-639.2" font-family="Arial" font-size="14.00">participantCurrencyId </text>
<text text-anchor="start" x="699" y="-639.2" font-family="Arial" font-size="14.00" fill="#666666">[int unsigned]</text>
<polygon fill="none" stroke="black" points="555.05,-596.2 555.05,-627 908.36,-627 908.36,-596.2 555.05,-596.2"/>
<text text-anchor="start" x="562.05" y="-608.4" font-family="Arial" font-size="14.00">participantLimitTypeId </text>
<text text-anchor="start" x="702.89" y="-608.4" font-family="Arial" font-size="14.00" fill="#666666">[int unsigned]</text>
<polygon fill="none" stroke="black" points="555.05,-565.4 555.05,-596.2 908.36,-596.2 908.36,-565.4 555.05,-565.4"/>
<text text-anchor="start" x="562.05" y="-577.6" font-family="Arial" font-size="14.00">startAfterParticipantPositionChangeId </text>
<text text-anchor="start" x="799.4" y="-577.6" font-family="Arial" font-size="14.00" fill="#666666">[bigint unsigned]</text>
</g>
<!-- participantLimit&#45;&gt;participantCurrency -->
<g id="edge2" class="edge">
<title>participantLimit:participantCurrencyId&#45;&gt;participantCurrency:participantCurrencyId</title>
<path fill="none" stroke="black" d="M919.58,-641.6C978.93,-631.36 905.99,-525.25 960.7,-476 1074.63,-373.45 1484.21,-342.8 1637.49,-342.8"/>
<polygon fill="black" stroke="black" points="919.67,-641.59 909.34,-637.89 914.35,-642.01 910.03,-642.35 910.03,-642.35 910.03,-642.35 914.35,-642.01 910.05,-646.86 919.67,-641.59"/>
<text text-anchor="start" x="690.4" y="-626.4" font-family="Arial" font-size="10.00">FOREIGN KEY (participantCurrencyId) REFERENCES participantCurrency (participantCurrencyId)</text>
</g>
<!-- participantPosition -->
<g id="node4" class="node">
<title>participantPosition</title>
<polygon fill="#efefef" stroke="none" points="1012.47,-657.8 1012.47,-693.4 1286.94,-693.4 1286.94,-657.8 1012.47,-657.8"/>
<polygon fill="none" stroke="black" points="1012.47,-657.8 1012.47,-693.4 1286.94,-693.4 1286.94,-657.8 1012.47,-657.8"/>
<text text-anchor="start" x="1019.47" y="-671.2" font-family="Arial Bold" font-size="18.00">participantPosition</text>
<text text-anchor="start" x="1155.45" y="-671.2" font-family="Arial" font-size="14.00">    </text>
<text text-anchor="start" x="1186.57" y="-671.2" font-family="Arial" font-size="14.00" fill="#666666">[BASE TABLE]</text>
<polygon fill="none" stroke="black" points="1012.47,-627 1012.47,-657.8 1286.94,-657.8 1286.94,-627 1012.47,-627"/>
<text text-anchor="start" x="1019.47" y="-639.2" font-family="Arial" font-size="14.00">participantPositionId </text>
<text text-anchor="start" x="1149.43" y="-639.2" font-family="Arial" font-size="14.00" fill="#666666">[bigint unsigned]</text>
<polygon fill="none" stroke="black" points="1012.47,-596.2 1012.47,-627 1286.94,-627 1286.94,-596.2 1012.47,-596.2"/>
<text text-anchor="start" x="1019.47" y="-608.4" font-family="Arial" font-size="14.00">participantCurrencyId </text>
<text text-anchor="start" x="1156.42" y="-608.4" font-family="Arial" font-size="14.00" fill="#666666">[int unsigned]</text>
</g>
<!-- participantPosition&#45;&gt;participantCurrency -->
<g id="edge3" class="edge">
<title>participantPosition:participantCurrencyId&#45;&gt;participantCurrency:participantCurrencyId</title>
<path fill="none" stroke="black" d="M1298.34,-610.65C1345.68,-601.01 1297.28,-520.03 1338.7,-476 1438.32,-370.1 1492.1,-342.8 1637.49,-342.8"/>
<polygon fill="black" stroke="black" points="1298.23,-610.66 1287.87,-607.09 1292.92,-611.15 1288.61,-611.54 1288.61,-611.54 1288.61,-611.54 1292.92,-611.15 1288.68,-616.05 1298.23,-610.66"/>
<text text-anchor="start" x="1294.94" y="-621.6" font-family="Arial" font-size="10.00">FOREIGN KEY (participantCurrencyId) REFERENCES participantCurrency (participantCurrencyId)</text>
</g>
<!-- participantPositionChange -->
<g id="node5" class="node">
<title>participantPositionChange</title>
<polygon fill="#efefef" stroke="none" points="1390.98,-704 1390.98,-739.6 1720.43,-739.6 1720.43,-704 1390.98,-704"/>
<polygon fill="none" stroke="black" points="1390.98,-704 1390.98,-739.6 1720.43,-739.6 1720.43,-704 1390.98,-704"/>
<text text-anchor="start" x="1397.98" y="-717.4" font-family="Arial Bold" font-size="18.00">participantPositionChange</text>
<text text-anchor="start" x="1588.94" y="-717.4" font-family="Arial" font-size="14.00">    </text>
<text text-anchor="start" x="1620.06" y="-717.4" font-family="Arial" font-size="14.00" fill="#666666">[BASE TABLE]</text>
<polygon fill="none" stroke="black" points="1390.98,-673.2 1390.98,-704 1720.43,-704 1720.43,-673.2 1390.98,-673.2"/>
<text text-anchor="start" x="1397.98" y="-685.4" font-family="Arial" font-size="14.00">participantPositionChangeId </text>
<text text-anchor="start" x="1576.98" y="-685.4" font-family="Arial" font-size="14.00" fill="#666666">[bigint unsigned]</text>
<polygon fill="none" stroke="black" points="1390.98,-642.4 1390.98,-673.2 1720.43,-673.2 1720.43,-642.4 1390.98,-642.4"/>
<text text-anchor="start" x="1397.98" y="-654.6" font-family="Arial" font-size="14.00">participantPositionId </text>
<text text-anchor="start" x="1527.94" y="-654.6" font-family="Arial" font-size="14.00" fill="#666666">[bigint unsigned]</text>
<polygon fill="none" stroke="black" points="1390.98,-611.6 1390.98,-642.4 1720.43,-642.4 1720.43,-611.6 1390.98,-611.6"/>
<text text-anchor="start" x="1397.98" y="-623.8" font-family="Arial" font-size="14.00">transferStateChangeId </text>
<text text-anchor="start" x="1542.73" y="-623.8" font-family="Arial" font-size="14.00" fill="#666666">[bigint unsigned]</text>
<polygon fill="none" stroke="black" points="1390.98,-580.8 1390.98,-611.6 1720.43,-611.6 1720.43,-580.8 1390.98,-580.8"/>
<text text-anchor="start" x="1397.98" y="-593" font-family="Arial" font-size="14.00">participantCurrencyId </text>
<text text-anchor="start" x="1534.93" y="-593" font-family="Arial" font-size="14.00" fill="#666666">[int unsigned]</text>
<polygon fill="none" stroke="black" points="1390.98,-550 1390.98,-580.8 1720.43,-580.8 1720.43,-550 1390.98,-550"/>
<text text-anchor="start" x="1397.98" y="-562.2" font-family="Arial" font-size="14.00">fxTransferStateChangeId </text>
<text text-anchor="start" x="1558.29" y="-562.2" font-family="Arial" font-size="14.00" fill="#666666">[bigint unsigned]</text>
</g>
<!-- participantPositionChange&#45;&gt;participantCurrency -->
<g id="edge4" class="edge">
<title>participantPositionChange:participantCurrencyId&#45;&gt;participantCurrency:participantCurrencyId</title>
<path fill="none" stroke="black" d="M1731.66,-594.62C1756.46,-585.5 1735.93,-538.96 1720.43,-506.8 1700.04,-464.47 1658.87,-482.34 1638.49,-440 1619.75,-401.07 1594.29,-342.8 1637.49,-342.8"/>
<polygon fill="black" stroke="black" points="1731.65,-594.62 1721.08,-591.7 1726.37,-595.43 1722.09,-596.1 1722.09,-596.1 1722.09,-596.1 1726.37,-595.43 1722.45,-600.6 1731.65,-594.62"/>
<text text-anchor="start" x="1728.43" y="-606.2" font-family="Arial" font-size="10.00">FOREIGN KEY (participantCurrencyId) REFERENCES participantCurrency (participantCurrencyId)</text>
</g>
<!-- settlementContentAggregation -->
<g id="node6" class="node">
<title>settlementContentAggregation</title>
<polygon fill="#efefef" stroke="none" points="1824.99,-734.8 1824.99,-770.4 2184.42,-770.4 2184.42,-734.8 1824.99,-734.8"/>
<polygon fill="none" stroke="black" points="1824.99,-734.8 1824.99,-770.4 2184.42,-770.4 2184.42,-734.8 1824.99,-734.8"/>
<text text-anchor="start" x="1831.99" y="-748.2" font-family="Arial Bold" font-size="18.00">settlementContentAggregation</text>
<text text-anchor="start" x="2052.93" y="-748.2" font-family="Arial" font-size="14.00">    </text>
<text text-anchor="start" x="2084.05" y="-748.2" font-family="Arial" font-size="14.00" fill="#666666">[BASE TABLE]</text>
<polygon fill="none" stroke="black" points="1824.99,-704 1824.99,-734.8 2184.42,-734.8 2184.42,-704 1824.99,-704"/>
<text text-anchor="start" x="1831.99" y="-716.2" font-family="Arial" font-size="14.00">settlementContentAggregationId </text>
<text text-anchor="start" x="2036.67" y="-716.2" font-family="Arial" font-size="14.00" fill="#666666">[bigint unsigned]</text>
<polygon fill="none" stroke="black" points="1824.99,-673.2 1824.99,-704 2184.42,-704 2184.42,-673.2 1824.99,-673.2"/>
<text text-anchor="start" x="1831.99" y="-685.4" font-family="Arial" font-size="14.00">settlementWindowContentId </text>
<text text-anchor="start" x="2010.96" y="-685.4" font-family="Arial" font-size="14.00" fill="#666666">[bigint unsigned]</text>
<polygon fill="none" stroke="black" points="1824.99,-642.4 1824.99,-673.2 2184.42,-673.2 2184.42,-642.4 1824.99,-642.4"/>
<text text-anchor="start" x="1831.99" y="-654.6" font-family="Arial" font-size="14.00">participantCurrencyId </text>
<text text-anchor="start" x="1968.94" y="-654.6" font-family="Arial" font-size="14.00" fill="#666666">[int unsigned]</text>
<polygon fill="none" stroke="black" points="1824.99,-611.6 1824.99,-642.4 2184.42,-642.4 2184.42,-611.6 1824.99,-611.6"/>
<text text-anchor="start" x="1831.99" y="-623.8" font-family="Arial" font-size="14.00">transferParticipantRoleTypeId </text>
<text text-anchor="start" x="2021.07" y="-623.8" font-family="Arial" font-size="14.00" fill="#666666">[int unsigned]</text>
<polygon fill="none" stroke="black" points="1824.99,-580.8 1824.99,-611.6 2184.42,-611.6 2184.42,-580.8 1824.99,-580.8"/>
<text text-anchor="start" x="1831.99" y="-593" font-family="Arial" font-size="14.00">ledgerEntryTypeId </text>
<text text-anchor="start" x="1950.27" y="-593" font-family="Arial" font-size="14.00" fill="#666666">[int unsigned]</text>
<polygon fill="none" stroke="black" points="1824.99,-550 1824.99,-580.8 2184.42,-580.8 2184.42,-550 1824.99,-550"/>
<text text-anchor="start" x="1831.99" y="-562.2" font-family="Arial" font-size="14.00">currentStateId </text>
<text text-anchor="start" x="1923.81" y="-562.2" font-family="Arial" font-size="14.00" fill="#666666">[varchar(50)]</text>
<polygon fill="none" stroke="black" points="1824.99,-519.2 1824.99,-550 2184.42,-550 2184.42,-519.2 1824.99,-519.2"/>
<text text-anchor="start" x="1831.99" y="-531.4" font-family="Arial" font-size="14.00">settlementId </text>
<text text-anchor="start" x="1912.14" y="-531.4" font-family="Arial" font-size="14.00" fill="#666666">[bigint unsigned]</text>
</g>
<!-- settlementContentAggregation&#45;&gt;participantCurrency -->
<g id="edge5" class="edge">
<title>settlementContentAggregation:participantCurrencyId&#45;&gt;participantCurrency:participantCurrencyId</title>
<path fill="none" stroke="black" d="M1813.79,-657.12C1746.4,-647.52 1780.86,-539.31 1824.99,-476 1851.02,-438.64 1894.79,-477.3 1920.92,-440 1945.7,-404.62 1965.12,-342.8 1921.92,-342.8"/>
<polygon fill="black" stroke="black" points="1813.67,-657.11 1823.35,-662.27 1819,-657.47 1823.32,-657.76 1823.32,-657.76 1823.32,-657.76 1819,-657.47 1823.95,-653.29 1813.67,-657.11"/>
<text text-anchor="start" x="1492.05" y="-641.8" font-family="Arial" font-size="10.00">FOREIGN KEY (participantCurrencyId) REFERENCES participantCurrency (participantCurrencyId)</text>
</g>
<!-- settlementParticipantCurrency -->
<g id="node7" class="node">
<title>settlementParticipantCurrency</title>
<polygon fill="#efefef" stroke="none" points="2289,-688.6 2289,-724.2 2646.41,-724.2 2646.41,-688.6 2289,-688.6"/>
<polygon fill="none" stroke="black" points="2289,-688.6 2289,-724.2 2646.41,-724.2 2646.41,-688.6 2289,-688.6"/>
<text text-anchor="start" x="2296" y="-702" font-family="Arial Bold" font-size="18.00">settlementParticipantCurrency</text>
<text text-anchor="start" x="2514.92" y="-702" font-family="Arial" font-size="14.00">    </text>
<text text-anchor="start" x="2546.04" y="-702" font-family="Arial" font-size="14.00" fill="#666666">[BASE TABLE]</text>
<polygon fill="none" stroke="black" points="2289,-657.8 2289,-688.6 2646.41,-688.6 2646.41,-657.8 2289,-657.8"/>
<text text-anchor="start" x="2296" y="-670" font-family="Arial" font-size="14.00">settlementParticipantCurrencyId </text>
<text text-anchor="start" x="2499.09" y="-670" font-family="Arial" font-size="14.00" fill="#666666">[bigint unsigned]</text>
<polygon fill="none" stroke="black" points="2289,-627 2289,-657.8 2646.41,-657.8 2646.41,-627 2289,-627"/>
<text text-anchor="start" x="2296" y="-639.2" font-family="Arial" font-size="14.00">settlementId </text>
<text text-anchor="start" x="2376.15" y="-639.2" font-family="Arial" font-size="14.00" fill="#666666">[bigint unsigned]</text>
<polygon fill="none" stroke="black" points="2289,-596.2 2289,-627 2646.41,-627 2646.41,-596.2 2289,-596.2"/>
<text text-anchor="start" x="2296" y="-608.4" font-family="Arial" font-size="14.00">participantCurrencyId </text>
<text text-anchor="start" x="2432.95" y="-608.4" font-family="Arial" font-size="14.00" fill="#666666">[int unsigned]</text>
<polygon fill="none" stroke="black" points="2289,-565.4 2289,-596.2 2646.41,-596.2 2646.41,-565.4 2289,-565.4"/>
<text text-anchor="start" x="2296" y="-577.6" font-family="Arial" font-size="14.00">currentStateChangeId </text>
<text text-anchor="start" x="2436.86" y="-577.6" font-family="Arial" font-size="14.00" fill="#666666">[bigint unsigned]</text>
</g>
<!-- settlementParticipantCurrency&#45;&gt;participantCurrency -->
<g id="edge6" class="edge">
<title>settlementParticipantCurrency:participantCurrencyId&#45;&gt;participantCurrency:participantCurrencyId</title>
<path fill="none" stroke="black" d="M2277.88,-610.71C2229.99,-601.3 2278.76,-519.71 2236.7,-476 2131.38,-366.52 2073.83,-342.8 1921.92,-342.8"/>
<polygon fill="black" stroke="black" points="2277.7,-610.69 2287.27,-616.05 2283.02,-611.16 2287.33,-611.54 2287.33,-611.54 2287.33,-611.54 2283.02,-611.16 2288.06,-607.09 2277.7,-610.69"/>
<text text-anchor="start" x="2295" y="-621.6" font-family="Arial" font-size="10.00">FOREIGN KEY (participantCurrencyId) REFERENCES participantCurrency (participantCurrencyId)</text>
</g>
<!-- settlementTransferParticipant -->
<g id="node8" class="node">
<title>settlementTransferParticipant</title>
<polygon fill="#efefef" stroke="none" points="2751,-719.4 2751,-755 3102.41,-755 3102.41,-719.4 2751,-719.4"/>
<polygon fill="none" stroke="black" points="2751,-719.4 2751,-755 3102.41,-755 3102.41,-719.4 2751,-719.4"/>
<text text-anchor="start" x="2758" y="-732.8" font-family="Arial Bold" font-size="18.00">settlementTransferParticipant</text>
<text text-anchor="start" x="2970.92" y="-732.8" font-family="Arial" font-size="14.00">    </text>
<text text-anchor="start" x="3002.03" y="-732.8" font-family="Arial" font-size="14.00" fill="#666666">[BASE TABLE]</text>
<polygon fill="none" stroke="black" points="2751,-688.6 2751,-719.4 3102.41,-719.4 3102.41,-688.6 2751,-688.6"/>
<text text-anchor="start" x="2758" y="-700.8" font-family="Arial" font-size="14.00">settlementTransferParticipantId </text>
<text text-anchor="start" x="2956.42" y="-700.8" font-family="Arial" font-size="14.00" fill="#666666">[bigint unsigned]</text>
<polygon fill="none" stroke="black" points="2751,-657.8 2751,-688.6 3102.41,-688.6 3102.41,-657.8 2751,-657.8"/>
<text text-anchor="start" x="2758" y="-670" font-family="Arial" font-size="14.00">settlementId </text>
<text text-anchor="start" x="2838.15" y="-670" font-family="Arial" font-size="14.00" fill="#666666">[bigint unsigned]</text>
<polygon fill="none" stroke="black" points="2751,-627 2751,-657.8 3102.41,-657.8 3102.41,-627 2751,-627"/>
<text text-anchor="start" x="2758" y="-639.2" font-family="Arial" font-size="14.00">settlementWindowId </text>
<text text-anchor="start" x="2887.95" y="-639.2" font-family="Arial" font-size="14.00" fill="#666666">[bigint unsigned]</text>
<polygon fill="none" stroke="black" points="2751,-596.2 2751,-627 3102.41,-627 3102.41,-596.2 2751,-596.2"/>
<text text-anchor="start" x="2758" y="-608.4" font-family="Arial" font-size="14.00">participantCurrencyId </text>
<text text-anchor="start" x="2894.95" y="-608.4" font-family="Arial" font-size="14.00" fill="#666666">[int unsigned]</text>
<polygon fill="none" stroke="black" points="2751,-565.4 2751,-596.2 3102.41,-596.2 3102.41,-565.4 2751,-565.4"/>
<text text-anchor="start" x="2758" y="-577.6" font-family="Arial" font-size="14.00">transferParticipantRoleTypeId </text>
<text text-anchor="start" x="2947.09" y="-577.6" font-family="Arial" font-size="14.00" fill="#666666">[int unsigned]</text>
<polygon fill="none" stroke="black" points="2751,-534.6 2751,-565.4 3102.41,-565.4 3102.41,-534.6 2751,-534.6"/>
<text text-anchor="start" x="2758" y="-546.8" font-family="Arial" font-size="14.00">ledgerEntryTypeId </text>
<text text-anchor="start" x="2876.28" y="-546.8" font-family="Arial" font-size="14.00" fill="#666666">[int unsigned]</text>
</g>
<!-- settlementTransferParticipant&#45;&gt;participantCurrency -->
<g id="edge7" class="edge">
<title>settlementTransferParticipant:participantCurrencyId&#45;&gt;participantCurrency:participantCurrencyId</title>
<path fill="none" stroke="black" d="M2739.65,-610.59C2692.77,-600.34 2745.41,-514.51 2698.7,-476 2563.57,-364.59 2097.06,-342.8 1921.92,-342.8"/>
<polygon fill="black" stroke="black" points="2739.72,-610.6 2749.23,-616.05 2745.03,-611.12 2749.34,-611.54 2749.34,-611.54 2749.34,-611.54 2745.03,-611.12 2750.11,-607.09 2739.72,-610.6"/>
<text text-anchor="start" x="2305.09" y="-595.6" font-family="Arial" font-size="10.00">FOREIGN KEY (participantCurrencyId) REFERENCES participantCurrency (participantCurrencyId)</text>
</g>
<!-- transferParticipant -->
<g id="node9" class="node">
<title>transferParticipant</title>
<polygon fill="#efefef" stroke="none" points="3206.52,-719.4 3206.52,-755 3492.89,-755 3492.89,-719.4 3206.52,-719.4"/>
<polygon fill="none" stroke="black" points="3206.52,-719.4 3206.52,-755 3492.89,-755 3492.89,-719.4 3206.52,-719.4"/>
<text text-anchor="start" x="3220.99" y="-732.8" font-family="Arial Bold" font-size="18.00">transferParticipant</text>
<text text-anchor="start" x="3353.93" y="-732.8" font-family="Arial" font-size="14.00">    </text>
<text text-anchor="start" x="3385.05" y="-732.8" font-family="Arial" font-size="14.00" fill="#666666">[BASE TABLE]</text>
<polygon fill="none" stroke="black" points="3206.52,-688.6 3206.52,-719.4 3492.89,-719.4 3492.89,-688.6 3206.52,-688.6"/>
<text text-anchor="start" x="3213.52" y="-700.8" font-family="Arial" font-size="14.00">transferParticipantId </text>
<text text-anchor="start" x="3342.69" y="-700.8" font-family="Arial" font-size="14.00" fill="#666666">[bigint unsigned]</text>
<polygon fill="none" stroke="black" points="3206.52,-657.8 3206.52,-688.6 3492.89,-688.6 3492.89,-657.8 3206.52,-657.8"/>
<text text-anchor="start" x="3213.52" y="-670" font-family="Arial" font-size="14.00">transferId </text>
<text text-anchor="start" x="3276.55" y="-670" font-family="Arial" font-size="14.00" fill="#666666">[varchar(36)]</text>
<polygon fill="none" stroke="black" points="3206.52,-627 3206.52,-657.8 3492.89,-657.8 3492.89,-627 3206.52,-627"/>
<text text-anchor="start" x="3213.52" y="-639.2" font-family="Arial" font-size="14.00">participantCurrencyId </text>
<text text-anchor="start" x="3350.47" y="-639.2" font-family="Arial" font-size="14.00" fill="#666666">[int unsigned]</text>
<polygon fill="none" stroke="black" points="3206.52,-596.2 3206.52,-627 3492.89,-627 3492.89,-596.2 3206.52,-596.2"/>
<text text-anchor="start" x="3213.52" y="-608.4" font-family="Arial" font-size="14.00">transferParticipantRoleTypeId </text>
<text text-anchor="start" x="3402.61" y="-608.4" font-family="Arial" font-size="14.00" fill="#666666">[int unsigned]</text>
<polygon fill="none" stroke="black" points="3206.52,-565.4 3206.52,-596.2 3492.89,-596.2 3492.89,-565.4 3206.52,-565.4"/>
<text text-anchor="start" x="3213.52" y="-577.6" font-family="Arial" font-size="14.00">ledgerEntryTypeId </text>
<text text-anchor="start" x="3331.8" y="-577.6" font-family="Arial" font-size="14.00" fill="#666666">[int unsigned]</text>
<polygon fill="none" stroke="black" points="3206.52,-534.6 3206.52,-565.4 3492.89,-565.4 3492.89,-534.6 3206.52,-534.6"/>
<text text-anchor="start" x="3213.52" y="-546.8" font-family="Arial" font-size="14.00">externalParticipantId </text>
<text text-anchor="start" x="3345.04" y="-546.8" font-family="Arial" font-size="14.00" fill="#666666">[bigint unsigned]</text>
</g>
<!-- transferParticipant&#45;&gt;participantCurrency -->
<g id="edge8" class="edge">
<title>transferParticipant:participantCurrencyId&#45;&gt;participantCurrency:participantCurrencyId</title>
<path fill="none" stroke="black" d="M3195.32,-641.58C3136.25,-631.12 3211.38,-522.88 3154.7,-476 3048.54,-388.19 2059.69,-342.8 1921.92,-342.8"/>
<polygon fill="black" stroke="black" points="3195.22,-641.58 3204.83,-646.86 3200.53,-642 3204.85,-642.35 3204.85,-642.35 3204.85,-642.35 3200.53,-642 3205.54,-637.89 3195.22,-641.58"/>
<text text-anchor="start" x="3212.52" y="-652.4" font-family="Arial" font-size="10.00">FOREIGN KEY (participantCurrencyId) REFERENCES participantCurrency (participantCurrencyId)</text>
</g>
</g>
</svg>
