<?xml version="1.0" encoding="UTF-8" standalone="no"?>
<!DOCTYPE svg PUBLIC "-//W3C//DTD SVG 1.1//EN"
 "http://www.w3.org/Graphics/SVG/1.1/DTD/svg11.dtd">
<!-- Generated by graphviz version 12.1.2 (20240928.0832)
 -->
<!-- Title: participantLimitType Pages: 1 -->
<svg width="866pt" height="458pt"
 viewBox="0.00 0.00 865.77 457.95" xmlns="http://www.w3.org/2000/svg" xmlns:xlink="http://www.w3.org/1999/xlink">
<g id="graph0" class="graph" transform="scale(1 1) rotate(0) translate(4 453.95)">
<title>participantLimitType</title>
<polygon fill="white" stroke="none" points="-4,4 -4,-453.95 861.77,-453.95 861.77,4 -4,4"/>
<!-- participantLimitType -->
<g id="node1" class="node">
<title>participantLimitType</title>
<polygon fill="#efefef" stroke="none" points="73.64,-86.95 73.64,-122.55 366.08,-122.55 366.08,-86.95 73.64,-86.95"/>
<polygon fill="none" stroke="black" points="73.64,-86.95 73.64,-122.55 366.08,-122.55 366.08,-86.95 73.64,-86.95"/>
<text text-anchor="start" x="80.64" y="-100.35" font-family="Arial Bold" font-size="18.00">participantLimitType</text>
<text text-anchor="start" x="234.59" y="-100.35" font-family="Arial" font-size="14.00">    </text>
<text text-anchor="start" x="265.7" y="-100.35" font-family="Arial" font-size="14.00" fill="#666666">[BASE TABLE]</text>
<polygon fill="none" stroke="black" points="73.64,-56.15 73.64,-86.95 366.08,-86.95 366.08,-56.15 73.64,-56.15"/>
<text text-anchor="start" x="80.64" y="-68.35" font-family="Arial" font-size="14.00">participantLimitTypeId </text>
<text text-anchor="start" x="221.48" y="-68.35" font-family="Arial" font-size="14.00" fill="#666666">[int unsigned]</text>
<polygon fill="none" stroke="black" stroke-width="3" points="72.14,-54.65 72.14,-124.05 367.58,-124.05 367.58,-54.65 72.14,-54.65"/>
</g>
<!-- participantLimit -->
<g id="node2" class="node">
<title>participantLimit</title>
<polygon fill="#efefef" stroke="none" points="43.2,-371.15 43.2,-406.75 396.52,-406.75 396.52,-371.15 43.2,-371.15"/>
<polygon fill="none" stroke="black" points="43.2,-371.15 43.2,-406.75 396.52,-406.75 396.52,-371.15 43.2,-371.15"/>
<text text-anchor="start" x="99.13" y="-384.55" font-family="Arial Bold" font-size="18.00">participantLimit</text>
<text text-anchor="start" x="216.1" y="-384.55" font-family="Arial" font-size="14.00">    </text>
<text text-anchor="start" x="247.21" y="-384.55" font-family="Arial" font-size="14.00" fill="#666666">[BASE TABLE]</text>
<polygon fill="none" stroke="black" points="43.2,-340.35 43.2,-371.15 396.52,-371.15 396.52,-340.35 43.2,-340.35"/>
<text text-anchor="start" x="50.2" y="-352.55" font-family="Arial" font-size="14.00">participantLimitId </text>
<text text-anchor="start" x="159.92" y="-352.55" font-family="Arial" font-size="14.00" fill="#666666">[int unsigned]</text>
<polygon fill="none" stroke="black" points="43.2,-309.55 43.2,-340.35 396.52,-340.35 396.52,-309.55 43.2,-309.55"/>
<text text-anchor="start" x="50.2" y="-321.75" font-family="Arial" font-size="14.00">participantCurrencyId </text>
<text text-anchor="start" x="187.15" y="-321.75" font-family="Arial" font-size="14.00" fill="#666666">[int unsigned]</text>
<polygon fill="none" stroke="black" points="43.2,-278.75 43.2,-309.55 396.52,-309.55 396.52,-278.75 43.2,-278.75"/>
<text text-anchor="start" x="50.2" y="-290.95" font-family="Arial" font-size="14.00">participantLimitTypeId </text>
<text text-anchor="start" x="191.04" y="-290.95" font-family="Arial" font-size="14.00" fill="#666666">[int unsigned]</text>
<polygon fill="none" stroke="black" points="43.2,-247.95 43.2,-278.75 396.52,-278.75 396.52,-247.95 43.2,-247.95"/>
<text text-anchor="start" x="50.2" y="-260.15" font-family="Arial" font-size="14.00">startAfterParticipantPositionChangeId </text>
<text text-anchor="start" x="287.55" y="-260.15" font-family="Arial" font-size="14.00" fill="#666666">[bigint unsigned]</text>
</g>
<!-- participantLimit&#45;&gt;participantLimitType -->
<g id="edge1" class="edge">
<title>participantLimit:participantLimitTypeId&#45;&gt;participantLimitType:participantLimitTypeId</title>
<path fill="none" stroke="black" d="M407.36,-291.6C450.23,-268.24 447.17,-91.22 412.28,-56.15 351.96,4.48 219.86,30.37 219.86,-55.15"/>
<polygon fill="black" stroke="black" points="407.52,-291.56 396.71,-289.71 402.36,-292.9 398.16,-293.98 398.16,-293.98 398.16,-293.98 402.36,-292.9 398.97,-298.42 407.52,-291.56"/>
<text text-anchor="start" x="404.52" y="-304.15" font-family="Arial" font-size="10.00">FOREIGN KEY (participantLimitTypeId) REFERENCES participantLimitType (participantLimitTypeId)</text>
</g>
</g>
</svg>
