<?xml version="1.0" encoding="UTF-8" standalone="no"?>
<!DOCTYPE svg PUBLIC "-//W3C//DTD SVG 1.1//EN"
 "http://www.w3.org/Graphics/SVG/1.1/DTD/svg11.dtd">
<!-- Generated by graphviz version 12.1.2 (20240928.0832)
 -->
<!-- Title: participantContact Pages: 1 -->
<svg width="967pt" height="756pt"
 viewBox="0.00 0.00 966.88 756.00" xmlns="http://www.w3.org/2000/svg" xmlns:xlink="http://www.w3.org/1999/xlink">
<g id="graph0" class="graph" transform="scale(1 1) rotate(0) translate(4 752)">
<title>participantContact</title>
<polygon fill="white" stroke="none" points="-4,4 -4,-752 962.88,-752 962.88,4 -4,4"/>
<!-- participantContact -->
<g id="node1" class="node">
<title>participantContact</title>
<polygon fill="#efefef" stroke="none" points="331.22,-666.2 331.22,-701.8 602.66,-701.8 602.66,-666.2 331.22,-666.2"/>
<polygon fill="none" stroke="black" points="331.22,-666.2 331.22,-701.8 602.66,-701.8 602.66,-666.2 331.22,-666.2"/>
<text text-anchor="start" x="338.22" y="-679.6" font-family="Arial Bold" font-size="18.00">participantContact</text>
<text text-anchor="start" x="471.17" y="-679.6" font-family="Arial" font-size="14.00">    </text>
<text text-anchor="start" x="502.29" y="-679.6" font-family="Arial" font-size="14.00" fill="#666666">[BASE TABLE]</text>
<polygon fill="none" stroke="black" points="331.22,-635.4 331.22,-666.2 602.66,-666.2 602.66,-635.4 331.22,-635.4"/>
<text text-anchor="start" x="338.22" y="-647.6" font-family="Arial" font-size="14.00">participantContactId </text>
<text text-anchor="start" x="466.62" y="-647.6" font-family="Arial" font-size="14.00" fill="#666666">[int unsigned]</text>
<polygon fill="none" stroke="black" points="331.22,-604.6 331.22,-635.4 602.66,-635.4 602.66,-604.6 331.22,-604.6"/>
<text text-anchor="start" x="338.22" y="-616.8" font-family="Arial" font-size="14.00">participantId </text>
<text text-anchor="start" x="418.37" y="-616.8" font-family="Arial" font-size="14.00" fill="#666666">[int unsigned]</text>
<polygon fill="none" stroke="black" points="331.22,-573.8 331.22,-604.6 602.66,-604.6 602.66,-573.8 331.22,-573.8"/>
<text text-anchor="start" x="338.22" y="-586" font-family="Arial" font-size="14.00">contactTypeId </text>
<text text-anchor="start" x="430.04" y="-586" font-family="Arial" font-size="14.00" fill="#666666">[int unsigned]</text>
<polygon fill="none" stroke="black" points="331.22,-543 331.22,-573.8 602.66,-573.8 602.66,-543 331.22,-543"/>
<text text-anchor="start" x="338.22" y="-555.2" font-family="Arial" font-size="14.00">value </text>
<text text-anchor="start" x="375.57" y="-555.2" font-family="Arial" font-size="14.00" fill="#666666">[varchar(256)]</text>
<polygon fill="none" stroke="black" points="331.22,-512.2 331.22,-543 602.66,-543 602.66,-512.2 331.22,-512.2"/>
<text text-anchor="start" x="338.22" y="-524.4" font-family="Arial" font-size="14.00">priorityPreference </text>
<text text-anchor="start" x="452.59" y="-524.4" font-family="Arial" font-size="14.00" fill="#666666">[int]</text>
<polygon fill="none" stroke="black" points="331.22,-481.4 331.22,-512.2 602.66,-512.2 602.66,-481.4 331.22,-481.4"/>
<text text-anchor="start" x="338.22" y="-493.6" font-family="Arial" font-size="14.00">isActive </text>
<text text-anchor="start" x="390.34" y="-493.6" font-family="Arial" font-size="14.00" fill="#666666">[tinyint(1)]</text>
<polygon fill="none" stroke="black" points="331.22,-450.6 331.22,-481.4 602.66,-481.4 602.66,-450.6 331.22,-450.6"/>
<text text-anchor="start" x="338.22" y="-462.8" font-family="Arial" font-size="14.00">createdDate </text>
<text text-anchor="start" x="418.37" y="-462.8" font-family="Arial" font-size="14.00" fill="#666666">[datetime]</text>
<polygon fill="none" stroke="black" points="331.22,-419.8 331.22,-450.6 602.66,-450.6 602.66,-419.8 331.22,-419.8"/>
<text text-anchor="start" x="338.22" y="-432" font-family="Arial" font-size="14.00">createdBy </text>
<text text-anchor="start" x="405.14" y="-432" font-family="Arial" font-size="14.00" fill="#666666">[varchar(128)]</text>
<polygon fill="none" stroke="black" stroke-width="3" points="329.72,-418.3 329.72,-703.3 604.16,-703.3 604.16,-418.3 329.72,-418.3"/>
</g>
<!-- participant -->
<g id="node2" class="node">
<title>participant</title>
<polygon fill="#efefef" stroke="none" points="196.21,-258.8 196.21,-294.4 411.66,-294.4 411.66,-258.8 196.21,-258.8"/>
<polygon fill="none" stroke="black" points="196.21,-258.8 196.21,-294.4 411.66,-294.4 411.66,-258.8 196.21,-258.8"/>
<text text-anchor="start" x="203.21" y="-272.2" font-family="Arial Bold" font-size="18.00">participant</text>
<text text-anchor="start" x="280.17" y="-272.2" font-family="Arial" font-size="14.00">    </text>
<text text-anchor="start" x="311.29" y="-272.2" font-family="Arial" font-size="14.00" fill="#666666">[BASE TABLE]</text>
<polygon fill="none" stroke="black" points="196.21,-228 196.21,-258.8 411.66,-258.8 411.66,-228 196.21,-228"/>
<text text-anchor="start" x="203.21" y="-240.2" font-family="Arial" font-size="14.00">participantId </text>
<text text-anchor="start" x="283.37" y="-240.2" font-family="Arial" font-size="14.00" fill="#666666">[int unsigned]</text>
<polygon fill="none" stroke="black" points="196.21,-197.2 196.21,-228 411.66,-228 411.66,-197.2 196.21,-197.2"/>
<text text-anchor="start" x="203.21" y="-209.4" font-family="Arial" font-size="14.00">name </text>
<text text-anchor="start" x="242.12" y="-209.4" font-family="Arial" font-size="14.00" fill="#666666">[varchar(256)]</text>
<polygon fill="none" stroke="black" points="196.21,-166.4 196.21,-197.2 411.66,-197.2 411.66,-166.4 196.21,-166.4"/>
<text text-anchor="start" x="203.21" y="-178.6" font-family="Arial" font-size="14.00">description </text>
<text text-anchor="start" x="274.8" y="-178.6" font-family="Arial" font-size="14.00" fill="#666666">[varchar(512)]</text>
<polygon fill="none" stroke="black" points="196.21,-135.6 196.21,-166.4 411.66,-166.4 411.66,-135.6 196.21,-135.6"/>
<text text-anchor="start" x="203.21" y="-147.8" font-family="Arial" font-size="14.00">isActive </text>
<text text-anchor="start" x="255.33" y="-147.8" font-family="Arial" font-size="14.00" fill="#666666">[tinyint(1)]</text>
<polygon fill="none" stroke="black" points="196.21,-104.8 196.21,-135.6 411.66,-135.6 411.66,-104.8 196.21,-104.8"/>
<text text-anchor="start" x="203.21" y="-117" font-family="Arial" font-size="14.00">createdDate </text>
<text text-anchor="start" x="283.37" y="-117" font-family="Arial" font-size="14.00" fill="#666666">[datetime]</text>
<polygon fill="none" stroke="black" points="196.21,-74 196.21,-104.8 411.66,-104.8 411.66,-74 196.21,-74"/>
<text text-anchor="start" x="203.21" y="-86.2" font-family="Arial" font-size="14.00">createdBy </text>
<text text-anchor="start" x="270.13" y="-86.2" font-family="Arial" font-size="14.00" fill="#666666">[varchar(128)]</text>
<polygon fill="none" stroke="black" points="196.21,-43.2 196.21,-74 411.66,-74 411.66,-43.2 196.21,-43.2"/>
<text text-anchor="start" x="203.21" y="-55.4" font-family="Arial" font-size="14.00">isProxy </text>
<text text-anchor="start" x="253" y="-55.4" font-family="Arial" font-size="14.00" fill="#666666">[tinyint(1)]</text>
</g>
<!-- participantContact&#45;&gt;participant -->
<g id="edge1" class="edge">
<title>participantContact:participantId&#45;&gt;participant:participantId</title>
<path fill="none" stroke="black" d="M319.83,-619.5C224.09,-609.8 273.46,-462.33 331.22,-373.6 352.59,-340.77 390.19,-370.36 411.66,-337.6 434.62,-302.59 454.53,-243.4 412.66,-243.4"/>
<polygon fill="black" stroke="black" points="319.89,-619.5 329.66,-624.48 325.22,-619.76 329.55,-619.97 329.55,-619.97 329.55,-619.97 325.22,-619.76 330.1,-615.49 319.89,-619.5"/>
<text text-anchor="start" x="7" y="-630" font-family="Arial" font-size="10.00">FOREIGN KEY (participantId) REFERENCES participant (participantId)</text>
</g>
<!-- contactType -->
<g id="node3" class="node">
<title>contactType</title>
<polygon fill="#efefef" stroke="none" points="516.21,-228 516.21,-263.6 743.66,-263.6 743.66,-228 516.21,-228"/>
<polygon fill="none" stroke="black" points="516.21,-228 516.21,-263.6 743.66,-263.6 743.66,-228 516.21,-228"/>
<text text-anchor="start" x="523.21" y="-241.4" font-family="Arial Bold" font-size="18.00">contactType</text>
<text text-anchor="start" x="612.17" y="-241.4" font-family="Arial" font-size="14.00">    </text>
<text text-anchor="start" x="643.29" y="-241.4" font-family="Arial" font-size="14.00" fill="#666666">[BASE TABLE]</text>
<polygon fill="none" stroke="black" points="516.21,-197.2 516.21,-228 743.66,-228 743.66,-197.2 516.21,-197.2"/>
<text text-anchor="start" x="523.21" y="-209.4" font-family="Arial" font-size="14.00">contactTypeId </text>
<text text-anchor="start" x="615.04" y="-209.4" font-family="Arial" font-size="14.00" fill="#666666">[int unsigned]</text>
<polygon fill="none" stroke="black" points="516.21,-166.4 516.21,-197.2 743.66,-197.2 743.66,-166.4 516.21,-166.4"/>
<text text-anchor="start" x="523.21" y="-178.6" font-family="Arial" font-size="14.00">name </text>
<text text-anchor="start" x="562.12" y="-178.6" font-family="Arial" font-size="14.00" fill="#666666">[varchar(50)]</text>
<polygon fill="none" stroke="black" points="516.21,-135.6 516.21,-166.4 743.66,-166.4 743.66,-135.6 516.21,-135.6"/>
<text text-anchor="start" x="523.21" y="-147.8" font-family="Arial" font-size="14.00">description </text>
<text text-anchor="start" x="594.81" y="-147.8" font-family="Arial" font-size="14.00" fill="#666666">[varchar(512)]</text>
<polygon fill="none" stroke="black" points="516.21,-104.8 516.21,-135.6 743.66,-135.6 743.66,-104.8 516.21,-104.8"/>
<text text-anchor="start" x="523.21" y="-117" font-family="Arial" font-size="14.00">isActive </text>
<text text-anchor="start" x="575.34" y="-117" font-family="Arial" font-size="14.00" fill="#666666">[tinyint(1)]</text>
<polygon fill="none" stroke="black" points="516.21,-74 516.21,-104.8 743.66,-104.8 743.66,-74 516.21,-74"/>
<text text-anchor="start" x="523.21" y="-86.2" font-family="Arial" font-size="14.00">createdDate </text>
<text text-anchor="start" x="603.37" y="-86.2" font-family="Arial" font-size="14.00" fill="#666666">[datetime]</text>
</g>
<!-- participantContact&#45;&gt;contactType -->
<g id="edge2" class="edge">
<title>participantContact:contactTypeId&#45;&gt;contactType:contactTypeId</title>
<path fill="none" stroke="black" d="M613.71,-588.67C695.46,-579.64 643.52,-456.33 602.66,-373.6 581.16,-330.07 537.85,-350.27 516.21,-306.8 497.56,-269.32 473.35,-212.6 515.21,-212.6"/>
<polygon fill="black" stroke="black" points="613.98,-588.66 603.76,-584.69 608.65,-588.94 604.33,-589.16 604.33,-589.16 604.33,-589.16 608.65,-588.94 604.23,-593.68 613.98,-588.66"/>
<text text-anchor="start" x="610.66" y="-599.2" font-family="Arial" font-size="10.00">FOREIGN KEY (contactTypeId) REFERENCES contactType (contactTypeId)</text>
</g>
</g>
</svg>
