<?xml version="1.0" encoding="UTF-8" standalone="no"?>
<!DOCTYPE svg PUBLIC "-//W3C//DTD SVG 1.1//EN"
 "http://www.w3.org/Graphics/SVG/1.1/DTD/svg11.dtd">
<!-- Generated by graphviz version 12.1.2 (20240928.0832)
 -->
<!-- Title: participantPositionChange Pages: 1 -->
<svg width="1554pt" height="1222pt"
 viewBox="0.00 0.00 1554.35 1222.00" xmlns="http://www.w3.org/2000/svg" xmlns:xlink="http://www.w3.org/1999/xlink">
<g id="graph0" class="graph" transform="scale(1 1) rotate(0) translate(4 1218)">
<title>participantPositionChange</title>
<polygon fill="white" stroke="none" points="-4,4 -4,-1218 1550.35,-1218 1550.35,4 -4,4"/>
<!-- participantPositionChange -->
<g id="node1" class="node">
<title>participantPositionChange</title>
<polygon fill="#efefef" stroke="none" points="593.71,-697 593.71,-732.6 923.17,-732.6 923.17,-697 593.71,-697"/>
<polygon fill="none" stroke="black" points="593.71,-697 593.71,-732.6 923.17,-732.6 923.17,-697 593.71,-697"/>
<text text-anchor="start" x="600.71" y="-710.4" font-family="Arial Bold" font-size="18.00">participantPositionChange</text>
<text text-anchor="start" x="791.68" y="-710.4" font-family="Arial" font-size="14.00">    </text>
<text text-anchor="start" x="822.79" y="-710.4" font-family="Arial" font-size="14.00" fill="#666666">[BASE TABLE]</text>
<polygon fill="none" stroke="black" points="593.71,-666.2 593.71,-697 923.17,-697 923.17,-666.2 593.71,-666.2"/>
<text text-anchor="start" x="600.71" y="-678.4" font-family="Arial" font-size="14.00">participantPositionChangeId </text>
<text text-anchor="start" x="779.71" y="-678.4" font-family="Arial" font-size="14.00" fill="#666666">[bigint unsigned]</text>
<polygon fill="none" stroke="black" points="593.71,-635.4 593.71,-666.2 923.17,-666.2 923.17,-635.4 593.71,-635.4"/>
<text text-anchor="start" x="600.71" y="-647.6" font-family="Arial" font-size="14.00">participantPositionId </text>
<text text-anchor="start" x="730.67" y="-647.6" font-family="Arial" font-size="14.00" fill="#666666">[bigint unsigned]</text>
<polygon fill="none" stroke="black" points="593.71,-604.6 593.71,-635.4 923.17,-635.4 923.17,-604.6 593.71,-604.6"/>
<text text-anchor="start" x="600.71" y="-616.8" font-family="Arial" font-size="14.00">transferStateChangeId </text>
<text text-anchor="start" x="745.47" y="-616.8" font-family="Arial" font-size="14.00" fill="#666666">[bigint unsigned]</text>
<polygon fill="none" stroke="black" points="593.71,-573.8 593.71,-604.6 923.17,-604.6 923.17,-573.8 593.71,-573.8"/>
<text text-anchor="start" x="600.71" y="-586" font-family="Arial" font-size="14.00">value </text>
<text text-anchor="start" x="638.07" y="-586" font-family="Arial" font-size="14.00" fill="#666666">[decimal(18,4)]</text>
<polygon fill="none" stroke="black" points="593.71,-543 593.71,-573.8 923.17,-573.8 923.17,-543 593.71,-543"/>
<text text-anchor="start" x="600.71" y="-555.2" font-family="Arial" font-size="14.00">reservedValue </text>
<text text-anchor="start" x="694.87" y="-555.2" font-family="Arial" font-size="14.00" fill="#666666">[decimal(18,4)]</text>
<polygon fill="none" stroke="black" points="593.71,-512.2 593.71,-543 923.17,-543 923.17,-512.2 593.71,-512.2"/>
<text text-anchor="start" x="600.71" y="-524.4" font-family="Arial" font-size="14.00">createdDate </text>
<text text-anchor="start" x="680.87" y="-524.4" font-family="Arial" font-size="14.00" fill="#666666">[datetime]</text>
<polygon fill="none" stroke="black" points="593.71,-481.4 593.71,-512.2 923.17,-512.2 923.17,-481.4 593.71,-481.4"/>
<text text-anchor="start" x="600.71" y="-493.6" font-family="Arial" font-size="14.00">participantCurrencyId </text>
<text text-anchor="start" x="737.66" y="-493.6" font-family="Arial" font-size="14.00" fill="#666666">[int unsigned]</text>
<polygon fill="none" stroke="black" points="593.71,-450.6 593.71,-481.4 923.17,-481.4 923.17,-450.6 593.71,-450.6"/>
<text text-anchor="start" x="600.71" y="-462.8" font-family="Arial" font-size="14.00">change </text>
<text text-anchor="start" x="650.53" y="-462.8" font-family="Arial" font-size="14.00" fill="#666666">[decimal(18,4)]</text>
<polygon fill="none" stroke="black" points="593.71,-419.8 593.71,-450.6 923.17,-450.6 923.17,-419.8 593.71,-419.8"/>
<text text-anchor="start" x="600.71" y="-432" font-family="Arial" font-size="14.00">fxTransferStateChangeId </text>
<text text-anchor="start" x="761.02" y="-432" font-family="Arial" font-size="14.00" fill="#666666">[bigint unsigned]</text>
<polygon fill="none" stroke="black" stroke-width="3" points="592.21,-418.3 592.21,-734.1 924.67,-734.1 924.67,-418.3 592.21,-418.3"/>
</g>
<!-- participantPosition -->
<g id="node3" class="node">
<title>participantPosition</title>
<polygon fill="#efefef" stroke="none" points="43.2,-228 43.2,-263.6 317.67,-263.6 317.67,-228 43.2,-228"/>
<polygon fill="none" stroke="black" points="43.2,-228 43.2,-263.6 317.67,-263.6 317.67,-228 43.2,-228"/>
<text text-anchor="start" x="50.2" y="-241.4" font-family="Arial Bold" font-size="18.00">participantPosition</text>
<text text-anchor="start" x="186.18" y="-241.4" font-family="Arial" font-size="14.00">    </text>
<text text-anchor="start" x="217.3" y="-241.4" font-family="Arial" font-size="14.00" fill="#666666">[BASE TABLE]</text>
<polygon fill="none" stroke="black" points="43.2,-197.2 43.2,-228 317.67,-228 317.67,-197.2 43.2,-197.2"/>
<text text-anchor="start" x="50.2" y="-209.4" font-family="Arial" font-size="14.00">participantPositionId </text>
<text text-anchor="start" x="180.16" y="-209.4" font-family="Arial" font-size="14.00" fill="#666666">[bigint unsigned]</text>
<polygon fill="none" stroke="black" points="43.2,-166.4 43.2,-197.2 317.67,-197.2 317.67,-166.4 43.2,-166.4"/>
<text text-anchor="start" x="50.2" y="-178.6" font-family="Arial" font-size="14.00">participantCurrencyId </text>
<text text-anchor="start" x="187.15" y="-178.6" font-family="Arial" font-size="14.00" fill="#666666">[int unsigned]</text>
<polygon fill="none" stroke="black" points="43.2,-135.6 43.2,-166.4 317.67,-166.4 317.67,-135.6 43.2,-135.6"/>
<text text-anchor="start" x="50.2" y="-147.8" font-family="Arial" font-size="14.00">value </text>
<text text-anchor="start" x="87.56" y="-147.8" font-family="Arial" font-size="14.00" fill="#666666">[decimal(18,4)]</text>
<polygon fill="none" stroke="black" points="43.2,-104.8 43.2,-135.6 317.67,-135.6 317.67,-104.8 43.2,-104.8"/>
<text text-anchor="start" x="50.2" y="-117" font-family="Arial" font-size="14.00">reservedValue </text>
<text text-anchor="start" x="144.37" y="-117" font-family="Arial" font-size="14.00" fill="#666666">[decimal(18,4)]</text>
<polygon fill="none" stroke="black" points="43.2,-74 43.2,-104.8 317.67,-104.8 317.67,-74 43.2,-74"/>
<text text-anchor="start" x="50.2" y="-86.2" font-family="Arial" font-size="14.00">changedDate </text>
<text text-anchor="start" x="137.38" y="-86.2" font-family="Arial" font-size="14.00" fill="#666666">[datetime]</text>
</g>
<!-- participantPositionChange&#45;&gt;participantPosition -->
<g id="edge2" class="edge">
<title>participantPositionChange:participantPositionId&#45;&gt;participantPosition:participantPositionId</title>
<path fill="none" stroke="black" d="M582.46,-650.59C423.24,-644.09 451.31,-483.93 370.44,-337.6 341.35,-284.97 378.8,-212.6 318.67,-212.6"/>
<polygon fill="black" stroke="black" points="582.38,-650.59 592.28,-655.29 587.71,-650.7 592.04,-650.79 592.04,-650.79 592.04,-650.79 587.71,-650.7 592.46,-646.29 582.38,-650.59"/>
<text text-anchor="start" x="162.76" y="-660.8" font-family="Arial" font-size="10.00">FOREIGN KEY (participantPositionId) REFERENCES participantPosition (participantPositionId)</text>
</g>
<!-- transferStateChange -->
<g id="node4" class="node">
<title>transferStateChange</title>
<polygon fill="#efefef" stroke="none" points="422.22,-228 422.22,-263.6 706.65,-263.6 706.65,-228 422.22,-228"/>
<polygon fill="none" stroke="black" points="422.22,-228 422.22,-263.6 706.65,-263.6 706.65,-228 422.22,-228"/>
<text text-anchor="start" x="429.22" y="-241.4" font-family="Arial Bold" font-size="18.00">transferStateChange</text>
<text text-anchor="start" x="575.16" y="-241.4" font-family="Arial" font-size="14.00">    </text>
<text text-anchor="start" x="606.28" y="-241.4" font-family="Arial" font-size="14.00" fill="#666666">[BASE TABLE]</text>
<polygon fill="none" stroke="black" points="422.22,-197.2 422.22,-228 706.65,-228 706.65,-197.2 422.22,-197.2"/>
<text text-anchor="start" x="429.22" y="-209.4" font-family="Arial" font-size="14.00">transferStateChangeId </text>
<text text-anchor="start" x="573.98" y="-209.4" font-family="Arial" font-size="14.00" fill="#666666">[bigint unsigned]</text>
<polygon fill="none" stroke="black" points="422.22,-166.4 422.22,-197.2 706.65,-197.2 706.65,-166.4 422.22,-166.4"/>
<text text-anchor="start" x="429.22" y="-178.6" font-family="Arial" font-size="14.00">transferId </text>
<text text-anchor="start" x="492.25" y="-178.6" font-family="Arial" font-size="14.00" fill="#666666">[varchar(36)]</text>
<polygon fill="none" stroke="black" points="422.22,-135.6 422.22,-166.4 706.65,-166.4 706.65,-135.6 422.22,-135.6"/>
<text text-anchor="start" x="429.22" y="-147.8" font-family="Arial" font-size="14.00">transferStateId </text>
<text text-anchor="start" x="524.94" y="-147.8" font-family="Arial" font-size="14.00" fill="#666666">[varchar(50)]</text>
<polygon fill="none" stroke="black" points="422.22,-104.8 422.22,-135.6 706.65,-135.6 706.65,-104.8 422.22,-104.8"/>
<text text-anchor="start" x="429.22" y="-117" font-family="Arial" font-size="14.00">reason </text>
<text text-anchor="start" x="475.92" y="-117" font-family="Arial" font-size="14.00" fill="#666666">[varchar(512)]</text>
<polygon fill="none" stroke="black" points="422.22,-74 422.22,-104.8 706.65,-104.8 706.65,-74 422.22,-74"/>
<text text-anchor="start" x="429.22" y="-86.2" font-family="Arial" font-size="14.00">createdDate </text>
<text text-anchor="start" x="509.38" y="-86.2" font-family="Arial" font-size="14.00" fill="#666666">[datetime]</text>
</g>
<!-- participantPositionChange&#45;&gt;transferStateChange -->
<g id="edge3" class="edge">
<title>participantPositionChange:transferStateChangeId&#45;&gt;transferStateChange:transferStateChangeId</title>
<path fill="none" stroke="black" d="M582.34,-619.51C486.92,-610.01 541.07,-465.46 593.71,-373.6 622.71,-323 677.49,-357.31 706.65,-306.8 727.59,-270.54 749.52,-212.6 707.65,-212.6"/>
<polygon fill="black" stroke="black" points="582.38,-619.51 592.16,-624.48 587.71,-619.76 592.04,-619.97 592.04,-619.97 592.04,-619.97 587.71,-619.76 592.59,-615.49 582.38,-619.51"/>
<text text-anchor="start" x="131.06" y="-630" font-family="Arial" font-size="10.00">FOREIGN KEY (transferStateChangeId) REFERENCES transferStateChange (transferStateChangeId)</text>
</g>
<!-- participantCurrency -->
<g id="node5" class="node">
<title>participantCurrency</title>
<polygon fill="#efefef" stroke="none" points="811.22,-258.8 811.22,-294.4 1093.65,-294.4 1093.65,-258.8 811.22,-258.8"/>
<polygon fill="none" stroke="black" points="811.22,-258.8 811.22,-294.4 1093.65,-294.4 1093.65,-258.8 811.22,-258.8"/>
<text text-anchor="start" x="818.22" y="-272.2" font-family="Arial Bold" font-size="18.00">participantCurrency</text>
<text text-anchor="start" x="962.16" y="-272.2" font-family="Arial" font-size="14.00">    </text>
<text text-anchor="start" x="993.28" y="-272.2" font-family="Arial" font-size="14.00" fill="#666666">[BASE TABLE]</text>
<polygon fill="none" stroke="black" points="811.22,-228 811.22,-258.8 1093.65,-258.8 1093.65,-228 811.22,-228"/>
<text text-anchor="start" x="818.22" y="-240.2" font-family="Arial" font-size="14.00">participantCurrencyId </text>
<text text-anchor="start" x="955.17" y="-240.2" font-family="Arial" font-size="14.00" fill="#666666">[int unsigned]</text>
<polygon fill="none" stroke="black" points="811.22,-197.2 811.22,-228 1093.65,-228 1093.65,-197.2 811.22,-197.2"/>
<text text-anchor="start" x="818.22" y="-209.4" font-family="Arial" font-size="14.00">participantId </text>
<text text-anchor="start" x="898.38" y="-209.4" font-family="Arial" font-size="14.00" fill="#666666">[int unsigned]</text>
<polygon fill="none" stroke="black" points="811.22,-166.4 811.22,-197.2 1093.65,-197.2 1093.65,-166.4 811.22,-166.4"/>
<text text-anchor="start" x="818.22" y="-178.6" font-family="Arial" font-size="14.00">currencyId </text>
<text text-anchor="start" x="887.47" y="-178.6" font-family="Arial" font-size="14.00" fill="#666666">[varchar(3)]</text>
<polygon fill="none" stroke="black" points="811.22,-135.6 811.22,-166.4 1093.65,-166.4 1093.65,-135.6 811.22,-135.6"/>
<text text-anchor="start" x="818.22" y="-147.8" font-family="Arial" font-size="14.00">ledgerAccountTypeId </text>
<text text-anchor="start" x="954.42" y="-147.8" font-family="Arial" font-size="14.00" fill="#666666">[int unsigned]</text>
<polygon fill="none" stroke="black" points="811.22,-104.8 811.22,-135.6 1093.65,-135.6 1093.65,-104.8 811.22,-104.8"/>
<text text-anchor="start" x="818.22" y="-117" font-family="Arial" font-size="14.00">isActive </text>
<text text-anchor="start" x="870.35" y="-117" font-family="Arial" font-size="14.00" fill="#666666">[tinyint(1)]</text>
<polygon fill="none" stroke="black" points="811.22,-74 811.22,-104.8 1093.65,-104.8 1093.65,-74 811.22,-74"/>
<text text-anchor="start" x="818.22" y="-86.2" font-family="Arial" font-size="14.00">createdDate </text>
<text text-anchor="start" x="898.38" y="-86.2" font-family="Arial" font-size="14.00" fill="#666666">[datetime]</text>
<polygon fill="none" stroke="black" points="811.22,-43.2 811.22,-74 1093.65,-74 1093.65,-43.2 811.22,-43.2"/>
<text text-anchor="start" x="818.22" y="-55.4" font-family="Arial" font-size="14.00">createdBy </text>
<text text-anchor="start" x="885.15" y="-55.4" font-family="Arial" font-size="14.00" fill="#666666">[varchar(128)]</text>
</g>
<!-- participantPositionChange&#45;&gt;participantCurrency -->
<g id="edge4" class="edge">
<title>participantPositionChange:participantCurrencyId&#45;&gt;participantCurrency:participantCurrencyId</title>
<path fill="none" stroke="black" d="M934.32,-495.73C975.69,-486.15 953.38,-414.7 923.17,-373.6 892.21,-331.49 842.23,-379.67 811.22,-337.6 786.38,-303.9 768.35,-243.4 810.22,-243.4"/>
<polygon fill="black" stroke="black" points="934.44,-495.71 924.03,-492.29 929.14,-496.28 924.83,-496.73 924.83,-496.73 924.83,-496.73 929.14,-496.28 924.97,-501.24 934.44,-495.71"/>
<text text-anchor="start" x="931.17" y="-506.8" font-family="Arial" font-size="10.00">FOREIGN KEY (participantCurrencyId) REFERENCES participantCurrency (participantCurrencyId)</text>
</g>
<!-- fxTransferStateChange -->
<g id="node6" class="node">
<title>fxTransferStateChange</title>
<polygon fill="#efefef" stroke="none" points="1197.73,-228 1197.73,-263.6 1503.15,-263.6 1503.15,-228 1197.73,-228"/>
<polygon fill="none" stroke="black" points="1197.73,-228 1197.73,-263.6 1503.15,-263.6 1503.15,-228 1197.73,-228"/>
<text text-anchor="start" x="1204.73" y="-241.4" font-family="Arial Bold" font-size="18.00">fxTransferStateChange</text>
<text text-anchor="start" x="1371.66" y="-241.4" font-family="Arial" font-size="14.00">    </text>
<text text-anchor="start" x="1402.77" y="-241.4" font-family="Arial" font-size="14.00" fill="#666666">[BASE TABLE]</text>
<polygon fill="none" stroke="black" points="1197.73,-197.2 1197.73,-228 1503.15,-228 1503.15,-197.2 1197.73,-197.2"/>
<text text-anchor="start" x="1204.73" y="-209.4" font-family="Arial" font-size="14.00">fxTransferStateChangeId </text>
<text text-anchor="start" x="1365.04" y="-209.4" font-family="Arial" font-size="14.00" fill="#666666">[bigint unsigned]</text>
<polygon fill="none" stroke="black" points="1197.73,-166.4 1197.73,-197.2 1503.15,-197.2 1503.15,-166.4 1197.73,-166.4"/>
<text text-anchor="start" x="1204.73" y="-178.6" font-family="Arial" font-size="14.00">commitRequestId </text>
<text text-anchor="start" x="1317.55" y="-178.6" font-family="Arial" font-size="14.00" fill="#666666">[varchar(36)]</text>
<polygon fill="none" stroke="black" points="1197.73,-135.6 1197.73,-166.4 1503.15,-166.4 1503.15,-135.6 1197.73,-135.6"/>
<text text-anchor="start" x="1204.73" y="-147.8" font-family="Arial" font-size="14.00">transferStateId </text>
<text text-anchor="start" x="1300.44" y="-147.8" font-family="Arial" font-size="14.00" fill="#666666">[varchar(50)]</text>
<polygon fill="none" stroke="black" points="1197.73,-104.8 1197.73,-135.6 1503.15,-135.6 1503.15,-104.8 1197.73,-104.8"/>
<text text-anchor="start" x="1204.73" y="-117" font-family="Arial" font-size="14.00">reason </text>
<text text-anchor="start" x="1251.42" y="-117" font-family="Arial" font-size="14.00" fill="#666666">[varchar(512)]</text>
<polygon fill="none" stroke="black" points="1197.73,-74 1197.73,-104.8 1503.15,-104.8 1503.15,-74 1197.73,-74"/>
<text text-anchor="start" x="1204.73" y="-86.2" font-family="Arial" font-size="14.00">createdDate </text>
<text text-anchor="start" x="1284.89" y="-86.2" font-family="Arial" font-size="14.00" fill="#666666">[datetime]</text>
</g>
<!-- participantPositionChange&#45;&gt;fxTransferStateChange -->
<g id="edge5" class="edge">
<title>participantPositionChange:fxTransferStateChangeId&#45;&gt;fxTransferStateChange:fxTransferStateChangeId</title>
<path fill="none" stroke="black" d="M934.35,-435.13C1034.19,-433.81 1072.85,-412.11 1145.44,-337.6 1187.34,-294.59 1136.68,-212.6 1196.73,-212.6"/>
<polygon fill="black" stroke="black" points="934.5,-435.13 924.47,-430.7 929.17,-435.17 924.83,-435.2 924.83,-435.2 924.83,-435.2 929.17,-435.17 924.53,-439.7 934.5,-435.13"/>
<text text-anchor="start" x="931.17" y="-445.2" font-family="Arial" font-size="10.00">FOREIGN KEY (fxTransferStateChangeId) REFERENCES fxTransferStateChange (fxTransferStateChangeId)</text>
</g>
<!-- participantLimit -->
<g id="node2" class="node">
<title>participantLimit</title>
<polygon fill="#efefef" stroke="none" points="581.78,-1135.2 581.78,-1170.8 935.09,-1170.8 935.09,-1135.2 581.78,-1135.2"/>
<polygon fill="none" stroke="black" points="581.78,-1135.2 581.78,-1170.8 935.09,-1170.8 935.09,-1135.2 581.78,-1135.2"/>
<text text-anchor="start" x="637.71" y="-1148.6" font-family="Arial Bold" font-size="18.00">participantLimit</text>
<text text-anchor="start" x="754.67" y="-1148.6" font-family="Arial" font-size="14.00">    </text>
<text text-anchor="start" x="785.79" y="-1148.6" font-family="Arial" font-size="14.00" fill="#666666">[BASE TABLE]</text>
<polygon fill="none" stroke="black" points="581.78,-1104.4 581.78,-1135.2 935.09,-1135.2 935.09,-1104.4 581.78,-1104.4"/>
<text text-anchor="start" x="588.78" y="-1116.6" font-family="Arial" font-size="14.00">participantLimitId </text>
<text text-anchor="start" x="698.5" y="-1116.6" font-family="Arial" font-size="14.00" fill="#666666">[int unsigned]</text>
<polygon fill="none" stroke="black" points="581.78,-1073.6 581.78,-1104.4 935.09,-1104.4 935.09,-1073.6 581.78,-1073.6"/>
<text text-anchor="start" x="588.78" y="-1085.8" font-family="Arial" font-size="14.00">participantCurrencyId </text>
<text text-anchor="start" x="725.73" y="-1085.8" font-family="Arial" font-size="14.00" fill="#666666">[int unsigned]</text>
<polygon fill="none" stroke="black" points="581.78,-1042.8 581.78,-1073.6 935.09,-1073.6 935.09,-1042.8 581.78,-1042.8"/>
<text text-anchor="start" x="588.78" y="-1055" font-family="Arial" font-size="14.00">participantLimitTypeId </text>
<text text-anchor="start" x="729.62" y="-1055" font-family="Arial" font-size="14.00" fill="#666666">[int unsigned]</text>
<polygon fill="none" stroke="black" points="581.78,-1012 581.78,-1042.8 935.09,-1042.8 935.09,-1012 581.78,-1012"/>
<text text-anchor="start" x="588.78" y="-1024.2" font-family="Arial" font-size="14.00">value </text>
<text text-anchor="start" x="626.14" y="-1024.2" font-family="Arial" font-size="14.00" fill="#666666">[decimal(18,4)]</text>
<polygon fill="none" stroke="black" points="581.78,-981.2 581.78,-1012 935.09,-1012 935.09,-981.2 581.78,-981.2"/>
<text text-anchor="start" x="588.78" y="-993.4" font-family="Arial" font-size="14.00">thresholdAlarmPercentage </text>
<text text-anchor="start" x="758.43" y="-993.4" font-family="Arial" font-size="14.00" fill="#666666">[decimal(5,2)]</text>
<polygon fill="none" stroke="black" points="581.78,-950.4 581.78,-981.2 935.09,-981.2 935.09,-950.4 581.78,-950.4"/>
<text text-anchor="start" x="588.78" y="-962.6" font-family="Arial" font-size="14.00">startAfterParticipantPositionChangeId </text>
<text text-anchor="start" x="826.13" y="-962.6" font-family="Arial" font-size="14.00" fill="#666666">[bigint unsigned]</text>
<polygon fill="none" stroke="black" points="581.78,-919.6 581.78,-950.4 935.09,-950.4 935.09,-919.6 581.78,-919.6"/>
<text text-anchor="start" x="588.78" y="-931.8" font-family="Arial" font-size="14.00">isActive </text>
<text text-anchor="start" x="640.9" y="-931.8" font-family="Arial" font-size="14.00" fill="#666666">[tinyint(1)]</text>
<polygon fill="none" stroke="black" points="581.78,-888.8 581.78,-919.6 935.09,-919.6 935.09,-888.8 581.78,-888.8"/>
<text text-anchor="start" x="588.78" y="-901" font-family="Arial" font-size="14.00">createdDate </text>
<text text-anchor="start" x="668.94" y="-901" font-family="Arial" font-size="14.00" fill="#666666">[datetime]</text>
<polygon fill="none" stroke="black" points="581.78,-858 581.78,-888.8 935.09,-888.8 935.09,-858 581.78,-858"/>
<text text-anchor="start" x="588.78" y="-870.2" font-family="Arial" font-size="14.00">createdBy </text>
<text text-anchor="start" x="655.7" y="-870.2" font-family="Arial" font-size="14.00" fill="#666666">[varchar(128)]</text>
</g>
<!-- participantLimit&#45;&gt;participantPositionChange -->
<g id="edge1" class="edge">
<title>participantLimit:startAfterParticipantPositionChangeId&#45;&gt;participantPositionChange:participantPositionChangeId</title>
<path fill="none" stroke="black" d="M946.5,-965.13C1061.75,-949.93 1047.01,-681.6 924.17,-681.6"/>
<polygon fill="black" stroke="black" points="946.41,-965.14 936.14,-961.29 941.08,-965.48 936.76,-965.76 936.76,-965.76 936.76,-965.76 941.08,-965.48 936.72,-970.27 946.41,-965.14"/>
<text text-anchor="start" x="943.09" y="-975.8" font-family="Arial" font-size="10.00">FOREIGN KEY (startAfterParticipantPositionChangeId) REFERENCES participantPositionChange (participantPositionChangeId)</text>
</g>
</g>
</svg>
