<?xml version="1.0" encoding="UTF-8" standalone="no"?>
<!DOCTYPE svg PUBLIC "-//W3C//DTD SVG 1.1//EN"
 "http://www.w3.org/Graphics/SVG/1.1/DTD/svg11.dtd">
<!-- Generated by graphviz version 12.1.2 (20240928.0832)
 -->
<!-- Title: participantPosition Pages: 1 -->
<svg width="1063pt" height="791pt"
 viewBox="0.00 0.00 1062.59 790.80" xmlns="http://www.w3.org/2000/svg" xmlns:xlink="http://www.w3.org/1999/xlink">
<g id="graph0" class="graph" transform="scale(1 1) rotate(0) translate(4 786.8)">
<title>participantPosition</title>
<polygon fill="white" stroke="none" points="-4,4 -4,-786.8 1058.59,-786.8 1058.59,4 -4,4"/>
<!-- participantPosition -->
<g id="node1" class="node">
<title>participantPosition</title>
<polygon fill="#efefef" stroke="none" points="314.68,-389 314.68,-424.6 589.15,-424.6 589.15,-389 314.68,-389"/>
<polygon fill="none" stroke="black" points="314.68,-389 314.68,-424.6 589.15,-424.6 589.15,-389 314.68,-389"/>
<text text-anchor="start" x="321.68" y="-402.4" font-family="Arial Bold" font-size="18.00">participantPosition</text>
<text text-anchor="start" x="457.66" y="-402.4" font-family="Arial" font-size="14.00">    </text>
<text text-anchor="start" x="488.78" y="-402.4" font-family="Arial" font-size="14.00" fill="#666666">[BASE TABLE]</text>
<polygon fill="none" stroke="black" points="314.68,-358.2 314.68,-389 589.15,-389 589.15,-358.2 314.68,-358.2"/>
<text text-anchor="start" x="321.68" y="-370.4" font-family="Arial" font-size="14.00">participantPositionId </text>
<text text-anchor="start" x="451.64" y="-370.4" font-family="Arial" font-size="14.00" fill="#666666">[bigint unsigned]</text>
<polygon fill="none" stroke="black" points="314.68,-327.4 314.68,-358.2 589.15,-358.2 589.15,-327.4 314.68,-327.4"/>
<text text-anchor="start" x="321.68" y="-339.6" font-family="Arial" font-size="14.00">participantCurrencyId </text>
<text text-anchor="start" x="458.63" y="-339.6" font-family="Arial" font-size="14.00" fill="#666666">[int unsigned]</text>
<polygon fill="none" stroke="black" stroke-width="3" points="313.18,-325.9 313.18,-426.1 590.65,-426.1 590.65,-325.9 313.18,-325.9"/>
</g>
<!-- participantCurrency -->
<g id="node3" class="node">
<title>participantCurrency</title>
<polygon fill="#efefef" stroke="none" points="310.7,-166.4 310.7,-202 593.13,-202 593.13,-166.4 310.7,-166.4"/>
<polygon fill="none" stroke="black" points="310.7,-166.4 310.7,-202 593.13,-202 593.13,-166.4 310.7,-166.4"/>
<text text-anchor="start" x="317.7" y="-179.8" font-family="Arial Bold" font-size="18.00">participantCurrency</text>
<text text-anchor="start" x="461.64" y="-179.8" font-family="Arial" font-size="14.00">    </text>
<text text-anchor="start" x="492.76" y="-179.8" font-family="Arial" font-size="14.00" fill="#666666">[BASE TABLE]</text>
<polygon fill="none" stroke="black" points="310.7,-135.6 310.7,-166.4 593.13,-166.4 593.13,-135.6 310.7,-135.6"/>
<text text-anchor="start" x="317.7" y="-147.8" font-family="Arial" font-size="14.00">participantCurrencyId </text>
<text text-anchor="start" x="454.65" y="-147.8" font-family="Arial" font-size="14.00" fill="#666666">[int unsigned]</text>
<polygon fill="none" stroke="black" points="310.7,-104.8 310.7,-135.6 593.13,-135.6 593.13,-104.8 310.7,-104.8"/>
<text text-anchor="start" x="317.7" y="-117" font-family="Arial" font-size="14.00">participantId </text>
<text text-anchor="start" x="397.86" y="-117" font-family="Arial" font-size="14.00" fill="#666666">[int unsigned]</text>
<polygon fill="none" stroke="black" points="310.7,-74 310.7,-104.8 593.13,-104.8 593.13,-74 310.7,-74"/>
<text text-anchor="start" x="317.7" y="-86.2" font-family="Arial" font-size="14.00">currencyId </text>
<text text-anchor="start" x="386.95" y="-86.2" font-family="Arial" font-size="14.00" fill="#666666">[varchar(3)]</text>
<polygon fill="none" stroke="black" points="310.7,-43.2 310.7,-74 593.13,-74 593.13,-43.2 310.7,-43.2"/>
<text text-anchor="start" x="317.7" y="-55.4" font-family="Arial" font-size="14.00">ledgerAccountTypeId </text>
<text text-anchor="start" x="453.89" y="-55.4" font-family="Arial" font-size="14.00" fill="#666666">[int unsigned]</text>
</g>
<!-- participantPosition&#45;&gt;participantCurrency -->
<g id="edge2" class="edge">
<title>participantPosition:participantCurrencyId&#45;&gt;participantCurrency:participantCurrencyId</title>
<path fill="none" stroke="black" d="M452.7,-316.31C462.37,-259.15 558.4,-304.5 593.13,-245.2 614.29,-209.07 636,-151 594.13,-151"/>
<polygon fill="black" stroke="black" points="452.72,-316.1 447.45,-325.72 452.3,-321.42 451.97,-325.73 451.97,-325.73 451.97,-325.73 452.3,-321.42 456.43,-326.42 452.72,-316.1"/>
<text text-anchor="start" x="7" y="-336.4" font-family="Arial" font-size="10.00">FOREIGN KEY (participantCurrencyId) REFERENCES participantCurrency (participantCurrencyId)</text>
</g>
<!-- participantPositionChange -->
<g id="node2" class="node">
<title>participantPositionChange</title>
<polygon fill="#efefef" stroke="none" points="287.19,-704 287.19,-739.6 616.64,-739.6 616.64,-704 287.19,-704"/>
<polygon fill="none" stroke="black" points="287.19,-704 287.19,-739.6 616.64,-739.6 616.64,-704 287.19,-704"/>
<text text-anchor="start" x="294.19" y="-717.4" font-family="Arial Bold" font-size="18.00">participantPositionChange</text>
<text text-anchor="start" x="485.15" y="-717.4" font-family="Arial" font-size="14.00">    </text>
<text text-anchor="start" x="516.27" y="-717.4" font-family="Arial" font-size="14.00" fill="#666666">[BASE TABLE]</text>
<polygon fill="none" stroke="black" points="287.19,-673.2 287.19,-704 616.64,-704 616.64,-673.2 287.19,-673.2"/>
<text text-anchor="start" x="294.19" y="-685.4" font-family="Arial" font-size="14.00">participantPositionChangeId </text>
<text text-anchor="start" x="473.19" y="-685.4" font-family="Arial" font-size="14.00" fill="#666666">[bigint unsigned]</text>
<polygon fill="none" stroke="black" points="287.19,-642.4 287.19,-673.2 616.64,-673.2 616.64,-642.4 287.19,-642.4"/>
<text text-anchor="start" x="294.19" y="-654.6" font-family="Arial" font-size="14.00">participantPositionId </text>
<text text-anchor="start" x="424.15" y="-654.6" font-family="Arial" font-size="14.00" fill="#666666">[bigint unsigned]</text>
<polygon fill="none" stroke="black" points="287.19,-611.6 287.19,-642.4 616.64,-642.4 616.64,-611.6 287.19,-611.6"/>
<text text-anchor="start" x="294.19" y="-623.8" font-family="Arial" font-size="14.00">transferStateChangeId </text>
<text text-anchor="start" x="438.94" y="-623.8" font-family="Arial" font-size="14.00" fill="#666666">[bigint unsigned]</text>
<polygon fill="none" stroke="black" points="287.19,-580.8 287.19,-611.6 616.64,-611.6 616.64,-580.8 287.19,-580.8"/>
<text text-anchor="start" x="294.19" y="-593" font-family="Arial" font-size="14.00">participantCurrencyId </text>
<text text-anchor="start" x="431.14" y="-593" font-family="Arial" font-size="14.00" fill="#666666">[int unsigned]</text>
<polygon fill="none" stroke="black" points="287.19,-550 287.19,-580.8 616.64,-580.8 616.64,-550 287.19,-550"/>
<text text-anchor="start" x="294.19" y="-562.2" font-family="Arial" font-size="14.00">fxTransferStateChangeId </text>
<text text-anchor="start" x="454.5" y="-562.2" font-family="Arial" font-size="14.00" fill="#666666">[bigint unsigned]</text>
</g>
<!-- participantPositionChange&#45;&gt;participantPosition -->
<g id="edge1" class="edge">
<title>participantPositionChange:participantPositionId&#45;&gt;participantPosition:participantPositionId</title>
<path fill="none" stroke="black" d="M628.06,-657.13C742.91,-641.93 713.46,-373.6 590.15,-373.6"/>
<polygon fill="black" stroke="black" points="627.96,-657.14 617.69,-653.29 622.63,-657.48 618.31,-657.76 618.31,-657.76 618.31,-657.76 622.63,-657.48 618.27,-662.27 627.96,-657.14"/>
<text text-anchor="start" x="624.64" y="-667.8" font-family="Arial" font-size="10.00">FOREIGN KEY (participantPositionId) REFERENCES participantPosition (participantPositionId)</text>
</g>
</g>
</svg>
