<?xml version="1.0" encoding="UTF-8" standalone="no"?>
<!DOCTYPE svg PUBLIC "-//W3C//DTD SVG 1.1//EN"
 "http://www.w3.org/Graphics/SVG/1.1/DTD/svg11.dtd">
<!-- Generated by graphviz version 12.1.2 (20240928.0832)
 -->
<!-- Title: participantEndpoint Pages: 1 -->
<svg width="995pt" height="725pt"
 viewBox="0.00 0.00 995.27 725.20" xmlns="http://www.w3.org/2000/svg" xmlns:xlink="http://www.w3.org/1999/xlink">
<g id="graph0" class="graph" transform="scale(1 1) rotate(0) translate(4 721.2)">
<title>participantEndpoint</title>
<polygon fill="white" stroke="none" points="-4,4 -4,-721.2 991.27,-721.2 991.27,4 -4,4"/>
<!-- participantEndpoint -->
<g id="node1" class="node">
<title>participantEndpoint</title>
<polygon fill="#efefef" stroke="none" points="331.22,-635.4 331.22,-671 612.67,-671 612.67,-635.4 331.22,-635.4"/>
<polygon fill="none" stroke="black" points="331.22,-635.4 331.22,-671 612.67,-671 612.67,-635.4 331.22,-635.4"/>
<text text-anchor="start" x="338.22" y="-648.8" font-family="Arial Bold" font-size="18.00">participantEndpoint</text>
<text text-anchor="start" x="481.18" y="-648.8" font-family="Arial" font-size="14.00">    </text>
<text text-anchor="start" x="512.3" y="-648.8" font-family="Arial" font-size="14.00" fill="#666666">[BASE TABLE]</text>
<polygon fill="none" stroke="black" points="331.22,-604.6 331.22,-635.4 612.67,-635.4 612.67,-604.6 331.22,-604.6"/>
<text text-anchor="start" x="338.22" y="-616.8" font-family="Arial" font-size="14.00">participantEndpointId </text>
<text text-anchor="start" x="473.64" y="-616.8" font-family="Arial" font-size="14.00" fill="#666666">[int unsigned]</text>
<polygon fill="none" stroke="black" points="331.22,-573.8 331.22,-604.6 612.67,-604.6 612.67,-573.8 331.22,-573.8"/>
<text text-anchor="start" x="338.22" y="-586" font-family="Arial" font-size="14.00">participantId </text>
<text text-anchor="start" x="418.37" y="-586" font-family="Arial" font-size="14.00" fill="#666666">[int unsigned]</text>
<polygon fill="none" stroke="black" points="331.22,-543 331.22,-573.8 612.67,-573.8 612.67,-543 331.22,-543"/>
<text text-anchor="start" x="338.22" y="-555.2" font-family="Arial" font-size="14.00">endpointTypeId </text>
<text text-anchor="start" x="438.62" y="-555.2" font-family="Arial" font-size="14.00" fill="#666666">[int unsigned]</text>
<polygon fill="none" stroke="black" points="331.22,-512.2 331.22,-543 612.67,-543 612.67,-512.2 331.22,-512.2"/>
<text text-anchor="start" x="338.22" y="-524.4" font-family="Arial" font-size="14.00">value </text>
<text text-anchor="start" x="375.57" y="-524.4" font-family="Arial" font-size="14.00" fill="#666666">[varchar(512)]</text>
<polygon fill="none" stroke="black" points="331.22,-481.4 331.22,-512.2 612.67,-512.2 612.67,-481.4 331.22,-481.4"/>
<text text-anchor="start" x="338.22" y="-493.6" font-family="Arial" font-size="14.00">isActive </text>
<text text-anchor="start" x="390.34" y="-493.6" font-family="Arial" font-size="14.00" fill="#666666">[tinyint(1)]</text>
<polygon fill="none" stroke="black" points="331.22,-450.6 331.22,-481.4 612.67,-481.4 612.67,-450.6 331.22,-450.6"/>
<text text-anchor="start" x="338.22" y="-462.8" font-family="Arial" font-size="14.00">createdDate </text>
<text text-anchor="start" x="418.37" y="-462.8" font-family="Arial" font-size="14.00" fill="#666666">[datetime]</text>
<polygon fill="none" stroke="black" points="331.22,-419.8 331.22,-450.6 612.67,-450.6 612.67,-419.8 331.22,-419.8"/>
<text text-anchor="start" x="338.22" y="-432" font-family="Arial" font-size="14.00">createdBy </text>
<text text-anchor="start" x="405.14" y="-432" font-family="Arial" font-size="14.00" fill="#666666">[varchar(128)]</text>
<polygon fill="none" stroke="black" stroke-width="3" points="329.72,-418.3 329.72,-672.5 614.17,-672.5 614.17,-418.3 329.72,-418.3"/>
</g>
<!-- participant -->
<g id="node2" class="node">
<title>participant</title>
<polygon fill="#efefef" stroke="none" points="199.21,-258.8 199.21,-294.4 414.67,-294.4 414.67,-258.8 199.21,-258.8"/>
<polygon fill="none" stroke="black" points="199.21,-258.8 199.21,-294.4 414.67,-294.4 414.67,-258.8 199.21,-258.8"/>
<text text-anchor="start" x="206.21" y="-272.2" font-family="Arial Bold" font-size="18.00">participant</text>
<text text-anchor="start" x="283.18" y="-272.2" font-family="Arial" font-size="14.00">    </text>
<text text-anchor="start" x="314.3" y="-272.2" font-family="Arial" font-size="14.00" fill="#666666">[BASE TABLE]</text>
<polygon fill="none" stroke="black" points="199.21,-228 199.21,-258.8 414.67,-258.8 414.67,-228 199.21,-228"/>
<text text-anchor="start" x="206.21" y="-240.2" font-family="Arial" font-size="14.00">participantId </text>
<text text-anchor="start" x="286.37" y="-240.2" font-family="Arial" font-size="14.00" fill="#666666">[int unsigned]</text>
<polygon fill="none" stroke="black" points="199.21,-197.2 199.21,-228 414.67,-228 414.67,-197.2 199.21,-197.2"/>
<text text-anchor="start" x="206.21" y="-209.4" font-family="Arial" font-size="14.00">name </text>
<text text-anchor="start" x="245.12" y="-209.4" font-family="Arial" font-size="14.00" fill="#666666">[varchar(256)]</text>
<polygon fill="none" stroke="black" points="199.21,-166.4 199.21,-197.2 414.67,-197.2 414.67,-166.4 199.21,-166.4"/>
<text text-anchor="start" x="206.21" y="-178.6" font-family="Arial" font-size="14.00">description </text>
<text text-anchor="start" x="277.81" y="-178.6" font-family="Arial" font-size="14.00" fill="#666666">[varchar(512)]</text>
<polygon fill="none" stroke="black" points="199.21,-135.6 199.21,-166.4 414.67,-166.4 414.67,-135.6 199.21,-135.6"/>
<text text-anchor="start" x="206.21" y="-147.8" font-family="Arial" font-size="14.00">isActive </text>
<text text-anchor="start" x="258.34" y="-147.8" font-family="Arial" font-size="14.00" fill="#666666">[tinyint(1)]</text>
<polygon fill="none" stroke="black" points="199.21,-104.8 199.21,-135.6 414.67,-135.6 414.67,-104.8 199.21,-104.8"/>
<text text-anchor="start" x="206.21" y="-117" font-family="Arial" font-size="14.00">createdDate </text>
<text text-anchor="start" x="286.37" y="-117" font-family="Arial" font-size="14.00" fill="#666666">[datetime]</text>
<polygon fill="none" stroke="black" points="199.21,-74 199.21,-104.8 414.67,-104.8 414.67,-74 199.21,-74"/>
<text text-anchor="start" x="206.21" y="-86.2" font-family="Arial" font-size="14.00">createdBy </text>
<text text-anchor="start" x="273.14" y="-86.2" font-family="Arial" font-size="14.00" fill="#666666">[varchar(128)]</text>
<polygon fill="none" stroke="black" points="199.21,-43.2 199.21,-74 414.67,-74 414.67,-43.2 199.21,-43.2"/>
<text text-anchor="start" x="206.21" y="-55.4" font-family="Arial" font-size="14.00">isProxy </text>
<text text-anchor="start" x="256" y="-55.4" font-family="Arial" font-size="14.00" fill="#666666">[tinyint(1)]</text>
</g>
<!-- participantEndpoint&#45;&gt;participant -->
<g id="edge1" class="edge">
<title>participantEndpoint:participantId&#45;&gt;participant:participantId</title>
<path fill="none" stroke="black" d="M319.87,-588.62C237.76,-578.95 280.39,-450.49 331.22,-373.6 353.49,-339.9 392.29,-371.23 414.67,-337.6 437.86,-302.74 457.54,-243.4 415.67,-243.4"/>
<polygon fill="black" stroke="black" points="319.9,-588.62 329.63,-593.67 325.22,-588.92 329.55,-589.16 329.55,-589.16 329.55,-589.16 325.22,-588.92 330.13,-584.69 319.9,-588.62"/>
<text text-anchor="start" x="7" y="-599.2" font-family="Arial" font-size="10.00">FOREIGN KEY (participantId) REFERENCES participant (participantId)</text>
</g>
<!-- endpointType -->
<g id="node3" class="node">
<title>endpointType</title>
<polygon fill="#efefef" stroke="none" points="518.71,-228 518.71,-263.6 757.17,-263.6 757.17,-228 518.71,-228"/>
<polygon fill="none" stroke="black" points="518.71,-228 518.71,-263.6 757.17,-263.6 757.17,-228 518.71,-228"/>
<text text-anchor="start" x="525.71" y="-241.4" font-family="Arial Bold" font-size="18.00">endpointType</text>
<text text-anchor="start" x="625.69" y="-241.4" font-family="Arial" font-size="14.00">    </text>
<text text-anchor="start" x="656.8" y="-241.4" font-family="Arial" font-size="14.00" fill="#666666">[BASE TABLE]</text>
<polygon fill="none" stroke="black" points="518.71,-197.2 518.71,-228 757.17,-228 757.17,-197.2 518.71,-197.2"/>
<text text-anchor="start" x="525.71" y="-209.4" font-family="Arial" font-size="14.00">endpointTypeId </text>
<text text-anchor="start" x="626.12" y="-209.4" font-family="Arial" font-size="14.00" fill="#666666">[int unsigned]</text>
<polygon fill="none" stroke="black" points="518.71,-166.4 518.71,-197.2 757.17,-197.2 757.17,-166.4 518.71,-166.4"/>
<text text-anchor="start" x="525.71" y="-178.6" font-family="Arial" font-size="14.00">name </text>
<text text-anchor="start" x="564.62" y="-178.6" font-family="Arial" font-size="14.00" fill="#666666">[varchar(50)]</text>
<polygon fill="none" stroke="black" points="518.71,-135.6 518.71,-166.4 757.17,-166.4 757.17,-135.6 518.71,-135.6"/>
<text text-anchor="start" x="525.71" y="-147.8" font-family="Arial" font-size="14.00">description </text>
<text text-anchor="start" x="597.3" y="-147.8" font-family="Arial" font-size="14.00" fill="#666666">[varchar(512)]</text>
<polygon fill="none" stroke="black" points="518.71,-104.8 518.71,-135.6 757.17,-135.6 757.17,-104.8 518.71,-104.8"/>
<text text-anchor="start" x="525.71" y="-117" font-family="Arial" font-size="14.00">isActive </text>
<text text-anchor="start" x="577.83" y="-117" font-family="Arial" font-size="14.00" fill="#666666">[tinyint(1)]</text>
<polygon fill="none" stroke="black" points="518.71,-74 518.71,-104.8 757.17,-104.8 757.17,-74 518.71,-74"/>
<text text-anchor="start" x="525.71" y="-86.2" font-family="Arial" font-size="14.00">createdDate </text>
<text text-anchor="start" x="605.87" y="-86.2" font-family="Arial" font-size="14.00" fill="#666666">[datetime]</text>
</g>
<!-- participantEndpoint&#45;&gt;endpointType -->
<g id="edge2" class="edge">
<title>participantEndpoint:endpointTypeId&#45;&gt;endpointType:endpointTypeId</title>
<path fill="none" stroke="black" d="M623.98,-557.74C691.75,-548.42 648.83,-443.21 612.67,-373.6 589.05,-328.13 542.45,-352.21 518.71,-306.8 499.31,-269.7 475.84,-212.6 517.71,-212.6"/>
<polygon fill="black" stroke="black" points="623.98,-557.74 613.71,-553.89 618.66,-558.08 614.34,-558.36 614.34,-558.36 614.34,-558.36 618.66,-558.08 614.29,-562.87 623.98,-557.74"/>
<text text-anchor="start" x="620.67" y="-568.4" font-family="Arial" font-size="10.00">FOREIGN KEY (endpointTypeId) REFERENCES endpointType (endpointTypeId)</text>
</g>
</g>
</svg>
