<?xml version="1.0" encoding="UTF-8" standalone="no"?>
<!DOCTYPE svg PUBLIC "-//W3C//DTD SVG 1.1//EN"
 "http://www.w3.org/Graphics/SVG/1.1/DTD/svg11.dtd">
<!-- Generated by graphviz version 12.1.2 (20240928.0832)
 -->
<!-- Title: participantPositionChange Pages: 1 -->
<svg width="1554pt" height="852pt"
 viewBox="0.00 0.00 1554.35 852.40" xmlns="http://www.w3.org/2000/svg" xmlns:xlink="http://www.w3.org/1999/xlink">
<g id="graph0" class="graph" transform="scale(1 1) rotate(0) translate(4 848.4)">
<title>participantPositionChange</title>
<polygon fill="white" stroke="none" points="-4,4 -4,-848.4 1550.35,-848.4 1550.35,4 -4,4"/>
<!-- participantPositionChange -->
<g id="node1" class="node">
<title>participantPositionChange</title>
<polygon fill="#efefef" stroke="none" points="593.71,-481.4 593.71,-517 923.17,-517 923.17,-481.4 593.71,-481.4"/>
<polygon fill="none" stroke="black" points="593.71,-481.4 593.71,-517 923.17,-517 923.17,-481.4 593.71,-481.4"/>
<text text-anchor="start" x="600.71" y="-494.8" font-family="Arial Bold" font-size="18.00">participantPositionChange</text>
<text text-anchor="start" x="791.68" y="-494.8" font-family="Arial" font-size="14.00">    </text>
<text text-anchor="start" x="822.79" y="-494.8" font-family="Arial" font-size="14.00" fill="#666666">[BASE TABLE]</text>
<polygon fill="none" stroke="black" points="593.71,-450.6 593.71,-481.4 923.17,-481.4 923.17,-450.6 593.71,-450.6"/>
<text text-anchor="start" x="600.71" y="-462.8" font-family="Arial" font-size="14.00">participantPositionChangeId </text>
<text text-anchor="start" x="779.71" y="-462.8" font-family="Arial" font-size="14.00" fill="#666666">[bigint unsigned]</text>
<polygon fill="none" stroke="black" points="593.71,-419.8 593.71,-450.6 923.17,-450.6 923.17,-419.8 593.71,-419.8"/>
<text text-anchor="start" x="600.71" y="-432" font-family="Arial" font-size="14.00">participantPositionId </text>
<text text-anchor="start" x="730.67" y="-432" font-family="Arial" font-size="14.00" fill="#666666">[bigint unsigned]</text>
<polygon fill="none" stroke="black" points="593.71,-389 593.71,-419.8 923.17,-419.8 923.17,-389 593.71,-389"/>
<text text-anchor="start" x="600.71" y="-401.2" font-family="Arial" font-size="14.00">transferStateChangeId </text>
<text text-anchor="start" x="745.47" y="-401.2" font-family="Arial" font-size="14.00" fill="#666666">[bigint unsigned]</text>
<polygon fill="none" stroke="black" points="593.71,-358.2 593.71,-389 923.17,-389 923.17,-358.2 593.71,-358.2"/>
<text text-anchor="start" x="600.71" y="-370.4" font-family="Arial" font-size="14.00">participantCurrencyId </text>
<text text-anchor="start" x="737.66" y="-370.4" font-family="Arial" font-size="14.00" fill="#666666">[int unsigned]</text>
<polygon fill="none" stroke="black" points="593.71,-327.4 593.71,-358.2 923.17,-358.2 923.17,-327.4 593.71,-327.4"/>
<text text-anchor="start" x="600.71" y="-339.6" font-family="Arial" font-size="14.00">fxTransferStateChangeId </text>
<text text-anchor="start" x="761.02" y="-339.6" font-family="Arial" font-size="14.00" fill="#666666">[bigint unsigned]</text>
<polygon fill="none" stroke="black" stroke-width="3" points="592.21,-325.9 592.21,-518.5 924.67,-518.5 924.67,-325.9 592.21,-325.9"/>
</g>
<!-- participantPosition -->
<g id="node3" class="node">
<title>participantPosition</title>
<polygon fill="#efefef" stroke="none" points="43.2,-135.6 43.2,-171.2 317.67,-171.2 317.67,-135.6 43.2,-135.6"/>
<polygon fill="none" stroke="black" points="43.2,-135.6 43.2,-171.2 317.67,-171.2 317.67,-135.6 43.2,-135.6"/>
<text text-anchor="start" x="50.2" y="-149" font-family="Arial Bold" font-size="18.00">participantPosition</text>
<text text-anchor="start" x="186.18" y="-149" font-family="Arial" font-size="14.00">    </text>
<text text-anchor="start" x="217.3" y="-149" font-family="Arial" font-size="14.00" fill="#666666">[BASE TABLE]</text>
<polygon fill="none" stroke="black" points="43.2,-104.8 43.2,-135.6 317.67,-135.6 317.67,-104.8 43.2,-104.8"/>
<text text-anchor="start" x="50.2" y="-117" font-family="Arial" font-size="14.00">participantPositionId </text>
<text text-anchor="start" x="180.16" y="-117" font-family="Arial" font-size="14.00" fill="#666666">[bigint unsigned]</text>
<polygon fill="none" stroke="black" points="43.2,-74 43.2,-104.8 317.67,-104.8 317.67,-74 43.2,-74"/>
<text text-anchor="start" x="50.2" y="-86.2" font-family="Arial" font-size="14.00">participantCurrencyId </text>
<text text-anchor="start" x="187.15" y="-86.2" font-family="Arial" font-size="14.00" fill="#666666">[int unsigned]</text>
</g>
<!-- participantPositionChange&#45;&gt;participantPosition -->
<g id="edge2" class="edge">
<title>participantPositionChange:participantPositionId&#45;&gt;participantPosition:participantPositionId</title>
<path fill="none" stroke="black" d="M582.3,-435.01C461.83,-430.55 444.71,-347.48 370.44,-245.2 335.11,-196.54 378.8,-120.2 318.67,-120.2"/>
<polygon fill="black" stroke="black" points="582.38,-435.01 592.29,-439.69 587.71,-435.11 592.04,-435.19 592.04,-435.19 592.04,-435.19 587.71,-435.11 592.46,-430.69 582.38,-435.01"/>
<text text-anchor="start" x="162.76" y="-445.2" font-family="Arial" font-size="10.00">FOREIGN KEY (participantPositionId) REFERENCES participantPosition (participantPositionId)</text>
</g>
<!-- transferStateChange -->
<g id="node4" class="node">
<title>transferStateChange</title>
<polygon fill="#efefef" stroke="none" points="422.22,-151 422.22,-186.6 706.65,-186.6 706.65,-151 422.22,-151"/>
<polygon fill="none" stroke="black" points="422.22,-151 422.22,-186.6 706.65,-186.6 706.65,-151 422.22,-151"/>
<text text-anchor="start" x="429.22" y="-164.4" font-family="Arial Bold" font-size="18.00">transferStateChange</text>
<text text-anchor="start" x="575.16" y="-164.4" font-family="Arial" font-size="14.00">    </text>
<text text-anchor="start" x="606.28" y="-164.4" font-family="Arial" font-size="14.00" fill="#666666">[BASE TABLE]</text>
<polygon fill="none" stroke="black" points="422.22,-120.2 422.22,-151 706.65,-151 706.65,-120.2 422.22,-120.2"/>
<text text-anchor="start" x="429.22" y="-132.4" font-family="Arial" font-size="14.00">transferStateChangeId </text>
<text text-anchor="start" x="573.98" y="-132.4" font-family="Arial" font-size="14.00" fill="#666666">[bigint unsigned]</text>
<polygon fill="none" stroke="black" points="422.22,-89.4 422.22,-120.2 706.65,-120.2 706.65,-89.4 422.22,-89.4"/>
<text text-anchor="start" x="429.22" y="-101.6" font-family="Arial" font-size="14.00">transferId </text>
<text text-anchor="start" x="492.25" y="-101.6" font-family="Arial" font-size="14.00" fill="#666666">[varchar(36)]</text>
<polygon fill="none" stroke="black" points="422.22,-58.6 422.22,-89.4 706.65,-89.4 706.65,-58.6 422.22,-58.6"/>
<text text-anchor="start" x="429.22" y="-70.8" font-family="Arial" font-size="14.00">transferStateId </text>
<text text-anchor="start" x="524.94" y="-70.8" font-family="Arial" font-size="14.00" fill="#666666">[varchar(50)]</text>
</g>
<!-- participantPositionChange&#45;&gt;transferStateChange -->
<g id="edge3" class="edge">
<title>participantPositionChange:transferStateChangeId&#45;&gt;transferStateChange:transferStateChangeId</title>
<path fill="none" stroke="black" d="M582.33,-403.29C541.62,-393.69 565.98,-323.9 593.71,-281.2 623.74,-234.94 676.56,-276.02 706.65,-229.8 729.5,-194.71 749.52,-135.6 707.65,-135.6"/>
<polygon fill="black" stroke="black" points="582.43,-403.3 591.9,-408.84 587.74,-403.87 592.04,-404.33 592.04,-404.33 592.04,-404.33 587.74,-403.87 592.85,-399.89 582.43,-403.3"/>
<text text-anchor="start" x="131.06" y="-414.4" font-family="Arial" font-size="10.00">FOREIGN KEY (transferStateChangeId) REFERENCES transferStateChange (transferStateChangeId)</text>
</g>
<!-- participantCurrency -->
<g id="node5" class="node">
<title>participantCurrency</title>
<polygon fill="#efefef" stroke="none" points="811.22,-166.4 811.22,-202 1093.65,-202 1093.65,-166.4 811.22,-166.4"/>
<polygon fill="none" stroke="black" points="811.22,-166.4 811.22,-202 1093.65,-202 1093.65,-166.4 811.22,-166.4"/>
<text text-anchor="start" x="818.22" y="-179.8" font-family="Arial Bold" font-size="18.00">participantCurrency</text>
<text text-anchor="start" x="962.16" y="-179.8" font-family="Arial" font-size="14.00">    </text>
<text text-anchor="start" x="993.28" y="-179.8" font-family="Arial" font-size="14.00" fill="#666666">[BASE TABLE]</text>
<polygon fill="none" stroke="black" points="811.22,-135.6 811.22,-166.4 1093.65,-166.4 1093.65,-135.6 811.22,-135.6"/>
<text text-anchor="start" x="818.22" y="-147.8" font-family="Arial" font-size="14.00">participantCurrencyId </text>
<text text-anchor="start" x="955.17" y="-147.8" font-family="Arial" font-size="14.00" fill="#666666">[int unsigned]</text>
<polygon fill="none" stroke="black" points="811.22,-104.8 811.22,-135.6 1093.65,-135.6 1093.65,-104.8 811.22,-104.8"/>
<text text-anchor="start" x="818.22" y="-117" font-family="Arial" font-size="14.00">participantId </text>
<text text-anchor="start" x="898.38" y="-117" font-family="Arial" font-size="14.00" fill="#666666">[int unsigned]</text>
<polygon fill="none" stroke="black" points="811.22,-74 811.22,-104.8 1093.65,-104.8 1093.65,-74 811.22,-74"/>
<text text-anchor="start" x="818.22" y="-86.2" font-family="Arial" font-size="14.00">currencyId </text>
<text text-anchor="start" x="887.47" y="-86.2" font-family="Arial" font-size="14.00" fill="#666666">[varchar(3)]</text>
<polygon fill="none" stroke="black" points="811.22,-43.2 811.22,-74 1093.65,-74 1093.65,-43.2 811.22,-43.2"/>
<text text-anchor="start" x="818.22" y="-55.4" font-family="Arial" font-size="14.00">ledgerAccountTypeId </text>
<text text-anchor="start" x="954.42" y="-55.4" font-family="Arial" font-size="14.00" fill="#666666">[int unsigned]</text>
</g>
<!-- participantPositionChange&#45;&gt;participantCurrency -->
<g id="edge4" class="edge">
<title>participantPositionChange:participantCurrencyId&#45;&gt;participantCurrency:participantCurrencyId</title>
<path fill="none" stroke="black" d="M934.21,-372.11C961.86,-362.7 945.25,-311.16 923.17,-281.2 892.16,-239.13 842.23,-287.27 811.22,-245.2 786.38,-211.5 768.35,-151 810.22,-151"/>
<polygon fill="black" stroke="black" points="934.39,-372.08 923.83,-369.1 929.11,-372.86 924.83,-373.5 924.83,-373.5 924.83,-373.5 929.11,-372.86 925.16,-378 934.39,-372.08"/>
<text text-anchor="start" x="931.17" y="-383.6" font-family="Arial" font-size="10.00">FOREIGN KEY (participantCurrencyId) REFERENCES participantCurrency (participantCurrencyId)</text>
</g>
<!-- fxTransferStateChange -->
<g id="node6" class="node">
<title>fxTransferStateChange</title>
<polygon fill="#efefef" stroke="none" points="1197.73,-151 1197.73,-186.6 1503.15,-186.6 1503.15,-151 1197.73,-151"/>
<polygon fill="none" stroke="black" points="1197.73,-151 1197.73,-186.6 1503.15,-186.6 1503.15,-151 1197.73,-151"/>
<text text-anchor="start" x="1204.73" y="-164.4" font-family="Arial Bold" font-size="18.00">fxTransferStateChange</text>
<text text-anchor="start" x="1371.66" y="-164.4" font-family="Arial" font-size="14.00">    </text>
<text text-anchor="start" x="1402.77" y="-164.4" font-family="Arial" font-size="14.00" fill="#666666">[BASE TABLE]</text>
<polygon fill="none" stroke="black" points="1197.73,-120.2 1197.73,-151 1503.15,-151 1503.15,-120.2 1197.73,-120.2"/>
<text text-anchor="start" x="1204.73" y="-132.4" font-family="Arial" font-size="14.00">fxTransferStateChangeId </text>
<text text-anchor="start" x="1365.04" y="-132.4" font-family="Arial" font-size="14.00" fill="#666666">[bigint unsigned]</text>
<polygon fill="none" stroke="black" points="1197.73,-89.4 1197.73,-120.2 1503.15,-120.2 1503.15,-89.4 1197.73,-89.4"/>
<text text-anchor="start" x="1204.73" y="-101.6" font-family="Arial" font-size="14.00">commitRequestId </text>
<text text-anchor="start" x="1317.55" y="-101.6" font-family="Arial" font-size="14.00" fill="#666666">[varchar(36)]</text>
<polygon fill="none" stroke="black" points="1197.73,-58.6 1197.73,-89.4 1503.15,-89.4 1503.15,-58.6 1197.73,-58.6"/>
<text text-anchor="start" x="1204.73" y="-70.8" font-family="Arial" font-size="14.00">transferStateId </text>
<text text-anchor="start" x="1300.44" y="-70.8" font-family="Arial" font-size="14.00" fill="#666666">[varchar(50)]</text>
</g>
<!-- participantPositionChange&#45;&gt;fxTransferStateChange -->
<g id="edge5" class="edge">
<title>participantPositionChange:fxTransferStateChangeId&#45;&gt;fxTransferStateChange:fxTransferStateChangeId</title>
<path fill="none" stroke="black" d="M934.34,-342.73C1034.07,-341.3 1071.07,-317.93 1145.44,-245.2 1183.89,-207.6 1142.95,-135.6 1196.73,-135.6"/>
<polygon fill="black" stroke="black" points="934.5,-342.73 924.47,-338.3 929.17,-342.77 924.83,-342.8 924.83,-342.8 924.83,-342.8 929.17,-342.77 924.53,-347.3 934.5,-342.73"/>
<text text-anchor="start" x="931.17" y="-352.8" font-family="Arial" font-size="10.00">FOREIGN KEY (fxTransferStateChangeId) REFERENCES fxTransferStateChange (fxTransferStateChangeId)</text>
</g>
<!-- participantLimit -->
<g id="node2" class="node">
<title>participantLimit</title>
<polygon fill="#efefef" stroke="none" points="581.78,-765.6 581.78,-801.2 935.09,-801.2 935.09,-765.6 581.78,-765.6"/>
<polygon fill="none" stroke="black" points="581.78,-765.6 581.78,-801.2 935.09,-801.2 935.09,-765.6 581.78,-765.6"/>
<text text-anchor="start" x="637.71" y="-779" font-family="Arial Bold" font-size="18.00">participantLimit</text>
<text text-anchor="start" x="754.67" y="-779" font-family="Arial" font-size="14.00">    </text>
<text text-anchor="start" x="785.79" y="-779" font-family="Arial" font-size="14.00" fill="#666666">[BASE TABLE]</text>
<polygon fill="none" stroke="black" points="581.78,-734.8 581.78,-765.6 935.09,-765.6 935.09,-734.8 581.78,-734.8"/>
<text text-anchor="start" x="588.78" y="-747" font-family="Arial" font-size="14.00">participantLimitId </text>
<text text-anchor="start" x="698.5" y="-747" font-family="Arial" font-size="14.00" fill="#666666">[int unsigned]</text>
<polygon fill="none" stroke="black" points="581.78,-704 581.78,-734.8 935.09,-734.8 935.09,-704 581.78,-704"/>
<text text-anchor="start" x="588.78" y="-716.2" font-family="Arial" font-size="14.00">participantCurrencyId </text>
<text text-anchor="start" x="725.73" y="-716.2" font-family="Arial" font-size="14.00" fill="#666666">[int unsigned]</text>
<polygon fill="none" stroke="black" points="581.78,-673.2 581.78,-704 935.09,-704 935.09,-673.2 581.78,-673.2"/>
<text text-anchor="start" x="588.78" y="-685.4" font-family="Arial" font-size="14.00">participantLimitTypeId </text>
<text text-anchor="start" x="729.62" y="-685.4" font-family="Arial" font-size="14.00" fill="#666666">[int unsigned]</text>
<polygon fill="none" stroke="black" points="581.78,-642.4 581.78,-673.2 935.09,-673.2 935.09,-642.4 581.78,-642.4"/>
<text text-anchor="start" x="588.78" y="-654.6" font-family="Arial" font-size="14.00">startAfterParticipantPositionChangeId </text>
<text text-anchor="start" x="826.13" y="-654.6" font-family="Arial" font-size="14.00" fill="#666666">[bigint unsigned]</text>
</g>
<!-- participantLimit&#45;&gt;participantPositionChange -->
<g id="edge1" class="edge">
<title>participantLimit:startAfterParticipantPositionChangeId&#45;&gt;participantPositionChange:participantPositionChangeId</title>
<path fill="none" stroke="black" d="M759.15,-631.37C769.16,-566.46 881.47,-628.41 923.17,-563.2 946.44,-526.8 967.37,-466 924.17,-466"/>
<polygon fill="black" stroke="black" points="759.17,-631.09 753.97,-640.75 758.79,-636.41 758.48,-640.73 758.48,-640.73 758.48,-640.73 758.79,-636.41 762.95,-641.39 759.17,-631.09"/>
<text text-anchor="start" x="181.73" y="-651.4" font-family="Arial" font-size="10.00">FOREIGN KEY (startAfterParticipantPositionChangeId) REFERENCES participantPositionChange (participantPositionChangeId)</text>
</g>
</g>
</svg>
