<?xml version="1.0" encoding="UTF-8" standalone="no"?>
<!DOCTYPE svg PUBLIC "-//W3C//DTD SVG 1.1//EN"
 "http://www.w3.org/Graphics/SVG/1.1/DTD/svg11.dtd">
<!-- Generated by graphviz version 12.1.2 (20240928.0832)
 -->
<!-- Title: participantEndpoint Pages: 1 -->
<svg width="995pt" height="417pt"
 viewBox="0.00 0.00 995.27 417.20" xmlns="http://www.w3.org/2000/svg" xmlns:xlink="http://www.w3.org/1999/xlink">
<g id="graph0" class="graph" transform="scale(1 1) rotate(0) translate(4 413.2)">
<title>participantEndpoint</title>
<polygon fill="white" stroke="none" points="-4,4 -4,-413.2 991.27,-413.2 991.27,4 -4,4"/>
<!-- participantEndpoint -->
<g id="node1" class="node">
<title>participantEndpoint</title>
<polygon fill="#efefef" stroke="none" points="331.22,-327.4 331.22,-363 612.67,-363 612.67,-327.4 331.22,-327.4"/>
<polygon fill="none" stroke="black" points="331.22,-327.4 331.22,-363 612.67,-363 612.67,-327.4 331.22,-327.4"/>
<text text-anchor="start" x="338.22" y="-340.8" font-family="Arial Bold" font-size="18.00">participantEndpoint</text>
<text text-anchor="start" x="481.18" y="-340.8" font-family="Arial" font-size="14.00">    </text>
<text text-anchor="start" x="512.3" y="-340.8" font-family="Arial" font-size="14.00" fill="#666666">[BASE TABLE]</text>
<polygon fill="none" stroke="black" points="331.22,-296.6 331.22,-327.4 612.67,-327.4 612.67,-296.6 331.22,-296.6"/>
<text text-anchor="start" x="338.22" y="-308.8" font-family="Arial" font-size="14.00">participantEndpointId </text>
<text text-anchor="start" x="473.64" y="-308.8" font-family="Arial" font-size="14.00" fill="#666666">[int unsigned]</text>
<polygon fill="none" stroke="black" points="331.22,-265.8 331.22,-296.6 612.67,-296.6 612.67,-265.8 331.22,-265.8"/>
<text text-anchor="start" x="338.22" y="-278" font-family="Arial" font-size="14.00">participantId </text>
<text text-anchor="start" x="418.37" y="-278" font-family="Arial" font-size="14.00" fill="#666666">[int unsigned]</text>
<polygon fill="none" stroke="black" points="331.22,-235 331.22,-265.8 612.67,-265.8 612.67,-235 331.22,-235"/>
<text text-anchor="start" x="338.22" y="-247.2" font-family="Arial" font-size="14.00">endpointTypeId </text>
<text text-anchor="start" x="438.62" y="-247.2" font-family="Arial" font-size="14.00" fill="#666666">[int unsigned]</text>
<polygon fill="none" stroke="black" stroke-width="3" points="329.72,-233.5 329.72,-364.5 614.17,-364.5 614.17,-233.5 329.72,-233.5"/>
</g>
<!-- participant -->
<g id="node2" class="node">
<title>participant</title>
<polygon fill="#efefef" stroke="none" points="199.21,-74 199.21,-109.6 414.67,-109.6 414.67,-74 199.21,-74"/>
<polygon fill="none" stroke="black" points="199.21,-74 199.21,-109.6 414.67,-109.6 414.67,-74 199.21,-74"/>
<text text-anchor="start" x="206.21" y="-87.4" font-family="Arial Bold" font-size="18.00">participant</text>
<text text-anchor="start" x="283.18" y="-87.4" font-family="Arial" font-size="14.00">    </text>
<text text-anchor="start" x="314.3" y="-87.4" font-family="Arial" font-size="14.00" fill="#666666">[BASE TABLE]</text>
<polygon fill="none" stroke="black" points="199.21,-43.2 199.21,-74 414.67,-74 414.67,-43.2 199.21,-43.2"/>
<text text-anchor="start" x="206.21" y="-55.4" font-family="Arial" font-size="14.00">participantId </text>
<text text-anchor="start" x="286.37" y="-55.4" font-family="Arial" font-size="14.00" fill="#666666">[int unsigned]</text>
</g>
<!-- participantEndpoint&#45;&gt;participant -->
<g id="edge1" class="edge">
<title>participantEndpoint:participantId&#45;&gt;participant:participantId</title>
<path fill="none" stroke="black" d="M320.21,-279.73C292.8,-270.5 310.6,-219.78 331.22,-188.8 353.59,-155.17 392.29,-186.43 414.67,-152.8 437.86,-117.94 457.54,-58.6 415.67,-58.6"/>
<polygon fill="black" stroke="black" points="319.99,-279.7 329.23,-285.6 325.27,-280.47 329.55,-281.1 329.55,-281.1 329.55,-281.1 325.27,-280.47 330.54,-276.7 319.99,-279.7"/>
<text text-anchor="start" x="7" y="-291.2" font-family="Arial" font-size="10.00">FOREIGN KEY (participantId) REFERENCES participant (participantId)</text>
</g>
<!-- endpointType -->
<g id="node3" class="node">
<title>endpointType</title>
<polygon fill="#efefef" stroke="none" points="518.71,-74 518.71,-109.6 757.17,-109.6 757.17,-74 518.71,-74"/>
<polygon fill="none" stroke="black" points="518.71,-74 518.71,-109.6 757.17,-109.6 757.17,-74 518.71,-74"/>
<text text-anchor="start" x="525.71" y="-87.4" font-family="Arial Bold" font-size="18.00">endpointType</text>
<text text-anchor="start" x="625.69" y="-87.4" font-family="Arial" font-size="14.00">    </text>
<text text-anchor="start" x="656.8" y="-87.4" font-family="Arial" font-size="14.00" fill="#666666">[BASE TABLE]</text>
<polygon fill="none" stroke="black" points="518.71,-43.2 518.71,-74 757.17,-74 757.17,-43.2 518.71,-43.2"/>
<text text-anchor="start" x="525.71" y="-55.4" font-family="Arial" font-size="14.00">endpointTypeId </text>
<text text-anchor="start" x="626.12" y="-55.4" font-family="Arial" font-size="14.00" fill="#666666">[int unsigned]</text>
</g>
<!-- participantEndpoint&#45;&gt;endpointType -->
<g id="edge2" class="edge">
<title>participantEndpoint:endpointTypeId&#45;&gt;endpointType:endpointTypeId</title>
<path fill="none" stroke="black" d="M623.71,-247.74C637.01,-238.57 625.91,-207.73 612.67,-188.8 587.03,-152.16 544.25,-189.51 518.71,-152.8 494.8,-118.43 475.84,-58.6 517.71,-58.6"/>
<polygon fill="black" stroke="black" points="623.66,-247.76 612.84,-245.96 618.5,-249.12 614.31,-250.23 614.31,-250.23 614.31,-250.23 618.5,-249.12 615.14,-254.66 623.66,-247.76"/>
<text text-anchor="start" x="620.67" y="-260.4" font-family="Arial" font-size="10.00">FOREIGN KEY (endpointTypeId) REFERENCES endpointType (endpointTypeId)</text>
</g>
</g>
</svg>
