<?xml version="1.0" encoding="UTF-8" standalone="no"?>
<!DOCTYPE svg PUBLIC "-//W3C//DTD SVG 1.1//EN"
 "http://www.w3.org/Graphics/SVG/1.1/DTD/svg11.dtd">
<!-- Generated by graphviz version 12.1.2 (20240928.0832)
 -->
<!-- Title: participant Pages: 1 -->
<svg width="3522pt" height="571pt"
 viewBox="0.00 0.00 3521.82 571.20" xmlns="http://www.w3.org/2000/svg" xmlns:xlink="http://www.w3.org/1999/xlink">
<g id="graph0" class="graph" transform="scale(1 1) rotate(0) translate(4 567.2)">
<title>participant</title>
<polygon fill="white" stroke="none" points="-4,4 -4,-567.2 3517.82,-567.2 3517.82,4 -4,4"/>
<!-- participant -->
<g id="node1" class="node">
<title>participant</title>
<polygon fill="#efefef" stroke="none" points="1249.12,-77 1249.12,-112.6 1464.57,-112.6 1464.57,-77 1249.12,-77"/>
<polygon fill="none" stroke="black" points="1249.12,-77 1249.12,-112.6 1464.57,-112.6 1464.57,-77 1249.12,-77"/>
<text text-anchor="start" x="1256.12" y="-90.4" font-family="Arial Bold" font-size="18.00">participant</text>
<text text-anchor="start" x="1333.08" y="-90.4" font-family="Arial" font-size="14.00">    </text>
<text text-anchor="start" x="1364.2" y="-90.4" font-family="Arial" font-size="14.00" fill="#666666">[BASE TABLE]</text>
<polygon fill="none" stroke="black" points="1249.12,-46.2 1249.12,-77 1464.57,-77 1464.57,-46.2 1249.12,-46.2"/>
<text text-anchor="start" x="1256.12" y="-58.4" font-family="Arial" font-size="14.00">participantId </text>
<text text-anchor="start" x="1336.28" y="-58.4" font-family="Arial" font-size="14.00" fill="#666666">[int unsigned]</text>
<polygon fill="none" stroke="black" stroke-width="3" points="1247.62,-44.7 1247.62,-114.1 1466.07,-114.1 1466.07,-44.7 1247.62,-44.7"/>
</g>
<!-- bulkTransfer -->
<g id="node2" class="node">
<title>bulkTransfer</title>
<polygon fill="#efefef" stroke="none" points="126.12,-407.4 126.12,-443 357.57,-443 357.57,-407.4 126.12,-407.4"/>
<polygon fill="none" stroke="black" points="126.12,-407.4 126.12,-443 357.57,-443 357.57,-407.4 126.12,-407.4"/>
<text text-anchor="start" x="133.12" y="-420.8" font-family="Arial Bold" font-size="18.00">bulkTransfer</text>
<text text-anchor="start" x="226.08" y="-420.8" font-family="Arial" font-size="14.00">    </text>
<text text-anchor="start" x="257.2" y="-420.8" font-family="Arial" font-size="14.00" fill="#666666">[BASE TABLE]</text>
<polygon fill="none" stroke="black" points="126.12,-376.6 126.12,-407.4 357.57,-407.4 357.57,-376.6 126.12,-376.6"/>
<text text-anchor="start" x="133.12" y="-388.8" font-family="Arial" font-size="14.00">bulkTransferId </text>
<text text-anchor="start" x="226.49" y="-388.8" font-family="Arial" font-size="14.00" fill="#666666">[varchar(36)]</text>
<polygon fill="none" stroke="black" points="126.12,-345.8 126.12,-376.6 357.57,-376.6 357.57,-345.8 126.12,-345.8"/>
<text text-anchor="start" x="133.12" y="-358" font-family="Arial" font-size="14.00">payerParticipantId </text>
<text text-anchor="start" x="249.85" y="-358" font-family="Arial" font-size="14.00" fill="#666666">[int unsigned]</text>
<polygon fill="none" stroke="black" points="126.12,-315 126.12,-345.8 357.57,-345.8 357.57,-315 126.12,-315"/>
<text text-anchor="start" x="133.12" y="-327.2" font-family="Arial" font-size="14.00">payeeParticipantId </text>
<text text-anchor="start" x="252.97" y="-327.2" font-family="Arial" font-size="14.00" fill="#666666">[int unsigned]</text>
</g>
<!-- bulkTransfer&#45;&gt;participant -->
<g id="edge1" class="edge">
<title>bulkTransfer:payeeParticipantId&#45;&gt;participant:participantId</title>
<path fill="none" stroke="black" d="M368.92,-329.39C415.77,-319.11 362.91,-233.02 409.84,-194.8 556.1,-75.69 1059.5,-61.6 1248.12,-61.6"/>
<polygon fill="black" stroke="black" points="368.86,-329.4 358.47,-325.89 363.55,-329.91 359.24,-330.33 359.24,-330.33 359.24,-330.33 363.55,-329.91 359.34,-334.85 368.86,-329.4"/>
<text text-anchor="start" x="7" y="-340.4" font-family="Arial" font-size="10.00">FOREIGN KEY (payeeParticipantId) REFERENCES participant (participantId)</text>
</g>
<!-- bulkTransfer&#45;&gt;participant -->
<g id="edge2" class="edge">
<title>bulkTransfer:payerParticipantId&#45;&gt;participant:participantId</title>
<path fill="none" stroke="black" d="M368.78,-360.39C428.04,-350.06 354.25,-243.04 409.84,-194.8 552.3,-71.18 1059.5,-61.6 1248.12,-61.6"/>
<polygon fill="black" stroke="black" points="368.87,-360.39 358.55,-356.69 363.55,-360.81 359.24,-361.15 359.24,-361.15 359.24,-361.15 363.55,-360.81 359.26,-365.66 368.87,-360.39"/>
<text text-anchor="start" x="9.23" y="-371.2" font-family="Arial" font-size="10.00">FOREIGN KEY (payerParticipantId) REFERENCES participant (participantId)</text>
</g>
<!-- externalParticipant -->
<g id="node3" class="node">
<title>externalParticipant</title>
<polygon fill="#efefef" stroke="none" points="461.63,-392 461.63,-427.6 736.06,-427.6 736.06,-392 461.63,-392"/>
<polygon fill="none" stroke="black" points="461.63,-392 461.63,-427.6 736.06,-427.6 736.06,-392 461.63,-392"/>
<text text-anchor="start" x="468.63" y="-405.4" font-family="Arial Bold" font-size="18.00">externalParticipant</text>
<text text-anchor="start" x="604.57" y="-405.4" font-family="Arial" font-size="14.00">    </text>
<text text-anchor="start" x="635.69" y="-405.4" font-family="Arial" font-size="14.00" fill="#666666">[BASE TABLE]</text>
<polygon fill="none" stroke="black" points="461.63,-361.2 461.63,-392 736.06,-392 736.06,-361.2 461.63,-361.2"/>
<text text-anchor="start" x="468.63" y="-373.4" font-family="Arial" font-size="14.00">externalParticipantId </text>
<text text-anchor="start" x="600.15" y="-373.4" font-family="Arial" font-size="14.00" fill="#666666">[bigint unsigned]</text>
<polygon fill="none" stroke="black" points="461.63,-330.4 461.63,-361.2 736.06,-361.2 736.06,-330.4 461.63,-330.4"/>
<text text-anchor="start" x="468.63" y="-342.6" font-family="Arial" font-size="14.00">proxyId </text>
<text text-anchor="start" x="518.43" y="-342.6" font-family="Arial" font-size="14.00" fill="#666666">[int unsigned]</text>
</g>
<!-- externalParticipant&#45;&gt;participant -->
<g id="edge3" class="edge">
<title>externalParticipant:proxyId&#45;&gt;participant:participantId</title>
<path fill="none" stroke="black" d="M747.45,-344.91C800.45,-334.8 739.52,-241.11 787.84,-194.8 864.73,-121.13 1141.64,-61.6 1248.12,-61.6"/>
<polygon fill="black" stroke="black" points="747.36,-344.92 737.01,-341.29 742.04,-345.37 737.73,-345.74 737.73,-345.74 737.73,-345.74 742.04,-345.37 737.78,-350.26 747.36,-344.92"/>
<text text-anchor="start" x="589.79" y="-329.8" font-family="Arial" font-size="10.00">FOREIGN KEY (proxyId) REFERENCES participant (participantId)</text>
</g>
<!-- participantContact -->
<g id="node4" class="node">
<title>participantContact</title>
<polygon fill="#efefef" stroke="none" points="840.12,-407.4 840.12,-443 1111.57,-443 1111.57,-407.4 840.12,-407.4"/>
<polygon fill="none" stroke="black" points="840.12,-407.4 840.12,-443 1111.57,-443 1111.57,-407.4 840.12,-407.4"/>
<text text-anchor="start" x="847.12" y="-420.8" font-family="Arial Bold" font-size="18.00">participantContact</text>
<text text-anchor="start" x="980.08" y="-420.8" font-family="Arial" font-size="14.00">    </text>
<text text-anchor="start" x="1011.19" y="-420.8" font-family="Arial" font-size="14.00" fill="#666666">[BASE TABLE]</text>
<polygon fill="none" stroke="black" points="840.12,-376.6 840.12,-407.4 1111.57,-407.4 1111.57,-376.6 840.12,-376.6"/>
<text text-anchor="start" x="847.12" y="-388.8" font-family="Arial" font-size="14.00">participantContactId </text>
<text text-anchor="start" x="975.53" y="-388.8" font-family="Arial" font-size="14.00" fill="#666666">[int unsigned]</text>
<polygon fill="none" stroke="black" points="840.12,-345.8 840.12,-376.6 1111.57,-376.6 1111.57,-345.8 840.12,-345.8"/>
<text text-anchor="start" x="847.12" y="-358" font-family="Arial" font-size="14.00">participantId </text>
<text text-anchor="start" x="927.28" y="-358" font-family="Arial" font-size="14.00" fill="#666666">[int unsigned]</text>
<polygon fill="none" stroke="black" points="840.12,-315 840.12,-345.8 1111.57,-345.8 1111.57,-315 840.12,-315"/>
<text text-anchor="start" x="847.12" y="-327.2" font-family="Arial" font-size="14.00">contactTypeId </text>
<text text-anchor="start" x="938.95" y="-327.2" font-family="Arial" font-size="14.00" fill="#666666">[int unsigned]</text>
</g>
<!-- participantContact&#45;&gt;participant -->
<g id="edge4" class="edge">
<title>participantContact:participantId&#45;&gt;participant:participantId</title>
<path fill="none" stroke="black" d="M1122.96,-360.53C1184.46,-351.88 1133.06,-261.66 1163.84,-194.8 1193.14,-131.17 1178.06,-61.6 1248.12,-61.6"/>
<polygon fill="black" stroke="black" points="1122.88,-360.53 1112.61,-356.69 1117.55,-360.88 1113.23,-361.16 1113.23,-361.16 1113.23,-361.16 1117.55,-360.88 1113.19,-365.67 1122.88,-360.53"/>
<text text-anchor="start" x="1119.57" y="-371.2" font-family="Arial" font-size="10.00">FOREIGN KEY (participantId) REFERENCES participant (participantId)</text>
</g>
<!-- participantCurrency -->
<g id="node5" class="node">
<title>participantCurrency</title>
<polygon fill="#efefef" stroke="none" points="1215.63,-422.8 1215.63,-458.4 1498.06,-458.4 1498.06,-422.8 1215.63,-422.8"/>
<polygon fill="none" stroke="black" points="1215.63,-422.8 1215.63,-458.4 1498.06,-458.4 1498.06,-422.8 1215.63,-422.8"/>
<text text-anchor="start" x="1222.63" y="-436.2" font-family="Arial Bold" font-size="18.00">participantCurrency</text>
<text text-anchor="start" x="1366.57" y="-436.2" font-family="Arial" font-size="14.00">    </text>
<text text-anchor="start" x="1397.69" y="-436.2" font-family="Arial" font-size="14.00" fill="#666666">[BASE TABLE]</text>
<polygon fill="none" stroke="black" points="1215.63,-392 1215.63,-422.8 1498.06,-422.8 1498.06,-392 1215.63,-392"/>
<text text-anchor="start" x="1222.63" y="-404.2" font-family="Arial" font-size="14.00">participantCurrencyId </text>
<text text-anchor="start" x="1359.58" y="-404.2" font-family="Arial" font-size="14.00" fill="#666666">[int unsigned]</text>
<polygon fill="none" stroke="black" points="1215.63,-361.2 1215.63,-392 1498.06,-392 1498.06,-361.2 1215.63,-361.2"/>
<text text-anchor="start" x="1222.63" y="-373.4" font-family="Arial" font-size="14.00">participantId </text>
<text text-anchor="start" x="1302.79" y="-373.4" font-family="Arial" font-size="14.00" fill="#666666">[int unsigned]</text>
<polygon fill="none" stroke="black" points="1215.63,-330.4 1215.63,-361.2 1498.06,-361.2 1498.06,-330.4 1215.63,-330.4"/>
<text text-anchor="start" x="1222.63" y="-342.6" font-family="Arial" font-size="14.00">currencyId </text>
<text text-anchor="start" x="1291.88" y="-342.6" font-family="Arial" font-size="14.00" fill="#666666">[varchar(3)]</text>
<polygon fill="none" stroke="black" points="1215.63,-299.6 1215.63,-330.4 1498.06,-330.4 1498.06,-299.6 1215.63,-299.6"/>
<text text-anchor="start" x="1222.63" y="-311.8" font-family="Arial" font-size="14.00">ledgerAccountTypeId </text>
<text text-anchor="start" x="1358.82" y="-311.8" font-family="Arial" font-size="14.00" fill="#666666">[int unsigned]</text>
</g>
<!-- participantCurrency&#45;&gt;participant -->
<g id="edge5" class="edge">
<title>participantCurrency:participantId&#45;&gt;participant:participantId</title>
<path fill="none" stroke="black" d="M1507.38,-370.78C1535.76,-328.54 1534.54,-70.12 1510.77,-46.2 1462.55,2.33 1356.84,23.21 1356.84,-45.2"/>
<polygon fill="black" stroke="black" points="1507.53,-370.68 1496.75,-372.72 1503.16,-373.73 1499.61,-376.22 1499.61,-376.22 1499.61,-376.22 1503.16,-373.73 1501.91,-380.1 1507.53,-370.68"/>
<text text-anchor="start" x="1506.06" y="-386.6" font-family="Arial" font-size="10.00">FOREIGN KEY (participantId) REFERENCES participant (participantId)</text>
</g>
<!-- participantEndpoint -->
<g id="node6" class="node">
<title>participantEndpoint</title>
<polygon fill="#efefef" stroke="none" points="1602.12,-407.4 1602.12,-443 1883.57,-443 1883.57,-407.4 1602.12,-407.4"/>
<polygon fill="none" stroke="black" points="1602.12,-407.4 1602.12,-443 1883.57,-443 1883.57,-407.4 1602.12,-407.4"/>
<text text-anchor="start" x="1609.12" y="-420.8" font-family="Arial Bold" font-size="18.00">participantEndpoint</text>
<text text-anchor="start" x="1752.08" y="-420.8" font-family="Arial" font-size="14.00">    </text>
<text text-anchor="start" x="1783.2" y="-420.8" font-family="Arial" font-size="14.00" fill="#666666">[BASE TABLE]</text>
<polygon fill="none" stroke="black" points="1602.12,-376.6 1602.12,-407.4 1883.57,-407.4 1883.57,-376.6 1602.12,-376.6"/>
<text text-anchor="start" x="1609.12" y="-388.8" font-family="Arial" font-size="14.00">participantEndpointId </text>
<text text-anchor="start" x="1744.55" y="-388.8" font-family="Arial" font-size="14.00" fill="#666666">[int unsigned]</text>
<polygon fill="none" stroke="black" points="1602.12,-345.8 1602.12,-376.6 1883.57,-376.6 1883.57,-345.8 1602.12,-345.8"/>
<text text-anchor="start" x="1609.12" y="-358" font-family="Arial" font-size="14.00">participantId </text>
<text text-anchor="start" x="1689.28" y="-358" font-family="Arial" font-size="14.00" fill="#666666">[int unsigned]</text>
<polygon fill="none" stroke="black" points="1602.12,-315 1602.12,-345.8 1883.57,-345.8 1883.57,-315 1602.12,-315"/>
<text text-anchor="start" x="1609.12" y="-327.2" font-family="Arial" font-size="14.00">endpointTypeId </text>
<text text-anchor="start" x="1709.52" y="-327.2" font-family="Arial" font-size="14.00" fill="#666666">[int unsigned]</text>
</g>
<!-- participantEndpoint&#45;&gt;participant -->
<g id="edge6" class="edge">
<title>participantEndpoint:participantId&#45;&gt;participant:participantId</title>
<path fill="none" stroke="black" d="M1590.73,-360.53C1529.23,-351.88 1580.63,-261.66 1549.84,-194.8 1520.55,-131.17 1535.63,-61.6 1465.57,-61.6"/>
<polygon fill="black" stroke="black" points="1590.81,-360.53 1600.49,-365.67 1596.13,-360.88 1600.45,-361.16 1600.45,-361.16 1600.45,-361.16 1596.13,-360.88 1601.08,-356.69 1590.81,-360.53"/>
<text text-anchor="start" x="1608.12" y="-345.2" font-family="Arial" font-size="10.00">FOREIGN KEY (participantId) REFERENCES participant (participantId)</text>
</g>
<!-- participantParty -->
<g id="node7" class="node">
<title>participantParty</title>
<polygon fill="#efefef" stroke="none" points="1988.12,-392 1988.12,-427.6 2241.57,-427.6 2241.57,-392 1988.12,-392"/>
<polygon fill="none" stroke="black" points="1988.12,-392 1988.12,-427.6 2241.57,-427.6 2241.57,-392 1988.12,-392"/>
<text text-anchor="start" x="1995.12" y="-405.4" font-family="Arial Bold" font-size="18.00">participantParty</text>
<text text-anchor="start" x="2110.08" y="-405.4" font-family="Arial" font-size="14.00">    </text>
<text text-anchor="start" x="2141.2" y="-405.4" font-family="Arial" font-size="14.00" fill="#666666">[BASE TABLE]</text>
<polygon fill="none" stroke="black" points="1988.12,-361.2 1988.12,-392 2241.57,-392 2241.57,-361.2 1988.12,-361.2"/>
<text text-anchor="start" x="1995.12" y="-373.4" font-family="Arial" font-size="14.00">participantPartyId </text>
<text text-anchor="start" x="2107.95" y="-373.4" font-family="Arial" font-size="14.00" fill="#666666">[bigint unsigned]</text>
<polygon fill="none" stroke="black" points="1988.12,-330.4 1988.12,-361.2 2241.57,-361.2 2241.57,-330.4 1988.12,-330.4"/>
<text text-anchor="start" x="1995.12" y="-342.6" font-family="Arial" font-size="14.00">participantId </text>
<text text-anchor="start" x="2075.28" y="-342.6" font-family="Arial" font-size="14.00" fill="#666666">[int unsigned]</text>
</g>
<!-- participantParty&#45;&gt;participant -->
<g id="edge7" class="edge">
<title>participantParty:participantId&#45;&gt;participant:participantId</title>
<path fill="none" stroke="black" d="M1976.72,-344.91C1923.64,-334.78 1984.42,-240.94 1935.84,-194.8 1857.1,-119.99 1574.19,-61.6 1465.57,-61.6"/>
<polygon fill="black" stroke="black" points="1976.82,-344.92 1986.4,-350.25 1982.14,-345.37 1986.45,-345.74 1986.45,-345.74 1986.45,-345.74 1982.14,-345.37 1987.17,-341.29 1976.82,-344.92"/>
<text text-anchor="start" x="1994.12" y="-355.8" font-family="Arial" font-size="10.00">FOREIGN KEY (participantId) REFERENCES participant (participantId)</text>
</g>
<!-- quoteParty -->
<g id="node8" class="node">
<title>quoteParty</title>
<polygon fill="#efefef" stroke="none" points="2345.55,-484.4 2345.55,-520 3080.14,-520 3080.14,-484.4 2345.55,-484.4"/>
<polygon fill="none" stroke="black" points="2345.55,-484.4 2345.55,-520 3080.14,-520 3080.14,-484.4 2345.55,-484.4"/>
<text text-anchor="start" x="2611.61" y="-497.8" font-family="Arial Bold" font-size="18.00">quoteParty</text>
<text text-anchor="start" x="2689.59" y="-497.8" font-family="Arial" font-size="14.00">    </text>
<text text-anchor="start" x="2720.71" y="-497.8" font-family="Arial" font-size="14.00" fill="#666666">[BASE TABLE]</text>
<polygon fill="none" stroke="black" points="2345.55,-453.6 2345.55,-484.4 3080.14,-484.4 3080.14,-453.6 2345.55,-453.6"/>
<text text-anchor="start" x="2352.55" y="-465.8" font-family="Arial" font-size="14.00">quotePartyId </text>
<text text-anchor="start" x="2435.83" y="-465.8" font-family="Arial" font-size="14.00" fill="#666666">[bigint unsigned]</text>
<polygon fill="none" stroke="black" points="2345.55,-422.8 2345.55,-453.6 3080.14,-453.6 3080.14,-422.8 2345.55,-422.8"/>
<text text-anchor="start" x="2352.55" y="-435" font-family="Arial" font-size="14.00">quoteId </text>
<text text-anchor="start" x="2403.15" y="-435" font-family="Arial" font-size="14.00" fill="#666666">[varchar(36)]</text>
<text text-anchor="start" x="2482.51" y="-435" font-family="Arial" font-size="14.00"> Common ID between the FSPs for the quote object, decided by the Payer FSP</text>
<polygon fill="none" stroke="black" points="2345.55,-392 2345.55,-422.8 3080.14,-422.8 3080.14,-392 2345.55,-392"/>
<text text-anchor="start" x="2352.55" y="-404.2" font-family="Arial" font-size="14.00">partyTypeId </text>
<text text-anchor="start" x="2430.37" y="-404.2" font-family="Arial" font-size="14.00" fill="#666666">[int unsigned]</text>
<text text-anchor="start" x="2513.65" y="-404.2" font-family="Arial" font-size="14.00"> Specifies the type of party this row relates to; typically PAYER or PAYEE</text>
<polygon fill="none" stroke="black" points="2345.55,-361.2 2345.55,-392 3080.14,-392 3080.14,-361.2 2345.55,-361.2"/>
<text text-anchor="start" x="2352.55" y="-373.4" font-family="Arial" font-size="14.00">partyIdentifierTypeId </text>
<text text-anchor="start" x="2484.06" y="-373.4" font-family="Arial" font-size="14.00" fill="#666666">[int unsigned]</text>
<text text-anchor="start" x="2567.35" y="-373.4" font-family="Arial" font-size="14.00"> Specifies the type of identifier used to identify this party e.g. MSISDN, IBAN etc...</text>
<polygon fill="none" stroke="black" points="2345.55,-330.4 2345.55,-361.2 3080.14,-361.2 3080.14,-330.4 2345.55,-330.4"/>
<text text-anchor="start" x="2352.55" y="-342.6" font-family="Arial" font-size="14.00">participantId </text>
<text text-anchor="start" x="2432.71" y="-342.6" font-family="Arial" font-size="14.00" fill="#666666">[int unsigned]</text>
<text text-anchor="start" x="2515.99" y="-342.6" font-family="Arial" font-size="14.00"> Reference to the resolved FSP ID (if supplied/known). If not an error will be reported</text>
<polygon fill="none" stroke="black" points="2345.55,-299.6 2345.55,-330.4 3080.14,-330.4 3080.14,-299.6 2345.55,-299.6"/>
<text text-anchor="start" x="2352.55" y="-311.8" font-family="Arial" font-size="14.00">transferParticipantRoleTypeId </text>
<text text-anchor="start" x="2541.64" y="-311.8" font-family="Arial" font-size="14.00" fill="#666666">[int unsigned]</text>
<text text-anchor="start" x="2624.92" y="-311.8" font-family="Arial" font-size="14.00"> The role this Party is playing in the transaction</text>
<polygon fill="none" stroke="black" points="2345.55,-268.8 2345.55,-299.6 3080.14,-299.6 3080.14,-268.8 2345.55,-268.8"/>
<text text-anchor="start" x="2352.55" y="-281" font-family="Arial" font-size="14.00">ledgerEntryTypeId </text>
<text text-anchor="start" x="2470.84" y="-281" font-family="Arial" font-size="14.00" fill="#666666">[int unsigned]</text>
<text text-anchor="start" x="2554.12" y="-281" font-family="Arial" font-size="14.00"> The type of financial entry this Party is presenting</text>
<polygon fill="none" stroke="black" points="2345.55,-238 2345.55,-268.8 3080.14,-268.8 3080.14,-238 2345.55,-238"/>
<text text-anchor="start" x="2352.55" y="-250.2" font-family="Arial" font-size="14.00">currencyId </text>
<text text-anchor="start" x="2421.8" y="-250.2" font-family="Arial" font-size="14.00" fill="#666666">[varchar(3)]</text>
<text text-anchor="start" x="2493.37" y="-250.2" font-family="Arial" font-size="14.00"> Trading currency pertaining to the party amount</text>
</g>
<!-- quoteParty&#45;&gt;participant -->
<g id="edge8" class="edge">
<title>quoteParty:participantId&#45;&gt;participant:participantId</title>
<path fill="none" stroke="black" d="M2334.19,-344.88C2281.48,-334.47 2344.89,-238.07 2293.84,-194.8 2151.64,-74.26 1652,-61.6 1465.57,-61.6"/>
<polygon fill="black" stroke="black" points="2334.26,-344.89 2343.82,-350.25 2339.57,-345.36 2343.89,-345.74 2343.89,-345.74 2343.89,-345.74 2339.57,-345.36 2344.62,-341.29 2334.26,-344.89"/>
<text text-anchor="start" x="2021.34" y="-329.8" font-family="Arial" font-size="10.00">FOREIGN KEY (participantId) REFERENCES participant (participantId)</text>
</g>
<!-- token -->
<g id="node9" class="node">
<title>token</title>
<polygon fill="#efefef" stroke="none" points="3184.6,-392 3184.6,-427.6 3363.08,-427.6 3363.08,-392 3184.6,-392"/>
<polygon fill="none" stroke="black" points="3184.6,-392 3184.6,-427.6 3363.08,-427.6 3363.08,-392 3184.6,-392"/>
<text text-anchor="start" x="3191.6" y="-405.4" font-family="Arial Bold" font-size="18.00">token</text>
<text text-anchor="start" x="3231.6" y="-405.4" font-family="Arial" font-size="14.00">    </text>
<text text-anchor="start" x="3262.71" y="-405.4" font-family="Arial" font-size="14.00" fill="#666666">[BASE TABLE]</text>
<polygon fill="none" stroke="black" points="3184.6,-361.2 3184.6,-392 3363.08,-392 3363.08,-361.2 3184.6,-361.2"/>
<text text-anchor="start" x="3191.6" y="-373.4" font-family="Arial" font-size="14.00">tokenId </text>
<text text-anchor="start" x="3241.42" y="-373.4" font-family="Arial" font-size="14.00" fill="#666666">[int unsigned]</text>
<polygon fill="none" stroke="black" points="3184.6,-330.4 3184.6,-361.2 3363.08,-361.2 3363.08,-330.4 3184.6,-330.4"/>
<text text-anchor="start" x="3191.6" y="-342.6" font-family="Arial" font-size="14.00">participantId </text>
<text text-anchor="start" x="3271.76" y="-342.6" font-family="Arial" font-size="14.00" fill="#666666">[int unsigned]</text>
</g>
<!-- token&#45;&gt;participant -->
<g id="edge9" class="edge">
<title>token:participantId&#45;&gt;participant:participantId</title>
<path fill="none" stroke="black" d="M3173.23,-344.86C3120.5,-334.23 3184.82,-235.93 3131.84,-194.8 2985.14,-80.9 1651.3,-61.6 1465.57,-61.6"/>
<polygon fill="black" stroke="black" points="3173.31,-344.87 3182.87,-350.25 3178.63,-345.35 3182.94,-345.74 3182.94,-345.74 3182.94,-345.74 3178.63,-345.35 3183.68,-341.29 3173.31,-344.87"/>
<text text-anchor="start" x="3190.6" y="-355.8" font-family="Arial" font-size="10.00">FOREIGN KEY (participantId) REFERENCES participant (participantId)</text>
</g>
</g>
</svg>
