<?xml version="1.0" encoding="UTF-8" standalone="no"?>
<!DOCTYPE svg PUBLIC "-//W3C//DTD SVG 1.1//EN"
 "http://www.w3.org/Graphics/SVG/1.1/DTD/svg11.dtd">
<!-- Generated by graphviz version 12.1.2 (20240928.0832)
 -->
<!-- Title: participantParty Pages: 1 -->
<svg width="639pt" height="602pt"
 viewBox="0.00 0.00 638.87 602.00" xmlns="http://www.w3.org/2000/svg" xmlns:xlink="http://www.w3.org/1999/xlink">
<g id="graph0" class="graph" transform="scale(1 1) rotate(0) translate(4 598)">
<title>participantParty</title>
<polygon fill="white" stroke="none" points="-4,4 -4,-598 634.87,-598 634.87,4 -4,4"/>
<!-- participantParty -->
<g id="node1" class="node">
<title>participantParty</title>
<polygon fill="#efefef" stroke="none" points="46.2,-512.2 46.2,-547.8 299.65,-547.8 299.65,-512.2 46.2,-512.2"/>
<polygon fill="none" stroke="black" points="46.2,-512.2 46.2,-547.8 299.65,-547.8 299.65,-512.2 46.2,-512.2"/>
<text text-anchor="start" x="53.2" y="-525.6" font-family="Arial Bold" font-size="18.00">participantParty</text>
<text text-anchor="start" x="168.16" y="-525.6" font-family="Arial" font-size="14.00">    </text>
<text text-anchor="start" x="199.28" y="-525.6" font-family="Arial" font-size="14.00" fill="#666666">[BASE TABLE]</text>
<polygon fill="none" stroke="black" points="46.2,-481.4 46.2,-512.2 299.65,-512.2 299.65,-481.4 46.2,-481.4"/>
<text text-anchor="start" x="53.2" y="-493.6" font-family="Arial" font-size="14.00">participantPartyId </text>
<text text-anchor="start" x="166.03" y="-493.6" font-family="Arial" font-size="14.00" fill="#666666">[bigint unsigned]</text>
<polygon fill="none" stroke="black" points="46.2,-450.6 46.2,-481.4 299.65,-481.4 299.65,-450.6 46.2,-450.6"/>
<text text-anchor="start" x="53.2" y="-462.8" font-family="Arial" font-size="14.00">participantId </text>
<text text-anchor="start" x="133.36" y="-462.8" font-family="Arial" font-size="14.00" fill="#666666">[int unsigned]</text>
<polygon fill="none" stroke="black" points="46.2,-419.8 46.2,-450.6 299.65,-450.6 299.65,-419.8 46.2,-419.8"/>
<text text-anchor="start" x="53.2" y="-432" font-family="Arial" font-size="14.00">partyId </text>
<text text-anchor="start" x="99.89" y="-432" font-family="Arial" font-size="14.00" fill="#666666">[bigint unsigned]</text>
<polygon fill="none" stroke="black" stroke-width="3" points="44.7,-418.3 44.7,-549.3 301.15,-549.3 301.15,-418.3 44.7,-418.3"/>
</g>
<!-- participant -->
<g id="node2" class="node">
<title>participant</title>
<polygon fill="#efefef" stroke="none" points="65.2,-258.8 65.2,-294.4 280.65,-294.4 280.65,-258.8 65.2,-258.8"/>
<polygon fill="none" stroke="black" points="65.2,-258.8 65.2,-294.4 280.65,-294.4 280.65,-258.8 65.2,-258.8"/>
<text text-anchor="start" x="72.2" y="-272.2" font-family="Arial Bold" font-size="18.00">participant</text>
<text text-anchor="start" x="149.16" y="-272.2" font-family="Arial" font-size="14.00">    </text>
<text text-anchor="start" x="180.28" y="-272.2" font-family="Arial" font-size="14.00" fill="#666666">[BASE TABLE]</text>
<polygon fill="none" stroke="black" points="65.2,-228 65.2,-258.8 280.65,-258.8 280.65,-228 65.2,-228"/>
<text text-anchor="start" x="72.2" y="-240.2" font-family="Arial" font-size="14.00">participantId </text>
<text text-anchor="start" x="152.36" y="-240.2" font-family="Arial" font-size="14.00" fill="#666666">[int unsigned]</text>
<polygon fill="none" stroke="black" points="65.2,-197.2 65.2,-228 280.65,-228 280.65,-197.2 65.2,-197.2"/>
<text text-anchor="start" x="72.2" y="-209.4" font-family="Arial" font-size="14.00">name </text>
<text text-anchor="start" x="111.11" y="-209.4" font-family="Arial" font-size="14.00" fill="#666666">[varchar(256)]</text>
<polygon fill="none" stroke="black" points="65.2,-166.4 65.2,-197.2 280.65,-197.2 280.65,-166.4 65.2,-166.4"/>
<text text-anchor="start" x="72.2" y="-178.6" font-family="Arial" font-size="14.00">description </text>
<text text-anchor="start" x="143.79" y="-178.6" font-family="Arial" font-size="14.00" fill="#666666">[varchar(512)]</text>
<polygon fill="none" stroke="black" points="65.2,-135.6 65.2,-166.4 280.65,-166.4 280.65,-135.6 65.2,-135.6"/>
<text text-anchor="start" x="72.2" y="-147.8" font-family="Arial" font-size="14.00">isActive </text>
<text text-anchor="start" x="124.32" y="-147.8" font-family="Arial" font-size="14.00" fill="#666666">[tinyint(1)]</text>
<polygon fill="none" stroke="black" points="65.2,-104.8 65.2,-135.6 280.65,-135.6 280.65,-104.8 65.2,-104.8"/>
<text text-anchor="start" x="72.2" y="-117" font-family="Arial" font-size="14.00">createdDate </text>
<text text-anchor="start" x="152.36" y="-117" font-family="Arial" font-size="14.00" fill="#666666">[datetime]</text>
<polygon fill="none" stroke="black" points="65.2,-74 65.2,-104.8 280.65,-104.8 280.65,-74 65.2,-74"/>
<text text-anchor="start" x="72.2" y="-86.2" font-family="Arial" font-size="14.00">createdBy </text>
<text text-anchor="start" x="139.12" y="-86.2" font-family="Arial" font-size="14.00" fill="#666666">[varchar(128)]</text>
<polygon fill="none" stroke="black" points="65.2,-43.2 65.2,-74 280.65,-74 280.65,-43.2 65.2,-43.2"/>
<text text-anchor="start" x="72.2" y="-55.4" font-family="Arial" font-size="14.00">isProxy </text>
<text text-anchor="start" x="121.98" y="-55.4" font-family="Arial" font-size="14.00" fill="#666666">[tinyint(1)]</text>
</g>
<!-- participantParty&#45;&gt;participant -->
<g id="edge1" class="edge">
<title>participantParty:participantId&#45;&gt;participant:participantId</title>
<path fill="none" stroke="black" d="M310.95,-465.15C398.47,-450.2 377.36,-243.4 281.65,-243.4"/>
<polygon fill="black" stroke="black" points="310.95,-465.15 300.61,-461.49 305.63,-465.59 301.32,-465.94 301.32,-465.94 301.32,-465.94 305.63,-465.59 301.35,-470.46 310.95,-465.15"/>
<text text-anchor="start" x="307.65" y="-476" font-family="Arial" font-size="10.00">FOREIGN KEY (participantId) REFERENCES participant (participantId)</text>
</g>
</g>
</svg>
