<?xml version="1.0" encoding="UTF-8" standalone="no"?>
<!DOCTYPE svg PUBLIC "-//W3C//DTD SVG 1.1//EN"
 "http://www.w3.org/Graphics/SVG/1.1/DTD/svg11.dtd">
<!-- Generated by graphviz version 12.1.2 (20240928.0832)
 -->
<!-- Title: participant Pages: 1 -->
<svg width="3074pt" height="972pt"
 viewBox="0.00 0.00 3073.82 971.60" xmlns="http://www.w3.org/2000/svg" xmlns:xlink="http://www.w3.org/1999/xlink">
<g id="graph0" class="graph" transform="scale(1 1) rotate(0) translate(4 967.6)">
<title>participant</title>
<polygon fill="white" stroke="none" points="-4,4 -4,-967.6 3069.82,-967.6 3069.82,4 -4,4"/>
<!-- participant -->
<g id="node1" class="node">
<title>participant</title>
<polygon fill="#efefef" stroke="none" points="1249.12,-261.8 1249.12,-297.4 1464.57,-297.4 1464.57,-261.8 1249.12,-261.8"/>
<polygon fill="none" stroke="black" points="1249.12,-261.8 1249.12,-297.4 1464.57,-297.4 1464.57,-261.8 1249.12,-261.8"/>
<text text-anchor="start" x="1256.12" y="-275.2" font-family="Arial Bold" font-size="18.00">participant</text>
<text text-anchor="start" x="1333.08" y="-275.2" font-family="Arial" font-size="14.00">    </text>
<text text-anchor="start" x="1364.2" y="-275.2" font-family="Arial" font-size="14.00" fill="#666666">[BASE TABLE]</text>
<polygon fill="none" stroke="black" points="1249.12,-231 1249.12,-261.8 1464.57,-261.8 1464.57,-231 1249.12,-231"/>
<text text-anchor="start" x="1256.12" y="-243.2" font-family="Arial" font-size="14.00">participantId </text>
<text text-anchor="start" x="1336.28" y="-243.2" font-family="Arial" font-size="14.00" fill="#666666">[int unsigned]</text>
<polygon fill="none" stroke="black" points="1249.12,-200.2 1249.12,-231 1464.57,-231 1464.57,-200.2 1249.12,-200.2"/>
<text text-anchor="start" x="1256.12" y="-212.4" font-family="Arial" font-size="14.00">name </text>
<text text-anchor="start" x="1295.03" y="-212.4" font-family="Arial" font-size="14.00" fill="#666666">[varchar(256)]</text>
<polygon fill="none" stroke="black" points="1249.12,-169.4 1249.12,-200.2 1464.57,-200.2 1464.57,-169.4 1249.12,-169.4"/>
<text text-anchor="start" x="1256.12" y="-181.6" font-family="Arial" font-size="14.00">description </text>
<text text-anchor="start" x="1327.71" y="-181.6" font-family="Arial" font-size="14.00" fill="#666666">[varchar(512)]</text>
<polygon fill="none" stroke="black" points="1249.12,-138.6 1249.12,-169.4 1464.57,-169.4 1464.57,-138.6 1249.12,-138.6"/>
<text text-anchor="start" x="1256.12" y="-150.8" font-family="Arial" font-size="14.00">isActive </text>
<text text-anchor="start" x="1308.24" y="-150.8" font-family="Arial" font-size="14.00" fill="#666666">[tinyint(1)]</text>
<polygon fill="none" stroke="black" points="1249.12,-107.8 1249.12,-138.6 1464.57,-138.6 1464.57,-107.8 1249.12,-107.8"/>
<text text-anchor="start" x="1256.12" y="-120" font-family="Arial" font-size="14.00">createdDate </text>
<text text-anchor="start" x="1336.28" y="-120" font-family="Arial" font-size="14.00" fill="#666666">[datetime]</text>
<polygon fill="none" stroke="black" points="1249.12,-77 1249.12,-107.8 1464.57,-107.8 1464.57,-77 1249.12,-77"/>
<text text-anchor="start" x="1256.12" y="-89.2" font-family="Arial" font-size="14.00">createdBy </text>
<text text-anchor="start" x="1323.04" y="-89.2" font-family="Arial" font-size="14.00" fill="#666666">[varchar(128)]</text>
<polygon fill="none" stroke="black" points="1249.12,-46.2 1249.12,-77 1464.57,-77 1464.57,-46.2 1249.12,-46.2"/>
<text text-anchor="start" x="1256.12" y="-58.4" font-family="Arial" font-size="14.00">isProxy </text>
<text text-anchor="start" x="1305.9" y="-58.4" font-family="Arial" font-size="14.00" fill="#666666">[tinyint(1)]</text>
<polygon fill="none" stroke="black" stroke-width="3" points="1247.62,-44.7 1247.62,-298.9 1466.07,-298.9 1466.07,-44.7 1247.62,-44.7"/>
</g>
<!-- bulkTransfer -->
<g id="node2" class="node">
<title>bulkTransfer</title>
<polygon fill="#efefef" stroke="none" points="126.12,-746.2 126.12,-781.8 357.57,-781.8 357.57,-746.2 126.12,-746.2"/>
<polygon fill="none" stroke="black" points="126.12,-746.2 126.12,-781.8 357.57,-781.8 357.57,-746.2 126.12,-746.2"/>
<text text-anchor="start" x="133.12" y="-759.6" font-family="Arial Bold" font-size="18.00">bulkTransfer</text>
<text text-anchor="start" x="226.08" y="-759.6" font-family="Arial" font-size="14.00">    </text>
<text text-anchor="start" x="257.2" y="-759.6" font-family="Arial" font-size="14.00" fill="#666666">[BASE TABLE]</text>
<polygon fill="none" stroke="black" points="126.12,-715.4 126.12,-746.2 357.57,-746.2 357.57,-715.4 126.12,-715.4"/>
<text text-anchor="start" x="133.12" y="-727.6" font-family="Arial" font-size="14.00">bulkTransferId </text>
<text text-anchor="start" x="226.49" y="-727.6" font-family="Arial" font-size="14.00" fill="#666666">[varchar(36)]</text>
<polygon fill="none" stroke="black" points="126.12,-684.6 126.12,-715.4 357.57,-715.4 357.57,-684.6 126.12,-684.6"/>
<text text-anchor="start" x="133.12" y="-696.8" font-family="Arial" font-size="14.00">bulkQuoteId </text>
<text text-anchor="start" x="212.5" y="-696.8" font-family="Arial" font-size="14.00" fill="#666666">[varchar(36)]</text>
<polygon fill="none" stroke="black" points="126.12,-653.8 126.12,-684.6 357.57,-684.6 357.57,-653.8 126.12,-653.8"/>
<text text-anchor="start" x="133.12" y="-666" font-family="Arial" font-size="14.00">payerParticipantId </text>
<text text-anchor="start" x="249.85" y="-666" font-family="Arial" font-size="14.00" fill="#666666">[int unsigned]</text>
<polygon fill="none" stroke="black" points="126.12,-623 126.12,-653.8 357.57,-653.8 357.57,-623 126.12,-623"/>
<text text-anchor="start" x="133.12" y="-635.2" font-family="Arial" font-size="14.00">payeeParticipantId </text>
<text text-anchor="start" x="252.97" y="-635.2" font-family="Arial" font-size="14.00" fill="#666666">[int unsigned]</text>
<polygon fill="none" stroke="black" points="126.12,-592.2 126.12,-623 357.57,-623 357.57,-592.2 126.12,-592.2"/>
<text text-anchor="start" x="133.12" y="-604.4" font-family="Arial" font-size="14.00">expirationDate </text>
<text text-anchor="start" x="227.28" y="-604.4" font-family="Arial" font-size="14.00" fill="#666666">[datetime]</text>
<polygon fill="none" stroke="black" points="126.12,-561.4 126.12,-592.2 357.57,-592.2 357.57,-561.4 126.12,-561.4"/>
<text text-anchor="start" x="133.12" y="-573.6" font-family="Arial" font-size="14.00">createdDate </text>
<text text-anchor="start" x="213.28" y="-573.6" font-family="Arial" font-size="14.00" fill="#666666">[datetime]</text>
</g>
<!-- bulkTransfer&#45;&gt;participant -->
<g id="edge1" class="edge">
<title>bulkTransfer:payeeParticipantId&#45;&gt;participant:participantId</title>
<path fill="none" stroke="black" d="M368.79,-637.89C466.65,-627.4 328.01,-458.38 409.84,-379.6 545.73,-248.78 1059.5,-246.4 1248.12,-246.4"/>
<polygon fill="black" stroke="black" points="368.89,-637.88 358.68,-633.89 363.56,-638.15 359.24,-638.37 359.24,-638.37 359.24,-638.37 363.56,-638.15 359.13,-642.88 368.89,-637.88"/>
<text text-anchor="start" x="7" y="-648.4" font-family="Arial" font-size="10.00">FOREIGN KEY (payeeParticipantId) REFERENCES participant (participantId)</text>
</g>
<!-- bulkTransfer&#45;&gt;participant -->
<g id="edge2" class="edge">
<title>bulkTransfer:payerParticipantId&#45;&gt;participant:participantId</title>
<path fill="none" stroke="black" d="M368.96,-668.73C479.72,-658.07 319.24,-468.61 409.84,-379.6 544.39,-247.41 1059.5,-246.4 1248.12,-246.4"/>
<polygon fill="black" stroke="black" points="368.89,-668.73 358.7,-664.69 363.57,-668.97 359.24,-669.17 359.24,-669.17 359.24,-669.17 363.57,-668.97 359.11,-673.68 368.89,-668.73"/>
<text text-anchor="start" x="9.23" y="-679.2" font-family="Arial" font-size="10.00">FOREIGN KEY (payerParticipantId) REFERENCES participant (participantId)</text>
</g>
<!-- externalParticipant -->
<g id="node3" class="node">
<title>externalParticipant</title>
<polygon fill="#efefef" stroke="none" points="461.63,-715.4 461.63,-751 736.06,-751 736.06,-715.4 461.63,-715.4"/>
<polygon fill="none" stroke="black" points="461.63,-715.4 461.63,-751 736.06,-751 736.06,-715.4 461.63,-715.4"/>
<text text-anchor="start" x="468.63" y="-728.8" font-family="Arial Bold" font-size="18.00">externalParticipant</text>
<text text-anchor="start" x="604.57" y="-728.8" font-family="Arial" font-size="14.00">    </text>
<text text-anchor="start" x="635.69" y="-728.8" font-family="Arial" font-size="14.00" fill="#666666">[BASE TABLE]</text>
<polygon fill="none" stroke="black" points="461.63,-684.6 461.63,-715.4 736.06,-715.4 736.06,-684.6 461.63,-684.6"/>
<text text-anchor="start" x="468.63" y="-696.8" font-family="Arial" font-size="14.00">externalParticipantId </text>
<text text-anchor="start" x="600.15" y="-696.8" font-family="Arial" font-size="14.00" fill="#666666">[bigint unsigned]</text>
<polygon fill="none" stroke="black" points="461.63,-653.8 461.63,-684.6 736.06,-684.6 736.06,-653.8 461.63,-653.8"/>
<text text-anchor="start" x="468.63" y="-666" font-family="Arial" font-size="14.00">name </text>
<text text-anchor="start" x="507.54" y="-666" font-family="Arial" font-size="14.00" fill="#666666">[varchar(30)]</text>
<polygon fill="none" stroke="black" points="461.63,-623 461.63,-653.8 736.06,-653.8 736.06,-623 461.63,-623"/>
<text text-anchor="start" x="468.63" y="-635.2" font-family="Arial" font-size="14.00">createdDate </text>
<text text-anchor="start" x="548.79" y="-635.2" font-family="Arial" font-size="14.00" fill="#666666">[datetime]</text>
<polygon fill="none" stroke="black" points="461.63,-592.2 461.63,-623 736.06,-623 736.06,-592.2 461.63,-592.2"/>
<text text-anchor="start" x="468.63" y="-604.4" font-family="Arial" font-size="14.00">proxyId </text>
<text text-anchor="start" x="518.43" y="-604.4" font-family="Arial" font-size="14.00" fill="#666666">[int unsigned]</text>
</g>
<!-- externalParticipant&#45;&gt;participant -->
<g id="edge3" class="edge">
<title>externalParticipant:proxyId&#45;&gt;participant:participantId</title>
<path fill="none" stroke="black" d="M747.44,-607.01C832.16,-596.69 719.33,-452.53 787.84,-379.6 860.75,-301.99 1141.64,-246.4 1248.12,-246.4"/>
<polygon fill="black" stroke="black" points="747.38,-607.02 737.14,-603.09 742.05,-607.32 737.73,-607.56 737.73,-607.56 737.73,-607.56 742.05,-607.32 737.65,-612.07 747.38,-607.02"/>
<text text-anchor="start" x="744.06" y="-617.6" font-family="Arial" font-size="10.00">FOREIGN KEY (proxyId) REFERENCES participant (participantId)</text>
</g>
<!-- participantContact -->
<g id="node4" class="node">
<title>participantContact</title>
<polygon fill="#efefef" stroke="none" points="840.12,-777 840.12,-812.6 1111.57,-812.6 1111.57,-777 840.12,-777"/>
<polygon fill="none" stroke="black" points="840.12,-777 840.12,-812.6 1111.57,-812.6 1111.57,-777 840.12,-777"/>
<text text-anchor="start" x="847.12" y="-790.4" font-family="Arial Bold" font-size="18.00">participantContact</text>
<text text-anchor="start" x="980.08" y="-790.4" font-family="Arial" font-size="14.00">    </text>
<text text-anchor="start" x="1011.19" y="-790.4" font-family="Arial" font-size="14.00" fill="#666666">[BASE TABLE]</text>
<polygon fill="none" stroke="black" points="840.12,-746.2 840.12,-777 1111.57,-777 1111.57,-746.2 840.12,-746.2"/>
<text text-anchor="start" x="847.12" y="-758.4" font-family="Arial" font-size="14.00">participantContactId </text>
<text text-anchor="start" x="975.53" y="-758.4" font-family="Arial" font-size="14.00" fill="#666666">[int unsigned]</text>
<polygon fill="none" stroke="black" points="840.12,-715.4 840.12,-746.2 1111.57,-746.2 1111.57,-715.4 840.12,-715.4"/>
<text text-anchor="start" x="847.12" y="-727.6" font-family="Arial" font-size="14.00">participantId </text>
<text text-anchor="start" x="927.28" y="-727.6" font-family="Arial" font-size="14.00" fill="#666666">[int unsigned]</text>
<polygon fill="none" stroke="black" points="840.12,-684.6 840.12,-715.4 1111.57,-715.4 1111.57,-684.6 840.12,-684.6"/>
<text text-anchor="start" x="847.12" y="-696.8" font-family="Arial" font-size="14.00">contactTypeId </text>
<text text-anchor="start" x="938.95" y="-696.8" font-family="Arial" font-size="14.00" fill="#666666">[int unsigned]</text>
<polygon fill="none" stroke="black" points="840.12,-653.8 840.12,-684.6 1111.57,-684.6 1111.57,-653.8 840.12,-653.8"/>
<text text-anchor="start" x="847.12" y="-666" font-family="Arial" font-size="14.00">value </text>
<text text-anchor="start" x="884.48" y="-666" font-family="Arial" font-size="14.00" fill="#666666">[varchar(256)]</text>
<polygon fill="none" stroke="black" points="840.12,-623 840.12,-653.8 1111.57,-653.8 1111.57,-623 840.12,-623"/>
<text text-anchor="start" x="847.12" y="-635.2" font-family="Arial" font-size="14.00">priorityPreference </text>
<text text-anchor="start" x="961.5" y="-635.2" font-family="Arial" font-size="14.00" fill="#666666">[int]</text>
<polygon fill="none" stroke="black" points="840.12,-592.2 840.12,-623 1111.57,-623 1111.57,-592.2 840.12,-592.2"/>
<text text-anchor="start" x="847.12" y="-604.4" font-family="Arial" font-size="14.00">isActive </text>
<text text-anchor="start" x="899.25" y="-604.4" font-family="Arial" font-size="14.00" fill="#666666">[tinyint(1)]</text>
<polygon fill="none" stroke="black" points="840.12,-561.4 840.12,-592.2 1111.57,-592.2 1111.57,-561.4 840.12,-561.4"/>
<text text-anchor="start" x="847.12" y="-573.6" font-family="Arial" font-size="14.00">createdDate </text>
<text text-anchor="start" x="927.28" y="-573.6" font-family="Arial" font-size="14.00" fill="#666666">[datetime]</text>
<polygon fill="none" stroke="black" points="840.12,-530.6 840.12,-561.4 1111.57,-561.4 1111.57,-530.6 840.12,-530.6"/>
<text text-anchor="start" x="847.12" y="-542.8" font-family="Arial" font-size="14.00">createdBy </text>
<text text-anchor="start" x="914.05" y="-542.8" font-family="Arial" font-size="14.00" fill="#666666">[varchar(128)]</text>
</g>
<!-- participantContact&#45;&gt;participant -->
<g id="edge4" class="edge">
<title>participantContact:participantId&#45;&gt;participant:participantId</title>
<path fill="none" stroke="black" d="M1122.8,-729.02C1186.46,-705.26 1137.75,-450.1 1163.84,-379.6 1188.16,-313.9 1178.06,-246.4 1248.12,-246.4"/>
<polygon fill="black" stroke="black" points="1122.75,-729.03 1112.12,-726.31 1117.49,-729.94 1113.22,-730.69 1113.22,-730.69 1113.22,-730.69 1117.49,-729.94 1113.67,-735.18 1122.75,-729.03"/>
<text text-anchor="start" x="1119.57" y="-740.8" font-family="Arial" font-size="10.00">FOREIGN KEY (participantId) REFERENCES participant (participantId)</text>
</g>
<!-- participantCurrency -->
<g id="node5" class="node">
<title>participantCurrency</title>
<polygon fill="#efefef" stroke="none" points="1215.63,-761.6 1215.63,-797.2 1498.06,-797.2 1498.06,-761.6 1215.63,-761.6"/>
<polygon fill="none" stroke="black" points="1215.63,-761.6 1215.63,-797.2 1498.06,-797.2 1498.06,-761.6 1215.63,-761.6"/>
<text text-anchor="start" x="1222.63" y="-775" font-family="Arial Bold" font-size="18.00">participantCurrency</text>
<text text-anchor="start" x="1366.57" y="-775" font-family="Arial" font-size="14.00">    </text>
<text text-anchor="start" x="1397.69" y="-775" font-family="Arial" font-size="14.00" fill="#666666">[BASE TABLE]</text>
<polygon fill="none" stroke="black" points="1215.63,-730.8 1215.63,-761.6 1498.06,-761.6 1498.06,-730.8 1215.63,-730.8"/>
<text text-anchor="start" x="1222.63" y="-743" font-family="Arial" font-size="14.00">participantCurrencyId </text>
<text text-anchor="start" x="1359.58" y="-743" font-family="Arial" font-size="14.00" fill="#666666">[int unsigned]</text>
<polygon fill="none" stroke="black" points="1215.63,-700 1215.63,-730.8 1498.06,-730.8 1498.06,-700 1215.63,-700"/>
<text text-anchor="start" x="1222.63" y="-712.2" font-family="Arial" font-size="14.00">participantId </text>
<text text-anchor="start" x="1302.79" y="-712.2" font-family="Arial" font-size="14.00" fill="#666666">[int unsigned]</text>
<polygon fill="none" stroke="black" points="1215.63,-669.2 1215.63,-700 1498.06,-700 1498.06,-669.2 1215.63,-669.2"/>
<text text-anchor="start" x="1222.63" y="-681.4" font-family="Arial" font-size="14.00">currencyId </text>
<text text-anchor="start" x="1291.88" y="-681.4" font-family="Arial" font-size="14.00" fill="#666666">[varchar(3)]</text>
<polygon fill="none" stroke="black" points="1215.63,-638.4 1215.63,-669.2 1498.06,-669.2 1498.06,-638.4 1215.63,-638.4"/>
<text text-anchor="start" x="1222.63" y="-650.6" font-family="Arial" font-size="14.00">ledgerAccountTypeId </text>
<text text-anchor="start" x="1358.82" y="-650.6" font-family="Arial" font-size="14.00" fill="#666666">[int unsigned]</text>
<polygon fill="none" stroke="black" points="1215.63,-607.6 1215.63,-638.4 1498.06,-638.4 1498.06,-607.6 1215.63,-607.6"/>
<text text-anchor="start" x="1222.63" y="-619.8" font-family="Arial" font-size="14.00">isActive </text>
<text text-anchor="start" x="1274.75" y="-619.8" font-family="Arial" font-size="14.00" fill="#666666">[tinyint(1)]</text>
<polygon fill="none" stroke="black" points="1215.63,-576.8 1215.63,-607.6 1498.06,-607.6 1498.06,-576.8 1215.63,-576.8"/>
<text text-anchor="start" x="1222.63" y="-589" font-family="Arial" font-size="14.00">createdDate </text>
<text text-anchor="start" x="1302.79" y="-589" font-family="Arial" font-size="14.00" fill="#666666">[datetime]</text>
<polygon fill="none" stroke="black" points="1215.63,-546 1215.63,-576.8 1498.06,-576.8 1498.06,-546 1215.63,-546"/>
<text text-anchor="start" x="1222.63" y="-558.2" font-family="Arial" font-size="14.00">createdBy </text>
<text text-anchor="start" x="1289.55" y="-558.2" font-family="Arial" font-size="14.00" fill="#666666">[varchar(128)]</text>
</g>
<!-- participantCurrency&#45;&gt;participant -->
<g id="edge5" class="edge">
<title>participantCurrency:participantId&#45;&gt;participant:participantId</title>
<path fill="none" stroke="black" d="M1507.87,-710.13C1547.04,-658.61 1514.55,-246.4 1465.57,-246.4"/>
<polygon fill="black" stroke="black" points="1507.93,-710.1 1497.04,-711.37 1503.35,-712.83 1499.63,-715.06 1499.63,-715.06 1499.63,-715.06 1503.35,-712.83 1501.66,-719.09 1507.93,-710.1"/>
<text text-anchor="start" x="1506.06" y="-725.4" font-family="Arial" font-size="10.00">FOREIGN KEY (participantId) REFERENCES participant (participantId)</text>
</g>
<!-- participantEndpoint -->
<g id="node6" class="node">
<title>participantEndpoint</title>
<polygon fill="#efefef" stroke="none" points="1602.12,-761.6 1602.12,-797.2 1883.57,-797.2 1883.57,-761.6 1602.12,-761.6"/>
<polygon fill="none" stroke="black" points="1602.12,-761.6 1602.12,-797.2 1883.57,-797.2 1883.57,-761.6 1602.12,-761.6"/>
<text text-anchor="start" x="1609.12" y="-775" font-family="Arial Bold" font-size="18.00">participantEndpoint</text>
<text text-anchor="start" x="1752.08" y="-775" font-family="Arial" font-size="14.00">    </text>
<text text-anchor="start" x="1783.2" y="-775" font-family="Arial" font-size="14.00" fill="#666666">[BASE TABLE]</text>
<polygon fill="none" stroke="black" points="1602.12,-730.8 1602.12,-761.6 1883.57,-761.6 1883.57,-730.8 1602.12,-730.8"/>
<text text-anchor="start" x="1609.12" y="-743" font-family="Arial" font-size="14.00">participantEndpointId </text>
<text text-anchor="start" x="1744.55" y="-743" font-family="Arial" font-size="14.00" fill="#666666">[int unsigned]</text>
<polygon fill="none" stroke="black" points="1602.12,-700 1602.12,-730.8 1883.57,-730.8 1883.57,-700 1602.12,-700"/>
<text text-anchor="start" x="1609.12" y="-712.2" font-family="Arial" font-size="14.00">participantId </text>
<text text-anchor="start" x="1689.28" y="-712.2" font-family="Arial" font-size="14.00" fill="#666666">[int unsigned]</text>
<polygon fill="none" stroke="black" points="1602.12,-669.2 1602.12,-700 1883.57,-700 1883.57,-669.2 1602.12,-669.2"/>
<text text-anchor="start" x="1609.12" y="-681.4" font-family="Arial" font-size="14.00">endpointTypeId </text>
<text text-anchor="start" x="1709.52" y="-681.4" font-family="Arial" font-size="14.00" fill="#666666">[int unsigned]</text>
<polygon fill="none" stroke="black" points="1602.12,-638.4 1602.12,-669.2 1883.57,-669.2 1883.57,-638.4 1602.12,-638.4"/>
<text text-anchor="start" x="1609.12" y="-650.6" font-family="Arial" font-size="14.00">value </text>
<text text-anchor="start" x="1646.48" y="-650.6" font-family="Arial" font-size="14.00" fill="#666666">[varchar(512)]</text>
<polygon fill="none" stroke="black" points="1602.12,-607.6 1602.12,-638.4 1883.57,-638.4 1883.57,-607.6 1602.12,-607.6"/>
<text text-anchor="start" x="1609.12" y="-619.8" font-family="Arial" font-size="14.00">isActive </text>
<text text-anchor="start" x="1661.24" y="-619.8" font-family="Arial" font-size="14.00" fill="#666666">[tinyint(1)]</text>
<polygon fill="none" stroke="black" points="1602.12,-576.8 1602.12,-607.6 1883.57,-607.6 1883.57,-576.8 1602.12,-576.8"/>
<text text-anchor="start" x="1609.12" y="-589" font-family="Arial" font-size="14.00">createdDate </text>
<text text-anchor="start" x="1689.28" y="-589" font-family="Arial" font-size="14.00" fill="#666666">[datetime]</text>
<polygon fill="none" stroke="black" points="1602.12,-546 1602.12,-576.8 1883.57,-576.8 1883.57,-546 1602.12,-546"/>
<text text-anchor="start" x="1609.12" y="-558.2" font-family="Arial" font-size="14.00">createdBy </text>
<text text-anchor="start" x="1676.04" y="-558.2" font-family="Arial" font-size="14.00" fill="#666666">[varchar(128)]</text>
</g>
<!-- participantEndpoint&#45;&gt;participant -->
<g id="edge6" class="edge">
<title>participantEndpoint:participantId&#45;&gt;participant:participantId</title>
<path fill="none" stroke="black" d="M1590.94,-713.56C1530.39,-689.98 1574.99,-446.85 1549.84,-379.6 1525.31,-313.98 1535.63,-246.4 1465.57,-246.4"/>
<polygon fill="black" stroke="black" points="1590.95,-713.56 1599.99,-719.77 1596.2,-714.51 1600.46,-715.28 1600.46,-715.28 1600.46,-715.28 1596.2,-714.51 1601.59,-710.91 1590.95,-713.56"/>
<text text-anchor="start" x="1608.12" y="-699.4" font-family="Arial" font-size="10.00">FOREIGN KEY (participantId) REFERENCES participant (participantId)</text>
</g>
<!-- participantParty -->
<g id="node7" class="node">
<title>participantParty</title>
<polygon fill="#efefef" stroke="none" points="1988.12,-700 1988.12,-735.6 2241.57,-735.6 2241.57,-700 1988.12,-700"/>
<polygon fill="none" stroke="black" points="1988.12,-700 1988.12,-735.6 2241.57,-735.6 2241.57,-700 1988.12,-700"/>
<text text-anchor="start" x="1995.12" y="-713.4" font-family="Arial Bold" font-size="18.00">participantParty</text>
<text text-anchor="start" x="2110.08" y="-713.4" font-family="Arial" font-size="14.00">    </text>
<text text-anchor="start" x="2141.2" y="-713.4" font-family="Arial" font-size="14.00" fill="#666666">[BASE TABLE]</text>
<polygon fill="none" stroke="black" points="1988.12,-669.2 1988.12,-700 2241.57,-700 2241.57,-669.2 1988.12,-669.2"/>
<text text-anchor="start" x="1995.12" y="-681.4" font-family="Arial" font-size="14.00">participantPartyId </text>
<text text-anchor="start" x="2107.95" y="-681.4" font-family="Arial" font-size="14.00" fill="#666666">[bigint unsigned]</text>
<polygon fill="none" stroke="black" points="1988.12,-638.4 1988.12,-669.2 2241.57,-669.2 2241.57,-638.4 1988.12,-638.4"/>
<text text-anchor="start" x="1995.12" y="-650.6" font-family="Arial" font-size="14.00">participantId </text>
<text text-anchor="start" x="2075.28" y="-650.6" font-family="Arial" font-size="14.00" fill="#666666">[int unsigned]</text>
<polygon fill="none" stroke="black" points="1988.12,-607.6 1988.12,-638.4 2241.57,-638.4 2241.57,-607.6 1988.12,-607.6"/>
<text text-anchor="start" x="1995.12" y="-619.8" font-family="Arial" font-size="14.00">partyId </text>
<text text-anchor="start" x="2041.81" y="-619.8" font-family="Arial" font-size="14.00" fill="#666666">[bigint unsigned]</text>
</g>
<!-- participantParty&#45;&gt;participant -->
<g id="edge7" class="edge">
<title>participantParty:participantId&#45;&gt;participant:participantId</title>
<path fill="none" stroke="black" d="M1976.93,-653.34C1872.09,-643.18 2016.98,-468.49 1935.84,-379.6 1862.62,-299.38 1574.19,-246.4 1465.57,-246.4"/>
<polygon fill="black" stroke="black" points="1976.8,-653.33 1986.58,-658.28 1982.12,-653.57 1986.45,-653.77 1986.45,-653.77 1986.45,-653.77 1982.12,-653.57 1986.99,-649.29 1976.8,-653.33"/>
<text text-anchor="start" x="1994.12" y="-663.8" font-family="Arial" font-size="10.00">FOREIGN KEY (participantId) REFERENCES participant (participantId)</text>
</g>
<!-- quoteParty -->
<g id="node8" class="node">
<title>quoteParty</title>
<polygon fill="#efefef" stroke="none" points="2345.66,-884.8 2345.66,-920.4 2632.03,-920.4 2632.03,-884.8 2345.66,-884.8"/>
<polygon fill="none" stroke="black" points="2345.66,-884.8 2345.66,-920.4 2632.03,-920.4 2632.03,-884.8 2345.66,-884.8"/>
<text text-anchor="start" x="2387.61" y="-898.2" font-family="Arial Bold" font-size="18.00">quoteParty</text>
<text text-anchor="start" x="2465.59" y="-898.2" font-family="Arial" font-size="14.00">    </text>
<text text-anchor="start" x="2496.71" y="-898.2" font-family="Arial" font-size="14.00" fill="#666666">[BASE TABLE]</text>
<polygon fill="none" stroke="black" points="2345.66,-854 2345.66,-884.8 2632.03,-884.8 2632.03,-854 2345.66,-854"/>
<text text-anchor="start" x="2352.66" y="-866.2" font-family="Arial" font-size="14.00">quotePartyId </text>
<text text-anchor="start" x="2435.93" y="-866.2" font-family="Arial" font-size="14.00" fill="#666666">[bigint unsigned]</text>
<polygon fill="none" stroke="black" points="2345.66,-823.2 2345.66,-854 2632.03,-854 2632.03,-823.2 2345.66,-823.2"/>
<text text-anchor="start" x="2352.66" y="-835.4" font-family="Arial" font-size="14.00">quoteId </text>
<text text-anchor="start" x="2403.26" y="-835.4" font-family="Arial" font-size="14.00" fill="#666666">[varchar(36)]</text>
<polygon fill="none" stroke="black" points="2345.66,-792.4 2345.66,-823.2 2632.03,-823.2 2632.03,-792.4 2345.66,-792.4"/>
<text text-anchor="start" x="2352.66" y="-804.6" font-family="Arial" font-size="14.00">partyTypeId </text>
<text text-anchor="start" x="2430.47" y="-804.6" font-family="Arial" font-size="14.00" fill="#666666">[int unsigned]</text>
<polygon fill="none" stroke="black" points="2345.66,-761.6 2345.66,-792.4 2632.03,-792.4 2632.03,-761.6 2345.66,-761.6"/>
<text text-anchor="start" x="2352.66" y="-773.8" font-family="Arial" font-size="14.00">partyIdentifierTypeId </text>
<text text-anchor="start" x="2484.17" y="-773.8" font-family="Arial" font-size="14.00" fill="#666666">[int unsigned]</text>
<polygon fill="none" stroke="black" points="2345.66,-730.8 2345.66,-761.6 2632.03,-761.6 2632.03,-730.8 2345.66,-730.8"/>
<text text-anchor="start" x="2352.66" y="-743" font-family="Arial" font-size="14.00">partyIdentifierValue </text>
<text text-anchor="start" x="2477.18" y="-743" font-family="Arial" font-size="14.00" fill="#666666">[varchar(128)]</text>
<polygon fill="none" stroke="black" points="2345.66,-700 2345.66,-730.8 2632.03,-730.8 2632.03,-700 2345.66,-700"/>
<text text-anchor="start" x="2352.66" y="-712.2" font-family="Arial" font-size="14.00">partySubIdOrTypeId </text>
<text text-anchor="start" x="2482.61" y="-712.2" font-family="Arial" font-size="14.00" fill="#666666">[varchar(128)]</text>
<polygon fill="none" stroke="black" points="2345.66,-669.2 2345.66,-700 2632.03,-700 2632.03,-669.2 2345.66,-669.2"/>
<text text-anchor="start" x="2352.66" y="-681.4" font-family="Arial" font-size="14.00">fspId </text>
<text text-anchor="start" x="2386.9" y="-681.4" font-family="Arial" font-size="14.00" fill="#666666">[varchar(255)]</text>
<polygon fill="none" stroke="black" points="2345.66,-638.4 2345.66,-669.2 2632.03,-669.2 2632.03,-638.4 2345.66,-638.4"/>
<text text-anchor="start" x="2352.66" y="-650.6" font-family="Arial" font-size="14.00">participantId </text>
<text text-anchor="start" x="2432.82" y="-650.6" font-family="Arial" font-size="14.00" fill="#666666">[int unsigned]</text>
<polygon fill="none" stroke="black" points="2345.66,-607.6 2345.66,-638.4 2632.03,-638.4 2632.03,-607.6 2345.66,-607.6"/>
<text text-anchor="start" x="2352.66" y="-619.8" font-family="Arial" font-size="14.00">merchantClassificationCode </text>
<text text-anchor="start" x="2530.85" y="-619.8" font-family="Arial" font-size="14.00" fill="#666666">[varchar(4)]</text>
<polygon fill="none" stroke="black" points="2345.66,-576.8 2345.66,-607.6 2632.03,-607.6 2632.03,-576.8 2345.66,-576.8"/>
<text text-anchor="start" x="2352.66" y="-589" font-family="Arial" font-size="14.00">partyName </text>
<text text-anchor="start" x="2425.02" y="-589" font-family="Arial" font-size="14.00" fill="#666666">[varchar(128)]</text>
<polygon fill="none" stroke="black" points="2345.66,-546 2345.66,-576.8 2632.03,-576.8 2632.03,-546 2345.66,-546"/>
<text text-anchor="start" x="2352.66" y="-558.2" font-family="Arial" font-size="14.00">transferParticipantRoleTypeId </text>
<text text-anchor="start" x="2541.75" y="-558.2" font-family="Arial" font-size="14.00" fill="#666666">[int unsigned]</text>
<polygon fill="none" stroke="black" points="2345.66,-515.2 2345.66,-546 2632.03,-546 2632.03,-515.2 2345.66,-515.2"/>
<text text-anchor="start" x="2352.66" y="-527.4" font-family="Arial" font-size="14.00">ledgerEntryTypeId </text>
<text text-anchor="start" x="2470.94" y="-527.4" font-family="Arial" font-size="14.00" fill="#666666">[int unsigned]</text>
<polygon fill="none" stroke="black" points="2345.66,-484.4 2345.66,-515.2 2632.03,-515.2 2632.03,-484.4 2345.66,-484.4"/>
<text text-anchor="start" x="2352.66" y="-496.6" font-family="Arial" font-size="14.00">amount </text>
<text text-anchor="start" x="2403.25" y="-496.6" font-family="Arial" font-size="14.00" fill="#666666">[decimal(18,4)]</text>
<polygon fill="none" stroke="black" points="2345.66,-453.6 2345.66,-484.4 2632.03,-484.4 2632.03,-453.6 2345.66,-453.6"/>
<text text-anchor="start" x="2352.66" y="-465.8" font-family="Arial" font-size="14.00">currencyId </text>
<text text-anchor="start" x="2421.91" y="-465.8" font-family="Arial" font-size="14.00" fill="#666666">[varchar(3)]</text>
<polygon fill="none" stroke="black" points="2345.66,-422.8 2345.66,-453.6 2632.03,-453.6 2632.03,-422.8 2345.66,-422.8"/>
<text text-anchor="start" x="2352.66" y="-435" font-family="Arial" font-size="14.00">createdDate </text>
<text text-anchor="start" x="2432.82" y="-435" font-family="Arial" font-size="14.00" fill="#666666">[datetime]</text>
</g>
<!-- quoteParty&#45;&gt;participant -->
<g id="edge8" class="edge">
<title>quoteParty:participantId&#45;&gt;participant:participantId</title>
<path fill="none" stroke="black" d="M2334.49,-653.32C2229.98,-642.89 2379.92,-463.65 2293.84,-379.6 2160.46,-249.35 1652,-246.4 1465.57,-246.4"/>
<polygon fill="black" stroke="black" points="2334.34,-653.32 2344.11,-658.28 2339.66,-653.57 2343.99,-653.77 2343.99,-653.77 2343.99,-653.77 2339.66,-653.57 2344.54,-649.29 2334.34,-653.32"/>
<text text-anchor="start" x="2021.44" y="-637.8" font-family="Arial" font-size="10.00">FOREIGN KEY (participantId) REFERENCES participant (participantId)</text>
</g>
<!-- token -->
<g id="node9" class="node">
<title>token</title>
<polygon fill="#efefef" stroke="none" points="2736.6,-730.8 2736.6,-766.4 2915.08,-766.4 2915.08,-730.8 2736.6,-730.8"/>
<polygon fill="none" stroke="black" points="2736.6,-730.8 2736.6,-766.4 2915.08,-766.4 2915.08,-730.8 2736.6,-730.8"/>
<text text-anchor="start" x="2743.6" y="-744.2" font-family="Arial Bold" font-size="18.00">token</text>
<text text-anchor="start" x="2783.6" y="-744.2" font-family="Arial" font-size="14.00">    </text>
<text text-anchor="start" x="2814.71" y="-744.2" font-family="Arial" font-size="14.00" fill="#666666">[BASE TABLE]</text>
<polygon fill="none" stroke="black" points="2736.6,-700 2736.6,-730.8 2915.08,-730.8 2915.08,-700 2736.6,-700"/>
<text text-anchor="start" x="2743.6" y="-712.2" font-family="Arial" font-size="14.00">tokenId </text>
<text text-anchor="start" x="2793.42" y="-712.2" font-family="Arial" font-size="14.00" fill="#666666">[int unsigned]</text>
<polygon fill="none" stroke="black" points="2736.6,-669.2 2736.6,-700 2915.08,-700 2915.08,-669.2 2736.6,-669.2"/>
<text text-anchor="start" x="2743.6" y="-681.4" font-family="Arial" font-size="14.00">participantId </text>
<text text-anchor="start" x="2823.76" y="-681.4" font-family="Arial" font-size="14.00" fill="#666666">[int unsigned]</text>
<polygon fill="none" stroke="black" points="2736.6,-638.4 2736.6,-669.2 2915.08,-669.2 2915.08,-638.4 2736.6,-638.4"/>
<text text-anchor="start" x="2743.6" y="-650.6" font-family="Arial" font-size="14.00">value </text>
<text text-anchor="start" x="2780.96" y="-650.6" font-family="Arial" font-size="14.00" fill="#666666">[varchar(256)]</text>
<polygon fill="none" stroke="black" points="2736.6,-607.6 2736.6,-638.4 2915.08,-638.4 2915.08,-607.6 2736.6,-607.6"/>
<text text-anchor="start" x="2743.6" y="-619.8" font-family="Arial" font-size="14.00">expiration </text>
<text text-anchor="start" x="2808.2" y="-619.8" font-family="Arial" font-size="14.00" fill="#666666">[bigint]</text>
<polygon fill="none" stroke="black" points="2736.6,-576.8 2736.6,-607.6 2915.08,-607.6 2915.08,-576.8 2736.6,-576.8"/>
<text text-anchor="start" x="2743.6" y="-589" font-family="Arial" font-size="14.00">createdDate </text>
<text text-anchor="start" x="2823.76" y="-589" font-family="Arial" font-size="14.00" fill="#666666">[datetime]</text>
</g>
<!-- token&#45;&gt;participant -->
<g id="edge9" class="edge">
<title>token:participantId&#45;&gt;participant:participantId</title>
<path fill="none" stroke="black" d="M2725.5,-682.36C2673.84,-657.03 2731.14,-424.17 2683.84,-379.6 2584.75,-286.21 1601.74,-246.4 1465.57,-246.4"/>
<polygon fill="black" stroke="black" points="2725.51,-682.37 2734.31,-688.92 2730.72,-683.52 2734.95,-684.46 2734.95,-684.46 2734.95,-684.46 2730.72,-683.52 2736.25,-680.13 2725.51,-682.37"/>
<text text-anchor="start" x="2742.6" y="-694.6" font-family="Arial" font-size="10.00">FOREIGN KEY (participantId) REFERENCES participant (participantId)</text>
</g>
</g>
</svg>
