<?xml version="1.0" encoding="UTF-8" standalone="no"?>
<!DOCTYPE svg PUBLIC "-//W3C//DTD SVG 1.1//EN"
 "http://www.w3.org/Graphics/SVG/1.1/DTD/svg11.dtd">
<!-- Generated by graphviz version 12.1.2 (20240928.0832)
 -->
<!-- Title: party Pages: 1 -->
<svg width="829pt" height="612pt"
 viewBox="0.00 0.00 828.98 612.40" xmlns="http://www.w3.org/2000/svg" xmlns:xlink="http://www.w3.org/1999/xlink">
<g id="graph0" class="graph" transform="scale(1 1) rotate(0) translate(4 608.4)">
<title>party</title>
<polygon fill="white" stroke="none" points="-4,4 -4,-608.4 824.98,-608.4 824.98,4 -4,4"/>
<!-- party -->
<g id="node1" class="node">
<title>party</title>
<polygon fill="#efefef" stroke="none" points="205.03,-512.2 205.03,-558.2 615.95,-558.2 615.95,-512.2 205.03,-512.2"/>
<polygon fill="none" stroke="black" points="205.03,-512.2 205.03,-558.2 615.95,-558.2 615.95,-512.2 205.03,-512.2"/>
<text text-anchor="start" x="329.75" y="-536" font-family="Arial Bold" font-size="18.00">party</text>
<text text-anchor="start" x="366.74" y="-536" font-family="Arial" font-size="14.00">    </text>
<text text-anchor="start" x="397.86" y="-536" font-family="Arial" font-size="14.00" fill="#666666">[BASE TABLE]</text>
<text text-anchor="start" x="212.03" y="-521.6" font-family="Arial" font-size="14.00" fill="#333333">Optional pers. data provided during Quote Request &amp; Response</text>
<polygon fill="none" stroke="black" points="205.03,-481.4 205.03,-512.2 615.95,-512.2 615.95,-481.4 205.03,-481.4"/>
<text text-anchor="start" x="212.03" y="-493.6" font-family="Arial" font-size="14.00">partyId </text>
<text text-anchor="start" x="258.72" y="-493.6" font-family="Arial" font-size="14.00" fill="#666666">[bigint unsigned]</text>
<polygon fill="none" stroke="black" points="205.03,-450.6 205.03,-481.4 615.95,-481.4 615.95,-450.6 205.03,-450.6"/>
<text text-anchor="start" x="212.03" y="-462.8" font-family="Arial" font-size="14.00">quotePartyId </text>
<text text-anchor="start" x="295.31" y="-462.8" font-family="Arial" font-size="14.00" fill="#666666">[bigint unsigned]</text>
<polygon fill="none" stroke="black" stroke-width="3" points="203.53,-449.1 203.53,-559.7 617.45,-559.7 617.45,-449.1 203.53,-449.1"/>
</g>
<!-- quoteParty -->
<g id="node2" class="node">
<title>quoteParty</title>
<polygon fill="#efefef" stroke="none" points="43.2,-289.6 43.2,-325.2 777.78,-325.2 777.78,-289.6 43.2,-289.6"/>
<polygon fill="none" stroke="black" points="43.2,-289.6 43.2,-325.2 777.78,-325.2 777.78,-289.6 43.2,-289.6"/>
<text text-anchor="start" x="309.25" y="-303" font-family="Arial Bold" font-size="18.00">quoteParty</text>
<text text-anchor="start" x="387.24" y="-303" font-family="Arial" font-size="14.00">    </text>
<text text-anchor="start" x="418.36" y="-303" font-family="Arial" font-size="14.00" fill="#666666">[BASE TABLE]</text>
<polygon fill="none" stroke="black" points="43.2,-258.8 43.2,-289.6 777.78,-289.6 777.78,-258.8 43.2,-258.8"/>
<text text-anchor="start" x="50.2" y="-271" font-family="Arial" font-size="14.00">quotePartyId </text>
<text text-anchor="start" x="133.48" y="-271" font-family="Arial" font-size="14.00" fill="#666666">[bigint unsigned]</text>
<polygon fill="none" stroke="black" points="43.2,-228 43.2,-258.8 777.78,-258.8 777.78,-228 43.2,-228"/>
<text text-anchor="start" x="50.2" y="-240.2" font-family="Arial" font-size="14.00">quoteId </text>
<text text-anchor="start" x="100.8" y="-240.2" font-family="Arial" font-size="14.00" fill="#666666">[varchar(36)]</text>
<text text-anchor="start" x="180.16" y="-240.2" font-family="Arial" font-size="14.00"> Common ID between the FSPs for the quote object, decided by the Payer FSP</text>
<polygon fill="none" stroke="black" points="43.2,-197.2 43.2,-228 777.78,-228 777.78,-197.2 43.2,-197.2"/>
<text text-anchor="start" x="50.2" y="-209.4" font-family="Arial" font-size="14.00">partyTypeId </text>
<text text-anchor="start" x="128.01" y="-209.4" font-family="Arial" font-size="14.00" fill="#666666">[int unsigned]</text>
<text text-anchor="start" x="211.3" y="-209.4" font-family="Arial" font-size="14.00"> Specifies the type of party this row relates to; typically PAYER or PAYEE</text>
<polygon fill="none" stroke="black" points="43.2,-166.4 43.2,-197.2 777.78,-197.2 777.78,-166.4 43.2,-166.4"/>
<text text-anchor="start" x="50.2" y="-178.6" font-family="Arial" font-size="14.00">partyIdentifierTypeId </text>
<text text-anchor="start" x="181.71" y="-178.6" font-family="Arial" font-size="14.00" fill="#666666">[int unsigned]</text>
<text text-anchor="start" x="264.99" y="-178.6" font-family="Arial" font-size="14.00"> Specifies the type of identifier used to identify this party e.g. MSISDN, IBAN etc...</text>
<polygon fill="none" stroke="black" points="43.2,-135.6 43.2,-166.4 777.78,-166.4 777.78,-135.6 43.2,-135.6"/>
<text text-anchor="start" x="50.2" y="-147.8" font-family="Arial" font-size="14.00">participantId </text>
<text text-anchor="start" x="130.36" y="-147.8" font-family="Arial" font-size="14.00" fill="#666666">[int unsigned]</text>
<text text-anchor="start" x="213.64" y="-147.8" font-family="Arial" font-size="14.00"> Reference to the resolved FSP ID (if supplied/known). If not an error will be reported</text>
<polygon fill="none" stroke="black" points="43.2,-104.8 43.2,-135.6 777.78,-135.6 777.78,-104.8 43.2,-104.8"/>
<text text-anchor="start" x="50.2" y="-117" font-family="Arial" font-size="14.00">transferParticipantRoleTypeId </text>
<text text-anchor="start" x="239.29" y="-117" font-family="Arial" font-size="14.00" fill="#666666">[int unsigned]</text>
<text text-anchor="start" x="322.57" y="-117" font-family="Arial" font-size="14.00"> The role this Party is playing in the transaction</text>
<polygon fill="none" stroke="black" points="43.2,-74 43.2,-104.8 777.78,-104.8 777.78,-74 43.2,-74"/>
<text text-anchor="start" x="50.2" y="-86.2" font-family="Arial" font-size="14.00">ledgerEntryTypeId </text>
<text text-anchor="start" x="168.48" y="-86.2" font-family="Arial" font-size="14.00" fill="#666666">[int unsigned]</text>
<text text-anchor="start" x="251.76" y="-86.2" font-family="Arial" font-size="14.00"> The type of financial entry this Party is presenting</text>
<polygon fill="none" stroke="black" points="43.2,-43.2 43.2,-74 777.78,-74 777.78,-43.2 43.2,-43.2"/>
<text text-anchor="start" x="50.2" y="-55.4" font-family="Arial" font-size="14.00">currencyId </text>
<text text-anchor="start" x="119.45" y="-55.4" font-family="Arial" font-size="14.00" fill="#666666">[varchar(3)]</text>
<text text-anchor="start" x="191.02" y="-55.4" font-family="Arial" font-size="14.00"> Trading currency pertaining to the party amount</text>
</g>
<!-- party&#45;&gt;quoteParty -->
<g id="edge1" class="edge">
<title>party:quotePartyId&#45;&gt;quoteParty:quotePartyId</title>
<path fill="none" stroke="black" d="M410.85,-439.35C421.67,-291.53 674.67,-495.41 777.78,-368.4 804.17,-335.89 820.65,-274.2 778.78,-274.2"/>
<polygon fill="black" stroke="black" points="410.85,-439.27 406.01,-449.11 410.67,-444.6 410.51,-448.93 410.51,-448.93 410.51,-448.93 410.67,-444.6 415,-449.42 410.85,-439.27"/>
<text text-anchor="start" x="80.6" y="-459.6" font-family="Arial" font-size="10.00">FOREIGN KEY (quotePartyId) REFERENCES quoteParty (quotePartyId)</text>
</g>
</g>
</svg>
