<?xml version="1.0" encoding="UTF-8" standalone="no"?>
<!DOCTYPE svg PUBLIC "-//W3C//DTD SVG 1.1//EN"
 "http://www.w3.org/Graphics/SVG/1.1/DTD/svg11.dtd">
<!-- Generated by graphviz version 12.1.2 (20240928.0832)
 -->
<!-- Title: participantCurrency Pages: 1 -->
<svg width="3665pt" height="1191pt"
 viewBox="0.00 0.00 3665.43 1191.20" xmlns="http://www.w3.org/2000/svg" xmlns:xlink="http://www.w3.org/1999/xlink">
<g id="graph0" class="graph" transform="scale(1 1) rotate(0) translate(4 1187.2)">
<title>participantCurrency</title>
<polygon fill="white" stroke="none" points="-4,4 -4,-1187.2 3661.43,-1187.2 3661.43,4 -4,4"/>
<!-- participantCurrency -->
<g id="node1" class="node">
<title>participantCurrency</title>
<polygon fill="#efefef" stroke="none" points="1638.49,-635.4 1638.49,-671 1920.92,-671 1920.92,-635.4 1638.49,-635.4"/>
<polygon fill="none" stroke="black" points="1638.49,-635.4 1638.49,-671 1920.92,-671 1920.92,-635.4 1638.49,-635.4"/>
<text text-anchor="start" x="1645.49" y="-648.8" font-family="Arial Bold" font-size="18.00">participantCurrency</text>
<text text-anchor="start" x="1789.43" y="-648.8" font-family="Arial" font-size="14.00">    </text>
<text text-anchor="start" x="1820.55" y="-648.8" font-family="Arial" font-size="14.00" fill="#666666">[BASE TABLE]</text>
<polygon fill="none" stroke="black" points="1638.49,-604.6 1638.49,-635.4 1920.92,-635.4 1920.92,-604.6 1638.49,-604.6"/>
<text text-anchor="start" x="1645.49" y="-616.8" font-family="Arial" font-size="14.00">participantCurrencyId </text>
<text text-anchor="start" x="1782.44" y="-616.8" font-family="Arial" font-size="14.00" fill="#666666">[int unsigned]</text>
<polygon fill="none" stroke="black" points="1638.49,-573.8 1638.49,-604.6 1920.92,-604.6 1920.92,-573.8 1638.49,-573.8"/>
<text text-anchor="start" x="1645.49" y="-586" font-family="Arial" font-size="14.00">participantId </text>
<text text-anchor="start" x="1725.65" y="-586" font-family="Arial" font-size="14.00" fill="#666666">[int unsigned]</text>
<polygon fill="none" stroke="black" points="1638.49,-543 1638.49,-573.8 1920.92,-573.8 1920.92,-543 1638.49,-543"/>
<text text-anchor="start" x="1645.49" y="-555.2" font-family="Arial" font-size="14.00">currencyId </text>
<text text-anchor="start" x="1714.74" y="-555.2" font-family="Arial" font-size="14.00" fill="#666666">[varchar(3)]</text>
<polygon fill="none" stroke="black" points="1638.49,-512.2 1638.49,-543 1920.92,-543 1920.92,-512.2 1638.49,-512.2"/>
<text text-anchor="start" x="1645.49" y="-524.4" font-family="Arial" font-size="14.00">ledgerAccountTypeId </text>
<text text-anchor="start" x="1781.68" y="-524.4" font-family="Arial" font-size="14.00" fill="#666666">[int unsigned]</text>
<polygon fill="none" stroke="black" points="1638.49,-481.4 1638.49,-512.2 1920.92,-512.2 1920.92,-481.4 1638.49,-481.4"/>
<text text-anchor="start" x="1645.49" y="-493.6" font-family="Arial" font-size="14.00">isActive </text>
<text text-anchor="start" x="1697.61" y="-493.6" font-family="Arial" font-size="14.00" fill="#666666">[tinyint(1)]</text>
<polygon fill="none" stroke="black" points="1638.49,-450.6 1638.49,-481.4 1920.92,-481.4 1920.92,-450.6 1638.49,-450.6"/>
<text text-anchor="start" x="1645.49" y="-462.8" font-family="Arial" font-size="14.00">createdDate </text>
<text text-anchor="start" x="1725.65" y="-462.8" font-family="Arial" font-size="14.00" fill="#666666">[datetime]</text>
<polygon fill="none" stroke="black" points="1638.49,-419.8 1638.49,-450.6 1920.92,-450.6 1920.92,-419.8 1638.49,-419.8"/>
<text text-anchor="start" x="1645.49" y="-432" font-family="Arial" font-size="14.00">createdBy </text>
<text text-anchor="start" x="1712.41" y="-432" font-family="Arial" font-size="14.00" fill="#666666">[varchar(128)]</text>
<polygon fill="none" stroke="black" stroke-width="3" points="1636.99,-418.3 1636.99,-672.5 1922.42,-672.5 1922.42,-418.3 1636.99,-418.3"/>
</g>
<!-- participant -->
<g id="node10" class="node">
<title>participant</title>
<polygon fill="#efefef" stroke="none" points="1358.98,-258.8 1358.98,-294.4 1574.43,-294.4 1574.43,-258.8 1358.98,-258.8"/>
<polygon fill="none" stroke="black" points="1358.98,-258.8 1358.98,-294.4 1574.43,-294.4 1574.43,-258.8 1358.98,-258.8"/>
<text text-anchor="start" x="1365.98" y="-272.2" font-family="Arial Bold" font-size="18.00">participant</text>
<text text-anchor="start" x="1442.94" y="-272.2" font-family="Arial" font-size="14.00">    </text>
<text text-anchor="start" x="1474.06" y="-272.2" font-family="Arial" font-size="14.00" fill="#666666">[BASE TABLE]</text>
<polygon fill="none" stroke="black" points="1358.98,-228 1358.98,-258.8 1574.43,-258.8 1574.43,-228 1358.98,-228"/>
<text text-anchor="start" x="1365.98" y="-240.2" font-family="Arial" font-size="14.00">participantId </text>
<text text-anchor="start" x="1446.14" y="-240.2" font-family="Arial" font-size="14.00" fill="#666666">[int unsigned]</text>
<polygon fill="none" stroke="black" points="1358.98,-197.2 1358.98,-228 1574.43,-228 1574.43,-197.2 1358.98,-197.2"/>
<text text-anchor="start" x="1365.98" y="-209.4" font-family="Arial" font-size="14.00">name </text>
<text text-anchor="start" x="1404.89" y="-209.4" font-family="Arial" font-size="14.00" fill="#666666">[varchar(256)]</text>
<polygon fill="none" stroke="black" points="1358.98,-166.4 1358.98,-197.2 1574.43,-197.2 1574.43,-166.4 1358.98,-166.4"/>
<text text-anchor="start" x="1365.98" y="-178.6" font-family="Arial" font-size="14.00">description </text>
<text text-anchor="start" x="1437.57" y="-178.6" font-family="Arial" font-size="14.00" fill="#666666">[varchar(512)]</text>
<polygon fill="none" stroke="black" points="1358.98,-135.6 1358.98,-166.4 1574.43,-166.4 1574.43,-135.6 1358.98,-135.6"/>
<text text-anchor="start" x="1365.98" y="-147.8" font-family="Arial" font-size="14.00">isActive </text>
<text text-anchor="start" x="1418.1" y="-147.8" font-family="Arial" font-size="14.00" fill="#666666">[tinyint(1)]</text>
<polygon fill="none" stroke="black" points="1358.98,-104.8 1358.98,-135.6 1574.43,-135.6 1574.43,-104.8 1358.98,-104.8"/>
<text text-anchor="start" x="1365.98" y="-117" font-family="Arial" font-size="14.00">createdDate </text>
<text text-anchor="start" x="1446.14" y="-117" font-family="Arial" font-size="14.00" fill="#666666">[datetime]</text>
<polygon fill="none" stroke="black" points="1358.98,-74 1358.98,-104.8 1574.43,-104.8 1574.43,-74 1358.98,-74"/>
<text text-anchor="start" x="1365.98" y="-86.2" font-family="Arial" font-size="14.00">createdBy </text>
<text text-anchor="start" x="1432.9" y="-86.2" font-family="Arial" font-size="14.00" fill="#666666">[varchar(128)]</text>
<polygon fill="none" stroke="black" points="1358.98,-43.2 1358.98,-74 1574.43,-74 1574.43,-43.2 1358.98,-43.2"/>
<text text-anchor="start" x="1365.98" y="-55.4" font-family="Arial" font-size="14.00">isProxy </text>
<text text-anchor="start" x="1415.76" y="-55.4" font-family="Arial" font-size="14.00" fill="#666666">[tinyint(1)]</text>
</g>
<!-- participantCurrency&#45;&gt;participant -->
<g id="edge9" class="edge">
<title>participantCurrency:participantId&#45;&gt;participant:participantId</title>
<path fill="none" stroke="black" d="M1627.61,-586.99C1567.86,-557.54 1649.84,-243.4 1575.43,-243.4"/>
<polygon fill="black" stroke="black" points="1627.41,-586.95 1636.18,-593.52 1632.61,-588.11 1636.84,-589.05 1636.84,-589.05 1636.84,-589.05 1632.61,-588.11 1638.15,-584.74 1627.41,-586.95"/>
<text text-anchor="start" x="1314.27" y="-599.2" font-family="Arial" font-size="10.00">FOREIGN KEY (participantId) REFERENCES participant (participantId)</text>
</g>
<!-- currency -->
<g id="node11" class="node">
<title>currency</title>
<polygon fill="#efefef" stroke="none" points="1678.98,-228 1678.98,-263.6 1880.43,-263.6 1880.43,-228 1678.98,-228"/>
<polygon fill="none" stroke="black" points="1678.98,-228 1678.98,-263.6 1880.43,-263.6 1880.43,-228 1678.98,-228"/>
<text text-anchor="start" x="1685.98" y="-241.4" font-family="Arial Bold" font-size="18.00">currency</text>
<text text-anchor="start" x="1748.94" y="-241.4" font-family="Arial" font-size="14.00">    </text>
<text text-anchor="start" x="1780.06" y="-241.4" font-family="Arial" font-size="14.00" fill="#666666">[BASE TABLE]</text>
<polygon fill="none" stroke="black" points="1678.98,-197.2 1678.98,-228 1880.43,-228 1880.43,-197.2 1678.98,-197.2"/>
<text text-anchor="start" x="1685.98" y="-209.4" font-family="Arial" font-size="14.00">currencyId </text>
<text text-anchor="start" x="1755.23" y="-209.4" font-family="Arial" font-size="14.00" fill="#666666">[varchar(3)]</text>
<polygon fill="none" stroke="black" points="1678.98,-166.4 1678.98,-197.2 1880.43,-197.2 1880.43,-166.4 1678.98,-166.4"/>
<text text-anchor="start" x="1685.98" y="-178.6" font-family="Arial" font-size="14.00">name </text>
<text text-anchor="start" x="1724.89" y="-178.6" font-family="Arial" font-size="14.00" fill="#666666">[varchar(128)]</text>
<polygon fill="none" stroke="black" points="1678.98,-135.6 1678.98,-166.4 1880.43,-166.4 1880.43,-135.6 1678.98,-135.6"/>
<text text-anchor="start" x="1685.98" y="-147.8" font-family="Arial" font-size="14.00">isActive </text>
<text text-anchor="start" x="1738.11" y="-147.8" font-family="Arial" font-size="14.00" fill="#666666">[tinyint(1)]</text>
<polygon fill="none" stroke="black" points="1678.98,-104.8 1678.98,-135.6 1880.43,-135.6 1880.43,-104.8 1678.98,-104.8"/>
<text text-anchor="start" x="1685.98" y="-117" font-family="Arial" font-size="14.00">createdDate </text>
<text text-anchor="start" x="1766.14" y="-117" font-family="Arial" font-size="14.00" fill="#666666">[datetime]</text>
<polygon fill="none" stroke="black" points="1678.98,-74 1678.98,-104.8 1880.43,-104.8 1880.43,-74 1678.98,-74"/>
<text text-anchor="start" x="1685.98" y="-86.2" font-family="Arial" font-size="14.00">scale </text>
<text text-anchor="start" x="1722.55" y="-86.2" font-family="Arial" font-size="14.00" fill="#666666">[int unsigned]</text>
</g>
<!-- participantCurrency&#45;&gt;currency -->
<g id="edge10" class="edge">
<title>participantCurrency:currencyId&#45;&gt;currency:currencyId</title>
<path fill="none" stroke="black" d="M1929.88,-551.8C1953.97,-503.99 1916.94,-212.6 1881.43,-212.6"/>
<polygon fill="black" stroke="black" points="1929.88,-551.81 1919.31,-554.72 1925.77,-555.21 1922.43,-557.97 1922.43,-557.97 1922.43,-557.97 1925.77,-555.21 1925.05,-561.65 1929.88,-551.81"/>
<text text-anchor="start" x="1928.92" y="-568.4" font-family="Arial" font-size="10.00">FOREIGN KEY (currencyId) REFERENCES currency (currencyId)</text>
</g>
<!-- ledgerAccountType -->
<g id="node12" class="node">
<title>ledgerAccountType</title>
<polygon fill="#efefef" stroke="none" points="1984.99,-243.4 1984.99,-279 2266.42,-279 2266.42,-243.4 1984.99,-243.4"/>
<polygon fill="none" stroke="black" points="1984.99,-243.4 1984.99,-279 2266.42,-279 2266.42,-243.4 1984.99,-243.4"/>
<text text-anchor="start" x="1991.99" y="-256.8" font-family="Arial Bold" font-size="18.00">ledgerAccountType</text>
<text text-anchor="start" x="2134.93" y="-256.8" font-family="Arial" font-size="14.00">    </text>
<text text-anchor="start" x="2166.05" y="-256.8" font-family="Arial" font-size="14.00" fill="#666666">[BASE TABLE]</text>
<polygon fill="none" stroke="black" points="1984.99,-212.6 1984.99,-243.4 2266.42,-243.4 2266.42,-212.6 1984.99,-212.6"/>
<text text-anchor="start" x="1991.99" y="-224.8" font-family="Arial" font-size="14.00">ledgerAccountTypeId </text>
<text text-anchor="start" x="2128.18" y="-224.8" font-family="Arial" font-size="14.00" fill="#666666">[int unsigned]</text>
<polygon fill="none" stroke="black" points="1984.99,-181.8 1984.99,-212.6 2266.42,-212.6 2266.42,-181.8 1984.99,-181.8"/>
<text text-anchor="start" x="1991.99" y="-194" font-family="Arial" font-size="14.00">name </text>
<text text-anchor="start" x="2030.9" y="-194" font-family="Arial" font-size="14.00" fill="#666666">[varchar(50)]</text>
<polygon fill="none" stroke="black" points="1984.99,-151 1984.99,-181.8 2266.42,-181.8 2266.42,-151 1984.99,-151"/>
<text text-anchor="start" x="1991.99" y="-163.2" font-family="Arial" font-size="14.00">description </text>
<text text-anchor="start" x="2063.58" y="-163.2" font-family="Arial" font-size="14.00" fill="#666666">[varchar(512)]</text>
<polygon fill="none" stroke="black" points="1984.99,-120.2 1984.99,-151 2266.42,-151 2266.42,-120.2 1984.99,-120.2"/>
<text text-anchor="start" x="1991.99" y="-132.4" font-family="Arial" font-size="14.00">isActive </text>
<text text-anchor="start" x="2044.12" y="-132.4" font-family="Arial" font-size="14.00" fill="#666666">[tinyint(1)]</text>
<polygon fill="none" stroke="black" points="1984.99,-89.4 1984.99,-120.2 2266.42,-120.2 2266.42,-89.4 1984.99,-89.4"/>
<text text-anchor="start" x="1991.99" y="-101.6" font-family="Arial" font-size="14.00">createdDate </text>
<text text-anchor="start" x="2072.15" y="-101.6" font-family="Arial" font-size="14.00" fill="#666666">[datetime]</text>
<polygon fill="none" stroke="black" points="1984.99,-58.6 1984.99,-89.4 2266.42,-89.4 2266.42,-58.6 1984.99,-58.6"/>
<text text-anchor="start" x="1991.99" y="-70.8" font-family="Arial" font-size="14.00">isSettleable </text>
<text text-anchor="start" x="2068.26" y="-70.8" font-family="Arial" font-size="14.00" fill="#666666">[tinyint(1)]</text>
</g>
<!-- participantCurrency&#45;&gt;ledgerAccountType -->
<g id="edge11" class="edge">
<title>participantCurrency:ledgerAccountTypeId&#45;&gt;ledgerAccountType:ledgerAccountTypeId</title>
<path fill="none" stroke="black" d="M1932.31,-526.94C2046.68,-511.44 1851.73,-228 1983.99,-228"/>
<polygon fill="black" stroke="black" points="1932.23,-526.95 1921.97,-523.09 1926.91,-527.28 1922.59,-527.56 1922.59,-527.56 1922.59,-527.56 1926.91,-527.28 1922.54,-532.07 1932.23,-526.95"/>
<text text-anchor="start" x="1928.92" y="-537.6" font-family="Arial" font-size="10.00">FOREIGN KEY (ledgerAccountTypeId) REFERENCES ledgerAccountType (ledgerAccountTypeId)</text>
</g>
<!-- fxTransferParticipant -->
<g id="node2" class="node">
<title>fxTransferParticipant</title>
<polygon fill="#efefef" stroke="none" points="158.49,-1104.4 158.49,-1140 450.92,-1140 450.92,-1104.4 158.49,-1104.4"/>
<polygon fill="none" stroke="black" points="158.49,-1104.4 158.49,-1140 450.92,-1140 450.92,-1104.4 158.49,-1104.4"/>
<text text-anchor="start" x="165.49" y="-1117.8" font-family="Arial Bold" font-size="18.00">fxTransferParticipant</text>
<text text-anchor="start" x="319.43" y="-1117.8" font-family="Arial" font-size="14.00">    </text>
<text text-anchor="start" x="350.54" y="-1117.8" font-family="Arial" font-size="14.00" fill="#666666">[BASE TABLE]</text>
<polygon fill="none" stroke="black" points="158.49,-1073.6 158.49,-1104.4 450.92,-1104.4 450.92,-1073.6 158.49,-1073.6"/>
<text text-anchor="start" x="165.49" y="-1085.8" font-family="Arial" font-size="14.00">fxTransferParticipantId </text>
<text text-anchor="start" x="310.22" y="-1085.8" font-family="Arial" font-size="14.00" fill="#666666">[bigint unsigned]</text>
<polygon fill="none" stroke="black" points="158.49,-1042.8 158.49,-1073.6 450.92,-1073.6 450.92,-1042.8 158.49,-1042.8"/>
<text text-anchor="start" x="165.49" y="-1055" font-family="Arial" font-size="14.00">commitRequestId </text>
<text text-anchor="start" x="278.31" y="-1055" font-family="Arial" font-size="14.00" fill="#666666">[varchar(36)]</text>
<polygon fill="none" stroke="black" points="158.49,-1012 158.49,-1042.8 450.92,-1042.8 450.92,-1012 158.49,-1012"/>
<text text-anchor="start" x="165.49" y="-1024.2" font-family="Arial" font-size="14.00">participantCurrencyId </text>
<text text-anchor="start" x="302.45" y="-1024.2" font-family="Arial" font-size="14.00" fill="#666666">[int unsigned]</text>
<polygon fill="none" stroke="black" points="158.49,-981.2 158.49,-1012 450.92,-1012 450.92,-981.2 158.49,-981.2"/>
<text text-anchor="start" x="165.49" y="-993.4" font-family="Arial" font-size="14.00">transferParticipantRoleTypeId </text>
<text text-anchor="start" x="354.58" y="-993.4" font-family="Arial" font-size="14.00" fill="#666666">[int unsigned]</text>
<polygon fill="none" stroke="black" points="158.49,-950.4 158.49,-981.2 450.92,-981.2 450.92,-950.4 158.49,-950.4"/>
<text text-anchor="start" x="165.49" y="-962.6" font-family="Arial" font-size="14.00">ledgerEntryTypeId </text>
<text text-anchor="start" x="283.78" y="-962.6" font-family="Arial" font-size="14.00" fill="#666666">[int unsigned]</text>
<polygon fill="none" stroke="black" points="158.49,-919.6 158.49,-950.4 450.92,-950.4 450.92,-919.6 158.49,-919.6"/>
<text text-anchor="start" x="165.49" y="-931.8" font-family="Arial" font-size="14.00">fxParticipantCurrencyTypeId </text>
<text text-anchor="start" x="346.01" y="-931.8" font-family="Arial" font-size="14.00" fill="#666666">[int unsigned]</text>
<polygon fill="none" stroke="black" points="158.49,-888.8 158.49,-919.6 450.92,-919.6 450.92,-888.8 158.49,-888.8"/>
<text text-anchor="start" x="165.49" y="-901" font-family="Arial" font-size="14.00">amount </text>
<text text-anchor="start" x="216.08" y="-901" font-family="Arial" font-size="14.00" fill="#666666">[decimal(18,4)]</text>
<polygon fill="none" stroke="black" points="158.49,-858 158.49,-888.8 450.92,-888.8 450.92,-858 158.49,-858"/>
<text text-anchor="start" x="165.49" y="-870.2" font-family="Arial" font-size="14.00">createdDate </text>
<text text-anchor="start" x="245.65" y="-870.2" font-family="Arial" font-size="14.00" fill="#666666">[datetime]</text>
<polygon fill="none" stroke="black" points="158.49,-827.2 158.49,-858 450.92,-858 450.92,-827.2 158.49,-827.2"/>
<text text-anchor="start" x="165.49" y="-839.4" font-family="Arial" font-size="14.00">participantId </text>
<text text-anchor="start" x="245.65" y="-839.4" font-family="Arial" font-size="14.00" fill="#666666">[int unsigned]</text>
<polygon fill="none" stroke="black" points="158.49,-796.4 158.49,-827.2 450.92,-827.2 450.92,-796.4 158.49,-796.4"/>
<text text-anchor="start" x="165.49" y="-808.6" font-family="Arial" font-size="14.00">externalParticipantId </text>
<text text-anchor="start" x="297.01" y="-808.6" font-family="Arial" font-size="14.00" fill="#666666">[bigint unsigned]</text>
</g>
<!-- fxTransferParticipant&#45;&gt;participantCurrency -->
<g id="edge1" class="edge">
<title>fxTransferParticipant:participantCurrencyId&#45;&gt;participantCurrency:participantCurrencyId</title>
<path fill="none" stroke="black" d="M462.08,-1026.92C566.48,-1016.39 414.86,-835.4 502.7,-753.2 595.4,-666.46 1510.54,-620 1637.49,-620"/>
<polygon fill="black" stroke="black" points="462.24,-1026.91 452.04,-1022.89 456.91,-1027.16 452.58,-1027.37 452.58,-1027.37 452.58,-1027.37 456.91,-1027.16 452.46,-1031.88 462.24,-1026.91"/>
<text text-anchor="start" x="7" y="-1037.4" font-family="Arial" font-size="10.00">FOREIGN KEY (participantCurrencyId) REFERENCES participantCurrency (participantCurrencyId)</text>
</g>
<!-- participantLimit -->
<g id="node3" class="node">
<title>participantLimit</title>
<polygon fill="#efefef" stroke="none" points="555.05,-1089 555.05,-1124.6 908.36,-1124.6 908.36,-1089 555.05,-1089"/>
<polygon fill="none" stroke="black" points="555.05,-1089 555.05,-1124.6 908.36,-1124.6 908.36,-1089 555.05,-1089"/>
<text text-anchor="start" x="610.98" y="-1102.4" font-family="Arial Bold" font-size="18.00">participantLimit</text>
<text text-anchor="start" x="727.94" y="-1102.4" font-family="Arial" font-size="14.00">    </text>
<text text-anchor="start" x="759.06" y="-1102.4" font-family="Arial" font-size="14.00" fill="#666666">[BASE TABLE]</text>
<polygon fill="none" stroke="black" points="555.05,-1058.2 555.05,-1089 908.36,-1089 908.36,-1058.2 555.05,-1058.2"/>
<text text-anchor="start" x="562.05" y="-1070.4" font-family="Arial" font-size="14.00">participantLimitId </text>
<text text-anchor="start" x="671.76" y="-1070.4" font-family="Arial" font-size="14.00" fill="#666666">[int unsigned]</text>
<polygon fill="none" stroke="black" points="555.05,-1027.4 555.05,-1058.2 908.36,-1058.2 908.36,-1027.4 555.05,-1027.4"/>
<text text-anchor="start" x="562.05" y="-1039.6" font-family="Arial" font-size="14.00">participantCurrencyId </text>
<text text-anchor="start" x="699" y="-1039.6" font-family="Arial" font-size="14.00" fill="#666666">[int unsigned]</text>
<polygon fill="none" stroke="black" points="555.05,-996.6 555.05,-1027.4 908.36,-1027.4 908.36,-996.6 555.05,-996.6"/>
<text text-anchor="start" x="562.05" y="-1008.8" font-family="Arial" font-size="14.00">participantLimitTypeId </text>
<text text-anchor="start" x="702.89" y="-1008.8" font-family="Arial" font-size="14.00" fill="#666666">[int unsigned]</text>
<polygon fill="none" stroke="black" points="555.05,-965.8 555.05,-996.6 908.36,-996.6 908.36,-965.8 555.05,-965.8"/>
<text text-anchor="start" x="562.05" y="-978" font-family="Arial" font-size="14.00">value </text>
<text text-anchor="start" x="599.41" y="-978" font-family="Arial" font-size="14.00" fill="#666666">[decimal(18,4)]</text>
<polygon fill="none" stroke="black" points="555.05,-935 555.05,-965.8 908.36,-965.8 908.36,-935 555.05,-935"/>
<text text-anchor="start" x="562.05" y="-947.2" font-family="Arial" font-size="14.00">thresholdAlarmPercentage </text>
<text text-anchor="start" x="731.69" y="-947.2" font-family="Arial" font-size="14.00" fill="#666666">[decimal(5,2)]</text>
<polygon fill="none" stroke="black" points="555.05,-904.2 555.05,-935 908.36,-935 908.36,-904.2 555.05,-904.2"/>
<text text-anchor="start" x="562.05" y="-916.4" font-family="Arial" font-size="14.00">startAfterParticipantPositionChangeId </text>
<text text-anchor="start" x="799.4" y="-916.4" font-family="Arial" font-size="14.00" fill="#666666">[bigint unsigned]</text>
<polygon fill="none" stroke="black" points="555.05,-873.4 555.05,-904.2 908.36,-904.2 908.36,-873.4 555.05,-873.4"/>
<text text-anchor="start" x="562.05" y="-885.6" font-family="Arial" font-size="14.00">isActive </text>
<text text-anchor="start" x="614.17" y="-885.6" font-family="Arial" font-size="14.00" fill="#666666">[tinyint(1)]</text>
<polygon fill="none" stroke="black" points="555.05,-842.6 555.05,-873.4 908.36,-873.4 908.36,-842.6 555.05,-842.6"/>
<text text-anchor="start" x="562.05" y="-854.8" font-family="Arial" font-size="14.00">createdDate </text>
<text text-anchor="start" x="642.21" y="-854.8" font-family="Arial" font-size="14.00" fill="#666666">[datetime]</text>
<polygon fill="none" stroke="black" points="555.05,-811.8 555.05,-842.6 908.36,-842.6 908.36,-811.8 555.05,-811.8"/>
<text text-anchor="start" x="562.05" y="-824" font-family="Arial" font-size="14.00">createdBy </text>
<text text-anchor="start" x="628.97" y="-824" font-family="Arial" font-size="14.00" fill="#666666">[varchar(128)]</text>
</g>
<!-- participantLimit&#45;&gt;participantCurrency -->
<g id="edge2" class="edge">
<title>participantLimit:participantCurrencyId&#45;&gt;participantCurrency:participantCurrencyId</title>
<path fill="none" stroke="black" d="M919.31,-1040.54C968.29,-1015.91 917.52,-797.21 960.7,-753.2 1068.06,-643.8 1484.21,-620 1637.49,-620"/>
<polygon fill="black" stroke="black" points="919.44,-1040.51 908.69,-1038.34 914.24,-1041.69 910.01,-1042.65 910.01,-1042.65 910.01,-1042.65 914.24,-1041.69 910.69,-1047.11 919.44,-1040.51"/>
<text text-anchor="start" x="464.45" y="-1052.8" font-family="Arial" font-size="10.00">FOREIGN KEY (participantCurrencyId) REFERENCES participantCurrency (participantCurrencyId)</text>
</g>
<!-- participantPosition -->
<g id="node4" class="node">
<title>participantPosition</title>
<polygon fill="#efefef" stroke="none" points="1012.47,-1027.4 1012.47,-1063 1286.94,-1063 1286.94,-1027.4 1012.47,-1027.4"/>
<polygon fill="none" stroke="black" points="1012.47,-1027.4 1012.47,-1063 1286.94,-1063 1286.94,-1027.4 1012.47,-1027.4"/>
<text text-anchor="start" x="1019.47" y="-1040.8" font-family="Arial Bold" font-size="18.00">participantPosition</text>
<text text-anchor="start" x="1155.45" y="-1040.8" font-family="Arial" font-size="14.00">    </text>
<text text-anchor="start" x="1186.57" y="-1040.8" font-family="Arial" font-size="14.00" fill="#666666">[BASE TABLE]</text>
<polygon fill="none" stroke="black" points="1012.47,-996.6 1012.47,-1027.4 1286.94,-1027.4 1286.94,-996.6 1012.47,-996.6"/>
<text text-anchor="start" x="1019.47" y="-1008.8" font-family="Arial" font-size="14.00">participantPositionId </text>
<text text-anchor="start" x="1149.43" y="-1008.8" font-family="Arial" font-size="14.00" fill="#666666">[bigint unsigned]</text>
<polygon fill="none" stroke="black" points="1012.47,-965.8 1012.47,-996.6 1286.94,-996.6 1286.94,-965.8 1012.47,-965.8"/>
<text text-anchor="start" x="1019.47" y="-978" font-family="Arial" font-size="14.00">participantCurrencyId </text>
<text text-anchor="start" x="1156.42" y="-978" font-family="Arial" font-size="14.00" fill="#666666">[int unsigned]</text>
<polygon fill="none" stroke="black" points="1012.47,-935 1012.47,-965.8 1286.94,-965.8 1286.94,-935 1012.47,-935"/>
<text text-anchor="start" x="1019.47" y="-947.2" font-family="Arial" font-size="14.00">value </text>
<text text-anchor="start" x="1056.83" y="-947.2" font-family="Arial" font-size="14.00" fill="#666666">[decimal(18,4)]</text>
<polygon fill="none" stroke="black" points="1012.47,-904.2 1012.47,-935 1286.94,-935 1286.94,-904.2 1012.47,-904.2"/>
<text text-anchor="start" x="1019.47" y="-916.4" font-family="Arial" font-size="14.00">reservedValue </text>
<text text-anchor="start" x="1113.63" y="-916.4" font-family="Arial" font-size="14.00" fill="#666666">[decimal(18,4)]</text>
<polygon fill="none" stroke="black" points="1012.47,-873.4 1012.47,-904.2 1286.94,-904.2 1286.94,-873.4 1012.47,-873.4"/>
<text text-anchor="start" x="1019.47" y="-885.6" font-family="Arial" font-size="14.00">changedDate </text>
<text text-anchor="start" x="1106.65" y="-885.6" font-family="Arial" font-size="14.00" fill="#666666">[datetime]</text>
</g>
<!-- participantPosition&#45;&gt;participantCurrency -->
<g id="edge3" class="edge">
<title>participantPosition:participantCurrencyId&#45;&gt;participantCurrency:participantCurrencyId</title>
<path fill="none" stroke="black" d="M1298.34,-980.63C1383.42,-970.62 1275.38,-830.67 1338.7,-753.2 1430.72,-640.63 1492.1,-620 1637.49,-620"/>
<polygon fill="black" stroke="black" points="1298.26,-980.64 1288.03,-976.69 1292.93,-980.93 1288.61,-981.16 1288.61,-981.16 1288.61,-981.16 1292.93,-980.93 1288.52,-985.68 1298.26,-980.64"/>
<text text-anchor="start" x="1294.94" y="-991.2" font-family="Arial" font-size="10.00">FOREIGN KEY (participantCurrencyId) REFERENCES participantCurrency (participantCurrencyId)</text>
</g>
<!-- participantPositionChange -->
<g id="node5" class="node">
<title>participantPositionChange</title>
<polygon fill="#efefef" stroke="none" points="1390.98,-1089 1390.98,-1124.6 1720.43,-1124.6 1720.43,-1089 1390.98,-1089"/>
<polygon fill="none" stroke="black" points="1390.98,-1089 1390.98,-1124.6 1720.43,-1124.6 1720.43,-1089 1390.98,-1089"/>
<text text-anchor="start" x="1397.98" y="-1102.4" font-family="Arial Bold" font-size="18.00">participantPositionChange</text>
<text text-anchor="start" x="1588.94" y="-1102.4" font-family="Arial" font-size="14.00">    </text>
<text text-anchor="start" x="1620.06" y="-1102.4" font-family="Arial" font-size="14.00" fill="#666666">[BASE TABLE]</text>
<polygon fill="none" stroke="black" points="1390.98,-1058.2 1390.98,-1089 1720.43,-1089 1720.43,-1058.2 1390.98,-1058.2"/>
<text text-anchor="start" x="1397.98" y="-1070.4" font-family="Arial" font-size="14.00">participantPositionChangeId </text>
<text text-anchor="start" x="1576.98" y="-1070.4" font-family="Arial" font-size="14.00" fill="#666666">[bigint unsigned]</text>
<polygon fill="none" stroke="black" points="1390.98,-1027.4 1390.98,-1058.2 1720.43,-1058.2 1720.43,-1027.4 1390.98,-1027.4"/>
<text text-anchor="start" x="1397.98" y="-1039.6" font-family="Arial" font-size="14.00">participantPositionId </text>
<text text-anchor="start" x="1527.94" y="-1039.6" font-family="Arial" font-size="14.00" fill="#666666">[bigint unsigned]</text>
<polygon fill="none" stroke="black" points="1390.98,-996.6 1390.98,-1027.4 1720.43,-1027.4 1720.43,-996.6 1390.98,-996.6"/>
<text text-anchor="start" x="1397.98" y="-1008.8" font-family="Arial" font-size="14.00">transferStateChangeId </text>
<text text-anchor="start" x="1542.73" y="-1008.8" font-family="Arial" font-size="14.00" fill="#666666">[bigint unsigned]</text>
<polygon fill="none" stroke="black" points="1390.98,-965.8 1390.98,-996.6 1720.43,-996.6 1720.43,-965.8 1390.98,-965.8"/>
<text text-anchor="start" x="1397.98" y="-978" font-family="Arial" font-size="14.00">value </text>
<text text-anchor="start" x="1435.33" y="-978" font-family="Arial" font-size="14.00" fill="#666666">[decimal(18,4)]</text>
<polygon fill="none" stroke="black" points="1390.98,-935 1390.98,-965.8 1720.43,-965.8 1720.43,-935 1390.98,-935"/>
<text text-anchor="start" x="1397.98" y="-947.2" font-family="Arial" font-size="14.00">reservedValue </text>
<text text-anchor="start" x="1492.14" y="-947.2" font-family="Arial" font-size="14.00" fill="#666666">[decimal(18,4)]</text>
<polygon fill="none" stroke="black" points="1390.98,-904.2 1390.98,-935 1720.43,-935 1720.43,-904.2 1390.98,-904.2"/>
<text text-anchor="start" x="1397.98" y="-916.4" font-family="Arial" font-size="14.00">createdDate </text>
<text text-anchor="start" x="1478.13" y="-916.4" font-family="Arial" font-size="14.00" fill="#666666">[datetime]</text>
<polygon fill="none" stroke="black" points="1390.98,-873.4 1390.98,-904.2 1720.43,-904.2 1720.43,-873.4 1390.98,-873.4"/>
<text text-anchor="start" x="1397.98" y="-885.6" font-family="Arial" font-size="14.00">participantCurrencyId </text>
<text text-anchor="start" x="1534.93" y="-885.6" font-family="Arial" font-size="14.00" fill="#666666">[int unsigned]</text>
<polygon fill="none" stroke="black" points="1390.98,-842.6 1390.98,-873.4 1720.43,-873.4 1720.43,-842.6 1390.98,-842.6"/>
<text text-anchor="start" x="1397.98" y="-854.8" font-family="Arial" font-size="14.00">change </text>
<text text-anchor="start" x="1447.8" y="-854.8" font-family="Arial" font-size="14.00" fill="#666666">[decimal(18,4)]</text>
<polygon fill="none" stroke="black" points="1390.98,-811.8 1390.98,-842.6 1720.43,-842.6 1720.43,-811.8 1390.98,-811.8"/>
<text text-anchor="start" x="1397.98" y="-824" font-family="Arial" font-size="14.00">fxTransferStateChangeId </text>
<text text-anchor="start" x="1558.29" y="-824" font-family="Arial" font-size="14.00" fill="#666666">[bigint unsigned]</text>
</g>
<!-- participantPositionChange&#45;&gt;participantCurrency -->
<g id="edge4" class="edge">
<title>participantPositionChange:participantCurrencyId&#45;&gt;participantCurrency:participantCurrencyId</title>
<path fill="none" stroke="black" d="M1731.52,-887.74C1770.88,-878.59 1744.66,-811.96 1720.43,-768.6 1699.47,-731.07 1659.49,-754.71 1638.49,-717.2 1617.38,-679.5 1594.29,-620 1637.49,-620"/>
<polygon fill="black" stroke="black" points="1731.71,-887.72 1721.3,-884.29 1726.41,-888.28 1722.1,-888.73 1722.1,-888.73 1722.1,-888.73 1726.41,-888.28 1722.23,-893.24 1731.71,-887.72"/>
<text text-anchor="start" x="1728.43" y="-898.8" font-family="Arial" font-size="10.00">FOREIGN KEY (participantCurrencyId) REFERENCES participantCurrency (participantCurrencyId)</text>
</g>
<!-- settlementContentAggregation -->
<g id="node6" class="node">
<title>settlementContentAggregation</title>
<polygon fill="#efefef" stroke="none" points="1824.99,-1089 1824.99,-1124.6 2184.42,-1124.6 2184.42,-1089 1824.99,-1089"/>
<polygon fill="none" stroke="black" points="1824.99,-1089 1824.99,-1124.6 2184.42,-1124.6 2184.42,-1089 1824.99,-1089"/>
<text text-anchor="start" x="1831.99" y="-1102.4" font-family="Arial Bold" font-size="18.00">settlementContentAggregation</text>
<text text-anchor="start" x="2052.93" y="-1102.4" font-family="Arial" font-size="14.00">    </text>
<text text-anchor="start" x="2084.05" y="-1102.4" font-family="Arial" font-size="14.00" fill="#666666">[BASE TABLE]</text>
<polygon fill="none" stroke="black" points="1824.99,-1058.2 1824.99,-1089 2184.42,-1089 2184.42,-1058.2 1824.99,-1058.2"/>
<text text-anchor="start" x="1831.99" y="-1070.4" font-family="Arial" font-size="14.00">settlementContentAggregationId </text>
<text text-anchor="start" x="2036.67" y="-1070.4" font-family="Arial" font-size="14.00" fill="#666666">[bigint unsigned]</text>
<polygon fill="none" stroke="black" points="1824.99,-1027.4 1824.99,-1058.2 2184.42,-1058.2 2184.42,-1027.4 1824.99,-1027.4"/>
<text text-anchor="start" x="1831.99" y="-1039.6" font-family="Arial" font-size="14.00">settlementWindowContentId </text>
<text text-anchor="start" x="2010.96" y="-1039.6" font-family="Arial" font-size="14.00" fill="#666666">[bigint unsigned]</text>
<polygon fill="none" stroke="black" points="1824.99,-996.6 1824.99,-1027.4 2184.42,-1027.4 2184.42,-996.6 1824.99,-996.6"/>
<text text-anchor="start" x="1831.99" y="-1008.8" font-family="Arial" font-size="14.00">participantCurrencyId </text>
<text text-anchor="start" x="1968.94" y="-1008.8" font-family="Arial" font-size="14.00" fill="#666666">[int unsigned]</text>
<polygon fill="none" stroke="black" points="1824.99,-965.8 1824.99,-996.6 2184.42,-996.6 2184.42,-965.8 1824.99,-965.8"/>
<text text-anchor="start" x="1831.99" y="-978" font-family="Arial" font-size="14.00">transferParticipantRoleTypeId </text>
<text text-anchor="start" x="2021.07" y="-978" font-family="Arial" font-size="14.00" fill="#666666">[int unsigned]</text>
<polygon fill="none" stroke="black" points="1824.99,-935 1824.99,-965.8 2184.42,-965.8 2184.42,-935 1824.99,-935"/>
<text text-anchor="start" x="1831.99" y="-947.2" font-family="Arial" font-size="14.00">ledgerEntryTypeId </text>
<text text-anchor="start" x="1950.27" y="-947.2" font-family="Arial" font-size="14.00" fill="#666666">[int unsigned]</text>
<polygon fill="none" stroke="black" points="1824.99,-904.2 1824.99,-935 2184.42,-935 2184.42,-904.2 1824.99,-904.2"/>
<text text-anchor="start" x="1831.99" y="-916.4" font-family="Arial" font-size="14.00">amount </text>
<text text-anchor="start" x="1882.57" y="-916.4" font-family="Arial" font-size="14.00" fill="#666666">[decimal(18,4)]</text>
<polygon fill="none" stroke="black" points="1824.99,-873.4 1824.99,-904.2 2184.42,-904.2 2184.42,-873.4 1824.99,-873.4"/>
<text text-anchor="start" x="1831.99" y="-885.6" font-family="Arial" font-size="14.00">createdDate </text>
<text text-anchor="start" x="1912.14" y="-885.6" font-family="Arial" font-size="14.00" fill="#666666">[datetime]</text>
<polygon fill="none" stroke="black" points="1824.99,-842.6 1824.99,-873.4 2184.42,-873.4 2184.42,-842.6 1824.99,-842.6"/>
<text text-anchor="start" x="1831.99" y="-854.8" font-family="Arial" font-size="14.00">currentStateId </text>
<text text-anchor="start" x="1923.81" y="-854.8" font-family="Arial" font-size="14.00" fill="#666666">[varchar(50)]</text>
<polygon fill="none" stroke="black" points="1824.99,-811.8 1824.99,-842.6 2184.42,-842.6 2184.42,-811.8 1824.99,-811.8"/>
<text text-anchor="start" x="1831.99" y="-824" font-family="Arial" font-size="14.00">settlementId </text>
<text text-anchor="start" x="1912.14" y="-824" font-family="Arial" font-size="14.00" fill="#666666">[bigint unsigned]</text>
</g>
<!-- settlementContentAggregation&#45;&gt;participantCurrency -->
<g id="edge5" class="edge">
<title>settlementContentAggregation:participantCurrencyId&#45;&gt;participantCurrency:participantCurrencyId</title>
<path fill="none" stroke="black" d="M1814.01,-1009.35C1773.62,-985.76 1799.01,-811.78 1824.99,-768.6 1849.92,-727.15 1895.86,-758.57 1920.92,-717.2 1943.3,-680.25 1965.12,-620 1921.92,-620"/>
<polygon fill="black" stroke="black" points="1814,-1009.35 1822.51,-1016.26 1819.15,-1010.72 1823.34,-1011.83 1823.34,-1011.83 1823.34,-1011.83 1819.15,-1010.72 1824.82,-1007.57 1814,-1009.35"/>
<text text-anchor="start" x="1492.05" y="-996" font-family="Arial" font-size="10.00">FOREIGN KEY (participantCurrencyId) REFERENCES participantCurrency (participantCurrencyId)</text>
</g>
<!-- settlementParticipantCurrency -->
<g id="node7" class="node">
<title>settlementParticipantCurrency</title>
<polygon fill="#efefef" stroke="none" points="2289,-1058.2 2289,-1093.8 2646.41,-1093.8 2646.41,-1058.2 2289,-1058.2"/>
<polygon fill="none" stroke="black" points="2289,-1058.2 2289,-1093.8 2646.41,-1093.8 2646.41,-1058.2 2289,-1058.2"/>
<text text-anchor="start" x="2296" y="-1071.6" font-family="Arial Bold" font-size="18.00">settlementParticipantCurrency</text>
<text text-anchor="start" x="2514.92" y="-1071.6" font-family="Arial" font-size="14.00">    </text>
<text text-anchor="start" x="2546.04" y="-1071.6" font-family="Arial" font-size="14.00" fill="#666666">[BASE TABLE]</text>
<polygon fill="none" stroke="black" points="2289,-1027.4 2289,-1058.2 2646.41,-1058.2 2646.41,-1027.4 2289,-1027.4"/>
<text text-anchor="start" x="2296" y="-1039.6" font-family="Arial" font-size="14.00">settlementParticipantCurrencyId </text>
<text text-anchor="start" x="2499.09" y="-1039.6" font-family="Arial" font-size="14.00" fill="#666666">[bigint unsigned]</text>
<polygon fill="none" stroke="black" points="2289,-996.6 2289,-1027.4 2646.41,-1027.4 2646.41,-996.6 2289,-996.6"/>
<text text-anchor="start" x="2296" y="-1008.8" font-family="Arial" font-size="14.00">settlementId </text>
<text text-anchor="start" x="2376.15" y="-1008.8" font-family="Arial" font-size="14.00" fill="#666666">[bigint unsigned]</text>
<polygon fill="none" stroke="black" points="2289,-965.8 2289,-996.6 2646.41,-996.6 2646.41,-965.8 2289,-965.8"/>
<text text-anchor="start" x="2296" y="-978" font-family="Arial" font-size="14.00">participantCurrencyId </text>
<text text-anchor="start" x="2432.95" y="-978" font-family="Arial" font-size="14.00" fill="#666666">[int unsigned]</text>
<polygon fill="none" stroke="black" points="2289,-935 2289,-965.8 2646.41,-965.8 2646.41,-935 2289,-935"/>
<text text-anchor="start" x="2296" y="-947.2" font-family="Arial" font-size="14.00">netAmount </text>
<text text-anchor="start" x="2367.6" y="-947.2" font-family="Arial" font-size="14.00" fill="#666666">[decimal(18,4)]</text>
<polygon fill="none" stroke="black" points="2289,-904.2 2289,-935 2646.41,-935 2646.41,-904.2 2289,-904.2"/>
<text text-anchor="start" x="2296" y="-916.4" font-family="Arial" font-size="14.00">createdDate </text>
<text text-anchor="start" x="2376.15" y="-916.4" font-family="Arial" font-size="14.00" fill="#666666">[datetime]</text>
<polygon fill="none" stroke="black" points="2289,-873.4 2289,-904.2 2646.41,-904.2 2646.41,-873.4 2289,-873.4"/>
<text text-anchor="start" x="2296" y="-885.6" font-family="Arial" font-size="14.00">currentStateChangeId </text>
<text text-anchor="start" x="2436.86" y="-885.6" font-family="Arial" font-size="14.00" fill="#666666">[bigint unsigned]</text>
<polygon fill="none" stroke="black" points="2289,-842.6 2289,-873.4 2646.41,-873.4 2646.41,-842.6 2289,-842.6"/>
<text text-anchor="start" x="2296" y="-854.8" font-family="Arial" font-size="14.00">settlementTransferId </text>
<text text-anchor="start" x="2428.27" y="-854.8" font-family="Arial" font-size="14.00" fill="#666666">[varchar(36)]</text>
</g>
<!-- settlementParticipantCurrency&#45;&gt;participantCurrency -->
<g id="edge6" class="edge">
<title>settlementParticipantCurrency:participantCurrencyId&#45;&gt;participantCurrency:participantCurrencyId</title>
<path fill="none" stroke="black" d="M2277.59,-980.63C2192.5,-970.57 2300.88,-830.04 2236.7,-753.2 2139.32,-636.61 2073.83,-620 1921.92,-620"/>
<polygon fill="black" stroke="black" points="2277.68,-980.63 2287.42,-985.67 2283,-980.93 2287.33,-981.16 2287.33,-981.16 2287.33,-981.16 2283,-980.93 2287.91,-976.69 2277.68,-980.63"/>
<text text-anchor="start" x="2295" y="-991.2" font-family="Arial" font-size="10.00">FOREIGN KEY (participantCurrencyId) REFERENCES participantCurrency (participantCurrencyId)</text>
</g>
<!-- settlementTransferParticipant -->
<g id="node8" class="node">
<title>settlementTransferParticipant</title>
<polygon fill="#efefef" stroke="none" points="2751,-1073.6 2751,-1109.2 3102.41,-1109.2 3102.41,-1073.6 2751,-1073.6"/>
<polygon fill="none" stroke="black" points="2751,-1073.6 2751,-1109.2 3102.41,-1109.2 3102.41,-1073.6 2751,-1073.6"/>
<text text-anchor="start" x="2758" y="-1087" font-family="Arial Bold" font-size="18.00">settlementTransferParticipant</text>
<text text-anchor="start" x="2970.92" y="-1087" font-family="Arial" font-size="14.00">    </text>
<text text-anchor="start" x="3002.03" y="-1087" font-family="Arial" font-size="14.00" fill="#666666">[BASE TABLE]</text>
<polygon fill="none" stroke="black" points="2751,-1042.8 2751,-1073.6 3102.41,-1073.6 3102.41,-1042.8 2751,-1042.8"/>
<text text-anchor="start" x="2758" y="-1055" font-family="Arial" font-size="14.00">settlementTransferParticipantId </text>
<text text-anchor="start" x="2956.42" y="-1055" font-family="Arial" font-size="14.00" fill="#666666">[bigint unsigned]</text>
<polygon fill="none" stroke="black" points="2751,-1012 2751,-1042.8 3102.41,-1042.8 3102.41,-1012 2751,-1012"/>
<text text-anchor="start" x="2758" y="-1024.2" font-family="Arial" font-size="14.00">settlementId </text>
<text text-anchor="start" x="2838.15" y="-1024.2" font-family="Arial" font-size="14.00" fill="#666666">[bigint unsigned]</text>
<polygon fill="none" stroke="black" points="2751,-981.2 2751,-1012 3102.41,-1012 3102.41,-981.2 2751,-981.2"/>
<text text-anchor="start" x="2758" y="-993.4" font-family="Arial" font-size="14.00">settlementWindowId </text>
<text text-anchor="start" x="2887.95" y="-993.4" font-family="Arial" font-size="14.00" fill="#666666">[bigint unsigned]</text>
<polygon fill="none" stroke="black" points="2751,-950.4 2751,-981.2 3102.41,-981.2 3102.41,-950.4 2751,-950.4"/>
<text text-anchor="start" x="2758" y="-962.6" font-family="Arial" font-size="14.00">participantCurrencyId </text>
<text text-anchor="start" x="2894.95" y="-962.6" font-family="Arial" font-size="14.00" fill="#666666">[int unsigned]</text>
<polygon fill="none" stroke="black" points="2751,-919.6 2751,-950.4 3102.41,-950.4 3102.41,-919.6 2751,-919.6"/>
<text text-anchor="start" x="2758" y="-931.8" font-family="Arial" font-size="14.00">transferParticipantRoleTypeId </text>
<text text-anchor="start" x="2947.09" y="-931.8" font-family="Arial" font-size="14.00" fill="#666666">[int unsigned]</text>
<polygon fill="none" stroke="black" points="2751,-888.8 2751,-919.6 3102.41,-919.6 3102.41,-888.8 2751,-888.8"/>
<text text-anchor="start" x="2758" y="-901" font-family="Arial" font-size="14.00">ledgerEntryTypeId </text>
<text text-anchor="start" x="2876.28" y="-901" font-family="Arial" font-size="14.00" fill="#666666">[int unsigned]</text>
<polygon fill="none" stroke="black" points="2751,-858 2751,-888.8 3102.41,-888.8 3102.41,-858 2751,-858"/>
<text text-anchor="start" x="2758" y="-870.2" font-family="Arial" font-size="14.00">amount </text>
<text text-anchor="start" x="2808.59" y="-870.2" font-family="Arial" font-size="14.00" fill="#666666">[decimal(18,4)]</text>
<polygon fill="none" stroke="black" points="2751,-827.2 2751,-858 3102.41,-858 3102.41,-827.2 2751,-827.2"/>
<text text-anchor="start" x="2758" y="-839.4" font-family="Arial" font-size="14.00">createdDate </text>
<text text-anchor="start" x="2838.16" y="-839.4" font-family="Arial" font-size="14.00" fill="#666666">[datetime]</text>
</g>
<!-- settlementTransferParticipant&#45;&gt;participantCurrency -->
<g id="edge7" class="edge">
<title>settlementTransferParticipant:participantCurrencyId&#45;&gt;participantCurrency:participantCurrencyId</title>
<path fill="none" stroke="black" d="M2740.05,-965.21C2661.22,-955.06 2767.06,-817.13 2698.7,-753.2 2570.79,-633.57 2097.06,-620 1921.92,-620"/>
<polygon fill="black" stroke="black" points="2739.69,-965.19 2749.4,-970.27 2745.01,-965.5 2749.33,-965.76 2749.33,-965.76 2749.33,-965.76 2745.01,-965.5 2749.94,-961.29 2739.69,-965.19"/>
<text text-anchor="start" x="2418.07" y="-949.8" font-family="Arial" font-size="10.00">FOREIGN KEY (participantCurrencyId) REFERENCES participantCurrency (participantCurrencyId)</text>
</g>
<!-- transferParticipant -->
<g id="node9" class="node">
<title>transferParticipant</title>
<polygon fill="#efefef" stroke="none" points="3206.52,-1089 3206.52,-1124.6 3492.89,-1124.6 3492.89,-1089 3206.52,-1089"/>
<polygon fill="none" stroke="black" points="3206.52,-1089 3206.52,-1124.6 3492.89,-1124.6 3492.89,-1089 3206.52,-1089"/>
<text text-anchor="start" x="3220.99" y="-1102.4" font-family="Arial Bold" font-size="18.00">transferParticipant</text>
<text text-anchor="start" x="3353.93" y="-1102.4" font-family="Arial" font-size="14.00">    </text>
<text text-anchor="start" x="3385.05" y="-1102.4" font-family="Arial" font-size="14.00" fill="#666666">[BASE TABLE]</text>
<polygon fill="none" stroke="black" points="3206.52,-1058.2 3206.52,-1089 3492.89,-1089 3492.89,-1058.2 3206.52,-1058.2"/>
<text text-anchor="start" x="3213.52" y="-1070.4" font-family="Arial" font-size="14.00">transferParticipantId </text>
<text text-anchor="start" x="3342.69" y="-1070.4" font-family="Arial" font-size="14.00" fill="#666666">[bigint unsigned]</text>
<polygon fill="none" stroke="black" points="3206.52,-1027.4 3206.52,-1058.2 3492.89,-1058.2 3492.89,-1027.4 3206.52,-1027.4"/>
<text text-anchor="start" x="3213.52" y="-1039.6" font-family="Arial" font-size="14.00">transferId </text>
<text text-anchor="start" x="3276.55" y="-1039.6" font-family="Arial" font-size="14.00" fill="#666666">[varchar(36)]</text>
<polygon fill="none" stroke="black" points="3206.52,-996.6 3206.52,-1027.4 3492.89,-1027.4 3492.89,-996.6 3206.52,-996.6"/>
<text text-anchor="start" x="3213.52" y="-1008.8" font-family="Arial" font-size="14.00">participantCurrencyId </text>
<text text-anchor="start" x="3350.47" y="-1008.8" font-family="Arial" font-size="14.00" fill="#666666">[int unsigned]</text>
<polygon fill="none" stroke="black" points="3206.52,-965.8 3206.52,-996.6 3492.89,-996.6 3492.89,-965.8 3206.52,-965.8"/>
<text text-anchor="start" x="3213.52" y="-978" font-family="Arial" font-size="14.00">transferParticipantRoleTypeId </text>
<text text-anchor="start" x="3402.61" y="-978" font-family="Arial" font-size="14.00" fill="#666666">[int unsigned]</text>
<polygon fill="none" stroke="black" points="3206.52,-935 3206.52,-965.8 3492.89,-965.8 3492.89,-935 3206.52,-935"/>
<text text-anchor="start" x="3213.52" y="-947.2" font-family="Arial" font-size="14.00">ledgerEntryTypeId </text>
<text text-anchor="start" x="3331.8" y="-947.2" font-family="Arial" font-size="14.00" fill="#666666">[int unsigned]</text>
<polygon fill="none" stroke="black" points="3206.52,-904.2 3206.52,-935 3492.89,-935 3492.89,-904.2 3206.52,-904.2"/>
<text text-anchor="start" x="3213.52" y="-916.4" font-family="Arial" font-size="14.00">amount </text>
<text text-anchor="start" x="3264.1" y="-916.4" font-family="Arial" font-size="14.00" fill="#666666">[decimal(18,4)]</text>
<polygon fill="none" stroke="black" points="3206.52,-873.4 3206.52,-904.2 3492.89,-904.2 3492.89,-873.4 3206.52,-873.4"/>
<text text-anchor="start" x="3213.52" y="-885.6" font-family="Arial" font-size="14.00">createdDate </text>
<text text-anchor="start" x="3293.68" y="-885.6" font-family="Arial" font-size="14.00" fill="#666666">[datetime]</text>
<polygon fill="none" stroke="black" points="3206.52,-842.6 3206.52,-873.4 3492.89,-873.4 3492.89,-842.6 3206.52,-842.6"/>
<text text-anchor="start" x="3213.52" y="-854.8" font-family="Arial" font-size="14.00">participantId </text>
<text text-anchor="start" x="3293.68" y="-854.8" font-family="Arial" font-size="14.00" fill="#666666">[int unsigned]</text>
<polygon fill="none" stroke="black" points="3206.52,-811.8 3206.52,-842.6 3492.89,-842.6 3492.89,-811.8 3206.52,-811.8"/>
<text text-anchor="start" x="3213.52" y="-824" font-family="Arial" font-size="14.00">externalParticipantId </text>
<text text-anchor="start" x="3345.04" y="-824" font-family="Arial" font-size="14.00" fill="#666666">[bigint unsigned]</text>
</g>
<!-- transferParticipant&#45;&gt;participantCurrency -->
<g id="edge8" class="edge">
<title>transferParticipant:participantCurrencyId&#45;&gt;participantCurrency:participantCurrencyId</title>
<path fill="none" stroke="black" d="M3195.31,-1011.48C3097.62,-1000.88 3238.39,-829.96 3154.7,-753.2 3053.17,-660.07 2059.69,-620 1921.92,-620"/>
<polygon fill="black" stroke="black" points="3195.2,-1011.48 3204.96,-1016.48 3200.53,-1011.75 3204.85,-1011.97 3204.85,-1011.97 3204.85,-1011.97 3200.53,-1011.75 3205.41,-1007.49 3195.2,-1011.48"/>
<text text-anchor="start" x="3212.52" y="-1022" font-family="Arial" font-size="10.00">FOREIGN KEY (participantCurrencyId) REFERENCES participantCurrency (participantCurrencyId)</text>
</g>
</g>
</svg>
