<?xml version="1.0" encoding="UTF-8" standalone="no"?>
<!DOCTYPE svg PUBLIC "-//W3C//DTD SVG 1.1//EN"
 "http://www.w3.org/Graphics/SVG/1.1/DTD/svg11.dtd">
<!-- Generated by graphviz version 12.1.2 (20240928.0832)
 -->
<!-- Title: participantPosition Pages: 1 -->
<svg width="819pt" height="1099pt"
 viewBox="0.00 0.00 818.60 1098.80" xmlns="http://www.w3.org/2000/svg" xmlns:xlink="http://www.w3.org/1999/xlink">
<g id="graph0" class="graph" transform="scale(1 1) rotate(0) translate(4 1094.8)">
<title>participantPosition</title>
<polygon fill="white" stroke="none" points="-4,4 -4,-1094.8 814.6,-1094.8 814.6,4 -4,4"/>
<!-- participantPosition -->
<g id="node1" class="node">
<title>participantPosition</title>
<polygon fill="#efefef" stroke="none" points="70.69,-573.8 70.69,-609.4 345.17,-609.4 345.17,-573.8 70.69,-573.8"/>
<polygon fill="none" stroke="black" points="70.69,-573.8 70.69,-609.4 345.17,-609.4 345.17,-573.8 70.69,-573.8"/>
<text text-anchor="start" x="77.69" y="-587.2" font-family="Arial Bold" font-size="18.00">participantPosition</text>
<text text-anchor="start" x="213.68" y="-587.2" font-family="Arial" font-size="14.00">    </text>
<text text-anchor="start" x="244.79" y="-587.2" font-family="Arial" font-size="14.00" fill="#666666">[BASE TABLE]</text>
<polygon fill="none" stroke="black" points="70.69,-543 70.69,-573.8 345.17,-573.8 345.17,-543 70.69,-543"/>
<text text-anchor="start" x="77.69" y="-555.2" font-family="Arial" font-size="14.00">participantPositionId </text>
<text text-anchor="start" x="207.66" y="-555.2" font-family="Arial" font-size="14.00" fill="#666666">[bigint unsigned]</text>
<polygon fill="none" stroke="black" points="70.69,-512.2 70.69,-543 345.17,-543 345.17,-512.2 70.69,-512.2"/>
<text text-anchor="start" x="77.69" y="-524.4" font-family="Arial" font-size="14.00">participantCurrencyId </text>
<text text-anchor="start" x="214.64" y="-524.4" font-family="Arial" font-size="14.00" fill="#666666">[int unsigned]</text>
<polygon fill="none" stroke="black" points="70.69,-481.4 70.69,-512.2 345.17,-512.2 345.17,-481.4 70.69,-481.4"/>
<text text-anchor="start" x="77.69" y="-493.6" font-family="Arial" font-size="14.00">value </text>
<text text-anchor="start" x="115.05" y="-493.6" font-family="Arial" font-size="14.00" fill="#666666">[decimal(18,4)]</text>
<polygon fill="none" stroke="black" points="70.69,-450.6 70.69,-481.4 345.17,-481.4 345.17,-450.6 70.69,-450.6"/>
<text text-anchor="start" x="77.69" y="-462.8" font-family="Arial" font-size="14.00">reservedValue </text>
<text text-anchor="start" x="171.86" y="-462.8" font-family="Arial" font-size="14.00" fill="#666666">[decimal(18,4)]</text>
<polygon fill="none" stroke="black" points="70.69,-419.8 70.69,-450.6 345.17,-450.6 345.17,-419.8 70.69,-419.8"/>
<text text-anchor="start" x="77.69" y="-432" font-family="Arial" font-size="14.00">changedDate </text>
<text text-anchor="start" x="164.87" y="-432" font-family="Arial" font-size="14.00" fill="#666666">[datetime]</text>
<polygon fill="none" stroke="black" stroke-width="3" points="69.19,-418.3 69.19,-610.9 346.67,-610.9 346.67,-418.3 69.19,-418.3"/>
</g>
<!-- participantCurrency -->
<g id="node3" class="node">
<title>participantCurrency</title>
<polygon fill="#efefef" stroke="none" points="66.72,-258.8 66.72,-294.4 349.14,-294.4 349.14,-258.8 66.72,-258.8"/>
<polygon fill="none" stroke="black" points="66.72,-258.8 66.72,-294.4 349.14,-294.4 349.14,-258.8 66.72,-258.8"/>
<text text-anchor="start" x="73.72" y="-272.2" font-family="Arial Bold" font-size="18.00">participantCurrency</text>
<text text-anchor="start" x="217.65" y="-272.2" font-family="Arial" font-size="14.00">    </text>
<text text-anchor="start" x="248.77" y="-272.2" font-family="Arial" font-size="14.00" fill="#666666">[BASE TABLE]</text>
<polygon fill="none" stroke="black" points="66.72,-228 66.72,-258.8 349.14,-258.8 349.14,-228 66.72,-228"/>
<text text-anchor="start" x="73.72" y="-240.2" font-family="Arial" font-size="14.00">participantCurrencyId </text>
<text text-anchor="start" x="210.67" y="-240.2" font-family="Arial" font-size="14.00" fill="#666666">[int unsigned]</text>
<polygon fill="none" stroke="black" points="66.72,-197.2 66.72,-228 349.14,-228 349.14,-197.2 66.72,-197.2"/>
<text text-anchor="start" x="73.72" y="-209.4" font-family="Arial" font-size="14.00">participantId </text>
<text text-anchor="start" x="153.87" y="-209.4" font-family="Arial" font-size="14.00" fill="#666666">[int unsigned]</text>
<polygon fill="none" stroke="black" points="66.72,-166.4 66.72,-197.2 349.14,-197.2 349.14,-166.4 66.72,-166.4"/>
<text text-anchor="start" x="73.72" y="-178.6" font-family="Arial" font-size="14.00">currencyId </text>
<text text-anchor="start" x="142.96" y="-178.6" font-family="Arial" font-size="14.00" fill="#666666">[varchar(3)]</text>
<polygon fill="none" stroke="black" points="66.72,-135.6 66.72,-166.4 349.14,-166.4 349.14,-135.6 66.72,-135.6"/>
<text text-anchor="start" x="73.72" y="-147.8" font-family="Arial" font-size="14.00">ledgerAccountTypeId </text>
<text text-anchor="start" x="209.91" y="-147.8" font-family="Arial" font-size="14.00" fill="#666666">[int unsigned]</text>
<polygon fill="none" stroke="black" points="66.72,-104.8 66.72,-135.6 349.14,-135.6 349.14,-104.8 66.72,-104.8"/>
<text text-anchor="start" x="73.72" y="-117" font-family="Arial" font-size="14.00">isActive </text>
<text text-anchor="start" x="125.84" y="-117" font-family="Arial" font-size="14.00" fill="#666666">[tinyint(1)]</text>
<polygon fill="none" stroke="black" points="66.72,-74 66.72,-104.8 349.14,-104.8 349.14,-74 66.72,-74"/>
<text text-anchor="start" x="73.72" y="-86.2" font-family="Arial" font-size="14.00">createdDate </text>
<text text-anchor="start" x="153.87" y="-86.2" font-family="Arial" font-size="14.00" fill="#666666">[datetime]</text>
<polygon fill="none" stroke="black" points="66.72,-43.2 66.72,-74 349.14,-74 349.14,-43.2 66.72,-43.2"/>
<text text-anchor="start" x="73.72" y="-55.4" font-family="Arial" font-size="14.00">createdBy </text>
<text text-anchor="start" x="140.64" y="-55.4" font-family="Arial" font-size="14.00" fill="#666666">[varchar(128)]</text>
</g>
<!-- participantPosition&#45;&gt;participantCurrency -->
<g id="edge2" class="edge">
<title>participantPosition:participantCurrencyId&#45;&gt;participantCurrency:participantCurrencyId</title>
<path fill="none" stroke="black" d="M356.25,-526.97C472.61,-512.27 473.01,-243.4 350.14,-243.4"/>
<polygon fill="black" stroke="black" points="356.48,-526.96 346.22,-523.09 351.16,-527.29 346.83,-527.56 346.83,-527.56 346.83,-527.56 351.16,-527.29 346.78,-532.07 356.48,-526.96"/>
<text text-anchor="start" x="353.17" y="-537.6" font-family="Arial" font-size="10.00">FOREIGN KEY (participantCurrencyId) REFERENCES participantCurrency (participantCurrencyId)</text>
</g>
<!-- participantPositionChange -->
<g id="node2" class="node">
<title>participantPositionChange</title>
<polygon fill="#efefef" stroke="none" points="43.2,-1012 43.2,-1047.6 372.66,-1047.6 372.66,-1012 43.2,-1012"/>
<polygon fill="none" stroke="black" points="43.2,-1012 43.2,-1047.6 372.66,-1047.6 372.66,-1012 43.2,-1012"/>
<text text-anchor="start" x="50.2" y="-1025.4" font-family="Arial Bold" font-size="18.00">participantPositionChange</text>
<text text-anchor="start" x="241.17" y="-1025.4" font-family="Arial" font-size="14.00">    </text>
<text text-anchor="start" x="272.29" y="-1025.4" font-family="Arial" font-size="14.00" fill="#666666">[BASE TABLE]</text>
<polygon fill="none" stroke="black" points="43.2,-981.2 43.2,-1012 372.66,-1012 372.66,-981.2 43.2,-981.2"/>
<text text-anchor="start" x="50.2" y="-993.4" font-family="Arial" font-size="14.00">participantPositionChangeId </text>
<text text-anchor="start" x="229.21" y="-993.4" font-family="Arial" font-size="14.00" fill="#666666">[bigint unsigned]</text>
<polygon fill="none" stroke="black" points="43.2,-950.4 43.2,-981.2 372.66,-981.2 372.66,-950.4 43.2,-950.4"/>
<text text-anchor="start" x="50.2" y="-962.6" font-family="Arial" font-size="14.00">participantPositionId </text>
<text text-anchor="start" x="180.16" y="-962.6" font-family="Arial" font-size="14.00" fill="#666666">[bigint unsigned]</text>
<polygon fill="none" stroke="black" points="43.2,-919.6 43.2,-950.4 372.66,-950.4 372.66,-919.6 43.2,-919.6"/>
<text text-anchor="start" x="50.2" y="-931.8" font-family="Arial" font-size="14.00">transferStateChangeId </text>
<text text-anchor="start" x="194.96" y="-931.8" font-family="Arial" font-size="14.00" fill="#666666">[bigint unsigned]</text>
<polygon fill="none" stroke="black" points="43.2,-888.8 43.2,-919.6 372.66,-919.6 372.66,-888.8 43.2,-888.8"/>
<text text-anchor="start" x="50.2" y="-901" font-family="Arial" font-size="14.00">value </text>
<text text-anchor="start" x="87.56" y="-901" font-family="Arial" font-size="14.00" fill="#666666">[decimal(18,4)]</text>
<polygon fill="none" stroke="black" points="43.2,-858 43.2,-888.8 372.66,-888.8 372.66,-858 43.2,-858"/>
<text text-anchor="start" x="50.2" y="-870.2" font-family="Arial" font-size="14.00">reservedValue </text>
<text text-anchor="start" x="144.37" y="-870.2" font-family="Arial" font-size="14.00" fill="#666666">[decimal(18,4)]</text>
<polygon fill="none" stroke="black" points="43.2,-827.2 43.2,-858 372.66,-858 372.66,-827.2 43.2,-827.2"/>
<text text-anchor="start" x="50.2" y="-839.4" font-family="Arial" font-size="14.00">createdDate </text>
<text text-anchor="start" x="130.36" y="-839.4" font-family="Arial" font-size="14.00" fill="#666666">[datetime]</text>
<polygon fill="none" stroke="black" points="43.2,-796.4 43.2,-827.2 372.66,-827.2 372.66,-796.4 43.2,-796.4"/>
<text text-anchor="start" x="50.2" y="-808.6" font-family="Arial" font-size="14.00">participantCurrencyId </text>
<text text-anchor="start" x="187.15" y="-808.6" font-family="Arial" font-size="14.00" fill="#666666">[int unsigned]</text>
<polygon fill="none" stroke="black" points="43.2,-765.6 43.2,-796.4 372.66,-796.4 372.66,-765.6 43.2,-765.6"/>
<text text-anchor="start" x="50.2" y="-777.8" font-family="Arial" font-size="14.00">change </text>
<text text-anchor="start" x="100.02" y="-777.8" font-family="Arial" font-size="14.00" fill="#666666">[decimal(18,4)]</text>
<polygon fill="none" stroke="black" points="43.2,-734.8 43.2,-765.6 372.66,-765.6 372.66,-734.8 43.2,-734.8"/>
<text text-anchor="start" x="50.2" y="-747" font-family="Arial" font-size="14.00">fxTransferStateChangeId </text>
<text text-anchor="start" x="210.51" y="-747" font-family="Arial" font-size="14.00" fill="#666666">[bigint unsigned]</text>
</g>
<!-- participantPositionChange&#45;&gt;participantPosition -->
<g id="edge1" class="edge">
<title>participantPositionChange:participantPositionId&#45;&gt;participantPosition:participantPositionId</title>
<path fill="none" stroke="black" d="M383.75,-963.98C462.15,-934.59 433.36,-558.4 346.17,-558.4"/>
<polygon fill="black" stroke="black" points="383.83,-963.97 373.19,-961.31 378.58,-964.91 374.32,-965.68 374.32,-965.68 374.32,-965.68 378.58,-964.91 374.78,-970.17 383.83,-963.97"/>
<text text-anchor="start" x="380.66" y="-975.8" font-family="Arial" font-size="10.00">FOREIGN KEY (participantPositionId) REFERENCES participantPosition (participantPositionId)</text>
</g>
</g>
</svg>
