<?xml version="1.0" encoding="UTF-8" standalone="no"?>
<!DOCTYPE svg PUBLIC "-//W3C//DTD SVG 1.1//EN"
 "http://www.w3.org/Graphics/SVG/1.1/DTD/svg11.dtd">
<!-- Generated by graphviz version 12.1.2 (20240928.0832)
 -->
<!-- Title: partyType Pages: 1 -->
<svg width="664pt" height="848pt"
 viewBox="0.00 0.00 663.76 848.40" xmlns="http://www.w3.org/2000/svg" xmlns:xlink="http://www.w3.org/1999/xlink">
<g id="graph0" class="graph" transform="scale(1 1) rotate(0) translate(4 844.4)">
<title>partyType</title>
<polygon fill="white" stroke="none" points="-4,4 -4,-844.4 659.76,-844.4 659.76,4 -4,4"/>
<!-- partyType -->
<g id="node1" class="node">
<title>partyType</title>
<polygon fill="#efefef" stroke="none" points="80.16,-138.6 80.16,-174.2 292.61,-174.2 292.61,-138.6 80.16,-138.6"/>
<polygon fill="none" stroke="black" points="80.16,-138.6 80.16,-174.2 292.61,-174.2 292.61,-138.6 80.16,-138.6"/>
<text text-anchor="start" x="87.16" y="-152" font-family="Arial Bold" font-size="18.00">partyType</text>
<text text-anchor="start" x="161.13" y="-152" font-family="Arial" font-size="14.00">    </text>
<text text-anchor="start" x="192.24" y="-152" font-family="Arial" font-size="14.00" fill="#666666">[BASE TABLE]</text>
<polygon fill="none" stroke="black" points="80.16,-107.8 80.16,-138.6 292.61,-138.6 292.61,-107.8 80.16,-107.8"/>
<text text-anchor="start" x="87.16" y="-120" font-family="Arial" font-size="14.00">partyTypeId </text>
<text text-anchor="start" x="164.97" y="-120" font-family="Arial" font-size="14.00" fill="#666666">[int unsigned]</text>
<polygon fill="none" stroke="black" points="80.16,-77 80.16,-107.8 292.61,-107.8 292.61,-77 80.16,-77"/>
<text text-anchor="start" x="87.16" y="-89.2" font-family="Arial" font-size="14.00">name </text>
<text text-anchor="start" x="126.07" y="-89.2" font-family="Arial" font-size="14.00" fill="#666666">[varchar(128)]</text>
<polygon fill="none" stroke="black" points="80.16,-46.2 80.16,-77 292.61,-77 292.61,-46.2 80.16,-46.2"/>
<text text-anchor="start" x="87.16" y="-58.4" font-family="Arial" font-size="14.00">description </text>
<text text-anchor="start" x="158.75" y="-58.4" font-family="Arial" font-size="14.00" fill="#666666">[varchar(256)]</text>
<polygon fill="none" stroke="black" stroke-width="3" points="78.66,-44.7 78.66,-175.7 294.11,-175.7 294.11,-44.7 78.66,-44.7"/>
</g>
<!-- quoteParty -->
<g id="node2" class="node">
<title>quoteParty</title>
<polygon fill="#efefef" stroke="none" points="43.2,-761.6 43.2,-797.2 329.57,-797.2 329.57,-761.6 43.2,-761.6"/>
<polygon fill="none" stroke="black" points="43.2,-761.6 43.2,-797.2 329.57,-797.2 329.57,-761.6 43.2,-761.6"/>
<text text-anchor="start" x="85.15" y="-775" font-family="Arial Bold" font-size="18.00">quoteParty</text>
<text text-anchor="start" x="163.13" y="-775" font-family="Arial" font-size="14.00">    </text>
<text text-anchor="start" x="194.25" y="-775" font-family="Arial" font-size="14.00" fill="#666666">[BASE TABLE]</text>
<polygon fill="none" stroke="black" points="43.2,-730.8 43.2,-761.6 329.57,-761.6 329.57,-730.8 43.2,-730.8"/>
<text text-anchor="start" x="50.2" y="-743" font-family="Arial" font-size="14.00">quotePartyId </text>
<text text-anchor="start" x="133.48" y="-743" font-family="Arial" font-size="14.00" fill="#666666">[bigint unsigned]</text>
<polygon fill="none" stroke="black" points="43.2,-700 43.2,-730.8 329.57,-730.8 329.57,-700 43.2,-700"/>
<text text-anchor="start" x="50.2" y="-712.2" font-family="Arial" font-size="14.00">quoteId </text>
<text text-anchor="start" x="100.8" y="-712.2" font-family="Arial" font-size="14.00" fill="#666666">[varchar(36)]</text>
<polygon fill="none" stroke="black" points="43.2,-669.2 43.2,-700 329.57,-700 329.57,-669.2 43.2,-669.2"/>
<text text-anchor="start" x="50.2" y="-681.4" font-family="Arial" font-size="14.00">partyTypeId </text>
<text text-anchor="start" x="128.01" y="-681.4" font-family="Arial" font-size="14.00" fill="#666666">[int unsigned]</text>
<polygon fill="none" stroke="black" points="43.2,-638.4 43.2,-669.2 329.57,-669.2 329.57,-638.4 43.2,-638.4"/>
<text text-anchor="start" x="50.2" y="-650.6" font-family="Arial" font-size="14.00">partyIdentifierTypeId </text>
<text text-anchor="start" x="181.71" y="-650.6" font-family="Arial" font-size="14.00" fill="#666666">[int unsigned]</text>
<polygon fill="none" stroke="black" points="43.2,-607.6 43.2,-638.4 329.57,-638.4 329.57,-607.6 43.2,-607.6"/>
<text text-anchor="start" x="50.2" y="-619.8" font-family="Arial" font-size="14.00">partyIdentifierValue </text>
<text text-anchor="start" x="174.72" y="-619.8" font-family="Arial" font-size="14.00" fill="#666666">[varchar(128)]</text>
<polygon fill="none" stroke="black" points="43.2,-576.8 43.2,-607.6 329.57,-607.6 329.57,-576.8 43.2,-576.8"/>
<text text-anchor="start" x="50.2" y="-589" font-family="Arial" font-size="14.00">partySubIdOrTypeId </text>
<text text-anchor="start" x="180.15" y="-589" font-family="Arial" font-size="14.00" fill="#666666">[varchar(128)]</text>
<polygon fill="none" stroke="black" points="43.2,-546 43.2,-576.8 329.57,-576.8 329.57,-546 43.2,-546"/>
<text text-anchor="start" x="50.2" y="-558.2" font-family="Arial" font-size="14.00">fspId </text>
<text text-anchor="start" x="84.44" y="-558.2" font-family="Arial" font-size="14.00" fill="#666666">[varchar(255)]</text>
<polygon fill="none" stroke="black" points="43.2,-515.2 43.2,-546 329.57,-546 329.57,-515.2 43.2,-515.2"/>
<text text-anchor="start" x="50.2" y="-527.4" font-family="Arial" font-size="14.00">participantId </text>
<text text-anchor="start" x="130.36" y="-527.4" font-family="Arial" font-size="14.00" fill="#666666">[int unsigned]</text>
<polygon fill="none" stroke="black" points="43.2,-484.4 43.2,-515.2 329.57,-515.2 329.57,-484.4 43.2,-484.4"/>
<text text-anchor="start" x="50.2" y="-496.6" font-family="Arial" font-size="14.00">merchantClassificationCode </text>
<text text-anchor="start" x="228.39" y="-496.6" font-family="Arial" font-size="14.00" fill="#666666">[varchar(4)]</text>
<polygon fill="none" stroke="black" points="43.2,-453.6 43.2,-484.4 329.57,-484.4 329.57,-453.6 43.2,-453.6"/>
<text text-anchor="start" x="50.2" y="-465.8" font-family="Arial" font-size="14.00">partyName </text>
<text text-anchor="start" x="122.56" y="-465.8" font-family="Arial" font-size="14.00" fill="#666666">[varchar(128)]</text>
<polygon fill="none" stroke="black" points="43.2,-422.8 43.2,-453.6 329.57,-453.6 329.57,-422.8 43.2,-422.8"/>
<text text-anchor="start" x="50.2" y="-435" font-family="Arial" font-size="14.00">transferParticipantRoleTypeId </text>
<text text-anchor="start" x="239.29" y="-435" font-family="Arial" font-size="14.00" fill="#666666">[int unsigned]</text>
<polygon fill="none" stroke="black" points="43.2,-392 43.2,-422.8 329.57,-422.8 329.57,-392 43.2,-392"/>
<text text-anchor="start" x="50.2" y="-404.2" font-family="Arial" font-size="14.00">ledgerEntryTypeId </text>
<text text-anchor="start" x="168.48" y="-404.2" font-family="Arial" font-size="14.00" fill="#666666">[int unsigned]</text>
<polygon fill="none" stroke="black" points="43.2,-361.2 43.2,-392 329.57,-392 329.57,-361.2 43.2,-361.2"/>
<text text-anchor="start" x="50.2" y="-373.4" font-family="Arial" font-size="14.00">amount </text>
<text text-anchor="start" x="100.79" y="-373.4" font-family="Arial" font-size="14.00" fill="#666666">[decimal(18,4)]</text>
<polygon fill="none" stroke="black" points="43.2,-330.4 43.2,-361.2 329.57,-361.2 329.57,-330.4 43.2,-330.4"/>
<text text-anchor="start" x="50.2" y="-342.6" font-family="Arial" font-size="14.00">currencyId </text>
<text text-anchor="start" x="119.45" y="-342.6" font-family="Arial" font-size="14.00" fill="#666666">[varchar(3)]</text>
<polygon fill="none" stroke="black" points="43.2,-299.6 43.2,-330.4 329.57,-330.4 329.57,-299.6 43.2,-299.6"/>
<text text-anchor="start" x="50.2" y="-311.8" font-family="Arial" font-size="14.00">createdDate </text>
<text text-anchor="start" x="130.36" y="-311.8" font-family="Arial" font-size="14.00" fill="#666666">[datetime]</text>
</g>
<!-- quoteParty&#45;&gt;partyType -->
<g id="edge1" class="edge">
<title>quoteParty:partyTypeId&#45;&gt;partyType:partyTypeId</title>
<path fill="none" stroke="black" d="M339.64,-680.08C389.12,-626.95 352.83,-123.2 293.61,-123.2"/>
<polygon fill="black" stroke="black" points="339.82,-679.99 328.86,-680.42 335.05,-682.37 331.17,-684.3 331.17,-684.3 331.17,-684.3 335.05,-682.37 332.88,-688.48 339.82,-679.99"/>
<text text-anchor="start" x="337.57" y="-694.6" font-family="Arial" font-size="10.00">FOREIGN KEY (partyTypeId) REFERENCES partyType (partyTypeId)</text>
</g>
</g>
</svg>
