<?xml version="1.0" encoding="UTF-8" standalone="no"?>
<!DOCTYPE svg PUBLIC "-//W3C//DTD SVG 1.1//EN"
 "http://www.w3.org/Graphics/SVG/1.1/DTD/svg11.dtd">
<!-- Generated by graphviz version 12.1.2 (20240928.0832)
 -->
<!-- Title: partyIdentifierType Pages: 1 -->
<svg width="779pt" height="848pt"
 viewBox="0.00 0.00 778.83 848.40" xmlns="http://www.w3.org/2000/svg" xmlns:xlink="http://www.w3.org/1999/xlink">
<g id="graph0" class="graph" transform="scale(1 1) rotate(0) translate(4 844.4)">
<title>partyIdentifierType</title>
<polygon fill="white" stroke="none" points="-4,4 -4,-844.4 774.83,-844.4 774.83,4 -4,4"/>
<!-- partyIdentifierType -->
<g id="node1" class="node">
<title>partyIdentifierType</title>
<polygon fill="#efefef" stroke="none" points="46.67,-138.6 46.67,-174.2 326.1,-174.2 326.1,-138.6 46.67,-138.6"/>
<polygon fill="none" stroke="black" points="46.67,-138.6 46.67,-174.2 326.1,-174.2 326.1,-138.6 46.67,-138.6"/>
<text text-anchor="start" x="53.67" y="-152" font-family="Arial Bold" font-size="18.00">partyIdentifierType</text>
<text text-anchor="start" x="194.61" y="-152" font-family="Arial" font-size="14.00">    </text>
<text text-anchor="start" x="225.72" y="-152" font-family="Arial" font-size="14.00" fill="#666666">[BASE TABLE]</text>
<polygon fill="none" stroke="black" points="46.67,-107.8 46.67,-138.6 326.1,-138.6 326.1,-107.8 46.67,-107.8"/>
<text text-anchor="start" x="53.67" y="-120" font-family="Arial" font-size="14.00">partyIdentifierTypeId </text>
<text text-anchor="start" x="185.18" y="-120" font-family="Arial" font-size="14.00" fill="#666666">[int unsigned]</text>
<polygon fill="none" stroke="black" points="46.67,-77 46.67,-107.8 326.1,-107.8 326.1,-77 46.67,-77"/>
<text text-anchor="start" x="53.67" y="-89.2" font-family="Arial" font-size="14.00">name </text>
<text text-anchor="start" x="92.58" y="-89.2" font-family="Arial" font-size="14.00" fill="#666666">[varchar(50)]</text>
<polygon fill="none" stroke="black" points="46.67,-46.2 46.67,-77 326.1,-77 326.1,-46.2 46.67,-46.2"/>
<text text-anchor="start" x="53.67" y="-58.4" font-family="Arial" font-size="14.00">description </text>
<text text-anchor="start" x="125.27" y="-58.4" font-family="Arial" font-size="14.00" fill="#666666">[varchar(512)]</text>
<polygon fill="none" stroke="black" stroke-width="3" points="45.17,-44.7 45.17,-175.7 327.6,-175.7 327.6,-44.7 45.17,-44.7"/>
</g>
<!-- quoteParty -->
<g id="node2" class="node">
<title>quoteParty</title>
<polygon fill="#efefef" stroke="none" points="43.2,-761.6 43.2,-797.2 329.57,-797.2 329.57,-761.6 43.2,-761.6"/>
<polygon fill="none" stroke="black" points="43.2,-761.6 43.2,-797.2 329.57,-797.2 329.57,-761.6 43.2,-761.6"/>
<text text-anchor="start" x="85.15" y="-775" font-family="Arial Bold" font-size="18.00">quoteParty</text>
<text text-anchor="start" x="163.13" y="-775" font-family="Arial" font-size="14.00">    </text>
<text text-anchor="start" x="194.25" y="-775" font-family="Arial" font-size="14.00" fill="#666666">[BASE TABLE]</text>
<polygon fill="none" stroke="black" points="43.2,-730.8 43.2,-761.6 329.57,-761.6 329.57,-730.8 43.2,-730.8"/>
<text text-anchor="start" x="50.2" y="-743" font-family="Arial" font-size="14.00">quotePartyId </text>
<text text-anchor="start" x="133.48" y="-743" font-family="Arial" font-size="14.00" fill="#666666">[bigint unsigned]</text>
<polygon fill="none" stroke="black" points="43.2,-700 43.2,-730.8 329.57,-730.8 329.57,-700 43.2,-700"/>
<text text-anchor="start" x="50.2" y="-712.2" font-family="Arial" font-size="14.00">quoteId </text>
<text text-anchor="start" x="100.8" y="-712.2" font-family="Arial" font-size="14.00" fill="#666666">[varchar(36)]</text>
<polygon fill="none" stroke="black" points="43.2,-669.2 43.2,-700 329.57,-700 329.57,-669.2 43.2,-669.2"/>
<text text-anchor="start" x="50.2" y="-681.4" font-family="Arial" font-size="14.00">partyTypeId </text>
<text text-anchor="start" x="128.01" y="-681.4" font-family="Arial" font-size="14.00" fill="#666666">[int unsigned]</text>
<polygon fill="none" stroke="black" points="43.2,-638.4 43.2,-669.2 329.57,-669.2 329.57,-638.4 43.2,-638.4"/>
<text text-anchor="start" x="50.2" y="-650.6" font-family="Arial" font-size="14.00">partyIdentifierTypeId </text>
<text text-anchor="start" x="181.71" y="-650.6" font-family="Arial" font-size="14.00" fill="#666666">[int unsigned]</text>
<polygon fill="none" stroke="black" points="43.2,-607.6 43.2,-638.4 329.57,-638.4 329.57,-607.6 43.2,-607.6"/>
<text text-anchor="start" x="50.2" y="-619.8" font-family="Arial" font-size="14.00">partyIdentifierValue </text>
<text text-anchor="start" x="174.72" y="-619.8" font-family="Arial" font-size="14.00" fill="#666666">[varchar(128)]</text>
<polygon fill="none" stroke="black" points="43.2,-576.8 43.2,-607.6 329.57,-607.6 329.57,-576.8 43.2,-576.8"/>
<text text-anchor="start" x="50.2" y="-589" font-family="Arial" font-size="14.00">partySubIdOrTypeId </text>
<text text-anchor="start" x="180.15" y="-589" font-family="Arial" font-size="14.00" fill="#666666">[varchar(128)]</text>
<polygon fill="none" stroke="black" points="43.2,-546 43.2,-576.8 329.57,-576.8 329.57,-546 43.2,-546"/>
<text text-anchor="start" x="50.2" y="-558.2" font-family="Arial" font-size="14.00">fspId </text>
<text text-anchor="start" x="84.44" y="-558.2" font-family="Arial" font-size="14.00" fill="#666666">[varchar(255)]</text>
<polygon fill="none" stroke="black" points="43.2,-515.2 43.2,-546 329.57,-546 329.57,-515.2 43.2,-515.2"/>
<text text-anchor="start" x="50.2" y="-527.4" font-family="Arial" font-size="14.00">participantId </text>
<text text-anchor="start" x="130.36" y="-527.4" font-family="Arial" font-size="14.00" fill="#666666">[int unsigned]</text>
<polygon fill="none" stroke="black" points="43.2,-484.4 43.2,-515.2 329.57,-515.2 329.57,-484.4 43.2,-484.4"/>
<text text-anchor="start" x="50.2" y="-496.6" font-family="Arial" font-size="14.00">merchantClassificationCode </text>
<text text-anchor="start" x="228.39" y="-496.6" font-family="Arial" font-size="14.00" fill="#666666">[varchar(4)]</text>
<polygon fill="none" stroke="black" points="43.2,-453.6 43.2,-484.4 329.57,-484.4 329.57,-453.6 43.2,-453.6"/>
<text text-anchor="start" x="50.2" y="-465.8" font-family="Arial" font-size="14.00">partyName </text>
<text text-anchor="start" x="122.56" y="-465.8" font-family="Arial" font-size="14.00" fill="#666666">[varchar(128)]</text>
<polygon fill="none" stroke="black" points="43.2,-422.8 43.2,-453.6 329.57,-453.6 329.57,-422.8 43.2,-422.8"/>
<text text-anchor="start" x="50.2" y="-435" font-family="Arial" font-size="14.00">transferParticipantRoleTypeId </text>
<text text-anchor="start" x="239.29" y="-435" font-family="Arial" font-size="14.00" fill="#666666">[int unsigned]</text>
<polygon fill="none" stroke="black" points="43.2,-392 43.2,-422.8 329.57,-422.8 329.57,-392 43.2,-392"/>
<text text-anchor="start" x="50.2" y="-404.2" font-family="Arial" font-size="14.00">ledgerEntryTypeId </text>
<text text-anchor="start" x="168.48" y="-404.2" font-family="Arial" font-size="14.00" fill="#666666">[int unsigned]</text>
<polygon fill="none" stroke="black" points="43.2,-361.2 43.2,-392 329.57,-392 329.57,-361.2 43.2,-361.2"/>
<text text-anchor="start" x="50.2" y="-373.4" font-family="Arial" font-size="14.00">amount </text>
<text text-anchor="start" x="100.79" y="-373.4" font-family="Arial" font-size="14.00" fill="#666666">[decimal(18,4)]</text>
<polygon fill="none" stroke="black" points="43.2,-330.4 43.2,-361.2 329.57,-361.2 329.57,-330.4 43.2,-330.4"/>
<text text-anchor="start" x="50.2" y="-342.6" font-family="Arial" font-size="14.00">currencyId </text>
<text text-anchor="start" x="119.45" y="-342.6" font-family="Arial" font-size="14.00" fill="#666666">[varchar(3)]</text>
<polygon fill="none" stroke="black" points="43.2,-299.6 43.2,-330.4 329.57,-330.4 329.57,-299.6 43.2,-299.6"/>
<text text-anchor="start" x="50.2" y="-311.8" font-family="Arial" font-size="14.00">createdDate </text>
<text text-anchor="start" x="130.36" y="-311.8" font-family="Arial" font-size="14.00" fill="#666666">[datetime]</text>
</g>
<!-- quoteParty&#45;&gt;partyIdentifierType -->
<g id="edge1" class="edge">
<title>quoteParty:partyIdentifierTypeId&#45;&gt;partyIdentifierType:partyIdentifierTypeId</title>
<path fill="none" stroke="black" d="M339.68,-649.21C388.98,-597.35 382.83,-123.2 327.1,-123.2"/>
<polygon fill="black" stroke="black" points="339.8,-649.15 328.85,-649.63 335.04,-651.55 331.17,-653.5 331.17,-653.5 331.17,-653.5 335.04,-651.55 332.89,-657.67 339.8,-649.15"/>
<text text-anchor="start" x="337.57" y="-663.8" font-family="Arial" font-size="10.00">FOREIGN KEY (partyIdentifierTypeId) REFERENCES partyIdentifierType (partyIdentifierTypeId)</text>
</g>
</g>
</svg>
