<?xml version="1.0" encoding="UTF-8" standalone="no"?>
<!DOCTYPE svg PUBLIC "-//W3C//DTD SVG 1.1//EN"
 "http://www.w3.org/Graphics/SVG/1.1/DTD/svg11.dtd">
<!-- Generated by graphviz version 12.1.2 (20240928.0832)
 -->
<!-- Title: partyType Pages: 1 -->
<svg width="1112pt" height="571pt"
 viewBox="0.00 0.00 1111.97 571.20" xmlns="http://www.w3.org/2000/svg" xmlns:xlink="http://www.w3.org/1999/xlink">
<g id="graph0" class="graph" transform="scale(1 1) rotate(0) translate(4 567.2)">
<title>partyType</title>
<polygon fill="white" stroke="none" points="-4,4 -4,-567.2 1107.97,-567.2 1107.97,4 -4,4"/>
<!-- partyType -->
<g id="node1" class="node">
<title>partyType</title>
<polygon fill="#efefef" stroke="none" points="304.26,-77 304.26,-112.6 516.72,-112.6 516.72,-77 304.26,-77"/>
<polygon fill="none" stroke="black" points="304.26,-77 304.26,-112.6 516.72,-112.6 516.72,-77 304.26,-77"/>
<text text-anchor="start" x="311.26" y="-90.4" font-family="Arial Bold" font-size="18.00">partyType</text>
<text text-anchor="start" x="385.23" y="-90.4" font-family="Arial" font-size="14.00">    </text>
<text text-anchor="start" x="416.35" y="-90.4" font-family="Arial" font-size="14.00" fill="#666666">[BASE TABLE]</text>
<polygon fill="none" stroke="black" points="304.26,-46.2 304.26,-77 516.72,-77 516.72,-46.2 304.26,-46.2"/>
<text text-anchor="start" x="311.26" y="-58.4" font-family="Arial" font-size="14.00">partyTypeId </text>
<text text-anchor="start" x="389.08" y="-58.4" font-family="Arial" font-size="14.00" fill="#666666">[int unsigned]</text>
<polygon fill="none" stroke="black" stroke-width="3" points="302.76,-44.7 302.76,-114.1 518.22,-114.1 518.22,-44.7 302.76,-44.7"/>
</g>
<!-- quoteParty -->
<g id="node2" class="node">
<title>quoteParty</title>
<polygon fill="#efefef" stroke="none" points="43.2,-484.4 43.2,-520 777.78,-520 777.78,-484.4 43.2,-484.4"/>
<polygon fill="none" stroke="black" points="43.2,-484.4 43.2,-520 777.78,-520 777.78,-484.4 43.2,-484.4"/>
<text text-anchor="start" x="309.25" y="-497.8" font-family="Arial Bold" font-size="18.00">quoteParty</text>
<text text-anchor="start" x="387.24" y="-497.8" font-family="Arial" font-size="14.00">    </text>
<text text-anchor="start" x="418.36" y="-497.8" font-family="Arial" font-size="14.00" fill="#666666">[BASE TABLE]</text>
<polygon fill="none" stroke="black" points="43.2,-453.6 43.2,-484.4 777.78,-484.4 777.78,-453.6 43.2,-453.6"/>
<text text-anchor="start" x="50.2" y="-465.8" font-family="Arial" font-size="14.00">quotePartyId </text>
<text text-anchor="start" x="133.48" y="-465.8" font-family="Arial" font-size="14.00" fill="#666666">[bigint unsigned]</text>
<polygon fill="none" stroke="black" points="43.2,-422.8 43.2,-453.6 777.78,-453.6 777.78,-422.8 43.2,-422.8"/>
<text text-anchor="start" x="50.2" y="-435" font-family="Arial" font-size="14.00">quoteId </text>
<text text-anchor="start" x="100.8" y="-435" font-family="Arial" font-size="14.00" fill="#666666">[varchar(36)]</text>
<text text-anchor="start" x="180.16" y="-435" font-family="Arial" font-size="14.00"> Common ID between the FSPs for the quote object, decided by the Payer FSP</text>
<polygon fill="none" stroke="black" points="43.2,-392 43.2,-422.8 777.78,-422.8 777.78,-392 43.2,-392"/>
<text text-anchor="start" x="50.2" y="-404.2" font-family="Arial" font-size="14.00">partyTypeId </text>
<text text-anchor="start" x="128.01" y="-404.2" font-family="Arial" font-size="14.00" fill="#666666">[int unsigned]</text>
<text text-anchor="start" x="211.3" y="-404.2" font-family="Arial" font-size="14.00"> Specifies the type of party this row relates to; typically PAYER or PAYEE</text>
<polygon fill="none" stroke="black" points="43.2,-361.2 43.2,-392 777.78,-392 777.78,-361.2 43.2,-361.2"/>
<text text-anchor="start" x="50.2" y="-373.4" font-family="Arial" font-size="14.00">partyIdentifierTypeId </text>
<text text-anchor="start" x="181.71" y="-373.4" font-family="Arial" font-size="14.00" fill="#666666">[int unsigned]</text>
<text text-anchor="start" x="264.99" y="-373.4" font-family="Arial" font-size="14.00"> Specifies the type of identifier used to identify this party e.g. MSISDN, IBAN etc...</text>
<polygon fill="none" stroke="black" points="43.2,-330.4 43.2,-361.2 777.78,-361.2 777.78,-330.4 43.2,-330.4"/>
<text text-anchor="start" x="50.2" y="-342.6" font-family="Arial" font-size="14.00">participantId </text>
<text text-anchor="start" x="130.36" y="-342.6" font-family="Arial" font-size="14.00" fill="#666666">[int unsigned]</text>
<text text-anchor="start" x="213.64" y="-342.6" font-family="Arial" font-size="14.00"> Reference to the resolved FSP ID (if supplied/known). If not an error will be reported</text>
<polygon fill="none" stroke="black" points="43.2,-299.6 43.2,-330.4 777.78,-330.4 777.78,-299.6 43.2,-299.6"/>
<text text-anchor="start" x="50.2" y="-311.8" font-family="Arial" font-size="14.00">transferParticipantRoleTypeId </text>
<text text-anchor="start" x="239.29" y="-311.8" font-family="Arial" font-size="14.00" fill="#666666">[int unsigned]</text>
<text text-anchor="start" x="322.57" y="-311.8" font-family="Arial" font-size="14.00"> The role this Party is playing in the transaction</text>
<polygon fill="none" stroke="black" points="43.2,-268.8 43.2,-299.6 777.78,-299.6 777.78,-268.8 43.2,-268.8"/>
<text text-anchor="start" x="50.2" y="-281" font-family="Arial" font-size="14.00">ledgerEntryTypeId </text>
<text text-anchor="start" x="168.48" y="-281" font-family="Arial" font-size="14.00" fill="#666666">[int unsigned]</text>
<text text-anchor="start" x="251.76" y="-281" font-family="Arial" font-size="14.00"> The type of financial entry this Party is presenting</text>
<polygon fill="none" stroke="black" points="43.2,-238 43.2,-268.8 777.78,-268.8 777.78,-238 43.2,-238"/>
<text text-anchor="start" x="50.2" y="-250.2" font-family="Arial" font-size="14.00">currencyId </text>
<text text-anchor="start" x="119.45" y="-250.2" font-family="Arial" font-size="14.00" fill="#666666">[varchar(3)]</text>
<text text-anchor="start" x="191.02" y="-250.2" font-family="Arial" font-size="14.00"> Trading currency pertaining to the party amount</text>
</g>
<!-- quoteParty&#45;&gt;partyType -->
<g id="edge1" class="edge">
<title>quoteParty:partyTypeId&#45;&gt;partyType:partyTypeId</title>
<path fill="none" stroke="black" d="M789.2,-406.82C869.27,-397.39 820.13,-275.12 777.78,-194.8 723.63,-92.09 673.64,-81.16 562.92,-46.2 498.32,-25.8 410.49,22.55 410.49,-45.2"/>
<polygon fill="black" stroke="black" points="789.1,-406.83 778.87,-402.89 783.78,-407.12 779.45,-407.36 779.45,-407.36 779.45,-407.36 783.78,-407.12 779.37,-411.87 789.1,-406.83"/>
<text text-anchor="start" x="785.78" y="-417.4" font-family="Arial" font-size="10.00">FOREIGN KEY (partyTypeId) REFERENCES partyType (partyTypeId)</text>
</g>
</g>
</svg>
