<?xml version="1.0" encoding="UTF-8" standalone="no"?>
<!DOCTYPE svg PUBLIC "-//W3C//DTD SVG 1.1//EN"
 "http://www.w3.org/Graphics/SVG/1.1/DTD/svg11.dtd">
<!-- Generated by graphviz version 12.1.2 (20240928.0832)
 -->
<!-- Title: participantLimitType Pages: 1 -->
<svg width="866pt" height="725pt"
 viewBox="0.00 0.00 865.77 725.20" xmlns="http://www.w3.org/2000/svg" xmlns:xlink="http://www.w3.org/1999/xlink">
<g id="graph0" class="graph" transform="scale(1 1) rotate(0) translate(4 721.2)">
<title>participantLimitType</title>
<polygon fill="white" stroke="none" points="-4,4 -4,-721.2 861.77,-721.2 861.77,4 -4,4"/>
<!-- participantLimitType -->
<g id="node1" class="node">
<title>participantLimitType</title>
<polygon fill="#efefef" stroke="none" points="73.64,-200.2 73.64,-235.8 366.08,-235.8 366.08,-200.2 73.64,-200.2"/>
<polygon fill="none" stroke="black" points="73.64,-200.2 73.64,-235.8 366.08,-235.8 366.08,-200.2 73.64,-200.2"/>
<text text-anchor="start" x="80.64" y="-213.6" font-family="Arial Bold" font-size="18.00">participantLimitType</text>
<text text-anchor="start" x="234.59" y="-213.6" font-family="Arial" font-size="14.00">    </text>
<text text-anchor="start" x="265.7" y="-213.6" font-family="Arial" font-size="14.00" fill="#666666">[BASE TABLE]</text>
<polygon fill="none" stroke="black" points="73.64,-169.4 73.64,-200.2 366.08,-200.2 366.08,-169.4 73.64,-169.4"/>
<text text-anchor="start" x="80.64" y="-181.6" font-family="Arial" font-size="14.00">participantLimitTypeId </text>
<text text-anchor="start" x="221.48" y="-181.6" font-family="Arial" font-size="14.00" fill="#666666">[int unsigned]</text>
<polygon fill="none" stroke="black" points="73.64,-138.6 73.64,-169.4 366.08,-169.4 366.08,-138.6 73.64,-138.6"/>
<text text-anchor="start" x="80.64" y="-150.8" font-family="Arial" font-size="14.00">name </text>
<text text-anchor="start" x="119.55" y="-150.8" font-family="Arial" font-size="14.00" fill="#666666">[varchar(50)]</text>
<polygon fill="none" stroke="black" points="73.64,-107.8 73.64,-138.6 366.08,-138.6 366.08,-107.8 73.64,-107.8"/>
<text text-anchor="start" x="80.64" y="-120" font-family="Arial" font-size="14.00">description </text>
<text text-anchor="start" x="152.23" y="-120" font-family="Arial" font-size="14.00" fill="#666666">[varchar(512)]</text>
<polygon fill="none" stroke="black" points="73.64,-77 73.64,-107.8 366.08,-107.8 366.08,-77 73.64,-77"/>
<text text-anchor="start" x="80.64" y="-89.2" font-family="Arial" font-size="14.00">isActive </text>
<text text-anchor="start" x="132.76" y="-89.2" font-family="Arial" font-size="14.00" fill="#666666">[tinyint(1)]</text>
<polygon fill="none" stroke="black" points="73.64,-46.2 73.64,-77 366.08,-77 366.08,-46.2 73.64,-46.2"/>
<text text-anchor="start" x="80.64" y="-58.4" font-family="Arial" font-size="14.00">createdDate </text>
<text text-anchor="start" x="160.8" y="-58.4" font-family="Arial" font-size="14.00" fill="#666666">[datetime]</text>
<polygon fill="none" stroke="black" stroke-width="3" points="72.14,-44.7 72.14,-237.3 367.58,-237.3 367.58,-44.7 72.14,-44.7"/>
</g>
<!-- participantLimit -->
<g id="node2" class="node">
<title>participantLimit</title>
<polygon fill="#efefef" stroke="none" points="43.2,-638.4 43.2,-674 396.52,-674 396.52,-638.4 43.2,-638.4"/>
<polygon fill="none" stroke="black" points="43.2,-638.4 43.2,-674 396.52,-674 396.52,-638.4 43.2,-638.4"/>
<text text-anchor="start" x="99.13" y="-651.8" font-family="Arial Bold" font-size="18.00">participantLimit</text>
<text text-anchor="start" x="216.1" y="-651.8" font-family="Arial" font-size="14.00">    </text>
<text text-anchor="start" x="247.21" y="-651.8" font-family="Arial" font-size="14.00" fill="#666666">[BASE TABLE]</text>
<polygon fill="none" stroke="black" points="43.2,-607.6 43.2,-638.4 396.52,-638.4 396.52,-607.6 43.2,-607.6"/>
<text text-anchor="start" x="50.2" y="-619.8" font-family="Arial" font-size="14.00">participantLimitId </text>
<text text-anchor="start" x="159.92" y="-619.8" font-family="Arial" font-size="14.00" fill="#666666">[int unsigned]</text>
<polygon fill="none" stroke="black" points="43.2,-576.8 43.2,-607.6 396.52,-607.6 396.52,-576.8 43.2,-576.8"/>
<text text-anchor="start" x="50.2" y="-589" font-family="Arial" font-size="14.00">participantCurrencyId </text>
<text text-anchor="start" x="187.15" y="-589" font-family="Arial" font-size="14.00" fill="#666666">[int unsigned]</text>
<polygon fill="none" stroke="black" points="43.2,-546 43.2,-576.8 396.52,-576.8 396.52,-546 43.2,-546"/>
<text text-anchor="start" x="50.2" y="-558.2" font-family="Arial" font-size="14.00">participantLimitTypeId </text>
<text text-anchor="start" x="191.04" y="-558.2" font-family="Arial" font-size="14.00" fill="#666666">[int unsigned]</text>
<polygon fill="none" stroke="black" points="43.2,-515.2 43.2,-546 396.52,-546 396.52,-515.2 43.2,-515.2"/>
<text text-anchor="start" x="50.2" y="-527.4" font-family="Arial" font-size="14.00">value </text>
<text text-anchor="start" x="87.56" y="-527.4" font-family="Arial" font-size="14.00" fill="#666666">[decimal(18,4)]</text>
<polygon fill="none" stroke="black" points="43.2,-484.4 43.2,-515.2 396.52,-515.2 396.52,-484.4 43.2,-484.4"/>
<text text-anchor="start" x="50.2" y="-496.6" font-family="Arial" font-size="14.00">thresholdAlarmPercentage </text>
<text text-anchor="start" x="219.85" y="-496.6" font-family="Arial" font-size="14.00" fill="#666666">[decimal(5,2)]</text>
<polygon fill="none" stroke="black" points="43.2,-453.6 43.2,-484.4 396.52,-484.4 396.52,-453.6 43.2,-453.6"/>
<text text-anchor="start" x="50.2" y="-465.8" font-family="Arial" font-size="14.00">startAfterParticipantPositionChangeId </text>
<text text-anchor="start" x="287.55" y="-465.8" font-family="Arial" font-size="14.00" fill="#666666">[bigint unsigned]</text>
<polygon fill="none" stroke="black" points="43.2,-422.8 43.2,-453.6 396.52,-453.6 396.52,-422.8 43.2,-422.8"/>
<text text-anchor="start" x="50.2" y="-435" font-family="Arial" font-size="14.00">isActive </text>
<text text-anchor="start" x="102.32" y="-435" font-family="Arial" font-size="14.00" fill="#666666">[tinyint(1)]</text>
<polygon fill="none" stroke="black" points="43.2,-392 43.2,-422.8 396.52,-422.8 396.52,-392 43.2,-392"/>
<text text-anchor="start" x="50.2" y="-404.2" font-family="Arial" font-size="14.00">createdDate </text>
<text text-anchor="start" x="130.36" y="-404.2" font-family="Arial" font-size="14.00" fill="#666666">[datetime]</text>
<polygon fill="none" stroke="black" points="43.2,-361.2 43.2,-392 396.52,-392 396.52,-361.2 43.2,-361.2"/>
<text text-anchor="start" x="50.2" y="-373.4" font-family="Arial" font-size="14.00">createdBy </text>
<text text-anchor="start" x="117.12" y="-373.4" font-family="Arial" font-size="14.00" fill="#666666">[varchar(128)]</text>
</g>
<!-- participantLimit&#45;&gt;participantLimitType -->
<g id="edge1" class="edge">
<title>participantLimit:participantLimitTypeId&#45;&gt;participantLimitType:participantLimitTypeId</title>
<path fill="none" stroke="black" d="M407.71,-559.37C478.76,-529.73 447.43,-184.8 367.08,-184.8"/>
<polygon fill="black" stroke="black" points="407.65,-559.39 396.97,-556.92 402.42,-560.43 398.17,-561.27 398.17,-561.27 398.17,-561.27 402.42,-560.43 398.72,-565.75 407.65,-559.39"/>
<text text-anchor="start" x="404.52" y="-571.4" font-family="Arial" font-size="10.00">FOREIGN KEY (participantLimitTypeId) REFERENCES participantLimitType (participantLimitTypeId)</text>
</g>
</g>
</svg>
