<?xml version="1.0" encoding="UTF-8" standalone="no"?>
<!DOCTYPE svg PUBLIC "-//W3C//DTD SVG 1.1//EN"
 "http://www.w3.org/Graphics/SVG/1.1/DTD/svg11.dtd">
<!-- Generated by graphviz version 12.1.2 (20240928.0832)
 -->
<!-- Title: participantLimit Pages: 1 -->
<svg width="1399pt" height="571pt"
 viewBox="0.00 0.00 1398.94 571.20" xmlns="http://www.w3.org/2000/svg" xmlns:xlink="http://www.w3.org/1999/xlink">
<g id="graph0" class="graph" transform="scale(1 1) rotate(0) translate(4 567.2)">
<title>participantLimit</title>
<polygon fill="white" stroke="none" points="-4,4 -4,-567.2 1394.94,-567.2 1394.94,4 -4,4"/>
<!-- participantLimit -->
<g id="node1" class="node">
<title>participantLimit</title>
<polygon fill="#efefef" stroke="none" points="452.92,-481.4 452.92,-517 806.23,-517 806.23,-481.4 452.92,-481.4"/>
<polygon fill="none" stroke="black" points="452.92,-481.4 452.92,-517 806.23,-517 806.23,-481.4 452.92,-481.4"/>
<text text-anchor="start" x="508.85" y="-494.8" font-family="Arial Bold" font-size="18.00">participantLimit</text>
<text text-anchor="start" x="625.81" y="-494.8" font-family="Arial" font-size="14.00">    </text>
<text text-anchor="start" x="656.93" y="-494.8" font-family="Arial" font-size="14.00" fill="#666666">[BASE TABLE]</text>
<polygon fill="none" stroke="black" points="452.92,-450.6 452.92,-481.4 806.23,-481.4 806.23,-450.6 452.92,-450.6"/>
<text text-anchor="start" x="459.92" y="-462.8" font-family="Arial" font-size="14.00">participantLimitId </text>
<text text-anchor="start" x="569.63" y="-462.8" font-family="Arial" font-size="14.00" fill="#666666">[int unsigned]</text>
<polygon fill="none" stroke="black" points="452.92,-419.8 452.92,-450.6 806.23,-450.6 806.23,-419.8 452.92,-419.8"/>
<text text-anchor="start" x="459.92" y="-432" font-family="Arial" font-size="14.00">participantCurrencyId </text>
<text text-anchor="start" x="596.87" y="-432" font-family="Arial" font-size="14.00" fill="#666666">[int unsigned]</text>
<polygon fill="none" stroke="black" points="452.92,-389 452.92,-419.8 806.23,-419.8 806.23,-389 452.92,-389"/>
<text text-anchor="start" x="459.92" y="-401.2" font-family="Arial" font-size="14.00">participantLimitTypeId </text>
<text text-anchor="start" x="600.76" y="-401.2" font-family="Arial" font-size="14.00" fill="#666666">[int unsigned]</text>
<polygon fill="none" stroke="black" points="452.92,-358.2 452.92,-389 806.23,-389 806.23,-358.2 452.92,-358.2"/>
<text text-anchor="start" x="459.92" y="-370.4" font-family="Arial" font-size="14.00">startAfterParticipantPositionChangeId </text>
<text text-anchor="start" x="697.27" y="-370.4" font-family="Arial" font-size="14.00" fill="#666666">[bigint unsigned]</text>
<polygon fill="none" stroke="black" stroke-width="3" points="451.42,-356.7 451.42,-518.5 807.73,-518.5 807.73,-356.7 451.42,-356.7"/>
</g>
<!-- participantCurrency -->
<g id="node2" class="node">
<title>participantCurrency</title>
<polygon fill="#efefef" stroke="none" points="96.36,-181.8 96.36,-217.4 378.79,-217.4 378.79,-181.8 96.36,-181.8"/>
<polygon fill="none" stroke="black" points="96.36,-181.8 96.36,-217.4 378.79,-217.4 378.79,-181.8 96.36,-181.8"/>
<text text-anchor="start" x="103.36" y="-195.2" font-family="Arial Bold" font-size="18.00">participantCurrency</text>
<text text-anchor="start" x="247.3" y="-195.2" font-family="Arial" font-size="14.00">    </text>
<text text-anchor="start" x="278.41" y="-195.2" font-family="Arial" font-size="14.00" fill="#666666">[BASE TABLE]</text>
<polygon fill="none" stroke="black" points="96.36,-151 96.36,-181.8 378.79,-181.8 378.79,-151 96.36,-151"/>
<text text-anchor="start" x="103.36" y="-163.2" font-family="Arial" font-size="14.00">participantCurrencyId </text>
<text text-anchor="start" x="240.31" y="-163.2" font-family="Arial" font-size="14.00" fill="#666666">[int unsigned]</text>
<polygon fill="none" stroke="black" points="96.36,-120.2 96.36,-151 378.79,-151 378.79,-120.2 96.36,-120.2"/>
<text text-anchor="start" x="103.36" y="-132.4" font-family="Arial" font-size="14.00">participantId </text>
<text text-anchor="start" x="183.52" y="-132.4" font-family="Arial" font-size="14.00" fill="#666666">[int unsigned]</text>
<polygon fill="none" stroke="black" points="96.36,-89.4 96.36,-120.2 378.79,-120.2 378.79,-89.4 96.36,-89.4"/>
<text text-anchor="start" x="103.36" y="-101.6" font-family="Arial" font-size="14.00">currencyId </text>
<text text-anchor="start" x="172.61" y="-101.6" font-family="Arial" font-size="14.00" fill="#666666">[varchar(3)]</text>
<polygon fill="none" stroke="black" points="96.36,-58.6 96.36,-89.4 378.79,-89.4 378.79,-58.6 96.36,-58.6"/>
<text text-anchor="start" x="103.36" y="-70.8" font-family="Arial" font-size="14.00">ledgerAccountTypeId </text>
<text text-anchor="start" x="239.55" y="-70.8" font-family="Arial" font-size="14.00" fill="#666666">[int unsigned]</text>
</g>
<!-- participantLimit&#45;&gt;participantCurrency -->
<g id="edge1" class="edge">
<title>participantLimit:participantCurrencyId&#45;&gt;participantCurrency:participantCurrencyId</title>
<path fill="none" stroke="black" d="M441.8,-434.52C338.23,-419.68 499.86,-166.4 379.79,-166.4"/>
<polygon fill="black" stroke="black" points="441.6,-434.51 451.28,-439.67 446.93,-434.87 451.25,-435.16 451.25,-435.16 451.25,-435.16 446.93,-434.87 451.88,-430.69 441.6,-434.51"/>
<text text-anchor="start" x="7" y="-445.2" font-family="Arial" font-size="10.00">FOREIGN KEY (participantCurrencyId) REFERENCES participantCurrency (participantCurrencyId)</text>
</g>
<!-- participantLimitType -->
<g id="node3" class="node">
<title>participantLimitType</title>
<polygon fill="#efefef" stroke="none" points="483.35,-135.6 483.35,-171.2 775.79,-171.2 775.79,-135.6 483.35,-135.6"/>
<polygon fill="none" stroke="black" points="483.35,-135.6 483.35,-171.2 775.79,-171.2 775.79,-135.6 483.35,-135.6"/>
<text text-anchor="start" x="490.35" y="-149" font-family="Arial Bold" font-size="18.00">participantLimitType</text>
<text text-anchor="start" x="644.3" y="-149" font-family="Arial" font-size="14.00">    </text>
<text text-anchor="start" x="675.42" y="-149" font-family="Arial" font-size="14.00" fill="#666666">[BASE TABLE]</text>
<polygon fill="none" stroke="black" points="483.35,-104.8 483.35,-135.6 775.79,-135.6 775.79,-104.8 483.35,-104.8"/>
<text text-anchor="start" x="490.35" y="-117" font-family="Arial" font-size="14.00">participantLimitTypeId </text>
<text text-anchor="start" x="631.19" y="-117" font-family="Arial" font-size="14.00" fill="#666666">[int unsigned]</text>
</g>
<!-- participantLimit&#45;&gt;participantLimitType -->
<g id="edge2" class="edge">
<title>participantLimit:participantLimitTypeId&#45;&gt;participantLimitType:participantLimitTypeId</title>
<path fill="none" stroke="black" d="M812.16,-395.46C825.13,-346.76 829.5,-115.36 818.99,-104.8 759.62,-45.11 629.57,-19.61 629.57,-103.8"/>
<polygon fill="black" stroke="black" points="812.22,-395.35 803.45,-401.93 809.65,-400.02 807.55,-403.81 807.55,-403.81 807.55,-403.81 809.65,-400.02 811.33,-406.28 812.22,-395.35"/>
<text text-anchor="start" x="814.23" y="-414.4" font-family="Arial" font-size="10.00">FOREIGN KEY (participantLimitTypeId) REFERENCES participantLimitType (participantLimitTypeId)</text>
</g>
<!-- participantPositionChange -->
<g id="node4" class="node">
<title>participantPositionChange</title>
<polygon fill="#efefef" stroke="none" points="879.84,-197.2 879.84,-232.8 1209.3,-232.8 1209.3,-197.2 879.84,-197.2"/>
<polygon fill="none" stroke="black" points="879.84,-197.2 879.84,-232.8 1209.3,-232.8 1209.3,-197.2 879.84,-197.2"/>
<text text-anchor="start" x="886.84" y="-210.6" font-family="Arial Bold" font-size="18.00">participantPositionChange</text>
<text text-anchor="start" x="1077.81" y="-210.6" font-family="Arial" font-size="14.00">    </text>
<text text-anchor="start" x="1108.93" y="-210.6" font-family="Arial" font-size="14.00" fill="#666666">[BASE TABLE]</text>
<polygon fill="none" stroke="black" points="879.84,-166.4 879.84,-197.2 1209.3,-197.2 1209.3,-166.4 879.84,-166.4"/>
<text text-anchor="start" x="886.84" y="-178.6" font-family="Arial" font-size="14.00">participantPositionChangeId </text>
<text text-anchor="start" x="1065.85" y="-178.6" font-family="Arial" font-size="14.00" fill="#666666">[bigint unsigned]</text>
<polygon fill="none" stroke="black" points="879.84,-135.6 879.84,-166.4 1209.3,-166.4 1209.3,-135.6 879.84,-135.6"/>
<text text-anchor="start" x="886.84" y="-147.8" font-family="Arial" font-size="14.00">participantPositionId </text>
<text text-anchor="start" x="1016.81" y="-147.8" font-family="Arial" font-size="14.00" fill="#666666">[bigint unsigned]</text>
<polygon fill="none" stroke="black" points="879.84,-104.8 879.84,-135.6 1209.3,-135.6 1209.3,-104.8 879.84,-104.8"/>
<text text-anchor="start" x="886.84" y="-117" font-family="Arial" font-size="14.00">transferStateChangeId </text>
<text text-anchor="start" x="1031.6" y="-117" font-family="Arial" font-size="14.00" fill="#666666">[bigint unsigned]</text>
<polygon fill="none" stroke="black" points="879.84,-74 879.84,-104.8 1209.3,-104.8 1209.3,-74 879.84,-74"/>
<text text-anchor="start" x="886.84" y="-86.2" font-family="Arial" font-size="14.00">participantCurrencyId </text>
<text text-anchor="start" x="1023.79" y="-86.2" font-family="Arial" font-size="14.00" fill="#666666">[int unsigned]</text>
<polygon fill="none" stroke="black" points="879.84,-43.2 879.84,-74 1209.3,-74 1209.3,-43.2 879.84,-43.2"/>
<text text-anchor="start" x="886.84" y="-55.4" font-family="Arial" font-size="14.00">fxTransferStateChangeId </text>
<text text-anchor="start" x="1047.15" y="-55.4" font-family="Arial" font-size="14.00" fill="#666666">[bigint unsigned]</text>
</g>
<!-- participantLimit&#45;&gt;participantPositionChange -->
<g id="edge3" class="edge">
<title>participantLimit:startAfterParticipantPositionChangeId&#45;&gt;participantPositionChange:participantPositionChangeId</title>
<path fill="none" stroke="black" d="M817.44,-372.66C889.51,-358.19 791.58,-181.8 878.84,-181.8"/>
<polygon fill="black" stroke="black" points="817.52,-372.65 807.15,-369.09 812.21,-373.14 807.9,-373.54 807.9,-373.54 807.9,-373.54 812.21,-373.14 807.98,-378.05 817.52,-372.65"/>
<text text-anchor="start" x="814.23" y="-383.6" font-family="Arial" font-size="10.00">FOREIGN KEY (startAfterParticipantPositionChangeId) REFERENCES participantPositionChange (participantPositionChangeId)</text>
</g>
</g>
</svg>
