<?xml version="1.0" encoding="UTF-8" standalone="no"?>
<!DOCTYPE svg PUBLIC "-//W3C//DTD SVG 1.1//EN"
 "http://www.w3.org/Graphics/SVG/1.1/DTD/svg11.dtd">
<!-- Generated by graphviz version 12.1.2 (20240928.0832)
 -->
<!-- Title: participantLimit Pages: 1 -->
<svg width="1399pt" height="848pt"
 viewBox="0.00 0.00 1398.94 848.40" xmlns="http://www.w3.org/2000/svg" xmlns:xlink="http://www.w3.org/1999/xlink">
<g id="graph0" class="graph" transform="scale(1 1) rotate(0) translate(4 844.4)">
<title>participantLimit</title>
<polygon fill="white" stroke="none" points="-4,4 -4,-844.4 1394.94,-844.4 1394.94,4 -4,4"/>
<!-- participantLimit -->
<g id="node1" class="node">
<title>participantLimit</title>
<polygon fill="#efefef" stroke="none" points="452.92,-758.6 452.92,-794.2 806.23,-794.2 806.23,-758.6 452.92,-758.6"/>
<polygon fill="none" stroke="black" points="452.92,-758.6 452.92,-794.2 806.23,-794.2 806.23,-758.6 452.92,-758.6"/>
<text text-anchor="start" x="508.85" y="-772" font-family="Arial Bold" font-size="18.00">participantLimit</text>
<text text-anchor="start" x="625.81" y="-772" font-family="Arial" font-size="14.00">    </text>
<text text-anchor="start" x="656.93" y="-772" font-family="Arial" font-size="14.00" fill="#666666">[BASE TABLE]</text>
<polygon fill="none" stroke="black" points="452.92,-727.8 452.92,-758.6 806.23,-758.6 806.23,-727.8 452.92,-727.8"/>
<text text-anchor="start" x="459.92" y="-740" font-family="Arial" font-size="14.00">participantLimitId </text>
<text text-anchor="start" x="569.63" y="-740" font-family="Arial" font-size="14.00" fill="#666666">[int unsigned]</text>
<polygon fill="none" stroke="black" points="452.92,-697 452.92,-727.8 806.23,-727.8 806.23,-697 452.92,-697"/>
<text text-anchor="start" x="459.92" y="-709.2" font-family="Arial" font-size="14.00">participantCurrencyId </text>
<text text-anchor="start" x="596.87" y="-709.2" font-family="Arial" font-size="14.00" fill="#666666">[int unsigned]</text>
<polygon fill="none" stroke="black" points="452.92,-666.2 452.92,-697 806.23,-697 806.23,-666.2 452.92,-666.2"/>
<text text-anchor="start" x="459.92" y="-678.4" font-family="Arial" font-size="14.00">participantLimitTypeId </text>
<text text-anchor="start" x="600.76" y="-678.4" font-family="Arial" font-size="14.00" fill="#666666">[int unsigned]</text>
<polygon fill="none" stroke="black" points="452.92,-635.4 452.92,-666.2 806.23,-666.2 806.23,-635.4 452.92,-635.4"/>
<text text-anchor="start" x="459.92" y="-647.6" font-family="Arial" font-size="14.00">value </text>
<text text-anchor="start" x="497.27" y="-647.6" font-family="Arial" font-size="14.00" fill="#666666">[decimal(18,4)]</text>
<polygon fill="none" stroke="black" points="452.92,-604.6 452.92,-635.4 806.23,-635.4 806.23,-604.6 452.92,-604.6"/>
<text text-anchor="start" x="459.92" y="-616.8" font-family="Arial" font-size="14.00">thresholdAlarmPercentage </text>
<text text-anchor="start" x="629.56" y="-616.8" font-family="Arial" font-size="14.00" fill="#666666">[decimal(5,2)]</text>
<polygon fill="none" stroke="black" points="452.92,-573.8 452.92,-604.6 806.23,-604.6 806.23,-573.8 452.92,-573.8"/>
<text text-anchor="start" x="459.92" y="-586" font-family="Arial" font-size="14.00">startAfterParticipantPositionChangeId </text>
<text text-anchor="start" x="697.27" y="-586" font-family="Arial" font-size="14.00" fill="#666666">[bigint unsigned]</text>
<polygon fill="none" stroke="black" points="452.92,-543 452.92,-573.8 806.23,-573.8 806.23,-543 452.92,-543"/>
<text text-anchor="start" x="459.92" y="-555.2" font-family="Arial" font-size="14.00">isActive </text>
<text text-anchor="start" x="512.04" y="-555.2" font-family="Arial" font-size="14.00" fill="#666666">[tinyint(1)]</text>
<polygon fill="none" stroke="black" points="452.92,-512.2 452.92,-543 806.23,-543 806.23,-512.2 452.92,-512.2"/>
<text text-anchor="start" x="459.92" y="-524.4" font-family="Arial" font-size="14.00">createdDate </text>
<text text-anchor="start" x="540.07" y="-524.4" font-family="Arial" font-size="14.00" fill="#666666">[datetime]</text>
<polygon fill="none" stroke="black" points="452.92,-481.4 452.92,-512.2 806.23,-512.2 806.23,-481.4 452.92,-481.4"/>
<text text-anchor="start" x="459.92" y="-493.6" font-family="Arial" font-size="14.00">createdBy </text>
<text text-anchor="start" x="526.84" y="-493.6" font-family="Arial" font-size="14.00" fill="#666666">[varchar(128)]</text>
<polygon fill="none" stroke="black" stroke-width="3" points="451.42,-479.9 451.42,-795.7 807.73,-795.7 807.73,-479.9 451.42,-479.9"/>
</g>
<!-- participantCurrency -->
<g id="node2" class="node">
<title>participantCurrency</title>
<polygon fill="#efefef" stroke="none" points="96.36,-289.6 96.36,-325.2 378.79,-325.2 378.79,-289.6 96.36,-289.6"/>
<polygon fill="none" stroke="black" points="96.36,-289.6 96.36,-325.2 378.79,-325.2 378.79,-289.6 96.36,-289.6"/>
<text text-anchor="start" x="103.36" y="-303" font-family="Arial Bold" font-size="18.00">participantCurrency</text>
<text text-anchor="start" x="247.3" y="-303" font-family="Arial" font-size="14.00">    </text>
<text text-anchor="start" x="278.41" y="-303" font-family="Arial" font-size="14.00" fill="#666666">[BASE TABLE]</text>
<polygon fill="none" stroke="black" points="96.36,-258.8 96.36,-289.6 378.79,-289.6 378.79,-258.8 96.36,-258.8"/>
<text text-anchor="start" x="103.36" y="-271" font-family="Arial" font-size="14.00">participantCurrencyId </text>
<text text-anchor="start" x="240.31" y="-271" font-family="Arial" font-size="14.00" fill="#666666">[int unsigned]</text>
<polygon fill="none" stroke="black" points="96.36,-228 96.36,-258.8 378.79,-258.8 378.79,-228 96.36,-228"/>
<text text-anchor="start" x="103.36" y="-240.2" font-family="Arial" font-size="14.00">participantId </text>
<text text-anchor="start" x="183.52" y="-240.2" font-family="Arial" font-size="14.00" fill="#666666">[int unsigned]</text>
<polygon fill="none" stroke="black" points="96.36,-197.2 96.36,-228 378.79,-228 378.79,-197.2 96.36,-197.2"/>
<text text-anchor="start" x="103.36" y="-209.4" font-family="Arial" font-size="14.00">currencyId </text>
<text text-anchor="start" x="172.61" y="-209.4" font-family="Arial" font-size="14.00" fill="#666666">[varchar(3)]</text>
<polygon fill="none" stroke="black" points="96.36,-166.4 96.36,-197.2 378.79,-197.2 378.79,-166.4 96.36,-166.4"/>
<text text-anchor="start" x="103.36" y="-178.6" font-family="Arial" font-size="14.00">ledgerAccountTypeId </text>
<text text-anchor="start" x="239.55" y="-178.6" font-family="Arial" font-size="14.00" fill="#666666">[int unsigned]</text>
<polygon fill="none" stroke="black" points="96.36,-135.6 96.36,-166.4 378.79,-166.4 378.79,-135.6 96.36,-135.6"/>
<text text-anchor="start" x="103.36" y="-147.8" font-family="Arial" font-size="14.00">isActive </text>
<text text-anchor="start" x="155.48" y="-147.8" font-family="Arial" font-size="14.00" fill="#666666">[tinyint(1)]</text>
<polygon fill="none" stroke="black" points="96.36,-104.8 96.36,-135.6 378.79,-135.6 378.79,-104.8 96.36,-104.8"/>
<text text-anchor="start" x="103.36" y="-117" font-family="Arial" font-size="14.00">createdDate </text>
<text text-anchor="start" x="183.52" y="-117" font-family="Arial" font-size="14.00" fill="#666666">[datetime]</text>
<polygon fill="none" stroke="black" points="96.36,-74 96.36,-104.8 378.79,-104.8 378.79,-74 96.36,-74"/>
<text text-anchor="start" x="103.36" y="-86.2" font-family="Arial" font-size="14.00">createdBy </text>
<text text-anchor="start" x="170.28" y="-86.2" font-family="Arial" font-size="14.00" fill="#666666">[varchar(128)]</text>
</g>
<!-- participantLimit&#45;&gt;participantCurrency -->
<g id="edge1" class="edge">
<title>participantLimit:participantCurrencyId&#45;&gt;participantCurrency:participantCurrencyId</title>
<path fill="none" stroke="black" d="M441.83,-710.63C362.21,-680.48 474.81,-274.2 379.79,-274.2"/>
<polygon fill="black" stroke="black" points="441.74,-710.62 450.81,-716.77 446.99,-711.54 451.26,-712.28 451.26,-712.28 451.26,-712.28 446.99,-711.54 452.36,-707.91 441.74,-710.62"/>
<text text-anchor="start" x="7" y="-722.4" font-family="Arial" font-size="10.00">FOREIGN KEY (participantCurrencyId) REFERENCES participantCurrency (participantCurrencyId)</text>
</g>
<!-- participantLimitType -->
<g id="node3" class="node">
<title>participantLimitType</title>
<polygon fill="#efefef" stroke="none" points="483.35,-258.8 483.35,-294.4 775.79,-294.4 775.79,-258.8 483.35,-258.8"/>
<polygon fill="none" stroke="black" points="483.35,-258.8 483.35,-294.4 775.79,-294.4 775.79,-258.8 483.35,-258.8"/>
<text text-anchor="start" x="490.35" y="-272.2" font-family="Arial Bold" font-size="18.00">participantLimitType</text>
<text text-anchor="start" x="644.3" y="-272.2" font-family="Arial" font-size="14.00">    </text>
<text text-anchor="start" x="675.42" y="-272.2" font-family="Arial" font-size="14.00" fill="#666666">[BASE TABLE]</text>
<polygon fill="none" stroke="black" points="483.35,-228 483.35,-258.8 775.79,-258.8 775.79,-228 483.35,-228"/>
<text text-anchor="start" x="490.35" y="-240.2" font-family="Arial" font-size="14.00">participantLimitTypeId </text>
<text text-anchor="start" x="631.19" y="-240.2" font-family="Arial" font-size="14.00" fill="#666666">[int unsigned]</text>
<polygon fill="none" stroke="black" points="483.35,-197.2 483.35,-228 775.79,-228 775.79,-197.2 483.35,-197.2"/>
<text text-anchor="start" x="490.35" y="-209.4" font-family="Arial" font-size="14.00">name </text>
<text text-anchor="start" x="529.26" y="-209.4" font-family="Arial" font-size="14.00" fill="#666666">[varchar(50)]</text>
<polygon fill="none" stroke="black" points="483.35,-166.4 483.35,-197.2 775.79,-197.2 775.79,-166.4 483.35,-166.4"/>
<text text-anchor="start" x="490.35" y="-178.6" font-family="Arial" font-size="14.00">description </text>
<text text-anchor="start" x="561.95" y="-178.6" font-family="Arial" font-size="14.00" fill="#666666">[varchar(512)]</text>
<polygon fill="none" stroke="black" points="483.35,-135.6 483.35,-166.4 775.79,-166.4 775.79,-135.6 483.35,-135.6"/>
<text text-anchor="start" x="490.35" y="-147.8" font-family="Arial" font-size="14.00">isActive </text>
<text text-anchor="start" x="542.48" y="-147.8" font-family="Arial" font-size="14.00" fill="#666666">[tinyint(1)]</text>
<polygon fill="none" stroke="black" points="483.35,-104.8 483.35,-135.6 775.79,-135.6 775.79,-104.8 483.35,-104.8"/>
<text text-anchor="start" x="490.35" y="-117" font-family="Arial" font-size="14.00">createdDate </text>
<text text-anchor="start" x="570.51" y="-117" font-family="Arial" font-size="14.00" fill="#666666">[datetime]</text>
</g>
<!-- participantLimit&#45;&gt;participantLimitType -->
<g id="edge2" class="edge">
<title>participantLimit:participantLimitTypeId&#45;&gt;participantLimitType:participantLimitTypeId</title>
<path fill="none" stroke="black" d="M815.92,-676.06C851.91,-625.33 822.36,-243.4 776.79,-243.4"/>
<polygon fill="black" stroke="black" points="815.95,-676.05 805.09,-677.63 811.45,-678.91 807.79,-681.24 807.79,-681.24 807.79,-681.24 811.45,-678.91 809.93,-685.21 815.95,-676.05"/>
<text text-anchor="start" x="814.23" y="-691.6" font-family="Arial" font-size="10.00">FOREIGN KEY (participantLimitTypeId) REFERENCES participantLimitType (participantLimitTypeId)</text>
</g>
<!-- participantPositionChange -->
<g id="node4" class="node">
<title>participantPositionChange</title>
<polygon fill="#efefef" stroke="none" points="879.84,-320.4 879.84,-356 1209.3,-356 1209.3,-320.4 879.84,-320.4"/>
<polygon fill="none" stroke="black" points="879.84,-320.4 879.84,-356 1209.3,-356 1209.3,-320.4 879.84,-320.4"/>
<text text-anchor="start" x="886.84" y="-333.8" font-family="Arial Bold" font-size="18.00">participantPositionChange</text>
<text text-anchor="start" x="1077.81" y="-333.8" font-family="Arial" font-size="14.00">    </text>
<text text-anchor="start" x="1108.93" y="-333.8" font-family="Arial" font-size="14.00" fill="#666666">[BASE TABLE]</text>
<polygon fill="none" stroke="black" points="879.84,-289.6 879.84,-320.4 1209.3,-320.4 1209.3,-289.6 879.84,-289.6"/>
<text text-anchor="start" x="886.84" y="-301.8" font-family="Arial" font-size="14.00">participantPositionChangeId </text>
<text text-anchor="start" x="1065.85" y="-301.8" font-family="Arial" font-size="14.00" fill="#666666">[bigint unsigned]</text>
<polygon fill="none" stroke="black" points="879.84,-258.8 879.84,-289.6 1209.3,-289.6 1209.3,-258.8 879.84,-258.8"/>
<text text-anchor="start" x="886.84" y="-271" font-family="Arial" font-size="14.00">participantPositionId </text>
<text text-anchor="start" x="1016.81" y="-271" font-family="Arial" font-size="14.00" fill="#666666">[bigint unsigned]</text>
<polygon fill="none" stroke="black" points="879.84,-228 879.84,-258.8 1209.3,-258.8 1209.3,-228 879.84,-228"/>
<text text-anchor="start" x="886.84" y="-240.2" font-family="Arial" font-size="14.00">transferStateChangeId </text>
<text text-anchor="start" x="1031.6" y="-240.2" font-family="Arial" font-size="14.00" fill="#666666">[bigint unsigned]</text>
<polygon fill="none" stroke="black" points="879.84,-197.2 879.84,-228 1209.3,-228 1209.3,-197.2 879.84,-197.2"/>
<text text-anchor="start" x="886.84" y="-209.4" font-family="Arial" font-size="14.00">value </text>
<text text-anchor="start" x="924.2" y="-209.4" font-family="Arial" font-size="14.00" fill="#666666">[decimal(18,4)]</text>
<polygon fill="none" stroke="black" points="879.84,-166.4 879.84,-197.2 1209.3,-197.2 1209.3,-166.4 879.84,-166.4"/>
<text text-anchor="start" x="886.84" y="-178.6" font-family="Arial" font-size="14.00">reservedValue </text>
<text text-anchor="start" x="981.01" y="-178.6" font-family="Arial" font-size="14.00" fill="#666666">[decimal(18,4)]</text>
<polygon fill="none" stroke="black" points="879.84,-135.6 879.84,-166.4 1209.3,-166.4 1209.3,-135.6 879.84,-135.6"/>
<text text-anchor="start" x="886.84" y="-147.8" font-family="Arial" font-size="14.00">createdDate </text>
<text text-anchor="start" x="967" y="-147.8" font-family="Arial" font-size="14.00" fill="#666666">[datetime]</text>
<polygon fill="none" stroke="black" points="879.84,-104.8 879.84,-135.6 1209.3,-135.6 1209.3,-104.8 879.84,-104.8"/>
<text text-anchor="start" x="886.84" y="-117" font-family="Arial" font-size="14.00">participantCurrencyId </text>
<text text-anchor="start" x="1023.79" y="-117" font-family="Arial" font-size="14.00" fill="#666666">[int unsigned]</text>
<polygon fill="none" stroke="black" points="879.84,-74 879.84,-104.8 1209.3,-104.8 1209.3,-74 879.84,-74"/>
<text text-anchor="start" x="886.84" y="-86.2" font-family="Arial" font-size="14.00">change </text>
<text text-anchor="start" x="936.66" y="-86.2" font-family="Arial" font-size="14.00" fill="#666666">[decimal(18,4)]</text>
<polygon fill="none" stroke="black" points="879.84,-43.2 879.84,-74 1209.3,-74 1209.3,-43.2 879.84,-43.2"/>
<text text-anchor="start" x="886.84" y="-55.4" font-family="Arial" font-size="14.00">fxTransferStateChangeId </text>
<text text-anchor="start" x="1047.15" y="-55.4" font-family="Arial" font-size="14.00" fill="#666666">[bigint unsigned]</text>
</g>
<!-- participantLimit&#45;&gt;participantPositionChange -->
<g id="edge3" class="edge">
<title>participantLimit:startAfterParticipantPositionChangeId&#45;&gt;participantPositionChange:participantPositionChangeId</title>
<path fill="none" stroke="black" d="M817.54,-588.53C927.05,-573.33 752.27,-305 878.84,-305"/>
<polygon fill="black" stroke="black" points="817.54,-588.53 807.27,-584.69 812.22,-588.88 807.9,-589.16 807.9,-589.16 807.9,-589.16 812.22,-588.88 807.86,-593.67 817.54,-588.53"/>
<text text-anchor="start" x="814.23" y="-599.2" font-family="Arial" font-size="10.00">FOREIGN KEY (startAfterParticipantPositionChangeId) REFERENCES participantPositionChange (participantPositionChangeId)</text>
</g>
</g>
</svg>
