<?xml version="1.0" encoding="UTF-8" standalone="no"?>
<!DOCTYPE svg PUBLIC "-//W3C//DTD SVG 1.1//EN"
 "http://www.w3.org/Graphics/SVG/1.1/DTD/svg11.dtd">
<!-- Generated by graphviz version 12.1.2 (20240928.0832)
 -->
<!-- Title: participantContact Pages: 1 -->
<svg width="967pt" height="417pt"
 viewBox="0.00 0.00 966.88 417.20" xmlns="http://www.w3.org/2000/svg" xmlns:xlink="http://www.w3.org/1999/xlink">
<g id="graph0" class="graph" transform="scale(1 1) rotate(0) translate(4 413.2)">
<title>participantContact</title>
<polygon fill="white" stroke="none" points="-4,4 -4,-413.2 962.88,-413.2 962.88,4 -4,4"/>
<!-- participantContact -->
<g id="node1" class="node">
<title>participantContact</title>
<polygon fill="#efefef" stroke="none" points="331.22,-327.4 331.22,-363 602.66,-363 602.66,-327.4 331.22,-327.4"/>
<polygon fill="none" stroke="black" points="331.22,-327.4 331.22,-363 602.66,-363 602.66,-327.4 331.22,-327.4"/>
<text text-anchor="start" x="338.22" y="-340.8" font-family="Arial Bold" font-size="18.00">participantContact</text>
<text text-anchor="start" x="471.17" y="-340.8" font-family="Arial" font-size="14.00">    </text>
<text text-anchor="start" x="502.29" y="-340.8" font-family="Arial" font-size="14.00" fill="#666666">[BASE TABLE]</text>
<polygon fill="none" stroke="black" points="331.22,-296.6 331.22,-327.4 602.66,-327.4 602.66,-296.6 331.22,-296.6"/>
<text text-anchor="start" x="338.22" y="-308.8" font-family="Arial" font-size="14.00">participantContactId </text>
<text text-anchor="start" x="466.62" y="-308.8" font-family="Arial" font-size="14.00" fill="#666666">[int unsigned]</text>
<polygon fill="none" stroke="black" points="331.22,-265.8 331.22,-296.6 602.66,-296.6 602.66,-265.8 331.22,-265.8"/>
<text text-anchor="start" x="338.22" y="-278" font-family="Arial" font-size="14.00">participantId </text>
<text text-anchor="start" x="418.37" y="-278" font-family="Arial" font-size="14.00" fill="#666666">[int unsigned]</text>
<polygon fill="none" stroke="black" points="331.22,-235 331.22,-265.8 602.66,-265.8 602.66,-235 331.22,-235"/>
<text text-anchor="start" x="338.22" y="-247.2" font-family="Arial" font-size="14.00">contactTypeId </text>
<text text-anchor="start" x="430.04" y="-247.2" font-family="Arial" font-size="14.00" fill="#666666">[int unsigned]</text>
<polygon fill="none" stroke="black" stroke-width="3" points="329.72,-233.5 329.72,-364.5 604.16,-364.5 604.16,-233.5 329.72,-233.5"/>
</g>
<!-- participant -->
<g id="node2" class="node">
<title>participant</title>
<polygon fill="#efefef" stroke="none" points="196.21,-74 196.21,-109.6 411.66,-109.6 411.66,-74 196.21,-74"/>
<polygon fill="none" stroke="black" points="196.21,-74 196.21,-109.6 411.66,-109.6 411.66,-74 196.21,-74"/>
<text text-anchor="start" x="203.21" y="-87.4" font-family="Arial Bold" font-size="18.00">participant</text>
<text text-anchor="start" x="280.17" y="-87.4" font-family="Arial" font-size="14.00">    </text>
<text text-anchor="start" x="311.29" y="-87.4" font-family="Arial" font-size="14.00" fill="#666666">[BASE TABLE]</text>
<polygon fill="none" stroke="black" points="196.21,-43.2 196.21,-74 411.66,-74 411.66,-43.2 196.21,-43.2"/>
<text text-anchor="start" x="203.21" y="-55.4" font-family="Arial" font-size="14.00">participantId </text>
<text text-anchor="start" x="283.37" y="-55.4" font-family="Arial" font-size="14.00" fill="#666666">[int unsigned]</text>
</g>
<!-- participantContact&#45;&gt;participant -->
<g id="edge1" class="edge">
<title>participantContact:participantId&#45;&gt;participant:participantId</title>
<path fill="none" stroke="black" d="M320.22,-279.74C292.84,-270.52 310.81,-219.92 331.22,-188.8 352.7,-156.04 390.19,-185.56 411.66,-152.8 434.62,-117.79 454.53,-58.6 412.66,-58.6"/>
<polygon fill="black" stroke="black" points="319.99,-279.7 329.23,-285.6 325.27,-280.48 329.55,-281.1 329.55,-281.1 329.55,-281.1 325.27,-280.48 330.54,-276.7 319.99,-279.7"/>
<text text-anchor="start" x="7" y="-291.2" font-family="Arial" font-size="10.00">FOREIGN KEY (participantId) REFERENCES participant (participantId)</text>
</g>
<!-- contactType -->
<g id="node3" class="node">
<title>contactType</title>
<polygon fill="#efefef" stroke="none" points="516.21,-74 516.21,-109.6 743.66,-109.6 743.66,-74 516.21,-74"/>
<polygon fill="none" stroke="black" points="516.21,-74 516.21,-109.6 743.66,-109.6 743.66,-74 516.21,-74"/>
<text text-anchor="start" x="523.21" y="-87.4" font-family="Arial Bold" font-size="18.00">contactType</text>
<text text-anchor="start" x="612.17" y="-87.4" font-family="Arial" font-size="14.00">    </text>
<text text-anchor="start" x="643.29" y="-87.4" font-family="Arial" font-size="14.00" fill="#666666">[BASE TABLE]</text>
<polygon fill="none" stroke="black" points="516.21,-43.2 516.21,-74 743.66,-74 743.66,-43.2 516.21,-43.2"/>
<text text-anchor="start" x="523.21" y="-55.4" font-family="Arial" font-size="14.00">contactTypeId </text>
<text text-anchor="start" x="615.04" y="-55.4" font-family="Arial" font-size="14.00" fill="#666666">[int unsigned]</text>
</g>
<!-- participantContact&#45;&gt;contactType -->
<g id="edge2" class="edge">
<title>participantContact:contactTypeId&#45;&gt;contactType:contactTypeId</title>
<path fill="none" stroke="black" d="M613.68,-247.76C626.92,-238.63 615.63,-207.92 602.66,-188.8 579.29,-154.36 539.49,-187.3 516.21,-152.8 492.8,-118.09 473.35,-58.6 515.21,-58.6"/>
<polygon fill="black" stroke="black" points="613.65,-247.77 602.83,-245.96 608.49,-249.13 604.3,-250.23 604.3,-250.23 604.3,-250.23 608.49,-249.13 605.13,-254.67 613.65,-247.77"/>
<text text-anchor="start" x="610.66" y="-260.4" font-family="Arial" font-size="10.00">FOREIGN KEY (contactTypeId) REFERENCES contactType (contactTypeId)</text>
</g>
</g>
</svg>
