<?xml version="1.0" encoding="UTF-8" standalone="no"?>
<!DOCTYPE svg PUBLIC "-//W3C//DTD SVG 1.1//EN"
 "http://www.w3.org/Graphics/SVG/1.1/DTD/svg11.dtd">
<!-- Generated by graphviz version 12.1.2 (20240928.0832)
 -->
<!-- Title: quoteResponseDuplicateCheck Pages: 1 -->
<svg width="1042pt" height="848pt"
 viewBox="0.00 0.00 1042.27 848.40" xmlns="http://www.w3.org/2000/svg" xmlns:xlink="http://www.w3.org/1999/xlink">
<g id="graph0" class="graph" transform="scale(1 1) rotate(0) translate(4 844.4)">
<title>quoteResponseDuplicateCheck</title>
<polygon fill="white" stroke="none" points="-4,4 -4,-844.4 1038.27,-844.4 1038.27,4 -4,4"/>
<!-- quoteResponseDuplicateCheck -->
<g id="node1" class="node">
<title>quoteResponseDuplicateCheck</title>
<polygon fill="#efefef" stroke="none" points="402.96,-758.6 402.96,-794.2 766.39,-794.2 766.39,-758.6 402.96,-758.6"/>
<polygon fill="none" stroke="black" points="402.96,-758.6 402.96,-794.2 766.39,-794.2 766.39,-758.6 402.96,-758.6"/>
<text text-anchor="start" x="409.96" y="-772" font-family="Arial Bold" font-size="18.00">quoteResponseDuplicateCheck</text>
<text text-anchor="start" x="634.9" y="-772" font-family="Arial" font-size="14.00">    </text>
<text text-anchor="start" x="666.02" y="-772" font-family="Arial" font-size="14.00" fill="#666666">[BASE TABLE]</text>
<polygon fill="none" stroke="black" points="402.96,-727.8 402.96,-758.6 766.39,-758.6 766.39,-727.8 402.96,-727.8"/>
<text text-anchor="start" x="409.96" y="-740" font-family="Arial" font-size="14.00">quoteResponseId </text>
<text text-anchor="start" x="523.6" y="-740" font-family="Arial" font-size="14.00" fill="#666666">[bigint unsigned]</text>
<polygon fill="none" stroke="black" points="402.96,-697 402.96,-727.8 766.39,-727.8 766.39,-697 402.96,-697"/>
<text text-anchor="start" x="409.96" y="-709.2" font-family="Arial" font-size="14.00">quoteId </text>
<text text-anchor="start" x="460.56" y="-709.2" font-family="Arial" font-size="14.00" fill="#666666">[varchar(36)]</text>
<polygon fill="none" stroke="black" points="402.96,-666.2 402.96,-697 766.39,-697 766.39,-666.2 402.96,-666.2"/>
<text text-anchor="start" x="409.96" y="-678.4" font-family="Arial" font-size="14.00">hash </text>
<text text-anchor="start" x="444.21" y="-678.4" font-family="Arial" font-size="14.00" fill="#666666">[varchar(255)]</text>
<polygon fill="none" stroke="black" points="402.96,-635.4 402.96,-666.2 766.39,-666.2 766.39,-635.4 402.96,-635.4"/>
<text text-anchor="start" x="409.96" y="-647.6" font-family="Arial" font-size="14.00">createdDate </text>
<text text-anchor="start" x="490.12" y="-647.6" font-family="Arial" font-size="14.00" fill="#666666">[datetime]</text>
<polygon fill="none" stroke="black" stroke-width="3" points="401.46,-633.9 401.46,-795.7 767.89,-795.7 767.89,-633.9 401.46,-633.9"/>
</g>
<!-- quoteResponse -->
<g id="node2" class="node">
<title>quoteResponse</title>
<polygon fill="#efefef" stroke="none" points="244.06,-474.4 244.06,-510 541.29,-510 541.29,-474.4 244.06,-474.4"/>
<polygon fill="none" stroke="black" points="244.06,-474.4 244.06,-510 541.29,-510 541.29,-474.4 244.06,-474.4"/>
<text text-anchor="start" x="275.94" y="-487.8" font-family="Arial Bold" font-size="18.00">quoteResponse</text>
<text text-anchor="start" x="384.93" y="-487.8" font-family="Arial" font-size="14.00">    </text>
<text text-anchor="start" x="416.04" y="-487.8" font-family="Arial" font-size="14.00" fill="#666666">[BASE TABLE]</text>
<polygon fill="none" stroke="black" points="244.06,-443.6 244.06,-474.4 541.29,-474.4 541.29,-443.6 244.06,-443.6"/>
<text text-anchor="start" x="251.06" y="-455.8" font-family="Arial" font-size="14.00">quoteResponseId </text>
<text text-anchor="start" x="364.71" y="-455.8" font-family="Arial" font-size="14.00" fill="#666666">[bigint unsigned]</text>
<polygon fill="none" stroke="black" points="244.06,-412.8 244.06,-443.6 541.29,-443.6 541.29,-412.8 244.06,-412.8"/>
<text text-anchor="start" x="251.06" y="-425" font-family="Arial" font-size="14.00">quoteId </text>
<text text-anchor="start" x="301.66" y="-425" font-family="Arial" font-size="14.00" fill="#666666">[varchar(36)]</text>
<polygon fill="none" stroke="black" points="244.06,-382 244.06,-412.8 541.29,-412.8 541.29,-382 244.06,-382"/>
<text text-anchor="start" x="251.06" y="-394.2" font-family="Arial" font-size="14.00">transferAmountCurrencyId </text>
<text text-anchor="start" x="419.13" y="-394.2" font-family="Arial" font-size="14.00" fill="#666666">[varchar(3)]</text>
<polygon fill="none" stroke="black" points="244.06,-351.2 244.06,-382 541.29,-382 541.29,-351.2 244.06,-351.2"/>
<text text-anchor="start" x="251.06" y="-363.4" font-family="Arial" font-size="14.00">transferAmount </text>
<text text-anchor="start" x="350.66" y="-363.4" font-family="Arial" font-size="14.00" fill="#666666">[decimal(18,4)]</text>
<polygon fill="none" stroke="black" points="244.06,-320.4 244.06,-351.2 541.29,-351.2 541.29,-320.4 244.06,-320.4"/>
<text text-anchor="start" x="251.06" y="-332.6" font-family="Arial" font-size="14.00">payeeReceiveAmountCurrencyId </text>
<text text-anchor="start" x="460.39" y="-332.6" font-family="Arial" font-size="14.00" fill="#666666">[varchar(3)]</text>
<polygon fill="none" stroke="black" points="244.06,-289.6 244.06,-320.4 541.29,-320.4 541.29,-289.6 244.06,-289.6"/>
<text text-anchor="start" x="251.06" y="-301.8" font-family="Arial" font-size="14.00">payeeReceiveAmount </text>
<text text-anchor="start" x="391.93" y="-301.8" font-family="Arial" font-size="14.00" fill="#666666">[decimal(18,4)]</text>
<polygon fill="none" stroke="black" points="244.06,-258.8 244.06,-289.6 541.29,-289.6 541.29,-258.8 244.06,-258.8"/>
<text text-anchor="start" x="251.06" y="-271" font-family="Arial" font-size="14.00">payeeFspFeeCurrencyId </text>
<text text-anchor="start" x="409.03" y="-271" font-family="Arial" font-size="14.00" fill="#666666">[varchar(3)]</text>
<polygon fill="none" stroke="black" points="244.06,-228 244.06,-258.8 541.29,-258.8 541.29,-228 244.06,-228"/>
<text text-anchor="start" x="251.06" y="-240.2" font-family="Arial" font-size="14.00">payeeFspFeeAmount </text>
<text text-anchor="start" x="388.81" y="-240.2" font-family="Arial" font-size="14.00" fill="#666666">[decimal(18,4)]</text>
<polygon fill="none" stroke="black" points="244.06,-197.2 244.06,-228 541.29,-228 541.29,-197.2 244.06,-197.2"/>
<text text-anchor="start" x="251.06" y="-209.4" font-family="Arial" font-size="14.00">payeeFspCommissionCurrencyId </text>
<text text-anchor="start" x="461.92" y="-209.4" font-family="Arial" font-size="14.00" fill="#666666">[varchar(3)]</text>
<polygon fill="none" stroke="black" points="244.06,-166.4 244.06,-197.2 541.29,-197.2 541.29,-166.4 244.06,-166.4"/>
<text text-anchor="start" x="251.06" y="-178.6" font-family="Arial" font-size="14.00">payeeFspCommissionAmount </text>
<text text-anchor="start" x="441.7" y="-178.6" font-family="Arial" font-size="14.00" fill="#666666">[decimal(18,4)]</text>
<polygon fill="none" stroke="black" points="244.06,-135.6 244.06,-166.4 541.29,-166.4 541.29,-135.6 244.06,-135.6"/>
<text text-anchor="start" x="251.06" y="-147.8" font-family="Arial" font-size="14.00">ilpCondition </text>
<text text-anchor="start" x="328.11" y="-147.8" font-family="Arial" font-size="14.00" fill="#666666">[varchar(256)]</text>
<polygon fill="none" stroke="black" points="244.06,-104.8 244.06,-135.6 541.29,-135.6 541.29,-104.8 244.06,-104.8"/>
<text text-anchor="start" x="251.06" y="-117" font-family="Arial" font-size="14.00">responseExpirationDate </text>
<text text-anchor="start" x="404.37" y="-117" font-family="Arial" font-size="14.00" fill="#666666">[datetime]</text>
<polygon fill="none" stroke="black" points="244.06,-74 244.06,-104.8 541.29,-104.8 541.29,-74 244.06,-74"/>
<text text-anchor="start" x="251.06" y="-86.2" font-family="Arial" font-size="14.00">isValid </text>
<text text-anchor="start" x="296.2" y="-86.2" font-family="Arial" font-size="14.00" fill="#666666">[tinyint(1)]</text>
<polygon fill="none" stroke="black" points="244.06,-43.2 244.06,-74 541.29,-74 541.29,-43.2 244.06,-43.2"/>
<text text-anchor="start" x="251.06" y="-55.4" font-family="Arial" font-size="14.00">createdDate </text>
<text text-anchor="start" x="331.22" y="-55.4" font-family="Arial" font-size="14.00" fill="#666666">[datetime]</text>
</g>
<!-- quoteResponseDuplicateCheck&#45;&gt;quoteResponse -->
<g id="edge1" class="edge">
<title>quoteResponseDuplicateCheck:quoteResponseId&#45;&gt;quoteResponse:quoteResponseId</title>
<path fill="none" stroke="black" d="M391.58,-742.33C336.56,-732.4 363.22,-640.26 402.96,-589.2 441.98,-539.07 502.17,-603.25 541.29,-553.2 567.07,-520.21 584.16,-459 542.29,-459"/>
<polygon fill="black" stroke="black" points="391.67,-742.33 401.25,-747.66 396.98,-742.78 401.3,-743.14 401.3,-743.14 401.3,-743.14 396.98,-742.78 402.01,-738.69 391.67,-742.33"/>
<text text-anchor="start" x="7" y="-753.2" font-family="Arial" font-size="10.00">FOREIGN KEY (quoteResponseId) REFERENCES quoteResponse (quoteResponseId)</text>
</g>
<!-- quote -->
<g id="node3" class="node">
<title>quote</title>
<polygon fill="#efefef" stroke="none" points="645.93,-474.4 645.93,-510 907.43,-510 907.43,-474.4 645.93,-474.4"/>
<polygon fill="none" stroke="black" points="645.93,-474.4 645.93,-510 907.43,-510 907.43,-474.4 645.93,-474.4"/>
<text text-anchor="start" x="694.44" y="-487.8" font-family="Arial Bold" font-size="18.00">quote</text>
<text text-anchor="start" x="734.43" y="-487.8" font-family="Arial" font-size="14.00">    </text>
<text text-anchor="start" x="765.55" y="-487.8" font-family="Arial" font-size="14.00" fill="#666666">[BASE TABLE]</text>
<polygon fill="none" stroke="black" points="645.93,-443.6 645.93,-474.4 907.43,-474.4 907.43,-443.6 645.93,-443.6"/>
<text text-anchor="start" x="652.93" y="-455.8" font-family="Arial" font-size="14.00">quoteId </text>
<text text-anchor="start" x="703.53" y="-455.8" font-family="Arial" font-size="14.00" fill="#666666">[varchar(36)]</text>
<polygon fill="none" stroke="black" points="645.93,-412.8 645.93,-443.6 907.43,-443.6 907.43,-412.8 645.93,-412.8"/>
<text text-anchor="start" x="652.93" y="-425" font-family="Arial" font-size="14.00">transactionReferenceId </text>
<text text-anchor="start" x="801.57" y="-425" font-family="Arial" font-size="14.00" fill="#666666">[varchar(36)]</text>
<polygon fill="none" stroke="black" points="645.93,-382 645.93,-412.8 907.43,-412.8 907.43,-382 645.93,-382"/>
<text text-anchor="start" x="652.93" y="-394.2" font-family="Arial" font-size="14.00">transactionRequestId </text>
<text text-anchor="start" x="789.12" y="-394.2" font-family="Arial" font-size="14.00" fill="#666666">[varchar(36)]</text>
<polygon fill="none" stroke="black" points="645.93,-351.2 645.93,-382 907.43,-382 907.43,-351.2 645.93,-351.2"/>
<text text-anchor="start" x="652.93" y="-363.4" font-family="Arial" font-size="14.00">note </text>
<text text-anchor="start" x="684.07" y="-363.4" font-family="Arial" font-size="14.00" fill="#666666">[text]</text>
<polygon fill="none" stroke="black" points="645.93,-320.4 645.93,-351.2 907.43,-351.2 907.43,-320.4 645.93,-320.4"/>
<text text-anchor="start" x="652.93" y="-332.6" font-family="Arial" font-size="14.00">expirationDate </text>
<text text-anchor="start" x="747.1" y="-332.6" font-family="Arial" font-size="14.00" fill="#666666">[datetime]</text>
<polygon fill="none" stroke="black" points="645.93,-289.6 645.93,-320.4 907.43,-320.4 907.43,-289.6 645.93,-289.6"/>
<text text-anchor="start" x="652.93" y="-301.8" font-family="Arial" font-size="14.00">transactionInitiatorId </text>
<text text-anchor="start" x="782.89" y="-301.8" font-family="Arial" font-size="14.00" fill="#666666">[int unsigned]</text>
<polygon fill="none" stroke="black" points="645.93,-258.8 645.93,-289.6 907.43,-289.6 907.43,-258.8 645.93,-258.8"/>
<text text-anchor="start" x="652.93" y="-271" font-family="Arial" font-size="14.00">transactionInitiatorTypeId </text>
<text text-anchor="start" x="814.01" y="-271" font-family="Arial" font-size="14.00" fill="#666666">[int unsigned]</text>
<polygon fill="none" stroke="black" points="645.93,-228 645.93,-258.8 907.43,-258.8 907.43,-228 645.93,-228"/>
<text text-anchor="start" x="652.93" y="-240.2" font-family="Arial" font-size="14.00">transactionScenarioId </text>
<text text-anchor="start" x="792.23" y="-240.2" font-family="Arial" font-size="14.00" fill="#666666">[int unsigned]</text>
<polygon fill="none" stroke="black" points="645.93,-197.2 645.93,-228 907.43,-228 907.43,-197.2 645.93,-197.2"/>
<text text-anchor="start" x="652.93" y="-209.4" font-family="Arial" font-size="14.00">balanceOfPaymentsId </text>
<text text-anchor="start" x="794.56" y="-209.4" font-family="Arial" font-size="14.00" fill="#666666">[int unsigned]</text>
<polygon fill="none" stroke="black" points="645.93,-166.4 645.93,-197.2 907.43,-197.2 907.43,-166.4 645.93,-166.4"/>
<text text-anchor="start" x="652.93" y="-178.6" font-family="Arial" font-size="14.00">transactionSubScenarioId </text>
<text text-anchor="start" x="817.14" y="-178.6" font-family="Arial" font-size="14.00" fill="#666666">[int unsigned]</text>
<polygon fill="none" stroke="black" points="645.93,-135.6 645.93,-166.4 907.43,-166.4 907.43,-135.6 645.93,-135.6"/>
<text text-anchor="start" x="652.93" y="-147.8" font-family="Arial" font-size="14.00">amountTypeId </text>
<text text-anchor="start" x="746.32" y="-147.8" font-family="Arial" font-size="14.00" fill="#666666">[int unsigned]</text>
<polygon fill="none" stroke="black" points="645.93,-104.8 645.93,-135.6 907.43,-135.6 907.43,-104.8 645.93,-104.8"/>
<text text-anchor="start" x="652.93" y="-117" font-family="Arial" font-size="14.00">amount </text>
<text text-anchor="start" x="703.52" y="-117" font-family="Arial" font-size="14.00" fill="#666666">[decimal(18,4)]</text>
<polygon fill="none" stroke="black" points="645.93,-74 645.93,-104.8 907.43,-104.8 907.43,-74 645.93,-74"/>
<text text-anchor="start" x="652.93" y="-86.2" font-family="Arial" font-size="14.00">currencyId </text>
<text text-anchor="start" x="722.18" y="-86.2" font-family="Arial" font-size="14.00" fill="#666666">[varchar(255)]</text>
<polygon fill="none" stroke="black" points="645.93,-43.2 645.93,-74 907.43,-74 907.43,-43.2 645.93,-43.2"/>
<text text-anchor="start" x="652.93" y="-55.4" font-family="Arial" font-size="14.00">createdDate </text>
<text text-anchor="start" x="733.09" y="-55.4" font-family="Arial" font-size="14.00" fill="#666666">[datetime]</text>
</g>
<!-- quoteResponseDuplicateCheck&#45;&gt;quote -->
<g id="edge2" class="edge">
<title>quoteResponseDuplicateCheck:quoteId&#45;&gt;quote:quoteId</title>
<path fill="none" stroke="black" d="M777.55,-711.32C818.98,-701.71 797.03,-629.99 766.39,-589.2 732.83,-544.52 679.55,-597.84 645.93,-553.2 620.74,-519.76 603.06,-459 644.93,-459"/>
<polygon fill="black" stroke="black" points="777.67,-711.31 767.25,-707.89 772.36,-711.87 768.06,-712.33 768.06,-712.33 768.06,-712.33 772.36,-711.87 768.2,-716.84 777.67,-711.31"/>
<text text-anchor="start" x="774.39" y="-722.4" font-family="Arial" font-size="10.00">FOREIGN KEY (quoteId) REFERENCES quote (quoteId)</text>
</g>
</g>
</svg>
