<?xml version="1.0" encoding="UTF-8" standalone="no"?>
<!DOCTYPE svg PUBLIC "-//W3C//DTD SVG 1.1//EN"
 "http://www.w3.org/Graphics/SVG/1.1/DTD/svg11.dtd">
<!-- Generated by graphviz version 12.1.2 (20240928.0832)
 -->
<!-- Title: quotePartyIdInfoExtension Pages: 1 -->
<svg width="726pt" height="910pt"
 viewBox="0.00 0.00 725.54 910.00" xmlns="http://www.w3.org/2000/svg" xmlns:xlink="http://www.w3.org/1999/xlink">
<g id="graph0" class="graph" transform="scale(1 1) rotate(0) translate(4 906)">
<title>quotePartyIdInfoExtension</title>
<polygon fill="white" stroke="none" points="-4,4 -4,-906 721.54,-906 721.54,4 -4,4"/>
<!-- quotePartyIdInfoExtension -->
<g id="node1" class="node">
<title>quotePartyIdInfoExtension</title>
<polygon fill="#efefef" stroke="none" points="46.2,-820.2 46.2,-855.8 379.65,-855.8 379.65,-820.2 46.2,-820.2"/>
<polygon fill="none" stroke="black" points="46.2,-820.2 46.2,-855.8 379.65,-855.8 379.65,-820.2 46.2,-820.2"/>
<text text-anchor="start" x="53.2" y="-833.6" font-family="Arial Bold" font-size="18.00">quotePartyIdInfoExtension</text>
<text text-anchor="start" x="248.16" y="-833.6" font-family="Arial" font-size="14.00">    </text>
<text text-anchor="start" x="279.28" y="-833.6" font-family="Arial" font-size="14.00" fill="#666666">[BASE TABLE]</text>
<polygon fill="none" stroke="black" points="46.2,-789.4 46.2,-820.2 379.65,-820.2 379.65,-789.4 46.2,-789.4"/>
<text text-anchor="start" x="53.2" y="-801.6" font-family="Arial" font-size="14.00">quotePartyIdInfoExtensionId </text>
<text text-anchor="start" x="232.99" y="-801.6" font-family="Arial" font-size="14.00" fill="#666666">[bigint unsigned]</text>
<polygon fill="none" stroke="black" points="46.2,-758.6 46.2,-789.4 379.65,-789.4 379.65,-758.6 46.2,-758.6"/>
<text text-anchor="start" x="53.2" y="-770.8" font-family="Arial" font-size="14.00">quotePartyId </text>
<text text-anchor="start" x="136.48" y="-770.8" font-family="Arial" font-size="14.00" fill="#666666">[bigint unsigned]</text>
<polygon fill="none" stroke="black" points="46.2,-727.8 46.2,-758.6 379.65,-758.6 379.65,-727.8 46.2,-727.8"/>
<text text-anchor="start" x="53.2" y="-740" font-family="Arial" font-size="14.00">key </text>
<text text-anchor="start" x="78.88" y="-740" font-family="Arial" font-size="14.00" fill="#666666">[varchar(128)]</text>
<polygon fill="none" stroke="black" points="46.2,-697 46.2,-727.8 379.65,-727.8 379.65,-697 46.2,-697"/>
<text text-anchor="start" x="53.2" y="-709.2" font-family="Arial" font-size="14.00">value </text>
<text text-anchor="start" x="90.56" y="-709.2" font-family="Arial" font-size="14.00" fill="#666666">[text]</text>
<polygon fill="none" stroke="black" points="46.2,-666.2 46.2,-697 379.65,-697 379.65,-666.2 46.2,-666.2"/>
<text text-anchor="start" x="53.2" y="-678.4" font-family="Arial" font-size="14.00">createdDate </text>
<text text-anchor="start" x="133.36" y="-678.4" font-family="Arial" font-size="14.00" fill="#666666">[datetime]</text>
<polygon fill="none" stroke="black" stroke-width="3" points="44.7,-664.7 44.7,-857.3 381.15,-857.3 381.15,-664.7 44.7,-664.7"/>
</g>
<!-- quoteParty -->
<g id="node2" class="node">
<title>quoteParty</title>
<polygon fill="#efefef" stroke="none" points="69.74,-505.2 69.74,-540.8 356.11,-540.8 356.11,-505.2 69.74,-505.2"/>
<polygon fill="none" stroke="black" points="69.74,-505.2 69.74,-540.8 356.11,-540.8 356.11,-505.2 69.74,-505.2"/>
<text text-anchor="start" x="111.69" y="-518.6" font-family="Arial Bold" font-size="18.00">quoteParty</text>
<text text-anchor="start" x="189.67" y="-518.6" font-family="Arial" font-size="14.00">    </text>
<text text-anchor="start" x="220.79" y="-518.6" font-family="Arial" font-size="14.00" fill="#666666">[BASE TABLE]</text>
<polygon fill="none" stroke="black" points="69.74,-474.4 69.74,-505.2 356.11,-505.2 356.11,-474.4 69.74,-474.4"/>
<text text-anchor="start" x="76.74" y="-486.6" font-family="Arial" font-size="14.00">quotePartyId </text>
<text text-anchor="start" x="160.01" y="-486.6" font-family="Arial" font-size="14.00" fill="#666666">[bigint unsigned]</text>
<polygon fill="none" stroke="black" points="69.74,-443.6 69.74,-474.4 356.11,-474.4 356.11,-443.6 69.74,-443.6"/>
<text text-anchor="start" x="76.74" y="-455.8" font-family="Arial" font-size="14.00">quoteId </text>
<text text-anchor="start" x="127.34" y="-455.8" font-family="Arial" font-size="14.00" fill="#666666">[varchar(36)]</text>
<polygon fill="none" stroke="black" points="69.74,-412.8 69.74,-443.6 356.11,-443.6 356.11,-412.8 69.74,-412.8"/>
<text text-anchor="start" x="76.74" y="-425" font-family="Arial" font-size="14.00">partyTypeId </text>
<text text-anchor="start" x="154.55" y="-425" font-family="Arial" font-size="14.00" fill="#666666">[int unsigned]</text>
<polygon fill="none" stroke="black" points="69.74,-382 69.74,-412.8 356.11,-412.8 356.11,-382 69.74,-382"/>
<text text-anchor="start" x="76.74" y="-394.2" font-family="Arial" font-size="14.00">partyIdentifierTypeId </text>
<text text-anchor="start" x="208.25" y="-394.2" font-family="Arial" font-size="14.00" fill="#666666">[int unsigned]</text>
<polygon fill="none" stroke="black" points="69.74,-351.2 69.74,-382 356.11,-382 356.11,-351.2 69.74,-351.2"/>
<text text-anchor="start" x="76.74" y="-363.4" font-family="Arial" font-size="14.00">partyIdentifierValue </text>
<text text-anchor="start" x="201.26" y="-363.4" font-family="Arial" font-size="14.00" fill="#666666">[varchar(128)]</text>
<polygon fill="none" stroke="black" points="69.74,-320.4 69.74,-351.2 356.11,-351.2 356.11,-320.4 69.74,-320.4"/>
<text text-anchor="start" x="76.74" y="-332.6" font-family="Arial" font-size="14.00">partySubIdOrTypeId </text>
<text text-anchor="start" x="206.69" y="-332.6" font-family="Arial" font-size="14.00" fill="#666666">[varchar(128)]</text>
<polygon fill="none" stroke="black" points="69.74,-289.6 69.74,-320.4 356.11,-320.4 356.11,-289.6 69.74,-289.6"/>
<text text-anchor="start" x="76.74" y="-301.8" font-family="Arial" font-size="14.00">fspId </text>
<text text-anchor="start" x="110.98" y="-301.8" font-family="Arial" font-size="14.00" fill="#666666">[varchar(255)]</text>
<polygon fill="none" stroke="black" points="69.74,-258.8 69.74,-289.6 356.11,-289.6 356.11,-258.8 69.74,-258.8"/>
<text text-anchor="start" x="76.74" y="-271" font-family="Arial" font-size="14.00">participantId </text>
<text text-anchor="start" x="156.9" y="-271" font-family="Arial" font-size="14.00" fill="#666666">[int unsigned]</text>
<polygon fill="none" stroke="black" points="69.74,-228 69.74,-258.8 356.11,-258.8 356.11,-228 69.74,-228"/>
<text text-anchor="start" x="76.74" y="-240.2" font-family="Arial" font-size="14.00">merchantClassificationCode </text>
<text text-anchor="start" x="254.93" y="-240.2" font-family="Arial" font-size="14.00" fill="#666666">[varchar(4)]</text>
<polygon fill="none" stroke="black" points="69.74,-197.2 69.74,-228 356.11,-228 356.11,-197.2 69.74,-197.2"/>
<text text-anchor="start" x="76.74" y="-209.4" font-family="Arial" font-size="14.00">partyName </text>
<text text-anchor="start" x="149.1" y="-209.4" font-family="Arial" font-size="14.00" fill="#666666">[varchar(128)]</text>
<polygon fill="none" stroke="black" points="69.74,-166.4 69.74,-197.2 356.11,-197.2 356.11,-166.4 69.74,-166.4"/>
<text text-anchor="start" x="76.74" y="-178.6" font-family="Arial" font-size="14.00">transferParticipantRoleTypeId </text>
<text text-anchor="start" x="265.83" y="-178.6" font-family="Arial" font-size="14.00" fill="#666666">[int unsigned]</text>
<polygon fill="none" stroke="black" points="69.74,-135.6 69.74,-166.4 356.11,-166.4 356.11,-135.6 69.74,-135.6"/>
<text text-anchor="start" x="76.74" y="-147.8" font-family="Arial" font-size="14.00">ledgerEntryTypeId </text>
<text text-anchor="start" x="195.02" y="-147.8" font-family="Arial" font-size="14.00" fill="#666666">[int unsigned]</text>
<polygon fill="none" stroke="black" points="69.74,-104.8 69.74,-135.6 356.11,-135.6 356.11,-104.8 69.74,-104.8"/>
<text text-anchor="start" x="76.74" y="-117" font-family="Arial" font-size="14.00">amount </text>
<text text-anchor="start" x="127.32" y="-117" font-family="Arial" font-size="14.00" fill="#666666">[decimal(18,4)]</text>
<polygon fill="none" stroke="black" points="69.74,-74 69.74,-104.8 356.11,-104.8 356.11,-74 69.74,-74"/>
<text text-anchor="start" x="76.74" y="-86.2" font-family="Arial" font-size="14.00">currencyId </text>
<text text-anchor="start" x="145.99" y="-86.2" font-family="Arial" font-size="14.00" fill="#666666">[varchar(3)]</text>
<polygon fill="none" stroke="black" points="69.74,-43.2 69.74,-74 356.11,-74 356.11,-43.2 69.74,-43.2"/>
<text text-anchor="start" x="76.74" y="-55.4" font-family="Arial" font-size="14.00">createdDate </text>
<text text-anchor="start" x="156.9" y="-55.4" font-family="Arial" font-size="14.00" fill="#666666">[datetime]</text>
</g>
<!-- quotePartyIdInfoExtension&#45;&gt;quoteParty -->
<g id="edge1" class="edge">
<title>quotePartyIdInfoExtension:quotePartyId&#45;&gt;quoteParty:quotePartyId</title>
<path fill="none" stroke="black" d="M390.59,-771.37C441.23,-742.72 416.89,-489.8 357.11,-489.8"/>
<polygon fill="black" stroke="black" points="390.64,-771.35 379.82,-769.56 385.48,-772.72 381.29,-773.83 381.29,-773.83 381.29,-773.83 385.48,-772.72 382.12,-778.26 390.64,-771.35"/>
<text text-anchor="start" x="387.65" y="-784" font-family="Arial" font-size="10.00">FOREIGN KEY (quotePartyId) REFERENCES quoteParty (quotePartyId)</text>
</g>
</g>
</svg>
