<?xml version="1.0" encoding="UTF-8" standalone="no"?>
<!DOCTYPE svg PUBLIC "-//W3C//DTD SVG 1.1//EN"
 "http://www.w3.org/Graphics/SVG/1.1/DTD/svg11.dtd">
<!-- Generated by graphviz version 12.1.2 (20240928.0832)
 -->
<!-- Title: quoteExtension Pages: 1 -->
<svg width="1152pt" height="941pt"
 viewBox="0.00 0.00 1152.35 940.80" xmlns="http://www.w3.org/2000/svg" xmlns:xlink="http://www.w3.org/1999/xlink">
<g id="graph0" class="graph" transform="scale(1 1) rotate(0) translate(4 936.8)">
<title>quoteExtension</title>
<polygon fill="white" stroke="none" points="-4,4 -4,-936.8 1148.35,-936.8 1148.35,4 -4,4"/>
<!-- quoteExtension -->
<g id="node1" class="node">
<title>quoteExtension</title>
<polygon fill="#efefef" stroke="none" points="432.71,-851 432.71,-886.6 683.18,-886.6 683.18,-851 432.71,-851"/>
<polygon fill="none" stroke="black" points="432.71,-851 432.71,-886.6 683.18,-886.6 683.18,-851 432.71,-851"/>
<text text-anchor="start" x="439.71" y="-864.4" font-family="Arial Bold" font-size="18.00">quoteExtension</text>
<text text-anchor="start" x="551.69" y="-864.4" font-family="Arial" font-size="14.00">    </text>
<text text-anchor="start" x="582.81" y="-864.4" font-family="Arial" font-size="14.00" fill="#666666">[BASE TABLE]</text>
<polygon fill="none" stroke="black" points="432.71,-820.2 432.71,-851 683.18,-851 683.18,-820.2 432.71,-820.2"/>
<text text-anchor="start" x="439.71" y="-832.4" font-family="Arial" font-size="14.00">quoteExtensionId </text>
<text text-anchor="start" x="551.79" y="-832.4" font-family="Arial" font-size="14.00" fill="#666666">[bigint unsigned]</text>
<polygon fill="none" stroke="black" points="432.71,-789.4 432.71,-820.2 683.18,-820.2 683.18,-789.4 432.71,-789.4"/>
<text text-anchor="start" x="439.71" y="-801.6" font-family="Arial" font-size="14.00">quoteId </text>
<text text-anchor="start" x="490.31" y="-801.6" font-family="Arial" font-size="14.00" fill="#666666">[varchar(36)]</text>
<polygon fill="none" stroke="black" points="432.71,-758.6 432.71,-789.4 683.18,-789.4 683.18,-758.6 432.71,-758.6"/>
<text text-anchor="start" x="439.71" y="-770.8" font-family="Arial" font-size="14.00">quoteResponseId </text>
<text text-anchor="start" x="553.35" y="-770.8" font-family="Arial" font-size="14.00" fill="#666666">[bigint unsigned]</text>
<polygon fill="none" stroke="black" points="432.71,-727.8 432.71,-758.6 683.18,-758.6 683.18,-727.8 432.71,-727.8"/>
<text text-anchor="start" x="439.71" y="-740" font-family="Arial" font-size="14.00">transactionId </text>
<text text-anchor="start" x="523.76" y="-740" font-family="Arial" font-size="14.00" fill="#666666">[varchar(36)]</text>
<polygon fill="none" stroke="black" points="432.71,-697 432.71,-727.8 683.18,-727.8 683.18,-697 432.71,-697"/>
<text text-anchor="start" x="439.71" y="-709.2" font-family="Arial" font-size="14.00">key </text>
<text text-anchor="start" x="465.39" y="-709.2" font-family="Arial" font-size="14.00" fill="#666666">[varchar(128)]</text>
<polygon fill="none" stroke="black" points="432.71,-666.2 432.71,-697 683.18,-697 683.18,-666.2 432.71,-666.2"/>
<text text-anchor="start" x="439.71" y="-678.4" font-family="Arial" font-size="14.00">value </text>
<text text-anchor="start" x="477.07" y="-678.4" font-family="Arial" font-size="14.00" fill="#666666">[text]</text>
<polygon fill="none" stroke="black" points="432.71,-635.4 432.71,-666.2 683.18,-666.2 683.18,-635.4 432.71,-635.4"/>
<text text-anchor="start" x="439.71" y="-647.6" font-family="Arial" font-size="14.00">createdDate </text>
<text text-anchor="start" x="519.87" y="-647.6" font-family="Arial" font-size="14.00" fill="#666666">[datetime]</text>
<polygon fill="none" stroke="black" stroke-width="3" points="431.21,-633.9 431.21,-888.1 684.68,-888.1 684.68,-633.9 431.21,-633.9"/>
</g>
<!-- quote -->
<g id="node2" class="node">
<title>quote</title>
<polygon fill="#efefef" stroke="none" points="43.2,-474.4 43.2,-510 304.7,-510 304.7,-474.4 43.2,-474.4"/>
<polygon fill="none" stroke="black" points="43.2,-474.4 43.2,-510 304.7,-510 304.7,-474.4 43.2,-474.4"/>
<text text-anchor="start" x="91.71" y="-487.8" font-family="Arial Bold" font-size="18.00">quote</text>
<text text-anchor="start" x="131.7" y="-487.8" font-family="Arial" font-size="14.00">    </text>
<text text-anchor="start" x="162.82" y="-487.8" font-family="Arial" font-size="14.00" fill="#666666">[BASE TABLE]</text>
<polygon fill="none" stroke="black" points="43.2,-443.6 43.2,-474.4 304.7,-474.4 304.7,-443.6 43.2,-443.6"/>
<text text-anchor="start" x="50.2" y="-455.8" font-family="Arial" font-size="14.00">quoteId </text>
<text text-anchor="start" x="100.8" y="-455.8" font-family="Arial" font-size="14.00" fill="#666666">[varchar(36)]</text>
<polygon fill="none" stroke="black" points="43.2,-412.8 43.2,-443.6 304.7,-443.6 304.7,-412.8 43.2,-412.8"/>
<text text-anchor="start" x="50.2" y="-425" font-family="Arial" font-size="14.00">transactionReferenceId </text>
<text text-anchor="start" x="198.84" y="-425" font-family="Arial" font-size="14.00" fill="#666666">[varchar(36)]</text>
<polygon fill="none" stroke="black" points="43.2,-382 43.2,-412.8 304.7,-412.8 304.7,-382 43.2,-382"/>
<text text-anchor="start" x="50.2" y="-394.2" font-family="Arial" font-size="14.00">transactionRequestId </text>
<text text-anchor="start" x="186.39" y="-394.2" font-family="Arial" font-size="14.00" fill="#666666">[varchar(36)]</text>
<polygon fill="none" stroke="black" points="43.2,-351.2 43.2,-382 304.7,-382 304.7,-351.2 43.2,-351.2"/>
<text text-anchor="start" x="50.2" y="-363.4" font-family="Arial" font-size="14.00">note </text>
<text text-anchor="start" x="81.34" y="-363.4" font-family="Arial" font-size="14.00" fill="#666666">[text]</text>
<polygon fill="none" stroke="black" points="43.2,-320.4 43.2,-351.2 304.7,-351.2 304.7,-320.4 43.2,-320.4"/>
<text text-anchor="start" x="50.2" y="-332.6" font-family="Arial" font-size="14.00">expirationDate </text>
<text text-anchor="start" x="144.37" y="-332.6" font-family="Arial" font-size="14.00" fill="#666666">[datetime]</text>
<polygon fill="none" stroke="black" points="43.2,-289.6 43.2,-320.4 304.7,-320.4 304.7,-289.6 43.2,-289.6"/>
<text text-anchor="start" x="50.2" y="-301.8" font-family="Arial" font-size="14.00">transactionInitiatorId </text>
<text text-anchor="start" x="180.16" y="-301.8" font-family="Arial" font-size="14.00" fill="#666666">[int unsigned]</text>
<polygon fill="none" stroke="black" points="43.2,-258.8 43.2,-289.6 304.7,-289.6 304.7,-258.8 43.2,-258.8"/>
<text text-anchor="start" x="50.2" y="-271" font-family="Arial" font-size="14.00">transactionInitiatorTypeId </text>
<text text-anchor="start" x="211.28" y="-271" font-family="Arial" font-size="14.00" fill="#666666">[int unsigned]</text>
<polygon fill="none" stroke="black" points="43.2,-228 43.2,-258.8 304.7,-258.8 304.7,-228 43.2,-228"/>
<text text-anchor="start" x="50.2" y="-240.2" font-family="Arial" font-size="14.00">transactionScenarioId </text>
<text text-anchor="start" x="189.5" y="-240.2" font-family="Arial" font-size="14.00" fill="#666666">[int unsigned]</text>
<polygon fill="none" stroke="black" points="43.2,-197.2 43.2,-228 304.7,-228 304.7,-197.2 43.2,-197.2"/>
<text text-anchor="start" x="50.2" y="-209.4" font-family="Arial" font-size="14.00">balanceOfPaymentsId </text>
<text text-anchor="start" x="191.83" y="-209.4" font-family="Arial" font-size="14.00" fill="#666666">[int unsigned]</text>
<polygon fill="none" stroke="black" points="43.2,-166.4 43.2,-197.2 304.7,-197.2 304.7,-166.4 43.2,-166.4"/>
<text text-anchor="start" x="50.2" y="-178.6" font-family="Arial" font-size="14.00">transactionSubScenarioId </text>
<text text-anchor="start" x="214.41" y="-178.6" font-family="Arial" font-size="14.00" fill="#666666">[int unsigned]</text>
<polygon fill="none" stroke="black" points="43.2,-135.6 43.2,-166.4 304.7,-166.4 304.7,-135.6 43.2,-135.6"/>
<text text-anchor="start" x="50.2" y="-147.8" font-family="Arial" font-size="14.00">amountTypeId </text>
<text text-anchor="start" x="143.59" y="-147.8" font-family="Arial" font-size="14.00" fill="#666666">[int unsigned]</text>
<polygon fill="none" stroke="black" points="43.2,-104.8 43.2,-135.6 304.7,-135.6 304.7,-104.8 43.2,-104.8"/>
<text text-anchor="start" x="50.2" y="-117" font-family="Arial" font-size="14.00">amount </text>
<text text-anchor="start" x="100.79" y="-117" font-family="Arial" font-size="14.00" fill="#666666">[decimal(18,4)]</text>
<polygon fill="none" stroke="black" points="43.2,-74 43.2,-104.8 304.7,-104.8 304.7,-74 43.2,-74"/>
<text text-anchor="start" x="50.2" y="-86.2" font-family="Arial" font-size="14.00">currencyId </text>
<text text-anchor="start" x="119.45" y="-86.2" font-family="Arial" font-size="14.00" fill="#666666">[varchar(255)]</text>
<polygon fill="none" stroke="black" points="43.2,-43.2 43.2,-74 304.7,-74 304.7,-43.2 43.2,-43.2"/>
<text text-anchor="start" x="50.2" y="-55.4" font-family="Arial" font-size="14.00">createdDate </text>
<text text-anchor="start" x="130.36" y="-55.4" font-family="Arial" font-size="14.00" fill="#666666">[datetime]</text>
</g>
<!-- quoteExtension&#45;&gt;quote -->
<g id="edge1" class="edge">
<title>quoteExtension:quoteId&#45;&gt;quote:quoteId</title>
<path fill="none" stroke="black" d="M422.8,-799.64C384.44,-756.63 343.63,-459 305.7,-459"/>
<polygon fill="black" stroke="black" points="422.77,-799.63 429.17,-808.53 427.38,-802.3 431.13,-804.47 431.13,-804.47 431.13,-804.47 427.38,-802.3 433.68,-800.74 422.77,-799.63"/>
<text text-anchor="start" x="171.84" y="-814.8" font-family="Arial" font-size="10.00">FOREIGN KEY (quoteId) REFERENCES quote (quoteId)</text>
</g>
<!-- quoteResponse -->
<g id="node3" class="node">
<title>quoteResponse</title>
<polygon fill="#efefef" stroke="none" points="409.33,-474.4 409.33,-510 706.56,-510 706.56,-474.4 409.33,-474.4"/>
<polygon fill="none" stroke="black" points="409.33,-474.4 409.33,-510 706.56,-510 706.56,-474.4 409.33,-474.4"/>
<text text-anchor="start" x="441.21" y="-487.8" font-family="Arial Bold" font-size="18.00">quoteResponse</text>
<text text-anchor="start" x="550.2" y="-487.8" font-family="Arial" font-size="14.00">    </text>
<text text-anchor="start" x="581.31" y="-487.8" font-family="Arial" font-size="14.00" fill="#666666">[BASE TABLE]</text>
<polygon fill="none" stroke="black" points="409.33,-443.6 409.33,-474.4 706.56,-474.4 706.56,-443.6 409.33,-443.6"/>
<text text-anchor="start" x="416.33" y="-455.8" font-family="Arial" font-size="14.00">quoteResponseId </text>
<text text-anchor="start" x="529.97" y="-455.8" font-family="Arial" font-size="14.00" fill="#666666">[bigint unsigned]</text>
<polygon fill="none" stroke="black" points="409.33,-412.8 409.33,-443.6 706.56,-443.6 706.56,-412.8 409.33,-412.8"/>
<text text-anchor="start" x="416.33" y="-425" font-family="Arial" font-size="14.00">quoteId </text>
<text text-anchor="start" x="466.93" y="-425" font-family="Arial" font-size="14.00" fill="#666666">[varchar(36)]</text>
<polygon fill="none" stroke="black" points="409.33,-382 409.33,-412.8 706.56,-412.8 706.56,-382 409.33,-382"/>
<text text-anchor="start" x="416.33" y="-394.2" font-family="Arial" font-size="14.00">transferAmountCurrencyId </text>
<text text-anchor="start" x="584.4" y="-394.2" font-family="Arial" font-size="14.00" fill="#666666">[varchar(3)]</text>
<polygon fill="none" stroke="black" points="409.33,-351.2 409.33,-382 706.56,-382 706.56,-351.2 409.33,-351.2"/>
<text text-anchor="start" x="416.33" y="-363.4" font-family="Arial" font-size="14.00">transferAmount </text>
<text text-anchor="start" x="515.93" y="-363.4" font-family="Arial" font-size="14.00" fill="#666666">[decimal(18,4)]</text>
<polygon fill="none" stroke="black" points="409.33,-320.4 409.33,-351.2 706.56,-351.2 706.56,-320.4 409.33,-320.4"/>
<text text-anchor="start" x="416.33" y="-332.6" font-family="Arial" font-size="14.00">payeeReceiveAmountCurrencyId </text>
<text text-anchor="start" x="625.66" y="-332.6" font-family="Arial" font-size="14.00" fill="#666666">[varchar(3)]</text>
<polygon fill="none" stroke="black" points="409.33,-289.6 409.33,-320.4 706.56,-320.4 706.56,-289.6 409.33,-289.6"/>
<text text-anchor="start" x="416.33" y="-301.8" font-family="Arial" font-size="14.00">payeeReceiveAmount </text>
<text text-anchor="start" x="557.2" y="-301.8" font-family="Arial" font-size="14.00" fill="#666666">[decimal(18,4)]</text>
<polygon fill="none" stroke="black" points="409.33,-258.8 409.33,-289.6 706.56,-289.6 706.56,-258.8 409.33,-258.8"/>
<text text-anchor="start" x="416.33" y="-271" font-family="Arial" font-size="14.00">payeeFspFeeCurrencyId </text>
<text text-anchor="start" x="574.3" y="-271" font-family="Arial" font-size="14.00" fill="#666666">[varchar(3)]</text>
<polygon fill="none" stroke="black" points="409.33,-228 409.33,-258.8 706.56,-258.8 706.56,-228 409.33,-228"/>
<text text-anchor="start" x="416.33" y="-240.2" font-family="Arial" font-size="14.00">payeeFspFeeAmount </text>
<text text-anchor="start" x="554.08" y="-240.2" font-family="Arial" font-size="14.00" fill="#666666">[decimal(18,4)]</text>
<polygon fill="none" stroke="black" points="409.33,-197.2 409.33,-228 706.56,-228 706.56,-197.2 409.33,-197.2"/>
<text text-anchor="start" x="416.33" y="-209.4" font-family="Arial" font-size="14.00">payeeFspCommissionCurrencyId </text>
<text text-anchor="start" x="627.19" y="-209.4" font-family="Arial" font-size="14.00" fill="#666666">[varchar(3)]</text>
<polygon fill="none" stroke="black" points="409.33,-166.4 409.33,-197.2 706.56,-197.2 706.56,-166.4 409.33,-166.4"/>
<text text-anchor="start" x="416.33" y="-178.6" font-family="Arial" font-size="14.00">payeeFspCommissionAmount </text>
<text text-anchor="start" x="606.97" y="-178.6" font-family="Arial" font-size="14.00" fill="#666666">[decimal(18,4)]</text>
<polygon fill="none" stroke="black" points="409.33,-135.6 409.33,-166.4 706.56,-166.4 706.56,-135.6 409.33,-135.6"/>
<text text-anchor="start" x="416.33" y="-147.8" font-family="Arial" font-size="14.00">ilpCondition </text>
<text text-anchor="start" x="493.38" y="-147.8" font-family="Arial" font-size="14.00" fill="#666666">[varchar(256)]</text>
<polygon fill="none" stroke="black" points="409.33,-104.8 409.33,-135.6 706.56,-135.6 706.56,-104.8 409.33,-104.8"/>
<text text-anchor="start" x="416.33" y="-117" font-family="Arial" font-size="14.00">responseExpirationDate </text>
<text text-anchor="start" x="569.64" y="-117" font-family="Arial" font-size="14.00" fill="#666666">[datetime]</text>
<polygon fill="none" stroke="black" points="409.33,-74 409.33,-104.8 706.56,-104.8 706.56,-74 409.33,-74"/>
<text text-anchor="start" x="416.33" y="-86.2" font-family="Arial" font-size="14.00">isValid </text>
<text text-anchor="start" x="461.47" y="-86.2" font-family="Arial" font-size="14.00" fill="#666666">[tinyint(1)]</text>
<polygon fill="none" stroke="black" points="409.33,-43.2 409.33,-74 706.56,-74 706.56,-43.2 409.33,-43.2"/>
<text text-anchor="start" x="416.33" y="-55.4" font-family="Arial" font-size="14.00">createdDate </text>
<text text-anchor="start" x="496.49" y="-55.4" font-family="Arial" font-size="14.00" fill="#666666">[datetime]</text>
</g>
<!-- quoteExtension&#45;&gt;quoteResponse -->
<g id="edge2" class="edge">
<title>quoteExtension:quoteResponseId&#45;&gt;quoteResponse:quoteResponseId</title>
<path fill="none" stroke="black" d="M694.12,-771.82C756.44,-743.99 774.33,-459 707.56,-459"/>
<polygon fill="black" stroke="black" points="694.28,-771.79 683.55,-769.53 689.07,-772.93 684.84,-773.86 684.84,-773.86 684.84,-773.86 689.07,-772.93 685.47,-778.32 694.28,-771.79"/>
<text text-anchor="start" x="691.18" y="-784" font-family="Arial" font-size="10.00">FOREIGN KEY (quoteResponseId) REFERENCES quoteResponse (quoteResponseId)</text>
</g>
<!-- transactionReference -->
<g id="node4" class="node">
<title>transactionReference</title>
<polygon fill="#efefef" stroke="none" points="810.75,-305 810.75,-340.6 1101.15,-340.6 1101.15,-305 810.75,-305"/>
<polygon fill="none" stroke="black" points="810.75,-305 810.75,-340.6 1101.15,-340.6 1101.15,-305 810.75,-305"/>
<text text-anchor="start" x="817.75" y="-318.4" font-family="Arial Bold" font-size="18.00">transactionReference</text>
<text text-anchor="start" x="969.66" y="-318.4" font-family="Arial" font-size="14.00">    </text>
<text text-anchor="start" x="1000.78" y="-318.4" font-family="Arial" font-size="14.00" fill="#666666">[BASE TABLE]</text>
<polygon fill="none" stroke="black" points="810.75,-274.2 810.75,-305 1101.15,-305 1101.15,-274.2 810.75,-274.2"/>
<text text-anchor="start" x="817.75" y="-286.4" font-family="Arial" font-size="14.00">transactionReferenceId </text>
<text text-anchor="start" x="966.39" y="-286.4" font-family="Arial" font-size="14.00" fill="#666666">[varchar(36)]</text>
<polygon fill="none" stroke="black" points="810.75,-243.4 810.75,-274.2 1101.15,-274.2 1101.15,-243.4 810.75,-243.4"/>
<text text-anchor="start" x="817.75" y="-255.6" font-family="Arial" font-size="14.00">quoteId </text>
<text text-anchor="start" x="868.35" y="-255.6" font-family="Arial" font-size="14.00" fill="#666666">[varchar(36)]</text>
<polygon fill="none" stroke="black" points="810.75,-212.6 810.75,-243.4 1101.15,-243.4 1101.15,-212.6 810.75,-212.6"/>
<text text-anchor="start" x="817.75" y="-224.8" font-family="Arial" font-size="14.00">createdDate </text>
<text text-anchor="start" x="897.91" y="-224.8" font-family="Arial" font-size="14.00" fill="#666666">[datetime]</text>
</g>
<!-- quoteExtension&#45;&gt;transactionReference -->
<g id="edge3" class="edge">
<title>quoteExtension:transactionId&#45;&gt;transactionReference:transactionReferenceId</title>
<path fill="none" stroke="black" d="M694.22,-742.74C771.81,-735.19 734.63,-636.94 758.95,-553.2 775.58,-495.91 750.09,-289.6 809.75,-289.6"/>
<polygon fill="black" stroke="black" points="694.51,-742.72 684.31,-738.69 689.18,-742.97 684.85,-743.17 684.85,-743.17 684.85,-743.17 689.18,-742.97 684.72,-747.68 694.51,-742.72"/>
<text text-anchor="start" x="691.18" y="-753.2" font-family="Arial" font-size="10.00">FOREIGN KEY (transactionId) REFERENCES transactionReference (transactionReferenceId)</text>
</g>
</g>
</svg>
