<?xml version="1.0" encoding="UTF-8" standalone="no"?>
<!DOCTYPE svg PUBLIC "-//W3C//DTD SVG 1.1//EN"
 "http://www.w3.org/Graphics/SVG/1.1/DTD/svg11.dtd">
<!-- Generated by graphviz version 12.1.2 (20240928.0832)
 -->
<!-- Title: quoteError Pages: 1 -->
<svg width="1646pt" height="664pt"
 viewBox="0.00 0.00 1645.70 663.60" xmlns="http://www.w3.org/2000/svg" xmlns:xlink="http://www.w3.org/1999/xlink">
<g id="graph0" class="graph" transform="scale(1 1) rotate(0) translate(4 659.6)">
<title>quoteError</title>
<polygon fill="white" stroke="none" points="-4,4 -4,-659.6 1641.7,-659.6 1641.7,4 -4,4"/>
<!-- quoteError -->
<g id="node1" class="node">
<title>quoteError</title>
<polygon fill="#efefef" stroke="none" points="545.51,-573.8 545.51,-609.4 1180.5,-609.4 1180.5,-573.8 545.51,-573.8"/>
<polygon fill="none" stroke="black" points="545.51,-573.8 545.51,-609.4 1180.5,-609.4 1180.5,-573.8 545.51,-573.8"/>
<text text-anchor="start" x="761.78" y="-587.2" font-family="Arial Bold" font-size="18.00">quoteError</text>
<text text-anchor="start" x="839.74" y="-587.2" font-family="Arial" font-size="14.00">    </text>
<text text-anchor="start" x="870.86" y="-587.2" font-family="Arial" font-size="14.00" fill="#666666">[BASE TABLE]</text>
<polygon fill="none" stroke="black" points="545.51,-543 545.51,-573.8 1180.5,-573.8 1180.5,-543 545.51,-543"/>
<text text-anchor="start" x="552.51" y="-555.2" font-family="Arial" font-size="14.00">quoteErrorId </text>
<text text-anchor="start" x="634.22" y="-555.2" font-family="Arial" font-size="14.00" fill="#666666">[bigint unsigned]</text>
<polygon fill="none" stroke="black" points="545.51,-512.2 545.51,-543 1180.5,-543 1180.5,-512.2 545.51,-512.2"/>
<text text-anchor="start" x="552.51" y="-524.4" font-family="Arial" font-size="14.00">quoteId </text>
<text text-anchor="start" x="603.11" y="-524.4" font-family="Arial" font-size="14.00" fill="#666666">[varchar(36)]</text>
<text text-anchor="start" x="682.46" y="-524.4" font-family="Arial" font-size="14.00"> Common ID between the FSPs for the quote object, decided by the Payer FSP</text>
<polygon fill="none" stroke="black" points="545.51,-481.4 545.51,-512.2 1180.5,-512.2 1180.5,-481.4 545.51,-481.4"/>
<text text-anchor="start" x="552.51" y="-493.6" font-family="Arial" font-size="14.00">quoteResponseId </text>
<text text-anchor="start" x="666.15" y="-493.6" font-family="Arial" font-size="14.00" fill="#666666">[bigint unsigned]</text>
<text text-anchor="start" x="768.11" y="-493.6" font-family="Arial" font-size="14.00"> The response to the intial quote</text>
<polygon fill="none" stroke="black" stroke-width="3" points="544.01,-479.9 544.01,-610.9 1182,-610.9 1182,-479.9 544.01,-479.9"/>
</g>
<!-- quote -->
<g id="node2" class="node">
<title>quote</title>
<polygon fill="#efefef" stroke="none" points="43.2,-320.4 43.2,-356 854.81,-356 854.81,-320.4 43.2,-320.4"/>
<polygon fill="none" stroke="black" points="43.2,-320.4 43.2,-356 854.81,-356 854.81,-320.4 43.2,-320.4"/>
<text text-anchor="start" x="366.77" y="-333.8" font-family="Arial Bold" font-size="18.00">quote</text>
<text text-anchor="start" x="406.76" y="-333.8" font-family="Arial" font-size="14.00">    </text>
<text text-anchor="start" x="437.87" y="-333.8" font-family="Arial" font-size="14.00" fill="#666666">[BASE TABLE]</text>
<polygon fill="none" stroke="black" points="43.2,-289.6 43.2,-320.4 854.81,-320.4 854.81,-289.6 43.2,-289.6"/>
<text text-anchor="start" x="50.2" y="-301.8" font-family="Arial" font-size="14.00">quoteId </text>
<text text-anchor="start" x="100.8" y="-301.8" font-family="Arial" font-size="14.00" fill="#666666">[varchar(36)]</text>
<polygon fill="none" stroke="black" points="43.2,-258.8 43.2,-289.6 854.81,-289.6 854.81,-258.8 43.2,-258.8"/>
<text text-anchor="start" x="50.2" y="-271" font-family="Arial" font-size="14.00">transactionReferenceId </text>
<text text-anchor="start" x="198.84" y="-271" font-family="Arial" font-size="14.00" fill="#666666">[varchar(36)]</text>
<text text-anchor="start" x="278.2" y="-271" font-family="Arial" font-size="14.00"> Common ID (decided by the Payer FSP) between the FSPs for the future transaction object</text>
<polygon fill="none" stroke="black" points="43.2,-228 43.2,-258.8 854.81,-258.8 854.81,-228 43.2,-228"/>
<text text-anchor="start" x="50.2" y="-240.2" font-family="Arial" font-size="14.00">transactionInitiatorId </text>
<text text-anchor="start" x="180.16" y="-240.2" font-family="Arial" font-size="14.00" fill="#666666">[int unsigned]</text>
<text text-anchor="start" x="263.44" y="-240.2" font-family="Arial" font-size="14.00"> This is part of the transaction initiator</text>
<polygon fill="none" stroke="black" points="43.2,-197.2 43.2,-228 854.81,-228 854.81,-197.2 43.2,-197.2"/>
<text text-anchor="start" x="50.2" y="-209.4" font-family="Arial" font-size="14.00">transactionInitiatorTypeId </text>
<text text-anchor="start" x="211.28" y="-209.4" font-family="Arial" font-size="14.00" fill="#666666">[int unsigned]</text>
<text text-anchor="start" x="294.56" y="-209.4" font-family="Arial" font-size="14.00"> This is part of the transaction initiator type</text>
<polygon fill="none" stroke="black" points="43.2,-166.4 43.2,-197.2 854.81,-197.2 854.81,-166.4 43.2,-166.4"/>
<text text-anchor="start" x="50.2" y="-178.6" font-family="Arial" font-size="14.00">transactionScenarioId </text>
<text text-anchor="start" x="189.5" y="-178.6" font-family="Arial" font-size="14.00" fill="#666666">[int unsigned]</text>
<text text-anchor="start" x="272.78" y="-178.6" font-family="Arial" font-size="14.00"> This is part of the transaction scenario</text>
<polygon fill="none" stroke="black" points="43.2,-135.6 43.2,-166.4 854.81,-166.4 854.81,-135.6 43.2,-135.6"/>
<text text-anchor="start" x="50.2" y="-147.8" font-family="Arial" font-size="14.00">balanceOfPaymentsId </text>
<text text-anchor="start" x="191.83" y="-147.8" font-family="Arial" font-size="14.00" fill="#666666">[int unsigned]</text>
<text text-anchor="start" x="275.12" y="-147.8" font-family="Arial" font-size="14.00"> This is part of the transaction type that contains the elements&#45; balance of payment</text>
<polygon fill="none" stroke="black" points="43.2,-104.8 43.2,-135.6 854.81,-135.6 854.81,-104.8 43.2,-104.8"/>
<text text-anchor="start" x="50.2" y="-117" font-family="Arial" font-size="14.00">transactionSubScenarioId </text>
<text text-anchor="start" x="214.41" y="-117" font-family="Arial" font-size="14.00" fill="#666666">[int unsigned]</text>
<text text-anchor="start" x="297.7" y="-117" font-family="Arial" font-size="14.00"> This is part of the transaction type sub scenario as defined by the local scheme</text>
<polygon fill="none" stroke="black" points="43.2,-74 43.2,-104.8 854.81,-104.8 854.81,-74 43.2,-74"/>
<text text-anchor="start" x="50.2" y="-86.2" font-family="Arial" font-size="14.00">amountTypeId </text>
<text text-anchor="start" x="143.59" y="-86.2" font-family="Arial" font-size="14.00" fill="#666666">[int unsigned]</text>
<text text-anchor="start" x="226.87" y="-86.2" font-family="Arial" font-size="14.00"> This is part of the transaction type that contains valid elements for &#45; Amount Type</text>
<polygon fill="none" stroke="black" points="43.2,-43.2 43.2,-74 854.81,-74 854.81,-43.2 43.2,-43.2"/>
<text text-anchor="start" x="50.2" y="-55.4" font-family="Arial" font-size="14.00">currencyId </text>
<text text-anchor="start" x="119.45" y="-55.4" font-family="Arial" font-size="14.00" fill="#666666">[varchar(255)]</text>
<text text-anchor="start" x="206.59" y="-55.4" font-family="Arial" font-size="14.00"> Trading currency pertaining to the Amount</text>
</g>
<!-- quoteError&#45;&gt;quote -->
<g id="edge1" class="edge">
<title>quoteError:quoteId&#45;&gt;quote:quoteId</title>
<path fill="none" stroke="black" d="M534.39,-526.05C506.29,-516.27 520.61,-462.86 545.51,-435.2 638.1,-332.34 762.23,-502.07 854.81,-399.2 882.82,-368.08 897.68,-305 855.81,-305"/>
<polygon fill="black" stroke="black" points="534.29,-526.03 543.49,-532 539.56,-526.84 543.85,-527.5 543.85,-527.5 543.85,-527.5 539.56,-526.84 544.86,-523.1 534.29,-526.03"/>
<text text-anchor="start" x="284.63" y="-537.6" font-family="Arial" font-size="10.00">FOREIGN KEY (quoteId) REFERENCES quote (quoteId)</text>
</g>
<!-- quoteResponse -->
<g id="node3" class="node">
<title>quoteResponse</title>
<polygon fill="#efefef" stroke="none" points="959.51,-253.6 959.51,-299.6 1594.5,-299.6 1594.5,-253.6 959.51,-253.6"/>
<polygon fill="none" stroke="black" points="959.51,-253.6 959.51,-299.6 1594.5,-299.6 1594.5,-253.6 959.51,-253.6"/>
<text text-anchor="start" x="1160.27" y="-277.4" font-family="Arial Bold" font-size="18.00">quoteResponse</text>
<text text-anchor="start" x="1269.25" y="-277.4" font-family="Arial" font-size="14.00">    </text>
<text text-anchor="start" x="1300.37" y="-277.4" font-family="Arial" font-size="14.00" fill="#666666">[BASE TABLE]</text>
<text text-anchor="start" x="1121.38" y="-263" font-family="Arial" font-size="14.00" fill="#333333">This table is the primary store for quote responses</text>
<polygon fill="none" stroke="black" points="959.51,-222.8 959.51,-253.6 1594.5,-253.6 1594.5,-222.8 959.51,-222.8"/>
<text text-anchor="start" x="966.51" y="-235" font-family="Arial" font-size="14.00">quoteResponseId </text>
<text text-anchor="start" x="1080.15" y="-235" font-family="Arial" font-size="14.00" fill="#666666">[bigint unsigned]</text>
<polygon fill="none" stroke="black" points="959.51,-192 959.51,-222.8 1594.5,-222.8 1594.5,-192 959.51,-192"/>
<text text-anchor="start" x="966.51" y="-204.2" font-family="Arial" font-size="14.00">quoteId </text>
<text text-anchor="start" x="1017.11" y="-204.2" font-family="Arial" font-size="14.00" fill="#666666">[varchar(36)]</text>
<text text-anchor="start" x="1096.46" y="-204.2" font-family="Arial" font-size="14.00"> Common ID between the FSPs for the quote object, decided by the Payer FSP</text>
<polygon fill="none" stroke="black" points="959.51,-161.2 959.51,-192 1594.5,-192 1594.5,-161.2 959.51,-161.2"/>
<text text-anchor="start" x="966.51" y="-173.4" font-family="Arial" font-size="14.00">transferAmountCurrencyId </text>
<text text-anchor="start" x="1134.57" y="-173.4" font-family="Arial" font-size="14.00" fill="#666666">[varchar(3)]</text>
<text text-anchor="start" x="1206.15" y="-173.4" font-family="Arial" font-size="14.00"> CurrencyId of the transfer amount</text>
<polygon fill="none" stroke="black" points="959.51,-130.4 959.51,-161.2 1594.5,-161.2 1594.5,-130.4 959.51,-130.4"/>
<text text-anchor="start" x="966.51" y="-142.6" font-family="Arial" font-size="14.00">payeeReceiveAmountCurrencyId </text>
<text text-anchor="start" x="1175.84" y="-142.6" font-family="Arial" font-size="14.00" fill="#666666">[varchar(3)]</text>
<text text-anchor="start" x="1247.41" y="-142.6" font-family="Arial" font-size="14.00"> CurrencyId of the payee receive amount</text>
<polygon fill="none" stroke="black" points="959.51,-99.6 959.51,-130.4 1594.5,-130.4 1594.5,-99.6 959.51,-99.6"/>
<text text-anchor="start" x="966.51" y="-111.8" font-family="Arial" font-size="14.00">payeeFspCommissionCurrencyId </text>
<text text-anchor="start" x="1177.36" y="-111.8" font-family="Arial" font-size="14.00" fill="#666666">[varchar(3)]</text>
<text text-anchor="start" x="1248.93" y="-111.8" font-family="Arial" font-size="14.00"> CurrencyId of the payee fsp commission amount</text>
</g>
<!-- quoteError&#45;&gt;quoteResponse -->
<g id="edge2" class="edge">
<title>quoteError:quoteResponseId&#45;&gt;quoteResponse:quoteResponseId</title>
<path fill="none" stroke="black" d="M1191.52,-494.16C1204.76,-485.03 1193.46,-454.33 1180.5,-435.2 1120.79,-347.07 1018.93,-431.13 959.51,-342.8 933.56,-304.22 912.02,-238.2 958.51,-238.2"/>
<polygon fill="black" stroke="black" points="1191.5,-494.17 1180.68,-492.36 1186.34,-495.53 1182.15,-496.63 1182.15,-496.63 1182.15,-496.63 1186.34,-495.53 1182.97,-501.07 1191.5,-494.17"/>
<text text-anchor="start" x="1188.5" y="-506.8" font-family="Arial" font-size="10.00">FOREIGN KEY (quoteResponseId) REFERENCES quoteResponse (quoteResponseId)</text>
</g>
</g>
</svg>
