<?xml version="1.0" encoding="UTF-8" standalone="no"?>
<!DOCTYPE svg PUBLIC "-//W3C//DTD SVG 1.1//EN"
 "http://www.w3.org/Graphics/SVG/1.1/DTD/svg11.dtd">
<!-- Generated by graphviz version 12.1.2 (20240928.0832)
 -->
<!-- Title: quote Pages: 1 -->
<svg width="4010pt" height="1037pt"
 viewBox="0.00 0.00 4009.70 1037.20" xmlns="http://www.w3.org/2000/svg" xmlns:xlink="http://www.w3.org/1999/xlink">
<g id="graph0" class="graph" transform="scale(1 1) rotate(0) translate(4 1033.2)">
<title>quote</title>
<polygon fill="white" stroke="none" points="-4,4 -4,-1033.2 4005.7,-1033.2 4005.7,4 -4,4"/>
<!-- quote -->
<g id="node1" class="node">
<title>quote</title>
<polygon fill="#efefef" stroke="none" points="1707.2,-543 1707.2,-578.6 2518.81,-578.6 2518.81,-543 1707.2,-543"/>
<polygon fill="none" stroke="black" points="1707.2,-543 1707.2,-578.6 2518.81,-578.6 2518.81,-543 1707.2,-543"/>
<text text-anchor="start" x="2030.77" y="-556.4" font-family="Arial Bold" font-size="18.00">quote</text>
<text text-anchor="start" x="2070.76" y="-556.4" font-family="Arial" font-size="14.00">    </text>
<text text-anchor="start" x="2101.87" y="-556.4" font-family="Arial" font-size="14.00" fill="#666666">[BASE TABLE]</text>
<polygon fill="none" stroke="black" points="1707.2,-512.2 1707.2,-543 2518.81,-543 2518.81,-512.2 1707.2,-512.2"/>
<text text-anchor="start" x="1714.2" y="-524.4" font-family="Arial" font-size="14.00">quoteId </text>
<text text-anchor="start" x="1764.8" y="-524.4" font-family="Arial" font-size="14.00" fill="#666666">[varchar(36)]</text>
<polygon fill="none" stroke="black" points="1707.2,-481.4 1707.2,-512.2 2518.81,-512.2 2518.81,-481.4 1707.2,-481.4"/>
<text text-anchor="start" x="1714.2" y="-493.6" font-family="Arial" font-size="14.00">transactionReferenceId </text>
<text text-anchor="start" x="1862.84" y="-493.6" font-family="Arial" font-size="14.00" fill="#666666">[varchar(36)]</text>
<text text-anchor="start" x="1942.2" y="-493.6" font-family="Arial" font-size="14.00"> Common ID (decided by the Payer FSP) between the FSPs for the future transaction object</text>
<polygon fill="none" stroke="black" points="1707.2,-450.6 1707.2,-481.4 2518.81,-481.4 2518.81,-450.6 1707.2,-450.6"/>
<text text-anchor="start" x="1714.2" y="-462.8" font-family="Arial" font-size="14.00">transactionInitiatorId </text>
<text text-anchor="start" x="1844.16" y="-462.8" font-family="Arial" font-size="14.00" fill="#666666">[int unsigned]</text>
<text text-anchor="start" x="1927.44" y="-462.8" font-family="Arial" font-size="14.00"> This is part of the transaction initiator</text>
<polygon fill="none" stroke="black" points="1707.2,-419.8 1707.2,-450.6 2518.81,-450.6 2518.81,-419.8 1707.2,-419.8"/>
<text text-anchor="start" x="1714.2" y="-432" font-family="Arial" font-size="14.00">transactionInitiatorTypeId </text>
<text text-anchor="start" x="1875.28" y="-432" font-family="Arial" font-size="14.00" fill="#666666">[int unsigned]</text>
<text text-anchor="start" x="1958.56" y="-432" font-family="Arial" font-size="14.00"> This is part of the transaction initiator type</text>
<polygon fill="none" stroke="black" points="1707.2,-389 1707.2,-419.8 2518.81,-419.8 2518.81,-389 1707.2,-389"/>
<text text-anchor="start" x="1714.2" y="-401.2" font-family="Arial" font-size="14.00">transactionScenarioId </text>
<text text-anchor="start" x="1853.5" y="-401.2" font-family="Arial" font-size="14.00" fill="#666666">[int unsigned]</text>
<text text-anchor="start" x="1936.78" y="-401.2" font-family="Arial" font-size="14.00"> This is part of the transaction scenario</text>
<polygon fill="none" stroke="black" points="1707.2,-358.2 1707.2,-389 2518.81,-389 2518.81,-358.2 1707.2,-358.2"/>
<text text-anchor="start" x="1714.2" y="-370.4" font-family="Arial" font-size="14.00">balanceOfPaymentsId </text>
<text text-anchor="start" x="1855.83" y="-370.4" font-family="Arial" font-size="14.00" fill="#666666">[int unsigned]</text>
<text text-anchor="start" x="1939.12" y="-370.4" font-family="Arial" font-size="14.00"> This is part of the transaction type that contains the elements&#45; balance of payment</text>
<polygon fill="none" stroke="black" points="1707.2,-327.4 1707.2,-358.2 2518.81,-358.2 2518.81,-327.4 1707.2,-327.4"/>
<text text-anchor="start" x="1714.2" y="-339.6" font-family="Arial" font-size="14.00">transactionSubScenarioId </text>
<text text-anchor="start" x="1878.41" y="-339.6" font-family="Arial" font-size="14.00" fill="#666666">[int unsigned]</text>
<text text-anchor="start" x="1961.7" y="-339.6" font-family="Arial" font-size="14.00"> This is part of the transaction type sub scenario as defined by the local scheme</text>
<polygon fill="none" stroke="black" points="1707.2,-296.6 1707.2,-327.4 2518.81,-327.4 2518.81,-296.6 1707.2,-296.6"/>
<text text-anchor="start" x="1714.2" y="-308.8" font-family="Arial" font-size="14.00">amountTypeId </text>
<text text-anchor="start" x="1807.59" y="-308.8" font-family="Arial" font-size="14.00" fill="#666666">[int unsigned]</text>
<text text-anchor="start" x="1890.87" y="-308.8" font-family="Arial" font-size="14.00"> This is part of the transaction type that contains valid elements for &#45; Amount Type</text>
<polygon fill="none" stroke="black" points="1707.2,-265.8 1707.2,-296.6 2518.81,-296.6 2518.81,-265.8 1707.2,-265.8"/>
<text text-anchor="start" x="1714.2" y="-278" font-family="Arial" font-size="14.00">currencyId </text>
<text text-anchor="start" x="1783.45" y="-278" font-family="Arial" font-size="14.00" fill="#666666">[varchar(255)]</text>
<text text-anchor="start" x="1870.59" y="-278" font-family="Arial" font-size="14.00"> Trading currency pertaining to the Amount</text>
<polygon fill="none" stroke="black" stroke-width="3" points="1705.7,-264.3 1705.7,-580.1 2520.31,-580.1 2520.31,-264.3 1705.7,-264.3"/>
</g>
<!-- transactionReference -->
<g id="node7" class="node">
<title>transactionReference</title>
<polygon fill="#efefef" stroke="none" points="43.2,-104.8 43.2,-140.4 854.81,-140.4 854.81,-104.8 43.2,-104.8"/>
<polygon fill="none" stroke="black" points="43.2,-104.8 43.2,-140.4 854.81,-140.4 854.81,-104.8 43.2,-104.8"/>
<text text-anchor="start" x="310.81" y="-118.2" font-family="Arial Bold" font-size="18.00">transactionReference</text>
<text text-anchor="start" x="462.72" y="-118.2" font-family="Arial" font-size="14.00">    </text>
<text text-anchor="start" x="493.83" y="-118.2" font-family="Arial" font-size="14.00" fill="#666666">[BASE TABLE]</text>
<polygon fill="none" stroke="black" points="43.2,-74 43.2,-104.8 854.81,-104.8 854.81,-74 43.2,-74"/>
<text text-anchor="start" x="50.2" y="-86.2" font-family="Arial" font-size="14.00">transactionReferenceId </text>
<text text-anchor="start" x="198.84" y="-86.2" font-family="Arial" font-size="14.00" fill="#666666">[varchar(36)]</text>
<text text-anchor="start" x="278.2" y="-86.2" font-family="Arial" font-size="14.00"> Common ID (decided by the Payer FSP) between the FSPs for the future transaction object</text>
<polygon fill="none" stroke="black" points="43.2,-43.2 43.2,-74 854.81,-74 854.81,-43.2 43.2,-43.2"/>
<text text-anchor="start" x="50.2" y="-55.4" font-family="Arial" font-size="14.00">quoteId </text>
<text text-anchor="start" x="100.8" y="-55.4" font-family="Arial" font-size="14.00" fill="#666666">[varchar(36)]</text>
<text text-anchor="start" x="180.16" y="-55.4" font-family="Arial" font-size="14.00"> Common ID between the FSPs for the quote object, decided by the Payer FSP</text>
</g>
<!-- quote&#45;&gt;transactionReference -->
<g id="edge6" class="edge">
<title>quote:transactionReferenceId&#45;&gt;transactionReference:transactionReferenceId</title>
<path fill="none" stroke="black" d="M1695.92,-496.79C1322.31,-495.69 1190.42,-433.8 907.01,-183.6 871.28,-152.06 903.46,-89.4 855.81,-89.4"/>
<polygon fill="black" stroke="black" points="1695.87,-496.78 1705.86,-501.3 1701.2,-496.79 1705.53,-496.8 1705.53,-496.8 1705.53,-496.8 1701.2,-496.79 1705.87,-492.3 1695.87,-496.78"/>
<text text-anchor="start" x="1236.24" y="-506.8" font-family="Arial" font-size="10.00">FOREIGN KEY (transactionReferenceId) REFERENCES transactionReference (transactionReferenceId)</text>
</g>
<!-- transactionInitiator -->
<g id="node8" class="node">
<title>transactionInitiator</title>
<polygon fill="#efefef" stroke="none" points="959.28,-89.4 959.28,-125 1234.73,-125 1234.73,-89.4 959.28,-89.4"/>
<polygon fill="none" stroke="black" points="959.28,-89.4 959.28,-125 1234.73,-125 1234.73,-89.4 959.28,-89.4"/>
<text text-anchor="start" x="966.28" y="-102.8" font-family="Arial Bold" font-size="18.00">transactionInitiator</text>
<text text-anchor="start" x="1103.24" y="-102.8" font-family="Arial" font-size="14.00">    </text>
<text text-anchor="start" x="1134.35" y="-102.8" font-family="Arial" font-size="14.00" fill="#666666">[BASE TABLE]</text>
<polygon fill="none" stroke="black" points="959.28,-58.6 959.28,-89.4 1234.73,-89.4 1234.73,-58.6 959.28,-58.6"/>
<text text-anchor="start" x="966.28" y="-70.8" font-family="Arial" font-size="14.00">transactionInitiatorId </text>
<text text-anchor="start" x="1096.24" y="-70.8" font-family="Arial" font-size="14.00" fill="#666666">[int unsigned]</text>
</g>
<!-- quote&#45;&gt;transactionInitiator -->
<g id="edge7" class="edge">
<title>quote:transactionInitiatorId&#45;&gt;transactionInitiator:transactionInitiatorId</title>
<path fill="none" stroke="black" d="M1695.8,-465.92C1480.02,-462.49 1430.78,-351.62 1287.01,-183.6 1252.04,-142.74 1289.5,-74 1235.73,-74"/>
<polygon fill="black" stroke="black" points="1695.87,-465.92 1705.83,-470.5 1701.2,-465.96 1705.53,-465.99 1705.53,-465.99 1705.53,-465.99 1701.2,-465.96 1705.9,-461.5 1695.87,-465.92"/>
<text text-anchor="start" x="1276.27" y="-476" font-family="Arial" font-size="10.00">FOREIGN KEY (transactionInitiatorId) REFERENCES transactionInitiator (transactionInitiatorId)</text>
</g>
<!-- transactionInitiatorType -->
<g id="node9" class="node">
<title>transactionInitiatorType</title>
<polygon fill="#efefef" stroke="none" points="1338.79,-89.4 1338.79,-125 1651.22,-125 1651.22,-89.4 1338.79,-89.4"/>
<polygon fill="none" stroke="black" points="1338.79,-89.4 1338.79,-125 1651.22,-125 1651.22,-89.4 1338.79,-89.4"/>
<text text-anchor="start" x="1345.79" y="-102.8" font-family="Arial Bold" font-size="18.00">transactionInitiatorType</text>
<text text-anchor="start" x="1519.73" y="-102.8" font-family="Arial" font-size="14.00">    </text>
<text text-anchor="start" x="1550.85" y="-102.8" font-family="Arial" font-size="14.00" fill="#666666">[BASE TABLE]</text>
<polygon fill="none" stroke="black" points="1338.79,-58.6 1338.79,-89.4 1651.22,-89.4 1651.22,-58.6 1338.79,-58.6"/>
<text text-anchor="start" x="1345.79" y="-70.8" font-family="Arial" font-size="14.00">transactionInitiatorTypeId </text>
<text text-anchor="start" x="1506.87" y="-70.8" font-family="Arial" font-size="14.00" fill="#666666">[int unsigned]</text>
</g>
<!-- quote&#45;&gt;transactionInitiatorType -->
<g id="edge8" class="edge">
<title>quote:transactionInitiatorTypeId&#45;&gt;transactionInitiatorType:transactionInitiatorTypeId</title>
<path fill="none" stroke="black" d="M1696.38,-433.08C1634.39,-403.48 1729.73,-74 1652.22,-74"/>
<polygon fill="black" stroke="black" points="1696.1,-433.02 1704.92,-439.53 1701.31,-434.14 1705.55,-435.06 1705.55,-435.06 1705.55,-435.06 1701.31,-434.14 1706.82,-430.73 1696.1,-433.02"/>
<text text-anchor="start" x="1209.58" y="-445.2" font-family="Arial" font-size="10.00">FOREIGN KEY (transactionInitiatorTypeId) REFERENCES transactionInitiatorType (transactionInitiatorTypeId)</text>
</g>
<!-- transactionScenario -->
<g id="node10" class="node">
<title>transactionScenario</title>
<polygon fill="#efefef" stroke="none" points="1755.79,-89.4 1755.79,-125 2036.22,-125 2036.22,-89.4 1755.79,-89.4"/>
<polygon fill="none" stroke="black" points="1755.79,-89.4 1755.79,-125 2036.22,-125 2036.22,-89.4 1755.79,-89.4"/>
<text text-anchor="start" x="1762.79" y="-102.8" font-family="Arial Bold" font-size="18.00">transactionScenario</text>
<text text-anchor="start" x="1904.73" y="-102.8" font-family="Arial" font-size="14.00">    </text>
<text text-anchor="start" x="1935.85" y="-102.8" font-family="Arial" font-size="14.00" fill="#666666">[BASE TABLE]</text>
<polygon fill="none" stroke="black" points="1755.79,-58.6 1755.79,-89.4 2036.22,-89.4 2036.22,-58.6 1755.79,-58.6"/>
<text text-anchor="start" x="1762.79" y="-70.8" font-family="Arial" font-size="14.00">transactionScenarioId </text>
<text text-anchor="start" x="1902.09" y="-70.8" font-family="Arial" font-size="14.00" fill="#666666">[int unsigned]</text>
</g>
<!-- quote&#45;&gt;transactionScenario -->
<g id="edge9" class="edge">
<title>quote:transactionScenarioId&#45;&gt;transactionScenario:transactionScenarioId</title>
<path fill="none" stroke="black" d="M1695.8,-403.67C1626.77,-393.51 1656.03,-279.06 1707.2,-219.6 1803.74,-107.42 1939.39,-280.13 2036.22,-168.2 2063.62,-136.54 2079.09,-74 2037.22,-74"/>
<polygon fill="black" stroke="black" points="1695.89,-403.68 1705.55,-408.87 1701.21,-404.05 1705.53,-404.35 1705.53,-404.35 1705.53,-404.35 1701.21,-404.05 1706.18,-399.89 1695.89,-403.68"/>
<text text-anchor="start" x="1256.25" y="-414.4" font-family="Arial" font-size="10.00">FOREIGN KEY (transactionScenarioId) REFERENCES transactionScenario (transactionScenarioId)</text>
</g>
<!-- balanceOfPayments -->
<g id="node11" class="node">
<title>balanceOfPayments</title>
<polygon fill="#efefef" stroke="none" points="2140.74,-84.2 2140.74,-130.2 2521.27,-130.2 2521.27,-84.2 2140.74,-84.2"/>
<polygon fill="none" stroke="black" points="2140.74,-84.2 2140.74,-130.2 2521.27,-130.2 2521.27,-84.2 2140.74,-84.2"/>
<text text-anchor="start" x="2196.79" y="-108" font-family="Arial Bold" font-size="18.00">balanceOfPayments</text>
<text text-anchor="start" x="2340.73" y="-108" font-family="Arial" font-size="14.00">    </text>
<text text-anchor="start" x="2371.85" y="-108" font-family="Arial" font-size="14.00" fill="#666666">[BASE TABLE]</text>
<text text-anchor="start" x="2147.74" y="-93.6" font-family="Arial" font-size="14.00" fill="#333333">See https://www.imf.org/external/np/sta/bopcode/guide.htm</text>
<polygon fill="none" stroke="black" points="2140.74,-53.4 2140.74,-84.2 2521.27,-84.2 2521.27,-53.4 2140.74,-53.4"/>
<text text-anchor="start" x="2147.74" y="-65.6" font-family="Arial" font-size="14.00">balanceOfPaymentsId </text>
<text text-anchor="start" x="2289.37" y="-65.6" font-family="Arial" font-size="14.00" fill="#666666">[int unsigned]</text>
</g>
<!-- quote&#45;&gt;balanceOfPayments -->
<g id="edge10" class="edge">
<title>quote:balanceOfPaymentsId&#45;&gt;balanceOfPayments:balanceOfPaymentsId</title>
<path fill="none" stroke="black" d="M2529.88,-372.76C2585.67,-362.89 2561.94,-268.01 2518.81,-219.6 2406.19,-93.21 2253.55,-299.61 2140.74,-173.4 2109.76,-138.74 2093.25,-68.8 2139.74,-68.8"/>
<polygon fill="black" stroke="black" points="2530.11,-372.74 2519.77,-369.09 2524.79,-373.19 2520.48,-373.54 2520.48,-373.54 2520.48,-373.54 2524.79,-373.19 2520.52,-378.06 2530.11,-372.74"/>
<text text-anchor="start" x="2526.81" y="-383.6" font-family="Arial" font-size="10.00">FOREIGN KEY (balanceOfPaymentsId) REFERENCES balanceOfPayments (balanceOfPaymentsId)</text>
</g>
<!-- transactionSubScenario -->
<g id="node12" class="node">
<title>transactionSubScenario</title>
<polygon fill="#efefef" stroke="none" points="2625.78,-89.4 2625.78,-125 2934.23,-125 2934.23,-89.4 2625.78,-89.4"/>
<polygon fill="none" stroke="black" points="2625.78,-89.4 2625.78,-125 2934.23,-125 2934.23,-89.4 2625.78,-89.4"/>
<text text-anchor="start" x="2632.78" y="-102.8" font-family="Arial Bold" font-size="18.00">transactionSubScenario</text>
<text text-anchor="start" x="2802.74" y="-102.8" font-family="Arial" font-size="14.00">    </text>
<text text-anchor="start" x="2833.85" y="-102.8" font-family="Arial" font-size="14.00" fill="#666666">[BASE TABLE]</text>
<polygon fill="none" stroke="black" points="2625.78,-58.6 2625.78,-89.4 2934.23,-89.4 2934.23,-58.6 2625.78,-58.6"/>
<text text-anchor="start" x="2632.78" y="-70.8" font-family="Arial" font-size="14.00">transactionSubScenarioId </text>
<text text-anchor="start" x="2797" y="-70.8" font-family="Arial" font-size="14.00" fill="#666666">[int unsigned]</text>
</g>
<!-- quote&#45;&gt;transactionSubScenario -->
<g id="edge11" class="edge">
<title>quote:transactionSubScenarioId&#45;&gt;transactionSubScenario:transactionSubScenarioId</title>
<path fill="none" stroke="black" d="M2529.9,-340.31C2581.58,-313.21 2564.29,-74 2624.78,-74"/>
<polygon fill="black" stroke="black" points="2529.84,-340.32 2519.06,-338.35 2524.66,-341.6 2520.46,-342.64 2520.46,-342.64 2520.46,-342.64 2524.66,-341.6 2521.21,-347.09 2529.84,-340.32"/>
<text text-anchor="start" x="2526.81" y="-352.8" font-family="Arial" font-size="10.00">FOREIGN KEY (transactionSubScenarioId) REFERENCES transactionSubScenario (transactionSubScenarioId)</text>
</g>
<!-- amountType -->
<g id="node13" class="node">
<title>amountType</title>
<polygon fill="#efefef" stroke="none" points="3038.27,-89.4 3038.27,-125 3267.74,-125 3267.74,-89.4 3038.27,-89.4"/>
<polygon fill="none" stroke="black" points="3038.27,-89.4 3038.27,-125 3267.74,-125 3267.74,-89.4 3038.27,-89.4"/>
<text text-anchor="start" x="3045.27" y="-102.8" font-family="Arial Bold" font-size="18.00">amountType</text>
<text text-anchor="start" x="3136.25" y="-102.8" font-family="Arial" font-size="14.00">    </text>
<text text-anchor="start" x="3167.37" y="-102.8" font-family="Arial" font-size="14.00" fill="#666666">[BASE TABLE]</text>
<polygon fill="none" stroke="black" points="3038.27,-58.6 3038.27,-89.4 3267.74,-89.4 3267.74,-58.6 3038.27,-58.6"/>
<text text-anchor="start" x="3045.27" y="-70.8" font-family="Arial" font-size="14.00">amountTypeId </text>
<text text-anchor="start" x="3138.66" y="-70.8" font-family="Arial" font-size="14.00" fill="#666666">[int unsigned]</text>
</g>
<!-- quote&#45;&gt;amountType -->
<g id="edge12" class="edge">
<title>quote:amountTypeId&#45;&gt;amountType:amountTypeId</title>
<path fill="none" stroke="black" d="M2530.02,-311.84C2643.84,-308.41 2906.37,-250.81 2986.01,-183.6 3027.1,-148.91 2983.5,-74 3037.27,-74"/>
<polygon fill="black" stroke="black" points="2530.14,-311.84 2520.07,-307.5 2524.81,-311.92 2520.48,-311.99 2520.48,-311.99 2520.48,-311.99 2524.81,-311.92 2520.22,-316.49 2530.14,-311.84"/>
<text text-anchor="start" x="2526.81" y="-322" font-family="Arial" font-size="10.00">FOREIGN KEY (amountTypeId) REFERENCES amountType (amountTypeId)</text>
</g>
<!-- currency -->
<g id="node14" class="node">
<title>currency</title>
<polygon fill="#efefef" stroke="none" points="3372.28,-89.4 3372.28,-125 3573.73,-125 3573.73,-89.4 3372.28,-89.4"/>
<polygon fill="none" stroke="black" points="3372.28,-89.4 3372.28,-125 3573.73,-125 3573.73,-89.4 3372.28,-89.4"/>
<text text-anchor="start" x="3379.28" y="-102.8" font-family="Arial Bold" font-size="18.00">currency</text>
<text text-anchor="start" x="3442.24" y="-102.8" font-family="Arial" font-size="14.00">    </text>
<text text-anchor="start" x="3473.36" y="-102.8" font-family="Arial" font-size="14.00" fill="#666666">[BASE TABLE]</text>
<polygon fill="none" stroke="black" points="3372.28,-58.6 3372.28,-89.4 3573.73,-89.4 3573.73,-58.6 3372.28,-58.6"/>
<text text-anchor="start" x="3379.28" y="-70.8" font-family="Arial" font-size="14.00">currencyId </text>
<text text-anchor="start" x="3448.53" y="-70.8" font-family="Arial" font-size="14.00" fill="#666666">[varchar(3)]</text>
</g>
<!-- quote&#45;&gt;currency -->
<g id="edge13" class="edge">
<title>quote:currencyId&#45;&gt;currency:currencyId</title>
<path fill="none" stroke="black" d="M2530.14,-281.06C2649.92,-278.29 3249.82,-234.48 3320.01,-183.6 3363.55,-152.03 3317.5,-74 3371.28,-74"/>
<polygon fill="black" stroke="black" points="2530.14,-281.06 2520.08,-276.7 2524.81,-281.13 2520.48,-281.19 2520.48,-281.19 2520.48,-281.19 2524.81,-281.13 2520.21,-285.7 2530.14,-281.06"/>
<text text-anchor="start" x="2526.81" y="-291.2" font-family="Arial" font-size="10.00">FOREIGN KEY (currencyId) REFERENCES currency (currencyId)</text>
</g>
<!-- quoteError -->
<g id="node2" class="node">
<title>quoteError</title>
<polygon fill="#efefef" stroke="none" points="267.51,-873.4 267.51,-909 902.5,-909 902.5,-873.4 267.51,-873.4"/>
<polygon fill="none" stroke="black" points="267.51,-873.4 267.51,-909 902.5,-909 902.5,-873.4 267.51,-873.4"/>
<text text-anchor="start" x="483.78" y="-886.8" font-family="Arial Bold" font-size="18.00">quoteError</text>
<text text-anchor="start" x="561.74" y="-886.8" font-family="Arial" font-size="14.00">    </text>
<text text-anchor="start" x="592.86" y="-886.8" font-family="Arial" font-size="14.00" fill="#666666">[BASE TABLE]</text>
<polygon fill="none" stroke="black" points="267.51,-842.6 267.51,-873.4 902.5,-873.4 902.5,-842.6 267.51,-842.6"/>
<text text-anchor="start" x="274.51" y="-854.8" font-family="Arial" font-size="14.00">quoteErrorId </text>
<text text-anchor="start" x="356.22" y="-854.8" font-family="Arial" font-size="14.00" fill="#666666">[bigint unsigned]</text>
<polygon fill="none" stroke="black" points="267.51,-811.8 267.51,-842.6 902.5,-842.6 902.5,-811.8 267.51,-811.8"/>
<text text-anchor="start" x="274.51" y="-824" font-family="Arial" font-size="14.00">quoteId </text>
<text text-anchor="start" x="325.11" y="-824" font-family="Arial" font-size="14.00" fill="#666666">[varchar(36)]</text>
<text text-anchor="start" x="404.46" y="-824" font-family="Arial" font-size="14.00"> Common ID between the FSPs for the quote object, decided by the Payer FSP</text>
<polygon fill="none" stroke="black" points="267.51,-781 267.51,-811.8 902.5,-811.8 902.5,-781 267.51,-781"/>
<text text-anchor="start" x="274.51" y="-793.2" font-family="Arial" font-size="14.00">quoteResponseId </text>
<text text-anchor="start" x="388.15" y="-793.2" font-family="Arial" font-size="14.00" fill="#666666">[bigint unsigned]</text>
<text text-anchor="start" x="490.11" y="-793.2" font-family="Arial" font-size="14.00"> The response to the intial quote</text>
</g>
<!-- quoteError&#45;&gt;quote -->
<g id="edge1" class="edge">
<title>quoteError:quoteId&#45;&gt;quote:quoteId</title>
<path fill="none" stroke="black" d="M913.7,-826.4C972.87,-816.11 899.02,-709.59 954.01,-660.8 1080.99,-548.14 1536.45,-527.6 1706.2,-527.6"/>
<polygon fill="black" stroke="black" points="913.81,-826.39 903.48,-822.69 908.49,-826.81 904.17,-827.15 904.17,-827.15 904.17,-827.15 908.49,-826.81 904.19,-831.66 913.81,-826.39"/>
<text text-anchor="start" x="777.07" y="-811.2" font-family="Arial" font-size="10.00">FOREIGN KEY (quoteId) REFERENCES quote (quoteId)</text>
</g>
<!-- quoteExtension -->
<g id="node3" class="node">
<title>quoteExtension</title>
<polygon fill="#efefef" stroke="none" points="1006.51,-888.8 1006.51,-924.4 1641.5,-924.4 1641.5,-888.8 1006.51,-888.8"/>
<polygon fill="none" stroke="black" points="1006.51,-888.8 1006.51,-924.4 1641.5,-924.4 1641.5,-888.8 1006.51,-888.8"/>
<text text-anchor="start" x="1205.77" y="-902.2" font-family="Arial Bold" font-size="18.00">quoteExtension</text>
<text text-anchor="start" x="1317.75" y="-902.2" font-family="Arial" font-size="14.00">    </text>
<text text-anchor="start" x="1348.87" y="-902.2" font-family="Arial" font-size="14.00" fill="#666666">[BASE TABLE]</text>
<polygon fill="none" stroke="black" points="1006.51,-858 1006.51,-888.8 1641.5,-888.8 1641.5,-858 1006.51,-858"/>
<text text-anchor="start" x="1013.51" y="-870.2" font-family="Arial" font-size="14.00">quoteExtensionId </text>
<text text-anchor="start" x="1125.59" y="-870.2" font-family="Arial" font-size="14.00" fill="#666666">[bigint unsigned]</text>
<polygon fill="none" stroke="black" points="1006.51,-827.2 1006.51,-858 1641.5,-858 1641.5,-827.2 1006.51,-827.2"/>
<text text-anchor="start" x="1013.51" y="-839.4" font-family="Arial" font-size="14.00">quoteId </text>
<text text-anchor="start" x="1064.11" y="-839.4" font-family="Arial" font-size="14.00" fill="#666666">[varchar(36)]</text>
<text text-anchor="start" x="1143.46" y="-839.4" font-family="Arial" font-size="14.00"> Common ID between the FSPs for the quote object, decided by the Payer FSP</text>
<polygon fill="none" stroke="black" points="1006.51,-796.4 1006.51,-827.2 1641.5,-827.2 1641.5,-796.4 1006.51,-796.4"/>
<text text-anchor="start" x="1013.51" y="-808.6" font-family="Arial" font-size="14.00">quoteResponseId </text>
<text text-anchor="start" x="1127.15" y="-808.6" font-family="Arial" font-size="14.00" fill="#666666">[bigint unsigned]</text>
<polygon fill="none" stroke="black" points="1006.51,-765.6 1006.51,-796.4 1641.5,-796.4 1641.5,-765.6 1006.51,-765.6"/>
<text text-anchor="start" x="1013.51" y="-777.8" font-family="Arial" font-size="14.00">transactionId </text>
<text text-anchor="start" x="1097.55" y="-777.8" font-family="Arial" font-size="14.00" fill="#666666">[varchar(36)]</text>
<text text-anchor="start" x="1176.91" y="-777.8" font-family="Arial" font-size="14.00"> The transaction reference that is part of the initial quote</text>
</g>
<!-- quoteExtension&#45;&gt;quote -->
<g id="edge2" class="edge">
<title>quoteExtension:quoteId&#45;&gt;quote:quoteId</title>
<path fill="none" stroke="black" d="M1652.69,-842C1774.3,-826.81 1566.99,-527.6 1706.2,-527.6"/>
<polygon fill="black" stroke="black" points="1652.82,-841.99 1642.57,-838.09 1647.5,-842.31 1643.17,-842.56 1643.17,-842.56 1643.17,-842.56 1647.5,-842.31 1643.1,-847.07 1652.82,-841.99"/>
<text text-anchor="start" x="1649.5" y="-852.6" font-family="Arial" font-size="10.00">FOREIGN KEY (quoteId) REFERENCES quote (quoteId)</text>
</g>
<!-- quoteParty -->
<g id="node4" class="node">
<title>quoteParty</title>
<polygon fill="#efefef" stroke="none" points="1745.71,-950.4 1745.71,-986 2480.3,-986 2480.3,-950.4 1745.71,-950.4"/>
<polygon fill="none" stroke="black" points="1745.71,-950.4 1745.71,-986 2480.3,-986 2480.3,-950.4 1745.71,-950.4"/>
<text text-anchor="start" x="2011.77" y="-963.8" font-family="Arial Bold" font-size="18.00">quoteParty</text>
<text text-anchor="start" x="2089.75" y="-963.8" font-family="Arial" font-size="14.00">    </text>
<text text-anchor="start" x="2120.87" y="-963.8" font-family="Arial" font-size="14.00" fill="#666666">[BASE TABLE]</text>
<polygon fill="none" stroke="black" points="1745.71,-919.6 1745.71,-950.4 2480.3,-950.4 2480.3,-919.6 1745.71,-919.6"/>
<text text-anchor="start" x="1752.71" y="-931.8" font-family="Arial" font-size="14.00">quotePartyId </text>
<text text-anchor="start" x="1835.99" y="-931.8" font-family="Arial" font-size="14.00" fill="#666666">[bigint unsigned]</text>
<polygon fill="none" stroke="black" points="1745.71,-888.8 1745.71,-919.6 2480.3,-919.6 2480.3,-888.8 1745.71,-888.8"/>
<text text-anchor="start" x="1752.71" y="-901" font-family="Arial" font-size="14.00">quoteId </text>
<text text-anchor="start" x="1803.31" y="-901" font-family="Arial" font-size="14.00" fill="#666666">[varchar(36)]</text>
<text text-anchor="start" x="1882.67" y="-901" font-family="Arial" font-size="14.00"> Common ID between the FSPs for the quote object, decided by the Payer FSP</text>
<polygon fill="none" stroke="black" points="1745.71,-858 1745.71,-888.8 2480.3,-888.8 2480.3,-858 1745.71,-858"/>
<text text-anchor="start" x="1752.71" y="-870.2" font-family="Arial" font-size="14.00">partyTypeId </text>
<text text-anchor="start" x="1830.53" y="-870.2" font-family="Arial" font-size="14.00" fill="#666666">[int unsigned]</text>
<text text-anchor="start" x="1913.81" y="-870.2" font-family="Arial" font-size="14.00"> Specifies the type of party this row relates to; typically PAYER or PAYEE</text>
<polygon fill="none" stroke="black" points="1745.71,-827.2 1745.71,-858 2480.3,-858 2480.3,-827.2 1745.71,-827.2"/>
<text text-anchor="start" x="1752.71" y="-839.4" font-family="Arial" font-size="14.00">partyIdentifierTypeId </text>
<text text-anchor="start" x="1884.22" y="-839.4" font-family="Arial" font-size="14.00" fill="#666666">[int unsigned]</text>
<text text-anchor="start" x="1967.51" y="-839.4" font-family="Arial" font-size="14.00"> Specifies the type of identifier used to identify this party e.g. MSISDN, IBAN etc...</text>
<polygon fill="none" stroke="black" points="1745.71,-796.4 1745.71,-827.2 2480.3,-827.2 2480.3,-796.4 1745.71,-796.4"/>
<text text-anchor="start" x="1752.71" y="-808.6" font-family="Arial" font-size="14.00">participantId </text>
<text text-anchor="start" x="1832.87" y="-808.6" font-family="Arial" font-size="14.00" fill="#666666">[int unsigned]</text>
<text text-anchor="start" x="1916.15" y="-808.6" font-family="Arial" font-size="14.00"> Reference to the resolved FSP ID (if supplied/known). If not an error will be reported</text>
<polygon fill="none" stroke="black" points="1745.71,-765.6 1745.71,-796.4 2480.3,-796.4 2480.3,-765.6 1745.71,-765.6"/>
<text text-anchor="start" x="1752.71" y="-777.8" font-family="Arial" font-size="14.00">transferParticipantRoleTypeId </text>
<text text-anchor="start" x="1941.8" y="-777.8" font-family="Arial" font-size="14.00" fill="#666666">[int unsigned]</text>
<text text-anchor="start" x="2025.08" y="-777.8" font-family="Arial" font-size="14.00"> The role this Party is playing in the transaction</text>
<polygon fill="none" stroke="black" points="1745.71,-734.8 1745.71,-765.6 2480.3,-765.6 2480.3,-734.8 1745.71,-734.8"/>
<text text-anchor="start" x="1752.71" y="-747" font-family="Arial" font-size="14.00">ledgerEntryTypeId </text>
<text text-anchor="start" x="1871" y="-747" font-family="Arial" font-size="14.00" fill="#666666">[int unsigned]</text>
<text text-anchor="start" x="1954.28" y="-747" font-family="Arial" font-size="14.00"> The type of financial entry this Party is presenting</text>
<polygon fill="none" stroke="black" points="1745.71,-704 1745.71,-734.8 2480.3,-734.8 2480.3,-704 1745.71,-704"/>
<text text-anchor="start" x="1752.71" y="-716.2" font-family="Arial" font-size="14.00">currencyId </text>
<text text-anchor="start" x="1821.96" y="-716.2" font-family="Arial" font-size="14.00" fill="#666666">[varchar(3)]</text>
<text text-anchor="start" x="1893.53" y="-716.2" font-family="Arial" font-size="14.00"> Trading currency pertaining to the party amount</text>
</g>
<!-- quoteParty&#45;&gt;quote -->
<g id="edge3" class="edge">
<title>quoteParty:quoteId&#45;&gt;quote:quoteId</title>
<path fill="none" stroke="black" d="M2487.19,-895.98C2508.64,-840.91 2538.99,-527.6 2519.81,-527.6"/>
<polygon fill="black" stroke="black" points="2487.32,-895.8 2477.84,-901.3 2484.21,-900.14 2481.69,-903.66 2481.69,-903.66 2481.69,-903.66 2484.21,-900.14 2485.15,-906.55 2487.32,-895.8"/>
<text text-anchor="start" x="2488.3" y="-914.2" font-family="Arial" font-size="10.00">FOREIGN KEY (quoteId) REFERENCES quote (quoteId)</text>
</g>
<!-- quoteResponse -->
<g id="node5" class="node">
<title>quoteResponse</title>
<polygon fill="#efefef" stroke="none" points="2584.51,-899 2584.51,-945 3219.5,-945 3219.5,-899 2584.51,-899"/>
<polygon fill="none" stroke="black" points="2584.51,-899 2584.51,-945 3219.5,-945 3219.5,-899 2584.51,-899"/>
<text text-anchor="start" x="2785.27" y="-922.8" font-family="Arial Bold" font-size="18.00">quoteResponse</text>
<text text-anchor="start" x="2894.25" y="-922.8" font-family="Arial" font-size="14.00">    </text>
<text text-anchor="start" x="2925.37" y="-922.8" font-family="Arial" font-size="14.00" fill="#666666">[BASE TABLE]</text>
<text text-anchor="start" x="2746.38" y="-908.4" font-family="Arial" font-size="14.00" fill="#333333">This table is the primary store for quote responses</text>
<polygon fill="none" stroke="black" points="2584.51,-868.2 2584.51,-899 3219.5,-899 3219.5,-868.2 2584.51,-868.2"/>
<text text-anchor="start" x="2591.51" y="-880.4" font-family="Arial" font-size="14.00">quoteResponseId </text>
<text text-anchor="start" x="2705.15" y="-880.4" font-family="Arial" font-size="14.00" fill="#666666">[bigint unsigned]</text>
<polygon fill="none" stroke="black" points="2584.51,-837.4 2584.51,-868.2 3219.5,-868.2 3219.5,-837.4 2584.51,-837.4"/>
<text text-anchor="start" x="2591.51" y="-849.6" font-family="Arial" font-size="14.00">quoteId </text>
<text text-anchor="start" x="2642.11" y="-849.6" font-family="Arial" font-size="14.00" fill="#666666">[varchar(36)]</text>
<text text-anchor="start" x="2721.46" y="-849.6" font-family="Arial" font-size="14.00"> Common ID between the FSPs for the quote object, decided by the Payer FSP</text>
<polygon fill="none" stroke="black" points="2584.51,-806.6 2584.51,-837.4 3219.5,-837.4 3219.5,-806.6 2584.51,-806.6"/>
<text text-anchor="start" x="2591.51" y="-818.8" font-family="Arial" font-size="14.00">transferAmountCurrencyId </text>
<text text-anchor="start" x="2759.57" y="-818.8" font-family="Arial" font-size="14.00" fill="#666666">[varchar(3)]</text>
<text text-anchor="start" x="2831.15" y="-818.8" font-family="Arial" font-size="14.00"> CurrencyId of the transfer amount</text>
<polygon fill="none" stroke="black" points="2584.51,-775.8 2584.51,-806.6 3219.5,-806.6 3219.5,-775.8 2584.51,-775.8"/>
<text text-anchor="start" x="2591.51" y="-788" font-family="Arial" font-size="14.00">payeeReceiveAmountCurrencyId </text>
<text text-anchor="start" x="2800.84" y="-788" font-family="Arial" font-size="14.00" fill="#666666">[varchar(3)]</text>
<text text-anchor="start" x="2872.41" y="-788" font-family="Arial" font-size="14.00"> CurrencyId of the payee receive amount</text>
<polygon fill="none" stroke="black" points="2584.51,-745 2584.51,-775.8 3219.5,-775.8 3219.5,-745 2584.51,-745"/>
<text text-anchor="start" x="2591.51" y="-757.2" font-family="Arial" font-size="14.00">payeeFspCommissionCurrencyId </text>
<text text-anchor="start" x="2802.36" y="-757.2" font-family="Arial" font-size="14.00" fill="#666666">[varchar(3)]</text>
<text text-anchor="start" x="2873.93" y="-757.2" font-family="Arial" font-size="14.00"> CurrencyId of the payee fsp commission amount</text>
</g>
<!-- quoteResponse&#45;&gt;quote -->
<g id="edge4" class="edge">
<title>quoteResponse:quoteId&#45;&gt;quote:quoteId</title>
<path fill="none" stroke="black" d="M2573.38,-852.23C2447.27,-837.11 2663.49,-527.6 2519.81,-527.6"/>
<polygon fill="black" stroke="black" points="2573.19,-852.22 2582.92,-857.27 2578.51,-852.52 2582.84,-852.76 2582.84,-852.76 2582.84,-852.76 2578.51,-852.52 2583.43,-848.29 2573.19,-852.22"/>
<text text-anchor="start" x="2590.51" y="-862.8" font-family="Arial" font-size="10.00">FOREIGN KEY (quoteId) REFERENCES quote (quoteId)</text>
</g>
<!-- quoteResponseDuplicateCheck -->
<g id="node6" class="node">
<title>quoteResponseDuplicateCheck</title>
<polygon fill="#efefef" stroke="none" points="3323.51,-858 3323.51,-893.6 3958.5,-893.6 3958.5,-858 3323.51,-858"/>
<polygon fill="none" stroke="black" points="3323.51,-858 3323.51,-893.6 3958.5,-893.6 3958.5,-858 3323.51,-858"/>
<text text-anchor="start" x="3466.29" y="-871.4" font-family="Arial Bold" font-size="18.00">quoteResponseDuplicateCheck</text>
<text text-anchor="start" x="3691.23" y="-871.4" font-family="Arial" font-size="14.00">    </text>
<text text-anchor="start" x="3722.35" y="-871.4" font-family="Arial" font-size="14.00" fill="#666666">[BASE TABLE]</text>
<polygon fill="none" stroke="black" points="3323.51,-827.2 3323.51,-858 3958.5,-858 3958.5,-827.2 3323.51,-827.2"/>
<text text-anchor="start" x="3330.51" y="-839.4" font-family="Arial" font-size="14.00">quoteResponseId </text>
<text text-anchor="start" x="3444.15" y="-839.4" font-family="Arial" font-size="14.00" fill="#666666">[bigint unsigned]</text>
<text text-anchor="start" x="3546.11" y="-839.4" font-family="Arial" font-size="14.00"> The response to the intial quote</text>
<polygon fill="none" stroke="black" points="3323.51,-796.4 3323.51,-827.2 3958.5,-827.2 3958.5,-796.4 3323.51,-796.4"/>
<text text-anchor="start" x="3330.51" y="-808.6" font-family="Arial" font-size="14.00">quoteId </text>
<text text-anchor="start" x="3381.11" y="-808.6" font-family="Arial" font-size="14.00" fill="#666666">[varchar(36)]</text>
<text text-anchor="start" x="3460.46" y="-808.6" font-family="Arial" font-size="14.00"> Common ID between the FSPs for the quote object, decided by the Payer FSP</text>
</g>
<!-- quoteResponseDuplicateCheck&#45;&gt;quote -->
<g id="edge5" class="edge">
<title>quoteResponseDuplicateCheck:quoteId&#45;&gt;quote:quoteId</title>
<path fill="none" stroke="black" d="M3312.15,-810.89C3259.44,-800.51 3322.66,-704.49 3272.01,-660.8 3143.45,-549.94 2689.57,-527.6 2519.81,-527.6"/>
<polygon fill="black" stroke="black" points="3312.21,-810.89 3321.78,-816.25 3317.53,-811.36 3321.84,-811.74 3321.84,-811.74 3321.84,-811.74 3317.53,-811.36 3322.57,-807.29 3312.21,-810.89"/>
<text text-anchor="start" x="3062.63" y="-821.8" font-family="Arial" font-size="10.00">FOREIGN KEY (quoteId) REFERENCES quote (quoteId)</text>
</g>
</g>
</svg>
