<?xml version="1.0" encoding="UTF-8" standalone="no"?>
<!DOCTYPE svg PUBLIC "-//W3C//DTD SVG 1.1//EN"
 "http://www.w3.org/Graphics/SVG/1.1/DTD/svg11.dtd">
<!-- Generated by graphviz version 12.1.2 (20240928.0832)
 -->
<!-- Title: quoteError Pages: 1 -->
<svg width="908pt" height="910pt"
 viewBox="0.00 0.00 908.45 910.00" xmlns="http://www.w3.org/2000/svg" xmlns:xlink="http://www.w3.org/1999/xlink">
<g id="graph0" class="graph" transform="scale(1 1) rotate(0) translate(4 906)">
<title>quoteError</title>
<polygon fill="white" stroke="none" points="-4,4 -4,-906 904.45,-906 904.45,4 -4,4"/>
<!-- quoteError -->
<g id="node1" class="node">
<title>quoteError</title>
<polygon fill="#efefef" stroke="none" points="267.88,-820.2 267.88,-855.8 497.48,-855.8 497.48,-820.2 267.88,-820.2"/>
<polygon fill="none" stroke="black" points="267.88,-820.2 267.88,-855.8 497.48,-855.8 497.48,-820.2 267.88,-820.2"/>
<text text-anchor="start" x="281.45" y="-833.6" font-family="Arial Bold" font-size="18.00">quoteError</text>
<text text-anchor="start" x="359.42" y="-833.6" font-family="Arial" font-size="14.00">    </text>
<text text-anchor="start" x="390.54" y="-833.6" font-family="Arial" font-size="14.00" fill="#666666">[BASE TABLE]</text>
<polygon fill="none" stroke="black" points="267.88,-789.4 267.88,-820.2 497.48,-820.2 497.48,-789.4 267.88,-789.4"/>
<text text-anchor="start" x="274.88" y="-801.6" font-family="Arial" font-size="14.00">quoteErrorId </text>
<text text-anchor="start" x="356.59" y="-801.6" font-family="Arial" font-size="14.00" fill="#666666">[bigint unsigned]</text>
<polygon fill="none" stroke="black" points="267.88,-758.6 267.88,-789.4 497.48,-789.4 497.48,-758.6 267.88,-758.6"/>
<text text-anchor="start" x="274.88" y="-770.8" font-family="Arial" font-size="14.00">quoteId </text>
<text text-anchor="start" x="325.48" y="-770.8" font-family="Arial" font-size="14.00" fill="#666666">[varchar(36)]</text>
<polygon fill="none" stroke="black" points="267.88,-727.8 267.88,-758.6 497.48,-758.6 497.48,-727.8 267.88,-727.8"/>
<text text-anchor="start" x="274.88" y="-740" font-family="Arial" font-size="14.00">quoteResponseId </text>
<text text-anchor="start" x="388.52" y="-740" font-family="Arial" font-size="14.00" fill="#666666">[bigint unsigned]</text>
<polygon fill="none" stroke="black" points="267.88,-697 267.88,-727.8 497.48,-727.8 497.48,-697 267.88,-697"/>
<text text-anchor="start" x="274.88" y="-709.2" font-family="Arial" font-size="14.00">errorCode </text>
<text text-anchor="start" x="341.79" y="-709.2" font-family="Arial" font-size="14.00" fill="#666666">[int unsigned]</text>
<polygon fill="none" stroke="black" points="267.88,-666.2 267.88,-697 497.48,-697 497.48,-666.2 267.88,-666.2"/>
<text text-anchor="start" x="274.88" y="-678.4" font-family="Arial" font-size="14.00">errorDescription </text>
<text text-anchor="start" x="378.35" y="-678.4" font-family="Arial" font-size="14.00" fill="#666666">[varchar(128)]</text>
<polygon fill="none" stroke="black" points="267.88,-635.4 267.88,-666.2 497.48,-666.2 497.48,-635.4 267.88,-635.4"/>
<text text-anchor="start" x="274.88" y="-647.6" font-family="Arial" font-size="14.00">createdDate </text>
<text text-anchor="start" x="355.03" y="-647.6" font-family="Arial" font-size="14.00" fill="#666666">[datetime]</text>
<polygon fill="none" stroke="black" stroke-width="3" points="266.38,-633.9 266.38,-857.3 498.98,-857.3 498.98,-633.9 266.38,-633.9"/>
</g>
<!-- quote -->
<g id="node2" class="node">
<title>quote</title>
<polygon fill="#efefef" stroke="none" points="59.93,-474.4 59.93,-510 321.43,-510 321.43,-474.4 59.93,-474.4"/>
<polygon fill="none" stroke="black" points="59.93,-474.4 59.93,-510 321.43,-510 321.43,-474.4 59.93,-474.4"/>
<text text-anchor="start" x="108.44" y="-487.8" font-family="Arial Bold" font-size="18.00">quote</text>
<text text-anchor="start" x="148.43" y="-487.8" font-family="Arial" font-size="14.00">    </text>
<text text-anchor="start" x="179.55" y="-487.8" font-family="Arial" font-size="14.00" fill="#666666">[BASE TABLE]</text>
<polygon fill="none" stroke="black" points="59.93,-443.6 59.93,-474.4 321.43,-474.4 321.43,-443.6 59.93,-443.6"/>
<text text-anchor="start" x="66.93" y="-455.8" font-family="Arial" font-size="14.00">quoteId </text>
<text text-anchor="start" x="117.53" y="-455.8" font-family="Arial" font-size="14.00" fill="#666666">[varchar(36)]</text>
<polygon fill="none" stroke="black" points="59.93,-412.8 59.93,-443.6 321.43,-443.6 321.43,-412.8 59.93,-412.8"/>
<text text-anchor="start" x="66.93" y="-425" font-family="Arial" font-size="14.00">transactionReferenceId </text>
<text text-anchor="start" x="215.57" y="-425" font-family="Arial" font-size="14.00" fill="#666666">[varchar(36)]</text>
<polygon fill="none" stroke="black" points="59.93,-382 59.93,-412.8 321.43,-412.8 321.43,-382 59.93,-382"/>
<text text-anchor="start" x="66.93" y="-394.2" font-family="Arial" font-size="14.00">transactionRequestId </text>
<text text-anchor="start" x="203.12" y="-394.2" font-family="Arial" font-size="14.00" fill="#666666">[varchar(36)]</text>
<polygon fill="none" stroke="black" points="59.93,-351.2 59.93,-382 321.43,-382 321.43,-351.2 59.93,-351.2"/>
<text text-anchor="start" x="66.93" y="-363.4" font-family="Arial" font-size="14.00">note </text>
<text text-anchor="start" x="98.07" y="-363.4" font-family="Arial" font-size="14.00" fill="#666666">[text]</text>
<polygon fill="none" stroke="black" points="59.93,-320.4 59.93,-351.2 321.43,-351.2 321.43,-320.4 59.93,-320.4"/>
<text text-anchor="start" x="66.93" y="-332.6" font-family="Arial" font-size="14.00">expirationDate </text>
<text text-anchor="start" x="161.1" y="-332.6" font-family="Arial" font-size="14.00" fill="#666666">[datetime]</text>
<polygon fill="none" stroke="black" points="59.93,-289.6 59.93,-320.4 321.43,-320.4 321.43,-289.6 59.93,-289.6"/>
<text text-anchor="start" x="66.93" y="-301.8" font-family="Arial" font-size="14.00">transactionInitiatorId </text>
<text text-anchor="start" x="196.89" y="-301.8" font-family="Arial" font-size="14.00" fill="#666666">[int unsigned]</text>
<polygon fill="none" stroke="black" points="59.93,-258.8 59.93,-289.6 321.43,-289.6 321.43,-258.8 59.93,-258.8"/>
<text text-anchor="start" x="66.93" y="-271" font-family="Arial" font-size="14.00">transactionInitiatorTypeId </text>
<text text-anchor="start" x="228.01" y="-271" font-family="Arial" font-size="14.00" fill="#666666">[int unsigned]</text>
<polygon fill="none" stroke="black" points="59.93,-228 59.93,-258.8 321.43,-258.8 321.43,-228 59.93,-228"/>
<text text-anchor="start" x="66.93" y="-240.2" font-family="Arial" font-size="14.00">transactionScenarioId </text>
<text text-anchor="start" x="206.23" y="-240.2" font-family="Arial" font-size="14.00" fill="#666666">[int unsigned]</text>
<polygon fill="none" stroke="black" points="59.93,-197.2 59.93,-228 321.43,-228 321.43,-197.2 59.93,-197.2"/>
<text text-anchor="start" x="66.93" y="-209.4" font-family="Arial" font-size="14.00">balanceOfPaymentsId </text>
<text text-anchor="start" x="208.56" y="-209.4" font-family="Arial" font-size="14.00" fill="#666666">[int unsigned]</text>
<polygon fill="none" stroke="black" points="59.93,-166.4 59.93,-197.2 321.43,-197.2 321.43,-166.4 59.93,-166.4"/>
<text text-anchor="start" x="66.93" y="-178.6" font-family="Arial" font-size="14.00">transactionSubScenarioId </text>
<text text-anchor="start" x="231.14" y="-178.6" font-family="Arial" font-size="14.00" fill="#666666">[int unsigned]</text>
<polygon fill="none" stroke="black" points="59.93,-135.6 59.93,-166.4 321.43,-166.4 321.43,-135.6 59.93,-135.6"/>
<text text-anchor="start" x="66.93" y="-147.8" font-family="Arial" font-size="14.00">amountTypeId </text>
<text text-anchor="start" x="160.32" y="-147.8" font-family="Arial" font-size="14.00" fill="#666666">[int unsigned]</text>
<polygon fill="none" stroke="black" points="59.93,-104.8 59.93,-135.6 321.43,-135.6 321.43,-104.8 59.93,-104.8"/>
<text text-anchor="start" x="66.93" y="-117" font-family="Arial" font-size="14.00">amount </text>
<text text-anchor="start" x="117.52" y="-117" font-family="Arial" font-size="14.00" fill="#666666">[decimal(18,4)]</text>
<polygon fill="none" stroke="black" points="59.93,-74 59.93,-104.8 321.43,-104.8 321.43,-74 59.93,-74"/>
<text text-anchor="start" x="66.93" y="-86.2" font-family="Arial" font-size="14.00">currencyId </text>
<text text-anchor="start" x="136.18" y="-86.2" font-family="Arial" font-size="14.00" fill="#666666">[varchar(255)]</text>
<polygon fill="none" stroke="black" points="59.93,-43.2 59.93,-74 321.43,-74 321.43,-43.2 59.93,-43.2"/>
<text text-anchor="start" x="66.93" y="-55.4" font-family="Arial" font-size="14.00">createdDate </text>
<text text-anchor="start" x="147.09" y="-55.4" font-family="Arial" font-size="14.00" fill="#666666">[datetime]</text>
</g>
<!-- quoteError&#45;&gt;quote -->
<g id="edge1" class="edge">
<title>quoteError:quoteId&#45;&gt;quote:quoteId</title>
<path fill="none" stroke="black" d="M256.48,-773.95C-126.82,-770.17 320.24,-555.4 321.43,-553.2 341.31,-516.35 364.3,-459 322.43,-459"/>
<polygon fill="black" stroke="black" points="256.54,-773.95 266.52,-778.5 261.88,-773.98 266.21,-774 266.21,-774 266.21,-774 261.88,-773.98 266.56,-769.5 256.54,-773.95"/>
<text text-anchor="start" x="7" y="-784" font-family="Arial" font-size="10.00">FOREIGN KEY (quoteId) REFERENCES quote (quoteId)</text>
</g>
<!-- quoteResponse -->
<g id="node3" class="node">
<title>quoteResponse</title>
<polygon fill="#efefef" stroke="none" points="426.07,-474.4 426.07,-510 723.29,-510 723.29,-474.4 426.07,-474.4"/>
<polygon fill="none" stroke="black" points="426.07,-474.4 426.07,-510 723.29,-510 723.29,-474.4 426.07,-474.4"/>
<text text-anchor="start" x="457.94" y="-487.8" font-family="Arial Bold" font-size="18.00">quoteResponse</text>
<text text-anchor="start" x="566.93" y="-487.8" font-family="Arial" font-size="14.00">    </text>
<text text-anchor="start" x="598.04" y="-487.8" font-family="Arial" font-size="14.00" fill="#666666">[BASE TABLE]</text>
<polygon fill="none" stroke="black" points="426.07,-443.6 426.07,-474.4 723.29,-474.4 723.29,-443.6 426.07,-443.6"/>
<text text-anchor="start" x="433.07" y="-455.8" font-family="Arial" font-size="14.00">quoteResponseId </text>
<text text-anchor="start" x="546.71" y="-455.8" font-family="Arial" font-size="14.00" fill="#666666">[bigint unsigned]</text>
<polygon fill="none" stroke="black" points="426.07,-412.8 426.07,-443.6 723.29,-443.6 723.29,-412.8 426.07,-412.8"/>
<text text-anchor="start" x="433.07" y="-425" font-family="Arial" font-size="14.00">quoteId </text>
<text text-anchor="start" x="483.67" y="-425" font-family="Arial" font-size="14.00" fill="#666666">[varchar(36)]</text>
<polygon fill="none" stroke="black" points="426.07,-382 426.07,-412.8 723.29,-412.8 723.29,-382 426.07,-382"/>
<text text-anchor="start" x="433.07" y="-394.2" font-family="Arial" font-size="14.00">transferAmountCurrencyId </text>
<text text-anchor="start" x="601.13" y="-394.2" font-family="Arial" font-size="14.00" fill="#666666">[varchar(3)]</text>
<polygon fill="none" stroke="black" points="426.07,-351.2 426.07,-382 723.29,-382 723.29,-351.2 426.07,-351.2"/>
<text text-anchor="start" x="433.07" y="-363.4" font-family="Arial" font-size="14.00">transferAmount </text>
<text text-anchor="start" x="532.67" y="-363.4" font-family="Arial" font-size="14.00" fill="#666666">[decimal(18,4)]</text>
<polygon fill="none" stroke="black" points="426.07,-320.4 426.07,-351.2 723.29,-351.2 723.29,-320.4 426.07,-320.4"/>
<text text-anchor="start" x="433.07" y="-332.6" font-family="Arial" font-size="14.00">payeeReceiveAmountCurrencyId </text>
<text text-anchor="start" x="642.4" y="-332.6" font-family="Arial" font-size="14.00" fill="#666666">[varchar(3)]</text>
<polygon fill="none" stroke="black" points="426.07,-289.6 426.07,-320.4 723.29,-320.4 723.29,-289.6 426.07,-289.6"/>
<text text-anchor="start" x="433.07" y="-301.8" font-family="Arial" font-size="14.00">payeeReceiveAmount </text>
<text text-anchor="start" x="573.93" y="-301.8" font-family="Arial" font-size="14.00" fill="#666666">[decimal(18,4)]</text>
<polygon fill="none" stroke="black" points="426.07,-258.8 426.07,-289.6 723.29,-289.6 723.29,-258.8 426.07,-258.8"/>
<text text-anchor="start" x="433.07" y="-271" font-family="Arial" font-size="14.00">payeeFspFeeCurrencyId </text>
<text text-anchor="start" x="591.03" y="-271" font-family="Arial" font-size="14.00" fill="#666666">[varchar(3)]</text>
<polygon fill="none" stroke="black" points="426.07,-228 426.07,-258.8 723.29,-258.8 723.29,-228 426.07,-228"/>
<text text-anchor="start" x="433.07" y="-240.2" font-family="Arial" font-size="14.00">payeeFspFeeAmount </text>
<text text-anchor="start" x="570.81" y="-240.2" font-family="Arial" font-size="14.00" fill="#666666">[decimal(18,4)]</text>
<polygon fill="none" stroke="black" points="426.07,-197.2 426.07,-228 723.29,-228 723.29,-197.2 426.07,-197.2"/>
<text text-anchor="start" x="433.07" y="-209.4" font-family="Arial" font-size="14.00">payeeFspCommissionCurrencyId </text>
<text text-anchor="start" x="643.92" y="-209.4" font-family="Arial" font-size="14.00" fill="#666666">[varchar(3)]</text>
<polygon fill="none" stroke="black" points="426.07,-166.4 426.07,-197.2 723.29,-197.2 723.29,-166.4 426.07,-166.4"/>
<text text-anchor="start" x="433.07" y="-178.6" font-family="Arial" font-size="14.00">payeeFspCommissionAmount </text>
<text text-anchor="start" x="623.7" y="-178.6" font-family="Arial" font-size="14.00" fill="#666666">[decimal(18,4)]</text>
<polygon fill="none" stroke="black" points="426.07,-135.6 426.07,-166.4 723.29,-166.4 723.29,-135.6 426.07,-135.6"/>
<text text-anchor="start" x="433.07" y="-147.8" font-family="Arial" font-size="14.00">ilpCondition </text>
<text text-anchor="start" x="510.11" y="-147.8" font-family="Arial" font-size="14.00" fill="#666666">[varchar(256)]</text>
<polygon fill="none" stroke="black" points="426.07,-104.8 426.07,-135.6 723.29,-135.6 723.29,-104.8 426.07,-104.8"/>
<text text-anchor="start" x="433.07" y="-117" font-family="Arial" font-size="14.00">responseExpirationDate </text>
<text text-anchor="start" x="586.38" y="-117" font-family="Arial" font-size="14.00" fill="#666666">[datetime]</text>
<polygon fill="none" stroke="black" points="426.07,-74 426.07,-104.8 723.29,-104.8 723.29,-74 426.07,-74"/>
<text text-anchor="start" x="433.07" y="-86.2" font-family="Arial" font-size="14.00">isValid </text>
<text text-anchor="start" x="478.2" y="-86.2" font-family="Arial" font-size="14.00" fill="#666666">[tinyint(1)]</text>
<polygon fill="none" stroke="black" points="426.07,-43.2 426.07,-74 723.29,-74 723.29,-43.2 426.07,-43.2"/>
<text text-anchor="start" x="433.07" y="-55.4" font-family="Arial" font-size="14.00">createdDate </text>
<text text-anchor="start" x="513.22" y="-55.4" font-family="Arial" font-size="14.00" fill="#666666">[datetime]</text>
</g>
<!-- quoteError&#45;&gt;quoteResponse -->
<g id="edge2" class="edge">
<title>quoteError:quoteResponseId&#45;&gt;quoteResponse:quoteResponseId</title>
<path fill="none" stroke="black" d="M508.81,-742.36C563.27,-732.83 531.59,-644.18 497.48,-589.2 478.75,-558.99 444.86,-583.37 426.07,-553.2 403.92,-517.67 383.2,-459 425.07,-459"/>
<polygon fill="black" stroke="black" points="508.78,-742.36 498.45,-738.69 503.47,-742.8 499.15,-743.15 499.15,-743.15 499.15,-743.15 503.47,-742.8 499.18,-747.66 508.78,-742.36"/>
<text text-anchor="start" x="505.48" y="-753.2" font-family="Arial" font-size="10.00">FOREIGN KEY (quoteResponseId) REFERENCES quoteResponse (quoteResponseId)</text>
</g>
</g>
</svg>
