<?xml version="1.0" encoding="UTF-8" standalone="no"?>
<!DOCTYPE svg PUBLIC "-//W3C//DTD SVG 1.1//EN"
 "http://www.w3.org/Graphics/SVG/1.1/DTD/svg11.dtd">
<!-- Generated by graphviz version 12.1.2 (20240928.0832)
 -->
<!-- Title: quotePartyView Pages: 1 -->
<svg width="364pt" height="598pt"
 viewBox="0.00 0.00 364.16 598.00" xmlns="http://www.w3.org/2000/svg" xmlns:xlink="http://www.w3.org/1999/xlink">
<g id="graph0" class="graph" transform="scale(1 1) rotate(0) translate(4 594)">
<title>quotePartyView</title>
<polygon fill="white" stroke="none" points="-4,4 -4,-594 360.16,-594 360.16,4 -4,4"/>
<!-- quotePartyView -->
<g id="node1" class="node">
<title>quotePartyView</title>
<polygon fill="#efefef" stroke="none" points="46.2,-508.2 46.2,-543.8 309.96,-543.8 309.96,-508.2 46.2,-508.2"/>
<polygon fill="none" stroke="black" points="46.2,-508.2 46.2,-543.8 309.96,-543.8 309.96,-508.2 46.2,-508.2"/>
<text text-anchor="start" x="82.26" y="-521.6" font-family="Arial Bold" font-size="18.00">quotePartyView</text>
<text text-anchor="start" x="199.23" y="-521.6" font-family="Arial" font-size="14.00">    </text>
<text text-anchor="start" x="230.35" y="-521.6" font-family="Arial" font-size="14.00" fill="#666666">[VIEW]</text>
<polygon fill="none" stroke="black" points="46.2,-477.4 46.2,-508.2 309.96,-508.2 309.96,-477.4 46.2,-477.4"/>
<text text-anchor="start" x="53.2" y="-489.6" font-family="Arial" font-size="14.00">quoteId </text>
<text text-anchor="start" x="103.8" y="-489.6" font-family="Arial" font-size="14.00" fill="#666666">[varchar(36)]</text>
<polygon fill="none" stroke="black" points="46.2,-446.6 46.2,-477.4 309.96,-477.4 309.96,-446.6 46.2,-446.6"/>
<text text-anchor="start" x="53.2" y="-458.8" font-family="Arial" font-size="14.00">quotePartyId </text>
<text text-anchor="start" x="136.48" y="-458.8" font-family="Arial" font-size="14.00" fill="#666666">[bigint unsigned]</text>
<polygon fill="none" stroke="black" points="46.2,-415.8 46.2,-446.6 309.96,-446.6 309.96,-415.8 46.2,-415.8"/>
<text text-anchor="start" x="53.2" y="-428" font-family="Arial" font-size="14.00">partyType </text>
<text text-anchor="start" x="119.34" y="-428" font-family="Arial" font-size="14.00" fill="#666666">[varchar(128)]</text>
<polygon fill="none" stroke="black" points="46.2,-385 46.2,-415.8 309.96,-415.8 309.96,-385 46.2,-385"/>
<text text-anchor="start" x="53.2" y="-397.2" font-family="Arial" font-size="14.00">identifierType </text>
<text text-anchor="start" x="141.13" y="-397.2" font-family="Arial" font-size="14.00" fill="#666666">[varchar(50)]</text>
<polygon fill="none" stroke="black" points="46.2,-354.2 46.2,-385 309.96,-385 309.96,-354.2 46.2,-354.2"/>
<text text-anchor="start" x="53.2" y="-366.4" font-family="Arial" font-size="14.00">partyIdentifierValue </text>
<text text-anchor="start" x="177.72" y="-366.4" font-family="Arial" font-size="14.00" fill="#666666">[varchar(128)]</text>
<polygon fill="none" stroke="black" points="46.2,-323.4 46.2,-354.2 309.96,-354.2 309.96,-323.4 46.2,-323.4"/>
<text text-anchor="start" x="53.2" y="-335.6" font-family="Arial" font-size="14.00">partySubIdOrType </text>
<text text-anchor="start" x="171.48" y="-335.6" font-family="Arial" font-size="14.00" fill="#666666">[varchar(128)]</text>
<polygon fill="none" stroke="black" points="46.2,-292.6 46.2,-323.4 309.96,-323.4 309.96,-292.6 46.2,-292.6"/>
<text text-anchor="start" x="53.2" y="-304.8" font-family="Arial" font-size="14.00">fspId </text>
<text text-anchor="start" x="87.44" y="-304.8" font-family="Arial" font-size="14.00" fill="#666666">[varchar(255)]</text>
<polygon fill="none" stroke="black" points="46.2,-261.8 46.2,-292.6 309.96,-292.6 309.96,-261.8 46.2,-261.8"/>
<text text-anchor="start" x="53.2" y="-274" font-family="Arial" font-size="14.00">merchantClassificationCode </text>
<text text-anchor="start" x="231.39" y="-274" font-family="Arial" font-size="14.00" fill="#666666">[varchar(4)]</text>
<polygon fill="none" stroke="black" points="46.2,-231 46.2,-261.8 309.96,-261.8 309.96,-231 46.2,-231"/>
<text text-anchor="start" x="53.2" y="-243.2" font-family="Arial" font-size="14.00">partyName </text>
<text text-anchor="start" x="125.56" y="-243.2" font-family="Arial" font-size="14.00" fill="#666666">[varchar(128)]</text>
<polygon fill="none" stroke="black" points="46.2,-200.2 46.2,-231 309.96,-231 309.96,-200.2 46.2,-200.2"/>
<text text-anchor="start" x="53.2" y="-212.4" font-family="Arial" font-size="14.00">firstName </text>
<text text-anchor="start" x="116.99" y="-212.4" font-family="Arial" font-size="14.00" fill="#666666">[varchar(128)]</text>
<polygon fill="none" stroke="black" points="46.2,-169.4 46.2,-200.2 309.96,-200.2 309.96,-169.4 46.2,-169.4"/>
<text text-anchor="start" x="53.2" y="-181.6" font-family="Arial" font-size="14.00">lastName </text>
<text text-anchor="start" x="116.22" y="-181.6" font-family="Arial" font-size="14.00" fill="#666666">[varchar(128)]</text>
<polygon fill="none" stroke="black" points="46.2,-138.6 46.2,-169.4 309.96,-169.4 309.96,-138.6 46.2,-138.6"/>
<text text-anchor="start" x="53.2" y="-150.8" font-family="Arial" font-size="14.00">middleName </text>
<text text-anchor="start" x="135.68" y="-150.8" font-family="Arial" font-size="14.00" fill="#666666">[varchar(128)]</text>
<polygon fill="none" stroke="black" points="46.2,-107.8 46.2,-138.6 309.96,-138.6 309.96,-107.8 46.2,-107.8"/>
<text text-anchor="start" x="53.2" y="-120" font-family="Arial" font-size="14.00">dateOfBirth </text>
<text text-anchor="start" x="127.9" y="-120" font-family="Arial" font-size="14.00" fill="#666666">[datetime]</text>
<polygon fill="none" stroke="black" points="46.2,-77 46.2,-107.8 309.96,-107.8 309.96,-77 46.2,-77"/>
<text text-anchor="start" x="53.2" y="-89.2" font-family="Arial" font-size="14.00">longitude </text>
<text text-anchor="start" x="113.92" y="-89.2" font-family="Arial" font-size="14.00" fill="#666666">[varchar(50)]</text>
<polygon fill="none" stroke="black" points="46.2,-46.2 46.2,-77 309.96,-77 309.96,-46.2 46.2,-46.2"/>
<text text-anchor="start" x="53.2" y="-58.4" font-family="Arial" font-size="14.00">latitude </text>
<text text-anchor="start" x="102.23" y="-58.4" font-family="Arial" font-size="14.00" fill="#666666">[varchar(50)]</text>
<polygon fill="none" stroke="black" stroke-width="3" points="44.7,-44.7 44.7,-545.3 311.46,-545.3 311.46,-44.7 44.7,-44.7"/>
</g>
</g>
</svg>
