<?xml version="1.0" encoding="UTF-8" standalone="no"?>
<!DOCTYPE svg PUBLIC "-//W3C//DTD SVG 1.1//EN"
 "http://www.w3.org/Graphics/SVG/1.1/DTD/svg11.dtd">
<!-- Generated by graphviz version 12.1.2 (20240928.0832)
 -->
<!-- Title: quoteResponseIlpPacket Pages: 1 -->
<svg width="771pt" height="489pt"
 viewBox="0.00 0.00 770.66 489.20" xmlns="http://www.w3.org/2000/svg" xmlns:xlink="http://www.w3.org/1999/xlink">
<g id="graph0" class="graph" transform="scale(1 1) rotate(0) translate(4 485.2)">
<title>quoteResponseIlpPacket</title>
<polygon fill="white" stroke="none" points="-4,4 -4,-485.2 766.66,-485.2 766.66,4 -4,4"/>
<!-- quoteResponseIlpPacket -->
<g id="node1" class="node">
<title>quoteResponseIlpPacket</title>
<polygon fill="#efefef" stroke="none" points="244.24,-399.4 244.24,-435 559.69,-435 559.69,-399.4 244.24,-399.4"/>
<polygon fill="none" stroke="black" points="244.24,-399.4 244.24,-435 559.69,-435 559.69,-399.4 244.24,-399.4"/>
<text text-anchor="start" x="251.24" y="-412.8" font-family="Arial Bold" font-size="18.00">quoteResponseIlpPacket</text>
<text text-anchor="start" x="428.2" y="-412.8" font-family="Arial" font-size="14.00">    </text>
<text text-anchor="start" x="459.32" y="-412.8" font-family="Arial" font-size="14.00" fill="#666666">[BASE TABLE]</text>
<polygon fill="none" stroke="black" points="244.24,-368.6 244.24,-399.4 559.69,-399.4 559.69,-368.6 244.24,-368.6"/>
<text text-anchor="start" x="251.24" y="-380.8" font-family="Arial" font-size="14.00">quoteResponseId </text>
<text text-anchor="start" x="364.88" y="-380.8" font-family="Arial" font-size="14.00" fill="#666666">[bigint unsigned]</text>
<polygon fill="none" stroke="black" stroke-width="3" points="242.74,-367.1 242.74,-436.5 561.19,-436.5 561.19,-367.1 242.74,-367.1"/>
</g>
<!-- quoteResponse -->
<g id="node2" class="node">
<title>quoteResponse</title>
<polygon fill="#efefef" stroke="none" points="84.47,-197.2 84.47,-243.2 719.46,-243.2 719.46,-197.2 84.47,-197.2"/>
<polygon fill="none" stroke="black" points="84.47,-197.2 84.47,-243.2 719.46,-243.2 719.46,-197.2 84.47,-197.2"/>
<text text-anchor="start" x="285.23" y="-221" font-family="Arial Bold" font-size="18.00">quoteResponse</text>
<text text-anchor="start" x="394.21" y="-221" font-family="Arial" font-size="14.00">    </text>
<text text-anchor="start" x="425.33" y="-221" font-family="Arial" font-size="14.00" fill="#666666">[BASE TABLE]</text>
<text text-anchor="start" x="246.34" y="-206.6" font-family="Arial" font-size="14.00" fill="#333333">This table is the primary store for quote responses</text>
<polygon fill="none" stroke="black" points="84.47,-166.4 84.47,-197.2 719.46,-197.2 719.46,-166.4 84.47,-166.4"/>
<text text-anchor="start" x="91.47" y="-178.6" font-family="Arial" font-size="14.00">quoteResponseId </text>
<text text-anchor="start" x="205.11" y="-178.6" font-family="Arial" font-size="14.00" fill="#666666">[bigint unsigned]</text>
<polygon fill="none" stroke="black" points="84.47,-135.6 84.47,-166.4 719.46,-166.4 719.46,-135.6 84.47,-135.6"/>
<text text-anchor="start" x="91.47" y="-147.8" font-family="Arial" font-size="14.00">quoteId </text>
<text text-anchor="start" x="142.06" y="-147.8" font-family="Arial" font-size="14.00" fill="#666666">[varchar(36)]</text>
<text text-anchor="start" x="221.42" y="-147.8" font-family="Arial" font-size="14.00"> Common ID between the FSPs for the quote object, decided by the Payer FSP</text>
<polygon fill="none" stroke="black" points="84.47,-104.8 84.47,-135.6 719.46,-135.6 719.46,-104.8 84.47,-104.8"/>
<text text-anchor="start" x="91.47" y="-117" font-family="Arial" font-size="14.00">transferAmountCurrencyId </text>
<text text-anchor="start" x="259.53" y="-117" font-family="Arial" font-size="14.00" fill="#666666">[varchar(3)]</text>
<text text-anchor="start" x="331.11" y="-117" font-family="Arial" font-size="14.00"> CurrencyId of the transfer amount</text>
<polygon fill="none" stroke="black" points="84.47,-74 84.47,-104.8 719.46,-104.8 719.46,-74 84.47,-74"/>
<text text-anchor="start" x="91.47" y="-86.2" font-family="Arial" font-size="14.00">payeeReceiveAmountCurrencyId </text>
<text text-anchor="start" x="300.8" y="-86.2" font-family="Arial" font-size="14.00" fill="#666666">[varchar(3)]</text>
<text text-anchor="start" x="372.37" y="-86.2" font-family="Arial" font-size="14.00"> CurrencyId of the payee receive amount</text>
<polygon fill="none" stroke="black" points="84.47,-43.2 84.47,-74 719.46,-74 719.46,-43.2 84.47,-43.2"/>
<text text-anchor="start" x="91.47" y="-55.4" font-family="Arial" font-size="14.00">payeeFspCommissionCurrencyId </text>
<text text-anchor="start" x="302.32" y="-55.4" font-family="Arial" font-size="14.00" fill="#666666">[varchar(3)]</text>
<text text-anchor="start" x="373.89" y="-55.4" font-family="Arial" font-size="14.00"> CurrencyId of the payee fsp commission amount</text>
</g>
<!-- quoteResponseIlpPacket&#45;&gt;quoteResponse -->
<g id="edge1" class="edge">
<title>quoteResponseIlpPacket:quoteResponseId&#45;&gt;quoteResponse:quoteResponseId</title>
<path fill="none" stroke="black" d="M402.37,-357.5C413,-230.52 631.78,-398.22 719.46,-286.4 748.15,-249.82 766.95,-181.8 720.46,-181.8"/>
<polygon fill="black" stroke="black" points="402.37,-357.27 397.48,-367.09 402.16,-362.6 401.99,-366.93 401.99,-366.93 401.99,-366.93 402.16,-362.6 406.47,-367.44 402.37,-357.27"/>
<text text-anchor="start" x="7" y="-377.6" font-family="Arial" font-size="10.00">FOREIGN KEY (quoteResponseId) REFERENCES quoteResponse (quoteResponseId)</text>
</g>
</g>
</svg>
