<?xml version="1.0" encoding="UTF-8" standalone="no"?>
<!DOCTYPE svg PUBLIC "-//W3C//DTD SVG 1.1//EN"
 "http://www.w3.org/Graphics/SVG/1.1/DTD/svg11.dtd">
<!-- Generated by graphviz version 12.1.2 (20240928.0832)
 -->
<!-- Title: quoteResponseIlpPacket Pages: 1 -->
<svg width="773pt" height="787pt"
 viewBox="0.00 0.00 772.61 786.80" xmlns="http://www.w3.org/2000/svg" xmlns:xlink="http://www.w3.org/1999/xlink">
<g id="graph0" class="graph" transform="scale(1 1) rotate(0) translate(4 782.8)">
<title>quoteResponseIlpPacket</title>
<polygon fill="white" stroke="none" points="-4,4 -4,-782.8 768.61,-782.8 768.61,4 -4,4"/>
<!-- quoteResponseIlpPacket -->
<g id="node1" class="node">
<title>quoteResponseIlpPacket</title>
<polygon fill="#efefef" stroke="none" points="46.2,-697 46.2,-732.6 361.65,-732.6 361.65,-697 46.2,-697"/>
<polygon fill="none" stroke="black" points="46.2,-697 46.2,-732.6 361.65,-732.6 361.65,-697 46.2,-697"/>
<text text-anchor="start" x="53.2" y="-710.4" font-family="Arial Bold" font-size="18.00">quoteResponseIlpPacket</text>
<text text-anchor="start" x="230.16" y="-710.4" font-family="Arial" font-size="14.00">    </text>
<text text-anchor="start" x="261.28" y="-710.4" font-family="Arial" font-size="14.00" fill="#666666">[BASE TABLE]</text>
<polygon fill="none" stroke="black" points="46.2,-666.2 46.2,-697 361.65,-697 361.65,-666.2 46.2,-666.2"/>
<text text-anchor="start" x="53.2" y="-678.4" font-family="Arial" font-size="14.00">quoteResponseId </text>
<text text-anchor="start" x="166.84" y="-678.4" font-family="Arial" font-size="14.00" fill="#666666">[bigint unsigned]</text>
<polygon fill="none" stroke="black" points="46.2,-635.4 46.2,-666.2 361.65,-666.2 361.65,-635.4 46.2,-635.4"/>
<text text-anchor="start" x="53.2" y="-647.6" font-family="Arial" font-size="14.00">value </text>
<text text-anchor="start" x="90.56" y="-647.6" font-family="Arial" font-size="14.00" fill="#666666">[text]</text>
<polygon fill="none" stroke="black" stroke-width="3" points="44.7,-633.9 44.7,-734.1 363.15,-734.1 363.15,-633.9 44.7,-633.9"/>
</g>
<!-- quoteResponse -->
<g id="node2" class="node">
<title>quoteResponse</title>
<polygon fill="#efefef" stroke="none" points="55.31,-474.4 55.31,-510 352.54,-510 352.54,-474.4 55.31,-474.4"/>
<polygon fill="none" stroke="black" points="55.31,-474.4 55.31,-510 352.54,-510 352.54,-474.4 55.31,-474.4"/>
<text text-anchor="start" x="87.19" y="-487.8" font-family="Arial Bold" font-size="18.00">quoteResponse</text>
<text text-anchor="start" x="196.17" y="-487.8" font-family="Arial" font-size="14.00">    </text>
<text text-anchor="start" x="227.29" y="-487.8" font-family="Arial" font-size="14.00" fill="#666666">[BASE TABLE]</text>
<polygon fill="none" stroke="black" points="55.31,-443.6 55.31,-474.4 352.54,-474.4 352.54,-443.6 55.31,-443.6"/>
<text text-anchor="start" x="62.31" y="-455.8" font-family="Arial" font-size="14.00">quoteResponseId </text>
<text text-anchor="start" x="175.95" y="-455.8" font-family="Arial" font-size="14.00" fill="#666666">[bigint unsigned]</text>
<polygon fill="none" stroke="black" points="55.31,-412.8 55.31,-443.6 352.54,-443.6 352.54,-412.8 55.31,-412.8"/>
<text text-anchor="start" x="62.31" y="-425" font-family="Arial" font-size="14.00">quoteId </text>
<text text-anchor="start" x="112.91" y="-425" font-family="Arial" font-size="14.00" fill="#666666">[varchar(36)]</text>
<polygon fill="none" stroke="black" points="55.31,-382 55.31,-412.8 352.54,-412.8 352.54,-382 55.31,-382"/>
<text text-anchor="start" x="62.31" y="-394.2" font-family="Arial" font-size="14.00">transferAmountCurrencyId </text>
<text text-anchor="start" x="230.38" y="-394.2" font-family="Arial" font-size="14.00" fill="#666666">[varchar(3)]</text>
<polygon fill="none" stroke="black" points="55.31,-351.2 55.31,-382 352.54,-382 352.54,-351.2 55.31,-351.2"/>
<text text-anchor="start" x="62.31" y="-363.4" font-family="Arial" font-size="14.00">transferAmount </text>
<text text-anchor="start" x="161.91" y="-363.4" font-family="Arial" font-size="14.00" fill="#666666">[decimal(18,4)]</text>
<polygon fill="none" stroke="black" points="55.31,-320.4 55.31,-351.2 352.54,-351.2 352.54,-320.4 55.31,-320.4"/>
<text text-anchor="start" x="62.31" y="-332.6" font-family="Arial" font-size="14.00">payeeReceiveAmountCurrencyId </text>
<text text-anchor="start" x="271.64" y="-332.6" font-family="Arial" font-size="14.00" fill="#666666">[varchar(3)]</text>
<polygon fill="none" stroke="black" points="55.31,-289.6 55.31,-320.4 352.54,-320.4 352.54,-289.6 55.31,-289.6"/>
<text text-anchor="start" x="62.31" y="-301.8" font-family="Arial" font-size="14.00">payeeReceiveAmount </text>
<text text-anchor="start" x="203.17" y="-301.8" font-family="Arial" font-size="14.00" fill="#666666">[decimal(18,4)]</text>
<polygon fill="none" stroke="black" points="55.31,-258.8 55.31,-289.6 352.54,-289.6 352.54,-258.8 55.31,-258.8"/>
<text text-anchor="start" x="62.31" y="-271" font-family="Arial" font-size="14.00">payeeFspFeeCurrencyId </text>
<text text-anchor="start" x="220.28" y="-271" font-family="Arial" font-size="14.00" fill="#666666">[varchar(3)]</text>
<polygon fill="none" stroke="black" points="55.31,-228 55.31,-258.8 352.54,-258.8 352.54,-228 55.31,-228"/>
<text text-anchor="start" x="62.31" y="-240.2" font-family="Arial" font-size="14.00">payeeFspFeeAmount </text>
<text text-anchor="start" x="200.05" y="-240.2" font-family="Arial" font-size="14.00" fill="#666666">[decimal(18,4)]</text>
<polygon fill="none" stroke="black" points="55.31,-197.2 55.31,-228 352.54,-228 352.54,-197.2 55.31,-197.2"/>
<text text-anchor="start" x="62.31" y="-209.4" font-family="Arial" font-size="14.00">payeeFspCommissionCurrencyId </text>
<text text-anchor="start" x="273.17" y="-209.4" font-family="Arial" font-size="14.00" fill="#666666">[varchar(3)]</text>
<polygon fill="none" stroke="black" points="55.31,-166.4 55.31,-197.2 352.54,-197.2 352.54,-166.4 55.31,-166.4"/>
<text text-anchor="start" x="62.31" y="-178.6" font-family="Arial" font-size="14.00">payeeFspCommissionAmount </text>
<text text-anchor="start" x="252.94" y="-178.6" font-family="Arial" font-size="14.00" fill="#666666">[decimal(18,4)]</text>
<polygon fill="none" stroke="black" points="55.31,-135.6 55.31,-166.4 352.54,-166.4 352.54,-135.6 55.31,-135.6"/>
<text text-anchor="start" x="62.31" y="-147.8" font-family="Arial" font-size="14.00">ilpCondition </text>
<text text-anchor="start" x="139.36" y="-147.8" font-family="Arial" font-size="14.00" fill="#666666">[varchar(256)]</text>
<polygon fill="none" stroke="black" points="55.31,-104.8 55.31,-135.6 352.54,-135.6 352.54,-104.8 55.31,-104.8"/>
<text text-anchor="start" x="62.31" y="-117" font-family="Arial" font-size="14.00">responseExpirationDate </text>
<text text-anchor="start" x="215.62" y="-117" font-family="Arial" font-size="14.00" fill="#666666">[datetime]</text>
<polygon fill="none" stroke="black" points="55.31,-74 55.31,-104.8 352.54,-104.8 352.54,-74 55.31,-74"/>
<text text-anchor="start" x="62.31" y="-86.2" font-family="Arial" font-size="14.00">isValid </text>
<text text-anchor="start" x="107.44" y="-86.2" font-family="Arial" font-size="14.00" fill="#666666">[tinyint(1)]</text>
<polygon fill="none" stroke="black" points="55.31,-43.2 55.31,-74 352.54,-74 352.54,-43.2 55.31,-43.2"/>
<text text-anchor="start" x="62.31" y="-55.4" font-family="Arial" font-size="14.00">createdDate </text>
<text text-anchor="start" x="142.47" y="-55.4" font-family="Arial" font-size="14.00" fill="#666666">[datetime]</text>
</g>
<!-- quoteResponseIlpPacket&#45;&gt;quoteResponse -->
<g id="edge1" class="edge">
<title>quoteResponseIlpPacket:quoteResponseId&#45;&gt;quoteResponse:quoteResponseId</title>
<path fill="none" stroke="black" d="M372.96,-680.75C460.89,-665.8 448.98,-459 353.54,-459"/>
<polygon fill="black" stroke="black" points="372.95,-680.75 362.61,-677.09 367.63,-681.19 363.31,-681.54 363.31,-681.54 363.31,-681.54 367.63,-681.19 363.35,-686.06 372.95,-680.75"/>
<text text-anchor="start" x="369.65" y="-691.6" font-family="Arial" font-size="10.00">FOREIGN KEY (quoteResponseId) REFERENCES quoteResponse (quoteResponseId)</text>
</g>
</g>
</svg>
