<?xml version="1.0" encoding="UTF-8" standalone="no"?>
<!DOCTYPE svg PUBLIC "-//W3C//DTD SVG 1.1//EN"
 "http://www.w3.org/Graphics/SVG/1.1/DTD/svg11.dtd">
<!-- Generated by graphviz version 12.1.2 (20240928.0832)
 -->
<!-- Title: quoteExtension Pages: 1 -->
<svg width="2562pt" height="694pt"
 viewBox="0.00 0.00 2562.01 694.40" xmlns="http://www.w3.org/2000/svg" xmlns:xlink="http://www.w3.org/1999/xlink">
<g id="graph0" class="graph" transform="scale(1 1) rotate(0) translate(4 690.4)">
<title>quoteExtension</title>
<polygon fill="white" stroke="none" points="-4,4 -4,-690.4 2558.01,-690.4 2558.01,4 -4,4"/>
<!-- quoteExtension -->
<g id="node1" class="node">
<title>quoteExtension</title>
<polygon fill="#efefef" stroke="none" points="959.51,-604.6 959.51,-640.2 1594.5,-640.2 1594.5,-604.6 959.51,-604.6"/>
<polygon fill="none" stroke="black" points="959.51,-604.6 959.51,-640.2 1594.5,-640.2 1594.5,-604.6 959.51,-604.6"/>
<text text-anchor="start" x="1158.77" y="-618" font-family="Arial Bold" font-size="18.00">quoteExtension</text>
<text text-anchor="start" x="1270.75" y="-618" font-family="Arial" font-size="14.00">    </text>
<text text-anchor="start" x="1301.87" y="-618" font-family="Arial" font-size="14.00" fill="#666666">[BASE TABLE]</text>
<polygon fill="none" stroke="black" points="959.51,-573.8 959.51,-604.6 1594.5,-604.6 1594.5,-573.8 959.51,-573.8"/>
<text text-anchor="start" x="966.51" y="-586" font-family="Arial" font-size="14.00">quoteExtensionId </text>
<text text-anchor="start" x="1078.59" y="-586" font-family="Arial" font-size="14.00" fill="#666666">[bigint unsigned]</text>
<polygon fill="none" stroke="black" points="959.51,-543 959.51,-573.8 1594.5,-573.8 1594.5,-543 959.51,-543"/>
<text text-anchor="start" x="966.51" y="-555.2" font-family="Arial" font-size="14.00">quoteId </text>
<text text-anchor="start" x="1017.11" y="-555.2" font-family="Arial" font-size="14.00" fill="#666666">[varchar(36)]</text>
<text text-anchor="start" x="1096.46" y="-555.2" font-family="Arial" font-size="14.00"> Common ID between the FSPs for the quote object, decided by the Payer FSP</text>
<polygon fill="none" stroke="black" points="959.51,-512.2 959.51,-543 1594.5,-543 1594.5,-512.2 959.51,-512.2"/>
<text text-anchor="start" x="966.51" y="-524.4" font-family="Arial" font-size="14.00">quoteResponseId </text>
<text text-anchor="start" x="1080.15" y="-524.4" font-family="Arial" font-size="14.00" fill="#666666">[bigint unsigned]</text>
<polygon fill="none" stroke="black" points="959.51,-481.4 959.51,-512.2 1594.5,-512.2 1594.5,-481.4 959.51,-481.4"/>
<text text-anchor="start" x="966.51" y="-493.6" font-family="Arial" font-size="14.00">transactionId </text>
<text text-anchor="start" x="1050.55" y="-493.6" font-family="Arial" font-size="14.00" fill="#666666">[varchar(36)]</text>
<text text-anchor="start" x="1129.91" y="-493.6" font-family="Arial" font-size="14.00"> The transaction reference that is part of the initial quote</text>
<polygon fill="none" stroke="black" stroke-width="3" points="958.01,-479.9 958.01,-641.7 1596,-641.7 1596,-479.9 958.01,-479.9"/>
</g>
<!-- quote -->
<g id="node2" class="node">
<title>quote</title>
<polygon fill="#efefef" stroke="none" points="43.2,-320.4 43.2,-356 854.81,-356 854.81,-320.4 43.2,-320.4"/>
<polygon fill="none" stroke="black" points="43.2,-320.4 43.2,-356 854.81,-356 854.81,-320.4 43.2,-320.4"/>
<text text-anchor="start" x="366.77" y="-333.8" font-family="Arial Bold" font-size="18.00">quote</text>
<text text-anchor="start" x="406.76" y="-333.8" font-family="Arial" font-size="14.00">    </text>
<text text-anchor="start" x="437.87" y="-333.8" font-family="Arial" font-size="14.00" fill="#666666">[BASE TABLE]</text>
<polygon fill="none" stroke="black" points="43.2,-289.6 43.2,-320.4 854.81,-320.4 854.81,-289.6 43.2,-289.6"/>
<text text-anchor="start" x="50.2" y="-301.8" font-family="Arial" font-size="14.00">quoteId </text>
<text text-anchor="start" x="100.8" y="-301.8" font-family="Arial" font-size="14.00" fill="#666666">[varchar(36)]</text>
<polygon fill="none" stroke="black" points="43.2,-258.8 43.2,-289.6 854.81,-289.6 854.81,-258.8 43.2,-258.8"/>
<text text-anchor="start" x="50.2" y="-271" font-family="Arial" font-size="14.00">transactionReferenceId </text>
<text text-anchor="start" x="198.84" y="-271" font-family="Arial" font-size="14.00" fill="#666666">[varchar(36)]</text>
<text text-anchor="start" x="278.2" y="-271" font-family="Arial" font-size="14.00"> Common ID (decided by the Payer FSP) between the FSPs for the future transaction object</text>
<polygon fill="none" stroke="black" points="43.2,-228 43.2,-258.8 854.81,-258.8 854.81,-228 43.2,-228"/>
<text text-anchor="start" x="50.2" y="-240.2" font-family="Arial" font-size="14.00">transactionInitiatorId </text>
<text text-anchor="start" x="180.16" y="-240.2" font-family="Arial" font-size="14.00" fill="#666666">[int unsigned]</text>
<text text-anchor="start" x="263.44" y="-240.2" font-family="Arial" font-size="14.00"> This is part of the transaction initiator</text>
<polygon fill="none" stroke="black" points="43.2,-197.2 43.2,-228 854.81,-228 854.81,-197.2 43.2,-197.2"/>
<text text-anchor="start" x="50.2" y="-209.4" font-family="Arial" font-size="14.00">transactionInitiatorTypeId </text>
<text text-anchor="start" x="211.28" y="-209.4" font-family="Arial" font-size="14.00" fill="#666666">[int unsigned]</text>
<text text-anchor="start" x="294.56" y="-209.4" font-family="Arial" font-size="14.00"> This is part of the transaction initiator type</text>
<polygon fill="none" stroke="black" points="43.2,-166.4 43.2,-197.2 854.81,-197.2 854.81,-166.4 43.2,-166.4"/>
<text text-anchor="start" x="50.2" y="-178.6" font-family="Arial" font-size="14.00">transactionScenarioId </text>
<text text-anchor="start" x="189.5" y="-178.6" font-family="Arial" font-size="14.00" fill="#666666">[int unsigned]</text>
<text text-anchor="start" x="272.78" y="-178.6" font-family="Arial" font-size="14.00"> This is part of the transaction scenario</text>
<polygon fill="none" stroke="black" points="43.2,-135.6 43.2,-166.4 854.81,-166.4 854.81,-135.6 43.2,-135.6"/>
<text text-anchor="start" x="50.2" y="-147.8" font-family="Arial" font-size="14.00">balanceOfPaymentsId </text>
<text text-anchor="start" x="191.83" y="-147.8" font-family="Arial" font-size="14.00" fill="#666666">[int unsigned]</text>
<text text-anchor="start" x="275.12" y="-147.8" font-family="Arial" font-size="14.00"> This is part of the transaction type that contains the elements&#45; balance of payment</text>
<polygon fill="none" stroke="black" points="43.2,-104.8 43.2,-135.6 854.81,-135.6 854.81,-104.8 43.2,-104.8"/>
<text text-anchor="start" x="50.2" y="-117" font-family="Arial" font-size="14.00">transactionSubScenarioId </text>
<text text-anchor="start" x="214.41" y="-117" font-family="Arial" font-size="14.00" fill="#666666">[int unsigned]</text>
<text text-anchor="start" x="297.7" y="-117" font-family="Arial" font-size="14.00"> This is part of the transaction type sub scenario as defined by the local scheme</text>
<polygon fill="none" stroke="black" points="43.2,-74 43.2,-104.8 854.81,-104.8 854.81,-74 43.2,-74"/>
<text text-anchor="start" x="50.2" y="-86.2" font-family="Arial" font-size="14.00">amountTypeId </text>
<text text-anchor="start" x="143.59" y="-86.2" font-family="Arial" font-size="14.00" fill="#666666">[int unsigned]</text>
<text text-anchor="start" x="226.87" y="-86.2" font-family="Arial" font-size="14.00"> This is part of the transaction type that contains valid elements for &#45; Amount Type</text>
<polygon fill="none" stroke="black" points="43.2,-43.2 43.2,-74 854.81,-74 854.81,-43.2 43.2,-43.2"/>
<text text-anchor="start" x="50.2" y="-55.4" font-family="Arial" font-size="14.00">currencyId </text>
<text text-anchor="start" x="119.45" y="-55.4" font-family="Arial" font-size="14.00" fill="#666666">[varchar(255)]</text>
<text text-anchor="start" x="206.59" y="-55.4" font-family="Arial" font-size="14.00"> Trading currency pertaining to the Amount</text>
</g>
<!-- quoteExtension&#45;&gt;quote -->
<g id="edge1" class="edge">
<title>quoteExtension:quoteId&#45;&gt;quote:quoteId</title>
<path fill="none" stroke="black" d="M948.61,-555.89C899.68,-529.57 913.01,-305 855.81,-305"/>
<polygon fill="black" stroke="black" points="948.49,-555.86 957.08,-562.68 953.66,-557.17 957.86,-558.24 957.86,-558.24 957.86,-558.24 953.66,-557.17 959.29,-553.96 948.49,-555.86"/>
<text text-anchor="start" x="698.63" y="-568.4" font-family="Arial" font-size="10.00">FOREIGN KEY (quoteId) REFERENCES quote (quoteId)</text>
</g>
<!-- quoteResponse -->
<g id="node3" class="node">
<title>quoteResponse</title>
<polygon fill="#efefef" stroke="none" points="959.51,-253.6 959.51,-299.6 1594.5,-299.6 1594.5,-253.6 959.51,-253.6"/>
<polygon fill="none" stroke="black" points="959.51,-253.6 959.51,-299.6 1594.5,-299.6 1594.5,-253.6 959.51,-253.6"/>
<text text-anchor="start" x="1160.27" y="-277.4" font-family="Arial Bold" font-size="18.00">quoteResponse</text>
<text text-anchor="start" x="1269.25" y="-277.4" font-family="Arial" font-size="14.00">    </text>
<text text-anchor="start" x="1300.37" y="-277.4" font-family="Arial" font-size="14.00" fill="#666666">[BASE TABLE]</text>
<text text-anchor="start" x="1121.38" y="-263" font-family="Arial" font-size="14.00" fill="#333333">This table is the primary store for quote responses</text>
<polygon fill="none" stroke="black" points="959.51,-222.8 959.51,-253.6 1594.5,-253.6 1594.5,-222.8 959.51,-222.8"/>
<text text-anchor="start" x="966.51" y="-235" font-family="Arial" font-size="14.00">quoteResponseId </text>
<text text-anchor="start" x="1080.15" y="-235" font-family="Arial" font-size="14.00" fill="#666666">[bigint unsigned]</text>
<polygon fill="none" stroke="black" points="959.51,-192 959.51,-222.8 1594.5,-222.8 1594.5,-192 959.51,-192"/>
<text text-anchor="start" x="966.51" y="-204.2" font-family="Arial" font-size="14.00">quoteId </text>
<text text-anchor="start" x="1017.11" y="-204.2" font-family="Arial" font-size="14.00" fill="#666666">[varchar(36)]</text>
<text text-anchor="start" x="1096.46" y="-204.2" font-family="Arial" font-size="14.00"> Common ID between the FSPs for the quote object, decided by the Payer FSP</text>
<polygon fill="none" stroke="black" points="959.51,-161.2 959.51,-192 1594.5,-192 1594.5,-161.2 959.51,-161.2"/>
<text text-anchor="start" x="966.51" y="-173.4" font-family="Arial" font-size="14.00">transferAmountCurrencyId </text>
<text text-anchor="start" x="1134.57" y="-173.4" font-family="Arial" font-size="14.00" fill="#666666">[varchar(3)]</text>
<text text-anchor="start" x="1206.15" y="-173.4" font-family="Arial" font-size="14.00"> CurrencyId of the transfer amount</text>
<polygon fill="none" stroke="black" points="959.51,-130.4 959.51,-161.2 1594.5,-161.2 1594.5,-130.4 959.51,-130.4"/>
<text text-anchor="start" x="966.51" y="-142.6" font-family="Arial" font-size="14.00">payeeReceiveAmountCurrencyId </text>
<text text-anchor="start" x="1175.84" y="-142.6" font-family="Arial" font-size="14.00" fill="#666666">[varchar(3)]</text>
<text text-anchor="start" x="1247.41" y="-142.6" font-family="Arial" font-size="14.00"> CurrencyId of the payee receive amount</text>
<polygon fill="none" stroke="black" points="959.51,-99.6 959.51,-130.4 1594.5,-130.4 1594.5,-99.6 959.51,-99.6"/>
<text text-anchor="start" x="966.51" y="-111.8" font-family="Arial" font-size="14.00">payeeFspCommissionCurrencyId </text>
<text text-anchor="start" x="1177.36" y="-111.8" font-family="Arial" font-size="14.00" fill="#666666">[varchar(3)]</text>
<text text-anchor="start" x="1248.93" y="-111.8" font-family="Arial" font-size="14.00"> CurrencyId of the payee fsp commission amount</text>
</g>
<!-- quoteExtension&#45;&gt;quoteResponse -->
<g id="edge2" class="edge">
<title>quoteExtension:quoteResponseId&#45;&gt;quoteResponse:quoteResponseId</title>
<path fill="none" stroke="black" d="M1605.48,-525.1C1659.62,-496.81 1656.3,-238.2 1595.5,-238.2"/>
<polygon fill="black" stroke="black" points="1605.53,-525.09 1594.73,-523.15 1600.35,-526.38 1596.15,-527.44 1596.15,-527.44 1596.15,-527.44 1600.35,-526.38 1596.92,-531.88 1605.53,-525.09"/>
<text text-anchor="start" x="1602.5" y="-537.6" font-family="Arial" font-size="10.00">FOREIGN KEY (quoteResponseId) REFERENCES quoteResponse (quoteResponseId)</text>
</g>
<!-- transactionReference -->
<g id="node4" class="node">
<title>transactionReference</title>
<polygon fill="#efefef" stroke="none" points="1699.2,-212.6 1699.2,-248.2 2510.81,-248.2 2510.81,-212.6 1699.2,-212.6"/>
<polygon fill="none" stroke="black" points="1699.2,-212.6 1699.2,-248.2 2510.81,-248.2 2510.81,-212.6 1699.2,-212.6"/>
<text text-anchor="start" x="1966.81" y="-226" font-family="Arial Bold" font-size="18.00">transactionReference</text>
<text text-anchor="start" x="2118.72" y="-226" font-family="Arial" font-size="14.00">    </text>
<text text-anchor="start" x="2149.83" y="-226" font-family="Arial" font-size="14.00" fill="#666666">[BASE TABLE]</text>
<polygon fill="none" stroke="black" points="1699.2,-181.8 1699.2,-212.6 2510.81,-212.6 2510.81,-181.8 1699.2,-181.8"/>
<text text-anchor="start" x="1706.2" y="-194" font-family="Arial" font-size="14.00">transactionReferenceId </text>
<text text-anchor="start" x="1854.84" y="-194" font-family="Arial" font-size="14.00" fill="#666666">[varchar(36)]</text>
<text text-anchor="start" x="1934.2" y="-194" font-family="Arial" font-size="14.00"> Common ID (decided by the Payer FSP) between the FSPs for the future transaction object</text>
<polygon fill="none" stroke="black" points="1699.2,-151 1699.2,-181.8 2510.81,-181.8 2510.81,-151 1699.2,-151"/>
<text text-anchor="start" x="1706.2" y="-163.2" font-family="Arial" font-size="14.00">quoteId </text>
<text text-anchor="start" x="1756.8" y="-163.2" font-family="Arial" font-size="14.00" fill="#666666">[varchar(36)]</text>
<text text-anchor="start" x="1836.16" y="-163.2" font-family="Arial" font-size="14.00"> Common ID between the FSPs for the quote object, decided by the Payer FSP</text>
</g>
<!-- quoteExtension&#45;&gt;transactionReference -->
<g id="edge3" class="edge">
<title>quoteExtension:transactionId&#45;&gt;transactionReference:transactionReferenceId</title>
<path fill="none" stroke="black" d="M1605.87,-495.88C1642.38,-488.74 1630.79,-441.41 1647.01,-399.2 1680.23,-312.75 1605.58,-197.2 1698.2,-197.2"/>
<polygon fill="black" stroke="black" points="1605.8,-495.89 1595.44,-492.29 1600.48,-496.36 1596.17,-496.74 1596.17,-496.74 1596.17,-496.74 1600.48,-496.36 1596.24,-501.25 1605.8,-495.89"/>
<text text-anchor="start" x="1602.5" y="-506.8" font-family="Arial" font-size="10.00">FOREIGN KEY (transactionId) REFERENCES transactionReference (transactionReferenceId)</text>
</g>
</g>
</svg>
