<?xml version="1.0" encoding="UTF-8" standalone="no"?>
<!DOCTYPE svg PUBLIC "-//W3C//DTD SVG 1.1//EN"
 "http://www.w3.org/Graphics/SVG/1.1/DTD/svg11.dtd">
<!-- Generated by graphviz version 12.1.2 (20240928.0832)
 -->
<!-- Title: quoteResponseDuplicateCheck Pages: 1 -->
<svg width="1646pt" height="633pt"
 viewBox="0.00 0.00 1645.70 632.80" xmlns="http://www.w3.org/2000/svg" xmlns:xlink="http://www.w3.org/1999/xlink">
<g id="graph0" class="graph" transform="scale(1 1) rotate(0) translate(4 628.8)">
<title>quoteResponseDuplicateCheck</title>
<polygon fill="white" stroke="none" points="-4,4 -4,-628.8 1641.7,-628.8 1641.7,4 -4,4"/>
<!-- quoteResponseDuplicateCheck -->
<g id="node1" class="node">
<title>quoteResponseDuplicateCheck</title>
<polygon fill="#efefef" stroke="none" points="457.2,-543 457.2,-578.6 1092.2,-578.6 1092.2,-543 457.2,-543"/>
<polygon fill="none" stroke="black" points="457.2,-543 457.2,-578.6 1092.2,-578.6 1092.2,-543 457.2,-543"/>
<text text-anchor="start" x="599.98" y="-556.4" font-family="Arial Bold" font-size="18.00">quoteResponseDuplicateCheck</text>
<text text-anchor="start" x="824.92" y="-556.4" font-family="Arial" font-size="14.00">    </text>
<text text-anchor="start" x="856.04" y="-556.4" font-family="Arial" font-size="14.00" fill="#666666">[BASE TABLE]</text>
<polygon fill="none" stroke="black" points="457.2,-512.2 457.2,-543 1092.2,-543 1092.2,-512.2 457.2,-512.2"/>
<text text-anchor="start" x="464.2" y="-524.4" font-family="Arial" font-size="14.00">quoteResponseId </text>
<text text-anchor="start" x="577.84" y="-524.4" font-family="Arial" font-size="14.00" fill="#666666">[bigint unsigned]</text>
<text text-anchor="start" x="679.81" y="-524.4" font-family="Arial" font-size="14.00"> The response to the intial quote</text>
<polygon fill="none" stroke="black" points="457.2,-481.4 457.2,-512.2 1092.2,-512.2 1092.2,-481.4 457.2,-481.4"/>
<text text-anchor="start" x="464.2" y="-493.6" font-family="Arial" font-size="14.00">quoteId </text>
<text text-anchor="start" x="514.8" y="-493.6" font-family="Arial" font-size="14.00" fill="#666666">[varchar(36)]</text>
<text text-anchor="start" x="594.16" y="-493.6" font-family="Arial" font-size="14.00"> Common ID between the FSPs for the quote object, decided by the Payer FSP</text>
<polygon fill="none" stroke="black" stroke-width="3" points="455.7,-479.9 455.7,-580.1 1093.7,-580.1 1093.7,-479.9 455.7,-479.9"/>
</g>
<!-- quoteResponse -->
<g id="node2" class="node">
<title>quoteResponse</title>
<polygon fill="#efefef" stroke="none" points="43.2,-253.6 43.2,-299.6 678.2,-299.6 678.2,-253.6 43.2,-253.6"/>
<polygon fill="none" stroke="black" points="43.2,-253.6 43.2,-299.6 678.2,-299.6 678.2,-253.6 43.2,-253.6"/>
<text text-anchor="start" x="243.96" y="-277.4" font-family="Arial Bold" font-size="18.00">quoteResponse</text>
<text text-anchor="start" x="352.95" y="-277.4" font-family="Arial" font-size="14.00">    </text>
<text text-anchor="start" x="384.06" y="-277.4" font-family="Arial" font-size="14.00" fill="#666666">[BASE TABLE]</text>
<text text-anchor="start" x="205.07" y="-263" font-family="Arial" font-size="14.00" fill="#333333">This table is the primary store for quote responses</text>
<polygon fill="none" stroke="black" points="43.2,-222.8 43.2,-253.6 678.2,-253.6 678.2,-222.8 43.2,-222.8"/>
<text text-anchor="start" x="50.2" y="-235" font-family="Arial" font-size="14.00">quoteResponseId </text>
<text text-anchor="start" x="163.84" y="-235" font-family="Arial" font-size="14.00" fill="#666666">[bigint unsigned]</text>
<polygon fill="none" stroke="black" points="43.2,-192 43.2,-222.8 678.2,-222.8 678.2,-192 43.2,-192"/>
<text text-anchor="start" x="50.2" y="-204.2" font-family="Arial" font-size="14.00">quoteId </text>
<text text-anchor="start" x="100.8" y="-204.2" font-family="Arial" font-size="14.00" fill="#666666">[varchar(36)]</text>
<text text-anchor="start" x="180.16" y="-204.2" font-family="Arial" font-size="14.00"> Common ID between the FSPs for the quote object, decided by the Payer FSP</text>
<polygon fill="none" stroke="black" points="43.2,-161.2 43.2,-192 678.2,-192 678.2,-161.2 43.2,-161.2"/>
<text text-anchor="start" x="50.2" y="-173.4" font-family="Arial" font-size="14.00">transferAmountCurrencyId </text>
<text text-anchor="start" x="218.27" y="-173.4" font-family="Arial" font-size="14.00" fill="#666666">[varchar(3)]</text>
<text text-anchor="start" x="289.84" y="-173.4" font-family="Arial" font-size="14.00"> CurrencyId of the transfer amount</text>
<polygon fill="none" stroke="black" points="43.2,-130.4 43.2,-161.2 678.2,-161.2 678.2,-130.4 43.2,-130.4"/>
<text text-anchor="start" x="50.2" y="-142.6" font-family="Arial" font-size="14.00">payeeReceiveAmountCurrencyId </text>
<text text-anchor="start" x="259.53" y="-142.6" font-family="Arial" font-size="14.00" fill="#666666">[varchar(3)]</text>
<text text-anchor="start" x="331.1" y="-142.6" font-family="Arial" font-size="14.00"> CurrencyId of the payee receive amount</text>
<polygon fill="none" stroke="black" points="43.2,-99.6 43.2,-130.4 678.2,-130.4 678.2,-99.6 43.2,-99.6"/>
<text text-anchor="start" x="50.2" y="-111.8" font-family="Arial" font-size="14.00">payeeFspCommissionCurrencyId </text>
<text text-anchor="start" x="261.05" y="-111.8" font-family="Arial" font-size="14.00" fill="#666666">[varchar(3)]</text>
<text text-anchor="start" x="332.63" y="-111.8" font-family="Arial" font-size="14.00"> CurrencyId of the payee fsp commission amount</text>
</g>
<!-- quoteResponseDuplicateCheck&#45;&gt;quoteResponse -->
<g id="edge1" class="edge">
<title>quoteResponseDuplicateCheck:quoteResponseId&#45;&gt;quoteResponse:quoteResponseId</title>
<path fill="none" stroke="black" d="M446.19,-526.13C418.75,-516.87 436.41,-466.07 457.2,-435.2 516.68,-346.9 618.77,-431.13 678.2,-342.8 704.15,-304.22 725.69,-238.2 679.2,-238.2"/>
<polygon fill="black" stroke="black" points="445.98,-526.1 455.22,-532 451.25,-526.87 455.54,-527.5 455.54,-527.5 455.54,-527.5 451.25,-526.87 456.52,-523.1 445.98,-526.1"/>
<text text-anchor="start" x="61.24" y="-537.6" font-family="Arial" font-size="10.00">FOREIGN KEY (quoteResponseId) REFERENCES quoteResponse (quoteResponseId)</text>
</g>
<!-- quote -->
<g id="node3" class="node">
<title>quote</title>
<polygon fill="#efefef" stroke="none" points="782.89,-320.4 782.89,-356 1594.5,-356 1594.5,-320.4 782.89,-320.4"/>
<polygon fill="none" stroke="black" points="782.89,-320.4 782.89,-356 1594.5,-356 1594.5,-320.4 782.89,-320.4"/>
<text text-anchor="start" x="1106.46" y="-333.8" font-family="Arial Bold" font-size="18.00">quote</text>
<text text-anchor="start" x="1146.45" y="-333.8" font-family="Arial" font-size="14.00">    </text>
<text text-anchor="start" x="1177.57" y="-333.8" font-family="Arial" font-size="14.00" fill="#666666">[BASE TABLE]</text>
<polygon fill="none" stroke="black" points="782.89,-289.6 782.89,-320.4 1594.5,-320.4 1594.5,-289.6 782.89,-289.6"/>
<text text-anchor="start" x="789.89" y="-301.8" font-family="Arial" font-size="14.00">quoteId </text>
<text text-anchor="start" x="840.49" y="-301.8" font-family="Arial" font-size="14.00" fill="#666666">[varchar(36)]</text>
<polygon fill="none" stroke="black" points="782.89,-258.8 782.89,-289.6 1594.5,-289.6 1594.5,-258.8 782.89,-258.8"/>
<text text-anchor="start" x="789.89" y="-271" font-family="Arial" font-size="14.00">transactionReferenceId </text>
<text text-anchor="start" x="938.53" y="-271" font-family="Arial" font-size="14.00" fill="#666666">[varchar(36)]</text>
<text text-anchor="start" x="1017.89" y="-271" font-family="Arial" font-size="14.00"> Common ID (decided by the Payer FSP) between the FSPs for the future transaction object</text>
<polygon fill="none" stroke="black" points="782.89,-228 782.89,-258.8 1594.5,-258.8 1594.5,-228 782.89,-228"/>
<text text-anchor="start" x="789.89" y="-240.2" font-family="Arial" font-size="14.00">transactionInitiatorId </text>
<text text-anchor="start" x="919.85" y="-240.2" font-family="Arial" font-size="14.00" fill="#666666">[int unsigned]</text>
<text text-anchor="start" x="1003.13" y="-240.2" font-family="Arial" font-size="14.00"> This is part of the transaction initiator</text>
<polygon fill="none" stroke="black" points="782.89,-197.2 782.89,-228 1594.5,-228 1594.5,-197.2 782.89,-197.2"/>
<text text-anchor="start" x="789.89" y="-209.4" font-family="Arial" font-size="14.00">transactionInitiatorTypeId </text>
<text text-anchor="start" x="950.98" y="-209.4" font-family="Arial" font-size="14.00" fill="#666666">[int unsigned]</text>
<text text-anchor="start" x="1034.26" y="-209.4" font-family="Arial" font-size="14.00"> This is part of the transaction initiator type</text>
<polygon fill="none" stroke="black" points="782.89,-166.4 782.89,-197.2 1594.5,-197.2 1594.5,-166.4 782.89,-166.4"/>
<text text-anchor="start" x="789.89" y="-178.6" font-family="Arial" font-size="14.00">transactionScenarioId </text>
<text text-anchor="start" x="929.2" y="-178.6" font-family="Arial" font-size="14.00" fill="#666666">[int unsigned]</text>
<text text-anchor="start" x="1012.48" y="-178.6" font-family="Arial" font-size="14.00"> This is part of the transaction scenario</text>
<polygon fill="none" stroke="black" points="782.89,-135.6 782.89,-166.4 1594.5,-166.4 1594.5,-135.6 782.89,-135.6"/>
<text text-anchor="start" x="789.89" y="-147.8" font-family="Arial" font-size="14.00">balanceOfPaymentsId </text>
<text text-anchor="start" x="931.53" y="-147.8" font-family="Arial" font-size="14.00" fill="#666666">[int unsigned]</text>
<text text-anchor="start" x="1014.81" y="-147.8" font-family="Arial" font-size="14.00"> This is part of the transaction type that contains the elements&#45; balance of payment</text>
<polygon fill="none" stroke="black" points="782.89,-104.8 782.89,-135.6 1594.5,-135.6 1594.5,-104.8 782.89,-104.8"/>
<text text-anchor="start" x="789.89" y="-117" font-family="Arial" font-size="14.00">transactionSubScenarioId </text>
<text text-anchor="start" x="954.11" y="-117" font-family="Arial" font-size="14.00" fill="#666666">[int unsigned]</text>
<text text-anchor="start" x="1037.39" y="-117" font-family="Arial" font-size="14.00"> This is part of the transaction type sub scenario as defined by the local scheme</text>
<polygon fill="none" stroke="black" points="782.89,-74 782.89,-104.8 1594.5,-104.8 1594.5,-74 782.89,-74"/>
<text text-anchor="start" x="789.89" y="-86.2" font-family="Arial" font-size="14.00">amountTypeId </text>
<text text-anchor="start" x="883.28" y="-86.2" font-family="Arial" font-size="14.00" fill="#666666">[int unsigned]</text>
<text text-anchor="start" x="966.56" y="-86.2" font-family="Arial" font-size="14.00"> This is part of the transaction type that contains valid elements for &#45; Amount Type</text>
<polygon fill="none" stroke="black" points="782.89,-43.2 782.89,-74 1594.5,-74 1594.5,-43.2 782.89,-43.2"/>
<text text-anchor="start" x="789.89" y="-55.4" font-family="Arial" font-size="14.00">currencyId </text>
<text text-anchor="start" x="859.14" y="-55.4" font-family="Arial" font-size="14.00" fill="#666666">[varchar(255)]</text>
<text text-anchor="start" x="946.29" y="-55.4" font-family="Arial" font-size="14.00"> Trading currency pertaining to the Amount</text>
</g>
<!-- quoteResponseDuplicateCheck&#45;&gt;quote -->
<g id="edge2" class="edge">
<title>quoteResponseDuplicateCheck:quoteId&#45;&gt;quote:quoteId</title>
<path fill="none" stroke="black" d="M1103.01,-494.27C1117.42,-485 1107.84,-452.49 1092.2,-435.2 999.33,-332.59 875.47,-502.07 782.89,-399.2 754.89,-368.08 740.02,-305 781.89,-305"/>
<polygon fill="black" stroke="black" points="1103.21,-494.22 1092.4,-492.36 1098.04,-495.55 1093.84,-496.63 1093.84,-496.63 1093.84,-496.63 1098.04,-495.55 1094.64,-501.07 1103.21,-494.22"/>
<text text-anchor="start" x="1100.2" y="-506.8" font-family="Arial" font-size="10.00">FOREIGN KEY (quoteId) REFERENCES quote (quoteId)</text>
</g>
</g>
</svg>
