<?xml version="1.0" encoding="UTF-8" standalone="no"?>
<!DOCTYPE svg PUBLIC "-//W3C//DTD SVG 1.1//EN"
 "http://www.w3.org/Graphics/SVG/1.1/DTD/svg11.dtd">
<!-- Generated by graphviz version 12.1.2 (20240928.0832)
 -->
<!-- Title: quotePartyIdInfoExtension Pages: 1 -->
<svg width="859pt" height="602pt"
 viewBox="0.00 0.00 859.22 602.00" xmlns="http://www.w3.org/2000/svg" xmlns:xlink="http://www.w3.org/1999/xlink">
<g id="graph0" class="graph" transform="scale(1 1) rotate(0) translate(4 598)">
<title>quotePartyIdInfoExtension</title>
<polygon fill="white" stroke="none" points="-4,4 -4,-598 855.22,-598 855.22,4 -4,4"/>
<!-- quotePartyIdInfoExtension -->
<g id="node1" class="node">
<title>quotePartyIdInfoExtension</title>
<polygon fill="#efefef" stroke="none" points="46.2,-512.2 46.2,-547.8 805.02,-547.8 805.02,-512.2 46.2,-512.2"/>
<polygon fill="none" stroke="black" points="46.2,-512.2 46.2,-547.8 805.02,-547.8 805.02,-512.2 46.2,-512.2"/>
<text text-anchor="start" x="265.88" y="-525.6" font-family="Arial Bold" font-size="18.00">quotePartyIdInfoExtension</text>
<text text-anchor="start" x="460.84" y="-525.6" font-family="Arial" font-size="14.00">    </text>
<text text-anchor="start" x="491.96" y="-525.6" font-family="Arial" font-size="14.00" fill="#666666">[BASE TABLE]</text>
<polygon fill="none" stroke="black" points="46.2,-481.4 46.2,-512.2 805.02,-512.2 805.02,-481.4 46.2,-481.4"/>
<text text-anchor="start" x="53.2" y="-493.6" font-family="Arial" font-size="14.00">quotePartyIdInfoExtensionId </text>
<text text-anchor="start" x="232.99" y="-493.6" font-family="Arial" font-size="14.00" fill="#666666">[bigint unsigned]</text>
<polygon fill="none" stroke="black" points="46.2,-450.6 46.2,-481.4 805.02,-481.4 805.02,-450.6 46.2,-450.6"/>
<text text-anchor="start" x="53.2" y="-462.8" font-family="Arial" font-size="14.00">quotePartyId </text>
<text text-anchor="start" x="136.48" y="-462.8" font-family="Arial" font-size="14.00" fill="#666666">[bigint unsigned]</text>
<text text-anchor="start" x="238.44" y="-462.8" font-family="Arial" font-size="14.00"> quotePartyId: a common id between the tables quotePartyIdInfoExtension and quoteParty</text>
<polygon fill="none" stroke="black" stroke-width="3" points="44.7,-449.1 44.7,-549.3 806.52,-549.3 806.52,-449.1 44.7,-449.1"/>
</g>
<!-- quoteParty -->
<g id="node2" class="node">
<title>quoteParty</title>
<polygon fill="#efefef" stroke="none" points="58.32,-289.6 58.32,-325.2 792.9,-325.2 792.9,-289.6 58.32,-289.6"/>
<polygon fill="none" stroke="black" points="58.32,-289.6 58.32,-325.2 792.9,-325.2 792.9,-289.6 58.32,-289.6"/>
<text text-anchor="start" x="324.37" y="-303" font-family="Arial Bold" font-size="18.00">quoteParty</text>
<text text-anchor="start" x="402.36" y="-303" font-family="Arial" font-size="14.00">    </text>
<text text-anchor="start" x="433.47" y="-303" font-family="Arial" font-size="14.00" fill="#666666">[BASE TABLE]</text>
<polygon fill="none" stroke="black" points="58.32,-258.8 58.32,-289.6 792.9,-289.6 792.9,-258.8 58.32,-258.8"/>
<text text-anchor="start" x="65.32" y="-271" font-family="Arial" font-size="14.00">quotePartyId </text>
<text text-anchor="start" x="148.59" y="-271" font-family="Arial" font-size="14.00" fill="#666666">[bigint unsigned]</text>
<polygon fill="none" stroke="black" points="58.32,-228 58.32,-258.8 792.9,-258.8 792.9,-228 58.32,-228"/>
<text text-anchor="start" x="65.32" y="-240.2" font-family="Arial" font-size="14.00">quoteId </text>
<text text-anchor="start" x="115.92" y="-240.2" font-family="Arial" font-size="14.00" fill="#666666">[varchar(36)]</text>
<text text-anchor="start" x="195.27" y="-240.2" font-family="Arial" font-size="14.00"> Common ID between the FSPs for the quote object, decided by the Payer FSP</text>
<polygon fill="none" stroke="black" points="58.32,-197.2 58.32,-228 792.9,-228 792.9,-197.2 58.32,-197.2"/>
<text text-anchor="start" x="65.32" y="-209.4" font-family="Arial" font-size="14.00">partyTypeId </text>
<text text-anchor="start" x="143.13" y="-209.4" font-family="Arial" font-size="14.00" fill="#666666">[int unsigned]</text>
<text text-anchor="start" x="226.41" y="-209.4" font-family="Arial" font-size="14.00"> Specifies the type of party this row relates to; typically PAYER or PAYEE</text>
<polygon fill="none" stroke="black" points="58.32,-166.4 58.32,-197.2 792.9,-197.2 792.9,-166.4 58.32,-166.4"/>
<text text-anchor="start" x="65.32" y="-178.6" font-family="Arial" font-size="14.00">partyIdentifierTypeId </text>
<text text-anchor="start" x="196.83" y="-178.6" font-family="Arial" font-size="14.00" fill="#666666">[int unsigned]</text>
<text text-anchor="start" x="280.11" y="-178.6" font-family="Arial" font-size="14.00"> Specifies the type of identifier used to identify this party e.g. MSISDN, IBAN etc...</text>
<polygon fill="none" stroke="black" points="58.32,-135.6 58.32,-166.4 792.9,-166.4 792.9,-135.6 58.32,-135.6"/>
<text text-anchor="start" x="65.32" y="-147.8" font-family="Arial" font-size="14.00">participantId </text>
<text text-anchor="start" x="145.47" y="-147.8" font-family="Arial" font-size="14.00" fill="#666666">[int unsigned]</text>
<text text-anchor="start" x="228.76" y="-147.8" font-family="Arial" font-size="14.00"> Reference to the resolved FSP ID (if supplied/known). If not an error will be reported</text>
<polygon fill="none" stroke="black" points="58.32,-104.8 58.32,-135.6 792.9,-135.6 792.9,-104.8 58.32,-104.8"/>
<text text-anchor="start" x="65.32" y="-117" font-family="Arial" font-size="14.00">transferParticipantRoleTypeId </text>
<text text-anchor="start" x="254.41" y="-117" font-family="Arial" font-size="14.00" fill="#666666">[int unsigned]</text>
<text text-anchor="start" x="337.69" y="-117" font-family="Arial" font-size="14.00"> The role this Party is playing in the transaction</text>
<polygon fill="none" stroke="black" points="58.32,-74 58.32,-104.8 792.9,-104.8 792.9,-74 58.32,-74"/>
<text text-anchor="start" x="65.32" y="-86.2" font-family="Arial" font-size="14.00">ledgerEntryTypeId </text>
<text text-anchor="start" x="183.6" y="-86.2" font-family="Arial" font-size="14.00" fill="#666666">[int unsigned]</text>
<text text-anchor="start" x="266.88" y="-86.2" font-family="Arial" font-size="14.00"> The type of financial entry this Party is presenting</text>
<polygon fill="none" stroke="black" points="58.32,-43.2 58.32,-74 792.9,-74 792.9,-43.2 58.32,-43.2"/>
<text text-anchor="start" x="65.32" y="-55.4" font-family="Arial" font-size="14.00">currencyId </text>
<text text-anchor="start" x="134.56" y="-55.4" font-family="Arial" font-size="14.00" fill="#666666">[varchar(3)]</text>
<text text-anchor="start" x="206.14" y="-55.4" font-family="Arial" font-size="14.00"> Trading currency pertaining to the party amount</text>
</g>
<!-- quotePartyIdInfoExtension&#45;&gt;quoteParty -->
<g id="edge1" class="edge">
<title>quotePartyIdInfoExtension:quotePartyId&#45;&gt;quoteParty:quotePartyId</title>
<path fill="none" stroke="black" d="M425.97,-439.35C436.79,-291.53 689.79,-495.41 792.9,-368.4 819.29,-335.89 835.77,-274.2 793.9,-274.2"/>
<polygon fill="black" stroke="black" points="425.97,-439.27 421.12,-449.11 425.78,-444.6 425.63,-448.93 425.63,-448.93 425.63,-448.93 425.78,-444.6 430.12,-449.42 425.97,-439.27"/>
<text text-anchor="start" x="95.71" y="-459.6" font-family="Arial" font-size="10.00">FOREIGN KEY (quotePartyId) REFERENCES quoteParty (quotePartyId)</text>
</g>
</g>
</svg>
