<?xml version="1.0" encoding="UTF-8" standalone="no"?>
<!DOCTYPE svg PUBLIC "-//W3C//DTD SVG 1.1//EN"
 "http://www.w3.org/Graphics/SVG/1.1/DTD/svg11.dtd">
<!-- Generated by graphviz version 12.1.2 (20240928.0832)
 -->
<!-- Title: quoteParty Pages: 1 -->
<svg width="3043pt" height="1048pt"
 viewBox="0.00 0.00 3042.93 1047.60" xmlns="http://www.w3.org/2000/svg" xmlns:xlink="http://www.w3.org/1999/xlink">
<g id="graph0" class="graph" transform="scale(1 1) rotate(0) translate(4 1043.6)">
<title>quoteParty</title>
<polygon fill="white" stroke="none" points="-4,4 -4,-1043.6 3038.93,-1043.6 3038.93,4 -4,4"/>
<!-- quoteParty -->
<g id="node1" class="node">
<title>quoteParty</title>
<polygon fill="#efefef" stroke="none" points="1399.71,-727.8 1399.71,-763.4 2134.3,-763.4 2134.3,-727.8 1399.71,-727.8"/>
<polygon fill="none" stroke="black" points="1399.71,-727.8 1399.71,-763.4 2134.3,-763.4 2134.3,-727.8 1399.71,-727.8"/>
<text text-anchor="start" x="1665.77" y="-741.2" font-family="Arial Bold" font-size="18.00">quoteParty</text>
<text text-anchor="start" x="1743.75" y="-741.2" font-family="Arial" font-size="14.00">    </text>
<text text-anchor="start" x="1774.87" y="-741.2" font-family="Arial" font-size="14.00" fill="#666666">[BASE TABLE]</text>
<polygon fill="none" stroke="black" points="1399.71,-697 1399.71,-727.8 2134.3,-727.8 2134.3,-697 1399.71,-697"/>
<text text-anchor="start" x="1406.71" y="-709.2" font-family="Arial" font-size="14.00">quotePartyId </text>
<text text-anchor="start" x="1489.99" y="-709.2" font-family="Arial" font-size="14.00" fill="#666666">[bigint unsigned]</text>
<polygon fill="none" stroke="black" points="1399.71,-666.2 1399.71,-697 2134.3,-697 2134.3,-666.2 1399.71,-666.2"/>
<text text-anchor="start" x="1406.71" y="-678.4" font-family="Arial" font-size="14.00">quoteId </text>
<text text-anchor="start" x="1457.31" y="-678.4" font-family="Arial" font-size="14.00" fill="#666666">[varchar(36)]</text>
<text text-anchor="start" x="1536.67" y="-678.4" font-family="Arial" font-size="14.00"> Common ID between the FSPs for the quote object, decided by the Payer FSP</text>
<polygon fill="none" stroke="black" points="1399.71,-635.4 1399.71,-666.2 2134.3,-666.2 2134.3,-635.4 1399.71,-635.4"/>
<text text-anchor="start" x="1406.71" y="-647.6" font-family="Arial" font-size="14.00">partyTypeId </text>
<text text-anchor="start" x="1484.53" y="-647.6" font-family="Arial" font-size="14.00" fill="#666666">[int unsigned]</text>
<text text-anchor="start" x="1567.81" y="-647.6" font-family="Arial" font-size="14.00"> Specifies the type of party this row relates to; typically PAYER or PAYEE</text>
<polygon fill="none" stroke="black" points="1399.71,-604.6 1399.71,-635.4 2134.3,-635.4 2134.3,-604.6 1399.71,-604.6"/>
<text text-anchor="start" x="1406.71" y="-616.8" font-family="Arial" font-size="14.00">partyIdentifierTypeId </text>
<text text-anchor="start" x="1538.22" y="-616.8" font-family="Arial" font-size="14.00" fill="#666666">[int unsigned]</text>
<text text-anchor="start" x="1621.51" y="-616.8" font-family="Arial" font-size="14.00"> Specifies the type of identifier used to identify this party e.g. MSISDN, IBAN etc...</text>
<polygon fill="none" stroke="black" points="1399.71,-573.8 1399.71,-604.6 2134.3,-604.6 2134.3,-573.8 1399.71,-573.8"/>
<text text-anchor="start" x="1406.71" y="-586" font-family="Arial" font-size="14.00">participantId </text>
<text text-anchor="start" x="1486.87" y="-586" font-family="Arial" font-size="14.00" fill="#666666">[int unsigned]</text>
<text text-anchor="start" x="1570.15" y="-586" font-family="Arial" font-size="14.00"> Reference to the resolved FSP ID (if supplied/known). If not an error will be reported</text>
<polygon fill="none" stroke="black" points="1399.71,-543 1399.71,-573.8 2134.3,-573.8 2134.3,-543 1399.71,-543"/>
<text text-anchor="start" x="1406.71" y="-555.2" font-family="Arial" font-size="14.00">transferParticipantRoleTypeId </text>
<text text-anchor="start" x="1595.8" y="-555.2" font-family="Arial" font-size="14.00" fill="#666666">[int unsigned]</text>
<text text-anchor="start" x="1679.08" y="-555.2" font-family="Arial" font-size="14.00"> The role this Party is playing in the transaction</text>
<polygon fill="none" stroke="black" points="1399.71,-512.2 1399.71,-543 2134.3,-543 2134.3,-512.2 1399.71,-512.2"/>
<text text-anchor="start" x="1406.71" y="-524.4" font-family="Arial" font-size="14.00">ledgerEntryTypeId </text>
<text text-anchor="start" x="1525" y="-524.4" font-family="Arial" font-size="14.00" fill="#666666">[int unsigned]</text>
<text text-anchor="start" x="1608.28" y="-524.4" font-family="Arial" font-size="14.00"> The type of financial entry this Party is presenting</text>
<polygon fill="none" stroke="black" points="1399.71,-481.4 1399.71,-512.2 2134.3,-512.2 2134.3,-481.4 1399.71,-481.4"/>
<text text-anchor="start" x="1406.71" y="-493.6" font-family="Arial" font-size="14.00">currencyId </text>
<text text-anchor="start" x="1475.96" y="-493.6" font-family="Arial" font-size="14.00" fill="#666666">[varchar(3)]</text>
<text text-anchor="start" x="1547.53" y="-493.6" font-family="Arial" font-size="14.00"> Trading currency pertaining to the party amount</text>
<polygon fill="none" stroke="black" stroke-width="3" points="1398.21,-479.9 1398.21,-764.9 2135.8,-764.9 2135.8,-479.9 1398.21,-479.9"/>
</g>
<!-- quote -->
<g id="node5" class="node">
<title>quote</title>
<polygon fill="#efefef" stroke="none" points="43.2,-320.4 43.2,-356 854.81,-356 854.81,-320.4 43.2,-320.4"/>
<polygon fill="none" stroke="black" points="43.2,-320.4 43.2,-356 854.81,-356 854.81,-320.4 43.2,-320.4"/>
<text text-anchor="start" x="366.77" y="-333.8" font-family="Arial Bold" font-size="18.00">quote</text>
<text text-anchor="start" x="406.76" y="-333.8" font-family="Arial" font-size="14.00">    </text>
<text text-anchor="start" x="437.87" y="-333.8" font-family="Arial" font-size="14.00" fill="#666666">[BASE TABLE]</text>
<polygon fill="none" stroke="black" points="43.2,-289.6 43.2,-320.4 854.81,-320.4 854.81,-289.6 43.2,-289.6"/>
<text text-anchor="start" x="50.2" y="-301.8" font-family="Arial" font-size="14.00">quoteId </text>
<text text-anchor="start" x="100.8" y="-301.8" font-family="Arial" font-size="14.00" fill="#666666">[varchar(36)]</text>
<polygon fill="none" stroke="black" points="43.2,-258.8 43.2,-289.6 854.81,-289.6 854.81,-258.8 43.2,-258.8"/>
<text text-anchor="start" x="50.2" y="-271" font-family="Arial" font-size="14.00">transactionReferenceId </text>
<text text-anchor="start" x="198.84" y="-271" font-family="Arial" font-size="14.00" fill="#666666">[varchar(36)]</text>
<text text-anchor="start" x="278.2" y="-271" font-family="Arial" font-size="14.00"> Common ID (decided by the Payer FSP) between the FSPs for the future transaction object</text>
<polygon fill="none" stroke="black" points="43.2,-228 43.2,-258.8 854.81,-258.8 854.81,-228 43.2,-228"/>
<text text-anchor="start" x="50.2" y="-240.2" font-family="Arial" font-size="14.00">transactionInitiatorId </text>
<text text-anchor="start" x="180.16" y="-240.2" font-family="Arial" font-size="14.00" fill="#666666">[int unsigned]</text>
<text text-anchor="start" x="263.44" y="-240.2" font-family="Arial" font-size="14.00"> This is part of the transaction initiator</text>
<polygon fill="none" stroke="black" points="43.2,-197.2 43.2,-228 854.81,-228 854.81,-197.2 43.2,-197.2"/>
<text text-anchor="start" x="50.2" y="-209.4" font-family="Arial" font-size="14.00">transactionInitiatorTypeId </text>
<text text-anchor="start" x="211.28" y="-209.4" font-family="Arial" font-size="14.00" fill="#666666">[int unsigned]</text>
<text text-anchor="start" x="294.56" y="-209.4" font-family="Arial" font-size="14.00"> This is part of the transaction initiator type</text>
<polygon fill="none" stroke="black" points="43.2,-166.4 43.2,-197.2 854.81,-197.2 854.81,-166.4 43.2,-166.4"/>
<text text-anchor="start" x="50.2" y="-178.6" font-family="Arial" font-size="14.00">transactionScenarioId </text>
<text text-anchor="start" x="189.5" y="-178.6" font-family="Arial" font-size="14.00" fill="#666666">[int unsigned]</text>
<text text-anchor="start" x="272.78" y="-178.6" font-family="Arial" font-size="14.00"> This is part of the transaction scenario</text>
<polygon fill="none" stroke="black" points="43.2,-135.6 43.2,-166.4 854.81,-166.4 854.81,-135.6 43.2,-135.6"/>
<text text-anchor="start" x="50.2" y="-147.8" font-family="Arial" font-size="14.00">balanceOfPaymentsId </text>
<text text-anchor="start" x="191.83" y="-147.8" font-family="Arial" font-size="14.00" fill="#666666">[int unsigned]</text>
<text text-anchor="start" x="275.12" y="-147.8" font-family="Arial" font-size="14.00"> This is part of the transaction type that contains the elements&#45; balance of payment</text>
<polygon fill="none" stroke="black" points="43.2,-104.8 43.2,-135.6 854.81,-135.6 854.81,-104.8 43.2,-104.8"/>
<text text-anchor="start" x="50.2" y="-117" font-family="Arial" font-size="14.00">transactionSubScenarioId </text>
<text text-anchor="start" x="214.41" y="-117" font-family="Arial" font-size="14.00" fill="#666666">[int unsigned]</text>
<text text-anchor="start" x="297.7" y="-117" font-family="Arial" font-size="14.00"> This is part of the transaction type sub scenario as defined by the local scheme</text>
<polygon fill="none" stroke="black" points="43.2,-74 43.2,-104.8 854.81,-104.8 854.81,-74 43.2,-74"/>
<text text-anchor="start" x="50.2" y="-86.2" font-family="Arial" font-size="14.00">amountTypeId </text>
<text text-anchor="start" x="143.59" y="-86.2" font-family="Arial" font-size="14.00" fill="#666666">[int unsigned]</text>
<text text-anchor="start" x="226.87" y="-86.2" font-family="Arial" font-size="14.00"> This is part of the transaction type that contains valid elements for &#45; Amount Type</text>
<polygon fill="none" stroke="black" points="43.2,-43.2 43.2,-74 854.81,-74 854.81,-43.2 43.2,-43.2"/>
<text text-anchor="start" x="50.2" y="-55.4" font-family="Arial" font-size="14.00">currencyId </text>
<text text-anchor="start" x="119.45" y="-55.4" font-family="Arial" font-size="14.00" fill="#666666">[varchar(255)]</text>
<text text-anchor="start" x="206.59" y="-55.4" font-family="Arial" font-size="14.00"> Trading currency pertaining to the Amount</text>
</g>
<!-- quoteParty&#45;&gt;quote -->
<g id="edge4" class="edge">
<title>quoteParty:quoteId&#45;&gt;quote:quoteId</title>
<path fill="none" stroke="black" d="M1388.48,-681.54C1144.94,-678.79 1080.69,-577.02 907.01,-399.2 873.71,-365.11 903.46,-305 855.81,-305"/>
<polygon fill="black" stroke="black" points="1388.38,-681.54 1398.35,-686.1 1393.71,-681.57 1398.04,-681.6 1398.04,-681.6 1398.04,-681.6 1393.71,-681.57 1398.4,-677.1 1388.38,-681.54"/>
<text text-anchor="start" x="1138.84" y="-691.6" font-family="Arial" font-size="10.00">FOREIGN KEY (quoteId) REFERENCES quote (quoteId)</text>
</g>
<!-- partyType -->
<g id="node6" class="node">
<title>partyType</title>
<polygon fill="#efefef" stroke="none" points="958.78,-197.2 958.78,-232.8 1171.23,-232.8 1171.23,-197.2 958.78,-197.2"/>
<polygon fill="none" stroke="black" points="958.78,-197.2 958.78,-232.8 1171.23,-232.8 1171.23,-197.2 958.78,-197.2"/>
<text text-anchor="start" x="965.78" y="-210.6" font-family="Arial Bold" font-size="18.00">partyType</text>
<text text-anchor="start" x="1039.74" y="-210.6" font-family="Arial" font-size="14.00">    </text>
<text text-anchor="start" x="1070.86" y="-210.6" font-family="Arial" font-size="14.00" fill="#666666">[BASE TABLE]</text>
<polygon fill="none" stroke="black" points="958.78,-166.4 958.78,-197.2 1171.23,-197.2 1171.23,-166.4 958.78,-166.4"/>
<text text-anchor="start" x="965.78" y="-178.6" font-family="Arial" font-size="14.00">partyTypeId </text>
<text text-anchor="start" x="1043.59" y="-178.6" font-family="Arial" font-size="14.00" fill="#666666">[int unsigned]</text>
</g>
<!-- quoteParty&#45;&gt;partyType -->
<g id="edge5" class="edge">
<title>quoteParty:partyTypeId&#45;&gt;partyType:partyTypeId</title>
<path fill="none" stroke="black" d="M1388.62,-650.56C1263.1,-644.35 1277.15,-520.6 1223.01,-399.2 1182.59,-308.58 1271.46,-181.8 1172.23,-181.8"/>
<polygon fill="black" stroke="black" points="1388.38,-650.55 1398.27,-655.29 1393.72,-650.68 1398.04,-650.78 1398.04,-650.78 1398.04,-650.78 1393.72,-650.68 1398.49,-646.29 1388.38,-650.55"/>
<text text-anchor="start" x="1080.52" y="-660.8" font-family="Arial" font-size="10.00">FOREIGN KEY (partyTypeId) REFERENCES partyType (partyTypeId)</text>
</g>
<!-- partyIdentifierType -->
<g id="node7" class="node">
<title>partyIdentifierType</title>
<polygon fill="#efefef" stroke="none" points="1275.29,-197.2 1275.29,-232.8 1554.72,-232.8 1554.72,-197.2 1275.29,-197.2"/>
<polygon fill="none" stroke="black" points="1275.29,-197.2 1275.29,-232.8 1554.72,-232.8 1554.72,-197.2 1275.29,-197.2"/>
<text text-anchor="start" x="1282.29" y="-210.6" font-family="Arial Bold" font-size="18.00">partyIdentifierType</text>
<text text-anchor="start" x="1423.23" y="-210.6" font-family="Arial" font-size="14.00">    </text>
<text text-anchor="start" x="1454.34" y="-210.6" font-family="Arial" font-size="14.00" fill="#666666">[BASE TABLE]</text>
<polygon fill="none" stroke="black" points="1275.29,-166.4 1275.29,-197.2 1554.72,-197.2 1554.72,-166.4 1275.29,-166.4"/>
<text text-anchor="start" x="1282.29" y="-178.6" font-family="Arial" font-size="14.00">partyIdentifierTypeId </text>
<text text-anchor="start" x="1413.8" y="-178.6" font-family="Arial" font-size="14.00" fill="#666666">[int unsigned]</text>
</g>
<!-- quoteParty&#45;&gt;partyIdentifierType -->
<g id="edge6" class="edge">
<title>quoteParty:partyIdentifierTypeId&#45;&gt;partyIdentifierType:partyIdentifierTypeId</title>
<path fill="none" stroke="black" d="M1388.44,-619.35C1321.21,-610.29 1369.98,-507.79 1399.71,-435.2 1437.14,-343.81 1517.05,-367.29 1554.72,-276 1570.69,-237.3 1597.59,-181.8 1555.72,-181.8"/>
<polygon fill="black" stroke="black" points="1388.4,-619.35 1398.1,-624.47 1393.72,-619.69 1398.05,-619.96 1398.05,-619.96 1398.05,-619.96 1393.72,-619.69 1398.66,-615.49 1388.4,-619.35"/>
<text text-anchor="start" x="965.46" y="-630" font-family="Arial" font-size="10.00">FOREIGN KEY (partyIdentifierTypeId) REFERENCES partyIdentifierType (partyIdentifierTypeId)</text>
</g>
<!-- participant -->
<g id="node8" class="node">
<title>participant</title>
<polygon fill="#efefef" stroke="none" points="1659.28,-197.2 1659.28,-232.8 1874.73,-232.8 1874.73,-197.2 1659.28,-197.2"/>
<polygon fill="none" stroke="black" points="1659.28,-197.2 1659.28,-232.8 1874.73,-232.8 1874.73,-197.2 1659.28,-197.2"/>
<text text-anchor="start" x="1666.28" y="-210.6" font-family="Arial Bold" font-size="18.00">participant</text>
<text text-anchor="start" x="1743.24" y="-210.6" font-family="Arial" font-size="14.00">    </text>
<text text-anchor="start" x="1774.36" y="-210.6" font-family="Arial" font-size="14.00" fill="#666666">[BASE TABLE]</text>
<polygon fill="none" stroke="black" points="1659.28,-166.4 1659.28,-197.2 1874.73,-197.2 1874.73,-166.4 1659.28,-166.4"/>
<text text-anchor="start" x="1666.28" y="-178.6" font-family="Arial" font-size="14.00">participantId </text>
<text text-anchor="start" x="1746.44" y="-178.6" font-family="Arial" font-size="14.00" fill="#666666">[int unsigned]</text>
</g>
<!-- quoteParty&#45;&gt;participant -->
<g id="edge7" class="edge">
<title>quoteParty:participantId&#45;&gt;participant:participantId</title>
<path fill="none" stroke="black" d="M2145.7,-588.31C2200.93,-578.22 2176.11,-484.58 2134.3,-435.2 2073.87,-363.84 1995.07,-463.32 1927.01,-399.2 1854.75,-331.13 1975.01,-181.8 1875.73,-181.8"/>
<polygon fill="black" stroke="black" points="2145.59,-588.32 2135.25,-584.69 2140.28,-588.77 2135.96,-589.14 2135.96,-589.14 2135.96,-589.14 2140.28,-588.77 2136.01,-593.66 2145.59,-588.32"/>
<text text-anchor="start" x="2142.3" y="-599.2" font-family="Arial" font-size="10.00">FOREIGN KEY (participantId) REFERENCES participant (participantId)</text>
</g>
<!-- transferParticipantRoleType -->
<g id="node9" class="node">
<title>transferParticipantRoleType</title>
<polygon fill="#efefef" stroke="none" points="1978.8,-197.2 1978.8,-232.8 2321.21,-232.8 2321.21,-197.2 1978.8,-197.2"/>
<polygon fill="none" stroke="black" points="1978.8,-197.2 1978.8,-232.8 2321.21,-232.8 2321.21,-197.2 1978.8,-197.2"/>
<text text-anchor="start" x="1985.8" y="-210.6" font-family="Arial Bold" font-size="18.00">transferParticipantRoleType</text>
<text text-anchor="start" x="2189.72" y="-210.6" font-family="Arial" font-size="14.00">    </text>
<text text-anchor="start" x="2220.84" y="-210.6" font-family="Arial" font-size="14.00" fill="#666666">[BASE TABLE]</text>
<polygon fill="none" stroke="black" points="1978.8,-166.4 1978.8,-197.2 2321.21,-197.2 2321.21,-166.4 1978.8,-166.4"/>
<text text-anchor="start" x="1985.8" y="-178.6" font-family="Arial" font-size="14.00">transferParticipantRoleTypeId </text>
<text text-anchor="start" x="2174.89" y="-178.6" font-family="Arial" font-size="14.00" fill="#666666">[int unsigned]</text>
</g>
<!-- quoteParty&#45;&gt;transferParticipantRoleType -->
<g id="edge8" class="edge">
<title>quoteParty:transferParticipantRoleTypeId&#45;&gt;transferParticipantRoleType:transferParticipantRoleTypeId</title>
<path fill="none" stroke="black" d="M2145.55,-557.36C2185.22,-548.3 2153.69,-482.27 2134.3,-435.2 2096.61,-343.75 2016.6,-367.4 1978.8,-276 1962.8,-237.31 1935.93,-181.8 1977.8,-181.8"/>
<polygon fill="black" stroke="black" points="2145.58,-557.35 2135.17,-553.89 2140.27,-557.89 2135.96,-558.33 2135.96,-558.33 2135.96,-558.33 2140.27,-557.89 2136.08,-562.84 2145.58,-557.35"/>
<text text-anchor="start" x="2142.3" y="-568.4" font-family="Arial" font-size="10.00">FOREIGN KEY (transferParticipantRoleTypeId) REFERENCES transferParticipantRoleType (transferParticipantRoleTypeId)</text>
</g>
<!-- ledgerEntryType -->
<g id="node10" class="node">
<title>ledgerEntryType</title>
<polygon fill="#efefef" stroke="none" points="2425.79,-212.6 2425.79,-248.2 2686.22,-248.2 2686.22,-212.6 2425.79,-212.6"/>
<polygon fill="none" stroke="black" points="2425.79,-212.6 2425.79,-248.2 2686.22,-248.2 2686.22,-212.6 2425.79,-212.6"/>
<text text-anchor="start" x="2432.79" y="-226" font-family="Arial Bold" font-size="18.00">ledgerEntryType</text>
<text text-anchor="start" x="2554.73" y="-226" font-family="Arial" font-size="14.00">    </text>
<text text-anchor="start" x="2585.85" y="-226" font-family="Arial" font-size="14.00" fill="#666666">[BASE TABLE]</text>
<polygon fill="none" stroke="black" points="2425.79,-181.8 2425.79,-212.6 2686.22,-212.6 2686.22,-181.8 2425.79,-181.8"/>
<text text-anchor="start" x="2432.79" y="-194" font-family="Arial" font-size="14.00">ledgerEntryTypeId </text>
<text text-anchor="start" x="2551.07" y="-194" font-family="Arial" font-size="14.00" fill="#666666">[int unsigned]</text>
<polygon fill="none" stroke="black" points="2425.79,-151 2425.79,-181.8 2686.22,-181.8 2686.22,-151 2425.79,-151"/>
<text text-anchor="start" x="2432.79" y="-163.2" font-family="Arial" font-size="14.00">ledgerAccountTypeId </text>
<text text-anchor="start" x="2568.98" y="-163.2" font-family="Arial" font-size="14.00" fill="#666666">[int unsigned]</text>
</g>
<!-- quoteParty&#45;&gt;ledgerEntryType -->
<g id="edge9" class="edge">
<title>quoteParty:ledgerEntryTypeId&#45;&gt;ledgerEntryType:ledgerEntryTypeId</title>
<path fill="none" stroke="black" d="M2145.66,-527.51C2257.96,-525.57 2301.24,-491.05 2373.01,-399.2 2430.07,-326.17 2332.11,-197.2 2424.79,-197.2"/>
<polygon fill="black" stroke="black" points="2145.63,-527.51 2135.59,-523.1 2140.3,-527.56 2135.97,-527.59 2135.97,-527.59 2135.97,-527.59 2140.3,-527.56 2135.67,-532.1 2145.63,-527.51"/>
<text text-anchor="start" x="2142.3" y="-537.6" font-family="Arial" font-size="10.00">FOREIGN KEY (ledgerEntryTypeId) REFERENCES ledgerEntryType (ledgerEntryTypeId)</text>
</g>
<!-- currency -->
<g id="node11" class="node">
<title>currency</title>
<polygon fill="#efefef" stroke="none" points="2790.28,-197.2 2790.28,-232.8 2991.73,-232.8 2991.73,-197.2 2790.28,-197.2"/>
<polygon fill="none" stroke="black" points="2790.28,-197.2 2790.28,-232.8 2991.73,-232.8 2991.73,-197.2 2790.28,-197.2"/>
<text text-anchor="start" x="2797.28" y="-210.6" font-family="Arial Bold" font-size="18.00">currency</text>
<text text-anchor="start" x="2860.24" y="-210.6" font-family="Arial" font-size="14.00">    </text>
<text text-anchor="start" x="2891.36" y="-210.6" font-family="Arial" font-size="14.00" fill="#666666">[BASE TABLE]</text>
<polygon fill="none" stroke="black" points="2790.28,-166.4 2790.28,-197.2 2991.73,-197.2 2991.73,-166.4 2790.28,-166.4"/>
<text text-anchor="start" x="2797.28" y="-178.6" font-family="Arial" font-size="14.00">currencyId </text>
<text text-anchor="start" x="2866.53" y="-178.6" font-family="Arial" font-size="14.00" fill="#666666">[varchar(3)]</text>
</g>
<!-- quoteParty&#45;&gt;currency -->
<g id="edge10" class="edge">
<title>quoteParty:currencyId&#45;&gt;currency:currencyId</title>
<path fill="none" stroke="black" d="M2145.64,-496.79C2288.77,-496.5 2641.14,-489.41 2738.01,-399.2 2810.65,-331.54 2690.01,-181.8 2789.28,-181.8"/>
<polygon fill="black" stroke="black" points="2145.63,-496.79 2135.63,-492.3 2140.3,-496.79 2135.97,-496.8 2135.97,-496.8 2135.97,-496.8 2140.3,-496.79 2135.64,-501.3 2145.63,-496.79"/>
<text text-anchor="start" x="2142.3" y="-506.8" font-family="Arial" font-size="10.00">FOREIGN KEY (currencyId) REFERENCES currency (currencyId)</text>
</g>
<!-- geoCode -->
<g id="node2" class="node">
<title>geoCode</title>
<polygon fill="#efefef" stroke="none" points="300.75,-955.6 300.75,-991.2 1457.26,-991.2 1457.26,-955.6 300.75,-955.6"/>
<polygon fill="none" stroke="black" points="300.75,-955.6 300.75,-991.2 1457.26,-991.2 1457.26,-955.6 300.75,-955.6"/>
<text text-anchor="start" x="784.77" y="-969" font-family="Arial Bold" font-size="18.00">geoCode</text>
<text text-anchor="start" x="848.75" y="-969" font-family="Arial" font-size="14.00">    </text>
<text text-anchor="start" x="879.87" y="-969" font-family="Arial" font-size="14.00" fill="#666666">[BASE TABLE]</text>
<polygon fill="none" stroke="black" points="300.75,-924.8 300.75,-955.6 1457.26,-955.6 1457.26,-924.8 300.75,-924.8"/>
<text text-anchor="start" x="307.75" y="-937" font-family="Arial" font-size="14.00">geoCodeId </text>
<text text-anchor="start" x="380.14" y="-937" font-family="Arial" font-size="14.00" fill="#666666">[int unsigned]</text>
<polygon fill="none" stroke="black" points="300.75,-894 300.75,-924.8 1457.26,-924.8 1457.26,-894 300.75,-894"/>
<text text-anchor="start" x="307.75" y="-906.2" font-family="Arial" font-size="14.00">quotePartyId </text>
<text text-anchor="start" x="391.03" y="-906.2" font-family="Arial" font-size="14.00" fill="#666666">[bigint unsigned]</text>
<text text-anchor="start" x="492.99" y="-906.2" font-family="Arial" font-size="14.00"> Optionally the GeoCode for the Payer/Payee may have been provided. If the Quote Response has the GeoCode for the Payee, an additional row is added</text>
</g>
<!-- geoCode&#45;&gt;quoteParty -->
<g id="edge1" class="edge">
<title>geoCode:quotePartyId&#45;&gt;quoteParty:quotePartyId</title>
<path fill="none" stroke="black" d="M1468.28,-906.49C1479.26,-897.55 1467.28,-869.9 1457.26,-850.8 1442.64,-822.95 1414.24,-837.5 1399.71,-809.6 1379.77,-771.28 1355.51,-712.4 1398.71,-712.4"/>
<polygon fill="black" stroke="black" points="1468.19,-906.52 1457.33,-904.98 1463.06,-908.01 1458.9,-909.21 1458.9,-909.21 1458.9,-909.21 1463.06,-908.01 1459.83,-913.63 1468.19,-906.52"/>
<text text-anchor="start" x="1465.26" y="-919.4" font-family="Arial" font-size="10.00">FOREIGN KEY (quotePartyId) REFERENCES quoteParty (quotePartyId)</text>
</g>
<!-- party -->
<g id="node3" class="node">
<title>party</title>
<polygon fill="#efefef" stroke="none" points="1561.55,-950.4 1561.55,-996.4 1972.46,-996.4 1972.46,-950.4 1561.55,-950.4"/>
<polygon fill="none" stroke="black" points="1561.55,-950.4 1561.55,-996.4 1972.46,-996.4 1972.46,-950.4 1561.55,-950.4"/>
<text text-anchor="start" x="1686.27" y="-974.2" font-family="Arial Bold" font-size="18.00">party</text>
<text text-anchor="start" x="1723.25" y="-974.2" font-family="Arial" font-size="14.00">    </text>
<text text-anchor="start" x="1754.37" y="-974.2" font-family="Arial" font-size="14.00" fill="#666666">[BASE TABLE]</text>
<text text-anchor="start" x="1568.55" y="-959.8" font-family="Arial" font-size="14.00" fill="#333333">Optional pers. data provided during Quote Request &amp; Response</text>
<polygon fill="none" stroke="black" points="1561.55,-919.6 1561.55,-950.4 1972.46,-950.4 1972.46,-919.6 1561.55,-919.6"/>
<text text-anchor="start" x="1568.55" y="-931.8" font-family="Arial" font-size="14.00">partyId </text>
<text text-anchor="start" x="1615.24" y="-931.8" font-family="Arial" font-size="14.00" fill="#666666">[bigint unsigned]</text>
<polygon fill="none" stroke="black" points="1561.55,-888.8 1561.55,-919.6 1972.46,-919.6 1972.46,-888.8 1561.55,-888.8"/>
<text text-anchor="start" x="1568.55" y="-901" font-family="Arial" font-size="14.00">quotePartyId </text>
<text text-anchor="start" x="1651.82" y="-901" font-family="Arial" font-size="14.00" fill="#666666">[bigint unsigned]</text>
</g>
<!-- party&#45;&gt;quoteParty -->
<g id="edge2" class="edge">
<title>party:quotePartyId&#45;&gt;quoteParty:quotePartyId</title>
<path fill="none" stroke="black" d="M1768.7,-877.87C1793.55,-810.1 2083.73,-871.42 2134.3,-809.6 2161.65,-776.16 2178.5,-712.4 2135.3,-712.4"/>
<polygon fill="black" stroke="black" points="1768.75,-877.61 1762.63,-886.71 1767.85,-882.87 1767.12,-887.14 1767.12,-887.14 1767.12,-887.14 1767.85,-882.87 1771.5,-888.23 1768.75,-877.61"/>
<text text-anchor="start" x="1689.78" y="-871.8" font-family="Arial" font-size="10.00">FOREIGN KEY (quotePartyId) REFERENCES quoteParty (quotePartyId)</text>
</g>
<!-- quotePartyIdInfoExtension -->
<g id="node4" class="node">
<title>quotePartyIdInfoExtension</title>
<polygon fill="#efefef" stroke="none" points="2076.6,-955.6 2076.6,-991.2 2835.41,-991.2 2835.41,-955.6 2076.6,-955.6"/>
<polygon fill="none" stroke="black" points="2076.6,-955.6 2076.6,-991.2 2835.41,-991.2 2835.41,-955.6 2076.6,-955.6"/>
<text text-anchor="start" x="2296.28" y="-969" font-family="Arial Bold" font-size="18.00">quotePartyIdInfoExtension</text>
<text text-anchor="start" x="2491.24" y="-969" font-family="Arial" font-size="14.00">    </text>
<text text-anchor="start" x="2522.36" y="-969" font-family="Arial" font-size="14.00" fill="#666666">[BASE TABLE]</text>
<polygon fill="none" stroke="black" points="2076.6,-924.8 2076.6,-955.6 2835.41,-955.6 2835.41,-924.8 2076.6,-924.8"/>
<text text-anchor="start" x="2083.6" y="-937" font-family="Arial" font-size="14.00">quotePartyIdInfoExtensionId </text>
<text text-anchor="start" x="2263.38" y="-937" font-family="Arial" font-size="14.00" fill="#666666">[bigint unsigned]</text>
<polygon fill="none" stroke="black" points="2076.6,-894 2076.6,-924.8 2835.41,-924.8 2835.41,-894 2076.6,-894"/>
<text text-anchor="start" x="2083.6" y="-906.2" font-family="Arial" font-size="14.00">quotePartyId </text>
<text text-anchor="start" x="2166.87" y="-906.2" font-family="Arial" font-size="14.00" fill="#666666">[bigint unsigned]</text>
<text text-anchor="start" x="2268.84" y="-906.2" font-family="Arial" font-size="14.00"> quotePartyId: a common id between the tables quotePartyIdInfoExtension and quoteParty</text>
</g>
<!-- quotePartyIdInfoExtension&#45;&gt;quoteParty -->
<g id="edge3" class="edge">
<title>quotePartyIdInfoExtension:quotePartyId&#45;&gt;quoteParty:quotePartyId</title>
<path fill="none" stroke="black" d="M2065.58,-906.49C2054.6,-897.55 2066.56,-869.89 2076.6,-850.8 2091.26,-822.91 2119.73,-837.54 2134.3,-809.6 2154.27,-771.29 2178.5,-712.4 2135.3,-712.4"/>
<polygon fill="black" stroke="black" points="2065.67,-906.52 2074.02,-913.63 2070.79,-908.01 2074.95,-909.21 2074.95,-909.21 2074.95,-909.21 2070.79,-908.01 2076.53,-904.98 2065.67,-906.52"/>
<text text-anchor="start" x="2082.6" y="-919.4" font-family="Arial" font-size="10.00">FOREIGN KEY (quotePartyId) REFERENCES quoteParty (quotePartyId)</text>
</g>
</g>
</svg>
