<?xml version="1.0" encoding="UTF-8" standalone="no"?>
<!DOCTYPE svg PUBLIC "-//W3C//DTD SVG 1.1//EN"
 "http://www.w3.org/Graphics/SVG/1.1/DTD/svg11.dtd">
<!-- Generated by graphviz version 12.1.2 (20240928.0832)
 -->
<!-- Title: quoteResponse Pages: 1 -->
<svg width="1736pt" height="1530pt"
 viewBox="0.00 0.00 1736.40 1530.00" xmlns="http://www.w3.org/2000/svg" xmlns:xlink="http://www.w3.org/1999/xlink">
<g id="graph0" class="graph" transform="scale(1 1) rotate(0) translate(4 1526)">
<title>quoteResponse</title>
<polygon fill="white" stroke="none" points="-4,4 -4,-1526 1732.4,-1526 1732.4,4 -4,4"/>
<!-- quoteResponse -->
<g id="node1" class="node">
<title>quoteResponse</title>
<polygon fill="#efefef" stroke="none" points="686.55,-1066.6 686.55,-1102.2 983.77,-1102.2 983.77,-1066.6 686.55,-1066.6"/>
<polygon fill="none" stroke="black" points="686.55,-1066.6 686.55,-1102.2 983.77,-1102.2 983.77,-1066.6 686.55,-1066.6"/>
<text text-anchor="start" x="718.42" y="-1080" font-family="Arial Bold" font-size="18.00">quoteResponse</text>
<text text-anchor="start" x="827.41" y="-1080" font-family="Arial" font-size="14.00">    </text>
<text text-anchor="start" x="858.53" y="-1080" font-family="Arial" font-size="14.00" fill="#666666">[BASE TABLE]</text>
<polygon fill="none" stroke="black" points="686.55,-1035.8 686.55,-1066.6 983.77,-1066.6 983.77,-1035.8 686.55,-1035.8"/>
<text text-anchor="start" x="693.55" y="-1048" font-family="Arial" font-size="14.00">quoteResponseId </text>
<text text-anchor="start" x="807.19" y="-1048" font-family="Arial" font-size="14.00" fill="#666666">[bigint unsigned]</text>
<polygon fill="none" stroke="black" points="686.55,-1005 686.55,-1035.8 983.77,-1035.8 983.77,-1005 686.55,-1005"/>
<text text-anchor="start" x="693.55" y="-1017.2" font-family="Arial" font-size="14.00">quoteId </text>
<text text-anchor="start" x="744.15" y="-1017.2" font-family="Arial" font-size="14.00" fill="#666666">[varchar(36)]</text>
<polygon fill="none" stroke="black" points="686.55,-974.2 686.55,-1005 983.77,-1005 983.77,-974.2 686.55,-974.2"/>
<text text-anchor="start" x="693.55" y="-986.4" font-family="Arial" font-size="14.00">transferAmountCurrencyId </text>
<text text-anchor="start" x="861.62" y="-986.4" font-family="Arial" font-size="14.00" fill="#666666">[varchar(3)]</text>
<polygon fill="none" stroke="black" points="686.55,-943.4 686.55,-974.2 983.77,-974.2 983.77,-943.4 686.55,-943.4"/>
<text text-anchor="start" x="693.55" y="-955.6" font-family="Arial" font-size="14.00">transferAmount </text>
<text text-anchor="start" x="793.15" y="-955.6" font-family="Arial" font-size="14.00" fill="#666666">[decimal(18,4)]</text>
<polygon fill="none" stroke="black" points="686.55,-912.6 686.55,-943.4 983.77,-943.4 983.77,-912.6 686.55,-912.6"/>
<text text-anchor="start" x="693.55" y="-924.8" font-family="Arial" font-size="14.00">payeeReceiveAmountCurrencyId </text>
<text text-anchor="start" x="902.88" y="-924.8" font-family="Arial" font-size="14.00" fill="#666666">[varchar(3)]</text>
<polygon fill="none" stroke="black" points="686.55,-881.8 686.55,-912.6 983.77,-912.6 983.77,-881.8 686.55,-881.8"/>
<text text-anchor="start" x="693.55" y="-894" font-family="Arial" font-size="14.00">payeeReceiveAmount </text>
<text text-anchor="start" x="834.41" y="-894" font-family="Arial" font-size="14.00" fill="#666666">[decimal(18,4)]</text>
<polygon fill="none" stroke="black" points="686.55,-851 686.55,-881.8 983.77,-881.8 983.77,-851 686.55,-851"/>
<text text-anchor="start" x="693.55" y="-863.2" font-family="Arial" font-size="14.00">payeeFspFeeCurrencyId </text>
<text text-anchor="start" x="851.51" y="-863.2" font-family="Arial" font-size="14.00" fill="#666666">[varchar(3)]</text>
<polygon fill="none" stroke="black" points="686.55,-820.2 686.55,-851 983.77,-851 983.77,-820.2 686.55,-820.2"/>
<text text-anchor="start" x="693.55" y="-832.4" font-family="Arial" font-size="14.00">payeeFspFeeAmount </text>
<text text-anchor="start" x="831.29" y="-832.4" font-family="Arial" font-size="14.00" fill="#666666">[decimal(18,4)]</text>
<polygon fill="none" stroke="black" points="686.55,-789.4 686.55,-820.2 983.77,-820.2 983.77,-789.4 686.55,-789.4"/>
<text text-anchor="start" x="693.55" y="-801.6" font-family="Arial" font-size="14.00">payeeFspCommissionCurrencyId </text>
<text text-anchor="start" x="904.4" y="-801.6" font-family="Arial" font-size="14.00" fill="#666666">[varchar(3)]</text>
<polygon fill="none" stroke="black" points="686.55,-758.6 686.55,-789.4 983.77,-789.4 983.77,-758.6 686.55,-758.6"/>
<text text-anchor="start" x="693.55" y="-770.8" font-family="Arial" font-size="14.00">payeeFspCommissionAmount </text>
<text text-anchor="start" x="884.18" y="-770.8" font-family="Arial" font-size="14.00" fill="#666666">[decimal(18,4)]</text>
<polygon fill="none" stroke="black" points="686.55,-727.8 686.55,-758.6 983.77,-758.6 983.77,-727.8 686.55,-727.8"/>
<text text-anchor="start" x="693.55" y="-740" font-family="Arial" font-size="14.00">ilpCondition </text>
<text text-anchor="start" x="770.6" y="-740" font-family="Arial" font-size="14.00" fill="#666666">[varchar(256)]</text>
<polygon fill="none" stroke="black" points="686.55,-697 686.55,-727.8 983.77,-727.8 983.77,-697 686.55,-697"/>
<text text-anchor="start" x="693.55" y="-709.2" font-family="Arial" font-size="14.00">responseExpirationDate </text>
<text text-anchor="start" x="846.86" y="-709.2" font-family="Arial" font-size="14.00" fill="#666666">[datetime]</text>
<polygon fill="none" stroke="black" points="686.55,-666.2 686.55,-697 983.77,-697 983.77,-666.2 686.55,-666.2"/>
<text text-anchor="start" x="693.55" y="-678.4" font-family="Arial" font-size="14.00">isValid </text>
<text text-anchor="start" x="738.68" y="-678.4" font-family="Arial" font-size="14.00" fill="#666666">[tinyint(1)]</text>
<polygon fill="none" stroke="black" points="686.55,-635.4 686.55,-666.2 983.77,-666.2 983.77,-635.4 686.55,-635.4"/>
<text text-anchor="start" x="693.55" y="-647.6" font-family="Arial" font-size="14.00">createdDate </text>
<text text-anchor="start" x="773.71" y="-647.6" font-family="Arial" font-size="14.00" fill="#666666">[datetime]</text>
<polygon fill="none" stroke="black" stroke-width="3" points="685.05,-633.9 685.05,-1103.7 985.27,-1103.7 985.27,-633.9 685.05,-633.9"/>
</g>
<!-- quote -->
<g id="node6" class="node">
<title>quote</title>
<polygon fill="#efefef" stroke="none" points="368.41,-474.4 368.41,-510 629.91,-510 629.91,-474.4 368.41,-474.4"/>
<polygon fill="none" stroke="black" points="368.41,-474.4 368.41,-510 629.91,-510 629.91,-474.4 368.41,-474.4"/>
<text text-anchor="start" x="416.92" y="-487.8" font-family="Arial Bold" font-size="18.00">quote</text>
<text text-anchor="start" x="456.91" y="-487.8" font-family="Arial" font-size="14.00">    </text>
<text text-anchor="start" x="488.03" y="-487.8" font-family="Arial" font-size="14.00" fill="#666666">[BASE TABLE]</text>
<polygon fill="none" stroke="black" points="368.41,-443.6 368.41,-474.4 629.91,-474.4 629.91,-443.6 368.41,-443.6"/>
<text text-anchor="start" x="375.41" y="-455.8" font-family="Arial" font-size="14.00">quoteId </text>
<text text-anchor="start" x="426.01" y="-455.8" font-family="Arial" font-size="14.00" fill="#666666">[varchar(36)]</text>
<polygon fill="none" stroke="black" points="368.41,-412.8 368.41,-443.6 629.91,-443.6 629.91,-412.8 368.41,-412.8"/>
<text text-anchor="start" x="375.41" y="-425" font-family="Arial" font-size="14.00">transactionReferenceId </text>
<text text-anchor="start" x="524.05" y="-425" font-family="Arial" font-size="14.00" fill="#666666">[varchar(36)]</text>
<polygon fill="none" stroke="black" points="368.41,-382 368.41,-412.8 629.91,-412.8 629.91,-382 368.41,-382"/>
<text text-anchor="start" x="375.41" y="-394.2" font-family="Arial" font-size="14.00">transactionRequestId </text>
<text text-anchor="start" x="511.61" y="-394.2" font-family="Arial" font-size="14.00" fill="#666666">[varchar(36)]</text>
<polygon fill="none" stroke="black" points="368.41,-351.2 368.41,-382 629.91,-382 629.91,-351.2 368.41,-351.2"/>
<text text-anchor="start" x="375.41" y="-363.4" font-family="Arial" font-size="14.00">note </text>
<text text-anchor="start" x="406.55" y="-363.4" font-family="Arial" font-size="14.00" fill="#666666">[text]</text>
<polygon fill="none" stroke="black" points="368.41,-320.4 368.41,-351.2 629.91,-351.2 629.91,-320.4 368.41,-320.4"/>
<text text-anchor="start" x="375.41" y="-332.6" font-family="Arial" font-size="14.00">expirationDate </text>
<text text-anchor="start" x="469.58" y="-332.6" font-family="Arial" font-size="14.00" fill="#666666">[datetime]</text>
<polygon fill="none" stroke="black" points="368.41,-289.6 368.41,-320.4 629.91,-320.4 629.91,-289.6 368.41,-289.6"/>
<text text-anchor="start" x="375.41" y="-301.8" font-family="Arial" font-size="14.00">transactionInitiatorId </text>
<text text-anchor="start" x="505.37" y="-301.8" font-family="Arial" font-size="14.00" fill="#666666">[int unsigned]</text>
<polygon fill="none" stroke="black" points="368.41,-258.8 368.41,-289.6 629.91,-289.6 629.91,-258.8 368.41,-258.8"/>
<text text-anchor="start" x="375.41" y="-271" font-family="Arial" font-size="14.00">transactionInitiatorTypeId </text>
<text text-anchor="start" x="536.5" y="-271" font-family="Arial" font-size="14.00" fill="#666666">[int unsigned]</text>
<polygon fill="none" stroke="black" points="368.41,-228 368.41,-258.8 629.91,-258.8 629.91,-228 368.41,-228"/>
<text text-anchor="start" x="375.41" y="-240.2" font-family="Arial" font-size="14.00">transactionScenarioId </text>
<text text-anchor="start" x="514.72" y="-240.2" font-family="Arial" font-size="14.00" fill="#666666">[int unsigned]</text>
<polygon fill="none" stroke="black" points="368.41,-197.2 368.41,-228 629.91,-228 629.91,-197.2 368.41,-197.2"/>
<text text-anchor="start" x="375.41" y="-209.4" font-family="Arial" font-size="14.00">balanceOfPaymentsId </text>
<text text-anchor="start" x="517.05" y="-209.4" font-family="Arial" font-size="14.00" fill="#666666">[int unsigned]</text>
<polygon fill="none" stroke="black" points="368.41,-166.4 368.41,-197.2 629.91,-197.2 629.91,-166.4 368.41,-166.4"/>
<text text-anchor="start" x="375.41" y="-178.6" font-family="Arial" font-size="14.00">transactionSubScenarioId </text>
<text text-anchor="start" x="539.63" y="-178.6" font-family="Arial" font-size="14.00" fill="#666666">[int unsigned]</text>
<polygon fill="none" stroke="black" points="368.41,-135.6 368.41,-166.4 629.91,-166.4 629.91,-135.6 368.41,-135.6"/>
<text text-anchor="start" x="375.41" y="-147.8" font-family="Arial" font-size="14.00">amountTypeId </text>
<text text-anchor="start" x="468.8" y="-147.8" font-family="Arial" font-size="14.00" fill="#666666">[int unsigned]</text>
<polygon fill="none" stroke="black" points="368.41,-104.8 368.41,-135.6 629.91,-135.6 629.91,-104.8 368.41,-104.8"/>
<text text-anchor="start" x="375.41" y="-117" font-family="Arial" font-size="14.00">amount </text>
<text text-anchor="start" x="426" y="-117" font-family="Arial" font-size="14.00" fill="#666666">[decimal(18,4)]</text>
<polygon fill="none" stroke="black" points="368.41,-74 368.41,-104.8 629.91,-104.8 629.91,-74 368.41,-74"/>
<text text-anchor="start" x="375.41" y="-86.2" font-family="Arial" font-size="14.00">currencyId </text>
<text text-anchor="start" x="444.66" y="-86.2" font-family="Arial" font-size="14.00" fill="#666666">[varchar(255)]</text>
<polygon fill="none" stroke="black" points="368.41,-43.2 368.41,-74 629.91,-74 629.91,-43.2 368.41,-43.2"/>
<text text-anchor="start" x="375.41" y="-55.4" font-family="Arial" font-size="14.00">createdDate </text>
<text text-anchor="start" x="455.57" y="-55.4" font-family="Arial" font-size="14.00" fill="#666666">[datetime]</text>
</g>
<!-- quoteResponse&#45;&gt;quote -->
<g id="edge5" class="edge">
<title>quoteResponse:quoteId&#45;&gt;quote:quoteId</title>
<path fill="none" stroke="black" d="M675.34,-1018.98C571.41,-987.99 752.58,-459 630.91,-459"/>
<polygon fill="black" stroke="black" points="675.31,-1018.98 684.6,-1024.81 680.6,-1019.71 684.89,-1020.31 684.89,-1020.31 684.89,-1020.31 680.6,-1019.71 685.84,-1015.9 675.31,-1018.98"/>
<text text-anchor="start" x="425.67" y="-1030.4" font-family="Arial" font-size="10.00">FOREIGN KEY (quoteId) REFERENCES quote (quoteId)</text>
</g>
<!-- currency -->
<g id="node7" class="node">
<title>currency</title>
<polygon fill="#efefef" stroke="none" points="734.44,-335.8 734.44,-371.4 935.88,-371.4 935.88,-335.8 734.44,-335.8"/>
<polygon fill="none" stroke="black" points="734.44,-335.8 734.44,-371.4 935.88,-371.4 935.88,-335.8 734.44,-335.8"/>
<text text-anchor="start" x="741.44" y="-349.2" font-family="Arial Bold" font-size="18.00">currency</text>
<text text-anchor="start" x="804.39" y="-349.2" font-family="Arial" font-size="14.00">    </text>
<text text-anchor="start" x="835.51" y="-349.2" font-family="Arial" font-size="14.00" fill="#666666">[BASE TABLE]</text>
<polygon fill="none" stroke="black" points="734.44,-305 734.44,-335.8 935.88,-335.8 935.88,-305 734.44,-305"/>
<text text-anchor="start" x="741.44" y="-317.2" font-family="Arial" font-size="14.00">currencyId </text>
<text text-anchor="start" x="810.69" y="-317.2" font-family="Arial" font-size="14.00" fill="#666666">[varchar(3)]</text>
<polygon fill="none" stroke="black" points="734.44,-274.2 734.44,-305 935.88,-305 935.88,-274.2 734.44,-274.2"/>
<text text-anchor="start" x="741.44" y="-286.4" font-family="Arial" font-size="14.00">name </text>
<text text-anchor="start" x="780.35" y="-286.4" font-family="Arial" font-size="14.00" fill="#666666">[varchar(128)]</text>
<polygon fill="none" stroke="black" points="734.44,-243.4 734.44,-274.2 935.88,-274.2 935.88,-243.4 734.44,-243.4"/>
<text text-anchor="start" x="741.44" y="-255.6" font-family="Arial" font-size="14.00">isActive </text>
<text text-anchor="start" x="793.56" y="-255.6" font-family="Arial" font-size="14.00" fill="#666666">[tinyint(1)]</text>
<polygon fill="none" stroke="black" points="734.44,-212.6 734.44,-243.4 935.88,-243.4 935.88,-212.6 734.44,-212.6"/>
<text text-anchor="start" x="741.44" y="-224.8" font-family="Arial" font-size="14.00">createdDate </text>
<text text-anchor="start" x="821.6" y="-224.8" font-family="Arial" font-size="14.00" fill="#666666">[datetime]</text>
<polygon fill="none" stroke="black" points="734.44,-181.8 734.44,-212.6 935.88,-212.6 935.88,-181.8 734.44,-181.8"/>
<text text-anchor="start" x="741.44" y="-194" font-family="Arial" font-size="14.00">scale </text>
<text text-anchor="start" x="778.01" y="-194" font-family="Arial" font-size="14.00" fill="#666666">[int unsigned]</text>
</g>
<!-- quoteResponse&#45;&gt;currency -->
<g id="edge6" class="edge">
<title>quoteResponse:transferAmountCurrencyId&#45;&gt;currency:currencyId</title>
<path fill="none" stroke="black" d="M995.11,-989.33C1281.8,-974.01 1231.57,-320.4 936.88,-320.4"/>
<polygon fill="black" stroke="black" points="995.11,-989.33 984.99,-985.09 989.77,-989.47 985.44,-989.58 985.44,-989.58 985.44,-989.58 989.77,-989.47 985.23,-994.09 995.11,-989.33"/>
<text text-anchor="start" x="991.77" y="-999.6" font-family="Arial" font-size="10.00">FOREIGN KEY (transferAmountCurrencyId) REFERENCES currency (currencyId)</text>
</g>
<!-- quoteResponse&#45;&gt;currency -->
<g id="edge7" class="edge">
<title>quoteResponse:payeeReceiveAmountCurrencyId&#45;&gt;currency:currencyId</title>
<path fill="none" stroke="black" d="M994.94,-927.71C1254.4,-912.67 1204.33,-320.4 936.88,-320.4"/>
<polygon fill="black" stroke="black" points="995.1,-927.7 984.98,-923.49 989.77,-927.86 985.44,-927.98 985.44,-927.98 985.44,-927.98 989.77,-927.86 985.24,-932.49 995.1,-927.7"/>
<text text-anchor="start" x="991.77" y="-938" font-family="Arial" font-size="10.00">FOREIGN KEY (payeeReceiveAmountCurrencyId) REFERENCES currency (currencyId)</text>
</g>
<!-- quoteResponse&#45;&gt;currency -->
<g id="edge8" class="edge">
<title>quoteResponse:payeeFspCommissionCurrencyId&#45;&gt;currency:currencyId</title>
<path fill="none" stroke="black" d="M995.03,-804.43C1199.53,-789.32 1149.74,-320.4 936.88,-320.4"/>
<polygon fill="black" stroke="black" points="995.1,-804.42 984.94,-800.29 989.77,-804.62 985.44,-804.78 985.44,-804.78 985.44,-804.78 989.77,-804.62 985.27,-809.28 995.1,-804.42"/>
<text text-anchor="start" x="991.77" y="-814.8" font-family="Arial" font-size="10.00">FOREIGN KEY (payeeFspCommissionCurrencyId) REFERENCES currency (currencyId)</text>
</g>
<!-- quoteError -->
<g id="node2" class="node">
<title>quoteError</title>
<polygon fill="#efefef" stroke="none" points="171.36,-1427.8 171.36,-1463.4 400.96,-1463.4 400.96,-1427.8 171.36,-1427.8"/>
<polygon fill="none" stroke="black" points="171.36,-1427.8 171.36,-1463.4 400.96,-1463.4 400.96,-1427.8 171.36,-1427.8"/>
<text text-anchor="start" x="184.93" y="-1441.2" font-family="Arial Bold" font-size="18.00">quoteError</text>
<text text-anchor="start" x="262.9" y="-1441.2" font-family="Arial" font-size="14.00">    </text>
<text text-anchor="start" x="294.02" y="-1441.2" font-family="Arial" font-size="14.00" fill="#666666">[BASE TABLE]</text>
<polygon fill="none" stroke="black" points="171.36,-1397 171.36,-1427.8 400.96,-1427.8 400.96,-1397 171.36,-1397"/>
<text text-anchor="start" x="178.36" y="-1409.2" font-family="Arial" font-size="14.00">quoteErrorId </text>
<text text-anchor="start" x="260.07" y="-1409.2" font-family="Arial" font-size="14.00" fill="#666666">[bigint unsigned]</text>
<polygon fill="none" stroke="black" points="171.36,-1366.2 171.36,-1397 400.96,-1397 400.96,-1366.2 171.36,-1366.2"/>
<text text-anchor="start" x="178.36" y="-1378.4" font-family="Arial" font-size="14.00">quoteId </text>
<text text-anchor="start" x="228.96" y="-1378.4" font-family="Arial" font-size="14.00" fill="#666666">[varchar(36)]</text>
<polygon fill="none" stroke="black" points="171.36,-1335.4 171.36,-1366.2 400.96,-1366.2 400.96,-1335.4 171.36,-1335.4"/>
<text text-anchor="start" x="178.36" y="-1347.6" font-family="Arial" font-size="14.00">quoteResponseId </text>
<text text-anchor="start" x="292" y="-1347.6" font-family="Arial" font-size="14.00" fill="#666666">[bigint unsigned]</text>
<polygon fill="none" stroke="black" points="171.36,-1304.6 171.36,-1335.4 400.96,-1335.4 400.96,-1304.6 171.36,-1304.6"/>
<text text-anchor="start" x="178.36" y="-1316.8" font-family="Arial" font-size="14.00">errorCode </text>
<text text-anchor="start" x="245.28" y="-1316.8" font-family="Arial" font-size="14.00" fill="#666666">[int unsigned]</text>
<polygon fill="none" stroke="black" points="171.36,-1273.8 171.36,-1304.6 400.96,-1304.6 400.96,-1273.8 171.36,-1273.8"/>
<text text-anchor="start" x="178.36" y="-1286" font-family="Arial" font-size="14.00">errorDescription </text>
<text text-anchor="start" x="281.83" y="-1286" font-family="Arial" font-size="14.00" fill="#666666">[varchar(128)]</text>
<polygon fill="none" stroke="black" points="171.36,-1243 171.36,-1273.8 400.96,-1273.8 400.96,-1243 171.36,-1243"/>
<text text-anchor="start" x="178.36" y="-1255.2" font-family="Arial" font-size="14.00">createdDate </text>
<text text-anchor="start" x="258.52" y="-1255.2" font-family="Arial" font-size="14.00" fill="#666666">[datetime]</text>
</g>
<!-- quoteError&#45;&gt;quoteResponse -->
<g id="edge1" class="edge">
<title>quoteError:quoteResponseId&#45;&gt;quoteResponse:quoteResponseId</title>
<path fill="none" stroke="black" d="M412.24,-1350.06C472.36,-1340.56 407.2,-1241.89 453.16,-1184.4 527.5,-1091.42 566.5,-1051.2 685.55,-1051.2"/>
<polygon fill="black" stroke="black" points="412.27,-1350.06 401.97,-1346.29 406.95,-1350.44 402.63,-1350.75 402.63,-1350.75 402.63,-1350.75 406.95,-1350.44 402.62,-1355.26 412.27,-1350.06"/>
<text text-anchor="start" x="7" y="-1360.8" font-family="Arial" font-size="10.00">FOREIGN KEY (quoteResponseId) REFERENCES quoteResponse (quoteResponseId)</text>
</g>
<!-- quoteExtension -->
<g id="node3" class="node">
<title>quoteExtension</title>
<polygon fill="#efefef" stroke="none" points="504.93,-1443.2 504.93,-1478.8 755.4,-1478.8 755.4,-1443.2 504.93,-1443.2"/>
<polygon fill="none" stroke="black" points="504.93,-1443.2 504.93,-1478.8 755.4,-1478.8 755.4,-1443.2 504.93,-1443.2"/>
<text text-anchor="start" x="511.93" y="-1456.6" font-family="Arial Bold" font-size="18.00">quoteExtension</text>
<text text-anchor="start" x="623.91" y="-1456.6" font-family="Arial" font-size="14.00">    </text>
<text text-anchor="start" x="655.02" y="-1456.6" font-family="Arial" font-size="14.00" fill="#666666">[BASE TABLE]</text>
<polygon fill="none" stroke="black" points="504.93,-1412.4 504.93,-1443.2 755.4,-1443.2 755.4,-1412.4 504.93,-1412.4"/>
<text text-anchor="start" x="511.93" y="-1424.6" font-family="Arial" font-size="14.00">quoteExtensionId </text>
<text text-anchor="start" x="624.01" y="-1424.6" font-family="Arial" font-size="14.00" fill="#666666">[bigint unsigned]</text>
<polygon fill="none" stroke="black" points="504.93,-1381.6 504.93,-1412.4 755.4,-1412.4 755.4,-1381.6 504.93,-1381.6"/>
<text text-anchor="start" x="511.93" y="-1393.8" font-family="Arial" font-size="14.00">quoteId </text>
<text text-anchor="start" x="562.53" y="-1393.8" font-family="Arial" font-size="14.00" fill="#666666">[varchar(36)]</text>
<polygon fill="none" stroke="black" points="504.93,-1350.8 504.93,-1381.6 755.4,-1381.6 755.4,-1350.8 504.93,-1350.8"/>
<text text-anchor="start" x="511.93" y="-1363" font-family="Arial" font-size="14.00">quoteResponseId </text>
<text text-anchor="start" x="625.57" y="-1363" font-family="Arial" font-size="14.00" fill="#666666">[bigint unsigned]</text>
<polygon fill="none" stroke="black" points="504.93,-1320 504.93,-1350.8 755.4,-1350.8 755.4,-1320 504.93,-1320"/>
<text text-anchor="start" x="511.93" y="-1332.2" font-family="Arial" font-size="14.00">transactionId </text>
<text text-anchor="start" x="595.97" y="-1332.2" font-family="Arial" font-size="14.00" fill="#666666">[varchar(36)]</text>
<polygon fill="none" stroke="black" points="504.93,-1289.2 504.93,-1320 755.4,-1320 755.4,-1289.2 504.93,-1289.2"/>
<text text-anchor="start" x="511.93" y="-1301.4" font-family="Arial" font-size="14.00">key </text>
<text text-anchor="start" x="537.6" y="-1301.4" font-family="Arial" font-size="14.00" fill="#666666">[varchar(128)]</text>
<polygon fill="none" stroke="black" points="504.93,-1258.4 504.93,-1289.2 755.4,-1289.2 755.4,-1258.4 504.93,-1258.4"/>
<text text-anchor="start" x="511.93" y="-1270.6" font-family="Arial" font-size="14.00">value </text>
<text text-anchor="start" x="549.28" y="-1270.6" font-family="Arial" font-size="14.00" fill="#666666">[text]</text>
<polygon fill="none" stroke="black" points="504.93,-1227.6 504.93,-1258.4 755.4,-1258.4 755.4,-1227.6 504.93,-1227.6"/>
<text text-anchor="start" x="511.93" y="-1239.8" font-family="Arial" font-size="14.00">createdDate </text>
<text text-anchor="start" x="592.08" y="-1239.8" font-family="Arial" font-size="14.00" fill="#666666">[datetime]</text>
</g>
<!-- quoteExtension&#45;&gt;quoteResponse -->
<g id="edge2" class="edge">
<title>quoteExtension:quoteResponseId&#45;&gt;quoteResponse:quoteResponseId</title>
<path fill="none" stroke="black" d="M766.57,-1365.53C833.62,-1356.15 795.55,-1250.3 755.4,-1184.4 737.43,-1154.91 704.59,-1177.84 686.55,-1148.4 663.98,-1111.56 642.35,-1051.2 685.55,-1051.2"/>
<polygon fill="black" stroke="black" points="766.71,-1365.52 756.43,-1361.69 761.39,-1365.87 757.06,-1366.16 757.06,-1366.16 757.06,-1366.16 761.39,-1365.87 757.03,-1370.67 766.71,-1365.52"/>
<text text-anchor="start" x="763.4" y="-1376.2" font-family="Arial" font-size="10.00">FOREIGN KEY (quoteResponseId) REFERENCES quoteResponse (quoteResponseId)</text>
</g>
<!-- quoteResponseDuplicateCheck -->
<g id="node4" class="node">
<title>quoteResponseDuplicateCheck</title>
<polygon fill="#efefef" stroke="none" points="859.45,-1397 859.45,-1432.6 1222.88,-1432.6 1222.88,-1397 859.45,-1397"/>
<polygon fill="none" stroke="black" points="859.45,-1397 859.45,-1432.6 1222.88,-1432.6 1222.88,-1397 859.45,-1397"/>
<text text-anchor="start" x="866.45" y="-1410.4" font-family="Arial Bold" font-size="18.00">quoteResponseDuplicateCheck</text>
<text text-anchor="start" x="1091.39" y="-1410.4" font-family="Arial" font-size="14.00">    </text>
<text text-anchor="start" x="1122.5" y="-1410.4" font-family="Arial" font-size="14.00" fill="#666666">[BASE TABLE]</text>
<polygon fill="none" stroke="black" points="859.45,-1366.2 859.45,-1397 1222.88,-1397 1222.88,-1366.2 859.45,-1366.2"/>
<text text-anchor="start" x="866.45" y="-1378.4" font-family="Arial" font-size="14.00">quoteResponseId </text>
<text text-anchor="start" x="980.09" y="-1378.4" font-family="Arial" font-size="14.00" fill="#666666">[bigint unsigned]</text>
<polygon fill="none" stroke="black" points="859.45,-1335.4 859.45,-1366.2 1222.88,-1366.2 1222.88,-1335.4 859.45,-1335.4"/>
<text text-anchor="start" x="866.45" y="-1347.6" font-family="Arial" font-size="14.00">quoteId </text>
<text text-anchor="start" x="917.05" y="-1347.6" font-family="Arial" font-size="14.00" fill="#666666">[varchar(36)]</text>
<polygon fill="none" stroke="black" points="859.45,-1304.6 859.45,-1335.4 1222.88,-1335.4 1222.88,-1304.6 859.45,-1304.6"/>
<text text-anchor="start" x="866.45" y="-1316.8" font-family="Arial" font-size="14.00">hash </text>
<text text-anchor="start" x="900.7" y="-1316.8" font-family="Arial" font-size="14.00" fill="#666666">[varchar(255)]</text>
<polygon fill="none" stroke="black" points="859.45,-1273.8 859.45,-1304.6 1222.88,-1304.6 1222.88,-1273.8 859.45,-1273.8"/>
<text text-anchor="start" x="866.45" y="-1286" font-family="Arial" font-size="14.00">createdDate </text>
<text text-anchor="start" x="946.61" y="-1286" font-family="Arial" font-size="14.00" fill="#666666">[datetime]</text>
</g>
<!-- quoteResponseDuplicateCheck&#45;&gt;quoteResponse -->
<g id="edge3" class="edge">
<title>quoteResponseDuplicateCheck:quoteResponseId&#45;&gt;quoteResponse:quoteResponseId</title>
<path fill="none" stroke="black" d="M848.35,-1380.8C795.27,-1371.64 829.22,-1286.38 859.45,-1230.6 891.01,-1172.36 952.11,-1206.58 983.77,-1148.4 1004.43,-1110.45 1027.98,-1051.2 984.77,-1051.2"/>
<polygon fill="black" stroke="black" points="848.15,-1380.78 857.76,-1386.06 853.46,-1381.2 857.78,-1381.55 857.78,-1381.55 857.78,-1381.55 853.46,-1381.2 858.47,-1377.09 848.15,-1380.78"/>
<text text-anchor="start" x="865.45" y="-1391.6" font-family="Arial" font-size="10.00">FOREIGN KEY (quoteResponseId) REFERENCES quoteResponse (quoteResponseId)</text>
</g>
<!-- quoteResponseIlpPacket -->
<g id="node5" class="node">
<title>quoteResponseIlpPacket</title>
<polygon fill="#efefef" stroke="none" points="1327.44,-1366.2 1327.44,-1401.8 1642.89,-1401.8 1642.89,-1366.2 1327.44,-1366.2"/>
<polygon fill="none" stroke="black" points="1327.44,-1366.2 1327.44,-1401.8 1642.89,-1401.8 1642.89,-1366.2 1327.44,-1366.2"/>
<text text-anchor="start" x="1334.44" y="-1379.6" font-family="Arial Bold" font-size="18.00">quoteResponseIlpPacket</text>
<text text-anchor="start" x="1511.4" y="-1379.6" font-family="Arial" font-size="14.00">    </text>
<text text-anchor="start" x="1542.51" y="-1379.6" font-family="Arial" font-size="14.00" fill="#666666">[BASE TABLE]</text>
<polygon fill="none" stroke="black" points="1327.44,-1335.4 1327.44,-1366.2 1642.89,-1366.2 1642.89,-1335.4 1327.44,-1335.4"/>
<text text-anchor="start" x="1334.44" y="-1347.6" font-family="Arial" font-size="14.00">quoteResponseId </text>
<text text-anchor="start" x="1448.08" y="-1347.6" font-family="Arial" font-size="14.00" fill="#666666">[bigint unsigned]</text>
<polygon fill="none" stroke="black" points="1327.44,-1304.6 1327.44,-1335.4 1642.89,-1335.4 1642.89,-1304.6 1327.44,-1304.6"/>
<text text-anchor="start" x="1334.44" y="-1316.8" font-family="Arial" font-size="14.00">value </text>
<text text-anchor="start" x="1371.8" y="-1316.8" font-family="Arial" font-size="14.00" fill="#666666">[text]</text>
</g>
<!-- quoteResponseIlpPacket&#45;&gt;quoteResponse -->
<g id="edge4" class="edge">
<title>quoteResponseIlpPacket:quoteResponseId&#45;&gt;quoteResponse:quoteResponseId</title>
<path fill="none" stroke="black" d="M1316.17,-1350.04C1256.28,-1340.35 1323.69,-1239.75 1275.16,-1184.4 1181.55,-1077.63 1126.76,-1051.2 984.77,-1051.2"/>
<polygon fill="black" stroke="black" points="1316.13,-1350.04 1325.77,-1355.26 1321.45,-1350.43 1325.77,-1350.75 1325.77,-1350.75 1325.77,-1350.75 1321.45,-1350.43 1326.43,-1346.29 1316.13,-1350.04"/>
<text text-anchor="start" x="1333.44" y="-1360.8" font-family="Arial" font-size="10.00">FOREIGN KEY (quoteResponseId) REFERENCES quoteResponse (quoteResponseId)</text>
</g>
</g>
</svg>
