<?xml version="1.0" encoding="UTF-8" standalone="no"?>
<!DOCTYPE svg PUBLIC "-//W3C//DTD SVG 1.1//EN"
 "http://www.w3.org/Graphics/SVG/1.1/DTD/svg11.dtd">
<!-- Generated by graphviz version 12.1.2 (20240928.0832)
 -->
<!-- Title: quoteResponse Pages: 1 -->
<svg width="2670pt" height="1017pt"
 viewBox="0.00 0.00 2669.94 1016.80" xmlns="http://www.w3.org/2000/svg" xmlns:xlink="http://www.w3.org/1999/xlink">
<g id="graph0" class="graph" transform="scale(1 1) rotate(0) translate(4 1012.8)">
<title>quoteResponse</title>
<polygon fill="white" stroke="none" points="-4,4 -4,-1012.8 2665.94,-1012.8 2665.94,4 -4,4"/>
<!-- quoteResponse -->
<g id="node1" class="node">
<title>quoteResponse</title>
<polygon fill="#efefef" stroke="none" points="1151.2,-635.4 1151.2,-681.4 1786.2,-681.4 1786.2,-635.4 1151.2,-635.4"/>
<polygon fill="none" stroke="black" points="1151.2,-635.4 1151.2,-681.4 1786.2,-681.4 1786.2,-635.4 1151.2,-635.4"/>
<text text-anchor="start" x="1351.96" y="-659.2" font-family="Arial Bold" font-size="18.00">quoteResponse</text>
<text text-anchor="start" x="1460.95" y="-659.2" font-family="Arial" font-size="14.00">    </text>
<text text-anchor="start" x="1492.06" y="-659.2" font-family="Arial" font-size="14.00" fill="#666666">[BASE TABLE]</text>
<text text-anchor="start" x="1313.07" y="-644.8" font-family="Arial" font-size="14.00" fill="#333333">This table is the primary store for quote responses</text>
<polygon fill="none" stroke="black" points="1151.2,-604.6 1151.2,-635.4 1786.2,-635.4 1786.2,-604.6 1151.2,-604.6"/>
<text text-anchor="start" x="1158.2" y="-616.8" font-family="Arial" font-size="14.00">quoteResponseId </text>
<text text-anchor="start" x="1271.84" y="-616.8" font-family="Arial" font-size="14.00" fill="#666666">[bigint unsigned]</text>
<polygon fill="none" stroke="black" points="1151.2,-573.8 1151.2,-604.6 1786.2,-604.6 1786.2,-573.8 1151.2,-573.8"/>
<text text-anchor="start" x="1158.2" y="-586" font-family="Arial" font-size="14.00">quoteId </text>
<text text-anchor="start" x="1208.8" y="-586" font-family="Arial" font-size="14.00" fill="#666666">[varchar(36)]</text>
<text text-anchor="start" x="1288.16" y="-586" font-family="Arial" font-size="14.00"> Common ID between the FSPs for the quote object, decided by the Payer FSP</text>
<polygon fill="none" stroke="black" points="1151.2,-543 1151.2,-573.8 1786.2,-573.8 1786.2,-543 1151.2,-543"/>
<text text-anchor="start" x="1158.2" y="-555.2" font-family="Arial" font-size="14.00">transferAmountCurrencyId </text>
<text text-anchor="start" x="1326.27" y="-555.2" font-family="Arial" font-size="14.00" fill="#666666">[varchar(3)]</text>
<text text-anchor="start" x="1397.84" y="-555.2" font-family="Arial" font-size="14.00"> CurrencyId of the transfer amount</text>
<polygon fill="none" stroke="black" points="1151.2,-512.2 1151.2,-543 1786.2,-543 1786.2,-512.2 1151.2,-512.2"/>
<text text-anchor="start" x="1158.2" y="-524.4" font-family="Arial" font-size="14.00">payeeReceiveAmountCurrencyId </text>
<text text-anchor="start" x="1367.53" y="-524.4" font-family="Arial" font-size="14.00" fill="#666666">[varchar(3)]</text>
<text text-anchor="start" x="1439.1" y="-524.4" font-family="Arial" font-size="14.00"> CurrencyId of the payee receive amount</text>
<polygon fill="none" stroke="black" points="1151.2,-481.4 1151.2,-512.2 1786.2,-512.2 1786.2,-481.4 1151.2,-481.4"/>
<text text-anchor="start" x="1158.2" y="-493.6" font-family="Arial" font-size="14.00">payeeFspCommissionCurrencyId </text>
<text text-anchor="start" x="1369.05" y="-493.6" font-family="Arial" font-size="14.00" fill="#666666">[varchar(3)]</text>
<text text-anchor="start" x="1440.63" y="-493.6" font-family="Arial" font-size="14.00"> CurrencyId of the payee fsp commission amount</text>
<polygon fill="none" stroke="black" stroke-width="3" points="1149.7,-479.9 1149.7,-682.9 1787.7,-682.9 1787.7,-479.9 1149.7,-479.9"/>
</g>
<!-- quote -->
<g id="node6" class="node">
<title>quote</title>
<polygon fill="#efefef" stroke="none" points="451.89,-320.4 451.89,-356 1263.5,-356 1263.5,-320.4 451.89,-320.4"/>
<polygon fill="none" stroke="black" points="451.89,-320.4 451.89,-356 1263.5,-356 1263.5,-320.4 451.89,-320.4"/>
<text text-anchor="start" x="775.46" y="-333.8" font-family="Arial Bold" font-size="18.00">quote</text>
<text text-anchor="start" x="815.45" y="-333.8" font-family="Arial" font-size="14.00">    </text>
<text text-anchor="start" x="846.57" y="-333.8" font-family="Arial" font-size="14.00" fill="#666666">[BASE TABLE]</text>
<polygon fill="none" stroke="black" points="451.89,-289.6 451.89,-320.4 1263.5,-320.4 1263.5,-289.6 451.89,-289.6"/>
<text text-anchor="start" x="458.89" y="-301.8" font-family="Arial" font-size="14.00">quoteId </text>
<text text-anchor="start" x="509.49" y="-301.8" font-family="Arial" font-size="14.00" fill="#666666">[varchar(36)]</text>
<polygon fill="none" stroke="black" points="451.89,-258.8 451.89,-289.6 1263.5,-289.6 1263.5,-258.8 451.89,-258.8"/>
<text text-anchor="start" x="458.89" y="-271" font-family="Arial" font-size="14.00">transactionReferenceId </text>
<text text-anchor="start" x="607.53" y="-271" font-family="Arial" font-size="14.00" fill="#666666">[varchar(36)]</text>
<text text-anchor="start" x="686.89" y="-271" font-family="Arial" font-size="14.00"> Common ID (decided by the Payer FSP) between the FSPs for the future transaction object</text>
<polygon fill="none" stroke="black" points="451.89,-228 451.89,-258.8 1263.5,-258.8 1263.5,-228 451.89,-228"/>
<text text-anchor="start" x="458.89" y="-240.2" font-family="Arial" font-size="14.00">transactionInitiatorId </text>
<text text-anchor="start" x="588.85" y="-240.2" font-family="Arial" font-size="14.00" fill="#666666">[int unsigned]</text>
<text text-anchor="start" x="672.13" y="-240.2" font-family="Arial" font-size="14.00"> This is part of the transaction initiator</text>
<polygon fill="none" stroke="black" points="451.89,-197.2 451.89,-228 1263.5,-228 1263.5,-197.2 451.89,-197.2"/>
<text text-anchor="start" x="458.89" y="-209.4" font-family="Arial" font-size="14.00">transactionInitiatorTypeId </text>
<text text-anchor="start" x="619.98" y="-209.4" font-family="Arial" font-size="14.00" fill="#666666">[int unsigned]</text>
<text text-anchor="start" x="703.26" y="-209.4" font-family="Arial" font-size="14.00"> This is part of the transaction initiator type</text>
<polygon fill="none" stroke="black" points="451.89,-166.4 451.89,-197.2 1263.5,-197.2 1263.5,-166.4 451.89,-166.4"/>
<text text-anchor="start" x="458.89" y="-178.6" font-family="Arial" font-size="14.00">transactionScenarioId </text>
<text text-anchor="start" x="598.2" y="-178.6" font-family="Arial" font-size="14.00" fill="#666666">[int unsigned]</text>
<text text-anchor="start" x="681.48" y="-178.6" font-family="Arial" font-size="14.00"> This is part of the transaction scenario</text>
<polygon fill="none" stroke="black" points="451.89,-135.6 451.89,-166.4 1263.5,-166.4 1263.5,-135.6 451.89,-135.6"/>
<text text-anchor="start" x="458.89" y="-147.8" font-family="Arial" font-size="14.00">balanceOfPaymentsId </text>
<text text-anchor="start" x="600.53" y="-147.8" font-family="Arial" font-size="14.00" fill="#666666">[int unsigned]</text>
<text text-anchor="start" x="683.81" y="-147.8" font-family="Arial" font-size="14.00"> This is part of the transaction type that contains the elements&#45; balance of payment</text>
<polygon fill="none" stroke="black" points="451.89,-104.8 451.89,-135.6 1263.5,-135.6 1263.5,-104.8 451.89,-104.8"/>
<text text-anchor="start" x="458.89" y="-117" font-family="Arial" font-size="14.00">transactionSubScenarioId </text>
<text text-anchor="start" x="623.11" y="-117" font-family="Arial" font-size="14.00" fill="#666666">[int unsigned]</text>
<text text-anchor="start" x="706.39" y="-117" font-family="Arial" font-size="14.00"> This is part of the transaction type sub scenario as defined by the local scheme</text>
<polygon fill="none" stroke="black" points="451.89,-74 451.89,-104.8 1263.5,-104.8 1263.5,-74 451.89,-74"/>
<text text-anchor="start" x="458.89" y="-86.2" font-family="Arial" font-size="14.00">amountTypeId </text>
<text text-anchor="start" x="552.28" y="-86.2" font-family="Arial" font-size="14.00" fill="#666666">[int unsigned]</text>
<text text-anchor="start" x="635.56" y="-86.2" font-family="Arial" font-size="14.00"> This is part of the transaction type that contains valid elements for &#45; Amount Type</text>
<polygon fill="none" stroke="black" points="451.89,-43.2 451.89,-74 1263.5,-74 1263.5,-43.2 451.89,-43.2"/>
<text text-anchor="start" x="458.89" y="-55.4" font-family="Arial" font-size="14.00">currencyId </text>
<text text-anchor="start" x="528.14" y="-55.4" font-family="Arial" font-size="14.00" fill="#666666">[varchar(255)]</text>
<text text-anchor="start" x="615.29" y="-55.4" font-family="Arial" font-size="14.00"> Trading currency pertaining to the Amount</text>
</g>
<!-- quoteResponse&#45;&gt;quote -->
<g id="edge5" class="edge">
<title>quoteResponse:quoteId&#45;&gt;quote:quoteId</title>
<path fill="none" stroke="black" d="M1139.83,-588.34C1084.95,-578.52 1112.9,-487.35 1151.2,-435.2 1182.23,-392.96 1232.39,-441.38 1263.5,-399.2 1288.36,-365.51 1306.37,-305 1264.5,-305"/>
<polygon fill="black" stroke="black" points="1139.9,-588.34 1149.49,-593.66 1145.22,-588.79 1149.53,-589.14 1149.53,-589.14 1149.53,-589.14 1145.22,-588.79 1150.24,-584.69 1139.9,-588.34"/>
<text text-anchor="start" x="890.32" y="-599.2" font-family="Arial" font-size="10.00">FOREIGN KEY (quoteId) REFERENCES quote (quoteId)</text>
</g>
<!-- currency -->
<g id="node7" class="node">
<title>currency</title>
<polygon fill="#efefef" stroke="none" points="1367.98,-197.2 1367.98,-232.8 1569.42,-232.8 1569.42,-197.2 1367.98,-197.2"/>
<polygon fill="none" stroke="black" points="1367.98,-197.2 1367.98,-232.8 1569.42,-232.8 1569.42,-197.2 1367.98,-197.2"/>
<text text-anchor="start" x="1374.98" y="-210.6" font-family="Arial Bold" font-size="18.00">currency</text>
<text text-anchor="start" x="1437.93" y="-210.6" font-family="Arial" font-size="14.00">    </text>
<text text-anchor="start" x="1469.05" y="-210.6" font-family="Arial" font-size="14.00" fill="#666666">[BASE TABLE]</text>
<polygon fill="none" stroke="black" points="1367.98,-166.4 1367.98,-197.2 1569.42,-197.2 1569.42,-166.4 1367.98,-166.4"/>
<text text-anchor="start" x="1374.98" y="-178.6" font-family="Arial" font-size="14.00">currencyId </text>
<text text-anchor="start" x="1444.22" y="-178.6" font-family="Arial" font-size="14.00" fill="#666666">[varchar(3)]</text>
</g>
<!-- quoteResponse&#45;&gt;currency -->
<g id="edge6" class="edge">
<title>quoteResponse:transferAmountCurrencyId&#45;&gt;currency:currencyId</title>
<path fill="none" stroke="black" d="M1797.53,-558.02C1972.29,-544.55 1759.96,-181.8 1570.42,-181.8"/>
<polygon fill="black" stroke="black" points="1797.52,-558.02 1787.36,-553.89 1792.19,-558.21 1787.87,-558.38 1787.87,-558.38 1787.87,-558.38 1792.19,-558.21 1787.7,-562.88 1797.52,-558.02"/>
<text text-anchor="start" x="1794.2" y="-568.4" font-family="Arial" font-size="10.00">FOREIGN KEY (transferAmountCurrencyId) REFERENCES currency (currencyId)</text>
</g>
<!-- quoteResponse&#45;&gt;currency -->
<g id="edge7" class="edge">
<title>quoteResponse:payeeReceiveAmountCurrencyId&#45;&gt;currency:currencyId</title>
<path fill="none" stroke="black" d="M1797.37,-527.21C1960.13,-514.22 1748.27,-181.8 1570.42,-181.8"/>
<polygon fill="black" stroke="black" points="1797.52,-527.2 1787.36,-523.09 1792.19,-527.41 1787.87,-527.57 1787.87,-527.57 1787.87,-527.57 1792.19,-527.41 1787.7,-532.08 1797.52,-527.2"/>
<text text-anchor="start" x="1794.2" y="-537.6" font-family="Arial" font-size="10.00">FOREIGN KEY (payeeReceiveAmountCurrencyId) REFERENCES currency (currencyId)</text>
</g>
<!-- quoteResponse&#45;&gt;currency -->
<g id="edge8" class="edge">
<title>quoteResponse:payeeFspCommissionCurrencyId&#45;&gt;currency:currencyId</title>
<path fill="none" stroke="black" d="M1469.12,-470.1C1480.28,-332.56 1707.2,-181.8 1570.42,-181.8"/>
<polygon fill="black" stroke="black" points="1469.12,-470.07 1464.22,-479.88 1468.9,-475.4 1468.73,-479.73 1468.73,-479.73 1468.73,-479.73 1468.9,-475.4 1473.21,-480.25 1469.12,-470.07"/>
<text text-anchor="start" x="1067.71" y="-490.4" font-family="Arial" font-size="10.00">FOREIGN KEY (payeeFspCommissionCurrencyId) REFERENCES currency (currencyId)</text>
</g>
<!-- quoteError -->
<g id="node2" class="node">
<title>quoteError</title>
<polygon fill="#efefef" stroke="none" points="43.2,-914.6 43.2,-950.2 678.2,-950.2 678.2,-914.6 43.2,-914.6"/>
<polygon fill="none" stroke="black" points="43.2,-914.6 43.2,-950.2 678.2,-950.2 678.2,-914.6 43.2,-914.6"/>
<text text-anchor="start" x="259.47" y="-928" font-family="Arial Bold" font-size="18.00">quoteError</text>
<text text-anchor="start" x="337.44" y="-928" font-family="Arial" font-size="14.00">    </text>
<text text-anchor="start" x="368.55" y="-928" font-family="Arial" font-size="14.00" fill="#666666">[BASE TABLE]</text>
<polygon fill="none" stroke="black" points="43.2,-883.8 43.2,-914.6 678.2,-914.6 678.2,-883.8 43.2,-883.8"/>
<text text-anchor="start" x="50.2" y="-896" font-family="Arial" font-size="14.00">quoteErrorId </text>
<text text-anchor="start" x="131.91" y="-896" font-family="Arial" font-size="14.00" fill="#666666">[bigint unsigned]</text>
<polygon fill="none" stroke="black" points="43.2,-853 43.2,-883.8 678.2,-883.8 678.2,-853 43.2,-853"/>
<text text-anchor="start" x="50.2" y="-865.2" font-family="Arial" font-size="14.00">quoteId </text>
<text text-anchor="start" x="100.8" y="-865.2" font-family="Arial" font-size="14.00" fill="#666666">[varchar(36)]</text>
<text text-anchor="start" x="180.16" y="-865.2" font-family="Arial" font-size="14.00"> Common ID between the FSPs for the quote object, decided by the Payer FSP</text>
<polygon fill="none" stroke="black" points="43.2,-822.2 43.2,-853 678.2,-853 678.2,-822.2 43.2,-822.2"/>
<text text-anchor="start" x="50.2" y="-834.4" font-family="Arial" font-size="14.00">quoteResponseId </text>
<text text-anchor="start" x="163.84" y="-834.4" font-family="Arial" font-size="14.00" fill="#666666">[bigint unsigned]</text>
<text text-anchor="start" x="265.81" y="-834.4" font-family="Arial" font-size="14.00"> The response to the intial quote</text>
</g>
<!-- quoteError&#45;&gt;quoteResponse -->
<g id="edge1" class="edge">
<title>quoteError:quoteResponseId&#45;&gt;quoteResponse:quoteResponseId</title>
<path fill="none" stroke="black" d="M689.23,-836.24C715.42,-828.1 701.11,-785.36 729.7,-763.6 886.85,-644 952.71,-620 1150.2,-620"/>
<polygon fill="black" stroke="black" points="689.44,-836.21 678.93,-833.1 684.15,-836.93 679.86,-837.51 679.86,-837.51 679.86,-837.51 684.15,-836.93 680.13,-842.01 689.44,-836.21"/>
<text text-anchor="start" x="485.22" y="-821.6" font-family="Arial" font-size="10.00">FOREIGN KEY (quoteResponseId) REFERENCES quoteResponse (quoteResponseId)</text>
</g>
<!-- quoteExtension -->
<g id="node3" class="node">
<title>quoteExtension</title>
<polygon fill="#efefef" stroke="none" points="782.2,-930 782.2,-965.6 1417.2,-965.6 1417.2,-930 782.2,-930"/>
<polygon fill="none" stroke="black" points="782.2,-930 782.2,-965.6 1417.2,-965.6 1417.2,-930 782.2,-930"/>
<text text-anchor="start" x="981.46" y="-943.4" font-family="Arial Bold" font-size="18.00">quoteExtension</text>
<text text-anchor="start" x="1093.44" y="-943.4" font-family="Arial" font-size="14.00">    </text>
<text text-anchor="start" x="1124.56" y="-943.4" font-family="Arial" font-size="14.00" fill="#666666">[BASE TABLE]</text>
<polygon fill="none" stroke="black" points="782.2,-899.2 782.2,-930 1417.2,-930 1417.2,-899.2 782.2,-899.2"/>
<text text-anchor="start" x="789.2" y="-911.4" font-family="Arial" font-size="14.00">quoteExtensionId </text>
<text text-anchor="start" x="901.28" y="-911.4" font-family="Arial" font-size="14.00" fill="#666666">[bigint unsigned]</text>
<polygon fill="none" stroke="black" points="782.2,-868.4 782.2,-899.2 1417.2,-899.2 1417.2,-868.4 782.2,-868.4"/>
<text text-anchor="start" x="789.2" y="-880.6" font-family="Arial" font-size="14.00">quoteId </text>
<text text-anchor="start" x="839.8" y="-880.6" font-family="Arial" font-size="14.00" fill="#666666">[varchar(36)]</text>
<text text-anchor="start" x="919.16" y="-880.6" font-family="Arial" font-size="14.00"> Common ID between the FSPs for the quote object, decided by the Payer FSP</text>
<polygon fill="none" stroke="black" points="782.2,-837.6 782.2,-868.4 1417.2,-868.4 1417.2,-837.6 782.2,-837.6"/>
<text text-anchor="start" x="789.2" y="-849.8" font-family="Arial" font-size="14.00">quoteResponseId </text>
<text text-anchor="start" x="902.84" y="-849.8" font-family="Arial" font-size="14.00" fill="#666666">[bigint unsigned]</text>
<polygon fill="none" stroke="black" points="782.2,-806.8 782.2,-837.6 1417.2,-837.6 1417.2,-806.8 782.2,-806.8"/>
<text text-anchor="start" x="789.2" y="-819" font-family="Arial" font-size="14.00">transactionId </text>
<text text-anchor="start" x="873.25" y="-819" font-family="Arial" font-size="14.00" fill="#666666">[varchar(36)]</text>
<text text-anchor="start" x="952.61" y="-819" font-family="Arial" font-size="14.00"> The transaction reference that is part of the initial quote</text>
</g>
<!-- quoteExtension&#45;&gt;quoteResponse -->
<g id="edge2" class="edge">
<title>quoteExtension:quoteResponseId&#45;&gt;quoteResponse:quoteResponseId</title>
<path fill="none" stroke="black" d="M1428.33,-851.38C1455,-841.64 1440.94,-790.47 1417.2,-763.6 1338.2,-674.2 1230.11,-817.07 1151.2,-727.6 1119.57,-691.73 1102.38,-620 1150.2,-620"/>
<polygon fill="black" stroke="black" points="1428.4,-851.37 1417.82,-848.5 1423.13,-852.21 1418.86,-852.89 1418.86,-852.89 1418.86,-852.89 1423.13,-852.21 1419.24,-857.39 1428.4,-851.37"/>
<text text-anchor="start" x="1425.2" y="-863" font-family="Arial" font-size="10.00">FOREIGN KEY (quoteResponseId) REFERENCES quoteResponse (quoteResponseId)</text>
</g>
<!-- quoteResponseDuplicateCheck -->
<g id="node4" class="node">
<title>quoteResponseDuplicateCheck</title>
<polygon fill="#efefef" stroke="none" points="1521.2,-899.2 1521.2,-934.8 2156.2,-934.8 2156.2,-899.2 1521.2,-899.2"/>
<polygon fill="none" stroke="black" points="1521.2,-899.2 1521.2,-934.8 2156.2,-934.8 2156.2,-899.2 1521.2,-899.2"/>
<text text-anchor="start" x="1663.98" y="-912.6" font-family="Arial Bold" font-size="18.00">quoteResponseDuplicateCheck</text>
<text text-anchor="start" x="1888.92" y="-912.6" font-family="Arial" font-size="14.00">    </text>
<text text-anchor="start" x="1920.04" y="-912.6" font-family="Arial" font-size="14.00" fill="#666666">[BASE TABLE]</text>
<polygon fill="none" stroke="black" points="1521.2,-868.4 1521.2,-899.2 2156.2,-899.2 2156.2,-868.4 1521.2,-868.4"/>
<text text-anchor="start" x="1528.2" y="-880.6" font-family="Arial" font-size="14.00">quoteResponseId </text>
<text text-anchor="start" x="1641.84" y="-880.6" font-family="Arial" font-size="14.00" fill="#666666">[bigint unsigned]</text>
<text text-anchor="start" x="1743.81" y="-880.6" font-family="Arial" font-size="14.00"> The response to the intial quote</text>
<polygon fill="none" stroke="black" points="1521.2,-837.6 1521.2,-868.4 2156.2,-868.4 2156.2,-837.6 1521.2,-837.6"/>
<text text-anchor="start" x="1528.2" y="-849.8" font-family="Arial" font-size="14.00">quoteId </text>
<text text-anchor="start" x="1578.8" y="-849.8" font-family="Arial" font-size="14.00" fill="#666666">[varchar(36)]</text>
<text text-anchor="start" x="1658.16" y="-849.8" font-family="Arial" font-size="14.00"> Common ID between the FSPs for the quote object, decided by the Payer FSP</text>
</g>
<!-- quoteResponseDuplicateCheck&#45;&gt;quoteResponse -->
<g id="edge3" class="edge">
<title>quoteResponseDuplicateCheck:quoteResponseId&#45;&gt;quoteResponse:quoteResponseId</title>
<path fill="none" stroke="black" d="M1510.11,-882.21C1483.7,-872.69 1499,-822.56 1521.2,-794.4 1596.39,-699.01 1711.1,-823.06 1786.2,-727.6 1815.77,-690.01 1835.02,-620 1787.2,-620"/>
<polygon fill="black" stroke="black" points="1509.99,-882.2 1519.17,-888.19 1515.26,-883.02 1519.54,-883.7 1519.54,-883.7 1519.54,-883.7 1515.26,-883.02 1520.57,-879.3 1509.99,-882.2"/>
<text text-anchor="start" x="1527.2" y="-893.8" font-family="Arial" font-size="10.00">FOREIGN KEY (quoteResponseId) REFERENCES quoteResponse (quoteResponseId)</text>
</g>
<!-- quoteResponseIlpPacket -->
<g id="node5" class="node">
<title>quoteResponseIlpPacket</title>
<polygon fill="#efefef" stroke="none" points="2260.97,-883.8 2260.97,-919.4 2576.42,-919.4 2576.42,-883.8 2260.97,-883.8"/>
<polygon fill="none" stroke="black" points="2260.97,-883.8 2260.97,-919.4 2576.42,-919.4 2576.42,-883.8 2260.97,-883.8"/>
<text text-anchor="start" x="2267.97" y="-897.2" font-family="Arial Bold" font-size="18.00">quoteResponseIlpPacket</text>
<text text-anchor="start" x="2444.93" y="-897.2" font-family="Arial" font-size="14.00">    </text>
<text text-anchor="start" x="2476.05" y="-897.2" font-family="Arial" font-size="14.00" fill="#666666">[BASE TABLE]</text>
<polygon fill="none" stroke="black" points="2260.97,-853 2260.97,-883.8 2576.42,-883.8 2576.42,-853 2260.97,-853"/>
<text text-anchor="start" x="2267.97" y="-865.2" font-family="Arial" font-size="14.00">quoteResponseId </text>
<text text-anchor="start" x="2381.62" y="-865.2" font-family="Arial" font-size="14.00" fill="#666666">[bigint unsigned]</text>
</g>
<!-- quoteResponseIlpPacket&#45;&gt;quoteResponse -->
<g id="edge4" class="edge">
<title>quoteResponseIlpPacket:quoteResponseId&#45;&gt;quoteResponse:quoteResponseId</title>
<path fill="none" stroke="black" d="M2249.87,-867.28C2213.55,-858.13 2244.72,-795.33 2208.7,-763.6 2060.18,-632.8 1985.1,-620 1787.2,-620"/>
<polygon fill="black" stroke="black" points="2249.7,-867.26 2259.15,-872.84 2255,-867.85 2259.31,-868.33 2259.31,-868.33 2259.31,-868.33 2255,-867.85 2260.14,-863.89 2249.7,-867.26"/>
<text text-anchor="start" x="2266.97" y="-878.4" font-family="Arial" font-size="10.00">FOREIGN KEY (quoteResponseId) REFERENCES quoteResponse (quoteResponseId)</text>
</g>
</g>
</svg>
