<?xml version="1.0" encoding="UTF-8" standalone="no"?>
<!DOCTYPE svg PUBLIC "-//W3C//DTD SVG 1.1//EN"
 "http://www.w3.org/Graphics/SVG/1.1/DTD/svg11.dtd">
<!-- Generated by graphviz version 12.1.2 (20240928.0832)
 -->
<!-- Title: quoteView Pages: 1 -->
<svg width="354pt" height="536pt"
 viewBox="0.00 0.00 354.08 536.40" xmlns="http://www.w3.org/2000/svg" xmlns:xlink="http://www.w3.org/1999/xlink">
<g id="graph0" class="graph" transform="scale(1 1) rotate(0) translate(4 532.4)">
<title>quoteView</title>
<polygon fill="white" stroke="none" points="-4,4 -4,-532.4 350.08,-532.4 350.08,4 -4,4"/>
<!-- quoteView -->
<g id="node1" class="node">
<title>quoteView</title>
<polygon fill="#efefef" stroke="none" points="46.2,-446.6 46.2,-482.2 299.88,-482.2 299.88,-446.6 46.2,-446.6"/>
<polygon fill="none" stroke="black" points="46.2,-446.6 46.2,-482.2 299.88,-482.2 299.88,-446.6 46.2,-446.6"/>
<text text-anchor="start" x="96.21" y="-460" font-family="Arial Bold" font-size="18.00">quoteView</text>
<text text-anchor="start" x="175.19" y="-460" font-family="Arial" font-size="14.00">    </text>
<text text-anchor="start" x="206.31" y="-460" font-family="Arial" font-size="14.00" fill="#666666">[VIEW]</text>
<polygon fill="none" stroke="black" points="46.2,-415.8 46.2,-446.6 299.88,-446.6 299.88,-415.8 46.2,-415.8"/>
<text text-anchor="start" x="53.2" y="-428" font-family="Arial" font-size="14.00">quoteId </text>
<text text-anchor="start" x="103.8" y="-428" font-family="Arial" font-size="14.00" fill="#666666">[varchar(36)]</text>
<polygon fill="none" stroke="black" points="46.2,-385 46.2,-415.8 299.88,-415.8 299.88,-385 46.2,-385"/>
<text text-anchor="start" x="53.2" y="-397.2" font-family="Arial" font-size="14.00">transactionReferenceId </text>
<text text-anchor="start" x="201.84" y="-397.2" font-family="Arial" font-size="14.00" fill="#666666">[varchar(36)]</text>
<polygon fill="none" stroke="black" points="46.2,-354.2 46.2,-385 299.88,-385 299.88,-354.2 46.2,-354.2"/>
<text text-anchor="start" x="53.2" y="-366.4" font-family="Arial" font-size="14.00">transactionRequestId </text>
<text text-anchor="start" x="189.39" y="-366.4" font-family="Arial" font-size="14.00" fill="#666666">[varchar(36)]</text>
<polygon fill="none" stroke="black" points="46.2,-323.4 46.2,-354.2 299.88,-354.2 299.88,-323.4 46.2,-323.4"/>
<text text-anchor="start" x="53.2" y="-335.6" font-family="Arial" font-size="14.00">note </text>
<text text-anchor="start" x="84.34" y="-335.6" font-family="Arial" font-size="14.00" fill="#666666">[text]</text>
<polygon fill="none" stroke="black" points="46.2,-292.6 46.2,-323.4 299.88,-323.4 299.88,-292.6 46.2,-292.6"/>
<text text-anchor="start" x="53.2" y="-304.8" font-family="Arial" font-size="14.00">expirationDate </text>
<text text-anchor="start" x="147.37" y="-304.8" font-family="Arial" font-size="14.00" fill="#666666">[datetime]</text>
<polygon fill="none" stroke="black" points="46.2,-261.8 46.2,-292.6 299.88,-292.6 299.88,-261.8 46.2,-261.8"/>
<text text-anchor="start" x="53.2" y="-274" font-family="Arial" font-size="14.00">transactionInitiator </text>
<text text-anchor="start" x="171.48" y="-274" font-family="Arial" font-size="14.00" fill="#666666">[varchar(256)]</text>
<polygon fill="none" stroke="black" points="46.2,-231 46.2,-261.8 299.88,-261.8 299.88,-231 46.2,-231"/>
<text text-anchor="start" x="53.2" y="-243.2" font-family="Arial" font-size="14.00">transactionInitiatorType </text>
<text text-anchor="start" x="202.61" y="-243.2" font-family="Arial" font-size="14.00" fill="#666666">[varchar(256)]</text>
<polygon fill="none" stroke="black" points="46.2,-200.2 46.2,-231 299.88,-231 299.88,-200.2 46.2,-200.2"/>
<text text-anchor="start" x="53.2" y="-212.4" font-family="Arial" font-size="14.00">transactionScenario </text>
<text text-anchor="start" x="180.83" y="-212.4" font-family="Arial" font-size="14.00" fill="#666666">[varchar(256)]</text>
<polygon fill="none" stroke="black" points="46.2,-169.4 46.2,-200.2 299.88,-200.2 299.88,-169.4 46.2,-169.4"/>
<text text-anchor="start" x="53.2" y="-181.6" font-family="Arial" font-size="14.00">balanceOfPaymentsId </text>
<text text-anchor="start" x="194.83" y="-181.6" font-family="Arial" font-size="14.00" fill="#666666">[int unsigned]</text>
<polygon fill="none" stroke="black" points="46.2,-138.6 46.2,-169.4 299.88,-169.4 299.88,-138.6 46.2,-138.6"/>
<text text-anchor="start" x="53.2" y="-150.8" font-family="Arial" font-size="14.00">transactionSubScenario </text>
<text text-anchor="start" x="205.74" y="-150.8" font-family="Arial" font-size="14.00" fill="#666666">[varchar(256)]</text>
<polygon fill="none" stroke="black" points="46.2,-107.8 46.2,-138.6 299.88,-138.6 299.88,-107.8 46.2,-107.8"/>
<text text-anchor="start" x="53.2" y="-120" font-family="Arial" font-size="14.00">amountType </text>
<text text-anchor="start" x="134.91" y="-120" font-family="Arial" font-size="14.00" fill="#666666">[varchar(256)]</text>
<polygon fill="none" stroke="black" points="46.2,-77 46.2,-107.8 299.88,-107.8 299.88,-77 46.2,-77"/>
<text text-anchor="start" x="53.2" y="-89.2" font-family="Arial" font-size="14.00">amount </text>
<text text-anchor="start" x="103.79" y="-89.2" font-family="Arial" font-size="14.00" fill="#666666">[decimal(18,4)]</text>
<polygon fill="none" stroke="black" points="46.2,-46.2 46.2,-77 299.88,-77 299.88,-46.2 46.2,-46.2"/>
<text text-anchor="start" x="53.2" y="-58.4" font-family="Arial" font-size="14.00">currency </text>
<text text-anchor="start" x="110.77" y="-58.4" font-family="Arial" font-size="14.00" fill="#666666">[varchar(255)]</text>
<polygon fill="none" stroke="black" stroke-width="3" points="44.7,-44.7 44.7,-483.7 301.38,-483.7 301.38,-44.7 44.7,-44.7"/>
</g>
</g>
</svg>
