<?xml version="1.0" encoding="UTF-8" standalone="no"?>
<!DOCTYPE svg PUBLIC "-//W3C//DTD SVG 1.1//EN"
 "http://www.w3.org/Graphics/SVG/1.1/DTD/svg11.dtd">
<!-- Generated by graphviz version 12.1.2 (20240928.0832)
 -->
<!-- Title: quoteDuplicateCheck Pages: 1 -->
<svg width="906pt" height="393pt"
 viewBox="0.00 0.00 906.01 393.27" xmlns="http://www.w3.org/2000/svg" xmlns:xlink="http://www.w3.org/1999/xlink">
<g id="graph0" class="graph" transform="scale(1 1) rotate(0) translate(4 389.27)">
<title>quoteDuplicateCheck</title>
<polygon fill="white" stroke="none" points="-4,4 -4,-389.27 902.01,-389.27 902.01,4 -4,4"/>
<!-- quoteDuplicateCheck -->
<g id="node1" class="node">
<title>quoteDuplicateCheck</title>
<polygon fill="#efefef" stroke="none" points="131.51,-83.87 131.51,-119.47 766.5,-119.47 766.5,-83.87 131.51,-83.87"/>
<polygon fill="none" stroke="black" points="131.51,-83.87 131.51,-119.47 766.5,-119.47 766.5,-83.87 131.51,-83.87"/>
<text text-anchor="start" x="308.79" y="-97.27" font-family="Arial Bold" font-size="18.00">quoteDuplicateCheck</text>
<text text-anchor="start" x="464.73" y="-97.27" font-family="Arial" font-size="14.00">    </text>
<text text-anchor="start" x="495.85" y="-97.27" font-family="Arial" font-size="14.00" fill="#666666">[BASE TABLE]</text>
<polygon fill="none" stroke="black" points="131.51,-53.07 131.51,-83.87 766.5,-83.87 766.5,-53.07 131.51,-53.07"/>
<text text-anchor="start" x="138.51" y="-65.27" font-family="Arial" font-size="14.00">quoteId </text>
<text text-anchor="start" x="189.11" y="-65.27" font-family="Arial" font-size="14.00" fill="#666666">[varchar(36)]</text>
<text text-anchor="start" x="268.46" y="-65.27" font-family="Arial" font-size="14.00"> Common ID between the FSPs for the quote object, decided by the Payer FSP</text>
<polygon fill="none" stroke="black" stroke-width="3" points="130.01,-51.57 130.01,-120.97 768,-120.97 768,-51.57 130.01,-51.57"/>
</g>
<!-- transactionReference -->
<g id="node2" class="node">
<title>transactionReference</title>
<polygon fill="#efefef" stroke="none" points="43.2,-306.47 43.2,-342.07 854.81,-342.07 854.81,-306.47 43.2,-306.47"/>
<polygon fill="none" stroke="black" points="43.2,-306.47 43.2,-342.07 854.81,-342.07 854.81,-306.47 43.2,-306.47"/>
<text text-anchor="start" x="310.81" y="-319.87" font-family="Arial Bold" font-size="18.00">transactionReference</text>
<text text-anchor="start" x="462.72" y="-319.87" font-family="Arial" font-size="14.00">    </text>
<text text-anchor="start" x="493.83" y="-319.87" font-family="Arial" font-size="14.00" fill="#666666">[BASE TABLE]</text>
<polygon fill="none" stroke="black" points="43.2,-275.67 43.2,-306.47 854.81,-306.47 854.81,-275.67 43.2,-275.67"/>
<text text-anchor="start" x="50.2" y="-287.87" font-family="Arial" font-size="14.00">transactionReferenceId </text>
<text text-anchor="start" x="198.84" y="-287.87" font-family="Arial" font-size="14.00" fill="#666666">[varchar(36)]</text>
<text text-anchor="start" x="278.2" y="-287.87" font-family="Arial" font-size="14.00"> Common ID (decided by the Payer FSP) between the FSPs for the future transaction object</text>
<polygon fill="none" stroke="black" points="43.2,-244.87 43.2,-275.67 854.81,-275.67 854.81,-244.87 43.2,-244.87"/>
<text text-anchor="start" x="50.2" y="-257.07" font-family="Arial" font-size="14.00">quoteId </text>
<text text-anchor="start" x="100.8" y="-257.07" font-family="Arial" font-size="14.00" fill="#666666">[varchar(36)]</text>
<text text-anchor="start" x="180.16" y="-257.07" font-family="Arial" font-size="14.00"> Common ID between the FSPs for the quote object, decided by the Payer FSP</text>
</g>
<!-- transactionReference&#45;&gt;quoteDuplicateCheck -->
<g id="edge1" class="edge">
<title>transactionReference:quoteId&#45;&gt;quoteDuplicateCheck:quoteId</title>
<path fill="none" stroke="black" d="M449.36,-233.73C460.1,-87.64 711.04,-291.52 812.7,-165.67 844.15,-126.74 848.04,-88.5 812.7,-53.07 755.63,4.16 449.01,28.75 449.01,-52.07"/>
<polygon fill="black" stroke="black" points="449.37,-233.54 444.52,-243.38 449.18,-238.87 449.03,-243.2 449.03,-243.2 449.03,-243.2 449.18,-238.87 453.51,-243.69 449.37,-233.54"/>
<text text-anchor="start" x="119.1" y="-227.87" font-family="Arial" font-size="10.00">FOREIGN KEY (quoteId) REFERENCES quoteDuplicateCheck (quoteId)</text>
</g>
</g>
</svg>
