<?xml version="1.0" encoding="UTF-8" standalone="no"?>
<!DOCTYPE svg PUBLIC "-//W3C//DTD SVG 1.1//EN"
 "http://www.w3.org/Graphics/SVG/1.1/DTD/svg11.dtd">
<!-- Generated by graphviz version 12.1.2 (20240928.0832)
 -->
<!-- Title: quoteResponseView Pages: 1 -->
<svg width="398pt" height="660pt"
 viewBox="0.00 0.00 397.63 659.60" xmlns="http://www.w3.org/2000/svg" xmlns:xlink="http://www.w3.org/1999/xlink">
<g id="graph0" class="graph" transform="scale(1 1) rotate(0) translate(4 655.6)">
<title>quoteResponseView</title>
<polygon fill="white" stroke="none" points="-4,4 -4,-655.6 393.63,-655.6 393.63,4 -4,4"/>
<!-- quoteResponseView -->
<g id="node1" class="node">
<title>quoteResponseView</title>
<polygon fill="#efefef" stroke="none" points="46.2,-569.8 46.2,-605.4 343.43,-605.4 343.43,-569.8 46.2,-569.8"/>
<polygon fill="none" stroke="black" points="46.2,-569.8 46.2,-605.4 343.43,-605.4 343.43,-569.8 46.2,-569.8"/>
<text text-anchor="start" x="83.49" y="-583.2" font-family="Arial Bold" font-size="18.00">quoteResponseView</text>
<text text-anchor="start" x="231.46" y="-583.2" font-family="Arial" font-size="14.00">    </text>
<text text-anchor="start" x="262.58" y="-583.2" font-family="Arial" font-size="14.00" fill="#666666">[VIEW]</text>
<polygon fill="none" stroke="black" points="46.2,-539 46.2,-569.8 343.43,-569.8 343.43,-539 46.2,-539"/>
<text text-anchor="start" x="53.2" y="-551.2" font-family="Arial" font-size="14.00">quoteResponseId </text>
<text text-anchor="start" x="166.84" y="-551.2" font-family="Arial" font-size="14.00" fill="#666666">[bigint unsigned]</text>
<polygon fill="none" stroke="black" points="46.2,-508.2 46.2,-539 343.43,-539 343.43,-508.2 46.2,-508.2"/>
<text text-anchor="start" x="53.2" y="-520.4" font-family="Arial" font-size="14.00">quoteId </text>
<text text-anchor="start" x="103.8" y="-520.4" font-family="Arial" font-size="14.00" fill="#666666">[varchar(36)]</text>
<polygon fill="none" stroke="black" points="46.2,-477.4 46.2,-508.2 343.43,-508.2 343.43,-477.4 46.2,-477.4"/>
<text text-anchor="start" x="53.2" y="-489.6" font-family="Arial" font-size="14.00">transferAmountCurrencyId </text>
<text text-anchor="start" x="221.27" y="-489.6" font-family="Arial" font-size="14.00" fill="#666666">[varchar(3)]</text>
<polygon fill="none" stroke="black" points="46.2,-446.6 46.2,-477.4 343.43,-477.4 343.43,-446.6 46.2,-446.6"/>
<text text-anchor="start" x="53.2" y="-458.8" font-family="Arial" font-size="14.00">transferAmount </text>
<text text-anchor="start" x="152.8" y="-458.8" font-family="Arial" font-size="14.00" fill="#666666">[decimal(18,4)]</text>
<polygon fill="none" stroke="black" points="46.2,-415.8 46.2,-446.6 343.43,-446.6 343.43,-415.8 46.2,-415.8"/>
<text text-anchor="start" x="53.2" y="-428" font-family="Arial" font-size="14.00">payeeReceiveAmountCurrencyId </text>
<text text-anchor="start" x="262.53" y="-428" font-family="Arial" font-size="14.00" fill="#666666">[varchar(3)]</text>
<polygon fill="none" stroke="black" points="46.2,-385 46.2,-415.8 343.43,-415.8 343.43,-385 46.2,-385"/>
<text text-anchor="start" x="53.2" y="-397.2" font-family="Arial" font-size="14.00">payeeReceiveAmount </text>
<text text-anchor="start" x="194.06" y="-397.2" font-family="Arial" font-size="14.00" fill="#666666">[decimal(18,4)]</text>
<polygon fill="none" stroke="black" points="46.2,-354.2 46.2,-385 343.43,-385 343.43,-354.2 46.2,-354.2"/>
<text text-anchor="start" x="53.2" y="-366.4" font-family="Arial" font-size="14.00">payeeFspFeeCurrencyId </text>
<text text-anchor="start" x="211.16" y="-366.4" font-family="Arial" font-size="14.00" fill="#666666">[varchar(3)]</text>
<polygon fill="none" stroke="black" points="46.2,-323.4 46.2,-354.2 343.43,-354.2 343.43,-323.4 46.2,-323.4"/>
<text text-anchor="start" x="53.2" y="-335.6" font-family="Arial" font-size="14.00">payeeFspFeeAmount </text>
<text text-anchor="start" x="190.94" y="-335.6" font-family="Arial" font-size="14.00" fill="#666666">[decimal(18,4)]</text>
<polygon fill="none" stroke="black" points="46.2,-292.6 46.2,-323.4 343.43,-323.4 343.43,-292.6 46.2,-292.6"/>
<text text-anchor="start" x="53.2" y="-304.8" font-family="Arial" font-size="14.00">payeeFspCommissionCurrencyId </text>
<text text-anchor="start" x="264.05" y="-304.8" font-family="Arial" font-size="14.00" fill="#666666">[varchar(3)]</text>
<polygon fill="none" stroke="black" points="46.2,-261.8 46.2,-292.6 343.43,-292.6 343.43,-261.8 46.2,-261.8"/>
<text text-anchor="start" x="53.2" y="-274" font-family="Arial" font-size="14.00">payeeFspCommissionAmount </text>
<text text-anchor="start" x="243.83" y="-274" font-family="Arial" font-size="14.00" fill="#666666">[decimal(18,4)]</text>
<polygon fill="none" stroke="black" points="46.2,-231 46.2,-261.8 343.43,-261.8 343.43,-231 46.2,-231"/>
<text text-anchor="start" x="53.2" y="-243.2" font-family="Arial" font-size="14.00">ilpCondition </text>
<text text-anchor="start" x="130.25" y="-243.2" font-family="Arial" font-size="14.00" fill="#666666">[varchar(256)]</text>
<polygon fill="none" stroke="black" points="46.2,-200.2 46.2,-231 343.43,-231 343.43,-200.2 46.2,-200.2"/>
<text text-anchor="start" x="53.2" y="-212.4" font-family="Arial" font-size="14.00">responseExpirationDate </text>
<text text-anchor="start" x="206.51" y="-212.4" font-family="Arial" font-size="14.00" fill="#666666">[datetime]</text>
<polygon fill="none" stroke="black" points="46.2,-169.4 46.2,-200.2 343.43,-200.2 343.43,-169.4 46.2,-169.4"/>
<text text-anchor="start" x="53.2" y="-181.6" font-family="Arial" font-size="14.00">isValid </text>
<text text-anchor="start" x="98.33" y="-181.6" font-family="Arial" font-size="14.00" fill="#666666">[tinyint(1)]</text>
<polygon fill="none" stroke="black" points="46.2,-138.6 46.2,-169.4 343.43,-169.4 343.43,-138.6 46.2,-138.6"/>
<text text-anchor="start" x="53.2" y="-150.8" font-family="Arial" font-size="14.00">createdDate </text>
<text text-anchor="start" x="133.36" y="-150.8" font-family="Arial" font-size="14.00" fill="#666666">[datetime]</text>
<polygon fill="none" stroke="black" points="46.2,-107.8 46.2,-138.6 343.43,-138.6 343.43,-107.8 46.2,-107.8"/>
<text text-anchor="start" x="53.2" y="-120" font-family="Arial" font-size="14.00">ilpPacket </text>
<text text-anchor="start" x="113.9" y="-120" font-family="Arial" font-size="14.00" fill="#666666">[text]</text>
<polygon fill="none" stroke="black" points="46.2,-77 46.2,-107.8 343.43,-107.8 343.43,-77 46.2,-77"/>
<text text-anchor="start" x="53.2" y="-89.2" font-family="Arial" font-size="14.00">longitude </text>
<text text-anchor="start" x="113.92" y="-89.2" font-family="Arial" font-size="14.00" fill="#666666">[varchar(50)]</text>
<polygon fill="none" stroke="black" points="46.2,-46.2 46.2,-77 343.43,-77 343.43,-46.2 46.2,-46.2"/>
<text text-anchor="start" x="53.2" y="-58.4" font-family="Arial" font-size="14.00">latitude </text>
<text text-anchor="start" x="102.23" y="-58.4" font-family="Arial" font-size="14.00" fill="#666666">[varchar(50)]</text>
<polygon fill="none" stroke="black" stroke-width="3" points="44.7,-44.7 44.7,-606.9 344.93,-606.9 344.93,-44.7 44.7,-44.7"/>
</g>
</g>
</svg>
