<?xml version="1.0" encoding="UTF-8" standalone="no"?>
<!DOCTYPE svg PUBLIC "-//W3C//DTD SVG 1.1//EN"
 "http://www.w3.org/Graphics/SVG/1.1/DTD/svg11.dtd">
<!-- Generated by graphviz version 12.1.2 (20240928.0832)
 -->
<!-- Title: quoteDuplicateCheck Pages: 1 -->
<svg width="685pt" height="479pt"
 viewBox="0.00 0.00 684.53 478.80" xmlns="http://www.w3.org/2000/svg" xmlns:xlink="http://www.w3.org/1999/xlink">
<g id="graph0" class="graph" transform="scale(1 1) rotate(0) translate(4 474.8)">
<title>quoteDuplicateCheck</title>
<polygon fill="white" stroke="none" points="-4,4 -4,-474.8 680.53,-474.8 680.53,4 -4,4"/>
<!-- quoteDuplicateCheck -->
<g id="node1" class="node">
<title>quoteDuplicateCheck</title>
<polygon fill="#efefef" stroke="none" points="46.2,-138.6 46.2,-174.2 340.63,-174.2 340.63,-138.6 46.2,-138.6"/>
<polygon fill="none" stroke="black" points="46.2,-138.6 46.2,-174.2 340.63,-174.2 340.63,-138.6 46.2,-138.6"/>
<text text-anchor="start" x="53.2" y="-152" font-family="Arial Bold" font-size="18.00">quoteDuplicateCheck</text>
<text text-anchor="start" x="209.14" y="-152" font-family="Arial" font-size="14.00">    </text>
<text text-anchor="start" x="240.26" y="-152" font-family="Arial" font-size="14.00" fill="#666666">[BASE TABLE]</text>
<polygon fill="none" stroke="black" points="46.2,-107.8 46.2,-138.6 340.63,-138.6 340.63,-107.8 46.2,-107.8"/>
<text text-anchor="start" x="53.2" y="-120" font-family="Arial" font-size="14.00">quoteId </text>
<text text-anchor="start" x="103.8" y="-120" font-family="Arial" font-size="14.00" fill="#666666">[varchar(36)]</text>
<polygon fill="none" stroke="black" points="46.2,-77 46.2,-107.8 340.63,-107.8 340.63,-77 46.2,-77"/>
<text text-anchor="start" x="53.2" y="-89.2" font-family="Arial" font-size="14.00">hash </text>
<text text-anchor="start" x="87.45" y="-89.2" font-family="Arial" font-size="14.00" fill="#666666">[varchar(1024)]</text>
<polygon fill="none" stroke="black" points="46.2,-46.2 46.2,-77 340.63,-77 340.63,-46.2 46.2,-46.2"/>
<text text-anchor="start" x="53.2" y="-58.4" font-family="Arial" font-size="14.00">createdDate </text>
<text text-anchor="start" x="133.36" y="-58.4" font-family="Arial" font-size="14.00" fill="#666666">[datetime]</text>
<polygon fill="none" stroke="black" stroke-width="3" points="44.7,-44.7 44.7,-175.7 342.13,-175.7 342.13,-44.7 44.7,-44.7"/>
</g>
<!-- transactionReference -->
<g id="node2" class="node">
<title>transactionReference</title>
<polygon fill="#efefef" stroke="none" points="48.22,-392 48.22,-427.6 338.62,-427.6 338.62,-392 48.22,-392"/>
<polygon fill="none" stroke="black" points="48.22,-392 48.22,-427.6 338.62,-427.6 338.62,-392 48.22,-392"/>
<text text-anchor="start" x="55.22" y="-405.4" font-family="Arial Bold" font-size="18.00">transactionReference</text>
<text text-anchor="start" x="207.13" y="-405.4" font-family="Arial" font-size="14.00">    </text>
<text text-anchor="start" x="238.24" y="-405.4" font-family="Arial" font-size="14.00" fill="#666666">[BASE TABLE]</text>
<polygon fill="none" stroke="black" points="48.22,-361.2 48.22,-392 338.62,-392 338.62,-361.2 48.22,-361.2"/>
<text text-anchor="start" x="55.22" y="-373.4" font-family="Arial" font-size="14.00">transactionReferenceId </text>
<text text-anchor="start" x="203.86" y="-373.4" font-family="Arial" font-size="14.00" fill="#666666">[varchar(36)]</text>
<polygon fill="none" stroke="black" points="48.22,-330.4 48.22,-361.2 338.62,-361.2 338.62,-330.4 48.22,-330.4"/>
<text text-anchor="start" x="55.22" y="-342.6" font-family="Arial" font-size="14.00">quoteId </text>
<text text-anchor="start" x="105.82" y="-342.6" font-family="Arial" font-size="14.00" fill="#666666">[varchar(36)]</text>
<polygon fill="none" stroke="black" points="48.22,-299.6 48.22,-330.4 338.62,-330.4 338.62,-299.6 48.22,-299.6"/>
<text text-anchor="start" x="55.22" y="-311.8" font-family="Arial" font-size="14.00">createdDate </text>
<text text-anchor="start" x="135.38" y="-311.8" font-family="Arial" font-size="14.00" fill="#666666">[datetime]</text>
</g>
<!-- transactionReference&#45;&gt;quoteDuplicateCheck -->
<g id="edge1" class="edge">
<title>transactionReference:quoteId&#45;&gt;quoteDuplicateCheck:quoteId</title>
<path fill="none" stroke="black" d="M349.35,-342.65C389.11,-315.6 387.62,-123.2 341.63,-123.2"/>
<polygon fill="black" stroke="black" points="349.45,-342.62 338.55,-341.42 344.37,-344.26 340.25,-345.59 340.25,-345.59 340.25,-345.59 344.37,-344.26 341.32,-349.98 349.45,-342.62"/>
<text text-anchor="start" x="346.62" y="-355.8" font-family="Arial" font-size="10.00">FOREIGN KEY (quoteId) REFERENCES quoteDuplicateCheck (quoteId)</text>
</g>
</g>
</svg>
