<?xml version="1.0" encoding="UTF-8" standalone="no"?>
<!DOCTYPE svg PUBLIC "-//W3C//DTD SVG 1.1//EN"
 "http://www.w3.org/Graphics/SVG/1.1/DTD/svg11.dtd">
<!-- Generated by graphviz version 12.1.2 (20240928.0832)
 -->
<!-- Title: quoteParty Pages: 1 -->
<svg width="2493pt" height="1530pt"
 viewBox="0.00 0.00 2492.87 1530.00" xmlns="http://www.w3.org/2000/svg" xmlns:xlink="http://www.w3.org/1999/xlink">
<g id="graph0" class="graph" transform="scale(1 1) rotate(0) translate(4 1526)">
<title>quoteParty</title>
<polygon fill="white" stroke="none" points="-4,4 -4,-1526 2488.87,-1526 2488.87,4 -4,4"/>
<!-- quoteParty -->
<g id="node1" class="node">
<title>quoteParty</title>
<polygon fill="#efefef" stroke="none" points="1073.76,-1097.4 1073.76,-1133 1360.13,-1133 1360.13,-1097.4 1073.76,-1097.4"/>
<polygon fill="none" stroke="black" points="1073.76,-1097.4 1073.76,-1133 1360.13,-1133 1360.13,-1097.4 1073.76,-1097.4"/>
<text text-anchor="start" x="1115.71" y="-1110.8" font-family="Arial Bold" font-size="18.00">quoteParty</text>
<text text-anchor="start" x="1193.7" y="-1110.8" font-family="Arial" font-size="14.00">    </text>
<text text-anchor="start" x="1224.81" y="-1110.8" font-family="Arial" font-size="14.00" fill="#666666">[BASE TABLE]</text>
<polygon fill="none" stroke="black" points="1073.76,-1066.6 1073.76,-1097.4 1360.13,-1097.4 1360.13,-1066.6 1073.76,-1066.6"/>
<text text-anchor="start" x="1080.76" y="-1078.8" font-family="Arial" font-size="14.00">quotePartyId </text>
<text text-anchor="start" x="1164.04" y="-1078.8" font-family="Arial" font-size="14.00" fill="#666666">[bigint unsigned]</text>
<polygon fill="none" stroke="black" points="1073.76,-1035.8 1073.76,-1066.6 1360.13,-1066.6 1360.13,-1035.8 1073.76,-1035.8"/>
<text text-anchor="start" x="1080.76" y="-1048" font-family="Arial" font-size="14.00">quoteId </text>
<text text-anchor="start" x="1131.36" y="-1048" font-family="Arial" font-size="14.00" fill="#666666">[varchar(36)]</text>
<polygon fill="none" stroke="black" points="1073.76,-1005 1073.76,-1035.8 1360.13,-1035.8 1360.13,-1005 1073.76,-1005"/>
<text text-anchor="start" x="1080.76" y="-1017.2" font-family="Arial" font-size="14.00">partyTypeId </text>
<text text-anchor="start" x="1158.58" y="-1017.2" font-family="Arial" font-size="14.00" fill="#666666">[int unsigned]</text>
<polygon fill="none" stroke="black" points="1073.76,-974.2 1073.76,-1005 1360.13,-1005 1360.13,-974.2 1073.76,-974.2"/>
<text text-anchor="start" x="1080.76" y="-986.4" font-family="Arial" font-size="14.00">partyIdentifierTypeId </text>
<text text-anchor="start" x="1212.27" y="-986.4" font-family="Arial" font-size="14.00" fill="#666666">[int unsigned]</text>
<polygon fill="none" stroke="black" points="1073.76,-943.4 1073.76,-974.2 1360.13,-974.2 1360.13,-943.4 1073.76,-943.4"/>
<text text-anchor="start" x="1080.76" y="-955.6" font-family="Arial" font-size="14.00">partyIdentifierValue </text>
<text text-anchor="start" x="1205.28" y="-955.6" font-family="Arial" font-size="14.00" fill="#666666">[varchar(128)]</text>
<polygon fill="none" stroke="black" points="1073.76,-912.6 1073.76,-943.4 1360.13,-943.4 1360.13,-912.6 1073.76,-912.6"/>
<text text-anchor="start" x="1080.76" y="-924.8" font-family="Arial" font-size="14.00">partySubIdOrTypeId </text>
<text text-anchor="start" x="1210.71" y="-924.8" font-family="Arial" font-size="14.00" fill="#666666">[varchar(128)]</text>
<polygon fill="none" stroke="black" points="1073.76,-881.8 1073.76,-912.6 1360.13,-912.6 1360.13,-881.8 1073.76,-881.8"/>
<text text-anchor="start" x="1080.76" y="-894" font-family="Arial" font-size="14.00">fspId </text>
<text text-anchor="start" x="1115" y="-894" font-family="Arial" font-size="14.00" fill="#666666">[varchar(255)]</text>
<polygon fill="none" stroke="black" points="1073.76,-851 1073.76,-881.8 1360.13,-881.8 1360.13,-851 1073.76,-851"/>
<text text-anchor="start" x="1080.76" y="-863.2" font-family="Arial" font-size="14.00">participantId </text>
<text text-anchor="start" x="1160.92" y="-863.2" font-family="Arial" font-size="14.00" fill="#666666">[int unsigned]</text>
<polygon fill="none" stroke="black" points="1073.76,-820.2 1073.76,-851 1360.13,-851 1360.13,-820.2 1073.76,-820.2"/>
<text text-anchor="start" x="1080.76" y="-832.4" font-family="Arial" font-size="14.00">merchantClassificationCode </text>
<text text-anchor="start" x="1258.95" y="-832.4" font-family="Arial" font-size="14.00" fill="#666666">[varchar(4)]</text>
<polygon fill="none" stroke="black" points="1073.76,-789.4 1073.76,-820.2 1360.13,-820.2 1360.13,-789.4 1073.76,-789.4"/>
<text text-anchor="start" x="1080.76" y="-801.6" font-family="Arial" font-size="14.00">partyName </text>
<text text-anchor="start" x="1153.12" y="-801.6" font-family="Arial" font-size="14.00" fill="#666666">[varchar(128)]</text>
<polygon fill="none" stroke="black" points="1073.76,-758.6 1073.76,-789.4 1360.13,-789.4 1360.13,-758.6 1073.76,-758.6"/>
<text text-anchor="start" x="1080.76" y="-770.8" font-family="Arial" font-size="14.00">transferParticipantRoleTypeId </text>
<text text-anchor="start" x="1269.85" y="-770.8" font-family="Arial" font-size="14.00" fill="#666666">[int unsigned]</text>
<polygon fill="none" stroke="black" points="1073.76,-727.8 1073.76,-758.6 1360.13,-758.6 1360.13,-727.8 1073.76,-727.8"/>
<text text-anchor="start" x="1080.76" y="-740" font-family="Arial" font-size="14.00">ledgerEntryTypeId </text>
<text text-anchor="start" x="1199.04" y="-740" font-family="Arial" font-size="14.00" fill="#666666">[int unsigned]</text>
<polygon fill="none" stroke="black" points="1073.76,-697 1073.76,-727.8 1360.13,-727.8 1360.13,-697 1073.76,-697"/>
<text text-anchor="start" x="1080.76" y="-709.2" font-family="Arial" font-size="14.00">amount </text>
<text text-anchor="start" x="1131.35" y="-709.2" font-family="Arial" font-size="14.00" fill="#666666">[decimal(18,4)]</text>
<polygon fill="none" stroke="black" points="1073.76,-666.2 1073.76,-697 1360.13,-697 1360.13,-666.2 1073.76,-666.2"/>
<text text-anchor="start" x="1080.76" y="-678.4" font-family="Arial" font-size="14.00">currencyId </text>
<text text-anchor="start" x="1150.01" y="-678.4" font-family="Arial" font-size="14.00" fill="#666666">[varchar(3)]</text>
<polygon fill="none" stroke="black" points="1073.76,-635.4 1073.76,-666.2 1360.13,-666.2 1360.13,-635.4 1073.76,-635.4"/>
<text text-anchor="start" x="1080.76" y="-647.6" font-family="Arial" font-size="14.00">createdDate </text>
<text text-anchor="start" x="1160.92" y="-647.6" font-family="Arial" font-size="14.00" fill="#666666">[datetime]</text>
<polygon fill="none" stroke="black" stroke-width="3" points="1072.26,-633.9 1072.26,-1134.5 1361.63,-1134.5 1361.63,-633.9 1072.26,-633.9"/>
</g>
<!-- quote -->
<g id="node5" class="node">
<title>quote</title>
<polygon fill="#efefef" stroke="none" points="43.2,-474.4 43.2,-510 304.7,-510 304.7,-474.4 43.2,-474.4"/>
<polygon fill="none" stroke="black" points="43.2,-474.4 43.2,-510 304.7,-510 304.7,-474.4 43.2,-474.4"/>
<text text-anchor="start" x="91.71" y="-487.8" font-family="Arial Bold" font-size="18.00">quote</text>
<text text-anchor="start" x="131.7" y="-487.8" font-family="Arial" font-size="14.00">    </text>
<text text-anchor="start" x="162.82" y="-487.8" font-family="Arial" font-size="14.00" fill="#666666">[BASE TABLE]</text>
<polygon fill="none" stroke="black" points="43.2,-443.6 43.2,-474.4 304.7,-474.4 304.7,-443.6 43.2,-443.6"/>
<text text-anchor="start" x="50.2" y="-455.8" font-family="Arial" font-size="14.00">quoteId </text>
<text text-anchor="start" x="100.8" y="-455.8" font-family="Arial" font-size="14.00" fill="#666666">[varchar(36)]</text>
<polygon fill="none" stroke="black" points="43.2,-412.8 43.2,-443.6 304.7,-443.6 304.7,-412.8 43.2,-412.8"/>
<text text-anchor="start" x="50.2" y="-425" font-family="Arial" font-size="14.00">transactionReferenceId </text>
<text text-anchor="start" x="198.84" y="-425" font-family="Arial" font-size="14.00" fill="#666666">[varchar(36)]</text>
<polygon fill="none" stroke="black" points="43.2,-382 43.2,-412.8 304.7,-412.8 304.7,-382 43.2,-382"/>
<text text-anchor="start" x="50.2" y="-394.2" font-family="Arial" font-size="14.00">transactionRequestId </text>
<text text-anchor="start" x="186.39" y="-394.2" font-family="Arial" font-size="14.00" fill="#666666">[varchar(36)]</text>
<polygon fill="none" stroke="black" points="43.2,-351.2 43.2,-382 304.7,-382 304.7,-351.2 43.2,-351.2"/>
<text text-anchor="start" x="50.2" y="-363.4" font-family="Arial" font-size="14.00">note </text>
<text text-anchor="start" x="81.34" y="-363.4" font-family="Arial" font-size="14.00" fill="#666666">[text]</text>
<polygon fill="none" stroke="black" points="43.2,-320.4 43.2,-351.2 304.7,-351.2 304.7,-320.4 43.2,-320.4"/>
<text text-anchor="start" x="50.2" y="-332.6" font-family="Arial" font-size="14.00">expirationDate </text>
<text text-anchor="start" x="144.37" y="-332.6" font-family="Arial" font-size="14.00" fill="#666666">[datetime]</text>
<polygon fill="none" stroke="black" points="43.2,-289.6 43.2,-320.4 304.7,-320.4 304.7,-289.6 43.2,-289.6"/>
<text text-anchor="start" x="50.2" y="-301.8" font-family="Arial" font-size="14.00">transactionInitiatorId </text>
<text text-anchor="start" x="180.16" y="-301.8" font-family="Arial" font-size="14.00" fill="#666666">[int unsigned]</text>
<polygon fill="none" stroke="black" points="43.2,-258.8 43.2,-289.6 304.7,-289.6 304.7,-258.8 43.2,-258.8"/>
<text text-anchor="start" x="50.2" y="-271" font-family="Arial" font-size="14.00">transactionInitiatorTypeId </text>
<text text-anchor="start" x="211.28" y="-271" font-family="Arial" font-size="14.00" fill="#666666">[int unsigned]</text>
<polygon fill="none" stroke="black" points="43.2,-228 43.2,-258.8 304.7,-258.8 304.7,-228 43.2,-228"/>
<text text-anchor="start" x="50.2" y="-240.2" font-family="Arial" font-size="14.00">transactionScenarioId </text>
<text text-anchor="start" x="189.5" y="-240.2" font-family="Arial" font-size="14.00" fill="#666666">[int unsigned]</text>
<polygon fill="none" stroke="black" points="43.2,-197.2 43.2,-228 304.7,-228 304.7,-197.2 43.2,-197.2"/>
<text text-anchor="start" x="50.2" y="-209.4" font-family="Arial" font-size="14.00">balanceOfPaymentsId </text>
<text text-anchor="start" x="191.83" y="-209.4" font-family="Arial" font-size="14.00" fill="#666666">[int unsigned]</text>
<polygon fill="none" stroke="black" points="43.2,-166.4 43.2,-197.2 304.7,-197.2 304.7,-166.4 43.2,-166.4"/>
<text text-anchor="start" x="50.2" y="-178.6" font-family="Arial" font-size="14.00">transactionSubScenarioId </text>
<text text-anchor="start" x="214.41" y="-178.6" font-family="Arial" font-size="14.00" fill="#666666">[int unsigned]</text>
<polygon fill="none" stroke="black" points="43.2,-135.6 43.2,-166.4 304.7,-166.4 304.7,-135.6 43.2,-135.6"/>
<text text-anchor="start" x="50.2" y="-147.8" font-family="Arial" font-size="14.00">amountTypeId </text>
<text text-anchor="start" x="143.59" y="-147.8" font-family="Arial" font-size="14.00" fill="#666666">[int unsigned]</text>
<polygon fill="none" stroke="black" points="43.2,-104.8 43.2,-135.6 304.7,-135.6 304.7,-104.8 43.2,-104.8"/>
<text text-anchor="start" x="50.2" y="-117" font-family="Arial" font-size="14.00">amount </text>
<text text-anchor="start" x="100.79" y="-117" font-family="Arial" font-size="14.00" fill="#666666">[decimal(18,4)]</text>
<polygon fill="none" stroke="black" points="43.2,-74 43.2,-104.8 304.7,-104.8 304.7,-74 43.2,-74"/>
<text text-anchor="start" x="50.2" y="-86.2" font-family="Arial" font-size="14.00">currencyId </text>
<text text-anchor="start" x="119.45" y="-86.2" font-family="Arial" font-size="14.00" fill="#666666">[varchar(255)]</text>
<polygon fill="none" stroke="black" points="43.2,-43.2 43.2,-74 304.7,-74 304.7,-43.2 43.2,-43.2"/>
<text text-anchor="start" x="50.2" y="-55.4" font-family="Arial" font-size="14.00">createdDate </text>
<text text-anchor="start" x="130.36" y="-55.4" font-family="Arial" font-size="14.00" fill="#666666">[datetime]</text>
</g>
<!-- quoteParty&#45;&gt;quote -->
<g id="edge4" class="edge">
<title>quoteParty:quoteId&#45;&gt;quote:quoteId</title>
<path fill="none" stroke="black" d="M1062.34,-1051.15C683.93,-1047.41 613.24,-839.23 356.95,-553.2 325.14,-517.7 353.36,-459 305.7,-459"/>
<polygon fill="black" stroke="black" points="1062.43,-1051.15 1072.41,-1055.7 1067.76,-1051.18 1072.09,-1051.2 1072.09,-1051.2 1072.09,-1051.2 1067.76,-1051.18 1072.45,-1046.7 1062.43,-1051.15"/>
<text text-anchor="start" x="812.89" y="-1061.2" font-family="Arial" font-size="10.00">FOREIGN KEY (quoteId) REFERENCES quote (quoteId)</text>
</g>
<!-- partyType -->
<g id="node6" class="node">
<title>partyType</title>
<polygon fill="#efefef" stroke="none" points="408.72,-305 408.72,-340.6 621.18,-340.6 621.18,-305 408.72,-305"/>
<polygon fill="none" stroke="black" points="408.72,-305 408.72,-340.6 621.18,-340.6 621.18,-305 408.72,-305"/>
<text text-anchor="start" x="415.72" y="-318.4" font-family="Arial Bold" font-size="18.00">partyType</text>
<text text-anchor="start" x="489.69" y="-318.4" font-family="Arial" font-size="14.00">    </text>
<text text-anchor="start" x="520.8" y="-318.4" font-family="Arial" font-size="14.00" fill="#666666">[BASE TABLE]</text>
<polygon fill="none" stroke="black" points="408.72,-274.2 408.72,-305 621.18,-305 621.18,-274.2 408.72,-274.2"/>
<text text-anchor="start" x="415.72" y="-286.4" font-family="Arial" font-size="14.00">partyTypeId </text>
<text text-anchor="start" x="493.53" y="-286.4" font-family="Arial" font-size="14.00" fill="#666666">[int unsigned]</text>
<polygon fill="none" stroke="black" points="408.72,-243.4 408.72,-274.2 621.18,-274.2 621.18,-243.4 408.72,-243.4"/>
<text text-anchor="start" x="415.72" y="-255.6" font-family="Arial" font-size="14.00">name </text>
<text text-anchor="start" x="454.63" y="-255.6" font-family="Arial" font-size="14.00" fill="#666666">[varchar(128)]</text>
<polygon fill="none" stroke="black" points="408.72,-212.6 408.72,-243.4 621.18,-243.4 621.18,-212.6 408.72,-212.6"/>
<text text-anchor="start" x="415.72" y="-224.8" font-family="Arial" font-size="14.00">description </text>
<text text-anchor="start" x="487.31" y="-224.8" font-family="Arial" font-size="14.00" fill="#666666">[varchar(256)]</text>
</g>
<!-- quoteParty&#45;&gt;partyType -->
<g id="edge5" class="edge">
<title>quoteParty:partyTypeId&#45;&gt;partyType:partyTypeId</title>
<path fill="none" stroke="black" d="M1062.48,-1020.29C799.25,-1014.78 790.08,-796.28 672.95,-553.2 647.05,-499.46 681.83,-289.6 622.18,-289.6"/>
<polygon fill="black" stroke="black" points="1062.43,-1020.29 1072.38,-1024.9 1067.76,-1020.35 1072.09,-1020.39 1072.09,-1020.39 1072.09,-1020.39 1067.76,-1020.35 1072.47,-1015.9 1062.43,-1020.29"/>
<text text-anchor="start" x="754.57" y="-1030.4" font-family="Arial" font-size="10.00">FOREIGN KEY (partyTypeId) REFERENCES partyType (partyTypeId)</text>
</g>
<!-- partyIdentifierType -->
<g id="node7" class="node">
<title>partyIdentifierType</title>
<polygon fill="#efefef" stroke="none" points="725.24,-305 725.24,-340.6 1004.66,-340.6 1004.66,-305 725.24,-305"/>
<polygon fill="none" stroke="black" points="725.24,-305 725.24,-340.6 1004.66,-340.6 1004.66,-305 725.24,-305"/>
<text text-anchor="start" x="732.24" y="-318.4" font-family="Arial Bold" font-size="18.00">partyIdentifierType</text>
<text text-anchor="start" x="873.17" y="-318.4" font-family="Arial" font-size="14.00">    </text>
<text text-anchor="start" x="904.29" y="-318.4" font-family="Arial" font-size="14.00" fill="#666666">[BASE TABLE]</text>
<polygon fill="none" stroke="black" points="725.24,-274.2 725.24,-305 1004.66,-305 1004.66,-274.2 725.24,-274.2"/>
<text text-anchor="start" x="732.24" y="-286.4" font-family="Arial" font-size="14.00">partyIdentifierTypeId </text>
<text text-anchor="start" x="863.75" y="-286.4" font-family="Arial" font-size="14.00" fill="#666666">[int unsigned]</text>
<polygon fill="none" stroke="black" points="725.24,-243.4 725.24,-274.2 1004.66,-274.2 1004.66,-243.4 725.24,-243.4"/>
<text text-anchor="start" x="732.24" y="-255.6" font-family="Arial" font-size="14.00">name </text>
<text text-anchor="start" x="771.15" y="-255.6" font-family="Arial" font-size="14.00" fill="#666666">[varchar(50)]</text>
<polygon fill="none" stroke="black" points="725.24,-212.6 725.24,-243.4 1004.66,-243.4 1004.66,-212.6 725.24,-212.6"/>
<text text-anchor="start" x="732.24" y="-224.8" font-family="Arial" font-size="14.00">description </text>
<text text-anchor="start" x="803.83" y="-224.8" font-family="Arial" font-size="14.00" fill="#666666">[varchar(512)]</text>
</g>
<!-- quoteParty&#45;&gt;partyIdentifierType -->
<g id="edge6" class="edge">
<title>quoteParty:partyIdentifierTypeId&#45;&gt;partyIdentifierType:partyIdentifierTypeId</title>
<path fill="none" stroke="black" d="M1063.21,-985.49C1002.3,-928.12 1080.28,-289.6 1005.66,-289.6"/>
<polygon fill="black" stroke="black" points="1063.27,-985.51 1070.68,-993.6 1068.17,-987.62 1072.15,-989.34 1072.15,-989.34 1072.15,-989.34 1068.17,-987.62 1074.23,-985.33 1063.27,-985.51"/>
<text text-anchor="start" x="639.51" y="-999.6" font-family="Arial" font-size="10.00">FOREIGN KEY (partyIdentifierTypeId) REFERENCES partyIdentifierType (partyIdentifierTypeId)</text>
</g>
<!-- participant -->
<g id="node8" class="node">
<title>participant</title>
<polygon fill="#efefef" stroke="none" points="1109.22,-366.6 1109.22,-402.2 1324.68,-402.2 1324.68,-366.6 1109.22,-366.6"/>
<polygon fill="none" stroke="black" points="1109.22,-366.6 1109.22,-402.2 1324.68,-402.2 1324.68,-366.6 1109.22,-366.6"/>
<text text-anchor="start" x="1116.22" y="-380" font-family="Arial Bold" font-size="18.00">participant</text>
<text text-anchor="start" x="1193.19" y="-380" font-family="Arial" font-size="14.00">    </text>
<text text-anchor="start" x="1224.3" y="-380" font-family="Arial" font-size="14.00" fill="#666666">[BASE TABLE]</text>
<polygon fill="none" stroke="black" points="1109.22,-335.8 1109.22,-366.6 1324.68,-366.6 1324.68,-335.8 1109.22,-335.8"/>
<text text-anchor="start" x="1116.22" y="-348" font-family="Arial" font-size="14.00">participantId </text>
<text text-anchor="start" x="1196.38" y="-348" font-family="Arial" font-size="14.00" fill="#666666">[int unsigned]</text>
<polygon fill="none" stroke="black" points="1109.22,-305 1109.22,-335.8 1324.68,-335.8 1324.68,-305 1109.22,-305"/>
<text text-anchor="start" x="1116.22" y="-317.2" font-family="Arial" font-size="14.00">name </text>
<text text-anchor="start" x="1155.13" y="-317.2" font-family="Arial" font-size="14.00" fill="#666666">[varchar(256)]</text>
<polygon fill="none" stroke="black" points="1109.22,-274.2 1109.22,-305 1324.68,-305 1324.68,-274.2 1109.22,-274.2"/>
<text text-anchor="start" x="1116.22" y="-286.4" font-family="Arial" font-size="14.00">description </text>
<text text-anchor="start" x="1187.81" y="-286.4" font-family="Arial" font-size="14.00" fill="#666666">[varchar(512)]</text>
<polygon fill="none" stroke="black" points="1109.22,-243.4 1109.22,-274.2 1324.68,-274.2 1324.68,-243.4 1109.22,-243.4"/>
<text text-anchor="start" x="1116.22" y="-255.6" font-family="Arial" font-size="14.00">isActive </text>
<text text-anchor="start" x="1168.34" y="-255.6" font-family="Arial" font-size="14.00" fill="#666666">[tinyint(1)]</text>
<polygon fill="none" stroke="black" points="1109.22,-212.6 1109.22,-243.4 1324.68,-243.4 1324.68,-212.6 1109.22,-212.6"/>
<text text-anchor="start" x="1116.22" y="-224.8" font-family="Arial" font-size="14.00">createdDate </text>
<text text-anchor="start" x="1196.38" y="-224.8" font-family="Arial" font-size="14.00" fill="#666666">[datetime]</text>
<polygon fill="none" stroke="black" points="1109.22,-181.8 1109.22,-212.6 1324.68,-212.6 1324.68,-181.8 1109.22,-181.8"/>
<text text-anchor="start" x="1116.22" y="-194" font-family="Arial" font-size="14.00">createdBy </text>
<text text-anchor="start" x="1183.14" y="-194" font-family="Arial" font-size="14.00" fill="#666666">[varchar(128)]</text>
<polygon fill="none" stroke="black" points="1109.22,-151 1109.22,-181.8 1324.68,-181.8 1324.68,-151 1109.22,-151"/>
<text text-anchor="start" x="1116.22" y="-163.2" font-family="Arial" font-size="14.00">isProxy </text>
<text text-anchor="start" x="1166.01" y="-163.2" font-family="Arial" font-size="14.00" fill="#666666">[tinyint(1)]</text>
</g>
<!-- quoteParty&#45;&gt;participant -->
<g id="edge7" class="edge">
<title>quoteParty:participantId&#45;&gt;participant:participantId</title>
<path fill="none" stroke="black" d="M1366.6,-857.89C1384.46,-790.9 1352.18,-351.2 1325.68,-351.2"/>
<polygon fill="black" stroke="black" points="1366.72,-857.71 1357.53,-863.69 1363.84,-862.19 1361.49,-865.84 1361.49,-865.84 1361.49,-865.84 1363.84,-862.19 1365.1,-868.55 1366.72,-857.71"/>
<text text-anchor="start" x="1368.13" y="-876.4" font-family="Arial" font-size="10.00">FOREIGN KEY (participantId) REFERENCES participant (participantId)</text>
</g>
<!-- transferParticipantRoleType -->
<g id="node9" class="node">
<title>transferParticipantRoleType</title>
<polygon fill="#efefef" stroke="none" points="1428.74,-335.8 1428.74,-371.4 1771.15,-371.4 1771.15,-335.8 1428.74,-335.8"/>
<polygon fill="none" stroke="black" points="1428.74,-335.8 1428.74,-371.4 1771.15,-371.4 1771.15,-335.8 1428.74,-335.8"/>
<text text-anchor="start" x="1435.74" y="-349.2" font-family="Arial Bold" font-size="18.00">transferParticipantRoleType</text>
<text text-anchor="start" x="1639.66" y="-349.2" font-family="Arial" font-size="14.00">    </text>
<text text-anchor="start" x="1670.78" y="-349.2" font-family="Arial" font-size="14.00" fill="#666666">[BASE TABLE]</text>
<polygon fill="none" stroke="black" points="1428.74,-305 1428.74,-335.8 1771.15,-335.8 1771.15,-305 1428.74,-305"/>
<text text-anchor="start" x="1435.74" y="-317.2" font-family="Arial" font-size="14.00">transferParticipantRoleTypeId </text>
<text text-anchor="start" x="1624.83" y="-317.2" font-family="Arial" font-size="14.00" fill="#666666">[int unsigned]</text>
<polygon fill="none" stroke="black" points="1428.74,-274.2 1428.74,-305 1771.15,-305 1771.15,-274.2 1428.74,-274.2"/>
<text text-anchor="start" x="1435.74" y="-286.4" font-family="Arial" font-size="14.00">name </text>
<text text-anchor="start" x="1474.65" y="-286.4" font-family="Arial" font-size="14.00" fill="#666666">[varchar(50)]</text>
<polygon fill="none" stroke="black" points="1428.74,-243.4 1428.74,-274.2 1771.15,-274.2 1771.15,-243.4 1428.74,-243.4"/>
<text text-anchor="start" x="1435.74" y="-255.6" font-family="Arial" font-size="14.00">description </text>
<text text-anchor="start" x="1507.33" y="-255.6" font-family="Arial" font-size="14.00" fill="#666666">[varchar(512)]</text>
<polygon fill="none" stroke="black" points="1428.74,-212.6 1428.74,-243.4 1771.15,-243.4 1771.15,-212.6 1428.74,-212.6"/>
<text text-anchor="start" x="1435.74" y="-224.8" font-family="Arial" font-size="14.00">isActive </text>
<text text-anchor="start" x="1487.87" y="-224.8" font-family="Arial" font-size="14.00" fill="#666666">[tinyint(1)]</text>
<polygon fill="none" stroke="black" points="1428.74,-181.8 1428.74,-212.6 1771.15,-212.6 1771.15,-181.8 1428.74,-181.8"/>
<text text-anchor="start" x="1435.74" y="-194" font-family="Arial" font-size="14.00">createdDate </text>
<text text-anchor="start" x="1515.9" y="-194" font-family="Arial" font-size="14.00" fill="#666666">[datetime]</text>
</g>
<!-- quoteParty&#45;&gt;transferParticipantRoleType -->
<g id="edge8" class="edge">
<title>quoteParty:transferParticipantRoleTypeId&#45;&gt;transferParticipantRoleType:transferParticipantRoleTypeId</title>
<path fill="none" stroke="black" d="M1371.01,-772.36C1453.67,-742.67 1329.44,-320.4 1427.74,-320.4"/>
<polygon fill="black" stroke="black" points="1371.33,-772.31 1360.73,-769.51 1366.07,-773.18 1361.79,-773.89 1361.79,-773.89 1361.79,-773.89 1366.07,-773.18 1362.2,-778.38 1371.33,-772.31"/>
<text text-anchor="start" x="1368.13" y="-784" font-family="Arial" font-size="10.00">FOREIGN KEY (transferParticipantRoleTypeId) REFERENCES transferParticipantRoleType (transferParticipantRoleTypeId)</text>
</g>
<!-- ledgerEntryType -->
<g id="node10" class="node">
<title>ledgerEntryType</title>
<polygon fill="#efefef" stroke="none" points="1875.73,-351.2 1875.73,-386.8 2136.17,-386.8 2136.17,-351.2 1875.73,-351.2"/>
<polygon fill="none" stroke="black" points="1875.73,-351.2 1875.73,-386.8 2136.17,-386.8 2136.17,-351.2 1875.73,-351.2"/>
<text text-anchor="start" x="1882.73" y="-364.6" font-family="Arial Bold" font-size="18.00">ledgerEntryType</text>
<text text-anchor="start" x="2004.68" y="-364.6" font-family="Arial" font-size="14.00">    </text>
<text text-anchor="start" x="2035.79" y="-364.6" font-family="Arial" font-size="14.00" fill="#666666">[BASE TABLE]</text>
<polygon fill="none" stroke="black" points="1875.73,-320.4 1875.73,-351.2 2136.17,-351.2 2136.17,-320.4 1875.73,-320.4"/>
<text text-anchor="start" x="1882.73" y="-332.6" font-family="Arial" font-size="14.00">ledgerEntryTypeId </text>
<text text-anchor="start" x="2001.01" y="-332.6" font-family="Arial" font-size="14.00" fill="#666666">[int unsigned]</text>
<polygon fill="none" stroke="black" points="1875.73,-289.6 1875.73,-320.4 2136.17,-320.4 2136.17,-289.6 1875.73,-289.6"/>
<text text-anchor="start" x="1882.73" y="-301.8" font-family="Arial" font-size="14.00">name </text>
<text text-anchor="start" x="1921.64" y="-301.8" font-family="Arial" font-size="14.00" fill="#666666">[varchar(50)]</text>
<polygon fill="none" stroke="black" points="1875.73,-258.8 1875.73,-289.6 2136.17,-289.6 2136.17,-258.8 1875.73,-258.8"/>
<text text-anchor="start" x="1882.73" y="-271" font-family="Arial" font-size="14.00">description </text>
<text text-anchor="start" x="1954.32" y="-271" font-family="Arial" font-size="14.00" fill="#666666">[varchar(512)]</text>
<polygon fill="none" stroke="black" points="1875.73,-228 1875.73,-258.8 2136.17,-258.8 2136.17,-228 1875.73,-228"/>
<text text-anchor="start" x="1882.73" y="-240.2" font-family="Arial" font-size="14.00">isActive </text>
<text text-anchor="start" x="1934.85" y="-240.2" font-family="Arial" font-size="14.00" fill="#666666">[tinyint(1)]</text>
<polygon fill="none" stroke="black" points="1875.73,-197.2 1875.73,-228 2136.17,-228 2136.17,-197.2 1875.73,-197.2"/>
<text text-anchor="start" x="1882.73" y="-209.4" font-family="Arial" font-size="14.00">createdDate </text>
<text text-anchor="start" x="1962.89" y="-209.4" font-family="Arial" font-size="14.00" fill="#666666">[datetime]</text>
<polygon fill="none" stroke="black" points="1875.73,-166.4 1875.73,-197.2 2136.17,-197.2 2136.17,-166.4 1875.73,-166.4"/>
<text text-anchor="start" x="1882.73" y="-178.6" font-family="Arial" font-size="14.00">ledgerAccountTypeId </text>
<text text-anchor="start" x="2018.92" y="-178.6" font-family="Arial" font-size="14.00" fill="#666666">[int unsigned]</text>
</g>
<!-- quoteParty&#45;&gt;ledgerEntryType -->
<g id="edge9" class="edge">
<title>quoteParty:ledgerEntryTypeId&#45;&gt;ledgerEntryType:ledgerEntryTypeId</title>
<path fill="none" stroke="black" d="M1371.44,-743.18C1586.08,-742.5 1681.01,-719.29 1822.95,-553.2 1887.48,-477.69 1775.4,-335.8 1874.73,-335.8"/>
<polygon fill="black" stroke="black" points="1371.47,-743.18 1361.46,-738.7 1366.13,-743.19 1361.8,-743.2 1361.8,-743.2 1361.8,-743.2 1366.13,-743.19 1361.47,-747.7 1371.47,-743.18"/>
<text text-anchor="start" x="1368.13" y="-753.2" font-family="Arial" font-size="10.00">FOREIGN KEY (ledgerEntryTypeId) REFERENCES ledgerEntryType (ledgerEntryTypeId)</text>
</g>
<!-- currency -->
<g id="node11" class="node">
<title>currency</title>
<polygon fill="#efefef" stroke="none" points="2240.22,-335.8 2240.22,-371.4 2441.67,-371.4 2441.67,-335.8 2240.22,-335.8"/>
<polygon fill="none" stroke="black" points="2240.22,-335.8 2240.22,-371.4 2441.67,-371.4 2441.67,-335.8 2240.22,-335.8"/>
<text text-anchor="start" x="2247.22" y="-349.2" font-family="Arial Bold" font-size="18.00">currency</text>
<text text-anchor="start" x="2310.18" y="-349.2" font-family="Arial" font-size="14.00">    </text>
<text text-anchor="start" x="2341.3" y="-349.2" font-family="Arial" font-size="14.00" fill="#666666">[BASE TABLE]</text>
<polygon fill="none" stroke="black" points="2240.22,-305 2240.22,-335.8 2441.67,-335.8 2441.67,-305 2240.22,-305"/>
<text text-anchor="start" x="2247.22" y="-317.2" font-family="Arial" font-size="14.00">currencyId </text>
<text text-anchor="start" x="2316.47" y="-317.2" font-family="Arial" font-size="14.00" fill="#666666">[varchar(3)]</text>
<polygon fill="none" stroke="black" points="2240.22,-274.2 2240.22,-305 2441.67,-305 2441.67,-274.2 2240.22,-274.2"/>
<text text-anchor="start" x="2247.22" y="-286.4" font-family="Arial" font-size="14.00">name </text>
<text text-anchor="start" x="2286.14" y="-286.4" font-family="Arial" font-size="14.00" fill="#666666">[varchar(128)]</text>
<polygon fill="none" stroke="black" points="2240.22,-243.4 2240.22,-274.2 2441.67,-274.2 2441.67,-243.4 2240.22,-243.4"/>
<text text-anchor="start" x="2247.22" y="-255.6" font-family="Arial" font-size="14.00">isActive </text>
<text text-anchor="start" x="2299.35" y="-255.6" font-family="Arial" font-size="14.00" fill="#666666">[tinyint(1)]</text>
<polygon fill="none" stroke="black" points="2240.22,-212.6 2240.22,-243.4 2441.67,-243.4 2441.67,-212.6 2240.22,-212.6"/>
<text text-anchor="start" x="2247.22" y="-224.8" font-family="Arial" font-size="14.00">createdDate </text>
<text text-anchor="start" x="2327.38" y="-224.8" font-family="Arial" font-size="14.00" fill="#666666">[datetime]</text>
<polygon fill="none" stroke="black" points="2240.22,-181.8 2240.22,-212.6 2441.67,-212.6 2441.67,-181.8 2240.22,-181.8"/>
<text text-anchor="start" x="2247.22" y="-194" font-family="Arial" font-size="14.00">scale </text>
<text text-anchor="start" x="2283.8" y="-194" font-family="Arial" font-size="14.00" fill="#666666">[int unsigned]</text>
</g>
<!-- quoteParty&#45;&gt;currency -->
<g id="edge10" class="edge">
<title>quoteParty:currencyId&#45;&gt;currency:currencyId</title>
<path fill="none" stroke="black" d="M1371.52,-681.6C1565.21,-681.52 2054.86,-678.19 2187.95,-553.2 2265.18,-480.67 2133.28,-320.4 2239.22,-320.4"/>
<polygon fill="black" stroke="black" points="1371.47,-681.6 1361.47,-677.1 1366.13,-681.6 1361.8,-681.6 1361.8,-681.6 1361.8,-681.6 1366.13,-681.6 1361.47,-686.1 1371.47,-681.6"/>
<text text-anchor="start" x="1368.13" y="-691.6" font-family="Arial" font-size="10.00">FOREIGN KEY (currencyId) REFERENCES currency (currencyId)</text>
</g>
<!-- geoCode -->
<g id="node2" class="node">
<title>geoCode</title>
<polygon fill="#efefef" stroke="none" points="810.71,-1427.8 810.71,-1463.4 1013.18,-1463.4 1013.18,-1427.8 810.71,-1427.8"/>
<polygon fill="none" stroke="black" points="810.71,-1427.8 810.71,-1463.4 1013.18,-1463.4 1013.18,-1427.8 810.71,-1427.8"/>
<text text-anchor="start" x="817.71" y="-1441.2" font-family="Arial Bold" font-size="18.00">geoCode</text>
<text text-anchor="start" x="881.7" y="-1441.2" font-family="Arial" font-size="14.00">    </text>
<text text-anchor="start" x="912.81" y="-1441.2" font-family="Arial" font-size="14.00" fill="#666666">[BASE TABLE]</text>
<polygon fill="none" stroke="black" points="810.71,-1397 810.71,-1427.8 1013.18,-1427.8 1013.18,-1397 810.71,-1397"/>
<text text-anchor="start" x="817.71" y="-1409.2" font-family="Arial" font-size="14.00">geoCodeId </text>
<text text-anchor="start" x="890.1" y="-1409.2" font-family="Arial" font-size="14.00" fill="#666666">[int unsigned]</text>
<polygon fill="none" stroke="black" points="810.71,-1366.2 810.71,-1397 1013.18,-1397 1013.18,-1366.2 810.71,-1366.2"/>
<text text-anchor="start" x="817.71" y="-1378.4" font-family="Arial" font-size="14.00">quotePartyId </text>
<text text-anchor="start" x="900.99" y="-1378.4" font-family="Arial" font-size="14.00" fill="#666666">[bigint unsigned]</text>
<polygon fill="none" stroke="black" points="810.71,-1335.4 810.71,-1366.2 1013.18,-1366.2 1013.18,-1335.4 810.71,-1335.4"/>
<text text-anchor="start" x="817.71" y="-1347.6" font-family="Arial" font-size="14.00">latitude </text>
<text text-anchor="start" x="866.74" y="-1347.6" font-family="Arial" font-size="14.00" fill="#666666">[varchar(50)]</text>
<polygon fill="none" stroke="black" points="810.71,-1304.6 810.71,-1335.4 1013.18,-1335.4 1013.18,-1304.6 810.71,-1304.6"/>
<text text-anchor="start" x="817.71" y="-1316.8" font-family="Arial" font-size="14.00">longitude </text>
<text text-anchor="start" x="878.43" y="-1316.8" font-family="Arial" font-size="14.00" fill="#666666">[varchar(50)]</text>
<polygon fill="none" stroke="black" points="810.71,-1273.8 810.71,-1304.6 1013.18,-1304.6 1013.18,-1273.8 810.71,-1273.8"/>
<text text-anchor="start" x="817.71" y="-1286" font-family="Arial" font-size="14.00">createdDate </text>
<text text-anchor="start" x="897.87" y="-1286" font-family="Arial" font-size="14.00" fill="#666666">[datetime]</text>
</g>
<!-- geoCode&#45;&gt;quoteParty -->
<g id="edge1" class="edge">
<title>geoCode:quotePartyId&#45;&gt;quoteParty:quotePartyId</title>
<path fill="none" stroke="black" d="M1024.55,-1380.94C1138.49,-1365.44 940.8,-1082 1072.76,-1082"/>
<polygon fill="black" stroke="black" points="1024.5,-1380.94 1014.23,-1377.09 1019.17,-1381.28 1014.85,-1381.56 1014.85,-1381.56 1014.85,-1381.56 1019.17,-1381.28 1014.8,-1386.07 1024.5,-1380.94"/>
<text text-anchor="start" x="684.29" y="-1391.6" font-family="Arial" font-size="10.00">FOREIGN KEY (quotePartyId) REFERENCES quoteParty (quotePartyId)</text>
</g>
<!-- party -->
<g id="node3" class="node">
<title>party</title>
<polygon fill="#efefef" stroke="none" points="1117.33,-1443.2 1117.33,-1478.8 1316.57,-1478.8 1316.57,-1443.2 1117.33,-1443.2"/>
<polygon fill="none" stroke="black" points="1117.33,-1443.2 1117.33,-1478.8 1316.57,-1478.8 1316.57,-1443.2 1117.33,-1443.2"/>
<text text-anchor="start" x="1136.21" y="-1456.6" font-family="Arial Bold" font-size="18.00">party</text>
<text text-anchor="start" x="1173.2" y="-1456.6" font-family="Arial" font-size="14.00">    </text>
<text text-anchor="start" x="1204.31" y="-1456.6" font-family="Arial" font-size="14.00" fill="#666666">[BASE TABLE]</text>
<polygon fill="none" stroke="black" points="1117.33,-1412.4 1117.33,-1443.2 1316.57,-1443.2 1316.57,-1412.4 1117.33,-1412.4"/>
<text text-anchor="start" x="1124.33" y="-1424.6" font-family="Arial" font-size="14.00">partyId </text>
<text text-anchor="start" x="1171.02" y="-1424.6" font-family="Arial" font-size="14.00" fill="#666666">[bigint unsigned]</text>
<polygon fill="none" stroke="black" points="1117.33,-1381.6 1117.33,-1412.4 1316.57,-1412.4 1316.57,-1381.6 1117.33,-1381.6"/>
<text text-anchor="start" x="1124.33" y="-1393.8" font-family="Arial" font-size="14.00">quotePartyId </text>
<text text-anchor="start" x="1207.6" y="-1393.8" font-family="Arial" font-size="14.00" fill="#666666">[bigint unsigned]</text>
<polygon fill="none" stroke="black" points="1117.33,-1350.8 1117.33,-1381.6 1316.57,-1381.6 1316.57,-1350.8 1117.33,-1350.8"/>
<text text-anchor="start" x="1124.33" y="-1363" font-family="Arial" font-size="14.00">firstName </text>
<text text-anchor="start" x="1188.11" y="-1363" font-family="Arial" font-size="14.00" fill="#666666">[varchar(128)]</text>
<polygon fill="none" stroke="black" points="1117.33,-1320 1117.33,-1350.8 1316.57,-1350.8 1316.57,-1320 1117.33,-1320"/>
<text text-anchor="start" x="1124.33" y="-1332.2" font-family="Arial" font-size="14.00">middleName </text>
<text text-anchor="start" x="1206.8" y="-1332.2" font-family="Arial" font-size="14.00" fill="#666666">[varchar(128)]</text>
<polygon fill="none" stroke="black" points="1117.33,-1289.2 1117.33,-1320 1316.57,-1320 1316.57,-1289.2 1117.33,-1289.2"/>
<text text-anchor="start" x="1124.33" y="-1301.4" font-family="Arial" font-size="14.00">lastName </text>
<text text-anchor="start" x="1187.35" y="-1301.4" font-family="Arial" font-size="14.00" fill="#666666">[varchar(128)]</text>
<polygon fill="none" stroke="black" points="1117.33,-1258.4 1117.33,-1289.2 1316.57,-1289.2 1316.57,-1258.4 1117.33,-1258.4"/>
<text text-anchor="start" x="1124.33" y="-1270.6" font-family="Arial" font-size="14.00">dateOfBirth </text>
<text text-anchor="start" x="1199.03" y="-1270.6" font-family="Arial" font-size="14.00" fill="#666666">[datetime]</text>
</g>
<!-- party&#45;&gt;quoteParty -->
<g id="edge2" class="edge">
<title>party:quotePartyId&#45;&gt;quoteParty:quotePartyId</title>
<path fill="none" stroke="black" d="M1326.17,-1391.26C1359.37,-1348.57 1393.64,-1082 1361.13,-1082"/>
<polygon fill="black" stroke="black" points="1326.17,-1391.27 1315.35,-1393.07 1321.73,-1394.23 1318.12,-1396.63 1318.12,-1396.63 1318.12,-1396.63 1321.73,-1394.23 1320.34,-1400.56 1326.17,-1391.27"/>
<text text-anchor="start" x="1324.57" y="-1407" font-family="Arial" font-size="10.00">FOREIGN KEY (quotePartyId) REFERENCES quoteParty (quotePartyId)</text>
</g>
<!-- quotePartyIdInfoExtension -->
<g id="node4" class="node">
<title>quotePartyIdInfoExtension</title>
<polygon fill="#efefef" stroke="none" points="1421.22,-1427.8 1421.22,-1463.4 1754.67,-1463.4 1754.67,-1427.8 1421.22,-1427.8"/>
<polygon fill="none" stroke="black" points="1421.22,-1427.8 1421.22,-1463.4 1754.67,-1463.4 1754.67,-1427.8 1421.22,-1427.8"/>
<text text-anchor="start" x="1428.22" y="-1441.2" font-family="Arial Bold" font-size="18.00">quotePartyIdInfoExtension</text>
<text text-anchor="start" x="1623.18" y="-1441.2" font-family="Arial" font-size="14.00">    </text>
<text text-anchor="start" x="1654.3" y="-1441.2" font-family="Arial" font-size="14.00" fill="#666666">[BASE TABLE]</text>
<polygon fill="none" stroke="black" points="1421.22,-1397 1421.22,-1427.8 1754.67,-1427.8 1754.67,-1397 1421.22,-1397"/>
<text text-anchor="start" x="1428.22" y="-1409.2" font-family="Arial" font-size="14.00">quotePartyIdInfoExtensionId </text>
<text text-anchor="start" x="1608.01" y="-1409.2" font-family="Arial" font-size="14.00" fill="#666666">[bigint unsigned]</text>
<polygon fill="none" stroke="black" points="1421.22,-1366.2 1421.22,-1397 1754.67,-1397 1754.67,-1366.2 1421.22,-1366.2"/>
<text text-anchor="start" x="1428.22" y="-1378.4" font-family="Arial" font-size="14.00">quotePartyId </text>
<text text-anchor="start" x="1511.5" y="-1378.4" font-family="Arial" font-size="14.00" fill="#666666">[bigint unsigned]</text>
<polygon fill="none" stroke="black" points="1421.22,-1335.4 1421.22,-1366.2 1754.67,-1366.2 1754.67,-1335.4 1421.22,-1335.4"/>
<text text-anchor="start" x="1428.22" y="-1347.6" font-family="Arial" font-size="14.00">key </text>
<text text-anchor="start" x="1453.9" y="-1347.6" font-family="Arial" font-size="14.00" fill="#666666">[varchar(128)]</text>
<polygon fill="none" stroke="black" points="1421.22,-1304.6 1421.22,-1335.4 1754.67,-1335.4 1754.67,-1304.6 1421.22,-1304.6"/>
<text text-anchor="start" x="1428.22" y="-1316.8" font-family="Arial" font-size="14.00">value </text>
<text text-anchor="start" x="1465.58" y="-1316.8" font-family="Arial" font-size="14.00" fill="#666666">[text]</text>
<polygon fill="none" stroke="black" points="1421.22,-1273.8 1421.22,-1304.6 1754.67,-1304.6 1754.67,-1273.8 1421.22,-1273.8"/>
<text text-anchor="start" x="1428.22" y="-1286" font-family="Arial" font-size="14.00">createdDate </text>
<text text-anchor="start" x="1508.38" y="-1286" font-family="Arial" font-size="14.00" fill="#666666">[datetime]</text>
</g>
<!-- quotePartyIdInfoExtension&#45;&gt;quoteParty -->
<g id="edge3" class="edge">
<title>quotePartyIdInfoExtension:quotePartyId&#45;&gt;quoteParty:quotePartyId</title>
<path fill="none" stroke="black" d="M1409.86,-1380.94C1295.86,-1365.44 1493.14,-1082 1361.13,-1082"/>
<polygon fill="black" stroke="black" points="1409.91,-1380.94 1419.6,-1386.07 1415.23,-1381.28 1419.56,-1381.56 1419.56,-1381.56 1419.56,-1381.56 1415.23,-1381.28 1420.18,-1377.09 1409.91,-1380.94"/>
<text text-anchor="start" x="1427.22" y="-1365.6" font-family="Arial" font-size="10.00">FOREIGN KEY (quotePartyId) REFERENCES quoteParty (quotePartyId)</text>
</g>
</g>
</svg>
