<?xml version="1.0" encoding="UTF-8" standalone="no"?>
<!DOCTYPE svg PUBLIC "-//W3C//DTD SVG 1.1//EN"
 "http://www.w3.org/Graphics/SVG/1.1/DTD/svg11.dtd">
<!-- Generated by graphviz version 12.1.2 (20240928.0832)
 -->
<!-- Title: segment Pages: 1 -->
<svg width="299pt" height="321pt"
 viewBox="0.00 0.00 298.87 320.80" xmlns="http://www.w3.org/2000/svg" xmlns:xlink="http://www.w3.org/1999/xlink">
<g id="graph0" class="graph" transform="scale(1 1) rotate(0) translate(4 316.8)">
<title>segment</title>
<polygon fill="white" stroke="none" points="-4,4 -4,-316.8 294.87,-316.8 294.87,4 -4,4"/>
<!-- segment -->
<g id="node1" class="node">
<title>segment</title>
<polygon fill="#efefef" stroke="none" points="46.2,-231 46.2,-266.6 244.67,-266.6 244.67,-231 46.2,-231"/>
<polygon fill="none" stroke="black" points="46.2,-231 46.2,-266.6 244.67,-266.6 244.67,-231 46.2,-231"/>
<text text-anchor="start" x="53.2" y="-244.4" font-family="Arial Bold" font-size="18.00">segment</text>
<text text-anchor="start" x="113.19" y="-244.4" font-family="Arial" font-size="14.00">    </text>
<text text-anchor="start" x="144.3" y="-244.4" font-family="Arial" font-size="14.00" fill="#666666">[BASE TABLE]</text>
<polygon fill="none" stroke="black" points="46.2,-200.2 46.2,-231 244.67,-231 244.67,-200.2 46.2,-200.2"/>
<text text-anchor="start" x="53.2" y="-212.4" font-family="Arial" font-size="14.00">segmentId </text>
<text text-anchor="start" x="122.46" y="-212.4" font-family="Arial" font-size="14.00" fill="#666666">[int unsigned]</text>
<polygon fill="none" stroke="black" points="46.2,-169.4 46.2,-200.2 244.67,-200.2 244.67,-169.4 46.2,-169.4"/>
<text text-anchor="start" x="53.2" y="-181.6" font-family="Arial" font-size="14.00">segmentType </text>
<text text-anchor="start" x="141.91" y="-181.6" font-family="Arial" font-size="14.00" fill="#666666">[varchar(50)]</text>
<polygon fill="none" stroke="black" points="46.2,-138.6 46.2,-169.4 244.67,-169.4 244.67,-138.6 46.2,-138.6"/>
<text text-anchor="start" x="53.2" y="-150.8" font-family="Arial" font-size="14.00">enumeration </text>
<text text-anchor="start" x="134.92" y="-150.8" font-family="Arial" font-size="14.00" fill="#666666">[int]</text>
<polygon fill="none" stroke="black" points="46.2,-107.8 46.2,-138.6 244.67,-138.6 244.67,-107.8 46.2,-107.8"/>
<text text-anchor="start" x="53.2" y="-120" font-family="Arial" font-size="14.00">tableName </text>
<text text-anchor="start" x="124.79" y="-120" font-family="Arial" font-size="14.00" fill="#666666">[varchar(50)]</text>
<polygon fill="none" stroke="black" points="46.2,-77 46.2,-107.8 244.67,-107.8 244.67,-77 46.2,-77"/>
<text text-anchor="start" x="53.2" y="-89.2" font-family="Arial" font-size="14.00">value </text>
<text text-anchor="start" x="90.56" y="-89.2" font-family="Arial" font-size="14.00" fill="#666666">[bigint]</text>
<polygon fill="none" stroke="black" points="46.2,-46.2 46.2,-77 244.67,-77 244.67,-46.2 46.2,-46.2"/>
<text text-anchor="start" x="53.2" y="-58.4" font-family="Arial" font-size="14.00">changedDate </text>
<text text-anchor="start" x="140.38" y="-58.4" font-family="Arial" font-size="14.00" fill="#666666">[datetime]</text>
<polygon fill="none" stroke="black" stroke-width="3" points="44.7,-44.7 44.7,-268.1 246.17,-268.1 246.17,-44.7 44.7,-44.7"/>
</g>
</g>
</svg>
