<?xml version="1.0" encoding="UTF-8" standalone="no"?>
<!DOCTYPE svg PUBLIC "-//W3C//DTD SVG 1.1//EN"
 "http://www.w3.org/Graphics/SVG/1.1/DTD/svg11.dtd">
<!-- Generated by graphviz version 12.1.2 (20240928.0832)
 -->
<!-- Title: settlementWindowState Pages: 1 -->
<svg width="1600pt" height="553pt"
 viewBox="0.00 0.00 1599.89 552.95" xmlns="http://www.w3.org/2000/svg" xmlns:xlink="http://www.w3.org/1999/xlink">
<g id="graph0" class="graph" transform="scale(1 1) rotate(0) translate(4 548.95)">
<title>settlementWindowState</title>
<polygon fill="white" stroke="none" points="-4,4 -4,-548.95 1595.89,-548.95 1595.89,4 -4,4"/>
<!-- settlementWindowState -->
<g id="node1" class="node">
<title>settlementWindowState</title>
<polygon fill="#efefef" stroke="none" points="615.43,-89.55 615.43,-125.15 925.88,-125.15 925.88,-89.55 615.43,-89.55"/>
<polygon fill="none" stroke="black" points="615.43,-89.55 615.43,-125.15 925.88,-125.15 925.88,-89.55 615.43,-89.55"/>
<text text-anchor="start" x="622.43" y="-102.95" font-family="Arial Bold" font-size="18.00">settlementWindowState</text>
<text text-anchor="start" x="794.39" y="-102.95" font-family="Arial" font-size="14.00">    </text>
<text text-anchor="start" x="825.51" y="-102.95" font-family="Arial" font-size="14.00" fill="#666666">[BASE TABLE]</text>
<polygon fill="none" stroke="black" points="615.43,-58.75 615.43,-89.55 925.88,-89.55 925.88,-58.75 615.43,-58.75"/>
<text text-anchor="start" x="622.43" y="-70.95" font-family="Arial" font-size="14.00">settlementWindowStateId </text>
<text text-anchor="start" x="785.06" y="-70.95" font-family="Arial" font-size="14.00" fill="#666666">[varchar(50)]</text>
<polygon fill="none" stroke="black" stroke-width="3" points="613.93,-57.25 613.93,-126.65 927.38,-126.65 927.38,-57.25 613.93,-57.25"/>
</g>
<!-- settlementContentAggregation -->
<g id="node2" class="node">
<title>settlementContentAggregation</title>
<polygon fill="#efefef" stroke="none" points="95.94,-466.15 95.94,-501.75 455.37,-501.75 455.37,-466.15 95.94,-466.15"/>
<polygon fill="none" stroke="black" points="95.94,-466.15 95.94,-501.75 455.37,-501.75 455.37,-466.15 95.94,-466.15"/>
<text text-anchor="start" x="102.94" y="-479.55" font-family="Arial Bold" font-size="18.00">settlementContentAggregation</text>
<text text-anchor="start" x="323.88" y="-479.55" font-family="Arial" font-size="14.00">    </text>
<text text-anchor="start" x="355" y="-479.55" font-family="Arial" font-size="14.00" fill="#666666">[BASE TABLE]</text>
<polygon fill="none" stroke="black" points="95.94,-435.35 95.94,-466.15 455.37,-466.15 455.37,-435.35 95.94,-435.35"/>
<text text-anchor="start" x="102.94" y="-447.55" font-family="Arial" font-size="14.00">settlementContentAggregationId </text>
<text text-anchor="start" x="307.62" y="-447.55" font-family="Arial" font-size="14.00" fill="#666666">[bigint unsigned]</text>
<polygon fill="none" stroke="black" points="95.94,-404.55 95.94,-435.35 455.37,-435.35 455.37,-404.55 95.94,-404.55"/>
<text text-anchor="start" x="102.94" y="-416.75" font-family="Arial" font-size="14.00">settlementWindowContentId </text>
<text text-anchor="start" x="281.91" y="-416.75" font-family="Arial" font-size="14.00" fill="#666666">[bigint unsigned]</text>
<polygon fill="none" stroke="black" points="95.94,-373.75 95.94,-404.55 455.37,-404.55 455.37,-373.75 95.94,-373.75"/>
<text text-anchor="start" x="102.94" y="-385.95" font-family="Arial" font-size="14.00">participantCurrencyId </text>
<text text-anchor="start" x="239.89" y="-385.95" font-family="Arial" font-size="14.00" fill="#666666">[int unsigned]</text>
<polygon fill="none" stroke="black" points="95.94,-342.95 95.94,-373.75 455.37,-373.75 455.37,-342.95 95.94,-342.95"/>
<text text-anchor="start" x="102.94" y="-355.15" font-family="Arial" font-size="14.00">transferParticipantRoleTypeId </text>
<text text-anchor="start" x="292.02" y="-355.15" font-family="Arial" font-size="14.00" fill="#666666">[int unsigned]</text>
<polygon fill="none" stroke="black" points="95.94,-312.15 95.94,-342.95 455.37,-342.95 455.37,-312.15 95.94,-312.15"/>
<text text-anchor="start" x="102.94" y="-324.35" font-family="Arial" font-size="14.00">ledgerEntryTypeId </text>
<text text-anchor="start" x="221.22" y="-324.35" font-family="Arial" font-size="14.00" fill="#666666">[int unsigned]</text>
<polygon fill="none" stroke="black" points="95.94,-281.35 95.94,-312.15 455.37,-312.15 455.37,-281.35 95.94,-281.35"/>
<text text-anchor="start" x="102.94" y="-293.55" font-family="Arial" font-size="14.00">currentStateId </text>
<text text-anchor="start" x="194.76" y="-293.55" font-family="Arial" font-size="14.00" fill="#666666">[varchar(50)]</text>
<polygon fill="none" stroke="black" points="95.94,-250.55 95.94,-281.35 455.37,-281.35 455.37,-250.55 95.94,-250.55"/>
<text text-anchor="start" x="102.94" y="-262.75" font-family="Arial" font-size="14.00">settlementId </text>
<text text-anchor="start" x="183.09" y="-262.75" font-family="Arial" font-size="14.00" fill="#666666">[bigint unsigned]</text>
</g>
<!-- settlementContentAggregation&#45;&gt;settlementWindowState -->
<g id="edge1" class="edge">
<title>settlementContentAggregation:currentStateId&#45;&gt;settlementWindowState:settlementWindowStateId</title>
<path fill="none" stroke="black" d="M466.37,-295.74C499.16,-288.38 483.97,-242.09 507.65,-207.35 550.39,-144.65 538.56,-74.15 614.43,-74.15"/>
<polygon fill="black" stroke="black" points="466.66,-295.71 456.26,-292.23 461.35,-296.25 457.04,-296.68 457.04,-296.68 457.04,-296.68 461.35,-296.25 457.16,-301.19 466.66,-295.71"/>
<text text-anchor="start" x="7" y="-306.75" font-family="Arial" font-size="10.00">FOREIGN KEY (currentStateId) REFERENCES settlementWindowState (settlementWindowStateId)</text>
</g>
<!-- settlementWindowContentStateChange -->
<g id="node3" class="node">
<title>settlementWindowContentStateChange</title>
<polygon fill="#efefef" stroke="none" points="559.44,-404.55 559.44,-440.15 981.87,-440.15 981.87,-404.55 559.44,-404.55"/>
<polygon fill="none" stroke="black" points="559.44,-404.55 559.44,-440.15 981.87,-440.15 981.87,-404.55 559.44,-404.55"/>
<text text-anchor="start" x="566.44" y="-417.95" font-family="Arial Bold" font-size="18.00">settlementWindowContentStateChange</text>
<text text-anchor="start" x="850.38" y="-417.95" font-family="Arial" font-size="14.00">    </text>
<text text-anchor="start" x="881.5" y="-417.95" font-family="Arial" font-size="14.00" fill="#666666">[BASE TABLE]</text>
<polygon fill="none" stroke="black" points="559.44,-373.75 559.44,-404.55 981.87,-404.55 981.87,-373.75 559.44,-373.75"/>
<text text-anchor="start" x="566.44" y="-385.95" font-family="Arial" font-size="14.00">settlementWindowContentStateChangeId </text>
<text text-anchor="start" x="827.15" y="-385.95" font-family="Arial" font-size="14.00" fill="#666666">[bigint unsigned]</text>
<polygon fill="none" stroke="black" points="559.44,-342.95 559.44,-373.75 981.87,-373.75 981.87,-342.95 559.44,-342.95"/>
<text text-anchor="start" x="566.44" y="-355.15" font-family="Arial" font-size="14.00">settlementWindowContentId </text>
<text text-anchor="start" x="745.42" y="-355.15" font-family="Arial" font-size="14.00" fill="#666666">[bigint unsigned]</text>
<polygon fill="none" stroke="black" points="559.44,-312.15 559.44,-342.95 981.87,-342.95 981.87,-312.15 559.44,-312.15"/>
<text text-anchor="start" x="566.44" y="-324.35" font-family="Arial" font-size="14.00">settlementWindowStateId </text>
<text text-anchor="start" x="729.07" y="-324.35" font-family="Arial" font-size="14.00" fill="#666666">[varchar(50)]</text>
</g>
<!-- settlementWindowContentStateChange&#45;&gt;settlementWindowState -->
<g id="edge2" class="edge">
<title>settlementWindowContentStateChange:settlementWindowStateId&#45;&gt;settlementWindowState:settlementWindowStateId</title>
<path fill="none" stroke="black" d="M771.14,-300.86C780.56,-206.36 923.24,-264.69 972.08,-171.35 995.28,-127 1007.38,-94.22 972.08,-58.75 908.93,4.71 770.65,31.78 770.65,-57.75"/>
<polygon fill="black" stroke="black" points="771.15,-300.82 766.18,-310.6 770.89,-306.15 770.69,-310.48 770.69,-310.48 770.69,-310.48 770.89,-306.15 775.17,-311.03 771.15,-300.82"/>
<text text-anchor="start" x="524.18" y="-295.15" font-family="Arial" font-size="10.00">FOREIGN KEY (settlementWindowStateId) REFERENCES settlementWindowState (settlementWindowStateId)</text>
</g>
<!-- settlementWindowStateChange -->
<g id="node4" class="node">
<title>settlementWindowStateChange</title>
<polygon fill="#efefef" stroke="none" points="1085.94,-404.55 1085.94,-440.15 1451.37,-440.15 1451.37,-404.55 1085.94,-404.55"/>
<polygon fill="none" stroke="black" points="1085.94,-404.55 1085.94,-440.15 1451.37,-440.15 1451.37,-404.55 1085.94,-404.55"/>
<text text-anchor="start" x="1092.94" y="-417.95" font-family="Arial Bold" font-size="18.00">settlementWindowStateChange</text>
<text text-anchor="start" x="1319.88" y="-417.95" font-family="Arial" font-size="14.00">    </text>
<text text-anchor="start" x="1351" y="-417.95" font-family="Arial" font-size="14.00" fill="#666666">[BASE TABLE]</text>
<polygon fill="none" stroke="black" points="1085.94,-373.75 1085.94,-404.55 1451.37,-404.55 1451.37,-373.75 1085.94,-373.75"/>
<text text-anchor="start" x="1092.94" y="-385.95" font-family="Arial" font-size="14.00">settlementWindowStateChangeId </text>
<text text-anchor="start" x="1304.61" y="-385.95" font-family="Arial" font-size="14.00" fill="#666666">[bigint unsigned]</text>
<polygon fill="none" stroke="black" points="1085.94,-342.95 1085.94,-373.75 1451.37,-373.75 1451.37,-342.95 1085.94,-342.95"/>
<text text-anchor="start" x="1092.94" y="-355.15" font-family="Arial" font-size="14.00">settlementWindowId </text>
<text text-anchor="start" x="1222.88" y="-355.15" font-family="Arial" font-size="14.00" fill="#666666">[bigint unsigned]</text>
<polygon fill="none" stroke="black" points="1085.94,-312.15 1085.94,-342.95 1451.37,-342.95 1451.37,-312.15 1085.94,-312.15"/>
<text text-anchor="start" x="1092.94" y="-324.35" font-family="Arial" font-size="14.00">settlementWindowStateId </text>
<text text-anchor="start" x="1255.57" y="-324.35" font-family="Arial" font-size="14.00" fill="#666666">[varchar(50)]</text>
</g>
<!-- settlementWindowStateChange&#45;&gt;settlementWindowState -->
<g id="edge3" class="edge">
<title>settlementWindowStateChange:settlementWindowStateId&#45;&gt;settlementWindowState:settlementWindowStateId</title>
<path fill="none" stroke="black" d="M1074.57,-326.64C1031.43,-318.29 1061.51,-253.87 1033.65,-207.35 994.68,-142.25 1002.75,-74.15 926.88,-74.15"/>
<polygon fill="black" stroke="black" points="1074.64,-326.65 1084.21,-332 1079.96,-327.11 1084.27,-327.49 1084.27,-327.49 1084.27,-327.49 1079.96,-327.11 1085,-323.03 1074.64,-326.65"/>
<text text-anchor="start" x="1091.94" y="-337.55" font-family="Arial" font-size="10.00">FOREIGN KEY (settlementWindowStateId) REFERENCES settlementWindowState (settlementWindowStateId)</text>
</g>
</g>
</svg>
