<?xml version="1.0" encoding="UTF-8" standalone="no"?>
<!DOCTYPE svg PUBLIC "-//W3C//DTD SVG 1.1//EN"
 "http://www.w3.org/Graphics/SVG/1.1/DTD/svg11.dtd">
<!-- Generated by graphviz version 12.1.2 (20240928.0832)
 -->
<!-- Title: settlementSettlementWindow Pages: 1 -->
<svg width="1129pt" height="571pt"
 viewBox="0.00 0.00 1128.54 571.20" xmlns="http://www.w3.org/2000/svg" xmlns:xlink="http://www.w3.org/1999/xlink">
<g id="graph0" class="graph" transform="scale(1 1) rotate(0) translate(4 567.2)">
<title>settlementSettlementWindow</title>
<polygon fill="white" stroke="none" points="-4,4 -4,-567.2 1124.54,-567.2 1124.54,4 -4,4"/>
<!-- settlementSettlementWindow -->
<g id="node1" class="node">
<title>settlementSettlementWindow</title>
<polygon fill="#efefef" stroke="none" points="331.2,-481.4 331.2,-517 682.64,-517 682.64,-481.4 331.2,-481.4"/>
<polygon fill="none" stroke="black" points="331.2,-481.4 331.2,-517 682.64,-517 682.64,-481.4 331.2,-481.4"/>
<text text-anchor="start" x="338.2" y="-494.8" font-family="Arial Bold" font-size="18.00">settlementSettlementWindow</text>
<text text-anchor="start" x="551.15" y="-494.8" font-family="Arial" font-size="14.00">    </text>
<text text-anchor="start" x="582.27" y="-494.8" font-family="Arial" font-size="14.00" fill="#666666">[BASE TABLE]</text>
<polygon fill="none" stroke="black" points="331.2,-450.6 331.2,-481.4 682.64,-481.4 682.64,-450.6 331.2,-450.6"/>
<text text-anchor="start" x="338.2" y="-462.8" font-family="Arial" font-size="14.00">settlementSettlementWindowId </text>
<text text-anchor="start" x="535.07" y="-462.8" font-family="Arial" font-size="14.00" fill="#666666">[bigint unsigned]</text>
<polygon fill="none" stroke="black" points="331.2,-419.8 331.2,-450.6 682.64,-450.6 682.64,-419.8 331.2,-419.8"/>
<text text-anchor="start" x="338.2" y="-432" font-family="Arial" font-size="14.00">settlementId </text>
<text text-anchor="start" x="418.35" y="-432" font-family="Arial" font-size="14.00" fill="#666666">[bigint unsigned]</text>
<polygon fill="none" stroke="black" points="331.2,-389 331.2,-419.8 682.64,-419.8 682.64,-389 331.2,-389"/>
<text text-anchor="start" x="338.2" y="-401.2" font-family="Arial" font-size="14.00">settlementWindowId </text>
<text text-anchor="start" x="468.15" y="-401.2" font-family="Arial" font-size="14.00" fill="#666666">[bigint unsigned]</text>
<polygon fill="none" stroke="black" points="331.2,-358.2 331.2,-389 682.64,-389 682.64,-358.2 331.2,-358.2"/>
<text text-anchor="start" x="338.2" y="-370.4" font-family="Arial" font-size="14.00">createdDate </text>
<text text-anchor="start" x="418.36" y="-370.4" font-family="Arial" font-size="14.00" fill="#666666">[datetime]</text>
<polygon fill="none" stroke="black" stroke-width="3" points="329.7,-356.7 329.7,-518.5 684.14,-518.5 684.14,-356.7 329.7,-356.7"/>
</g>
<!-- settlement -->
<g id="node2" class="node">
<title>settlement</title>
<polygon fill="#efefef" stroke="none" points="193.5,-197.2 193.5,-232.8 450.34,-232.8 450.34,-197.2 193.5,-197.2"/>
<polygon fill="none" stroke="black" points="193.5,-197.2 193.5,-232.8 450.34,-232.8 450.34,-197.2 193.5,-197.2"/>
<text text-anchor="start" x="222.69" y="-210.6" font-family="Arial Bold" font-size="18.00">settlement</text>
<text text-anchor="start" x="296.67" y="-210.6" font-family="Arial" font-size="14.00">    </text>
<text text-anchor="start" x="327.78" y="-210.6" font-family="Arial" font-size="14.00" fill="#666666">[BASE TABLE]</text>
<polygon fill="none" stroke="black" points="193.5,-166.4 193.5,-197.2 450.34,-197.2 450.34,-166.4 193.5,-166.4"/>
<text text-anchor="start" x="200.5" y="-178.6" font-family="Arial" font-size="14.00">settlementId </text>
<text text-anchor="start" x="280.66" y="-178.6" font-family="Arial" font-size="14.00" fill="#666666">[bigint unsigned]</text>
<polygon fill="none" stroke="black" points="193.5,-135.6 193.5,-166.4 450.34,-166.4 450.34,-135.6 193.5,-135.6"/>
<text text-anchor="start" x="200.5" y="-147.8" font-family="Arial" font-size="14.00">reason </text>
<text text-anchor="start" x="247.2" y="-147.8" font-family="Arial" font-size="14.00" fill="#666666">[varchar(512)]</text>
<polygon fill="none" stroke="black" points="193.5,-104.8 193.5,-135.6 450.34,-135.6 450.34,-104.8 193.5,-104.8"/>
<text text-anchor="start" x="200.5" y="-117" font-family="Arial" font-size="14.00">createdDate </text>
<text text-anchor="start" x="280.66" y="-117" font-family="Arial" font-size="14.00" fill="#666666">[datetime]</text>
<polygon fill="none" stroke="black" points="193.5,-74 193.5,-104.8 450.34,-104.8 450.34,-74 193.5,-74"/>
<text text-anchor="start" x="200.5" y="-86.2" font-family="Arial" font-size="14.00">currentStateChangeId </text>
<text text-anchor="start" x="341.37" y="-86.2" font-family="Arial" font-size="14.00" fill="#666666">[bigint unsigned]</text>
<polygon fill="none" stroke="black" points="193.5,-43.2 193.5,-74 450.34,-74 450.34,-43.2 193.5,-43.2"/>
<text text-anchor="start" x="200.5" y="-55.4" font-family="Arial" font-size="14.00">settlementModelId </text>
<text text-anchor="start" x="318.79" y="-55.4" font-family="Arial" font-size="14.00" fill="#666666">[int unsigned]</text>
</g>
<!-- settlementSettlementWindow&#45;&gt;settlement -->
<g id="edge1" class="edge">
<title>settlementSettlementWindow:settlementId&#45;&gt;settlement:settlementId</title>
<path fill="none" stroke="black" d="M320.04,-434.12C278.63,-424.51 300.62,-352.83 331.2,-312 364.36,-267.72 417.13,-320.24 450.34,-276 475.47,-242.52 493.21,-181.8 451.34,-181.8"/>
<polygon fill="black" stroke="black" points="319.92,-434.11 329.39,-439.64 325.23,-434.67 329.54,-435.13 329.54,-435.13 329.54,-435.13 325.23,-434.67 330.34,-430.69 319.92,-434.11"/>
<text text-anchor="start" x="7" y="-445.2" font-family="Arial" font-size="10.00">FOREIGN KEY (settlementId) REFERENCES settlement (settlementId)</text>
</g>
<!-- settlementWindow -->
<g id="node3" class="node">
<title>settlementWindow</title>
<polygon fill="#efefef" stroke="none" points="554.69,-181.8 554.69,-217.4 829.15,-217.4 829.15,-181.8 554.69,-181.8"/>
<polygon fill="none" stroke="black" points="554.69,-181.8 554.69,-217.4 829.15,-217.4 829.15,-181.8 554.69,-181.8"/>
<text text-anchor="start" x="561.69" y="-195.2" font-family="Arial Bold" font-size="18.00">settlementWindow</text>
<text text-anchor="start" x="697.66" y="-195.2" font-family="Arial" font-size="14.00">    </text>
<text text-anchor="start" x="728.78" y="-195.2" font-family="Arial" font-size="14.00" fill="#666666">[BASE TABLE]</text>
<polygon fill="none" stroke="black" points="554.69,-151 554.69,-181.8 829.15,-181.8 829.15,-151 554.69,-151"/>
<text text-anchor="start" x="561.69" y="-163.2" font-family="Arial" font-size="14.00">settlementWindowId </text>
<text text-anchor="start" x="691.64" y="-163.2" font-family="Arial" font-size="14.00" fill="#666666">[bigint unsigned]</text>
<polygon fill="none" stroke="black" points="554.69,-120.2 554.69,-151 829.15,-151 829.15,-120.2 554.69,-120.2"/>
<text text-anchor="start" x="561.69" y="-132.4" font-family="Arial" font-size="14.00">reason </text>
<text text-anchor="start" x="608.39" y="-132.4" font-family="Arial" font-size="14.00" fill="#666666">[varchar(512)]</text>
<polygon fill="none" stroke="black" points="554.69,-89.4 554.69,-120.2 829.15,-120.2 829.15,-89.4 554.69,-89.4"/>
<text text-anchor="start" x="561.69" y="-101.6" font-family="Arial" font-size="14.00">createdDate </text>
<text text-anchor="start" x="641.85" y="-101.6" font-family="Arial" font-size="14.00" fill="#666666">[datetime]</text>
<polygon fill="none" stroke="black" points="554.69,-58.6 554.69,-89.4 829.15,-89.4 829.15,-58.6 554.69,-58.6"/>
<text text-anchor="start" x="561.69" y="-70.8" font-family="Arial" font-size="14.00">currentStateChangeId </text>
<text text-anchor="start" x="702.56" y="-70.8" font-family="Arial" font-size="14.00" fill="#666666">[bigint unsigned]</text>
</g>
<!-- settlementSettlementWindow&#45;&gt;settlementWindow -->
<g id="edge2" class="edge">
<title>settlementSettlementWindow:settlementWindowId&#45;&gt;settlementWindow:settlementWindowId</title>
<path fill="none" stroke="black" d="M693.66,-402.93C721.13,-393.65 703.65,-342.72 682.64,-312 648.05,-261.41 589.28,-311.19 554.69,-260.6 531.06,-226.04 511.82,-166.4 553.69,-166.4"/>
<polygon fill="black" stroke="black" points="693.86,-402.9 683.32,-399.9 688.59,-403.67 684.3,-404.3 684.3,-404.3 684.3,-404.3 688.59,-403.67 684.63,-408.8 693.86,-402.9"/>
<text text-anchor="start" x="690.64" y="-414.4" font-family="Arial" font-size="10.00">FOREIGN KEY (settlementWindowId) REFERENCES settlementWindow (settlementWindowId)</text>
</g>
</g>
</svg>
