<?xml version="1.0" encoding="UTF-8" standalone="no"?>
<!DOCTYPE svg PUBLIC "-//W3C//DTD SVG 1.1//EN"
 "http://www.w3.org/Graphics/SVG/1.1/DTD/svg11.dtd">
<!-- Generated by graphviz version 12.1.2 (20240928.0832)
 -->
<!-- Title: settlementWindowStateChange Pages: 1 -->
<svg width="1260pt" height="602pt"
 viewBox="0.00 0.00 1260.13 602.00" xmlns="http://www.w3.org/2000/svg" xmlns:xlink="http://www.w3.org/1999/xlink">
<g id="graph0" class="graph" transform="scale(1 1) rotate(0) translate(4 598)">
<title>settlementWindowStateChange</title>
<polygon fill="white" stroke="none" points="-4,4 -4,-598 1256.13,-598 1256.13,4 -4,4"/>
<!-- settlementWindowStateChange -->
<g id="node1" class="node">
<title>settlementWindowStateChange</title>
<polygon fill="#efefef" stroke="none" points="378.75,-512.2 378.75,-547.8 744.18,-547.8 744.18,-512.2 378.75,-512.2"/>
<polygon fill="none" stroke="black" points="378.75,-512.2 378.75,-547.8 744.18,-547.8 744.18,-512.2 378.75,-512.2"/>
<text text-anchor="start" x="385.75" y="-525.6" font-family="Arial Bold" font-size="18.00">settlementWindowStateChange</text>
<text text-anchor="start" x="612.69" y="-525.6" font-family="Arial" font-size="14.00">    </text>
<text text-anchor="start" x="643.8" y="-525.6" font-family="Arial" font-size="14.00" fill="#666666">[BASE TABLE]</text>
<polygon fill="none" stroke="black" points="378.75,-481.4 378.75,-512.2 744.18,-512.2 744.18,-481.4 378.75,-481.4"/>
<text text-anchor="start" x="385.75" y="-493.6" font-family="Arial" font-size="14.00">settlementWindowStateChangeId </text>
<text text-anchor="start" x="597.42" y="-493.6" font-family="Arial" font-size="14.00" fill="#666666">[bigint unsigned]</text>
<polygon fill="none" stroke="black" points="378.75,-450.6 378.75,-481.4 744.18,-481.4 744.18,-450.6 378.75,-450.6"/>
<text text-anchor="start" x="385.75" y="-462.8" font-family="Arial" font-size="14.00">settlementWindowId </text>
<text text-anchor="start" x="515.69" y="-462.8" font-family="Arial" font-size="14.00" fill="#666666">[bigint unsigned]</text>
<polygon fill="none" stroke="black" points="378.75,-419.8 378.75,-450.6 744.18,-450.6 744.18,-419.8 378.75,-419.8"/>
<text text-anchor="start" x="385.75" y="-432" font-family="Arial" font-size="14.00">settlementWindowStateId </text>
<text text-anchor="start" x="548.38" y="-432" font-family="Arial" font-size="14.00" fill="#666666">[varchar(50)]</text>
<polygon fill="none" stroke="black" points="378.75,-389 378.75,-419.8 744.18,-419.8 744.18,-389 378.75,-389"/>
<text text-anchor="start" x="385.75" y="-401.2" font-family="Arial" font-size="14.00">reason </text>
<text text-anchor="start" x="432.44" y="-401.2" font-family="Arial" font-size="14.00" fill="#666666">[varchar(512)]</text>
<polygon fill="none" stroke="black" points="378.75,-358.2 378.75,-389 744.18,-389 744.18,-358.2 378.75,-358.2"/>
<text text-anchor="start" x="385.75" y="-370.4" font-family="Arial" font-size="14.00">createdDate </text>
<text text-anchor="start" x="465.9" y="-370.4" font-family="Arial" font-size="14.00" fill="#666666">[datetime]</text>
<polygon fill="none" stroke="black" stroke-width="3" points="377.25,-356.7 377.25,-549.3 745.68,-549.3 745.68,-356.7 377.25,-356.7"/>
</g>
<!-- settlementWindow -->
<g id="node2" class="node">
<title>settlementWindow</title>
<polygon fill="#efefef" stroke="none" points="424.23,-181.8 424.23,-217.4 698.69,-217.4 698.69,-181.8 424.23,-181.8"/>
<polygon fill="none" stroke="black" points="424.23,-181.8 424.23,-217.4 698.69,-217.4 698.69,-181.8 424.23,-181.8"/>
<text text-anchor="start" x="431.23" y="-195.2" font-family="Arial Bold" font-size="18.00">settlementWindow</text>
<text text-anchor="start" x="567.2" y="-195.2" font-family="Arial" font-size="14.00">    </text>
<text text-anchor="start" x="598.32" y="-195.2" font-family="Arial" font-size="14.00" fill="#666666">[BASE TABLE]</text>
<polygon fill="none" stroke="black" points="424.23,-151 424.23,-181.8 698.69,-181.8 698.69,-151 424.23,-151"/>
<text text-anchor="start" x="431.23" y="-163.2" font-family="Arial" font-size="14.00">settlementWindowId </text>
<text text-anchor="start" x="561.18" y="-163.2" font-family="Arial" font-size="14.00" fill="#666666">[bigint unsigned]</text>
<polygon fill="none" stroke="black" points="424.23,-120.2 424.23,-151 698.69,-151 698.69,-120.2 424.23,-120.2"/>
<text text-anchor="start" x="431.23" y="-132.4" font-family="Arial" font-size="14.00">reason </text>
<text text-anchor="start" x="477.93" y="-132.4" font-family="Arial" font-size="14.00" fill="#666666">[varchar(512)]</text>
<polygon fill="none" stroke="black" points="424.23,-89.4 424.23,-120.2 698.69,-120.2 698.69,-89.4 424.23,-89.4"/>
<text text-anchor="start" x="431.23" y="-101.6" font-family="Arial" font-size="14.00">createdDate </text>
<text text-anchor="start" x="511.39" y="-101.6" font-family="Arial" font-size="14.00" fill="#666666">[datetime]</text>
<polygon fill="none" stroke="black" points="424.23,-58.6 424.23,-89.4 698.69,-89.4 698.69,-58.6 424.23,-58.6"/>
<text text-anchor="start" x="431.23" y="-70.8" font-family="Arial" font-size="14.00">currentStateChangeId </text>
<text text-anchor="start" x="572.1" y="-70.8" font-family="Arial" font-size="14.00" fill="#666666">[bigint unsigned]</text>
</g>
<!-- settlementWindowStateChange&#45;&gt;settlementWindow -->
<g id="edge2" class="edge">
<title>settlementWindowStateChange:settlementWindowId&#45;&gt;settlementWindow:settlementWindowId</title>
<path fill="none" stroke="black" d="M752.52,-458.89C770.6,-413.52 730.27,-166.4 699.69,-166.4"/>
<polygon fill="black" stroke="black" points="752.6,-458.81 742.29,-462.53 748.77,-462.52 745.66,-465.53 745.66,-465.53 745.66,-465.53 748.77,-462.52 748.55,-469 752.6,-458.81"/>
<text text-anchor="start" x="752.18" y="-476" font-family="Arial" font-size="10.00">FOREIGN KEY (settlementWindowId) REFERENCES settlementWindow (settlementWindowId)</text>
</g>
<!-- settlementWindowState -->
<g id="node3" class="node">
<title>settlementWindowState</title>
<polygon fill="#efefef" stroke="none" points="803.24,-197.2 803.24,-232.8 1113.68,-232.8 1113.68,-197.2 803.24,-197.2"/>
<polygon fill="none" stroke="black" points="803.24,-197.2 803.24,-232.8 1113.68,-232.8 1113.68,-197.2 803.24,-197.2"/>
<text text-anchor="start" x="810.24" y="-210.6" font-family="Arial Bold" font-size="18.00">settlementWindowState</text>
<text text-anchor="start" x="982.2" y="-210.6" font-family="Arial" font-size="14.00">    </text>
<text text-anchor="start" x="1013.31" y="-210.6" font-family="Arial" font-size="14.00" fill="#666666">[BASE TABLE]</text>
<polygon fill="none" stroke="black" points="803.24,-166.4 803.24,-197.2 1113.68,-197.2 1113.68,-166.4 803.24,-166.4"/>
<text text-anchor="start" x="810.24" y="-178.6" font-family="Arial" font-size="14.00">settlementWindowStateId </text>
<text text-anchor="start" x="972.87" y="-178.6" font-family="Arial" font-size="14.00" fill="#666666">[varchar(50)]</text>
<polygon fill="none" stroke="black" points="803.24,-135.6 803.24,-166.4 1113.68,-166.4 1113.68,-135.6 803.24,-135.6"/>
<text text-anchor="start" x="810.24" y="-147.8" font-family="Arial" font-size="14.00">enumeration </text>
<text text-anchor="start" x="891.95" y="-147.8" font-family="Arial" font-size="14.00" fill="#666666">[varchar(50)]</text>
<polygon fill="none" stroke="black" points="803.24,-104.8 803.24,-135.6 1113.68,-135.6 1113.68,-104.8 803.24,-104.8"/>
<text text-anchor="start" x="810.24" y="-117" font-family="Arial" font-size="14.00">description </text>
<text text-anchor="start" x="881.83" y="-117" font-family="Arial" font-size="14.00" fill="#666666">[varchar(512)]</text>
<polygon fill="none" stroke="black" points="803.24,-74 803.24,-104.8 1113.68,-104.8 1113.68,-74 803.24,-74"/>
<text text-anchor="start" x="810.24" y="-86.2" font-family="Arial" font-size="14.00">isActive </text>
<text text-anchor="start" x="862.36" y="-86.2" font-family="Arial" font-size="14.00" fill="#666666">[tinyint(1)]</text>
<polygon fill="none" stroke="black" points="803.24,-43.2 803.24,-74 1113.68,-74 1113.68,-43.2 803.24,-43.2"/>
<text text-anchor="start" x="810.24" y="-55.4" font-family="Arial" font-size="14.00">createdDate </text>
<text text-anchor="start" x="890.4" y="-55.4" font-family="Arial" font-size="14.00" fill="#666666">[datetime]</text>
</g>
<!-- settlementWindowStateChange&#45;&gt;settlementWindowState -->
<g id="edge3" class="edge">
<title>settlementWindowStateChange:settlementWindowStateId&#45;&gt;settlementWindowState:settlementWindowStateId</title>
<path fill="none" stroke="black" d="M755.46,-434.43C849.72,-419.13 690.52,-181.8 802.24,-181.8"/>
<polygon fill="black" stroke="black" points="755.48,-434.43 745.17,-430.69 750.16,-434.83 745.84,-435.15 745.84,-435.15 745.84,-435.15 750.16,-434.83 745.85,-439.66 755.48,-434.43"/>
<text text-anchor="start" x="752.18" y="-445.2" font-family="Arial" font-size="10.00">FOREIGN KEY (settlementWindowStateId) REFERENCES settlementWindowState (settlementWindowStateId)</text>
</g>
<!-- settlementWindow&#45;&gt;settlementWindowStateChange -->
<g id="edge1" class="edge">
<title>settlementWindow:currentStateChangeId&#45;&gt;settlementWindowStateChange:settlementWindowStateChangeId</title>
<path fill="none" stroke="black" d="M562.19,-47.42C572.43,20.32 687.64,-4.54 741.89,-58.6 750.96,-67.64 751.89,-496.8 745.18,-496.8"/>
<polygon fill="black" stroke="black" points="562.2,-47.29 557,-56.94 561.82,-52.61 561.51,-56.93 561.51,-56.93 561.51,-56.93 561.82,-52.61 565.97,-57.59 562.2,-47.29"/>
<text text-anchor="start" x="7" y="-67.6" font-family="Arial" font-size="10.00">FOREIGN KEY (currentStateChangeId) REFERENCES settlementWindowStateChange (settlementWindowStateChangeId)</text>
</g>
</g>
</svg>
