<?xml version="1.0" encoding="UTF-8" standalone="no"?>
<!DOCTYPE svg PUBLIC "-//W3C//DTD SVG 1.1//EN"
 "http://www.w3.org/Graphics/SVG/1.1/DTD/svg11.dtd">
<!-- Generated by graphviz version 12.1.2 (20240928.0832)
 -->
<!-- Title: settlementParticipantCurrency Pages: 1 -->
<svg width="1641pt" height="540pt"
 viewBox="0.00 0.00 1641.08 540.40" xmlns="http://www.w3.org/2000/svg" xmlns:xlink="http://www.w3.org/1999/xlink">
<g id="graph0" class="graph" transform="scale(1 1) rotate(0) translate(4 536.4)">
<title>settlementParticipantCurrency</title>
<polygon fill="white" stroke="none" points="-4,4 -4,-536.4 1637.08,-536.4 1637.08,4 -4,4"/>
<!-- settlementParticipantCurrency -->
<g id="node1" class="node">
<title>settlementParticipantCurrency</title>
<polygon fill="#efefef" stroke="none" points="666.95,-450.6 666.95,-486.2 1024.37,-486.2 1024.37,-450.6 666.95,-450.6"/>
<polygon fill="none" stroke="black" points="666.95,-450.6 666.95,-486.2 1024.37,-486.2 1024.37,-450.6 666.95,-450.6"/>
<text text-anchor="start" x="673.95" y="-464" font-family="Arial Bold" font-size="18.00">settlementParticipantCurrency</text>
<text text-anchor="start" x="892.88" y="-464" font-family="Arial" font-size="14.00">    </text>
<text text-anchor="start" x="924" y="-464" font-family="Arial" font-size="14.00" fill="#666666">[BASE TABLE]</text>
<polygon fill="none" stroke="black" points="666.95,-419.8 666.95,-450.6 1024.37,-450.6 1024.37,-419.8 666.95,-419.8"/>
<text text-anchor="start" x="673.95" y="-432" font-family="Arial" font-size="14.00">settlementParticipantCurrencyId </text>
<text text-anchor="start" x="877.04" y="-432" font-family="Arial" font-size="14.00" fill="#666666">[bigint unsigned]</text>
<polygon fill="none" stroke="black" points="666.95,-389 666.95,-419.8 1024.37,-419.8 1024.37,-389 666.95,-389"/>
<text text-anchor="start" x="673.95" y="-401.2" font-family="Arial" font-size="14.00">settlementId </text>
<text text-anchor="start" x="754.1" y="-401.2" font-family="Arial" font-size="14.00" fill="#666666">[bigint unsigned]</text>
<polygon fill="none" stroke="black" points="666.95,-358.2 666.95,-389 1024.37,-389 1024.37,-358.2 666.95,-358.2"/>
<text text-anchor="start" x="673.95" y="-370.4" font-family="Arial" font-size="14.00">participantCurrencyId </text>
<text text-anchor="start" x="810.9" y="-370.4" font-family="Arial" font-size="14.00" fill="#666666">[int unsigned]</text>
<polygon fill="none" stroke="black" points="666.95,-327.4 666.95,-358.2 1024.37,-358.2 1024.37,-327.4 666.95,-327.4"/>
<text text-anchor="start" x="673.95" y="-339.6" font-family="Arial" font-size="14.00">currentStateChangeId </text>
<text text-anchor="start" x="814.82" y="-339.6" font-family="Arial" font-size="14.00" fill="#666666">[bigint unsigned]</text>
<polygon fill="none" stroke="black" stroke-width="3" points="665.45,-325.9 665.45,-487.7 1025.87,-487.7 1025.87,-325.9 665.45,-325.9"/>
</g>
<!-- settlementParticipantCurrencyStateChange -->
<g id="node2" class="node">
<title>settlementParticipantCurrencyStateChange</title>
<polygon fill="#efefef" stroke="none" points="393.47,-151 393.47,-186.6 841.86,-186.6 841.86,-151 393.47,-151"/>
<polygon fill="none" stroke="black" points="393.47,-151 393.47,-186.6 841.86,-186.6 841.86,-151 393.47,-151"/>
<text text-anchor="start" x="400.47" y="-164.4" font-family="Arial Bold" font-size="18.00">settlementParticipantCurrencyStateChange</text>
<text text-anchor="start" x="710.37" y="-164.4" font-family="Arial" font-size="14.00">    </text>
<text text-anchor="start" x="741.48" y="-164.4" font-family="Arial" font-size="14.00" fill="#666666">[BASE TABLE]</text>
<polygon fill="none" stroke="black" points="393.47,-120.2 393.47,-151 841.86,-151 841.86,-120.2 393.47,-120.2"/>
<text text-anchor="start" x="400.47" y="-132.4" font-family="Arial" font-size="14.00">settlementParticipantCurrencyStateChangeId </text>
<text text-anchor="start" x="685.28" y="-132.4" font-family="Arial" font-size="14.00" fill="#666666">[bigint unsigned]</text>
<polygon fill="none" stroke="black" points="393.47,-89.4 393.47,-120.2 841.86,-120.2 841.86,-89.4 393.47,-89.4"/>
<text text-anchor="start" x="400.47" y="-101.6" font-family="Arial" font-size="14.00">settlementParticipantCurrencyId </text>
<text text-anchor="start" x="603.55" y="-101.6" font-family="Arial" font-size="14.00" fill="#666666">[bigint unsigned]</text>
<polygon fill="none" stroke="black" points="393.47,-58.6 393.47,-89.4 841.86,-89.4 841.86,-58.6 393.47,-58.6"/>
<text text-anchor="start" x="400.47" y="-70.8" font-family="Arial" font-size="14.00">settlementStateId </text>
<text text-anchor="start" x="513.31" y="-70.8" font-family="Arial" font-size="14.00" fill="#666666">[varchar(50)]</text>
</g>
<!-- settlementParticipantCurrency&#45;&gt;settlementParticipantCurrencyStateChange -->
<g id="edge4" class="edge">
<title>settlementParticipantCurrency:currentStateChangeId&#45;&gt;settlementParticipantCurrencyStateChange:settlementParticipantCurrencyStateChangeId</title>
<path fill="none" stroke="black" d="M656.24,-340.36C642.18,-331.38 652.83,-299.75 666.95,-281.2 716.03,-216.73 792.97,-294.41 841.86,-229.8 867.12,-196.41 884.73,-135.6 842.86,-135.6"/>
<polygon fill="black" stroke="black" points="655.93,-340.28 664.53,-347.08 661.1,-341.58 665.3,-342.64 665.3,-342.64 665.3,-342.64 661.1,-341.58 666.73,-338.35 655.93,-340.28"/>
<text text-anchor="start" x="7" y="-352.8" font-family="Arial" font-size="10.00">FOREIGN KEY (currentStateChangeId) REFERENCES settlementParticipantCurrencyStateChange (settlementParticipantCurrencyStateChangeId)</text>
</g>
<!-- settlement -->
<g id="node3" class="node">
<title>settlement</title>
<polygon fill="#efefef" stroke="none" points="946.24,-151 946.24,-186.6 1203.08,-186.6 1203.08,-151 946.24,-151"/>
<polygon fill="none" stroke="black" points="946.24,-151 946.24,-186.6 1203.08,-186.6 1203.08,-151 946.24,-151"/>
<text text-anchor="start" x="975.43" y="-164.4" font-family="Arial Bold" font-size="18.00">settlement</text>
<text text-anchor="start" x="1049.41" y="-164.4" font-family="Arial" font-size="14.00">    </text>
<text text-anchor="start" x="1080.52" y="-164.4" font-family="Arial" font-size="14.00" fill="#666666">[BASE TABLE]</text>
<polygon fill="none" stroke="black" points="946.24,-120.2 946.24,-151 1203.08,-151 1203.08,-120.2 946.24,-120.2"/>
<text text-anchor="start" x="953.24" y="-132.4" font-family="Arial" font-size="14.00">settlementId </text>
<text text-anchor="start" x="1033.4" y="-132.4" font-family="Arial" font-size="14.00" fill="#666666">[bigint unsigned]</text>
<polygon fill="none" stroke="black" points="946.24,-89.4 946.24,-120.2 1203.08,-120.2 1203.08,-89.4 946.24,-89.4"/>
<text text-anchor="start" x="953.24" y="-101.6" font-family="Arial" font-size="14.00">currentStateChangeId </text>
<text text-anchor="start" x="1094.11" y="-101.6" font-family="Arial" font-size="14.00" fill="#666666">[bigint unsigned]</text>
<polygon fill="none" stroke="black" points="946.24,-58.6 946.24,-89.4 1203.08,-89.4 1203.08,-58.6 946.24,-58.6"/>
<text text-anchor="start" x="953.24" y="-70.8" font-family="Arial" font-size="14.00">settlementModelId </text>
<text text-anchor="start" x="1071.53" y="-70.8" font-family="Arial" font-size="14.00" fill="#666666">[int unsigned]</text>
</g>
<!-- settlementParticipantCurrency&#45;&gt;settlement -->
<g id="edge2" class="edge">
<title>settlementParticipantCurrency:settlementId&#45;&gt;settlement:settlementId</title>
<path fill="none" stroke="black" d="M1035.7,-403.32C1075.98,-393.97 1048.71,-325.91 1024.37,-281.2 1004.5,-244.7 966.16,-266.28 946.24,-229.8 926.18,-193.05 903.38,-135.6 945.24,-135.6"/>
<polygon fill="black" stroke="black" points="1035.65,-403.33 1025.23,-399.89 1030.34,-403.88 1026.03,-404.33 1026.03,-404.33 1026.03,-404.33 1030.34,-403.88 1026.17,-408.84 1035.65,-403.33"/>
<text text-anchor="start" x="1032.37" y="-414.4" font-family="Arial" font-size="10.00">FOREIGN KEY (settlementId) REFERENCES settlement (settlementId)</text>
</g>
<!-- participantCurrency -->
<g id="node4" class="node">
<title>participantCurrency</title>
<polygon fill="#efefef" stroke="none" points="1307.45,-166.4 1307.45,-202 1589.88,-202 1589.88,-166.4 1307.45,-166.4"/>
<polygon fill="none" stroke="black" points="1307.45,-166.4 1307.45,-202 1589.88,-202 1589.88,-166.4 1307.45,-166.4"/>
<text text-anchor="start" x="1314.45" y="-179.8" font-family="Arial Bold" font-size="18.00">participantCurrency</text>
<text text-anchor="start" x="1458.39" y="-179.8" font-family="Arial" font-size="14.00">    </text>
<text text-anchor="start" x="1489.5" y="-179.8" font-family="Arial" font-size="14.00" fill="#666666">[BASE TABLE]</text>
<polygon fill="none" stroke="black" points="1307.45,-135.6 1307.45,-166.4 1589.88,-166.4 1589.88,-135.6 1307.45,-135.6"/>
<text text-anchor="start" x="1314.45" y="-147.8" font-family="Arial" font-size="14.00">participantCurrencyId </text>
<text text-anchor="start" x="1451.4" y="-147.8" font-family="Arial" font-size="14.00" fill="#666666">[int unsigned]</text>
<polygon fill="none" stroke="black" points="1307.45,-104.8 1307.45,-135.6 1589.88,-135.6 1589.88,-104.8 1307.45,-104.8"/>
<text text-anchor="start" x="1314.45" y="-117" font-family="Arial" font-size="14.00">participantId </text>
<text text-anchor="start" x="1394.61" y="-117" font-family="Arial" font-size="14.00" fill="#666666">[int unsigned]</text>
<polygon fill="none" stroke="black" points="1307.45,-74 1307.45,-104.8 1589.88,-104.8 1589.88,-74 1307.45,-74"/>
<text text-anchor="start" x="1314.45" y="-86.2" font-family="Arial" font-size="14.00">currencyId </text>
<text text-anchor="start" x="1383.7" y="-86.2" font-family="Arial" font-size="14.00" fill="#666666">[varchar(3)]</text>
<polygon fill="none" stroke="black" points="1307.45,-43.2 1307.45,-74 1589.88,-74 1589.88,-43.2 1307.45,-43.2"/>
<text text-anchor="start" x="1314.45" y="-55.4" font-family="Arial" font-size="14.00">ledgerAccountTypeId </text>
<text text-anchor="start" x="1450.64" y="-55.4" font-family="Arial" font-size="14.00" fill="#666666">[int unsigned]</text>
</g>
<!-- settlementParticipantCurrency&#45;&gt;participantCurrency -->
<g id="edge3" class="edge">
<title>settlementParticipantCurrency:participantCurrencyId&#45;&gt;participantCurrency:participantCurrencyId</title>
<path fill="none" stroke="black" d="M1035.78,-373.48C1144.47,-370.84 1175.88,-326.12 1255.66,-245.2 1289.05,-211.33 1258.88,-151 1306.45,-151"/>
<polygon fill="black" stroke="black" points="1035.7,-373.48 1025.65,-369.1 1030.37,-373.54 1026.04,-373.59 1026.04,-373.59 1026.04,-373.59 1030.37,-373.54 1025.76,-378.1 1035.7,-373.48"/>
<text text-anchor="start" x="1032.37" y="-383.6" font-family="Arial" font-size="10.00">FOREIGN KEY (participantCurrencyId) REFERENCES participantCurrency (participantCurrencyId)</text>
</g>
<!-- settlementParticipantCurrencyStateChange&#45;&gt;settlementParticipantCurrency -->
<g id="edge1" class="edge">
<title>settlementParticipantCurrencyStateChange:settlementParticipantCurrencyId&#45;&gt;settlementParticipantCurrency:settlementParticipantCurrencyId</title>
<path fill="none" stroke="black" d="M853.17,-105.89C895.21,-115.66 873.04,-188.49 841.86,-229.8 793.05,-294.47 715.71,-216.49 666.95,-281.2 625.76,-335.87 597.51,-435.2 665.95,-435.2"/>
<polygon fill="black" stroke="black" points="853.13,-105.89 843.66,-100.36 847.83,-105.33 843.52,-104.87 843.52,-104.87 843.52,-104.87 847.83,-105.33 842.72,-109.31 853.13,-105.89"/>
<text text-anchor="start" x="256.22" y="-114.8" font-family="Arial" font-size="10.00">FOREIGN KEY (settlementParticipantCurrencyId) REFERENCES settlementParticipantCurrency (settlementParticipantCurrencyId)</text>
</g>
</g>
</svg>
