<?xml version="1.0" encoding="UTF-8" standalone="no"?>
<!DOCTYPE svg PUBLIC "-//W3C//DTD SVG 1.1//EN"
 "http://www.w3.org/Graphics/SVG/1.1/DTD/svg11.dtd">
<!-- Generated by graphviz version 12.1.2 (20240928.0832)
 -->
<!-- Title: settlementParticipantCurrencyStateChange Pages: 1 -->
<svg width="1493pt" height="510pt"
 viewBox="0.00 0.00 1492.79 509.60" xmlns="http://www.w3.org/2000/svg" xmlns:xlink="http://www.w3.org/1999/xlink">
<g id="graph0" class="graph" transform="scale(1 1) rotate(0) translate(4 505.6)">
<title>settlementParticipantCurrencyStateChange</title>
<polygon fill="white" stroke="none" points="-4,4 -4,-505.6 1488.79,-505.6 1488.79,4 -4,4"/>
<!-- settlementParticipantCurrencyStateChange -->
<g id="node1" class="node">
<title>settlementParticipantCurrencyStateChange</title>
<polygon fill="#efefef" stroke="none" points="441.76,-419.8 441.76,-455.4 890.15,-455.4 890.15,-419.8 441.76,-419.8"/>
<polygon fill="none" stroke="black" points="441.76,-419.8 441.76,-455.4 890.15,-455.4 890.15,-419.8 441.76,-419.8"/>
<text text-anchor="start" x="448.76" y="-433.2" font-family="Arial Bold" font-size="18.00">settlementParticipantCurrencyStateChange</text>
<text text-anchor="start" x="758.66" y="-433.2" font-family="Arial" font-size="14.00">    </text>
<text text-anchor="start" x="789.78" y="-433.2" font-family="Arial" font-size="14.00" fill="#666666">[BASE TABLE]</text>
<polygon fill="none" stroke="black" points="441.76,-389 441.76,-419.8 890.15,-419.8 890.15,-389 441.76,-389"/>
<text text-anchor="start" x="448.76" y="-401.2" font-family="Arial" font-size="14.00">settlementParticipantCurrencyStateChangeId </text>
<text text-anchor="start" x="733.58" y="-401.2" font-family="Arial" font-size="14.00" fill="#666666">[bigint unsigned]</text>
<polygon fill="none" stroke="black" points="441.76,-358.2 441.76,-389 890.15,-389 890.15,-358.2 441.76,-358.2"/>
<text text-anchor="start" x="448.76" y="-370.4" font-family="Arial" font-size="14.00">settlementParticipantCurrencyId </text>
<text text-anchor="start" x="651.85" y="-370.4" font-family="Arial" font-size="14.00" fill="#666666">[bigint unsigned]</text>
<polygon fill="none" stroke="black" points="441.76,-327.4 441.76,-358.2 890.15,-358.2 890.15,-327.4 441.76,-327.4"/>
<text text-anchor="start" x="448.76" y="-339.6" font-family="Arial" font-size="14.00">settlementStateId </text>
<text text-anchor="start" x="561.6" y="-339.6" font-family="Arial" font-size="14.00" fill="#666666">[varchar(50)]</text>
<polygon fill="none" stroke="black" stroke-width="3" points="440.26,-325.9 440.26,-456.9 891.65,-456.9 891.65,-325.9 440.26,-325.9"/>
</g>
<!-- settlementParticipantCurrency -->
<g id="node2" class="node">
<title>settlementParticipantCurrency</title>
<polygon fill="#efefef" stroke="none" points="487.25,-166.4 487.25,-202 844.66,-202 844.66,-166.4 487.25,-166.4"/>
<polygon fill="none" stroke="black" points="487.25,-166.4 487.25,-202 844.66,-202 844.66,-166.4 487.25,-166.4"/>
<text text-anchor="start" x="494.25" y="-179.8" font-family="Arial Bold" font-size="18.00">settlementParticipantCurrency</text>
<text text-anchor="start" x="713.17" y="-179.8" font-family="Arial" font-size="14.00">    </text>
<text text-anchor="start" x="744.29" y="-179.8" font-family="Arial" font-size="14.00" fill="#666666">[BASE TABLE]</text>
<polygon fill="none" stroke="black" points="487.25,-135.6 487.25,-166.4 844.66,-166.4 844.66,-135.6 487.25,-135.6"/>
<text text-anchor="start" x="494.25" y="-147.8" font-family="Arial" font-size="14.00">settlementParticipantCurrencyId </text>
<text text-anchor="start" x="697.33" y="-147.8" font-family="Arial" font-size="14.00" fill="#666666">[bigint unsigned]</text>
<polygon fill="none" stroke="black" points="487.25,-104.8 487.25,-135.6 844.66,-135.6 844.66,-104.8 487.25,-104.8"/>
<text text-anchor="start" x="494.25" y="-117" font-family="Arial" font-size="14.00">settlementId </text>
<text text-anchor="start" x="574.4" y="-117" font-family="Arial" font-size="14.00" fill="#666666">[bigint unsigned]</text>
<polygon fill="none" stroke="black" points="487.25,-74 487.25,-104.8 844.66,-104.8 844.66,-74 487.25,-74"/>
<text text-anchor="start" x="494.25" y="-86.2" font-family="Arial" font-size="14.00">participantCurrencyId </text>
<text text-anchor="start" x="631.2" y="-86.2" font-family="Arial" font-size="14.00" fill="#666666">[int unsigned]</text>
<polygon fill="none" stroke="black" points="487.25,-43.2 487.25,-74 844.66,-74 844.66,-43.2 487.25,-43.2"/>
<text text-anchor="start" x="494.25" y="-55.4" font-family="Arial" font-size="14.00">currentStateChangeId </text>
<text text-anchor="start" x="635.11" y="-55.4" font-family="Arial" font-size="14.00" fill="#666666">[bigint unsigned]</text>
</g>
<!-- settlementParticipantCurrencyStateChange&#45;&gt;settlementParticipantCurrency -->
<g id="edge2" class="edge">
<title>settlementParticipantCurrencyStateChange:settlementParticipantCurrencyId&#45;&gt;settlementParticipantCurrency:settlementParticipantCurrencyId</title>
<path fill="none" stroke="black" d="M897.26,-365.15C906.01,-324.49 867.95,-151 845.66,-151"/>
<polygon fill="black" stroke="black" points="897.2,-365.22 887.7,-370.69 894.08,-369.55 891.54,-373.06 891.54,-373.06 891.54,-373.06 894.08,-369.55 894.99,-375.96 897.2,-365.22"/>
<text text-anchor="start" x="898.15" y="-383.6" font-family="Arial" font-size="10.00">FOREIGN KEY (settlementParticipantCurrencyId) REFERENCES settlementParticipantCurrency (settlementParticipantCurrencyId)</text>
</g>
<!-- settlementState -->
<g id="node3" class="node">
<title>settlementState</title>
<polygon fill="#efefef" stroke="none" points="948.72,-120.2 948.72,-155.8 1197.18,-155.8 1197.18,-120.2 948.72,-120.2"/>
<polygon fill="none" stroke="black" points="948.72,-120.2 948.72,-155.8 1197.18,-155.8 1197.18,-120.2 948.72,-120.2"/>
<text text-anchor="start" x="955.72" y="-133.6" font-family="Arial Bold" font-size="18.00">settlementState</text>
<text text-anchor="start" x="1065.69" y="-133.6" font-family="Arial" font-size="14.00">    </text>
<text text-anchor="start" x="1096.81" y="-133.6" font-family="Arial" font-size="14.00" fill="#666666">[BASE TABLE]</text>
<polygon fill="none" stroke="black" points="948.72,-89.4 948.72,-120.2 1197.18,-120.2 1197.18,-89.4 948.72,-89.4"/>
<text text-anchor="start" x="955.72" y="-101.6" font-family="Arial" font-size="14.00">settlementStateId </text>
<text text-anchor="start" x="1068.56" y="-101.6" font-family="Arial" font-size="14.00" fill="#666666">[varchar(50)]</text>
</g>
<!-- settlementParticipantCurrencyStateChange&#45;&gt;settlementState -->
<g id="edge3" class="edge">
<title>settlementParticipantCurrencyStateChange:settlementStateId&#45;&gt;settlementState:settlementStateId</title>
<path fill="none" stroke="black" d="M901.37,-341.98C989.19,-326.81 842.72,-104.8 947.72,-104.8"/>
<polygon fill="black" stroke="black" points="901.45,-341.98 891.12,-338.29 896.13,-342.4 891.82,-342.75 891.82,-342.75 891.82,-342.75 896.13,-342.4 891.84,-347.26 901.45,-341.98"/>
<text text-anchor="start" x="898.15" y="-352.8" font-family="Arial" font-size="10.00">FOREIGN KEY (settlementStateId) REFERENCES settlementState (settlementStateId)</text>
</g>
<!-- settlementParticipantCurrency&#45;&gt;settlementParticipantCurrencyStateChange -->
<g id="edge1" class="edge">
<title>settlementParticipantCurrency:currentStateChangeId&#45;&gt;settlementParticipantCurrencyStateChange:settlementParticipantCurrencyStateChangeId</title>
<path fill="none" stroke="black" d="M668.9,-32.27C692.87,4.7 855.5,-11 887.86,-43.2 897.26,-52.55 895.99,-404.4 891.15,-404.4"/>
<polygon fill="black" stroke="black" points="668.9,-32.29 661.73,-40.6 667.38,-37.41 666.14,-41.56 666.14,-41.56 666.14,-41.56 667.38,-37.41 670.36,-43.16 668.9,-32.29"/>
<text text-anchor="start" x="7" y="-52.2" font-family="Arial" font-size="10.00">FOREIGN KEY (currentStateChangeId) REFERENCES settlementParticipantCurrencyStateChange (settlementParticipantCurrencyStateChangeId)</text>
</g>
</g>
</svg>
