<?xml version="1.0" encoding="UTF-8" standalone="no"?>
<!DOCTYPE svg PUBLIC "-//W3C//DTD SVG 1.1//EN"
 "http://www.w3.org/Graphics/SVG/1.1/DTD/svg11.dtd">
<!-- Generated by graphviz version 12.1.2 (20240928.0832)
 -->
<!-- Title: settlementStateChange Pages: 1 -->
<svg width="922pt" height="479pt"
 viewBox="0.00 0.00 921.88 478.80" xmlns="http://www.w3.org/2000/svg" xmlns:xlink="http://www.w3.org/1999/xlink">
<g id="graph0" class="graph" transform="scale(1 1) rotate(0) translate(4 474.8)">
<title>settlementStateChange</title>
<polygon fill="white" stroke="none" points="-4,4 -4,-474.8 917.88,-474.8 917.88,4 -4,4"/>
<!-- settlementStateChange -->
<g id="node1" class="node">
<title>settlementStateChange</title>
<polygon fill="#efefef" stroke="none" points="209.19,-389 209.19,-424.6 512.63,-424.6 512.63,-389 209.19,-389"/>
<polygon fill="none" stroke="black" points="209.19,-389 209.19,-424.6 512.63,-424.6 512.63,-389 209.19,-389"/>
<text text-anchor="start" x="216.19" y="-402.4" font-family="Arial Bold" font-size="18.00">settlementStateChange</text>
<text text-anchor="start" x="381.14" y="-402.4" font-family="Arial" font-size="14.00">    </text>
<text text-anchor="start" x="412.26" y="-402.4" font-family="Arial" font-size="14.00" fill="#666666">[BASE TABLE]</text>
<polygon fill="none" stroke="black" points="209.19,-358.2 209.19,-389 512.63,-389 512.63,-358.2 209.19,-358.2"/>
<text text-anchor="start" x="216.19" y="-370.4" font-family="Arial" font-size="14.00">settlementStateChangeId </text>
<text text-anchor="start" x="378.07" y="-370.4" font-family="Arial" font-size="14.00" fill="#666666">[bigint unsigned]</text>
<polygon fill="none" stroke="black" points="209.19,-327.4 209.19,-358.2 512.63,-358.2 512.63,-327.4 209.19,-327.4"/>
<text text-anchor="start" x="216.19" y="-339.6" font-family="Arial" font-size="14.00">settlementId </text>
<text text-anchor="start" x="296.34" y="-339.6" font-family="Arial" font-size="14.00" fill="#666666">[bigint unsigned]</text>
<polygon fill="none" stroke="black" points="209.19,-296.6 209.19,-327.4 512.63,-327.4 512.63,-296.6 209.19,-296.6"/>
<text text-anchor="start" x="216.19" y="-308.8" font-family="Arial" font-size="14.00">settlementStateId </text>
<text text-anchor="start" x="329.03" y="-308.8" font-family="Arial" font-size="14.00" fill="#666666">[varchar(50)]</text>
<polygon fill="none" stroke="black" stroke-width="3" points="207.69,-295.1 207.69,-426.1 514.13,-426.1 514.13,-295.1 207.69,-295.1"/>
</g>
<!-- settlement -->
<g id="node2" class="node">
<title>settlement</title>
<polygon fill="#efefef" stroke="none" points="232.5,-135.6 232.5,-171.2 489.33,-171.2 489.33,-135.6 232.5,-135.6"/>
<polygon fill="none" stroke="black" points="232.5,-135.6 232.5,-171.2 489.33,-171.2 489.33,-135.6 232.5,-135.6"/>
<text text-anchor="start" x="261.68" y="-149" font-family="Arial Bold" font-size="18.00">settlement</text>
<text text-anchor="start" x="335.66" y="-149" font-family="Arial" font-size="14.00">    </text>
<text text-anchor="start" x="366.77" y="-149" font-family="Arial" font-size="14.00" fill="#666666">[BASE TABLE]</text>
<polygon fill="none" stroke="black" points="232.5,-104.8 232.5,-135.6 489.33,-135.6 489.33,-104.8 232.5,-104.8"/>
<text text-anchor="start" x="239.5" y="-117" font-family="Arial" font-size="14.00">settlementId </text>
<text text-anchor="start" x="319.65" y="-117" font-family="Arial" font-size="14.00" fill="#666666">[bigint unsigned]</text>
<polygon fill="none" stroke="black" points="232.5,-74 232.5,-104.8 489.33,-104.8 489.33,-74 232.5,-74"/>
<text text-anchor="start" x="239.5" y="-86.2" font-family="Arial" font-size="14.00">currentStateChangeId </text>
<text text-anchor="start" x="380.36" y="-86.2" font-family="Arial" font-size="14.00" fill="#666666">[bigint unsigned]</text>
<polygon fill="none" stroke="black" points="232.5,-43.2 232.5,-74 489.33,-74 489.33,-43.2 232.5,-43.2"/>
<text text-anchor="start" x="239.5" y="-55.4" font-family="Arial" font-size="14.00">settlementModelId </text>
<text text-anchor="start" x="357.78" y="-55.4" font-family="Arial" font-size="14.00" fill="#666666">[int unsigned]</text>
</g>
<!-- settlementStateChange&#45;&gt;settlement -->
<g id="edge2" class="edge">
<title>settlementStateChange:settlementId&#45;&gt;settlement:settlementId</title>
<path fill="none" stroke="black" d="M523.06,-339.65C559.96,-312.6 536.57,-120.2 490.33,-120.2"/>
<polygon fill="black" stroke="black" points="523.44,-339.53 512.52,-338.43 518.38,-341.22 514.27,-342.59 514.27,-342.59 514.27,-342.59 518.38,-341.22 515.38,-346.96 523.44,-339.53"/>
<text text-anchor="start" x="520.63" y="-352.8" font-family="Arial" font-size="10.00">FOREIGN KEY (settlementId) REFERENCES settlement (settlementId)</text>
</g>
<!-- settlementState -->
<g id="node3" class="node">
<title>settlementState</title>
<polygon fill="#efefef" stroke="none" points="593.68,-104.8 593.68,-140.4 842.14,-140.4 842.14,-104.8 593.68,-104.8"/>
<polygon fill="none" stroke="black" points="593.68,-104.8 593.68,-140.4 842.14,-140.4 842.14,-104.8 593.68,-104.8"/>
<text text-anchor="start" x="600.68" y="-118.2" font-family="Arial Bold" font-size="18.00">settlementState</text>
<text text-anchor="start" x="710.65" y="-118.2" font-family="Arial" font-size="14.00">    </text>
<text text-anchor="start" x="741.77" y="-118.2" font-family="Arial" font-size="14.00" fill="#666666">[BASE TABLE]</text>
<polygon fill="none" stroke="black" points="593.68,-74 593.68,-104.8 842.14,-104.8 842.14,-74 593.68,-74"/>
<text text-anchor="start" x="600.68" y="-86.2" font-family="Arial" font-size="14.00">settlementStateId </text>
<text text-anchor="start" x="713.52" y="-86.2" font-family="Arial" font-size="14.00" fill="#666666">[varchar(50)]</text>
</g>
<!-- settlementStateChange&#45;&gt;settlementState -->
<g id="edge3" class="edge">
<title>settlementStateChange:settlementStateId&#45;&gt;settlementState:settlementStateId</title>
<path fill="none" stroke="black" d="M523.85,-311.19C609.71,-296.62 491.39,-89.4 592.68,-89.4"/>
<polygon fill="black" stroke="black" points="523.94,-311.19 513.61,-307.49 518.62,-311.61 514.3,-311.95 514.3,-311.95 514.3,-311.95 518.62,-311.61 514.32,-316.46 523.94,-311.19"/>
<text text-anchor="start" x="520.63" y="-322" font-family="Arial" font-size="10.00">FOREIGN KEY (settlementStateId) REFERENCES settlementState (settlementStateId)</text>
</g>
<!-- settlement&#45;&gt;settlementStateChange -->
<g id="edge1" class="edge">
<title>settlement:currentStateChangeId&#45;&gt;settlementStateChange:settlementStateChangeId</title>
<path fill="none" stroke="black" d="M498.46,-95.6C525.68,-137.16 542.53,-373.6 513.63,-373.6"/>
<polygon fill="black" stroke="black" points="498.54,-95.67 493.32,-86.02 494.3,-92.43 490.86,-89.81 490.86,-89.81 490.86,-89.81 494.3,-92.43 487.86,-93.18 498.54,-95.67"/>
<text text-anchor="start" x="7" y="-99.4" font-family="Arial" font-size="10.00">FOREIGN KEY (currentStateChangeId) REFERENCES settlementStateChange (settlementStateChangeId)</text>
</g>
</g>
</svg>
