<?xml version="1.0" encoding="UTF-8" standalone="no"?>
<!DOCTYPE svg PUBLIC "-//W3C//DTD SVG 1.1//EN"
 "http://www.w3.org/Graphics/SVG/1.1/DTD/svg11.dtd">
<!-- Generated by graphviz version 12.1.2 (20240928.0832)
 -->
<!-- Title: settlementWindowContentStateChange Pages: 1 -->
<svg width="1227pt" height="602pt"
 viewBox="0.00 0.00 1226.97 602.00" xmlns="http://www.w3.org/2000/svg" xmlns:xlink="http://www.w3.org/1999/xlink">
<g id="graph0" class="graph" transform="scale(1 1) rotate(0) translate(4 598)">
<title>settlementWindowContentStateChange</title>
<polygon fill="white" stroke="none" points="-4,4 -4,-598 1222.97,-598 1222.97,4 -4,4"/>
<!-- settlementWindowContentStateChange -->
<g id="node1" class="node">
<title>settlementWindowContentStateChange</title>
<polygon fill="#efefef" stroke="none" points="253.57,-512.2 253.57,-547.8 676,-547.8 676,-512.2 253.57,-512.2"/>
<polygon fill="none" stroke="black" points="253.57,-512.2 253.57,-547.8 676,-547.8 676,-512.2 253.57,-512.2"/>
<text text-anchor="start" x="260.57" y="-525.6" font-family="Arial Bold" font-size="18.00">settlementWindowContentStateChange</text>
<text text-anchor="start" x="544.51" y="-525.6" font-family="Arial" font-size="14.00">    </text>
<text text-anchor="start" x="575.63" y="-525.6" font-family="Arial" font-size="14.00" fill="#666666">[BASE TABLE]</text>
<polygon fill="none" stroke="black" points="253.57,-481.4 253.57,-512.2 676,-512.2 676,-481.4 253.57,-481.4"/>
<text text-anchor="start" x="260.57" y="-493.6" font-family="Arial" font-size="14.00">settlementWindowContentStateChangeId </text>
<text text-anchor="start" x="521.28" y="-493.6" font-family="Arial" font-size="14.00" fill="#666666">[bigint unsigned]</text>
<polygon fill="none" stroke="black" points="253.57,-450.6 253.57,-481.4 676,-481.4 676,-450.6 253.57,-450.6"/>
<text text-anchor="start" x="260.57" y="-462.8" font-family="Arial" font-size="14.00">settlementWindowContentId </text>
<text text-anchor="start" x="439.55" y="-462.8" font-family="Arial" font-size="14.00" fill="#666666">[bigint unsigned]</text>
<polygon fill="none" stroke="black" points="253.57,-419.8 253.57,-450.6 676,-450.6 676,-419.8 253.57,-419.8"/>
<text text-anchor="start" x="260.57" y="-432" font-family="Arial" font-size="14.00">settlementWindowStateId </text>
<text text-anchor="start" x="423.2" y="-432" font-family="Arial" font-size="14.00" fill="#666666">[varchar(50)]</text>
<polygon fill="none" stroke="black" stroke-width="3" points="252.07,-418.3 252.07,-549.3 677.5,-549.3 677.5,-418.3 252.07,-418.3"/>
</g>
<!-- settlementWindowContent -->
<g id="node2" class="node">
<title>settlementWindowContent</title>
<polygon fill="#efefef" stroke="none" points="299.06,-258.8 299.06,-294.4 630.51,-294.4 630.51,-258.8 299.06,-258.8"/>
<polygon fill="none" stroke="black" points="299.06,-258.8 299.06,-294.4 630.51,-294.4 630.51,-258.8 299.06,-258.8"/>
<text text-anchor="start" x="306.06" y="-272.2" font-family="Arial Bold" font-size="18.00">settlementWindowContent</text>
<text text-anchor="start" x="499.02" y="-272.2" font-family="Arial" font-size="14.00">    </text>
<text text-anchor="start" x="530.14" y="-272.2" font-family="Arial" font-size="14.00" fill="#666666">[BASE TABLE]</text>
<polygon fill="none" stroke="black" points="299.06,-228 299.06,-258.8 630.51,-258.8 630.51,-228 299.06,-228"/>
<text text-anchor="start" x="306.06" y="-240.2" font-family="Arial" font-size="14.00">settlementWindowContentId </text>
<text text-anchor="start" x="485.04" y="-240.2" font-family="Arial" font-size="14.00" fill="#666666">[bigint unsigned]</text>
<polygon fill="none" stroke="black" points="299.06,-197.2 299.06,-228 630.51,-228 630.51,-197.2 299.06,-197.2"/>
<text text-anchor="start" x="306.06" y="-209.4" font-family="Arial" font-size="14.00">settlementWindowId </text>
<text text-anchor="start" x="436" y="-209.4" font-family="Arial" font-size="14.00" fill="#666666">[bigint unsigned]</text>
<polygon fill="none" stroke="black" points="299.06,-166.4 299.06,-197.2 630.51,-197.2 630.51,-166.4 299.06,-166.4"/>
<text text-anchor="start" x="306.06" y="-178.6" font-family="Arial" font-size="14.00">ledgerAccountTypeId </text>
<text text-anchor="start" x="442.25" y="-178.6" font-family="Arial" font-size="14.00" fill="#666666">[int unsigned]</text>
<polygon fill="none" stroke="black" points="299.06,-135.6 299.06,-166.4 630.51,-166.4 630.51,-135.6 299.06,-135.6"/>
<text text-anchor="start" x="306.06" y="-147.8" font-family="Arial" font-size="14.00">currencyId </text>
<text text-anchor="start" x="375.3" y="-147.8" font-family="Arial" font-size="14.00" fill="#666666">[varchar(3)]</text>
<polygon fill="none" stroke="black" points="299.06,-104.8 299.06,-135.6 630.51,-135.6 630.51,-104.8 299.06,-104.8"/>
<text text-anchor="start" x="306.06" y="-117" font-family="Arial" font-size="14.00">currentStateChangeId </text>
<text text-anchor="start" x="446.92" y="-117" font-family="Arial" font-size="14.00" fill="#666666">[bigint unsigned]</text>
<polygon fill="none" stroke="black" points="299.06,-74 299.06,-104.8 630.51,-104.8 630.51,-74 299.06,-74"/>
<text text-anchor="start" x="306.06" y="-86.2" font-family="Arial" font-size="14.00">settlementId </text>
<text text-anchor="start" x="386.21" y="-86.2" font-family="Arial" font-size="14.00" fill="#666666">[bigint unsigned]</text>
<polygon fill="none" stroke="black" points="299.06,-43.2 299.06,-74 630.51,-74 630.51,-43.2 299.06,-43.2"/>
<text text-anchor="start" x="306.06" y="-55.4" font-family="Arial" font-size="14.00">SettlementModelId </text>
<text text-anchor="start" x="426.68" y="-55.4" font-family="Arial" font-size="14.00" fill="#666666">[int unsigned]</text>
</g>
<!-- settlementWindowContentStateChange&#45;&gt;settlementWindowContent -->
<g id="edge2" class="edge">
<title>settlementWindowContentStateChange:settlementWindowContentId&#45;&gt;settlementWindowContent:settlementWindowContentId</title>
<path fill="none" stroke="black" d="M683.1,-457.55C691.86,-416.89 653.8,-243.4 631.51,-243.4"/>
<polygon fill="black" stroke="black" points="683.05,-457.62 673.55,-463.09 679.93,-461.95 677.39,-465.46 677.39,-465.46 677.39,-465.46 679.93,-461.95 680.84,-468.36 683.05,-457.62"/>
<text text-anchor="start" x="684" y="-476" font-family="Arial" font-size="10.00">FOREIGN KEY (settlementWindowContentId) REFERENCES settlementWindowContent (settlementWindowContentId)</text>
</g>
<!-- settlementWindowState -->
<g id="node3" class="node">
<title>settlementWindowState</title>
<polygon fill="#efefef" stroke="none" points="734.56,-166.4 734.56,-202 1045.01,-202 1045.01,-166.4 734.56,-166.4"/>
<polygon fill="none" stroke="black" points="734.56,-166.4 734.56,-202 1045.01,-202 1045.01,-166.4 734.56,-166.4"/>
<text text-anchor="start" x="741.56" y="-179.8" font-family="Arial Bold" font-size="18.00">settlementWindowState</text>
<text text-anchor="start" x="913.52" y="-179.8" font-family="Arial" font-size="14.00">    </text>
<text text-anchor="start" x="944.63" y="-179.8" font-family="Arial" font-size="14.00" fill="#666666">[BASE TABLE]</text>
<polygon fill="none" stroke="black" points="734.56,-135.6 734.56,-166.4 1045.01,-166.4 1045.01,-135.6 734.56,-135.6"/>
<text text-anchor="start" x="741.56" y="-147.8" font-family="Arial" font-size="14.00">settlementWindowStateId </text>
<text text-anchor="start" x="904.19" y="-147.8" font-family="Arial" font-size="14.00" fill="#666666">[varchar(50)]</text>
</g>
<!-- settlementWindowContentStateChange&#45;&gt;settlementWindowState -->
<g id="edge3" class="edge">
<title>settlementWindowContentStateChange:settlementWindowStateId&#45;&gt;settlementWindowState:settlementWindowStateId</title>
<path fill="none" stroke="black" d="M687.16,-434.53C794.66,-419.33 608.42,-151 733.56,-151"/>
<polygon fill="black" stroke="black" points="687.31,-434.52 677.03,-430.69 681.99,-434.87 677.67,-435.16 677.67,-435.16 677.67,-435.16 681.99,-434.87 677.63,-439.67 687.31,-434.52"/>
<text text-anchor="start" x="684" y="-445.2" font-family="Arial" font-size="10.00">FOREIGN KEY (settlementWindowStateId) REFERENCES settlementWindowState (settlementWindowStateId)</text>
</g>
<!-- settlementWindowContent&#45;&gt;settlementWindowContentStateChange -->
<g id="edge1" class="edge">
<title>settlementWindowContent:currentStateChangeId&#45;&gt;settlementWindowContentStateChange:settlementWindowContentStateChangeId</title>
<path fill="none" stroke="black" d="M637.57,-128.42C660.07,-183.49 696.22,-496.8 677,-496.8"/>
<polygon fill="black" stroke="black" points="637.64,-128.52 635.33,-117.8 634.48,-124.22 631.91,-120.74 631.91,-120.74 631.91,-120.74 634.48,-124.22 628.09,-123.14 637.64,-128.52"/>
<text text-anchor="start" x="7" y="-130.2" font-family="Arial" font-size="10.00">FOREIGN KEY (currentStateChangeId) REFERENCES settlementWindowContentStateChange (settlementWindowContentStateChangeId)</text>
</g>
</g>
</svg>
