<?xml version="1.0" encoding="UTF-8" standalone="no"?>
<!DOCTYPE svg PUBLIC "-//W3C//DTD SVG 1.1//EN"
 "http://www.w3.org/Graphics/SVG/1.1/DTD/svg11.dtd">
<!-- Generated by graphviz version 12.1.2 (20240928.0832)
 -->
<!-- Title: settlementParticipantCurrencyStateChange Pages: 1 -->
<svg width="1313pt" height="694pt"
 viewBox="0.00 0.00 1313.08 694.40" xmlns="http://www.w3.org/2000/svg" xmlns:xlink="http://www.w3.org/1999/xlink">
<g id="graph0" class="graph" transform="scale(1 1) rotate(0) translate(4 690.4)">
<title>settlementParticipantCurrencyStateChange</title>
<polygon fill="white" stroke="none" points="-4,4 -4,-690.4 1309.08,-690.4 1309.08,4 -4,4"/>
<!-- settlementParticipantCurrencyStateChange -->
<g id="node1" class="node">
<title>settlementParticipantCurrencyStateChange</title>
<polygon fill="#efefef" stroke="none" points="262.05,-604.6 262.05,-640.2 710.44,-640.2 710.44,-604.6 262.05,-604.6"/>
<polygon fill="none" stroke="black" points="262.05,-604.6 262.05,-640.2 710.44,-640.2 710.44,-604.6 262.05,-604.6"/>
<text text-anchor="start" x="269.05" y="-618" font-family="Arial Bold" font-size="18.00">settlementParticipantCurrencyStateChange</text>
<text text-anchor="start" x="578.95" y="-618" font-family="Arial" font-size="14.00">    </text>
<text text-anchor="start" x="610.07" y="-618" font-family="Arial" font-size="14.00" fill="#666666">[BASE TABLE]</text>
<polygon fill="none" stroke="black" points="262.05,-573.8 262.05,-604.6 710.44,-604.6 710.44,-573.8 262.05,-573.8"/>
<text text-anchor="start" x="269.05" y="-586" font-family="Arial" font-size="14.00">settlementParticipantCurrencyStateChangeId </text>
<text text-anchor="start" x="553.87" y="-586" font-family="Arial" font-size="14.00" fill="#666666">[bigint unsigned]</text>
<polygon fill="none" stroke="black" points="262.05,-543 262.05,-573.8 710.44,-573.8 710.44,-543 262.05,-543"/>
<text text-anchor="start" x="269.05" y="-555.2" font-family="Arial" font-size="14.00">settlementParticipantCurrencyId </text>
<text text-anchor="start" x="472.14" y="-555.2" font-family="Arial" font-size="14.00" fill="#666666">[bigint unsigned]</text>
<polygon fill="none" stroke="black" points="262.05,-512.2 262.05,-543 710.44,-543 710.44,-512.2 262.05,-512.2"/>
<text text-anchor="start" x="269.05" y="-524.4" font-family="Arial" font-size="14.00">settlementStateId </text>
<text text-anchor="start" x="381.89" y="-524.4" font-family="Arial" font-size="14.00" fill="#666666">[varchar(50)]</text>
<polygon fill="none" stroke="black" points="262.05,-481.4 262.05,-512.2 710.44,-512.2 710.44,-481.4 262.05,-481.4"/>
<text text-anchor="start" x="269.05" y="-493.6" font-family="Arial" font-size="14.00">reason </text>
<text text-anchor="start" x="315.75" y="-493.6" font-family="Arial" font-size="14.00" fill="#666666">[varchar(512)]</text>
<polygon fill="none" stroke="black" points="262.05,-450.6 262.05,-481.4 710.44,-481.4 710.44,-450.6 262.05,-450.6"/>
<text text-anchor="start" x="269.05" y="-462.8" font-family="Arial" font-size="14.00">externalReference </text>
<text text-anchor="start" x="387.34" y="-462.8" font-family="Arial" font-size="14.00" fill="#666666">[varchar(50)]</text>
<polygon fill="none" stroke="black" points="262.05,-419.8 262.05,-450.6 710.44,-450.6 710.44,-419.8 262.05,-419.8"/>
<text text-anchor="start" x="269.05" y="-432" font-family="Arial" font-size="14.00">createdDate </text>
<text text-anchor="start" x="349.21" y="-432" font-family="Arial" font-size="14.00" fill="#666666">[datetime]</text>
<polygon fill="none" stroke="black" stroke-width="3" points="260.55,-418.3 260.55,-641.7 711.94,-641.7 711.94,-418.3 260.55,-418.3"/>
</g>
<!-- settlementParticipantCurrency -->
<g id="node2" class="node">
<title>settlementParticipantCurrency</title>
<polygon fill="#efefef" stroke="none" points="307.54,-258.8 307.54,-294.4 664.95,-294.4 664.95,-258.8 307.54,-258.8"/>
<polygon fill="none" stroke="black" points="307.54,-258.8 307.54,-294.4 664.95,-294.4 664.95,-258.8 307.54,-258.8"/>
<text text-anchor="start" x="314.54" y="-272.2" font-family="Arial Bold" font-size="18.00">settlementParticipantCurrency</text>
<text text-anchor="start" x="533.46" y="-272.2" font-family="Arial" font-size="14.00">    </text>
<text text-anchor="start" x="564.58" y="-272.2" font-family="Arial" font-size="14.00" fill="#666666">[BASE TABLE]</text>
<polygon fill="none" stroke="black" points="307.54,-228 307.54,-258.8 664.95,-258.8 664.95,-228 307.54,-228"/>
<text text-anchor="start" x="314.54" y="-240.2" font-family="Arial" font-size="14.00">settlementParticipantCurrencyId </text>
<text text-anchor="start" x="517.63" y="-240.2" font-family="Arial" font-size="14.00" fill="#666666">[bigint unsigned]</text>
<polygon fill="none" stroke="black" points="307.54,-197.2 307.54,-228 664.95,-228 664.95,-197.2 307.54,-197.2"/>
<text text-anchor="start" x="314.54" y="-209.4" font-family="Arial" font-size="14.00">settlementId </text>
<text text-anchor="start" x="394.69" y="-209.4" font-family="Arial" font-size="14.00" fill="#666666">[bigint unsigned]</text>
<polygon fill="none" stroke="black" points="307.54,-166.4 307.54,-197.2 664.95,-197.2 664.95,-166.4 307.54,-166.4"/>
<text text-anchor="start" x="314.54" y="-178.6" font-family="Arial" font-size="14.00">participantCurrencyId </text>
<text text-anchor="start" x="451.49" y="-178.6" font-family="Arial" font-size="14.00" fill="#666666">[int unsigned]</text>
<polygon fill="none" stroke="black" points="307.54,-135.6 307.54,-166.4 664.95,-166.4 664.95,-135.6 307.54,-135.6"/>
<text text-anchor="start" x="314.54" y="-147.8" font-family="Arial" font-size="14.00">netAmount </text>
<text text-anchor="start" x="386.14" y="-147.8" font-family="Arial" font-size="14.00" fill="#666666">[decimal(18,4)]</text>
<polygon fill="none" stroke="black" points="307.54,-104.8 307.54,-135.6 664.95,-135.6 664.95,-104.8 307.54,-104.8"/>
<text text-anchor="start" x="314.54" y="-117" font-family="Arial" font-size="14.00">createdDate </text>
<text text-anchor="start" x="394.7" y="-117" font-family="Arial" font-size="14.00" fill="#666666">[datetime]</text>
<polygon fill="none" stroke="black" points="307.54,-74 307.54,-104.8 664.95,-104.8 664.95,-74 307.54,-74"/>
<text text-anchor="start" x="314.54" y="-86.2" font-family="Arial" font-size="14.00">currentStateChangeId </text>
<text text-anchor="start" x="455.41" y="-86.2" font-family="Arial" font-size="14.00" fill="#666666">[bigint unsigned]</text>
<polygon fill="none" stroke="black" points="307.54,-43.2 307.54,-74 664.95,-74 664.95,-43.2 307.54,-43.2"/>
<text text-anchor="start" x="314.54" y="-55.4" font-family="Arial" font-size="14.00">settlementTransferId </text>
<text text-anchor="start" x="446.81" y="-55.4" font-family="Arial" font-size="14.00" fill="#666666">[varchar(36)]</text>
</g>
<!-- settlementParticipantCurrencyStateChange&#45;&gt;settlementParticipantCurrency -->
<g id="edge2" class="edge">
<title>settlementParticipantCurrencyStateChange:settlementParticipantCurrencyId&#45;&gt;settlementParticipantCurrency:settlementParticipantCurrencyId</title>
<path fill="none" stroke="black" d="M718.95,-551.53C738.89,-505.46 698.21,-243.4 665.95,-243.4"/>
<polygon fill="black" stroke="black" points="719.07,-551.42 708.65,-554.85 715.13,-555.03 711.93,-557.95 711.93,-557.95 711.93,-557.95 715.13,-555.03 714.73,-561.49 719.07,-551.42"/>
<text text-anchor="start" x="718.44" y="-568.4" font-family="Arial" font-size="10.00">FOREIGN KEY (settlementParticipantCurrencyId) REFERENCES settlementParticipantCurrency (settlementParticipantCurrencyId)</text>
</g>
<!-- settlementState -->
<g id="node3" class="node">
<title>settlementState</title>
<polygon fill="#efefef" stroke="none" points="769.02,-228 769.02,-263.6 1017.47,-263.6 1017.47,-228 769.02,-228"/>
<polygon fill="none" stroke="black" points="769.02,-228 769.02,-263.6 1017.47,-263.6 1017.47,-228 769.02,-228"/>
<text text-anchor="start" x="776.02" y="-241.4" font-family="Arial Bold" font-size="18.00">settlementState</text>
<text text-anchor="start" x="885.98" y="-241.4" font-family="Arial" font-size="14.00">    </text>
<text text-anchor="start" x="917.1" y="-241.4" font-family="Arial" font-size="14.00" fill="#666666">[BASE TABLE]</text>
<polygon fill="none" stroke="black" points="769.02,-197.2 769.02,-228 1017.47,-228 1017.47,-197.2 769.02,-197.2"/>
<text text-anchor="start" x="776.02" y="-209.4" font-family="Arial" font-size="14.00">settlementStateId </text>
<text text-anchor="start" x="888.86" y="-209.4" font-family="Arial" font-size="14.00" fill="#666666">[varchar(50)]</text>
<polygon fill="none" stroke="black" points="769.02,-166.4 769.02,-197.2 1017.47,-197.2 1017.47,-166.4 769.02,-166.4"/>
<text text-anchor="start" x="776.02" y="-178.6" font-family="Arial" font-size="14.00">enumeration </text>
<text text-anchor="start" x="857.73" y="-178.6" font-family="Arial" font-size="14.00" fill="#666666">[varchar(50)]</text>
<polygon fill="none" stroke="black" points="769.02,-135.6 769.02,-166.4 1017.47,-166.4 1017.47,-135.6 769.02,-135.6"/>
<text text-anchor="start" x="776.02" y="-147.8" font-family="Arial" font-size="14.00">description </text>
<text text-anchor="start" x="847.61" y="-147.8" font-family="Arial" font-size="14.00" fill="#666666">[varchar(512)]</text>
<polygon fill="none" stroke="black" points="769.02,-104.8 769.02,-135.6 1017.47,-135.6 1017.47,-104.8 769.02,-104.8"/>
<text text-anchor="start" x="776.02" y="-117" font-family="Arial" font-size="14.00">isActive </text>
<text text-anchor="start" x="828.14" y="-117" font-family="Arial" font-size="14.00" fill="#666666">[tinyint(1)]</text>
<polygon fill="none" stroke="black" points="769.02,-74 769.02,-104.8 1017.47,-104.8 1017.47,-74 769.02,-74"/>
<text text-anchor="start" x="776.02" y="-86.2" font-family="Arial" font-size="14.00">createdDate </text>
<text text-anchor="start" x="856.17" y="-86.2" font-family="Arial" font-size="14.00" fill="#666666">[datetime]</text>
</g>
<!-- settlementParticipantCurrencyStateChange&#45;&gt;settlementState -->
<g id="edge3" class="edge">
<title>settlementParticipantCurrencyStateChange:settlementStateId&#45;&gt;settlementState:settlementStateId</title>
<path fill="none" stroke="black" d="M721.57,-527C842.35,-511.81 629.39,-212.6 768.02,-212.6"/>
<polygon fill="black" stroke="black" points="721.76,-526.99 711.51,-523.09 716.43,-527.3 712.11,-527.56 712.11,-527.56 712.11,-527.56 716.43,-527.3 712.04,-532.07 721.76,-526.99"/>
<text text-anchor="start" x="718.44" y="-537.6" font-family="Arial" font-size="10.00">FOREIGN KEY (settlementStateId) REFERENCES settlementState (settlementStateId)</text>
</g>
<!-- settlementParticipantCurrency&#45;&gt;settlementParticipantCurrencyStateChange -->
<g id="edge1" class="edge">
<title>settlementParticipantCurrency:currentStateChangeId&#45;&gt;settlementParticipantCurrencyStateChange:settlementParticipantCurrencyStateChangeId</title>
<path fill="none" stroke="black" d="M672.41,-97.25C700.18,-160.84 737.25,-589.2 711.44,-589.2"/>
<polygon fill="black" stroke="black" points="672.52,-97.38 669.64,-86.8 669.13,-93.26 666.38,-89.92 666.38,-89.92 666.38,-89.92 669.13,-93.26 662.69,-92.52 672.52,-97.38"/>
<text text-anchor="start" x="7" y="-99.4" font-family="Arial" font-size="10.00">FOREIGN KEY (currentStateChangeId) REFERENCES settlementParticipantCurrencyStateChange (settlementParticipantCurrencyStateChangeId)</text>
</g>
</g>
</svg>
