<?xml version="1.0" encoding="UTF-8" standalone="no"?>
<!DOCTYPE svg PUBLIC "-//W3C//DTD SVG 1.1//EN"
 "http://www.w3.org/Graphics/SVG/1.1/DTD/svg11.dtd">
<!-- Generated by graphviz version 12.1.2 (20240928.0832)
 -->
<!-- Title: settlementWindowContent Pages: 1 -->
<svg width="2389pt" height="1345pt"
 viewBox="0.00 0.00 2388.69 1345.20" xmlns="http://www.w3.org/2000/svg" xmlns:xlink="http://www.w3.org/1999/xlink">
<g id="graph0" class="graph" transform="scale(1 1) rotate(0) translate(4 1341.2)">
<title>settlementWindowContent</title>
<polygon fill="white" stroke="none" points="-4,4 -4,-1341.2 2384.69,-1341.2 2384.69,4 -4,4"/>
<!-- settlementWindowContent -->
<g id="node1" class="node">
<title>settlementWindowContent</title>
<polygon fill="#efefef" stroke="none" points="999.03,-820.2 999.03,-855.8 1330.49,-855.8 1330.49,-820.2 999.03,-820.2"/>
<polygon fill="none" stroke="black" points="999.03,-820.2 999.03,-855.8 1330.49,-855.8 1330.49,-820.2 999.03,-820.2"/>
<text text-anchor="start" x="1006.03" y="-833.6" font-family="Arial Bold" font-size="18.00">settlementWindowContent</text>
<text text-anchor="start" x="1199" y="-833.6" font-family="Arial" font-size="14.00">    </text>
<text text-anchor="start" x="1230.11" y="-833.6" font-family="Arial" font-size="14.00" fill="#666666">[BASE TABLE]</text>
<polygon fill="none" stroke="black" points="999.03,-789.4 999.03,-820.2 1330.49,-820.2 1330.49,-789.4 999.03,-789.4"/>
<text text-anchor="start" x="1006.03" y="-801.6" font-family="Arial" font-size="14.00">settlementWindowContentId </text>
<text text-anchor="start" x="1185.01" y="-801.6" font-family="Arial" font-size="14.00" fill="#666666">[bigint unsigned]</text>
<polygon fill="none" stroke="black" points="999.03,-758.6 999.03,-789.4 1330.49,-789.4 1330.49,-758.6 999.03,-758.6"/>
<text text-anchor="start" x="1006.03" y="-770.8" font-family="Arial" font-size="14.00">settlementWindowId </text>
<text text-anchor="start" x="1135.98" y="-770.8" font-family="Arial" font-size="14.00" fill="#666666">[bigint unsigned]</text>
<polygon fill="none" stroke="black" points="999.03,-727.8 999.03,-758.6 1330.49,-758.6 1330.49,-727.8 999.03,-727.8"/>
<text text-anchor="start" x="1006.03" y="-740" font-family="Arial" font-size="14.00">ledgerAccountTypeId </text>
<text text-anchor="start" x="1142.23" y="-740" font-family="Arial" font-size="14.00" fill="#666666">[int unsigned]</text>
<polygon fill="none" stroke="black" points="999.03,-697 999.03,-727.8 1330.49,-727.8 1330.49,-697 999.03,-697"/>
<text text-anchor="start" x="1006.03" y="-709.2" font-family="Arial" font-size="14.00">currencyId </text>
<text text-anchor="start" x="1075.28" y="-709.2" font-family="Arial" font-size="14.00" fill="#666666">[varchar(3)]</text>
<polygon fill="none" stroke="black" points="999.03,-666.2 999.03,-697 1330.49,-697 1330.49,-666.2 999.03,-666.2"/>
<text text-anchor="start" x="1006.03" y="-678.4" font-family="Arial" font-size="14.00">createdDate </text>
<text text-anchor="start" x="1086.19" y="-678.4" font-family="Arial" font-size="14.00" fill="#666666">[datetime]</text>
<polygon fill="none" stroke="black" points="999.03,-635.4 999.03,-666.2 1330.49,-666.2 1330.49,-635.4 999.03,-635.4"/>
<text text-anchor="start" x="1006.03" y="-647.6" font-family="Arial" font-size="14.00">currentStateChangeId </text>
<text text-anchor="start" x="1146.9" y="-647.6" font-family="Arial" font-size="14.00" fill="#666666">[bigint unsigned]</text>
<polygon fill="none" stroke="black" points="999.03,-604.6 999.03,-635.4 1330.49,-635.4 1330.49,-604.6 999.03,-604.6"/>
<text text-anchor="start" x="1006.03" y="-616.8" font-family="Arial" font-size="14.00">settlementId </text>
<text text-anchor="start" x="1086.18" y="-616.8" font-family="Arial" font-size="14.00" fill="#666666">[bigint unsigned]</text>
<polygon fill="none" stroke="black" points="999.03,-573.8 999.03,-604.6 1330.49,-604.6 1330.49,-573.8 999.03,-573.8"/>
<text text-anchor="start" x="1006.03" y="-586" font-family="Arial" font-size="14.00">SettlementModelId </text>
<text text-anchor="start" x="1126.65" y="-586" font-family="Arial" font-size="14.00" fill="#666666">[int unsigned]</text>
<polygon fill="none" stroke="black" stroke-width="3" points="997.53,-572.3 997.53,-857.3 1331.99,-857.3 1331.99,-572.3 997.53,-572.3"/>
</g>
<!-- settlementWindowContentStateChange -->
<g id="node3" class="node">
<title>settlementWindowContentStateChange</title>
<polygon fill="#efefef" stroke="none" points="118.54,-305 118.54,-340.6 540.97,-340.6 540.97,-305 118.54,-305"/>
<polygon fill="none" stroke="black" points="118.54,-305 118.54,-340.6 540.97,-340.6 540.97,-305 118.54,-305"/>
<text text-anchor="start" x="125.54" y="-318.4" font-family="Arial Bold" font-size="18.00">settlementWindowContentStateChange</text>
<text text-anchor="start" x="409.48" y="-318.4" font-family="Arial" font-size="14.00">    </text>
<text text-anchor="start" x="440.6" y="-318.4" font-family="Arial" font-size="14.00" fill="#666666">[BASE TABLE]</text>
<polygon fill="none" stroke="black" points="118.54,-274.2 118.54,-305 540.97,-305 540.97,-274.2 118.54,-274.2"/>
<text text-anchor="start" x="125.54" y="-286.4" font-family="Arial" font-size="14.00">settlementWindowContentStateChangeId </text>
<text text-anchor="start" x="386.25" y="-286.4" font-family="Arial" font-size="14.00" fill="#666666">[bigint unsigned]</text>
<polygon fill="none" stroke="black" points="118.54,-243.4 118.54,-274.2 540.97,-274.2 540.97,-243.4 118.54,-243.4"/>
<text text-anchor="start" x="125.54" y="-255.6" font-family="Arial" font-size="14.00">settlementWindowContentId </text>
<text text-anchor="start" x="304.52" y="-255.6" font-family="Arial" font-size="14.00" fill="#666666">[bigint unsigned]</text>
<polygon fill="none" stroke="black" points="118.54,-212.6 118.54,-243.4 540.97,-243.4 540.97,-212.6 118.54,-212.6"/>
<text text-anchor="start" x="125.54" y="-224.8" font-family="Arial" font-size="14.00">settlementWindowStateId </text>
<text text-anchor="start" x="288.18" y="-224.8" font-family="Arial" font-size="14.00" fill="#666666">[varchar(50)]</text>
<polygon fill="none" stroke="black" points="118.54,-181.8 118.54,-212.6 540.97,-212.6 540.97,-181.8 118.54,-181.8"/>
<text text-anchor="start" x="125.54" y="-194" font-family="Arial" font-size="14.00">reason </text>
<text text-anchor="start" x="172.24" y="-194" font-family="Arial" font-size="14.00" fill="#666666">[varchar(512)]</text>
<polygon fill="none" stroke="black" points="118.54,-151 118.54,-181.8 540.97,-181.8 540.97,-151 118.54,-151"/>
<text text-anchor="start" x="125.54" y="-163.2" font-family="Arial" font-size="14.00">createdDate </text>
<text text-anchor="start" x="205.7" y="-163.2" font-family="Arial" font-size="14.00" fill="#666666">[datetime]</text>
</g>
<!-- settlementWindowContent&#45;&gt;settlementWindowContentStateChange -->
<g id="edge6" class="edge">
<title>settlementWindowContent:currentStateChangeId&#45;&gt;settlementWindowContentStateChange:settlementWindowContentStateChangeId</title>
<path fill="none" stroke="black" d="M987.67,-650.79C801.9,-650.24 719.26,-633.74 593.76,-491.6 532.42,-422.12 634.65,-289.6 541.97,-289.6"/>
<polygon fill="black" stroke="black" points="987.7,-650.79 997.69,-655.3 993.03,-650.79 997.36,-650.8 997.36,-650.8 997.36,-650.8 993.03,-650.79 997.7,-646.3 987.7,-650.79"/>
<text text-anchor="start" x="373.52" y="-660.8" font-family="Arial" font-size="10.00">FOREIGN KEY (currentStateChangeId) REFERENCES settlementWindowContentStateChange (settlementWindowContentStateChangeId)</text>
</g>
<!-- settlementWindow -->
<g id="node4" class="node">
<title>settlementWindow</title>
<polygon fill="#efefef" stroke="none" points="645.53,-289.6 645.53,-325.2 919.99,-325.2 919.99,-289.6 645.53,-289.6"/>
<polygon fill="none" stroke="black" points="645.53,-289.6 645.53,-325.2 919.99,-325.2 919.99,-289.6 645.53,-289.6"/>
<text text-anchor="start" x="652.53" y="-303" font-family="Arial Bold" font-size="18.00">settlementWindow</text>
<text text-anchor="start" x="788.5" y="-303" font-family="Arial" font-size="14.00">    </text>
<text text-anchor="start" x="819.62" y="-303" font-family="Arial" font-size="14.00" fill="#666666">[BASE TABLE]</text>
<polygon fill="none" stroke="black" points="645.53,-258.8 645.53,-289.6 919.99,-289.6 919.99,-258.8 645.53,-258.8"/>
<text text-anchor="start" x="652.53" y="-271" font-family="Arial" font-size="14.00">settlementWindowId </text>
<text text-anchor="start" x="782.48" y="-271" font-family="Arial" font-size="14.00" fill="#666666">[bigint unsigned]</text>
<polygon fill="none" stroke="black" points="645.53,-228 645.53,-258.8 919.99,-258.8 919.99,-228 645.53,-228"/>
<text text-anchor="start" x="652.53" y="-240.2" font-family="Arial" font-size="14.00">reason </text>
<text text-anchor="start" x="699.23" y="-240.2" font-family="Arial" font-size="14.00" fill="#666666">[varchar(512)]</text>
<polygon fill="none" stroke="black" points="645.53,-197.2 645.53,-228 919.99,-228 919.99,-197.2 645.53,-197.2"/>
<text text-anchor="start" x="652.53" y="-209.4" font-family="Arial" font-size="14.00">createdDate </text>
<text text-anchor="start" x="732.69" y="-209.4" font-family="Arial" font-size="14.00" fill="#666666">[datetime]</text>
<polygon fill="none" stroke="black" points="645.53,-166.4 645.53,-197.2 919.99,-197.2 919.99,-166.4 645.53,-166.4"/>
<text text-anchor="start" x="652.53" y="-178.6" font-family="Arial" font-size="14.00">currentStateChangeId </text>
<text text-anchor="start" x="793.4" y="-178.6" font-family="Arial" font-size="14.00" fill="#666666">[bigint unsigned]</text>
</g>
<!-- settlementWindowContent&#45;&gt;settlementWindow -->
<g id="edge3" class="edge">
<title>settlementWindowContent:settlementWindowId&#45;&gt;settlementWindow:settlementWindowId</title>
<path fill="none" stroke="black" d="M987.96,-772.48C894.9,-742.31 1029.74,-274.2 920.99,-274.2"/>
<polygon fill="black" stroke="black" points="987.81,-772.45 997.03,-778.4 993.09,-773.25 997.37,-773.9 997.37,-773.9 997.37,-773.9 993.09,-773.25 998.38,-769.5 987.81,-772.45"/>
<text text-anchor="start" x="568.13" y="-784" font-family="Arial" font-size="10.00">FOREIGN KEY (settlementWindowId) REFERENCES settlementWindow (settlementWindowId)</text>
</g>
<!-- ledgerAccountType -->
<g id="node5" class="node">
<title>ledgerAccountType</title>
<polygon fill="#efefef" stroke="none" points="1024.05,-320.4 1024.05,-356 1305.47,-356 1305.47,-320.4 1024.05,-320.4"/>
<polygon fill="none" stroke="black" points="1024.05,-320.4 1024.05,-356 1305.47,-356 1305.47,-320.4 1024.05,-320.4"/>
<text text-anchor="start" x="1031.05" y="-333.8" font-family="Arial Bold" font-size="18.00">ledgerAccountType</text>
<text text-anchor="start" x="1173.98" y="-333.8" font-family="Arial" font-size="14.00">    </text>
<text text-anchor="start" x="1205.1" y="-333.8" font-family="Arial" font-size="14.00" fill="#666666">[BASE TABLE]</text>
<polygon fill="none" stroke="black" points="1024.05,-289.6 1024.05,-320.4 1305.47,-320.4 1305.47,-289.6 1024.05,-289.6"/>
<text text-anchor="start" x="1031.05" y="-301.8" font-family="Arial" font-size="14.00">ledgerAccountTypeId </text>
<text text-anchor="start" x="1167.24" y="-301.8" font-family="Arial" font-size="14.00" fill="#666666">[int unsigned]</text>
<polygon fill="none" stroke="black" points="1024.05,-258.8 1024.05,-289.6 1305.47,-289.6 1305.47,-258.8 1024.05,-258.8"/>
<text text-anchor="start" x="1031.05" y="-271" font-family="Arial" font-size="14.00">name </text>
<text text-anchor="start" x="1069.96" y="-271" font-family="Arial" font-size="14.00" fill="#666666">[varchar(50)]</text>
<polygon fill="none" stroke="black" points="1024.05,-228 1024.05,-258.8 1305.47,-258.8 1305.47,-228 1024.05,-228"/>
<text text-anchor="start" x="1031.05" y="-240.2" font-family="Arial" font-size="14.00">description </text>
<text text-anchor="start" x="1102.64" y="-240.2" font-family="Arial" font-size="14.00" fill="#666666">[varchar(512)]</text>
<polygon fill="none" stroke="black" points="1024.05,-197.2 1024.05,-228 1305.47,-228 1305.47,-197.2 1024.05,-197.2"/>
<text text-anchor="start" x="1031.05" y="-209.4" font-family="Arial" font-size="14.00">isActive </text>
<text text-anchor="start" x="1083.17" y="-209.4" font-family="Arial" font-size="14.00" fill="#666666">[tinyint(1)]</text>
<polygon fill="none" stroke="black" points="1024.05,-166.4 1024.05,-197.2 1305.47,-197.2 1305.47,-166.4 1024.05,-166.4"/>
<text text-anchor="start" x="1031.05" y="-178.6" font-family="Arial" font-size="14.00">createdDate </text>
<text text-anchor="start" x="1111.2" y="-178.6" font-family="Arial" font-size="14.00" fill="#666666">[datetime]</text>
<polygon fill="none" stroke="black" points="1024.05,-135.6 1024.05,-166.4 1305.47,-166.4 1305.47,-135.6 1024.05,-135.6"/>
<text text-anchor="start" x="1031.05" y="-147.8" font-family="Arial" font-size="14.00">isSettleable </text>
<text text-anchor="start" x="1107.31" y="-147.8" font-family="Arial" font-size="14.00" fill="#666666">[tinyint(1)]</text>
</g>
<!-- settlementWindowContent&#45;&gt;ledgerAccountType -->
<g id="edge4" class="edge">
<title>settlementWindowContent:ledgerAccountTypeId&#45;&gt;ledgerAccountType:ledgerAccountTypeId</title>
<path fill="none" stroke="black" d="M1340.24,-737.66C1376.83,-686.93 1352,-305 1306.47,-305"/>
<polygon fill="black" stroke="black" points="1340.22,-737.67 1329.36,-739.22 1335.71,-740.53 1332.05,-742.84 1332.05,-742.84 1332.05,-742.84 1335.71,-740.53 1334.18,-746.82 1340.22,-737.67"/>
<text text-anchor="start" x="1338.49" y="-753.2" font-family="Arial" font-size="10.00">FOREIGN KEY (ledgerAccountTypeId) REFERENCES ledgerAccountType (ledgerAccountTypeId)</text>
</g>
<!-- currency -->
<g id="node6" class="node">
<title>currency</title>
<polygon fill="#efefef" stroke="none" points="1410.04,-305 1410.04,-340.6 1611.48,-340.6 1611.48,-305 1410.04,-305"/>
<polygon fill="none" stroke="black" points="1410.04,-305 1410.04,-340.6 1611.48,-340.6 1611.48,-305 1410.04,-305"/>
<text text-anchor="start" x="1417.04" y="-318.4" font-family="Arial Bold" font-size="18.00">currency</text>
<text text-anchor="start" x="1479.99" y="-318.4" font-family="Arial" font-size="14.00">    </text>
<text text-anchor="start" x="1511.11" y="-318.4" font-family="Arial" font-size="14.00" fill="#666666">[BASE TABLE]</text>
<polygon fill="none" stroke="black" points="1410.04,-274.2 1410.04,-305 1611.48,-305 1611.48,-274.2 1410.04,-274.2"/>
<text text-anchor="start" x="1417.04" y="-286.4" font-family="Arial" font-size="14.00">currencyId </text>
<text text-anchor="start" x="1486.28" y="-286.4" font-family="Arial" font-size="14.00" fill="#666666">[varchar(3)]</text>
<polygon fill="none" stroke="black" points="1410.04,-243.4 1410.04,-274.2 1611.48,-274.2 1611.48,-243.4 1410.04,-243.4"/>
<text text-anchor="start" x="1417.04" y="-255.6" font-family="Arial" font-size="14.00">name </text>
<text text-anchor="start" x="1455.95" y="-255.6" font-family="Arial" font-size="14.00" fill="#666666">[varchar(128)]</text>
<polygon fill="none" stroke="black" points="1410.04,-212.6 1410.04,-243.4 1611.48,-243.4 1611.48,-212.6 1410.04,-212.6"/>
<text text-anchor="start" x="1417.04" y="-224.8" font-family="Arial" font-size="14.00">isActive </text>
<text text-anchor="start" x="1469.16" y="-224.8" font-family="Arial" font-size="14.00" fill="#666666">[tinyint(1)]</text>
<polygon fill="none" stroke="black" points="1410.04,-181.8 1410.04,-212.6 1611.48,-212.6 1611.48,-181.8 1410.04,-181.8"/>
<text text-anchor="start" x="1417.04" y="-194" font-family="Arial" font-size="14.00">createdDate </text>
<text text-anchor="start" x="1497.19" y="-194" font-family="Arial" font-size="14.00" fill="#666666">[datetime]</text>
<polygon fill="none" stroke="black" points="1410.04,-151 1410.04,-181.8 1611.48,-181.8 1611.48,-151 1410.04,-151"/>
<text text-anchor="start" x="1417.04" y="-163.2" font-family="Arial" font-size="14.00">scale </text>
<text text-anchor="start" x="1453.61" y="-163.2" font-family="Arial" font-size="14.00" fill="#666666">[int unsigned]</text>
</g>
<!-- settlementWindowContent&#45;&gt;currency -->
<g id="edge5" class="edge">
<title>settlementWindowContent:currencyId&#45;&gt;currency:currencyId</title>
<path fill="none" stroke="black" d="M1341.75,-710.51C1418.46,-680.01 1317.25,-289.6 1409.04,-289.6"/>
<polygon fill="black" stroke="black" points="1341.65,-710.53 1331,-707.91 1336.4,-711.5 1332.14,-712.28 1332.14,-712.28 1332.14,-712.28 1336.4,-711.5 1332.63,-716.77 1341.65,-710.53"/>
<text text-anchor="start" x="1338.49" y="-722.4" font-family="Arial" font-size="10.00">FOREIGN KEY (currencyId) REFERENCES currency (currencyId)</text>
</g>
<!-- settlement -->
<g id="node7" class="node">
<title>settlement</title>
<polygon fill="#efefef" stroke="none" points="1716.34,-305 1716.34,-340.6 1973.18,-340.6 1973.18,-305 1716.34,-305"/>
<polygon fill="none" stroke="black" points="1716.34,-305 1716.34,-340.6 1973.18,-340.6 1973.18,-305 1716.34,-305"/>
<text text-anchor="start" x="1745.53" y="-318.4" font-family="Arial Bold" font-size="18.00">settlement</text>
<text text-anchor="start" x="1819.5" y="-318.4" font-family="Arial" font-size="14.00">    </text>
<text text-anchor="start" x="1850.62" y="-318.4" font-family="Arial" font-size="14.00" fill="#666666">[BASE TABLE]</text>
<polygon fill="none" stroke="black" points="1716.34,-274.2 1716.34,-305 1973.18,-305 1973.18,-274.2 1716.34,-274.2"/>
<text text-anchor="start" x="1723.34" y="-286.4" font-family="Arial" font-size="14.00">settlementId </text>
<text text-anchor="start" x="1803.49" y="-286.4" font-family="Arial" font-size="14.00" fill="#666666">[bigint unsigned]</text>
<polygon fill="none" stroke="black" points="1716.34,-243.4 1716.34,-274.2 1973.18,-274.2 1973.18,-243.4 1716.34,-243.4"/>
<text text-anchor="start" x="1723.34" y="-255.6" font-family="Arial" font-size="14.00">reason </text>
<text text-anchor="start" x="1770.04" y="-255.6" font-family="Arial" font-size="14.00" fill="#666666">[varchar(512)]</text>
<polygon fill="none" stroke="black" points="1716.34,-212.6 1716.34,-243.4 1973.18,-243.4 1973.18,-212.6 1716.34,-212.6"/>
<text text-anchor="start" x="1723.34" y="-224.8" font-family="Arial" font-size="14.00">createdDate </text>
<text text-anchor="start" x="1803.5" y="-224.8" font-family="Arial" font-size="14.00" fill="#666666">[datetime]</text>
<polygon fill="none" stroke="black" points="1716.34,-181.8 1716.34,-212.6 1973.18,-212.6 1973.18,-181.8 1716.34,-181.8"/>
<text text-anchor="start" x="1723.34" y="-194" font-family="Arial" font-size="14.00">currentStateChangeId </text>
<text text-anchor="start" x="1864.21" y="-194" font-family="Arial" font-size="14.00" fill="#666666">[bigint unsigned]</text>
<polygon fill="none" stroke="black" points="1716.34,-151 1716.34,-181.8 1973.18,-181.8 1973.18,-151 1716.34,-151"/>
<text text-anchor="start" x="1723.34" y="-163.2" font-family="Arial" font-size="14.00">settlementModelId </text>
<text text-anchor="start" x="1841.62" y="-163.2" font-family="Arial" font-size="14.00" fill="#666666">[int unsigned]</text>
</g>
<!-- settlementWindowContent&#45;&gt;settlement -->
<g id="edge7" class="edge">
<title>settlementWindowContent:settlementId&#45;&gt;settlement:settlementId</title>
<path fill="none" stroke="black" d="M1341.57,-619.99C1492.78,-619.52 1560.91,-607.45 1663.76,-491.6 1725.28,-422.31 1622.68,-289.6 1715.34,-289.6"/>
<polygon fill="black" stroke="black" points="1341.82,-619.98 1331.81,-615.5 1336.49,-619.99 1332.15,-620 1332.15,-620 1332.15,-620 1336.49,-619.99 1331.83,-624.5 1341.82,-619.98"/>
<text text-anchor="start" x="1338.49" y="-630" font-family="Arial" font-size="10.00">FOREIGN KEY (settlementId) REFERENCES settlement (settlementId)</text>
</g>
<!-- settlementModel -->
<g id="node8" class="node">
<title>settlementModel</title>
<polygon fill="#efefef" stroke="none" points="2078.03,-412.8 2078.03,-448.4 2337.49,-448.4 2337.49,-412.8 2078.03,-412.8"/>
<polygon fill="none" stroke="black" points="2078.03,-412.8 2078.03,-448.4 2337.49,-448.4 2337.49,-412.8 2078.03,-412.8"/>
<text text-anchor="start" x="2085.03" y="-426.2" font-family="Arial Bold" font-size="18.00">settlementModel</text>
<text text-anchor="start" x="2206" y="-426.2" font-family="Arial" font-size="14.00">    </text>
<text text-anchor="start" x="2237.12" y="-426.2" font-family="Arial" font-size="14.00" fill="#666666">[BASE TABLE]</text>
<polygon fill="none" stroke="black" points="2078.03,-382 2078.03,-412.8 2337.49,-412.8 2337.49,-382 2078.03,-382"/>
<text text-anchor="start" x="2085.03" y="-394.2" font-family="Arial" font-size="14.00">settlementModelId </text>
<text text-anchor="start" x="2203.31" y="-394.2" font-family="Arial" font-size="14.00" fill="#666666">[int unsigned]</text>
<polygon fill="none" stroke="black" points="2078.03,-351.2 2078.03,-382 2337.49,-382 2337.49,-351.2 2078.03,-351.2"/>
<text text-anchor="start" x="2085.03" y="-363.4" font-family="Arial" font-size="14.00">name </text>
<text text-anchor="start" x="2123.94" y="-363.4" font-family="Arial" font-size="14.00" fill="#666666">[varchar(50)]</text>
<polygon fill="none" stroke="black" points="2078.03,-320.4 2078.03,-351.2 2337.49,-351.2 2337.49,-320.4 2078.03,-320.4"/>
<text text-anchor="start" x="2085.03" y="-332.6" font-family="Arial" font-size="14.00">isActive </text>
<text text-anchor="start" x="2137.15" y="-332.6" font-family="Arial" font-size="14.00" fill="#666666">[tinyint(1)]</text>
<polygon fill="none" stroke="black" points="2078.03,-289.6 2078.03,-320.4 2337.49,-320.4 2337.49,-289.6 2078.03,-289.6"/>
<text text-anchor="start" x="2085.03" y="-301.8" font-family="Arial" font-size="14.00">settlementGranularityId </text>
<text text-anchor="start" x="2233.65" y="-301.8" font-family="Arial" font-size="14.00" fill="#666666">[int unsigned]</text>
<polygon fill="none" stroke="black" points="2078.03,-258.8 2078.03,-289.6 2337.49,-289.6 2337.49,-258.8 2078.03,-258.8"/>
<text text-anchor="start" x="2085.03" y="-271" font-family="Arial" font-size="14.00">settlementInterchangeId </text>
<text text-anchor="start" x="2239.12" y="-271" font-family="Arial" font-size="14.00" fill="#666666">[int unsigned]</text>
<polygon fill="none" stroke="black" points="2078.03,-228 2078.03,-258.8 2337.49,-258.8 2337.49,-228 2078.03,-228"/>
<text text-anchor="start" x="2085.03" y="-240.2" font-family="Arial" font-size="14.00">settlementDelayId </text>
<text text-anchor="start" x="2200.97" y="-240.2" font-family="Arial" font-size="14.00" fill="#666666">[int unsigned]</text>
<polygon fill="none" stroke="black" points="2078.03,-197.2 2078.03,-228 2337.49,-228 2337.49,-197.2 2078.03,-197.2"/>
<text text-anchor="start" x="2085.03" y="-209.4" font-family="Arial" font-size="14.00">currencyId </text>
<text text-anchor="start" x="2154.28" y="-209.4" font-family="Arial" font-size="14.00" fill="#666666">[varchar(3)]</text>
<polygon fill="none" stroke="black" points="2078.03,-166.4 2078.03,-197.2 2337.49,-197.2 2337.49,-166.4 2078.03,-166.4"/>
<text text-anchor="start" x="2085.03" y="-178.6" font-family="Arial" font-size="14.00">requireLiquidityCheck </text>
<text text-anchor="start" x="2223.54" y="-178.6" font-family="Arial" font-size="14.00" fill="#666666">[tinyint(1)]</text>
<polygon fill="none" stroke="black" points="2078.03,-135.6 2078.03,-166.4 2337.49,-166.4 2337.49,-135.6 2078.03,-135.6"/>
<text text-anchor="start" x="2085.03" y="-147.8" font-family="Arial" font-size="14.00">ledgerAccountTypeId </text>
<text text-anchor="start" x="2221.22" y="-147.8" font-family="Arial" font-size="14.00" fill="#666666">[int unsigned]</text>
<polygon fill="none" stroke="black" points="2078.03,-104.8 2078.03,-135.6 2337.49,-135.6 2337.49,-104.8 2078.03,-104.8"/>
<text text-anchor="start" x="2085.03" y="-117" font-family="Arial" font-size="14.00">autoPositionReset </text>
<text text-anchor="start" x="2202.54" y="-117" font-family="Arial" font-size="14.00" fill="#666666">[tinyint(1)]</text>
<polygon fill="none" stroke="black" points="2078.03,-74 2078.03,-104.8 2337.49,-104.8 2337.49,-74 2078.03,-74"/>
<text text-anchor="start" x="2085.03" y="-86.2" font-family="Arial" font-size="14.00">adjustPosition </text>
<text text-anchor="start" x="2176.08" y="-86.2" font-family="Arial" font-size="14.00" fill="#666666">[tinyint(1)]</text>
<polygon fill="none" stroke="black" points="2078.03,-43.2 2078.03,-74 2337.49,-74 2337.49,-43.2 2078.03,-43.2"/>
<text text-anchor="start" x="2085.03" y="-55.4" font-family="Arial" font-size="14.00">settlementAccountTypeId </text>
<text text-anchor="start" x="2246.89" y="-55.4" font-family="Arial" font-size="14.00" fill="#666666">[int]</text>
</g>
<!-- settlementWindowContent&#45;&gt;settlementModel -->
<g id="edge8" class="edge">
<title>settlementWindowContent:SettlementModelId&#45;&gt;settlementModel:settlementModelId</title>
<path fill="none" stroke="black" d="M1341.87,-589.19C1504.79,-588.78 1900.45,-578.44 2025.76,-491.6 2064.94,-464.45 2029.36,-397.4 2077.03,-397.4"/>
<polygon fill="black" stroke="black" points="1341.82,-589.19 1331.81,-584.7 1336.49,-589.19 1332.15,-589.2 1332.15,-589.2 1332.15,-589.2 1336.49,-589.19 1331.83,-593.7 1341.82,-589.19"/>
<text text-anchor="start" x="1338.49" y="-599.2" font-family="Arial" font-size="10.00">FOREIGN KEY (SettlementModelId) REFERENCES settlementModel (settlementModelId)</text>
</g>
<!-- settlementContentAggregation -->
<g id="node2" class="node">
<title>settlementContentAggregation</title>
<polygon fill="#efefef" stroke="none" points="985.04,-1258.4 985.04,-1294 1344.48,-1294 1344.48,-1258.4 985.04,-1258.4"/>
<polygon fill="none" stroke="black" points="985.04,-1258.4 985.04,-1294 1344.48,-1294 1344.48,-1258.4 985.04,-1258.4"/>
<text text-anchor="start" x="992.04" y="-1271.8" font-family="Arial Bold" font-size="18.00">settlementContentAggregation</text>
<text text-anchor="start" x="1212.99" y="-1271.8" font-family="Arial" font-size="14.00">    </text>
<text text-anchor="start" x="1244.11" y="-1271.8" font-family="Arial" font-size="14.00" fill="#666666">[BASE TABLE]</text>
<polygon fill="none" stroke="black" points="985.04,-1227.6 985.04,-1258.4 1344.48,-1258.4 1344.48,-1227.6 985.04,-1227.6"/>
<text text-anchor="start" x="992.04" y="-1239.8" font-family="Arial" font-size="14.00">settlementContentAggregationId </text>
<text text-anchor="start" x="1196.73" y="-1239.8" font-family="Arial" font-size="14.00" fill="#666666">[bigint unsigned]</text>
<polygon fill="none" stroke="black" points="985.04,-1196.8 985.04,-1227.6 1344.48,-1227.6 1344.48,-1196.8 985.04,-1196.8"/>
<text text-anchor="start" x="992.04" y="-1209" font-family="Arial" font-size="14.00">settlementWindowContentId </text>
<text text-anchor="start" x="1171.02" y="-1209" font-family="Arial" font-size="14.00" fill="#666666">[bigint unsigned]</text>
<polygon fill="none" stroke="black" points="985.04,-1166 985.04,-1196.8 1344.48,-1196.8 1344.48,-1166 985.04,-1166"/>
<text text-anchor="start" x="992.04" y="-1178.2" font-family="Arial" font-size="14.00">participantCurrencyId </text>
<text text-anchor="start" x="1128.99" y="-1178.2" font-family="Arial" font-size="14.00" fill="#666666">[int unsigned]</text>
<polygon fill="none" stroke="black" points="985.04,-1135.2 985.04,-1166 1344.48,-1166 1344.48,-1135.2 985.04,-1135.2"/>
<text text-anchor="start" x="992.04" y="-1147.4" font-family="Arial" font-size="14.00">transferParticipantRoleTypeId </text>
<text text-anchor="start" x="1181.13" y="-1147.4" font-family="Arial" font-size="14.00" fill="#666666">[int unsigned]</text>
<polygon fill="none" stroke="black" points="985.04,-1104.4 985.04,-1135.2 1344.48,-1135.2 1344.48,-1104.4 985.04,-1104.4"/>
<text text-anchor="start" x="992.04" y="-1116.6" font-family="Arial" font-size="14.00">ledgerEntryTypeId </text>
<text text-anchor="start" x="1110.32" y="-1116.6" font-family="Arial" font-size="14.00" fill="#666666">[int unsigned]</text>
<polygon fill="none" stroke="black" points="985.04,-1073.6 985.04,-1104.4 1344.48,-1104.4 1344.48,-1073.6 985.04,-1073.6"/>
<text text-anchor="start" x="992.04" y="-1085.8" font-family="Arial" font-size="14.00">amount </text>
<text text-anchor="start" x="1042.63" y="-1085.8" font-family="Arial" font-size="14.00" fill="#666666">[decimal(18,4)]</text>
<polygon fill="none" stroke="black" points="985.04,-1042.8 985.04,-1073.6 1344.48,-1073.6 1344.48,-1042.8 985.04,-1042.8"/>
<text text-anchor="start" x="992.04" y="-1055" font-family="Arial" font-size="14.00">createdDate </text>
<text text-anchor="start" x="1072.2" y="-1055" font-family="Arial" font-size="14.00" fill="#666666">[datetime]</text>
<polygon fill="none" stroke="black" points="985.04,-1012 985.04,-1042.8 1344.48,-1042.8 1344.48,-1012 985.04,-1012"/>
<text text-anchor="start" x="992.04" y="-1024.2" font-family="Arial" font-size="14.00">currentStateId </text>
<text text-anchor="start" x="1083.87" y="-1024.2" font-family="Arial" font-size="14.00" fill="#666666">[varchar(50)]</text>
<polygon fill="none" stroke="black" points="985.04,-981.2 985.04,-1012 1344.48,-1012 1344.48,-981.2 985.04,-981.2"/>
<text text-anchor="start" x="992.04" y="-993.4" font-family="Arial" font-size="14.00">settlementId </text>
<text text-anchor="start" x="1072.19" y="-993.4" font-family="Arial" font-size="14.00" fill="#666666">[bigint unsigned]</text>
</g>
<!-- settlementContentAggregation&#45;&gt;settlementWindowContent -->
<g id="edge1" class="edge">
<title>settlementContentAggregation:settlementWindowContentId&#45;&gt;settlementWindowContent:settlementWindowContentId</title>
<path fill="none" stroke="black" d="M1355.87,-1211.74C1526.04,-1196.44 1509.12,-804.8 1331.49,-804.8"/>
<polygon fill="black" stroke="black" points="1355.8,-1211.74 1345.61,-1207.69 1350.47,-1211.98 1346.15,-1212.17 1346.15,-1212.17 1346.15,-1212.17 1350.47,-1211.98 1346.01,-1216.68 1355.8,-1211.74"/>
<text text-anchor="start" x="1352.48" y="-1222.2" font-family="Arial" font-size="10.00">FOREIGN KEY (settlementWindowContentId) REFERENCES settlementWindowContent (settlementWindowContentId)</text>
</g>
<!-- settlementWindowContentStateChange&#45;&gt;settlementWindowContent -->
<g id="edge2" class="edge">
<title>settlementWindowContentStateChange:settlementWindowContentId&#45;&gt;settlementWindowContent:settlementWindowContentId</title>
<path fill="none" stroke="black" d="M552.37,-259.32C640.37,-268.81 538.98,-405.24 593.76,-491.6 715.51,-683.53 770.74,-804.8 998.03,-804.8"/>
<polygon fill="black" stroke="black" points="552.3,-259.32 542.53,-254.32 546.97,-259.05 542.64,-258.83 542.64,-258.83 542.64,-258.83 546.97,-259.05 542.08,-263.31 552.3,-259.32"/>
<text text-anchor="start" x="7" y="-268.8" font-family="Arial" font-size="10.00">FOREIGN KEY (settlementWindowContentId) REFERENCES settlementWindowContent (settlementWindowContentId)</text>
</g>
</g>
</svg>
