<?xml version="1.0" encoding="UTF-8" standalone="no"?>
<!DOCTYPE svg PUBLIC "-//W3C//DTD SVG 1.1//EN"
 "http://www.w3.org/Graphics/SVG/1.1/DTD/svg11.dtd">
<!-- Generated by graphviz version 12.1.2 (20240928.0832)
 -->
<!-- Title: settlementContentAggregation Pages: 1 -->
<svg width="2401pt" height="725pt"
 viewBox="0.00 0.00 2400.54 725.20" xmlns="http://www.w3.org/2000/svg" xmlns:xlink="http://www.w3.org/1999/xlink">
<g id="graph0" class="graph" transform="scale(1 1) rotate(0) translate(4 721.2)">
<title>settlementContentAggregation</title>
<polygon fill="white" stroke="none" points="-4,4 -4,-721.2 2396.54,-721.2 2396.54,4 -4,4"/>
<!-- settlementContentAggregation -->
<g id="node1" class="node">
<title>settlementContentAggregation</title>
<polygon fill="#efefef" stroke="none" points="1060.21,-635.4 1060.21,-671 1419.65,-671 1419.65,-635.4 1060.21,-635.4"/>
<polygon fill="none" stroke="black" points="1060.21,-635.4 1060.21,-671 1419.65,-671 1419.65,-635.4 1060.21,-635.4"/>
<text text-anchor="start" x="1067.21" y="-648.8" font-family="Arial Bold" font-size="18.00">settlementContentAggregation</text>
<text text-anchor="start" x="1288.16" y="-648.8" font-family="Arial" font-size="14.00">    </text>
<text text-anchor="start" x="1319.27" y="-648.8" font-family="Arial" font-size="14.00" fill="#666666">[BASE TABLE]</text>
<polygon fill="none" stroke="black" points="1060.21,-604.6 1060.21,-635.4 1419.65,-635.4 1419.65,-604.6 1060.21,-604.6"/>
<text text-anchor="start" x="1067.21" y="-616.8" font-family="Arial" font-size="14.00">settlementContentAggregationId </text>
<text text-anchor="start" x="1271.9" y="-616.8" font-family="Arial" font-size="14.00" fill="#666666">[bigint unsigned]</text>
<polygon fill="none" stroke="black" points="1060.21,-573.8 1060.21,-604.6 1419.65,-604.6 1419.65,-573.8 1060.21,-573.8"/>
<text text-anchor="start" x="1067.21" y="-586" font-family="Arial" font-size="14.00">settlementWindowContentId </text>
<text text-anchor="start" x="1246.19" y="-586" font-family="Arial" font-size="14.00" fill="#666666">[bigint unsigned]</text>
<polygon fill="none" stroke="black" points="1060.21,-543 1060.21,-573.8 1419.65,-573.8 1419.65,-543 1060.21,-543"/>
<text text-anchor="start" x="1067.21" y="-555.2" font-family="Arial" font-size="14.00">participantCurrencyId </text>
<text text-anchor="start" x="1204.16" y="-555.2" font-family="Arial" font-size="14.00" fill="#666666">[int unsigned]</text>
<polygon fill="none" stroke="black" points="1060.21,-512.2 1060.21,-543 1419.65,-543 1419.65,-512.2 1060.21,-512.2"/>
<text text-anchor="start" x="1067.21" y="-524.4" font-family="Arial" font-size="14.00">transferParticipantRoleTypeId </text>
<text text-anchor="start" x="1256.3" y="-524.4" font-family="Arial" font-size="14.00" fill="#666666">[int unsigned]</text>
<polygon fill="none" stroke="black" points="1060.21,-481.4 1060.21,-512.2 1419.65,-512.2 1419.65,-481.4 1060.21,-481.4"/>
<text text-anchor="start" x="1067.21" y="-493.6" font-family="Arial" font-size="14.00">ledgerEntryTypeId </text>
<text text-anchor="start" x="1185.49" y="-493.6" font-family="Arial" font-size="14.00" fill="#666666">[int unsigned]</text>
<polygon fill="none" stroke="black" points="1060.21,-450.6 1060.21,-481.4 1419.65,-481.4 1419.65,-450.6 1060.21,-450.6"/>
<text text-anchor="start" x="1067.21" y="-462.8" font-family="Arial" font-size="14.00">currentStateId </text>
<text text-anchor="start" x="1159.03" y="-462.8" font-family="Arial" font-size="14.00" fill="#666666">[varchar(50)]</text>
<polygon fill="none" stroke="black" points="1060.21,-419.8 1060.21,-450.6 1419.65,-450.6 1419.65,-419.8 1060.21,-419.8"/>
<text text-anchor="start" x="1067.21" y="-432" font-family="Arial" font-size="14.00">settlementId </text>
<text text-anchor="start" x="1147.36" y="-432" font-family="Arial" font-size="14.00" fill="#666666">[bigint unsigned]</text>
<polygon fill="none" stroke="black" stroke-width="3" points="1058.71,-418.3 1058.71,-672.5 1421.15,-672.5 1421.15,-418.3 1058.71,-418.3"/>
</g>
<!-- settlementWindowContent -->
<g id="node2" class="node">
<title>settlementWindowContent</title>
<polygon fill="#efefef" stroke="none" points="43.2,-258.8 43.2,-294.4 374.65,-294.4 374.65,-258.8 43.2,-258.8"/>
<polygon fill="none" stroke="black" points="43.2,-258.8 43.2,-294.4 374.65,-294.4 374.65,-258.8 43.2,-258.8"/>
<text text-anchor="start" x="50.2" y="-272.2" font-family="Arial Bold" font-size="18.00">settlementWindowContent</text>
<text text-anchor="start" x="243.16" y="-272.2" font-family="Arial" font-size="14.00">    </text>
<text text-anchor="start" x="274.28" y="-272.2" font-family="Arial" font-size="14.00" fill="#666666">[BASE TABLE]</text>
<polygon fill="none" stroke="black" points="43.2,-228 43.2,-258.8 374.65,-258.8 374.65,-228 43.2,-228"/>
<text text-anchor="start" x="50.2" y="-240.2" font-family="Arial" font-size="14.00">settlementWindowContentId </text>
<text text-anchor="start" x="229.18" y="-240.2" font-family="Arial" font-size="14.00" fill="#666666">[bigint unsigned]</text>
<polygon fill="none" stroke="black" points="43.2,-197.2 43.2,-228 374.65,-228 374.65,-197.2 43.2,-197.2"/>
<text text-anchor="start" x="50.2" y="-209.4" font-family="Arial" font-size="14.00">settlementWindowId </text>
<text text-anchor="start" x="180.14" y="-209.4" font-family="Arial" font-size="14.00" fill="#666666">[bigint unsigned]</text>
<polygon fill="none" stroke="black" points="43.2,-166.4 43.2,-197.2 374.65,-197.2 374.65,-166.4 43.2,-166.4"/>
<text text-anchor="start" x="50.2" y="-178.6" font-family="Arial" font-size="14.00">ledgerAccountTypeId </text>
<text text-anchor="start" x="186.39" y="-178.6" font-family="Arial" font-size="14.00" fill="#666666">[int unsigned]</text>
<polygon fill="none" stroke="black" points="43.2,-135.6 43.2,-166.4 374.65,-166.4 374.65,-135.6 43.2,-135.6"/>
<text text-anchor="start" x="50.2" y="-147.8" font-family="Arial" font-size="14.00">currencyId </text>
<text text-anchor="start" x="119.45" y="-147.8" font-family="Arial" font-size="14.00" fill="#666666">[varchar(3)]</text>
<polygon fill="none" stroke="black" points="43.2,-104.8 43.2,-135.6 374.65,-135.6 374.65,-104.8 43.2,-104.8"/>
<text text-anchor="start" x="50.2" y="-117" font-family="Arial" font-size="14.00">currentStateChangeId </text>
<text text-anchor="start" x="191.07" y="-117" font-family="Arial" font-size="14.00" fill="#666666">[bigint unsigned]</text>
<polygon fill="none" stroke="black" points="43.2,-74 43.2,-104.8 374.65,-104.8 374.65,-74 43.2,-74"/>
<text text-anchor="start" x="50.2" y="-86.2" font-family="Arial" font-size="14.00">settlementId </text>
<text text-anchor="start" x="130.35" y="-86.2" font-family="Arial" font-size="14.00" fill="#666666">[bigint unsigned]</text>
<polygon fill="none" stroke="black" points="43.2,-43.2 43.2,-74 374.65,-74 374.65,-43.2 43.2,-43.2"/>
<text text-anchor="start" x="50.2" y="-55.4" font-family="Arial" font-size="14.00">SettlementModelId </text>
<text text-anchor="start" x="170.82" y="-55.4" font-family="Arial" font-size="14.00" fill="#666666">[int unsigned]</text>
</g>
<!-- settlementContentAggregation&#45;&gt;settlementWindowContent -->
<g id="edge1" class="edge">
<title>settlementContentAggregation:settlementWindowContentId&#45;&gt;settlementWindowContent:settlementWindowContentId</title>
<path fill="none" stroke="black" d="M1049.09,-589.18C754.42,-588.04 650.66,-536.03 426.93,-337.6 391.26,-305.97 423.32,-243.4 375.65,-243.4"/>
<polygon fill="black" stroke="black" points="1048.87,-589.18 1058.86,-593.7 1054.21,-589.19 1058.54,-589.2 1058.54,-589.2 1058.54,-589.2 1054.21,-589.19 1058.88,-584.7 1048.87,-589.18"/>
<text text-anchor="start" x="524.23" y="-599.2" font-family="Arial" font-size="10.00">FOREIGN KEY (settlementWindowContentId) REFERENCES settlementWindowContent (settlementWindowContentId)</text>
</g>
<!-- participantCurrency -->
<g id="node3" class="node">
<title>participantCurrency</title>
<polygon fill="#efefef" stroke="none" points="478.71,-212.6 478.71,-248.2 761.14,-248.2 761.14,-212.6 478.71,-212.6"/>
<polygon fill="none" stroke="black" points="478.71,-212.6 478.71,-248.2 761.14,-248.2 761.14,-212.6 478.71,-212.6"/>
<text text-anchor="start" x="485.71" y="-226" font-family="Arial Bold" font-size="18.00">participantCurrency</text>
<text text-anchor="start" x="629.65" y="-226" font-family="Arial" font-size="14.00">    </text>
<text text-anchor="start" x="660.77" y="-226" font-family="Arial" font-size="14.00" fill="#666666">[BASE TABLE]</text>
<polygon fill="none" stroke="black" points="478.71,-181.8 478.71,-212.6 761.14,-212.6 761.14,-181.8 478.71,-181.8"/>
<text text-anchor="start" x="485.71" y="-194" font-family="Arial" font-size="14.00">participantCurrencyId </text>
<text text-anchor="start" x="622.66" y="-194" font-family="Arial" font-size="14.00" fill="#666666">[int unsigned]</text>
<polygon fill="none" stroke="black" points="478.71,-151 478.71,-181.8 761.14,-181.8 761.14,-151 478.71,-151"/>
<text text-anchor="start" x="485.71" y="-163.2" font-family="Arial" font-size="14.00">participantId </text>
<text text-anchor="start" x="565.87" y="-163.2" font-family="Arial" font-size="14.00" fill="#666666">[int unsigned]</text>
<polygon fill="none" stroke="black" points="478.71,-120.2 478.71,-151 761.14,-151 761.14,-120.2 478.71,-120.2"/>
<text text-anchor="start" x="485.71" y="-132.4" font-family="Arial" font-size="14.00">currencyId </text>
<text text-anchor="start" x="554.96" y="-132.4" font-family="Arial" font-size="14.00" fill="#666666">[varchar(3)]</text>
<polygon fill="none" stroke="black" points="478.71,-89.4 478.71,-120.2 761.14,-120.2 761.14,-89.4 478.71,-89.4"/>
<text text-anchor="start" x="485.71" y="-101.6" font-family="Arial" font-size="14.00">ledgerAccountTypeId </text>
<text text-anchor="start" x="621.91" y="-101.6" font-family="Arial" font-size="14.00" fill="#666666">[int unsigned]</text>
</g>
<!-- settlementContentAggregation&#45;&gt;participantCurrency -->
<g id="edge2" class="edge">
<title>settlementContentAggregation:participantCurrencyId&#45;&gt;participantCurrency:participantCurrencyId</title>
<path fill="none" stroke="black" d="M1049.11,-558.24C911.73,-553.73 894.29,-456.17 813.93,-337.6 776.61,-282.54 828.65,-197.2 762.14,-197.2"/>
<polygon fill="black" stroke="black" points="1048.87,-558.23 1058.8,-562.89 1054.21,-558.32 1058.54,-558.39 1058.54,-558.39 1058.54,-558.39 1054.21,-558.32 1058.95,-553.9 1048.87,-558.23"/>
<text text-anchor="start" x="614.29" y="-568.4" font-family="Arial" font-size="10.00">FOREIGN KEY (participantCurrencyId) REFERENCES participantCurrency (participantCurrencyId)</text>
</g>
<!-- transferParticipantRoleType -->
<g id="node4" class="node">
<title>transferParticipantRoleType</title>
<polygon fill="#efefef" stroke="none" points="865.72,-166.4 865.72,-202 1208.13,-202 1208.13,-166.4 865.72,-166.4"/>
<polygon fill="none" stroke="black" points="865.72,-166.4 865.72,-202 1208.13,-202 1208.13,-166.4 865.72,-166.4"/>
<text text-anchor="start" x="872.72" y="-179.8" font-family="Arial Bold" font-size="18.00">transferParticipantRoleType</text>
<text text-anchor="start" x="1076.64" y="-179.8" font-family="Arial" font-size="14.00">    </text>
<text text-anchor="start" x="1107.76" y="-179.8" font-family="Arial" font-size="14.00" fill="#666666">[BASE TABLE]</text>
<polygon fill="none" stroke="black" points="865.72,-135.6 865.72,-166.4 1208.13,-166.4 1208.13,-135.6 865.72,-135.6"/>
<text text-anchor="start" x="872.72" y="-147.8" font-family="Arial" font-size="14.00">transferParticipantRoleTypeId </text>
<text text-anchor="start" x="1061.81" y="-147.8" font-family="Arial" font-size="14.00" fill="#666666">[int unsigned]</text>
</g>
<!-- settlementContentAggregation&#45;&gt;transferParticipantRoleType -->
<g id="edge3" class="edge">
<title>settlementContentAggregation:transferParticipantRoleTypeId&#45;&gt;transferParticipantRoleType:transferParticipantRoleTypeId</title>
<path fill="none" stroke="black" d="M1048.94,-526.8C995.19,-517.65 1033.16,-432.38 1060.21,-373.6 1096.6,-294.51 1171.58,-324.21 1208.13,-245.2 1225.71,-207.2 1251,-151 1209.13,-151"/>
<polygon fill="black" stroke="black" points="1048.9,-526.79 1058.52,-532.06 1054.22,-527.21 1058.54,-527.55 1058.54,-527.55 1058.54,-527.55 1054.22,-527.21 1059.23,-523.09 1048.9,-526.79"/>
<text text-anchor="start" x="502.57" y="-537.6" font-family="Arial" font-size="10.00">FOREIGN KEY (transferParticipantRoleTypeId) REFERENCES transferParticipantRoleType (transferParticipantRoleTypeId)</text>
</g>
<!-- ledgerEntryType -->
<g id="node5" class="node">
<title>ledgerEntryType</title>
<polygon fill="#efefef" stroke="none" points="1312.71,-181.8 1312.71,-217.4 1573.15,-217.4 1573.15,-181.8 1312.71,-181.8"/>
<polygon fill="none" stroke="black" points="1312.71,-181.8 1312.71,-217.4 1573.15,-217.4 1573.15,-181.8 1312.71,-181.8"/>
<text text-anchor="start" x="1319.71" y="-195.2" font-family="Arial Bold" font-size="18.00">ledgerEntryType</text>
<text text-anchor="start" x="1441.66" y="-195.2" font-family="Arial" font-size="14.00">    </text>
<text text-anchor="start" x="1472.77" y="-195.2" font-family="Arial" font-size="14.00" fill="#666666">[BASE TABLE]</text>
<polygon fill="none" stroke="black" points="1312.71,-151 1312.71,-181.8 1573.15,-181.8 1573.15,-151 1312.71,-151"/>
<text text-anchor="start" x="1319.71" y="-163.2" font-family="Arial" font-size="14.00">ledgerEntryTypeId </text>
<text text-anchor="start" x="1437.99" y="-163.2" font-family="Arial" font-size="14.00" fill="#666666">[int unsigned]</text>
<polygon fill="none" stroke="black" points="1312.71,-120.2 1312.71,-151 1573.15,-151 1573.15,-120.2 1312.71,-120.2"/>
<text text-anchor="start" x="1319.71" y="-132.4" font-family="Arial" font-size="14.00">ledgerAccountTypeId </text>
<text text-anchor="start" x="1455.9" y="-132.4" font-family="Arial" font-size="14.00" fill="#666666">[int unsigned]</text>
</g>
<!-- settlementContentAggregation&#45;&gt;ledgerEntryType -->
<g id="edge4" class="edge">
<title>settlementContentAggregation:ledgerEntryTypeId&#45;&gt;ledgerEntryType:ledgerEntryTypeId</title>
<path fill="none" stroke="black" d="M1430.9,-495.76C1470.51,-486.72 1438.67,-420.82 1419.65,-373.6 1393.81,-309.46 1338.63,-324.7 1312.71,-260.6 1297.01,-221.78 1269.84,-166.4 1311.71,-166.4"/>
<polygon fill="black" stroke="black" points="1430.93,-495.76 1420.52,-492.29 1425.62,-496.29 1421.31,-496.73 1421.31,-496.73 1421.31,-496.73 1425.62,-496.29 1421.43,-501.24 1430.93,-495.76"/>
<text text-anchor="start" x="1427.65" y="-506.8" font-family="Arial" font-size="10.00">FOREIGN KEY (ledgerEntryTypeId) REFERENCES ledgerEntryType (ledgerEntryTypeId)</text>
</g>
<!-- settlementWindowState -->
<g id="node6" class="node">
<title>settlementWindowState</title>
<polygon fill="#efefef" stroke="none" points="1677.7,-166.4 1677.7,-202 1988.15,-202 1988.15,-166.4 1677.7,-166.4"/>
<polygon fill="none" stroke="black" points="1677.7,-166.4 1677.7,-202 1988.15,-202 1988.15,-166.4 1677.7,-166.4"/>
<text text-anchor="start" x="1684.7" y="-179.8" font-family="Arial Bold" font-size="18.00">settlementWindowState</text>
<text text-anchor="start" x="1856.66" y="-179.8" font-family="Arial" font-size="14.00">    </text>
<text text-anchor="start" x="1887.78" y="-179.8" font-family="Arial" font-size="14.00" fill="#666666">[BASE TABLE]</text>
<polygon fill="none" stroke="black" points="1677.7,-135.6 1677.7,-166.4 1988.15,-166.4 1988.15,-135.6 1677.7,-135.6"/>
<text text-anchor="start" x="1684.7" y="-147.8" font-family="Arial" font-size="14.00">settlementWindowStateId </text>
<text text-anchor="start" x="1847.34" y="-147.8" font-family="Arial" font-size="14.00" fill="#666666">[varchar(50)]</text>
</g>
<!-- settlementContentAggregation&#45;&gt;settlementWindowState -->
<g id="edge5" class="edge">
<title>settlementContentAggregation:currentStateId&#45;&gt;settlementWindowState:settlementWindowStateId</title>
<path fill="none" stroke="black" d="M1431.09,-465.86C1530.11,-463.14 1563,-420.75 1624.93,-337.6 1676.34,-268.57 1590.64,-151 1676.7,-151"/>
<polygon fill="black" stroke="black" points="1430.98,-465.86 1420.92,-461.5 1425.64,-465.93 1421.31,-465.99 1421.31,-465.99 1421.31,-465.99 1425.64,-465.93 1421.04,-470.5 1430.98,-465.86"/>
<text text-anchor="start" x="1427.65" y="-476" font-family="Arial" font-size="10.00">FOREIGN KEY (currentStateId) REFERENCES settlementWindowState (settlementWindowStateId)</text>
</g>
<!-- settlement -->
<g id="node7" class="node">
<title>settlement</title>
<polygon fill="#efefef" stroke="none" points="2092.51,-197.2 2092.51,-232.8 2349.34,-232.8 2349.34,-197.2 2092.51,-197.2"/>
<polygon fill="none" stroke="black" points="2092.51,-197.2 2092.51,-232.8 2349.34,-232.8 2349.34,-197.2 2092.51,-197.2"/>
<text text-anchor="start" x="2121.69" y="-210.6" font-family="Arial Bold" font-size="18.00">settlement</text>
<text text-anchor="start" x="2195.67" y="-210.6" font-family="Arial" font-size="14.00">    </text>
<text text-anchor="start" x="2226.79" y="-210.6" font-family="Arial" font-size="14.00" fill="#666666">[BASE TABLE]</text>
<polygon fill="none" stroke="black" points="2092.51,-166.4 2092.51,-197.2 2349.34,-197.2 2349.34,-166.4 2092.51,-166.4"/>
<text text-anchor="start" x="2099.51" y="-178.6" font-family="Arial" font-size="14.00">settlementId </text>
<text text-anchor="start" x="2179.66" y="-178.6" font-family="Arial" font-size="14.00" fill="#666666">[bigint unsigned]</text>
<polygon fill="none" stroke="black" points="2092.51,-135.6 2092.51,-166.4 2349.34,-166.4 2349.34,-135.6 2092.51,-135.6"/>
<text text-anchor="start" x="2099.51" y="-147.8" font-family="Arial" font-size="14.00">currentStateChangeId </text>
<text text-anchor="start" x="2240.38" y="-147.8" font-family="Arial" font-size="14.00" fill="#666666">[bigint unsigned]</text>
<polygon fill="none" stroke="black" points="2092.51,-104.8 2092.51,-135.6 2349.34,-135.6 2349.34,-104.8 2092.51,-104.8"/>
<text text-anchor="start" x="2099.51" y="-117" font-family="Arial" font-size="14.00">settlementModelId </text>
<text text-anchor="start" x="2217.79" y="-117" font-family="Arial" font-size="14.00" fill="#666666">[int unsigned]</text>
</g>
<!-- settlementContentAggregation&#45;&gt;settlement -->
<g id="edge6" class="edge">
<title>settlementContentAggregation:settlementId&#45;&gt;settlement:settlementId</title>
<path fill="none" stroke="black" d="M1430.82,-435.19C1577.33,-434.81 1936.19,-425.63 2039.93,-337.6 2095.54,-290.4 2018.57,-181.8 2091.51,-181.8"/>
<polygon fill="black" stroke="black" points="1430.98,-435.19 1420.97,-430.7 1425.65,-435.19 1421.31,-435.2 1421.31,-435.2 1421.31,-435.2 1425.65,-435.19 1420.99,-439.7 1430.98,-435.19"/>
<text text-anchor="start" x="1427.65" y="-445.2" font-family="Arial" font-size="10.00">FOREIGN KEY (settlementId) REFERENCES settlement (settlementId)</text>
</g>
</g>
</svg>
