<?xml version="1.0" encoding="UTF-8" standalone="no"?>
<!DOCTYPE svg PUBLIC "-//W3C//DTD SVG 1.1//EN"
 "http://www.w3.org/Graphics/SVG/1.1/DTD/svg11.dtd">
<!-- Generated by graphviz version 12.1.2 (20240928.0832)
 -->
<!-- Title: settlementWindowContentStateChange Pages: 1 -->
<svg width="1227pt" height="694pt"
 viewBox="0.00 0.00 1226.97 694.40" xmlns="http://www.w3.org/2000/svg" xmlns:xlink="http://www.w3.org/1999/xlink">
<g id="graph0" class="graph" transform="scale(1 1) rotate(0) translate(4 690.4)">
<title>settlementWindowContentStateChange</title>
<polygon fill="white" stroke="none" points="-4,4 -4,-690.4 1222.97,-690.4 1222.97,4 -4,4"/>
<!-- settlementWindowContentStateChange -->
<g id="node1" class="node">
<title>settlementWindowContentStateChange</title>
<polygon fill="#efefef" stroke="none" points="253.57,-604.6 253.57,-640.2 676,-640.2 676,-604.6 253.57,-604.6"/>
<polygon fill="none" stroke="black" points="253.57,-604.6 253.57,-640.2 676,-640.2 676,-604.6 253.57,-604.6"/>
<text text-anchor="start" x="260.57" y="-618" font-family="Arial Bold" font-size="18.00">settlementWindowContentStateChange</text>
<text text-anchor="start" x="544.51" y="-618" font-family="Arial" font-size="14.00">    </text>
<text text-anchor="start" x="575.63" y="-618" font-family="Arial" font-size="14.00" fill="#666666">[BASE TABLE]</text>
<polygon fill="none" stroke="black" points="253.57,-573.8 253.57,-604.6 676,-604.6 676,-573.8 253.57,-573.8"/>
<text text-anchor="start" x="260.57" y="-586" font-family="Arial" font-size="14.00">settlementWindowContentStateChangeId </text>
<text text-anchor="start" x="521.28" y="-586" font-family="Arial" font-size="14.00" fill="#666666">[bigint unsigned]</text>
<polygon fill="none" stroke="black" points="253.57,-543 253.57,-573.8 676,-573.8 676,-543 253.57,-543"/>
<text text-anchor="start" x="260.57" y="-555.2" font-family="Arial" font-size="14.00">settlementWindowContentId </text>
<text text-anchor="start" x="439.55" y="-555.2" font-family="Arial" font-size="14.00" fill="#666666">[bigint unsigned]</text>
<polygon fill="none" stroke="black" points="253.57,-512.2 253.57,-543 676,-543 676,-512.2 253.57,-512.2"/>
<text text-anchor="start" x="260.57" y="-524.4" font-family="Arial" font-size="14.00">settlementWindowStateId </text>
<text text-anchor="start" x="423.2" y="-524.4" font-family="Arial" font-size="14.00" fill="#666666">[varchar(50)]</text>
<polygon fill="none" stroke="black" points="253.57,-481.4 253.57,-512.2 676,-512.2 676,-481.4 253.57,-481.4"/>
<text text-anchor="start" x="260.57" y="-493.6" font-family="Arial" font-size="14.00">reason </text>
<text text-anchor="start" x="307.27" y="-493.6" font-family="Arial" font-size="14.00" fill="#666666">[varchar(512)]</text>
<polygon fill="none" stroke="black" points="253.57,-450.6 253.57,-481.4 676,-481.4 676,-450.6 253.57,-450.6"/>
<text text-anchor="start" x="260.57" y="-462.8" font-family="Arial" font-size="14.00">createdDate </text>
<text text-anchor="start" x="340.73" y="-462.8" font-family="Arial" font-size="14.00" fill="#666666">[datetime]</text>
<polygon fill="none" stroke="black" stroke-width="3" points="252.07,-449.1 252.07,-641.7 677.5,-641.7 677.5,-449.1 252.07,-449.1"/>
</g>
<!-- settlementWindowContent -->
<g id="node2" class="node">
<title>settlementWindowContent</title>
<polygon fill="#efefef" stroke="none" points="299.06,-289.6 299.06,-325.2 630.51,-325.2 630.51,-289.6 299.06,-289.6"/>
<polygon fill="none" stroke="black" points="299.06,-289.6 299.06,-325.2 630.51,-325.2 630.51,-289.6 299.06,-289.6"/>
<text text-anchor="start" x="306.06" y="-303" font-family="Arial Bold" font-size="18.00">settlementWindowContent</text>
<text text-anchor="start" x="499.02" y="-303" font-family="Arial" font-size="14.00">    </text>
<text text-anchor="start" x="530.14" y="-303" font-family="Arial" font-size="14.00" fill="#666666">[BASE TABLE]</text>
<polygon fill="none" stroke="black" points="299.06,-258.8 299.06,-289.6 630.51,-289.6 630.51,-258.8 299.06,-258.8"/>
<text text-anchor="start" x="306.06" y="-271" font-family="Arial" font-size="14.00">settlementWindowContentId </text>
<text text-anchor="start" x="485.04" y="-271" font-family="Arial" font-size="14.00" fill="#666666">[bigint unsigned]</text>
<polygon fill="none" stroke="black" points="299.06,-228 299.06,-258.8 630.51,-258.8 630.51,-228 299.06,-228"/>
<text text-anchor="start" x="306.06" y="-240.2" font-family="Arial" font-size="14.00">settlementWindowId </text>
<text text-anchor="start" x="436" y="-240.2" font-family="Arial" font-size="14.00" fill="#666666">[bigint unsigned]</text>
<polygon fill="none" stroke="black" points="299.06,-197.2 299.06,-228 630.51,-228 630.51,-197.2 299.06,-197.2"/>
<text text-anchor="start" x="306.06" y="-209.4" font-family="Arial" font-size="14.00">ledgerAccountTypeId </text>
<text text-anchor="start" x="442.25" y="-209.4" font-family="Arial" font-size="14.00" fill="#666666">[int unsigned]</text>
<polygon fill="none" stroke="black" points="299.06,-166.4 299.06,-197.2 630.51,-197.2 630.51,-166.4 299.06,-166.4"/>
<text text-anchor="start" x="306.06" y="-178.6" font-family="Arial" font-size="14.00">currencyId </text>
<text text-anchor="start" x="375.3" y="-178.6" font-family="Arial" font-size="14.00" fill="#666666">[varchar(3)]</text>
<polygon fill="none" stroke="black" points="299.06,-135.6 299.06,-166.4 630.51,-166.4 630.51,-135.6 299.06,-135.6"/>
<text text-anchor="start" x="306.06" y="-147.8" font-family="Arial" font-size="14.00">createdDate </text>
<text text-anchor="start" x="386.21" y="-147.8" font-family="Arial" font-size="14.00" fill="#666666">[datetime]</text>
<polygon fill="none" stroke="black" points="299.06,-104.8 299.06,-135.6 630.51,-135.6 630.51,-104.8 299.06,-104.8"/>
<text text-anchor="start" x="306.06" y="-117" font-family="Arial" font-size="14.00">currentStateChangeId </text>
<text text-anchor="start" x="446.92" y="-117" font-family="Arial" font-size="14.00" fill="#666666">[bigint unsigned]</text>
<polygon fill="none" stroke="black" points="299.06,-74 299.06,-104.8 630.51,-104.8 630.51,-74 299.06,-74"/>
<text text-anchor="start" x="306.06" y="-86.2" font-family="Arial" font-size="14.00">settlementId </text>
<text text-anchor="start" x="386.21" y="-86.2" font-family="Arial" font-size="14.00" fill="#666666">[bigint unsigned]</text>
<polygon fill="none" stroke="black" points="299.06,-43.2 299.06,-74 630.51,-74 630.51,-43.2 299.06,-43.2"/>
<text text-anchor="start" x="306.06" y="-55.4" font-family="Arial" font-size="14.00">SettlementModelId </text>
<text text-anchor="start" x="426.68" y="-55.4" font-family="Arial" font-size="14.00" fill="#666666">[int unsigned]</text>
</g>
<!-- settlementWindowContentStateChange&#45;&gt;settlementWindowContent -->
<g id="edge2" class="edge">
<title>settlementWindowContentStateChange:settlementWindowContentId&#45;&gt;settlementWindowContent:settlementWindowContentId</title>
<path fill="none" stroke="black" d="M684.13,-551.09C700.39,-506.61 660.43,-274.2 631.51,-274.2"/>
<polygon fill="black" stroke="black" points="684.21,-551 674.01,-555.02 680.49,-554.82 677.46,-557.92 677.46,-557.92 677.46,-557.92 680.49,-554.82 680.45,-561.3 684.21,-551"/>
<text text-anchor="start" x="684" y="-568.4" font-family="Arial" font-size="10.00">FOREIGN KEY (settlementWindowContentId) REFERENCES settlementWindowContent (settlementWindowContentId)</text>
</g>
<!-- settlementWindowState -->
<g id="node3" class="node">
<title>settlementWindowState</title>
<polygon fill="#efefef" stroke="none" points="734.56,-243.4 734.56,-279 1045.01,-279 1045.01,-243.4 734.56,-243.4"/>
<polygon fill="none" stroke="black" points="734.56,-243.4 734.56,-279 1045.01,-279 1045.01,-243.4 734.56,-243.4"/>
<text text-anchor="start" x="741.56" y="-256.8" font-family="Arial Bold" font-size="18.00">settlementWindowState</text>
<text text-anchor="start" x="913.52" y="-256.8" font-family="Arial" font-size="14.00">    </text>
<text text-anchor="start" x="944.63" y="-256.8" font-family="Arial" font-size="14.00" fill="#666666">[BASE TABLE]</text>
<polygon fill="none" stroke="black" points="734.56,-212.6 734.56,-243.4 1045.01,-243.4 1045.01,-212.6 734.56,-212.6"/>
<text text-anchor="start" x="741.56" y="-224.8" font-family="Arial" font-size="14.00">settlementWindowStateId </text>
<text text-anchor="start" x="904.19" y="-224.8" font-family="Arial" font-size="14.00" fill="#666666">[varchar(50)]</text>
<polygon fill="none" stroke="black" points="734.56,-181.8 734.56,-212.6 1045.01,-212.6 1045.01,-181.8 734.56,-181.8"/>
<text text-anchor="start" x="741.56" y="-194" font-family="Arial" font-size="14.00">enumeration </text>
<text text-anchor="start" x="823.28" y="-194" font-family="Arial" font-size="14.00" fill="#666666">[varchar(50)]</text>
<polygon fill="none" stroke="black" points="734.56,-151 734.56,-181.8 1045.01,-181.8 1045.01,-151 734.56,-151"/>
<text text-anchor="start" x="741.56" y="-163.2" font-family="Arial" font-size="14.00">description </text>
<text text-anchor="start" x="813.15" y="-163.2" font-family="Arial" font-size="14.00" fill="#666666">[varchar(512)]</text>
<polygon fill="none" stroke="black" points="734.56,-120.2 734.56,-151 1045.01,-151 1045.01,-120.2 734.56,-120.2"/>
<text text-anchor="start" x="741.56" y="-132.4" font-family="Arial" font-size="14.00">isActive </text>
<text text-anchor="start" x="793.68" y="-132.4" font-family="Arial" font-size="14.00" fill="#666666">[tinyint(1)]</text>
<polygon fill="none" stroke="black" points="734.56,-89.4 734.56,-120.2 1045.01,-120.2 1045.01,-89.4 734.56,-89.4"/>
<text text-anchor="start" x="741.56" y="-101.6" font-family="Arial" font-size="14.00">createdDate </text>
<text text-anchor="start" x="821.72" y="-101.6" font-family="Arial" font-size="14.00" fill="#666666">[datetime]</text>
</g>
<!-- settlementWindowContentStateChange&#45;&gt;settlementWindowState -->
<g id="edge3" class="edge">
<title>settlementWindowContentStateChange:settlementWindowStateId&#45;&gt;settlementWindowState:settlementWindowStateId</title>
<path fill="none" stroke="black" d="M687.34,-526.94C801.04,-511.44 601.76,-228 733.56,-228"/>
<polygon fill="black" stroke="black" points="687.31,-526.94 677.04,-523.09 681.99,-527.28 677.67,-527.56 677.67,-527.56 677.67,-527.56 681.99,-527.28 677.62,-532.07 687.31,-526.94"/>
<text text-anchor="start" x="684" y="-537.6" font-family="Arial" font-size="10.00">FOREIGN KEY (settlementWindowStateId) REFERENCES settlementWindowState (settlementWindowStateId)</text>
</g>
<!-- settlementWindowContent&#45;&gt;settlementWindowContentStateChange -->
<g id="edge1" class="edge">
<title>settlementWindowContent:currentStateChangeId&#45;&gt;settlementWindowContentStateChange:settlementWindowContentStateChangeId</title>
<path fill="none" stroke="black" d="M637.96,-128.34C664.36,-190.62 701.13,-589.2 677,-589.2"/>
<polygon fill="black" stroke="black" points="637.93,-128.3 635.25,-117.67 634.61,-124.12 631.93,-120.72 631.93,-120.72 631.93,-120.72 634.61,-124.12 628.19,-123.26 637.93,-128.3"/>
<text text-anchor="start" x="7" y="-130.2" font-family="Arial" font-size="10.00">FOREIGN KEY (currentStateChangeId) REFERENCES settlementWindowContentStateChange (settlementWindowContentStateChangeId)</text>
</g>
</g>
</svg>
