<?xml version="1.0" encoding="UTF-8" standalone="no"?>
<!DOCTYPE svg PUBLIC "-//W3C//DTD SVG 1.1//EN"
 "http://www.w3.org/Graphics/SVG/1.1/DTD/svg11.dtd">
<!-- Generated by graphviz version 12.1.2 (20240928.0832)
 -->
<!-- Title: settlementState Pages: 1 -->
<svg width="1003pt" height="417pt"
 viewBox="0.00 0.00 1002.92 417.20" xmlns="http://www.w3.org/2000/svg" xmlns:xlink="http://www.w3.org/1999/xlink">
<g id="graph0" class="graph" transform="scale(1 1) rotate(0) translate(4 413.2)">
<title>settlementState</title>
<polygon fill="white" stroke="none" points="-4,4 -4,-413.2 998.92,-413.2 998.92,4 -4,4"/>
<!-- settlementState -->
<g id="node1" class="node">
<title>settlementState</title>
<polygon fill="#efefef" stroke="none" points="383.17,-77 383.17,-112.6 631.62,-112.6 631.62,-77 383.17,-77"/>
<polygon fill="none" stroke="black" points="383.17,-77 383.17,-112.6 631.62,-112.6 631.62,-77 383.17,-77"/>
<text text-anchor="start" x="390.17" y="-90.4" font-family="Arial Bold" font-size="18.00">settlementState</text>
<text text-anchor="start" x="500.14" y="-90.4" font-family="Arial" font-size="14.00">    </text>
<text text-anchor="start" x="531.25" y="-90.4" font-family="Arial" font-size="14.00" fill="#666666">[BASE TABLE]</text>
<polygon fill="none" stroke="black" points="383.17,-46.2 383.17,-77 631.62,-77 631.62,-46.2 383.17,-46.2"/>
<text text-anchor="start" x="390.17" y="-58.4" font-family="Arial" font-size="14.00">settlementStateId </text>
<text text-anchor="start" x="503.01" y="-58.4" font-family="Arial" font-size="14.00" fill="#666666">[varchar(50)]</text>
<polygon fill="none" stroke="black" stroke-width="3" points="381.67,-44.7 381.67,-114.1 633.12,-114.1 633.12,-44.7 381.67,-44.7"/>
</g>
<!-- settlementParticipantCurrencyStateChange -->
<g id="node2" class="node">
<title>settlementParticipantCurrencyStateChange</title>
<polygon fill="#efefef" stroke="none" points="43.2,-330.4 43.2,-366 491.59,-366 491.59,-330.4 43.2,-330.4"/>
<polygon fill="none" stroke="black" points="43.2,-330.4 43.2,-366 491.59,-366 491.59,-330.4 43.2,-330.4"/>
<text text-anchor="start" x="50.2" y="-343.8" font-family="Arial Bold" font-size="18.00">settlementParticipantCurrencyStateChange</text>
<text text-anchor="start" x="360.1" y="-343.8" font-family="Arial" font-size="14.00">    </text>
<text text-anchor="start" x="391.22" y="-343.8" font-family="Arial" font-size="14.00" fill="#666666">[BASE TABLE]</text>
<polygon fill="none" stroke="black" points="43.2,-299.6 43.2,-330.4 491.59,-330.4 491.59,-299.6 43.2,-299.6"/>
<text text-anchor="start" x="50.2" y="-311.8" font-family="Arial" font-size="14.00">settlementParticipantCurrencyStateChangeId </text>
<text text-anchor="start" x="335.02" y="-311.8" font-family="Arial" font-size="14.00" fill="#666666">[bigint unsigned]</text>
<polygon fill="none" stroke="black" points="43.2,-268.8 43.2,-299.6 491.59,-299.6 491.59,-268.8 43.2,-268.8"/>
<text text-anchor="start" x="50.2" y="-281" font-family="Arial" font-size="14.00">settlementParticipantCurrencyId </text>
<text text-anchor="start" x="253.29" y="-281" font-family="Arial" font-size="14.00" fill="#666666">[bigint unsigned]</text>
<polygon fill="none" stroke="black" points="43.2,-238 43.2,-268.8 491.59,-268.8 491.59,-238 43.2,-238"/>
<text text-anchor="start" x="50.2" y="-250.2" font-family="Arial" font-size="14.00">settlementStateId </text>
<text text-anchor="start" x="163.04" y="-250.2" font-family="Arial" font-size="14.00" fill="#666666">[varchar(50)]</text>
</g>
<!-- settlementParticipantCurrencyStateChange&#45;&gt;settlementState -->
<g id="edge1" class="edge">
<title>settlementParticipantCurrencyStateChange:settlementStateId&#45;&gt;settlementState:settlementStateId</title>
<path fill="none" stroke="black" d="M502.52,-250.6C514.72,-241.51 504.48,-212.35 491.59,-194.8 461.53,-153.88 413.09,-199.82 383.17,-158.8 357.71,-123.9 338.96,-61.6 382.17,-61.6"/>
<polygon fill="black" stroke="black" points="502.54,-250.6 491.69,-248.98 497.4,-252.04 493.24,-253.22 493.24,-253.22 493.24,-253.22 497.4,-252.04 494.13,-257.64 502.54,-250.6"/>
<text text-anchor="start" x="499.59" y="-263.4" font-family="Arial" font-size="10.00">FOREIGN KEY (settlementStateId) REFERENCES settlementState (settlementStateId)</text>
</g>
<!-- settlementStateChange -->
<g id="node3" class="node">
<title>settlementStateChange</title>
<polygon fill="#efefef" stroke="none" points="595.67,-330.4 595.67,-366 899.12,-366 899.12,-330.4 595.67,-330.4"/>
<polygon fill="none" stroke="black" points="595.67,-330.4 595.67,-366 899.12,-366 899.12,-330.4 595.67,-330.4"/>
<text text-anchor="start" x="602.67" y="-343.8" font-family="Arial Bold" font-size="18.00">settlementStateChange</text>
<text text-anchor="start" x="767.63" y="-343.8" font-family="Arial" font-size="14.00">    </text>
<text text-anchor="start" x="798.74" y="-343.8" font-family="Arial" font-size="14.00" fill="#666666">[BASE TABLE]</text>
<polygon fill="none" stroke="black" points="595.67,-299.6 595.67,-330.4 899.12,-330.4 899.12,-299.6 595.67,-299.6"/>
<text text-anchor="start" x="602.67" y="-311.8" font-family="Arial" font-size="14.00">settlementStateChangeId </text>
<text text-anchor="start" x="764.56" y="-311.8" font-family="Arial" font-size="14.00" fill="#666666">[bigint unsigned]</text>
<polygon fill="none" stroke="black" points="595.67,-268.8 595.67,-299.6 899.12,-299.6 899.12,-268.8 595.67,-268.8"/>
<text text-anchor="start" x="602.67" y="-281" font-family="Arial" font-size="14.00">settlementId </text>
<text text-anchor="start" x="682.83" y="-281" font-family="Arial" font-size="14.00" fill="#666666">[bigint unsigned]</text>
<polygon fill="none" stroke="black" points="595.67,-238 595.67,-268.8 899.12,-268.8 899.12,-238 595.67,-238"/>
<text text-anchor="start" x="602.67" y="-250.2" font-family="Arial" font-size="14.00">settlementStateId </text>
<text text-anchor="start" x="715.52" y="-250.2" font-family="Arial" font-size="14.00" fill="#666666">[varchar(50)]</text>
</g>
<!-- settlementStateChange&#45;&gt;settlementState -->
<g id="edge2" class="edge">
<title>settlementStateChange:settlementStateId&#45;&gt;settlementState:settlementStateId</title>
<path fill="none" stroke="black" d="M584.8,-250.56C574.23,-241.81 587.26,-214.66 595.67,-194.8 604.5,-173.98 622.87,-179.65 631.62,-158.8 648.35,-118.97 675.83,-61.6 632.62,-61.6"/>
<polygon fill="black" stroke="black" points="584.74,-250.55 593.11,-257.63 589.87,-252.02 594.03,-253.22 594.03,-253.22 594.03,-253.22 589.87,-252.02 595.6,-248.98 584.74,-250.55"/>
<text text-anchor="start" x="601.67" y="-237.4" font-family="Arial" font-size="10.00">FOREIGN KEY (settlementStateId) REFERENCES settlementState (settlementStateId)</text>
</g>
</g>
</svg>
