<?xml version="1.0" encoding="UTF-8" standalone="no"?>
<!DOCTYPE svg PUBLIC "-//W3C//DTD SVG 1.1//EN"
 "http://www.w3.org/Graphics/SVG/1.1/DTD/svg11.dtd">
<!-- Generated by graphviz version 12.1.2 (20240928.0832)
 -->
<!-- Title: settlementGranularity Pages: 1 -->
<svg width="810pt" height="520pt"
 viewBox="0.00 0.00 809.57 519.98" xmlns="http://www.w3.org/2000/svg" xmlns:xlink="http://www.w3.org/1999/xlink">
<g id="graph0" class="graph" transform="scale(1 1) rotate(0) translate(4 515.98)">
<title>settlementGranularity</title>
<polygon fill="white" stroke="none" points="-4,4 -4,-515.98 805.57,-515.98 805.57,4 -4,4"/>
<!-- settlementGranularity -->
<g id="node1" class="node">
<title>settlementGranularity</title>
<polygon fill="#efefef" stroke="none" points="46.2,-87.38 46.2,-122.98 341.64,-122.98 341.64,-87.38 46.2,-87.38"/>
<polygon fill="none" stroke="black" points="46.2,-87.38 46.2,-122.98 341.64,-122.98 341.64,-87.38 46.2,-87.38"/>
<text text-anchor="start" x="53.2" y="-100.78" font-family="Arial Bold" font-size="18.00">settlementGranularity</text>
<text text-anchor="start" x="210.15" y="-100.78" font-family="Arial" font-size="14.00">    </text>
<text text-anchor="start" x="241.26" y="-100.78" font-family="Arial" font-size="14.00" fill="#666666">[BASE TABLE]</text>
<polygon fill="none" stroke="black" points="46.2,-56.58 46.2,-87.38 341.64,-87.38 341.64,-56.58 46.2,-56.58"/>
<text text-anchor="start" x="53.2" y="-68.78" font-family="Arial" font-size="14.00">settlementGranularityId </text>
<text text-anchor="start" x="201.82" y="-68.78" font-family="Arial" font-size="14.00" fill="#666666">[int unsigned]</text>
<polygon fill="none" stroke="black" stroke-width="3" points="44.7,-55.08 44.7,-124.48 343.14,-124.48 343.14,-55.08 44.7,-55.08"/>
</g>
<!-- settlementModel -->
<g id="node2" class="node">
<title>settlementModel</title>
<polygon fill="#efefef" stroke="none" points="64.19,-433.18 64.19,-468.78 323.65,-468.78 323.65,-433.18 64.19,-433.18"/>
<polygon fill="none" stroke="black" points="64.19,-433.18 64.19,-468.78 323.65,-468.78 323.65,-433.18 64.19,-433.18"/>
<text text-anchor="start" x="71.19" y="-446.58" font-family="Arial Bold" font-size="18.00">settlementModel</text>
<text text-anchor="start" x="192.16" y="-446.58" font-family="Arial" font-size="14.00">    </text>
<text text-anchor="start" x="223.28" y="-446.58" font-family="Arial" font-size="14.00" fill="#666666">[BASE TABLE]</text>
<polygon fill="none" stroke="black" points="64.19,-402.38 64.19,-433.18 323.65,-433.18 323.65,-402.38 64.19,-402.38"/>
<text text-anchor="start" x="71.19" y="-414.58" font-family="Arial" font-size="14.00">settlementModelId </text>
<text text-anchor="start" x="189.47" y="-414.58" font-family="Arial" font-size="14.00" fill="#666666">[int unsigned]</text>
<polygon fill="none" stroke="black" points="64.19,-371.58 64.19,-402.38 323.65,-402.38 323.65,-371.58 64.19,-371.58"/>
<text text-anchor="start" x="71.19" y="-383.78" font-family="Arial" font-size="14.00">settlementGranularityId </text>
<text text-anchor="start" x="219.81" y="-383.78" font-family="Arial" font-size="14.00" fill="#666666">[int unsigned]</text>
<polygon fill="none" stroke="black" points="64.19,-340.78 64.19,-371.58 323.65,-371.58 323.65,-340.78 64.19,-340.78"/>
<text text-anchor="start" x="71.19" y="-352.98" font-family="Arial" font-size="14.00">settlementInterchangeId </text>
<text text-anchor="start" x="225.28" y="-352.98" font-family="Arial" font-size="14.00" fill="#666666">[int unsigned]</text>
<polygon fill="none" stroke="black" points="64.19,-309.98 64.19,-340.78 323.65,-340.78 323.65,-309.98 64.19,-309.98"/>
<text text-anchor="start" x="71.19" y="-322.18" font-family="Arial" font-size="14.00">settlementDelayId </text>
<text text-anchor="start" x="187.13" y="-322.18" font-family="Arial" font-size="14.00" fill="#666666">[int unsigned]</text>
<polygon fill="none" stroke="black" points="64.19,-279.18 64.19,-309.98 323.65,-309.98 323.65,-279.18 64.19,-279.18"/>
<text text-anchor="start" x="71.19" y="-291.38" font-family="Arial" font-size="14.00">currencyId </text>
<text text-anchor="start" x="140.43" y="-291.38" font-family="Arial" font-size="14.00" fill="#666666">[varchar(3)]</text>
<polygon fill="none" stroke="black" points="64.19,-248.38 64.19,-279.18 323.65,-279.18 323.65,-248.38 64.19,-248.38"/>
<text text-anchor="start" x="71.19" y="-260.58" font-family="Arial" font-size="14.00">ledgerAccountTypeId </text>
<text text-anchor="start" x="207.38" y="-260.58" font-family="Arial" font-size="14.00" fill="#666666">[int unsigned]</text>
</g>
<!-- settlementModel&#45;&gt;settlementGranularity -->
<g id="edge1" class="edge">
<title>settlementModel:settlementGranularityId&#45;&gt;settlementGranularity:settlementGranularityId</title>
<path fill="none" stroke="black" d="M333.64,-381.69C369.7,-341.19 412.14,-81.01 387.84,-56.58 327.05,4.52 193.92,30.61 193.92,-55.58"/>
<polygon fill="black" stroke="black" points="333.56,-381.74 322.65,-382.93 328.96,-384.44 325.23,-386.64 325.23,-386.64 325.23,-386.64 328.96,-384.44 327.22,-390.69 333.56,-381.74"/>
<text text-anchor="start" x="331.65" y="-396.98" font-family="Arial" font-size="10.00">FOREIGN KEY (settlementGranularityId) REFERENCES settlementGranularity (settlementGranularityId)</text>
</g>
</g>
</svg>
