<?xml version="1.0" encoding="UTF-8" standalone="no"?>
<!DOCTYPE svg PUBLIC "-//W3C//DTD SVG 1.1//EN"
 "http://www.w3.org/Graphics/SVG/1.1/DTD/svg11.dtd">
<!-- Generated by graphviz version 12.1.2 (20240928.0832)
 -->
<!-- Title: settlementState Pages: 1 -->
<svg width="1003pt" height="633pt"
 viewBox="0.00 0.00 1002.92 632.80" xmlns="http://www.w3.org/2000/svg" xmlns:xlink="http://www.w3.org/1999/xlink">
<g id="graph0" class="graph" transform="scale(1 1) rotate(0) translate(4 628.8)">
<title>settlementState</title>
<polygon fill="white" stroke="none" points="-4,4 -4,-628.8 998.92,-628.8 998.92,4 -4,4"/>
<!-- settlementState -->
<g id="node1" class="node">
<title>settlementState</title>
<polygon fill="#efefef" stroke="none" points="383.17,-200.2 383.17,-235.8 631.62,-235.8 631.62,-200.2 383.17,-200.2"/>
<polygon fill="none" stroke="black" points="383.17,-200.2 383.17,-235.8 631.62,-235.8 631.62,-200.2 383.17,-200.2"/>
<text text-anchor="start" x="390.17" y="-213.6" font-family="Arial Bold" font-size="18.00">settlementState</text>
<text text-anchor="start" x="500.14" y="-213.6" font-family="Arial" font-size="14.00">    </text>
<text text-anchor="start" x="531.25" y="-213.6" font-family="Arial" font-size="14.00" fill="#666666">[BASE TABLE]</text>
<polygon fill="none" stroke="black" points="383.17,-169.4 383.17,-200.2 631.62,-200.2 631.62,-169.4 383.17,-169.4"/>
<text text-anchor="start" x="390.17" y="-181.6" font-family="Arial" font-size="14.00">settlementStateId </text>
<text text-anchor="start" x="503.01" y="-181.6" font-family="Arial" font-size="14.00" fill="#666666">[varchar(50)]</text>
<polygon fill="none" stroke="black" points="383.17,-138.6 383.17,-169.4 631.62,-169.4 631.62,-138.6 383.17,-138.6"/>
<text text-anchor="start" x="390.17" y="-150.8" font-family="Arial" font-size="14.00">enumeration </text>
<text text-anchor="start" x="471.88" y="-150.8" font-family="Arial" font-size="14.00" fill="#666666">[varchar(50)]</text>
<polygon fill="none" stroke="black" points="383.17,-107.8 383.17,-138.6 631.62,-138.6 631.62,-107.8 383.17,-107.8"/>
<text text-anchor="start" x="390.17" y="-120" font-family="Arial" font-size="14.00">description </text>
<text text-anchor="start" x="461.76" y="-120" font-family="Arial" font-size="14.00" fill="#666666">[varchar(512)]</text>
<polygon fill="none" stroke="black" points="383.17,-77 383.17,-107.8 631.62,-107.8 631.62,-77 383.17,-77"/>
<text text-anchor="start" x="390.17" y="-89.2" font-family="Arial" font-size="14.00">isActive </text>
<text text-anchor="start" x="442.29" y="-89.2" font-family="Arial" font-size="14.00" fill="#666666">[tinyint(1)]</text>
<polygon fill="none" stroke="black" points="383.17,-46.2 383.17,-77 631.62,-77 631.62,-46.2 383.17,-46.2"/>
<text text-anchor="start" x="390.17" y="-58.4" font-family="Arial" font-size="14.00">createdDate </text>
<text text-anchor="start" x="470.32" y="-58.4" font-family="Arial" font-size="14.00" fill="#666666">[datetime]</text>
<polygon fill="none" stroke="black" stroke-width="3" points="381.67,-44.7 381.67,-237.3 633.12,-237.3 633.12,-44.7 381.67,-44.7"/>
</g>
<!-- settlementParticipantCurrencyStateChange -->
<g id="node2" class="node">
<title>settlementParticipantCurrencyStateChange</title>
<polygon fill="#efefef" stroke="none" points="43.2,-546 43.2,-581.6 491.59,-581.6 491.59,-546 43.2,-546"/>
<polygon fill="none" stroke="black" points="43.2,-546 43.2,-581.6 491.59,-581.6 491.59,-546 43.2,-546"/>
<text text-anchor="start" x="50.2" y="-559.4" font-family="Arial Bold" font-size="18.00">settlementParticipantCurrencyStateChange</text>
<text text-anchor="start" x="360.1" y="-559.4" font-family="Arial" font-size="14.00">    </text>
<text text-anchor="start" x="391.22" y="-559.4" font-family="Arial" font-size="14.00" fill="#666666">[BASE TABLE]</text>
<polygon fill="none" stroke="black" points="43.2,-515.2 43.2,-546 491.59,-546 491.59,-515.2 43.2,-515.2"/>
<text text-anchor="start" x="50.2" y="-527.4" font-family="Arial" font-size="14.00">settlementParticipantCurrencyStateChangeId </text>
<text text-anchor="start" x="335.02" y="-527.4" font-family="Arial" font-size="14.00" fill="#666666">[bigint unsigned]</text>
<polygon fill="none" stroke="black" points="43.2,-484.4 43.2,-515.2 491.59,-515.2 491.59,-484.4 43.2,-484.4"/>
<text text-anchor="start" x="50.2" y="-496.6" font-family="Arial" font-size="14.00">settlementParticipantCurrencyId </text>
<text text-anchor="start" x="253.29" y="-496.6" font-family="Arial" font-size="14.00" fill="#666666">[bigint unsigned]</text>
<polygon fill="none" stroke="black" points="43.2,-453.6 43.2,-484.4 491.59,-484.4 491.59,-453.6 43.2,-453.6"/>
<text text-anchor="start" x="50.2" y="-465.8" font-family="Arial" font-size="14.00">settlementStateId </text>
<text text-anchor="start" x="163.04" y="-465.8" font-family="Arial" font-size="14.00" fill="#666666">[varchar(50)]</text>
<polygon fill="none" stroke="black" points="43.2,-422.8 43.2,-453.6 491.59,-453.6 491.59,-422.8 43.2,-422.8"/>
<text text-anchor="start" x="50.2" y="-435" font-family="Arial" font-size="14.00">reason </text>
<text text-anchor="start" x="96.9" y="-435" font-family="Arial" font-size="14.00" fill="#666666">[varchar(512)]</text>
<polygon fill="none" stroke="black" points="43.2,-392 43.2,-422.8 491.59,-422.8 491.59,-392 43.2,-392"/>
<text text-anchor="start" x="50.2" y="-404.2" font-family="Arial" font-size="14.00">externalReference </text>
<text text-anchor="start" x="168.49" y="-404.2" font-family="Arial" font-size="14.00" fill="#666666">[varchar(50)]</text>
<polygon fill="none" stroke="black" points="43.2,-361.2 43.2,-392 491.59,-392 491.59,-361.2 43.2,-361.2"/>
<text text-anchor="start" x="50.2" y="-373.4" font-family="Arial" font-size="14.00">createdDate </text>
<text text-anchor="start" x="130.36" y="-373.4" font-family="Arial" font-size="14.00" fill="#666666">[datetime]</text>
</g>
<!-- settlementParticipantCurrencyStateChange&#45;&gt;settlementState -->
<g id="edge1" class="edge">
<title>settlementParticipantCurrencyStateChange:settlementStateId&#45;&gt;settlementState:settlementStateId</title>
<path fill="none" stroke="black" d="M502.76,-468.16C556.54,-458.55 528.89,-369.32 491.59,-318 461.74,-276.92 413.09,-323.02 383.17,-282 357.71,-247.1 338.96,-184.8 382.17,-184.8"/>
<polygon fill="black" stroke="black" points="502.89,-468.14 492.55,-464.49 497.57,-468.59 493.26,-468.94 493.26,-468.94 493.26,-468.94 497.57,-468.59 493.3,-473.46 502.89,-468.14"/>
<text text-anchor="start" x="499.59" y="-479" font-family="Arial" font-size="10.00">FOREIGN KEY (settlementStateId) REFERENCES settlementState (settlementStateId)</text>
</g>
<!-- settlementStateChange -->
<g id="node3" class="node">
<title>settlementStateChange</title>
<polygon fill="#efefef" stroke="none" points="595.67,-530.6 595.67,-566.2 899.12,-566.2 899.12,-530.6 595.67,-530.6"/>
<polygon fill="none" stroke="black" points="595.67,-530.6 595.67,-566.2 899.12,-566.2 899.12,-530.6 595.67,-530.6"/>
<text text-anchor="start" x="602.67" y="-544" font-family="Arial Bold" font-size="18.00">settlementStateChange</text>
<text text-anchor="start" x="767.63" y="-544" font-family="Arial" font-size="14.00">    </text>
<text text-anchor="start" x="798.74" y="-544" font-family="Arial" font-size="14.00" fill="#666666">[BASE TABLE]</text>
<polygon fill="none" stroke="black" points="595.67,-499.8 595.67,-530.6 899.12,-530.6 899.12,-499.8 595.67,-499.8"/>
<text text-anchor="start" x="602.67" y="-512" font-family="Arial" font-size="14.00">settlementStateChangeId </text>
<text text-anchor="start" x="764.56" y="-512" font-family="Arial" font-size="14.00" fill="#666666">[bigint unsigned]</text>
<polygon fill="none" stroke="black" points="595.67,-469 595.67,-499.8 899.12,-499.8 899.12,-469 595.67,-469"/>
<text text-anchor="start" x="602.67" y="-481.2" font-family="Arial" font-size="14.00">settlementId </text>
<text text-anchor="start" x="682.83" y="-481.2" font-family="Arial" font-size="14.00" fill="#666666">[bigint unsigned]</text>
<polygon fill="none" stroke="black" points="595.67,-438.2 595.67,-469 899.12,-469 899.12,-438.2 595.67,-438.2"/>
<text text-anchor="start" x="602.67" y="-450.4" font-family="Arial" font-size="14.00">settlementStateId </text>
<text text-anchor="start" x="715.52" y="-450.4" font-family="Arial" font-size="14.00" fill="#666666">[varchar(50)]</text>
<polygon fill="none" stroke="black" points="595.67,-407.4 595.67,-438.2 899.12,-438.2 899.12,-407.4 595.67,-407.4"/>
<text text-anchor="start" x="602.67" y="-419.6" font-family="Arial" font-size="14.00">reason </text>
<text text-anchor="start" x="649.37" y="-419.6" font-family="Arial" font-size="14.00" fill="#666666">[varchar(512)]</text>
<polygon fill="none" stroke="black" points="595.67,-376.6 595.67,-407.4 899.12,-407.4 899.12,-376.6 595.67,-376.6"/>
<text text-anchor="start" x="602.67" y="-388.8" font-family="Arial" font-size="14.00">createdDate </text>
<text text-anchor="start" x="682.83" y="-388.8" font-family="Arial" font-size="14.00" fill="#666666">[datetime]</text>
</g>
<!-- settlementStateChange&#45;&gt;settlementState -->
<g id="edge2" class="edge">
<title>settlementStateChange:settlementStateId&#45;&gt;settlementState:settlementStateId</title>
<path fill="none" stroke="black" d="M584.72,-452.6C546.51,-443.94 580.55,-380.71 595.67,-333.4 604.16,-306.85 623.11,-308.55 631.62,-282 644.82,-240.86 675.83,-184.8 632.62,-184.8"/>
<polygon fill="black" stroke="black" points="584.39,-452.57 593.89,-458.04 589.7,-453.1 594.01,-453.53 594.01,-453.53 594.01,-453.53 589.7,-453.1 594.79,-449.09 584.39,-452.57"/>
<text text-anchor="start" x="601.67" y="-437.6" font-family="Arial" font-size="10.00">FOREIGN KEY (settlementStateId) REFERENCES settlementState (settlementStateId)</text>
</g>
</g>
</svg>
