<?xml version="1.0" encoding="UTF-8" standalone="no"?>
<!DOCTYPE svg PUBLIC "-//W3C//DTD SVG 1.1//EN"
 "http://www.w3.org/Graphics/SVG/1.1/DTD/svg11.dtd">
<!-- Generated by graphviz version 12.1.2 (20240928.0832)
 -->
<!-- Title: settlementWindow Pages: 1 -->
<svg width="2332pt" height="822pt"
 viewBox="0.00 0.00 2331.85 821.60" xmlns="http://www.w3.org/2000/svg" xmlns:xlink="http://www.w3.org/1999/xlink">
<g id="graph0" class="graph" transform="scale(1 1) rotate(0) translate(4 817.6)">
<title>settlementWindow</title>
<polygon fill="white" stroke="none" points="-4,4 -4,-817.6 2327.85,-817.6 2327.85,4 -4,4"/>
<!-- settlementWindow -->
<g id="node1" class="node">
<title>settlementWindow</title>
<polygon fill="#efefef" stroke="none" points="1034.45,-358.2 1034.45,-393.8 1308.91,-393.8 1308.91,-358.2 1034.45,-358.2"/>
<polygon fill="none" stroke="black" points="1034.45,-358.2 1034.45,-393.8 1308.91,-393.8 1308.91,-358.2 1034.45,-358.2"/>
<text text-anchor="start" x="1041.45" y="-371.6" font-family="Arial Bold" font-size="18.00">settlementWindow</text>
<text text-anchor="start" x="1177.42" y="-371.6" font-family="Arial" font-size="14.00">    </text>
<text text-anchor="start" x="1208.53" y="-371.6" font-family="Arial" font-size="14.00" fill="#666666">[BASE TABLE]</text>
<polygon fill="none" stroke="black" points="1034.45,-327.4 1034.45,-358.2 1308.91,-358.2 1308.91,-327.4 1034.45,-327.4"/>
<text text-anchor="start" x="1041.45" y="-339.6" font-family="Arial" font-size="14.00">settlementWindowId </text>
<text text-anchor="start" x="1171.4" y="-339.6" font-family="Arial" font-size="14.00" fill="#666666">[bigint unsigned]</text>
<polygon fill="none" stroke="black" points="1034.45,-296.6 1034.45,-327.4 1308.91,-327.4 1308.91,-296.6 1034.45,-296.6"/>
<text text-anchor="start" x="1041.45" y="-308.8" font-family="Arial" font-size="14.00">currentStateChangeId </text>
<text text-anchor="start" x="1182.32" y="-308.8" font-family="Arial" font-size="14.00" fill="#666666">[bigint unsigned]</text>
<polygon fill="none" stroke="black" stroke-width="3" points="1032.95,-295.1 1032.95,-395.3 1310.41,-395.3 1310.41,-295.1 1032.95,-295.1"/>
</g>
<!-- settlementWindowStateChange -->
<g id="node6" class="node">
<title>settlementWindowStateChange</title>
<polygon fill="#efefef" stroke="none" points="988.96,-135.6 988.96,-171.2 1354.39,-171.2 1354.39,-135.6 988.96,-135.6"/>
<polygon fill="none" stroke="black" points="988.96,-135.6 988.96,-171.2 1354.39,-171.2 1354.39,-135.6 988.96,-135.6"/>
<text text-anchor="start" x="995.96" y="-149" font-family="Arial Bold" font-size="18.00">settlementWindowStateChange</text>
<text text-anchor="start" x="1222.91" y="-149" font-family="Arial" font-size="14.00">    </text>
<text text-anchor="start" x="1254.02" y="-149" font-family="Arial" font-size="14.00" fill="#666666">[BASE TABLE]</text>
<polygon fill="none" stroke="black" points="988.96,-104.8 988.96,-135.6 1354.39,-135.6 1354.39,-104.8 988.96,-104.8"/>
<text text-anchor="start" x="995.96" y="-117" font-family="Arial" font-size="14.00">settlementWindowStateChangeId </text>
<text text-anchor="start" x="1207.64" y="-117" font-family="Arial" font-size="14.00" fill="#666666">[bigint unsigned]</text>
<polygon fill="none" stroke="black" points="988.96,-74 988.96,-104.8 1354.39,-104.8 1354.39,-74 988.96,-74"/>
<text text-anchor="start" x="995.96" y="-86.2" font-family="Arial" font-size="14.00">settlementWindowId </text>
<text text-anchor="start" x="1125.91" y="-86.2" font-family="Arial" font-size="14.00" fill="#666666">[bigint unsigned]</text>
<polygon fill="none" stroke="black" points="988.96,-43.2 988.96,-74 1354.39,-74 1354.39,-43.2 988.96,-43.2"/>
<text text-anchor="start" x="995.96" y="-55.4" font-family="Arial" font-size="14.00">settlementWindowStateId </text>
<text text-anchor="start" x="1158.6" y="-55.4" font-family="Arial" font-size="14.00" fill="#666666">[varchar(50)]</text>
</g>
<!-- settlementWindow&#45;&gt;settlementWindowStateChange -->
<g id="edge7" class="edge">
<title>settlementWindow:currentStateChangeId&#45;&gt;settlementWindowStateChange:settlementWindowStateChangeId</title>
<path fill="none" stroke="black" d="M1172.34,-285.5C1182.52,-213.19 1307.58,-285.61 1354.39,-214.4 1377.4,-179.42 1397.26,-120.2 1355.39,-120.2"/>
<polygon fill="black" stroke="black" points="1172.35,-285.29 1167.21,-294.97 1172.01,-290.61 1171.72,-294.93 1171.72,-294.93 1171.72,-294.93 1172.01,-290.61 1176.19,-295.56 1172.35,-285.29"/>
<text text-anchor="start" x="617.22" y="-305.6" font-family="Arial" font-size="10.00">FOREIGN KEY (currentStateChangeId) REFERENCES settlementWindowStateChange (settlementWindowStateChangeId)</text>
</g>
<!-- fxTransferFulfilment -->
<g id="node2" class="node">
<title>fxTransferFulfilment</title>
<polygon fill="#efefef" stroke="none" points="145.46,-657.8 145.46,-693.4 435.9,-693.4 435.9,-657.8 145.46,-657.8"/>
<polygon fill="none" stroke="black" points="145.46,-657.8 145.46,-693.4 435.9,-693.4 435.9,-657.8 145.46,-657.8"/>
<text text-anchor="start" x="152.46" y="-671.2" font-family="Arial Bold" font-size="18.00">fxTransferFulfilment</text>
<text text-anchor="start" x="304.41" y="-671.2" font-family="Arial" font-size="14.00">    </text>
<text text-anchor="start" x="335.53" y="-671.2" font-family="Arial" font-size="14.00" fill="#666666">[BASE TABLE]</text>
<polygon fill="none" stroke="black" points="145.46,-627 145.46,-657.8 435.9,-657.8 435.9,-627 145.46,-627"/>
<text text-anchor="start" x="152.46" y="-639.2" font-family="Arial" font-size="14.00">commitRequestId </text>
<text text-anchor="start" x="265.28" y="-639.2" font-family="Arial" font-size="14.00" fill="#666666">[varchar(36)]</text>
<polygon fill="none" stroke="black" points="145.46,-596.2 145.46,-627 435.9,-627 435.9,-596.2 145.46,-596.2"/>
<text text-anchor="start" x="152.46" y="-608.4" font-family="Arial" font-size="14.00">settlementWindowId </text>
<text text-anchor="start" x="282.4" y="-608.4" font-family="Arial" font-size="14.00" fill="#666666">[bigint unsigned]</text>
</g>
<!-- fxTransferFulfilment&#45;&gt;settlementWindow -->
<g id="edge1" class="edge">
<title>fxTransferFulfilment:settlementWindowId&#45;&gt;settlementWindow:settlementWindowId</title>
<path fill="none" stroke="black" d="M447.26,-610.61C494.18,-600.54 442.46,-516.13 487.68,-476 581.05,-393.13 908.61,-342.8 1033.45,-342.8"/>
<polygon fill="black" stroke="black" points="447.19,-610.62 436.81,-607.09 441.88,-611.12 437.57,-611.54 437.57,-611.54 437.57,-611.54 441.88,-611.12 437.66,-616.05 447.19,-610.62"/>
<text text-anchor="start" x="7" y="-621.6" font-family="Arial" font-size="10.00">FOREIGN KEY (settlementWindowId) REFERENCES settlementWindow (settlementWindowId)</text>
</g>
<!-- settlementSettlementWindow -->
<g id="node3" class="node">
<title>settlementSettlementWindow</title>
<polygon fill="#efefef" stroke="none" points="539.96,-673.2 539.96,-708.8 891.4,-708.8 891.4,-673.2 539.96,-673.2"/>
<polygon fill="none" stroke="black" points="539.96,-673.2 539.96,-708.8 891.4,-708.8 891.4,-673.2 539.96,-673.2"/>
<text text-anchor="start" x="546.96" y="-686.6" font-family="Arial Bold" font-size="18.00">settlementSettlementWindow</text>
<text text-anchor="start" x="759.91" y="-686.6" font-family="Arial" font-size="14.00">    </text>
<text text-anchor="start" x="791.03" y="-686.6" font-family="Arial" font-size="14.00" fill="#666666">[BASE TABLE]</text>
<polygon fill="none" stroke="black" points="539.96,-642.4 539.96,-673.2 891.4,-673.2 891.4,-642.4 539.96,-642.4"/>
<text text-anchor="start" x="546.96" y="-654.6" font-family="Arial" font-size="14.00">settlementSettlementWindowId </text>
<text text-anchor="start" x="743.83" y="-654.6" font-family="Arial" font-size="14.00" fill="#666666">[bigint unsigned]</text>
<polygon fill="none" stroke="black" points="539.96,-611.6 539.96,-642.4 891.4,-642.4 891.4,-611.6 539.96,-611.6"/>
<text text-anchor="start" x="546.96" y="-623.8" font-family="Arial" font-size="14.00">settlementId </text>
<text text-anchor="start" x="627.11" y="-623.8" font-family="Arial" font-size="14.00" fill="#666666">[bigint unsigned]</text>
<polygon fill="none" stroke="black" points="539.96,-580.8 539.96,-611.6 891.4,-611.6 891.4,-580.8 539.96,-580.8"/>
<text text-anchor="start" x="546.96" y="-593" font-family="Arial" font-size="14.00">settlementWindowId </text>
<text text-anchor="start" x="676.9" y="-593" font-family="Arial" font-size="14.00" fill="#666666">[bigint unsigned]</text>
</g>
<!-- settlementSettlementWindow&#45;&gt;settlementWindow -->
<g id="edge2" class="edge">
<title>settlementSettlementWindow:settlementWindowId&#45;&gt;settlementWindow:settlementWindowId</title>
<path fill="none" stroke="black" d="M902.79,-595.31C946.17,-587.09 917.77,-523.63 943.68,-476 977.79,-413.29 962.06,-342.8 1033.45,-342.8"/>
<polygon fill="black" stroke="black" points="902.7,-595.32 892.35,-591.69 897.38,-595.77 893.06,-596.14 893.06,-596.14 893.06,-596.14 897.38,-595.77 893.12,-600.66 902.7,-595.32"/>
<text text-anchor="start" x="899.4" y="-606.2" font-family="Arial" font-size="10.00">FOREIGN KEY (settlementWindowId) REFERENCES settlementWindow (settlementWindowId)</text>
</g>
<!-- settlementTransferParticipant -->
<g id="node4" class="node">
<title>settlementTransferParticipant</title>
<polygon fill="#efefef" stroke="none" points="995.98,-719.4 995.98,-755 1347.38,-755 1347.38,-719.4 995.98,-719.4"/>
<polygon fill="none" stroke="black" points="995.98,-719.4 995.98,-755 1347.38,-755 1347.38,-719.4 995.98,-719.4"/>
<text text-anchor="start" x="1002.98" y="-732.8" font-family="Arial Bold" font-size="18.00">settlementTransferParticipant</text>
<text text-anchor="start" x="1215.89" y="-732.8" font-family="Arial" font-size="14.00">    </text>
<text text-anchor="start" x="1247.01" y="-732.8" font-family="Arial" font-size="14.00" fill="#666666">[BASE TABLE]</text>
<polygon fill="none" stroke="black" points="995.98,-688.6 995.98,-719.4 1347.38,-719.4 1347.38,-688.6 995.98,-688.6"/>
<text text-anchor="start" x="1002.98" y="-700.8" font-family="Arial" font-size="14.00">settlementTransferParticipantId </text>
<text text-anchor="start" x="1201.4" y="-700.8" font-family="Arial" font-size="14.00" fill="#666666">[bigint unsigned]</text>
<polygon fill="none" stroke="black" points="995.98,-657.8 995.98,-688.6 1347.38,-688.6 1347.38,-657.8 995.98,-657.8"/>
<text text-anchor="start" x="1002.98" y="-670" font-family="Arial" font-size="14.00">settlementId </text>
<text text-anchor="start" x="1083.13" y="-670" font-family="Arial" font-size="14.00" fill="#666666">[bigint unsigned]</text>
<polygon fill="none" stroke="black" points="995.98,-627 995.98,-657.8 1347.38,-657.8 1347.38,-627 995.98,-627"/>
<text text-anchor="start" x="1002.98" y="-639.2" font-family="Arial" font-size="14.00">settlementWindowId </text>
<text text-anchor="start" x="1132.92" y="-639.2" font-family="Arial" font-size="14.00" fill="#666666">[bigint unsigned]</text>
<polygon fill="none" stroke="black" points="995.98,-596.2 995.98,-627 1347.38,-627 1347.38,-596.2 995.98,-596.2"/>
<text text-anchor="start" x="1002.98" y="-608.4" font-family="Arial" font-size="14.00">participantCurrencyId </text>
<text text-anchor="start" x="1139.93" y="-608.4" font-family="Arial" font-size="14.00" fill="#666666">[int unsigned]</text>
<polygon fill="none" stroke="black" points="995.98,-565.4 995.98,-596.2 1347.38,-596.2 1347.38,-565.4 995.98,-565.4"/>
<text text-anchor="start" x="1002.98" y="-577.6" font-family="Arial" font-size="14.00">transferParticipantRoleTypeId </text>
<text text-anchor="start" x="1192.07" y="-577.6" font-family="Arial" font-size="14.00" fill="#666666">[int unsigned]</text>
<polygon fill="none" stroke="black" points="995.98,-534.6 995.98,-565.4 1347.38,-565.4 1347.38,-534.6 995.98,-534.6"/>
<text text-anchor="start" x="1002.98" y="-546.8" font-family="Arial" font-size="14.00">ledgerEntryTypeId </text>
<text text-anchor="start" x="1121.26" y="-546.8" font-family="Arial" font-size="14.00" fill="#666666">[int unsigned]</text>
</g>
<!-- settlementTransferParticipant&#45;&gt;settlementWindow -->
<g id="edge3" class="edge">
<title>settlementTransferParticipant:settlementWindowId&#45;&gt;settlementWindow:settlementWindowId</title>
<path fill="none" stroke="black" d="M1358.46,-639.81C1411.21,-610.53 1373.36,-342.8 1309.91,-342.8"/>
<polygon fill="black" stroke="black" points="1358.39,-639.83 1347.58,-637.96 1353.22,-641.16 1349.03,-642.23 1349.03,-642.23 1349.03,-642.23 1353.22,-641.16 1349.82,-646.68 1358.39,-639.83"/>
<text text-anchor="start" x="918.48" y="-652.4" font-family="Arial" font-size="10.00">FOREIGN KEY (settlementWindowId) REFERENCES settlementWindow (settlementWindowId)</text>
</g>
<!-- settlementWindowContent -->
<g id="node5" class="node">
<title>settlementWindowContent</title>
<polygon fill="#efefef" stroke="none" points="1451.95,-734.8 1451.95,-770.4 1783.41,-770.4 1783.41,-734.8 1451.95,-734.8"/>
<polygon fill="none" stroke="black" points="1451.95,-734.8 1451.95,-770.4 1783.41,-770.4 1783.41,-734.8 1451.95,-734.8"/>
<text text-anchor="start" x="1458.95" y="-748.2" font-family="Arial Bold" font-size="18.00">settlementWindowContent</text>
<text text-anchor="start" x="1651.92" y="-748.2" font-family="Arial" font-size="14.00">    </text>
<text text-anchor="start" x="1683.03" y="-748.2" font-family="Arial" font-size="14.00" fill="#666666">[BASE TABLE]</text>
<polygon fill="none" stroke="black" points="1451.95,-704 1451.95,-734.8 1783.41,-734.8 1783.41,-704 1451.95,-704"/>
<text text-anchor="start" x="1458.95" y="-716.2" font-family="Arial" font-size="14.00">settlementWindowContentId </text>
<text text-anchor="start" x="1637.93" y="-716.2" font-family="Arial" font-size="14.00" fill="#666666">[bigint unsigned]</text>
<polygon fill="none" stroke="black" points="1451.95,-673.2 1451.95,-704 1783.41,-704 1783.41,-673.2 1451.95,-673.2"/>
<text text-anchor="start" x="1458.95" y="-685.4" font-family="Arial" font-size="14.00">settlementWindowId </text>
<text text-anchor="start" x="1588.9" y="-685.4" font-family="Arial" font-size="14.00" fill="#666666">[bigint unsigned]</text>
<polygon fill="none" stroke="black" points="1451.95,-642.4 1451.95,-673.2 1783.41,-673.2 1783.41,-642.4 1451.95,-642.4"/>
<text text-anchor="start" x="1458.95" y="-654.6" font-family="Arial" font-size="14.00">ledgerAccountTypeId </text>
<text text-anchor="start" x="1595.14" y="-654.6" font-family="Arial" font-size="14.00" fill="#666666">[int unsigned]</text>
<polygon fill="none" stroke="black" points="1451.95,-611.6 1451.95,-642.4 1783.41,-642.4 1783.41,-611.6 1451.95,-611.6"/>
<text text-anchor="start" x="1458.95" y="-623.8" font-family="Arial" font-size="14.00">currencyId </text>
<text text-anchor="start" x="1528.2" y="-623.8" font-family="Arial" font-size="14.00" fill="#666666">[varchar(3)]</text>
<polygon fill="none" stroke="black" points="1451.95,-580.8 1451.95,-611.6 1783.41,-611.6 1783.41,-580.8 1451.95,-580.8"/>
<text text-anchor="start" x="1458.95" y="-593" font-family="Arial" font-size="14.00">currentStateChangeId </text>
<text text-anchor="start" x="1599.82" y="-593" font-family="Arial" font-size="14.00" fill="#666666">[bigint unsigned]</text>
<polygon fill="none" stroke="black" points="1451.95,-550 1451.95,-580.8 1783.41,-580.8 1783.41,-550 1451.95,-550"/>
<text text-anchor="start" x="1458.95" y="-562.2" font-family="Arial" font-size="14.00">settlementId </text>
<text text-anchor="start" x="1539.1" y="-562.2" font-family="Arial" font-size="14.00" fill="#666666">[bigint unsigned]</text>
<polygon fill="none" stroke="black" points="1451.95,-519.2 1451.95,-550 1783.41,-550 1783.41,-519.2 1451.95,-519.2"/>
<text text-anchor="start" x="1458.95" y="-531.4" font-family="Arial" font-size="14.00">SettlementModelId </text>
<text text-anchor="start" x="1579.57" y="-531.4" font-family="Arial" font-size="14.00" fill="#666666">[int unsigned]</text>
</g>
<!-- settlementWindowContent&#45;&gt;settlementWindow -->
<g id="edge4" class="edge">
<title>settlementWindowContent:settlementWindowId&#45;&gt;settlementWindow:settlementWindowId</title>
<path fill="none" stroke="black" d="M1440.87,-688.1C1359.9,-679.47 1437.4,-561.65 1399.68,-476 1370.91,-410.67 1381.3,-342.8 1309.91,-342.8"/>
<polygon fill="black" stroke="black" points="1440.63,-688.09 1450.39,-693.08 1445.96,-688.35 1450.28,-688.57 1450.28,-688.57 1450.28,-688.57 1445.96,-688.35 1450.84,-684.09 1440.63,-688.09"/>
<text text-anchor="start" x="1021.05" y="-698.6" font-family="Arial" font-size="10.00">FOREIGN KEY (settlementWindowId) REFERENCES settlementWindow (settlementWindowId)</text>
</g>
<!-- settlementWindowStateChange&#45;&gt;settlementWindow -->
<g id="edge5" class="edge">
<title>settlementWindowStateChange:settlementWindowId&#45;&gt;settlementWindow:settlementWindowId</title>
<path fill="none" stroke="black" d="M1365.66,-90.13C1466.91,-104.99 1420.75,-342.8 1309.91,-342.8"/>
<polygon fill="black" stroke="black" points="1365.7,-90.13 1356.05,-84.93 1360.38,-89.75 1356.06,-89.45 1356.06,-89.45 1356.06,-89.45 1360.38,-89.75 1355.41,-93.91 1365.7,-90.13"/>
<text text-anchor="start" x="1362.39" y="-99.4" font-family="Arial" font-size="10.00">FOREIGN KEY (settlementWindowId) REFERENCES settlementWindow (settlementWindowId)</text>
</g>
<!-- transferFulfilment -->
<g id="node7" class="node">
<title>transferFulfilment</title>
<polygon fill="#efefef" stroke="none" points="1887.95,-657.8 1887.95,-693.4 2157.41,-693.4 2157.41,-657.8 1887.95,-657.8"/>
<polygon fill="none" stroke="black" points="1887.95,-657.8 1887.95,-693.4 2157.41,-693.4 2157.41,-657.8 1887.95,-657.8"/>
<text text-anchor="start" x="1894.95" y="-671.2" font-family="Arial Bold" font-size="18.00">transferFulfilment</text>
<text text-anchor="start" x="2025.92" y="-671.2" font-family="Arial" font-size="14.00">    </text>
<text text-anchor="start" x="2057.03" y="-671.2" font-family="Arial" font-size="14.00" fill="#666666">[BASE TABLE]</text>
<polygon fill="none" stroke="black" points="1887.95,-627 1887.95,-657.8 2157.41,-657.8 2157.41,-627 1887.95,-627"/>
<text text-anchor="start" x="1894.95" y="-639.2" font-family="Arial" font-size="14.00">transferId </text>
<text text-anchor="start" x="1957.98" y="-639.2" font-family="Arial" font-size="14.00" fill="#666666">[varchar(36)]</text>
<polygon fill="none" stroke="black" points="1887.95,-596.2 1887.95,-627 2157.41,-627 2157.41,-596.2 1887.95,-596.2"/>
<text text-anchor="start" x="1894.95" y="-608.4" font-family="Arial" font-size="14.00">settlementWindowId </text>
<text text-anchor="start" x="2024.9" y="-608.4" font-family="Arial" font-size="14.00" fill="#666666">[bigint unsigned]</text>
</g>
<!-- transferFulfilment&#45;&gt;settlementWindow -->
<g id="edge6" class="edge">
<title>transferFulfilment:settlementWindowId&#45;&gt;settlementWindow:settlementWindowId</title>
<path fill="none" stroke="black" d="M1876.58,-610.61C1829.53,-600.56 1880.84,-516.31 1835.68,-476 1745.76,-395.74 1430.44,-342.8 1309.91,-342.8"/>
<polygon fill="black" stroke="black" points="1876.66,-610.62 1886.19,-616.05 1881.97,-611.13 1886.29,-611.54 1886.29,-611.54 1886.29,-611.54 1881.97,-611.13 1887.04,-607.09 1876.66,-610.62"/>
<text text-anchor="start" x="1893.95" y="-621.6" font-family="Arial" font-size="10.00">FOREIGN KEY (settlementWindowId) REFERENCES settlementWindow (settlementWindowId)</text>
</g>
</g>
</svg>
