<?xml version="1.0" encoding="UTF-8" standalone="no"?>
<!DOCTYPE svg PUBLIC "-//W3C//DTD SVG 1.1//EN"
 "http://www.w3.org/Graphics/SVG/1.1/DTD/svg11.dtd">
<!-- Generated by graphviz version 12.1.2 (20240928.0832)
 -->
<!-- Title: settlementInterchange Pages: 1 -->
<svg width="822pt" height="818pt"
 viewBox="0.00 0.00 822.29 817.60" xmlns="http://www.w3.org/2000/svg" xmlns:xlink="http://www.w3.org/1999/xlink">
<g id="graph0" class="graph" transform="scale(1 1) rotate(0) translate(4 813.6)">
<title>settlementInterchange</title>
<polygon fill="white" stroke="none" points="-4,4 -4,-813.6 818.29,-813.6 818.29,4 -4,4"/>
<!-- settlementInterchange -->
<g id="node1" class="node">
<title>settlementInterchange</title>
<polygon fill="#efefef" stroke="none" points="46.2,-200.2 46.2,-235.8 343.61,-235.8 343.61,-200.2 46.2,-200.2"/>
<polygon fill="none" stroke="black" points="46.2,-200.2 46.2,-235.8 343.61,-235.8 343.61,-200.2 46.2,-200.2"/>
<text text-anchor="start" x="53.2" y="-213.6" font-family="Arial Bold" font-size="18.00">settlementInterchange</text>
<text text-anchor="start" x="212.12" y="-213.6" font-family="Arial" font-size="14.00">    </text>
<text text-anchor="start" x="243.24" y="-213.6" font-family="Arial" font-size="14.00" fill="#666666">[BASE TABLE]</text>
<polygon fill="none" stroke="black" points="46.2,-169.4 46.2,-200.2 343.61,-200.2 343.61,-169.4 46.2,-169.4"/>
<text text-anchor="start" x="53.2" y="-181.6" font-family="Arial" font-size="14.00">settlementInterchangeId </text>
<text text-anchor="start" x="207.3" y="-181.6" font-family="Arial" font-size="14.00" fill="#666666">[int unsigned]</text>
<polygon fill="none" stroke="black" points="46.2,-138.6 46.2,-169.4 343.61,-169.4 343.61,-138.6 46.2,-138.6"/>
<text text-anchor="start" x="53.2" y="-150.8" font-family="Arial" font-size="14.00">name </text>
<text text-anchor="start" x="92.11" y="-150.8" font-family="Arial" font-size="14.00" fill="#666666">[varchar(50)]</text>
<polygon fill="none" stroke="black" points="46.2,-107.8 46.2,-138.6 343.61,-138.6 343.61,-107.8 46.2,-107.8"/>
<text text-anchor="start" x="53.2" y="-120" font-family="Arial" font-size="14.00">description </text>
<text text-anchor="start" x="124.79" y="-120" font-family="Arial" font-size="14.00" fill="#666666">[varchar(512)]</text>
<polygon fill="none" stroke="black" points="46.2,-77 46.2,-107.8 343.61,-107.8 343.61,-77 46.2,-77"/>
<text text-anchor="start" x="53.2" y="-89.2" font-family="Arial" font-size="14.00">isActive </text>
<text text-anchor="start" x="105.32" y="-89.2" font-family="Arial" font-size="14.00" fill="#666666">[tinyint(1)]</text>
<polygon fill="none" stroke="black" points="46.2,-46.2 46.2,-77 343.61,-77 343.61,-46.2 46.2,-46.2"/>
<text text-anchor="start" x="53.2" y="-58.4" font-family="Arial" font-size="14.00">createdDate </text>
<text text-anchor="start" x="133.36" y="-58.4" font-family="Arial" font-size="14.00" fill="#666666">[datetime]</text>
<polygon fill="none" stroke="black" stroke-width="3" points="44.7,-44.7 44.7,-237.3 345.11,-237.3 345.11,-44.7 44.7,-44.7"/>
</g>
<!-- settlementModel -->
<g id="node2" class="node">
<title>settlementModel</title>
<polygon fill="#efefef" stroke="none" points="65.18,-730.8 65.18,-766.4 324.64,-766.4 324.64,-730.8 65.18,-730.8"/>
<polygon fill="none" stroke="black" points="65.18,-730.8 65.18,-766.4 324.64,-766.4 324.64,-730.8 65.18,-730.8"/>
<text text-anchor="start" x="72.18" y="-744.2" font-family="Arial Bold" font-size="18.00">settlementModel</text>
<text text-anchor="start" x="193.15" y="-744.2" font-family="Arial" font-size="14.00">    </text>
<text text-anchor="start" x="224.27" y="-744.2" font-family="Arial" font-size="14.00" fill="#666666">[BASE TABLE]</text>
<polygon fill="none" stroke="black" points="65.18,-700 65.18,-730.8 324.64,-730.8 324.64,-700 65.18,-700"/>
<text text-anchor="start" x="72.18" y="-712.2" font-family="Arial" font-size="14.00">settlementModelId </text>
<text text-anchor="start" x="190.46" y="-712.2" font-family="Arial" font-size="14.00" fill="#666666">[int unsigned]</text>
<polygon fill="none" stroke="black" points="65.18,-669.2 65.18,-700 324.64,-700 324.64,-669.2 65.18,-669.2"/>
<text text-anchor="start" x="72.18" y="-681.4" font-family="Arial" font-size="14.00">name </text>
<text text-anchor="start" x="111.09" y="-681.4" font-family="Arial" font-size="14.00" fill="#666666">[varchar(50)]</text>
<polygon fill="none" stroke="black" points="65.18,-638.4 65.18,-669.2 324.64,-669.2 324.64,-638.4 65.18,-638.4"/>
<text text-anchor="start" x="72.18" y="-650.6" font-family="Arial" font-size="14.00">isActive </text>
<text text-anchor="start" x="124.3" y="-650.6" font-family="Arial" font-size="14.00" fill="#666666">[tinyint(1)]</text>
<polygon fill="none" stroke="black" points="65.18,-607.6 65.18,-638.4 324.64,-638.4 324.64,-607.6 65.18,-607.6"/>
<text text-anchor="start" x="72.18" y="-619.8" font-family="Arial" font-size="14.00">settlementGranularityId </text>
<text text-anchor="start" x="220.8" y="-619.8" font-family="Arial" font-size="14.00" fill="#666666">[int unsigned]</text>
<polygon fill="none" stroke="black" points="65.18,-576.8 65.18,-607.6 324.64,-607.6 324.64,-576.8 65.18,-576.8"/>
<text text-anchor="start" x="72.18" y="-589" font-family="Arial" font-size="14.00">settlementInterchangeId </text>
<text text-anchor="start" x="226.27" y="-589" font-family="Arial" font-size="14.00" fill="#666666">[int unsigned]</text>
<polygon fill="none" stroke="black" points="65.18,-546 65.18,-576.8 324.64,-576.8 324.64,-546 65.18,-546"/>
<text text-anchor="start" x="72.18" y="-558.2" font-family="Arial" font-size="14.00">settlementDelayId </text>
<text text-anchor="start" x="188.12" y="-558.2" font-family="Arial" font-size="14.00" fill="#666666">[int unsigned]</text>
<polygon fill="none" stroke="black" points="65.18,-515.2 65.18,-546 324.64,-546 324.64,-515.2 65.18,-515.2"/>
<text text-anchor="start" x="72.18" y="-527.4" font-family="Arial" font-size="14.00">currencyId </text>
<text text-anchor="start" x="141.42" y="-527.4" font-family="Arial" font-size="14.00" fill="#666666">[varchar(3)]</text>
<polygon fill="none" stroke="black" points="65.18,-484.4 65.18,-515.2 324.64,-515.2 324.64,-484.4 65.18,-484.4"/>
<text text-anchor="start" x="72.18" y="-496.6" font-family="Arial" font-size="14.00">requireLiquidityCheck </text>
<text text-anchor="start" x="210.69" y="-496.6" font-family="Arial" font-size="14.00" fill="#666666">[tinyint(1)]</text>
<polygon fill="none" stroke="black" points="65.18,-453.6 65.18,-484.4 324.64,-484.4 324.64,-453.6 65.18,-453.6"/>
<text text-anchor="start" x="72.18" y="-465.8" font-family="Arial" font-size="14.00">ledgerAccountTypeId </text>
<text text-anchor="start" x="208.37" y="-465.8" font-family="Arial" font-size="14.00" fill="#666666">[int unsigned]</text>
<polygon fill="none" stroke="black" points="65.18,-422.8 65.18,-453.6 324.64,-453.6 324.64,-422.8 65.18,-422.8"/>
<text text-anchor="start" x="72.18" y="-435" font-family="Arial" font-size="14.00">autoPositionReset </text>
<text text-anchor="start" x="189.69" y="-435" font-family="Arial" font-size="14.00" fill="#666666">[tinyint(1)]</text>
<polygon fill="none" stroke="black" points="65.18,-392 65.18,-422.8 324.64,-422.8 324.64,-392 65.18,-392"/>
<text text-anchor="start" x="72.18" y="-404.2" font-family="Arial" font-size="14.00">adjustPosition </text>
<text text-anchor="start" x="163.23" y="-404.2" font-family="Arial" font-size="14.00" fill="#666666">[tinyint(1)]</text>
<polygon fill="none" stroke="black" points="65.18,-361.2 65.18,-392 324.64,-392 324.64,-361.2 65.18,-361.2"/>
<text text-anchor="start" x="72.18" y="-373.4" font-family="Arial" font-size="14.00">settlementAccountTypeId </text>
<text text-anchor="start" x="234.04" y="-373.4" font-family="Arial" font-size="14.00" fill="#666666">[int]</text>
</g>
<!-- settlementModel&#45;&gt;settlementInterchange -->
<g id="edge1" class="edge">
<title>settlementModel:settlementInterchangeId&#45;&gt;settlementInterchange:settlementInterchangeId</title>
<path fill="none" stroke="black" d="M335.68,-590.47C417.56,-561.76 431.79,-184.8 344.61,-184.8"/>
<polygon fill="black" stroke="black" points="335.82,-590.45 325.2,-587.71 330.57,-591.35 326.3,-592.09 326.3,-592.09 326.3,-592.09 330.57,-591.35 326.73,-596.58 335.82,-590.45"/>
<text text-anchor="start" x="332.64" y="-602.2" font-family="Arial" font-size="10.00">FOREIGN KEY (settlementInterchangeId) REFERENCES settlementInterchange (settlementInterchangeId)</text>
</g>
</g>
</svg>
