<?xml version="1.0" encoding="UTF-8" standalone="no"?>
<!DOCTYPE svg PUBLIC "-//W3C//DTD SVG 1.1//EN"
 "http://www.w3.org/Graphics/SVG/1.1/DTD/svg11.dtd">
<!-- Generated by graphviz version 12.1.2 (20240928.0832)
 -->
<!-- Title: settlementTransferParticipant Pages: 1 -->
<svg width="1929pt" height="756pt"
 viewBox="0.00 0.00 1929.04 756.00" xmlns="http://www.w3.org/2000/svg" xmlns:xlink="http://www.w3.org/1999/xlink">
<g id="graph0" class="graph" transform="scale(1 1) rotate(0) translate(4 752)">
<title>settlementTransferParticipant</title>
<polygon fill="white" stroke="none" points="-4,4 -4,-752 1925.04,-752 1925.04,4 -4,4"/>
<!-- settlementTransferParticipant -->
<g id="node1" class="node">
<title>settlementTransferParticipant</title>
<polygon fill="#efefef" stroke="none" points="748.91,-666.2 748.91,-701.8 1100.32,-701.8 1100.32,-666.2 748.91,-666.2"/>
<polygon fill="none" stroke="black" points="748.91,-666.2 748.91,-701.8 1100.32,-701.8 1100.32,-666.2 748.91,-666.2"/>
<text text-anchor="start" x="755.91" y="-679.6" font-family="Arial Bold" font-size="18.00">settlementTransferParticipant</text>
<text text-anchor="start" x="968.83" y="-679.6" font-family="Arial" font-size="14.00">    </text>
<text text-anchor="start" x="999.95" y="-679.6" font-family="Arial" font-size="14.00" fill="#666666">[BASE TABLE]</text>
<polygon fill="none" stroke="black" points="748.91,-635.4 748.91,-666.2 1100.32,-666.2 1100.32,-635.4 748.91,-635.4"/>
<text text-anchor="start" x="755.91" y="-647.6" font-family="Arial" font-size="14.00">settlementTransferParticipantId </text>
<text text-anchor="start" x="954.33" y="-647.6" font-family="Arial" font-size="14.00" fill="#666666">[bigint unsigned]</text>
<polygon fill="none" stroke="black" points="748.91,-604.6 748.91,-635.4 1100.32,-635.4 1100.32,-604.6 748.91,-604.6"/>
<text text-anchor="start" x="755.91" y="-616.8" font-family="Arial" font-size="14.00">settlementId </text>
<text text-anchor="start" x="836.07" y="-616.8" font-family="Arial" font-size="14.00" fill="#666666">[bigint unsigned]</text>
<polygon fill="none" stroke="black" points="748.91,-573.8 748.91,-604.6 1100.32,-604.6 1100.32,-573.8 748.91,-573.8"/>
<text text-anchor="start" x="755.91" y="-586" font-family="Arial" font-size="14.00">settlementWindowId </text>
<text text-anchor="start" x="885.86" y="-586" font-family="Arial" font-size="14.00" fill="#666666">[bigint unsigned]</text>
<polygon fill="none" stroke="black" points="748.91,-543 748.91,-573.8 1100.32,-573.8 1100.32,-543 748.91,-543"/>
<text text-anchor="start" x="755.91" y="-555.2" font-family="Arial" font-size="14.00">participantCurrencyId </text>
<text text-anchor="start" x="892.87" y="-555.2" font-family="Arial" font-size="14.00" fill="#666666">[int unsigned]</text>
<polygon fill="none" stroke="black" points="748.91,-512.2 748.91,-543 1100.32,-543 1100.32,-512.2 748.91,-512.2"/>
<text text-anchor="start" x="755.91" y="-524.4" font-family="Arial" font-size="14.00">transferParticipantRoleTypeId </text>
<text text-anchor="start" x="945" y="-524.4" font-family="Arial" font-size="14.00" fill="#666666">[int unsigned]</text>
<polygon fill="none" stroke="black" points="748.91,-481.4 748.91,-512.2 1100.32,-512.2 1100.32,-481.4 748.91,-481.4"/>
<text text-anchor="start" x="755.91" y="-493.6" font-family="Arial" font-size="14.00">ledgerEntryTypeId </text>
<text text-anchor="start" x="874.2" y="-493.6" font-family="Arial" font-size="14.00" fill="#666666">[int unsigned]</text>
<polygon fill="none" stroke="black" points="748.91,-450.6 748.91,-481.4 1100.32,-481.4 1100.32,-450.6 748.91,-450.6"/>
<text text-anchor="start" x="755.91" y="-462.8" font-family="Arial" font-size="14.00">amount </text>
<text text-anchor="start" x="806.5" y="-462.8" font-family="Arial" font-size="14.00" fill="#666666">[decimal(18,4)]</text>
<polygon fill="none" stroke="black" points="748.91,-419.8 748.91,-450.6 1100.32,-450.6 1100.32,-419.8 748.91,-419.8"/>
<text text-anchor="start" x="755.91" y="-432" font-family="Arial" font-size="14.00">createdDate </text>
<text text-anchor="start" x="836.07" y="-432" font-family="Arial" font-size="14.00" fill="#666666">[datetime]</text>
<polygon fill="none" stroke="black" stroke-width="3" points="747.41,-418.3 747.41,-703.3 1101.82,-703.3 1101.82,-418.3 747.41,-418.3"/>
</g>
<!-- settlement -->
<g id="node2" class="node">
<title>settlement</title>
<polygon fill="#efefef" stroke="none" points="43.2,-228 43.2,-263.6 300.03,-263.6 300.03,-228 43.2,-228"/>
<polygon fill="none" stroke="black" points="43.2,-228 43.2,-263.6 300.03,-263.6 300.03,-228 43.2,-228"/>
<text text-anchor="start" x="72.38" y="-241.4" font-family="Arial Bold" font-size="18.00">settlement</text>
<text text-anchor="start" x="146.36" y="-241.4" font-family="Arial" font-size="14.00">    </text>
<text text-anchor="start" x="177.48" y="-241.4" font-family="Arial" font-size="14.00" fill="#666666">[BASE TABLE]</text>
<polygon fill="none" stroke="black" points="43.2,-197.2 43.2,-228 300.03,-228 300.03,-197.2 43.2,-197.2"/>
<text text-anchor="start" x="50.2" y="-209.4" font-family="Arial" font-size="14.00">settlementId </text>
<text text-anchor="start" x="130.35" y="-209.4" font-family="Arial" font-size="14.00" fill="#666666">[bigint unsigned]</text>
<polygon fill="none" stroke="black" points="43.2,-166.4 43.2,-197.2 300.03,-197.2 300.03,-166.4 43.2,-166.4"/>
<text text-anchor="start" x="50.2" y="-178.6" font-family="Arial" font-size="14.00">reason </text>
<text text-anchor="start" x="96.9" y="-178.6" font-family="Arial" font-size="14.00" fill="#666666">[varchar(512)]</text>
<polygon fill="none" stroke="black" points="43.2,-135.6 43.2,-166.4 300.03,-166.4 300.03,-135.6 43.2,-135.6"/>
<text text-anchor="start" x="50.2" y="-147.8" font-family="Arial" font-size="14.00">createdDate </text>
<text text-anchor="start" x="130.36" y="-147.8" font-family="Arial" font-size="14.00" fill="#666666">[datetime]</text>
<polygon fill="none" stroke="black" points="43.2,-104.8 43.2,-135.6 300.03,-135.6 300.03,-104.8 43.2,-104.8"/>
<text text-anchor="start" x="50.2" y="-117" font-family="Arial" font-size="14.00">currentStateChangeId </text>
<text text-anchor="start" x="191.07" y="-117" font-family="Arial" font-size="14.00" fill="#666666">[bigint unsigned]</text>
<polygon fill="none" stroke="black" points="43.2,-74 43.2,-104.8 300.03,-104.8 300.03,-74 43.2,-74"/>
<text text-anchor="start" x="50.2" y="-86.2" font-family="Arial" font-size="14.00">settlementModelId </text>
<text text-anchor="start" x="168.48" y="-86.2" font-family="Arial" font-size="14.00" fill="#666666">[int unsigned]</text>
</g>
<!-- settlementTransferParticipant&#45;&gt;settlement -->
<g id="edge1" class="edge">
<title>settlementTransferParticipant:settlementId&#45;&gt;settlement:settlementId</title>
<path fill="none" stroke="black" d="M737.61,-619.91C530.52,-616.33 484.69,-503.99 352.62,-337.6 315.25,-290.53 361.13,-212.6 301.03,-212.6"/>
<polygon fill="black" stroke="black" points="737.58,-619.91 747.54,-624.5 742.91,-619.96 747.25,-619.99 747.25,-619.99 747.25,-619.99 742.91,-619.96 747.62,-615.5 737.58,-619.91"/>
<text text-anchor="start" x="424.71" y="-630" font-family="Arial" font-size="10.00">FOREIGN KEY (settlementId) REFERENCES settlement (settlementId)</text>
</g>
<!-- settlementWindow -->
<g id="node3" class="node">
<title>settlementWindow</title>
<polygon fill="#efefef" stroke="none" points="404.39,-212.6 404.39,-248.2 678.84,-248.2 678.84,-212.6 404.39,-212.6"/>
<polygon fill="none" stroke="black" points="404.39,-212.6 404.39,-248.2 678.84,-248.2 678.84,-212.6 404.39,-212.6"/>
<text text-anchor="start" x="411.39" y="-226" font-family="Arial Bold" font-size="18.00">settlementWindow</text>
<text text-anchor="start" x="547.36" y="-226" font-family="Arial" font-size="14.00">    </text>
<text text-anchor="start" x="578.47" y="-226" font-family="Arial" font-size="14.00" fill="#666666">[BASE TABLE]</text>
<polygon fill="none" stroke="black" points="404.39,-181.8 404.39,-212.6 678.84,-212.6 678.84,-181.8 404.39,-181.8"/>
<text text-anchor="start" x="411.39" y="-194" font-family="Arial" font-size="14.00">settlementWindowId </text>
<text text-anchor="start" x="541.33" y="-194" font-family="Arial" font-size="14.00" fill="#666666">[bigint unsigned]</text>
<polygon fill="none" stroke="black" points="404.39,-151 404.39,-181.8 678.84,-181.8 678.84,-151 404.39,-151"/>
<text text-anchor="start" x="411.39" y="-163.2" font-family="Arial" font-size="14.00">reason </text>
<text text-anchor="start" x="458.08" y="-163.2" font-family="Arial" font-size="14.00" fill="#666666">[varchar(512)]</text>
<polygon fill="none" stroke="black" points="404.39,-120.2 404.39,-151 678.84,-151 678.84,-120.2 404.39,-120.2"/>
<text text-anchor="start" x="411.39" y="-132.4" font-family="Arial" font-size="14.00">createdDate </text>
<text text-anchor="start" x="491.55" y="-132.4" font-family="Arial" font-size="14.00" fill="#666666">[datetime]</text>
<polygon fill="none" stroke="black" points="404.39,-89.4 404.39,-120.2 678.84,-120.2 678.84,-89.4 404.39,-89.4"/>
<text text-anchor="start" x="411.39" y="-101.6" font-family="Arial" font-size="14.00">currentStateChangeId </text>
<text text-anchor="start" x="552.26" y="-101.6" font-family="Arial" font-size="14.00" fill="#666666">[bigint unsigned]</text>
</g>
<!-- settlementTransferParticipant&#45;&gt;settlementWindow -->
<g id="edge2" class="edge">
<title>settlementTransferParticipant:settlementWindowId&#45;&gt;settlementWindow:settlementWindowId</title>
<path fill="none" stroke="black" d="M738,-587.28C668.09,-557.7 764.63,-197.2 679.84,-197.2"/>
<polygon fill="black" stroke="black" points="737.77,-587.23 746.73,-593.55 743.01,-588.25 747.26,-589.07 747.26,-589.07 747.26,-589.07 743.01,-588.25 748.44,-584.72 737.77,-587.23"/>
<text text-anchor="start" x="318.01" y="-599.2" font-family="Arial" font-size="10.00">FOREIGN KEY (settlementWindowId) REFERENCES settlementWindow (settlementWindowId)</text>
</g>
<!-- participantCurrency -->
<g id="node4" class="node">
<title>participantCurrency</title>
<polygon fill="#efefef" stroke="none" points="783.4,-258.8 783.4,-294.4 1065.83,-294.4 1065.83,-258.8 783.4,-258.8"/>
<polygon fill="none" stroke="black" points="783.4,-258.8 783.4,-294.4 1065.83,-294.4 1065.83,-258.8 783.4,-258.8"/>
<text text-anchor="start" x="790.4" y="-272.2" font-family="Arial Bold" font-size="18.00">participantCurrency</text>
<text text-anchor="start" x="934.34" y="-272.2" font-family="Arial" font-size="14.00">    </text>
<text text-anchor="start" x="965.46" y="-272.2" font-family="Arial" font-size="14.00" fill="#666666">[BASE TABLE]</text>
<polygon fill="none" stroke="black" points="783.4,-228 783.4,-258.8 1065.83,-258.8 1065.83,-228 783.4,-228"/>
<text text-anchor="start" x="790.4" y="-240.2" font-family="Arial" font-size="14.00">participantCurrencyId </text>
<text text-anchor="start" x="927.35" y="-240.2" font-family="Arial" font-size="14.00" fill="#666666">[int unsigned]</text>
<polygon fill="none" stroke="black" points="783.4,-197.2 783.4,-228 1065.83,-228 1065.83,-197.2 783.4,-197.2"/>
<text text-anchor="start" x="790.4" y="-209.4" font-family="Arial" font-size="14.00">participantId </text>
<text text-anchor="start" x="870.56" y="-209.4" font-family="Arial" font-size="14.00" fill="#666666">[int unsigned]</text>
<polygon fill="none" stroke="black" points="783.4,-166.4 783.4,-197.2 1065.83,-197.2 1065.83,-166.4 783.4,-166.4"/>
<text text-anchor="start" x="790.4" y="-178.6" font-family="Arial" font-size="14.00">currencyId </text>
<text text-anchor="start" x="859.65" y="-178.6" font-family="Arial" font-size="14.00" fill="#666666">[varchar(3)]</text>
<polygon fill="none" stroke="black" points="783.4,-135.6 783.4,-166.4 1065.83,-166.4 1065.83,-135.6 783.4,-135.6"/>
<text text-anchor="start" x="790.4" y="-147.8" font-family="Arial" font-size="14.00">ledgerAccountTypeId </text>
<text text-anchor="start" x="926.6" y="-147.8" font-family="Arial" font-size="14.00" fill="#666666">[int unsigned]</text>
<polygon fill="none" stroke="black" points="783.4,-104.8 783.4,-135.6 1065.83,-135.6 1065.83,-104.8 783.4,-104.8"/>
<text text-anchor="start" x="790.4" y="-117" font-family="Arial" font-size="14.00">isActive </text>
<text text-anchor="start" x="842.53" y="-117" font-family="Arial" font-size="14.00" fill="#666666">[tinyint(1)]</text>
<polygon fill="none" stroke="black" points="783.4,-74 783.4,-104.8 1065.83,-104.8 1065.83,-74 783.4,-74"/>
<text text-anchor="start" x="790.4" y="-86.2" font-family="Arial" font-size="14.00">createdDate </text>
<text text-anchor="start" x="870.56" y="-86.2" font-family="Arial" font-size="14.00" fill="#666666">[datetime]</text>
<polygon fill="none" stroke="black" points="783.4,-43.2 783.4,-74 1065.83,-74 1065.83,-43.2 783.4,-43.2"/>
<text text-anchor="start" x="790.4" y="-55.4" font-family="Arial" font-size="14.00">createdBy </text>
<text text-anchor="start" x="857.33" y="-55.4" font-family="Arial" font-size="14.00" fill="#666666">[varchar(128)]</text>
</g>
<!-- settlementTransferParticipant&#45;&gt;participantCurrency -->
<g id="edge3" class="edge">
<title>settlementTransferParticipant:participantCurrencyId&#45;&gt;participantCurrency:participantCurrencyId</title>
<path fill="none" stroke="black" d="M1109.03,-551.53C1130.46,-505.46 1098.94,-243.4 1066.83,-243.4"/>
<polygon fill="black" stroke="black" points="1109.04,-551.53 1098.58,-554.82 1105.05,-555.07 1101.82,-557.96 1101.82,-557.96 1101.82,-557.96 1105.05,-555.07 1104.56,-561.54 1109.04,-551.53"/>
<text text-anchor="start" x="1108.32" y="-568.4" font-family="Arial" font-size="10.00">FOREIGN KEY (participantCurrencyId) REFERENCES participantCurrency (participantCurrencyId)</text>
</g>
<!-- transferParticipantRoleType -->
<g id="node5" class="node">
<title>transferParticipantRoleType</title>
<polygon fill="#efefef" stroke="none" points="1170.41,-228 1170.41,-263.6 1512.82,-263.6 1512.82,-228 1170.41,-228"/>
<polygon fill="none" stroke="black" points="1170.41,-228 1170.41,-263.6 1512.82,-263.6 1512.82,-228 1170.41,-228"/>
<text text-anchor="start" x="1177.41" y="-241.4" font-family="Arial Bold" font-size="18.00">transferParticipantRoleType</text>
<text text-anchor="start" x="1381.33" y="-241.4" font-family="Arial" font-size="14.00">    </text>
<text text-anchor="start" x="1412.45" y="-241.4" font-family="Arial" font-size="14.00" fill="#666666">[BASE TABLE]</text>
<polygon fill="none" stroke="black" points="1170.41,-197.2 1170.41,-228 1512.82,-228 1512.82,-197.2 1170.41,-197.2"/>
<text text-anchor="start" x="1177.41" y="-209.4" font-family="Arial" font-size="14.00">transferParticipantRoleTypeId </text>
<text text-anchor="start" x="1366.5" y="-209.4" font-family="Arial" font-size="14.00" fill="#666666">[int unsigned]</text>
<polygon fill="none" stroke="black" points="1170.41,-166.4 1170.41,-197.2 1512.82,-197.2 1512.82,-166.4 1170.41,-166.4"/>
<text text-anchor="start" x="1177.41" y="-178.6" font-family="Arial" font-size="14.00">name </text>
<text text-anchor="start" x="1216.32" y="-178.6" font-family="Arial" font-size="14.00" fill="#666666">[varchar(50)]</text>
<polygon fill="none" stroke="black" points="1170.41,-135.6 1170.41,-166.4 1512.82,-166.4 1512.82,-135.6 1170.41,-135.6"/>
<text text-anchor="start" x="1177.41" y="-147.8" font-family="Arial" font-size="14.00">description </text>
<text text-anchor="start" x="1249" y="-147.8" font-family="Arial" font-size="14.00" fill="#666666">[varchar(512)]</text>
<polygon fill="none" stroke="black" points="1170.41,-104.8 1170.41,-135.6 1512.82,-135.6 1512.82,-104.8 1170.41,-104.8"/>
<text text-anchor="start" x="1177.41" y="-117" font-family="Arial" font-size="14.00">isActive </text>
<text text-anchor="start" x="1229.53" y="-117" font-family="Arial" font-size="14.00" fill="#666666">[tinyint(1)]</text>
<polygon fill="none" stroke="black" points="1170.41,-74 1170.41,-104.8 1512.82,-104.8 1512.82,-74 1170.41,-74"/>
<text text-anchor="start" x="1177.41" y="-86.2" font-family="Arial" font-size="14.00">createdDate </text>
<text text-anchor="start" x="1257.57" y="-86.2" font-family="Arial" font-size="14.00" fill="#666666">[datetime]</text>
</g>
<!-- settlementTransferParticipant&#45;&gt;transferParticipantRoleType -->
<g id="edge4" class="edge">
<title>settlementTransferParticipant:transferParticipantRoleTypeId&#45;&gt;transferParticipantRoleType:transferParticipantRoleTypeId</title>
<path fill="none" stroke="black" d="M1111.54,-527C1233.7,-511.81 1029.81,-212.6 1169.41,-212.6"/>
<polygon fill="black" stroke="black" points="1111.64,-527 1101.39,-523.09 1106.31,-527.31 1101.99,-527.56 1101.99,-527.56 1101.99,-527.56 1106.31,-527.31 1101.92,-532.07 1111.64,-527"/>
<text text-anchor="start" x="1108.32" y="-537.6" font-family="Arial" font-size="10.00">FOREIGN KEY (transferParticipantRoleTypeId) REFERENCES transferParticipantRoleType (transferParticipantRoleTypeId)</text>
</g>
<!-- ledgerEntryType -->
<g id="node6" class="node">
<title>ledgerEntryType</title>
<polygon fill="#efefef" stroke="none" points="1617.4,-243.4 1617.4,-279 1877.84,-279 1877.84,-243.4 1617.4,-243.4"/>
<polygon fill="none" stroke="black" points="1617.4,-243.4 1617.4,-279 1877.84,-279 1877.84,-243.4 1617.4,-243.4"/>
<text text-anchor="start" x="1624.4" y="-256.8" font-family="Arial Bold" font-size="18.00">ledgerEntryType</text>
<text text-anchor="start" x="1746.35" y="-256.8" font-family="Arial" font-size="14.00">    </text>
<text text-anchor="start" x="1777.46" y="-256.8" font-family="Arial" font-size="14.00" fill="#666666">[BASE TABLE]</text>
<polygon fill="none" stroke="black" points="1617.4,-212.6 1617.4,-243.4 1877.84,-243.4 1877.84,-212.6 1617.4,-212.6"/>
<text text-anchor="start" x="1624.4" y="-224.8" font-family="Arial" font-size="14.00">ledgerEntryTypeId </text>
<text text-anchor="start" x="1742.68" y="-224.8" font-family="Arial" font-size="14.00" fill="#666666">[int unsigned]</text>
<polygon fill="none" stroke="black" points="1617.4,-181.8 1617.4,-212.6 1877.84,-212.6 1877.84,-181.8 1617.4,-181.8"/>
<text text-anchor="start" x="1624.4" y="-194" font-family="Arial" font-size="14.00">name </text>
<text text-anchor="start" x="1663.31" y="-194" font-family="Arial" font-size="14.00" fill="#666666">[varchar(50)]</text>
<polygon fill="none" stroke="black" points="1617.4,-151 1617.4,-181.8 1877.84,-181.8 1877.84,-151 1617.4,-151"/>
<text text-anchor="start" x="1624.4" y="-163.2" font-family="Arial" font-size="14.00">description </text>
<text text-anchor="start" x="1695.99" y="-163.2" font-family="Arial" font-size="14.00" fill="#666666">[varchar(512)]</text>
<polygon fill="none" stroke="black" points="1617.4,-120.2 1617.4,-151 1877.84,-151 1877.84,-120.2 1617.4,-120.2"/>
<text text-anchor="start" x="1624.4" y="-132.4" font-family="Arial" font-size="14.00">isActive </text>
<text text-anchor="start" x="1676.52" y="-132.4" font-family="Arial" font-size="14.00" fill="#666666">[tinyint(1)]</text>
<polygon fill="none" stroke="black" points="1617.4,-89.4 1617.4,-120.2 1877.84,-120.2 1877.84,-89.4 1617.4,-89.4"/>
<text text-anchor="start" x="1624.4" y="-101.6" font-family="Arial" font-size="14.00">createdDate </text>
<text text-anchor="start" x="1704.56" y="-101.6" font-family="Arial" font-size="14.00" fill="#666666">[datetime]</text>
<polygon fill="none" stroke="black" points="1617.4,-58.6 1617.4,-89.4 1877.84,-89.4 1877.84,-58.6 1617.4,-58.6"/>
<text text-anchor="start" x="1624.4" y="-70.8" font-family="Arial" font-size="14.00">ledgerAccountTypeId </text>
<text text-anchor="start" x="1760.59" y="-70.8" font-family="Arial" font-size="14.00" fill="#666666">[int unsigned]</text>
</g>
<!-- settlementTransferParticipant&#45;&gt;ledgerEntryType -->
<g id="edge5" class="edge">
<title>settlementTransferParticipant:ledgerEntryTypeId&#45;&gt;ledgerEntryType:ledgerEntryTypeId</title>
<path fill="none" stroke="black" d="M1111.74,-496.79C1321.75,-496.32 1405.01,-480.49 1564.62,-337.6 1604.75,-301.66 1562.52,-228 1616.4,-228"/>
<polygon fill="black" stroke="black" points="1111.65,-496.79 1101.65,-492.3 1106.32,-496.79 1101.99,-496.8 1101.99,-496.8 1101.99,-496.8 1106.32,-496.79 1101.66,-501.3 1111.65,-496.79"/>
<text text-anchor="start" x="1108.32" y="-506.8" font-family="Arial" font-size="10.00">FOREIGN KEY (ledgerEntryTypeId) REFERENCES ledgerEntryType (ledgerEntryTypeId)</text>
</g>
</g>
</svg>
