<?xml version="1.0" encoding="UTF-8" standalone="no"?>
<!DOCTYPE svg PUBLIC "-//W3C//DTD SVG 1.1//EN"
 "http://www.w3.org/Graphics/SVG/1.1/DTD/svg11.dtd">
<!-- Generated by graphviz version 12.1.2 (20240928.0832)
 -->
<!-- Title: settlement Pages: 1 -->
<svg width="2264pt" height="1253pt"
 viewBox="0.00 0.00 2263.85 1252.80" xmlns="http://www.w3.org/2000/svg" xmlns:xlink="http://www.w3.org/1999/xlink">
<g id="graph0" class="graph" transform="scale(1 1) rotate(0) translate(4 1248.8)">
<title>settlement</title>
<polygon fill="white" stroke="none" points="-4,4 -4,-1248.8 2259.85,-1248.8 2259.85,4 -4,4"/>
<!-- settlement -->
<g id="node1" class="node">
<title>settlement</title>
<polygon fill="#efefef" stroke="none" points="1016.5,-727.8 1016.5,-763.4 1273.34,-763.4 1273.34,-727.8 1016.5,-727.8"/>
<polygon fill="none" stroke="black" points="1016.5,-727.8 1016.5,-763.4 1273.34,-763.4 1273.34,-727.8 1016.5,-727.8"/>
<text text-anchor="start" x="1045.69" y="-741.2" font-family="Arial Bold" font-size="18.00">settlement</text>
<text text-anchor="start" x="1119.66" y="-741.2" font-family="Arial" font-size="14.00">    </text>
<text text-anchor="start" x="1150.78" y="-741.2" font-family="Arial" font-size="14.00" fill="#666666">[BASE TABLE]</text>
<polygon fill="none" stroke="black" points="1016.5,-697 1016.5,-727.8 1273.34,-727.8 1273.34,-697 1016.5,-697"/>
<text text-anchor="start" x="1023.5" y="-709.2" font-family="Arial" font-size="14.00">settlementId </text>
<text text-anchor="start" x="1103.65" y="-709.2" font-family="Arial" font-size="14.00" fill="#666666">[bigint unsigned]</text>
<polygon fill="none" stroke="black" points="1016.5,-666.2 1016.5,-697 1273.34,-697 1273.34,-666.2 1016.5,-666.2"/>
<text text-anchor="start" x="1023.5" y="-678.4" font-family="Arial" font-size="14.00">reason </text>
<text text-anchor="start" x="1070.2" y="-678.4" font-family="Arial" font-size="14.00" fill="#666666">[varchar(512)]</text>
<polygon fill="none" stroke="black" points="1016.5,-635.4 1016.5,-666.2 1273.34,-666.2 1273.34,-635.4 1016.5,-635.4"/>
<text text-anchor="start" x="1023.5" y="-647.6" font-family="Arial" font-size="14.00">createdDate </text>
<text text-anchor="start" x="1103.66" y="-647.6" font-family="Arial" font-size="14.00" fill="#666666">[datetime]</text>
<polygon fill="none" stroke="black" points="1016.5,-604.6 1016.5,-635.4 1273.34,-635.4 1273.34,-604.6 1016.5,-604.6"/>
<text text-anchor="start" x="1023.5" y="-616.8" font-family="Arial" font-size="14.00">currentStateChangeId </text>
<text text-anchor="start" x="1164.37" y="-616.8" font-family="Arial" font-size="14.00" fill="#666666">[bigint unsigned]</text>
<polygon fill="none" stroke="black" points="1016.5,-573.8 1016.5,-604.6 1273.34,-604.6 1273.34,-573.8 1016.5,-573.8"/>
<text text-anchor="start" x="1023.5" y="-586" font-family="Arial" font-size="14.00">settlementModelId </text>
<text text-anchor="start" x="1141.78" y="-586" font-family="Arial" font-size="14.00" fill="#666666">[int unsigned]</text>
<polygon fill="none" stroke="black" stroke-width="3" points="1015,-572.3 1015,-764.9 1274.84,-764.9 1274.84,-572.3 1015,-572.3"/>
</g>
<!-- settlementStateChange -->
<g id="node5" class="node">
<title>settlementStateChange</title>
<polygon fill="#efefef" stroke="none" points="993.2,-305 993.2,-340.6 1296.64,-340.6 1296.64,-305 993.2,-305"/>
<polygon fill="none" stroke="black" points="993.2,-305 993.2,-340.6 1296.64,-340.6 1296.64,-305 993.2,-305"/>
<text text-anchor="start" x="1000.2" y="-318.4" font-family="Arial Bold" font-size="18.00">settlementStateChange</text>
<text text-anchor="start" x="1165.15" y="-318.4" font-family="Arial" font-size="14.00">    </text>
<text text-anchor="start" x="1196.27" y="-318.4" font-family="Arial" font-size="14.00" fill="#666666">[BASE TABLE]</text>
<polygon fill="none" stroke="black" points="993.2,-274.2 993.2,-305 1296.64,-305 1296.64,-274.2 993.2,-274.2"/>
<text text-anchor="start" x="1000.2" y="-286.4" font-family="Arial" font-size="14.00">settlementStateChangeId </text>
<text text-anchor="start" x="1162.08" y="-286.4" font-family="Arial" font-size="14.00" fill="#666666">[bigint unsigned]</text>
<polygon fill="none" stroke="black" points="993.2,-243.4 993.2,-274.2 1296.64,-274.2 1296.64,-243.4 993.2,-243.4"/>
<text text-anchor="start" x="1000.2" y="-255.6" font-family="Arial" font-size="14.00">settlementId </text>
<text text-anchor="start" x="1080.35" y="-255.6" font-family="Arial" font-size="14.00" fill="#666666">[bigint unsigned]</text>
<polygon fill="none" stroke="black" points="993.2,-212.6 993.2,-243.4 1296.64,-243.4 1296.64,-212.6 993.2,-212.6"/>
<text text-anchor="start" x="1000.2" y="-224.8" font-family="Arial" font-size="14.00">settlementStateId </text>
<text text-anchor="start" x="1113.04" y="-224.8" font-family="Arial" font-size="14.00" fill="#666666">[varchar(50)]</text>
<polygon fill="none" stroke="black" points="993.2,-181.8 993.2,-212.6 1296.64,-212.6 1296.64,-181.8 993.2,-181.8"/>
<text text-anchor="start" x="1000.2" y="-194" font-family="Arial" font-size="14.00">reason </text>
<text text-anchor="start" x="1046.89" y="-194" font-family="Arial" font-size="14.00" fill="#666666">[varchar(512)]</text>
<polygon fill="none" stroke="black" points="993.2,-151 993.2,-181.8 1296.64,-181.8 1296.64,-151 993.2,-151"/>
<text text-anchor="start" x="1000.2" y="-163.2" font-family="Arial" font-size="14.00">createdDate </text>
<text text-anchor="start" x="1080.36" y="-163.2" font-family="Arial" font-size="14.00" fill="#666666">[datetime]</text>
</g>
<!-- settlement&#45;&gt;settlementStateChange -->
<g id="edge7" class="edge">
<title>settlement:currentStateChangeId&#45;&gt;settlementStateChange:settlementStateChangeId</title>
<path fill="none" stroke="black" d="M1284.35,-617.89C1349.91,-589.75 1367.79,-289.6 1297.64,-289.6"/>
<polygon fill="black" stroke="black" points="1284.45,-617.87 1273.73,-615.53 1279.23,-618.97 1274.99,-619.86 1274.99,-619.86 1274.99,-619.86 1279.23,-618.97 1275.59,-624.33 1284.45,-617.87"/>
<text text-anchor="start" x="1281.34" y="-630" font-family="Arial" font-size="10.00">FOREIGN KEY (currentStateChangeId) REFERENCES settlementStateChange (settlementStateChangeId)</text>
</g>
<!-- settlementModel -->
<g id="node8" class="node">
<title>settlementModel</title>
<polygon fill="#efefef" stroke="none" points="1401.19,-412.8 1401.19,-448.4 1660.65,-448.4 1660.65,-412.8 1401.19,-412.8"/>
<polygon fill="none" stroke="black" points="1401.19,-412.8 1401.19,-448.4 1660.65,-448.4 1660.65,-412.8 1401.19,-412.8"/>
<text text-anchor="start" x="1408.19" y="-426.2" font-family="Arial Bold" font-size="18.00">settlementModel</text>
<text text-anchor="start" x="1529.16" y="-426.2" font-family="Arial" font-size="14.00">    </text>
<text text-anchor="start" x="1560.28" y="-426.2" font-family="Arial" font-size="14.00" fill="#666666">[BASE TABLE]</text>
<polygon fill="none" stroke="black" points="1401.19,-382 1401.19,-412.8 1660.65,-412.8 1660.65,-382 1401.19,-382"/>
<text text-anchor="start" x="1408.19" y="-394.2" font-family="Arial" font-size="14.00">settlementModelId </text>
<text text-anchor="start" x="1526.47" y="-394.2" font-family="Arial" font-size="14.00" fill="#666666">[int unsigned]</text>
<polygon fill="none" stroke="black" points="1401.19,-351.2 1401.19,-382 1660.65,-382 1660.65,-351.2 1401.19,-351.2"/>
<text text-anchor="start" x="1408.19" y="-363.4" font-family="Arial" font-size="14.00">name </text>
<text text-anchor="start" x="1447.1" y="-363.4" font-family="Arial" font-size="14.00" fill="#666666">[varchar(50)]</text>
<polygon fill="none" stroke="black" points="1401.19,-320.4 1401.19,-351.2 1660.65,-351.2 1660.65,-320.4 1401.19,-320.4"/>
<text text-anchor="start" x="1408.19" y="-332.6" font-family="Arial" font-size="14.00">isActive </text>
<text text-anchor="start" x="1460.31" y="-332.6" font-family="Arial" font-size="14.00" fill="#666666">[tinyint(1)]</text>
<polygon fill="none" stroke="black" points="1401.19,-289.6 1401.19,-320.4 1660.65,-320.4 1660.65,-289.6 1401.19,-289.6"/>
<text text-anchor="start" x="1408.19" y="-301.8" font-family="Arial" font-size="14.00">settlementGranularityId </text>
<text text-anchor="start" x="1556.81" y="-301.8" font-family="Arial" font-size="14.00" fill="#666666">[int unsigned]</text>
<polygon fill="none" stroke="black" points="1401.19,-258.8 1401.19,-289.6 1660.65,-289.6 1660.65,-258.8 1401.19,-258.8"/>
<text text-anchor="start" x="1408.19" y="-271" font-family="Arial" font-size="14.00">settlementInterchangeId </text>
<text text-anchor="start" x="1562.28" y="-271" font-family="Arial" font-size="14.00" fill="#666666">[int unsigned]</text>
<polygon fill="none" stroke="black" points="1401.19,-228 1401.19,-258.8 1660.65,-258.8 1660.65,-228 1401.19,-228"/>
<text text-anchor="start" x="1408.19" y="-240.2" font-family="Arial" font-size="14.00">settlementDelayId </text>
<text text-anchor="start" x="1524.13" y="-240.2" font-family="Arial" font-size="14.00" fill="#666666">[int unsigned]</text>
<polygon fill="none" stroke="black" points="1401.19,-197.2 1401.19,-228 1660.65,-228 1660.65,-197.2 1401.19,-197.2"/>
<text text-anchor="start" x="1408.19" y="-209.4" font-family="Arial" font-size="14.00">currencyId </text>
<text text-anchor="start" x="1477.44" y="-209.4" font-family="Arial" font-size="14.00" fill="#666666">[varchar(3)]</text>
<polygon fill="none" stroke="black" points="1401.19,-166.4 1401.19,-197.2 1660.65,-197.2 1660.65,-166.4 1401.19,-166.4"/>
<text text-anchor="start" x="1408.19" y="-178.6" font-family="Arial" font-size="14.00">requireLiquidityCheck </text>
<text text-anchor="start" x="1546.7" y="-178.6" font-family="Arial" font-size="14.00" fill="#666666">[tinyint(1)]</text>
<polygon fill="none" stroke="black" points="1401.19,-135.6 1401.19,-166.4 1660.65,-166.4 1660.65,-135.6 1401.19,-135.6"/>
<text text-anchor="start" x="1408.19" y="-147.8" font-family="Arial" font-size="14.00">ledgerAccountTypeId </text>
<text text-anchor="start" x="1544.38" y="-147.8" font-family="Arial" font-size="14.00" fill="#666666">[int unsigned]</text>
<polygon fill="none" stroke="black" points="1401.19,-104.8 1401.19,-135.6 1660.65,-135.6 1660.65,-104.8 1401.19,-104.8"/>
<text text-anchor="start" x="1408.19" y="-117" font-family="Arial" font-size="14.00">autoPositionReset </text>
<text text-anchor="start" x="1525.7" y="-117" font-family="Arial" font-size="14.00" fill="#666666">[tinyint(1)]</text>
<polygon fill="none" stroke="black" points="1401.19,-74 1401.19,-104.8 1660.65,-104.8 1660.65,-74 1401.19,-74"/>
<text text-anchor="start" x="1408.19" y="-86.2" font-family="Arial" font-size="14.00">adjustPosition </text>
<text text-anchor="start" x="1499.24" y="-86.2" font-family="Arial" font-size="14.00" fill="#666666">[tinyint(1)]</text>
<polygon fill="none" stroke="black" points="1401.19,-43.2 1401.19,-74 1660.65,-74 1660.65,-43.2 1401.19,-43.2"/>
<text text-anchor="start" x="1408.19" y="-55.4" font-family="Arial" font-size="14.00">settlementAccountTypeId </text>
<text text-anchor="start" x="1570.05" y="-55.4" font-family="Arial" font-size="14.00" fill="#666666">[int]</text>
</g>
<!-- settlement&#45;&gt;settlementModel -->
<g id="edge8" class="edge">
<title>settlement:settlementModelId&#45;&gt;settlementModel:settlementModelId</title>
<path fill="none" stroke="black" d="M1284.66,-588.49C1327.78,-582.15 1321.24,-534.27 1348.92,-491.6 1374.86,-451.61 1352.52,-397.4 1400.19,-397.4"/>
<polygon fill="black" stroke="black" points="1284.65,-588.49 1274.36,-584.69 1279.32,-588.86 1275,-589.15 1275,-589.15 1275,-589.15 1279.32,-588.86 1274.98,-593.67 1284.65,-588.49"/>
<text text-anchor="start" x="1281.34" y="-599.2" font-family="Arial" font-size="10.00">FOREIGN KEY (settlementModelId) REFERENCES settlementModel (settlementModelId)</text>
</g>
<!-- settlementContentAggregation -->
<g id="node2" class="node">
<title>settlementContentAggregation</title>
<polygon fill="#efefef" stroke="none" points="43.2,-1166 43.2,-1201.6 402.64,-1201.6 402.64,-1166 43.2,-1166"/>
<polygon fill="none" stroke="black" points="43.2,-1166 43.2,-1201.6 402.64,-1201.6 402.64,-1166 43.2,-1166"/>
<text text-anchor="start" x="50.2" y="-1179.4" font-family="Arial Bold" font-size="18.00">settlementContentAggregation</text>
<text text-anchor="start" x="271.15" y="-1179.4" font-family="Arial" font-size="14.00">    </text>
<text text-anchor="start" x="302.27" y="-1179.4" font-family="Arial" font-size="14.00" fill="#666666">[BASE TABLE]</text>
<polygon fill="none" stroke="black" points="43.2,-1135.2 43.2,-1166 402.64,-1166 402.64,-1135.2 43.2,-1135.2"/>
<text text-anchor="start" x="50.2" y="-1147.4" font-family="Arial" font-size="14.00">settlementContentAggregationId </text>
<text text-anchor="start" x="254.89" y="-1147.4" font-family="Arial" font-size="14.00" fill="#666666">[bigint unsigned]</text>
<polygon fill="none" stroke="black" points="43.2,-1104.4 43.2,-1135.2 402.64,-1135.2 402.64,-1104.4 43.2,-1104.4"/>
<text text-anchor="start" x="50.2" y="-1116.6" font-family="Arial" font-size="14.00">settlementWindowContentId </text>
<text text-anchor="start" x="229.18" y="-1116.6" font-family="Arial" font-size="14.00" fill="#666666">[bigint unsigned]</text>
<polygon fill="none" stroke="black" points="43.2,-1073.6 43.2,-1104.4 402.64,-1104.4 402.64,-1073.6 43.2,-1073.6"/>
<text text-anchor="start" x="50.2" y="-1085.8" font-family="Arial" font-size="14.00">participantCurrencyId </text>
<text text-anchor="start" x="187.15" y="-1085.8" font-family="Arial" font-size="14.00" fill="#666666">[int unsigned]</text>
<polygon fill="none" stroke="black" points="43.2,-1042.8 43.2,-1073.6 402.64,-1073.6 402.64,-1042.8 43.2,-1042.8"/>
<text text-anchor="start" x="50.2" y="-1055" font-family="Arial" font-size="14.00">transferParticipantRoleTypeId </text>
<text text-anchor="start" x="239.29" y="-1055" font-family="Arial" font-size="14.00" fill="#666666">[int unsigned]</text>
<polygon fill="none" stroke="black" points="43.2,-1012 43.2,-1042.8 402.64,-1042.8 402.64,-1012 43.2,-1012"/>
<text text-anchor="start" x="50.2" y="-1024.2" font-family="Arial" font-size="14.00">ledgerEntryTypeId </text>
<text text-anchor="start" x="168.48" y="-1024.2" font-family="Arial" font-size="14.00" fill="#666666">[int unsigned]</text>
<polygon fill="none" stroke="black" points="43.2,-981.2 43.2,-1012 402.64,-1012 402.64,-981.2 43.2,-981.2"/>
<text text-anchor="start" x="50.2" y="-993.4" font-family="Arial" font-size="14.00">amount </text>
<text text-anchor="start" x="100.79" y="-993.4" font-family="Arial" font-size="14.00" fill="#666666">[decimal(18,4)]</text>
<polygon fill="none" stroke="black" points="43.2,-950.4 43.2,-981.2 402.64,-981.2 402.64,-950.4 43.2,-950.4"/>
<text text-anchor="start" x="50.2" y="-962.6" font-family="Arial" font-size="14.00">createdDate </text>
<text text-anchor="start" x="130.36" y="-962.6" font-family="Arial" font-size="14.00" fill="#666666">[datetime]</text>
<polygon fill="none" stroke="black" points="43.2,-919.6 43.2,-950.4 402.64,-950.4 402.64,-919.6 43.2,-919.6"/>
<text text-anchor="start" x="50.2" y="-931.8" font-family="Arial" font-size="14.00">currentStateId </text>
<text text-anchor="start" x="142.03" y="-931.8" font-family="Arial" font-size="14.00" fill="#666666">[varchar(50)]</text>
<polygon fill="none" stroke="black" points="43.2,-888.8 43.2,-919.6 402.64,-919.6 402.64,-888.8 43.2,-888.8"/>
<text text-anchor="start" x="50.2" y="-901" font-family="Arial" font-size="14.00">settlementId </text>
<text text-anchor="start" x="130.35" y="-901" font-family="Arial" font-size="14.00" fill="#666666">[bigint unsigned]</text>
</g>
<!-- settlementContentAggregation&#45;&gt;settlement -->
<g id="edge1" class="edge">
<title>settlementContentAggregation:settlementId&#45;&gt;settlement:settlementId</title>
<path fill="none" stroke="black" d="M413.7,-902.72C435.86,-895.27 428.64,-861.45 454.92,-845.6 674.22,-713.37 759.42,-712.4 1015.5,-712.4"/>
<polygon fill="black" stroke="black" points="413.86,-902.7 403.32,-899.7 408.58,-903.47 404.3,-904.1 404.3,-904.1 404.3,-904.1 408.58,-903.47 404.62,-908.6 413.86,-902.7"/>
<text text-anchor="start" x="245.54" y="-888.2" font-family="Arial" font-size="10.00">FOREIGN KEY (settlementId) REFERENCES settlement (settlementId)</text>
</g>
<!-- settlementParticipantCurrency -->
<g id="node3" class="node">
<title>settlementParticipantCurrency</title>
<polygon fill="#efefef" stroke="none" points="507.21,-1135.2 507.21,-1170.8 864.63,-1170.8 864.63,-1135.2 507.21,-1135.2"/>
<polygon fill="none" stroke="black" points="507.21,-1135.2 507.21,-1170.8 864.63,-1170.8 864.63,-1135.2 507.21,-1135.2"/>
<text text-anchor="start" x="514.21" y="-1148.6" font-family="Arial Bold" font-size="18.00">settlementParticipantCurrency</text>
<text text-anchor="start" x="733.14" y="-1148.6" font-family="Arial" font-size="14.00">    </text>
<text text-anchor="start" x="764.25" y="-1148.6" font-family="Arial" font-size="14.00" fill="#666666">[BASE TABLE]</text>
<polygon fill="none" stroke="black" points="507.21,-1104.4 507.21,-1135.2 864.63,-1135.2 864.63,-1104.4 507.21,-1104.4"/>
<text text-anchor="start" x="514.21" y="-1116.6" font-family="Arial" font-size="14.00">settlementParticipantCurrencyId </text>
<text text-anchor="start" x="717.3" y="-1116.6" font-family="Arial" font-size="14.00" fill="#666666">[bigint unsigned]</text>
<polygon fill="none" stroke="black" points="507.21,-1073.6 507.21,-1104.4 864.63,-1104.4 864.63,-1073.6 507.21,-1073.6"/>
<text text-anchor="start" x="514.21" y="-1085.8" font-family="Arial" font-size="14.00">settlementId </text>
<text text-anchor="start" x="594.36" y="-1085.8" font-family="Arial" font-size="14.00" fill="#666666">[bigint unsigned]</text>
<polygon fill="none" stroke="black" points="507.21,-1042.8 507.21,-1073.6 864.63,-1073.6 864.63,-1042.8 507.21,-1042.8"/>
<text text-anchor="start" x="514.21" y="-1055" font-family="Arial" font-size="14.00">participantCurrencyId </text>
<text text-anchor="start" x="651.16" y="-1055" font-family="Arial" font-size="14.00" fill="#666666">[int unsigned]</text>
<polygon fill="none" stroke="black" points="507.21,-1012 507.21,-1042.8 864.63,-1042.8 864.63,-1012 507.21,-1012"/>
<text text-anchor="start" x="514.21" y="-1024.2" font-family="Arial" font-size="14.00">netAmount </text>
<text text-anchor="start" x="585.81" y="-1024.2" font-family="Arial" font-size="14.00" fill="#666666">[decimal(18,4)]</text>
<polygon fill="none" stroke="black" points="507.21,-981.2 507.21,-1012 864.63,-1012 864.63,-981.2 507.21,-981.2"/>
<text text-anchor="start" x="514.21" y="-993.4" font-family="Arial" font-size="14.00">createdDate </text>
<text text-anchor="start" x="594.37" y="-993.4" font-family="Arial" font-size="14.00" fill="#666666">[datetime]</text>
<polygon fill="none" stroke="black" points="507.21,-950.4 507.21,-981.2 864.63,-981.2 864.63,-950.4 507.21,-950.4"/>
<text text-anchor="start" x="514.21" y="-962.6" font-family="Arial" font-size="14.00">currentStateChangeId </text>
<text text-anchor="start" x="655.08" y="-962.6" font-family="Arial" font-size="14.00" fill="#666666">[bigint unsigned]</text>
<polygon fill="none" stroke="black" points="507.21,-919.6 507.21,-950.4 864.63,-950.4 864.63,-919.6 507.21,-919.6"/>
<text text-anchor="start" x="514.21" y="-931.8" font-family="Arial" font-size="14.00">settlementTransferId </text>
<text text-anchor="start" x="646.49" y="-931.8" font-family="Arial" font-size="14.00" fill="#666666">[varchar(36)]</text>
</g>
<!-- settlementParticipantCurrency&#45;&gt;settlement -->
<g id="edge2" class="edge">
<title>settlementParticipantCurrency:settlementId&#45;&gt;settlement:settlementId</title>
<path fill="none" stroke="black" d="M875.59,-1086.55C917.58,-1064 895.76,-892.67 916.92,-845.6 947.11,-778.42 941.85,-712.4 1015.5,-712.4"/>
<polygon fill="black" stroke="black" points="875.66,-1086.53 864.88,-1084.55 870.48,-1087.8 866.28,-1088.84 866.28,-1088.84 866.28,-1088.84 870.48,-1087.8 867.03,-1093.29 875.66,-1086.53"/>
<text text-anchor="start" x="872.63" y="-1099" font-family="Arial" font-size="10.00">FOREIGN KEY (settlementId) REFERENCES settlement (settlementId)</text>
</g>
<!-- settlementSettlementWindow -->
<g id="node4" class="node">
<title>settlementSettlementWindow</title>
<polygon fill="#efefef" stroke="none" points="969.2,-1089 969.2,-1124.6 1320.64,-1124.6 1320.64,-1089 969.2,-1089"/>
<polygon fill="none" stroke="black" points="969.2,-1089 969.2,-1124.6 1320.64,-1124.6 1320.64,-1089 969.2,-1089"/>
<text text-anchor="start" x="976.2" y="-1102.4" font-family="Arial Bold" font-size="18.00">settlementSettlementWindow</text>
<text text-anchor="start" x="1189.15" y="-1102.4" font-family="Arial" font-size="14.00">    </text>
<text text-anchor="start" x="1220.27" y="-1102.4" font-family="Arial" font-size="14.00" fill="#666666">[BASE TABLE]</text>
<polygon fill="none" stroke="black" points="969.2,-1058.2 969.2,-1089 1320.64,-1089 1320.64,-1058.2 969.2,-1058.2"/>
<text text-anchor="start" x="976.2" y="-1070.4" font-family="Arial" font-size="14.00">settlementSettlementWindowId </text>
<text text-anchor="start" x="1173.07" y="-1070.4" font-family="Arial" font-size="14.00" fill="#666666">[bigint unsigned]</text>
<polygon fill="none" stroke="black" points="969.2,-1027.4 969.2,-1058.2 1320.64,-1058.2 1320.64,-1027.4 969.2,-1027.4"/>
<text text-anchor="start" x="976.2" y="-1039.6" font-family="Arial" font-size="14.00">settlementId </text>
<text text-anchor="start" x="1056.35" y="-1039.6" font-family="Arial" font-size="14.00" fill="#666666">[bigint unsigned]</text>
<polygon fill="none" stroke="black" points="969.2,-996.6 969.2,-1027.4 1320.64,-1027.4 1320.64,-996.6 969.2,-996.6"/>
<text text-anchor="start" x="976.2" y="-1008.8" font-family="Arial" font-size="14.00">settlementWindowId </text>
<text text-anchor="start" x="1106.14" y="-1008.8" font-family="Arial" font-size="14.00" fill="#666666">[bigint unsigned]</text>
<polygon fill="none" stroke="black" points="969.2,-965.8 969.2,-996.6 1320.64,-996.6 1320.64,-965.8 969.2,-965.8"/>
<text text-anchor="start" x="976.2" y="-978" font-family="Arial" font-size="14.00">createdDate </text>
<text text-anchor="start" x="1056.36" y="-978" font-family="Arial" font-size="14.00" fill="#666666">[datetime]</text>
</g>
<!-- settlementSettlementWindow&#45;&gt;settlement -->
<g id="edge3" class="edge">
<title>settlementSettlementWindow:settlementId&#45;&gt;settlement:settlementId</title>
<path fill="none" stroke="black" d="M1331.65,-1040.51C1391.13,-1011.32 1344.88,-712.4 1274.34,-712.4"/>
<polygon fill="black" stroke="black" points="1331.71,-1040.5 1320.96,-1038.34 1326.51,-1041.69 1322.29,-1042.65 1322.29,-1042.65 1322.29,-1042.65 1326.51,-1041.69 1322.97,-1047.11 1331.71,-1040.5"/>
<text text-anchor="start" x="1163.54" y="-1026.8" font-family="Arial" font-size="10.00">FOREIGN KEY (settlementId) REFERENCES settlement (settlementId)</text>
</g>
<!-- settlementStateChange&#45;&gt;settlement -->
<g id="edge4" class="edge">
<title>settlementStateChange:settlementId&#45;&gt;settlement:settlementId</title>
<path fill="none" stroke="black" d="M1306.49,-264.21C1344.99,-315.39 1321.55,-712.4 1274.34,-712.4"/>
<polygon fill="black" stroke="black" points="1306.46,-264.19 1300.27,-255.13 1301.91,-261.41 1298.21,-259.15 1298.21,-259.15 1298.21,-259.15 1301.91,-261.41 1295.58,-262.81 1306.46,-264.19"/>
<text text-anchor="start" x="1139.54" y="-242.8" font-family="Arial" font-size="10.00">FOREIGN KEY (settlementId) REFERENCES settlement (settlementId)</text>
</g>
<!-- settlementTransferParticipant -->
<g id="node6" class="node">
<title>settlementTransferParticipant</title>
<polygon fill="#efefef" stroke="none" points="1425.22,-1150.6 1425.22,-1186.2 1776.62,-1186.2 1776.62,-1150.6 1425.22,-1150.6"/>
<polygon fill="none" stroke="black" points="1425.22,-1150.6 1425.22,-1186.2 1776.62,-1186.2 1776.62,-1150.6 1425.22,-1150.6"/>
<text text-anchor="start" x="1432.22" y="-1164" font-family="Arial Bold" font-size="18.00">settlementTransferParticipant</text>
<text text-anchor="start" x="1645.13" y="-1164" font-family="Arial" font-size="14.00">    </text>
<text text-anchor="start" x="1676.25" y="-1164" font-family="Arial" font-size="14.00" fill="#666666">[BASE TABLE]</text>
<polygon fill="none" stroke="black" points="1425.22,-1119.8 1425.22,-1150.6 1776.62,-1150.6 1776.62,-1119.8 1425.22,-1119.8"/>
<text text-anchor="start" x="1432.22" y="-1132" font-family="Arial" font-size="14.00">settlementTransferParticipantId </text>
<text text-anchor="start" x="1630.64" y="-1132" font-family="Arial" font-size="14.00" fill="#666666">[bigint unsigned]</text>
<polygon fill="none" stroke="black" points="1425.22,-1089 1425.22,-1119.8 1776.62,-1119.8 1776.62,-1089 1425.22,-1089"/>
<text text-anchor="start" x="1432.22" y="-1101.2" font-family="Arial" font-size="14.00">settlementId </text>
<text text-anchor="start" x="1512.37" y="-1101.2" font-family="Arial" font-size="14.00" fill="#666666">[bigint unsigned]</text>
<polygon fill="none" stroke="black" points="1425.22,-1058.2 1425.22,-1089 1776.62,-1089 1776.62,-1058.2 1425.22,-1058.2"/>
<text text-anchor="start" x="1432.22" y="-1070.4" font-family="Arial" font-size="14.00">settlementWindowId </text>
<text text-anchor="start" x="1562.16" y="-1070.4" font-family="Arial" font-size="14.00" fill="#666666">[bigint unsigned]</text>
<polygon fill="none" stroke="black" points="1425.22,-1027.4 1425.22,-1058.2 1776.62,-1058.2 1776.62,-1027.4 1425.22,-1027.4"/>
<text text-anchor="start" x="1432.22" y="-1039.6" font-family="Arial" font-size="14.00">participantCurrencyId </text>
<text text-anchor="start" x="1569.17" y="-1039.6" font-family="Arial" font-size="14.00" fill="#666666">[int unsigned]</text>
<polygon fill="none" stroke="black" points="1425.22,-996.6 1425.22,-1027.4 1776.62,-1027.4 1776.62,-996.6 1425.22,-996.6"/>
<text text-anchor="start" x="1432.22" y="-1008.8" font-family="Arial" font-size="14.00">transferParticipantRoleTypeId </text>
<text text-anchor="start" x="1621.31" y="-1008.8" font-family="Arial" font-size="14.00" fill="#666666">[int unsigned]</text>
<polygon fill="none" stroke="black" points="1425.22,-965.8 1425.22,-996.6 1776.62,-996.6 1776.62,-965.8 1425.22,-965.8"/>
<text text-anchor="start" x="1432.22" y="-978" font-family="Arial" font-size="14.00">ledgerEntryTypeId </text>
<text text-anchor="start" x="1550.5" y="-978" font-family="Arial" font-size="14.00" fill="#666666">[int unsigned]</text>
<polygon fill="none" stroke="black" points="1425.22,-935 1425.22,-965.8 1776.62,-965.8 1776.62,-935 1425.22,-935"/>
<text text-anchor="start" x="1432.22" y="-947.2" font-family="Arial" font-size="14.00">amount </text>
<text text-anchor="start" x="1482.8" y="-947.2" font-family="Arial" font-size="14.00" fill="#666666">[decimal(18,4)]</text>
<polygon fill="none" stroke="black" points="1425.22,-904.2 1425.22,-935 1776.62,-935 1776.62,-904.2 1425.22,-904.2"/>
<text text-anchor="start" x="1432.22" y="-916.4" font-family="Arial" font-size="14.00">createdDate </text>
<text text-anchor="start" x="1512.37" y="-916.4" font-family="Arial" font-size="14.00" fill="#666666">[datetime]</text>
</g>
<!-- settlementTransferParticipant&#45;&gt;settlement -->
<g id="edge5" class="edge">
<title>settlementTransferParticipant:settlementId&#45;&gt;settlement:settlementId</title>
<path fill="none" stroke="black" d="M1414.24,-1102.08C1369.25,-1079.34 1395.15,-895.87 1372.92,-845.6 1343.13,-778.24 1347.99,-712.4 1274.34,-712.4"/>
<polygon fill="black" stroke="black" points="1414.15,-1102.06 1422.87,-1108.71 1419.35,-1103.27 1423.56,-1104.25 1423.56,-1104.25 1423.56,-1104.25 1419.35,-1103.27 1424.91,-1099.94 1414.15,-1102.06"/>
<text text-anchor="start" x="1431.22" y="-1114.4" font-family="Arial" font-size="10.00">FOREIGN KEY (settlementId) REFERENCES settlement (settlementId)</text>
</g>
<!-- settlementWindowContent -->
<g id="node7" class="node">
<title>settlementWindowContent</title>
<polygon fill="#efefef" stroke="none" points="1881.19,-1150.6 1881.19,-1186.2 2212.65,-1186.2 2212.65,-1150.6 1881.19,-1150.6"/>
<polygon fill="none" stroke="black" points="1881.19,-1150.6 1881.19,-1186.2 2212.65,-1186.2 2212.65,-1150.6 1881.19,-1150.6"/>
<text text-anchor="start" x="1888.19" y="-1164" font-family="Arial Bold" font-size="18.00">settlementWindowContent</text>
<text text-anchor="start" x="2081.16" y="-1164" font-family="Arial" font-size="14.00">    </text>
<text text-anchor="start" x="2112.27" y="-1164" font-family="Arial" font-size="14.00" fill="#666666">[BASE TABLE]</text>
<polygon fill="none" stroke="black" points="1881.19,-1119.8 1881.19,-1150.6 2212.65,-1150.6 2212.65,-1119.8 1881.19,-1119.8"/>
<text text-anchor="start" x="1888.19" y="-1132" font-family="Arial" font-size="14.00">settlementWindowContentId </text>
<text text-anchor="start" x="2067.17" y="-1132" font-family="Arial" font-size="14.00" fill="#666666">[bigint unsigned]</text>
<polygon fill="none" stroke="black" points="1881.19,-1089 1881.19,-1119.8 2212.65,-1119.8 2212.65,-1089 1881.19,-1089"/>
<text text-anchor="start" x="1888.19" y="-1101.2" font-family="Arial" font-size="14.00">settlementWindowId </text>
<text text-anchor="start" x="2018.14" y="-1101.2" font-family="Arial" font-size="14.00" fill="#666666">[bigint unsigned]</text>
<polygon fill="none" stroke="black" points="1881.19,-1058.2 1881.19,-1089 2212.65,-1089 2212.65,-1058.2 1881.19,-1058.2"/>
<text text-anchor="start" x="1888.19" y="-1070.4" font-family="Arial" font-size="14.00">ledgerAccountTypeId </text>
<text text-anchor="start" x="2024.38" y="-1070.4" font-family="Arial" font-size="14.00" fill="#666666">[int unsigned]</text>
<polygon fill="none" stroke="black" points="1881.19,-1027.4 1881.19,-1058.2 2212.65,-1058.2 2212.65,-1027.4 1881.19,-1027.4"/>
<text text-anchor="start" x="1888.19" y="-1039.6" font-family="Arial" font-size="14.00">currencyId </text>
<text text-anchor="start" x="1957.44" y="-1039.6" font-family="Arial" font-size="14.00" fill="#666666">[varchar(3)]</text>
<polygon fill="none" stroke="black" points="1881.19,-996.6 1881.19,-1027.4 2212.65,-1027.4 2212.65,-996.6 1881.19,-996.6"/>
<text text-anchor="start" x="1888.19" y="-1008.8" font-family="Arial" font-size="14.00">createdDate </text>
<text text-anchor="start" x="1968.35" y="-1008.8" font-family="Arial" font-size="14.00" fill="#666666">[datetime]</text>
<polygon fill="none" stroke="black" points="1881.19,-965.8 1881.19,-996.6 2212.65,-996.6 2212.65,-965.8 1881.19,-965.8"/>
<text text-anchor="start" x="1888.19" y="-978" font-family="Arial" font-size="14.00">currentStateChangeId </text>
<text text-anchor="start" x="2029.06" y="-978" font-family="Arial" font-size="14.00" fill="#666666">[bigint unsigned]</text>
<polygon fill="none" stroke="black" points="1881.19,-935 1881.19,-965.8 2212.65,-965.8 2212.65,-935 1881.19,-935"/>
<text text-anchor="start" x="1888.19" y="-947.2" font-family="Arial" font-size="14.00">settlementId </text>
<text text-anchor="start" x="1968.34" y="-947.2" font-family="Arial" font-size="14.00" fill="#666666">[bigint unsigned]</text>
<polygon fill="none" stroke="black" points="1881.19,-904.2 1881.19,-935 2212.65,-935 2212.65,-904.2 1881.19,-904.2"/>
<text text-anchor="start" x="1888.19" y="-916.4" font-family="Arial" font-size="14.00">SettlementModelId </text>
<text text-anchor="start" x="2008.81" y="-916.4" font-family="Arial" font-size="14.00" fill="#666666">[int unsigned]</text>
</g>
<!-- settlementWindowContent&#45;&gt;settlement -->
<g id="edge6" class="edge">
<title>settlementWindowContent:settlementId&#45;&gt;settlement:settlementId</title>
<path fill="none" stroke="black" d="M1870.11,-949.25C1833.98,-939.88 1866.37,-875.63 1828.92,-845.6 1730.03,-766.32 1401.08,-712.4 1274.34,-712.4"/>
<polygon fill="black" stroke="black" points="1869.92,-949.23 1879.35,-954.83 1875.22,-949.83 1879.53,-950.32 1879.53,-950.32 1879.53,-950.32 1875.22,-949.83 1880.37,-945.89 1869.92,-949.23"/>
<text text-anchor="start" x="1556.99" y="-960.4" font-family="Arial" font-size="10.00">FOREIGN KEY (settlementId) REFERENCES settlement (settlementId)</text>
</g>
</g>
</svg>
