<?xml version="1.0" encoding="UTF-8" standalone="no"?>
<!DOCTYPE svg PUBLIC "-//W3C//DTD SVG 1.1//EN"
 "http://www.w3.org/Graphics/SVG/1.1/DTD/svg11.dtd">
<!-- Generated by graphviz version 12.1.2 (20240928.0832)
 -->
<!-- Title: settlementDelay Pages: 1 -->
<svg width="720pt" height="514pt"
 viewBox="0.00 0.00 719.55 514.21" xmlns="http://www.w3.org/2000/svg" xmlns:xlink="http://www.w3.org/1999/xlink">
<g id="graph0" class="graph" transform="scale(1 1) rotate(0) translate(4 510.21)">
<title>settlementDelay</title>
<polygon fill="white" stroke="none" points="-4,4 -4,-510.21 715.55,-510.21 715.55,4 -4,4"/>
<!-- settlementDelay -->
<g id="node1" class="node">
<title>settlementDelay</title>
<polygon fill="#efefef" stroke="none" points="46.2,-81.61 46.2,-117.21 301.65,-117.21 301.65,-81.61 46.2,-81.61"/>
<polygon fill="none" stroke="black" points="46.2,-81.61 46.2,-117.21 301.65,-117.21 301.65,-81.61 46.2,-81.61"/>
<text text-anchor="start" x="53.2" y="-95.01" font-family="Arial Bold" font-size="18.00">settlementDelay</text>
<text text-anchor="start" x="170.16" y="-95.01" font-family="Arial" font-size="14.00">    </text>
<text text-anchor="start" x="201.27" y="-95.01" font-family="Arial" font-size="14.00" fill="#666666">[BASE TABLE]</text>
<polygon fill="none" stroke="black" points="46.2,-50.81 46.2,-81.61 301.65,-81.61 301.65,-50.81 46.2,-50.81"/>
<text text-anchor="start" x="53.2" y="-63.01" font-family="Arial" font-size="14.00">settlementDelayId </text>
<text text-anchor="start" x="169.14" y="-63.01" font-family="Arial" font-size="14.00" fill="#666666">[int unsigned]</text>
<polygon fill="none" stroke="black" stroke-width="3" points="44.7,-49.31 44.7,-118.71 303.15,-118.71 303.15,-49.31 44.7,-49.31"/>
</g>
<!-- settlementModel -->
<g id="node2" class="node">
<title>settlementModel</title>
<polygon fill="#efefef" stroke="none" points="44.19,-427.41 44.19,-463.01 303.65,-463.01 303.65,-427.41 44.19,-427.41"/>
<polygon fill="none" stroke="black" points="44.19,-427.41 44.19,-463.01 303.65,-463.01 303.65,-427.41 44.19,-427.41"/>
<text text-anchor="start" x="51.19" y="-440.81" font-family="Arial Bold" font-size="18.00">settlementModel</text>
<text text-anchor="start" x="172.16" y="-440.81" font-family="Arial" font-size="14.00">    </text>
<text text-anchor="start" x="203.28" y="-440.81" font-family="Arial" font-size="14.00" fill="#666666">[BASE TABLE]</text>
<polygon fill="none" stroke="black" points="44.19,-396.61 44.19,-427.41 303.65,-427.41 303.65,-396.61 44.19,-396.61"/>
<text text-anchor="start" x="51.19" y="-408.81" font-family="Arial" font-size="14.00">settlementModelId </text>
<text text-anchor="start" x="169.47" y="-408.81" font-family="Arial" font-size="14.00" fill="#666666">[int unsigned]</text>
<polygon fill="none" stroke="black" points="44.19,-365.81 44.19,-396.61 303.65,-396.61 303.65,-365.81 44.19,-365.81"/>
<text text-anchor="start" x="51.19" y="-378.01" font-family="Arial" font-size="14.00">settlementGranularityId </text>
<text text-anchor="start" x="199.81" y="-378.01" font-family="Arial" font-size="14.00" fill="#666666">[int unsigned]</text>
<polygon fill="none" stroke="black" points="44.19,-335.01 44.19,-365.81 303.65,-365.81 303.65,-335.01 44.19,-335.01"/>
<text text-anchor="start" x="51.19" y="-347.21" font-family="Arial" font-size="14.00">settlementInterchangeId </text>
<text text-anchor="start" x="205.29" y="-347.21" font-family="Arial" font-size="14.00" fill="#666666">[int unsigned]</text>
<polygon fill="none" stroke="black" points="44.19,-304.21 44.19,-335.01 303.65,-335.01 303.65,-304.21 44.19,-304.21"/>
<text text-anchor="start" x="51.19" y="-316.41" font-family="Arial" font-size="14.00">settlementDelayId </text>
<text text-anchor="start" x="167.14" y="-316.41" font-family="Arial" font-size="14.00" fill="#666666">[int unsigned]</text>
<polygon fill="none" stroke="black" points="44.19,-273.41 44.19,-304.21 303.65,-304.21 303.65,-273.41 44.19,-273.41"/>
<text text-anchor="start" x="51.19" y="-285.61" font-family="Arial" font-size="14.00">currencyId </text>
<text text-anchor="start" x="120.44" y="-285.61" font-family="Arial" font-size="14.00" fill="#666666">[varchar(3)]</text>
<polygon fill="none" stroke="black" points="44.19,-242.61 44.19,-273.41 303.65,-273.41 303.65,-242.61 44.19,-242.61"/>
<text text-anchor="start" x="51.19" y="-254.81" font-family="Arial" font-size="14.00">ledgerAccountTypeId </text>
<text text-anchor="start" x="187.38" y="-254.81" font-family="Arial" font-size="14.00" fill="#666666">[int unsigned]</text>
</g>
<!-- settlementModel&#45;&gt;settlementDelay -->
<g id="edge1" class="edge">
<title>settlementModel:settlementDelayId&#45;&gt;settlementDelay:settlementDelayId</title>
<path fill="none" stroke="black" d="M314.59,-317.51C367.81,-294.61 388.09,-91.28 347.85,-50.81 293.34,4.01 173.92,27.49 173.92,-49.81"/>
<polygon fill="black" stroke="black" points="314.76,-317.47 304.05,-315.14 309.55,-318.57 305.31,-319.47 305.31,-319.47 305.31,-319.47 309.55,-318.57 305.91,-323.94 314.76,-317.47"/>
<text text-anchor="start" x="311.65" y="-329.61" font-family="Arial" font-size="10.00">FOREIGN KEY (settlementDelayId) REFERENCES settlementDelay (settlementDelayId)</text>
</g>
</g>
</svg>
