<?xml version="1.0" encoding="UTF-8" standalone="no"?>
<!DOCTYPE svg PUBLIC "-//W3C//DTD SVG 1.1//EN"
 "http://www.w3.org/Graphics/SVG/1.1/DTD/svg11.dtd">
<!-- Generated by graphviz version 12.1.2 (20240928.0832)
 -->
<!-- Title: settlementStateChange Pages: 1 -->
<svg width="922pt" height="602pt"
 viewBox="0.00 0.00 921.88 602.00" xmlns="http://www.w3.org/2000/svg" xmlns:xlink="http://www.w3.org/1999/xlink">
<g id="graph0" class="graph" transform="scale(1 1) rotate(0) translate(4 598)">
<title>settlementStateChange</title>
<polygon fill="white" stroke="none" points="-4,4 -4,-598 917.88,-598 917.88,4 -4,4"/>
<!-- settlementStateChange -->
<g id="node1" class="node">
<title>settlementStateChange</title>
<polygon fill="#efefef" stroke="none" points="209.19,-512.2 209.19,-547.8 512.63,-547.8 512.63,-512.2 209.19,-512.2"/>
<polygon fill="none" stroke="black" points="209.19,-512.2 209.19,-547.8 512.63,-547.8 512.63,-512.2 209.19,-512.2"/>
<text text-anchor="start" x="216.19" y="-525.6" font-family="Arial Bold" font-size="18.00">settlementStateChange</text>
<text text-anchor="start" x="381.14" y="-525.6" font-family="Arial" font-size="14.00">    </text>
<text text-anchor="start" x="412.26" y="-525.6" font-family="Arial" font-size="14.00" fill="#666666">[BASE TABLE]</text>
<polygon fill="none" stroke="black" points="209.19,-481.4 209.19,-512.2 512.63,-512.2 512.63,-481.4 209.19,-481.4"/>
<text text-anchor="start" x="216.19" y="-493.6" font-family="Arial" font-size="14.00">settlementStateChangeId </text>
<text text-anchor="start" x="378.07" y="-493.6" font-family="Arial" font-size="14.00" fill="#666666">[bigint unsigned]</text>
<polygon fill="none" stroke="black" points="209.19,-450.6 209.19,-481.4 512.63,-481.4 512.63,-450.6 209.19,-450.6"/>
<text text-anchor="start" x="216.19" y="-462.8" font-family="Arial" font-size="14.00">settlementId </text>
<text text-anchor="start" x="296.34" y="-462.8" font-family="Arial" font-size="14.00" fill="#666666">[bigint unsigned]</text>
<polygon fill="none" stroke="black" points="209.19,-419.8 209.19,-450.6 512.63,-450.6 512.63,-419.8 209.19,-419.8"/>
<text text-anchor="start" x="216.19" y="-432" font-family="Arial" font-size="14.00">settlementStateId </text>
<text text-anchor="start" x="329.03" y="-432" font-family="Arial" font-size="14.00" fill="#666666">[varchar(50)]</text>
<polygon fill="none" stroke="black" points="209.19,-389 209.19,-419.8 512.63,-419.8 512.63,-389 209.19,-389"/>
<text text-anchor="start" x="216.19" y="-401.2" font-family="Arial" font-size="14.00">reason </text>
<text text-anchor="start" x="262.89" y="-401.2" font-family="Arial" font-size="14.00" fill="#666666">[varchar(512)]</text>
<polygon fill="none" stroke="black" points="209.19,-358.2 209.19,-389 512.63,-389 512.63,-358.2 209.19,-358.2"/>
<text text-anchor="start" x="216.19" y="-370.4" font-family="Arial" font-size="14.00">createdDate </text>
<text text-anchor="start" x="296.35" y="-370.4" font-family="Arial" font-size="14.00" fill="#666666">[datetime]</text>
<polygon fill="none" stroke="black" stroke-width="3" points="207.69,-356.7 207.69,-549.3 514.13,-549.3 514.13,-356.7 207.69,-356.7"/>
</g>
<!-- settlement -->
<g id="node2" class="node">
<title>settlement</title>
<polygon fill="#efefef" stroke="none" points="232.5,-197.2 232.5,-232.8 489.33,-232.8 489.33,-197.2 232.5,-197.2"/>
<polygon fill="none" stroke="black" points="232.5,-197.2 232.5,-232.8 489.33,-232.8 489.33,-197.2 232.5,-197.2"/>
<text text-anchor="start" x="261.68" y="-210.6" font-family="Arial Bold" font-size="18.00">settlement</text>
<text text-anchor="start" x="335.66" y="-210.6" font-family="Arial" font-size="14.00">    </text>
<text text-anchor="start" x="366.77" y="-210.6" font-family="Arial" font-size="14.00" fill="#666666">[BASE TABLE]</text>
<polygon fill="none" stroke="black" points="232.5,-166.4 232.5,-197.2 489.33,-197.2 489.33,-166.4 232.5,-166.4"/>
<text text-anchor="start" x="239.5" y="-178.6" font-family="Arial" font-size="14.00">settlementId </text>
<text text-anchor="start" x="319.65" y="-178.6" font-family="Arial" font-size="14.00" fill="#666666">[bigint unsigned]</text>
<polygon fill="none" stroke="black" points="232.5,-135.6 232.5,-166.4 489.33,-166.4 489.33,-135.6 232.5,-135.6"/>
<text text-anchor="start" x="239.5" y="-147.8" font-family="Arial" font-size="14.00">reason </text>
<text text-anchor="start" x="286.19" y="-147.8" font-family="Arial" font-size="14.00" fill="#666666">[varchar(512)]</text>
<polygon fill="none" stroke="black" points="232.5,-104.8 232.5,-135.6 489.33,-135.6 489.33,-104.8 232.5,-104.8"/>
<text text-anchor="start" x="239.5" y="-117" font-family="Arial" font-size="14.00">createdDate </text>
<text text-anchor="start" x="319.65" y="-117" font-family="Arial" font-size="14.00" fill="#666666">[datetime]</text>
<polygon fill="none" stroke="black" points="232.5,-74 232.5,-104.8 489.33,-104.8 489.33,-74 232.5,-74"/>
<text text-anchor="start" x="239.5" y="-86.2" font-family="Arial" font-size="14.00">currentStateChangeId </text>
<text text-anchor="start" x="380.36" y="-86.2" font-family="Arial" font-size="14.00" fill="#666666">[bigint unsigned]</text>
<polygon fill="none" stroke="black" points="232.5,-43.2 232.5,-74 489.33,-74 489.33,-43.2 232.5,-43.2"/>
<text text-anchor="start" x="239.5" y="-55.4" font-family="Arial" font-size="14.00">settlementModelId </text>
<text text-anchor="start" x="357.78" y="-55.4" font-family="Arial" font-size="14.00" fill="#666666">[int unsigned]</text>
</g>
<!-- settlementStateChange&#45;&gt;settlement -->
<g id="edge2" class="edge">
<title>settlementStateChange:settlementId&#45;&gt;settlement:settlementId</title>
<path fill="none" stroke="black" d="M521.13,-458.97C540.87,-415.21 519.04,-181.8 490.33,-181.8"/>
<polygon fill="black" stroke="black" points="521.18,-458.93 510.8,-462.49 517.28,-462.58 514.12,-465.54 514.12,-465.54 514.12,-465.54 517.28,-462.58 516.95,-469.06 521.18,-458.93"/>
<text text-anchor="start" x="520.63" y="-476" font-family="Arial" font-size="10.00">FOREIGN KEY (settlementId) REFERENCES settlement (settlementId)</text>
</g>
<!-- settlementState -->
<g id="node3" class="node">
<title>settlementState</title>
<polygon fill="#efefef" stroke="none" points="593.68,-197.2 593.68,-232.8 842.14,-232.8 842.14,-197.2 593.68,-197.2"/>
<polygon fill="none" stroke="black" points="593.68,-197.2 593.68,-232.8 842.14,-232.8 842.14,-197.2 593.68,-197.2"/>
<text text-anchor="start" x="600.68" y="-210.6" font-family="Arial Bold" font-size="18.00">settlementState</text>
<text text-anchor="start" x="710.65" y="-210.6" font-family="Arial" font-size="14.00">    </text>
<text text-anchor="start" x="741.77" y="-210.6" font-family="Arial" font-size="14.00" fill="#666666">[BASE TABLE]</text>
<polygon fill="none" stroke="black" points="593.68,-166.4 593.68,-197.2 842.14,-197.2 842.14,-166.4 593.68,-166.4"/>
<text text-anchor="start" x="600.68" y="-178.6" font-family="Arial" font-size="14.00">settlementStateId </text>
<text text-anchor="start" x="713.52" y="-178.6" font-family="Arial" font-size="14.00" fill="#666666">[varchar(50)]</text>
<polygon fill="none" stroke="black" points="593.68,-135.6 593.68,-166.4 842.14,-166.4 842.14,-135.6 593.68,-135.6"/>
<text text-anchor="start" x="600.68" y="-147.8" font-family="Arial" font-size="14.00">enumeration </text>
<text text-anchor="start" x="682.4" y="-147.8" font-family="Arial" font-size="14.00" fill="#666666">[varchar(50)]</text>
<polygon fill="none" stroke="black" points="593.68,-104.8 593.68,-135.6 842.14,-135.6 842.14,-104.8 593.68,-104.8"/>
<text text-anchor="start" x="600.68" y="-117" font-family="Arial" font-size="14.00">description </text>
<text text-anchor="start" x="672.28" y="-117" font-family="Arial" font-size="14.00" fill="#666666">[varchar(512)]</text>
<polygon fill="none" stroke="black" points="593.68,-74 593.68,-104.8 842.14,-104.8 842.14,-74 593.68,-74"/>
<text text-anchor="start" x="600.68" y="-86.2" font-family="Arial" font-size="14.00">isActive </text>
<text text-anchor="start" x="652.81" y="-86.2" font-family="Arial" font-size="14.00" fill="#666666">[tinyint(1)]</text>
<polygon fill="none" stroke="black" points="593.68,-43.2 593.68,-74 842.14,-74 842.14,-43.2 593.68,-43.2"/>
<text text-anchor="start" x="600.68" y="-55.4" font-family="Arial" font-size="14.00">createdDate </text>
<text text-anchor="start" x="680.84" y="-55.4" font-family="Arial" font-size="14.00" fill="#666666">[datetime]</text>
</g>
<!-- settlementStateChange&#45;&gt;settlementState -->
<g id="edge3" class="edge">
<title>settlementStateChange:settlementStateId&#45;&gt;settlementState:settlementStateId</title>
<path fill="none" stroke="black" d="M523.9,-434.47C622.07,-419.61 478.39,-181.8 592.68,-181.8"/>
<polygon fill="black" stroke="black" points="523.94,-434.47 513.65,-430.69 518.62,-434.85 514.3,-435.15 514.3,-435.15 514.3,-435.15 518.62,-434.85 514.28,-439.67 523.94,-434.47"/>
<text text-anchor="start" x="520.63" y="-445.2" font-family="Arial" font-size="10.00">FOREIGN KEY (settlementStateId) REFERENCES settlementState (settlementStateId)</text>
</g>
<!-- settlement&#45;&gt;settlementStateChange -->
<g id="edge1" class="edge">
<title>settlement:currentStateChangeId&#45;&gt;settlementStateChange:settlementStateChangeId</title>
<path fill="none" stroke="black" d="M499.06,-94.55C538.46,-141.71 555.96,-496.8 513.63,-496.8"/>
<polygon fill="black" stroke="black" points="499.23,-94.65 492.9,-85.69 494.63,-91.94 490.9,-89.74 490.9,-89.74 490.9,-89.74 494.63,-91.94 488.33,-93.45 499.23,-94.65"/>
<text text-anchor="start" x="7" y="-99.4" font-family="Arial" font-size="10.00">FOREIGN KEY (currentStateChangeId) REFERENCES settlementStateChange (settlementStateChangeId)</text>
</g>
</g>
</svg>
