<?xml version="1.0" encoding="UTF-8" standalone="no"?>
<!DOCTYPE svg PUBLIC "-//W3C//DTD SVG 1.1//EN"
 "http://www.w3.org/Graphics/SVG/1.1/DTD/svg11.dtd">
<!-- Generated by graphviz version 12.1.2 (20240928.0832)
 -->
<!-- Title: settlementWindowStateChange Pages: 1 -->
<svg width="1260pt" height="457pt"
 viewBox="0.00 0.00 1260.13 457.33" xmlns="http://www.w3.org/2000/svg" xmlns:xlink="http://www.w3.org/1999/xlink">
<g id="graph0" class="graph" transform="scale(1 1) rotate(0) translate(4 453.33)">
<title>settlementWindowStateChange</title>
<polygon fill="white" stroke="none" points="-4,4 -4,-453.33 1256.13,-453.33 1256.13,4 -4,4"/>
<!-- settlementWindowStateChange -->
<g id="node1" class="node">
<title>settlementWindowStateChange</title>
<polygon fill="#efefef" stroke="none" points="378.75,-367.53 378.75,-403.13 744.18,-403.13 744.18,-367.53 378.75,-367.53"/>
<polygon fill="none" stroke="black" points="378.75,-367.53 378.75,-403.13 744.18,-403.13 744.18,-367.53 378.75,-367.53"/>
<text text-anchor="start" x="385.75" y="-380.93" font-family="Arial Bold" font-size="18.00">settlementWindowStateChange</text>
<text text-anchor="start" x="612.69" y="-380.93" font-family="Arial" font-size="14.00">    </text>
<text text-anchor="start" x="643.8" y="-380.93" font-family="Arial" font-size="14.00" fill="#666666">[BASE TABLE]</text>
<polygon fill="none" stroke="black" points="378.75,-336.73 378.75,-367.53 744.18,-367.53 744.18,-336.73 378.75,-336.73"/>
<text text-anchor="start" x="385.75" y="-348.93" font-family="Arial" font-size="14.00">settlementWindowStateChangeId </text>
<text text-anchor="start" x="597.42" y="-348.93" font-family="Arial" font-size="14.00" fill="#666666">[bigint unsigned]</text>
<polygon fill="none" stroke="black" points="378.75,-305.93 378.75,-336.73 744.18,-336.73 744.18,-305.93 378.75,-305.93"/>
<text text-anchor="start" x="385.75" y="-318.13" font-family="Arial" font-size="14.00">settlementWindowId </text>
<text text-anchor="start" x="515.69" y="-318.13" font-family="Arial" font-size="14.00" fill="#666666">[bigint unsigned]</text>
<polygon fill="none" stroke="black" points="378.75,-275.13 378.75,-305.93 744.18,-305.93 744.18,-275.13 378.75,-275.13"/>
<text text-anchor="start" x="385.75" y="-287.33" font-family="Arial" font-size="14.00">settlementWindowStateId </text>
<text text-anchor="start" x="548.38" y="-287.33" font-family="Arial" font-size="14.00" fill="#666666">[varchar(50)]</text>
<polygon fill="none" stroke="black" stroke-width="3" points="377.25,-273.63 377.25,-404.63 745.68,-404.63 745.68,-273.63 377.25,-273.63"/>
</g>
<!-- settlementWindow -->
<g id="node2" class="node">
<title>settlementWindow</title>
<polygon fill="#efefef" stroke="none" points="424.23,-114.13 424.23,-149.73 698.69,-149.73 698.69,-114.13 424.23,-114.13"/>
<polygon fill="none" stroke="black" points="424.23,-114.13 424.23,-149.73 698.69,-149.73 698.69,-114.13 424.23,-114.13"/>
<text text-anchor="start" x="431.23" y="-127.53" font-family="Arial Bold" font-size="18.00">settlementWindow</text>
<text text-anchor="start" x="567.2" y="-127.53" font-family="Arial" font-size="14.00">    </text>
<text text-anchor="start" x="598.32" y="-127.53" font-family="Arial" font-size="14.00" fill="#666666">[BASE TABLE]</text>
<polygon fill="none" stroke="black" points="424.23,-83.33 424.23,-114.13 698.69,-114.13 698.69,-83.33 424.23,-83.33"/>
<text text-anchor="start" x="431.23" y="-95.53" font-family="Arial" font-size="14.00">settlementWindowId </text>
<text text-anchor="start" x="561.18" y="-95.53" font-family="Arial" font-size="14.00" fill="#666666">[bigint unsigned]</text>
<polygon fill="none" stroke="black" points="424.23,-52.53 424.23,-83.33 698.69,-83.33 698.69,-52.53 424.23,-52.53"/>
<text text-anchor="start" x="431.23" y="-64.73" font-family="Arial" font-size="14.00">currentStateChangeId </text>
<text text-anchor="start" x="572.1" y="-64.73" font-family="Arial" font-size="14.00" fill="#666666">[bigint unsigned]</text>
</g>
<!-- settlementWindowStateChange&#45;&gt;settlementWindow -->
<g id="edge2" class="edge">
<title>settlementWindowStateChange:settlementWindowId&#45;&gt;settlementWindow:settlementWindowId</title>
<path fill="none" stroke="black" d="M751.28,-312.87C760.04,-272.21 721.98,-98.73 699.69,-98.73"/>
<polygon fill="black" stroke="black" points="751.23,-312.95 741.72,-318.42 748.1,-317.28 745.57,-320.79 745.57,-320.79 745.57,-320.79 748.1,-317.28 749.02,-323.69 751.23,-312.95"/>
<text text-anchor="start" x="752.18" y="-331.33" font-family="Arial" font-size="10.00">FOREIGN KEY (settlementWindowId) REFERENCES settlementWindow (settlementWindowId)</text>
</g>
<!-- settlementWindowState -->
<g id="node3" class="node">
<title>settlementWindowState</title>
<polygon fill="#efefef" stroke="none" points="803.24,-98.73 803.24,-134.33 1113.68,-134.33 1113.68,-98.73 803.24,-98.73"/>
<polygon fill="none" stroke="black" points="803.24,-98.73 803.24,-134.33 1113.68,-134.33 1113.68,-98.73 803.24,-98.73"/>
<text text-anchor="start" x="810.24" y="-112.13" font-family="Arial Bold" font-size="18.00">settlementWindowState</text>
<text text-anchor="start" x="982.2" y="-112.13" font-family="Arial" font-size="14.00">    </text>
<text text-anchor="start" x="1013.31" y="-112.13" font-family="Arial" font-size="14.00" fill="#666666">[BASE TABLE]</text>
<polygon fill="none" stroke="black" points="803.24,-67.93 803.24,-98.73 1113.68,-98.73 1113.68,-67.93 803.24,-67.93"/>
<text text-anchor="start" x="810.24" y="-80.13" font-family="Arial" font-size="14.00">settlementWindowStateId </text>
<text text-anchor="start" x="972.87" y="-80.13" font-family="Arial" font-size="14.00" fill="#666666">[varchar(50)]</text>
</g>
<!-- settlementWindowStateChange&#45;&gt;settlementWindowState -->
<g id="edge3" class="edge">
<title>settlementWindowStateChange:settlementWindowStateId&#45;&gt;settlementWindowState:settlementWindowStateId</title>
<path fill="none" stroke="black" d="M755.35,-289.6C830.58,-274.66 710.45,-83.33 802.24,-83.33"/>
<polygon fill="black" stroke="black" points="755.47,-289.59 745.1,-286.02 750.16,-290.08 745.84,-290.47 745.84,-290.47 745.84,-290.47 750.16,-290.08 745.92,-294.98 755.47,-289.59"/>
<text text-anchor="start" x="752.18" y="-300.53" font-family="Arial" font-size="10.00">FOREIGN KEY (settlementWindowStateId) REFERENCES settlementWindowState (settlementWindowStateId)</text>
</g>
<!-- settlementWindow&#45;&gt;settlementWindowStateChange -->
<g id="edge1" class="edge">
<title>settlementWindow:currentStateChangeId&#45;&gt;settlementWindowStateChange:settlementWindowStateChangeId</title>
<path fill="none" stroke="black" d="M562.19,-41.35C572.42,26.38 687.53,1.43 741.89,-52.53 749.13,-59.72 750.32,-352.13 745.18,-352.13"/>
<polygon fill="black" stroke="black" points="562.2,-41.22 557,-50.87 561.82,-46.54 561.51,-50.86 561.51,-50.86 561.51,-50.86 561.82,-46.54 565.97,-51.52 562.2,-41.22"/>
<text text-anchor="start" x="7" y="-61.53" font-family="Arial" font-size="10.00">FOREIGN KEY (currentStateChangeId) REFERENCES settlementWindowStateChange (settlementWindowStateChangeId)</text>
</g>
</g>
</svg>
