<?xml version="1.0" encoding="UTF-8" standalone="no"?>
<!DOCTYPE svg PUBLIC "-//W3C//DTD SVG 1.1//EN"
 "http://www.w3.org/Graphics/SVG/1.1/DTD/svg11.dtd">
<!-- Generated by graphviz version 12.1.2 (20240928.0832)
 -->
<!-- Title: settlementWindowContent Pages: 1 -->
<svg width="2389pt" height="1068pt"
 viewBox="0.00 0.00 2388.69 1068.00" xmlns="http://www.w3.org/2000/svg" xmlns:xlink="http://www.w3.org/1999/xlink">
<g id="graph0" class="graph" transform="scale(1 1) rotate(0) translate(4 1064)">
<title>settlementWindowContent</title>
<polygon fill="white" stroke="none" points="-4,4 -4,-1064 2384.69,-1064 2384.69,4 -4,4"/>
<!-- settlementWindowContent -->
<g id="node1" class="node">
<title>settlementWindowContent</title>
<polygon fill="#efefef" stroke="none" points="999.03,-604.6 999.03,-640.2 1330.49,-640.2 1330.49,-604.6 999.03,-604.6"/>
<polygon fill="none" stroke="black" points="999.03,-604.6 999.03,-640.2 1330.49,-640.2 1330.49,-604.6 999.03,-604.6"/>
<text text-anchor="start" x="1006.03" y="-618" font-family="Arial Bold" font-size="18.00">settlementWindowContent</text>
<text text-anchor="start" x="1199" y="-618" font-family="Arial" font-size="14.00">    </text>
<text text-anchor="start" x="1230.11" y="-618" font-family="Arial" font-size="14.00" fill="#666666">[BASE TABLE]</text>
<polygon fill="none" stroke="black" points="999.03,-573.8 999.03,-604.6 1330.49,-604.6 1330.49,-573.8 999.03,-573.8"/>
<text text-anchor="start" x="1006.03" y="-586" font-family="Arial" font-size="14.00">settlementWindowContentId </text>
<text text-anchor="start" x="1185.01" y="-586" font-family="Arial" font-size="14.00" fill="#666666">[bigint unsigned]</text>
<polygon fill="none" stroke="black" points="999.03,-543 999.03,-573.8 1330.49,-573.8 1330.49,-543 999.03,-543"/>
<text text-anchor="start" x="1006.03" y="-555.2" font-family="Arial" font-size="14.00">settlementWindowId </text>
<text text-anchor="start" x="1135.98" y="-555.2" font-family="Arial" font-size="14.00" fill="#666666">[bigint unsigned]</text>
<polygon fill="none" stroke="black" points="999.03,-512.2 999.03,-543 1330.49,-543 1330.49,-512.2 999.03,-512.2"/>
<text text-anchor="start" x="1006.03" y="-524.4" font-family="Arial" font-size="14.00">ledgerAccountTypeId </text>
<text text-anchor="start" x="1142.23" y="-524.4" font-family="Arial" font-size="14.00" fill="#666666">[int unsigned]</text>
<polygon fill="none" stroke="black" points="999.03,-481.4 999.03,-512.2 1330.49,-512.2 1330.49,-481.4 999.03,-481.4"/>
<text text-anchor="start" x="1006.03" y="-493.6" font-family="Arial" font-size="14.00">currencyId </text>
<text text-anchor="start" x="1075.28" y="-493.6" font-family="Arial" font-size="14.00" fill="#666666">[varchar(3)]</text>
<polygon fill="none" stroke="black" points="999.03,-450.6 999.03,-481.4 1330.49,-481.4 1330.49,-450.6 999.03,-450.6"/>
<text text-anchor="start" x="1006.03" y="-462.8" font-family="Arial" font-size="14.00">currentStateChangeId </text>
<text text-anchor="start" x="1146.9" y="-462.8" font-family="Arial" font-size="14.00" fill="#666666">[bigint unsigned]</text>
<polygon fill="none" stroke="black" points="999.03,-419.8 999.03,-450.6 1330.49,-450.6 1330.49,-419.8 999.03,-419.8"/>
<text text-anchor="start" x="1006.03" y="-432" font-family="Arial" font-size="14.00">settlementId </text>
<text text-anchor="start" x="1086.18" y="-432" font-family="Arial" font-size="14.00" fill="#666666">[bigint unsigned]</text>
<polygon fill="none" stroke="black" points="999.03,-389 999.03,-419.8 1330.49,-419.8 1330.49,-389 999.03,-389"/>
<text text-anchor="start" x="1006.03" y="-401.2" font-family="Arial" font-size="14.00">SettlementModelId </text>
<text text-anchor="start" x="1126.65" y="-401.2" font-family="Arial" font-size="14.00" fill="#666666">[int unsigned]</text>
<polygon fill="none" stroke="black" stroke-width="3" points="997.53,-387.5 997.53,-641.7 1331.99,-641.7 1331.99,-387.5 997.53,-387.5"/>
</g>
<!-- settlementWindowContentStateChange -->
<g id="node3" class="node">
<title>settlementWindowContentStateChange</title>
<polygon fill="#efefef" stroke="none" points="118.54,-181.8 118.54,-217.4 540.97,-217.4 540.97,-181.8 118.54,-181.8"/>
<polygon fill="none" stroke="black" points="118.54,-181.8 118.54,-217.4 540.97,-217.4 540.97,-181.8 118.54,-181.8"/>
<text text-anchor="start" x="125.54" y="-195.2" font-family="Arial Bold" font-size="18.00">settlementWindowContentStateChange</text>
<text text-anchor="start" x="409.48" y="-195.2" font-family="Arial" font-size="14.00">    </text>
<text text-anchor="start" x="440.6" y="-195.2" font-family="Arial" font-size="14.00" fill="#666666">[BASE TABLE]</text>
<polygon fill="none" stroke="black" points="118.54,-151 118.54,-181.8 540.97,-181.8 540.97,-151 118.54,-151"/>
<text text-anchor="start" x="125.54" y="-163.2" font-family="Arial" font-size="14.00">settlementWindowContentStateChangeId </text>
<text text-anchor="start" x="386.25" y="-163.2" font-family="Arial" font-size="14.00" fill="#666666">[bigint unsigned]</text>
<polygon fill="none" stroke="black" points="118.54,-120.2 118.54,-151 540.97,-151 540.97,-120.2 118.54,-120.2"/>
<text text-anchor="start" x="125.54" y="-132.4" font-family="Arial" font-size="14.00">settlementWindowContentId </text>
<text text-anchor="start" x="304.52" y="-132.4" font-family="Arial" font-size="14.00" fill="#666666">[bigint unsigned]</text>
<polygon fill="none" stroke="black" points="118.54,-89.4 118.54,-120.2 540.97,-120.2 540.97,-89.4 118.54,-89.4"/>
<text text-anchor="start" x="125.54" y="-101.6" font-family="Arial" font-size="14.00">settlementWindowStateId </text>
<text text-anchor="start" x="288.18" y="-101.6" font-family="Arial" font-size="14.00" fill="#666666">[varchar(50)]</text>
</g>
<!-- settlementWindowContent&#45;&gt;settlementWindowContentStateChange -->
<g id="edge6" class="edge">
<title>settlementWindowContent:currentStateChangeId&#45;&gt;settlementWindowContentStateChange:settlementWindowContentStateChangeId</title>
<path fill="none" stroke="black" d="M987.68,-465.98C802.16,-465.2 726.37,-442.33 593.76,-306.8 547.25,-259.26 608.48,-166.4 541.97,-166.4"/>
<polygon fill="black" stroke="black" points="987.7,-465.98 997.69,-470.5 993.03,-465.99 997.36,-466 997.36,-466 997.36,-466 993.03,-465.99 997.71,-461.5 987.7,-465.98"/>
<text text-anchor="start" x="373.52" y="-476" font-family="Arial" font-size="10.00">FOREIGN KEY (currentStateChangeId) REFERENCES settlementWindowContentStateChange (settlementWindowContentStateChangeId)</text>
</g>
<!-- settlementWindow -->
<g id="node4" class="node">
<title>settlementWindow</title>
<polygon fill="#efefef" stroke="none" points="645.53,-166.4 645.53,-202 919.99,-202 919.99,-166.4 645.53,-166.4"/>
<polygon fill="none" stroke="black" points="645.53,-166.4 645.53,-202 919.99,-202 919.99,-166.4 645.53,-166.4"/>
<text text-anchor="start" x="652.53" y="-179.8" font-family="Arial Bold" font-size="18.00">settlementWindow</text>
<text text-anchor="start" x="788.5" y="-179.8" font-family="Arial" font-size="14.00">    </text>
<text text-anchor="start" x="819.62" y="-179.8" font-family="Arial" font-size="14.00" fill="#666666">[BASE TABLE]</text>
<polygon fill="none" stroke="black" points="645.53,-135.6 645.53,-166.4 919.99,-166.4 919.99,-135.6 645.53,-135.6"/>
<text text-anchor="start" x="652.53" y="-147.8" font-family="Arial" font-size="14.00">settlementWindowId </text>
<text text-anchor="start" x="782.48" y="-147.8" font-family="Arial" font-size="14.00" fill="#666666">[bigint unsigned]</text>
<polygon fill="none" stroke="black" points="645.53,-104.8 645.53,-135.6 919.99,-135.6 919.99,-104.8 645.53,-104.8"/>
<text text-anchor="start" x="652.53" y="-117" font-family="Arial" font-size="14.00">currentStateChangeId </text>
<text text-anchor="start" x="793.4" y="-117" font-family="Arial" font-size="14.00" fill="#666666">[bigint unsigned]</text>
</g>
<!-- settlementWindowContent&#45;&gt;settlementWindow -->
<g id="edge3" class="edge">
<title>settlementWindowContent:settlementWindowId&#45;&gt;settlementWindow:settlementWindowId</title>
<path fill="none" stroke="black" d="M988.12,-556.58C913.97,-527.19 1009.53,-151 920.99,-151"/>
<polygon fill="black" stroke="black" points="987.87,-556.54 996.89,-562.77 993.11,-557.5 997.37,-558.28 997.37,-558.28 997.37,-558.28 993.11,-557.5 998.52,-553.91 987.87,-556.54"/>
<text text-anchor="start" x="568.13" y="-568.4" font-family="Arial" font-size="10.00">FOREIGN KEY (settlementWindowId) REFERENCES settlementWindow (settlementWindowId)</text>
</g>
<!-- ledgerAccountType -->
<g id="node5" class="node">
<title>ledgerAccountType</title>
<polygon fill="#efefef" stroke="none" points="1024.05,-151 1024.05,-186.6 1305.47,-186.6 1305.47,-151 1024.05,-151"/>
<polygon fill="none" stroke="black" points="1024.05,-151 1024.05,-186.6 1305.47,-186.6 1305.47,-151 1024.05,-151"/>
<text text-anchor="start" x="1031.05" y="-164.4" font-family="Arial Bold" font-size="18.00">ledgerAccountType</text>
<text text-anchor="start" x="1173.98" y="-164.4" font-family="Arial" font-size="14.00">    </text>
<text text-anchor="start" x="1205.1" y="-164.4" font-family="Arial" font-size="14.00" fill="#666666">[BASE TABLE]</text>
<polygon fill="none" stroke="black" points="1024.05,-120.2 1024.05,-151 1305.47,-151 1305.47,-120.2 1024.05,-120.2"/>
<text text-anchor="start" x="1031.05" y="-132.4" font-family="Arial" font-size="14.00">ledgerAccountTypeId </text>
<text text-anchor="start" x="1167.24" y="-132.4" font-family="Arial" font-size="14.00" fill="#666666">[int unsigned]</text>
</g>
<!-- settlementWindowContent&#45;&gt;ledgerAccountType -->
<g id="edge4" class="edge">
<title>settlementWindowContent:ledgerAccountTypeId&#45;&gt;ledgerAccountType:ledgerAccountTypeId</title>
<path fill="none" stroke="black" d="M1337.17,-519.05C1355.78,-461.71 1363.24,-134.85 1348.67,-120.2 1291.03,-62.24 1164.76,-37.46 1164.76,-119.2"/>
<polygon fill="black" stroke="black" points="1337.21,-518.99 1327.92,-524.83 1334.25,-523.44 1331.86,-527.04 1331.86,-527.04 1331.86,-527.04 1334.25,-523.44 1335.42,-529.81 1337.21,-518.99"/>
<text text-anchor="start" x="1338.49" y="-537.6" font-family="Arial" font-size="10.00">FOREIGN KEY (ledgerAccountTypeId) REFERENCES ledgerAccountType (ledgerAccountTypeId)</text>
</g>
<!-- currency -->
<g id="node6" class="node">
<title>currency</title>
<polygon fill="#efefef" stroke="none" points="1410.04,-151 1410.04,-186.6 1611.48,-186.6 1611.48,-151 1410.04,-151"/>
<polygon fill="none" stroke="black" points="1410.04,-151 1410.04,-186.6 1611.48,-186.6 1611.48,-151 1410.04,-151"/>
<text text-anchor="start" x="1417.04" y="-164.4" font-family="Arial Bold" font-size="18.00">currency</text>
<text text-anchor="start" x="1479.99" y="-164.4" font-family="Arial" font-size="14.00">    </text>
<text text-anchor="start" x="1511.11" y="-164.4" font-family="Arial" font-size="14.00" fill="#666666">[BASE TABLE]</text>
<polygon fill="none" stroke="black" points="1410.04,-120.2 1410.04,-151 1611.48,-151 1611.48,-120.2 1410.04,-120.2"/>
<text text-anchor="start" x="1417.04" y="-132.4" font-family="Arial" font-size="14.00">currencyId </text>
<text text-anchor="start" x="1486.28" y="-132.4" font-family="Arial" font-size="14.00" fill="#666666">[varchar(3)]</text>
</g>
<!-- settlementWindowContent&#45;&gt;currency -->
<g id="edge5" class="edge">
<title>settlementWindowContent:currencyId&#45;&gt;currency:currencyId</title>
<path fill="none" stroke="black" d="M1341.56,-494.68C1406.14,-465.08 1330.63,-135.6 1409.04,-135.6"/>
<polygon fill="black" stroke="black" points="1341.6,-494.67 1330.89,-492.33 1336.38,-495.77 1332.14,-496.66 1332.14,-496.66 1332.14,-496.66 1336.38,-495.77 1332.74,-501.13 1341.6,-494.67"/>
<text text-anchor="start" x="1338.49" y="-506.8" font-family="Arial" font-size="10.00">FOREIGN KEY (currencyId) REFERENCES currency (currencyId)</text>
</g>
<!-- settlement -->
<g id="node7" class="node">
<title>settlement</title>
<polygon fill="#efefef" stroke="none" points="1716.34,-181.8 1716.34,-217.4 1973.18,-217.4 1973.18,-181.8 1716.34,-181.8"/>
<polygon fill="none" stroke="black" points="1716.34,-181.8 1716.34,-217.4 1973.18,-217.4 1973.18,-181.8 1716.34,-181.8"/>
<text text-anchor="start" x="1745.53" y="-195.2" font-family="Arial Bold" font-size="18.00">settlement</text>
<text text-anchor="start" x="1819.5" y="-195.2" font-family="Arial" font-size="14.00">    </text>
<text text-anchor="start" x="1850.62" y="-195.2" font-family="Arial" font-size="14.00" fill="#666666">[BASE TABLE]</text>
<polygon fill="none" stroke="black" points="1716.34,-151 1716.34,-181.8 1973.18,-181.8 1973.18,-151 1716.34,-151"/>
<text text-anchor="start" x="1723.34" y="-163.2" font-family="Arial" font-size="14.00">settlementId </text>
<text text-anchor="start" x="1803.49" y="-163.2" font-family="Arial" font-size="14.00" fill="#666666">[bigint unsigned]</text>
<polygon fill="none" stroke="black" points="1716.34,-120.2 1716.34,-151 1973.18,-151 1973.18,-120.2 1716.34,-120.2"/>
<text text-anchor="start" x="1723.34" y="-132.4" font-family="Arial" font-size="14.00">currentStateChangeId </text>
<text text-anchor="start" x="1864.21" y="-132.4" font-family="Arial" font-size="14.00" fill="#666666">[bigint unsigned]</text>
<polygon fill="none" stroke="black" points="1716.34,-89.4 1716.34,-120.2 1973.18,-120.2 1973.18,-89.4 1716.34,-89.4"/>
<text text-anchor="start" x="1723.34" y="-101.6" font-family="Arial" font-size="14.00">settlementModelId </text>
<text text-anchor="start" x="1841.62" y="-101.6" font-family="Arial" font-size="14.00" fill="#666666">[int unsigned]</text>
</g>
<!-- settlementWindowContent&#45;&gt;settlement -->
<g id="edge7" class="edge">
<title>settlementWindowContent:settlementId&#45;&gt;settlement:settlementId</title>
<path fill="none" stroke="black" d="M1341.56,-435.18C1492.53,-434.49 1555.13,-417.25 1663.76,-306.8 1710.37,-259.4 1648.86,-166.4 1715.34,-166.4"/>
<polygon fill="black" stroke="black" points="1341.82,-435.18 1331.81,-430.7 1336.49,-435.19 1332.15,-435.2 1332.15,-435.2 1332.15,-435.2 1336.49,-435.19 1331.83,-439.7 1341.82,-435.18"/>
<text text-anchor="start" x="1338.49" y="-445.2" font-family="Arial" font-size="10.00">FOREIGN KEY (settlementId) REFERENCES settlement (settlementId)</text>
</g>
<!-- settlementModel -->
<g id="node8" class="node">
<title>settlementModel</title>
<polygon fill="#efefef" stroke="none" points="2078.03,-228 2078.03,-263.6 2337.49,-263.6 2337.49,-228 2078.03,-228"/>
<polygon fill="none" stroke="black" points="2078.03,-228 2078.03,-263.6 2337.49,-263.6 2337.49,-228 2078.03,-228"/>
<text text-anchor="start" x="2085.03" y="-241.4" font-family="Arial Bold" font-size="18.00">settlementModel</text>
<text text-anchor="start" x="2206" y="-241.4" font-family="Arial" font-size="14.00">    </text>
<text text-anchor="start" x="2237.12" y="-241.4" font-family="Arial" font-size="14.00" fill="#666666">[BASE TABLE]</text>
<polygon fill="none" stroke="black" points="2078.03,-197.2 2078.03,-228 2337.49,-228 2337.49,-197.2 2078.03,-197.2"/>
<text text-anchor="start" x="2085.03" y="-209.4" font-family="Arial" font-size="14.00">settlementModelId </text>
<text text-anchor="start" x="2203.31" y="-209.4" font-family="Arial" font-size="14.00" fill="#666666">[int unsigned]</text>
<polygon fill="none" stroke="black" points="2078.03,-166.4 2078.03,-197.2 2337.49,-197.2 2337.49,-166.4 2078.03,-166.4"/>
<text text-anchor="start" x="2085.03" y="-178.6" font-family="Arial" font-size="14.00">settlementGranularityId </text>
<text text-anchor="start" x="2233.65" y="-178.6" font-family="Arial" font-size="14.00" fill="#666666">[int unsigned]</text>
<polygon fill="none" stroke="black" points="2078.03,-135.6 2078.03,-166.4 2337.49,-166.4 2337.49,-135.6 2078.03,-135.6"/>
<text text-anchor="start" x="2085.03" y="-147.8" font-family="Arial" font-size="14.00">settlementInterchangeId </text>
<text text-anchor="start" x="2239.12" y="-147.8" font-family="Arial" font-size="14.00" fill="#666666">[int unsigned]</text>
<polygon fill="none" stroke="black" points="2078.03,-104.8 2078.03,-135.6 2337.49,-135.6 2337.49,-104.8 2078.03,-104.8"/>
<text text-anchor="start" x="2085.03" y="-117" font-family="Arial" font-size="14.00">settlementDelayId </text>
<text text-anchor="start" x="2200.97" y="-117" font-family="Arial" font-size="14.00" fill="#666666">[int unsigned]</text>
<polygon fill="none" stroke="black" points="2078.03,-74 2078.03,-104.8 2337.49,-104.8 2337.49,-74 2078.03,-74"/>
<text text-anchor="start" x="2085.03" y="-86.2" font-family="Arial" font-size="14.00">currencyId </text>
<text text-anchor="start" x="2154.28" y="-86.2" font-family="Arial" font-size="14.00" fill="#666666">[varchar(3)]</text>
<polygon fill="none" stroke="black" points="2078.03,-43.2 2078.03,-74 2337.49,-74 2337.49,-43.2 2078.03,-43.2"/>
<text text-anchor="start" x="2085.03" y="-55.4" font-family="Arial" font-size="14.00">ledgerAccountTypeId </text>
<text text-anchor="start" x="2221.22" y="-55.4" font-family="Arial" font-size="14.00" fill="#666666">[int unsigned]</text>
</g>
<!-- settlementWindowContent&#45;&gt;settlementModel -->
<g id="edge8" class="edge">
<title>settlementWindowContent:SettlementModelId&#45;&gt;settlementModel:settlementModelId</title>
<path fill="none" stroke="black" d="M1341.87,-404.39C1504.79,-403.98 1900.45,-393.64 2025.76,-306.8 2064.94,-279.65 2029.36,-212.6 2077.03,-212.6"/>
<polygon fill="black" stroke="black" points="1341.82,-404.39 1331.81,-399.9 1336.49,-404.39 1332.15,-404.4 1332.15,-404.4 1332.15,-404.4 1336.49,-404.39 1331.83,-408.9 1341.82,-404.39"/>
<text text-anchor="start" x="1338.49" y="-414.4" font-family="Arial" font-size="10.00">FOREIGN KEY (SettlementModelId) REFERENCES settlementModel (settlementModelId)</text>
</g>
<!-- settlementContentAggregation -->
<g id="node2" class="node">
<title>settlementContentAggregation</title>
<polygon fill="#efefef" stroke="none" points="985.04,-981.2 985.04,-1016.8 1344.48,-1016.8 1344.48,-981.2 985.04,-981.2"/>
<polygon fill="none" stroke="black" points="985.04,-981.2 985.04,-1016.8 1344.48,-1016.8 1344.48,-981.2 985.04,-981.2"/>
<text text-anchor="start" x="992.04" y="-994.6" font-family="Arial Bold" font-size="18.00">settlementContentAggregation</text>
<text text-anchor="start" x="1212.99" y="-994.6" font-family="Arial" font-size="14.00">    </text>
<text text-anchor="start" x="1244.11" y="-994.6" font-family="Arial" font-size="14.00" fill="#666666">[BASE TABLE]</text>
<polygon fill="none" stroke="black" points="985.04,-950.4 985.04,-981.2 1344.48,-981.2 1344.48,-950.4 985.04,-950.4"/>
<text text-anchor="start" x="992.04" y="-962.6" font-family="Arial" font-size="14.00">settlementContentAggregationId </text>
<text text-anchor="start" x="1196.73" y="-962.6" font-family="Arial" font-size="14.00" fill="#666666">[bigint unsigned]</text>
<polygon fill="none" stroke="black" points="985.04,-919.6 985.04,-950.4 1344.48,-950.4 1344.48,-919.6 985.04,-919.6"/>
<text text-anchor="start" x="992.04" y="-931.8" font-family="Arial" font-size="14.00">settlementWindowContentId </text>
<text text-anchor="start" x="1171.02" y="-931.8" font-family="Arial" font-size="14.00" fill="#666666">[bigint unsigned]</text>
<polygon fill="none" stroke="black" points="985.04,-888.8 985.04,-919.6 1344.48,-919.6 1344.48,-888.8 985.04,-888.8"/>
<text text-anchor="start" x="992.04" y="-901" font-family="Arial" font-size="14.00">participantCurrencyId </text>
<text text-anchor="start" x="1128.99" y="-901" font-family="Arial" font-size="14.00" fill="#666666">[int unsigned]</text>
<polygon fill="none" stroke="black" points="985.04,-858 985.04,-888.8 1344.48,-888.8 1344.48,-858 985.04,-858"/>
<text text-anchor="start" x="992.04" y="-870.2" font-family="Arial" font-size="14.00">transferParticipantRoleTypeId </text>
<text text-anchor="start" x="1181.13" y="-870.2" font-family="Arial" font-size="14.00" fill="#666666">[int unsigned]</text>
<polygon fill="none" stroke="black" points="985.04,-827.2 985.04,-858 1344.48,-858 1344.48,-827.2 985.04,-827.2"/>
<text text-anchor="start" x="992.04" y="-839.4" font-family="Arial" font-size="14.00">ledgerEntryTypeId </text>
<text text-anchor="start" x="1110.32" y="-839.4" font-family="Arial" font-size="14.00" fill="#666666">[int unsigned]</text>
<polygon fill="none" stroke="black" points="985.04,-796.4 985.04,-827.2 1344.48,-827.2 1344.48,-796.4 985.04,-796.4"/>
<text text-anchor="start" x="992.04" y="-808.6" font-family="Arial" font-size="14.00">currentStateId </text>
<text text-anchor="start" x="1083.87" y="-808.6" font-family="Arial" font-size="14.00" fill="#666666">[varchar(50)]</text>
<polygon fill="none" stroke="black" points="985.04,-765.6 985.04,-796.4 1344.48,-796.4 1344.48,-765.6 985.04,-765.6"/>
<text text-anchor="start" x="992.04" y="-777.8" font-family="Arial" font-size="14.00">settlementId </text>
<text text-anchor="start" x="1072.19" y="-777.8" font-family="Arial" font-size="14.00" fill="#666666">[bigint unsigned]</text>
</g>
<!-- settlementContentAggregation&#45;&gt;settlementWindowContent -->
<g id="edge1" class="edge">
<title>settlementContentAggregation:settlementWindowContentId&#45;&gt;settlementWindowContent:settlementWindowContentId</title>
<path fill="none" stroke="black" d="M1355.59,-934.48C1498.59,-919.64 1481.85,-589.2 1331.49,-589.2"/>
<polygon fill="black" stroke="black" points="1355.8,-934.47 1345.58,-930.49 1350.47,-934.75 1346.15,-934.97 1346.15,-934.97 1346.15,-934.97 1350.47,-934.75 1346.04,-939.48 1355.8,-934.47"/>
<text text-anchor="start" x="1352.48" y="-945" font-family="Arial" font-size="10.00">FOREIGN KEY (settlementWindowContentId) REFERENCES settlementWindowContent (settlementWindowContentId)</text>
</g>
<!-- settlementWindowContentStateChange&#45;&gt;settlementWindowContent -->
<g id="edge2" class="edge">
<title>settlementWindowContentStateChange:settlementWindowContentId&#45;&gt;settlementWindowContent:settlementWindowContentId</title>
<path fill="none" stroke="black" d="M552.17,-136.29C614.76,-145.52 549.28,-245.46 593.76,-306.8 722.42,-484.23 778.86,-589.2 998.03,-589.2"/>
<polygon fill="black" stroke="black" points="552.28,-136.3 542.61,-131.13 546.96,-135.94 542.64,-135.65 542.64,-135.65 542.64,-135.65 546.96,-135.94 542,-140.11 552.28,-136.3"/>
<text text-anchor="start" x="7" y="-145.6" font-family="Arial" font-size="10.00">FOREIGN KEY (settlementWindowContentId) REFERENCES settlementWindowContent (settlementWindowContentId)</text>
</g>
</g>
</svg>
