<?xml version="1.0" encoding="UTF-8" standalone="no"?>
<!DOCTYPE svg PUBLIC "-//W3C//DTD SVG 1.1//EN"
 "http://www.w3.org/Graphics/SVG/1.1/DTD/svg11.dtd">
<!-- Generated by graphviz version 12.1.2 (20240928.0832)
 -->
<!-- Title: settlementModel Pages: 1 -->
<svg width="1844pt" height="1253pt"
 viewBox="0.00 0.00 1843.83 1252.80" xmlns="http://www.w3.org/2000/svg" xmlns:xlink="http://www.w3.org/1999/xlink">
<g id="graph0" class="graph" transform="scale(1 1) rotate(0) translate(4 1248.8)">
<title>settlementModel</title>
<polygon fill="white" stroke="none" points="-4,4 -4,-1248.8 1839.83,-1248.8 1839.83,4 -4,4"/>
<!-- settlementModel -->
<g id="node1" class="node">
<title>settlementModel</title>
<polygon fill="#efefef" stroke="none" points="843.19,-758.6 843.19,-794.2 1102.65,-794.2 1102.65,-758.6 843.19,-758.6"/>
<polygon fill="none" stroke="black" points="843.19,-758.6 843.19,-794.2 1102.65,-794.2 1102.65,-758.6 843.19,-758.6"/>
<text text-anchor="start" x="850.19" y="-772" font-family="Arial Bold" font-size="18.00">settlementModel</text>
<text text-anchor="start" x="971.16" y="-772" font-family="Arial" font-size="14.00">    </text>
<text text-anchor="start" x="1002.28" y="-772" font-family="Arial" font-size="14.00" fill="#666666">[BASE TABLE]</text>
<polygon fill="none" stroke="black" points="843.19,-727.8 843.19,-758.6 1102.65,-758.6 1102.65,-727.8 843.19,-727.8"/>
<text text-anchor="start" x="850.19" y="-740" font-family="Arial" font-size="14.00">settlementModelId </text>
<text text-anchor="start" x="968.47" y="-740" font-family="Arial" font-size="14.00" fill="#666666">[int unsigned]</text>
<polygon fill="none" stroke="black" points="843.19,-697 843.19,-727.8 1102.65,-727.8 1102.65,-697 843.19,-697"/>
<text text-anchor="start" x="850.19" y="-709.2" font-family="Arial" font-size="14.00">name </text>
<text text-anchor="start" x="889.1" y="-709.2" font-family="Arial" font-size="14.00" fill="#666666">[varchar(50)]</text>
<polygon fill="none" stroke="black" points="843.19,-666.2 843.19,-697 1102.65,-697 1102.65,-666.2 843.19,-666.2"/>
<text text-anchor="start" x="850.19" y="-678.4" font-family="Arial" font-size="14.00">isActive </text>
<text text-anchor="start" x="902.31" y="-678.4" font-family="Arial" font-size="14.00" fill="#666666">[tinyint(1)]</text>
<polygon fill="none" stroke="black" points="843.19,-635.4 843.19,-666.2 1102.65,-666.2 1102.65,-635.4 843.19,-635.4"/>
<text text-anchor="start" x="850.19" y="-647.6" font-family="Arial" font-size="14.00">settlementGranularityId </text>
<text text-anchor="start" x="998.81" y="-647.6" font-family="Arial" font-size="14.00" fill="#666666">[int unsigned]</text>
<polygon fill="none" stroke="black" points="843.19,-604.6 843.19,-635.4 1102.65,-635.4 1102.65,-604.6 843.19,-604.6"/>
<text text-anchor="start" x="850.19" y="-616.8" font-family="Arial" font-size="14.00">settlementInterchangeId </text>
<text text-anchor="start" x="1004.28" y="-616.8" font-family="Arial" font-size="14.00" fill="#666666">[int unsigned]</text>
<polygon fill="none" stroke="black" points="843.19,-573.8 843.19,-604.6 1102.65,-604.6 1102.65,-573.8 843.19,-573.8"/>
<text text-anchor="start" x="850.19" y="-586" font-family="Arial" font-size="14.00">settlementDelayId </text>
<text text-anchor="start" x="966.13" y="-586" font-family="Arial" font-size="14.00" fill="#666666">[int unsigned]</text>
<polygon fill="none" stroke="black" points="843.19,-543 843.19,-573.8 1102.65,-573.8 1102.65,-543 843.19,-543"/>
<text text-anchor="start" x="850.19" y="-555.2" font-family="Arial" font-size="14.00">currencyId </text>
<text text-anchor="start" x="919.43" y="-555.2" font-family="Arial" font-size="14.00" fill="#666666">[varchar(3)]</text>
<polygon fill="none" stroke="black" points="843.19,-512.2 843.19,-543 1102.65,-543 1102.65,-512.2 843.19,-512.2"/>
<text text-anchor="start" x="850.19" y="-524.4" font-family="Arial" font-size="14.00">requireLiquidityCheck </text>
<text text-anchor="start" x="988.7" y="-524.4" font-family="Arial" font-size="14.00" fill="#666666">[tinyint(1)]</text>
<polygon fill="none" stroke="black" points="843.19,-481.4 843.19,-512.2 1102.65,-512.2 1102.65,-481.4 843.19,-481.4"/>
<text text-anchor="start" x="850.19" y="-493.6" font-family="Arial" font-size="14.00">ledgerAccountTypeId </text>
<text text-anchor="start" x="986.38" y="-493.6" font-family="Arial" font-size="14.00" fill="#666666">[int unsigned]</text>
<polygon fill="none" stroke="black" points="843.19,-450.6 843.19,-481.4 1102.65,-481.4 1102.65,-450.6 843.19,-450.6"/>
<text text-anchor="start" x="850.19" y="-462.8" font-family="Arial" font-size="14.00">autoPositionReset </text>
<text text-anchor="start" x="967.7" y="-462.8" font-family="Arial" font-size="14.00" fill="#666666">[tinyint(1)]</text>
<polygon fill="none" stroke="black" points="843.19,-419.8 843.19,-450.6 1102.65,-450.6 1102.65,-419.8 843.19,-419.8"/>
<text text-anchor="start" x="850.19" y="-432" font-family="Arial" font-size="14.00">adjustPosition </text>
<text text-anchor="start" x="941.24" y="-432" font-family="Arial" font-size="14.00" fill="#666666">[tinyint(1)]</text>
<polygon fill="none" stroke="black" points="843.19,-389 843.19,-419.8 1102.65,-419.8 1102.65,-389 843.19,-389"/>
<text text-anchor="start" x="850.19" y="-401.2" font-family="Arial" font-size="14.00">settlementAccountTypeId </text>
<text text-anchor="start" x="1012.05" y="-401.2" font-family="Arial" font-size="14.00" fill="#666666">[int]</text>
<polygon fill="none" stroke="black" stroke-width="3" points="841.69,-387.5 841.69,-795.7 1104.15,-795.7 1104.15,-387.5 841.69,-387.5"/>
</g>
<!-- settlementGranularity -->
<g id="node4" class="node">
<title>settlementGranularity</title>
<polygon fill="#efefef" stroke="none" points="43.2,-212.6 43.2,-248.2 338.64,-248.2 338.64,-212.6 43.2,-212.6"/>
<polygon fill="none" stroke="black" points="43.2,-212.6 43.2,-248.2 338.64,-248.2 338.64,-212.6 43.2,-212.6"/>
<text text-anchor="start" x="50.2" y="-226" font-family="Arial Bold" font-size="18.00">settlementGranularity</text>
<text text-anchor="start" x="207.15" y="-226" font-family="Arial" font-size="14.00">    </text>
<text text-anchor="start" x="238.26" y="-226" font-family="Arial" font-size="14.00" fill="#666666">[BASE TABLE]</text>
<polygon fill="none" stroke="black" points="43.2,-181.8 43.2,-212.6 338.64,-212.6 338.64,-181.8 43.2,-181.8"/>
<text text-anchor="start" x="50.2" y="-194" font-family="Arial" font-size="14.00">settlementGranularityId </text>
<text text-anchor="start" x="198.82" y="-194" font-family="Arial" font-size="14.00" fill="#666666">[int unsigned]</text>
<polygon fill="none" stroke="black" points="43.2,-151 43.2,-181.8 338.64,-181.8 338.64,-151 43.2,-151"/>
<text text-anchor="start" x="50.2" y="-163.2" font-family="Arial" font-size="14.00">name </text>
<text text-anchor="start" x="89.11" y="-163.2" font-family="Arial" font-size="14.00" fill="#666666">[varchar(50)]</text>
<polygon fill="none" stroke="black" points="43.2,-120.2 43.2,-151 338.64,-151 338.64,-120.2 43.2,-120.2"/>
<text text-anchor="start" x="50.2" y="-132.4" font-family="Arial" font-size="14.00">description </text>
<text text-anchor="start" x="121.79" y="-132.4" font-family="Arial" font-size="14.00" fill="#666666">[varchar(512)]</text>
<polygon fill="none" stroke="black" points="43.2,-89.4 43.2,-120.2 338.64,-120.2 338.64,-89.4 43.2,-89.4"/>
<text text-anchor="start" x="50.2" y="-101.6" font-family="Arial" font-size="14.00">isActive </text>
<text text-anchor="start" x="102.32" y="-101.6" font-family="Arial" font-size="14.00" fill="#666666">[tinyint(1)]</text>
<polygon fill="none" stroke="black" points="43.2,-58.6 43.2,-89.4 338.64,-89.4 338.64,-58.6 43.2,-58.6"/>
<text text-anchor="start" x="50.2" y="-70.8" font-family="Arial" font-size="14.00">createdDate </text>
<text text-anchor="start" x="130.36" y="-70.8" font-family="Arial" font-size="14.00" fill="#666666">[datetime]</text>
</g>
<!-- settlementModel&#45;&gt;settlementGranularity -->
<g id="edge3" class="edge">
<title>settlementModel:settlementGranularityId&#45;&gt;settlementGranularity:settlementGranularityId</title>
<path fill="none" stroke="black" d="M831.96,-650.72C588.86,-646.75 547.05,-500.44 390.92,-306.8 357.16,-264.93 393.42,-197.2 339.64,-197.2"/>
<polygon fill="black" stroke="black" points="831.85,-650.72 841.82,-655.3 837.19,-650.76 841.52,-650.79 841.52,-650.79 841.52,-650.79 837.19,-650.76 841.89,-646.3 831.85,-650.72"/>
<text text-anchor="start" x="372.27" y="-660.8" font-family="Arial" font-size="10.00">FOREIGN KEY (settlementGranularityId) REFERENCES settlementGranularity (settlementGranularityId)</text>
</g>
<!-- settlementInterchange -->
<g id="node5" class="node">
<title>settlementInterchange</title>
<polygon fill="#efefef" stroke="none" points="443.21,-212.6 443.21,-248.2 740.62,-248.2 740.62,-212.6 443.21,-212.6"/>
<polygon fill="none" stroke="black" points="443.21,-212.6 443.21,-248.2 740.62,-248.2 740.62,-212.6 443.21,-212.6"/>
<text text-anchor="start" x="450.21" y="-226" font-family="Arial Bold" font-size="18.00">settlementInterchange</text>
<text text-anchor="start" x="609.14" y="-226" font-family="Arial" font-size="14.00">    </text>
<text text-anchor="start" x="640.25" y="-226" font-family="Arial" font-size="14.00" fill="#666666">[BASE TABLE]</text>
<polygon fill="none" stroke="black" points="443.21,-181.8 443.21,-212.6 740.62,-212.6 740.62,-181.8 443.21,-181.8"/>
<text text-anchor="start" x="450.21" y="-194" font-family="Arial" font-size="14.00">settlementInterchangeId </text>
<text text-anchor="start" x="604.31" y="-194" font-family="Arial" font-size="14.00" fill="#666666">[int unsigned]</text>
<polygon fill="none" stroke="black" points="443.21,-151 443.21,-181.8 740.62,-181.8 740.62,-151 443.21,-151"/>
<text text-anchor="start" x="450.21" y="-163.2" font-family="Arial" font-size="14.00">name </text>
<text text-anchor="start" x="489.12" y="-163.2" font-family="Arial" font-size="14.00" fill="#666666">[varchar(50)]</text>
<polygon fill="none" stroke="black" points="443.21,-120.2 443.21,-151 740.62,-151 740.62,-120.2 443.21,-120.2"/>
<text text-anchor="start" x="450.21" y="-132.4" font-family="Arial" font-size="14.00">description </text>
<text text-anchor="start" x="521.8" y="-132.4" font-family="Arial" font-size="14.00" fill="#666666">[varchar(512)]</text>
<polygon fill="none" stroke="black" points="443.21,-89.4 443.21,-120.2 740.62,-120.2 740.62,-89.4 443.21,-89.4"/>
<text text-anchor="start" x="450.21" y="-101.6" font-family="Arial" font-size="14.00">isActive </text>
<text text-anchor="start" x="502.34" y="-101.6" font-family="Arial" font-size="14.00" fill="#666666">[tinyint(1)]</text>
<polygon fill="none" stroke="black" points="443.21,-58.6 443.21,-89.4 740.62,-89.4 740.62,-58.6 443.21,-58.6"/>
<text text-anchor="start" x="450.21" y="-70.8" font-family="Arial" font-size="14.00">createdDate </text>
<text text-anchor="start" x="530.37" y="-70.8" font-family="Arial" font-size="14.00" fill="#666666">[datetime]</text>
</g>
<!-- settlementModel&#45;&gt;settlementInterchange -->
<g id="edge4" class="edge">
<title>settlementModel:settlementInterchangeId&#45;&gt;settlementInterchange:settlementInterchangeId</title>
<path fill="none" stroke="black" d="M832.2,-618.3C752.22,-589.2 834.62,-197.2 741.62,-197.2"/>
<polygon fill="black" stroke="black" points="832,-618.26 841.1,-624.38 837.26,-619.16 841.53,-619.89 841.53,-619.89 841.53,-619.89 837.26,-619.16 842.61,-615.51 832,-618.26"/>
<text text-anchor="start" x="360.53" y="-630" font-family="Arial" font-size="10.00">FOREIGN KEY (settlementInterchangeId) REFERENCES settlementInterchange (settlementInterchangeId)</text>
</g>
<!-- settlementDelay -->
<g id="node6" class="node">
<title>settlementDelay</title>
<polygon fill="#efefef" stroke="none" points="845.2,-212.6 845.2,-248.2 1100.64,-248.2 1100.64,-212.6 845.2,-212.6"/>
<polygon fill="none" stroke="black" points="845.2,-212.6 845.2,-248.2 1100.64,-248.2 1100.64,-212.6 845.2,-212.6"/>
<text text-anchor="start" x="852.2" y="-226" font-family="Arial Bold" font-size="18.00">settlementDelay</text>
<text text-anchor="start" x="969.15" y="-226" font-family="Arial" font-size="14.00">    </text>
<text text-anchor="start" x="1000.27" y="-226" font-family="Arial" font-size="14.00" fill="#666666">[BASE TABLE]</text>
<polygon fill="none" stroke="black" points="845.2,-181.8 845.2,-212.6 1100.64,-212.6 1100.64,-181.8 845.2,-181.8"/>
<text text-anchor="start" x="852.2" y="-194" font-family="Arial" font-size="14.00">settlementDelayId </text>
<text text-anchor="start" x="968.14" y="-194" font-family="Arial" font-size="14.00" fill="#666666">[int unsigned]</text>
<polygon fill="none" stroke="black" points="845.2,-151 845.2,-181.8 1100.64,-181.8 1100.64,-151 845.2,-151"/>
<text text-anchor="start" x="852.2" y="-163.2" font-family="Arial" font-size="14.00">name </text>
<text text-anchor="start" x="891.11" y="-163.2" font-family="Arial" font-size="14.00" fill="#666666">[varchar(50)]</text>
<polygon fill="none" stroke="black" points="845.2,-120.2 845.2,-151 1100.64,-151 1100.64,-120.2 845.2,-120.2"/>
<text text-anchor="start" x="852.2" y="-132.4" font-family="Arial" font-size="14.00">description </text>
<text text-anchor="start" x="923.79" y="-132.4" font-family="Arial" font-size="14.00" fill="#666666">[varchar(512)]</text>
<polygon fill="none" stroke="black" points="845.2,-89.4 845.2,-120.2 1100.64,-120.2 1100.64,-89.4 845.2,-89.4"/>
<text text-anchor="start" x="852.2" y="-101.6" font-family="Arial" font-size="14.00">isActive </text>
<text text-anchor="start" x="904.32" y="-101.6" font-family="Arial" font-size="14.00" fill="#666666">[tinyint(1)]</text>
<polygon fill="none" stroke="black" points="845.2,-58.6 845.2,-89.4 1100.64,-89.4 1100.64,-58.6 845.2,-58.6"/>
<text text-anchor="start" x="852.2" y="-70.8" font-family="Arial" font-size="14.00">createdDate </text>
<text text-anchor="start" x="932.35" y="-70.8" font-family="Arial" font-size="14.00" fill="#666666">[datetime]</text>
</g>
<!-- settlementModel&#45;&gt;settlementDelay -->
<g id="edge5" class="edge">
<title>settlementModel:settlementDelayId&#45;&gt;settlementDelay:settlementDelayId</title>
<path fill="none" stroke="black" d="M1112.16,-583.66C1146.72,-536.01 1142.13,-197.2 1101.64,-197.2"/>
<polygon fill="black" stroke="black" points="1112.31,-583.56 1101.47,-585.25 1107.84,-586.47 1104.21,-588.84 1104.21,-588.84 1104.21,-588.84 1107.84,-586.47 1106.38,-592.79 1112.31,-583.56"/>
<text text-anchor="start" x="1110.65" y="-599.2" font-family="Arial" font-size="10.00">FOREIGN KEY (settlementDelayId) REFERENCES settlementDelay (settlementDelayId)</text>
</g>
<!-- currency -->
<g id="node7" class="node">
<title>currency</title>
<polygon fill="#efefef" stroke="none" points="1205.2,-212.6 1205.2,-248.2 1406.64,-248.2 1406.64,-212.6 1205.2,-212.6"/>
<polygon fill="none" stroke="black" points="1205.2,-212.6 1205.2,-248.2 1406.64,-248.2 1406.64,-212.6 1205.2,-212.6"/>
<text text-anchor="start" x="1212.2" y="-226" font-family="Arial Bold" font-size="18.00">currency</text>
<text text-anchor="start" x="1275.15" y="-226" font-family="Arial" font-size="14.00">    </text>
<text text-anchor="start" x="1306.27" y="-226" font-family="Arial" font-size="14.00" fill="#666666">[BASE TABLE]</text>
<polygon fill="none" stroke="black" points="1205.2,-181.8 1205.2,-212.6 1406.64,-212.6 1406.64,-181.8 1205.2,-181.8"/>
<text text-anchor="start" x="1212.2" y="-194" font-family="Arial" font-size="14.00">currencyId </text>
<text text-anchor="start" x="1281.44" y="-194" font-family="Arial" font-size="14.00" fill="#666666">[varchar(3)]</text>
<polygon fill="none" stroke="black" points="1205.2,-151 1205.2,-181.8 1406.64,-181.8 1406.64,-151 1205.2,-151"/>
<text text-anchor="start" x="1212.2" y="-163.2" font-family="Arial" font-size="14.00">name </text>
<text text-anchor="start" x="1251.11" y="-163.2" font-family="Arial" font-size="14.00" fill="#666666">[varchar(128)]</text>
<polygon fill="none" stroke="black" points="1205.2,-120.2 1205.2,-151 1406.64,-151 1406.64,-120.2 1205.2,-120.2"/>
<text text-anchor="start" x="1212.2" y="-132.4" font-family="Arial" font-size="14.00">isActive </text>
<text text-anchor="start" x="1264.32" y="-132.4" font-family="Arial" font-size="14.00" fill="#666666">[tinyint(1)]</text>
<polygon fill="none" stroke="black" points="1205.2,-89.4 1205.2,-120.2 1406.64,-120.2 1406.64,-89.4 1205.2,-89.4"/>
<text text-anchor="start" x="1212.2" y="-101.6" font-family="Arial" font-size="14.00">createdDate </text>
<text text-anchor="start" x="1292.35" y="-101.6" font-family="Arial" font-size="14.00" fill="#666666">[datetime]</text>
<polygon fill="none" stroke="black" points="1205.2,-58.6 1205.2,-89.4 1406.64,-89.4 1406.64,-58.6 1205.2,-58.6"/>
<text text-anchor="start" x="1212.2" y="-70.8" font-family="Arial" font-size="14.00">scale </text>
<text text-anchor="start" x="1248.77" y="-70.8" font-family="Arial" font-size="14.00" fill="#666666">[int unsigned]</text>
</g>
<!-- settlementModel&#45;&gt;currency -->
<g id="edge6" class="edge">
<title>settlementModel:currencyId&#45;&gt;currency:currencyId</title>
<path fill="none" stroke="black" d="M1113.59,-556.46C1181.56,-528.03 1124.46,-197.2 1204.2,-197.2"/>
<polygon fill="black" stroke="black" points="1113.79,-556.42 1103.11,-553.92 1108.56,-557.44 1104.31,-558.27 1104.31,-558.27 1104.31,-558.27 1108.56,-557.44 1104.84,-562.75 1113.79,-556.42"/>
<text text-anchor="start" x="1110.65" y="-568.4" font-family="Arial" font-size="10.00">FOREIGN KEY (currencyId) REFERENCES currency (currencyId)</text>
</g>
<!-- ledgerAccountType -->
<g id="node8" class="node">
<title>ledgerAccountType</title>
<polygon fill="#efefef" stroke="none" points="1511.2,-228 1511.2,-263.6 1792.63,-263.6 1792.63,-228 1511.2,-228"/>
<polygon fill="none" stroke="black" points="1511.2,-228 1511.2,-263.6 1792.63,-263.6 1792.63,-228 1511.2,-228"/>
<text text-anchor="start" x="1518.2" y="-241.4" font-family="Arial Bold" font-size="18.00">ledgerAccountType</text>
<text text-anchor="start" x="1661.14" y="-241.4" font-family="Arial" font-size="14.00">    </text>
<text text-anchor="start" x="1692.26" y="-241.4" font-family="Arial" font-size="14.00" fill="#666666">[BASE TABLE]</text>
<polygon fill="none" stroke="black" points="1511.2,-197.2 1511.2,-228 1792.63,-228 1792.63,-197.2 1511.2,-197.2"/>
<text text-anchor="start" x="1518.2" y="-209.4" font-family="Arial" font-size="14.00">ledgerAccountTypeId </text>
<text text-anchor="start" x="1654.4" y="-209.4" font-family="Arial" font-size="14.00" fill="#666666">[int unsigned]</text>
<polygon fill="none" stroke="black" points="1511.2,-166.4 1511.2,-197.2 1792.63,-197.2 1792.63,-166.4 1511.2,-166.4"/>
<text text-anchor="start" x="1518.2" y="-178.6" font-family="Arial" font-size="14.00">name </text>
<text text-anchor="start" x="1557.12" y="-178.6" font-family="Arial" font-size="14.00" fill="#666666">[varchar(50)]</text>
<polygon fill="none" stroke="black" points="1511.2,-135.6 1511.2,-166.4 1792.63,-166.4 1792.63,-135.6 1511.2,-135.6"/>
<text text-anchor="start" x="1518.2" y="-147.8" font-family="Arial" font-size="14.00">description </text>
<text text-anchor="start" x="1589.8" y="-147.8" font-family="Arial" font-size="14.00" fill="#666666">[varchar(512)]</text>
<polygon fill="none" stroke="black" points="1511.2,-104.8 1511.2,-135.6 1792.63,-135.6 1792.63,-104.8 1511.2,-104.8"/>
<text text-anchor="start" x="1518.2" y="-117" font-family="Arial" font-size="14.00">isActive </text>
<text text-anchor="start" x="1570.33" y="-117" font-family="Arial" font-size="14.00" fill="#666666">[tinyint(1)]</text>
<polygon fill="none" stroke="black" points="1511.2,-74 1511.2,-104.8 1792.63,-104.8 1792.63,-74 1511.2,-74"/>
<text text-anchor="start" x="1518.2" y="-86.2" font-family="Arial" font-size="14.00">createdDate </text>
<text text-anchor="start" x="1598.36" y="-86.2" font-family="Arial" font-size="14.00" fill="#666666">[datetime]</text>
<polygon fill="none" stroke="black" points="1511.2,-43.2 1511.2,-74 1792.63,-74 1792.63,-43.2 1511.2,-43.2"/>
<text text-anchor="start" x="1518.2" y="-55.4" font-family="Arial" font-size="14.00">isSettleable </text>
<text text-anchor="start" x="1594.47" y="-55.4" font-family="Arial" font-size="14.00" fill="#666666">[tinyint(1)]</text>
</g>
<!-- settlementModel&#45;&gt;ledgerAccountType -->
<g id="edge7" class="edge">
<title>settlementModel:ledgerAccountTypeId&#45;&gt;ledgerAccountType:ledgerAccountTypeId</title>
<path fill="none" stroke="black" d="M1113.99,-496.73C1284.66,-494.28 1334.31,-430.48 1458.92,-306.8 1492.75,-273.22 1462.54,-212.6 1510.2,-212.6"/>
<polygon fill="black" stroke="black" points="1113.98,-496.73 1103.95,-492.3 1108.65,-496.76 1104.32,-496.8 1104.32,-496.8 1104.32,-496.8 1108.65,-496.76 1104.02,-501.3 1113.98,-496.73"/>
<text text-anchor="start" x="1110.65" y="-506.8" font-family="Arial" font-size="10.00">FOREIGN KEY (ledgerAccountTypeId) REFERENCES ledgerAccountType (ledgerAccountTypeId)</text>
</g>
<!-- settlement -->
<g id="node2" class="node">
<title>settlement</title>
<polygon fill="#efefef" stroke="none" points="645.5,-1119.8 645.5,-1155.4 902.33,-1155.4 902.33,-1119.8 645.5,-1119.8"/>
<polygon fill="none" stroke="black" points="645.5,-1119.8 645.5,-1155.4 902.33,-1155.4 902.33,-1119.8 645.5,-1119.8"/>
<text text-anchor="start" x="674.68" y="-1133.2" font-family="Arial Bold" font-size="18.00">settlement</text>
<text text-anchor="start" x="748.66" y="-1133.2" font-family="Arial" font-size="14.00">    </text>
<text text-anchor="start" x="779.78" y="-1133.2" font-family="Arial" font-size="14.00" fill="#666666">[BASE TABLE]</text>
<polygon fill="none" stroke="black" points="645.5,-1089 645.5,-1119.8 902.33,-1119.8 902.33,-1089 645.5,-1089"/>
<text text-anchor="start" x="652.5" y="-1101.2" font-family="Arial" font-size="14.00">settlementId </text>
<text text-anchor="start" x="732.65" y="-1101.2" font-family="Arial" font-size="14.00" fill="#666666">[bigint unsigned]</text>
<polygon fill="none" stroke="black" points="645.5,-1058.2 645.5,-1089 902.33,-1089 902.33,-1058.2 645.5,-1058.2"/>
<text text-anchor="start" x="652.5" y="-1070.4" font-family="Arial" font-size="14.00">reason </text>
<text text-anchor="start" x="699.2" y="-1070.4" font-family="Arial" font-size="14.00" fill="#666666">[varchar(512)]</text>
<polygon fill="none" stroke="black" points="645.5,-1027.4 645.5,-1058.2 902.33,-1058.2 902.33,-1027.4 645.5,-1027.4"/>
<text text-anchor="start" x="652.5" y="-1039.6" font-family="Arial" font-size="14.00">createdDate </text>
<text text-anchor="start" x="732.66" y="-1039.6" font-family="Arial" font-size="14.00" fill="#666666">[datetime]</text>
<polygon fill="none" stroke="black" points="645.5,-996.6 645.5,-1027.4 902.33,-1027.4 902.33,-996.6 645.5,-996.6"/>
<text text-anchor="start" x="652.5" y="-1008.8" font-family="Arial" font-size="14.00">currentStateChangeId </text>
<text text-anchor="start" x="793.37" y="-1008.8" font-family="Arial" font-size="14.00" fill="#666666">[bigint unsigned]</text>
<polygon fill="none" stroke="black" points="645.5,-965.8 645.5,-996.6 902.33,-996.6 902.33,-965.8 645.5,-965.8"/>
<text text-anchor="start" x="652.5" y="-978" font-family="Arial" font-size="14.00">settlementModelId </text>
<text text-anchor="start" x="770.78" y="-978" font-family="Arial" font-size="14.00" fill="#666666">[int unsigned]</text>
</g>
<!-- settlement&#45;&gt;settlementModel -->
<g id="edge1" class="edge">
<title>settlement:settlementModelId&#45;&gt;settlementModel:settlementModelId</title>
<path fill="none" stroke="black" d="M913.07,-978.42C923.22,-969.83 909.13,-943.07 902.33,-922.6 888.16,-879.88 857.22,-883.17 843.19,-840.4 829.72,-799.35 798.98,-743.2 842.19,-743.2"/>
<polygon fill="black" stroke="black" points="913.27,-978.36 902.42,-976.78 908.14,-979.83 903.98,-981.02 903.98,-981.02 903.98,-981.02 908.14,-979.83 904.89,-985.43 913.27,-978.36"/>
<text text-anchor="start" x="498.42" y="-991.2" font-family="Arial" font-size="10.00">FOREIGN KEY (settlementModelId) REFERENCES settlementModel (settlementModelId)</text>
</g>
<!-- settlementWindowContent -->
<g id="node3" class="node">
<title>settlementWindowContent</title>
<polygon fill="#efefef" stroke="none" points="1007.19,-1166 1007.19,-1201.6 1338.64,-1201.6 1338.64,-1166 1007.19,-1166"/>
<polygon fill="none" stroke="black" points="1007.19,-1166 1007.19,-1201.6 1338.64,-1201.6 1338.64,-1166 1007.19,-1166"/>
<text text-anchor="start" x="1014.19" y="-1179.4" font-family="Arial Bold" font-size="18.00">settlementWindowContent</text>
<text text-anchor="start" x="1207.16" y="-1179.4" font-family="Arial" font-size="14.00">    </text>
<text text-anchor="start" x="1238.27" y="-1179.4" font-family="Arial" font-size="14.00" fill="#666666">[BASE TABLE]</text>
<polygon fill="none" stroke="black" points="1007.19,-1135.2 1007.19,-1166 1338.64,-1166 1338.64,-1135.2 1007.19,-1135.2"/>
<text text-anchor="start" x="1014.19" y="-1147.4" font-family="Arial" font-size="14.00">settlementWindowContentId </text>
<text text-anchor="start" x="1193.17" y="-1147.4" font-family="Arial" font-size="14.00" fill="#666666">[bigint unsigned]</text>
<polygon fill="none" stroke="black" points="1007.19,-1104.4 1007.19,-1135.2 1338.64,-1135.2 1338.64,-1104.4 1007.19,-1104.4"/>
<text text-anchor="start" x="1014.19" y="-1116.6" font-family="Arial" font-size="14.00">settlementWindowId </text>
<text text-anchor="start" x="1144.14" y="-1116.6" font-family="Arial" font-size="14.00" fill="#666666">[bigint unsigned]</text>
<polygon fill="none" stroke="black" points="1007.19,-1073.6 1007.19,-1104.4 1338.64,-1104.4 1338.64,-1073.6 1007.19,-1073.6"/>
<text text-anchor="start" x="1014.19" y="-1085.8" font-family="Arial" font-size="14.00">ledgerAccountTypeId </text>
<text text-anchor="start" x="1150.38" y="-1085.8" font-family="Arial" font-size="14.00" fill="#666666">[int unsigned]</text>
<polygon fill="none" stroke="black" points="1007.19,-1042.8 1007.19,-1073.6 1338.64,-1073.6 1338.64,-1042.8 1007.19,-1042.8"/>
<text text-anchor="start" x="1014.19" y="-1055" font-family="Arial" font-size="14.00">currencyId </text>
<text text-anchor="start" x="1083.44" y="-1055" font-family="Arial" font-size="14.00" fill="#666666">[varchar(3)]</text>
<polygon fill="none" stroke="black" points="1007.19,-1012 1007.19,-1042.8 1338.64,-1042.8 1338.64,-1012 1007.19,-1012"/>
<text text-anchor="start" x="1014.19" y="-1024.2" font-family="Arial" font-size="14.00">createdDate </text>
<text text-anchor="start" x="1094.35" y="-1024.2" font-family="Arial" font-size="14.00" fill="#666666">[datetime]</text>
<polygon fill="none" stroke="black" points="1007.19,-981.2 1007.19,-1012 1338.64,-1012 1338.64,-981.2 1007.19,-981.2"/>
<text text-anchor="start" x="1014.19" y="-993.4" font-family="Arial" font-size="14.00">currentStateChangeId </text>
<text text-anchor="start" x="1155.06" y="-993.4" font-family="Arial" font-size="14.00" fill="#666666">[bigint unsigned]</text>
<polygon fill="none" stroke="black" points="1007.19,-950.4 1007.19,-981.2 1338.64,-981.2 1338.64,-950.4 1007.19,-950.4"/>
<text text-anchor="start" x="1014.19" y="-962.6" font-family="Arial" font-size="14.00">settlementId </text>
<text text-anchor="start" x="1094.34" y="-962.6" font-family="Arial" font-size="14.00" fill="#666666">[bigint unsigned]</text>
<polygon fill="none" stroke="black" points="1007.19,-919.6 1007.19,-950.4 1338.64,-950.4 1338.64,-919.6 1007.19,-919.6"/>
<text text-anchor="start" x="1014.19" y="-931.8" font-family="Arial" font-size="14.00">SettlementModelId </text>
<text text-anchor="start" x="1134.81" y="-931.8" font-family="Arial" font-size="14.00" fill="#666666">[int unsigned]</text>
</g>
<!-- settlementWindowContent&#45;&gt;settlementModel -->
<g id="edge2" class="edge">
<title>settlementWindowContent:SettlementModelId&#45;&gt;settlementModel:settlementModelId</title>
<path fill="none" stroke="black" d="M996.29,-932.22C984.18,-923.19 994.65,-894.2 1007.19,-876.4 1033.3,-839.33 1076.67,-877.56 1102.65,-840.4 1127.41,-804.99 1146.85,-743.2 1103.65,-743.2"/>
<polygon fill="black" stroke="black" points="996.24,-932.21 1004.65,-939.24 1001.38,-933.65 1005.55,-934.82 1005.55,-934.82 1005.55,-934.82 1001.38,-933.65 1007.08,-930.58 996.24,-932.21"/>
<text text-anchor="start" x="703.01" y="-919" font-family="Arial" font-size="10.00">FOREIGN KEY (SettlementModelId) REFERENCES settlementModel (settlementModelId)</text>
</g>
</g>
</svg>
