<?xml version="1.0" encoding="UTF-8" standalone="no"?>
<!DOCTYPE svg PUBLIC "-//W3C//DTD SVG 1.1//EN"
 "http://www.w3.org/Graphics/SVG/1.1/DTD/svg11.dtd">
<!-- Generated by graphviz version 12.1.2 (20240928.0832)
 -->
<!-- Title: settlementGranularity Pages: 1 -->
<svg width="810pt" height="818pt"
 viewBox="0.00 0.00 809.57 817.60" xmlns="http://www.w3.org/2000/svg" xmlns:xlink="http://www.w3.org/1999/xlink">
<g id="graph0" class="graph" transform="scale(1 1) rotate(0) translate(4 813.6)">
<title>settlementGranularity</title>
<polygon fill="white" stroke="none" points="-4,4 -4,-813.6 805.57,-813.6 805.57,4 -4,4"/>
<!-- settlementGranularity -->
<g id="node1" class="node">
<title>settlementGranularity</title>
<polygon fill="#efefef" stroke="none" points="46.2,-200.2 46.2,-235.8 341.64,-235.8 341.64,-200.2 46.2,-200.2"/>
<polygon fill="none" stroke="black" points="46.2,-200.2 46.2,-235.8 341.64,-235.8 341.64,-200.2 46.2,-200.2"/>
<text text-anchor="start" x="53.2" y="-213.6" font-family="Arial Bold" font-size="18.00">settlementGranularity</text>
<text text-anchor="start" x="210.15" y="-213.6" font-family="Arial" font-size="14.00">    </text>
<text text-anchor="start" x="241.26" y="-213.6" font-family="Arial" font-size="14.00" fill="#666666">[BASE TABLE]</text>
<polygon fill="none" stroke="black" points="46.2,-169.4 46.2,-200.2 341.64,-200.2 341.64,-169.4 46.2,-169.4"/>
<text text-anchor="start" x="53.2" y="-181.6" font-family="Arial" font-size="14.00">settlementGranularityId </text>
<text text-anchor="start" x="201.82" y="-181.6" font-family="Arial" font-size="14.00" fill="#666666">[int unsigned]</text>
<polygon fill="none" stroke="black" points="46.2,-138.6 46.2,-169.4 341.64,-169.4 341.64,-138.6 46.2,-138.6"/>
<text text-anchor="start" x="53.2" y="-150.8" font-family="Arial" font-size="14.00">name </text>
<text text-anchor="start" x="92.11" y="-150.8" font-family="Arial" font-size="14.00" fill="#666666">[varchar(50)]</text>
<polygon fill="none" stroke="black" points="46.2,-107.8 46.2,-138.6 341.64,-138.6 341.64,-107.8 46.2,-107.8"/>
<text text-anchor="start" x="53.2" y="-120" font-family="Arial" font-size="14.00">description </text>
<text text-anchor="start" x="124.79" y="-120" font-family="Arial" font-size="14.00" fill="#666666">[varchar(512)]</text>
<polygon fill="none" stroke="black" points="46.2,-77 46.2,-107.8 341.64,-107.8 341.64,-77 46.2,-77"/>
<text text-anchor="start" x="53.2" y="-89.2" font-family="Arial" font-size="14.00">isActive </text>
<text text-anchor="start" x="105.32" y="-89.2" font-family="Arial" font-size="14.00" fill="#666666">[tinyint(1)]</text>
<polygon fill="none" stroke="black" points="46.2,-46.2 46.2,-77 341.64,-77 341.64,-46.2 46.2,-46.2"/>
<text text-anchor="start" x="53.2" y="-58.4" font-family="Arial" font-size="14.00">createdDate </text>
<text text-anchor="start" x="133.36" y="-58.4" font-family="Arial" font-size="14.00" fill="#666666">[datetime]</text>
<polygon fill="none" stroke="black" stroke-width="3" points="44.7,-44.7 44.7,-237.3 343.14,-237.3 343.14,-44.7 44.7,-44.7"/>
</g>
<!-- settlementModel -->
<g id="node2" class="node">
<title>settlementModel</title>
<polygon fill="#efefef" stroke="none" points="64.19,-730.8 64.19,-766.4 323.65,-766.4 323.65,-730.8 64.19,-730.8"/>
<polygon fill="none" stroke="black" points="64.19,-730.8 64.19,-766.4 323.65,-766.4 323.65,-730.8 64.19,-730.8"/>
<text text-anchor="start" x="71.19" y="-744.2" font-family="Arial Bold" font-size="18.00">settlementModel</text>
<text text-anchor="start" x="192.16" y="-744.2" font-family="Arial" font-size="14.00">    </text>
<text text-anchor="start" x="223.28" y="-744.2" font-family="Arial" font-size="14.00" fill="#666666">[BASE TABLE]</text>
<polygon fill="none" stroke="black" points="64.19,-700 64.19,-730.8 323.65,-730.8 323.65,-700 64.19,-700"/>
<text text-anchor="start" x="71.19" y="-712.2" font-family="Arial" font-size="14.00">settlementModelId </text>
<text text-anchor="start" x="189.47" y="-712.2" font-family="Arial" font-size="14.00" fill="#666666">[int unsigned]</text>
<polygon fill="none" stroke="black" points="64.19,-669.2 64.19,-700 323.65,-700 323.65,-669.2 64.19,-669.2"/>
<text text-anchor="start" x="71.19" y="-681.4" font-family="Arial" font-size="14.00">name </text>
<text text-anchor="start" x="110.1" y="-681.4" font-family="Arial" font-size="14.00" fill="#666666">[varchar(50)]</text>
<polygon fill="none" stroke="black" points="64.19,-638.4 64.19,-669.2 323.65,-669.2 323.65,-638.4 64.19,-638.4"/>
<text text-anchor="start" x="71.19" y="-650.6" font-family="Arial" font-size="14.00">isActive </text>
<text text-anchor="start" x="123.31" y="-650.6" font-family="Arial" font-size="14.00" fill="#666666">[tinyint(1)]</text>
<polygon fill="none" stroke="black" points="64.19,-607.6 64.19,-638.4 323.65,-638.4 323.65,-607.6 64.19,-607.6"/>
<text text-anchor="start" x="71.19" y="-619.8" font-family="Arial" font-size="14.00">settlementGranularityId </text>
<text text-anchor="start" x="219.81" y="-619.8" font-family="Arial" font-size="14.00" fill="#666666">[int unsigned]</text>
<polygon fill="none" stroke="black" points="64.19,-576.8 64.19,-607.6 323.65,-607.6 323.65,-576.8 64.19,-576.8"/>
<text text-anchor="start" x="71.19" y="-589" font-family="Arial" font-size="14.00">settlementInterchangeId </text>
<text text-anchor="start" x="225.28" y="-589" font-family="Arial" font-size="14.00" fill="#666666">[int unsigned]</text>
<polygon fill="none" stroke="black" points="64.19,-546 64.19,-576.8 323.65,-576.8 323.65,-546 64.19,-546"/>
<text text-anchor="start" x="71.19" y="-558.2" font-family="Arial" font-size="14.00">settlementDelayId </text>
<text text-anchor="start" x="187.13" y="-558.2" font-family="Arial" font-size="14.00" fill="#666666">[int unsigned]</text>
<polygon fill="none" stroke="black" points="64.19,-515.2 64.19,-546 323.65,-546 323.65,-515.2 64.19,-515.2"/>
<text text-anchor="start" x="71.19" y="-527.4" font-family="Arial" font-size="14.00">currencyId </text>
<text text-anchor="start" x="140.43" y="-527.4" font-family="Arial" font-size="14.00" fill="#666666">[varchar(3)]</text>
<polygon fill="none" stroke="black" points="64.19,-484.4 64.19,-515.2 323.65,-515.2 323.65,-484.4 64.19,-484.4"/>
<text text-anchor="start" x="71.19" y="-496.6" font-family="Arial" font-size="14.00">requireLiquidityCheck </text>
<text text-anchor="start" x="209.7" y="-496.6" font-family="Arial" font-size="14.00" fill="#666666">[tinyint(1)]</text>
<polygon fill="none" stroke="black" points="64.19,-453.6 64.19,-484.4 323.65,-484.4 323.65,-453.6 64.19,-453.6"/>
<text text-anchor="start" x="71.19" y="-465.8" font-family="Arial" font-size="14.00">ledgerAccountTypeId </text>
<text text-anchor="start" x="207.38" y="-465.8" font-family="Arial" font-size="14.00" fill="#666666">[int unsigned]</text>
<polygon fill="none" stroke="black" points="64.19,-422.8 64.19,-453.6 323.65,-453.6 323.65,-422.8 64.19,-422.8"/>
<text text-anchor="start" x="71.19" y="-435" font-family="Arial" font-size="14.00">autoPositionReset </text>
<text text-anchor="start" x="188.7" y="-435" font-family="Arial" font-size="14.00" fill="#666666">[tinyint(1)]</text>
<polygon fill="none" stroke="black" points="64.19,-392 64.19,-422.8 323.65,-422.8 323.65,-392 64.19,-392"/>
<text text-anchor="start" x="71.19" y="-404.2" font-family="Arial" font-size="14.00">adjustPosition </text>
<text text-anchor="start" x="162.24" y="-404.2" font-family="Arial" font-size="14.00" fill="#666666">[tinyint(1)]</text>
<polygon fill="none" stroke="black" points="64.19,-361.2 64.19,-392 323.65,-392 323.65,-361.2 64.19,-361.2"/>
<text text-anchor="start" x="71.19" y="-373.4" font-family="Arial" font-size="14.00">settlementAccountTypeId </text>
<text text-anchor="start" x="233.05" y="-373.4" font-family="Arial" font-size="14.00" fill="#666666">[int]</text>
</g>
<!-- settlementModel&#45;&gt;settlementGranularity -->
<g id="edge1" class="edge">
<title>settlementModel:settlementGranularityId&#45;&gt;settlementGranularity:settlementGranularityId</title>
<path fill="none" stroke="black" d="M333.68,-617.77C375.42,-568.33 388.22,-184.8 342.64,-184.8"/>
<polygon fill="black" stroke="black" points="333.59,-617.82 322.68,-618.94 328.98,-620.5 325.23,-622.66 325.23,-622.66 325.23,-622.66 328.98,-620.5 327.19,-626.73 333.59,-617.82"/>
<text text-anchor="start" x="331.65" y="-633" font-family="Arial" font-size="10.00">FOREIGN KEY (settlementGranularityId) REFERENCES settlementGranularity (settlementGranularityId)</text>
</g>
</g>
</svg>
