<?xml version="1.0" encoding="UTF-8" standalone="no"?>
<!DOCTYPE svg PUBLIC "-//W3C//DTD SVG 1.1//EN"
 "http://www.w3.org/Graphics/SVG/1.1/DTD/svg11.dtd">
<!-- Generated by graphviz version 12.1.2 (20240928.0832)
 -->
<!-- Title: settlementTransferParticipant Pages: 1 -->
<svg width="1929pt" height="602pt"
 viewBox="0.00 0.00 1929.04 602.00" xmlns="http://www.w3.org/2000/svg" xmlns:xlink="http://www.w3.org/1999/xlink">
<g id="graph0" class="graph" transform="scale(1 1) rotate(0) translate(4 598)">
<title>settlementTransferParticipant</title>
<polygon fill="white" stroke="none" points="-4,4 -4,-598 1925.04,-598 1925.04,4 -4,4"/>
<!-- settlementTransferParticipant -->
<g id="node1" class="node">
<title>settlementTransferParticipant</title>
<polygon fill="#efefef" stroke="none" points="748.91,-512.2 748.91,-547.8 1100.32,-547.8 1100.32,-512.2 748.91,-512.2"/>
<polygon fill="none" stroke="black" points="748.91,-512.2 748.91,-547.8 1100.32,-547.8 1100.32,-512.2 748.91,-512.2"/>
<text text-anchor="start" x="755.91" y="-525.6" font-family="Arial Bold" font-size="18.00">settlementTransferParticipant</text>
<text text-anchor="start" x="968.83" y="-525.6" font-family="Arial" font-size="14.00">    </text>
<text text-anchor="start" x="999.95" y="-525.6" font-family="Arial" font-size="14.00" fill="#666666">[BASE TABLE]</text>
<polygon fill="none" stroke="black" points="748.91,-481.4 748.91,-512.2 1100.32,-512.2 1100.32,-481.4 748.91,-481.4"/>
<text text-anchor="start" x="755.91" y="-493.6" font-family="Arial" font-size="14.00">settlementTransferParticipantId </text>
<text text-anchor="start" x="954.33" y="-493.6" font-family="Arial" font-size="14.00" fill="#666666">[bigint unsigned]</text>
<polygon fill="none" stroke="black" points="748.91,-450.6 748.91,-481.4 1100.32,-481.4 1100.32,-450.6 748.91,-450.6"/>
<text text-anchor="start" x="755.91" y="-462.8" font-family="Arial" font-size="14.00">settlementId </text>
<text text-anchor="start" x="836.07" y="-462.8" font-family="Arial" font-size="14.00" fill="#666666">[bigint unsigned]</text>
<polygon fill="none" stroke="black" points="748.91,-419.8 748.91,-450.6 1100.32,-450.6 1100.32,-419.8 748.91,-419.8"/>
<text text-anchor="start" x="755.91" y="-432" font-family="Arial" font-size="14.00">settlementWindowId </text>
<text text-anchor="start" x="885.86" y="-432" font-family="Arial" font-size="14.00" fill="#666666">[bigint unsigned]</text>
<polygon fill="none" stroke="black" points="748.91,-389 748.91,-419.8 1100.32,-419.8 1100.32,-389 748.91,-389"/>
<text text-anchor="start" x="755.91" y="-401.2" font-family="Arial" font-size="14.00">participantCurrencyId </text>
<text text-anchor="start" x="892.87" y="-401.2" font-family="Arial" font-size="14.00" fill="#666666">[int unsigned]</text>
<polygon fill="none" stroke="black" points="748.91,-358.2 748.91,-389 1100.32,-389 1100.32,-358.2 748.91,-358.2"/>
<text text-anchor="start" x="755.91" y="-370.4" font-family="Arial" font-size="14.00">transferParticipantRoleTypeId </text>
<text text-anchor="start" x="945" y="-370.4" font-family="Arial" font-size="14.00" fill="#666666">[int unsigned]</text>
<polygon fill="none" stroke="black" points="748.91,-327.4 748.91,-358.2 1100.32,-358.2 1100.32,-327.4 748.91,-327.4"/>
<text text-anchor="start" x="755.91" y="-339.6" font-family="Arial" font-size="14.00">ledgerEntryTypeId </text>
<text text-anchor="start" x="874.2" y="-339.6" font-family="Arial" font-size="14.00" fill="#666666">[int unsigned]</text>
<polygon fill="none" stroke="black" stroke-width="3" points="747.41,-325.9 747.41,-549.3 1101.82,-549.3 1101.82,-325.9 747.41,-325.9"/>
</g>
<!-- settlement -->
<g id="node2" class="node">
<title>settlement</title>
<polygon fill="#efefef" stroke="none" points="43.2,-151 43.2,-186.6 300.03,-186.6 300.03,-151 43.2,-151"/>
<polygon fill="none" stroke="black" points="43.2,-151 43.2,-186.6 300.03,-186.6 300.03,-151 43.2,-151"/>
<text text-anchor="start" x="72.38" y="-164.4" font-family="Arial Bold" font-size="18.00">settlement</text>
<text text-anchor="start" x="146.36" y="-164.4" font-family="Arial" font-size="14.00">    </text>
<text text-anchor="start" x="177.48" y="-164.4" font-family="Arial" font-size="14.00" fill="#666666">[BASE TABLE]</text>
<polygon fill="none" stroke="black" points="43.2,-120.2 43.2,-151 300.03,-151 300.03,-120.2 43.2,-120.2"/>
<text text-anchor="start" x="50.2" y="-132.4" font-family="Arial" font-size="14.00">settlementId </text>
<text text-anchor="start" x="130.35" y="-132.4" font-family="Arial" font-size="14.00" fill="#666666">[bigint unsigned]</text>
<polygon fill="none" stroke="black" points="43.2,-89.4 43.2,-120.2 300.03,-120.2 300.03,-89.4 43.2,-89.4"/>
<text text-anchor="start" x="50.2" y="-101.6" font-family="Arial" font-size="14.00">currentStateChangeId </text>
<text text-anchor="start" x="191.07" y="-101.6" font-family="Arial" font-size="14.00" fill="#666666">[bigint unsigned]</text>
<polygon fill="none" stroke="black" points="43.2,-58.6 43.2,-89.4 300.03,-89.4 300.03,-58.6 43.2,-58.6"/>
<text text-anchor="start" x="50.2" y="-70.8" font-family="Arial" font-size="14.00">settlementModelId </text>
<text text-anchor="start" x="168.48" y="-70.8" font-family="Arial" font-size="14.00" fill="#666666">[int unsigned]</text>
</g>
<!-- settlementTransferParticipant&#45;&gt;settlement -->
<g id="edge1" class="edge">
<title>settlementTransferParticipant:settlementId&#45;&gt;settlement:settlementId</title>
<path fill="none" stroke="black" d="M737.72,-465.94C544.71,-463.46 487.54,-389.84 352.62,-245.2 315.89,-205.83 354.87,-135.6 301.03,-135.6"/>
<polygon fill="black" stroke="black" points="737.58,-465.93 747.55,-470.5 742.91,-465.97 747.25,-466 747.25,-466 747.25,-466 742.91,-465.97 747.61,-461.5 737.58,-465.93"/>
<text text-anchor="start" x="424.71" y="-476" font-family="Arial" font-size="10.00">FOREIGN KEY (settlementId) REFERENCES settlement (settlementId)</text>
</g>
<!-- settlementWindow -->
<g id="node3" class="node">
<title>settlementWindow</title>
<polygon fill="#efefef" stroke="none" points="404.39,-135.6 404.39,-171.2 678.84,-171.2 678.84,-135.6 404.39,-135.6"/>
<polygon fill="none" stroke="black" points="404.39,-135.6 404.39,-171.2 678.84,-171.2 678.84,-135.6 404.39,-135.6"/>
<text text-anchor="start" x="411.39" y="-149" font-family="Arial Bold" font-size="18.00">settlementWindow</text>
<text text-anchor="start" x="547.36" y="-149" font-family="Arial" font-size="14.00">    </text>
<text text-anchor="start" x="578.47" y="-149" font-family="Arial" font-size="14.00" fill="#666666">[BASE TABLE]</text>
<polygon fill="none" stroke="black" points="404.39,-104.8 404.39,-135.6 678.84,-135.6 678.84,-104.8 404.39,-104.8"/>
<text text-anchor="start" x="411.39" y="-117" font-family="Arial" font-size="14.00">settlementWindowId </text>
<text text-anchor="start" x="541.33" y="-117" font-family="Arial" font-size="14.00" fill="#666666">[bigint unsigned]</text>
<polygon fill="none" stroke="black" points="404.39,-74 404.39,-104.8 678.84,-104.8 678.84,-74 404.39,-74"/>
<text text-anchor="start" x="411.39" y="-86.2" font-family="Arial" font-size="14.00">currentStateChangeId </text>
<text text-anchor="start" x="552.26" y="-86.2" font-family="Arial" font-size="14.00" fill="#666666">[bigint unsigned]</text>
</g>
<!-- settlementTransferParticipant&#45;&gt;settlementWindow -->
<g id="edge2" class="edge">
<title>settlementTransferParticipant:settlementWindowId&#45;&gt;settlementWindow:settlementWindowId</title>
<path fill="none" stroke="black" d="M737.69,-434.6C615.54,-419.41 819.44,-120.2 679.84,-120.2"/>
<polygon fill="black" stroke="black" points="737.6,-434.6 747.32,-439.67 742.92,-434.91 747.25,-435.16 747.25,-435.16 747.25,-435.16 742.92,-434.91 747.84,-430.69 737.6,-434.6"/>
<text text-anchor="start" x="318.01" y="-445.2" font-family="Arial" font-size="10.00">FOREIGN KEY (settlementWindowId) REFERENCES settlementWindow (settlementWindowId)</text>
</g>
<!-- participantCurrency -->
<g id="node4" class="node">
<title>participantCurrency</title>
<polygon fill="#efefef" stroke="none" points="783.4,-166.4 783.4,-202 1065.83,-202 1065.83,-166.4 783.4,-166.4"/>
<polygon fill="none" stroke="black" points="783.4,-166.4 783.4,-202 1065.83,-202 1065.83,-166.4 783.4,-166.4"/>
<text text-anchor="start" x="790.4" y="-179.8" font-family="Arial Bold" font-size="18.00">participantCurrency</text>
<text text-anchor="start" x="934.34" y="-179.8" font-family="Arial" font-size="14.00">    </text>
<text text-anchor="start" x="965.46" y="-179.8" font-family="Arial" font-size="14.00" fill="#666666">[BASE TABLE]</text>
<polygon fill="none" stroke="black" points="783.4,-135.6 783.4,-166.4 1065.83,-166.4 1065.83,-135.6 783.4,-135.6"/>
<text text-anchor="start" x="790.4" y="-147.8" font-family="Arial" font-size="14.00">participantCurrencyId </text>
<text text-anchor="start" x="927.35" y="-147.8" font-family="Arial" font-size="14.00" fill="#666666">[int unsigned]</text>
<polygon fill="none" stroke="black" points="783.4,-104.8 783.4,-135.6 1065.83,-135.6 1065.83,-104.8 783.4,-104.8"/>
<text text-anchor="start" x="790.4" y="-117" font-family="Arial" font-size="14.00">participantId </text>
<text text-anchor="start" x="870.56" y="-117" font-family="Arial" font-size="14.00" fill="#666666">[int unsigned]</text>
<polygon fill="none" stroke="black" points="783.4,-74 783.4,-104.8 1065.83,-104.8 1065.83,-74 783.4,-74"/>
<text text-anchor="start" x="790.4" y="-86.2" font-family="Arial" font-size="14.00">currencyId </text>
<text text-anchor="start" x="859.65" y="-86.2" font-family="Arial" font-size="14.00" fill="#666666">[varchar(3)]</text>
<polygon fill="none" stroke="black" points="783.4,-43.2 783.4,-74 1065.83,-74 1065.83,-43.2 783.4,-43.2"/>
<text text-anchor="start" x="790.4" y="-55.4" font-family="Arial" font-size="14.00">ledgerAccountTypeId </text>
<text text-anchor="start" x="926.6" y="-55.4" font-family="Arial" font-size="14.00" fill="#666666">[int unsigned]</text>
</g>
<!-- settlementTransferParticipant&#45;&gt;participantCurrency -->
<g id="edge3" class="edge">
<title>settlementTransferParticipant:participantCurrencyId&#45;&gt;participantCurrency:participantCurrencyId</title>
<path fill="none" stroke="black" d="M1108.2,-396.82C1122.66,-354.65 1092.3,-151 1066.83,-151"/>
<polygon fill="black" stroke="black" points="1108.26,-396.75 1098.21,-401.13 1104.68,-400.7 1101.77,-403.9 1101.77,-403.9 1101.77,-403.9 1104.68,-400.7 1104.88,-407.18 1108.26,-396.75"/>
<text text-anchor="start" x="1108.32" y="-414.4" font-family="Arial" font-size="10.00">FOREIGN KEY (participantCurrencyId) REFERENCES participantCurrency (participantCurrencyId)</text>
</g>
<!-- transferParticipantRoleType -->
<g id="node5" class="node">
<title>transferParticipantRoleType</title>
<polygon fill="#efefef" stroke="none" points="1170.41,-120.2 1170.41,-155.8 1512.82,-155.8 1512.82,-120.2 1170.41,-120.2"/>
<polygon fill="none" stroke="black" points="1170.41,-120.2 1170.41,-155.8 1512.82,-155.8 1512.82,-120.2 1170.41,-120.2"/>
<text text-anchor="start" x="1177.41" y="-133.6" font-family="Arial Bold" font-size="18.00">transferParticipantRoleType</text>
<text text-anchor="start" x="1381.33" y="-133.6" font-family="Arial" font-size="14.00">    </text>
<text text-anchor="start" x="1412.45" y="-133.6" font-family="Arial" font-size="14.00" fill="#666666">[BASE TABLE]</text>
<polygon fill="none" stroke="black" points="1170.41,-89.4 1170.41,-120.2 1512.82,-120.2 1512.82,-89.4 1170.41,-89.4"/>
<text text-anchor="start" x="1177.41" y="-101.6" font-family="Arial" font-size="14.00">transferParticipantRoleTypeId </text>
<text text-anchor="start" x="1366.5" y="-101.6" font-family="Arial" font-size="14.00" fill="#666666">[int unsigned]</text>
</g>
<!-- settlementTransferParticipant&#45;&gt;transferParticipantRoleType -->
<g id="edge4" class="edge">
<title>settlementTransferParticipant:transferParticipantRoleTypeId&#45;&gt;transferParticipantRoleType:transferParticipantRoleTypeId</title>
<path fill="none" stroke="black" d="M1111.7,-372.88C1214.03,-357.57 1049.9,-104.8 1169.41,-104.8"/>
<polygon fill="black" stroke="black" points="1111.63,-372.88 1101.34,-369.09 1106.31,-373.25 1101.99,-373.55 1101.99,-373.55 1101.99,-373.55 1106.31,-373.25 1101.97,-378.07 1111.63,-372.88"/>
<text text-anchor="start" x="1108.32" y="-383.6" font-family="Arial" font-size="10.00">FOREIGN KEY (transferParticipantRoleTypeId) REFERENCES transferParticipantRoleType (transferParticipantRoleTypeId)</text>
</g>
<!-- ledgerEntryType -->
<g id="node6" class="node">
<title>ledgerEntryType</title>
<polygon fill="#efefef" stroke="none" points="1617.4,-135.6 1617.4,-171.2 1877.84,-171.2 1877.84,-135.6 1617.4,-135.6"/>
<polygon fill="none" stroke="black" points="1617.4,-135.6 1617.4,-171.2 1877.84,-171.2 1877.84,-135.6 1617.4,-135.6"/>
<text text-anchor="start" x="1624.4" y="-149" font-family="Arial Bold" font-size="18.00">ledgerEntryType</text>
<text text-anchor="start" x="1746.35" y="-149" font-family="Arial" font-size="14.00">    </text>
<text text-anchor="start" x="1777.46" y="-149" font-family="Arial" font-size="14.00" fill="#666666">[BASE TABLE]</text>
<polygon fill="none" stroke="black" points="1617.4,-104.8 1617.4,-135.6 1877.84,-135.6 1877.84,-104.8 1617.4,-104.8"/>
<text text-anchor="start" x="1624.4" y="-117" font-family="Arial" font-size="14.00">ledgerEntryTypeId </text>
<text text-anchor="start" x="1742.68" y="-117" font-family="Arial" font-size="14.00" fill="#666666">[int unsigned]</text>
<polygon fill="none" stroke="black" points="1617.4,-74 1617.4,-104.8 1877.84,-104.8 1877.84,-74 1617.4,-74"/>
<text text-anchor="start" x="1624.4" y="-86.2" font-family="Arial" font-size="14.00">ledgerAccountTypeId </text>
<text text-anchor="start" x="1760.59" y="-86.2" font-family="Arial" font-size="14.00" fill="#666666">[int unsigned]</text>
</g>
<!-- settlementTransferParticipant&#45;&gt;ledgerEntryType -->
<g id="edge5" class="edge">
<title>settlementTransferParticipant:ledgerEntryTypeId&#45;&gt;ledgerEntryType:ledgerEntryTypeId</title>
<path fill="none" stroke="black" d="M1111.67,-342.71C1223.66,-340.86 1486.19,-310.3 1564.62,-245.2 1610.89,-206.79 1556.26,-120.2 1616.4,-120.2"/>
<polygon fill="black" stroke="black" points="1111.65,-342.71 1101.61,-338.3 1106.32,-342.76 1101.99,-342.79 1101.99,-342.79 1101.99,-342.79 1106.32,-342.76 1101.69,-347.3 1111.65,-342.71"/>
<text text-anchor="start" x="1108.32" y="-352.8" font-family="Arial" font-size="10.00">FOREIGN KEY (ledgerEntryTypeId) REFERENCES ledgerEntryType (ledgerEntryTypeId)</text>
</g>
</g>
</svg>
