<?xml version="1.0" encoding="UTF-8" standalone="no"?>
<!DOCTYPE svg PUBLIC "-//W3C//DTD SVG 1.1//EN"
 "http://www.w3.org/Graphics/SVG/1.1/DTD/svg11.dtd">
<!-- Generated by graphviz version 12.1.2 (20240928.0832)
 -->
<!-- Title: settlementWindowState Pages: 1 -->
<svg width="1600pt" height="725pt"
 viewBox="0.00 0.00 1599.89 725.20" xmlns="http://www.w3.org/2000/svg" xmlns:xlink="http://www.w3.org/1999/xlink">
<g id="graph0" class="graph" transform="scale(1 1) rotate(0) translate(4 721.2)">
<title>settlementWindowState</title>
<polygon fill="white" stroke="none" points="-4,4 -4,-721.2 1595.89,-721.2 1595.89,4 -4,4"/>
<!-- settlementWindowState -->
<g id="node1" class="node">
<title>settlementWindowState</title>
<polygon fill="#efefef" stroke="none" points="615.43,-200.2 615.43,-235.8 925.88,-235.8 925.88,-200.2 615.43,-200.2"/>
<polygon fill="none" stroke="black" points="615.43,-200.2 615.43,-235.8 925.88,-235.8 925.88,-200.2 615.43,-200.2"/>
<text text-anchor="start" x="622.43" y="-213.6" font-family="Arial Bold" font-size="18.00">settlementWindowState</text>
<text text-anchor="start" x="794.39" y="-213.6" font-family="Arial" font-size="14.00">    </text>
<text text-anchor="start" x="825.51" y="-213.6" font-family="Arial" font-size="14.00" fill="#666666">[BASE TABLE]</text>
<polygon fill="none" stroke="black" points="615.43,-169.4 615.43,-200.2 925.88,-200.2 925.88,-169.4 615.43,-169.4"/>
<text text-anchor="start" x="622.43" y="-181.6" font-family="Arial" font-size="14.00">settlementWindowStateId </text>
<text text-anchor="start" x="785.06" y="-181.6" font-family="Arial" font-size="14.00" fill="#666666">[varchar(50)]</text>
<polygon fill="none" stroke="black" points="615.43,-138.6 615.43,-169.4 925.88,-169.4 925.88,-138.6 615.43,-138.6"/>
<text text-anchor="start" x="622.43" y="-150.8" font-family="Arial" font-size="14.00">enumeration </text>
<text text-anchor="start" x="704.15" y="-150.8" font-family="Arial" font-size="14.00" fill="#666666">[varchar(50)]</text>
<polygon fill="none" stroke="black" points="615.43,-107.8 615.43,-138.6 925.88,-138.6 925.88,-107.8 615.43,-107.8"/>
<text text-anchor="start" x="622.43" y="-120" font-family="Arial" font-size="14.00">description </text>
<text text-anchor="start" x="694.02" y="-120" font-family="Arial" font-size="14.00" fill="#666666">[varchar(512)]</text>
<polygon fill="none" stroke="black" points="615.43,-77 615.43,-107.8 925.88,-107.8 925.88,-77 615.43,-77"/>
<text text-anchor="start" x="622.43" y="-89.2" font-family="Arial" font-size="14.00">isActive </text>
<text text-anchor="start" x="674.55" y="-89.2" font-family="Arial" font-size="14.00" fill="#666666">[tinyint(1)]</text>
<polygon fill="none" stroke="black" points="615.43,-46.2 615.43,-77 925.88,-77 925.88,-46.2 615.43,-46.2"/>
<text text-anchor="start" x="622.43" y="-58.4" font-family="Arial" font-size="14.00">createdDate </text>
<text text-anchor="start" x="702.59" y="-58.4" font-family="Arial" font-size="14.00" fill="#666666">[datetime]</text>
<polygon fill="none" stroke="black" stroke-width="3" points="613.93,-44.7 613.93,-237.3 927.38,-237.3 927.38,-44.7 613.93,-44.7"/>
</g>
<!-- settlementContentAggregation -->
<g id="node2" class="node">
<title>settlementContentAggregation</title>
<polygon fill="#efefef" stroke="none" points="95.94,-638.4 95.94,-674 455.37,-674 455.37,-638.4 95.94,-638.4"/>
<polygon fill="none" stroke="black" points="95.94,-638.4 95.94,-674 455.37,-674 455.37,-638.4 95.94,-638.4"/>
<text text-anchor="start" x="102.94" y="-651.8" font-family="Arial Bold" font-size="18.00">settlementContentAggregation</text>
<text text-anchor="start" x="323.88" y="-651.8" font-family="Arial" font-size="14.00">    </text>
<text text-anchor="start" x="355" y="-651.8" font-family="Arial" font-size="14.00" fill="#666666">[BASE TABLE]</text>
<polygon fill="none" stroke="black" points="95.94,-607.6 95.94,-638.4 455.37,-638.4 455.37,-607.6 95.94,-607.6"/>
<text text-anchor="start" x="102.94" y="-619.8" font-family="Arial" font-size="14.00">settlementContentAggregationId </text>
<text text-anchor="start" x="307.62" y="-619.8" font-family="Arial" font-size="14.00" fill="#666666">[bigint unsigned]</text>
<polygon fill="none" stroke="black" points="95.94,-576.8 95.94,-607.6 455.37,-607.6 455.37,-576.8 95.94,-576.8"/>
<text text-anchor="start" x="102.94" y="-589" font-family="Arial" font-size="14.00">settlementWindowContentId </text>
<text text-anchor="start" x="281.91" y="-589" font-family="Arial" font-size="14.00" fill="#666666">[bigint unsigned]</text>
<polygon fill="none" stroke="black" points="95.94,-546 95.94,-576.8 455.37,-576.8 455.37,-546 95.94,-546"/>
<text text-anchor="start" x="102.94" y="-558.2" font-family="Arial" font-size="14.00">participantCurrencyId </text>
<text text-anchor="start" x="239.89" y="-558.2" font-family="Arial" font-size="14.00" fill="#666666">[int unsigned]</text>
<polygon fill="none" stroke="black" points="95.94,-515.2 95.94,-546 455.37,-546 455.37,-515.2 95.94,-515.2"/>
<text text-anchor="start" x="102.94" y="-527.4" font-family="Arial" font-size="14.00">transferParticipantRoleTypeId </text>
<text text-anchor="start" x="292.02" y="-527.4" font-family="Arial" font-size="14.00" fill="#666666">[int unsigned]</text>
<polygon fill="none" stroke="black" points="95.94,-484.4 95.94,-515.2 455.37,-515.2 455.37,-484.4 95.94,-484.4"/>
<text text-anchor="start" x="102.94" y="-496.6" font-family="Arial" font-size="14.00">ledgerEntryTypeId </text>
<text text-anchor="start" x="221.22" y="-496.6" font-family="Arial" font-size="14.00" fill="#666666">[int unsigned]</text>
<polygon fill="none" stroke="black" points="95.94,-453.6 95.94,-484.4 455.37,-484.4 455.37,-453.6 95.94,-453.6"/>
<text text-anchor="start" x="102.94" y="-465.8" font-family="Arial" font-size="14.00">amount </text>
<text text-anchor="start" x="153.52" y="-465.8" font-family="Arial" font-size="14.00" fill="#666666">[decimal(18,4)]</text>
<polygon fill="none" stroke="black" points="95.94,-422.8 95.94,-453.6 455.37,-453.6 455.37,-422.8 95.94,-422.8"/>
<text text-anchor="start" x="102.94" y="-435" font-family="Arial" font-size="14.00">createdDate </text>
<text text-anchor="start" x="183.09" y="-435" font-family="Arial" font-size="14.00" fill="#666666">[datetime]</text>
<polygon fill="none" stroke="black" points="95.94,-392 95.94,-422.8 455.37,-422.8 455.37,-392 95.94,-392"/>
<text text-anchor="start" x="102.94" y="-404.2" font-family="Arial" font-size="14.00">currentStateId </text>
<text text-anchor="start" x="194.76" y="-404.2" font-family="Arial" font-size="14.00" fill="#666666">[varchar(50)]</text>
<polygon fill="none" stroke="black" points="95.94,-361.2 95.94,-392 455.37,-392 455.37,-361.2 95.94,-361.2"/>
<text text-anchor="start" x="102.94" y="-373.4" font-family="Arial" font-size="14.00">settlementId </text>
<text text-anchor="start" x="183.09" y="-373.4" font-family="Arial" font-size="14.00" fill="#666666">[bigint unsigned]</text>
</g>
<!-- settlementContentAggregation&#45;&gt;settlementWindowState -->
<g id="edge1" class="edge">
<title>settlementContentAggregation:currentStateId&#45;&gt;settlementWindowState:settlementWindowStateId</title>
<path fill="none" stroke="black" d="M466.37,-406.4C499.16,-399.03 483.97,-352.75 507.65,-318 550.39,-255.3 538.56,-184.8 614.43,-184.8"/>
<polygon fill="black" stroke="black" points="466.66,-406.37 456.26,-402.89 461.35,-406.9 457.04,-407.33 457.04,-407.33 457.04,-407.33 461.35,-406.9 457.16,-411.84 466.66,-406.37"/>
<text text-anchor="start" x="7" y="-417.4" font-family="Arial" font-size="10.00">FOREIGN KEY (currentStateId) REFERENCES settlementWindowState (settlementWindowStateId)</text>
</g>
<!-- settlementWindowContentStateChange -->
<g id="node3" class="node">
<title>settlementWindowContentStateChange</title>
<polygon fill="#efefef" stroke="none" points="559.44,-576.8 559.44,-612.4 981.87,-612.4 981.87,-576.8 559.44,-576.8"/>
<polygon fill="none" stroke="black" points="559.44,-576.8 559.44,-612.4 981.87,-612.4 981.87,-576.8 559.44,-576.8"/>
<text text-anchor="start" x="566.44" y="-590.2" font-family="Arial Bold" font-size="18.00">settlementWindowContentStateChange</text>
<text text-anchor="start" x="850.38" y="-590.2" font-family="Arial" font-size="14.00">    </text>
<text text-anchor="start" x="881.5" y="-590.2" font-family="Arial" font-size="14.00" fill="#666666">[BASE TABLE]</text>
<polygon fill="none" stroke="black" points="559.44,-546 559.44,-576.8 981.87,-576.8 981.87,-546 559.44,-546"/>
<text text-anchor="start" x="566.44" y="-558.2" font-family="Arial" font-size="14.00">settlementWindowContentStateChangeId </text>
<text text-anchor="start" x="827.15" y="-558.2" font-family="Arial" font-size="14.00" fill="#666666">[bigint unsigned]</text>
<polygon fill="none" stroke="black" points="559.44,-515.2 559.44,-546 981.87,-546 981.87,-515.2 559.44,-515.2"/>
<text text-anchor="start" x="566.44" y="-527.4" font-family="Arial" font-size="14.00">settlementWindowContentId </text>
<text text-anchor="start" x="745.42" y="-527.4" font-family="Arial" font-size="14.00" fill="#666666">[bigint unsigned]</text>
<polygon fill="none" stroke="black" points="559.44,-484.4 559.44,-515.2 981.87,-515.2 981.87,-484.4 559.44,-484.4"/>
<text text-anchor="start" x="566.44" y="-496.6" font-family="Arial" font-size="14.00">settlementWindowStateId </text>
<text text-anchor="start" x="729.07" y="-496.6" font-family="Arial" font-size="14.00" fill="#666666">[varchar(50)]</text>
<polygon fill="none" stroke="black" points="559.44,-453.6 559.44,-484.4 981.87,-484.4 981.87,-453.6 559.44,-453.6"/>
<text text-anchor="start" x="566.44" y="-465.8" font-family="Arial" font-size="14.00">reason </text>
<text text-anchor="start" x="613.14" y="-465.8" font-family="Arial" font-size="14.00" fill="#666666">[varchar(512)]</text>
<polygon fill="none" stroke="black" points="559.44,-422.8 559.44,-453.6 981.87,-453.6 981.87,-422.8 559.44,-422.8"/>
<text text-anchor="start" x="566.44" y="-435" font-family="Arial" font-size="14.00">createdDate </text>
<text text-anchor="start" x="646.6" y="-435" font-family="Arial" font-size="14.00" fill="#666666">[datetime]</text>
</g>
<!-- settlementWindowContentStateChange&#45;&gt;settlementWindowState -->
<g id="edge2" class="edge">
<title>settlementWindowContentStateChange:settlementWindowStateId&#45;&gt;settlementWindowState:settlementWindowStateId</title>
<path fill="none" stroke="black" d="M992.73,-497.45C1048.24,-468.62 994.36,-184.8 926.88,-184.8"/>
<polygon fill="black" stroke="black" points="992.92,-497.4 982.15,-495.35 987.73,-498.64 983.52,-499.64 983.52,-499.64 983.52,-499.64 987.73,-498.64 984.24,-504.1 992.92,-497.4"/>
<text text-anchor="start" x="482.92" y="-509.8" font-family="Arial" font-size="10.00">FOREIGN KEY (settlementWindowStateId) REFERENCES settlementWindowState (settlementWindowStateId)</text>
</g>
<!-- settlementWindowStateChange -->
<g id="node4" class="node">
<title>settlementWindowStateChange</title>
<polygon fill="#efefef" stroke="none" points="1085.94,-576.8 1085.94,-612.4 1451.37,-612.4 1451.37,-576.8 1085.94,-576.8"/>
<polygon fill="none" stroke="black" points="1085.94,-576.8 1085.94,-612.4 1451.37,-612.4 1451.37,-576.8 1085.94,-576.8"/>
<text text-anchor="start" x="1092.94" y="-590.2" font-family="Arial Bold" font-size="18.00">settlementWindowStateChange</text>
<text text-anchor="start" x="1319.88" y="-590.2" font-family="Arial" font-size="14.00">    </text>
<text text-anchor="start" x="1351" y="-590.2" font-family="Arial" font-size="14.00" fill="#666666">[BASE TABLE]</text>
<polygon fill="none" stroke="black" points="1085.94,-546 1085.94,-576.8 1451.37,-576.8 1451.37,-546 1085.94,-546"/>
<text text-anchor="start" x="1092.94" y="-558.2" font-family="Arial" font-size="14.00">settlementWindowStateChangeId </text>
<text text-anchor="start" x="1304.61" y="-558.2" font-family="Arial" font-size="14.00" fill="#666666">[bigint unsigned]</text>
<polygon fill="none" stroke="black" points="1085.94,-515.2 1085.94,-546 1451.37,-546 1451.37,-515.2 1085.94,-515.2"/>
<text text-anchor="start" x="1092.94" y="-527.4" font-family="Arial" font-size="14.00">settlementWindowId </text>
<text text-anchor="start" x="1222.88" y="-527.4" font-family="Arial" font-size="14.00" fill="#666666">[bigint unsigned]</text>
<polygon fill="none" stroke="black" points="1085.94,-484.4 1085.94,-515.2 1451.37,-515.2 1451.37,-484.4 1085.94,-484.4"/>
<text text-anchor="start" x="1092.94" y="-496.6" font-family="Arial" font-size="14.00">settlementWindowStateId </text>
<text text-anchor="start" x="1255.57" y="-496.6" font-family="Arial" font-size="14.00" fill="#666666">[varchar(50)]</text>
<polygon fill="none" stroke="black" points="1085.94,-453.6 1085.94,-484.4 1451.37,-484.4 1451.37,-453.6 1085.94,-453.6"/>
<text text-anchor="start" x="1092.94" y="-465.8" font-family="Arial" font-size="14.00">reason </text>
<text text-anchor="start" x="1139.63" y="-465.8" font-family="Arial" font-size="14.00" fill="#666666">[varchar(512)]</text>
<polygon fill="none" stroke="black" points="1085.94,-422.8 1085.94,-453.6 1451.37,-453.6 1451.37,-422.8 1085.94,-422.8"/>
<text text-anchor="start" x="1092.94" y="-435" font-family="Arial" font-size="14.00">createdDate </text>
<text text-anchor="start" x="1173.1" y="-435" font-family="Arial" font-size="14.00" fill="#666666">[datetime]</text>
</g>
<!-- settlementWindowStateChange&#45;&gt;settlementWindowState -->
<g id="edge3" class="edge">
<title>settlementWindowStateChange:settlementWindowStateId&#45;&gt;settlementWindowState:settlementWindowStateId</title>
<path fill="none" stroke="black" d="M1074.54,-499.16C1007.15,-490.24 1070.35,-389.29 1033.65,-318 998.93,-250.54 1002.75,-184.8 926.88,-184.8"/>
<polygon fill="black" stroke="black" points="1074.62,-499.17 1084.33,-504.27 1079.95,-499.49 1084.27,-499.76 1084.27,-499.76 1084.27,-499.76 1079.95,-499.49 1084.88,-495.29 1074.62,-499.17"/>
<text text-anchor="start" x="1091.94" y="-509.8" font-family="Arial" font-size="10.00">FOREIGN KEY (settlementWindowStateId) REFERENCES settlementWindowState (settlementWindowStateId)</text>
</g>
</g>
</svg>
