<?xml version="1.0" encoding="UTF-8" standalone="no"?>
<!DOCTYPE svg PUBLIC "-//W3C//DTD SVG 1.1//EN"
 "http://www.w3.org/Graphics/SVG/1.1/DTD/svg11.dtd">
<!-- Generated by graphviz version 12.1.2 (20240928.0832)
 -->
<!-- Title: settlementContentAggregation Pages: 1 -->
<svg width="2401pt" height="818pt"
 viewBox="0.00 0.00 2400.54 817.60" xmlns="http://www.w3.org/2000/svg" xmlns:xlink="http://www.w3.org/1999/xlink">
<g id="graph0" class="graph" transform="scale(1 1) rotate(0) translate(4 813.6)">
<title>settlementContentAggregation</title>
<polygon fill="white" stroke="none" points="-4,4 -4,-813.6 2396.54,-813.6 2396.54,4 -4,4"/>
<!-- settlementContentAggregation -->
<g id="node1" class="node">
<title>settlementContentAggregation</title>
<polygon fill="#efefef" stroke="none" points="1060.21,-727.8 1060.21,-763.4 1419.65,-763.4 1419.65,-727.8 1060.21,-727.8"/>
<polygon fill="none" stroke="black" points="1060.21,-727.8 1060.21,-763.4 1419.65,-763.4 1419.65,-727.8 1060.21,-727.8"/>
<text text-anchor="start" x="1067.21" y="-741.2" font-family="Arial Bold" font-size="18.00">settlementContentAggregation</text>
<text text-anchor="start" x="1288.16" y="-741.2" font-family="Arial" font-size="14.00">    </text>
<text text-anchor="start" x="1319.27" y="-741.2" font-family="Arial" font-size="14.00" fill="#666666">[BASE TABLE]</text>
<polygon fill="none" stroke="black" points="1060.21,-697 1060.21,-727.8 1419.65,-727.8 1419.65,-697 1060.21,-697"/>
<text text-anchor="start" x="1067.21" y="-709.2" font-family="Arial" font-size="14.00">settlementContentAggregationId </text>
<text text-anchor="start" x="1271.9" y="-709.2" font-family="Arial" font-size="14.00" fill="#666666">[bigint unsigned]</text>
<polygon fill="none" stroke="black" points="1060.21,-666.2 1060.21,-697 1419.65,-697 1419.65,-666.2 1060.21,-666.2"/>
<text text-anchor="start" x="1067.21" y="-678.4" font-family="Arial" font-size="14.00">settlementWindowContentId </text>
<text text-anchor="start" x="1246.19" y="-678.4" font-family="Arial" font-size="14.00" fill="#666666">[bigint unsigned]</text>
<polygon fill="none" stroke="black" points="1060.21,-635.4 1060.21,-666.2 1419.65,-666.2 1419.65,-635.4 1060.21,-635.4"/>
<text text-anchor="start" x="1067.21" y="-647.6" font-family="Arial" font-size="14.00">participantCurrencyId </text>
<text text-anchor="start" x="1204.16" y="-647.6" font-family="Arial" font-size="14.00" fill="#666666">[int unsigned]</text>
<polygon fill="none" stroke="black" points="1060.21,-604.6 1060.21,-635.4 1419.65,-635.4 1419.65,-604.6 1060.21,-604.6"/>
<text text-anchor="start" x="1067.21" y="-616.8" font-family="Arial" font-size="14.00">transferParticipantRoleTypeId </text>
<text text-anchor="start" x="1256.3" y="-616.8" font-family="Arial" font-size="14.00" fill="#666666">[int unsigned]</text>
<polygon fill="none" stroke="black" points="1060.21,-573.8 1060.21,-604.6 1419.65,-604.6 1419.65,-573.8 1060.21,-573.8"/>
<text text-anchor="start" x="1067.21" y="-586" font-family="Arial" font-size="14.00">ledgerEntryTypeId </text>
<text text-anchor="start" x="1185.49" y="-586" font-family="Arial" font-size="14.00" fill="#666666">[int unsigned]</text>
<polygon fill="none" stroke="black" points="1060.21,-543 1060.21,-573.8 1419.65,-573.8 1419.65,-543 1060.21,-543"/>
<text text-anchor="start" x="1067.21" y="-555.2" font-family="Arial" font-size="14.00">amount </text>
<text text-anchor="start" x="1117.79" y="-555.2" font-family="Arial" font-size="14.00" fill="#666666">[decimal(18,4)]</text>
<polygon fill="none" stroke="black" points="1060.21,-512.2 1060.21,-543 1419.65,-543 1419.65,-512.2 1060.21,-512.2"/>
<text text-anchor="start" x="1067.21" y="-524.4" font-family="Arial" font-size="14.00">createdDate </text>
<text text-anchor="start" x="1147.37" y="-524.4" font-family="Arial" font-size="14.00" fill="#666666">[datetime]</text>
<polygon fill="none" stroke="black" points="1060.21,-481.4 1060.21,-512.2 1419.65,-512.2 1419.65,-481.4 1060.21,-481.4"/>
<text text-anchor="start" x="1067.21" y="-493.6" font-family="Arial" font-size="14.00">currentStateId </text>
<text text-anchor="start" x="1159.03" y="-493.6" font-family="Arial" font-size="14.00" fill="#666666">[varchar(50)]</text>
<polygon fill="none" stroke="black" points="1060.21,-450.6 1060.21,-481.4 1419.65,-481.4 1419.65,-450.6 1060.21,-450.6"/>
<text text-anchor="start" x="1067.21" y="-462.8" font-family="Arial" font-size="14.00">settlementId </text>
<text text-anchor="start" x="1147.36" y="-462.8" font-family="Arial" font-size="14.00" fill="#666666">[bigint unsigned]</text>
<polygon fill="none" stroke="black" stroke-width="3" points="1058.71,-449.1 1058.71,-764.9 1421.15,-764.9 1421.15,-449.1 1058.71,-449.1"/>
</g>
<!-- settlementWindowContent -->
<g id="node2" class="node">
<title>settlementWindowContent</title>
<polygon fill="#efefef" stroke="none" points="43.2,-289.6 43.2,-325.2 374.65,-325.2 374.65,-289.6 43.2,-289.6"/>
<polygon fill="none" stroke="black" points="43.2,-289.6 43.2,-325.2 374.65,-325.2 374.65,-289.6 43.2,-289.6"/>
<text text-anchor="start" x="50.2" y="-303" font-family="Arial Bold" font-size="18.00">settlementWindowContent</text>
<text text-anchor="start" x="243.16" y="-303" font-family="Arial" font-size="14.00">    </text>
<text text-anchor="start" x="274.28" y="-303" font-family="Arial" font-size="14.00" fill="#666666">[BASE TABLE]</text>
<polygon fill="none" stroke="black" points="43.2,-258.8 43.2,-289.6 374.65,-289.6 374.65,-258.8 43.2,-258.8"/>
<text text-anchor="start" x="50.2" y="-271" font-family="Arial" font-size="14.00">settlementWindowContentId </text>
<text text-anchor="start" x="229.18" y="-271" font-family="Arial" font-size="14.00" fill="#666666">[bigint unsigned]</text>
<polygon fill="none" stroke="black" points="43.2,-228 43.2,-258.8 374.65,-258.8 374.65,-228 43.2,-228"/>
<text text-anchor="start" x="50.2" y="-240.2" font-family="Arial" font-size="14.00">settlementWindowId </text>
<text text-anchor="start" x="180.14" y="-240.2" font-family="Arial" font-size="14.00" fill="#666666">[bigint unsigned]</text>
<polygon fill="none" stroke="black" points="43.2,-197.2 43.2,-228 374.65,-228 374.65,-197.2 43.2,-197.2"/>
<text text-anchor="start" x="50.2" y="-209.4" font-family="Arial" font-size="14.00">ledgerAccountTypeId </text>
<text text-anchor="start" x="186.39" y="-209.4" font-family="Arial" font-size="14.00" fill="#666666">[int unsigned]</text>
<polygon fill="none" stroke="black" points="43.2,-166.4 43.2,-197.2 374.65,-197.2 374.65,-166.4 43.2,-166.4"/>
<text text-anchor="start" x="50.2" y="-178.6" font-family="Arial" font-size="14.00">currencyId </text>
<text text-anchor="start" x="119.45" y="-178.6" font-family="Arial" font-size="14.00" fill="#666666">[varchar(3)]</text>
<polygon fill="none" stroke="black" points="43.2,-135.6 43.2,-166.4 374.65,-166.4 374.65,-135.6 43.2,-135.6"/>
<text text-anchor="start" x="50.2" y="-147.8" font-family="Arial" font-size="14.00">createdDate </text>
<text text-anchor="start" x="130.36" y="-147.8" font-family="Arial" font-size="14.00" fill="#666666">[datetime]</text>
<polygon fill="none" stroke="black" points="43.2,-104.8 43.2,-135.6 374.65,-135.6 374.65,-104.8 43.2,-104.8"/>
<text text-anchor="start" x="50.2" y="-117" font-family="Arial" font-size="14.00">currentStateChangeId </text>
<text text-anchor="start" x="191.07" y="-117" font-family="Arial" font-size="14.00" fill="#666666">[bigint unsigned]</text>
<polygon fill="none" stroke="black" points="43.2,-74 43.2,-104.8 374.65,-104.8 374.65,-74 43.2,-74"/>
<text text-anchor="start" x="50.2" y="-86.2" font-family="Arial" font-size="14.00">settlementId </text>
<text text-anchor="start" x="130.35" y="-86.2" font-family="Arial" font-size="14.00" fill="#666666">[bigint unsigned]</text>
<polygon fill="none" stroke="black" points="43.2,-43.2 43.2,-74 374.65,-74 374.65,-43.2 43.2,-43.2"/>
<text text-anchor="start" x="50.2" y="-55.4" font-family="Arial" font-size="14.00">SettlementModelId </text>
<text text-anchor="start" x="170.82" y="-55.4" font-family="Arial" font-size="14.00" fill="#666666">[int unsigned]</text>
</g>
<!-- settlementContentAggregation&#45;&gt;settlementWindowContent -->
<g id="edge1" class="edge">
<title>settlementContentAggregation:settlementWindowContentId&#45;&gt;settlementWindowContent:settlementWindowContentId</title>
<path fill="none" stroke="black" d="M1049.18,-681.57C743.6,-679.53 650.48,-583.5 426.93,-368.4 392.58,-335.35 423.32,-274.2 375.65,-274.2"/>
<polygon fill="black" stroke="black" points="1048.87,-681.57 1058.86,-686.1 1054.21,-681.58 1058.54,-681.6 1058.54,-681.6 1058.54,-681.6 1054.21,-681.58 1058.89,-677.1 1048.87,-681.57"/>
<text text-anchor="start" x="524.23" y="-691.6" font-family="Arial" font-size="10.00">FOREIGN KEY (settlementWindowContentId) REFERENCES settlementWindowContent (settlementWindowContentId)</text>
</g>
<!-- participantCurrency -->
<g id="node3" class="node">
<title>participantCurrency</title>
<polygon fill="#efefef" stroke="none" points="478.71,-274.2 478.71,-309.8 761.14,-309.8 761.14,-274.2 478.71,-274.2"/>
<polygon fill="none" stroke="black" points="478.71,-274.2 478.71,-309.8 761.14,-309.8 761.14,-274.2 478.71,-274.2"/>
<text text-anchor="start" x="485.71" y="-287.6" font-family="Arial Bold" font-size="18.00">participantCurrency</text>
<text text-anchor="start" x="629.65" y="-287.6" font-family="Arial" font-size="14.00">    </text>
<text text-anchor="start" x="660.77" y="-287.6" font-family="Arial" font-size="14.00" fill="#666666">[BASE TABLE]</text>
<polygon fill="none" stroke="black" points="478.71,-243.4 478.71,-274.2 761.14,-274.2 761.14,-243.4 478.71,-243.4"/>
<text text-anchor="start" x="485.71" y="-255.6" font-family="Arial" font-size="14.00">participantCurrencyId </text>
<text text-anchor="start" x="622.66" y="-255.6" font-family="Arial" font-size="14.00" fill="#666666">[int unsigned]</text>
<polygon fill="none" stroke="black" points="478.71,-212.6 478.71,-243.4 761.14,-243.4 761.14,-212.6 478.71,-212.6"/>
<text text-anchor="start" x="485.71" y="-224.8" font-family="Arial" font-size="14.00">participantId </text>
<text text-anchor="start" x="565.87" y="-224.8" font-family="Arial" font-size="14.00" fill="#666666">[int unsigned]</text>
<polygon fill="none" stroke="black" points="478.71,-181.8 478.71,-212.6 761.14,-212.6 761.14,-181.8 478.71,-181.8"/>
<text text-anchor="start" x="485.71" y="-194" font-family="Arial" font-size="14.00">currencyId </text>
<text text-anchor="start" x="554.96" y="-194" font-family="Arial" font-size="14.00" fill="#666666">[varchar(3)]</text>
<polygon fill="none" stroke="black" points="478.71,-151 478.71,-181.8 761.14,-181.8 761.14,-151 478.71,-151"/>
<text text-anchor="start" x="485.71" y="-163.2" font-family="Arial" font-size="14.00">ledgerAccountTypeId </text>
<text text-anchor="start" x="621.91" y="-163.2" font-family="Arial" font-size="14.00" fill="#666666">[int unsigned]</text>
<polygon fill="none" stroke="black" points="478.71,-120.2 478.71,-151 761.14,-151 761.14,-120.2 478.71,-120.2"/>
<text text-anchor="start" x="485.71" y="-132.4" font-family="Arial" font-size="14.00">isActive </text>
<text text-anchor="start" x="537.84" y="-132.4" font-family="Arial" font-size="14.00" fill="#666666">[tinyint(1)]</text>
<polygon fill="none" stroke="black" points="478.71,-89.4 478.71,-120.2 761.14,-120.2 761.14,-89.4 478.71,-89.4"/>
<text text-anchor="start" x="485.71" y="-101.6" font-family="Arial" font-size="14.00">createdDate </text>
<text text-anchor="start" x="565.87" y="-101.6" font-family="Arial" font-size="14.00" fill="#666666">[datetime]</text>
<polygon fill="none" stroke="black" points="478.71,-58.6 478.71,-89.4 761.14,-89.4 761.14,-58.6 478.71,-58.6"/>
<text text-anchor="start" x="485.71" y="-70.8" font-family="Arial" font-size="14.00">createdBy </text>
<text text-anchor="start" x="552.64" y="-70.8" font-family="Arial" font-size="14.00" fill="#666666">[varchar(128)]</text>
</g>
<!-- settlementContentAggregation&#45;&gt;participantCurrency -->
<g id="edge2" class="edge">
<title>settlementContentAggregation:participantCurrencyId&#45;&gt;participantCurrency:participantCurrencyId</title>
<path fill="none" stroke="black" d="M1049.2,-650.62C893.41,-644.93 902.93,-504.76 813.93,-368.4 784.48,-323.29 816.02,-258.8 762.14,-258.8"/>
<polygon fill="black" stroke="black" points="1048.87,-650.61 1058.79,-655.29 1054.21,-650.71 1058.54,-650.79 1058.54,-650.79 1058.54,-650.79 1054.21,-650.71 1058.95,-646.29 1048.87,-650.61"/>
<text text-anchor="start" x="614.29" y="-660.8" font-family="Arial" font-size="10.00">FOREIGN KEY (participantCurrencyId) REFERENCES participantCurrency (participantCurrencyId)</text>
</g>
<!-- transferParticipantRoleType -->
<g id="node4" class="node">
<title>transferParticipantRoleType</title>
<polygon fill="#efefef" stroke="none" points="865.72,-243.4 865.72,-279 1208.13,-279 1208.13,-243.4 865.72,-243.4"/>
<polygon fill="none" stroke="black" points="865.72,-243.4 865.72,-279 1208.13,-279 1208.13,-243.4 865.72,-243.4"/>
<text text-anchor="start" x="872.72" y="-256.8" font-family="Arial Bold" font-size="18.00">transferParticipantRoleType</text>
<text text-anchor="start" x="1076.64" y="-256.8" font-family="Arial" font-size="14.00">    </text>
<text text-anchor="start" x="1107.76" y="-256.8" font-family="Arial" font-size="14.00" fill="#666666">[BASE TABLE]</text>
<polygon fill="none" stroke="black" points="865.72,-212.6 865.72,-243.4 1208.13,-243.4 1208.13,-212.6 865.72,-212.6"/>
<text text-anchor="start" x="872.72" y="-224.8" font-family="Arial" font-size="14.00">transferParticipantRoleTypeId </text>
<text text-anchor="start" x="1061.81" y="-224.8" font-family="Arial" font-size="14.00" fill="#666666">[int unsigned]</text>
<polygon fill="none" stroke="black" points="865.72,-181.8 865.72,-212.6 1208.13,-212.6 1208.13,-181.8 865.72,-181.8"/>
<text text-anchor="start" x="872.72" y="-194" font-family="Arial" font-size="14.00">name </text>
<text text-anchor="start" x="911.63" y="-194" font-family="Arial" font-size="14.00" fill="#666666">[varchar(50)]</text>
<polygon fill="none" stroke="black" points="865.72,-151 865.72,-181.8 1208.13,-181.8 1208.13,-151 865.72,-151"/>
<text text-anchor="start" x="872.72" y="-163.2" font-family="Arial" font-size="14.00">description </text>
<text text-anchor="start" x="944.31" y="-163.2" font-family="Arial" font-size="14.00" fill="#666666">[varchar(512)]</text>
<polygon fill="none" stroke="black" points="865.72,-120.2 865.72,-151 1208.13,-151 1208.13,-120.2 865.72,-120.2"/>
<text text-anchor="start" x="872.72" y="-132.4" font-family="Arial" font-size="14.00">isActive </text>
<text text-anchor="start" x="924.84" y="-132.4" font-family="Arial" font-size="14.00" fill="#666666">[tinyint(1)]</text>
<polygon fill="none" stroke="black" points="865.72,-89.4 865.72,-120.2 1208.13,-120.2 1208.13,-89.4 865.72,-89.4"/>
<text text-anchor="start" x="872.72" y="-101.6" font-family="Arial" font-size="14.00">createdDate </text>
<text text-anchor="start" x="952.88" y="-101.6" font-family="Arial" font-size="14.00" fill="#666666">[datetime]</text>
</g>
<!-- settlementContentAggregation&#45;&gt;transferParticipantRoleType -->
<g id="edge3" class="edge">
<title>settlementContentAggregation:transferParticipantRoleTypeId&#45;&gt;transferParticipantRoleType:transferParticipantRoleTypeId</title>
<path fill="none" stroke="black" d="M1048.88,-619.43C967.05,-609.93 1013.28,-483.74 1060.21,-404.4 1098.5,-339.66 1169.65,-386.82 1208.13,-322.2 1229.56,-286.23 1251,-228 1209.13,-228"/>
<polygon fill="black" stroke="black" points="1048.89,-619.43 1058.63,-624.47 1054.22,-619.72 1058.54,-619.96 1058.54,-619.96 1058.54,-619.96 1054.22,-619.72 1059.12,-615.49 1048.89,-619.43"/>
<text text-anchor="start" x="502.57" y="-630" font-family="Arial" font-size="10.00">FOREIGN KEY (transferParticipantRoleTypeId) REFERENCES transferParticipantRoleType (transferParticipantRoleTypeId)</text>
</g>
<!-- ledgerEntryType -->
<g id="node5" class="node">
<title>ledgerEntryType</title>
<polygon fill="#efefef" stroke="none" points="1312.71,-258.8 1312.71,-294.4 1573.15,-294.4 1573.15,-258.8 1312.71,-258.8"/>
<polygon fill="none" stroke="black" points="1312.71,-258.8 1312.71,-294.4 1573.15,-294.4 1573.15,-258.8 1312.71,-258.8"/>
<text text-anchor="start" x="1319.71" y="-272.2" font-family="Arial Bold" font-size="18.00">ledgerEntryType</text>
<text text-anchor="start" x="1441.66" y="-272.2" font-family="Arial" font-size="14.00">    </text>
<text text-anchor="start" x="1472.77" y="-272.2" font-family="Arial" font-size="14.00" fill="#666666">[BASE TABLE]</text>
<polygon fill="none" stroke="black" points="1312.71,-228 1312.71,-258.8 1573.15,-258.8 1573.15,-228 1312.71,-228"/>
<text text-anchor="start" x="1319.71" y="-240.2" font-family="Arial" font-size="14.00">ledgerEntryTypeId </text>
<text text-anchor="start" x="1437.99" y="-240.2" font-family="Arial" font-size="14.00" fill="#666666">[int unsigned]</text>
<polygon fill="none" stroke="black" points="1312.71,-197.2 1312.71,-228 1573.15,-228 1573.15,-197.2 1312.71,-197.2"/>
<text text-anchor="start" x="1319.71" y="-209.4" font-family="Arial" font-size="14.00">name </text>
<text text-anchor="start" x="1358.62" y="-209.4" font-family="Arial" font-size="14.00" fill="#666666">[varchar(50)]</text>
<polygon fill="none" stroke="black" points="1312.71,-166.4 1312.71,-197.2 1573.15,-197.2 1573.15,-166.4 1312.71,-166.4"/>
<text text-anchor="start" x="1319.71" y="-178.6" font-family="Arial" font-size="14.00">description </text>
<text text-anchor="start" x="1391.3" y="-178.6" font-family="Arial" font-size="14.00" fill="#666666">[varchar(512)]</text>
<polygon fill="none" stroke="black" points="1312.71,-135.6 1312.71,-166.4 1573.15,-166.4 1573.15,-135.6 1312.71,-135.6"/>
<text text-anchor="start" x="1319.71" y="-147.8" font-family="Arial" font-size="14.00">isActive </text>
<text text-anchor="start" x="1371.83" y="-147.8" font-family="Arial" font-size="14.00" fill="#666666">[tinyint(1)]</text>
<polygon fill="none" stroke="black" points="1312.71,-104.8 1312.71,-135.6 1573.15,-135.6 1573.15,-104.8 1312.71,-104.8"/>
<text text-anchor="start" x="1319.71" y="-117" font-family="Arial" font-size="14.00">createdDate </text>
<text text-anchor="start" x="1399.87" y="-117" font-family="Arial" font-size="14.00" fill="#666666">[datetime]</text>
<polygon fill="none" stroke="black" points="1312.71,-74 1312.71,-104.8 1573.15,-104.8 1573.15,-74 1312.71,-74"/>
<text text-anchor="start" x="1319.71" y="-86.2" font-family="Arial" font-size="14.00">ledgerAccountTypeId </text>
<text text-anchor="start" x="1455.9" y="-86.2" font-family="Arial" font-size="14.00" fill="#666666">[int unsigned]</text>
</g>
<!-- settlementContentAggregation&#45;&gt;ledgerEntryType -->
<g id="edge4" class="edge">
<title>settlementContentAggregation:ledgerEntryTypeId&#45;&gt;ledgerEntryType:ledgerEntryTypeId</title>
<path fill="none" stroke="black" d="M1430.97,-588.53C1498.91,-579.12 1457.87,-472.9 1419.65,-404.4 1392.34,-355.46 1340.14,-386.47 1312.71,-337.6 1292.21,-301.09 1269.84,-243.4 1311.71,-243.4"/>
<polygon fill="black" stroke="black" points="1430.96,-588.53 1420.69,-584.69 1425.63,-588.88 1421.31,-589.16 1421.31,-589.16 1421.31,-589.16 1425.63,-588.88 1421.27,-593.67 1430.96,-588.53"/>
<text text-anchor="start" x="1427.65" y="-599.2" font-family="Arial" font-size="10.00">FOREIGN KEY (ledgerEntryTypeId) REFERENCES ledgerEntryType (ledgerEntryTypeId)</text>
</g>
<!-- settlementWindowState -->
<g id="node6" class="node">
<title>settlementWindowState</title>
<polygon fill="#efefef" stroke="none" points="1677.7,-243.4 1677.7,-279 1988.15,-279 1988.15,-243.4 1677.7,-243.4"/>
<polygon fill="none" stroke="black" points="1677.7,-243.4 1677.7,-279 1988.15,-279 1988.15,-243.4 1677.7,-243.4"/>
<text text-anchor="start" x="1684.7" y="-256.8" font-family="Arial Bold" font-size="18.00">settlementWindowState</text>
<text text-anchor="start" x="1856.66" y="-256.8" font-family="Arial" font-size="14.00">    </text>
<text text-anchor="start" x="1887.78" y="-256.8" font-family="Arial" font-size="14.00" fill="#666666">[BASE TABLE]</text>
<polygon fill="none" stroke="black" points="1677.7,-212.6 1677.7,-243.4 1988.15,-243.4 1988.15,-212.6 1677.7,-212.6"/>
<text text-anchor="start" x="1684.7" y="-224.8" font-family="Arial" font-size="14.00">settlementWindowStateId </text>
<text text-anchor="start" x="1847.34" y="-224.8" font-family="Arial" font-size="14.00" fill="#666666">[varchar(50)]</text>
<polygon fill="none" stroke="black" points="1677.7,-181.8 1677.7,-212.6 1988.15,-212.6 1988.15,-181.8 1677.7,-181.8"/>
<text text-anchor="start" x="1684.7" y="-194" font-family="Arial" font-size="14.00">enumeration </text>
<text text-anchor="start" x="1766.42" y="-194" font-family="Arial" font-size="14.00" fill="#666666">[varchar(50)]</text>
<polygon fill="none" stroke="black" points="1677.7,-151 1677.7,-181.8 1988.15,-181.8 1988.15,-151 1677.7,-151"/>
<text text-anchor="start" x="1684.7" y="-163.2" font-family="Arial" font-size="14.00">description </text>
<text text-anchor="start" x="1756.3" y="-163.2" font-family="Arial" font-size="14.00" fill="#666666">[varchar(512)]</text>
<polygon fill="none" stroke="black" points="1677.7,-120.2 1677.7,-151 1988.15,-151 1988.15,-120.2 1677.7,-120.2"/>
<text text-anchor="start" x="1684.7" y="-132.4" font-family="Arial" font-size="14.00">isActive </text>
<text text-anchor="start" x="1736.83" y="-132.4" font-family="Arial" font-size="14.00" fill="#666666">[tinyint(1)]</text>
<polygon fill="none" stroke="black" points="1677.7,-89.4 1677.7,-120.2 1988.15,-120.2 1988.15,-89.4 1677.7,-89.4"/>
<text text-anchor="start" x="1684.7" y="-101.6" font-family="Arial" font-size="14.00">createdDate </text>
<text text-anchor="start" x="1764.86" y="-101.6" font-family="Arial" font-size="14.00" fill="#666666">[datetime]</text>
</g>
<!-- settlementContentAggregation&#45;&gt;settlementWindowState -->
<g id="edge5" class="edge">
<title>settlementContentAggregation:currentStateId&#45;&gt;settlementWindowState:settlementWindowStateId</title>
<path fill="none" stroke="black" d="M1431.07,-496.65C1529.88,-493.76 1559.62,-448.92 1624.93,-368.4 1666.82,-316.75 1610.2,-228 1676.7,-228"/>
<polygon fill="black" stroke="black" points="1430.98,-496.65 1420.92,-492.3 1425.64,-496.73 1421.31,-496.79 1421.31,-496.79 1421.31,-496.79 1425.64,-496.73 1421.04,-501.29 1430.98,-496.65"/>
<text text-anchor="start" x="1427.65" y="-506.8" font-family="Arial" font-size="10.00">FOREIGN KEY (currentStateId) REFERENCES settlementWindowState (settlementWindowStateId)</text>
</g>
<!-- settlement -->
<g id="node7" class="node">
<title>settlement</title>
<polygon fill="#efefef" stroke="none" points="2092.51,-243.4 2092.51,-279 2349.34,-279 2349.34,-243.4 2092.51,-243.4"/>
<polygon fill="none" stroke="black" points="2092.51,-243.4 2092.51,-279 2349.34,-279 2349.34,-243.4 2092.51,-243.4"/>
<text text-anchor="start" x="2121.69" y="-256.8" font-family="Arial Bold" font-size="18.00">settlement</text>
<text text-anchor="start" x="2195.67" y="-256.8" font-family="Arial" font-size="14.00">    </text>
<text text-anchor="start" x="2226.79" y="-256.8" font-family="Arial" font-size="14.00" fill="#666666">[BASE TABLE]</text>
<polygon fill="none" stroke="black" points="2092.51,-212.6 2092.51,-243.4 2349.34,-243.4 2349.34,-212.6 2092.51,-212.6"/>
<text text-anchor="start" x="2099.51" y="-224.8" font-family="Arial" font-size="14.00">settlementId </text>
<text text-anchor="start" x="2179.66" y="-224.8" font-family="Arial" font-size="14.00" fill="#666666">[bigint unsigned]</text>
<polygon fill="none" stroke="black" points="2092.51,-181.8 2092.51,-212.6 2349.34,-212.6 2349.34,-181.8 2092.51,-181.8"/>
<text text-anchor="start" x="2099.51" y="-194" font-family="Arial" font-size="14.00">reason </text>
<text text-anchor="start" x="2146.21" y="-194" font-family="Arial" font-size="14.00" fill="#666666">[varchar(512)]</text>
<polygon fill="none" stroke="black" points="2092.51,-151 2092.51,-181.8 2349.34,-181.8 2349.34,-151 2092.51,-151"/>
<text text-anchor="start" x="2099.51" y="-163.2" font-family="Arial" font-size="14.00">createdDate </text>
<text text-anchor="start" x="2179.67" y="-163.2" font-family="Arial" font-size="14.00" fill="#666666">[datetime]</text>
<polygon fill="none" stroke="black" points="2092.51,-120.2 2092.51,-151 2349.34,-151 2349.34,-120.2 2092.51,-120.2"/>
<text text-anchor="start" x="2099.51" y="-132.4" font-family="Arial" font-size="14.00">currentStateChangeId </text>
<text text-anchor="start" x="2240.38" y="-132.4" font-family="Arial" font-size="14.00" fill="#666666">[bigint unsigned]</text>
<polygon fill="none" stroke="black" points="2092.51,-89.4 2092.51,-120.2 2349.34,-120.2 2349.34,-89.4 2092.51,-89.4"/>
<text text-anchor="start" x="2099.51" y="-101.6" font-family="Arial" font-size="14.00">settlementModelId </text>
<text text-anchor="start" x="2217.79" y="-101.6" font-family="Arial" font-size="14.00" fill="#666666">[int unsigned]</text>
</g>
<!-- settlementContentAggregation&#45;&gt;settlement -->
<g id="edge6" class="edge">
<title>settlementContentAggregation:settlementId&#45;&gt;settlement:settlementId</title>
<path fill="none" stroke="black" d="M1430.82,-465.98C1577.27,-465.53 1934.78,-454.74 2039.93,-368.4 2091.3,-326.21 2025.03,-228 2091.51,-228"/>
<polygon fill="black" stroke="black" points="1430.98,-465.98 1420.97,-461.5 1425.65,-465.99 1421.31,-466 1421.31,-466 1421.31,-466 1425.65,-465.99 1420.99,-470.5 1430.98,-465.98"/>
<text text-anchor="start" x="1427.65" y="-476" font-family="Arial" font-size="10.00">FOREIGN KEY (settlementId) REFERENCES settlement (settlementId)</text>
</g>
</g>
</svg>
