<?xml version="1.0" encoding="UTF-8" standalone="no"?>
<!DOCTYPE svg PUBLIC "-//W3C//DTD SVG 1.1//EN"
 "http://www.w3.org/Graphics/SVG/1.1/DTD/svg11.dtd">
<!-- Generated by graphviz version 12.1.2 (20240928.0832)
 -->
<!-- Title: settlementDelay Pages: 1 -->
<svg width="720pt" height="818pt"
 viewBox="0.00 0.00 719.55 817.60" xmlns="http://www.w3.org/2000/svg" xmlns:xlink="http://www.w3.org/1999/xlink">
<g id="graph0" class="graph" transform="scale(1 1) rotate(0) translate(4 813.6)">
<title>settlementDelay</title>
<polygon fill="white" stroke="none" points="-4,4 -4,-813.6 715.55,-813.6 715.55,4 -4,4"/>
<!-- settlementDelay -->
<g id="node1" class="node">
<title>settlementDelay</title>
<polygon fill="#efefef" stroke="none" points="46.2,-200.2 46.2,-235.8 301.65,-235.8 301.65,-200.2 46.2,-200.2"/>
<polygon fill="none" stroke="black" points="46.2,-200.2 46.2,-235.8 301.65,-235.8 301.65,-200.2 46.2,-200.2"/>
<text text-anchor="start" x="53.2" y="-213.6" font-family="Arial Bold" font-size="18.00">settlementDelay</text>
<text text-anchor="start" x="170.16" y="-213.6" font-family="Arial" font-size="14.00">    </text>
<text text-anchor="start" x="201.27" y="-213.6" font-family="Arial" font-size="14.00" fill="#666666">[BASE TABLE]</text>
<polygon fill="none" stroke="black" points="46.2,-169.4 46.2,-200.2 301.65,-200.2 301.65,-169.4 46.2,-169.4"/>
<text text-anchor="start" x="53.2" y="-181.6" font-family="Arial" font-size="14.00">settlementDelayId </text>
<text text-anchor="start" x="169.14" y="-181.6" font-family="Arial" font-size="14.00" fill="#666666">[int unsigned]</text>
<polygon fill="none" stroke="black" points="46.2,-138.6 46.2,-169.4 301.65,-169.4 301.65,-138.6 46.2,-138.6"/>
<text text-anchor="start" x="53.2" y="-150.8" font-family="Arial" font-size="14.00">name </text>
<text text-anchor="start" x="92.11" y="-150.8" font-family="Arial" font-size="14.00" fill="#666666">[varchar(50)]</text>
<polygon fill="none" stroke="black" points="46.2,-107.8 46.2,-138.6 301.65,-138.6 301.65,-107.8 46.2,-107.8"/>
<text text-anchor="start" x="53.2" y="-120" font-family="Arial" font-size="14.00">description </text>
<text text-anchor="start" x="124.79" y="-120" font-family="Arial" font-size="14.00" fill="#666666">[varchar(512)]</text>
<polygon fill="none" stroke="black" points="46.2,-77 46.2,-107.8 301.65,-107.8 301.65,-77 46.2,-77"/>
<text text-anchor="start" x="53.2" y="-89.2" font-family="Arial" font-size="14.00">isActive </text>
<text text-anchor="start" x="105.32" y="-89.2" font-family="Arial" font-size="14.00" fill="#666666">[tinyint(1)]</text>
<polygon fill="none" stroke="black" points="46.2,-46.2 46.2,-77 301.65,-77 301.65,-46.2 46.2,-46.2"/>
<text text-anchor="start" x="53.2" y="-58.4" font-family="Arial" font-size="14.00">createdDate </text>
<text text-anchor="start" x="133.36" y="-58.4" font-family="Arial" font-size="14.00" fill="#666666">[datetime]</text>
<polygon fill="none" stroke="black" stroke-width="3" points="44.7,-44.7 44.7,-237.3 303.15,-237.3 303.15,-44.7 44.7,-44.7"/>
</g>
<!-- settlementModel -->
<g id="node2" class="node">
<title>settlementModel</title>
<polygon fill="#efefef" stroke="none" points="44.19,-730.8 44.19,-766.4 303.65,-766.4 303.65,-730.8 44.19,-730.8"/>
<polygon fill="none" stroke="black" points="44.19,-730.8 44.19,-766.4 303.65,-766.4 303.65,-730.8 44.19,-730.8"/>
<text text-anchor="start" x="51.19" y="-744.2" font-family="Arial Bold" font-size="18.00">settlementModel</text>
<text text-anchor="start" x="172.16" y="-744.2" font-family="Arial" font-size="14.00">    </text>
<text text-anchor="start" x="203.28" y="-744.2" font-family="Arial" font-size="14.00" fill="#666666">[BASE TABLE]</text>
<polygon fill="none" stroke="black" points="44.19,-700 44.19,-730.8 303.65,-730.8 303.65,-700 44.19,-700"/>
<text text-anchor="start" x="51.19" y="-712.2" font-family="Arial" font-size="14.00">settlementModelId </text>
<text text-anchor="start" x="169.47" y="-712.2" font-family="Arial" font-size="14.00" fill="#666666">[int unsigned]</text>
<polygon fill="none" stroke="black" points="44.19,-669.2 44.19,-700 303.65,-700 303.65,-669.2 44.19,-669.2"/>
<text text-anchor="start" x="51.19" y="-681.4" font-family="Arial" font-size="14.00">name </text>
<text text-anchor="start" x="90.1" y="-681.4" font-family="Arial" font-size="14.00" fill="#666666">[varchar(50)]</text>
<polygon fill="none" stroke="black" points="44.19,-638.4 44.19,-669.2 303.65,-669.2 303.65,-638.4 44.19,-638.4"/>
<text text-anchor="start" x="51.19" y="-650.6" font-family="Arial" font-size="14.00">isActive </text>
<text text-anchor="start" x="103.32" y="-650.6" font-family="Arial" font-size="14.00" fill="#666666">[tinyint(1)]</text>
<polygon fill="none" stroke="black" points="44.19,-607.6 44.19,-638.4 303.65,-638.4 303.65,-607.6 44.19,-607.6"/>
<text text-anchor="start" x="51.19" y="-619.8" font-family="Arial" font-size="14.00">settlementGranularityId </text>
<text text-anchor="start" x="199.81" y="-619.8" font-family="Arial" font-size="14.00" fill="#666666">[int unsigned]</text>
<polygon fill="none" stroke="black" points="44.19,-576.8 44.19,-607.6 303.65,-607.6 303.65,-576.8 44.19,-576.8"/>
<text text-anchor="start" x="51.19" y="-589" font-family="Arial" font-size="14.00">settlementInterchangeId </text>
<text text-anchor="start" x="205.29" y="-589" font-family="Arial" font-size="14.00" fill="#666666">[int unsigned]</text>
<polygon fill="none" stroke="black" points="44.19,-546 44.19,-576.8 303.65,-576.8 303.65,-546 44.19,-546"/>
<text text-anchor="start" x="51.19" y="-558.2" font-family="Arial" font-size="14.00">settlementDelayId </text>
<text text-anchor="start" x="167.14" y="-558.2" font-family="Arial" font-size="14.00" fill="#666666">[int unsigned]</text>
<polygon fill="none" stroke="black" points="44.19,-515.2 44.19,-546 303.65,-546 303.65,-515.2 44.19,-515.2"/>
<text text-anchor="start" x="51.19" y="-527.4" font-family="Arial" font-size="14.00">currencyId </text>
<text text-anchor="start" x="120.44" y="-527.4" font-family="Arial" font-size="14.00" fill="#666666">[varchar(3)]</text>
<polygon fill="none" stroke="black" points="44.19,-484.4 44.19,-515.2 303.65,-515.2 303.65,-484.4 44.19,-484.4"/>
<text text-anchor="start" x="51.19" y="-496.6" font-family="Arial" font-size="14.00">requireLiquidityCheck </text>
<text text-anchor="start" x="189.71" y="-496.6" font-family="Arial" font-size="14.00" fill="#666666">[tinyint(1)]</text>
<polygon fill="none" stroke="black" points="44.19,-453.6 44.19,-484.4 303.65,-484.4 303.65,-453.6 44.19,-453.6"/>
<text text-anchor="start" x="51.19" y="-465.8" font-family="Arial" font-size="14.00">ledgerAccountTypeId </text>
<text text-anchor="start" x="187.38" y="-465.8" font-family="Arial" font-size="14.00" fill="#666666">[int unsigned]</text>
<polygon fill="none" stroke="black" points="44.19,-422.8 44.19,-453.6 303.65,-453.6 303.65,-422.8 44.19,-422.8"/>
<text text-anchor="start" x="51.19" y="-435" font-family="Arial" font-size="14.00">autoPositionReset </text>
<text text-anchor="start" x="168.71" y="-435" font-family="Arial" font-size="14.00" fill="#666666">[tinyint(1)]</text>
<polygon fill="none" stroke="black" points="44.19,-392 44.19,-422.8 303.65,-422.8 303.65,-392 44.19,-392"/>
<text text-anchor="start" x="51.19" y="-404.2" font-family="Arial" font-size="14.00">adjustPosition </text>
<text text-anchor="start" x="142.25" y="-404.2" font-family="Arial" font-size="14.00" fill="#666666">[tinyint(1)]</text>
<polygon fill="none" stroke="black" points="44.19,-361.2 44.19,-392 303.65,-392 303.65,-361.2 44.19,-361.2"/>
<text text-anchor="start" x="51.19" y="-373.4" font-family="Arial" font-size="14.00">settlementAccountTypeId </text>
<text text-anchor="start" x="213.05" y="-373.4" font-family="Arial" font-size="14.00" fill="#666666">[int]</text>
</g>
<!-- settlementModel&#45;&gt;settlementDelay -->
<g id="edge1" class="edge">
<title>settlementModel:settlementDelayId&#45;&gt;settlementDelay:settlementDelayId</title>
<path fill="none" stroke="black" d="M314.52,-559.55C388.04,-531.14 382.9,-184.8 302.65,-184.8"/>
<polygon fill="black" stroke="black" points="314.81,-559.5 304.15,-556.92 309.57,-560.48 305.31,-561.28 305.31,-561.28 305.31,-561.28 309.57,-560.48 305.81,-565.76 314.81,-559.5"/>
<text text-anchor="start" x="311.65" y="-571.4" font-family="Arial" font-size="10.00">FOREIGN KEY (settlementDelayId) REFERENCES settlementDelay (settlementDelayId)</text>
</g>
</g>
</svg>
