<?xml version="1.0" encoding="UTF-8" standalone="no"?>
<!DOCTYPE svg PUBLIC "-//W3C//DTD SVG 1.1//EN"
 "http://www.w3.org/Graphics/SVG/1.1/DTD/svg11.dtd">
<!-- Generated by graphviz version 12.1.2 (20240928.0832)
 -->
<!-- Title: settlementParticipantCurrency Pages: 1 -->
<svg width="1641pt" height="725pt"
 viewBox="0.00 0.00 1641.08 725.20" xmlns="http://www.w3.org/2000/svg" xmlns:xlink="http://www.w3.org/1999/xlink">
<g id="graph0" class="graph" transform="scale(1 1) rotate(0) translate(4 721.2)">
<title>settlementParticipantCurrency</title>
<polygon fill="white" stroke="none" points="-4,4 -4,-721.2 1637.08,-721.2 1637.08,4 -4,4"/>
<!-- settlementParticipantCurrency -->
<g id="node1" class="node">
<title>settlementParticipantCurrency</title>
<polygon fill="#efefef" stroke="none" points="666.95,-635.4 666.95,-671 1024.37,-671 1024.37,-635.4 666.95,-635.4"/>
<polygon fill="none" stroke="black" points="666.95,-635.4 666.95,-671 1024.37,-671 1024.37,-635.4 666.95,-635.4"/>
<text text-anchor="start" x="673.95" y="-648.8" font-family="Arial Bold" font-size="18.00">settlementParticipantCurrency</text>
<text text-anchor="start" x="892.88" y="-648.8" font-family="Arial" font-size="14.00">    </text>
<text text-anchor="start" x="924" y="-648.8" font-family="Arial" font-size="14.00" fill="#666666">[BASE TABLE]</text>
<polygon fill="none" stroke="black" points="666.95,-604.6 666.95,-635.4 1024.37,-635.4 1024.37,-604.6 666.95,-604.6"/>
<text text-anchor="start" x="673.95" y="-616.8" font-family="Arial" font-size="14.00">settlementParticipantCurrencyId </text>
<text text-anchor="start" x="877.04" y="-616.8" font-family="Arial" font-size="14.00" fill="#666666">[bigint unsigned]</text>
<polygon fill="none" stroke="black" points="666.95,-573.8 666.95,-604.6 1024.37,-604.6 1024.37,-573.8 666.95,-573.8"/>
<text text-anchor="start" x="673.95" y="-586" font-family="Arial" font-size="14.00">settlementId </text>
<text text-anchor="start" x="754.1" y="-586" font-family="Arial" font-size="14.00" fill="#666666">[bigint unsigned]</text>
<polygon fill="none" stroke="black" points="666.95,-543 666.95,-573.8 1024.37,-573.8 1024.37,-543 666.95,-543"/>
<text text-anchor="start" x="673.95" y="-555.2" font-family="Arial" font-size="14.00">participantCurrencyId </text>
<text text-anchor="start" x="810.9" y="-555.2" font-family="Arial" font-size="14.00" fill="#666666">[int unsigned]</text>
<polygon fill="none" stroke="black" points="666.95,-512.2 666.95,-543 1024.37,-543 1024.37,-512.2 666.95,-512.2"/>
<text text-anchor="start" x="673.95" y="-524.4" font-family="Arial" font-size="14.00">netAmount </text>
<text text-anchor="start" x="745.55" y="-524.4" font-family="Arial" font-size="14.00" fill="#666666">[decimal(18,4)]</text>
<polygon fill="none" stroke="black" points="666.95,-481.4 666.95,-512.2 1024.37,-512.2 1024.37,-481.4 666.95,-481.4"/>
<text text-anchor="start" x="673.95" y="-493.6" font-family="Arial" font-size="14.00">createdDate </text>
<text text-anchor="start" x="754.11" y="-493.6" font-family="Arial" font-size="14.00" fill="#666666">[datetime]</text>
<polygon fill="none" stroke="black" points="666.95,-450.6 666.95,-481.4 1024.37,-481.4 1024.37,-450.6 666.95,-450.6"/>
<text text-anchor="start" x="673.95" y="-462.8" font-family="Arial" font-size="14.00">currentStateChangeId </text>
<text text-anchor="start" x="814.82" y="-462.8" font-family="Arial" font-size="14.00" fill="#666666">[bigint unsigned]</text>
<polygon fill="none" stroke="black" points="666.95,-419.8 666.95,-450.6 1024.37,-450.6 1024.37,-419.8 666.95,-419.8"/>
<text text-anchor="start" x="673.95" y="-432" font-family="Arial" font-size="14.00">settlementTransferId </text>
<text text-anchor="start" x="806.23" y="-432" font-family="Arial" font-size="14.00" fill="#666666">[varchar(36)]</text>
<polygon fill="none" stroke="black" stroke-width="3" points="665.45,-418.3 665.45,-672.5 1025.87,-672.5 1025.87,-418.3 665.45,-418.3"/>
</g>
<!-- settlementParticipantCurrencyStateChange -->
<g id="node2" class="node">
<title>settlementParticipantCurrencyStateChange</title>
<polygon fill="#efefef" stroke="none" points="393.47,-243.4 393.47,-279 841.86,-279 841.86,-243.4 393.47,-243.4"/>
<polygon fill="none" stroke="black" points="393.47,-243.4 393.47,-279 841.86,-279 841.86,-243.4 393.47,-243.4"/>
<text text-anchor="start" x="400.47" y="-256.8" font-family="Arial Bold" font-size="18.00">settlementParticipantCurrencyStateChange</text>
<text text-anchor="start" x="710.37" y="-256.8" font-family="Arial" font-size="14.00">    </text>
<text text-anchor="start" x="741.48" y="-256.8" font-family="Arial" font-size="14.00" fill="#666666">[BASE TABLE]</text>
<polygon fill="none" stroke="black" points="393.47,-212.6 393.47,-243.4 841.86,-243.4 841.86,-212.6 393.47,-212.6"/>
<text text-anchor="start" x="400.47" y="-224.8" font-family="Arial" font-size="14.00">settlementParticipantCurrencyStateChangeId </text>
<text text-anchor="start" x="685.28" y="-224.8" font-family="Arial" font-size="14.00" fill="#666666">[bigint unsigned]</text>
<polygon fill="none" stroke="black" points="393.47,-181.8 393.47,-212.6 841.86,-212.6 841.86,-181.8 393.47,-181.8"/>
<text text-anchor="start" x="400.47" y="-194" font-family="Arial" font-size="14.00">settlementParticipantCurrencyId </text>
<text text-anchor="start" x="603.55" y="-194" font-family="Arial" font-size="14.00" fill="#666666">[bigint unsigned]</text>
<polygon fill="none" stroke="black" points="393.47,-151 393.47,-181.8 841.86,-181.8 841.86,-151 393.47,-151"/>
<text text-anchor="start" x="400.47" y="-163.2" font-family="Arial" font-size="14.00">settlementStateId </text>
<text text-anchor="start" x="513.31" y="-163.2" font-family="Arial" font-size="14.00" fill="#666666">[varchar(50)]</text>
<polygon fill="none" stroke="black" points="393.47,-120.2 393.47,-151 841.86,-151 841.86,-120.2 393.47,-120.2"/>
<text text-anchor="start" x="400.47" y="-132.4" font-family="Arial" font-size="14.00">reason </text>
<text text-anchor="start" x="447.16" y="-132.4" font-family="Arial" font-size="14.00" fill="#666666">[varchar(512)]</text>
<polygon fill="none" stroke="black" points="393.47,-89.4 393.47,-120.2 841.86,-120.2 841.86,-89.4 393.47,-89.4"/>
<text text-anchor="start" x="400.47" y="-101.6" font-family="Arial" font-size="14.00">externalReference </text>
<text text-anchor="start" x="518.75" y="-101.6" font-family="Arial" font-size="14.00" fill="#666666">[varchar(50)]</text>
<polygon fill="none" stroke="black" points="393.47,-58.6 393.47,-89.4 841.86,-89.4 841.86,-58.6 393.47,-58.6"/>
<text text-anchor="start" x="400.47" y="-70.8" font-family="Arial" font-size="14.00">createdDate </text>
<text text-anchor="start" x="480.62" y="-70.8" font-family="Arial" font-size="14.00" fill="#666666">[datetime]</text>
</g>
<!-- settlementParticipantCurrency&#45;&gt;settlementParticipantCurrencyStateChange -->
<g id="edge4" class="edge">
<title>settlementParticipantCurrency:currentStateChangeId&#45;&gt;settlementParticipantCurrencyStateChange:settlementParticipantCurrencyStateChangeId</title>
<path fill="none" stroke="black" d="M655.9,-464.5C628.19,-455.05 644.49,-403.28 666.95,-373.6 715.85,-309 792.97,-386.81 841.86,-322.2 867.12,-288.81 884.73,-228 842.86,-228"/>
<polygon fill="black" stroke="black" points="655.73,-464.47 664.96,-470.4 661.01,-465.26 665.29,-465.9 665.29,-465.9 665.29,-465.9 661.01,-465.26 666.29,-461.5 655.73,-464.47"/>
<text text-anchor="start" x="7" y="-476" font-family="Arial" font-size="10.00">FOREIGN KEY (currentStateChangeId) REFERENCES settlementParticipantCurrencyStateChange (settlementParticipantCurrencyStateChangeId)</text>
</g>
<!-- settlement -->
<g id="node3" class="node">
<title>settlement</title>
<polygon fill="#efefef" stroke="none" points="946.24,-228 946.24,-263.6 1203.08,-263.6 1203.08,-228 946.24,-228"/>
<polygon fill="none" stroke="black" points="946.24,-228 946.24,-263.6 1203.08,-263.6 1203.08,-228 946.24,-228"/>
<text text-anchor="start" x="975.43" y="-241.4" font-family="Arial Bold" font-size="18.00">settlement</text>
<text text-anchor="start" x="1049.41" y="-241.4" font-family="Arial" font-size="14.00">    </text>
<text text-anchor="start" x="1080.52" y="-241.4" font-family="Arial" font-size="14.00" fill="#666666">[BASE TABLE]</text>
<polygon fill="none" stroke="black" points="946.24,-197.2 946.24,-228 1203.08,-228 1203.08,-197.2 946.24,-197.2"/>
<text text-anchor="start" x="953.24" y="-209.4" font-family="Arial" font-size="14.00">settlementId </text>
<text text-anchor="start" x="1033.4" y="-209.4" font-family="Arial" font-size="14.00" fill="#666666">[bigint unsigned]</text>
<polygon fill="none" stroke="black" points="946.24,-166.4 946.24,-197.2 1203.08,-197.2 1203.08,-166.4 946.24,-166.4"/>
<text text-anchor="start" x="953.24" y="-178.6" font-family="Arial" font-size="14.00">reason </text>
<text text-anchor="start" x="999.94" y="-178.6" font-family="Arial" font-size="14.00" fill="#666666">[varchar(512)]</text>
<polygon fill="none" stroke="black" points="946.24,-135.6 946.24,-166.4 1203.08,-166.4 1203.08,-135.6 946.24,-135.6"/>
<text text-anchor="start" x="953.24" y="-147.8" font-family="Arial" font-size="14.00">createdDate </text>
<text text-anchor="start" x="1033.4" y="-147.8" font-family="Arial" font-size="14.00" fill="#666666">[datetime]</text>
<polygon fill="none" stroke="black" points="946.24,-104.8 946.24,-135.6 1203.08,-135.6 1203.08,-104.8 946.24,-104.8"/>
<text text-anchor="start" x="953.24" y="-117" font-family="Arial" font-size="14.00">currentStateChangeId </text>
<text text-anchor="start" x="1094.11" y="-117" font-family="Arial" font-size="14.00" fill="#666666">[bigint unsigned]</text>
<polygon fill="none" stroke="black" points="946.24,-74 946.24,-104.8 1203.08,-104.8 1203.08,-74 946.24,-74"/>
<text text-anchor="start" x="953.24" y="-86.2" font-family="Arial" font-size="14.00">settlementModelId </text>
<text text-anchor="start" x="1071.53" y="-86.2" font-family="Arial" font-size="14.00" fill="#666666">[int unsigned]</text>
</g>
<!-- settlementParticipantCurrency&#45;&gt;settlement -->
<g id="edge2" class="edge">
<title>settlementParticipantCurrency:settlementId&#45;&gt;settlement:settlementId</title>
<path fill="none" stroke="black" d="M1035.42,-588.68C1117.02,-579.71 1063.17,-457.31 1024.37,-373.6 1005.16,-332.15 965.58,-348.19 946.24,-306.8 928.52,-268.87 903.38,-212.6 945.24,-212.6"/>
<polygon fill="black" stroke="black" points="1035.69,-588.66 1025.47,-584.69 1030.36,-588.94 1026.04,-589.17 1026.04,-589.17 1026.04,-589.17 1030.36,-588.94 1025.94,-593.68 1035.69,-588.66"/>
<text text-anchor="start" x="1032.37" y="-599.2" font-family="Arial" font-size="10.00">FOREIGN KEY (settlementId) REFERENCES settlement (settlementId)</text>
</g>
<!-- participantCurrency -->
<g id="node4" class="node">
<title>participantCurrency</title>
<polygon fill="#efefef" stroke="none" points="1307.45,-258.8 1307.45,-294.4 1589.88,-294.4 1589.88,-258.8 1307.45,-258.8"/>
<polygon fill="none" stroke="black" points="1307.45,-258.8 1307.45,-294.4 1589.88,-294.4 1589.88,-258.8 1307.45,-258.8"/>
<text text-anchor="start" x="1314.45" y="-272.2" font-family="Arial Bold" font-size="18.00">participantCurrency</text>
<text text-anchor="start" x="1458.39" y="-272.2" font-family="Arial" font-size="14.00">    </text>
<text text-anchor="start" x="1489.5" y="-272.2" font-family="Arial" font-size="14.00" fill="#666666">[BASE TABLE]</text>
<polygon fill="none" stroke="black" points="1307.45,-228 1307.45,-258.8 1589.88,-258.8 1589.88,-228 1307.45,-228"/>
<text text-anchor="start" x="1314.45" y="-240.2" font-family="Arial" font-size="14.00">participantCurrencyId </text>
<text text-anchor="start" x="1451.4" y="-240.2" font-family="Arial" font-size="14.00" fill="#666666">[int unsigned]</text>
<polygon fill="none" stroke="black" points="1307.45,-197.2 1307.45,-228 1589.88,-228 1589.88,-197.2 1307.45,-197.2"/>
<text text-anchor="start" x="1314.45" y="-209.4" font-family="Arial" font-size="14.00">participantId </text>
<text text-anchor="start" x="1394.61" y="-209.4" font-family="Arial" font-size="14.00" fill="#666666">[int unsigned]</text>
<polygon fill="none" stroke="black" points="1307.45,-166.4 1307.45,-197.2 1589.88,-197.2 1589.88,-166.4 1307.45,-166.4"/>
<text text-anchor="start" x="1314.45" y="-178.6" font-family="Arial" font-size="14.00">currencyId </text>
<text text-anchor="start" x="1383.7" y="-178.6" font-family="Arial" font-size="14.00" fill="#666666">[varchar(3)]</text>
<polygon fill="none" stroke="black" points="1307.45,-135.6 1307.45,-166.4 1589.88,-166.4 1589.88,-135.6 1307.45,-135.6"/>
<text text-anchor="start" x="1314.45" y="-147.8" font-family="Arial" font-size="14.00">ledgerAccountTypeId </text>
<text text-anchor="start" x="1450.64" y="-147.8" font-family="Arial" font-size="14.00" fill="#666666">[int unsigned]</text>
<polygon fill="none" stroke="black" points="1307.45,-104.8 1307.45,-135.6 1589.88,-135.6 1589.88,-104.8 1307.45,-104.8"/>
<text text-anchor="start" x="1314.45" y="-117" font-family="Arial" font-size="14.00">isActive </text>
<text text-anchor="start" x="1366.57" y="-117" font-family="Arial" font-size="14.00" fill="#666666">[tinyint(1)]</text>
<polygon fill="none" stroke="black" points="1307.45,-74 1307.45,-104.8 1589.88,-104.8 1589.88,-74 1307.45,-74"/>
<text text-anchor="start" x="1314.45" y="-86.2" font-family="Arial" font-size="14.00">createdDate </text>
<text text-anchor="start" x="1394.61" y="-86.2" font-family="Arial" font-size="14.00" fill="#666666">[datetime]</text>
<polygon fill="none" stroke="black" points="1307.45,-43.2 1307.45,-74 1589.88,-74 1589.88,-43.2 1307.45,-43.2"/>
<text text-anchor="start" x="1314.45" y="-55.4" font-family="Arial" font-size="14.00">createdBy </text>
<text text-anchor="start" x="1381.37" y="-55.4" font-family="Arial" font-size="14.00" fill="#666666">[varchar(128)]</text>
</g>
<!-- settlementParticipantCurrency&#45;&gt;participantCurrency -->
<g id="edge3" class="edge">
<title>settlementParticipantCurrency:participantCurrencyId&#45;&gt;participantCurrency:participantCurrencyId</title>
<path fill="none" stroke="black" d="M1035.51,-558.21C1167.34,-553.13 1171.89,-447.69 1255.66,-337.6 1284.46,-299.75 1258.88,-243.4 1306.45,-243.4"/>
<polygon fill="black" stroke="black" points="1035.7,-558.2 1025.62,-553.89 1030.37,-558.31 1026.04,-558.39 1026.04,-558.39 1026.04,-558.39 1030.37,-558.31 1025.79,-562.89 1035.7,-558.2"/>
<text text-anchor="start" x="1032.37" y="-568.4" font-family="Arial" font-size="10.00">FOREIGN KEY (participantCurrencyId) REFERENCES participantCurrency (participantCurrencyId)</text>
</g>
<!-- settlementParticipantCurrencyStateChange&#45;&gt;settlementParticipantCurrency -->
<g id="edge1" class="edge">
<title>settlementParticipantCurrencyStateChange:settlementParticipantCurrencyId&#45;&gt;settlementParticipantCurrency:settlementParticipantCurrencyId</title>
<path fill="none" stroke="black" d="M853.17,-198.29C895.21,-208.06 873.04,-280.89 841.86,-322.2 793.05,-386.87 715.63,-308.83 666.95,-373.6 601.16,-461.14 556.44,-620 665.95,-620"/>
<polygon fill="black" stroke="black" points="853.13,-198.29 843.66,-192.76 847.83,-197.73 843.52,-197.27 843.52,-197.27 843.52,-197.27 847.83,-197.73 842.72,-201.71 853.13,-198.29"/>
<text text-anchor="start" x="256.22" y="-207.2" font-family="Arial" font-size="10.00">FOREIGN KEY (settlementParticipantCurrencyId) REFERENCES settlementParticipantCurrency (settlementParticipantCurrencyId)</text>
</g>
</g>
</svg>
