<?xml version="1.0" encoding="UTF-8" standalone="no"?>
<!DOCTYPE svg PUBLIC "-//W3C//DTD SVG 1.1//EN"
 "http://www.w3.org/Graphics/SVG/1.1/DTD/svg11.dtd">
<!-- Generated by graphviz version 12.1.2 (20240928.0832)
 -->
<!-- Title: settlementWindow Pages: 1 -->
<svg width="2332pt" height="976pt"
 viewBox="0.00 0.00 2331.85 975.60" xmlns="http://www.w3.org/2000/svg" xmlns:xlink="http://www.w3.org/1999/xlink">
<g id="graph0" class="graph" transform="scale(1 1) rotate(0) translate(4 971.6)">
<title>settlementWindow</title>
<polygon fill="white" stroke="none" points="-4,4 -4,-971.6 2327.85,-971.6 2327.85,4 -4,4"/>
<!-- settlementWindow -->
<g id="node1" class="node">
<title>settlementWindow</title>
<polygon fill="#efefef" stroke="none" points="1034.45,-481.4 1034.45,-517 1308.91,-517 1308.91,-481.4 1034.45,-481.4"/>
<polygon fill="none" stroke="black" points="1034.45,-481.4 1034.45,-517 1308.91,-517 1308.91,-481.4 1034.45,-481.4"/>
<text text-anchor="start" x="1041.45" y="-494.8" font-family="Arial Bold" font-size="18.00">settlementWindow</text>
<text text-anchor="start" x="1177.42" y="-494.8" font-family="Arial" font-size="14.00">    </text>
<text text-anchor="start" x="1208.53" y="-494.8" font-family="Arial" font-size="14.00" fill="#666666">[BASE TABLE]</text>
<polygon fill="none" stroke="black" points="1034.45,-450.6 1034.45,-481.4 1308.91,-481.4 1308.91,-450.6 1034.45,-450.6"/>
<text text-anchor="start" x="1041.45" y="-462.8" font-family="Arial" font-size="14.00">settlementWindowId </text>
<text text-anchor="start" x="1171.4" y="-462.8" font-family="Arial" font-size="14.00" fill="#666666">[bigint unsigned]</text>
<polygon fill="none" stroke="black" points="1034.45,-419.8 1034.45,-450.6 1308.91,-450.6 1308.91,-419.8 1034.45,-419.8"/>
<text text-anchor="start" x="1041.45" y="-432" font-family="Arial" font-size="14.00">reason </text>
<text text-anchor="start" x="1088.15" y="-432" font-family="Arial" font-size="14.00" fill="#666666">[varchar(512)]</text>
<polygon fill="none" stroke="black" points="1034.45,-389 1034.45,-419.8 1308.91,-419.8 1308.91,-389 1034.45,-389"/>
<text text-anchor="start" x="1041.45" y="-401.2" font-family="Arial" font-size="14.00">createdDate </text>
<text text-anchor="start" x="1121.61" y="-401.2" font-family="Arial" font-size="14.00" fill="#666666">[datetime]</text>
<polygon fill="none" stroke="black" points="1034.45,-358.2 1034.45,-389 1308.91,-389 1308.91,-358.2 1034.45,-358.2"/>
<text text-anchor="start" x="1041.45" y="-370.4" font-family="Arial" font-size="14.00">currentStateChangeId </text>
<text text-anchor="start" x="1182.32" y="-370.4" font-family="Arial" font-size="14.00" fill="#666666">[bigint unsigned]</text>
<polygon fill="none" stroke="black" stroke-width="3" points="1032.95,-356.7 1032.95,-518.5 1310.41,-518.5 1310.41,-356.7 1032.95,-356.7"/>
</g>
<!-- settlementWindowStateChange -->
<g id="node6" class="node">
<title>settlementWindowStateChange</title>
<polygon fill="#efefef" stroke="none" points="988.96,-197.2 988.96,-232.8 1354.39,-232.8 1354.39,-197.2 988.96,-197.2"/>
<polygon fill="none" stroke="black" points="988.96,-197.2 988.96,-232.8 1354.39,-232.8 1354.39,-197.2 988.96,-197.2"/>
<text text-anchor="start" x="995.96" y="-210.6" font-family="Arial Bold" font-size="18.00">settlementWindowStateChange</text>
<text text-anchor="start" x="1222.91" y="-210.6" font-family="Arial" font-size="14.00">    </text>
<text text-anchor="start" x="1254.02" y="-210.6" font-family="Arial" font-size="14.00" fill="#666666">[BASE TABLE]</text>
<polygon fill="none" stroke="black" points="988.96,-166.4 988.96,-197.2 1354.39,-197.2 1354.39,-166.4 988.96,-166.4"/>
<text text-anchor="start" x="995.96" y="-178.6" font-family="Arial" font-size="14.00">settlementWindowStateChangeId </text>
<text text-anchor="start" x="1207.64" y="-178.6" font-family="Arial" font-size="14.00" fill="#666666">[bigint unsigned]</text>
<polygon fill="none" stroke="black" points="988.96,-135.6 988.96,-166.4 1354.39,-166.4 1354.39,-135.6 988.96,-135.6"/>
<text text-anchor="start" x="995.96" y="-147.8" font-family="Arial" font-size="14.00">settlementWindowId </text>
<text text-anchor="start" x="1125.91" y="-147.8" font-family="Arial" font-size="14.00" fill="#666666">[bigint unsigned]</text>
<polygon fill="none" stroke="black" points="988.96,-104.8 988.96,-135.6 1354.39,-135.6 1354.39,-104.8 988.96,-104.8"/>
<text text-anchor="start" x="995.96" y="-117" font-family="Arial" font-size="14.00">settlementWindowStateId </text>
<text text-anchor="start" x="1158.6" y="-117" font-family="Arial" font-size="14.00" fill="#666666">[varchar(50)]</text>
<polygon fill="none" stroke="black" points="988.96,-74 988.96,-104.8 1354.39,-104.8 1354.39,-74 988.96,-74"/>
<text text-anchor="start" x="995.96" y="-86.2" font-family="Arial" font-size="14.00">reason </text>
<text text-anchor="start" x="1042.66" y="-86.2" font-family="Arial" font-size="14.00" fill="#666666">[varchar(512)]</text>
<polygon fill="none" stroke="black" points="988.96,-43.2 988.96,-74 1354.39,-74 1354.39,-43.2 988.96,-43.2"/>
<text text-anchor="start" x="995.96" y="-55.4" font-family="Arial" font-size="14.00">createdDate </text>
<text text-anchor="start" x="1076.12" y="-55.4" font-family="Arial" font-size="14.00" fill="#666666">[datetime]</text>
</g>
<!-- settlementWindow&#45;&gt;settlementWindowStateChange -->
<g id="edge7" class="edge">
<title>settlementWindow:currentStateChangeId&#45;&gt;settlementWindowStateChange:settlementWindowStateChangeId</title>
<path fill="none" stroke="black" d="M1172.34,-347.1C1182.52,-274.79 1307.58,-347.21 1354.39,-276 1377.4,-241.02 1397.26,-181.8 1355.39,-181.8"/>
<polygon fill="black" stroke="black" points="1172.35,-346.89 1167.21,-356.57 1172.01,-352.21 1171.72,-356.53 1171.72,-356.53 1171.72,-356.53 1172.01,-352.21 1176.19,-357.16 1172.35,-346.89"/>
<text text-anchor="start" x="617.22" y="-367.2" font-family="Arial" font-size="10.00">FOREIGN KEY (currentStateChangeId) REFERENCES settlementWindowStateChange (settlementWindowStateChangeId)</text>
</g>
<!-- fxTransferFulfilment -->
<g id="node2" class="node">
<title>fxTransferFulfilment</title>
<polygon fill="#efefef" stroke="none" points="145.46,-858 145.46,-893.6 435.9,-893.6 435.9,-858 145.46,-858"/>
<polygon fill="none" stroke="black" points="145.46,-858 145.46,-893.6 435.9,-893.6 435.9,-858 145.46,-858"/>
<text text-anchor="start" x="152.46" y="-871.4" font-family="Arial Bold" font-size="18.00">fxTransferFulfilment</text>
<text text-anchor="start" x="304.41" y="-871.4" font-family="Arial" font-size="14.00">    </text>
<text text-anchor="start" x="335.53" y="-871.4" font-family="Arial" font-size="14.00" fill="#666666">[BASE TABLE]</text>
<polygon fill="none" stroke="black" points="145.46,-827.2 145.46,-858 435.9,-858 435.9,-827.2 145.46,-827.2"/>
<text text-anchor="start" x="152.46" y="-839.4" font-family="Arial" font-size="14.00">commitRequestId </text>
<text text-anchor="start" x="265.28" y="-839.4" font-family="Arial" font-size="14.00" fill="#666666">[varchar(36)]</text>
<polygon fill="none" stroke="black" points="145.46,-796.4 145.46,-827.2 435.9,-827.2 435.9,-796.4 145.46,-796.4"/>
<text text-anchor="start" x="152.46" y="-808.6" font-family="Arial" font-size="14.00">ilpFulfilment </text>
<text text-anchor="start" x="231.04" y="-808.6" font-family="Arial" font-size="14.00" fill="#666666">[varchar(256)]</text>
<polygon fill="none" stroke="black" points="145.46,-765.6 145.46,-796.4 435.9,-796.4 435.9,-765.6 145.46,-765.6"/>
<text text-anchor="start" x="152.46" y="-777.8" font-family="Arial" font-size="14.00">completedDate </text>
<text text-anchor="start" x="250.51" y="-777.8" font-family="Arial" font-size="14.00" fill="#666666">[datetime]</text>
<polygon fill="none" stroke="black" points="145.46,-734.8 145.46,-765.6 435.9,-765.6 435.9,-734.8 145.46,-734.8"/>
<text text-anchor="start" x="152.46" y="-747" font-family="Arial" font-size="14.00">isValid </text>
<text text-anchor="start" x="197.59" y="-747" font-family="Arial" font-size="14.00" fill="#666666">[tinyint(1)]</text>
<polygon fill="none" stroke="black" points="145.46,-704 145.46,-734.8 435.9,-734.8 435.9,-704 145.46,-704"/>
<text text-anchor="start" x="152.46" y="-716.2" font-family="Arial" font-size="14.00">settlementWindowId </text>
<text text-anchor="start" x="282.4" y="-716.2" font-family="Arial" font-size="14.00" fill="#666666">[bigint unsigned]</text>
<polygon fill="none" stroke="black" points="145.46,-673.2 145.46,-704 435.9,-704 435.9,-673.2 145.46,-673.2"/>
<text text-anchor="start" x="152.46" y="-685.4" font-family="Arial" font-size="14.00">createdDate </text>
<text text-anchor="start" x="232.62" y="-685.4" font-family="Arial" font-size="14.00" fill="#666666">[datetime]</text>
</g>
<!-- fxTransferFulfilment&#45;&gt;settlementWindow -->
<g id="edge1" class="edge">
<title>fxTransferFulfilment:settlementWindowId&#45;&gt;settlementWindow:settlementWindowId</title>
<path fill="none" stroke="black" d="M447.07,-718.34C488.49,-708.63 446.45,-634.3 487.68,-599.2 582.74,-518.28 908.61,-466 1033.45,-466"/>
<polygon fill="black" stroke="black" points="447.18,-718.33 436.77,-714.89 441.87,-718.88 437.57,-719.33 437.57,-719.33 437.57,-719.33 441.87,-718.88 437.7,-723.84 447.18,-718.33"/>
<text text-anchor="start" x="7" y="-729.4" font-family="Arial" font-size="10.00">FOREIGN KEY (settlementWindowId) REFERENCES settlementWindow (settlementWindowId)</text>
</g>
<!-- settlementSettlementWindow -->
<g id="node3" class="node">
<title>settlementSettlementWindow</title>
<polygon fill="#efefef" stroke="none" points="539.96,-827.2 539.96,-862.8 891.4,-862.8 891.4,-827.2 539.96,-827.2"/>
<polygon fill="none" stroke="black" points="539.96,-827.2 539.96,-862.8 891.4,-862.8 891.4,-827.2 539.96,-827.2"/>
<text text-anchor="start" x="546.96" y="-840.6" font-family="Arial Bold" font-size="18.00">settlementSettlementWindow</text>
<text text-anchor="start" x="759.91" y="-840.6" font-family="Arial" font-size="14.00">    </text>
<text text-anchor="start" x="791.03" y="-840.6" font-family="Arial" font-size="14.00" fill="#666666">[BASE TABLE]</text>
<polygon fill="none" stroke="black" points="539.96,-796.4 539.96,-827.2 891.4,-827.2 891.4,-796.4 539.96,-796.4"/>
<text text-anchor="start" x="546.96" y="-808.6" font-family="Arial" font-size="14.00">settlementSettlementWindowId </text>
<text text-anchor="start" x="743.83" y="-808.6" font-family="Arial" font-size="14.00" fill="#666666">[bigint unsigned]</text>
<polygon fill="none" stroke="black" points="539.96,-765.6 539.96,-796.4 891.4,-796.4 891.4,-765.6 539.96,-765.6"/>
<text text-anchor="start" x="546.96" y="-777.8" font-family="Arial" font-size="14.00">settlementId </text>
<text text-anchor="start" x="627.11" y="-777.8" font-family="Arial" font-size="14.00" fill="#666666">[bigint unsigned]</text>
<polygon fill="none" stroke="black" points="539.96,-734.8 539.96,-765.6 891.4,-765.6 891.4,-734.8 539.96,-734.8"/>
<text text-anchor="start" x="546.96" y="-747" font-family="Arial" font-size="14.00">settlementWindowId </text>
<text text-anchor="start" x="676.9" y="-747" font-family="Arial" font-size="14.00" fill="#666666">[bigint unsigned]</text>
<polygon fill="none" stroke="black" points="539.96,-704 539.96,-734.8 891.4,-734.8 891.4,-704 539.96,-704"/>
<text text-anchor="start" x="546.96" y="-716.2" font-family="Arial" font-size="14.00">createdDate </text>
<text text-anchor="start" x="627.12" y="-716.2" font-family="Arial" font-size="14.00" fill="#666666">[datetime]</text>
</g>
<!-- settlementSettlementWindow&#45;&gt;settlementWindow -->
<g id="edge2" class="edge">
<title>settlementSettlementWindow:settlementWindowId&#45;&gt;settlementWindow:settlementWindowId</title>
<path fill="none" stroke="black" d="M902.62,-749.49C958.12,-741.04 913.86,-659.35 943.68,-599.2 975.39,-535.24 962.06,-466 1033.45,-466"/>
<polygon fill="black" stroke="black" points="902.71,-749.48 892.42,-745.69 897.39,-749.85 893.07,-750.15 893.07,-750.15 893.07,-750.15 897.39,-749.85 893.05,-754.67 902.71,-749.48"/>
<text text-anchor="start" x="899.4" y="-760.2" font-family="Arial" font-size="10.00">FOREIGN KEY (settlementWindowId) REFERENCES settlementWindow (settlementWindowId)</text>
</g>
<!-- settlementTransferParticipant -->
<g id="node4" class="node">
<title>settlementTransferParticipant</title>
<polygon fill="#efefef" stroke="none" points="995.98,-888.8 995.98,-924.4 1347.38,-924.4 1347.38,-888.8 995.98,-888.8"/>
<polygon fill="none" stroke="black" points="995.98,-888.8 995.98,-924.4 1347.38,-924.4 1347.38,-888.8 995.98,-888.8"/>
<text text-anchor="start" x="1002.98" y="-902.2" font-family="Arial Bold" font-size="18.00">settlementTransferParticipant</text>
<text text-anchor="start" x="1215.89" y="-902.2" font-family="Arial" font-size="14.00">    </text>
<text text-anchor="start" x="1247.01" y="-902.2" font-family="Arial" font-size="14.00" fill="#666666">[BASE TABLE]</text>
<polygon fill="none" stroke="black" points="995.98,-858 995.98,-888.8 1347.38,-888.8 1347.38,-858 995.98,-858"/>
<text text-anchor="start" x="1002.98" y="-870.2" font-family="Arial" font-size="14.00">settlementTransferParticipantId </text>
<text text-anchor="start" x="1201.4" y="-870.2" font-family="Arial" font-size="14.00" fill="#666666">[bigint unsigned]</text>
<polygon fill="none" stroke="black" points="995.98,-827.2 995.98,-858 1347.38,-858 1347.38,-827.2 995.98,-827.2"/>
<text text-anchor="start" x="1002.98" y="-839.4" font-family="Arial" font-size="14.00">settlementId </text>
<text text-anchor="start" x="1083.13" y="-839.4" font-family="Arial" font-size="14.00" fill="#666666">[bigint unsigned]</text>
<polygon fill="none" stroke="black" points="995.98,-796.4 995.98,-827.2 1347.38,-827.2 1347.38,-796.4 995.98,-796.4"/>
<text text-anchor="start" x="1002.98" y="-808.6" font-family="Arial" font-size="14.00">settlementWindowId </text>
<text text-anchor="start" x="1132.92" y="-808.6" font-family="Arial" font-size="14.00" fill="#666666">[bigint unsigned]</text>
<polygon fill="none" stroke="black" points="995.98,-765.6 995.98,-796.4 1347.38,-796.4 1347.38,-765.6 995.98,-765.6"/>
<text text-anchor="start" x="1002.98" y="-777.8" font-family="Arial" font-size="14.00">participantCurrencyId </text>
<text text-anchor="start" x="1139.93" y="-777.8" font-family="Arial" font-size="14.00" fill="#666666">[int unsigned]</text>
<polygon fill="none" stroke="black" points="995.98,-734.8 995.98,-765.6 1347.38,-765.6 1347.38,-734.8 995.98,-734.8"/>
<text text-anchor="start" x="1002.98" y="-747" font-family="Arial" font-size="14.00">transferParticipantRoleTypeId </text>
<text text-anchor="start" x="1192.07" y="-747" font-family="Arial" font-size="14.00" fill="#666666">[int unsigned]</text>
<polygon fill="none" stroke="black" points="995.98,-704 995.98,-734.8 1347.38,-734.8 1347.38,-704 995.98,-704"/>
<text text-anchor="start" x="1002.98" y="-716.2" font-family="Arial" font-size="14.00">ledgerEntryTypeId </text>
<text text-anchor="start" x="1121.26" y="-716.2" font-family="Arial" font-size="14.00" fill="#666666">[int unsigned]</text>
<polygon fill="none" stroke="black" points="995.98,-673.2 995.98,-704 1347.38,-704 1347.38,-673.2 995.98,-673.2"/>
<text text-anchor="start" x="1002.98" y="-685.4" font-family="Arial" font-size="14.00">amount </text>
<text text-anchor="start" x="1053.56" y="-685.4" font-family="Arial" font-size="14.00" fill="#666666">[decimal(18,4)]</text>
<polygon fill="none" stroke="black" points="995.98,-642.4 995.98,-673.2 1347.38,-673.2 1347.38,-642.4 995.98,-642.4"/>
<text text-anchor="start" x="1002.98" y="-654.6" font-family="Arial" font-size="14.00">createdDate </text>
<text text-anchor="start" x="1083.13" y="-654.6" font-family="Arial" font-size="14.00" fill="#666666">[datetime]</text>
</g>
<!-- settlementTransferParticipant&#45;&gt;settlementWindow -->
<g id="edge3" class="edge">
<title>settlementTransferParticipant:settlementWindowId&#45;&gt;settlementWindow:settlementWindowId</title>
<path fill="none" stroke="black" d="M1358.5,-809.59C1422.01,-780.14 1383.6,-466 1309.91,-466"/>
<polygon fill="black" stroke="black" points="1358.48,-809.6 1347.75,-807.33 1353.27,-810.73 1349.03,-811.66 1349.03,-811.66 1349.03,-811.66 1353.27,-810.73 1349.67,-816.13 1358.48,-809.6"/>
<text text-anchor="start" x="918.48" y="-821.8" font-family="Arial" font-size="10.00">FOREIGN KEY (settlementWindowId) REFERENCES settlementWindow (settlementWindowId)</text>
</g>
<!-- settlementWindowContent -->
<g id="node5" class="node">
<title>settlementWindowContent</title>
<polygon fill="#efefef" stroke="none" points="1451.95,-888.8 1451.95,-924.4 1783.41,-924.4 1783.41,-888.8 1451.95,-888.8"/>
<polygon fill="none" stroke="black" points="1451.95,-888.8 1451.95,-924.4 1783.41,-924.4 1783.41,-888.8 1451.95,-888.8"/>
<text text-anchor="start" x="1458.95" y="-902.2" font-family="Arial Bold" font-size="18.00">settlementWindowContent</text>
<text text-anchor="start" x="1651.92" y="-902.2" font-family="Arial" font-size="14.00">    </text>
<text text-anchor="start" x="1683.03" y="-902.2" font-family="Arial" font-size="14.00" fill="#666666">[BASE TABLE]</text>
<polygon fill="none" stroke="black" points="1451.95,-858 1451.95,-888.8 1783.41,-888.8 1783.41,-858 1451.95,-858"/>
<text text-anchor="start" x="1458.95" y="-870.2" font-family="Arial" font-size="14.00">settlementWindowContentId </text>
<text text-anchor="start" x="1637.93" y="-870.2" font-family="Arial" font-size="14.00" fill="#666666">[bigint unsigned]</text>
<polygon fill="none" stroke="black" points="1451.95,-827.2 1451.95,-858 1783.41,-858 1783.41,-827.2 1451.95,-827.2"/>
<text text-anchor="start" x="1458.95" y="-839.4" font-family="Arial" font-size="14.00">settlementWindowId </text>
<text text-anchor="start" x="1588.9" y="-839.4" font-family="Arial" font-size="14.00" fill="#666666">[bigint unsigned]</text>
<polygon fill="none" stroke="black" points="1451.95,-796.4 1451.95,-827.2 1783.41,-827.2 1783.41,-796.4 1451.95,-796.4"/>
<text text-anchor="start" x="1458.95" y="-808.6" font-family="Arial" font-size="14.00">ledgerAccountTypeId </text>
<text text-anchor="start" x="1595.14" y="-808.6" font-family="Arial" font-size="14.00" fill="#666666">[int unsigned]</text>
<polygon fill="none" stroke="black" points="1451.95,-765.6 1451.95,-796.4 1783.41,-796.4 1783.41,-765.6 1451.95,-765.6"/>
<text text-anchor="start" x="1458.95" y="-777.8" font-family="Arial" font-size="14.00">currencyId </text>
<text text-anchor="start" x="1528.2" y="-777.8" font-family="Arial" font-size="14.00" fill="#666666">[varchar(3)]</text>
<polygon fill="none" stroke="black" points="1451.95,-734.8 1451.95,-765.6 1783.41,-765.6 1783.41,-734.8 1451.95,-734.8"/>
<text text-anchor="start" x="1458.95" y="-747" font-family="Arial" font-size="14.00">createdDate </text>
<text text-anchor="start" x="1539.11" y="-747" font-family="Arial" font-size="14.00" fill="#666666">[datetime]</text>
<polygon fill="none" stroke="black" points="1451.95,-704 1451.95,-734.8 1783.41,-734.8 1783.41,-704 1451.95,-704"/>
<text text-anchor="start" x="1458.95" y="-716.2" font-family="Arial" font-size="14.00">currentStateChangeId </text>
<text text-anchor="start" x="1599.82" y="-716.2" font-family="Arial" font-size="14.00" fill="#666666">[bigint unsigned]</text>
<polygon fill="none" stroke="black" points="1451.95,-673.2 1451.95,-704 1783.41,-704 1783.41,-673.2 1451.95,-673.2"/>
<text text-anchor="start" x="1458.95" y="-685.4" font-family="Arial" font-size="14.00">settlementId </text>
<text text-anchor="start" x="1539.1" y="-685.4" font-family="Arial" font-size="14.00" fill="#666666">[bigint unsigned]</text>
<polygon fill="none" stroke="black" points="1451.95,-642.4 1451.95,-673.2 1783.41,-673.2 1783.41,-642.4 1451.95,-642.4"/>
<text text-anchor="start" x="1458.95" y="-654.6" font-family="Arial" font-size="14.00">SettlementModelId </text>
<text text-anchor="start" x="1579.57" y="-654.6" font-family="Arial" font-size="14.00" fill="#666666">[int unsigned]</text>
</g>
<!-- settlementWindowContent&#45;&gt;settlementWindow -->
<g id="edge4" class="edge">
<title>settlementWindowContent:settlementWindowId&#45;&gt;settlementWindow:settlementWindowId</title>
<path fill="none" stroke="black" d="M1440.97,-840.15C1398.86,-817.66 1419.79,-646.73 1399.68,-599.2 1371.86,-533.45 1381.3,-466 1309.91,-466"/>
<polygon fill="black" stroke="black" points="1440.92,-840.14 1449.55,-846.89 1446.1,-841.41 1450.3,-842.44 1450.3,-842.44 1450.3,-842.44 1446.1,-841.41 1451.7,-838.15 1440.92,-840.14"/>
<text text-anchor="start" x="1130.28" y="-826.6" font-family="Arial" font-size="10.00">FOREIGN KEY (settlementWindowId) REFERENCES settlementWindow (settlementWindowId)</text>
</g>
<!-- settlementWindowStateChange&#45;&gt;settlementWindow -->
<g id="edge5" class="edge">
<title>settlementWindowStateChange:settlementWindowId&#45;&gt;settlementWindow:settlementWindowId</title>
<path fill="none" stroke="black" d="M1365.81,-151.6C1494.47,-166.79 1447.77,-466 1309.91,-466"/>
<polygon fill="black" stroke="black" points="1365.71,-151.59 1355.99,-146.53 1360.39,-151.29 1356.06,-151.04 1356.06,-151.04 1356.06,-151.04 1360.39,-151.29 1355.47,-155.51 1365.71,-151.59"/>
<text text-anchor="start" x="1362.39" y="-161" font-family="Arial" font-size="10.00">FOREIGN KEY (settlementWindowId) REFERENCES settlementWindow (settlementWindowId)</text>
</g>
<!-- transferFulfilment -->
<g id="node7" class="node">
<title>transferFulfilment</title>
<polygon fill="#efefef" stroke="none" points="1887.95,-858 1887.95,-893.6 2157.41,-893.6 2157.41,-858 1887.95,-858"/>
<polygon fill="none" stroke="black" points="1887.95,-858 1887.95,-893.6 2157.41,-893.6 2157.41,-858 1887.95,-858"/>
<text text-anchor="start" x="1894.95" y="-871.4" font-family="Arial Bold" font-size="18.00">transferFulfilment</text>
<text text-anchor="start" x="2025.92" y="-871.4" font-family="Arial" font-size="14.00">    </text>
<text text-anchor="start" x="2057.03" y="-871.4" font-family="Arial" font-size="14.00" fill="#666666">[BASE TABLE]</text>
<polygon fill="none" stroke="black" points="1887.95,-827.2 1887.95,-858 2157.41,-858 2157.41,-827.2 1887.95,-827.2"/>
<text text-anchor="start" x="1894.95" y="-839.4" font-family="Arial" font-size="14.00">transferId </text>
<text text-anchor="start" x="1957.98" y="-839.4" font-family="Arial" font-size="14.00" fill="#666666">[varchar(36)]</text>
<polygon fill="none" stroke="black" points="1887.95,-796.4 1887.95,-827.2 2157.41,-827.2 2157.41,-796.4 1887.95,-796.4"/>
<text text-anchor="start" x="1894.95" y="-808.6" font-family="Arial" font-size="14.00">ilpFulfilment </text>
<text text-anchor="start" x="1973.53" y="-808.6" font-family="Arial" font-size="14.00" fill="#666666">[varchar(256)]</text>
<polygon fill="none" stroke="black" points="1887.95,-765.6 1887.95,-796.4 2157.41,-796.4 2157.41,-765.6 1887.95,-765.6"/>
<text text-anchor="start" x="1894.95" y="-777.8" font-family="Arial" font-size="14.00">completedDate </text>
<text text-anchor="start" x="1993.01" y="-777.8" font-family="Arial" font-size="14.00" fill="#666666">[datetime]</text>
<polygon fill="none" stroke="black" points="1887.95,-734.8 1887.95,-765.6 2157.41,-765.6 2157.41,-734.8 1887.95,-734.8"/>
<text text-anchor="start" x="1894.95" y="-747" font-family="Arial" font-size="14.00">isValid </text>
<text text-anchor="start" x="1940.08" y="-747" font-family="Arial" font-size="14.00" fill="#666666">[tinyint(1)]</text>
<polygon fill="none" stroke="black" points="1887.95,-704 1887.95,-734.8 2157.41,-734.8 2157.41,-704 1887.95,-704"/>
<text text-anchor="start" x="1894.95" y="-716.2" font-family="Arial" font-size="14.00">settlementWindowId </text>
<text text-anchor="start" x="2024.9" y="-716.2" font-family="Arial" font-size="14.00" fill="#666666">[bigint unsigned]</text>
<polygon fill="none" stroke="black" points="1887.95,-673.2 1887.95,-704 2157.41,-704 2157.41,-673.2 1887.95,-673.2"/>
<text text-anchor="start" x="1894.95" y="-685.4" font-family="Arial" font-size="14.00">createdDate </text>
<text text-anchor="start" x="1975.11" y="-685.4" font-family="Arial" font-size="14.00" fill="#666666">[datetime]</text>
</g>
<!-- transferFulfilment&#45;&gt;settlementWindow -->
<g id="edge6" class="edge">
<title>transferFulfilment:settlementWindowId&#45;&gt;settlementWindow:settlementWindowId</title>
<path fill="none" stroke="black" d="M1876.76,-718.35C1835.22,-708.65 1876.87,-634.46 1835.68,-599.2 1744.11,-520.83 1430.44,-466 1309.91,-466"/>
<polygon fill="black" stroke="black" points="1876.67,-718.34 1886.16,-723.84 1881.98,-718.89 1886.29,-719.33 1886.29,-719.33 1886.29,-719.33 1881.98,-718.89 1887.08,-714.89 1876.67,-718.34"/>
<text text-anchor="start" x="1893.95" y="-729.4" font-family="Arial" font-size="10.00">FOREIGN KEY (settlementWindowId) REFERENCES settlementWindow (settlementWindowId)</text>
</g>
</g>
</svg>
