<?xml version="1.0" encoding="UTF-8" standalone="no"?>
<!DOCTYPE svg PUBLIC "-//W3C//DTD SVG 1.1//EN"
 "http://www.w3.org/Graphics/SVG/1.1/DTD/svg11.dtd">
<!-- Generated by graphviz version 12.1.2 (20240928.0832)
 -->
<!-- Title: settlementSettlementWindow Pages: 1 -->
<svg width="1129pt" height="479pt"
 viewBox="0.00 0.00 1128.54 478.80" xmlns="http://www.w3.org/2000/svg" xmlns:xlink="http://www.w3.org/1999/xlink">
<g id="graph0" class="graph" transform="scale(1 1) rotate(0) translate(4 474.8)">
<title>settlementSettlementWindow</title>
<polygon fill="white" stroke="none" points="-4,4 -4,-474.8 1124.54,-474.8 1124.54,4 -4,4"/>
<!-- settlementSettlementWindow -->
<g id="node1" class="node">
<title>settlementSettlementWindow</title>
<polygon fill="#efefef" stroke="none" points="331.2,-389 331.2,-424.6 682.64,-424.6 682.64,-389 331.2,-389"/>
<polygon fill="none" stroke="black" points="331.2,-389 331.2,-424.6 682.64,-424.6 682.64,-389 331.2,-389"/>
<text text-anchor="start" x="338.2" y="-402.4" font-family="Arial Bold" font-size="18.00">settlementSettlementWindow</text>
<text text-anchor="start" x="551.15" y="-402.4" font-family="Arial" font-size="14.00">    </text>
<text text-anchor="start" x="582.27" y="-402.4" font-family="Arial" font-size="14.00" fill="#666666">[BASE TABLE]</text>
<polygon fill="none" stroke="black" points="331.2,-358.2 331.2,-389 682.64,-389 682.64,-358.2 331.2,-358.2"/>
<text text-anchor="start" x="338.2" y="-370.4" font-family="Arial" font-size="14.00">settlementSettlementWindowId </text>
<text text-anchor="start" x="535.07" y="-370.4" font-family="Arial" font-size="14.00" fill="#666666">[bigint unsigned]</text>
<polygon fill="none" stroke="black" points="331.2,-327.4 331.2,-358.2 682.64,-358.2 682.64,-327.4 331.2,-327.4"/>
<text text-anchor="start" x="338.2" y="-339.6" font-family="Arial" font-size="14.00">settlementId </text>
<text text-anchor="start" x="418.35" y="-339.6" font-family="Arial" font-size="14.00" fill="#666666">[bigint unsigned]</text>
<polygon fill="none" stroke="black" points="331.2,-296.6 331.2,-327.4 682.64,-327.4 682.64,-296.6 331.2,-296.6"/>
<text text-anchor="start" x="338.2" y="-308.8" font-family="Arial" font-size="14.00">settlementWindowId </text>
<text text-anchor="start" x="468.15" y="-308.8" font-family="Arial" font-size="14.00" fill="#666666">[bigint unsigned]</text>
<polygon fill="none" stroke="black" stroke-width="3" points="329.7,-295.1 329.7,-426.1 684.14,-426.1 684.14,-295.1 329.7,-295.1"/>
</g>
<!-- settlement -->
<g id="node2" class="node">
<title>settlement</title>
<polygon fill="#efefef" stroke="none" points="193.5,-135.6 193.5,-171.2 450.34,-171.2 450.34,-135.6 193.5,-135.6"/>
<polygon fill="none" stroke="black" points="193.5,-135.6 193.5,-171.2 450.34,-171.2 450.34,-135.6 193.5,-135.6"/>
<text text-anchor="start" x="222.69" y="-149" font-family="Arial Bold" font-size="18.00">settlement</text>
<text text-anchor="start" x="296.67" y="-149" font-family="Arial" font-size="14.00">    </text>
<text text-anchor="start" x="327.78" y="-149" font-family="Arial" font-size="14.00" fill="#666666">[BASE TABLE]</text>
<polygon fill="none" stroke="black" points="193.5,-104.8 193.5,-135.6 450.34,-135.6 450.34,-104.8 193.5,-104.8"/>
<text text-anchor="start" x="200.5" y="-117" font-family="Arial" font-size="14.00">settlementId </text>
<text text-anchor="start" x="280.66" y="-117" font-family="Arial" font-size="14.00" fill="#666666">[bigint unsigned]</text>
<polygon fill="none" stroke="black" points="193.5,-74 193.5,-104.8 450.34,-104.8 450.34,-74 193.5,-74"/>
<text text-anchor="start" x="200.5" y="-86.2" font-family="Arial" font-size="14.00">currentStateChangeId </text>
<text text-anchor="start" x="341.37" y="-86.2" font-family="Arial" font-size="14.00" fill="#666666">[bigint unsigned]</text>
<polygon fill="none" stroke="black" points="193.5,-43.2 193.5,-74 450.34,-74 450.34,-43.2 193.5,-43.2"/>
<text text-anchor="start" x="200.5" y="-55.4" font-family="Arial" font-size="14.00">settlementModelId </text>
<text text-anchor="start" x="318.79" y="-55.4" font-family="Arial" font-size="14.00" fill="#666666">[int unsigned]</text>
</g>
<!-- settlementSettlementWindow&#45;&gt;settlement -->
<g id="edge1" class="edge">
<title>settlementSettlementWindow:settlementId&#45;&gt;settlement:settlementId</title>
<path fill="none" stroke="black" d="M320.15,-341.3C292.46,-331.87 308.85,-280.16 331.2,-250.4 364.42,-206.17 417.13,-258.64 450.34,-214.4 475.47,-180.92 493.21,-120.2 451.34,-120.2"/>
<polygon fill="black" stroke="black" points="319.98,-341.28 329.21,-347.2 325.26,-342.06 329.54,-342.7 329.54,-342.7 329.54,-342.7 325.26,-342.06 330.53,-338.3 319.98,-341.28"/>
<text text-anchor="start" x="7" y="-352.8" font-family="Arial" font-size="10.00">FOREIGN KEY (settlementId) REFERENCES settlement (settlementId)</text>
</g>
<!-- settlementWindow -->
<g id="node3" class="node">
<title>settlementWindow</title>
<polygon fill="#efefef" stroke="none" points="554.69,-120.2 554.69,-155.8 829.15,-155.8 829.15,-120.2 554.69,-120.2"/>
<polygon fill="none" stroke="black" points="554.69,-120.2 554.69,-155.8 829.15,-155.8 829.15,-120.2 554.69,-120.2"/>
<text text-anchor="start" x="561.69" y="-133.6" font-family="Arial Bold" font-size="18.00">settlementWindow</text>
<text text-anchor="start" x="697.66" y="-133.6" font-family="Arial" font-size="14.00">    </text>
<text text-anchor="start" x="728.78" y="-133.6" font-family="Arial" font-size="14.00" fill="#666666">[BASE TABLE]</text>
<polygon fill="none" stroke="black" points="554.69,-89.4 554.69,-120.2 829.15,-120.2 829.15,-89.4 554.69,-89.4"/>
<text text-anchor="start" x="561.69" y="-101.6" font-family="Arial" font-size="14.00">settlementWindowId </text>
<text text-anchor="start" x="691.64" y="-101.6" font-family="Arial" font-size="14.00" fill="#666666">[bigint unsigned]</text>
<polygon fill="none" stroke="black" points="554.69,-58.6 554.69,-89.4 829.15,-89.4 829.15,-58.6 554.69,-58.6"/>
<text text-anchor="start" x="561.69" y="-70.8" font-family="Arial" font-size="14.00">currentStateChangeId </text>
<text text-anchor="start" x="702.56" y="-70.8" font-family="Arial" font-size="14.00" fill="#666666">[bigint unsigned]</text>
</g>
<!-- settlementSettlementWindow&#45;&gt;settlementWindow -->
<g id="edge2" class="edge">
<title>settlementSettlementWindow:settlementWindowId&#45;&gt;settlementWindow:settlementWindowId</title>
<path fill="none" stroke="black" d="M693.67,-309.35C706.94,-300.2 695.73,-269.43 682.64,-250.4 647.91,-199.91 589.28,-249.59 554.69,-199 531.06,-164.44 511.82,-104.8 553.69,-104.8"/>
<polygon fill="black" stroke="black" points="693.63,-309.36 682.82,-307.56 688.48,-310.72 684.29,-311.83 684.29,-311.83 684.29,-311.83 688.48,-310.72 685.11,-316.27 693.63,-309.36"/>
<text text-anchor="start" x="690.64" y="-322" font-family="Arial" font-size="10.00">FOREIGN KEY (settlementWindowId) REFERENCES settlementWindow (settlementWindowId)</text>
</g>
</g>
</svg>
