<?xml version="1.0" encoding="UTF-8" standalone="no"?>
<!DOCTYPE svg PUBLIC "-//W3C//DTD SVG 1.1//EN"
 "http://www.w3.org/Graphics/SVG/1.1/DTD/svg11.dtd">
<!-- Generated by graphviz version 12.1.2 (20240928.0832)
 -->
<!-- Title: settlementInterchange Pages: 1 -->
<svg width="822pt" height="520pt"
 viewBox="0.00 0.00 822.29 520.26" xmlns="http://www.w3.org/2000/svg" xmlns:xlink="http://www.w3.org/1999/xlink">
<g id="graph0" class="graph" transform="scale(1 1) rotate(0) translate(4 516.26)">
<title>settlementInterchange</title>
<polygon fill="white" stroke="none" points="-4,4 -4,-516.26 818.29,-516.26 818.29,4 -4,4"/>
<!-- settlementInterchange -->
<g id="node1" class="node">
<title>settlementInterchange</title>
<polygon fill="#efefef" stroke="none" points="46.2,-87.66 46.2,-123.26 343.61,-123.26 343.61,-87.66 46.2,-87.66"/>
<polygon fill="none" stroke="black" points="46.2,-87.66 46.2,-123.26 343.61,-123.26 343.61,-87.66 46.2,-87.66"/>
<text text-anchor="start" x="53.2" y="-101.06" font-family="Arial Bold" font-size="18.00">settlementInterchange</text>
<text text-anchor="start" x="212.12" y="-101.06" font-family="Arial" font-size="14.00">    </text>
<text text-anchor="start" x="243.24" y="-101.06" font-family="Arial" font-size="14.00" fill="#666666">[BASE TABLE]</text>
<polygon fill="none" stroke="black" points="46.2,-56.86 46.2,-87.66 343.61,-87.66 343.61,-56.86 46.2,-56.86"/>
<text text-anchor="start" x="53.2" y="-69.06" font-family="Arial" font-size="14.00">settlementInterchangeId </text>
<text text-anchor="start" x="207.3" y="-69.06" font-family="Arial" font-size="14.00" fill="#666666">[int unsigned]</text>
<polygon fill="none" stroke="black" stroke-width="3" points="44.7,-55.36 44.7,-124.76 345.11,-124.76 345.11,-55.36 44.7,-55.36"/>
</g>
<!-- settlementModel -->
<g id="node2" class="node">
<title>settlementModel</title>
<polygon fill="#efefef" stroke="none" points="65.18,-433.46 65.18,-469.06 324.64,-469.06 324.64,-433.46 65.18,-433.46"/>
<polygon fill="none" stroke="black" points="65.18,-433.46 65.18,-469.06 324.64,-469.06 324.64,-433.46 65.18,-433.46"/>
<text text-anchor="start" x="72.18" y="-446.86" font-family="Arial Bold" font-size="18.00">settlementModel</text>
<text text-anchor="start" x="193.15" y="-446.86" font-family="Arial" font-size="14.00">    </text>
<text text-anchor="start" x="224.27" y="-446.86" font-family="Arial" font-size="14.00" fill="#666666">[BASE TABLE]</text>
<polygon fill="none" stroke="black" points="65.18,-402.66 65.18,-433.46 324.64,-433.46 324.64,-402.66 65.18,-402.66"/>
<text text-anchor="start" x="72.18" y="-414.86" font-family="Arial" font-size="14.00">settlementModelId </text>
<text text-anchor="start" x="190.46" y="-414.86" font-family="Arial" font-size="14.00" fill="#666666">[int unsigned]</text>
<polygon fill="none" stroke="black" points="65.18,-371.86 65.18,-402.66 324.64,-402.66 324.64,-371.86 65.18,-371.86"/>
<text text-anchor="start" x="72.18" y="-384.06" font-family="Arial" font-size="14.00">settlementGranularityId </text>
<text text-anchor="start" x="220.8" y="-384.06" font-family="Arial" font-size="14.00" fill="#666666">[int unsigned]</text>
<polygon fill="none" stroke="black" points="65.18,-341.06 65.18,-371.86 324.64,-371.86 324.64,-341.06 65.18,-341.06"/>
<text text-anchor="start" x="72.18" y="-353.26" font-family="Arial" font-size="14.00">settlementInterchangeId </text>
<text text-anchor="start" x="226.27" y="-353.26" font-family="Arial" font-size="14.00" fill="#666666">[int unsigned]</text>
<polygon fill="none" stroke="black" points="65.18,-310.26 65.18,-341.06 324.64,-341.06 324.64,-310.26 65.18,-310.26"/>
<text text-anchor="start" x="72.18" y="-322.46" font-family="Arial" font-size="14.00">settlementDelayId </text>
<text text-anchor="start" x="188.12" y="-322.46" font-family="Arial" font-size="14.00" fill="#666666">[int unsigned]</text>
<polygon fill="none" stroke="black" points="65.18,-279.46 65.18,-310.26 324.64,-310.26 324.64,-279.46 65.18,-279.46"/>
<text text-anchor="start" x="72.18" y="-291.66" font-family="Arial" font-size="14.00">currencyId </text>
<text text-anchor="start" x="141.42" y="-291.66" font-family="Arial" font-size="14.00" fill="#666666">[varchar(3)]</text>
<polygon fill="none" stroke="black" points="65.18,-248.66 65.18,-279.46 324.64,-279.46 324.64,-248.66 65.18,-248.66"/>
<text text-anchor="start" x="72.18" y="-260.86" font-family="Arial" font-size="14.00">ledgerAccountTypeId </text>
<text text-anchor="start" x="208.37" y="-260.86" font-family="Arial" font-size="14.00" fill="#666666">[int unsigned]</text>
</g>
<!-- settlementModel&#45;&gt;settlementInterchange -->
<g id="edge1" class="edge">
<title>settlementModel:settlementInterchangeId&#45;&gt;settlementInterchange:settlementInterchangeId</title>
<path fill="none" stroke="black" d="M335.83,-355.97C410.47,-348.26 375.95,-252.58 389.81,-169.46 393.93,-144.78 407.46,-74.6 389.81,-56.86 328.72,4.55 194.91,30.76 194.91,-55.86"/>
<polygon fill="black" stroke="black" points="335.96,-355.96 325.75,-351.95 330.63,-356.22 326.31,-356.43 326.31,-356.43 326.31,-356.43 330.63,-356.22 326.19,-360.94 335.96,-355.96"/>
<text text-anchor="start" x="332.64" y="-366.46" font-family="Arial" font-size="10.00">FOREIGN KEY (settlementInterchangeId) REFERENCES settlementInterchange (settlementInterchangeId)</text>
</g>
</g>
</svg>
