<?xml version="1.0" encoding="UTF-8" standalone="no"?>
<!DOCTYPE svg PUBLIC "-//W3C//DTD SVG 1.1//EN"
 "http://www.w3.org/Graphics/SVG/1.1/DTD/svg11.dtd">
<!-- Generated by graphviz version 12.1.2 (20240928.0832)
 -->
<!-- Title: settlementModel Pages: 1 -->
<svg width="1844pt" height="890pt"
 viewBox="0.00 0.00 1843.83 889.94" xmlns="http://www.w3.org/2000/svg" xmlns:xlink="http://www.w3.org/1999/xlink">
<g id="graph0" class="graph" transform="scale(1 1) rotate(0) translate(4 885.94)">
<title>settlementModel</title>
<polygon fill="white" stroke="none" points="-4,4 -4,-885.94 1839.83,-885.94 1839.83,4 -4,4"/>
<!-- settlementModel -->
<g id="node1" class="node">
<title>settlementModel</title>
<polygon fill="#efefef" stroke="none" points="843.19,-426.54 843.19,-462.14 1102.65,-462.14 1102.65,-426.54 843.19,-426.54"/>
<polygon fill="none" stroke="black" points="843.19,-426.54 843.19,-462.14 1102.65,-462.14 1102.65,-426.54 843.19,-426.54"/>
<text text-anchor="start" x="850.19" y="-439.94" font-family="Arial Bold" font-size="18.00">settlementModel</text>
<text text-anchor="start" x="971.16" y="-439.94" font-family="Arial" font-size="14.00">    </text>
<text text-anchor="start" x="1002.28" y="-439.94" font-family="Arial" font-size="14.00" fill="#666666">[BASE TABLE]</text>
<polygon fill="none" stroke="black" points="843.19,-395.74 843.19,-426.54 1102.65,-426.54 1102.65,-395.74 843.19,-395.74"/>
<text text-anchor="start" x="850.19" y="-407.94" font-family="Arial" font-size="14.00">settlementModelId </text>
<text text-anchor="start" x="968.47" y="-407.94" font-family="Arial" font-size="14.00" fill="#666666">[int unsigned]</text>
<polygon fill="none" stroke="black" points="843.19,-364.94 843.19,-395.74 1102.65,-395.74 1102.65,-364.94 843.19,-364.94"/>
<text text-anchor="start" x="850.19" y="-377.14" font-family="Arial" font-size="14.00">settlementGranularityId </text>
<text text-anchor="start" x="998.81" y="-377.14" font-family="Arial" font-size="14.00" fill="#666666">[int unsigned]</text>
<polygon fill="none" stroke="black" points="843.19,-334.14 843.19,-364.94 1102.65,-364.94 1102.65,-334.14 843.19,-334.14"/>
<text text-anchor="start" x="850.19" y="-346.34" font-family="Arial" font-size="14.00">settlementInterchangeId </text>
<text text-anchor="start" x="1004.28" y="-346.34" font-family="Arial" font-size="14.00" fill="#666666">[int unsigned]</text>
<polygon fill="none" stroke="black" points="843.19,-303.34 843.19,-334.14 1102.65,-334.14 1102.65,-303.34 843.19,-303.34"/>
<text text-anchor="start" x="850.19" y="-315.54" font-family="Arial" font-size="14.00">settlementDelayId </text>
<text text-anchor="start" x="966.13" y="-315.54" font-family="Arial" font-size="14.00" fill="#666666">[int unsigned]</text>
<polygon fill="none" stroke="black" points="843.19,-272.54 843.19,-303.34 1102.65,-303.34 1102.65,-272.54 843.19,-272.54"/>
<text text-anchor="start" x="850.19" y="-284.74" font-family="Arial" font-size="14.00">currencyId </text>
<text text-anchor="start" x="919.43" y="-284.74" font-family="Arial" font-size="14.00" fill="#666666">[varchar(3)]</text>
<polygon fill="none" stroke="black" points="843.19,-241.74 843.19,-272.54 1102.65,-272.54 1102.65,-241.74 843.19,-241.74"/>
<text text-anchor="start" x="850.19" y="-253.94" font-family="Arial" font-size="14.00">ledgerAccountTypeId </text>
<text text-anchor="start" x="986.38" y="-253.94" font-family="Arial" font-size="14.00" fill="#666666">[int unsigned]</text>
<polygon fill="none" stroke="black" stroke-width="3" points="841.69,-240.24 841.69,-463.64 1104.15,-463.64 1104.15,-240.24 841.69,-240.24"/>
</g>
<!-- settlementGranularity -->
<g id="node4" class="node">
<title>settlementGranularity</title>
<polygon fill="#efefef" stroke="none" points="43.2,-80.74 43.2,-116.34 338.64,-116.34 338.64,-80.74 43.2,-80.74"/>
<polygon fill="none" stroke="black" points="43.2,-80.74 43.2,-116.34 338.64,-116.34 338.64,-80.74 43.2,-80.74"/>
<text text-anchor="start" x="50.2" y="-94.14" font-family="Arial Bold" font-size="18.00">settlementGranularity</text>
<text text-anchor="start" x="207.15" y="-94.14" font-family="Arial" font-size="14.00">    </text>
<text text-anchor="start" x="238.26" y="-94.14" font-family="Arial" font-size="14.00" fill="#666666">[BASE TABLE]</text>
<polygon fill="none" stroke="black" points="43.2,-49.94 43.2,-80.74 338.64,-80.74 338.64,-49.94 43.2,-49.94"/>
<text text-anchor="start" x="50.2" y="-62.14" font-family="Arial" font-size="14.00">settlementGranularityId </text>
<text text-anchor="start" x="198.82" y="-62.14" font-family="Arial" font-size="14.00" fill="#666666">[int unsigned]</text>
</g>
<!-- settlementModel&#45;&gt;settlementGranularity -->
<g id="edge3" class="edge">
<title>settlementModel:settlementGranularityId&#45;&gt;settlementGranularity:settlementGranularityId</title>
<path fill="none" stroke="black" d="M831.83,-380.29C616.79,-378.25 549.68,-311.55 390.92,-159.54 356.49,-126.58 387.3,-65.34 339.64,-65.34"/>
<polygon fill="black" stroke="black" points="831.85,-380.29 841.83,-384.84 837.19,-380.32 841.52,-380.34 841.52,-380.34 841.52,-380.34 837.19,-380.32 841.87,-375.84 831.85,-380.29"/>
<text text-anchor="start" x="372.27" y="-390.34" font-family="Arial" font-size="10.00">FOREIGN KEY (settlementGranularityId) REFERENCES settlementGranularity (settlementGranularityId)</text>
</g>
<!-- settlementInterchange -->
<g id="node5" class="node">
<title>settlementInterchange</title>
<polygon fill="#efefef" stroke="none" points="443.21,-80.74 443.21,-116.34 740.62,-116.34 740.62,-80.74 443.21,-80.74"/>
<polygon fill="none" stroke="black" points="443.21,-80.74 443.21,-116.34 740.62,-116.34 740.62,-80.74 443.21,-80.74"/>
<text text-anchor="start" x="450.21" y="-94.14" font-family="Arial Bold" font-size="18.00">settlementInterchange</text>
<text text-anchor="start" x="609.14" y="-94.14" font-family="Arial" font-size="14.00">    </text>
<text text-anchor="start" x="640.25" y="-94.14" font-family="Arial" font-size="14.00" fill="#666666">[BASE TABLE]</text>
<polygon fill="none" stroke="black" points="443.21,-49.94 443.21,-80.74 740.62,-80.74 740.62,-49.94 443.21,-49.94"/>
<text text-anchor="start" x="450.21" y="-62.14" font-family="Arial" font-size="14.00">settlementInterchangeId </text>
<text text-anchor="start" x="604.31" y="-62.14" font-family="Arial" font-size="14.00" fill="#666666">[int unsigned]</text>
</g>
<!-- settlementModel&#45;&gt;settlementInterchange -->
<g id="edge4" class="edge">
<title>settlementModel:settlementInterchangeId&#45;&gt;settlementInterchange:settlementInterchangeId</title>
<path fill="none" stroke="black" d="M832.06,-347.09C778.55,-319.31 804.95,-65.34 741.62,-65.34"/>
<polygon fill="black" stroke="black" points="832.14,-347.11 840.8,-353.84 837.33,-348.36 841.54,-349.39 841.54,-349.39 841.54,-349.39 837.33,-348.36 842.92,-345.09 832.14,-347.11"/>
<text text-anchor="start" x="360.53" y="-359.54" font-family="Arial" font-size="10.00">FOREIGN KEY (settlementInterchangeId) REFERENCES settlementInterchange (settlementInterchangeId)</text>
</g>
<!-- settlementDelay -->
<g id="node6" class="node">
<title>settlementDelay</title>
<polygon fill="#efefef" stroke="none" points="845.2,-80.74 845.2,-116.34 1100.64,-116.34 1100.64,-80.74 845.2,-80.74"/>
<polygon fill="none" stroke="black" points="845.2,-80.74 845.2,-116.34 1100.64,-116.34 1100.64,-80.74 845.2,-80.74"/>
<text text-anchor="start" x="852.2" y="-94.14" font-family="Arial Bold" font-size="18.00">settlementDelay</text>
<text text-anchor="start" x="969.15" y="-94.14" font-family="Arial" font-size="14.00">    </text>
<text text-anchor="start" x="1000.27" y="-94.14" font-family="Arial" font-size="14.00" fill="#666666">[BASE TABLE]</text>
<polygon fill="none" stroke="black" points="845.2,-49.94 845.2,-80.74 1100.64,-80.74 1100.64,-49.94 845.2,-49.94"/>
<text text-anchor="start" x="852.2" y="-62.14" font-family="Arial" font-size="14.00">settlementDelayId </text>
<text text-anchor="start" x="968.14" y="-62.14" font-family="Arial" font-size="14.00" fill="#666666">[int unsigned]</text>
</g>
<!-- settlementModel&#45;&gt;settlementDelay -->
<g id="edge5" class="edge">
<title>settlementModel:settlementDelayId&#45;&gt;settlementDelay:settlementDelayId</title>
<path fill="none" stroke="black" d="M1111.78,-313.1C1139.04,-276.12 1163.22,-69.44 1143.84,-49.94 1090.28,3.93 972.92,27.02 972.92,-48.94"/>
<polygon fill="black" stroke="black" points="1112.14,-312.85 1101.36,-314.86 1107.75,-315.89 1104.2,-318.36 1104.2,-318.36 1104.2,-318.36 1107.75,-315.89 1106.49,-322.25 1112.14,-312.85"/>
<text text-anchor="start" x="1110.65" y="-328.74" font-family="Arial" font-size="10.00">FOREIGN KEY (settlementDelayId) REFERENCES settlementDelay (settlementDelayId)</text>
</g>
<!-- currency -->
<g id="node7" class="node">
<title>currency</title>
<polygon fill="#efefef" stroke="none" points="1205.2,-80.74 1205.2,-116.34 1406.64,-116.34 1406.64,-80.74 1205.2,-80.74"/>
<polygon fill="none" stroke="black" points="1205.2,-80.74 1205.2,-116.34 1406.64,-116.34 1406.64,-80.74 1205.2,-80.74"/>
<text text-anchor="start" x="1212.2" y="-94.14" font-family="Arial Bold" font-size="18.00">currency</text>
<text text-anchor="start" x="1275.15" y="-94.14" font-family="Arial" font-size="14.00">    </text>
<text text-anchor="start" x="1306.27" y="-94.14" font-family="Arial" font-size="14.00" fill="#666666">[BASE TABLE]</text>
<polygon fill="none" stroke="black" points="1205.2,-49.94 1205.2,-80.74 1406.64,-80.74 1406.64,-49.94 1205.2,-49.94"/>
<text text-anchor="start" x="1212.2" y="-62.14" font-family="Arial" font-size="14.00">currencyId </text>
<text text-anchor="start" x="1281.44" y="-62.14" font-family="Arial" font-size="14.00" fill="#666666">[varchar(3)]</text>
</g>
<!-- settlementModel&#45;&gt;currency -->
<g id="edge6" class="edge">
<title>settlementModel:currencyId&#45;&gt;currency:currencyId</title>
<path fill="none" stroke="black" d="M1114.01,-287.18C1204.5,-272.99 1099.35,-65.34 1204.2,-65.34"/>
<polygon fill="black" stroke="black" points="1113.96,-287.18 1103.65,-283.43 1108.64,-287.58 1104.32,-287.89 1104.32,-287.89 1104.32,-287.89 1108.64,-287.58 1104.31,-292.41 1113.96,-287.18"/>
<text text-anchor="start" x="1110.65" y="-297.94" font-family="Arial" font-size="10.00">FOREIGN KEY (currencyId) REFERENCES currency (currencyId)</text>
</g>
<!-- ledgerAccountType -->
<g id="node8" class="node">
<title>ledgerAccountType</title>
<polygon fill="#efefef" stroke="none" points="1511.2,-80.74 1511.2,-116.34 1792.63,-116.34 1792.63,-80.74 1511.2,-80.74"/>
<polygon fill="none" stroke="black" points="1511.2,-80.74 1511.2,-116.34 1792.63,-116.34 1792.63,-80.74 1511.2,-80.74"/>
<text text-anchor="start" x="1518.2" y="-94.14" font-family="Arial Bold" font-size="18.00">ledgerAccountType</text>
<text text-anchor="start" x="1661.14" y="-94.14" font-family="Arial" font-size="14.00">    </text>
<text text-anchor="start" x="1692.26" y="-94.14" font-family="Arial" font-size="14.00" fill="#666666">[BASE TABLE]</text>
<polygon fill="none" stroke="black" points="1511.2,-49.94 1511.2,-80.74 1792.63,-80.74 1792.63,-49.94 1511.2,-49.94"/>
<text text-anchor="start" x="1518.2" y="-62.14" font-family="Arial" font-size="14.00">ledgerAccountTypeId </text>
<text text-anchor="start" x="1654.4" y="-62.14" font-family="Arial" font-size="14.00" fill="#666666">[int unsigned]</text>
</g>
<!-- settlementModel&#45;&gt;ledgerAccountType -->
<g id="edge7" class="edge">
<title>settlementModel:ledgerAccountTypeId&#45;&gt;ledgerAccountType:ledgerAccountTypeId</title>
<path fill="none" stroke="black" d="M1114.08,-256.92C1202.04,-253.39 1397.32,-208.36 1458.92,-159.54 1496.28,-129.93 1462.54,-65.34 1510.2,-65.34"/>
<polygon fill="black" stroke="black" points="1113.98,-256.92 1103.89,-252.64 1108.65,-257.04 1104.32,-257.13 1104.32,-257.13 1104.32,-257.13 1108.65,-257.04 1104.08,-261.63 1113.98,-256.92"/>
<text text-anchor="start" x="1110.65" y="-267.14" font-family="Arial" font-size="10.00">FOREIGN KEY (ledgerAccountTypeId) REFERENCES ledgerAccountType (ledgerAccountTypeId)</text>
</g>
<!-- settlement -->
<g id="node2" class="node">
<title>settlement</title>
<polygon fill="#efefef" stroke="none" points="645.5,-741.54 645.5,-777.14 902.33,-777.14 902.33,-741.54 645.5,-741.54"/>
<polygon fill="none" stroke="black" points="645.5,-741.54 645.5,-777.14 902.33,-777.14 902.33,-741.54 645.5,-741.54"/>
<text text-anchor="start" x="674.68" y="-754.94" font-family="Arial Bold" font-size="18.00">settlement</text>
<text text-anchor="start" x="748.66" y="-754.94" font-family="Arial" font-size="14.00">    </text>
<text text-anchor="start" x="779.78" y="-754.94" font-family="Arial" font-size="14.00" fill="#666666">[BASE TABLE]</text>
<polygon fill="none" stroke="black" points="645.5,-710.74 645.5,-741.54 902.33,-741.54 902.33,-710.74 645.5,-710.74"/>
<text text-anchor="start" x="652.5" y="-722.94" font-family="Arial" font-size="14.00">settlementId </text>
<text text-anchor="start" x="732.65" y="-722.94" font-family="Arial" font-size="14.00" fill="#666666">[bigint unsigned]</text>
<polygon fill="none" stroke="black" points="645.5,-679.94 645.5,-710.74 902.33,-710.74 902.33,-679.94 645.5,-679.94"/>
<text text-anchor="start" x="652.5" y="-692.14" font-family="Arial" font-size="14.00">currentStateChangeId </text>
<text text-anchor="start" x="793.37" y="-692.14" font-family="Arial" font-size="14.00" fill="#666666">[bigint unsigned]</text>
<polygon fill="none" stroke="black" points="645.5,-649.14 645.5,-679.94 902.33,-679.94 902.33,-649.14 645.5,-649.14"/>
<text text-anchor="start" x="652.5" y="-661.34" font-family="Arial" font-size="14.00">settlementModelId </text>
<text text-anchor="start" x="770.78" y="-661.34" font-family="Arial" font-size="14.00" fill="#666666">[int unsigned]</text>
</g>
<!-- settlement&#45;&gt;settlementModel -->
<g id="edge1" class="edge">
<title>settlement:settlementModelId&#45;&gt;settlementModel:settlementModelId</title>
<path fill="none" stroke="black" d="M913.27,-661.54C922.66,-652.75 908.26,-626.47 902.33,-605.94 888.27,-557.21 857.09,-557.12 843.19,-508.34 831.35,-466.79 798.98,-411.14 842.19,-411.14"/>
<polygon fill="black" stroke="black" points="913.23,-661.55 902.35,-660.14 908.12,-663.09 903.97,-664.35 903.97,-664.35 903.97,-664.35 908.12,-663.09 904.96,-668.75 913.23,-661.55"/>
<text text-anchor="start" x="498.42" y="-674.54" font-family="Arial" font-size="10.00">FOREIGN KEY (settlementModelId) REFERENCES settlementModel (settlementModelId)</text>
</g>
<!-- settlementWindowContent -->
<g id="node3" class="node">
<title>settlementWindowContent</title>
<polygon fill="#efefef" stroke="none" points="1007.19,-803.14 1007.19,-838.74 1338.64,-838.74 1338.64,-803.14 1007.19,-803.14"/>
<polygon fill="none" stroke="black" points="1007.19,-803.14 1007.19,-838.74 1338.64,-838.74 1338.64,-803.14 1007.19,-803.14"/>
<text text-anchor="start" x="1014.19" y="-816.54" font-family="Arial Bold" font-size="18.00">settlementWindowContent</text>
<text text-anchor="start" x="1207.16" y="-816.54" font-family="Arial" font-size="14.00">    </text>
<text text-anchor="start" x="1238.27" y="-816.54" font-family="Arial" font-size="14.00" fill="#666666">[BASE TABLE]</text>
<polygon fill="none" stroke="black" points="1007.19,-772.34 1007.19,-803.14 1338.64,-803.14 1338.64,-772.34 1007.19,-772.34"/>
<text text-anchor="start" x="1014.19" y="-784.54" font-family="Arial" font-size="14.00">settlementWindowContentId </text>
<text text-anchor="start" x="1193.17" y="-784.54" font-family="Arial" font-size="14.00" fill="#666666">[bigint unsigned]</text>
<polygon fill="none" stroke="black" points="1007.19,-741.54 1007.19,-772.34 1338.64,-772.34 1338.64,-741.54 1007.19,-741.54"/>
<text text-anchor="start" x="1014.19" y="-753.74" font-family="Arial" font-size="14.00">settlementWindowId </text>
<text text-anchor="start" x="1144.14" y="-753.74" font-family="Arial" font-size="14.00" fill="#666666">[bigint unsigned]</text>
<polygon fill="none" stroke="black" points="1007.19,-710.74 1007.19,-741.54 1338.64,-741.54 1338.64,-710.74 1007.19,-710.74"/>
<text text-anchor="start" x="1014.19" y="-722.94" font-family="Arial" font-size="14.00">ledgerAccountTypeId </text>
<text text-anchor="start" x="1150.38" y="-722.94" font-family="Arial" font-size="14.00" fill="#666666">[int unsigned]</text>
<polygon fill="none" stroke="black" points="1007.19,-679.94 1007.19,-710.74 1338.64,-710.74 1338.64,-679.94 1007.19,-679.94"/>
<text text-anchor="start" x="1014.19" y="-692.14" font-family="Arial" font-size="14.00">currencyId </text>
<text text-anchor="start" x="1083.44" y="-692.14" font-family="Arial" font-size="14.00" fill="#666666">[varchar(3)]</text>
<polygon fill="none" stroke="black" points="1007.19,-649.14 1007.19,-679.94 1338.64,-679.94 1338.64,-649.14 1007.19,-649.14"/>
<text text-anchor="start" x="1014.19" y="-661.34" font-family="Arial" font-size="14.00">currentStateChangeId </text>
<text text-anchor="start" x="1155.06" y="-661.34" font-family="Arial" font-size="14.00" fill="#666666">[bigint unsigned]</text>
<polygon fill="none" stroke="black" points="1007.19,-618.34 1007.19,-649.14 1338.64,-649.14 1338.64,-618.34 1007.19,-618.34"/>
<text text-anchor="start" x="1014.19" y="-630.54" font-family="Arial" font-size="14.00">settlementId </text>
<text text-anchor="start" x="1094.34" y="-630.54" font-family="Arial" font-size="14.00" fill="#666666">[bigint unsigned]</text>
<polygon fill="none" stroke="black" points="1007.19,-587.54 1007.19,-618.34 1338.64,-618.34 1338.64,-587.54 1007.19,-587.54"/>
<text text-anchor="start" x="1014.19" y="-599.74" font-family="Arial" font-size="14.00">SettlementModelId </text>
<text text-anchor="start" x="1134.81" y="-599.74" font-family="Arial" font-size="14.00" fill="#666666">[int unsigned]</text>
</g>
<!-- settlementWindowContent&#45;&gt;settlementModel -->
<g id="edge2" class="edge">
<title>settlementWindowContent:SettlementModelId&#45;&gt;settlementModel:settlementModelId</title>
<path fill="none" stroke="black" d="M996.29,-600.17C984.18,-591.13 994.65,-562.15 1007.19,-544.34 1033.3,-507.27 1076.67,-545.5 1102.65,-508.34 1127.41,-472.94 1146.85,-411.14 1103.65,-411.14"/>
<polygon fill="black" stroke="black" points="996.24,-600.15 1004.65,-607.19 1001.38,-601.59 1005.55,-602.76 1005.55,-602.76 1005.55,-602.76 1001.38,-601.59 1007.08,-598.52 996.24,-600.15"/>
<text text-anchor="start" x="599.61" y="-586.94" font-family="Arial" font-size="10.00">FOREIGN KEY (SettlementModelId) REFERENCES settlementModel (settlementModelId)</text>
</g>
</g>
</svg>
