<?xml version="1.0" encoding="UTF-8" standalone="no"?>
<!DOCTYPE svg PUBLIC "-//W3C//DTD SVG 1.1//EN"
 "http://www.w3.org/Graphics/SVG/1.1/DTD/svg11.dtd">
<!-- Generated by graphviz version 12.1.2 (20240928.0832)
 -->
<!-- Title: settlement Pages: 1 -->
<svg width="2264pt" height="945pt"
 viewBox="0.00 0.00 2263.85 944.80" xmlns="http://www.w3.org/2000/svg" xmlns:xlink="http://www.w3.org/1999/xlink">
<g id="graph0" class="graph" transform="scale(1 1) rotate(0) translate(4 940.8)">
<title>settlement</title>
<polygon fill="white" stroke="none" points="-4,4 -4,-940.8 2259.85,-940.8 2259.85,4 -4,4"/>
<!-- settlement -->
<g id="node1" class="node">
<title>settlement</title>
<polygon fill="#efefef" stroke="none" points="1016.5,-481.4 1016.5,-517 1273.34,-517 1273.34,-481.4 1016.5,-481.4"/>
<polygon fill="none" stroke="black" points="1016.5,-481.4 1016.5,-517 1273.34,-517 1273.34,-481.4 1016.5,-481.4"/>
<text text-anchor="start" x="1045.69" y="-494.8" font-family="Arial Bold" font-size="18.00">settlement</text>
<text text-anchor="start" x="1119.66" y="-494.8" font-family="Arial" font-size="14.00">    </text>
<text text-anchor="start" x="1150.78" y="-494.8" font-family="Arial" font-size="14.00" fill="#666666">[BASE TABLE]</text>
<polygon fill="none" stroke="black" points="1016.5,-450.6 1016.5,-481.4 1273.34,-481.4 1273.34,-450.6 1016.5,-450.6"/>
<text text-anchor="start" x="1023.5" y="-462.8" font-family="Arial" font-size="14.00">settlementId </text>
<text text-anchor="start" x="1103.65" y="-462.8" font-family="Arial" font-size="14.00" fill="#666666">[bigint unsigned]</text>
<polygon fill="none" stroke="black" points="1016.5,-419.8 1016.5,-450.6 1273.34,-450.6 1273.34,-419.8 1016.5,-419.8"/>
<text text-anchor="start" x="1023.5" y="-432" font-family="Arial" font-size="14.00">currentStateChangeId </text>
<text text-anchor="start" x="1164.37" y="-432" font-family="Arial" font-size="14.00" fill="#666666">[bigint unsigned]</text>
<polygon fill="none" stroke="black" points="1016.5,-389 1016.5,-419.8 1273.34,-419.8 1273.34,-389 1016.5,-389"/>
<text text-anchor="start" x="1023.5" y="-401.2" font-family="Arial" font-size="14.00">settlementModelId </text>
<text text-anchor="start" x="1141.78" y="-401.2" font-family="Arial" font-size="14.00" fill="#666666">[int unsigned]</text>
<polygon fill="none" stroke="black" stroke-width="3" points="1015,-387.5 1015,-518.5 1274.84,-518.5 1274.84,-387.5 1015,-387.5"/>
</g>
<!-- settlementStateChange -->
<g id="node5" class="node">
<title>settlementStateChange</title>
<polygon fill="#efefef" stroke="none" points="993.2,-181.8 993.2,-217.4 1296.64,-217.4 1296.64,-181.8 993.2,-181.8"/>
<polygon fill="none" stroke="black" points="993.2,-181.8 993.2,-217.4 1296.64,-217.4 1296.64,-181.8 993.2,-181.8"/>
<text text-anchor="start" x="1000.2" y="-195.2" font-family="Arial Bold" font-size="18.00">settlementStateChange</text>
<text text-anchor="start" x="1165.15" y="-195.2" font-family="Arial" font-size="14.00">    </text>
<text text-anchor="start" x="1196.27" y="-195.2" font-family="Arial" font-size="14.00" fill="#666666">[BASE TABLE]</text>
<polygon fill="none" stroke="black" points="993.2,-151 993.2,-181.8 1296.64,-181.8 1296.64,-151 993.2,-151"/>
<text text-anchor="start" x="1000.2" y="-163.2" font-family="Arial" font-size="14.00">settlementStateChangeId </text>
<text text-anchor="start" x="1162.08" y="-163.2" font-family="Arial" font-size="14.00" fill="#666666">[bigint unsigned]</text>
<polygon fill="none" stroke="black" points="993.2,-120.2 993.2,-151 1296.64,-151 1296.64,-120.2 993.2,-120.2"/>
<text text-anchor="start" x="1000.2" y="-132.4" font-family="Arial" font-size="14.00">settlementId </text>
<text text-anchor="start" x="1080.35" y="-132.4" font-family="Arial" font-size="14.00" fill="#666666">[bigint unsigned]</text>
<polygon fill="none" stroke="black" points="993.2,-89.4 993.2,-120.2 1296.64,-120.2 1296.64,-89.4 993.2,-89.4"/>
<text text-anchor="start" x="1000.2" y="-101.6" font-family="Arial" font-size="14.00">settlementStateId </text>
<text text-anchor="start" x="1113.04" y="-101.6" font-family="Arial" font-size="14.00" fill="#666666">[varchar(50)]</text>
</g>
<!-- settlement&#45;&gt;settlementStateChange -->
<g id="edge7" class="edge">
<title>settlement:currentStateChangeId&#45;&gt;settlementStateChange:settlementStateChangeId</title>
<path fill="none" stroke="black" d="M1284.16,-432.71C1336.67,-405.61 1354.2,-166.4 1297.64,-166.4"/>
<polygon fill="black" stroke="black" points="1284.35,-432.66 1273.55,-430.76 1279.18,-433.97 1274.98,-435.04 1274.98,-435.04 1274.98,-435.04 1279.18,-433.97 1275.76,-439.48 1284.35,-432.66"/>
<text text-anchor="start" x="1281.34" y="-445.2" font-family="Arial" font-size="10.00">FOREIGN KEY (currentStateChangeId) REFERENCES settlementStateChange (settlementStateChangeId)</text>
</g>
<!-- settlementModel -->
<g id="node8" class="node">
<title>settlementModel</title>
<polygon fill="#efefef" stroke="none" points="1401.19,-228 1401.19,-263.6 1660.65,-263.6 1660.65,-228 1401.19,-228"/>
<polygon fill="none" stroke="black" points="1401.19,-228 1401.19,-263.6 1660.65,-263.6 1660.65,-228 1401.19,-228"/>
<text text-anchor="start" x="1408.19" y="-241.4" font-family="Arial Bold" font-size="18.00">settlementModel</text>
<text text-anchor="start" x="1529.16" y="-241.4" font-family="Arial" font-size="14.00">    </text>
<text text-anchor="start" x="1560.28" y="-241.4" font-family="Arial" font-size="14.00" fill="#666666">[BASE TABLE]</text>
<polygon fill="none" stroke="black" points="1401.19,-197.2 1401.19,-228 1660.65,-228 1660.65,-197.2 1401.19,-197.2"/>
<text text-anchor="start" x="1408.19" y="-209.4" font-family="Arial" font-size="14.00">settlementModelId </text>
<text text-anchor="start" x="1526.47" y="-209.4" font-family="Arial" font-size="14.00" fill="#666666">[int unsigned]</text>
<polygon fill="none" stroke="black" points="1401.19,-166.4 1401.19,-197.2 1660.65,-197.2 1660.65,-166.4 1401.19,-166.4"/>
<text text-anchor="start" x="1408.19" y="-178.6" font-family="Arial" font-size="14.00">settlementGranularityId </text>
<text text-anchor="start" x="1556.81" y="-178.6" font-family="Arial" font-size="14.00" fill="#666666">[int unsigned]</text>
<polygon fill="none" stroke="black" points="1401.19,-135.6 1401.19,-166.4 1660.65,-166.4 1660.65,-135.6 1401.19,-135.6"/>
<text text-anchor="start" x="1408.19" y="-147.8" font-family="Arial" font-size="14.00">settlementInterchangeId </text>
<text text-anchor="start" x="1562.28" y="-147.8" font-family="Arial" font-size="14.00" fill="#666666">[int unsigned]</text>
<polygon fill="none" stroke="black" points="1401.19,-104.8 1401.19,-135.6 1660.65,-135.6 1660.65,-104.8 1401.19,-104.8"/>
<text text-anchor="start" x="1408.19" y="-117" font-family="Arial" font-size="14.00">settlementDelayId </text>
<text text-anchor="start" x="1524.13" y="-117" font-family="Arial" font-size="14.00" fill="#666666">[int unsigned]</text>
<polygon fill="none" stroke="black" points="1401.19,-74 1401.19,-104.8 1660.65,-104.8 1660.65,-74 1401.19,-74"/>
<text text-anchor="start" x="1408.19" y="-86.2" font-family="Arial" font-size="14.00">currencyId </text>
<text text-anchor="start" x="1477.44" y="-86.2" font-family="Arial" font-size="14.00" fill="#666666">[varchar(3)]</text>
<polygon fill="none" stroke="black" points="1401.19,-43.2 1401.19,-74 1660.65,-74 1660.65,-43.2 1401.19,-43.2"/>
<text text-anchor="start" x="1408.19" y="-55.4" font-family="Arial" font-size="14.00">ledgerAccountTypeId </text>
<text text-anchor="start" x="1544.38" y="-55.4" font-family="Arial" font-size="14.00" fill="#666666">[int unsigned]</text>
</g>
<!-- settlement&#45;&gt;settlementModel -->
<g id="edge8" class="edge">
<title>settlement:settlementModelId&#45;&gt;settlementModel:settlementModelId</title>
<path fill="none" stroke="black" d="M1284.66,-403.69C1327.78,-397.35 1321.24,-349.47 1348.92,-306.8 1374.86,-266.81 1352.52,-212.6 1400.19,-212.6"/>
<polygon fill="black" stroke="black" points="1284.65,-403.69 1274.36,-399.89 1279.32,-404.06 1275,-404.35 1275,-404.35 1275,-404.35 1279.32,-404.06 1274.98,-408.87 1284.65,-403.69"/>
<text text-anchor="start" x="1281.34" y="-414.4" font-family="Arial" font-size="10.00">FOREIGN KEY (settlementModelId) REFERENCES settlementModel (settlementModelId)</text>
</g>
<!-- settlementContentAggregation -->
<g id="node2" class="node">
<title>settlementContentAggregation</title>
<polygon fill="#efefef" stroke="none" points="43.2,-858 43.2,-893.6 402.64,-893.6 402.64,-858 43.2,-858"/>
<polygon fill="none" stroke="black" points="43.2,-858 43.2,-893.6 402.64,-893.6 402.64,-858 43.2,-858"/>
<text text-anchor="start" x="50.2" y="-871.4" font-family="Arial Bold" font-size="18.00">settlementContentAggregation</text>
<text text-anchor="start" x="271.15" y="-871.4" font-family="Arial" font-size="14.00">    </text>
<text text-anchor="start" x="302.27" y="-871.4" font-family="Arial" font-size="14.00" fill="#666666">[BASE TABLE]</text>
<polygon fill="none" stroke="black" points="43.2,-827.2 43.2,-858 402.64,-858 402.64,-827.2 43.2,-827.2"/>
<text text-anchor="start" x="50.2" y="-839.4" font-family="Arial" font-size="14.00">settlementContentAggregationId </text>
<text text-anchor="start" x="254.89" y="-839.4" font-family="Arial" font-size="14.00" fill="#666666">[bigint unsigned]</text>
<polygon fill="none" stroke="black" points="43.2,-796.4 43.2,-827.2 402.64,-827.2 402.64,-796.4 43.2,-796.4"/>
<text text-anchor="start" x="50.2" y="-808.6" font-family="Arial" font-size="14.00">settlementWindowContentId </text>
<text text-anchor="start" x="229.18" y="-808.6" font-family="Arial" font-size="14.00" fill="#666666">[bigint unsigned]</text>
<polygon fill="none" stroke="black" points="43.2,-765.6 43.2,-796.4 402.64,-796.4 402.64,-765.6 43.2,-765.6"/>
<text text-anchor="start" x="50.2" y="-777.8" font-family="Arial" font-size="14.00">participantCurrencyId </text>
<text text-anchor="start" x="187.15" y="-777.8" font-family="Arial" font-size="14.00" fill="#666666">[int unsigned]</text>
<polygon fill="none" stroke="black" points="43.2,-734.8 43.2,-765.6 402.64,-765.6 402.64,-734.8 43.2,-734.8"/>
<text text-anchor="start" x="50.2" y="-747" font-family="Arial" font-size="14.00">transferParticipantRoleTypeId </text>
<text text-anchor="start" x="239.29" y="-747" font-family="Arial" font-size="14.00" fill="#666666">[int unsigned]</text>
<polygon fill="none" stroke="black" points="43.2,-704 43.2,-734.8 402.64,-734.8 402.64,-704 43.2,-704"/>
<text text-anchor="start" x="50.2" y="-716.2" font-family="Arial" font-size="14.00">ledgerEntryTypeId </text>
<text text-anchor="start" x="168.48" y="-716.2" font-family="Arial" font-size="14.00" fill="#666666">[int unsigned]</text>
<polygon fill="none" stroke="black" points="43.2,-673.2 43.2,-704 402.64,-704 402.64,-673.2 43.2,-673.2"/>
<text text-anchor="start" x="50.2" y="-685.4" font-family="Arial" font-size="14.00">currentStateId </text>
<text text-anchor="start" x="142.03" y="-685.4" font-family="Arial" font-size="14.00" fill="#666666">[varchar(50)]</text>
<polygon fill="none" stroke="black" points="43.2,-642.4 43.2,-673.2 402.64,-673.2 402.64,-642.4 43.2,-642.4"/>
<text text-anchor="start" x="50.2" y="-654.6" font-family="Arial" font-size="14.00">settlementId </text>
<text text-anchor="start" x="130.35" y="-654.6" font-family="Arial" font-size="14.00" fill="#666666">[bigint unsigned]</text>
</g>
<!-- settlementContentAggregation&#45;&gt;settlement -->
<g id="edge1" class="edge">
<title>settlementContentAggregation:settlementId&#45;&gt;settlement:settlementId</title>
<path fill="none" stroke="black" d="M413.7,-656.32C435.86,-648.87 428.64,-615.05 454.92,-599.2 674.22,-466.97 759.42,-466 1015.5,-466"/>
<polygon fill="black" stroke="black" points="413.86,-656.3 403.32,-653.3 408.58,-657.07 404.3,-657.7 404.3,-657.7 404.3,-657.7 408.58,-657.07 404.62,-662.2 413.86,-656.3"/>
<text text-anchor="start" x="328.09" y="-641.8" font-family="Arial" font-size="10.00">FOREIGN KEY (settlementId) REFERENCES settlement (settlementId)</text>
</g>
<!-- settlementParticipantCurrency -->
<g id="node3" class="node">
<title>settlementParticipantCurrency</title>
<polygon fill="#efefef" stroke="none" points="507.21,-811.8 507.21,-847.4 864.63,-847.4 864.63,-811.8 507.21,-811.8"/>
<polygon fill="none" stroke="black" points="507.21,-811.8 507.21,-847.4 864.63,-847.4 864.63,-811.8 507.21,-811.8"/>
<text text-anchor="start" x="514.21" y="-825.2" font-family="Arial Bold" font-size="18.00">settlementParticipantCurrency</text>
<text text-anchor="start" x="733.14" y="-825.2" font-family="Arial" font-size="14.00">    </text>
<text text-anchor="start" x="764.25" y="-825.2" font-family="Arial" font-size="14.00" fill="#666666">[BASE TABLE]</text>
<polygon fill="none" stroke="black" points="507.21,-781 507.21,-811.8 864.63,-811.8 864.63,-781 507.21,-781"/>
<text text-anchor="start" x="514.21" y="-793.2" font-family="Arial" font-size="14.00">settlementParticipantCurrencyId </text>
<text text-anchor="start" x="717.3" y="-793.2" font-family="Arial" font-size="14.00" fill="#666666">[bigint unsigned]</text>
<polygon fill="none" stroke="black" points="507.21,-750.2 507.21,-781 864.63,-781 864.63,-750.2 507.21,-750.2"/>
<text text-anchor="start" x="514.21" y="-762.4" font-family="Arial" font-size="14.00">settlementId </text>
<text text-anchor="start" x="594.36" y="-762.4" font-family="Arial" font-size="14.00" fill="#666666">[bigint unsigned]</text>
<polygon fill="none" stroke="black" points="507.21,-719.4 507.21,-750.2 864.63,-750.2 864.63,-719.4 507.21,-719.4"/>
<text text-anchor="start" x="514.21" y="-731.6" font-family="Arial" font-size="14.00">participantCurrencyId </text>
<text text-anchor="start" x="651.16" y="-731.6" font-family="Arial" font-size="14.00" fill="#666666">[int unsigned]</text>
<polygon fill="none" stroke="black" points="507.21,-688.6 507.21,-719.4 864.63,-719.4 864.63,-688.6 507.21,-688.6"/>
<text text-anchor="start" x="514.21" y="-700.8" font-family="Arial" font-size="14.00">currentStateChangeId </text>
<text text-anchor="start" x="655.08" y="-700.8" font-family="Arial" font-size="14.00" fill="#666666">[bigint unsigned]</text>
</g>
<!-- settlementParticipantCurrency&#45;&gt;settlement -->
<g id="edge2" class="edge">
<title>settlementParticipantCurrency:settlementId&#45;&gt;settlement:settlementId</title>
<path fill="none" stroke="black" d="M876,-764.92C937.29,-756.16 883.71,-664.89 916.92,-599.2 950.15,-533.47 941.85,-466 1015.5,-466"/>
<polygon fill="black" stroke="black" points="875.94,-764.92 865.67,-761.09 870.62,-765.27 866.29,-765.56 866.29,-765.56 866.29,-765.56 870.62,-765.27 866.26,-770.07 875.94,-764.92"/>
<text text-anchor="start" x="872.63" y="-775.6" font-family="Arial" font-size="10.00">FOREIGN KEY (settlementId) REFERENCES settlement (settlementId)</text>
</g>
<!-- settlementSettlementWindow -->
<g id="node4" class="node">
<title>settlementSettlementWindow</title>
<polygon fill="#efefef" stroke="none" points="969.2,-796.4 969.2,-832 1320.64,-832 1320.64,-796.4 969.2,-796.4"/>
<polygon fill="none" stroke="black" points="969.2,-796.4 969.2,-832 1320.64,-832 1320.64,-796.4 969.2,-796.4"/>
<text text-anchor="start" x="976.2" y="-809.8" font-family="Arial Bold" font-size="18.00">settlementSettlementWindow</text>
<text text-anchor="start" x="1189.15" y="-809.8" font-family="Arial" font-size="14.00">    </text>
<text text-anchor="start" x="1220.27" y="-809.8" font-family="Arial" font-size="14.00" fill="#666666">[BASE TABLE]</text>
<polygon fill="none" stroke="black" points="969.2,-765.6 969.2,-796.4 1320.64,-796.4 1320.64,-765.6 969.2,-765.6"/>
<text text-anchor="start" x="976.2" y="-777.8" font-family="Arial" font-size="14.00">settlementSettlementWindowId </text>
<text text-anchor="start" x="1173.07" y="-777.8" font-family="Arial" font-size="14.00" fill="#666666">[bigint unsigned]</text>
<polygon fill="none" stroke="black" points="969.2,-734.8 969.2,-765.6 1320.64,-765.6 1320.64,-734.8 969.2,-734.8"/>
<text text-anchor="start" x="976.2" y="-747" font-family="Arial" font-size="14.00">settlementId </text>
<text text-anchor="start" x="1056.35" y="-747" font-family="Arial" font-size="14.00" fill="#666666">[bigint unsigned]</text>
<polygon fill="none" stroke="black" points="969.2,-704 969.2,-734.8 1320.64,-734.8 1320.64,-704 969.2,-704"/>
<text text-anchor="start" x="976.2" y="-716.2" font-family="Arial" font-size="14.00">settlementWindowId </text>
<text text-anchor="start" x="1106.14" y="-716.2" font-family="Arial" font-size="14.00" fill="#666666">[bigint unsigned]</text>
</g>
<!-- settlementSettlementWindow&#45;&gt;settlement -->
<g id="edge3" class="edge">
<title>settlementSettlementWindow:settlementId&#45;&gt;settlement:settlementId</title>
<path fill="none" stroke="black" d="M1331.46,-747.57C1380.25,-718.92 1334.73,-466 1274.34,-466"/>
<polygon fill="black" stroke="black" points="1331.62,-747.53 1320.8,-745.77 1326.47,-748.91 1322.28,-750.03 1322.28,-750.03 1322.28,-750.03 1326.47,-748.91 1323.13,-754.46 1331.62,-747.53"/>
<text text-anchor="start" x="1328.64" y="-760.2" font-family="Arial" font-size="10.00">FOREIGN KEY (settlementId) REFERENCES settlement (settlementId)</text>
</g>
<!-- settlementStateChange&#45;&gt;settlement -->
<g id="edge4" class="edge">
<title>settlementStateChange:settlementId&#45;&gt;settlement:settlementId</title>
<path fill="none" stroke="black" d="M1307.73,-137.89C1368.85,-167.08 1344.35,-466 1274.34,-466"/>
<polygon fill="black" stroke="black" points="1307.72,-137.88 1298.96,-131.29 1302.52,-136.7 1298.29,-135.75 1298.29,-135.75 1298.29,-135.75 1302.52,-136.7 1296.97,-140.06 1307.72,-137.88"/>
<text text-anchor="start" x="1139.54" y="-119.6" font-family="Arial" font-size="10.00">FOREIGN KEY (settlementId) REFERENCES settlement (settlementId)</text>
</g>
<!-- settlementTransferParticipant -->
<g id="node6" class="node">
<title>settlementTransferParticipant</title>
<polygon fill="#efefef" stroke="none" points="1425.22,-842.6 1425.22,-878.2 1776.62,-878.2 1776.62,-842.6 1425.22,-842.6"/>
<polygon fill="none" stroke="black" points="1425.22,-842.6 1425.22,-878.2 1776.62,-878.2 1776.62,-842.6 1425.22,-842.6"/>
<text text-anchor="start" x="1432.22" y="-856" font-family="Arial Bold" font-size="18.00">settlementTransferParticipant</text>
<text text-anchor="start" x="1645.13" y="-856" font-family="Arial" font-size="14.00">    </text>
<text text-anchor="start" x="1676.25" y="-856" font-family="Arial" font-size="14.00" fill="#666666">[BASE TABLE]</text>
<polygon fill="none" stroke="black" points="1425.22,-811.8 1425.22,-842.6 1776.62,-842.6 1776.62,-811.8 1425.22,-811.8"/>
<text text-anchor="start" x="1432.22" y="-824" font-family="Arial" font-size="14.00">settlementTransferParticipantId </text>
<text text-anchor="start" x="1630.64" y="-824" font-family="Arial" font-size="14.00" fill="#666666">[bigint unsigned]</text>
<polygon fill="none" stroke="black" points="1425.22,-781 1425.22,-811.8 1776.62,-811.8 1776.62,-781 1425.22,-781"/>
<text text-anchor="start" x="1432.22" y="-793.2" font-family="Arial" font-size="14.00">settlementId </text>
<text text-anchor="start" x="1512.37" y="-793.2" font-family="Arial" font-size="14.00" fill="#666666">[bigint unsigned]</text>
<polygon fill="none" stroke="black" points="1425.22,-750.2 1425.22,-781 1776.62,-781 1776.62,-750.2 1425.22,-750.2"/>
<text text-anchor="start" x="1432.22" y="-762.4" font-family="Arial" font-size="14.00">settlementWindowId </text>
<text text-anchor="start" x="1562.16" y="-762.4" font-family="Arial" font-size="14.00" fill="#666666">[bigint unsigned]</text>
<polygon fill="none" stroke="black" points="1425.22,-719.4 1425.22,-750.2 1776.62,-750.2 1776.62,-719.4 1425.22,-719.4"/>
<text text-anchor="start" x="1432.22" y="-731.6" font-family="Arial" font-size="14.00">participantCurrencyId </text>
<text text-anchor="start" x="1569.17" y="-731.6" font-family="Arial" font-size="14.00" fill="#666666">[int unsigned]</text>
<polygon fill="none" stroke="black" points="1425.22,-688.6 1425.22,-719.4 1776.62,-719.4 1776.62,-688.6 1425.22,-688.6"/>
<text text-anchor="start" x="1432.22" y="-700.8" font-family="Arial" font-size="14.00">transferParticipantRoleTypeId </text>
<text text-anchor="start" x="1621.31" y="-700.8" font-family="Arial" font-size="14.00" fill="#666666">[int unsigned]</text>
<polygon fill="none" stroke="black" points="1425.22,-657.8 1425.22,-688.6 1776.62,-688.6 1776.62,-657.8 1425.22,-657.8"/>
<text text-anchor="start" x="1432.22" y="-670" font-family="Arial" font-size="14.00">ledgerEntryTypeId </text>
<text text-anchor="start" x="1550.5" y="-670" font-family="Arial" font-size="14.00" fill="#666666">[int unsigned]</text>
</g>
<!-- settlementTransferParticipant&#45;&gt;settlement -->
<g id="edge5" class="edge">
<title>settlementTransferParticipant:settlementId&#45;&gt;settlement:settlementId</title>
<path fill="none" stroke="black" d="M1413.91,-795.83C1339.88,-786.98 1410.37,-677.56 1372.92,-599.2 1341.16,-532.75 1347.99,-466 1274.34,-466"/>
<polygon fill="black" stroke="black" points="1413.9,-795.83 1423.63,-800.87 1419.22,-796.12 1423.55,-796.36 1423.55,-796.36 1423.55,-796.36 1419.22,-796.12 1424.13,-791.89 1413.9,-795.83"/>
<text text-anchor="start" x="1431.22" y="-806.4" font-family="Arial" font-size="10.00">FOREIGN KEY (settlementId) REFERENCES settlement (settlementId)</text>
</g>
<!-- settlementWindowContent -->
<g id="node7" class="node">
<title>settlementWindowContent</title>
<polygon fill="#efefef" stroke="none" points="1881.19,-858 1881.19,-893.6 2212.65,-893.6 2212.65,-858 1881.19,-858"/>
<polygon fill="none" stroke="black" points="1881.19,-858 1881.19,-893.6 2212.65,-893.6 2212.65,-858 1881.19,-858"/>
<text text-anchor="start" x="1888.19" y="-871.4" font-family="Arial Bold" font-size="18.00">settlementWindowContent</text>
<text text-anchor="start" x="2081.16" y="-871.4" font-family="Arial" font-size="14.00">    </text>
<text text-anchor="start" x="2112.27" y="-871.4" font-family="Arial" font-size="14.00" fill="#666666">[BASE TABLE]</text>
<polygon fill="none" stroke="black" points="1881.19,-827.2 1881.19,-858 2212.65,-858 2212.65,-827.2 1881.19,-827.2"/>
<text text-anchor="start" x="1888.19" y="-839.4" font-family="Arial" font-size="14.00">settlementWindowContentId </text>
<text text-anchor="start" x="2067.17" y="-839.4" font-family="Arial" font-size="14.00" fill="#666666">[bigint unsigned]</text>
<polygon fill="none" stroke="black" points="1881.19,-796.4 1881.19,-827.2 2212.65,-827.2 2212.65,-796.4 1881.19,-796.4"/>
<text text-anchor="start" x="1888.19" y="-808.6" font-family="Arial" font-size="14.00">settlementWindowId </text>
<text text-anchor="start" x="2018.14" y="-808.6" font-family="Arial" font-size="14.00" fill="#666666">[bigint unsigned]</text>
<polygon fill="none" stroke="black" points="1881.19,-765.6 1881.19,-796.4 2212.65,-796.4 2212.65,-765.6 1881.19,-765.6"/>
<text text-anchor="start" x="1888.19" y="-777.8" font-family="Arial" font-size="14.00">ledgerAccountTypeId </text>
<text text-anchor="start" x="2024.38" y="-777.8" font-family="Arial" font-size="14.00" fill="#666666">[int unsigned]</text>
<polygon fill="none" stroke="black" points="1881.19,-734.8 1881.19,-765.6 2212.65,-765.6 2212.65,-734.8 1881.19,-734.8"/>
<text text-anchor="start" x="1888.19" y="-747" font-family="Arial" font-size="14.00">currencyId </text>
<text text-anchor="start" x="1957.44" y="-747" font-family="Arial" font-size="14.00" fill="#666666">[varchar(3)]</text>
<polygon fill="none" stroke="black" points="1881.19,-704 1881.19,-734.8 2212.65,-734.8 2212.65,-704 1881.19,-704"/>
<text text-anchor="start" x="1888.19" y="-716.2" font-family="Arial" font-size="14.00">currentStateChangeId </text>
<text text-anchor="start" x="2029.06" y="-716.2" font-family="Arial" font-size="14.00" fill="#666666">[bigint unsigned]</text>
<polygon fill="none" stroke="black" points="1881.19,-673.2 1881.19,-704 2212.65,-704 2212.65,-673.2 1881.19,-673.2"/>
<text text-anchor="start" x="1888.19" y="-685.4" font-family="Arial" font-size="14.00">settlementId </text>
<text text-anchor="start" x="1968.34" y="-685.4" font-family="Arial" font-size="14.00" fill="#666666">[bigint unsigned]</text>
<polygon fill="none" stroke="black" points="1881.19,-642.4 1881.19,-673.2 2212.65,-673.2 2212.65,-642.4 1881.19,-642.4"/>
<text text-anchor="start" x="1888.19" y="-654.6" font-family="Arial" font-size="14.00">SettlementModelId </text>
<text text-anchor="start" x="2008.81" y="-654.6" font-family="Arial" font-size="14.00" fill="#666666">[int unsigned]</text>
</g>
<!-- settlementWindowContent&#45;&gt;settlement -->
<g id="edge6" class="edge">
<title>settlementWindowContent:settlementId&#45;&gt;settlement:settlementId</title>
<path fill="none" stroke="black" d="M1870,-687.29C1839.25,-678.21 1862.43,-624.3 1828.92,-599.2 1727.48,-523.21 1401.08,-466 1274.34,-466"/>
<polygon fill="black" stroke="black" points="1869.94,-687.28 1879.29,-693.02 1875.23,-687.96 1879.53,-688.51 1879.53,-688.51 1879.53,-688.51 1875.23,-687.96 1880.43,-684.09 1869.94,-687.28"/>
<text text-anchor="start" x="1887.19" y="-698.6" font-family="Arial" font-size="10.00">FOREIGN KEY (settlementId) REFERENCES settlement (settlementId)</text>
</g>
</g>
</svg>
