<?xml version="1.0" encoding="UTF-8" standalone="no"?>
<!DOCTYPE svg PUBLIC "-//W3C//DTD SVG 1.1//EN"
 "http://www.w3.org/Graphics/SVG/1.1/DTD/svg11.dtd">
<!-- Generated by graphviz version 12.1.2 (20240928.0832)
 -->
<!-- Title: token Pages: 1 -->
<svg width="579pt" height="664pt"
 viewBox="0.00 0.00 579.38 663.60" xmlns="http://www.w3.org/2000/svg" xmlns:xlink="http://www.w3.org/1999/xlink">
<g id="graph0" class="graph" transform="scale(1 1) rotate(0) translate(4 659.6)">
<title>token</title>
<polygon fill="white" stroke="none" points="-4,4 -4,-659.6 575.38,-659.6 575.38,4 -4,4"/>
<!-- token -->
<g id="node1" class="node">
<title>token</title>
<polygon fill="#efefef" stroke="none" points="61.69,-573.8 61.69,-609.4 240.17,-609.4 240.17,-573.8 61.69,-573.8"/>
<polygon fill="none" stroke="black" points="61.69,-573.8 61.69,-609.4 240.17,-609.4 240.17,-573.8 61.69,-573.8"/>
<text text-anchor="start" x="68.69" y="-587.2" font-family="Arial Bold" font-size="18.00">token</text>
<text text-anchor="start" x="108.68" y="-587.2" font-family="Arial" font-size="14.00">    </text>
<text text-anchor="start" x="139.8" y="-587.2" font-family="Arial" font-size="14.00" fill="#666666">[BASE TABLE]</text>
<polygon fill="none" stroke="black" points="61.69,-543 61.69,-573.8 240.17,-573.8 240.17,-543 61.69,-543"/>
<text text-anchor="start" x="68.69" y="-555.2" font-family="Arial" font-size="14.00">tokenId </text>
<text text-anchor="start" x="118.5" y="-555.2" font-family="Arial" font-size="14.00" fill="#666666">[int unsigned]</text>
<polygon fill="none" stroke="black" points="61.69,-512.2 61.69,-543 240.17,-543 240.17,-512.2 61.69,-512.2"/>
<text text-anchor="start" x="68.69" y="-524.4" font-family="Arial" font-size="14.00">participantId </text>
<text text-anchor="start" x="148.85" y="-524.4" font-family="Arial" font-size="14.00" fill="#666666">[int unsigned]</text>
<polygon fill="none" stroke="black" points="61.69,-481.4 61.69,-512.2 240.17,-512.2 240.17,-481.4 61.69,-481.4"/>
<text text-anchor="start" x="68.69" y="-493.6" font-family="Arial" font-size="14.00">value </text>
<text text-anchor="start" x="106.05" y="-493.6" font-family="Arial" font-size="14.00" fill="#666666">[varchar(256)]</text>
<polygon fill="none" stroke="black" points="61.69,-450.6 61.69,-481.4 240.17,-481.4 240.17,-450.6 61.69,-450.6"/>
<text text-anchor="start" x="68.69" y="-462.8" font-family="Arial" font-size="14.00">expiration </text>
<text text-anchor="start" x="133.28" y="-462.8" font-family="Arial" font-size="14.00" fill="#666666">[bigint]</text>
<polygon fill="none" stroke="black" points="61.69,-419.8 61.69,-450.6 240.17,-450.6 240.17,-419.8 61.69,-419.8"/>
<text text-anchor="start" x="68.69" y="-432" font-family="Arial" font-size="14.00">createdDate </text>
<text text-anchor="start" x="148.85" y="-432" font-family="Arial" font-size="14.00" fill="#666666">[datetime]</text>
<polygon fill="none" stroke="black" stroke-width="3" points="60.19,-418.3 60.19,-610.9 241.67,-610.9 241.67,-418.3 60.19,-418.3"/>
</g>
<!-- participant -->
<g id="node2" class="node">
<title>participant</title>
<polygon fill="#efefef" stroke="none" points="43.2,-258.8 43.2,-294.4 258.66,-294.4 258.66,-258.8 43.2,-258.8"/>
<polygon fill="none" stroke="black" points="43.2,-258.8 43.2,-294.4 258.66,-294.4 258.66,-258.8 43.2,-258.8"/>
<text text-anchor="start" x="50.2" y="-272.2" font-family="Arial Bold" font-size="18.00">participant</text>
<text text-anchor="start" x="127.17" y="-272.2" font-family="Arial" font-size="14.00">    </text>
<text text-anchor="start" x="158.28" y="-272.2" font-family="Arial" font-size="14.00" fill="#666666">[BASE TABLE]</text>
<polygon fill="none" stroke="black" points="43.2,-228 43.2,-258.8 258.66,-258.8 258.66,-228 43.2,-228"/>
<text text-anchor="start" x="50.2" y="-240.2" font-family="Arial" font-size="14.00">participantId </text>
<text text-anchor="start" x="130.36" y="-240.2" font-family="Arial" font-size="14.00" fill="#666666">[int unsigned]</text>
<polygon fill="none" stroke="black" points="43.2,-197.2 43.2,-228 258.66,-228 258.66,-197.2 43.2,-197.2"/>
<text text-anchor="start" x="50.2" y="-209.4" font-family="Arial" font-size="14.00">name </text>
<text text-anchor="start" x="89.11" y="-209.4" font-family="Arial" font-size="14.00" fill="#666666">[varchar(256)]</text>
<polygon fill="none" stroke="black" points="43.2,-166.4 43.2,-197.2 258.66,-197.2 258.66,-166.4 43.2,-166.4"/>
<text text-anchor="start" x="50.2" y="-178.6" font-family="Arial" font-size="14.00">description </text>
<text text-anchor="start" x="121.79" y="-178.6" font-family="Arial" font-size="14.00" fill="#666666">[varchar(512)]</text>
<polygon fill="none" stroke="black" points="43.2,-135.6 43.2,-166.4 258.66,-166.4 258.66,-135.6 43.2,-135.6"/>
<text text-anchor="start" x="50.2" y="-147.8" font-family="Arial" font-size="14.00">isActive </text>
<text text-anchor="start" x="102.32" y="-147.8" font-family="Arial" font-size="14.00" fill="#666666">[tinyint(1)]</text>
<polygon fill="none" stroke="black" points="43.2,-104.8 43.2,-135.6 258.66,-135.6 258.66,-104.8 43.2,-104.8"/>
<text text-anchor="start" x="50.2" y="-117" font-family="Arial" font-size="14.00">createdDate </text>
<text text-anchor="start" x="130.36" y="-117" font-family="Arial" font-size="14.00" fill="#666666">[datetime]</text>
<polygon fill="none" stroke="black" points="43.2,-74 43.2,-104.8 258.66,-104.8 258.66,-74 43.2,-74"/>
<text text-anchor="start" x="50.2" y="-86.2" font-family="Arial" font-size="14.00">createdBy </text>
<text text-anchor="start" x="117.12" y="-86.2" font-family="Arial" font-size="14.00" fill="#666666">[varchar(128)]</text>
<polygon fill="none" stroke="black" points="43.2,-43.2 43.2,-74 258.66,-74 258.66,-43.2 43.2,-43.2"/>
<text text-anchor="start" x="50.2" y="-55.4" font-family="Arial" font-size="14.00">isProxy </text>
<text text-anchor="start" x="99.99" y="-55.4" font-family="Arial" font-size="14.00" fill="#666666">[tinyint(1)]</text>
</g>
<!-- token&#45;&gt;participant -->
<g id="edge1" class="edge">
<title>token:participantId&#45;&gt;participant:participantId</title>
<path fill="none" stroke="black" d="M251.14,-525.14C306.23,-497.37 319.48,-243.4 259.66,-243.4"/>
<polygon fill="black" stroke="black" points="251.2,-525.13 240.42,-523.15 246.02,-526.4 241.82,-527.44 241.82,-527.44 241.82,-527.44 246.02,-526.4 242.57,-531.89 251.2,-525.13"/>
<text text-anchor="start" x="248.17" y="-537.6" font-family="Arial" font-size="10.00">FOREIGN KEY (participantId) REFERENCES participant (participantId)</text>
</g>
</g>
</svg>
