<?xml version="1.0" encoding="UTF-8" standalone="no"?>
<!DOCTYPE svg PUBLIC "-//W3C//DTD SVG 1.1//EN"
 "http://www.w3.org/Graphics/SVG/1.1/DTD/svg11.dtd">
<!-- Generated by graphviz version 12.1.2 (20240928.0832)
 -->
<!-- Title: token Pages: 1 -->
<svg width="501pt" height="387pt"
 viewBox="0.00 0.00 500.56 387.37" xmlns="http://www.w3.org/2000/svg" xmlns:xlink="http://www.w3.org/1999/xlink">
<g id="graph0" class="graph" transform="scale(1 1) rotate(0) translate(4 383.37)">
<title>token</title>
<polygon fill="white" stroke="none" points="-4,4 -4,-383.37 496.56,-383.37 496.56,4 -4,4"/>
<!-- token -->
<g id="node1" class="node">
<title>token</title>
<polygon fill="#efefef" stroke="none" points="240.98,-297.57 240.98,-333.17 419.46,-333.17 419.46,-297.57 240.98,-297.57"/>
<polygon fill="none" stroke="black" points="240.98,-297.57 240.98,-333.17 419.46,-333.17 419.46,-297.57 240.98,-297.57"/>
<text text-anchor="start" x="247.98" y="-310.97" font-family="Arial Bold" font-size="18.00">token</text>
<text text-anchor="start" x="287.97" y="-310.97" font-family="Arial" font-size="14.00">    </text>
<text text-anchor="start" x="319.08" y="-310.97" font-family="Arial" font-size="14.00" fill="#666666">[BASE TABLE]</text>
<polygon fill="none" stroke="black" points="240.98,-266.77 240.98,-297.57 419.46,-297.57 419.46,-266.77 240.98,-266.77"/>
<text text-anchor="start" x="247.98" y="-278.97" font-family="Arial" font-size="14.00">tokenId </text>
<text text-anchor="start" x="297.79" y="-278.97" font-family="Arial" font-size="14.00" fill="#666666">[int unsigned]</text>
<polygon fill="none" stroke="black" points="240.98,-235.97 240.98,-266.77 419.46,-266.77 419.46,-235.97 240.98,-235.97"/>
<text text-anchor="start" x="247.98" y="-248.17" font-family="Arial" font-size="14.00">participantId </text>
<text text-anchor="start" x="328.13" y="-248.17" font-family="Arial" font-size="14.00" fill="#666666">[int unsigned]</text>
<polygon fill="none" stroke="black" stroke-width="3" points="239.48,-234.47 239.48,-334.67 420.96,-334.67 420.96,-234.47 239.48,-234.47"/>
</g>
<!-- participant -->
<g id="node2" class="node">
<title>participant</title>
<polygon fill="#efefef" stroke="none" points="222.49,-74.97 222.49,-110.57 437.94,-110.57 437.94,-74.97 222.49,-74.97"/>
<polygon fill="none" stroke="black" points="222.49,-74.97 222.49,-110.57 437.94,-110.57 437.94,-74.97 222.49,-74.97"/>
<text text-anchor="start" x="229.49" y="-88.37" font-family="Arial Bold" font-size="18.00">participant</text>
<text text-anchor="start" x="306.45" y="-88.37" font-family="Arial" font-size="14.00">    </text>
<text text-anchor="start" x="337.57" y="-88.37" font-family="Arial" font-size="14.00" fill="#666666">[BASE TABLE]</text>
<polygon fill="none" stroke="black" points="222.49,-44.17 222.49,-74.97 437.94,-74.97 437.94,-44.17 222.49,-44.17"/>
<text text-anchor="start" x="229.49" y="-56.37" font-family="Arial" font-size="14.00">participantId </text>
<text text-anchor="start" x="309.65" y="-56.37" font-family="Arial" font-size="14.00" fill="#666666">[int unsigned]</text>
</g>
<!-- token&#45;&gt;participant -->
<g id="edge1" class="edge">
<title>token:participantId&#45;&gt;participant:participantId</title>
<path fill="none" stroke="black" d="M330.99,-224.76C340.97,-164.4 443.98,-215.97 481.14,-153.77 493.64,-132.87 498.31,-61.45 481.14,-44.17 433.87,3.42 330.22,23.91 330.22,-43.17"/>
<polygon fill="black" stroke="black" points="331,-224.67 325.75,-234.3 330.6,-229.99 330.27,-234.31 330.27,-234.31 330.27,-234.31 330.6,-229.99 334.73,-234.98 331,-224.67"/>
<text text-anchor="start" x="7" y="-244.97" font-family="Arial" font-size="10.00">FOREIGN KEY (participantId) REFERENCES participant (participantId)</text>
</g>
</g>
</svg>
