<?xml version="1.0" encoding="UTF-8" standalone="no"?>
<!DOCTYPE svg PUBLIC "-//W3C//DTD SVG 1.1//EN"
 "http://www.w3.org/Graphics/SVG/1.1/DTD/svg11.dtd">
<!-- Generated by graphviz version 12.1.2 (20240928.0832)
 -->
<!-- Title: transferParticipant Pages: 1 -->
<svg width="1865pt" height="787pt"
 viewBox="0.00 0.00 1865.34 786.80" xmlns="http://www.w3.org/2000/svg" xmlns:xlink="http://www.w3.org/1999/xlink">
<g id="graph0" class="graph" transform="scale(1 1) rotate(0) translate(4 782.8)">
<title>transferParticipant</title>
<polygon fill="white" stroke="none" points="-4,4 -4,-782.8 1861.34,-782.8 1861.34,4 -4,4"/>
<!-- transferParticipant -->
<g id="node1" class="node">
<title>transferParticipant</title>
<polygon fill="#efefef" stroke="none" points="755.74,-697 755.74,-732.6 1042.11,-732.6 1042.11,-697 755.74,-697"/>
<polygon fill="none" stroke="black" points="755.74,-697 755.74,-732.6 1042.11,-732.6 1042.11,-697 755.74,-697"/>
<text text-anchor="start" x="770.21" y="-710.4" font-family="Arial Bold" font-size="18.00">transferParticipant</text>
<text text-anchor="start" x="903.16" y="-710.4" font-family="Arial" font-size="14.00">    </text>
<text text-anchor="start" x="934.27" y="-710.4" font-family="Arial" font-size="14.00" fill="#666666">[BASE TABLE]</text>
<polygon fill="none" stroke="black" points="755.74,-666.2 755.74,-697 1042.11,-697 1042.11,-666.2 755.74,-666.2"/>
<text text-anchor="start" x="762.74" y="-678.4" font-family="Arial" font-size="14.00">transferParticipantId </text>
<text text-anchor="start" x="891.91" y="-678.4" font-family="Arial" font-size="14.00" fill="#666666">[bigint unsigned]</text>
<polygon fill="none" stroke="black" points="755.74,-635.4 755.74,-666.2 1042.11,-666.2 1042.11,-635.4 755.74,-635.4"/>
<text text-anchor="start" x="762.74" y="-647.6" font-family="Arial" font-size="14.00">transferId </text>
<text text-anchor="start" x="825.77" y="-647.6" font-family="Arial" font-size="14.00" fill="#666666">[varchar(36)]</text>
<polygon fill="none" stroke="black" points="755.74,-604.6 755.74,-635.4 1042.11,-635.4 1042.11,-604.6 755.74,-604.6"/>
<text text-anchor="start" x="762.74" y="-616.8" font-family="Arial" font-size="14.00">participantCurrencyId </text>
<text text-anchor="start" x="899.69" y="-616.8" font-family="Arial" font-size="14.00" fill="#666666">[int unsigned]</text>
<polygon fill="none" stroke="black" points="755.74,-573.8 755.74,-604.6 1042.11,-604.6 1042.11,-573.8 755.74,-573.8"/>
<text text-anchor="start" x="762.74" y="-586" font-family="Arial" font-size="14.00">transferParticipantRoleTypeId </text>
<text text-anchor="start" x="951.83" y="-586" font-family="Arial" font-size="14.00" fill="#666666">[int unsigned]</text>
<polygon fill="none" stroke="black" points="755.74,-543 755.74,-573.8 1042.11,-573.8 1042.11,-543 755.74,-543"/>
<text text-anchor="start" x="762.74" y="-555.2" font-family="Arial" font-size="14.00">ledgerEntryTypeId </text>
<text text-anchor="start" x="881.02" y="-555.2" font-family="Arial" font-size="14.00" fill="#666666">[int unsigned]</text>
<polygon fill="none" stroke="black" points="755.74,-512.2 755.74,-543 1042.11,-543 1042.11,-512.2 755.74,-512.2"/>
<text text-anchor="start" x="762.74" y="-524.4" font-family="Arial" font-size="14.00">amount </text>
<text text-anchor="start" x="813.33" y="-524.4" font-family="Arial" font-size="14.00" fill="#666666">[decimal(18,4)]</text>
<polygon fill="none" stroke="black" points="755.74,-481.4 755.74,-512.2 1042.11,-512.2 1042.11,-481.4 755.74,-481.4"/>
<text text-anchor="start" x="762.74" y="-493.6" font-family="Arial" font-size="14.00">createdDate </text>
<text text-anchor="start" x="842.9" y="-493.6" font-family="Arial" font-size="14.00" fill="#666666">[datetime]</text>
<polygon fill="none" stroke="black" points="755.74,-450.6 755.74,-481.4 1042.11,-481.4 1042.11,-450.6 755.74,-450.6"/>
<text text-anchor="start" x="762.74" y="-462.8" font-family="Arial" font-size="14.00">participantId </text>
<text text-anchor="start" x="842.9" y="-462.8" font-family="Arial" font-size="14.00" fill="#666666">[int unsigned]</text>
<polygon fill="none" stroke="black" points="755.74,-419.8 755.74,-450.6 1042.11,-450.6 1042.11,-419.8 755.74,-419.8"/>
<text text-anchor="start" x="762.74" y="-432" font-family="Arial" font-size="14.00">externalParticipantId </text>
<text text-anchor="start" x="894.26" y="-432" font-family="Arial" font-size="14.00" fill="#666666">[bigint unsigned]</text>
<polygon fill="none" stroke="black" stroke-width="3" points="754.24,-418.3 754.24,-734.1 1043.61,-734.1 1043.61,-418.3 754.24,-418.3"/>
</g>
<!-- transfer -->
<g id="node2" class="node">
<title>transfer</title>
<polygon fill="#efefef" stroke="none" points="43.2,-243.4 43.2,-279 236.66,-279 236.66,-243.4 43.2,-243.4"/>
<polygon fill="none" stroke="black" points="43.2,-243.4 43.2,-279 236.66,-279 236.66,-243.4 43.2,-243.4"/>
<text text-anchor="start" x="50.2" y="-256.8" font-family="Arial Bold" font-size="18.00">transfer</text>
<text text-anchor="start" x="105.17" y="-256.8" font-family="Arial" font-size="14.00">    </text>
<text text-anchor="start" x="136.28" y="-256.8" font-family="Arial" font-size="14.00" fill="#666666">[BASE TABLE]</text>
<polygon fill="none" stroke="black" points="43.2,-212.6 43.2,-243.4 236.66,-243.4 236.66,-212.6 43.2,-212.6"/>
<text text-anchor="start" x="50.2" y="-224.8" font-family="Arial" font-size="14.00">transferId </text>
<text text-anchor="start" x="113.23" y="-224.8" font-family="Arial" font-size="14.00" fill="#666666">[varchar(36)]</text>
<polygon fill="none" stroke="black" points="43.2,-181.8 43.2,-212.6 236.66,-212.6 236.66,-181.8 43.2,-181.8"/>
<text text-anchor="start" x="50.2" y="-194" font-family="Arial" font-size="14.00">amount </text>
<text text-anchor="start" x="100.79" y="-194" font-family="Arial" font-size="14.00" fill="#666666">[decimal(18,4)]</text>
<polygon fill="none" stroke="black" points="43.2,-151 43.2,-181.8 236.66,-181.8 236.66,-151 43.2,-151"/>
<text text-anchor="start" x="50.2" y="-163.2" font-family="Arial" font-size="14.00">currencyId </text>
<text text-anchor="start" x="119.45" y="-163.2" font-family="Arial" font-size="14.00" fill="#666666">[varchar(3)]</text>
<polygon fill="none" stroke="black" points="43.2,-120.2 43.2,-151 236.66,-151 236.66,-120.2 43.2,-120.2"/>
<text text-anchor="start" x="50.2" y="-132.4" font-family="Arial" font-size="14.00">ilpCondition </text>
<text text-anchor="start" x="127.25" y="-132.4" font-family="Arial" font-size="14.00" fill="#666666">[varchar(256)]</text>
<polygon fill="none" stroke="black" points="43.2,-89.4 43.2,-120.2 236.66,-120.2 236.66,-89.4 43.2,-89.4"/>
<text text-anchor="start" x="50.2" y="-101.6" font-family="Arial" font-size="14.00">expirationDate </text>
<text text-anchor="start" x="144.37" y="-101.6" font-family="Arial" font-size="14.00" fill="#666666">[datetime]</text>
<polygon fill="none" stroke="black" points="43.2,-58.6 43.2,-89.4 236.66,-89.4 236.66,-58.6 43.2,-58.6"/>
<text text-anchor="start" x="50.2" y="-70.8" font-family="Arial" font-size="14.00">createdDate </text>
<text text-anchor="start" x="130.36" y="-70.8" font-family="Arial" font-size="14.00" fill="#666666">[datetime]</text>
</g>
<!-- transferParticipant&#45;&gt;transfer -->
<g id="edge1" class="edge">
<title>transferParticipant:transferId&#45;&gt;transfer:transferId</title>
<path fill="none" stroke="black" d="M744.62,-650.73C503.77,-647.4 448.99,-524.49 288.93,-337.6 253.95,-296.75 291.43,-228 237.66,-228"/>
<polygon fill="black" stroke="black" points="744.41,-650.73 754.38,-655.3 749.74,-650.77 754.07,-650.8 754.07,-650.8 754.07,-650.8 749.74,-650.77 754.44,-646.3 744.41,-650.73"/>
<text text-anchor="start" x="468.24" y="-660.8" font-family="Arial" font-size="10.00">FOREIGN KEY (transferId) REFERENCES transfer (transferId)</text>
</g>
<!-- participantCurrency -->
<g id="node3" class="node">
<title>participantCurrency</title>
<polygon fill="#efefef" stroke="none" points="340.71,-258.8 340.71,-294.4 623.14,-294.4 623.14,-258.8 340.71,-258.8"/>
<polygon fill="none" stroke="black" points="340.71,-258.8 340.71,-294.4 623.14,-294.4 623.14,-258.8 340.71,-258.8"/>
<text text-anchor="start" x="347.71" y="-272.2" font-family="Arial Bold" font-size="18.00">participantCurrency</text>
<text text-anchor="start" x="491.65" y="-272.2" font-family="Arial" font-size="14.00">    </text>
<text text-anchor="start" x="522.77" y="-272.2" font-family="Arial" font-size="14.00" fill="#666666">[BASE TABLE]</text>
<polygon fill="none" stroke="black" points="340.71,-228 340.71,-258.8 623.14,-258.8 623.14,-228 340.71,-228"/>
<text text-anchor="start" x="347.71" y="-240.2" font-family="Arial" font-size="14.00">participantCurrencyId </text>
<text text-anchor="start" x="484.67" y="-240.2" font-family="Arial" font-size="14.00" fill="#666666">[int unsigned]</text>
<polygon fill="none" stroke="black" points="340.71,-197.2 340.71,-228 623.14,-228 623.14,-197.2 340.71,-197.2"/>
<text text-anchor="start" x="347.71" y="-209.4" font-family="Arial" font-size="14.00">participantId </text>
<text text-anchor="start" x="427.87" y="-209.4" font-family="Arial" font-size="14.00" fill="#666666">[int unsigned]</text>
<polygon fill="none" stroke="black" points="340.71,-166.4 340.71,-197.2 623.14,-197.2 623.14,-166.4 340.71,-166.4"/>
<text text-anchor="start" x="347.71" y="-178.6" font-family="Arial" font-size="14.00">currencyId </text>
<text text-anchor="start" x="416.96" y="-178.6" font-family="Arial" font-size="14.00" fill="#666666">[varchar(3)]</text>
<polygon fill="none" stroke="black" points="340.71,-135.6 340.71,-166.4 623.14,-166.4 623.14,-135.6 340.71,-135.6"/>
<text text-anchor="start" x="347.71" y="-147.8" font-family="Arial" font-size="14.00">ledgerAccountTypeId </text>
<text text-anchor="start" x="483.91" y="-147.8" font-family="Arial" font-size="14.00" fill="#666666">[int unsigned]</text>
<polygon fill="none" stroke="black" points="340.71,-104.8 340.71,-135.6 623.14,-135.6 623.14,-104.8 340.71,-104.8"/>
<text text-anchor="start" x="347.71" y="-117" font-family="Arial" font-size="14.00">isActive </text>
<text text-anchor="start" x="399.84" y="-117" font-family="Arial" font-size="14.00" fill="#666666">[tinyint(1)]</text>
<polygon fill="none" stroke="black" points="340.71,-74 340.71,-104.8 623.14,-104.8 623.14,-74 340.71,-74"/>
<text text-anchor="start" x="347.71" y="-86.2" font-family="Arial" font-size="14.00">createdDate </text>
<text text-anchor="start" x="427.87" y="-86.2" font-family="Arial" font-size="14.00" fill="#666666">[datetime]</text>
<polygon fill="none" stroke="black" points="340.71,-43.2 340.71,-74 623.14,-74 623.14,-43.2 340.71,-43.2"/>
<text text-anchor="start" x="347.71" y="-55.4" font-family="Arial" font-size="14.00">createdBy </text>
<text text-anchor="start" x="414.64" y="-55.4" font-family="Arial" font-size="14.00" fill="#666666">[varchar(128)]</text>
</g>
<!-- transferParticipant&#45;&gt;participantCurrency -->
<g id="edge2" class="edge">
<title>transferParticipant:participantCurrencyId&#45;&gt;participantCurrency:participantCurrencyId</title>
<path fill="none" stroke="black" d="M745.69,-614.96C704.7,-570.27 665.4,-243.4 624.14,-243.4"/>
<polygon fill="black" stroke="black" points="745.71,-614.97 752.26,-623.77 750.37,-617.57 754.16,-619.67 754.16,-619.67 754.16,-619.67 750.37,-617.57 756.64,-615.91 745.71,-614.97"/>
<text text-anchor="start" x="309.83" y="-630" font-family="Arial" font-size="10.00">FOREIGN KEY (participantCurrencyId) REFERENCES participantCurrency (participantCurrencyId)</text>
</g>
<!-- transferParticipantRoleType -->
<g id="node4" class="node">
<title>transferParticipantRoleType</title>
<polygon fill="#efefef" stroke="none" points="727.72,-228 727.72,-263.6 1070.13,-263.6 1070.13,-228 727.72,-228"/>
<polygon fill="none" stroke="black" points="727.72,-228 727.72,-263.6 1070.13,-263.6 1070.13,-228 727.72,-228"/>
<text text-anchor="start" x="734.72" y="-241.4" font-family="Arial Bold" font-size="18.00">transferParticipantRoleType</text>
<text text-anchor="start" x="938.65" y="-241.4" font-family="Arial" font-size="14.00">    </text>
<text text-anchor="start" x="969.76" y="-241.4" font-family="Arial" font-size="14.00" fill="#666666">[BASE TABLE]</text>
<polygon fill="none" stroke="black" points="727.72,-197.2 727.72,-228 1070.13,-228 1070.13,-197.2 727.72,-197.2"/>
<text text-anchor="start" x="734.72" y="-209.4" font-family="Arial" font-size="14.00">transferParticipantRoleTypeId </text>
<text text-anchor="start" x="923.81" y="-209.4" font-family="Arial" font-size="14.00" fill="#666666">[int unsigned]</text>
<polygon fill="none" stroke="black" points="727.72,-166.4 727.72,-197.2 1070.13,-197.2 1070.13,-166.4 727.72,-166.4"/>
<text text-anchor="start" x="734.72" y="-178.6" font-family="Arial" font-size="14.00">name </text>
<text text-anchor="start" x="773.63" y="-178.6" font-family="Arial" font-size="14.00" fill="#666666">[varchar(50)]</text>
<polygon fill="none" stroke="black" points="727.72,-135.6 727.72,-166.4 1070.13,-166.4 1070.13,-135.6 727.72,-135.6"/>
<text text-anchor="start" x="734.72" y="-147.8" font-family="Arial" font-size="14.00">description </text>
<text text-anchor="start" x="806.31" y="-147.8" font-family="Arial" font-size="14.00" fill="#666666">[varchar(512)]</text>
<polygon fill="none" stroke="black" points="727.72,-104.8 727.72,-135.6 1070.13,-135.6 1070.13,-104.8 727.72,-104.8"/>
<text text-anchor="start" x="734.72" y="-117" font-family="Arial" font-size="14.00">isActive </text>
<text text-anchor="start" x="786.85" y="-117" font-family="Arial" font-size="14.00" fill="#666666">[tinyint(1)]</text>
<polygon fill="none" stroke="black" points="727.72,-74 727.72,-104.8 1070.13,-104.8 1070.13,-74 727.72,-74"/>
<text text-anchor="start" x="734.72" y="-86.2" font-family="Arial" font-size="14.00">createdDate </text>
<text text-anchor="start" x="814.88" y="-86.2" font-family="Arial" font-size="14.00" fill="#666666">[datetime]</text>
</g>
<!-- transferParticipant&#45;&gt;transferParticipantRoleType -->
<g id="edge3" class="edge">
<title>transferParticipant:transferParticipantRoleTypeId&#45;&gt;transferParticipantRoleType:transferParticipantRoleTypeId</title>
<path fill="none" stroke="black" d="M1053.15,-587.35C1129.14,-558.94 1151.61,-212.6 1071.13,-212.6"/>
<polygon fill="black" stroke="black" points="1053.28,-587.33 1042.63,-584.71 1048.03,-588.29 1043.77,-589.08 1043.77,-589.08 1043.77,-589.08 1048.03,-588.29 1044.26,-593.57 1053.28,-587.33"/>
<text text-anchor="start" x="1050.11" y="-599.2" font-family="Arial" font-size="10.00">FOREIGN KEY (transferParticipantRoleTypeId) REFERENCES transferParticipantRoleType (transferParticipantRoleTypeId)</text>
</g>
<!-- ledgerEntryType -->
<g id="node5" class="node">
<title>ledgerEntryType</title>
<polygon fill="#efefef" stroke="none" points="1174.71,-243.4 1174.71,-279 1435.15,-279 1435.15,-243.4 1174.71,-243.4"/>
<polygon fill="none" stroke="black" points="1174.71,-243.4 1174.71,-279 1435.15,-279 1435.15,-243.4 1174.71,-243.4"/>
<text text-anchor="start" x="1181.71" y="-256.8" font-family="Arial Bold" font-size="18.00">ledgerEntryType</text>
<text text-anchor="start" x="1303.66" y="-256.8" font-family="Arial" font-size="14.00">    </text>
<text text-anchor="start" x="1334.77" y="-256.8" font-family="Arial" font-size="14.00" fill="#666666">[BASE TABLE]</text>
<polygon fill="none" stroke="black" points="1174.71,-212.6 1174.71,-243.4 1435.15,-243.4 1435.15,-212.6 1174.71,-212.6"/>
<text text-anchor="start" x="1181.71" y="-224.8" font-family="Arial" font-size="14.00">ledgerEntryTypeId </text>
<text text-anchor="start" x="1299.99" y="-224.8" font-family="Arial" font-size="14.00" fill="#666666">[int unsigned]</text>
<polygon fill="none" stroke="black" points="1174.71,-181.8 1174.71,-212.6 1435.15,-212.6 1435.15,-181.8 1174.71,-181.8"/>
<text text-anchor="start" x="1181.71" y="-194" font-family="Arial" font-size="14.00">name </text>
<text text-anchor="start" x="1220.62" y="-194" font-family="Arial" font-size="14.00" fill="#666666">[varchar(50)]</text>
<polygon fill="none" stroke="black" points="1174.71,-151 1174.71,-181.8 1435.15,-181.8 1435.15,-151 1174.71,-151"/>
<text text-anchor="start" x="1181.71" y="-163.2" font-family="Arial" font-size="14.00">description </text>
<text text-anchor="start" x="1253.3" y="-163.2" font-family="Arial" font-size="14.00" fill="#666666">[varchar(512)]</text>
<polygon fill="none" stroke="black" points="1174.71,-120.2 1174.71,-151 1435.15,-151 1435.15,-120.2 1174.71,-120.2"/>
<text text-anchor="start" x="1181.71" y="-132.4" font-family="Arial" font-size="14.00">isActive </text>
<text text-anchor="start" x="1233.83" y="-132.4" font-family="Arial" font-size="14.00" fill="#666666">[tinyint(1)]</text>
<polygon fill="none" stroke="black" points="1174.71,-89.4 1174.71,-120.2 1435.15,-120.2 1435.15,-89.4 1174.71,-89.4"/>
<text text-anchor="start" x="1181.71" y="-101.6" font-family="Arial" font-size="14.00">createdDate </text>
<text text-anchor="start" x="1261.87" y="-101.6" font-family="Arial" font-size="14.00" fill="#666666">[datetime]</text>
<polygon fill="none" stroke="black" points="1174.71,-58.6 1174.71,-89.4 1435.15,-89.4 1435.15,-58.6 1174.71,-58.6"/>
<text text-anchor="start" x="1181.71" y="-70.8" font-family="Arial" font-size="14.00">ledgerAccountTypeId </text>
<text text-anchor="start" x="1317.9" y="-70.8" font-family="Arial" font-size="14.00" fill="#666666">[int unsigned]</text>
</g>
<!-- transferParticipant&#45;&gt;ledgerEntryType -->
<g id="edge4" class="edge">
<title>transferParticipant:ledgerEntryTypeId&#45;&gt;ledgerEntryType:ledgerEntryTypeId</title>
<path fill="none" stroke="black" d="M1052.09,-553.21C1090.19,-511.18 1137.16,-228 1173.71,-228"/>
<polygon fill="black" stroke="black" points="1052.06,-553.23 1041.15,-554.34 1047.44,-555.9 1043.69,-558.07 1043.69,-558.07 1043.69,-558.07 1047.44,-555.9 1045.65,-562.13 1052.06,-553.23"/>
<text text-anchor="start" x="1050.11" y="-568.4" font-family="Arial" font-size="10.00">FOREIGN KEY (ledgerEntryTypeId) REFERENCES ledgerEntryType (ledgerEntryTypeId)</text>
</g>
<!-- externalParticipant -->
<g id="node6" class="node">
<title>externalParticipant</title>
<polygon fill="#efefef" stroke="none" points="1539.71,-212.6 1539.71,-248.2 1814.14,-248.2 1814.14,-212.6 1539.71,-212.6"/>
<polygon fill="none" stroke="black" points="1539.71,-212.6 1539.71,-248.2 1814.14,-248.2 1814.14,-212.6 1539.71,-212.6"/>
<text text-anchor="start" x="1546.71" y="-226" font-family="Arial Bold" font-size="18.00">externalParticipant</text>
<text text-anchor="start" x="1682.65" y="-226" font-family="Arial" font-size="14.00">    </text>
<text text-anchor="start" x="1713.77" y="-226" font-family="Arial" font-size="14.00" fill="#666666">[BASE TABLE]</text>
<polygon fill="none" stroke="black" points="1539.71,-181.8 1539.71,-212.6 1814.14,-212.6 1814.14,-181.8 1539.71,-181.8"/>
<text text-anchor="start" x="1546.71" y="-194" font-family="Arial" font-size="14.00">externalParticipantId </text>
<text text-anchor="start" x="1678.23" y="-194" font-family="Arial" font-size="14.00" fill="#666666">[bigint unsigned]</text>
<polygon fill="none" stroke="black" points="1539.71,-151 1539.71,-181.8 1814.14,-181.8 1814.14,-151 1539.71,-151"/>
<text text-anchor="start" x="1546.71" y="-163.2" font-family="Arial" font-size="14.00">name </text>
<text text-anchor="start" x="1585.62" y="-163.2" font-family="Arial" font-size="14.00" fill="#666666">[varchar(30)]</text>
<polygon fill="none" stroke="black" points="1539.71,-120.2 1539.71,-151 1814.14,-151 1814.14,-120.2 1539.71,-120.2"/>
<text text-anchor="start" x="1546.71" y="-132.4" font-family="Arial" font-size="14.00">createdDate </text>
<text text-anchor="start" x="1626.87" y="-132.4" font-family="Arial" font-size="14.00" fill="#666666">[datetime]</text>
<polygon fill="none" stroke="black" points="1539.71,-89.4 1539.71,-120.2 1814.14,-120.2 1814.14,-89.4 1539.71,-89.4"/>
<text text-anchor="start" x="1546.71" y="-101.6" font-family="Arial" font-size="14.00">proxyId </text>
<text text-anchor="start" x="1596.51" y="-101.6" font-family="Arial" font-size="14.00" fill="#666666">[int unsigned]</text>
</g>
<!-- transferParticipant&#45;&gt;externalParticipant -->
<g id="edge5" class="edge">
<title>transferParticipant:externalParticipantId&#45;&gt;externalParticipant:externalParticipantId</title>
<path fill="none" stroke="black" d="M1053.38,-435.1C1161.09,-433.15 1413.26,-401.82 1486.93,-337.6 1537.06,-293.9 1472.2,-197.2 1538.71,-197.2"/>
<polygon fill="black" stroke="black" points="1053.45,-435.1 1043.41,-430.7 1048.11,-435.15 1043.78,-435.19 1043.78,-435.19 1043.78,-435.19 1048.11,-435.15 1043.49,-439.7 1053.45,-435.1"/>
<text text-anchor="start" x="1050.11" y="-445.2" font-family="Arial" font-size="10.00">FOREIGN KEY (externalParticipantId) REFERENCES externalParticipant (externalParticipantId)</text>
</g>
</g>
</svg>
