<?xml version="1.0" encoding="UTF-8" standalone="no"?>
<!DOCTYPE svg PUBLIC "-//W3C//DTD SVG 1.1//EN"
 "http://www.w3.org/Graphics/SVG/1.1/DTD/svg11.dtd">
<!-- Generated by graphviz version 12.1.2 (20240928.0832)
 -->
<!-- Title: transferParticipant Pages: 1 -->
<svg width="1865pt" height="602pt"
 viewBox="0.00 0.00 1865.34 602.00" xmlns="http://www.w3.org/2000/svg" xmlns:xlink="http://www.w3.org/1999/xlink">
<g id="graph0" class="graph" transform="scale(1 1) rotate(0) translate(4 598)">
<title>transferParticipant</title>
<polygon fill="white" stroke="none" points="-4,4 -4,-598 1861.34,-598 1861.34,4 -4,4"/>
<!-- transferParticipant -->
<g id="node1" class="node">
<title>transferParticipant</title>
<polygon fill="#efefef" stroke="none" points="755.74,-512.2 755.74,-547.8 1042.11,-547.8 1042.11,-512.2 755.74,-512.2"/>
<polygon fill="none" stroke="black" points="755.74,-512.2 755.74,-547.8 1042.11,-547.8 1042.11,-512.2 755.74,-512.2"/>
<text text-anchor="start" x="770.21" y="-525.6" font-family="Arial Bold" font-size="18.00">transferParticipant</text>
<text text-anchor="start" x="903.16" y="-525.6" font-family="Arial" font-size="14.00">    </text>
<text text-anchor="start" x="934.27" y="-525.6" font-family="Arial" font-size="14.00" fill="#666666">[BASE TABLE]</text>
<polygon fill="none" stroke="black" points="755.74,-481.4 755.74,-512.2 1042.11,-512.2 1042.11,-481.4 755.74,-481.4"/>
<text text-anchor="start" x="762.74" y="-493.6" font-family="Arial" font-size="14.00">transferParticipantId </text>
<text text-anchor="start" x="891.91" y="-493.6" font-family="Arial" font-size="14.00" fill="#666666">[bigint unsigned]</text>
<polygon fill="none" stroke="black" points="755.74,-450.6 755.74,-481.4 1042.11,-481.4 1042.11,-450.6 755.74,-450.6"/>
<text text-anchor="start" x="762.74" y="-462.8" font-family="Arial" font-size="14.00">transferId </text>
<text text-anchor="start" x="825.77" y="-462.8" font-family="Arial" font-size="14.00" fill="#666666">[varchar(36)]</text>
<polygon fill="none" stroke="black" points="755.74,-419.8 755.74,-450.6 1042.11,-450.6 1042.11,-419.8 755.74,-419.8"/>
<text text-anchor="start" x="762.74" y="-432" font-family="Arial" font-size="14.00">participantCurrencyId </text>
<text text-anchor="start" x="899.69" y="-432" font-family="Arial" font-size="14.00" fill="#666666">[int unsigned]</text>
<polygon fill="none" stroke="black" points="755.74,-389 755.74,-419.8 1042.11,-419.8 1042.11,-389 755.74,-389"/>
<text text-anchor="start" x="762.74" y="-401.2" font-family="Arial" font-size="14.00">transferParticipantRoleTypeId </text>
<text text-anchor="start" x="951.83" y="-401.2" font-family="Arial" font-size="14.00" fill="#666666">[int unsigned]</text>
<polygon fill="none" stroke="black" points="755.74,-358.2 755.74,-389 1042.11,-389 1042.11,-358.2 755.74,-358.2"/>
<text text-anchor="start" x="762.74" y="-370.4" font-family="Arial" font-size="14.00">ledgerEntryTypeId </text>
<text text-anchor="start" x="881.02" y="-370.4" font-family="Arial" font-size="14.00" fill="#666666">[int unsigned]</text>
<polygon fill="none" stroke="black" points="755.74,-327.4 755.74,-358.2 1042.11,-358.2 1042.11,-327.4 755.74,-327.4"/>
<text text-anchor="start" x="762.74" y="-339.6" font-family="Arial" font-size="14.00">externalParticipantId </text>
<text text-anchor="start" x="894.26" y="-339.6" font-family="Arial" font-size="14.00" fill="#666666">[bigint unsigned]</text>
<polygon fill="none" stroke="black" stroke-width="3" points="754.24,-325.9 754.24,-549.3 1043.61,-549.3 1043.61,-325.9 754.24,-325.9"/>
</g>
<!-- transfer -->
<g id="node2" class="node">
<title>transfer</title>
<polygon fill="#efefef" stroke="none" points="43.2,-135.6 43.2,-171.2 236.66,-171.2 236.66,-135.6 43.2,-135.6"/>
<polygon fill="none" stroke="black" points="43.2,-135.6 43.2,-171.2 236.66,-171.2 236.66,-135.6 43.2,-135.6"/>
<text text-anchor="start" x="50.2" y="-149" font-family="Arial Bold" font-size="18.00">transfer</text>
<text text-anchor="start" x="105.17" y="-149" font-family="Arial" font-size="14.00">    </text>
<text text-anchor="start" x="136.28" y="-149" font-family="Arial" font-size="14.00" fill="#666666">[BASE TABLE]</text>
<polygon fill="none" stroke="black" points="43.2,-104.8 43.2,-135.6 236.66,-135.6 236.66,-104.8 43.2,-104.8"/>
<text text-anchor="start" x="50.2" y="-117" font-family="Arial" font-size="14.00">transferId </text>
<text text-anchor="start" x="113.23" y="-117" font-family="Arial" font-size="14.00" fill="#666666">[varchar(36)]</text>
<polygon fill="none" stroke="black" points="43.2,-74 43.2,-104.8 236.66,-104.8 236.66,-74 43.2,-74"/>
<text text-anchor="start" x="50.2" y="-86.2" font-family="Arial" font-size="14.00">currencyId </text>
<text text-anchor="start" x="119.45" y="-86.2" font-family="Arial" font-size="14.00" fill="#666666">[varchar(3)]</text>
</g>
<!-- transferParticipant&#45;&gt;transfer -->
<g id="edge1" class="edge">
<title>transferParticipant:transferId&#45;&gt;transfer:transferId</title>
<path fill="none" stroke="black" d="M744.44,-465.96C523.22,-464.32 444.16,-408.95 288.93,-245.2 247.62,-201.62 297.7,-120.2 237.66,-120.2"/>
<polygon fill="black" stroke="black" points="744.41,-465.96 754.39,-470.5 749.74,-465.98 754.07,-466 754.07,-466 754.07,-466 749.74,-465.98 754.42,-461.5 744.41,-465.96"/>
<text text-anchor="start" x="468.24" y="-476" font-family="Arial" font-size="10.00">FOREIGN KEY (transferId) REFERENCES transfer (transferId)</text>
</g>
<!-- participantCurrency -->
<g id="node3" class="node">
<title>participantCurrency</title>
<polygon fill="#efefef" stroke="none" points="340.71,-166.4 340.71,-202 623.14,-202 623.14,-166.4 340.71,-166.4"/>
<polygon fill="none" stroke="black" points="340.71,-166.4 340.71,-202 623.14,-202 623.14,-166.4 340.71,-166.4"/>
<text text-anchor="start" x="347.71" y="-179.8" font-family="Arial Bold" font-size="18.00">participantCurrency</text>
<text text-anchor="start" x="491.65" y="-179.8" font-family="Arial" font-size="14.00">    </text>
<text text-anchor="start" x="522.77" y="-179.8" font-family="Arial" font-size="14.00" fill="#666666">[BASE TABLE]</text>
<polygon fill="none" stroke="black" points="340.71,-135.6 340.71,-166.4 623.14,-166.4 623.14,-135.6 340.71,-135.6"/>
<text text-anchor="start" x="347.71" y="-147.8" font-family="Arial" font-size="14.00">participantCurrencyId </text>
<text text-anchor="start" x="484.67" y="-147.8" font-family="Arial" font-size="14.00" fill="#666666">[int unsigned]</text>
<polygon fill="none" stroke="black" points="340.71,-104.8 340.71,-135.6 623.14,-135.6 623.14,-104.8 340.71,-104.8"/>
<text text-anchor="start" x="347.71" y="-117" font-family="Arial" font-size="14.00">participantId </text>
<text text-anchor="start" x="427.87" y="-117" font-family="Arial" font-size="14.00" fill="#666666">[int unsigned]</text>
<polygon fill="none" stroke="black" points="340.71,-74 340.71,-104.8 623.14,-104.8 623.14,-74 340.71,-74"/>
<text text-anchor="start" x="347.71" y="-86.2" font-family="Arial" font-size="14.00">currencyId </text>
<text text-anchor="start" x="416.96" y="-86.2" font-family="Arial" font-size="14.00" fill="#666666">[varchar(3)]</text>
<polygon fill="none" stroke="black" points="340.71,-43.2 340.71,-74 623.14,-74 623.14,-43.2 340.71,-43.2"/>
<text text-anchor="start" x="347.71" y="-55.4" font-family="Arial" font-size="14.00">ledgerAccountTypeId </text>
<text text-anchor="start" x="483.91" y="-55.4" font-family="Arial" font-size="14.00" fill="#666666">[int unsigned]</text>
</g>
<!-- transferParticipant&#45;&gt;participantCurrency -->
<g id="edge2" class="edge">
<title>transferParticipant:participantCurrencyId&#45;&gt;participantCurrency:participantCurrencyId</title>
<path fill="none" stroke="black" d="M745.91,-430.02C710.37,-391.51 656.11,-151 624.14,-151"/>
<polygon fill="black" stroke="black" points="745.83,-429.97 752.18,-438.91 750.43,-432.67 754.17,-434.86 754.17,-434.86 754.17,-434.86 750.43,-432.67 756.73,-431.15 745.83,-429.97"/>
<text text-anchor="start" x="309.83" y="-445.2" font-family="Arial" font-size="10.00">FOREIGN KEY (participantCurrencyId) REFERENCES participantCurrency (participantCurrencyId)</text>
</g>
<!-- transferParticipantRoleType -->
<g id="node4" class="node">
<title>transferParticipantRoleType</title>
<polygon fill="#efefef" stroke="none" points="727.72,-120.2 727.72,-155.8 1070.13,-155.8 1070.13,-120.2 727.72,-120.2"/>
<polygon fill="none" stroke="black" points="727.72,-120.2 727.72,-155.8 1070.13,-155.8 1070.13,-120.2 727.72,-120.2"/>
<text text-anchor="start" x="734.72" y="-133.6" font-family="Arial Bold" font-size="18.00">transferParticipantRoleType</text>
<text text-anchor="start" x="938.65" y="-133.6" font-family="Arial" font-size="14.00">    </text>
<text text-anchor="start" x="969.76" y="-133.6" font-family="Arial" font-size="14.00" fill="#666666">[BASE TABLE]</text>
<polygon fill="none" stroke="black" points="727.72,-89.4 727.72,-120.2 1070.13,-120.2 1070.13,-89.4 727.72,-89.4"/>
<text text-anchor="start" x="734.72" y="-101.6" font-family="Arial" font-size="14.00">transferParticipantRoleTypeId </text>
<text text-anchor="start" x="923.81" y="-101.6" font-family="Arial" font-size="14.00" fill="#666666">[int unsigned]</text>
</g>
<!-- transferParticipant&#45;&gt;transferParticipantRoleType -->
<g id="edge3" class="edge">
<title>transferParticipant:transferParticipantRoleTypeId&#45;&gt;transferParticipantRoleType:transferParticipantRoleTypeId</title>
<path fill="none" stroke="black" d="M1053.29,-403.95C1136.55,-396.24 1098.1,-290.64 1113.33,-199 1117.33,-174.97 1130.52,-106.66 1113.33,-89.4 1079.72,-55.63 898.93,-40.75 898.93,-88.4"/>
<polygon fill="black" stroke="black" points="1053.44,-403.94 1043.25,-399.89 1048.11,-404.18 1043.78,-404.37 1043.78,-404.37 1043.78,-404.37 1048.11,-404.18 1043.65,-408.88 1053.44,-403.94"/>
<text text-anchor="start" x="1050.11" y="-414.4" font-family="Arial" font-size="10.00">FOREIGN KEY (transferParticipantRoleTypeId) REFERENCES transferParticipantRoleType (transferParticipantRoleTypeId)</text>
</g>
<!-- ledgerEntryType -->
<g id="node5" class="node">
<title>ledgerEntryType</title>
<polygon fill="#efefef" stroke="none" points="1174.71,-135.6 1174.71,-171.2 1435.15,-171.2 1435.15,-135.6 1174.71,-135.6"/>
<polygon fill="none" stroke="black" points="1174.71,-135.6 1174.71,-171.2 1435.15,-171.2 1435.15,-135.6 1174.71,-135.6"/>
<text text-anchor="start" x="1181.71" y="-149" font-family="Arial Bold" font-size="18.00">ledgerEntryType</text>
<text text-anchor="start" x="1303.66" y="-149" font-family="Arial" font-size="14.00">    </text>
<text text-anchor="start" x="1334.77" y="-149" font-family="Arial" font-size="14.00" fill="#666666">[BASE TABLE]</text>
<polygon fill="none" stroke="black" points="1174.71,-104.8 1174.71,-135.6 1435.15,-135.6 1435.15,-104.8 1174.71,-104.8"/>
<text text-anchor="start" x="1181.71" y="-117" font-family="Arial" font-size="14.00">ledgerEntryTypeId </text>
<text text-anchor="start" x="1299.99" y="-117" font-family="Arial" font-size="14.00" fill="#666666">[int unsigned]</text>
<polygon fill="none" stroke="black" points="1174.71,-74 1174.71,-104.8 1435.15,-104.8 1435.15,-74 1174.71,-74"/>
<text text-anchor="start" x="1181.71" y="-86.2" font-family="Arial" font-size="14.00">ledgerAccountTypeId </text>
<text text-anchor="start" x="1317.9" y="-86.2" font-family="Arial" font-size="14.00" fill="#666666">[int unsigned]</text>
</g>
<!-- transferParticipant&#45;&gt;ledgerEntryType -->
<g id="edge4" class="edge">
<title>transferParticipant:ledgerEntryTypeId&#45;&gt;ledgerEntryType:ledgerEntryTypeId</title>
<path fill="none" stroke="black" d="M1053.35,-373C1108.19,-366.11 1093.17,-301.59 1121.93,-245.2 1149.25,-191.63 1113.58,-120.2 1173.71,-120.2"/>
<polygon fill="black" stroke="black" points="1053.43,-372.99 1043.18,-369.09 1048.1,-373.31 1043.78,-373.56 1043.78,-373.56 1043.78,-373.56 1048.1,-373.31 1043.71,-378.07 1053.43,-372.99"/>
<text text-anchor="start" x="1050.11" y="-383.6" font-family="Arial" font-size="10.00">FOREIGN KEY (ledgerEntryTypeId) REFERENCES ledgerEntryType (ledgerEntryTypeId)</text>
</g>
<!-- externalParticipant -->
<g id="node6" class="node">
<title>externalParticipant</title>
<polygon fill="#efefef" stroke="none" points="1539.71,-135.6 1539.71,-171.2 1814.14,-171.2 1814.14,-135.6 1539.71,-135.6"/>
<polygon fill="none" stroke="black" points="1539.71,-135.6 1539.71,-171.2 1814.14,-171.2 1814.14,-135.6 1539.71,-135.6"/>
<text text-anchor="start" x="1546.71" y="-149" font-family="Arial Bold" font-size="18.00">externalParticipant</text>
<text text-anchor="start" x="1682.65" y="-149" font-family="Arial" font-size="14.00">    </text>
<text text-anchor="start" x="1713.77" y="-149" font-family="Arial" font-size="14.00" fill="#666666">[BASE TABLE]</text>
<polygon fill="none" stroke="black" points="1539.71,-104.8 1539.71,-135.6 1814.14,-135.6 1814.14,-104.8 1539.71,-104.8"/>
<text text-anchor="start" x="1546.71" y="-117" font-family="Arial" font-size="14.00">externalParticipantId </text>
<text text-anchor="start" x="1678.23" y="-117" font-family="Arial" font-size="14.00" fill="#666666">[bigint unsigned]</text>
<polygon fill="none" stroke="black" points="1539.71,-74 1539.71,-104.8 1814.14,-104.8 1814.14,-74 1539.71,-74"/>
<text text-anchor="start" x="1546.71" y="-86.2" font-family="Arial" font-size="14.00">proxyId </text>
<text text-anchor="start" x="1596.51" y="-86.2" font-family="Arial" font-size="14.00" fill="#666666">[int unsigned]</text>
</g>
<!-- transferParticipant&#45;&gt;externalParticipant -->
<g id="edge5" class="edge">
<title>transferParticipant:externalParticipantId&#45;&gt;externalParticipant:externalParticipantId</title>
<path fill="none" stroke="black" d="M1053.38,-342.7C1161.01,-340.66 1412.01,-307.95 1486.93,-245.2 1533.03,-206.59 1478.58,-120.2 1538.71,-120.2"/>
<polygon fill="black" stroke="black" points="1053.45,-342.7 1043.4,-338.3 1048.11,-342.75 1043.78,-342.79 1043.78,-342.79 1043.78,-342.79 1048.11,-342.75 1043.49,-347.3 1053.45,-342.7"/>
<text text-anchor="start" x="1050.11" y="-352.8" font-family="Arial" font-size="10.00">FOREIGN KEY (externalParticipantId) REFERENCES externalParticipant (externalParticipantId)</text>
</g>
</g>
</svg>
