<?xml version="1.0" encoding="UTF-8" standalone="no"?>
<!DOCTYPE svg PUBLIC "-//W3C//DTD SVG 1.1//EN"
 "http://www.w3.org/Graphics/SVG/1.1/DTD/svg11.dtd">
<!-- Generated by graphviz version 12.1.2 (20240928.0832)
 -->
<!-- Title: transactionSubScenario Pages: 1 -->
<svg width="1374pt" height="603pt"
 viewBox="0.00 0.00 1374.14 603.13" xmlns="http://www.w3.org/2000/svg" xmlns:xlink="http://www.w3.org/1999/xlink">
<g id="graph0" class="graph" transform="scale(1 1) rotate(0) translate(4 599.13)">
<title>transactionSubScenario</title>
<polygon fill="white" stroke="none" points="-4,4 -4,-599.13 1370.14,-599.13 1370.14,4 -4,4"/>
<!-- transactionSubScenario -->
<g id="node1" class="node">
<title>transactionSubScenario</title>
<polygon fill="#efefef" stroke="none" points="294.78,-78.13 294.78,-113.73 603.23,-113.73 603.23,-78.13 294.78,-78.13"/>
<polygon fill="none" stroke="black" points="294.78,-78.13 294.78,-113.73 603.23,-113.73 603.23,-78.13 294.78,-78.13"/>
<text text-anchor="start" x="301.78" y="-91.53" font-family="Arial Bold" font-size="18.00">transactionSubScenario</text>
<text text-anchor="start" x="471.74" y="-91.53" font-family="Arial" font-size="14.00">    </text>
<text text-anchor="start" x="502.85" y="-91.53" font-family="Arial" font-size="14.00" fill="#666666">[BASE TABLE]</text>
<polygon fill="none" stroke="black" points="294.78,-47.33 294.78,-78.13 603.23,-78.13 603.23,-47.33 294.78,-47.33"/>
<text text-anchor="start" x="301.78" y="-59.53" font-family="Arial" font-size="14.00">transactionSubScenarioId </text>
<text text-anchor="start" x="466" y="-59.53" font-family="Arial" font-size="14.00" fill="#666666">[int unsigned]</text>
<polygon fill="none" stroke="black" stroke-width="3" points="293.28,-45.83 293.28,-115.23 604.73,-115.23 604.73,-45.83 293.28,-45.83"/>
</g>
<!-- quote -->
<g id="node2" class="node">
<title>quote</title>
<polygon fill="#efefef" stroke="none" points="43.2,-516.33 43.2,-551.93 854.81,-551.93 854.81,-516.33 43.2,-516.33"/>
<polygon fill="none" stroke="black" points="43.2,-516.33 43.2,-551.93 854.81,-551.93 854.81,-516.33 43.2,-516.33"/>
<text text-anchor="start" x="366.77" y="-529.73" font-family="Arial Bold" font-size="18.00">quote</text>
<text text-anchor="start" x="406.76" y="-529.73" font-family="Arial" font-size="14.00">    </text>
<text text-anchor="start" x="437.87" y="-529.73" font-family="Arial" font-size="14.00" fill="#666666">[BASE TABLE]</text>
<polygon fill="none" stroke="black" points="43.2,-485.53 43.2,-516.33 854.81,-516.33 854.81,-485.53 43.2,-485.53"/>
<text text-anchor="start" x="50.2" y="-497.73" font-family="Arial" font-size="14.00">quoteId </text>
<text text-anchor="start" x="100.8" y="-497.73" font-family="Arial" font-size="14.00" fill="#666666">[varchar(36)]</text>
<polygon fill="none" stroke="black" points="43.2,-454.73 43.2,-485.53 854.81,-485.53 854.81,-454.73 43.2,-454.73"/>
<text text-anchor="start" x="50.2" y="-466.93" font-family="Arial" font-size="14.00">transactionReferenceId </text>
<text text-anchor="start" x="198.84" y="-466.93" font-family="Arial" font-size="14.00" fill="#666666">[varchar(36)]</text>
<text text-anchor="start" x="278.2" y="-466.93" font-family="Arial" font-size="14.00"> Common ID (decided by the Payer FSP) between the FSPs for the future transaction object</text>
<polygon fill="none" stroke="black" points="43.2,-423.93 43.2,-454.73 854.81,-454.73 854.81,-423.93 43.2,-423.93"/>
<text text-anchor="start" x="50.2" y="-436.13" font-family="Arial" font-size="14.00">transactionInitiatorId </text>
<text text-anchor="start" x="180.16" y="-436.13" font-family="Arial" font-size="14.00" fill="#666666">[int unsigned]</text>
<text text-anchor="start" x="263.44" y="-436.13" font-family="Arial" font-size="14.00"> This is part of the transaction initiator</text>
<polygon fill="none" stroke="black" points="43.2,-393.13 43.2,-423.93 854.81,-423.93 854.81,-393.13 43.2,-393.13"/>
<text text-anchor="start" x="50.2" y="-405.33" font-family="Arial" font-size="14.00">transactionInitiatorTypeId </text>
<text text-anchor="start" x="211.28" y="-405.33" font-family="Arial" font-size="14.00" fill="#666666">[int unsigned]</text>
<text text-anchor="start" x="294.56" y="-405.33" font-family="Arial" font-size="14.00"> This is part of the transaction initiator type</text>
<polygon fill="none" stroke="black" points="43.2,-362.33 43.2,-393.13 854.81,-393.13 854.81,-362.33 43.2,-362.33"/>
<text text-anchor="start" x="50.2" y="-374.53" font-family="Arial" font-size="14.00">transactionScenarioId </text>
<text text-anchor="start" x="189.5" y="-374.53" font-family="Arial" font-size="14.00" fill="#666666">[int unsigned]</text>
<text text-anchor="start" x="272.78" y="-374.53" font-family="Arial" font-size="14.00"> This is part of the transaction scenario</text>
<polygon fill="none" stroke="black" points="43.2,-331.53 43.2,-362.33 854.81,-362.33 854.81,-331.53 43.2,-331.53"/>
<text text-anchor="start" x="50.2" y="-343.73" font-family="Arial" font-size="14.00">balanceOfPaymentsId </text>
<text text-anchor="start" x="191.83" y="-343.73" font-family="Arial" font-size="14.00" fill="#666666">[int unsigned]</text>
<text text-anchor="start" x="275.12" y="-343.73" font-family="Arial" font-size="14.00"> This is part of the transaction type that contains the elements&#45; balance of payment</text>
<polygon fill="none" stroke="black" points="43.2,-300.73 43.2,-331.53 854.81,-331.53 854.81,-300.73 43.2,-300.73"/>
<text text-anchor="start" x="50.2" y="-312.93" font-family="Arial" font-size="14.00">transactionSubScenarioId </text>
<text text-anchor="start" x="214.41" y="-312.93" font-family="Arial" font-size="14.00" fill="#666666">[int unsigned]</text>
<text text-anchor="start" x="297.7" y="-312.93" font-family="Arial" font-size="14.00"> This is part of the transaction type sub scenario as defined by the local scheme</text>
<polygon fill="none" stroke="black" points="43.2,-269.93 43.2,-300.73 854.81,-300.73 854.81,-269.93 43.2,-269.93"/>
<text text-anchor="start" x="50.2" y="-282.13" font-family="Arial" font-size="14.00">amountTypeId </text>
<text text-anchor="start" x="143.59" y="-282.13" font-family="Arial" font-size="14.00" fill="#666666">[int unsigned]</text>
<text text-anchor="start" x="226.87" y="-282.13" font-family="Arial" font-size="14.00"> This is part of the transaction type that contains valid elements for &#45; Amount Type</text>
<polygon fill="none" stroke="black" points="43.2,-239.13 43.2,-269.93 854.81,-269.93 854.81,-239.13 43.2,-239.13"/>
<text text-anchor="start" x="50.2" y="-251.33" font-family="Arial" font-size="14.00">currencyId </text>
<text text-anchor="start" x="119.45" y="-251.33" font-family="Arial" font-size="14.00" fill="#666666">[varchar(255)]</text>
<text text-anchor="start" x="206.59" y="-251.33" font-family="Arial" font-size="14.00"> Trading currency pertaining to the Amount</text>
</g>
<!-- quote&#45;&gt;transactionSubScenario -->
<g id="edge1" class="edge">
<title>quote:transactionSubScenarioId&#45;&gt;transactionSubScenario:transactionSubScenarioId</title>
<path fill="none" stroke="black" d="M865.87,-315.08C905.05,-306.02 877.59,-240.06 854.81,-195.93 803.14,-95.8 756.53,-82.3 649.43,-47.33 564.75,-19.67 449.01,42.75 449.01,-46.33"/>
<polygon fill="black" stroke="black" points="866.09,-315.06 855.68,-311.62 860.78,-315.61 856.48,-316.06 856.48,-316.06 856.48,-316.06 860.78,-315.61 856.61,-320.57 866.09,-315.06"/>
<text text-anchor="start" x="862.81" y="-326.13" font-family="Arial" font-size="10.00">FOREIGN KEY (transactionSubScenarioId) REFERENCES transactionSubScenario (transactionSubScenarioId)</text>
</g>
</g>
</svg>
