<?xml version="1.0" encoding="UTF-8" standalone="no"?>
<!DOCTYPE svg PUBLIC "-//W3C//DTD SVG 1.1//EN"
 "http://www.w3.org/Graphics/SVG/1.1/DTD/svg11.dtd">
<!-- Generated by graphviz version 12.1.2 (20240928.0832)
 -->
<!-- Title: transferExtension Pages: 1 -->
<svg width="614pt" height="694pt"
 viewBox="0.00 0.00 614.15 694.40" xmlns="http://www.w3.org/2000/svg" xmlns:xlink="http://www.w3.org/1999/xlink">
<g id="graph0" class="graph" transform="scale(1 1) rotate(0) translate(4 690.4)">
<title>transferExtension</title>
<polygon fill="white" stroke="none" points="-4,4 -4,-690.4 610.15,-690.4 610.15,4 -4,4"/>
<!-- transferExtension -->
<g id="node1" class="node">
<title>transferExtension</title>
<polygon fill="#efefef" stroke="none" points="46.2,-604.6 46.2,-640.2 311.65,-640.2 311.65,-604.6 46.2,-604.6"/>
<polygon fill="none" stroke="black" points="46.2,-604.6 46.2,-640.2 311.65,-640.2 311.65,-604.6 46.2,-604.6"/>
<text text-anchor="start" x="53.2" y="-618" font-family="Arial Bold" font-size="18.00">transferExtension</text>
<text text-anchor="start" x="180.16" y="-618" font-family="Arial" font-size="14.00">    </text>
<text text-anchor="start" x="211.28" y="-618" font-family="Arial" font-size="14.00" fill="#666666">[BASE TABLE]</text>
<polygon fill="none" stroke="black" points="46.2,-573.8 46.2,-604.6 311.65,-604.6 311.65,-573.8 46.2,-573.8"/>
<text text-anchor="start" x="53.2" y="-586" font-family="Arial" font-size="14.00">transferExtensionId </text>
<text text-anchor="start" x="177.71" y="-586" font-family="Arial" font-size="14.00" fill="#666666">[bigint unsigned]</text>
<polygon fill="none" stroke="black" points="46.2,-543 46.2,-573.8 311.65,-573.8 311.65,-543 46.2,-543"/>
<text text-anchor="start" x="53.2" y="-555.2" font-family="Arial" font-size="14.00">transferId </text>
<text text-anchor="start" x="116.23" y="-555.2" font-family="Arial" font-size="14.00" fill="#666666">[varchar(36)]</text>
<polygon fill="none" stroke="black" points="46.2,-512.2 46.2,-543 311.65,-543 311.65,-512.2 46.2,-512.2"/>
<text text-anchor="start" x="53.2" y="-524.4" font-family="Arial" font-size="14.00">key </text>
<text text-anchor="start" x="78.88" y="-524.4" font-family="Arial" font-size="14.00" fill="#666666">[varchar(128)]</text>
<polygon fill="none" stroke="black" points="46.2,-481.4 46.2,-512.2 311.65,-512.2 311.65,-481.4 46.2,-481.4"/>
<text text-anchor="start" x="53.2" y="-493.6" font-family="Arial" font-size="14.00">value </text>
<text text-anchor="start" x="90.56" y="-493.6" font-family="Arial" font-size="14.00" fill="#666666">[text]</text>
<polygon fill="none" stroke="black" points="46.2,-450.6 46.2,-481.4 311.65,-481.4 311.65,-450.6 46.2,-450.6"/>
<text text-anchor="start" x="53.2" y="-462.8" font-family="Arial" font-size="14.00">isFulfilment </text>
<text text-anchor="start" x="127.88" y="-462.8" font-family="Arial" font-size="14.00" fill="#666666">[tinyint(1)]</text>
<polygon fill="none" stroke="black" points="46.2,-419.8 46.2,-450.6 311.65,-450.6 311.65,-419.8 46.2,-419.8"/>
<text text-anchor="start" x="53.2" y="-432" font-family="Arial" font-size="14.00">isError </text>
<text text-anchor="start" x="98.31" y="-432" font-family="Arial" font-size="14.00" fill="#666666">[tinyint(1)]</text>
<polygon fill="none" stroke="black" points="46.2,-389 46.2,-419.8 311.65,-419.8 311.65,-389 46.2,-389"/>
<text text-anchor="start" x="53.2" y="-401.2" font-family="Arial" font-size="14.00">createdDate </text>
<text text-anchor="start" x="133.36" y="-401.2" font-family="Arial" font-size="14.00" fill="#666666">[datetime]</text>
<polygon fill="none" stroke="black" stroke-width="3" points="44.7,-387.5 44.7,-641.7 313.15,-641.7 313.15,-387.5 44.7,-387.5"/>
</g>
<!-- transfer -->
<g id="node2" class="node">
<title>transfer</title>
<polygon fill="#efefef" stroke="none" points="82.2,-228 82.2,-263.6 275.65,-263.6 275.65,-228 82.2,-228"/>
<polygon fill="none" stroke="black" points="82.2,-228 82.2,-263.6 275.65,-263.6 275.65,-228 82.2,-228"/>
<text text-anchor="start" x="89.2" y="-241.4" font-family="Arial Bold" font-size="18.00">transfer</text>
<text text-anchor="start" x="144.16" y="-241.4" font-family="Arial" font-size="14.00">    </text>
<text text-anchor="start" x="175.28" y="-241.4" font-family="Arial" font-size="14.00" fill="#666666">[BASE TABLE]</text>
<polygon fill="none" stroke="black" points="82.2,-197.2 82.2,-228 275.65,-228 275.65,-197.2 82.2,-197.2"/>
<text text-anchor="start" x="89.2" y="-209.4" font-family="Arial" font-size="14.00">transferId </text>
<text text-anchor="start" x="152.22" y="-209.4" font-family="Arial" font-size="14.00" fill="#666666">[varchar(36)]</text>
<polygon fill="none" stroke="black" points="82.2,-166.4 82.2,-197.2 275.65,-197.2 275.65,-166.4 82.2,-166.4"/>
<text text-anchor="start" x="89.2" y="-178.6" font-family="Arial" font-size="14.00">amount </text>
<text text-anchor="start" x="139.78" y="-178.6" font-family="Arial" font-size="14.00" fill="#666666">[decimal(18,4)]</text>
<polygon fill="none" stroke="black" points="82.2,-135.6 82.2,-166.4 275.65,-166.4 275.65,-135.6 82.2,-135.6"/>
<text text-anchor="start" x="89.2" y="-147.8" font-family="Arial" font-size="14.00">currencyId </text>
<text text-anchor="start" x="158.44" y="-147.8" font-family="Arial" font-size="14.00" fill="#666666">[varchar(3)]</text>
<polygon fill="none" stroke="black" points="82.2,-104.8 82.2,-135.6 275.65,-135.6 275.65,-104.8 82.2,-104.8"/>
<text text-anchor="start" x="89.2" y="-117" font-family="Arial" font-size="14.00">ilpCondition </text>
<text text-anchor="start" x="166.24" y="-117" font-family="Arial" font-size="14.00" fill="#666666">[varchar(256)]</text>
<polygon fill="none" stroke="black" points="82.2,-74 82.2,-104.8 275.65,-104.8 275.65,-74 82.2,-74"/>
<text text-anchor="start" x="89.2" y="-86.2" font-family="Arial" font-size="14.00">expirationDate </text>
<text text-anchor="start" x="183.36" y="-86.2" font-family="Arial" font-size="14.00" fill="#666666">[datetime]</text>
<polygon fill="none" stroke="black" points="82.2,-43.2 82.2,-74 275.65,-74 275.65,-43.2 82.2,-43.2"/>
<text text-anchor="start" x="89.2" y="-55.4" font-family="Arial" font-size="14.00">createdDate </text>
<text text-anchor="start" x="169.35" y="-55.4" font-family="Arial" font-size="14.00" fill="#666666">[datetime]</text>
</g>
<!-- transferExtension&#45;&gt;transfer -->
<g id="edge1" class="edge">
<title>transferExtension:transferId&#45;&gt;transfer:transferId</title>
<path fill="none" stroke="black" d="M322.77,-556.19C386.44,-526.74 350.29,-212.6 276.65,-212.6"/>
<polygon fill="black" stroke="black" points="322.74,-556.2 312.02,-553.93 317.53,-557.33 313.3,-558.26 313.3,-558.26 313.3,-558.26 317.53,-557.33 313.93,-562.73 322.74,-556.2"/>
<text text-anchor="start" x="319.65" y="-568.4" font-family="Arial" font-size="10.00">FOREIGN KEY (transferId) REFERENCES transfer (transferId)</text>
</g>
</g>
</svg>
