<?xml version="1.0" encoding="UTF-8" standalone="no"?>
<!DOCTYPE svg PUBLIC "-//W3C//DTD SVG 1.1//EN"
 "http://www.w3.org/Graphics/SVG/1.1/DTD/svg11.dtd">
<!-- Generated by graphviz version 12.1.2 (20240928.0832)
 -->
<!-- Title: transferStateChange Pages: 1 -->
<svg width="1047pt" height="1068pt"
 viewBox="0.00 0.00 1047.20 1068.00" xmlns="http://www.w3.org/2000/svg" xmlns:xlink="http://www.w3.org/1999/xlink">
<g id="graph0" class="graph" transform="scale(1 1) rotate(0) translate(4 1064)">
<title>transferStateChange</title>
<polygon fill="white" stroke="none" points="-4,4 -4,-1064 1043.2,-1064 1043.2,4 -4,4"/>
<!-- transferStateChange -->
<g id="node1" class="node">
<title>transferStateChange</title>
<polygon fill="#efefef" stroke="none" points="359.7,-543 359.7,-578.6 644.13,-578.6 644.13,-543 359.7,-543"/>
<polygon fill="none" stroke="black" points="359.7,-543 359.7,-578.6 644.13,-578.6 644.13,-543 359.7,-543"/>
<text text-anchor="start" x="366.7" y="-556.4" font-family="Arial Bold" font-size="18.00">transferStateChange</text>
<text text-anchor="start" x="512.64" y="-556.4" font-family="Arial" font-size="14.00">    </text>
<text text-anchor="start" x="543.76" y="-556.4" font-family="Arial" font-size="14.00" fill="#666666">[BASE TABLE]</text>
<polygon fill="none" stroke="black" points="359.7,-512.2 359.7,-543 644.13,-543 644.13,-512.2 359.7,-512.2"/>
<text text-anchor="start" x="366.7" y="-524.4" font-family="Arial" font-size="14.00">transferStateChangeId </text>
<text text-anchor="start" x="511.46" y="-524.4" font-family="Arial" font-size="14.00" fill="#666666">[bigint unsigned]</text>
<polygon fill="none" stroke="black" points="359.7,-481.4 359.7,-512.2 644.13,-512.2 644.13,-481.4 359.7,-481.4"/>
<text text-anchor="start" x="366.7" y="-493.6" font-family="Arial" font-size="14.00">transferId </text>
<text text-anchor="start" x="429.73" y="-493.6" font-family="Arial" font-size="14.00" fill="#666666">[varchar(36)]</text>
<polygon fill="none" stroke="black" points="359.7,-450.6 359.7,-481.4 644.13,-481.4 644.13,-450.6 359.7,-450.6"/>
<text text-anchor="start" x="366.7" y="-462.8" font-family="Arial" font-size="14.00">transferStateId </text>
<text text-anchor="start" x="462.42" y="-462.8" font-family="Arial" font-size="14.00" fill="#666666">[varchar(50)]</text>
<polygon fill="none" stroke="black" points="359.7,-419.8 359.7,-450.6 644.13,-450.6 644.13,-419.8 359.7,-419.8"/>
<text text-anchor="start" x="366.7" y="-432" font-family="Arial" font-size="14.00">reason </text>
<text text-anchor="start" x="413.4" y="-432" font-family="Arial" font-size="14.00" fill="#666666">[varchar(512)]</text>
<polygon fill="none" stroke="black" points="359.7,-389 359.7,-419.8 644.13,-419.8 644.13,-389 359.7,-389"/>
<text text-anchor="start" x="366.7" y="-401.2" font-family="Arial" font-size="14.00">createdDate </text>
<text text-anchor="start" x="446.86" y="-401.2" font-family="Arial" font-size="14.00" fill="#666666">[datetime]</text>
<polygon fill="none" stroke="black" stroke-width="3" points="358.2,-387.5 358.2,-580.1 645.63,-580.1 645.63,-387.5 358.2,-387.5"/>
</g>
<!-- transfer -->
<g id="node4" class="node">
<title>transfer</title>
<polygon fill="#efefef" stroke="none" points="247.19,-228 247.19,-263.6 440.64,-263.6 440.64,-228 247.19,-228"/>
<polygon fill="none" stroke="black" points="247.19,-228 247.19,-263.6 440.64,-263.6 440.64,-228 247.19,-228"/>
<text text-anchor="start" x="254.19" y="-241.4" font-family="Arial Bold" font-size="18.00">transfer</text>
<text text-anchor="start" x="309.15" y="-241.4" font-family="Arial" font-size="14.00">    </text>
<text text-anchor="start" x="340.27" y="-241.4" font-family="Arial" font-size="14.00" fill="#666666">[BASE TABLE]</text>
<polygon fill="none" stroke="black" points="247.19,-197.2 247.19,-228 440.64,-228 440.64,-197.2 247.19,-197.2"/>
<text text-anchor="start" x="254.19" y="-209.4" font-family="Arial" font-size="14.00">transferId </text>
<text text-anchor="start" x="317.21" y="-209.4" font-family="Arial" font-size="14.00" fill="#666666">[varchar(36)]</text>
<polygon fill="none" stroke="black" points="247.19,-166.4 247.19,-197.2 440.64,-197.2 440.64,-166.4 247.19,-166.4"/>
<text text-anchor="start" x="254.19" y="-178.6" font-family="Arial" font-size="14.00">amount </text>
<text text-anchor="start" x="304.77" y="-178.6" font-family="Arial" font-size="14.00" fill="#666666">[decimal(18,4)]</text>
<polygon fill="none" stroke="black" points="247.19,-135.6 247.19,-166.4 440.64,-166.4 440.64,-135.6 247.19,-135.6"/>
<text text-anchor="start" x="254.19" y="-147.8" font-family="Arial" font-size="14.00">currencyId </text>
<text text-anchor="start" x="323.43" y="-147.8" font-family="Arial" font-size="14.00" fill="#666666">[varchar(3)]</text>
<polygon fill="none" stroke="black" points="247.19,-104.8 247.19,-135.6 440.64,-135.6 440.64,-104.8 247.19,-104.8"/>
<text text-anchor="start" x="254.19" y="-117" font-family="Arial" font-size="14.00">ilpCondition </text>
<text text-anchor="start" x="331.23" y="-117" font-family="Arial" font-size="14.00" fill="#666666">[varchar(256)]</text>
<polygon fill="none" stroke="black" points="247.19,-74 247.19,-104.8 440.64,-104.8 440.64,-74 247.19,-74"/>
<text text-anchor="start" x="254.19" y="-86.2" font-family="Arial" font-size="14.00">expirationDate </text>
<text text-anchor="start" x="348.35" y="-86.2" font-family="Arial" font-size="14.00" fill="#666666">[datetime]</text>
<polygon fill="none" stroke="black" points="247.19,-43.2 247.19,-74 440.64,-74 440.64,-43.2 247.19,-43.2"/>
<text text-anchor="start" x="254.19" y="-55.4" font-family="Arial" font-size="14.00">createdDate </text>
<text text-anchor="start" x="334.34" y="-55.4" font-family="Arial" font-size="14.00" fill="#666666">[datetime]</text>
</g>
<!-- transferStateChange&#45;&gt;transfer -->
<g id="edge3" class="edge">
<title>transferStateChange:transferId&#45;&gt;transfer:transferId</title>
<path fill="none" stroke="black" d="M348.35,-495.95C293.77,-486.34 324.27,-396.94 359.7,-342.8 381.26,-309.85 419.02,-339.7 440.64,-306.8 463.64,-271.81 483.51,-212.6 441.64,-212.6"/>
<polygon fill="black" stroke="black" points="348.4,-495.96 358,-501.26 353.72,-496.39 358.03,-496.75 358.03,-496.75 358.03,-496.75 353.72,-496.39 358.73,-492.29 348.4,-495.96"/>
<text text-anchor="start" x="72.19" y="-506.8" font-family="Arial" font-size="10.00">FOREIGN KEY (transferId) REFERENCES transfer (transferId)</text>
</g>
<!-- transferState -->
<g id="node5" class="node">
<title>transferState</title>
<polygon fill="#efefef" stroke="none" points="545.19,-212.6 545.19,-248.2 774.64,-248.2 774.64,-212.6 545.19,-212.6"/>
<polygon fill="none" stroke="black" points="545.19,-212.6 545.19,-248.2 774.64,-248.2 774.64,-212.6 545.19,-212.6"/>
<text text-anchor="start" x="552.19" y="-226" font-family="Arial Bold" font-size="18.00">transferState</text>
<text text-anchor="start" x="643.15" y="-226" font-family="Arial" font-size="14.00">    </text>
<text text-anchor="start" x="674.27" y="-226" font-family="Arial" font-size="14.00" fill="#666666">[BASE TABLE]</text>
<polygon fill="none" stroke="black" points="545.19,-181.8 545.19,-212.6 774.64,-212.6 774.64,-181.8 545.19,-181.8"/>
<text text-anchor="start" x="552.19" y="-194" font-family="Arial" font-size="14.00">transferStateId </text>
<text text-anchor="start" x="647.91" y="-194" font-family="Arial" font-size="14.00" fill="#666666">[varchar(50)]</text>
<polygon fill="none" stroke="black" points="545.19,-151 545.19,-181.8 774.64,-181.8 774.64,-151 545.19,-151"/>
<text text-anchor="start" x="552.19" y="-163.2" font-family="Arial" font-size="14.00">enumeration </text>
<text text-anchor="start" x="633.91" y="-163.2" font-family="Arial" font-size="14.00" fill="#666666">[varchar(50)]</text>
<polygon fill="none" stroke="black" points="545.19,-120.2 545.19,-151 774.64,-151 774.64,-120.2 545.19,-120.2"/>
<text text-anchor="start" x="552.19" y="-132.4" font-family="Arial" font-size="14.00">description </text>
<text text-anchor="start" x="623.78" y="-132.4" font-family="Arial" font-size="14.00" fill="#666666">[varchar(512)]</text>
<polygon fill="none" stroke="black" points="545.19,-89.4 545.19,-120.2 774.64,-120.2 774.64,-89.4 545.19,-89.4"/>
<text text-anchor="start" x="552.19" y="-101.6" font-family="Arial" font-size="14.00">isActive </text>
<text text-anchor="start" x="604.31" y="-101.6" font-family="Arial" font-size="14.00" fill="#666666">[tinyint(1)]</text>
<polygon fill="none" stroke="black" points="545.19,-58.6 545.19,-89.4 774.64,-89.4 774.64,-58.6 545.19,-58.6"/>
<text text-anchor="start" x="552.19" y="-70.8" font-family="Arial" font-size="14.00">createdDate </text>
<text text-anchor="start" x="632.35" y="-70.8" font-family="Arial" font-size="14.00" fill="#666666">[datetime]</text>
</g>
<!-- transferStateChange&#45;&gt;transferState -->
<g id="edge4" class="edge">
<title>transferStateChange:transferStateId&#45;&gt;transferState:transferStateId</title>
<path fill="none" stroke="black" d="M655.49,-464.9C696.06,-455.39 670.73,-386.2 644.13,-342.8 618.23,-300.55 571.14,-333.62 545.19,-291.4 523.27,-255.73 502.32,-197.2 544.19,-197.2"/>
<polygon fill="black" stroke="black" points="655.41,-464.91 644.99,-461.49 650.1,-465.47 645.8,-465.93 645.8,-465.93 645.8,-465.93 650.1,-465.47 645.94,-470.44 655.41,-464.91"/>
<text text-anchor="start" x="652.13" y="-476" font-family="Arial" font-size="10.00">FOREIGN KEY (transferStateId) REFERENCES transferState (transferStateId)</text>
</g>
<!-- participantPositionChange -->
<g id="node2" class="node">
<title>participantPositionChange</title>
<polygon fill="#efefef" stroke="none" points="138.19,-981.2 138.19,-1016.8 467.64,-1016.8 467.64,-981.2 138.19,-981.2"/>
<polygon fill="none" stroke="black" points="138.19,-981.2 138.19,-1016.8 467.64,-1016.8 467.64,-981.2 138.19,-981.2"/>
<text text-anchor="start" x="145.19" y="-994.6" font-family="Arial Bold" font-size="18.00">participantPositionChange</text>
<text text-anchor="start" x="336.15" y="-994.6" font-family="Arial" font-size="14.00">    </text>
<text text-anchor="start" x="367.27" y="-994.6" font-family="Arial" font-size="14.00" fill="#666666">[BASE TABLE]</text>
<polygon fill="none" stroke="black" points="138.19,-950.4 138.19,-981.2 467.64,-981.2 467.64,-950.4 138.19,-950.4"/>
<text text-anchor="start" x="145.19" y="-962.6" font-family="Arial" font-size="14.00">participantPositionChangeId </text>
<text text-anchor="start" x="324.19" y="-962.6" font-family="Arial" font-size="14.00" fill="#666666">[bigint unsigned]</text>
<polygon fill="none" stroke="black" points="138.19,-919.6 138.19,-950.4 467.64,-950.4 467.64,-919.6 138.19,-919.6"/>
<text text-anchor="start" x="145.19" y="-931.8" font-family="Arial" font-size="14.00">participantPositionId </text>
<text text-anchor="start" x="275.15" y="-931.8" font-family="Arial" font-size="14.00" fill="#666666">[bigint unsigned]</text>
<polygon fill="none" stroke="black" points="138.19,-888.8 138.19,-919.6 467.64,-919.6 467.64,-888.8 138.19,-888.8"/>
<text text-anchor="start" x="145.19" y="-901" font-family="Arial" font-size="14.00">transferStateChangeId </text>
<text text-anchor="start" x="289.94" y="-901" font-family="Arial" font-size="14.00" fill="#666666">[bigint unsigned]</text>
<polygon fill="none" stroke="black" points="138.19,-858 138.19,-888.8 467.64,-888.8 467.64,-858 138.19,-858"/>
<text text-anchor="start" x="145.19" y="-870.2" font-family="Arial" font-size="14.00">value </text>
<text text-anchor="start" x="182.54" y="-870.2" font-family="Arial" font-size="14.00" fill="#666666">[decimal(18,4)]</text>
<polygon fill="none" stroke="black" points="138.19,-827.2 138.19,-858 467.64,-858 467.64,-827.2 138.19,-827.2"/>
<text text-anchor="start" x="145.19" y="-839.4" font-family="Arial" font-size="14.00">reservedValue </text>
<text text-anchor="start" x="239.35" y="-839.4" font-family="Arial" font-size="14.00" fill="#666666">[decimal(18,4)]</text>
<polygon fill="none" stroke="black" points="138.19,-796.4 138.19,-827.2 467.64,-827.2 467.64,-796.4 138.19,-796.4"/>
<text text-anchor="start" x="145.19" y="-808.6" font-family="Arial" font-size="14.00">createdDate </text>
<text text-anchor="start" x="225.34" y="-808.6" font-family="Arial" font-size="14.00" fill="#666666">[datetime]</text>
<polygon fill="none" stroke="black" points="138.19,-765.6 138.19,-796.4 467.64,-796.4 467.64,-765.6 138.19,-765.6"/>
<text text-anchor="start" x="145.19" y="-777.8" font-family="Arial" font-size="14.00">participantCurrencyId </text>
<text text-anchor="start" x="282.14" y="-777.8" font-family="Arial" font-size="14.00" fill="#666666">[int unsigned]</text>
<polygon fill="none" stroke="black" points="138.19,-734.8 138.19,-765.6 467.64,-765.6 467.64,-734.8 138.19,-734.8"/>
<text text-anchor="start" x="145.19" y="-747" font-family="Arial" font-size="14.00">change </text>
<text text-anchor="start" x="195.01" y="-747" font-family="Arial" font-size="14.00" fill="#666666">[decimal(18,4)]</text>
<polygon fill="none" stroke="black" points="138.19,-704 138.19,-734.8 467.64,-734.8 467.64,-704 138.19,-704"/>
<text text-anchor="start" x="145.19" y="-716.2" font-family="Arial" font-size="14.00">fxTransferStateChangeId </text>
<text text-anchor="start" x="305.5" y="-716.2" font-family="Arial" font-size="14.00" fill="#666666">[bigint unsigned]</text>
</g>
<!-- participantPositionChange&#45;&gt;transferStateChange -->
<g id="edge1" class="edge">
<title>participantPositionChange:transferStateChangeId&#45;&gt;transferStateChange:transferStateChangeId</title>
<path fill="none" stroke="black" d="M478.67,-901.52C519.5,-877.64 497.19,-701.62 467.64,-660.8 437.99,-619.83 389.48,-665.68 359.7,-624.8 334.26,-589.88 315.5,-527.6 358.7,-527.6"/>
<polygon fill="black" stroke="black" points="478.63,-901.53 467.8,-899.77 473.47,-902.91 469.29,-904.03 469.29,-904.03 469.29,-904.03 473.47,-902.91 470.13,-908.46 478.63,-901.53"/>
<text text-anchor="start" x="7" y="-914.2" font-family="Arial" font-size="10.00">FOREIGN KEY (transferStateChangeId) REFERENCES transferStateChange (transferStateChangeId)</text>
</g>
<!-- transferError -->
<g id="node3" class="node">
<title>transferError</title>
<polygon fill="#efefef" stroke="none" points="571.55,-919.6 571.55,-955.2 832.28,-955.2 832.28,-919.6 571.55,-919.6"/>
<polygon fill="none" stroke="black" points="571.55,-919.6 571.55,-955.2 832.28,-955.2 832.28,-919.6 571.55,-919.6"/>
<text text-anchor="start" x="593.2" y="-933" font-family="Arial Bold" font-size="18.00">transferError</text>
<text text-anchor="start" x="686.14" y="-933" font-family="Arial" font-size="14.00">    </text>
<text text-anchor="start" x="717.26" y="-933" font-family="Arial" font-size="14.00" fill="#666666">[BASE TABLE]</text>
<polygon fill="none" stroke="black" points="571.55,-888.8 571.55,-919.6 832.28,-919.6 832.28,-888.8 571.55,-888.8"/>
<text text-anchor="start" x="578.55" y="-901" font-family="Arial" font-size="14.00">transferId </text>
<text text-anchor="start" x="641.58" y="-901" font-family="Arial" font-size="14.00" fill="#666666">[varchar(36)]</text>
<polygon fill="none" stroke="black" points="571.55,-858 571.55,-888.8 832.28,-888.8 832.28,-858 571.55,-858"/>
<text text-anchor="start" x="578.55" y="-870.2" font-family="Arial" font-size="14.00">transferStateChangeId </text>
<text text-anchor="start" x="723.31" y="-870.2" font-family="Arial" font-size="14.00" fill="#666666">[bigint unsigned]</text>
<polygon fill="none" stroke="black" points="571.55,-827.2 571.55,-858 832.28,-858 832.28,-827.2 571.55,-827.2"/>
<text text-anchor="start" x="578.55" y="-839.4" font-family="Arial" font-size="14.00">errorCode </text>
<text text-anchor="start" x="645.47" y="-839.4" font-family="Arial" font-size="14.00" fill="#666666">[int unsigned]</text>
<polygon fill="none" stroke="black" points="571.55,-796.4 571.55,-827.2 832.28,-827.2 832.28,-796.4 571.55,-796.4"/>
<text text-anchor="start" x="578.55" y="-808.6" font-family="Arial" font-size="14.00">errorDescription </text>
<text text-anchor="start" x="682.03" y="-808.6" font-family="Arial" font-size="14.00" fill="#666666">[varchar(128)]</text>
<polygon fill="none" stroke="black" points="571.55,-765.6 571.55,-796.4 832.28,-796.4 832.28,-765.6 571.55,-765.6"/>
<text text-anchor="start" x="578.55" y="-777.8" font-family="Arial" font-size="14.00">createdDate </text>
<text text-anchor="start" x="658.71" y="-777.8" font-family="Arial" font-size="14.00" fill="#666666">[datetime]</text>
</g>
<!-- transferError&#45;&gt;transferStateChange -->
<g id="edge2" class="edge">
<title>transferError:transferStateChangeId&#45;&gt;transferStateChange:transferStateChangeId</title>
<path fill="none" stroke="black" d="M560.22,-872.58C508.66,-863.58 551.46,-782.44 571.55,-722.4 588.71,-671.14 626.88,-676.03 644.13,-624.8 657.92,-583.86 688.33,-527.6 645.13,-527.6"/>
<polygon fill="black" stroke="black" points="560.25,-872.58 569.86,-877.86 565.57,-873 569.89,-873.35 569.89,-873.35 569.89,-873.35 565.57,-873 570.58,-868.89 560.25,-872.58"/>
<text text-anchor="start" x="577.55" y="-883.4" font-family="Arial" font-size="10.00">FOREIGN KEY (transferStateChangeId) REFERENCES transferStateChange (transferStateChangeId)</text>
</g>
</g>
</svg>
