<?xml version="1.0" encoding="UTF-8" standalone="no"?>
<!DOCTYPE svg PUBLIC "-//W3C//DTD SVG 1.1//EN"
 "http://www.w3.org/Graphics/SVG/1.1/DTD/svg11.dtd">
<!-- Generated by graphviz version 12.1.2 (20240928.0832)
 -->
<!-- Title: transferFulfilmentDuplicateCheck Pages: 1 -->
<svg width="844pt" height="606pt"
 viewBox="0.00 0.00 844.12 606.00" xmlns="http://www.w3.org/2000/svg" xmlns:xlink="http://www.w3.org/1999/xlink">
<g id="graph0" class="graph" transform="scale(1 1) rotate(0) translate(4 602)">
<title>transferFulfilmentDuplicateCheck</title>
<polygon fill="white" stroke="none" points="-4,4 -4,-602 840.12,-602 840.12,4 -4,4"/>
<!-- transferFulfilmentDuplicateCheck -->
<g id="node1" class="node">
<title>transferFulfilmentDuplicateCheck</title>
<polygon fill="#efefef" stroke="none" points="100.8,-296.6 100.8,-332.2 486.21,-332.2 486.21,-296.6 100.8,-296.6"/>
<polygon fill="none" stroke="black" points="100.8,-296.6 100.8,-332.2 486.21,-332.2 486.21,-296.6 100.8,-296.6"/>
<text text-anchor="start" x="107.8" y="-310" font-family="Arial Bold" font-size="18.00">transferFulfilmentDuplicateCheck</text>
<text text-anchor="start" x="354.72" y="-310" font-family="Arial" font-size="14.00">    </text>
<text text-anchor="start" x="385.84" y="-310" font-family="Arial" font-size="14.00" fill="#666666">[BASE TABLE]</text>
<polygon fill="none" stroke="black" points="100.8,-265.8 100.8,-296.6 486.21,-296.6 486.21,-265.8 100.8,-265.8"/>
<text text-anchor="start" x="107.8" y="-278" font-family="Arial" font-size="14.00">transferId </text>
<text text-anchor="start" x="170.83" y="-278" font-family="Arial" font-size="14.00" fill="#666666">[varchar(36)]</text>
<polygon fill="none" stroke="black" stroke-width="3" points="99.3,-264.3 99.3,-333.7 487.71,-333.7 487.71,-264.3 99.3,-264.3"/>
</g>
<!-- transfer -->
<g id="node2" class="node">
<title>transfer</title>
<polygon fill="#efefef" stroke="none" points="196.78,-104.8 196.78,-140.4 390.23,-140.4 390.23,-104.8 196.78,-104.8"/>
<polygon fill="none" stroke="black" points="196.78,-104.8 196.78,-140.4 390.23,-140.4 390.23,-104.8 196.78,-104.8"/>
<text text-anchor="start" x="203.78" y="-118.2" font-family="Arial Bold" font-size="18.00">transfer</text>
<text text-anchor="start" x="258.75" y="-118.2" font-family="Arial" font-size="14.00">    </text>
<text text-anchor="start" x="289.86" y="-118.2" font-family="Arial" font-size="14.00" fill="#666666">[BASE TABLE]</text>
<polygon fill="none" stroke="black" points="196.78,-74 196.78,-104.8 390.23,-104.8 390.23,-74 196.78,-74"/>
<text text-anchor="start" x="203.78" y="-86.2" font-family="Arial" font-size="14.00">transferId </text>
<text text-anchor="start" x="266.81" y="-86.2" font-family="Arial" font-size="14.00" fill="#666666">[varchar(36)]</text>
<polygon fill="none" stroke="black" points="196.78,-43.2 196.78,-74 390.23,-74 390.23,-43.2 196.78,-43.2"/>
<text text-anchor="start" x="203.78" y="-55.4" font-family="Arial" font-size="14.00">currencyId </text>
<text text-anchor="start" x="273.03" y="-55.4" font-family="Arial" font-size="14.00" fill="#666666">[varchar(3)]</text>
</g>
<!-- transferFulfilmentDuplicateCheck&#45;&gt;transfer -->
<g id="edge1" class="edge">
<title>transferFulfilmentDuplicateCheck:transferId&#45;&gt;transfer:transferId</title>
<path fill="none" stroke="black" d="M294.43,-254.65C302.95,-211.74 367.84,-230.98 390.23,-183.6 408.13,-145.75 433.1,-89.4 391.23,-89.4"/>
<polygon fill="black" stroke="black" points="294.45,-254.51 289.06,-264.06 293.96,-259.82 293.57,-264.13 293.57,-264.13 293.57,-264.13 293.96,-259.82 298.02,-264.88 294.45,-254.51"/>
<text text-anchor="start" x="7" y="-274.8" font-family="Arial" font-size="10.00">FOREIGN KEY (transferId) REFERENCES transfer (transferId)</text>
</g>
<!-- transferFulfilment -->
<g id="node3" class="node">
<title>transferFulfilment</title>
<polygon fill="#efefef" stroke="none" points="158.78,-519.2 158.78,-554.8 428.23,-554.8 428.23,-519.2 158.78,-519.2"/>
<polygon fill="none" stroke="black" points="158.78,-519.2 158.78,-554.8 428.23,-554.8 428.23,-519.2 158.78,-519.2"/>
<text text-anchor="start" x="165.78" y="-532.6" font-family="Arial Bold" font-size="18.00">transferFulfilment</text>
<text text-anchor="start" x="296.75" y="-532.6" font-family="Arial" font-size="14.00">    </text>
<text text-anchor="start" x="327.86" y="-532.6" font-family="Arial" font-size="14.00" fill="#666666">[BASE TABLE]</text>
<polygon fill="none" stroke="black" points="158.78,-488.4 158.78,-519.2 428.23,-519.2 428.23,-488.4 158.78,-488.4"/>
<text text-anchor="start" x="165.78" y="-500.6" font-family="Arial" font-size="14.00">transferId </text>
<text text-anchor="start" x="228.81" y="-500.6" font-family="Arial" font-size="14.00" fill="#666666">[varchar(36)]</text>
<polygon fill="none" stroke="black" points="158.78,-457.6 158.78,-488.4 428.23,-488.4 428.23,-457.6 158.78,-457.6"/>
<text text-anchor="start" x="165.78" y="-469.8" font-family="Arial" font-size="14.00">settlementWindowId </text>
<text text-anchor="start" x="295.72" y="-469.8" font-family="Arial" font-size="14.00" fill="#666666">[bigint unsigned]</text>
</g>
<!-- transferFulfilment&#45;&gt;transferFulfilmentDuplicateCheck -->
<g id="edge2" class="edge">
<title>transferFulfilment:transferId&#45;&gt;transferFulfilmentDuplicateCheck:transferId</title>
<path fill="none" stroke="black" d="M439.35,-503.39C502.1,-498.16 509.24,-443.02 532.41,-378.4 549.3,-331.29 567.72,-301.26 532.41,-265.8 494.95,-228.18 293.51,-211.71 293.51,-264.8"/>
<polygon fill="black" stroke="black" points="439.56,-503.39 429.39,-499.29 434.23,-503.6 429.9,-503.77 429.9,-503.77 429.9,-503.77 434.23,-503.6 429.75,-508.28 439.56,-503.39"/>
<text text-anchor="start" x="436.23" y="-513.8" font-family="Arial" font-size="10.00">FOREIGN KEY (transferId) REFERENCES transferFulfilmentDuplicateCheck (transferId)</text>
</g>
</g>
</svg>
