<?xml version="1.0" encoding="UTF-8" standalone="no"?>
<!DOCTYPE svg PUBLIC "-//W3C//DTD SVG 1.1//EN"
 "http://www.w3.org/Graphics/SVG/1.1/DTD/svg11.dtd">
<!-- Generated by graphviz version 12.1.2 (20240928.0832)
 -->
<!-- Title: transferParticipantRoleType Pages: 1 -->
<svg width="2996pt" height="588pt"
 viewBox="0.00 0.00 2995.88 588.36" xmlns="http://www.w3.org/2000/svg" xmlns:xlink="http://www.w3.org/1999/xlink">
<g id="graph0" class="graph" transform="scale(1 1) rotate(0) translate(4 584.36)">
<title>transferParticipantRoleType</title>
<polygon fill="white" stroke="none" points="-4,4 -4,-584.36 2991.88,-584.36 2991.88,4 -4,4"/>
<!-- transferParticipantRoleType -->
<g id="node1" class="node">
<title>transferParticipantRoleType</title>
<polygon fill="#efefef" stroke="none" points="1514.22,-94.16 1514.22,-129.76 1856.63,-129.76 1856.63,-94.16 1514.22,-94.16"/>
<polygon fill="none" stroke="black" points="1514.22,-94.16 1514.22,-129.76 1856.63,-129.76 1856.63,-94.16 1514.22,-94.16"/>
<text text-anchor="start" x="1521.22" y="-107.56" font-family="Arial Bold" font-size="18.00">transferParticipantRoleType</text>
<text text-anchor="start" x="1725.15" y="-107.56" font-family="Arial" font-size="14.00">    </text>
<text text-anchor="start" x="1756.26" y="-107.56" font-family="Arial" font-size="14.00" fill="#666666">[BASE TABLE]</text>
<polygon fill="none" stroke="black" points="1514.22,-63.36 1514.22,-94.16 1856.63,-94.16 1856.63,-63.36 1514.22,-63.36"/>
<text text-anchor="start" x="1521.22" y="-75.56" font-family="Arial" font-size="14.00">transferParticipantRoleTypeId </text>
<text text-anchor="start" x="1710.31" y="-75.56" font-family="Arial" font-size="14.00" fill="#666666">[int unsigned]</text>
<polygon fill="none" stroke="black" stroke-width="3" points="1512.72,-61.86 1512.72,-131.26 1858.13,-131.26 1858.13,-61.86 1512.72,-61.86"/>
</g>
<!-- fxTransferParticipant -->
<g id="node2" class="node">
<title>fxTransferParticipant</title>
<polygon fill="#efefef" stroke="none" points="270.22,-486.16 270.22,-521.76 562.64,-521.76 562.64,-486.16 270.22,-486.16"/>
<polygon fill="none" stroke="black" points="270.22,-486.16 270.22,-521.76 562.64,-521.76 562.64,-486.16 270.22,-486.16"/>
<text text-anchor="start" x="277.22" y="-499.56" font-family="Arial Bold" font-size="18.00">fxTransferParticipant</text>
<text text-anchor="start" x="431.15" y="-499.56" font-family="Arial" font-size="14.00">    </text>
<text text-anchor="start" x="462.27" y="-499.56" font-family="Arial" font-size="14.00" fill="#666666">[BASE TABLE]</text>
<polygon fill="none" stroke="black" points="270.22,-455.36 270.22,-486.16 562.64,-486.16 562.64,-455.36 270.22,-455.36"/>
<text text-anchor="start" x="277.22" y="-467.56" font-family="Arial" font-size="14.00">fxTransferParticipantId </text>
<text text-anchor="start" x="421.94" y="-467.56" font-family="Arial" font-size="14.00" fill="#666666">[bigint unsigned]</text>
<polygon fill="none" stroke="black" points="270.22,-424.56 270.22,-455.36 562.64,-455.36 562.64,-424.56 270.22,-424.56"/>
<text text-anchor="start" x="277.22" y="-436.76" font-family="Arial" font-size="14.00">commitRequestId </text>
<text text-anchor="start" x="390.04" y="-436.76" font-family="Arial" font-size="14.00" fill="#666666">[varchar(36)]</text>
<polygon fill="none" stroke="black" points="270.22,-393.76 270.22,-424.56 562.64,-424.56 562.64,-393.76 270.22,-393.76"/>
<text text-anchor="start" x="277.22" y="-405.96" font-family="Arial" font-size="14.00">participantCurrencyId </text>
<text text-anchor="start" x="414.17" y="-405.96" font-family="Arial" font-size="14.00" fill="#666666">[int unsigned]</text>
<polygon fill="none" stroke="black" points="270.22,-362.96 270.22,-393.76 562.64,-393.76 562.64,-362.96 270.22,-362.96"/>
<text text-anchor="start" x="277.22" y="-375.16" font-family="Arial" font-size="14.00">transferParticipantRoleTypeId </text>
<text text-anchor="start" x="466.31" y="-375.16" font-family="Arial" font-size="14.00" fill="#666666">[int unsigned]</text>
<polygon fill="none" stroke="black" points="270.22,-332.16 270.22,-362.96 562.64,-362.96 562.64,-332.16 270.22,-332.16"/>
<text text-anchor="start" x="277.22" y="-344.36" font-family="Arial" font-size="14.00">ledgerEntryTypeId </text>
<text text-anchor="start" x="395.5" y="-344.36" font-family="Arial" font-size="14.00" fill="#666666">[int unsigned]</text>
<polygon fill="none" stroke="black" points="270.22,-301.36 270.22,-332.16 562.64,-332.16 562.64,-301.36 270.22,-301.36"/>
<text text-anchor="start" x="277.22" y="-313.56" font-family="Arial" font-size="14.00">fxParticipantCurrencyTypeId </text>
<text text-anchor="start" x="457.73" y="-313.56" font-family="Arial" font-size="14.00" fill="#666666">[int unsigned]</text>
<polygon fill="none" stroke="black" points="270.22,-270.56 270.22,-301.36 562.64,-301.36 562.64,-270.56 270.22,-270.56"/>
<text text-anchor="start" x="277.22" y="-282.76" font-family="Arial" font-size="14.00">externalParticipantId </text>
<text text-anchor="start" x="408.73" y="-282.76" font-family="Arial" font-size="14.00" fill="#666666">[bigint unsigned]</text>
</g>
<!-- fxTransferParticipant&#45;&gt;transferParticipantRoleType -->
<g id="edge1" class="edge">
<title>fxTransferParticipant:transferParticipantRoleTypeId&#45;&gt;transferParticipantRoleType:transferParticipantRoleTypeId</title>
<path fill="none" stroke="black" d="M573.86,-377.55C633.18,-367.18 559.47,-259.88 615.43,-211.96 768.62,-80.77 1311.53,-78.76 1513.22,-78.76"/>
<polygon fill="black" stroke="black" points="573.94,-377.54 563.62,-373.85 568.62,-377.96 564.31,-378.3 564.31,-378.3 564.31,-378.3 568.62,-377.96 564.33,-382.82 573.94,-377.54"/>
<text text-anchor="start" x="7" y="-388.36" font-family="Arial" font-size="10.00">FOREIGN KEY (transferParticipantRoleTypeId) REFERENCES transferParticipantRoleType (transferParticipantRoleTypeId)</text>
</g>
<!-- quoteParty -->
<g id="node3" class="node">
<title>quoteParty</title>
<polygon fill="#efefef" stroke="none" points="667.14,-501.56 667.14,-537.16 1401.72,-537.16 1401.72,-501.56 667.14,-501.56"/>
<polygon fill="none" stroke="black" points="667.14,-501.56 667.14,-537.16 1401.72,-537.16 1401.72,-501.56 667.14,-501.56"/>
<text text-anchor="start" x="933.19" y="-514.96" font-family="Arial Bold" font-size="18.00">quoteParty</text>
<text text-anchor="start" x="1011.18" y="-514.96" font-family="Arial" font-size="14.00">    </text>
<text text-anchor="start" x="1042.29" y="-514.96" font-family="Arial" font-size="14.00" fill="#666666">[BASE TABLE]</text>
<polygon fill="none" stroke="black" points="667.14,-470.76 667.14,-501.56 1401.72,-501.56 1401.72,-470.76 667.14,-470.76"/>
<text text-anchor="start" x="674.14" y="-482.96" font-family="Arial" font-size="14.00">quotePartyId </text>
<text text-anchor="start" x="757.41" y="-482.96" font-family="Arial" font-size="14.00" fill="#666666">[bigint unsigned]</text>
<polygon fill="none" stroke="black" points="667.14,-439.96 667.14,-470.76 1401.72,-470.76 1401.72,-439.96 667.14,-439.96"/>
<text text-anchor="start" x="674.14" y="-452.16" font-family="Arial" font-size="14.00">quoteId </text>
<text text-anchor="start" x="724.74" y="-452.16" font-family="Arial" font-size="14.00" fill="#666666">[varchar(36)]</text>
<text text-anchor="start" x="804.09" y="-452.16" font-family="Arial" font-size="14.00"> Common ID between the FSPs for the quote object, decided by the Payer FSP</text>
<polygon fill="none" stroke="black" points="667.14,-409.16 667.14,-439.96 1401.72,-439.96 1401.72,-409.16 667.14,-409.16"/>
<text text-anchor="start" x="674.14" y="-421.36" font-family="Arial" font-size="14.00">partyTypeId </text>
<text text-anchor="start" x="751.95" y="-421.36" font-family="Arial" font-size="14.00" fill="#666666">[int unsigned]</text>
<text text-anchor="start" x="835.23" y="-421.36" font-family="Arial" font-size="14.00"> Specifies the type of party this row relates to; typically PAYER or PAYEE</text>
<polygon fill="none" stroke="black" points="667.14,-378.36 667.14,-409.16 1401.72,-409.16 1401.72,-378.36 667.14,-378.36"/>
<text text-anchor="start" x="674.14" y="-390.56" font-family="Arial" font-size="14.00">partyIdentifierTypeId </text>
<text text-anchor="start" x="805.65" y="-390.56" font-family="Arial" font-size="14.00" fill="#666666">[int unsigned]</text>
<text text-anchor="start" x="888.93" y="-390.56" font-family="Arial" font-size="14.00"> Specifies the type of identifier used to identify this party e.g. MSISDN, IBAN etc...</text>
<polygon fill="none" stroke="black" points="667.14,-347.56 667.14,-378.36 1401.72,-378.36 1401.72,-347.56 667.14,-347.56"/>
<text text-anchor="start" x="674.14" y="-359.76" font-family="Arial" font-size="14.00">participantId </text>
<text text-anchor="start" x="754.29" y="-359.76" font-family="Arial" font-size="14.00" fill="#666666">[int unsigned]</text>
<text text-anchor="start" x="837.58" y="-359.76" font-family="Arial" font-size="14.00"> Reference to the resolved FSP ID (if supplied/known). If not an error will be reported</text>
<polygon fill="none" stroke="black" points="667.14,-316.76 667.14,-347.56 1401.72,-347.56 1401.72,-316.76 667.14,-316.76"/>
<text text-anchor="start" x="674.14" y="-328.96" font-family="Arial" font-size="14.00">transferParticipantRoleTypeId </text>
<text text-anchor="start" x="863.23" y="-328.96" font-family="Arial" font-size="14.00" fill="#666666">[int unsigned]</text>
<text text-anchor="start" x="946.51" y="-328.96" font-family="Arial" font-size="14.00"> The role this Party is playing in the transaction</text>
<polygon fill="none" stroke="black" points="667.14,-285.96 667.14,-316.76 1401.72,-316.76 1401.72,-285.96 667.14,-285.96"/>
<text text-anchor="start" x="674.14" y="-298.16" font-family="Arial" font-size="14.00">ledgerEntryTypeId </text>
<text text-anchor="start" x="792.42" y="-298.16" font-family="Arial" font-size="14.00" fill="#666666">[int unsigned]</text>
<text text-anchor="start" x="875.7" y="-298.16" font-family="Arial" font-size="14.00"> The type of financial entry this Party is presenting</text>
<polygon fill="none" stroke="black" points="667.14,-255.16 667.14,-285.96 1401.72,-285.96 1401.72,-255.16 667.14,-255.16"/>
<text text-anchor="start" x="674.14" y="-267.36" font-family="Arial" font-size="14.00">currencyId </text>
<text text-anchor="start" x="743.38" y="-267.36" font-family="Arial" font-size="14.00" fill="#666666">[varchar(3)]</text>
<text text-anchor="start" x="814.96" y="-267.36" font-family="Arial" font-size="14.00"> Trading currency pertaining to the party amount</text>
</g>
<!-- quoteParty&#45;&gt;transferParticipantRoleType -->
<g id="edge2" class="edge">
<title>quoteParty:transferParticipantRoleTypeId&#45;&gt;transferParticipantRoleType:transferParticipantRoleTypeId</title>
<path fill="none" stroke="black" d="M1412.87,-331.34C1457,-323.57 1431.78,-261.69 1453.43,-211.96 1479.33,-152.46 1448.33,-78.76 1513.22,-78.76"/>
<polygon fill="black" stroke="black" points="1413.02,-331.33 1402.69,-327.65 1407.7,-331.76 1403.39,-332.1 1403.39,-332.1 1403.39,-332.1 1407.7,-331.76 1403.41,-336.62 1413.02,-331.33"/>
<text text-anchor="start" x="1409.72" y="-342.16" font-family="Arial" font-size="10.00">FOREIGN KEY (transferParticipantRoleTypeId) REFERENCES transferParticipantRoleType (transferParticipantRoleTypeId)</text>
</g>
<!-- settlementContentAggregation -->
<g id="node4" class="node">
<title>settlementContentAggregation</title>
<polygon fill="#efefef" stroke="none" points="1505.71,-486.16 1505.71,-521.76 1865.15,-521.76 1865.15,-486.16 1505.71,-486.16"/>
<polygon fill="none" stroke="black" points="1505.71,-486.16 1505.71,-521.76 1865.15,-521.76 1865.15,-486.16 1505.71,-486.16"/>
<text text-anchor="start" x="1512.71" y="-499.56" font-family="Arial Bold" font-size="18.00">settlementContentAggregation</text>
<text text-anchor="start" x="1733.66" y="-499.56" font-family="Arial" font-size="14.00">    </text>
<text text-anchor="start" x="1764.77" y="-499.56" font-family="Arial" font-size="14.00" fill="#666666">[BASE TABLE]</text>
<polygon fill="none" stroke="black" points="1505.71,-455.36 1505.71,-486.16 1865.15,-486.16 1865.15,-455.36 1505.71,-455.36"/>
<text text-anchor="start" x="1512.71" y="-467.56" font-family="Arial" font-size="14.00">settlementContentAggregationId </text>
<text text-anchor="start" x="1717.4" y="-467.56" font-family="Arial" font-size="14.00" fill="#666666">[bigint unsigned]</text>
<polygon fill="none" stroke="black" points="1505.71,-424.56 1505.71,-455.36 1865.15,-455.36 1865.15,-424.56 1505.71,-424.56"/>
<text text-anchor="start" x="1512.71" y="-436.76" font-family="Arial" font-size="14.00">settlementWindowContentId </text>
<text text-anchor="start" x="1691.69" y="-436.76" font-family="Arial" font-size="14.00" fill="#666666">[bigint unsigned]</text>
<polygon fill="none" stroke="black" points="1505.71,-393.76 1505.71,-424.56 1865.15,-424.56 1865.15,-393.76 1505.71,-393.76"/>
<text text-anchor="start" x="1512.71" y="-405.96" font-family="Arial" font-size="14.00">participantCurrencyId </text>
<text text-anchor="start" x="1649.66" y="-405.96" font-family="Arial" font-size="14.00" fill="#666666">[int unsigned]</text>
<polygon fill="none" stroke="black" points="1505.71,-362.96 1505.71,-393.76 1865.15,-393.76 1865.15,-362.96 1505.71,-362.96"/>
<text text-anchor="start" x="1512.71" y="-375.16" font-family="Arial" font-size="14.00">transferParticipantRoleTypeId </text>
<text text-anchor="start" x="1701.8" y="-375.16" font-family="Arial" font-size="14.00" fill="#666666">[int unsigned]</text>
<polygon fill="none" stroke="black" points="1505.71,-332.16 1505.71,-362.96 1865.15,-362.96 1865.15,-332.16 1505.71,-332.16"/>
<text text-anchor="start" x="1512.71" y="-344.36" font-family="Arial" font-size="14.00">ledgerEntryTypeId </text>
<text text-anchor="start" x="1630.99" y="-344.36" font-family="Arial" font-size="14.00" fill="#666666">[int unsigned]</text>
<polygon fill="none" stroke="black" points="1505.71,-301.36 1505.71,-332.16 1865.15,-332.16 1865.15,-301.36 1505.71,-301.36"/>
<text text-anchor="start" x="1512.71" y="-313.56" font-family="Arial" font-size="14.00">currentStateId </text>
<text text-anchor="start" x="1604.54" y="-313.56" font-family="Arial" font-size="14.00" fill="#666666">[varchar(50)]</text>
<polygon fill="none" stroke="black" points="1505.71,-270.56 1505.71,-301.36 1865.15,-301.36 1865.15,-270.56 1505.71,-270.56"/>
<text text-anchor="start" x="1512.71" y="-282.76" font-family="Arial" font-size="14.00">settlementId </text>
<text text-anchor="start" x="1592.86" y="-282.76" font-family="Arial" font-size="14.00" fill="#666666">[bigint unsigned]</text>
</g>
<!-- settlementContentAggregation&#45;&gt;transferParticipantRoleType -->
<g id="edge3" class="edge">
<title>settlementContentAggregation:transferParticipantRoleTypeId&#45;&gt;transferParticipantRoleType:transferParticipantRoleTypeId</title>
<path fill="none" stroke="black" d="M1874.81,-372.55C1905.44,-331.51 1925.61,-86.23 1902.83,-63.36 1834.67,5.12 1685.43,34.27 1685.43,-62.36"/>
<polygon fill="black" stroke="black" points="1874.73,-372.6 1863.92,-374.43 1870.3,-375.57 1866.7,-377.99 1866.7,-377.99 1866.7,-377.99 1870.3,-375.57 1868.93,-381.91 1874.73,-372.6"/>
<text text-anchor="start" x="1309.51" y="-388.36" font-family="Arial" font-size="10.00">FOREIGN KEY (transferParticipantRoleTypeId) REFERENCES transferParticipantRoleType (transferParticipantRoleTypeId)</text>
</g>
<!-- settlementTransferParticipant -->
<g id="node5" class="node">
<title>settlementTransferParticipant</title>
<polygon fill="#efefef" stroke="none" points="1969.73,-470.76 1969.73,-506.36 2321.13,-506.36 2321.13,-470.76 1969.73,-470.76"/>
<polygon fill="none" stroke="black" points="1969.73,-470.76 1969.73,-506.36 2321.13,-506.36 2321.13,-470.76 1969.73,-470.76"/>
<text text-anchor="start" x="1976.73" y="-484.16" font-family="Arial Bold" font-size="18.00">settlementTransferParticipant</text>
<text text-anchor="start" x="2189.64" y="-484.16" font-family="Arial" font-size="14.00">    </text>
<text text-anchor="start" x="2220.76" y="-484.16" font-family="Arial" font-size="14.00" fill="#666666">[BASE TABLE]</text>
<polygon fill="none" stroke="black" points="1969.73,-439.96 1969.73,-470.76 2321.13,-470.76 2321.13,-439.96 1969.73,-439.96"/>
<text text-anchor="start" x="1976.73" y="-452.16" font-family="Arial" font-size="14.00">settlementTransferParticipantId </text>
<text text-anchor="start" x="2175.15" y="-452.16" font-family="Arial" font-size="14.00" fill="#666666">[bigint unsigned]</text>
<polygon fill="none" stroke="black" points="1969.73,-409.16 1969.73,-439.96 2321.13,-439.96 2321.13,-409.16 1969.73,-409.16"/>
<text text-anchor="start" x="1976.73" y="-421.36" font-family="Arial" font-size="14.00">settlementId </text>
<text text-anchor="start" x="2056.88" y="-421.36" font-family="Arial" font-size="14.00" fill="#666666">[bigint unsigned]</text>
<polygon fill="none" stroke="black" points="1969.73,-378.36 1969.73,-409.16 2321.13,-409.16 2321.13,-378.36 1969.73,-378.36"/>
<text text-anchor="start" x="1976.73" y="-390.56" font-family="Arial" font-size="14.00">settlementWindowId </text>
<text text-anchor="start" x="2106.67" y="-390.56" font-family="Arial" font-size="14.00" fill="#666666">[bigint unsigned]</text>
<polygon fill="none" stroke="black" points="1969.73,-347.56 1969.73,-378.36 2321.13,-378.36 2321.13,-347.56 1969.73,-347.56"/>
<text text-anchor="start" x="1976.73" y="-359.76" font-family="Arial" font-size="14.00">participantCurrencyId </text>
<text text-anchor="start" x="2113.68" y="-359.76" font-family="Arial" font-size="14.00" fill="#666666">[int unsigned]</text>
<polygon fill="none" stroke="black" points="1969.73,-316.76 1969.73,-347.56 2321.13,-347.56 2321.13,-316.76 1969.73,-316.76"/>
<text text-anchor="start" x="1976.73" y="-328.96" font-family="Arial" font-size="14.00">transferParticipantRoleTypeId </text>
<text text-anchor="start" x="2165.81" y="-328.96" font-family="Arial" font-size="14.00" fill="#666666">[int unsigned]</text>
<polygon fill="none" stroke="black" points="1969.73,-285.96 1969.73,-316.76 2321.13,-316.76 2321.13,-285.96 1969.73,-285.96"/>
<text text-anchor="start" x="1976.73" y="-298.16" font-family="Arial" font-size="14.00">ledgerEntryTypeId </text>
<text text-anchor="start" x="2095.01" y="-298.16" font-family="Arial" font-size="14.00" fill="#666666">[int unsigned]</text>
</g>
<!-- settlementTransferParticipant&#45;&gt;transferParticipantRoleType -->
<g id="edge4" class="edge">
<title>settlementTransferParticipant:transferParticipantRoleTypeId&#45;&gt;transferParticipantRoleType:transferParticipantRoleTypeId</title>
<path fill="none" stroke="black" d="M1958.56,-331.34C1914.3,-323.58 1939.22,-261.74 1917.43,-211.96 1891.4,-152.51 1922.53,-78.76 1857.63,-78.76"/>
<polygon fill="black" stroke="black" points="1958.42,-331.33 1968.03,-336.62 1963.74,-331.76 1968.06,-332.1 1968.06,-332.1 1968.06,-332.1 1963.74,-331.76 1968.75,-327.65 1958.42,-331.33"/>
<text text-anchor="start" x="1412.09" y="-316.16" font-family="Arial" font-size="10.00">FOREIGN KEY (transferParticipantRoleTypeId) REFERENCES transferParticipantRoleType (transferParticipantRoleTypeId)</text>
</g>
<!-- transferParticipant -->
<g id="node6" class="node">
<title>transferParticipant</title>
<polygon fill="#efefef" stroke="none" points="2425.24,-470.76 2425.24,-506.36 2711.61,-506.36 2711.61,-470.76 2425.24,-470.76"/>
<polygon fill="none" stroke="black" points="2425.24,-470.76 2425.24,-506.36 2711.61,-506.36 2711.61,-470.76 2425.24,-470.76"/>
<text text-anchor="start" x="2439.71" y="-484.16" font-family="Arial Bold" font-size="18.00">transferParticipant</text>
<text text-anchor="start" x="2572.66" y="-484.16" font-family="Arial" font-size="14.00">    </text>
<text text-anchor="start" x="2603.77" y="-484.16" font-family="Arial" font-size="14.00" fill="#666666">[BASE TABLE]</text>
<polygon fill="none" stroke="black" points="2425.24,-439.96 2425.24,-470.76 2711.61,-470.76 2711.61,-439.96 2425.24,-439.96"/>
<text text-anchor="start" x="2432.24" y="-452.16" font-family="Arial" font-size="14.00">transferParticipantId </text>
<text text-anchor="start" x="2561.41" y="-452.16" font-family="Arial" font-size="14.00" fill="#666666">[bigint unsigned]</text>
<polygon fill="none" stroke="black" points="2425.24,-409.16 2425.24,-439.96 2711.61,-439.96 2711.61,-409.16 2425.24,-409.16"/>
<text text-anchor="start" x="2432.24" y="-421.36" font-family="Arial" font-size="14.00">transferId </text>
<text text-anchor="start" x="2495.27" y="-421.36" font-family="Arial" font-size="14.00" fill="#666666">[varchar(36)]</text>
<polygon fill="none" stroke="black" points="2425.24,-378.36 2425.24,-409.16 2711.61,-409.16 2711.61,-378.36 2425.24,-378.36"/>
<text text-anchor="start" x="2432.24" y="-390.56" font-family="Arial" font-size="14.00">participantCurrencyId </text>
<text text-anchor="start" x="2569.19" y="-390.56" font-family="Arial" font-size="14.00" fill="#666666">[int unsigned]</text>
<polygon fill="none" stroke="black" points="2425.24,-347.56 2425.24,-378.36 2711.61,-378.36 2711.61,-347.56 2425.24,-347.56"/>
<text text-anchor="start" x="2432.24" y="-359.76" font-family="Arial" font-size="14.00">transferParticipantRoleTypeId </text>
<text text-anchor="start" x="2621.33" y="-359.76" font-family="Arial" font-size="14.00" fill="#666666">[int unsigned]</text>
<polygon fill="none" stroke="black" points="2425.24,-316.76 2425.24,-347.56 2711.61,-347.56 2711.61,-316.76 2425.24,-316.76"/>
<text text-anchor="start" x="2432.24" y="-328.96" font-family="Arial" font-size="14.00">ledgerEntryTypeId </text>
<text text-anchor="start" x="2550.52" y="-328.96" font-family="Arial" font-size="14.00" fill="#666666">[int unsigned]</text>
<polygon fill="none" stroke="black" points="2425.24,-285.96 2425.24,-316.76 2711.61,-316.76 2711.61,-285.96 2425.24,-285.96"/>
<text text-anchor="start" x="2432.24" y="-298.16" font-family="Arial" font-size="14.00">externalParticipantId </text>
<text text-anchor="start" x="2563.76" y="-298.16" font-family="Arial" font-size="14.00" fill="#666666">[bigint unsigned]</text>
</g>
<!-- transferParticipant&#45;&gt;transferParticipantRoleType -->
<g id="edge5" class="edge">
<title>transferParticipant:transferParticipantRoleTypeId&#45;&gt;transferParticipantRoleType:transferParticipantRoleTypeId</title>
<path fill="none" stroke="black" d="M2413.86,-362.06C2360.92,-351.88 2422.43,-257.56 2373.43,-211.96 2286.77,-131.31 1976.02,-78.76 1857.63,-78.76"/>
<polygon fill="black" stroke="black" points="2413.95,-362.07 2423.52,-367.41 2419.26,-362.53 2423.58,-362.9 2423.58,-362.9 2423.58,-362.9 2419.26,-362.53 2424.3,-358.45 2413.95,-362.07"/>
<text text-anchor="start" x="2431.24" y="-372.96" font-family="Arial" font-size="10.00">FOREIGN KEY (transferParticipantRoleTypeId) REFERENCES transferParticipantRoleType (transferParticipantRoleTypeId)</text>
</g>
</g>
</svg>
