<?xml version="1.0" encoding="UTF-8" standalone="no"?>
<!DOCTYPE svg PUBLIC "-//W3C//DTD SVG 1.1//EN"
 "http://www.w3.org/Graphics/SVG/1.1/DTD/svg11.dtd">
<!-- Generated by graphviz version 12.1.2 (20240928.0832)
 -->
<!-- Title: transferExtension Pages: 1 -->
<svg width="480pt" height="417pt"
 viewBox="0.00 0.00 480.43 417.20" xmlns="http://www.w3.org/2000/svg" xmlns:xlink="http://www.w3.org/1999/xlink">
<g id="graph0" class="graph" transform="scale(1 1) rotate(0) translate(4 413.2)">
<title>transferExtension</title>
<polygon fill="white" stroke="none" points="-4,4 -4,-413.2 476.43,-413.2 476.43,4 -4,4"/>
<!-- transferExtension -->
<g id="node1" class="node">
<title>transferExtension</title>
<polygon fill="#efefef" stroke="none" points="160.78,-327.4 160.78,-363 426.23,-363 426.23,-327.4 160.78,-327.4"/>
<polygon fill="none" stroke="black" points="160.78,-327.4 160.78,-363 426.23,-363 426.23,-327.4 160.78,-327.4"/>
<text text-anchor="start" x="167.78" y="-340.8" font-family="Arial Bold" font-size="18.00">transferExtension</text>
<text text-anchor="start" x="294.74" y="-340.8" font-family="Arial" font-size="14.00">    </text>
<text text-anchor="start" x="325.86" y="-340.8" font-family="Arial" font-size="14.00" fill="#666666">[BASE TABLE]</text>
<polygon fill="none" stroke="black" points="160.78,-296.6 160.78,-327.4 426.23,-327.4 426.23,-296.6 160.78,-296.6"/>
<text text-anchor="start" x="167.78" y="-308.8" font-family="Arial" font-size="14.00">transferExtensionId </text>
<text text-anchor="start" x="292.29" y="-308.8" font-family="Arial" font-size="14.00" fill="#666666">[bigint unsigned]</text>
<polygon fill="none" stroke="black" points="160.78,-265.8 160.78,-296.6 426.23,-296.6 426.23,-265.8 160.78,-265.8"/>
<text text-anchor="start" x="167.78" y="-278" font-family="Arial" font-size="14.00">transferId </text>
<text text-anchor="start" x="230.81" y="-278" font-family="Arial" font-size="14.00" fill="#666666">[varchar(36)]</text>
<polygon fill="none" stroke="black" stroke-width="3" points="159.28,-264.3 159.28,-364.5 427.73,-364.5 427.73,-264.3 159.28,-264.3"/>
</g>
<!-- transfer -->
<g id="node2" class="node">
<title>transfer</title>
<polygon fill="#efefef" stroke="none" points="196.78,-104.8 196.78,-140.4 390.23,-140.4 390.23,-104.8 196.78,-104.8"/>
<polygon fill="none" stroke="black" points="196.78,-104.8 196.78,-140.4 390.23,-140.4 390.23,-104.8 196.78,-104.8"/>
<text text-anchor="start" x="203.78" y="-118.2" font-family="Arial Bold" font-size="18.00">transfer</text>
<text text-anchor="start" x="258.75" y="-118.2" font-family="Arial" font-size="14.00">    </text>
<text text-anchor="start" x="289.86" y="-118.2" font-family="Arial" font-size="14.00" fill="#666666">[BASE TABLE]</text>
<polygon fill="none" stroke="black" points="196.78,-74 196.78,-104.8 390.23,-104.8 390.23,-74 196.78,-74"/>
<text text-anchor="start" x="203.78" y="-86.2" font-family="Arial" font-size="14.00">transferId </text>
<text text-anchor="start" x="266.81" y="-86.2" font-family="Arial" font-size="14.00" fill="#666666">[varchar(36)]</text>
<polygon fill="none" stroke="black" points="196.78,-43.2 196.78,-74 390.23,-74 390.23,-43.2 196.78,-43.2"/>
<text text-anchor="start" x="203.78" y="-55.4" font-family="Arial" font-size="14.00">currencyId </text>
<text text-anchor="start" x="273.03" y="-55.4" font-family="Arial" font-size="14.00" fill="#666666">[varchar(3)]</text>
</g>
<!-- transferExtension&#45;&gt;transfer -->
<g id="edge1" class="edge">
<title>transferExtension:transferId&#45;&gt;transfer:transferId</title>
<path fill="none" stroke="black" d="M294.43,-254.65C302.95,-211.74 367.84,-230.98 390.23,-183.6 408.13,-145.75 433.1,-89.4 391.23,-89.4"/>
<polygon fill="black" stroke="black" points="294.45,-254.51 289.06,-264.06 293.96,-259.82 293.57,-264.13 293.57,-264.13 293.57,-264.13 293.96,-259.82 298.02,-264.88 294.45,-254.51"/>
<text text-anchor="start" x="7" y="-274.8" font-family="Arial" font-size="10.00">FOREIGN KEY (transferId) REFERENCES transfer (transferId)</text>
</g>
</g>
</svg>
