<?xml version="1.0" encoding="UTF-8" standalone="no"?>
<!DOCTYPE svg PUBLIC "-//W3C//DTD SVG 1.1//EN"
 "http://www.w3.org/Graphics/SVG/1.1/DTD/svg11.dtd">
<!-- Generated by graphviz version 12.1.2 (20240928.0832)
 -->
<!-- Title: transferError Pages: 1 -->
<svg width="662pt" height="448pt"
 viewBox="0.00 0.00 662.06 448.00" xmlns="http://www.w3.org/2000/svg" xmlns:xlink="http://www.w3.org/1999/xlink">
<g id="graph0" class="graph" transform="scale(1 1) rotate(0) translate(4 444)">
<title>transferError</title>
<polygon fill="white" stroke="none" points="-4,4 -4,-444 658.06,-444 658.06,4 -4,4"/>
<!-- transferError -->
<g id="node1" class="node">
<title>transferError</title>
<polygon fill="#efefef" stroke="none" points="338.28,-358.2 338.28,-393.8 599,-393.8 599,-358.2 338.28,-358.2"/>
<polygon fill="none" stroke="black" points="338.28,-358.2 338.28,-393.8 599,-393.8 599,-358.2 338.28,-358.2"/>
<text text-anchor="start" x="359.93" y="-371.6" font-family="Arial Bold" font-size="18.00">transferError</text>
<text text-anchor="start" x="452.87" y="-371.6" font-family="Arial" font-size="14.00">    </text>
<text text-anchor="start" x="483.99" y="-371.6" font-family="Arial" font-size="14.00" fill="#666666">[BASE TABLE]</text>
<polygon fill="none" stroke="black" points="338.28,-327.4 338.28,-358.2 599,-358.2 599,-327.4 338.28,-327.4"/>
<text text-anchor="start" x="345.28" y="-339.6" font-family="Arial" font-size="14.00">transferId </text>
<text text-anchor="start" x="408.31" y="-339.6" font-family="Arial" font-size="14.00" fill="#666666">[varchar(36)]</text>
<polygon fill="none" stroke="black" points="338.28,-296.6 338.28,-327.4 599,-327.4 599,-296.6 338.28,-296.6"/>
<text text-anchor="start" x="345.28" y="-308.8" font-family="Arial" font-size="14.00">transferStateChangeId </text>
<text text-anchor="start" x="490.04" y="-308.8" font-family="Arial" font-size="14.00" fill="#666666">[bigint unsigned]</text>
<polygon fill="none" stroke="black" stroke-width="3" points="336.78,-295.1 336.78,-395.3 600.5,-395.3 600.5,-295.1 336.78,-295.1"/>
</g>
<!-- transferStateChange -->
<g id="node2" class="node">
<title>transferStateChange</title>
<polygon fill="#efefef" stroke="none" points="326.43,-135.6 326.43,-171.2 610.86,-171.2 610.86,-135.6 326.43,-135.6"/>
<polygon fill="none" stroke="black" points="326.43,-135.6 326.43,-171.2 610.86,-171.2 610.86,-135.6 326.43,-135.6"/>
<text text-anchor="start" x="333.43" y="-149" font-family="Arial Bold" font-size="18.00">transferStateChange</text>
<text text-anchor="start" x="479.37" y="-149" font-family="Arial" font-size="14.00">    </text>
<text text-anchor="start" x="510.49" y="-149" font-family="Arial" font-size="14.00" fill="#666666">[BASE TABLE]</text>
<polygon fill="none" stroke="black" points="326.43,-104.8 326.43,-135.6 610.86,-135.6 610.86,-104.8 326.43,-104.8"/>
<text text-anchor="start" x="333.43" y="-117" font-family="Arial" font-size="14.00">transferStateChangeId </text>
<text text-anchor="start" x="478.19" y="-117" font-family="Arial" font-size="14.00" fill="#666666">[bigint unsigned]</text>
<polygon fill="none" stroke="black" points="326.43,-74 326.43,-104.8 610.86,-104.8 610.86,-74 326.43,-74"/>
<text text-anchor="start" x="333.43" y="-86.2" font-family="Arial" font-size="14.00">transferId </text>
<text text-anchor="start" x="396.46" y="-86.2" font-family="Arial" font-size="14.00" fill="#666666">[varchar(36)]</text>
<polygon fill="none" stroke="black" points="326.43,-43.2 326.43,-74 610.86,-74 610.86,-43.2 326.43,-43.2"/>
<text text-anchor="start" x="333.43" y="-55.4" font-family="Arial" font-size="14.00">transferStateId </text>
<text text-anchor="start" x="429.14" y="-55.4" font-family="Arial" font-size="14.00" fill="#666666">[varchar(50)]</text>
</g>
<!-- transferError&#45;&gt;transferStateChange -->
<g id="edge1" class="edge">
<title>transferError:transferStateChangeId&#45;&gt;transferStateChange:transferStateChangeId</title>
<path fill="none" stroke="black" d="M469.44,-285.46C479.17,-228.03 575.86,-273.96 610.86,-214.4 632.07,-178.3 653.73,-120.2 611.86,-120.2"/>
<polygon fill="black" stroke="black" points="469.45,-285.3 464.18,-294.92 469.03,-290.62 468.7,-294.93 468.7,-294.93 468.7,-294.93 469.03,-290.62 473.16,-295.62 469.45,-285.3"/>
<text text-anchor="start" x="7" y="-305.6" font-family="Arial" font-size="10.00">FOREIGN KEY (transferStateChangeId) REFERENCES transferStateChange (transferStateChangeId)</text>
</g>
</g>
</svg>
