<?xml version="1.0" encoding="UTF-8" standalone="no"?>
<!DOCTYPE svg PUBLIC "-//W3C//DTD SVG 1.1//EN"
 "http://www.w3.org/Graphics/SVG/1.1/DTD/svg11.dtd">
<!-- Generated by graphviz version 12.1.2 (20240928.0832)
 -->
<!-- Title: transferError Pages: 1 -->
<svg width="793pt" height="602pt"
 viewBox="0.00 0.00 793.42 602.00" xmlns="http://www.w3.org/2000/svg" xmlns:xlink="http://www.w3.org/1999/xlink">
<g id="graph0" class="graph" transform="scale(1 1) rotate(0) translate(4 598)">
<title>transferError</title>
<polygon fill="white" stroke="none" points="-4,4 -4,-598 789.42,-598 789.42,4 -4,4"/>
<!-- transferError -->
<g id="node1" class="node">
<title>transferError</title>
<polygon fill="#efefef" stroke="none" points="55.05,-512.2 55.05,-547.8 315.78,-547.8 315.78,-512.2 55.05,-512.2"/>
<polygon fill="none" stroke="black" points="55.05,-512.2 55.05,-547.8 315.78,-547.8 315.78,-512.2 55.05,-512.2"/>
<text text-anchor="start" x="76.7" y="-525.6" font-family="Arial Bold" font-size="18.00">transferError</text>
<text text-anchor="start" x="169.64" y="-525.6" font-family="Arial" font-size="14.00">    </text>
<text text-anchor="start" x="200.76" y="-525.6" font-family="Arial" font-size="14.00" fill="#666666">[BASE TABLE]</text>
<polygon fill="none" stroke="black" points="55.05,-481.4 55.05,-512.2 315.78,-512.2 315.78,-481.4 55.05,-481.4"/>
<text text-anchor="start" x="62.05" y="-493.6" font-family="Arial" font-size="14.00">transferId </text>
<text text-anchor="start" x="125.08" y="-493.6" font-family="Arial" font-size="14.00" fill="#666666">[varchar(36)]</text>
<polygon fill="none" stroke="black" points="55.05,-450.6 55.05,-481.4 315.78,-481.4 315.78,-450.6 55.05,-450.6"/>
<text text-anchor="start" x="62.05" y="-462.8" font-family="Arial" font-size="14.00">transferStateChangeId </text>
<text text-anchor="start" x="206.81" y="-462.8" font-family="Arial" font-size="14.00" fill="#666666">[bigint unsigned]</text>
<polygon fill="none" stroke="black" points="55.05,-419.8 55.05,-450.6 315.78,-450.6 315.78,-419.8 55.05,-419.8"/>
<text text-anchor="start" x="62.05" y="-432" font-family="Arial" font-size="14.00">errorCode </text>
<text text-anchor="start" x="128.97" y="-432" font-family="Arial" font-size="14.00" fill="#666666">[int unsigned]</text>
<polygon fill="none" stroke="black" points="55.05,-389 55.05,-419.8 315.78,-419.8 315.78,-389 55.05,-389"/>
<text text-anchor="start" x="62.05" y="-401.2" font-family="Arial" font-size="14.00">errorDescription </text>
<text text-anchor="start" x="165.53" y="-401.2" font-family="Arial" font-size="14.00" fill="#666666">[varchar(128)]</text>
<polygon fill="none" stroke="black" points="55.05,-358.2 55.05,-389 315.78,-389 315.78,-358.2 55.05,-358.2"/>
<text text-anchor="start" x="62.05" y="-370.4" font-family="Arial" font-size="14.00">createdDate </text>
<text text-anchor="start" x="142.21" y="-370.4" font-family="Arial" font-size="14.00" fill="#666666">[datetime]</text>
<polygon fill="none" stroke="black" stroke-width="3" points="53.55,-356.7 53.55,-549.3 317.28,-549.3 317.28,-356.7 53.55,-356.7"/>
</g>
<!-- transferStateChange -->
<g id="node2" class="node">
<title>transferStateChange</title>
<polygon fill="#efefef" stroke="none" points="43.2,-197.2 43.2,-232.8 327.63,-232.8 327.63,-197.2 43.2,-197.2"/>
<polygon fill="none" stroke="black" points="43.2,-197.2 43.2,-232.8 327.63,-232.8 327.63,-197.2 43.2,-197.2"/>
<text text-anchor="start" x="50.2" y="-210.6" font-family="Arial Bold" font-size="18.00">transferStateChange</text>
<text text-anchor="start" x="196.14" y="-210.6" font-family="Arial" font-size="14.00">    </text>
<text text-anchor="start" x="227.26" y="-210.6" font-family="Arial" font-size="14.00" fill="#666666">[BASE TABLE]</text>
<polygon fill="none" stroke="black" points="43.2,-166.4 43.2,-197.2 327.63,-197.2 327.63,-166.4 43.2,-166.4"/>
<text text-anchor="start" x="50.2" y="-178.6" font-family="Arial" font-size="14.00">transferStateChangeId </text>
<text text-anchor="start" x="194.96" y="-178.6" font-family="Arial" font-size="14.00" fill="#666666">[bigint unsigned]</text>
<polygon fill="none" stroke="black" points="43.2,-135.6 43.2,-166.4 327.63,-166.4 327.63,-135.6 43.2,-135.6"/>
<text text-anchor="start" x="50.2" y="-147.8" font-family="Arial" font-size="14.00">transferId </text>
<text text-anchor="start" x="113.23" y="-147.8" font-family="Arial" font-size="14.00" fill="#666666">[varchar(36)]</text>
<polygon fill="none" stroke="black" points="43.2,-104.8 43.2,-135.6 327.63,-135.6 327.63,-104.8 43.2,-104.8"/>
<text text-anchor="start" x="50.2" y="-117" font-family="Arial" font-size="14.00">transferStateId </text>
<text text-anchor="start" x="145.92" y="-117" font-family="Arial" font-size="14.00" fill="#666666">[varchar(50)]</text>
<polygon fill="none" stroke="black" points="43.2,-74 43.2,-104.8 327.63,-104.8 327.63,-74 43.2,-74"/>
<text text-anchor="start" x="50.2" y="-86.2" font-family="Arial" font-size="14.00">reason </text>
<text text-anchor="start" x="96.9" y="-86.2" font-family="Arial" font-size="14.00" fill="#666666">[varchar(512)]</text>
<polygon fill="none" stroke="black" points="43.2,-43.2 43.2,-74 327.63,-74 327.63,-43.2 43.2,-43.2"/>
<text text-anchor="start" x="50.2" y="-55.4" font-family="Arial" font-size="14.00">createdDate </text>
<text text-anchor="start" x="130.36" y="-55.4" font-family="Arial" font-size="14.00" fill="#666666">[datetime]</text>
</g>
<!-- transferError&#45;&gt;transferStateChange -->
<g id="edge1" class="edge">
<title>transferError:transferStateChangeId&#45;&gt;transferStateChange:transferStateChangeId</title>
<path fill="none" stroke="black" d="M326.68,-463.54C381.06,-435.77 388.39,-181.8 328.63,-181.8"/>
<polygon fill="black" stroke="black" points="326.81,-463.51 316.02,-461.55 321.63,-464.8 317.43,-465.84 317.43,-465.84 317.43,-465.84 321.63,-464.8 318.19,-470.29 326.81,-463.51"/>
<text text-anchor="start" x="323.78" y="-476" font-family="Arial" font-size="10.00">FOREIGN KEY (transferStateChangeId) REFERENCES transferStateChange (transferStateChangeId)</text>
</g>
</g>
</svg>
