<?xml version="1.0" encoding="UTF-8" standalone="no"?>
<!DOCTYPE svg PUBLIC "-//W3C//DTD SVG 1.1//EN"
 "http://www.w3.org/Graphics/SVG/1.1/DTD/svg11.dtd">
<!-- Generated by graphviz version 12.1.2 (20240928.0832)
 -->
<!-- Title: transferParticipantRoleType Pages: 1 -->
<svg width="2548pt" height="910pt"
 viewBox="0.00 0.00 2547.88 910.00" xmlns="http://www.w3.org/2000/svg" xmlns:xlink="http://www.w3.org/1999/xlink">
<g id="graph0" class="graph" transform="scale(1 1) rotate(0) translate(4 906)">
<title>transferParticipantRoleType</title>
<polygon fill="white" stroke="none" points="-4,4 -4,-906 2543.88,-906 2543.88,4 -4,4"/>
<!-- transferParticipantRoleType -->
<g id="node1" class="node">
<title>transferParticipantRoleType</title>
<polygon fill="#efefef" stroke="none" points="1066.22,-200.2 1066.22,-235.8 1408.63,-235.8 1408.63,-200.2 1066.22,-200.2"/>
<polygon fill="none" stroke="black" points="1066.22,-200.2 1066.22,-235.8 1408.63,-235.8 1408.63,-200.2 1066.22,-200.2"/>
<text text-anchor="start" x="1073.22" y="-213.6" font-family="Arial Bold" font-size="18.00">transferParticipantRoleType</text>
<text text-anchor="start" x="1277.15" y="-213.6" font-family="Arial" font-size="14.00">    </text>
<text text-anchor="start" x="1308.26" y="-213.6" font-family="Arial" font-size="14.00" fill="#666666">[BASE TABLE]</text>
<polygon fill="none" stroke="black" points="1066.22,-169.4 1066.22,-200.2 1408.63,-200.2 1408.63,-169.4 1066.22,-169.4"/>
<text text-anchor="start" x="1073.22" y="-181.6" font-family="Arial" font-size="14.00">transferParticipantRoleTypeId </text>
<text text-anchor="start" x="1262.31" y="-181.6" font-family="Arial" font-size="14.00" fill="#666666">[int unsigned]</text>
<polygon fill="none" stroke="black" points="1066.22,-138.6 1066.22,-169.4 1408.63,-169.4 1408.63,-138.6 1066.22,-138.6"/>
<text text-anchor="start" x="1073.22" y="-150.8" font-family="Arial" font-size="14.00">name </text>
<text text-anchor="start" x="1112.13" y="-150.8" font-family="Arial" font-size="14.00" fill="#666666">[varchar(50)]</text>
<polygon fill="none" stroke="black" points="1066.22,-107.8 1066.22,-138.6 1408.63,-138.6 1408.63,-107.8 1066.22,-107.8"/>
<text text-anchor="start" x="1073.22" y="-120" font-family="Arial" font-size="14.00">description </text>
<text text-anchor="start" x="1144.81" y="-120" font-family="Arial" font-size="14.00" fill="#666666">[varchar(512)]</text>
<polygon fill="none" stroke="black" points="1066.22,-77 1066.22,-107.8 1408.63,-107.8 1408.63,-77 1066.22,-77"/>
<text text-anchor="start" x="1073.22" y="-89.2" font-family="Arial" font-size="14.00">isActive </text>
<text text-anchor="start" x="1125.35" y="-89.2" font-family="Arial" font-size="14.00" fill="#666666">[tinyint(1)]</text>
<polygon fill="none" stroke="black" points="1066.22,-46.2 1066.22,-77 1408.63,-77 1408.63,-46.2 1066.22,-46.2"/>
<text text-anchor="start" x="1073.22" y="-58.4" font-family="Arial" font-size="14.00">createdDate </text>
<text text-anchor="start" x="1153.38" y="-58.4" font-family="Arial" font-size="14.00" fill="#666666">[datetime]</text>
<polygon fill="none" stroke="black" stroke-width="3" points="1064.72,-44.7 1064.72,-237.3 1410.13,-237.3 1410.13,-44.7 1064.72,-44.7"/>
</g>
<!-- fxTransferParticipant -->
<g id="node2" class="node">
<title>fxTransferParticipant</title>
<polygon fill="#efefef" stroke="none" points="270.22,-746.2 270.22,-781.8 562.64,-781.8 562.64,-746.2 270.22,-746.2"/>
<polygon fill="none" stroke="black" points="270.22,-746.2 270.22,-781.8 562.64,-781.8 562.64,-746.2 270.22,-746.2"/>
<text text-anchor="start" x="277.22" y="-759.6" font-family="Arial Bold" font-size="18.00">fxTransferParticipant</text>
<text text-anchor="start" x="431.15" y="-759.6" font-family="Arial" font-size="14.00">    </text>
<text text-anchor="start" x="462.27" y="-759.6" font-family="Arial" font-size="14.00" fill="#666666">[BASE TABLE]</text>
<polygon fill="none" stroke="black" points="270.22,-715.4 270.22,-746.2 562.64,-746.2 562.64,-715.4 270.22,-715.4"/>
<text text-anchor="start" x="277.22" y="-727.6" font-family="Arial" font-size="14.00">fxTransferParticipantId </text>
<text text-anchor="start" x="421.94" y="-727.6" font-family="Arial" font-size="14.00" fill="#666666">[bigint unsigned]</text>
<polygon fill="none" stroke="black" points="270.22,-684.6 270.22,-715.4 562.64,-715.4 562.64,-684.6 270.22,-684.6"/>
<text text-anchor="start" x="277.22" y="-696.8" font-family="Arial" font-size="14.00">commitRequestId </text>
<text text-anchor="start" x="390.04" y="-696.8" font-family="Arial" font-size="14.00" fill="#666666">[varchar(36)]</text>
<polygon fill="none" stroke="black" points="270.22,-653.8 270.22,-684.6 562.64,-684.6 562.64,-653.8 270.22,-653.8"/>
<text text-anchor="start" x="277.22" y="-666" font-family="Arial" font-size="14.00">participantCurrencyId </text>
<text text-anchor="start" x="414.17" y="-666" font-family="Arial" font-size="14.00" fill="#666666">[int unsigned]</text>
<polygon fill="none" stroke="black" points="270.22,-623 270.22,-653.8 562.64,-653.8 562.64,-623 270.22,-623"/>
<text text-anchor="start" x="277.22" y="-635.2" font-family="Arial" font-size="14.00">transferParticipantRoleTypeId </text>
<text text-anchor="start" x="466.31" y="-635.2" font-family="Arial" font-size="14.00" fill="#666666">[int unsigned]</text>
<polygon fill="none" stroke="black" points="270.22,-592.2 270.22,-623 562.64,-623 562.64,-592.2 270.22,-592.2"/>
<text text-anchor="start" x="277.22" y="-604.4" font-family="Arial" font-size="14.00">ledgerEntryTypeId </text>
<text text-anchor="start" x="395.5" y="-604.4" font-family="Arial" font-size="14.00" fill="#666666">[int unsigned]</text>
<polygon fill="none" stroke="black" points="270.22,-561.4 270.22,-592.2 562.64,-592.2 562.64,-561.4 270.22,-561.4"/>
<text text-anchor="start" x="277.22" y="-573.6" font-family="Arial" font-size="14.00">fxParticipantCurrencyTypeId </text>
<text text-anchor="start" x="457.73" y="-573.6" font-family="Arial" font-size="14.00" fill="#666666">[int unsigned]</text>
<polygon fill="none" stroke="black" points="270.22,-530.6 270.22,-561.4 562.64,-561.4 562.64,-530.6 270.22,-530.6"/>
<text text-anchor="start" x="277.22" y="-542.8" font-family="Arial" font-size="14.00">amount </text>
<text text-anchor="start" x="327.8" y="-542.8" font-family="Arial" font-size="14.00" fill="#666666">[decimal(18,4)]</text>
<polygon fill="none" stroke="black" points="270.22,-499.8 270.22,-530.6 562.64,-530.6 562.64,-499.8 270.22,-499.8"/>
<text text-anchor="start" x="277.22" y="-512" font-family="Arial" font-size="14.00">createdDate </text>
<text text-anchor="start" x="357.38" y="-512" font-family="Arial" font-size="14.00" fill="#666666">[datetime]</text>
<polygon fill="none" stroke="black" points="270.22,-469 270.22,-499.8 562.64,-499.8 562.64,-469 270.22,-469"/>
<text text-anchor="start" x="277.22" y="-481.2" font-family="Arial" font-size="14.00">participantId </text>
<text text-anchor="start" x="357.38" y="-481.2" font-family="Arial" font-size="14.00" fill="#666666">[int unsigned]</text>
<polygon fill="none" stroke="black" points="270.22,-438.2 270.22,-469 562.64,-469 562.64,-438.2 270.22,-438.2"/>
<text text-anchor="start" x="277.22" y="-450.4" font-family="Arial" font-size="14.00">externalParticipantId </text>
<text text-anchor="start" x="408.73" y="-450.4" font-family="Arial" font-size="14.00" fill="#666666">[bigint unsigned]</text>
</g>
<!-- fxTransferParticipant&#45;&gt;transferParticipantRoleType -->
<g id="edge1" class="edge">
<title>fxTransferParticipant:transferParticipantRoleTypeId&#45;&gt;transferParticipantRoleType:transferParticipantRoleTypeId</title>
<path fill="none" stroke="black" d="M573.58,-636.4C629.16,-611.91 570.2,-369.4 615.43,-318 684.29,-239.74 960.98,-184.8 1065.22,-184.8"/>
<polygon fill="black" stroke="black" points="573.77,-636.36 563.08,-633.92 568.54,-637.41 564.29,-638.27 564.29,-638.27 564.29,-638.27 568.54,-637.41 564.85,-642.75 573.77,-636.36"/>
<text text-anchor="start" x="7" y="-648.4" font-family="Arial" font-size="10.00">FOREIGN KEY (transferParticipantRoleTypeId) REFERENCES transferParticipantRoleType (transferParticipantRoleTypeId)</text>
</g>
<!-- quoteParty -->
<g id="node3" class="node">
<title>quoteParty</title>
<polygon fill="#efefef" stroke="none" points="667.24,-823.2 667.24,-858.8 953.61,-858.8 953.61,-823.2 667.24,-823.2"/>
<polygon fill="none" stroke="black" points="667.24,-823.2 667.24,-858.8 953.61,-858.8 953.61,-823.2 667.24,-823.2"/>
<text text-anchor="start" x="709.19" y="-836.6" font-family="Arial Bold" font-size="18.00">quoteParty</text>
<text text-anchor="start" x="787.18" y="-836.6" font-family="Arial" font-size="14.00">    </text>
<text text-anchor="start" x="818.29" y="-836.6" font-family="Arial" font-size="14.00" fill="#666666">[BASE TABLE]</text>
<polygon fill="none" stroke="black" points="667.24,-792.4 667.24,-823.2 953.61,-823.2 953.61,-792.4 667.24,-792.4"/>
<text text-anchor="start" x="674.24" y="-804.6" font-family="Arial" font-size="14.00">quotePartyId </text>
<text text-anchor="start" x="757.52" y="-804.6" font-family="Arial" font-size="14.00" fill="#666666">[bigint unsigned]</text>
<polygon fill="none" stroke="black" points="667.24,-761.6 667.24,-792.4 953.61,-792.4 953.61,-761.6 667.24,-761.6"/>
<text text-anchor="start" x="674.24" y="-773.8" font-family="Arial" font-size="14.00">quoteId </text>
<text text-anchor="start" x="724.84" y="-773.8" font-family="Arial" font-size="14.00" fill="#666666">[varchar(36)]</text>
<polygon fill="none" stroke="black" points="667.24,-730.8 667.24,-761.6 953.61,-761.6 953.61,-730.8 667.24,-730.8"/>
<text text-anchor="start" x="674.24" y="-743" font-family="Arial" font-size="14.00">partyTypeId </text>
<text text-anchor="start" x="752.06" y="-743" font-family="Arial" font-size="14.00" fill="#666666">[int unsigned]</text>
<polygon fill="none" stroke="black" points="667.24,-700 667.24,-730.8 953.61,-730.8 953.61,-700 667.24,-700"/>
<text text-anchor="start" x="674.24" y="-712.2" font-family="Arial" font-size="14.00">partyIdentifierTypeId </text>
<text text-anchor="start" x="805.75" y="-712.2" font-family="Arial" font-size="14.00" fill="#666666">[int unsigned]</text>
<polygon fill="none" stroke="black" points="667.24,-669.2 667.24,-700 953.61,-700 953.61,-669.2 667.24,-669.2"/>
<text text-anchor="start" x="674.24" y="-681.4" font-family="Arial" font-size="14.00">partyIdentifierValue </text>
<text text-anchor="start" x="798.76" y="-681.4" font-family="Arial" font-size="14.00" fill="#666666">[varchar(128)]</text>
<polygon fill="none" stroke="black" points="667.24,-638.4 667.24,-669.2 953.61,-669.2 953.61,-638.4 667.24,-638.4"/>
<text text-anchor="start" x="674.24" y="-650.6" font-family="Arial" font-size="14.00">partySubIdOrTypeId </text>
<text text-anchor="start" x="804.19" y="-650.6" font-family="Arial" font-size="14.00" fill="#666666">[varchar(128)]</text>
<polygon fill="none" stroke="black" points="667.24,-607.6 667.24,-638.4 953.61,-638.4 953.61,-607.6 667.24,-607.6"/>
<text text-anchor="start" x="674.24" y="-619.8" font-family="Arial" font-size="14.00">fspId </text>
<text text-anchor="start" x="708.48" y="-619.8" font-family="Arial" font-size="14.00" fill="#666666">[varchar(255)]</text>
<polygon fill="none" stroke="black" points="667.24,-576.8 667.24,-607.6 953.61,-607.6 953.61,-576.8 667.24,-576.8"/>
<text text-anchor="start" x="674.24" y="-589" font-family="Arial" font-size="14.00">participantId </text>
<text text-anchor="start" x="754.4" y="-589" font-family="Arial" font-size="14.00" fill="#666666">[int unsigned]</text>
<polygon fill="none" stroke="black" points="667.24,-546 667.24,-576.8 953.61,-576.8 953.61,-546 667.24,-546"/>
<text text-anchor="start" x="674.24" y="-558.2" font-family="Arial" font-size="14.00">merchantClassificationCode </text>
<text text-anchor="start" x="852.44" y="-558.2" font-family="Arial" font-size="14.00" fill="#666666">[varchar(4)]</text>
<polygon fill="none" stroke="black" points="667.24,-515.2 667.24,-546 953.61,-546 953.61,-515.2 667.24,-515.2"/>
<text text-anchor="start" x="674.24" y="-527.4" font-family="Arial" font-size="14.00">partyName </text>
<text text-anchor="start" x="746.6" y="-527.4" font-family="Arial" font-size="14.00" fill="#666666">[varchar(128)]</text>
<polygon fill="none" stroke="black" points="667.24,-484.4 667.24,-515.2 953.61,-515.2 953.61,-484.4 667.24,-484.4"/>
<text text-anchor="start" x="674.24" y="-496.6" font-family="Arial" font-size="14.00">transferParticipantRoleTypeId </text>
<text text-anchor="start" x="863.33" y="-496.6" font-family="Arial" font-size="14.00" fill="#666666">[int unsigned]</text>
<polygon fill="none" stroke="black" points="667.24,-453.6 667.24,-484.4 953.61,-484.4 953.61,-453.6 667.24,-453.6"/>
<text text-anchor="start" x="674.24" y="-465.8" font-family="Arial" font-size="14.00">ledgerEntryTypeId </text>
<text text-anchor="start" x="792.52" y="-465.8" font-family="Arial" font-size="14.00" fill="#666666">[int unsigned]</text>
<polygon fill="none" stroke="black" points="667.24,-422.8 667.24,-453.6 953.61,-453.6 953.61,-422.8 667.24,-422.8"/>
<text text-anchor="start" x="674.24" y="-435" font-family="Arial" font-size="14.00">amount </text>
<text text-anchor="start" x="724.83" y="-435" font-family="Arial" font-size="14.00" fill="#666666">[decimal(18,4)]</text>
<polygon fill="none" stroke="black" points="667.24,-392 667.24,-422.8 953.61,-422.8 953.61,-392 667.24,-392"/>
<text text-anchor="start" x="674.24" y="-404.2" font-family="Arial" font-size="14.00">currencyId </text>
<text text-anchor="start" x="743.49" y="-404.2" font-family="Arial" font-size="14.00" fill="#666666">[varchar(3)]</text>
<polygon fill="none" stroke="black" points="667.24,-361.2 667.24,-392 953.61,-392 953.61,-361.2 667.24,-361.2"/>
<text text-anchor="start" x="674.24" y="-373.4" font-family="Arial" font-size="14.00">createdDate </text>
<text text-anchor="start" x="754.4" y="-373.4" font-family="Arial" font-size="14.00" fill="#666666">[datetime]</text>
</g>
<!-- quoteParty&#45;&gt;transferParticipantRoleType -->
<g id="edge2" class="edge">
<title>quoteParty:transferParticipantRoleTypeId&#45;&gt;transferParticipantRoleType:transferParticipantRoleTypeId</title>
<path fill="none" stroke="black" d="M964.64,-499.24C1033.38,-491 978.1,-393.5 1005.43,-318 1027.51,-256.98 1000.33,-184.8 1065.22,-184.8"/>
<polygon fill="black" stroke="black" points="964.93,-499.22 954.7,-495.29 959.61,-499.52 955.28,-499.76 955.28,-499.76 955.28,-499.76 959.61,-499.52 955.2,-504.27 964.93,-499.22"/>
<text text-anchor="start" x="397.98" y="-509.8" font-family="Arial" font-size="10.00">FOREIGN KEY (transferParticipantRoleTypeId) REFERENCES transferParticipantRoleType (transferParticipantRoleTypeId)</text>
</g>
<!-- settlementContentAggregation -->
<g id="node4" class="node">
<title>settlementContentAggregation</title>
<polygon fill="#efefef" stroke="none" points="1057.71,-730.8 1057.71,-766.4 1417.15,-766.4 1417.15,-730.8 1057.71,-730.8"/>
<polygon fill="none" stroke="black" points="1057.71,-730.8 1057.71,-766.4 1417.15,-766.4 1417.15,-730.8 1057.71,-730.8"/>
<text text-anchor="start" x="1064.71" y="-744.2" font-family="Arial Bold" font-size="18.00">settlementContentAggregation</text>
<text text-anchor="start" x="1285.66" y="-744.2" font-family="Arial" font-size="14.00">    </text>
<text text-anchor="start" x="1316.77" y="-744.2" font-family="Arial" font-size="14.00" fill="#666666">[BASE TABLE]</text>
<polygon fill="none" stroke="black" points="1057.71,-700 1057.71,-730.8 1417.15,-730.8 1417.15,-700 1057.71,-700"/>
<text text-anchor="start" x="1064.71" y="-712.2" font-family="Arial" font-size="14.00">settlementContentAggregationId </text>
<text text-anchor="start" x="1269.4" y="-712.2" font-family="Arial" font-size="14.00" fill="#666666">[bigint unsigned]</text>
<polygon fill="none" stroke="black" points="1057.71,-669.2 1057.71,-700 1417.15,-700 1417.15,-669.2 1057.71,-669.2"/>
<text text-anchor="start" x="1064.71" y="-681.4" font-family="Arial" font-size="14.00">settlementWindowContentId </text>
<text text-anchor="start" x="1243.69" y="-681.4" font-family="Arial" font-size="14.00" fill="#666666">[bigint unsigned]</text>
<polygon fill="none" stroke="black" points="1057.71,-638.4 1057.71,-669.2 1417.15,-669.2 1417.15,-638.4 1057.71,-638.4"/>
<text text-anchor="start" x="1064.71" y="-650.6" font-family="Arial" font-size="14.00">participantCurrencyId </text>
<text text-anchor="start" x="1201.66" y="-650.6" font-family="Arial" font-size="14.00" fill="#666666">[int unsigned]</text>
<polygon fill="none" stroke="black" points="1057.71,-607.6 1057.71,-638.4 1417.15,-638.4 1417.15,-607.6 1057.71,-607.6"/>
<text text-anchor="start" x="1064.71" y="-619.8" font-family="Arial" font-size="14.00">transferParticipantRoleTypeId </text>
<text text-anchor="start" x="1253.8" y="-619.8" font-family="Arial" font-size="14.00" fill="#666666">[int unsigned]</text>
<polygon fill="none" stroke="black" points="1057.71,-576.8 1057.71,-607.6 1417.15,-607.6 1417.15,-576.8 1057.71,-576.8"/>
<text text-anchor="start" x="1064.71" y="-589" font-family="Arial" font-size="14.00">ledgerEntryTypeId </text>
<text text-anchor="start" x="1182.99" y="-589" font-family="Arial" font-size="14.00" fill="#666666">[int unsigned]</text>
<polygon fill="none" stroke="black" points="1057.71,-546 1057.71,-576.8 1417.15,-576.8 1417.15,-546 1057.71,-546"/>
<text text-anchor="start" x="1064.71" y="-558.2" font-family="Arial" font-size="14.00">amount </text>
<text text-anchor="start" x="1115.3" y="-558.2" font-family="Arial" font-size="14.00" fill="#666666">[decimal(18,4)]</text>
<polygon fill="none" stroke="black" points="1057.71,-515.2 1057.71,-546 1417.15,-546 1417.15,-515.2 1057.71,-515.2"/>
<text text-anchor="start" x="1064.71" y="-527.4" font-family="Arial" font-size="14.00">createdDate </text>
<text text-anchor="start" x="1144.87" y="-527.4" font-family="Arial" font-size="14.00" fill="#666666">[datetime]</text>
<polygon fill="none" stroke="black" points="1057.71,-484.4 1057.71,-515.2 1417.15,-515.2 1417.15,-484.4 1057.71,-484.4"/>
<text text-anchor="start" x="1064.71" y="-496.6" font-family="Arial" font-size="14.00">currentStateId </text>
<text text-anchor="start" x="1156.54" y="-496.6" font-family="Arial" font-size="14.00" fill="#666666">[varchar(50)]</text>
<polygon fill="none" stroke="black" points="1057.71,-453.6 1057.71,-484.4 1417.15,-484.4 1417.15,-453.6 1057.71,-453.6"/>
<text text-anchor="start" x="1064.71" y="-465.8" font-family="Arial" font-size="14.00">settlementId </text>
<text text-anchor="start" x="1144.86" y="-465.8" font-family="Arial" font-size="14.00" fill="#666666">[bigint unsigned]</text>
</g>
<!-- settlementContentAggregation&#45;&gt;transferParticipantRoleType -->
<g id="edge3" class="edge">
<title>settlementContentAggregation:transferParticipantRoleTypeId&#45;&gt;transferParticipantRoleType:transferParticipantRoleTypeId</title>
<path fill="none" stroke="black" d="M1426.85,-617.77C1465.58,-568.33 1455.19,-184.8 1409.63,-184.8"/>
<polygon fill="black" stroke="black" points="1427.01,-617.68 1416.12,-618.97 1422.43,-620.43 1418.72,-622.66 1418.72,-622.66 1418.72,-622.66 1422.43,-620.43 1420.75,-626.69 1427.01,-617.68"/>
<text text-anchor="start" x="861.51" y="-633" font-family="Arial" font-size="10.00">FOREIGN KEY (transferParticipantRoleTypeId) REFERENCES transferParticipantRoleType (transferParticipantRoleTypeId)</text>
</g>
<!-- settlementTransferParticipant -->
<g id="node5" class="node">
<title>settlementTransferParticipant</title>
<polygon fill="#efefef" stroke="none" points="1521.73,-715.4 1521.73,-751 1873.13,-751 1873.13,-715.4 1521.73,-715.4"/>
<polygon fill="none" stroke="black" points="1521.73,-715.4 1521.73,-751 1873.13,-751 1873.13,-715.4 1521.73,-715.4"/>
<text text-anchor="start" x="1528.73" y="-728.8" font-family="Arial Bold" font-size="18.00">settlementTransferParticipant</text>
<text text-anchor="start" x="1741.64" y="-728.8" font-family="Arial" font-size="14.00">    </text>
<text text-anchor="start" x="1772.76" y="-728.8" font-family="Arial" font-size="14.00" fill="#666666">[BASE TABLE]</text>
<polygon fill="none" stroke="black" points="1521.73,-684.6 1521.73,-715.4 1873.13,-715.4 1873.13,-684.6 1521.73,-684.6"/>
<text text-anchor="start" x="1528.73" y="-696.8" font-family="Arial" font-size="14.00">settlementTransferParticipantId </text>
<text text-anchor="start" x="1727.15" y="-696.8" font-family="Arial" font-size="14.00" fill="#666666">[bigint unsigned]</text>
<polygon fill="none" stroke="black" points="1521.73,-653.8 1521.73,-684.6 1873.13,-684.6 1873.13,-653.8 1521.73,-653.8"/>
<text text-anchor="start" x="1528.73" y="-666" font-family="Arial" font-size="14.00">settlementId </text>
<text text-anchor="start" x="1608.88" y="-666" font-family="Arial" font-size="14.00" fill="#666666">[bigint unsigned]</text>
<polygon fill="none" stroke="black" points="1521.73,-623 1521.73,-653.8 1873.13,-653.8 1873.13,-623 1521.73,-623"/>
<text text-anchor="start" x="1528.73" y="-635.2" font-family="Arial" font-size="14.00">settlementWindowId </text>
<text text-anchor="start" x="1658.67" y="-635.2" font-family="Arial" font-size="14.00" fill="#666666">[bigint unsigned]</text>
<polygon fill="none" stroke="black" points="1521.73,-592.2 1521.73,-623 1873.13,-623 1873.13,-592.2 1521.73,-592.2"/>
<text text-anchor="start" x="1528.73" y="-604.4" font-family="Arial" font-size="14.00">participantCurrencyId </text>
<text text-anchor="start" x="1665.68" y="-604.4" font-family="Arial" font-size="14.00" fill="#666666">[int unsigned]</text>
<polygon fill="none" stroke="black" points="1521.73,-561.4 1521.73,-592.2 1873.13,-592.2 1873.13,-561.4 1521.73,-561.4"/>
<text text-anchor="start" x="1528.73" y="-573.6" font-family="Arial" font-size="14.00">transferParticipantRoleTypeId </text>
<text text-anchor="start" x="1717.81" y="-573.6" font-family="Arial" font-size="14.00" fill="#666666">[int unsigned]</text>
<polygon fill="none" stroke="black" points="1521.73,-530.6 1521.73,-561.4 1873.13,-561.4 1873.13,-530.6 1521.73,-530.6"/>
<text text-anchor="start" x="1528.73" y="-542.8" font-family="Arial" font-size="14.00">ledgerEntryTypeId </text>
<text text-anchor="start" x="1647.01" y="-542.8" font-family="Arial" font-size="14.00" fill="#666666">[int unsigned]</text>
<polygon fill="none" stroke="black" points="1521.73,-499.8 1521.73,-530.6 1873.13,-530.6 1873.13,-499.8 1521.73,-499.8"/>
<text text-anchor="start" x="1528.73" y="-512" font-family="Arial" font-size="14.00">amount </text>
<text text-anchor="start" x="1579.31" y="-512" font-family="Arial" font-size="14.00" fill="#666666">[decimal(18,4)]</text>
<polygon fill="none" stroke="black" points="1521.73,-469 1521.73,-499.8 1873.13,-499.8 1873.13,-469 1521.73,-469"/>
<text text-anchor="start" x="1528.73" y="-481.2" font-family="Arial" font-size="14.00">createdDate </text>
<text text-anchor="start" x="1608.88" y="-481.2" font-family="Arial" font-size="14.00" fill="#666666">[datetime]</text>
</g>
<!-- settlementTransferParticipant&#45;&gt;transferParticipantRoleType -->
<g id="edge4" class="edge">
<title>settlementTransferParticipant:transferParticipantRoleTypeId&#45;&gt;transferParticipantRoleType:transferParticipantRoleTypeId</title>
<path fill="none" stroke="black" d="M1510.68,-574.51C1465.07,-552.01 1486.13,-370.37 1469.43,-318 1449.71,-256.18 1474.53,-184.8 1409.63,-184.8"/>
<polygon fill="black" stroke="black" points="1510.65,-574.5 1519.4,-581.11 1515.85,-575.69 1520.07,-576.65 1520.07,-576.65 1520.07,-576.65 1515.85,-575.69 1521.4,-572.34 1510.65,-574.5"/>
<text text-anchor="start" x="1245.91" y="-560.8" font-family="Arial" font-size="10.00">FOREIGN KEY (transferParticipantRoleTypeId) REFERENCES transferParticipantRoleType (transferParticipantRoleTypeId)</text>
</g>
<!-- transferParticipant -->
<g id="node6" class="node">
<title>transferParticipant</title>
<polygon fill="#efefef" stroke="none" points="1977.24,-730.8 1977.24,-766.4 2263.61,-766.4 2263.61,-730.8 1977.24,-730.8"/>
<polygon fill="none" stroke="black" points="1977.24,-730.8 1977.24,-766.4 2263.61,-766.4 2263.61,-730.8 1977.24,-730.8"/>
<text text-anchor="start" x="1991.71" y="-744.2" font-family="Arial Bold" font-size="18.00">transferParticipant</text>
<text text-anchor="start" x="2124.66" y="-744.2" font-family="Arial" font-size="14.00">    </text>
<text text-anchor="start" x="2155.77" y="-744.2" font-family="Arial" font-size="14.00" fill="#666666">[BASE TABLE]</text>
<polygon fill="none" stroke="black" points="1977.24,-700 1977.24,-730.8 2263.61,-730.8 2263.61,-700 1977.24,-700"/>
<text text-anchor="start" x="1984.24" y="-712.2" font-family="Arial" font-size="14.00">transferParticipantId </text>
<text text-anchor="start" x="2113.41" y="-712.2" font-family="Arial" font-size="14.00" fill="#666666">[bigint unsigned]</text>
<polygon fill="none" stroke="black" points="1977.24,-669.2 1977.24,-700 2263.61,-700 2263.61,-669.2 1977.24,-669.2"/>
<text text-anchor="start" x="1984.24" y="-681.4" font-family="Arial" font-size="14.00">transferId </text>
<text text-anchor="start" x="2047.27" y="-681.4" font-family="Arial" font-size="14.00" fill="#666666">[varchar(36)]</text>
<polygon fill="none" stroke="black" points="1977.24,-638.4 1977.24,-669.2 2263.61,-669.2 2263.61,-638.4 1977.24,-638.4"/>
<text text-anchor="start" x="1984.24" y="-650.6" font-family="Arial" font-size="14.00">participantCurrencyId </text>
<text text-anchor="start" x="2121.19" y="-650.6" font-family="Arial" font-size="14.00" fill="#666666">[int unsigned]</text>
<polygon fill="none" stroke="black" points="1977.24,-607.6 1977.24,-638.4 2263.61,-638.4 2263.61,-607.6 1977.24,-607.6"/>
<text text-anchor="start" x="1984.24" y="-619.8" font-family="Arial" font-size="14.00">transferParticipantRoleTypeId </text>
<text text-anchor="start" x="2173.33" y="-619.8" font-family="Arial" font-size="14.00" fill="#666666">[int unsigned]</text>
<polygon fill="none" stroke="black" points="1977.24,-576.8 1977.24,-607.6 2263.61,-607.6 2263.61,-576.8 1977.24,-576.8"/>
<text text-anchor="start" x="1984.24" y="-589" font-family="Arial" font-size="14.00">ledgerEntryTypeId </text>
<text text-anchor="start" x="2102.52" y="-589" font-family="Arial" font-size="14.00" fill="#666666">[int unsigned]</text>
<polygon fill="none" stroke="black" points="1977.24,-546 1977.24,-576.8 2263.61,-576.8 2263.61,-546 1977.24,-546"/>
<text text-anchor="start" x="1984.24" y="-558.2" font-family="Arial" font-size="14.00">amount </text>
<text text-anchor="start" x="2034.83" y="-558.2" font-family="Arial" font-size="14.00" fill="#666666">[decimal(18,4)]</text>
<polygon fill="none" stroke="black" points="1977.24,-515.2 1977.24,-546 2263.61,-546 2263.61,-515.2 1977.24,-515.2"/>
<text text-anchor="start" x="1984.24" y="-527.4" font-family="Arial" font-size="14.00">createdDate </text>
<text text-anchor="start" x="2064.4" y="-527.4" font-family="Arial" font-size="14.00" fill="#666666">[datetime]</text>
<polygon fill="none" stroke="black" points="1977.24,-484.4 1977.24,-515.2 2263.61,-515.2 2263.61,-484.4 1977.24,-484.4"/>
<text text-anchor="start" x="1984.24" y="-496.6" font-family="Arial" font-size="14.00">participantId </text>
<text text-anchor="start" x="2064.4" y="-496.6" font-family="Arial" font-size="14.00" fill="#666666">[int unsigned]</text>
<polygon fill="none" stroke="black" points="1977.24,-453.6 1977.24,-484.4 2263.61,-484.4 2263.61,-453.6 1977.24,-453.6"/>
<text text-anchor="start" x="1984.24" y="-465.8" font-family="Arial" font-size="14.00">externalParticipantId </text>
<text text-anchor="start" x="2115.76" y="-465.8" font-family="Arial" font-size="14.00" fill="#666666">[bigint unsigned]</text>
</g>
<!-- transferParticipant&#45;&gt;transferParticipantRoleType -->
<g id="edge5" class="edge">
<title>transferParticipant:transferParticipantRoleTypeId&#45;&gt;transferParticipantRoleType:transferParticipantRoleTypeId</title>
<path fill="none" stroke="black" d="M1966.12,-620.79C1914.23,-595.79 1969.3,-365.9 1925.43,-318 1845.47,-230.71 1528.02,-184.8 1409.63,-184.8"/>
<polygon fill="black" stroke="black" points="1966.15,-620.8 1974.96,-627.33 1971.36,-621.93 1975.59,-622.86 1975.59,-622.86 1975.59,-622.86 1971.36,-621.93 1976.87,-618.53 1966.15,-620.8"/>
<text text-anchor="start" x="1983.24" y="-633" font-family="Arial" font-size="10.00">FOREIGN KEY (transferParticipantRoleTypeId) REFERENCES transferParticipantRoleType (transferParticipantRoleTypeId)</text>
</g>
</g>
</svg>
