<?xml version="1.0" encoding="UTF-8" standalone="no"?>
<!DOCTYPE svg PUBLIC "-//W3C//DTD SVG 1.1//EN"
 "http://www.w3.org/Graphics/SVG/1.1/DTD/svg11.dtd">
<!-- Generated by graphviz version 12.1.2 (20240928.0832)
 -->
<!-- Title: transferFulfilment Pages: 1 -->
<svg width="1123pt" height="417pt"
 viewBox="0.00 0.00 1123.24 417.20" xmlns="http://www.w3.org/2000/svg" xmlns:xlink="http://www.w3.org/1999/xlink">
<g id="graph0" class="graph" transform="scale(1 1) rotate(0) translate(4 413.2)">
<title>transferFulfilment</title>
<polygon fill="white" stroke="none" points="-4,4 -4,-413.2 1119.24,-413.2 1119.24,4 -4,4"/>
<!-- transferFulfilment -->
<g id="node1" class="node">
<title>transferFulfilment</title>
<polygon fill="#efefef" stroke="none" points="407.89,-327.4 407.89,-363 677.34,-363 677.34,-327.4 407.89,-327.4"/>
<polygon fill="none" stroke="black" points="407.89,-327.4 407.89,-363 677.34,-363 677.34,-327.4 407.89,-327.4"/>
<text text-anchor="start" x="414.89" y="-340.8" font-family="Arial Bold" font-size="18.00">transferFulfilment</text>
<text text-anchor="start" x="545.85" y="-340.8" font-family="Arial" font-size="14.00">    </text>
<text text-anchor="start" x="576.97" y="-340.8" font-family="Arial" font-size="14.00" fill="#666666">[BASE TABLE]</text>
<polygon fill="none" stroke="black" points="407.89,-296.6 407.89,-327.4 677.34,-327.4 677.34,-296.6 407.89,-296.6"/>
<text text-anchor="start" x="414.89" y="-308.8" font-family="Arial" font-size="14.00">transferId </text>
<text text-anchor="start" x="477.91" y="-308.8" font-family="Arial" font-size="14.00" fill="#666666">[varchar(36)]</text>
<polygon fill="none" stroke="black" points="407.89,-265.8 407.89,-296.6 677.34,-296.6 677.34,-265.8 407.89,-265.8"/>
<text text-anchor="start" x="414.89" y="-278" font-family="Arial" font-size="14.00">settlementWindowId </text>
<text text-anchor="start" x="544.83" y="-278" font-family="Arial" font-size="14.00" fill="#666666">[bigint unsigned]</text>
<polygon fill="none" stroke="black" stroke-width="3" points="406.39,-264.3 406.39,-364.5 678.84,-364.5 678.84,-264.3 406.39,-264.3"/>
</g>
<!-- transferFulfilmentDuplicateCheck -->
<g id="node2" class="node">
<title>transferFulfilmentDuplicateCheck</title>
<polygon fill="#efefef" stroke="none" points="132.91,-89.4 132.91,-125 518.32,-125 518.32,-89.4 132.91,-89.4"/>
<polygon fill="none" stroke="black" points="132.91,-89.4 132.91,-125 518.32,-125 518.32,-89.4 132.91,-89.4"/>
<text text-anchor="start" x="139.91" y="-102.8" font-family="Arial Bold" font-size="18.00">transferFulfilmentDuplicateCheck</text>
<text text-anchor="start" x="386.83" y="-102.8" font-family="Arial" font-size="14.00">    </text>
<text text-anchor="start" x="417.95" y="-102.8" font-family="Arial" font-size="14.00" fill="#666666">[BASE TABLE]</text>
<polygon fill="none" stroke="black" points="132.91,-58.6 132.91,-89.4 518.32,-89.4 518.32,-58.6 132.91,-58.6"/>
<text text-anchor="start" x="139.91" y="-70.8" font-family="Arial" font-size="14.00">transferId </text>
<text text-anchor="start" x="202.94" y="-70.8" font-family="Arial" font-size="14.00" fill="#666666">[varchar(36)]</text>
</g>
<!-- transferFulfilment&#45;&gt;transferFulfilmentDuplicateCheck -->
<g id="edge1" class="edge">
<title>transferFulfilment:transferId&#45;&gt;transferFulfilmentDuplicateCheck:transferId</title>
<path fill="none" stroke="black" d="M396.89,-310.54C369.55,-301.35 387.71,-250.87 407.89,-219.6 437.24,-174.11 488.97,-213.69 518.32,-168.2 541.01,-133.02 561.19,-74 519.32,-74"/>
<polygon fill="black" stroke="black" points="396.66,-310.51 405.9,-316.4 401.94,-311.28 406.22,-311.9 406.22,-311.9 406.22,-311.9 401.94,-311.28 407.21,-307.5 396.66,-310.51"/>
<text text-anchor="start" x="7" y="-322" font-family="Arial" font-size="10.00">FOREIGN KEY (transferId) REFERENCES transferFulfilmentDuplicateCheck (transferId)</text>
</g>
<!-- settlementWindow -->
<g id="node3" class="node">
<title>settlementWindow</title>
<polygon fill="#efefef" stroke="none" points="622.39,-104.8 622.39,-140.4 896.84,-140.4 896.84,-104.8 622.39,-104.8"/>
<polygon fill="none" stroke="black" points="622.39,-104.8 622.39,-140.4 896.84,-140.4 896.84,-104.8 622.39,-104.8"/>
<text text-anchor="start" x="629.39" y="-118.2" font-family="Arial Bold" font-size="18.00">settlementWindow</text>
<text text-anchor="start" x="765.35" y="-118.2" font-family="Arial" font-size="14.00">    </text>
<text text-anchor="start" x="796.47" y="-118.2" font-family="Arial" font-size="14.00" fill="#666666">[BASE TABLE]</text>
<polygon fill="none" stroke="black" points="622.39,-74 622.39,-104.8 896.84,-104.8 896.84,-74 622.39,-74"/>
<text text-anchor="start" x="629.39" y="-86.2" font-family="Arial" font-size="14.00">settlementWindowId </text>
<text text-anchor="start" x="759.33" y="-86.2" font-family="Arial" font-size="14.00" fill="#666666">[bigint unsigned]</text>
<polygon fill="none" stroke="black" points="622.39,-43.2 622.39,-74 896.84,-74 896.84,-43.2 622.39,-43.2"/>
<text text-anchor="start" x="629.39" y="-55.4" font-family="Arial" font-size="14.00">currentStateChangeId </text>
<text text-anchor="start" x="770.25" y="-55.4" font-family="Arial" font-size="14.00" fill="#666666">[bigint unsigned]</text>
</g>
<!-- transferFulfilment&#45;&gt;settlementWindow -->
<g id="edge2" class="edge">
<title>transferFulfilment:settlementWindowId&#45;&gt;settlementWindow:settlementWindowId</title>
<path fill="none" stroke="black" d="M688.23,-278.64C701.03,-269.78 688.49,-239.84 677.34,-219.6 663.25,-194.03 636.4,-209.21 622.39,-183.6 602.29,-146.87 579.52,-89.4 621.39,-89.4"/>
<polygon fill="black" stroke="black" points="688.35,-278.61 677.54,-276.76 683.18,-279.95 678.99,-281.03 678.99,-281.03 678.99,-281.03 683.18,-279.95 679.79,-285.47 688.35,-278.61"/>
<text text-anchor="start" x="685.34" y="-291.2" font-family="Arial" font-size="10.00">FOREIGN KEY (settlementWindowId) REFERENCES settlementWindow (settlementWindowId)</text>
</g>
</g>
</svg>
