<?xml version="1.0" encoding="UTF-8" standalone="no"?>
<!DOCTYPE svg PUBLIC "-//W3C//DTD SVG 1.1//EN"
 "http://www.w3.org/Graphics/SVG/1.1/DTD/svg11.dtd">
<!-- Generated by graphviz version 12.1.2 (20240928.0832)
 -->
<!-- Title: transactionInitiatorType Pages: 1 -->
<svg width="846pt" height="848pt"
 viewBox="0.00 0.00 845.78 848.40" xmlns="http://www.w3.org/2000/svg" xmlns:xlink="http://www.w3.org/1999/xlink">
<g id="graph0" class="graph" transform="scale(1 1) rotate(0) translate(4 844.4)">
<title>transactionInitiatorType</title>
<polygon fill="white" stroke="none" points="-4,4 -4,-844.4 841.78,-844.4 841.78,4 -4,4"/>
<!-- transactionInitiatorType -->
<g id="node1" class="node">
<title>transactionInitiatorType</title>
<polygon fill="#efefef" stroke="none" points="46.2,-169.4 46.2,-205 358.62,-205 358.62,-169.4 46.2,-169.4"/>
<polygon fill="none" stroke="black" points="46.2,-169.4 46.2,-205 358.62,-205 358.62,-169.4 46.2,-169.4"/>
<text text-anchor="start" x="53.2" y="-182.8" font-family="Arial Bold" font-size="18.00">transactionInitiatorType</text>
<text text-anchor="start" x="227.14" y="-182.8" font-family="Arial" font-size="14.00">    </text>
<text text-anchor="start" x="258.25" y="-182.8" font-family="Arial" font-size="14.00" fill="#666666">[BASE TABLE]</text>
<polygon fill="none" stroke="black" points="46.2,-138.6 46.2,-169.4 358.62,-169.4 358.62,-138.6 46.2,-138.6"/>
<text text-anchor="start" x="53.2" y="-150.8" font-family="Arial" font-size="14.00">transactionInitiatorTypeId </text>
<text text-anchor="start" x="214.28" y="-150.8" font-family="Arial" font-size="14.00" fill="#666666">[int unsigned]</text>
<polygon fill="none" stroke="black" points="46.2,-107.8 46.2,-138.6 358.62,-138.6 358.62,-107.8 46.2,-107.8"/>
<text text-anchor="start" x="53.2" y="-120" font-family="Arial" font-size="14.00">name </text>
<text text-anchor="start" x="92.11" y="-120" font-family="Arial" font-size="14.00" fill="#666666">[varchar(256)]</text>
<polygon fill="none" stroke="black" points="46.2,-77 46.2,-107.8 358.62,-107.8 358.62,-77 46.2,-77"/>
<text text-anchor="start" x="53.2" y="-89.2" font-family="Arial" font-size="14.00">description </text>
<text text-anchor="start" x="124.79" y="-89.2" font-family="Arial" font-size="14.00" fill="#666666">[varchar(1024)]</text>
<polygon fill="none" stroke="black" points="46.2,-46.2 46.2,-77 358.62,-77 358.62,-46.2 46.2,-46.2"/>
<text text-anchor="start" x="53.2" y="-58.4" font-family="Arial" font-size="14.00">createdDate </text>
<text text-anchor="start" x="133.36" y="-58.4" font-family="Arial" font-size="14.00" fill="#666666">[datetime]</text>
<polygon fill="none" stroke="black" stroke-width="3" points="44.7,-44.7 44.7,-206.5 360.12,-206.5 360.12,-44.7 44.7,-44.7"/>
</g>
<!-- quote -->
<g id="node2" class="node">
<title>quote</title>
<polygon fill="#efefef" stroke="none" points="71.66,-761.6 71.66,-797.2 333.16,-797.2 333.16,-761.6 71.66,-761.6"/>
<polygon fill="none" stroke="black" points="71.66,-761.6 71.66,-797.2 333.16,-797.2 333.16,-761.6 71.66,-761.6"/>
<text text-anchor="start" x="120.17" y="-775" font-family="Arial Bold" font-size="18.00">quote</text>
<text text-anchor="start" x="160.16" y="-775" font-family="Arial" font-size="14.00">    </text>
<text text-anchor="start" x="191.28" y="-775" font-family="Arial" font-size="14.00" fill="#666666">[BASE TABLE]</text>
<polygon fill="none" stroke="black" points="71.66,-730.8 71.66,-761.6 333.16,-761.6 333.16,-730.8 71.66,-730.8"/>
<text text-anchor="start" x="78.66" y="-743" font-family="Arial" font-size="14.00">quoteId </text>
<text text-anchor="start" x="129.26" y="-743" font-family="Arial" font-size="14.00" fill="#666666">[varchar(36)]</text>
<polygon fill="none" stroke="black" points="71.66,-700 71.66,-730.8 333.16,-730.8 333.16,-700 71.66,-700"/>
<text text-anchor="start" x="78.66" y="-712.2" font-family="Arial" font-size="14.00">transactionReferenceId </text>
<text text-anchor="start" x="227.31" y="-712.2" font-family="Arial" font-size="14.00" fill="#666666">[varchar(36)]</text>
<polygon fill="none" stroke="black" points="71.66,-669.2 71.66,-700 333.16,-700 333.16,-669.2 71.66,-669.2"/>
<text text-anchor="start" x="78.66" y="-681.4" font-family="Arial" font-size="14.00">transactionRequestId </text>
<text text-anchor="start" x="214.86" y="-681.4" font-family="Arial" font-size="14.00" fill="#666666">[varchar(36)]</text>
<polygon fill="none" stroke="black" points="71.66,-638.4 71.66,-669.2 333.16,-669.2 333.16,-638.4 71.66,-638.4"/>
<text text-anchor="start" x="78.66" y="-650.6" font-family="Arial" font-size="14.00">note </text>
<text text-anchor="start" x="109.8" y="-650.6" font-family="Arial" font-size="14.00" fill="#666666">[text]</text>
<polygon fill="none" stroke="black" points="71.66,-607.6 71.66,-638.4 333.16,-638.4 333.16,-607.6 71.66,-607.6"/>
<text text-anchor="start" x="78.66" y="-619.8" font-family="Arial" font-size="14.00">expirationDate </text>
<text text-anchor="start" x="172.83" y="-619.8" font-family="Arial" font-size="14.00" fill="#666666">[datetime]</text>
<polygon fill="none" stroke="black" points="71.66,-576.8 71.66,-607.6 333.16,-607.6 333.16,-576.8 71.66,-576.8"/>
<text text-anchor="start" x="78.66" y="-589" font-family="Arial" font-size="14.00">transactionInitiatorId </text>
<text text-anchor="start" x="208.62" y="-589" font-family="Arial" font-size="14.00" fill="#666666">[int unsigned]</text>
<polygon fill="none" stroke="black" points="71.66,-546 71.66,-576.8 333.16,-576.8 333.16,-546 71.66,-546"/>
<text text-anchor="start" x="78.66" y="-558.2" font-family="Arial" font-size="14.00">transactionInitiatorTypeId </text>
<text text-anchor="start" x="239.75" y="-558.2" font-family="Arial" font-size="14.00" fill="#666666">[int unsigned]</text>
<polygon fill="none" stroke="black" points="71.66,-515.2 71.66,-546 333.16,-546 333.16,-515.2 71.66,-515.2"/>
<text text-anchor="start" x="78.66" y="-527.4" font-family="Arial" font-size="14.00">transactionScenarioId </text>
<text text-anchor="start" x="217.97" y="-527.4" font-family="Arial" font-size="14.00" fill="#666666">[int unsigned]</text>
<polygon fill="none" stroke="black" points="71.66,-484.4 71.66,-515.2 333.16,-515.2 333.16,-484.4 71.66,-484.4"/>
<text text-anchor="start" x="78.66" y="-496.6" font-family="Arial" font-size="14.00">balanceOfPaymentsId </text>
<text text-anchor="start" x="220.3" y="-496.6" font-family="Arial" font-size="14.00" fill="#666666">[int unsigned]</text>
<polygon fill="none" stroke="black" points="71.66,-453.6 71.66,-484.4 333.16,-484.4 333.16,-453.6 71.66,-453.6"/>
<text text-anchor="start" x="78.66" y="-465.8" font-family="Arial" font-size="14.00">transactionSubScenarioId </text>
<text text-anchor="start" x="242.88" y="-465.8" font-family="Arial" font-size="14.00" fill="#666666">[int unsigned]</text>
<polygon fill="none" stroke="black" points="71.66,-422.8 71.66,-453.6 333.16,-453.6 333.16,-422.8 71.66,-422.8"/>
<text text-anchor="start" x="78.66" y="-435" font-family="Arial" font-size="14.00">amountTypeId </text>
<text text-anchor="start" x="172.05" y="-435" font-family="Arial" font-size="14.00" fill="#666666">[int unsigned]</text>
<polygon fill="none" stroke="black" points="71.66,-392 71.66,-422.8 333.16,-422.8 333.16,-392 71.66,-392"/>
<text text-anchor="start" x="78.66" y="-404.2" font-family="Arial" font-size="14.00">amount </text>
<text text-anchor="start" x="129.25" y="-404.2" font-family="Arial" font-size="14.00" fill="#666666">[decimal(18,4)]</text>
<polygon fill="none" stroke="black" points="71.66,-361.2 71.66,-392 333.16,-392 333.16,-361.2 71.66,-361.2"/>
<text text-anchor="start" x="78.66" y="-373.4" font-family="Arial" font-size="14.00">currencyId </text>
<text text-anchor="start" x="147.91" y="-373.4" font-family="Arial" font-size="14.00" fill="#666666">[varchar(255)]</text>
<polygon fill="none" stroke="black" points="71.66,-330.4 71.66,-361.2 333.16,-361.2 333.16,-330.4 71.66,-330.4"/>
<text text-anchor="start" x="78.66" y="-342.6" font-family="Arial" font-size="14.00">createdDate </text>
<text text-anchor="start" x="158.82" y="-342.6" font-family="Arial" font-size="14.00" fill="#666666">[datetime]</text>
</g>
<!-- quote&#45;&gt;transactionInitiatorType -->
<g id="edge1" class="edge">
<title>quote:transactionInitiatorTypeId&#45;&gt;transactionInitiatorType:transactionInitiatorTypeId</title>
<path fill="none" stroke="black" d="M344.24,-559.67C426.64,-530.96 446.88,-154 359.62,-154"/>
<polygon fill="black" stroke="black" points="344.35,-559.65 333.73,-556.91 339.09,-560.56 334.82,-561.29 334.82,-561.29 334.82,-561.29 339.09,-560.56 335.25,-565.78 344.35,-559.65"/>
<text text-anchor="start" x="341.16" y="-571.4" font-family="Arial" font-size="10.00">FOREIGN KEY (transactionInitiatorTypeId) REFERENCES transactionInitiatorType (transactionInitiatorTypeId)</text>
</g>
</g>
</svg>
