<?xml version="1.0" encoding="UTF-8" standalone="no"?>
<!DOCTYPE svg PUBLIC "-//W3C//DTD SVG 1.1//EN"
 "http://www.w3.org/Graphics/SVG/1.1/DTD/svg11.dtd">
<!-- Generated by graphviz version 12.1.2 (20240928.0832)
 -->
<!-- Title: transactionInitiatorType Pages: 1 -->
<svg width="1367pt" height="604pt"
 viewBox="0.00 0.00 1367.43 603.65" xmlns="http://www.w3.org/2000/svg" xmlns:xlink="http://www.w3.org/1999/xlink">
<g id="graph0" class="graph" transform="scale(1 1) rotate(0) translate(4 599.65)">
<title>transactionInitiatorType</title>
<polygon fill="white" stroke="none" points="-4,4 -4,-599.65 1363.43,-599.65 1363.43,4 -4,4"/>
<!-- transactionInitiatorType -->
<g id="node1" class="node">
<title>transactionInitiatorType</title>
<polygon fill="#efefef" stroke="none" points="292.79,-78.65 292.79,-114.25 605.22,-114.25 605.22,-78.65 292.79,-78.65"/>
<polygon fill="none" stroke="black" points="292.79,-78.65 292.79,-114.25 605.22,-114.25 605.22,-78.65 292.79,-78.65"/>
<text text-anchor="start" x="299.79" y="-92.05" font-family="Arial Bold" font-size="18.00">transactionInitiatorType</text>
<text text-anchor="start" x="473.73" y="-92.05" font-family="Arial" font-size="14.00">    </text>
<text text-anchor="start" x="504.85" y="-92.05" font-family="Arial" font-size="14.00" fill="#666666">[BASE TABLE]</text>
<polygon fill="none" stroke="black" points="292.79,-47.85 292.79,-78.65 605.22,-78.65 605.22,-47.85 292.79,-47.85"/>
<text text-anchor="start" x="299.79" y="-60.05" font-family="Arial" font-size="14.00">transactionInitiatorTypeId </text>
<text text-anchor="start" x="460.87" y="-60.05" font-family="Arial" font-size="14.00" fill="#666666">[int unsigned]</text>
<polygon fill="none" stroke="black" stroke-width="3" points="291.29,-46.35 291.29,-115.75 606.72,-115.75 606.72,-46.35 291.29,-46.35"/>
</g>
<!-- quote -->
<g id="node2" class="node">
<title>quote</title>
<polygon fill="#efefef" stroke="none" points="43.2,-516.85 43.2,-552.45 854.81,-552.45 854.81,-516.85 43.2,-516.85"/>
<polygon fill="none" stroke="black" points="43.2,-516.85 43.2,-552.45 854.81,-552.45 854.81,-516.85 43.2,-516.85"/>
<text text-anchor="start" x="366.77" y="-530.25" font-family="Arial Bold" font-size="18.00">quote</text>
<text text-anchor="start" x="406.76" y="-530.25" font-family="Arial" font-size="14.00">    </text>
<text text-anchor="start" x="437.87" y="-530.25" font-family="Arial" font-size="14.00" fill="#666666">[BASE TABLE]</text>
<polygon fill="none" stroke="black" points="43.2,-486.05 43.2,-516.85 854.81,-516.85 854.81,-486.05 43.2,-486.05"/>
<text text-anchor="start" x="50.2" y="-498.25" font-family="Arial" font-size="14.00">quoteId </text>
<text text-anchor="start" x="100.8" y="-498.25" font-family="Arial" font-size="14.00" fill="#666666">[varchar(36)]</text>
<polygon fill="none" stroke="black" points="43.2,-455.25 43.2,-486.05 854.81,-486.05 854.81,-455.25 43.2,-455.25"/>
<text text-anchor="start" x="50.2" y="-467.45" font-family="Arial" font-size="14.00">transactionReferenceId </text>
<text text-anchor="start" x="198.84" y="-467.45" font-family="Arial" font-size="14.00" fill="#666666">[varchar(36)]</text>
<text text-anchor="start" x="278.2" y="-467.45" font-family="Arial" font-size="14.00"> Common ID (decided by the Payer FSP) between the FSPs for the future transaction object</text>
<polygon fill="none" stroke="black" points="43.2,-424.45 43.2,-455.25 854.81,-455.25 854.81,-424.45 43.2,-424.45"/>
<text text-anchor="start" x="50.2" y="-436.65" font-family="Arial" font-size="14.00">transactionInitiatorId </text>
<text text-anchor="start" x="180.16" y="-436.65" font-family="Arial" font-size="14.00" fill="#666666">[int unsigned]</text>
<text text-anchor="start" x="263.44" y="-436.65" font-family="Arial" font-size="14.00"> This is part of the transaction initiator</text>
<polygon fill="none" stroke="black" points="43.2,-393.65 43.2,-424.45 854.81,-424.45 854.81,-393.65 43.2,-393.65"/>
<text text-anchor="start" x="50.2" y="-405.85" font-family="Arial" font-size="14.00">transactionInitiatorTypeId </text>
<text text-anchor="start" x="211.28" y="-405.85" font-family="Arial" font-size="14.00" fill="#666666">[int unsigned]</text>
<text text-anchor="start" x="294.56" y="-405.85" font-family="Arial" font-size="14.00"> This is part of the transaction initiator type</text>
<polygon fill="none" stroke="black" points="43.2,-362.85 43.2,-393.65 854.81,-393.65 854.81,-362.85 43.2,-362.85"/>
<text text-anchor="start" x="50.2" y="-375.05" font-family="Arial" font-size="14.00">transactionScenarioId </text>
<text text-anchor="start" x="189.5" y="-375.05" font-family="Arial" font-size="14.00" fill="#666666">[int unsigned]</text>
<text text-anchor="start" x="272.78" y="-375.05" font-family="Arial" font-size="14.00"> This is part of the transaction scenario</text>
<polygon fill="none" stroke="black" points="43.2,-332.05 43.2,-362.85 854.81,-362.85 854.81,-332.05 43.2,-332.05"/>
<text text-anchor="start" x="50.2" y="-344.25" font-family="Arial" font-size="14.00">balanceOfPaymentsId </text>
<text text-anchor="start" x="191.83" y="-344.25" font-family="Arial" font-size="14.00" fill="#666666">[int unsigned]</text>
<text text-anchor="start" x="275.12" y="-344.25" font-family="Arial" font-size="14.00"> This is part of the transaction type that contains the elements&#45; balance of payment</text>
<polygon fill="none" stroke="black" points="43.2,-301.25 43.2,-332.05 854.81,-332.05 854.81,-301.25 43.2,-301.25"/>
<text text-anchor="start" x="50.2" y="-313.45" font-family="Arial" font-size="14.00">transactionSubScenarioId </text>
<text text-anchor="start" x="214.41" y="-313.45" font-family="Arial" font-size="14.00" fill="#666666">[int unsigned]</text>
<text text-anchor="start" x="297.7" y="-313.45" font-family="Arial" font-size="14.00"> This is part of the transaction type sub scenario as defined by the local scheme</text>
<polygon fill="none" stroke="black" points="43.2,-270.45 43.2,-301.25 854.81,-301.25 854.81,-270.45 43.2,-270.45"/>
<text text-anchor="start" x="50.2" y="-282.65" font-family="Arial" font-size="14.00">amountTypeId </text>
<text text-anchor="start" x="143.59" y="-282.65" font-family="Arial" font-size="14.00" fill="#666666">[int unsigned]</text>
<text text-anchor="start" x="226.87" y="-282.65" font-family="Arial" font-size="14.00"> This is part of the transaction type that contains valid elements for &#45; Amount Type</text>
<polygon fill="none" stroke="black" points="43.2,-239.65 43.2,-270.45 854.81,-270.45 854.81,-239.65 43.2,-239.65"/>
<text text-anchor="start" x="50.2" y="-251.85" font-family="Arial" font-size="14.00">currencyId </text>
<text text-anchor="start" x="119.45" y="-251.85" font-family="Arial" font-size="14.00" fill="#666666">[varchar(255)]</text>
<text text-anchor="start" x="206.59" y="-251.85" font-family="Arial" font-size="14.00"> Trading currency pertaining to the Amount</text>
</g>
<!-- quote&#45;&gt;transactionInitiatorType -->
<g id="edge1" class="edge">
<title>quote:transactionInitiatorTypeId&#45;&gt;transactionInitiatorType:transactionInitiatorTypeId</title>
<path fill="none" stroke="black" d="M866.22,-408.47C946.21,-399.08 896.12,-277.31 854.81,-196.45 803.88,-96.75 757.76,-82.85 651.42,-47.85 565.96,-19.73 449.01,43.11 449.01,-46.85"/>
<polygon fill="black" stroke="black" points="866.13,-408.48 855.89,-404.54 860.8,-408.77 856.48,-409.01 856.48,-409.01 856.48,-409.01 860.8,-408.77 856.39,-413.52 866.13,-408.48"/>
<text text-anchor="start" x="862.81" y="-419.05" font-family="Arial" font-size="10.00">FOREIGN KEY (transactionInitiatorTypeId) REFERENCES transactionInitiatorType (transactionInitiatorTypeId)</text>
</g>
</g>
</svg>
