<?xml version="1.0" encoding="UTF-8" standalone="no"?>
<!DOCTYPE svg PUBLIC "-//W3C//DTD SVG 1.1//EN"
 "http://www.w3.org/Graphics/SVG/1.1/DTD/svg11.dtd">
<!-- Generated by graphviz version 12.1.2 (20240928.0832)
 -->
<!-- Title: transferFulfilmentDuplicateCheck Pages: 1 -->
<svg width="790pt" height="914pt"
 viewBox="0.00 0.00 789.52 914.00" xmlns="http://www.w3.org/2000/svg" xmlns:xlink="http://www.w3.org/1999/xlink">
<g id="graph0" class="graph" transform="scale(1 1) rotate(0) translate(4 910)">
<title>transferFulfilmentDuplicateCheck</title>
<polygon fill="white" stroke="none" points="-4,4 -4,-910 785.52,-910 785.52,4 -4,4"/>
<!-- transferFulfilmentDuplicateCheck -->
<g id="node1" class="node">
<title>transferFulfilmentDuplicateCheck</title>
<polygon fill="#efefef" stroke="none" points="46.2,-481.4 46.2,-517 431.61,-517 431.61,-481.4 46.2,-481.4"/>
<polygon fill="none" stroke="black" points="46.2,-481.4 46.2,-517 431.61,-517 431.61,-481.4 46.2,-481.4"/>
<text text-anchor="start" x="53.2" y="-494.8" font-family="Arial Bold" font-size="18.00">transferFulfilmentDuplicateCheck</text>
<text text-anchor="start" x="300.12" y="-494.8" font-family="Arial" font-size="14.00">    </text>
<text text-anchor="start" x="331.24" y="-494.8" font-family="Arial" font-size="14.00" fill="#666666">[BASE TABLE]</text>
<polygon fill="none" stroke="black" points="46.2,-450.6 46.2,-481.4 431.61,-481.4 431.61,-450.6 46.2,-450.6"/>
<text text-anchor="start" x="53.2" y="-462.8" font-family="Arial" font-size="14.00">transferId </text>
<text text-anchor="start" x="116.23" y="-462.8" font-family="Arial" font-size="14.00" fill="#666666">[varchar(36)]</text>
<polygon fill="none" stroke="black" points="46.2,-419.8 46.2,-450.6 431.61,-450.6 431.61,-419.8 46.2,-419.8"/>
<text text-anchor="start" x="53.2" y="-432" font-family="Arial" font-size="14.00">hash </text>
<text text-anchor="start" x="87.45" y="-432" font-family="Arial" font-size="14.00" fill="#666666">[varchar(256)]</text>
<polygon fill="none" stroke="black" points="46.2,-389 46.2,-419.8 431.61,-419.8 431.61,-389 46.2,-389"/>
<text text-anchor="start" x="53.2" y="-401.2" font-family="Arial" font-size="14.00">createdDate </text>
<text text-anchor="start" x="133.36" y="-401.2" font-family="Arial" font-size="14.00" fill="#666666">[datetime]</text>
<polygon fill="none" stroke="black" stroke-width="3" points="44.7,-387.5 44.7,-518.5 433.11,-518.5 433.11,-387.5 44.7,-387.5"/>
</g>
<!-- transfer -->
<g id="node2" class="node">
<title>transfer</title>
<polygon fill="#efefef" stroke="none" points="142.18,-228 142.18,-263.6 335.63,-263.6 335.63,-228 142.18,-228"/>
<polygon fill="none" stroke="black" points="142.18,-228 142.18,-263.6 335.63,-263.6 335.63,-228 142.18,-228"/>
<text text-anchor="start" x="149.18" y="-241.4" font-family="Arial Bold" font-size="18.00">transfer</text>
<text text-anchor="start" x="204.14" y="-241.4" font-family="Arial" font-size="14.00">    </text>
<text text-anchor="start" x="235.26" y="-241.4" font-family="Arial" font-size="14.00" fill="#666666">[BASE TABLE]</text>
<polygon fill="none" stroke="black" points="142.18,-197.2 142.18,-228 335.63,-228 335.63,-197.2 142.18,-197.2"/>
<text text-anchor="start" x="149.18" y="-209.4" font-family="Arial" font-size="14.00">transferId </text>
<text text-anchor="start" x="212.2" y="-209.4" font-family="Arial" font-size="14.00" fill="#666666">[varchar(36)]</text>
<polygon fill="none" stroke="black" points="142.18,-166.4 142.18,-197.2 335.63,-197.2 335.63,-166.4 142.18,-166.4"/>
<text text-anchor="start" x="149.18" y="-178.6" font-family="Arial" font-size="14.00">amount </text>
<text text-anchor="start" x="199.76" y="-178.6" font-family="Arial" font-size="14.00" fill="#666666">[decimal(18,4)]</text>
<polygon fill="none" stroke="black" points="142.18,-135.6 142.18,-166.4 335.63,-166.4 335.63,-135.6 142.18,-135.6"/>
<text text-anchor="start" x="149.18" y="-147.8" font-family="Arial" font-size="14.00">currencyId </text>
<text text-anchor="start" x="218.42" y="-147.8" font-family="Arial" font-size="14.00" fill="#666666">[varchar(3)]</text>
<polygon fill="none" stroke="black" points="142.18,-104.8 142.18,-135.6 335.63,-135.6 335.63,-104.8 142.18,-104.8"/>
<text text-anchor="start" x="149.18" y="-117" font-family="Arial" font-size="14.00">ilpCondition </text>
<text text-anchor="start" x="226.22" y="-117" font-family="Arial" font-size="14.00" fill="#666666">[varchar(256)]</text>
<polygon fill="none" stroke="black" points="142.18,-74 142.18,-104.8 335.63,-104.8 335.63,-74 142.18,-74"/>
<text text-anchor="start" x="149.18" y="-86.2" font-family="Arial" font-size="14.00">expirationDate </text>
<text text-anchor="start" x="243.34" y="-86.2" font-family="Arial" font-size="14.00" fill="#666666">[datetime]</text>
<polygon fill="none" stroke="black" points="142.18,-43.2 142.18,-74 335.63,-74 335.63,-43.2 142.18,-43.2"/>
<text text-anchor="start" x="149.18" y="-55.4" font-family="Arial" font-size="14.00">createdDate </text>
<text text-anchor="start" x="229.33" y="-55.4" font-family="Arial" font-size="14.00" fill="#666666">[datetime]</text>
</g>
<!-- transferFulfilmentDuplicateCheck&#45;&gt;transfer -->
<g id="edge1" class="edge">
<title>transferFulfilmentDuplicateCheck:transferId&#45;&gt;transfer:transferId</title>
<path fill="none" stroke="black" d="M442.96,-465.32C547.21,-450.89 453.42,-212.6 336.63,-212.6"/>
<polygon fill="black" stroke="black" points="442.92,-465.32 432.65,-461.49 437.6,-465.67 433.28,-465.96 433.28,-465.96 433.28,-465.96 437.6,-465.67 433.24,-470.47 442.92,-465.32"/>
<text text-anchor="start" x="439.61" y="-476" font-family="Arial" font-size="10.00">FOREIGN KEY (transferId) REFERENCES transfer (transferId)</text>
</g>
<!-- transferFulfilment -->
<g id="node3" class="node">
<title>transferFulfilment</title>
<polygon fill="#efefef" stroke="none" points="104.18,-827.2 104.18,-862.8 373.63,-862.8 373.63,-827.2 104.18,-827.2"/>
<polygon fill="none" stroke="black" points="104.18,-827.2 104.18,-862.8 373.63,-862.8 373.63,-827.2 104.18,-827.2"/>
<text text-anchor="start" x="111.18" y="-840.6" font-family="Arial Bold" font-size="18.00">transferFulfilment</text>
<text text-anchor="start" x="242.14" y="-840.6" font-family="Arial" font-size="14.00">    </text>
<text text-anchor="start" x="273.26" y="-840.6" font-family="Arial" font-size="14.00" fill="#666666">[BASE TABLE]</text>
<polygon fill="none" stroke="black" points="104.18,-796.4 104.18,-827.2 373.63,-827.2 373.63,-796.4 104.18,-796.4"/>
<text text-anchor="start" x="111.18" y="-808.6" font-family="Arial" font-size="14.00">transferId </text>
<text text-anchor="start" x="174.2" y="-808.6" font-family="Arial" font-size="14.00" fill="#666666">[varchar(36)]</text>
<polygon fill="none" stroke="black" points="104.18,-765.6 104.18,-796.4 373.63,-796.4 373.63,-765.6 104.18,-765.6"/>
<text text-anchor="start" x="111.18" y="-777.8" font-family="Arial" font-size="14.00">ilpFulfilment </text>
<text text-anchor="start" x="189.76" y="-777.8" font-family="Arial" font-size="14.00" fill="#666666">[varchar(256)]</text>
<polygon fill="none" stroke="black" points="104.18,-734.8 104.18,-765.6 373.63,-765.6 373.63,-734.8 104.18,-734.8"/>
<text text-anchor="start" x="111.18" y="-747" font-family="Arial" font-size="14.00">completedDate </text>
<text text-anchor="start" x="209.23" y="-747" font-family="Arial" font-size="14.00" fill="#666666">[datetime]</text>
<polygon fill="none" stroke="black" points="104.18,-704 104.18,-734.8 373.63,-734.8 373.63,-704 104.18,-704"/>
<text text-anchor="start" x="111.18" y="-716.2" font-family="Arial" font-size="14.00">isValid </text>
<text text-anchor="start" x="156.31" y="-716.2" font-family="Arial" font-size="14.00" fill="#666666">[tinyint(1)]</text>
<polygon fill="none" stroke="black" points="104.18,-673.2 104.18,-704 373.63,-704 373.63,-673.2 104.18,-673.2"/>
<text text-anchor="start" x="111.18" y="-685.4" font-family="Arial" font-size="14.00">settlementWindowId </text>
<text text-anchor="start" x="241.12" y="-685.4" font-family="Arial" font-size="14.00" fill="#666666">[bigint unsigned]</text>
<polygon fill="none" stroke="black" points="104.18,-642.4 104.18,-673.2 373.63,-673.2 373.63,-642.4 104.18,-642.4"/>
<text text-anchor="start" x="111.18" y="-654.6" font-family="Arial" font-size="14.00">createdDate </text>
<text text-anchor="start" x="191.34" y="-654.6" font-family="Arial" font-size="14.00" fill="#666666">[datetime]</text>
</g>
<!-- transferFulfilment&#45;&gt;transferFulfilmentDuplicateCheck -->
<g id="edge2" class="edge">
<title>transferFulfilment:transferId&#45;&gt;transferFulfilmentDuplicateCheck:transferId</title>
<path fill="none" stroke="black" d="M384.56,-809.94C457.28,-782.72 507.18,-466 432.61,-466"/>
<polygon fill="black" stroke="black" points="384.79,-809.9 374.13,-807.32 379.55,-810.88 375.29,-811.68 375.29,-811.68 375.29,-811.68 379.55,-810.88 375.79,-816.16 384.79,-809.9"/>
<text text-anchor="start" x="381.63" y="-821.8" font-family="Arial" font-size="10.00">FOREIGN KEY (transferId) REFERENCES transferFulfilmentDuplicateCheck (transferId)</text>
</g>
</g>
</svg>
