<?xml version="1.0" encoding="UTF-8" standalone="no"?>
<!DOCTYPE svg PUBLIC "-//W3C//DTD SVG 1.1//EN"
 "http://www.w3.org/Graphics/SVG/1.1/DTD/svg11.dtd">
<!-- Generated by graphviz version 12.1.2 (20240928.0832)
 -->
<!-- Title: transferDuplicateCheck Pages: 1 -->
<svg width="670pt" height="399pt"
 viewBox="0.00 0.00 670.17 398.80" xmlns="http://www.w3.org/2000/svg" xmlns:xlink="http://www.w3.org/1999/xlink">
<g id="graph0" class="graph" transform="scale(1 1) rotate(0) translate(4 394.8)">
<title>transferDuplicateCheck</title>
<polygon fill="white" stroke="none" points="-4,4 -4,-394.8 666.17,-394.8 666.17,4 -4,4"/>
<!-- transferDuplicateCheck -->
<g id="node1" class="node">
<title>transferDuplicateCheck</title>
<polygon fill="#efefef" stroke="none" points="46.2,-89.4 46.2,-125 355.61,-125 355.61,-89.4 46.2,-89.4"/>
<polygon fill="none" stroke="black" points="46.2,-89.4 46.2,-125 355.61,-125 355.61,-89.4 46.2,-89.4"/>
<text text-anchor="start" x="53.2" y="-102.8" font-family="Arial Bold" font-size="18.00">transferDuplicateCheck</text>
<text text-anchor="start" x="224.12" y="-102.8" font-family="Arial" font-size="14.00">    </text>
<text text-anchor="start" x="255.24" y="-102.8" font-family="Arial" font-size="14.00" fill="#666666">[BASE TABLE]</text>
<polygon fill="none" stroke="black" points="46.2,-58.6 46.2,-89.4 355.61,-89.4 355.61,-58.6 46.2,-58.6"/>
<text text-anchor="start" x="53.2" y="-70.8" font-family="Arial" font-size="14.00">transferId </text>
<text text-anchor="start" x="116.23" y="-70.8" font-family="Arial" font-size="14.00" fill="#666666">[varchar(36)]</text>
<polygon fill="none" stroke="black" stroke-width="3" points="44.7,-57.1 44.7,-126.5 357.11,-126.5 357.11,-57.1 44.7,-57.1"/>
</g>
<!-- transfer -->
<g id="node2" class="node">
<title>transfer</title>
<polygon fill="#efefef" stroke="none" points="104.18,-312 104.18,-347.6 297.63,-347.6 297.63,-312 104.18,-312"/>
<polygon fill="none" stroke="black" points="104.18,-312 104.18,-347.6 297.63,-347.6 297.63,-312 104.18,-312"/>
<text text-anchor="start" x="111.18" y="-325.4" font-family="Arial Bold" font-size="18.00">transfer</text>
<text text-anchor="start" x="166.14" y="-325.4" font-family="Arial" font-size="14.00">    </text>
<text text-anchor="start" x="197.26" y="-325.4" font-family="Arial" font-size="14.00" fill="#666666">[BASE TABLE]</text>
<polygon fill="none" stroke="black" points="104.18,-281.2 104.18,-312 297.63,-312 297.63,-281.2 104.18,-281.2"/>
<text text-anchor="start" x="111.18" y="-293.4" font-family="Arial" font-size="14.00">transferId </text>
<text text-anchor="start" x="174.2" y="-293.4" font-family="Arial" font-size="14.00" fill="#666666">[varchar(36)]</text>
<polygon fill="none" stroke="black" points="104.18,-250.4 104.18,-281.2 297.63,-281.2 297.63,-250.4 104.18,-250.4"/>
<text text-anchor="start" x="111.18" y="-262.6" font-family="Arial" font-size="14.00">currencyId </text>
<text text-anchor="start" x="180.43" y="-262.6" font-family="Arial" font-size="14.00" fill="#666666">[varchar(3)]</text>
</g>
<!-- transfer&#45;&gt;transferDuplicateCheck -->
<g id="edge1" class="edge">
<title>transfer:transferId&#45;&gt;transferDuplicateCheck:transferId</title>
<path fill="none" stroke="black" d="M308.75,-296.19C371.5,-290.96 378.64,-235.82 401.81,-171.2 410.25,-147.64 419.46,-76.33 401.81,-58.6 338.83,4.7 200.91,31.7 200.91,-57.6"/>
<polygon fill="black" stroke="black" points="308.96,-296.18 298.79,-292.09 303.63,-296.4 299.3,-296.57 299.3,-296.57 299.3,-296.57 303.63,-296.4 299.15,-301.08 308.96,-296.18"/>
<text text-anchor="start" x="305.63" y="-306.6" font-family="Arial" font-size="10.00">FOREIGN KEY (transferId) REFERENCES transferDuplicateCheck (transferId)</text>
</g>
</g>
</svg>
