<?xml version="1.0" encoding="UTF-8" standalone="no"?>
<!DOCTYPE svg PUBLIC "-//W3C//DTD SVG 1.1//EN"
 "http://www.w3.org/Graphics/SVG/1.1/DTD/svg11.dtd">
<!-- Generated by graphviz version 12.1.2 (20240928.0832)
 -->
<!-- Title: transfer Pages: 1 -->
<svg width="3114pt" height="1068pt"
 viewBox="0.00 0.00 3114.34 1068.00" xmlns="http://www.w3.org/2000/svg" xmlns:xlink="http://www.w3.org/1999/xlink">
<g id="graph0" class="graph" transform="scale(1 1) rotate(0) translate(4 1064)">
<title>transfer</title>
<polygon fill="white" stroke="none" points="-4,4 -4,-1064 3110.34,-1064 3110.34,4 -4,4"/>
<!-- transfer -->
<g id="node1" class="node">
<title>transfer</title>
<polygon fill="#efefef" stroke="none" points="1420.19,-543 1420.19,-578.6 1613.65,-578.6 1613.65,-543 1420.19,-543"/>
<polygon fill="none" stroke="black" points="1420.19,-543 1420.19,-578.6 1613.65,-578.6 1613.65,-543 1420.19,-543"/>
<text text-anchor="start" x="1427.19" y="-556.4" font-family="Arial Bold" font-size="18.00">transfer</text>
<text text-anchor="start" x="1482.16" y="-556.4" font-family="Arial" font-size="14.00">    </text>
<text text-anchor="start" x="1513.27" y="-556.4" font-family="Arial" font-size="14.00" fill="#666666">[BASE TABLE]</text>
<polygon fill="none" stroke="black" points="1420.19,-512.2 1420.19,-543 1613.65,-543 1613.65,-512.2 1420.19,-512.2"/>
<text text-anchor="start" x="1427.19" y="-524.4" font-family="Arial" font-size="14.00">transferId </text>
<text text-anchor="start" x="1490.22" y="-524.4" font-family="Arial" font-size="14.00" fill="#666666">[varchar(36)]</text>
<polygon fill="none" stroke="black" points="1420.19,-481.4 1420.19,-512.2 1613.65,-512.2 1613.65,-481.4 1420.19,-481.4"/>
<text text-anchor="start" x="1427.19" y="-493.6" font-family="Arial" font-size="14.00">amount </text>
<text text-anchor="start" x="1477.78" y="-493.6" font-family="Arial" font-size="14.00" fill="#666666">[decimal(18,4)]</text>
<polygon fill="none" stroke="black" points="1420.19,-450.6 1420.19,-481.4 1613.65,-481.4 1613.65,-450.6 1420.19,-450.6"/>
<text text-anchor="start" x="1427.19" y="-462.8" font-family="Arial" font-size="14.00">currencyId </text>
<text text-anchor="start" x="1496.44" y="-462.8" font-family="Arial" font-size="14.00" fill="#666666">[varchar(3)]</text>
<polygon fill="none" stroke="black" points="1420.19,-419.8 1420.19,-450.6 1613.65,-450.6 1613.65,-419.8 1420.19,-419.8"/>
<text text-anchor="start" x="1427.19" y="-432" font-family="Arial" font-size="14.00">ilpCondition </text>
<text text-anchor="start" x="1504.24" y="-432" font-family="Arial" font-size="14.00" fill="#666666">[varchar(256)]</text>
<polygon fill="none" stroke="black" points="1420.19,-389 1420.19,-419.8 1613.65,-419.8 1613.65,-389 1420.19,-389"/>
<text text-anchor="start" x="1427.19" y="-401.2" font-family="Arial" font-size="14.00">expirationDate </text>
<text text-anchor="start" x="1521.35" y="-401.2" font-family="Arial" font-size="14.00" fill="#666666">[datetime]</text>
<polygon fill="none" stroke="black" points="1420.19,-358.2 1420.19,-389 1613.65,-389 1613.65,-358.2 1420.19,-358.2"/>
<text text-anchor="start" x="1427.19" y="-370.4" font-family="Arial" font-size="14.00">createdDate </text>
<text text-anchor="start" x="1507.35" y="-370.4" font-family="Arial" font-size="14.00" fill="#666666">[datetime]</text>
<polygon fill="none" stroke="black" stroke-width="3" points="1418.69,-356.7 1418.69,-580.1 1615.15,-580.1 1615.15,-356.7 1418.69,-356.7"/>
</g>
<!-- transferDuplicateCheck -->
<g id="node2" class="node">
<title>transferDuplicateCheck</title>
<polygon fill="#efefef" stroke="none" points="1182.21,-166.4 1182.21,-202 1491.62,-202 1491.62,-166.4 1182.21,-166.4"/>
<polygon fill="none" stroke="black" points="1182.21,-166.4 1182.21,-202 1491.62,-202 1491.62,-166.4 1182.21,-166.4"/>
<text text-anchor="start" x="1189.21" y="-179.8" font-family="Arial Bold" font-size="18.00">transferDuplicateCheck</text>
<text text-anchor="start" x="1360.13" y="-179.8" font-family="Arial" font-size="14.00">    </text>
<text text-anchor="start" x="1391.25" y="-179.8" font-family="Arial" font-size="14.00" fill="#666666">[BASE TABLE]</text>
<polygon fill="none" stroke="black" points="1182.21,-135.6 1182.21,-166.4 1491.62,-166.4 1491.62,-135.6 1182.21,-135.6"/>
<text text-anchor="start" x="1189.21" y="-147.8" font-family="Arial" font-size="14.00">transferId </text>
<text text-anchor="start" x="1252.24" y="-147.8" font-family="Arial" font-size="14.00" fill="#666666">[varchar(36)]</text>
<polygon fill="none" stroke="black" points="1182.21,-104.8 1182.21,-135.6 1491.62,-135.6 1491.62,-104.8 1182.21,-104.8"/>
<text text-anchor="start" x="1189.21" y="-117" font-family="Arial" font-size="14.00">hash </text>
<text text-anchor="start" x="1223.46" y="-117" font-family="Arial" font-size="14.00" fill="#666666">[varchar(256)]</text>
<polygon fill="none" stroke="black" points="1182.21,-74 1182.21,-104.8 1491.62,-104.8 1491.62,-74 1182.21,-74"/>
<text text-anchor="start" x="1189.21" y="-86.2" font-family="Arial" font-size="14.00">createdDate </text>
<text text-anchor="start" x="1269.37" y="-86.2" font-family="Arial" font-size="14.00" fill="#666666">[datetime]</text>
</g>
<!-- transfer&#45;&gt;transferDuplicateCheck -->
<g id="edge1" class="edge">
<title>transfer:transferId&#45;&gt;transferDuplicateCheck:transferId</title>
<path fill="none" stroke="black" d="M1409.15,-527.08C1327.68,-518.17 1383.26,-396.56 1420.19,-312 1437.59,-272.17 1474.11,-284.98 1491.62,-245.2 1508.49,-206.88 1534.49,-151 1492.62,-151"/>
<polygon fill="black" stroke="black" points="1408.87,-527.07 1418.62,-532.08 1414.2,-527.34 1418.52,-527.57 1418.52,-527.57 1418.52,-527.57 1414.2,-527.34 1419.09,-523.09 1408.87,-527.07"/>
<text text-anchor="start" x="1062.65" y="-537.6" font-family="Arial" font-size="10.00">FOREIGN KEY (transferId) REFERENCES transferDuplicateCheck (transferId)</text>
</g>
<!-- currency -->
<g id="node11" class="node">
<title>currency</title>
<polygon fill="#efefef" stroke="none" points="1596.2,-197.2 1596.2,-232.8 1797.64,-232.8 1797.64,-197.2 1596.2,-197.2"/>
<polygon fill="none" stroke="black" points="1596.2,-197.2 1596.2,-232.8 1797.64,-232.8 1797.64,-197.2 1596.2,-197.2"/>
<text text-anchor="start" x="1603.2" y="-210.6" font-family="Arial Bold" font-size="18.00">currency</text>
<text text-anchor="start" x="1666.15" y="-210.6" font-family="Arial" font-size="14.00">    </text>
<text text-anchor="start" x="1697.27" y="-210.6" font-family="Arial" font-size="14.00" fill="#666666">[BASE TABLE]</text>
<polygon fill="none" stroke="black" points="1596.2,-166.4 1596.2,-197.2 1797.64,-197.2 1797.64,-166.4 1596.2,-166.4"/>
<text text-anchor="start" x="1603.2" y="-178.6" font-family="Arial" font-size="14.00">currencyId </text>
<text text-anchor="start" x="1672.44" y="-178.6" font-family="Arial" font-size="14.00" fill="#666666">[varchar(3)]</text>
<polygon fill="none" stroke="black" points="1596.2,-135.6 1596.2,-166.4 1797.64,-166.4 1797.64,-135.6 1596.2,-135.6"/>
<text text-anchor="start" x="1603.2" y="-147.8" font-family="Arial" font-size="14.00">name </text>
<text text-anchor="start" x="1642.11" y="-147.8" font-family="Arial" font-size="14.00" fill="#666666">[varchar(128)]</text>
<polygon fill="none" stroke="black" points="1596.2,-104.8 1596.2,-135.6 1797.64,-135.6 1797.64,-104.8 1596.2,-104.8"/>
<text text-anchor="start" x="1603.2" y="-117" font-family="Arial" font-size="14.00">isActive </text>
<text text-anchor="start" x="1655.32" y="-117" font-family="Arial" font-size="14.00" fill="#666666">[tinyint(1)]</text>
<polygon fill="none" stroke="black" points="1596.2,-74 1596.2,-104.8 1797.64,-104.8 1797.64,-74 1596.2,-74"/>
<text text-anchor="start" x="1603.2" y="-86.2" font-family="Arial" font-size="14.00">createdDate </text>
<text text-anchor="start" x="1683.35" y="-86.2" font-family="Arial" font-size="14.00" fill="#666666">[datetime]</text>
<polygon fill="none" stroke="black" points="1596.2,-43.2 1596.2,-74 1797.64,-74 1797.64,-43.2 1596.2,-43.2"/>
<text text-anchor="start" x="1603.2" y="-55.4" font-family="Arial" font-size="14.00">scale </text>
<text text-anchor="start" x="1639.77" y="-55.4" font-family="Arial" font-size="14.00" fill="#666666">[int unsigned]</text>
</g>
<!-- transfer&#45;&gt;currency -->
<g id="edge10" class="edge">
<title>transfer:currencyId&#45;&gt;currency:currencyId</title>
<path fill="none" stroke="black" d="M1624.8,-465.23C1677.31,-456.51 1628.33,-375.01 1613.65,-312 1609.61,-294.68 1600.27,-293.31 1596.2,-276 1586.61,-235.24 1553.33,-181.8 1595.2,-181.8"/>
<polygon fill="black" stroke="black" points="1624.95,-465.22 1614.64,-461.49 1619.63,-465.62 1615.31,-465.95 1615.31,-465.95 1615.31,-465.95 1619.63,-465.62 1615.32,-470.46 1624.95,-465.22"/>
<text text-anchor="start" x="1621.65" y="-476" font-family="Arial" font-size="10.00">FOREIGN KEY (currencyId) REFERENCES currency (currencyId)</text>
</g>
<!-- expiringTransfer -->
<g id="node3" class="node">
<title>expiringTransfer</title>
<polygon fill="#efefef" stroke="none" points="43.2,-904.2 43.2,-939.8 302.64,-939.8 302.64,-904.2 43.2,-904.2"/>
<polygon fill="none" stroke="black" points="43.2,-904.2 43.2,-939.8 302.64,-939.8 302.64,-904.2 43.2,-904.2"/>
<text text-anchor="start" x="50.2" y="-917.6" font-family="Arial Bold" font-size="18.00">expiringTransfer</text>
<text text-anchor="start" x="171.15" y="-917.6" font-family="Arial" font-size="14.00">    </text>
<text text-anchor="start" x="202.26" y="-917.6" font-family="Arial" font-size="14.00" fill="#666666">[BASE TABLE]</text>
<polygon fill="none" stroke="black" points="43.2,-873.4 43.2,-904.2 302.64,-904.2 302.64,-873.4 43.2,-873.4"/>
<text text-anchor="start" x="50.2" y="-885.6" font-family="Arial" font-size="14.00">expiringTransferId </text>
<text text-anchor="start" x="166.92" y="-885.6" font-family="Arial" font-size="14.00" fill="#666666">[bigint unsigned]</text>
<polygon fill="none" stroke="black" points="43.2,-842.6 43.2,-873.4 302.64,-873.4 302.64,-842.6 43.2,-842.6"/>
<text text-anchor="start" x="50.2" y="-854.8" font-family="Arial" font-size="14.00">transferId </text>
<text text-anchor="start" x="113.23" y="-854.8" font-family="Arial" font-size="14.00" fill="#666666">[varchar(36)]</text>
<polygon fill="none" stroke="black" points="43.2,-811.8 43.2,-842.6 302.64,-842.6 302.64,-811.8 43.2,-811.8"/>
<text text-anchor="start" x="50.2" y="-824" font-family="Arial" font-size="14.00">expirationDate </text>
<text text-anchor="start" x="144.37" y="-824" font-family="Arial" font-size="14.00" fill="#666666">[datetime]</text>
<polygon fill="none" stroke="black" points="43.2,-781 43.2,-811.8 302.64,-811.8 302.64,-781 43.2,-781"/>
<text text-anchor="start" x="50.2" y="-793.2" font-family="Arial" font-size="14.00">createdDate </text>
<text text-anchor="start" x="130.36" y="-793.2" font-family="Arial" font-size="14.00" fill="#666666">[datetime]</text>
</g>
<!-- expiringTransfer&#45;&gt;transfer -->
<g id="edge2" class="edge">
<title>expiringTransfer:transferId&#45;&gt;transfer:transferId</title>
<path fill="none" stroke="black" d="M313.81,-857.32C385.69,-846.86 289.65,-718.09 354.92,-660.8 444.48,-582.18 1300.01,-527.6 1419.19,-527.6"/>
<polygon fill="black" stroke="black" points="313.95,-857.31 303.67,-853.49 308.62,-857.67 304.3,-857.96 304.3,-857.96 304.3,-857.96 308.62,-857.67 304.27,-862.47 313.95,-857.31"/>
<text text-anchor="start" x="163.88" y="-842" font-family="Arial" font-size="10.00">FOREIGN KEY (transferId) REFERENCES transfer (transferId)</text>
</g>
<!-- ilpPacket -->
<g id="node4" class="node">
<title>ilpPacket</title>
<polygon fill="#efefef" stroke="none" points="407.18,-888.8 407.18,-924.4 612.65,-924.4 612.65,-888.8 407.18,-888.8"/>
<polygon fill="none" stroke="black" points="407.18,-888.8 407.18,-924.4 612.65,-924.4 612.65,-888.8 407.18,-888.8"/>
<text text-anchor="start" x="414.18" y="-902.2" font-family="Arial Bold" font-size="18.00">ilpPacket</text>
<text text-anchor="start" x="481.16" y="-902.2" font-family="Arial" font-size="14.00">    </text>
<text text-anchor="start" x="512.28" y="-902.2" font-family="Arial" font-size="14.00" fill="#666666">[BASE TABLE]</text>
<polygon fill="none" stroke="black" points="407.18,-858 407.18,-888.8 612.65,-888.8 612.65,-858 407.18,-858"/>
<text text-anchor="start" x="414.18" y="-870.2" font-family="Arial" font-size="14.00">transferId </text>
<text text-anchor="start" x="477.21" y="-870.2" font-family="Arial" font-size="14.00" fill="#666666">[varchar(36)]</text>
<polygon fill="none" stroke="black" points="407.18,-827.2 407.18,-858 612.65,-858 612.65,-827.2 407.18,-827.2"/>
<text text-anchor="start" x="414.18" y="-839.4" font-family="Arial" font-size="14.00">value </text>
<text text-anchor="start" x="451.54" y="-839.4" font-family="Arial" font-size="14.00" fill="#666666">[text]</text>
<polygon fill="none" stroke="black" points="407.18,-796.4 407.18,-827.2 612.65,-827.2 612.65,-796.4 407.18,-796.4"/>
<text text-anchor="start" x="414.18" y="-808.6" font-family="Arial" font-size="14.00">createdDate </text>
<text text-anchor="start" x="494.34" y="-808.6" font-family="Arial" font-size="14.00" fill="#666666">[datetime]</text>
</g>
<!-- ilpPacket&#45;&gt;transfer -->
<g id="edge3" class="edge">
<title>ilpPacket:transferId&#45;&gt;transfer:transferId</title>
<path fill="none" stroke="black" d="M623.61,-872.81C702.44,-862.67 596.73,-724.9 664.92,-660.8 788.94,-544.22 1248.98,-527.6 1419.19,-527.6"/>
<polygon fill="black" stroke="black" points="623.97,-872.79 613.72,-868.89 618.64,-873.1 614.32,-873.36 614.32,-873.36 614.32,-873.36 618.64,-873.1 614.25,-877.87 623.97,-872.79"/>
<text text-anchor="start" x="620.65" y="-883.4" font-family="Arial" font-size="10.00">FOREIGN KEY (transferId) REFERENCES transfer (transferId)</text>
</g>
<!-- transferErrorDuplicateCheck -->
<g id="node5" class="node">
<title>transferErrorDuplicateCheck</title>
<polygon fill="#efefef" stroke="none" points="717.22,-888.8 717.22,-924.4 1064.61,-924.4 1064.61,-888.8 717.22,-888.8"/>
<polygon fill="none" stroke="black" points="717.22,-888.8 717.22,-924.4 1064.61,-924.4 1064.61,-888.8 717.22,-888.8"/>
<text text-anchor="start" x="724.22" y="-902.2" font-family="Arial Bold" font-size="18.00">transferErrorDuplicateCheck</text>
<text text-anchor="start" x="933.12" y="-902.2" font-family="Arial" font-size="14.00">    </text>
<text text-anchor="start" x="964.24" y="-902.2" font-family="Arial" font-size="14.00" fill="#666666">[BASE TABLE]</text>
<polygon fill="none" stroke="black" points="717.22,-858 717.22,-888.8 1064.61,-888.8 1064.61,-858 717.22,-858"/>
<text text-anchor="start" x="724.22" y="-870.2" font-family="Arial" font-size="14.00">transferId </text>
<text text-anchor="start" x="787.25" y="-870.2" font-family="Arial" font-size="14.00" fill="#666666">[varchar(36)]</text>
<polygon fill="none" stroke="black" points="717.22,-827.2 717.22,-858 1064.61,-858 1064.61,-827.2 717.22,-827.2"/>
<text text-anchor="start" x="724.22" y="-839.4" font-family="Arial" font-size="14.00">hash </text>
<text text-anchor="start" x="758.47" y="-839.4" font-family="Arial" font-size="14.00" fill="#666666">[varchar(256)]</text>
<polygon fill="none" stroke="black" points="717.22,-796.4 717.22,-827.2 1064.61,-827.2 1064.61,-796.4 717.22,-796.4"/>
<text text-anchor="start" x="724.22" y="-808.6" font-family="Arial" font-size="14.00">createdDate </text>
<text text-anchor="start" x="804.38" y="-808.6" font-family="Arial" font-size="14.00" fill="#666666">[datetime]</text>
</g>
<!-- transferErrorDuplicateCheck&#45;&gt;transfer -->
<g id="edge4" class="edge">
<title>transferErrorDuplicateCheck:transferId&#45;&gt;transfer:transferId</title>
<path fill="none" stroke="black" d="M1075.6,-872.84C1155.01,-863.24 1056.89,-732.61 1116.92,-660.8 1211.07,-548.16 1272.38,-527.6 1419.19,-527.6"/>
<polygon fill="black" stroke="black" points="1075.93,-872.82 1065.69,-868.89 1070.6,-873.12 1066.28,-873.36 1066.28,-873.36 1066.28,-873.36 1070.6,-873.12 1066.2,-877.87 1075.93,-872.82"/>
<text text-anchor="start" x="1072.61" y="-883.4" font-family="Arial" font-size="10.00">FOREIGN KEY (transferId) REFERENCES transfer (transferId)</text>
</g>
<!-- transferExtension -->
<g id="node6" class="node">
<title>transferExtension</title>
<polygon fill="#efefef" stroke="none" points="1169.19,-950.4 1169.19,-986 1434.64,-986 1434.64,-950.4 1169.19,-950.4"/>
<polygon fill="none" stroke="black" points="1169.19,-950.4 1169.19,-986 1434.64,-986 1434.64,-950.4 1169.19,-950.4"/>
<text text-anchor="start" x="1176.19" y="-963.8" font-family="Arial Bold" font-size="18.00">transferExtension</text>
<text text-anchor="start" x="1303.15" y="-963.8" font-family="Arial" font-size="14.00">    </text>
<text text-anchor="start" x="1334.27" y="-963.8" font-family="Arial" font-size="14.00" fill="#666666">[BASE TABLE]</text>
<polygon fill="none" stroke="black" points="1169.19,-919.6 1169.19,-950.4 1434.64,-950.4 1434.64,-919.6 1169.19,-919.6"/>
<text text-anchor="start" x="1176.19" y="-931.8" font-family="Arial" font-size="14.00">transferExtensionId </text>
<text text-anchor="start" x="1300.7" y="-931.8" font-family="Arial" font-size="14.00" fill="#666666">[bigint unsigned]</text>
<polygon fill="none" stroke="black" points="1169.19,-888.8 1169.19,-919.6 1434.64,-919.6 1434.64,-888.8 1169.19,-888.8"/>
<text text-anchor="start" x="1176.19" y="-901" font-family="Arial" font-size="14.00">transferId </text>
<text text-anchor="start" x="1239.22" y="-901" font-family="Arial" font-size="14.00" fill="#666666">[varchar(36)]</text>
<polygon fill="none" stroke="black" points="1169.19,-858 1169.19,-888.8 1434.64,-888.8 1434.64,-858 1169.19,-858"/>
<text text-anchor="start" x="1176.19" y="-870.2" font-family="Arial" font-size="14.00">key </text>
<text text-anchor="start" x="1201.87" y="-870.2" font-family="Arial" font-size="14.00" fill="#666666">[varchar(128)]</text>
<polygon fill="none" stroke="black" points="1169.19,-827.2 1169.19,-858 1434.64,-858 1434.64,-827.2 1169.19,-827.2"/>
<text text-anchor="start" x="1176.19" y="-839.4" font-family="Arial" font-size="14.00">value </text>
<text text-anchor="start" x="1213.55" y="-839.4" font-family="Arial" font-size="14.00" fill="#666666">[text]</text>
<polygon fill="none" stroke="black" points="1169.19,-796.4 1169.19,-827.2 1434.64,-827.2 1434.64,-796.4 1169.19,-796.4"/>
<text text-anchor="start" x="1176.19" y="-808.6" font-family="Arial" font-size="14.00">isFulfilment </text>
<text text-anchor="start" x="1250.88" y="-808.6" font-family="Arial" font-size="14.00" fill="#666666">[tinyint(1)]</text>
<polygon fill="none" stroke="black" points="1169.19,-765.6 1169.19,-796.4 1434.64,-796.4 1434.64,-765.6 1169.19,-765.6"/>
<text text-anchor="start" x="1176.19" y="-777.8" font-family="Arial" font-size="14.00">isError </text>
<text text-anchor="start" x="1221.3" y="-777.8" font-family="Arial" font-size="14.00" fill="#666666">[tinyint(1)]</text>
<polygon fill="none" stroke="black" points="1169.19,-734.8 1169.19,-765.6 1434.64,-765.6 1434.64,-734.8 1169.19,-734.8"/>
<text text-anchor="start" x="1176.19" y="-747" font-family="Arial" font-size="14.00">createdDate </text>
<text text-anchor="start" x="1256.35" y="-747" font-family="Arial" font-size="14.00" fill="#666666">[datetime]</text>
</g>
<!-- transferExtension&#45;&gt;transfer -->
<g id="edge5" class="edge">
<title>transferExtension:transferId&#45;&gt;transfer:transferId</title>
<path fill="none" stroke="black" d="M1445.91,-903.67C1523.59,-894.97 1444.51,-781.86 1434.64,-691.6 1431.34,-661.4 1423.57,-654.99 1420.19,-624.8 1415.38,-581.87 1375.99,-527.6 1419.19,-527.6"/>
<polygon fill="black" stroke="black" points="1445.96,-903.66 1435.74,-899.69 1440.63,-903.94 1436.31,-904.17 1436.31,-904.17 1436.31,-904.17 1440.63,-903.94 1436.21,-908.68 1445.96,-903.66"/>
<text text-anchor="start" x="1442.64" y="-914.2" font-family="Arial" font-size="10.00">FOREIGN KEY (transferId) REFERENCES transfer (transferId)</text>
</g>
<!-- transferFulfilmentDuplicateCheck -->
<g id="node7" class="node">
<title>transferFulfilmentDuplicateCheck</title>
<polygon fill="#efefef" stroke="none" points="1539.21,-888.8 1539.21,-924.4 1924.62,-924.4 1924.62,-888.8 1539.21,-888.8"/>
<polygon fill="none" stroke="black" points="1539.21,-888.8 1539.21,-924.4 1924.62,-924.4 1924.62,-888.8 1539.21,-888.8"/>
<text text-anchor="start" x="1546.21" y="-902.2" font-family="Arial Bold" font-size="18.00">transferFulfilmentDuplicateCheck</text>
<text text-anchor="start" x="1793.13" y="-902.2" font-family="Arial" font-size="14.00">    </text>
<text text-anchor="start" x="1824.25" y="-902.2" font-family="Arial" font-size="14.00" fill="#666666">[BASE TABLE]</text>
<polygon fill="none" stroke="black" points="1539.21,-858 1539.21,-888.8 1924.62,-888.8 1924.62,-858 1539.21,-858"/>
<text text-anchor="start" x="1546.21" y="-870.2" font-family="Arial" font-size="14.00">transferId </text>
<text text-anchor="start" x="1609.24" y="-870.2" font-family="Arial" font-size="14.00" fill="#666666">[varchar(36)]</text>
<polygon fill="none" stroke="black" points="1539.21,-827.2 1539.21,-858 1924.62,-858 1924.62,-827.2 1539.21,-827.2"/>
<text text-anchor="start" x="1546.21" y="-839.4" font-family="Arial" font-size="14.00">hash </text>
<text text-anchor="start" x="1580.46" y="-839.4" font-family="Arial" font-size="14.00" fill="#666666">[varchar(256)]</text>
<polygon fill="none" stroke="black" points="1539.21,-796.4 1539.21,-827.2 1924.62,-827.2 1924.62,-796.4 1539.21,-796.4"/>
<text text-anchor="start" x="1546.21" y="-808.6" font-family="Arial" font-size="14.00">createdDate </text>
<text text-anchor="start" x="1626.37" y="-808.6" font-family="Arial" font-size="14.00" fill="#666666">[datetime]</text>
</g>
<!-- transferFulfilmentDuplicateCheck&#45;&gt;transfer -->
<g id="edge6" class="edge">
<title>transferFulfilmentDuplicateCheck:transferId&#45;&gt;transfer:transferId</title>
<path fill="none" stroke="black" d="M1527.79,-872.79C1435.54,-861.14 1597.22,-684.64 1613.65,-624.8 1625.08,-583.14 1657.85,-527.6 1614.65,-527.6"/>
<polygon fill="black" stroke="black" points="1527.9,-872.8 1537.62,-877.87 1533.22,-873.11 1537.55,-873.36 1537.55,-873.36 1537.55,-873.36 1533.22,-873.11 1538.14,-868.89 1527.9,-872.8"/>
<text text-anchor="start" x="1545.21" y="-883.4" font-family="Arial" font-size="10.00">FOREIGN KEY (transferId) REFERENCES transfer (transferId)</text>
</g>
<!-- transferParticipant -->
<g id="node8" class="node">
<title>transferParticipant</title>
<polygon fill="#efefef" stroke="none" points="2028.73,-981.2 2028.73,-1016.8 2315.1,-1016.8 2315.1,-981.2 2028.73,-981.2"/>
<polygon fill="none" stroke="black" points="2028.73,-981.2 2028.73,-1016.8 2315.1,-1016.8 2315.1,-981.2 2028.73,-981.2"/>
<text text-anchor="start" x="2043.2" y="-994.6" font-family="Arial Bold" font-size="18.00">transferParticipant</text>
<text text-anchor="start" x="2176.14" y="-994.6" font-family="Arial" font-size="14.00">    </text>
<text text-anchor="start" x="2207.26" y="-994.6" font-family="Arial" font-size="14.00" fill="#666666">[BASE TABLE]</text>
<polygon fill="none" stroke="black" points="2028.73,-950.4 2028.73,-981.2 2315.1,-981.2 2315.1,-950.4 2028.73,-950.4"/>
<text text-anchor="start" x="2035.73" y="-962.6" font-family="Arial" font-size="14.00">transferParticipantId </text>
<text text-anchor="start" x="2164.9" y="-962.6" font-family="Arial" font-size="14.00" fill="#666666">[bigint unsigned]</text>
<polygon fill="none" stroke="black" points="2028.73,-919.6 2028.73,-950.4 2315.1,-950.4 2315.1,-919.6 2028.73,-919.6"/>
<text text-anchor="start" x="2035.73" y="-931.8" font-family="Arial" font-size="14.00">transferId </text>
<text text-anchor="start" x="2098.76" y="-931.8" font-family="Arial" font-size="14.00" fill="#666666">[varchar(36)]</text>
<polygon fill="none" stroke="black" points="2028.73,-888.8 2028.73,-919.6 2315.1,-919.6 2315.1,-888.8 2028.73,-888.8"/>
<text text-anchor="start" x="2035.73" y="-901" font-family="Arial" font-size="14.00">participantCurrencyId </text>
<text text-anchor="start" x="2172.68" y="-901" font-family="Arial" font-size="14.00" fill="#666666">[int unsigned]</text>
<polygon fill="none" stroke="black" points="2028.73,-858 2028.73,-888.8 2315.1,-888.8 2315.1,-858 2028.73,-858"/>
<text text-anchor="start" x="2035.73" y="-870.2" font-family="Arial" font-size="14.00">transferParticipantRoleTypeId </text>
<text text-anchor="start" x="2224.82" y="-870.2" font-family="Arial" font-size="14.00" fill="#666666">[int unsigned]</text>
<polygon fill="none" stroke="black" points="2028.73,-827.2 2028.73,-858 2315.1,-858 2315.1,-827.2 2028.73,-827.2"/>
<text text-anchor="start" x="2035.73" y="-839.4" font-family="Arial" font-size="14.00">ledgerEntryTypeId </text>
<text text-anchor="start" x="2154.01" y="-839.4" font-family="Arial" font-size="14.00" fill="#666666">[int unsigned]</text>
<polygon fill="none" stroke="black" points="2028.73,-796.4 2028.73,-827.2 2315.1,-827.2 2315.1,-796.4 2028.73,-796.4"/>
<text text-anchor="start" x="2035.73" y="-808.6" font-family="Arial" font-size="14.00">amount </text>
<text text-anchor="start" x="2086.32" y="-808.6" font-family="Arial" font-size="14.00" fill="#666666">[decimal(18,4)]</text>
<polygon fill="none" stroke="black" points="2028.73,-765.6 2028.73,-796.4 2315.1,-796.4 2315.1,-765.6 2028.73,-765.6"/>
<text text-anchor="start" x="2035.73" y="-777.8" font-family="Arial" font-size="14.00">createdDate </text>
<text text-anchor="start" x="2115.89" y="-777.8" font-family="Arial" font-size="14.00" fill="#666666">[datetime]</text>
<polygon fill="none" stroke="black" points="2028.73,-734.8 2028.73,-765.6 2315.1,-765.6 2315.1,-734.8 2028.73,-734.8"/>
<text text-anchor="start" x="2035.73" y="-747" font-family="Arial" font-size="14.00">participantId </text>
<text text-anchor="start" x="2115.89" y="-747" font-family="Arial" font-size="14.00" fill="#666666">[int unsigned]</text>
<polygon fill="none" stroke="black" points="2028.73,-704 2028.73,-734.8 2315.1,-734.8 2315.1,-704 2028.73,-704"/>
<text text-anchor="start" x="2035.73" y="-716.2" font-family="Arial" font-size="14.00">externalParticipantId </text>
<text text-anchor="start" x="2167.25" y="-716.2" font-family="Arial" font-size="14.00" fill="#666666">[bigint unsigned]</text>
</g>
<!-- transferParticipant&#45;&gt;transfer -->
<g id="edge7" class="edge">
<title>transferParticipant:transferId&#45;&gt;transfer:transferId</title>
<path fill="none" stroke="black" d="M2017.54,-934.54C1912.56,-924.56 2054.5,-752.75 1976.92,-660.8 1866.29,-529.69 1786.19,-527.6 1614.65,-527.6"/>
<polygon fill="black" stroke="black" points="2017.41,-934.54 2027.2,-939.48 2022.74,-934.78 2027.06,-934.97 2027.06,-934.97 2027.06,-934.97 2022.74,-934.78 2027.6,-930.49 2017.41,-934.54"/>
<text text-anchor="start" x="2034.73" y="-945" font-family="Arial" font-size="10.00">FOREIGN KEY (transferId) REFERENCES transfer (transferId)</text>
</g>
<!-- transferStateChange -->
<g id="node9" class="node">
<title>transferStateChange</title>
<polygon fill="#efefef" stroke="none" points="2419.7,-919.6 2419.7,-955.2 2704.13,-955.2 2704.13,-919.6 2419.7,-919.6"/>
<polygon fill="none" stroke="black" points="2419.7,-919.6 2419.7,-955.2 2704.13,-955.2 2704.13,-919.6 2419.7,-919.6"/>
<text text-anchor="start" x="2426.7" y="-933" font-family="Arial Bold" font-size="18.00">transferStateChange</text>
<text text-anchor="start" x="2572.64" y="-933" font-family="Arial" font-size="14.00">    </text>
<text text-anchor="start" x="2603.76" y="-933" font-family="Arial" font-size="14.00" fill="#666666">[BASE TABLE]</text>
<polygon fill="none" stroke="black" points="2419.7,-888.8 2419.7,-919.6 2704.13,-919.6 2704.13,-888.8 2419.7,-888.8"/>
<text text-anchor="start" x="2426.7" y="-901" font-family="Arial" font-size="14.00">transferStateChangeId </text>
<text text-anchor="start" x="2571.46" y="-901" font-family="Arial" font-size="14.00" fill="#666666">[bigint unsigned]</text>
<polygon fill="none" stroke="black" points="2419.7,-858 2419.7,-888.8 2704.13,-888.8 2704.13,-858 2419.7,-858"/>
<text text-anchor="start" x="2426.7" y="-870.2" font-family="Arial" font-size="14.00">transferId </text>
<text text-anchor="start" x="2489.73" y="-870.2" font-family="Arial" font-size="14.00" fill="#666666">[varchar(36)]</text>
<polygon fill="none" stroke="black" points="2419.7,-827.2 2419.7,-858 2704.13,-858 2704.13,-827.2 2419.7,-827.2"/>
<text text-anchor="start" x="2426.7" y="-839.4" font-family="Arial" font-size="14.00">transferStateId </text>
<text text-anchor="start" x="2522.42" y="-839.4" font-family="Arial" font-size="14.00" fill="#666666">[varchar(50)]</text>
<polygon fill="none" stroke="black" points="2419.7,-796.4 2419.7,-827.2 2704.13,-827.2 2704.13,-796.4 2419.7,-796.4"/>
<text text-anchor="start" x="2426.7" y="-808.6" font-family="Arial" font-size="14.00">reason </text>
<text text-anchor="start" x="2473.4" y="-808.6" font-family="Arial" font-size="14.00" fill="#666666">[varchar(512)]</text>
<polygon fill="none" stroke="black" points="2419.7,-765.6 2419.7,-796.4 2704.13,-796.4 2704.13,-765.6 2419.7,-765.6"/>
<text text-anchor="start" x="2426.7" y="-777.8" font-family="Arial" font-size="14.00">createdDate </text>
<text text-anchor="start" x="2506.86" y="-777.8" font-family="Arial" font-size="14.00" fill="#666666">[datetime]</text>
</g>
<!-- transferStateChange&#45;&gt;transfer -->
<g id="edge8" class="edge">
<title>transferStateChange:transferId&#45;&gt;transfer:transferId</title>
<path fill="none" stroke="black" d="M2408.74,-872.81C2329.83,-862.67 2435.21,-724.87 2366.92,-660.8 2243.11,-544.64 1784.42,-527.6 1614.65,-527.6"/>
<polygon fill="black" stroke="black" points="2408.39,-872.79 2418.1,-877.87 2413.71,-873.1 2418.03,-873.36 2418.03,-873.36 2418.03,-873.36 2413.71,-873.1 2418.63,-868.89 2408.39,-872.79"/>
<text text-anchor="start" x="2132.2" y="-883.4" font-family="Arial" font-size="10.00">FOREIGN KEY (transferId) REFERENCES transfer (transferId)</text>
</g>
<!-- transferTimeout -->
<g id="node10" class="node">
<title>transferTimeout</title>
<polygon fill="#efefef" stroke="none" points="2808.7,-904.2 2808.7,-939.8 3063.14,-939.8 3063.14,-904.2 2808.7,-904.2"/>
<polygon fill="none" stroke="black" points="2808.7,-904.2 2808.7,-939.8 3063.14,-939.8 3063.14,-904.2 2808.7,-904.2"/>
<text text-anchor="start" x="2815.7" y="-917.6" font-family="Arial Bold" font-size="18.00">transferTimeout</text>
<text text-anchor="start" x="2931.65" y="-917.6" font-family="Arial" font-size="14.00">    </text>
<text text-anchor="start" x="2962.77" y="-917.6" font-family="Arial" font-size="14.00" fill="#666666">[BASE TABLE]</text>
<polygon fill="none" stroke="black" points="2808.7,-873.4 2808.7,-904.2 3063.14,-904.2 3063.14,-873.4 2808.7,-873.4"/>
<text text-anchor="start" x="2815.7" y="-885.6" font-family="Arial" font-size="14.00">transferTimeoutId </text>
<text text-anchor="start" x="2929.3" y="-885.6" font-family="Arial" font-size="14.00" fill="#666666">[bigint unsigned]</text>
<polygon fill="none" stroke="black" points="2808.7,-842.6 2808.7,-873.4 3063.14,-873.4 3063.14,-842.6 2808.7,-842.6"/>
<text text-anchor="start" x="2815.7" y="-854.8" font-family="Arial" font-size="14.00">transferId </text>
<text text-anchor="start" x="2878.72" y="-854.8" font-family="Arial" font-size="14.00" fill="#666666">[varchar(36)]</text>
<polygon fill="none" stroke="black" points="2808.7,-811.8 2808.7,-842.6 3063.14,-842.6 3063.14,-811.8 2808.7,-811.8"/>
<text text-anchor="start" x="2815.7" y="-824" font-family="Arial" font-size="14.00">expirationDate </text>
<text text-anchor="start" x="2909.86" y="-824" font-family="Arial" font-size="14.00" fill="#666666">[datetime]</text>
<polygon fill="none" stroke="black" points="2808.7,-781 2808.7,-811.8 3063.14,-811.8 3063.14,-781 2808.7,-781"/>
<text text-anchor="start" x="2815.7" y="-793.2" font-family="Arial" font-size="14.00">createdDate </text>
<text text-anchor="start" x="2895.85" y="-793.2" font-family="Arial" font-size="14.00" fill="#666666">[datetime]</text>
</g>
<!-- transferTimeout&#45;&gt;transfer -->
<g id="edge9" class="edge">
<title>transferTimeout:transferId&#45;&gt;transfer:transferId</title>
<path fill="none" stroke="black" d="M2797.52,-857.32C2725.58,-846.83 2821.53,-717.78 2755.92,-660.8 2659.52,-577.09 1742.31,-527.6 1614.65,-527.6"/>
<polygon fill="black" stroke="black" points="2797.38,-857.31 2807.06,-862.47 2802.71,-857.67 2807.03,-857.96 2807.03,-857.96 2807.03,-857.96 2802.71,-857.67 2807.66,-853.49 2797.38,-857.31"/>
<text text-anchor="start" x="2814.7" y="-868" font-family="Arial" font-size="10.00">FOREIGN KEY (transferId) REFERENCES transfer (transferId)</text>
</g>
</g>
</svg>
