<?xml version="1.0" encoding="UTF-8" standalone="no"?>
<!DOCTYPE svg PUBLIC "-//W3C//DTD SVG 1.1//EN"
 "http://www.w3.org/Graphics/SVG/1.1/DTD/svg11.dtd">
<!-- Generated by graphviz version 12.1.2 (20240928.0832)
 -->
<!-- Title: transfer Pages: 1 -->
<svg width="3114pt" height="729pt"
 viewBox="0.00 0.00 3114.34 729.20" xmlns="http://www.w3.org/2000/svg" xmlns:xlink="http://www.w3.org/1999/xlink">
<g id="graph0" class="graph" transform="scale(1 1) rotate(0) translate(4 725.2)">
<title>transfer</title>
<polygon fill="white" stroke="none" points="-4,4 -4,-725.2 3110.34,-725.2 3110.34,4 -4,4"/>
<!-- transfer -->
<g id="node1" class="node">
<title>transfer</title>
<polygon fill="#efefef" stroke="none" points="1420.19,-296.6 1420.19,-332.2 1613.65,-332.2 1613.65,-296.6 1420.19,-296.6"/>
<polygon fill="none" stroke="black" points="1420.19,-296.6 1420.19,-332.2 1613.65,-332.2 1613.65,-296.6 1420.19,-296.6"/>
<text text-anchor="start" x="1427.19" y="-310" font-family="Arial Bold" font-size="18.00">transfer</text>
<text text-anchor="start" x="1482.16" y="-310" font-family="Arial" font-size="14.00">    </text>
<text text-anchor="start" x="1513.27" y="-310" font-family="Arial" font-size="14.00" fill="#666666">[BASE TABLE]</text>
<polygon fill="none" stroke="black" points="1420.19,-265.8 1420.19,-296.6 1613.65,-296.6 1613.65,-265.8 1420.19,-265.8"/>
<text text-anchor="start" x="1427.19" y="-278" font-family="Arial" font-size="14.00">transferId </text>
<text text-anchor="start" x="1490.22" y="-278" font-family="Arial" font-size="14.00" fill="#666666">[varchar(36)]</text>
<polygon fill="none" stroke="black" points="1420.19,-235 1420.19,-265.8 1613.65,-265.8 1613.65,-235 1420.19,-235"/>
<text text-anchor="start" x="1427.19" y="-247.2" font-family="Arial" font-size="14.00">currencyId </text>
<text text-anchor="start" x="1496.44" y="-247.2" font-family="Arial" font-size="14.00" fill="#666666">[varchar(3)]</text>
<polygon fill="none" stroke="black" stroke-width="3" points="1418.69,-233.5 1418.69,-333.7 1615.15,-333.7 1615.15,-233.5 1418.69,-233.5"/>
</g>
<!-- transferDuplicateCheck -->
<g id="node2" class="node">
<title>transferDuplicateCheck</title>
<polygon fill="#efefef" stroke="none" points="1182.21,-74 1182.21,-109.6 1491.62,-109.6 1491.62,-74 1182.21,-74"/>
<polygon fill="none" stroke="black" points="1182.21,-74 1182.21,-109.6 1491.62,-109.6 1491.62,-74 1182.21,-74"/>
<text text-anchor="start" x="1189.21" y="-87.4" font-family="Arial Bold" font-size="18.00">transferDuplicateCheck</text>
<text text-anchor="start" x="1360.13" y="-87.4" font-family="Arial" font-size="14.00">    </text>
<text text-anchor="start" x="1391.25" y="-87.4" font-family="Arial" font-size="14.00" fill="#666666">[BASE TABLE]</text>
<polygon fill="none" stroke="black" points="1182.21,-43.2 1182.21,-74 1491.62,-74 1491.62,-43.2 1182.21,-43.2"/>
<text text-anchor="start" x="1189.21" y="-55.4" font-family="Arial" font-size="14.00">transferId </text>
<text text-anchor="start" x="1252.24" y="-55.4" font-family="Arial" font-size="14.00" fill="#666666">[varchar(36)]</text>
</g>
<!-- transfer&#45;&gt;transferDuplicateCheck -->
<g id="edge1" class="edge">
<title>transfer:transferId&#45;&gt;transferDuplicateCheck:transferId</title>
<path fill="none" stroke="black" d="M1409.21,-279.75C1381.95,-270.61 1400.5,-220.39 1420.19,-188.8 1439,-158.63 1472.82,-182.97 1491.62,-152.8 1513.77,-117.27 1534.49,-58.6 1492.62,-58.6"/>
<polygon fill="black" stroke="black" points="1408.96,-279.71 1418.21,-285.61 1414.24,-280.48 1418.53,-281.1 1418.53,-281.1 1418.53,-281.1 1414.24,-280.48 1419.51,-276.7 1408.96,-279.71"/>
<text text-anchor="start" x="1062.65" y="-291.2" font-family="Arial" font-size="10.00">FOREIGN KEY (transferId) REFERENCES transferDuplicateCheck (transferId)</text>
</g>
<!-- currency -->
<g id="node11" class="node">
<title>currency</title>
<polygon fill="#efefef" stroke="none" points="1596.2,-74 1596.2,-109.6 1797.64,-109.6 1797.64,-74 1596.2,-74"/>
<polygon fill="none" stroke="black" points="1596.2,-74 1596.2,-109.6 1797.64,-109.6 1797.64,-74 1596.2,-74"/>
<text text-anchor="start" x="1603.2" y="-87.4" font-family="Arial Bold" font-size="18.00">currency</text>
<text text-anchor="start" x="1666.15" y="-87.4" font-family="Arial" font-size="14.00">    </text>
<text text-anchor="start" x="1697.27" y="-87.4" font-family="Arial" font-size="14.00" fill="#666666">[BASE TABLE]</text>
<polygon fill="none" stroke="black" points="1596.2,-43.2 1596.2,-74 1797.64,-74 1797.64,-43.2 1596.2,-43.2"/>
<text text-anchor="start" x="1603.2" y="-55.4" font-family="Arial" font-size="14.00">currencyId </text>
<text text-anchor="start" x="1672.44" y="-55.4" font-family="Arial" font-size="14.00" fill="#666666">[varchar(3)]</text>
</g>
<!-- transfer&#45;&gt;currency -->
<g id="edge10" class="edge">
<title>transfer:currencyId&#45;&gt;currency:currencyId</title>
<path fill="none" stroke="black" d="M1624.42,-247.77C1635.22,-239.15 1618.95,-211.07 1613.65,-188.8 1609.53,-171.5 1600.27,-170.11 1596.2,-152.8 1586.61,-112.04 1553.33,-58.6 1595.2,-58.6"/>
<polygon fill="black" stroke="black" points="1624.62,-247.71 1613.8,-245.97 1619.47,-249.1 1615.29,-250.23 1615.29,-250.23 1615.29,-250.23 1619.47,-249.1 1616.14,-254.66 1624.62,-247.71"/>
<text text-anchor="start" x="1621.65" y="-260.4" font-family="Arial" font-size="10.00">FOREIGN KEY (currencyId) REFERENCES currency (currencyId)</text>
</g>
<!-- expiringTransfer -->
<g id="node3" class="node">
<title>expiringTransfer</title>
<polygon fill="#efefef" stroke="none" points="43.2,-580.8 43.2,-616.4 302.64,-616.4 302.64,-580.8 43.2,-580.8"/>
<polygon fill="none" stroke="black" points="43.2,-580.8 43.2,-616.4 302.64,-616.4 302.64,-580.8 43.2,-580.8"/>
<text text-anchor="start" x="50.2" y="-594.2" font-family="Arial Bold" font-size="18.00">expiringTransfer</text>
<text text-anchor="start" x="171.15" y="-594.2" font-family="Arial" font-size="14.00">    </text>
<text text-anchor="start" x="202.26" y="-594.2" font-family="Arial" font-size="14.00" fill="#666666">[BASE TABLE]</text>
<polygon fill="none" stroke="black" points="43.2,-550 43.2,-580.8 302.64,-580.8 302.64,-550 43.2,-550"/>
<text text-anchor="start" x="50.2" y="-562.2" font-family="Arial" font-size="14.00">expiringTransferId </text>
<text text-anchor="start" x="166.92" y="-562.2" font-family="Arial" font-size="14.00" fill="#666666">[bigint unsigned]</text>
<polygon fill="none" stroke="black" points="43.2,-519.2 43.2,-550 302.64,-550 302.64,-519.2 43.2,-519.2"/>
<text text-anchor="start" x="50.2" y="-531.4" font-family="Arial" font-size="14.00">transferId </text>
<text text-anchor="start" x="113.23" y="-531.4" font-family="Arial" font-size="14.00" fill="#666666">[varchar(36)]</text>
</g>
<!-- expiringTransfer&#45;&gt;transfer -->
<g id="edge2" class="edge">
<title>expiringTransfer:transferId&#45;&gt;transfer:transferId</title>
<path fill="none" stroke="black" d="M313.8,-533.51C355.09,-523.5 311.62,-447.04 354.92,-414.4 450.08,-342.65 1300.01,-281.2 1419.19,-281.2"/>
<polygon fill="black" stroke="black" points="313.91,-533.5 303.49,-530.09 308.61,-534.07 304.3,-534.53 304.3,-534.53 304.3,-534.53 308.61,-534.07 304.45,-539.04 313.91,-533.5"/>
<text text-anchor="start" x="163.88" y="-518.6" font-family="Arial" font-size="10.00">FOREIGN KEY (transferId) REFERENCES transfer (transferId)</text>
</g>
<!-- ilpPacket -->
<g id="node4" class="node">
<title>ilpPacket</title>
<polygon fill="#efefef" stroke="none" points="407.18,-565.4 407.18,-601 612.65,-601 612.65,-565.4 407.18,-565.4"/>
<polygon fill="none" stroke="black" points="407.18,-565.4 407.18,-601 612.65,-601 612.65,-565.4 407.18,-565.4"/>
<text text-anchor="start" x="414.18" y="-578.8" font-family="Arial Bold" font-size="18.00">ilpPacket</text>
<text text-anchor="start" x="481.16" y="-578.8" font-family="Arial" font-size="14.00">    </text>
<text text-anchor="start" x="512.28" y="-578.8" font-family="Arial" font-size="14.00" fill="#666666">[BASE TABLE]</text>
<polygon fill="none" stroke="black" points="407.18,-534.6 407.18,-565.4 612.65,-565.4 612.65,-534.6 407.18,-534.6"/>
<text text-anchor="start" x="414.18" y="-546.8" font-family="Arial" font-size="14.00">transferId </text>
<text text-anchor="start" x="477.21" y="-546.8" font-family="Arial" font-size="14.00" fill="#666666">[varchar(36)]</text>
</g>
<!-- ilpPacket&#45;&gt;transfer -->
<g id="edge3" class="edge">
<title>ilpPacket:transferId&#45;&gt;transfer:transferId</title>
<path fill="none" stroke="black" d="M624.01,-548.99C670.89,-538.75 618.32,-453.03 664.92,-414.4 795.97,-305.78 1248.98,-281.2 1419.19,-281.2"/>
<polygon fill="black" stroke="black" points="623.94,-549 613.55,-545.49 618.63,-549.52 614.32,-549.94 614.32,-549.94 614.32,-549.94 618.63,-549.52 614.42,-554.45 623.94,-549"/>
<text text-anchor="start" x="473.9" y="-534" font-family="Arial" font-size="10.00">FOREIGN KEY (transferId) REFERENCES transfer (transferId)</text>
</g>
<!-- transferErrorDuplicateCheck -->
<g id="node5" class="node">
<title>transferErrorDuplicateCheck</title>
<polygon fill="#efefef" stroke="none" points="717.22,-565.4 717.22,-601 1064.61,-601 1064.61,-565.4 717.22,-565.4"/>
<polygon fill="none" stroke="black" points="717.22,-565.4 717.22,-601 1064.61,-601 1064.61,-565.4 717.22,-565.4"/>
<text text-anchor="start" x="724.22" y="-578.8" font-family="Arial Bold" font-size="18.00">transferErrorDuplicateCheck</text>
<text text-anchor="start" x="933.12" y="-578.8" font-family="Arial" font-size="14.00">    </text>
<text text-anchor="start" x="964.24" y="-578.8" font-family="Arial" font-size="14.00" fill="#666666">[BASE TABLE]</text>
<polygon fill="none" stroke="black" points="717.22,-534.6 717.22,-565.4 1064.61,-565.4 1064.61,-534.6 717.22,-534.6"/>
<text text-anchor="start" x="724.22" y="-546.8" font-family="Arial" font-size="14.00">transferId </text>
<text text-anchor="start" x="787.25" y="-546.8" font-family="Arial" font-size="14.00" fill="#666666">[varchar(36)]</text>
</g>
<!-- transferErrorDuplicateCheck&#45;&gt;transfer -->
<g id="edge4" class="edge">
<title>transferErrorDuplicateCheck:transferId&#45;&gt;transfer:transferId</title>
<path fill="none" stroke="black" d="M1075.73,-549.11C1123.66,-539.73 1075.18,-458.42 1116.92,-414.4 1217.92,-307.86 1272.38,-281.2 1419.19,-281.2"/>
<polygon fill="black" stroke="black" points="1075.91,-549.1 1065.55,-545.49 1070.59,-549.56 1066.28,-549.94 1066.28,-549.94 1066.28,-549.94 1070.59,-549.56 1066.34,-554.45 1075.91,-549.1"/>
<text text-anchor="start" x="1072.61" y="-560" font-family="Arial" font-size="10.00">FOREIGN KEY (transferId) REFERENCES transfer (transferId)</text>
</g>
<!-- transferExtension -->
<g id="node6" class="node">
<title>transferExtension</title>
<polygon fill="#efefef" stroke="none" points="1169.19,-580.8 1169.19,-616.4 1434.64,-616.4 1434.64,-580.8 1169.19,-580.8"/>
<polygon fill="none" stroke="black" points="1169.19,-580.8 1169.19,-616.4 1434.64,-616.4 1434.64,-580.8 1169.19,-580.8"/>
<text text-anchor="start" x="1176.19" y="-594.2" font-family="Arial Bold" font-size="18.00">transferExtension</text>
<text text-anchor="start" x="1303.15" y="-594.2" font-family="Arial" font-size="14.00">    </text>
<text text-anchor="start" x="1334.27" y="-594.2" font-family="Arial" font-size="14.00" fill="#666666">[BASE TABLE]</text>
<polygon fill="none" stroke="black" points="1169.19,-550 1169.19,-580.8 1434.64,-580.8 1434.64,-550 1169.19,-550"/>
<text text-anchor="start" x="1176.19" y="-562.2" font-family="Arial" font-size="14.00">transferExtensionId </text>
<text text-anchor="start" x="1300.7" y="-562.2" font-family="Arial" font-size="14.00" fill="#666666">[bigint unsigned]</text>
<polygon fill="none" stroke="black" points="1169.19,-519.2 1169.19,-550 1434.64,-550 1434.64,-519.2 1169.19,-519.2"/>
<text text-anchor="start" x="1176.19" y="-531.4" font-family="Arial" font-size="14.00">transferId </text>
<text text-anchor="start" x="1239.22" y="-531.4" font-family="Arial" font-size="14.00" fill="#666666">[varchar(36)]</text>
</g>
<!-- transferExtension&#45;&gt;transfer -->
<g id="edge5" class="edge">
<title>transferExtension:transferId&#45;&gt;transfer:transferId</title>
<path fill="none" stroke="black" d="M1446,-533.73C1532.36,-517.57 1310.19,-281.2 1419.19,-281.2"/>
<polygon fill="black" stroke="black" points="1445.94,-533.74 1435.6,-530.09 1440.62,-534.18 1436.31,-534.54 1436.31,-534.54 1436.31,-534.54 1440.62,-534.18 1436.35,-539.06 1445.94,-533.74"/>
<text text-anchor="start" x="1442.64" y="-544.6" font-family="Arial" font-size="10.00">FOREIGN KEY (transferId) REFERENCES transfer (transferId)</text>
</g>
<!-- transferFulfilmentDuplicateCheck -->
<g id="node7" class="node">
<title>transferFulfilmentDuplicateCheck</title>
<polygon fill="#efefef" stroke="none" points="1539.21,-565.4 1539.21,-601 1924.62,-601 1924.62,-565.4 1539.21,-565.4"/>
<polygon fill="none" stroke="black" points="1539.21,-565.4 1539.21,-601 1924.62,-601 1924.62,-565.4 1539.21,-565.4"/>
<text text-anchor="start" x="1546.21" y="-578.8" font-family="Arial Bold" font-size="18.00">transferFulfilmentDuplicateCheck</text>
<text text-anchor="start" x="1793.13" y="-578.8" font-family="Arial" font-size="14.00">    </text>
<text text-anchor="start" x="1824.25" y="-578.8" font-family="Arial" font-size="14.00" fill="#666666">[BASE TABLE]</text>
<polygon fill="none" stroke="black" points="1539.21,-534.6 1539.21,-565.4 1924.62,-565.4 1924.62,-534.6 1539.21,-534.6"/>
<text text-anchor="start" x="1546.21" y="-546.8" font-family="Arial" font-size="14.00">transferId </text>
<text text-anchor="start" x="1609.24" y="-546.8" font-family="Arial" font-size="14.00" fill="#666666">[varchar(36)]</text>
</g>
<!-- transferFulfilmentDuplicateCheck&#45;&gt;transfer -->
<g id="edge6" class="edge">
<title>transferFulfilmentDuplicateCheck:transferId&#45;&gt;transfer:transferId</title>
<path fill="none" stroke="black" d="M1528.24,-546.98C1518.74,-538.17 1532.9,-511.81 1539.21,-491.4 1556.97,-433.94 1596.08,-435.92 1613.65,-378.4 1626.26,-337.08 1657.85,-281.2 1614.65,-281.2"/>
<polygon fill="black" stroke="black" points="1528.32,-547.01 1536.59,-554.21 1533.43,-548.55 1537.57,-549.81 1537.57,-549.81 1537.57,-549.81 1533.43,-548.55 1539.2,-545.6 1528.32,-547.01"/>
<text text-anchor="start" x="1545.21" y="-560" font-family="Arial" font-size="10.00">FOREIGN KEY (transferId) REFERENCES transfer (transferId)</text>
</g>
<!-- transferParticipant -->
<g id="node8" class="node">
<title>transferParticipant</title>
<polygon fill="#efefef" stroke="none" points="2028.73,-642.4 2028.73,-678 2315.1,-678 2315.1,-642.4 2028.73,-642.4"/>
<polygon fill="none" stroke="black" points="2028.73,-642.4 2028.73,-678 2315.1,-678 2315.1,-642.4 2028.73,-642.4"/>
<text text-anchor="start" x="2043.2" y="-655.8" font-family="Arial Bold" font-size="18.00">transferParticipant</text>
<text text-anchor="start" x="2176.14" y="-655.8" font-family="Arial" font-size="14.00">    </text>
<text text-anchor="start" x="2207.26" y="-655.8" font-family="Arial" font-size="14.00" fill="#666666">[BASE TABLE]</text>
<polygon fill="none" stroke="black" points="2028.73,-611.6 2028.73,-642.4 2315.1,-642.4 2315.1,-611.6 2028.73,-611.6"/>
<text text-anchor="start" x="2035.73" y="-623.8" font-family="Arial" font-size="14.00">transferParticipantId </text>
<text text-anchor="start" x="2164.9" y="-623.8" font-family="Arial" font-size="14.00" fill="#666666">[bigint unsigned]</text>
<polygon fill="none" stroke="black" points="2028.73,-580.8 2028.73,-611.6 2315.1,-611.6 2315.1,-580.8 2028.73,-580.8"/>
<text text-anchor="start" x="2035.73" y="-593" font-family="Arial" font-size="14.00">transferId </text>
<text text-anchor="start" x="2098.76" y="-593" font-family="Arial" font-size="14.00" fill="#666666">[varchar(36)]</text>
<polygon fill="none" stroke="black" points="2028.73,-550 2028.73,-580.8 2315.1,-580.8 2315.1,-550 2028.73,-550"/>
<text text-anchor="start" x="2035.73" y="-562.2" font-family="Arial" font-size="14.00">participantCurrencyId </text>
<text text-anchor="start" x="2172.68" y="-562.2" font-family="Arial" font-size="14.00" fill="#666666">[int unsigned]</text>
<polygon fill="none" stroke="black" points="2028.73,-519.2 2028.73,-550 2315.1,-550 2315.1,-519.2 2028.73,-519.2"/>
<text text-anchor="start" x="2035.73" y="-531.4" font-family="Arial" font-size="14.00">transferParticipantRoleTypeId </text>
<text text-anchor="start" x="2224.82" y="-531.4" font-family="Arial" font-size="14.00" fill="#666666">[int unsigned]</text>
<polygon fill="none" stroke="black" points="2028.73,-488.4 2028.73,-519.2 2315.1,-519.2 2315.1,-488.4 2028.73,-488.4"/>
<text text-anchor="start" x="2035.73" y="-500.6" font-family="Arial" font-size="14.00">ledgerEntryTypeId </text>
<text text-anchor="start" x="2154.01" y="-500.6" font-family="Arial" font-size="14.00" fill="#666666">[int unsigned]</text>
<polygon fill="none" stroke="black" points="2028.73,-457.6 2028.73,-488.4 2315.1,-488.4 2315.1,-457.6 2028.73,-457.6"/>
<text text-anchor="start" x="2035.73" y="-469.8" font-family="Arial" font-size="14.00">externalParticipantId </text>
<text text-anchor="start" x="2167.25" y="-469.8" font-family="Arial" font-size="14.00" fill="#666666">[bigint unsigned]</text>
</g>
<!-- transferParticipant&#45;&gt;transfer -->
<g id="edge7" class="edge">
<title>transferParticipant:transferId&#45;&gt;transfer:transferId</title>
<path fill="none" stroke="black" d="M2017.45,-595.49C1951.62,-585.52 2031.27,-473.27 1976.92,-414.4 1860.55,-288.36 1786.19,-281.2 1614.65,-281.2"/>
<polygon fill="black" stroke="black" points="2017.42,-595.49 2027.09,-600.67 2022.74,-595.85 2027.06,-596.15 2027.06,-596.15 2027.06,-596.15 2022.74,-595.85 2027.71,-591.69 2017.42,-595.49"/>
<text text-anchor="start" x="2034.73" y="-606.2" font-family="Arial" font-size="10.00">FOREIGN KEY (transferId) REFERENCES transfer (transferId)</text>
</g>
<!-- transferStateChange -->
<g id="node9" class="node">
<title>transferStateChange</title>
<polygon fill="#efefef" stroke="none" points="2419.7,-596.2 2419.7,-631.8 2704.13,-631.8 2704.13,-596.2 2419.7,-596.2"/>
<polygon fill="none" stroke="black" points="2419.7,-596.2 2419.7,-631.8 2704.13,-631.8 2704.13,-596.2 2419.7,-596.2"/>
<text text-anchor="start" x="2426.7" y="-609.6" font-family="Arial Bold" font-size="18.00">transferStateChange</text>
<text text-anchor="start" x="2572.64" y="-609.6" font-family="Arial" font-size="14.00">    </text>
<text text-anchor="start" x="2603.76" y="-609.6" font-family="Arial" font-size="14.00" fill="#666666">[BASE TABLE]</text>
<polygon fill="none" stroke="black" points="2419.7,-565.4 2419.7,-596.2 2704.13,-596.2 2704.13,-565.4 2419.7,-565.4"/>
<text text-anchor="start" x="2426.7" y="-577.6" font-family="Arial" font-size="14.00">transferStateChangeId </text>
<text text-anchor="start" x="2571.46" y="-577.6" font-family="Arial" font-size="14.00" fill="#666666">[bigint unsigned]</text>
<polygon fill="none" stroke="black" points="2419.7,-534.6 2419.7,-565.4 2704.13,-565.4 2704.13,-534.6 2419.7,-534.6"/>
<text text-anchor="start" x="2426.7" y="-546.8" font-family="Arial" font-size="14.00">transferId </text>
<text text-anchor="start" x="2489.73" y="-546.8" font-family="Arial" font-size="14.00" fill="#666666">[varchar(36)]</text>
<polygon fill="none" stroke="black" points="2419.7,-503.8 2419.7,-534.6 2704.13,-534.6 2704.13,-503.8 2419.7,-503.8"/>
<text text-anchor="start" x="2426.7" y="-516" font-family="Arial" font-size="14.00">transferStateId </text>
<text text-anchor="start" x="2522.42" y="-516" font-family="Arial" font-size="14.00" fill="#666666">[varchar(50)]</text>
</g>
<!-- transferStateChange&#45;&gt;transfer -->
<g id="edge8" class="edge">
<title>transferStateChange:transferId&#45;&gt;transfer:transferId</title>
<path fill="none" stroke="black" d="M2408.33,-548.99C2361.34,-538.75 2413.64,-453.01 2366.92,-414.4 2236.05,-306.25 1784.42,-281.2 1614.65,-281.2"/>
<polygon fill="black" stroke="black" points="2408.42,-549 2417.93,-554.45 2413.73,-549.52 2418.04,-549.94 2418.04,-549.94 2418.04,-549.94 2413.73,-549.52 2418.8,-545.49 2408.42,-549"/>
<text text-anchor="start" x="2132.2" y="-560" font-family="Arial" font-size="10.00">FOREIGN KEY (transferId) REFERENCES transfer (transferId)</text>
</g>
<!-- transferTimeout -->
<g id="node10" class="node">
<title>transferTimeout</title>
<polygon fill="#efefef" stroke="none" points="2808.7,-580.8 2808.7,-616.4 3063.14,-616.4 3063.14,-580.8 2808.7,-580.8"/>
<polygon fill="none" stroke="black" points="2808.7,-580.8 2808.7,-616.4 3063.14,-616.4 3063.14,-580.8 2808.7,-580.8"/>
<text text-anchor="start" x="2815.7" y="-594.2" font-family="Arial Bold" font-size="18.00">transferTimeout</text>
<text text-anchor="start" x="2931.65" y="-594.2" font-family="Arial" font-size="14.00">    </text>
<text text-anchor="start" x="2962.77" y="-594.2" font-family="Arial" font-size="14.00" fill="#666666">[BASE TABLE]</text>
<polygon fill="none" stroke="black" points="2808.7,-550 2808.7,-580.8 3063.14,-580.8 3063.14,-550 2808.7,-550"/>
<text text-anchor="start" x="2815.7" y="-562.2" font-family="Arial" font-size="14.00">transferTimeoutId </text>
<text text-anchor="start" x="2929.3" y="-562.2" font-family="Arial" font-size="14.00" fill="#666666">[bigint unsigned]</text>
<polygon fill="none" stroke="black" points="2808.7,-519.2 2808.7,-550 3063.14,-550 3063.14,-519.2 2808.7,-519.2"/>
<text text-anchor="start" x="2815.7" y="-531.4" font-family="Arial" font-size="14.00">transferId </text>
<text text-anchor="start" x="2878.72" y="-531.4" font-family="Arial" font-size="14.00" fill="#666666">[varchar(36)]</text>
</g>
<!-- transferTimeout&#45;&gt;transfer -->
<g id="edge9" class="edge">
<title>transferTimeout:transferId&#45;&gt;transfer:transferId</title>
<path fill="none" stroke="black" d="M2797.52,-533.51C2756.13,-523.47 2799.47,-446.84 2755.92,-414.4 2653.52,-338.14 1742.31,-281.2 1614.65,-281.2"/>
<polygon fill="black" stroke="black" points="2797.42,-533.5 2806.88,-539.04 2802.72,-534.07 2807.03,-534.53 2807.03,-534.53 2807.03,-534.53 2802.72,-534.07 2807.84,-530.09 2797.42,-533.5"/>
<text text-anchor="start" x="2521.19" y="-544.6" font-family="Arial" font-size="10.00">FOREIGN KEY (transferId) REFERENCES transfer (transferId)</text>
</g>
</g>
</svg>
