<?xml version="1.0" encoding="UTF-8" standalone="no"?>
<!DOCTYPE svg PUBLIC "-//W3C//DTD SVG 1.1//EN"
 "http://www.w3.org/Graphics/SVG/1.1/DTD/svg11.dtd">
<!-- Generated by graphviz version 12.1.2 (20240928.0832)
 -->
<!-- Title: transactionScenario Pages: 1 -->
<svg width="783pt" height="848pt"
 viewBox="0.00 0.00 783.12 848.40" xmlns="http://www.w3.org/2000/svg" xmlns:xlink="http://www.w3.org/1999/xlink">
<g id="graph0" class="graph" transform="scale(1 1) rotate(0) translate(4 844.4)">
<title>transactionScenario</title>
<polygon fill="white" stroke="none" points="-4,4 -4,-844.4 779.12,-844.4 779.12,4 -4,4"/>
<!-- transactionScenario -->
<g id="node1" class="node">
<title>transactionScenario</title>
<polygon fill="#efefef" stroke="none" points="46.2,-169.4 46.2,-205 326.63,-205 326.63,-169.4 46.2,-169.4"/>
<polygon fill="none" stroke="black" points="46.2,-169.4 46.2,-205 326.63,-205 326.63,-169.4 46.2,-169.4"/>
<text text-anchor="start" x="53.2" y="-182.8" font-family="Arial Bold" font-size="18.00">transactionScenario</text>
<text text-anchor="start" x="195.14" y="-182.8" font-family="Arial" font-size="14.00">    </text>
<text text-anchor="start" x="226.26" y="-182.8" font-family="Arial" font-size="14.00" fill="#666666">[BASE TABLE]</text>
<polygon fill="none" stroke="black" points="46.2,-138.6 46.2,-169.4 326.63,-169.4 326.63,-138.6 46.2,-138.6"/>
<text text-anchor="start" x="53.2" y="-150.8" font-family="Arial" font-size="14.00">transactionScenarioId </text>
<text text-anchor="start" x="192.5" y="-150.8" font-family="Arial" font-size="14.00" fill="#666666">[int unsigned]</text>
<polygon fill="none" stroke="black" points="46.2,-107.8 46.2,-138.6 326.63,-138.6 326.63,-107.8 46.2,-107.8"/>
<text text-anchor="start" x="53.2" y="-120" font-family="Arial" font-size="14.00">name </text>
<text text-anchor="start" x="92.11" y="-120" font-family="Arial" font-size="14.00" fill="#666666">[varchar(256)]</text>
<polygon fill="none" stroke="black" points="46.2,-77 46.2,-107.8 326.63,-107.8 326.63,-77 46.2,-77"/>
<text text-anchor="start" x="53.2" y="-89.2" font-family="Arial" font-size="14.00">description </text>
<text text-anchor="start" x="124.79" y="-89.2" font-family="Arial" font-size="14.00" fill="#666666">[varchar(1024)]</text>
<polygon fill="none" stroke="black" points="46.2,-46.2 46.2,-77 326.63,-77 326.63,-46.2 46.2,-46.2"/>
<text text-anchor="start" x="53.2" y="-58.4" font-family="Arial" font-size="14.00">createdDate </text>
<text text-anchor="start" x="133.36" y="-58.4" font-family="Arial" font-size="14.00" fill="#666666">[datetime]</text>
<polygon fill="none" stroke="black" stroke-width="3" points="44.7,-44.7 44.7,-206.5 328.13,-206.5 328.13,-44.7 44.7,-44.7"/>
</g>
<!-- quote -->
<g id="node2" class="node">
<title>quote</title>
<polygon fill="#efefef" stroke="none" points="55.67,-761.6 55.67,-797.2 317.16,-797.2 317.16,-761.6 55.67,-761.6"/>
<polygon fill="none" stroke="black" points="55.67,-761.6 55.67,-797.2 317.16,-797.2 317.16,-761.6 55.67,-761.6"/>
<text text-anchor="start" x="104.18" y="-775" font-family="Arial Bold" font-size="18.00">quote</text>
<text text-anchor="start" x="144.17" y="-775" font-family="Arial" font-size="14.00">    </text>
<text text-anchor="start" x="175.28" y="-775" font-family="Arial" font-size="14.00" fill="#666666">[BASE TABLE]</text>
<polygon fill="none" stroke="black" points="55.67,-730.8 55.67,-761.6 317.16,-761.6 317.16,-730.8 55.67,-730.8"/>
<text text-anchor="start" x="62.67" y="-743" font-family="Arial" font-size="14.00">quoteId </text>
<text text-anchor="start" x="113.27" y="-743" font-family="Arial" font-size="14.00" fill="#666666">[varchar(36)]</text>
<polygon fill="none" stroke="black" points="55.67,-700 55.67,-730.8 317.16,-730.8 317.16,-700 55.67,-700"/>
<text text-anchor="start" x="62.67" y="-712.2" font-family="Arial" font-size="14.00">transactionReferenceId </text>
<text text-anchor="start" x="211.31" y="-712.2" font-family="Arial" font-size="14.00" fill="#666666">[varchar(36)]</text>
<polygon fill="none" stroke="black" points="55.67,-669.2 55.67,-700 317.16,-700 317.16,-669.2 55.67,-669.2"/>
<text text-anchor="start" x="62.67" y="-681.4" font-family="Arial" font-size="14.00">transactionRequestId </text>
<text text-anchor="start" x="198.86" y="-681.4" font-family="Arial" font-size="14.00" fill="#666666">[varchar(36)]</text>
<polygon fill="none" stroke="black" points="55.67,-638.4 55.67,-669.2 317.16,-669.2 317.16,-638.4 55.67,-638.4"/>
<text text-anchor="start" x="62.67" y="-650.6" font-family="Arial" font-size="14.00">note </text>
<text text-anchor="start" x="93.81" y="-650.6" font-family="Arial" font-size="14.00" fill="#666666">[text]</text>
<polygon fill="none" stroke="black" points="55.67,-607.6 55.67,-638.4 317.16,-638.4 317.16,-607.6 55.67,-607.6"/>
<text text-anchor="start" x="62.67" y="-619.8" font-family="Arial" font-size="14.00">expirationDate </text>
<text text-anchor="start" x="156.83" y="-619.8" font-family="Arial" font-size="14.00" fill="#666666">[datetime]</text>
<polygon fill="none" stroke="black" points="55.67,-576.8 55.67,-607.6 317.16,-607.6 317.16,-576.8 55.67,-576.8"/>
<text text-anchor="start" x="62.67" y="-589" font-family="Arial" font-size="14.00">transactionInitiatorId </text>
<text text-anchor="start" x="192.63" y="-589" font-family="Arial" font-size="14.00" fill="#666666">[int unsigned]</text>
<polygon fill="none" stroke="black" points="55.67,-546 55.67,-576.8 317.16,-576.8 317.16,-546 55.67,-546"/>
<text text-anchor="start" x="62.67" y="-558.2" font-family="Arial" font-size="14.00">transactionInitiatorTypeId </text>
<text text-anchor="start" x="223.75" y="-558.2" font-family="Arial" font-size="14.00" fill="#666666">[int unsigned]</text>
<polygon fill="none" stroke="black" points="55.67,-515.2 55.67,-546 317.16,-546 317.16,-515.2 55.67,-515.2"/>
<text text-anchor="start" x="62.67" y="-527.4" font-family="Arial" font-size="14.00">transactionScenarioId </text>
<text text-anchor="start" x="201.97" y="-527.4" font-family="Arial" font-size="14.00" fill="#666666">[int unsigned]</text>
<polygon fill="none" stroke="black" points="55.67,-484.4 55.67,-515.2 317.16,-515.2 317.16,-484.4 55.67,-484.4"/>
<text text-anchor="start" x="62.67" y="-496.6" font-family="Arial" font-size="14.00">balanceOfPaymentsId </text>
<text text-anchor="start" x="204.3" y="-496.6" font-family="Arial" font-size="14.00" fill="#666666">[int unsigned]</text>
<polygon fill="none" stroke="black" points="55.67,-453.6 55.67,-484.4 317.16,-484.4 317.16,-453.6 55.67,-453.6"/>
<text text-anchor="start" x="62.67" y="-465.8" font-family="Arial" font-size="14.00">transactionSubScenarioId </text>
<text text-anchor="start" x="226.88" y="-465.8" font-family="Arial" font-size="14.00" fill="#666666">[int unsigned]</text>
<polygon fill="none" stroke="black" points="55.67,-422.8 55.67,-453.6 317.16,-453.6 317.16,-422.8 55.67,-422.8"/>
<text text-anchor="start" x="62.67" y="-435" font-family="Arial" font-size="14.00">amountTypeId </text>
<text text-anchor="start" x="156.05" y="-435" font-family="Arial" font-size="14.00" fill="#666666">[int unsigned]</text>
<polygon fill="none" stroke="black" points="55.67,-392 55.67,-422.8 317.16,-422.8 317.16,-392 55.67,-392"/>
<text text-anchor="start" x="62.67" y="-404.2" font-family="Arial" font-size="14.00">amount </text>
<text text-anchor="start" x="113.25" y="-404.2" font-family="Arial" font-size="14.00" fill="#666666">[decimal(18,4)]</text>
<polygon fill="none" stroke="black" points="55.67,-361.2 55.67,-392 317.16,-392 317.16,-361.2 55.67,-361.2"/>
<text text-anchor="start" x="62.67" y="-373.4" font-family="Arial" font-size="14.00">currencyId </text>
<text text-anchor="start" x="131.92" y="-373.4" font-family="Arial" font-size="14.00" fill="#666666">[varchar(255)]</text>
<polygon fill="none" stroke="black" points="55.67,-330.4 55.67,-361.2 317.16,-361.2 317.16,-330.4 55.67,-330.4"/>
<text text-anchor="start" x="62.67" y="-342.6" font-family="Arial" font-size="14.00">createdDate </text>
<text text-anchor="start" x="142.83" y="-342.6" font-family="Arial" font-size="14.00" fill="#666666">[datetime]</text>
</g>
<!-- quote&#45;&gt;transactionScenario -->
<g id="edge1" class="edge">
<title>quote:transactionScenarioId&#45;&gt;transactionScenario:transactionScenarioId</title>
<path fill="none" stroke="black" d="M328.09,-528.75C402.5,-500.34 407.91,-154 327.63,-154"/>
<polygon fill="black" stroke="black" points="328.32,-528.71 317.67,-526.11 323.08,-529.68 318.82,-530.48 318.82,-530.48 318.82,-530.48 323.08,-529.68 319.32,-534.96 328.32,-528.71"/>
<text text-anchor="start" x="325.16" y="-540.6" font-family="Arial" font-size="10.00">FOREIGN KEY (transactionScenarioId) REFERENCES transactionScenario (transactionScenarioId)</text>
</g>
</g>
</svg>
