<?xml version="1.0" encoding="UTF-8" standalone="no"?>
<!DOCTYPE svg PUBLIC "-//W3C//DTD SVG 1.1//EN"
 "http://www.w3.org/Graphics/SVG/1.1/DTD/svg11.dtd">
<!-- Generated by graphviz version 12.1.2 (20240928.0832)
 -->
<!-- Title: transferFulfilment Pages: 1 -->
<svg width="1123pt" height="602pt"
 viewBox="0.00 0.00 1123.24 602.00" xmlns="http://www.w3.org/2000/svg" xmlns:xlink="http://www.w3.org/1999/xlink">
<g id="graph0" class="graph" transform="scale(1 1) rotate(0) translate(4 598)">
<title>transferFulfilment</title>
<polygon fill="white" stroke="none" points="-4,4 -4,-598 1119.24,-598 1119.24,4 -4,4"/>
<!-- transferFulfilment -->
<g id="node1" class="node">
<title>transferFulfilment</title>
<polygon fill="#efefef" stroke="none" points="407.89,-512.2 407.89,-547.8 677.34,-547.8 677.34,-512.2 407.89,-512.2"/>
<polygon fill="none" stroke="black" points="407.89,-512.2 407.89,-547.8 677.34,-547.8 677.34,-512.2 407.89,-512.2"/>
<text text-anchor="start" x="414.89" y="-525.6" font-family="Arial Bold" font-size="18.00">transferFulfilment</text>
<text text-anchor="start" x="545.85" y="-525.6" font-family="Arial" font-size="14.00">    </text>
<text text-anchor="start" x="576.97" y="-525.6" font-family="Arial" font-size="14.00" fill="#666666">[BASE TABLE]</text>
<polygon fill="none" stroke="black" points="407.89,-481.4 407.89,-512.2 677.34,-512.2 677.34,-481.4 407.89,-481.4"/>
<text text-anchor="start" x="414.89" y="-493.6" font-family="Arial" font-size="14.00">transferId </text>
<text text-anchor="start" x="477.91" y="-493.6" font-family="Arial" font-size="14.00" fill="#666666">[varchar(36)]</text>
<polygon fill="none" stroke="black" points="407.89,-450.6 407.89,-481.4 677.34,-481.4 677.34,-450.6 407.89,-450.6"/>
<text text-anchor="start" x="414.89" y="-462.8" font-family="Arial" font-size="14.00">ilpFulfilment </text>
<text text-anchor="start" x="493.46" y="-462.8" font-family="Arial" font-size="14.00" fill="#666666">[varchar(256)]</text>
<polygon fill="none" stroke="black" points="407.89,-419.8 407.89,-450.6 677.34,-450.6 677.34,-419.8 407.89,-419.8"/>
<text text-anchor="start" x="414.89" y="-432" font-family="Arial" font-size="14.00">completedDate </text>
<text text-anchor="start" x="512.94" y="-432" font-family="Arial" font-size="14.00" fill="#666666">[datetime]</text>
<polygon fill="none" stroke="black" points="407.89,-389 407.89,-419.8 677.34,-419.8 677.34,-389 407.89,-389"/>
<text text-anchor="start" x="414.89" y="-401.2" font-family="Arial" font-size="14.00">isValid </text>
<text text-anchor="start" x="460.02" y="-401.2" font-family="Arial" font-size="14.00" fill="#666666">[tinyint(1)]</text>
<polygon fill="none" stroke="black" points="407.89,-358.2 407.89,-389 677.34,-389 677.34,-358.2 407.89,-358.2"/>
<text text-anchor="start" x="414.89" y="-370.4" font-family="Arial" font-size="14.00">settlementWindowId </text>
<text text-anchor="start" x="544.83" y="-370.4" font-family="Arial" font-size="14.00" fill="#666666">[bigint unsigned]</text>
<polygon fill="none" stroke="black" points="407.89,-327.4 407.89,-358.2 677.34,-358.2 677.34,-327.4 407.89,-327.4"/>
<text text-anchor="start" x="414.89" y="-339.6" font-family="Arial" font-size="14.00">createdDate </text>
<text text-anchor="start" x="495.04" y="-339.6" font-family="Arial" font-size="14.00" fill="#666666">[datetime]</text>
<polygon fill="none" stroke="black" stroke-width="3" points="406.39,-325.9 406.39,-549.3 678.84,-549.3 678.84,-325.9 406.39,-325.9"/>
</g>
<!-- transferFulfilmentDuplicateCheck -->
<g id="node2" class="node">
<title>transferFulfilmentDuplicateCheck</title>
<polygon fill="#efefef" stroke="none" points="132.91,-151 132.91,-186.6 518.32,-186.6 518.32,-151 132.91,-151"/>
<polygon fill="none" stroke="black" points="132.91,-151 132.91,-186.6 518.32,-186.6 518.32,-151 132.91,-151"/>
<text text-anchor="start" x="139.91" y="-164.4" font-family="Arial Bold" font-size="18.00">transferFulfilmentDuplicateCheck</text>
<text text-anchor="start" x="386.83" y="-164.4" font-family="Arial" font-size="14.00">    </text>
<text text-anchor="start" x="417.95" y="-164.4" font-family="Arial" font-size="14.00" fill="#666666">[BASE TABLE]</text>
<polygon fill="none" stroke="black" points="132.91,-120.2 132.91,-151 518.32,-151 518.32,-120.2 132.91,-120.2"/>
<text text-anchor="start" x="139.91" y="-132.4" font-family="Arial" font-size="14.00">transferId </text>
<text text-anchor="start" x="202.94" y="-132.4" font-family="Arial" font-size="14.00" fill="#666666">[varchar(36)]</text>
<polygon fill="none" stroke="black" points="132.91,-89.4 132.91,-120.2 518.32,-120.2 518.32,-89.4 132.91,-89.4"/>
<text text-anchor="start" x="139.91" y="-101.6" font-family="Arial" font-size="14.00">hash </text>
<text text-anchor="start" x="174.16" y="-101.6" font-family="Arial" font-size="14.00" fill="#666666">[varchar(256)]</text>
<polygon fill="none" stroke="black" points="132.91,-58.6 132.91,-89.4 518.32,-89.4 518.32,-58.6 132.91,-58.6"/>
<text text-anchor="start" x="139.91" y="-70.8" font-family="Arial" font-size="14.00">createdDate </text>
<text text-anchor="start" x="220.07" y="-70.8" font-family="Arial" font-size="14.00" fill="#666666">[datetime]</text>
</g>
<!-- transferFulfilment&#45;&gt;transferFulfilmentDuplicateCheck -->
<g id="edge1" class="edge">
<title>transferFulfilment:transferId&#45;&gt;transferFulfilmentDuplicateCheck:transferId</title>
<path fill="none" stroke="black" d="M396.54,-496.22C314.51,-486.6 358.15,-358.81 407.89,-281.2 437.1,-235.62 488.97,-275.29 518.32,-229.8 541.01,-194.62 561.19,-135.6 519.32,-135.6"/>
<polygon fill="black" stroke="black" points="396.57,-496.22 406.3,-501.27 401.89,-496.52 406.22,-496.76 406.22,-496.76 406.22,-496.76 401.89,-496.52 406.8,-492.29 396.57,-496.22"/>
<text text-anchor="start" x="7" y="-506.8" font-family="Arial" font-size="10.00">FOREIGN KEY (transferId) REFERENCES transferFulfilmentDuplicateCheck (transferId)</text>
</g>
<!-- settlementWindow -->
<g id="node3" class="node">
<title>settlementWindow</title>
<polygon fill="#efefef" stroke="none" points="622.39,-166.4 622.39,-202 896.84,-202 896.84,-166.4 622.39,-166.4"/>
<polygon fill="none" stroke="black" points="622.39,-166.4 622.39,-202 896.84,-202 896.84,-166.4 622.39,-166.4"/>
<text text-anchor="start" x="629.39" y="-179.8" font-family="Arial Bold" font-size="18.00">settlementWindow</text>
<text text-anchor="start" x="765.35" y="-179.8" font-family="Arial" font-size="14.00">    </text>
<text text-anchor="start" x="796.47" y="-179.8" font-family="Arial" font-size="14.00" fill="#666666">[BASE TABLE]</text>
<polygon fill="none" stroke="black" points="622.39,-135.6 622.39,-166.4 896.84,-166.4 896.84,-135.6 622.39,-135.6"/>
<text text-anchor="start" x="629.39" y="-147.8" font-family="Arial" font-size="14.00">settlementWindowId </text>
<text text-anchor="start" x="759.33" y="-147.8" font-family="Arial" font-size="14.00" fill="#666666">[bigint unsigned]</text>
<polygon fill="none" stroke="black" points="622.39,-104.8 622.39,-135.6 896.84,-135.6 896.84,-104.8 622.39,-104.8"/>
<text text-anchor="start" x="629.39" y="-117" font-family="Arial" font-size="14.00">reason </text>
<text text-anchor="start" x="676.08" y="-117" font-family="Arial" font-size="14.00" fill="#666666">[varchar(512)]</text>
<polygon fill="none" stroke="black" points="622.39,-74 622.39,-104.8 896.84,-104.8 896.84,-74 622.39,-74"/>
<text text-anchor="start" x="629.39" y="-86.2" font-family="Arial" font-size="14.00">createdDate </text>
<text text-anchor="start" x="709.54" y="-86.2" font-family="Arial" font-size="14.00" fill="#666666">[datetime]</text>
<polygon fill="none" stroke="black" points="622.39,-43.2 622.39,-74 896.84,-74 896.84,-43.2 622.39,-43.2"/>
<text text-anchor="start" x="629.39" y="-55.4" font-family="Arial" font-size="14.00">currentStateChangeId </text>
<text text-anchor="start" x="770.25" y="-55.4" font-family="Arial" font-size="14.00" fill="#666666">[bigint unsigned]</text>
</g>
<!-- transferFulfilment&#45;&gt;settlementWindow -->
<g id="edge2" class="edge">
<title>transferFulfilment:settlementWindowId&#45;&gt;settlementWindow:settlementWindowId</title>
<path fill="none" stroke="black" d="M688.62,-372.06C715.07,-362.78 695.13,-313.71 677.34,-281.2 663.32,-255.59 636.4,-270.81 622.39,-245.2 602.29,-208.47 579.52,-151 621.39,-151"/>
<polygon fill="black" stroke="black" points="688.56,-372.07 678,-369.1 683.29,-372.86 679,-373.5 679,-373.5 679,-373.5 683.29,-372.86 679.34,-378 688.56,-372.07"/>
<text text-anchor="start" x="685.34" y="-383.6" font-family="Arial" font-size="10.00">FOREIGN KEY (settlementWindowId) REFERENCES settlementWindow (settlementWindowId)</text>
</g>
</g>
</svg>
