<?xml version="1.0" encoding="UTF-8" standalone="no"?>
<!DOCTYPE svg PUBLIC "-//W3C//DTD SVG 1.1//EN"
 "http://www.w3.org/Graphics/SVG/1.1/DTD/svg11.dtd">
<!-- Generated by graphviz version 12.1.2 (20240928.0832)
 -->
<!-- Title: transferTimeout Pages: 1 -->
<svg width="603pt" height="602pt"
 viewBox="0.00 0.00 603.15 602.00" xmlns="http://www.w3.org/2000/svg" xmlns:xlink="http://www.w3.org/1999/xlink">
<g id="graph0" class="graph" transform="scale(1 1) rotate(0) translate(4 598)">
<title>transferTimeout</title>
<polygon fill="white" stroke="none" points="-4,4 -4,-598 599.15,-598 599.15,4 -4,4"/>
<!-- transferTimeout -->
<g id="node1" class="node">
<title>transferTimeout</title>
<polygon fill="#efefef" stroke="none" points="46.2,-512.2 46.2,-547.8 300.64,-547.8 300.64,-512.2 46.2,-512.2"/>
<polygon fill="none" stroke="black" points="46.2,-512.2 46.2,-547.8 300.64,-547.8 300.64,-512.2 46.2,-512.2"/>
<text text-anchor="start" x="53.2" y="-525.6" font-family="Arial Bold" font-size="18.00">transferTimeout</text>
<text text-anchor="start" x="169.15" y="-525.6" font-family="Arial" font-size="14.00">    </text>
<text text-anchor="start" x="200.27" y="-525.6" font-family="Arial" font-size="14.00" fill="#666666">[BASE TABLE]</text>
<polygon fill="none" stroke="black" points="46.2,-481.4 46.2,-512.2 300.64,-512.2 300.64,-481.4 46.2,-481.4"/>
<text text-anchor="start" x="53.2" y="-493.6" font-family="Arial" font-size="14.00">transferTimeoutId </text>
<text text-anchor="start" x="166.8" y="-493.6" font-family="Arial" font-size="14.00" fill="#666666">[bigint unsigned]</text>
<polygon fill="none" stroke="black" points="46.2,-450.6 46.2,-481.4 300.64,-481.4 300.64,-450.6 46.2,-450.6"/>
<text text-anchor="start" x="53.2" y="-462.8" font-family="Arial" font-size="14.00">transferId </text>
<text text-anchor="start" x="116.23" y="-462.8" font-family="Arial" font-size="14.00" fill="#666666">[varchar(36)]</text>
<polygon fill="none" stroke="black" points="46.2,-419.8 46.2,-450.6 300.64,-450.6 300.64,-419.8 46.2,-419.8"/>
<text text-anchor="start" x="53.2" y="-432" font-family="Arial" font-size="14.00">expirationDate </text>
<text text-anchor="start" x="147.37" y="-432" font-family="Arial" font-size="14.00" fill="#666666">[datetime]</text>
<polygon fill="none" stroke="black" points="46.2,-389 46.2,-419.8 300.64,-419.8 300.64,-389 46.2,-389"/>
<text text-anchor="start" x="53.2" y="-401.2" font-family="Arial" font-size="14.00">createdDate </text>
<text text-anchor="start" x="133.36" y="-401.2" font-family="Arial" font-size="14.00" fill="#666666">[datetime]</text>
<polygon fill="none" stroke="black" stroke-width="3" points="44.7,-387.5 44.7,-549.3 302.14,-549.3 302.14,-387.5 44.7,-387.5"/>
</g>
<!-- transfer -->
<g id="node2" class="node">
<title>transfer</title>
<polygon fill="#efefef" stroke="none" points="76.69,-228 76.69,-263.6 270.15,-263.6 270.15,-228 76.69,-228"/>
<polygon fill="none" stroke="black" points="76.69,-228 76.69,-263.6 270.15,-263.6 270.15,-228 76.69,-228"/>
<text text-anchor="start" x="83.69" y="-241.4" font-family="Arial Bold" font-size="18.00">transfer</text>
<text text-anchor="start" x="138.66" y="-241.4" font-family="Arial" font-size="14.00">    </text>
<text text-anchor="start" x="169.78" y="-241.4" font-family="Arial" font-size="14.00" fill="#666666">[BASE TABLE]</text>
<polygon fill="none" stroke="black" points="76.69,-197.2 76.69,-228 270.15,-228 270.15,-197.2 76.69,-197.2"/>
<text text-anchor="start" x="83.69" y="-209.4" font-family="Arial" font-size="14.00">transferId </text>
<text text-anchor="start" x="146.72" y="-209.4" font-family="Arial" font-size="14.00" fill="#666666">[varchar(36)]</text>
<polygon fill="none" stroke="black" points="76.69,-166.4 76.69,-197.2 270.15,-197.2 270.15,-166.4 76.69,-166.4"/>
<text text-anchor="start" x="83.69" y="-178.6" font-family="Arial" font-size="14.00">amount </text>
<text text-anchor="start" x="134.28" y="-178.6" font-family="Arial" font-size="14.00" fill="#666666">[decimal(18,4)]</text>
<polygon fill="none" stroke="black" points="76.69,-135.6 76.69,-166.4 270.15,-166.4 270.15,-135.6 76.69,-135.6"/>
<text text-anchor="start" x="83.69" y="-147.8" font-family="Arial" font-size="14.00">currencyId </text>
<text text-anchor="start" x="152.94" y="-147.8" font-family="Arial" font-size="14.00" fill="#666666">[varchar(3)]</text>
<polygon fill="none" stroke="black" points="76.69,-104.8 76.69,-135.6 270.15,-135.6 270.15,-104.8 76.69,-104.8"/>
<text text-anchor="start" x="83.69" y="-117" font-family="Arial" font-size="14.00">ilpCondition </text>
<text text-anchor="start" x="160.74" y="-117" font-family="Arial" font-size="14.00" fill="#666666">[varchar(256)]</text>
<polygon fill="none" stroke="black" points="76.69,-74 76.69,-104.8 270.15,-104.8 270.15,-74 76.69,-74"/>
<text text-anchor="start" x="83.69" y="-86.2" font-family="Arial" font-size="14.00">expirationDate </text>
<text text-anchor="start" x="177.86" y="-86.2" font-family="Arial" font-size="14.00" fill="#666666">[datetime]</text>
<polygon fill="none" stroke="black" points="76.69,-43.2 76.69,-74 270.15,-74 270.15,-43.2 76.69,-43.2"/>
<text text-anchor="start" x="83.69" y="-55.4" font-family="Arial" font-size="14.00">createdDate </text>
<text text-anchor="start" x="163.85" y="-55.4" font-family="Arial" font-size="14.00" fill="#666666">[datetime]</text>
</g>
<!-- transferTimeout&#45;&gt;transfer -->
<g id="edge1" class="edge">
<title>transferTimeout:transferId&#45;&gt;transfer:transferId</title>
<path fill="none" stroke="black" d="M311.86,-465.27C413.09,-450.41 381.04,-212.6 271.15,-212.6"/>
<polygon fill="black" stroke="black" points="311.95,-465.27 301.66,-461.49 306.63,-465.65 302.31,-465.95 302.31,-465.95 302.31,-465.95 306.63,-465.65 302.3,-470.46 311.95,-465.27"/>
<text text-anchor="start" x="308.64" y="-476" font-family="Arial" font-size="10.00">FOREIGN KEY (transferId) REFERENCES transfer (transferId)</text>
</g>
</g>
</svg>
