<?xml version="1.0" encoding="UTF-8" standalone="no"?>
<!DOCTYPE svg PUBLIC "-//W3C//DTD SVG 1.1//EN"
 "http://www.w3.org/Graphics/SVG/1.1/DTD/svg11.dtd">
<!-- Generated by graphviz version 12.1.2 (20240928.0832)
 -->
<!-- Title: transactionSubScenario Pages: 1 -->
<svg width="851pt" height="848pt"
 viewBox="0.00 0.00 850.50 848.40" xmlns="http://www.w3.org/2000/svg" xmlns:xlink="http://www.w3.org/1999/xlink">
<g id="graph0" class="graph" transform="scale(1 1) rotate(0) translate(4 844.4)">
<title>transactionSubScenario</title>
<polygon fill="white" stroke="none" points="-4,4 -4,-844.4 846.5,-844.4 846.5,4 -4,4"/>
<!-- transactionSubScenario -->
<g id="node1" class="node">
<title>transactionSubScenario</title>
<polygon fill="#efefef" stroke="none" points="46.2,-169.4 46.2,-205 354.64,-205 354.64,-169.4 46.2,-169.4"/>
<polygon fill="none" stroke="black" points="46.2,-169.4 46.2,-205 354.64,-205 354.64,-169.4 46.2,-169.4"/>
<text text-anchor="start" x="53.2" y="-182.8" font-family="Arial Bold" font-size="18.00">transactionSubScenario</text>
<text text-anchor="start" x="223.15" y="-182.8" font-family="Arial" font-size="14.00">    </text>
<text text-anchor="start" x="254.27" y="-182.8" font-family="Arial" font-size="14.00" fill="#666666">[BASE TABLE]</text>
<polygon fill="none" stroke="black" points="46.2,-138.6 46.2,-169.4 354.64,-169.4 354.64,-138.6 46.2,-138.6"/>
<text text-anchor="start" x="53.2" y="-150.8" font-family="Arial" font-size="14.00">transactionSubScenarioId </text>
<text text-anchor="start" x="217.41" y="-150.8" font-family="Arial" font-size="14.00" fill="#666666">[int unsigned]</text>
<polygon fill="none" stroke="black" points="46.2,-107.8 46.2,-138.6 354.64,-138.6 354.64,-107.8 46.2,-107.8"/>
<text text-anchor="start" x="53.2" y="-120" font-family="Arial" font-size="14.00">name </text>
<text text-anchor="start" x="92.11" y="-120" font-family="Arial" font-size="14.00" fill="#666666">[varchar(256)]</text>
<polygon fill="none" stroke="black" points="46.2,-77 46.2,-107.8 354.64,-107.8 354.64,-77 46.2,-77"/>
<text text-anchor="start" x="53.2" y="-89.2" font-family="Arial" font-size="14.00">description </text>
<text text-anchor="start" x="124.79" y="-89.2" font-family="Arial" font-size="14.00" fill="#666666">[varchar(1024)]</text>
<polygon fill="none" stroke="black" points="46.2,-46.2 46.2,-77 354.64,-77 354.64,-46.2 46.2,-46.2"/>
<text text-anchor="start" x="53.2" y="-58.4" font-family="Arial" font-size="14.00">createdDate </text>
<text text-anchor="start" x="133.36" y="-58.4" font-family="Arial" font-size="14.00" fill="#666666">[datetime]</text>
<polygon fill="none" stroke="black" stroke-width="3" points="44.7,-44.7 44.7,-206.5 356.14,-206.5 356.14,-44.7 44.7,-44.7"/>
</g>
<!-- quote -->
<g id="node2" class="node">
<title>quote</title>
<polygon fill="#efefef" stroke="none" points="69.67,-761.6 69.67,-797.2 331.17,-797.2 331.17,-761.6 69.67,-761.6"/>
<polygon fill="none" stroke="black" points="69.67,-761.6 69.67,-797.2 331.17,-797.2 331.17,-761.6 69.67,-761.6"/>
<text text-anchor="start" x="118.18" y="-775" font-family="Arial Bold" font-size="18.00">quote</text>
<text text-anchor="start" x="158.17" y="-775" font-family="Arial" font-size="14.00">    </text>
<text text-anchor="start" x="189.29" y="-775" font-family="Arial" font-size="14.00" fill="#666666">[BASE TABLE]</text>
<polygon fill="none" stroke="black" points="69.67,-730.8 69.67,-761.6 331.17,-761.6 331.17,-730.8 69.67,-730.8"/>
<text text-anchor="start" x="76.67" y="-743" font-family="Arial" font-size="14.00">quoteId </text>
<text text-anchor="start" x="127.27" y="-743" font-family="Arial" font-size="14.00" fill="#666666">[varchar(36)]</text>
<polygon fill="none" stroke="black" points="69.67,-700 69.67,-730.8 331.17,-730.8 331.17,-700 69.67,-700"/>
<text text-anchor="start" x="76.67" y="-712.2" font-family="Arial" font-size="14.00">transactionReferenceId </text>
<text text-anchor="start" x="225.31" y="-712.2" font-family="Arial" font-size="14.00" fill="#666666">[varchar(36)]</text>
<polygon fill="none" stroke="black" points="69.67,-669.2 69.67,-700 331.17,-700 331.17,-669.2 69.67,-669.2"/>
<text text-anchor="start" x="76.67" y="-681.4" font-family="Arial" font-size="14.00">transactionRequestId </text>
<text text-anchor="start" x="212.87" y="-681.4" font-family="Arial" font-size="14.00" fill="#666666">[varchar(36)]</text>
<polygon fill="none" stroke="black" points="69.67,-638.4 69.67,-669.2 331.17,-669.2 331.17,-638.4 69.67,-638.4"/>
<text text-anchor="start" x="76.67" y="-650.6" font-family="Arial" font-size="14.00">note </text>
<text text-anchor="start" x="107.81" y="-650.6" font-family="Arial" font-size="14.00" fill="#666666">[text]</text>
<polygon fill="none" stroke="black" points="69.67,-607.6 69.67,-638.4 331.17,-638.4 331.17,-607.6 69.67,-607.6"/>
<text text-anchor="start" x="76.67" y="-619.8" font-family="Arial" font-size="14.00">expirationDate </text>
<text text-anchor="start" x="170.84" y="-619.8" font-family="Arial" font-size="14.00" fill="#666666">[datetime]</text>
<polygon fill="none" stroke="black" points="69.67,-576.8 69.67,-607.6 331.17,-607.6 331.17,-576.8 69.67,-576.8"/>
<text text-anchor="start" x="76.67" y="-589" font-family="Arial" font-size="14.00">transactionInitiatorId </text>
<text text-anchor="start" x="206.63" y="-589" font-family="Arial" font-size="14.00" fill="#666666">[int unsigned]</text>
<polygon fill="none" stroke="black" points="69.67,-546 69.67,-576.8 331.17,-576.8 331.17,-546 69.67,-546"/>
<text text-anchor="start" x="76.67" y="-558.2" font-family="Arial" font-size="14.00">transactionInitiatorTypeId </text>
<text text-anchor="start" x="237.76" y="-558.2" font-family="Arial" font-size="14.00" fill="#666666">[int unsigned]</text>
<polygon fill="none" stroke="black" points="69.67,-515.2 69.67,-546 331.17,-546 331.17,-515.2 69.67,-515.2"/>
<text text-anchor="start" x="76.67" y="-527.4" font-family="Arial" font-size="14.00">transactionScenarioId </text>
<text text-anchor="start" x="215.98" y="-527.4" font-family="Arial" font-size="14.00" fill="#666666">[int unsigned]</text>
<polygon fill="none" stroke="black" points="69.67,-484.4 69.67,-515.2 331.17,-515.2 331.17,-484.4 69.67,-484.4"/>
<text text-anchor="start" x="76.67" y="-496.6" font-family="Arial" font-size="14.00">balanceOfPaymentsId </text>
<text text-anchor="start" x="218.31" y="-496.6" font-family="Arial" font-size="14.00" fill="#666666">[int unsigned]</text>
<polygon fill="none" stroke="black" points="69.67,-453.6 69.67,-484.4 331.17,-484.4 331.17,-453.6 69.67,-453.6"/>
<text text-anchor="start" x="76.67" y="-465.8" font-family="Arial" font-size="14.00">transactionSubScenarioId </text>
<text text-anchor="start" x="240.89" y="-465.8" font-family="Arial" font-size="14.00" fill="#666666">[int unsigned]</text>
<polygon fill="none" stroke="black" points="69.67,-422.8 69.67,-453.6 331.17,-453.6 331.17,-422.8 69.67,-422.8"/>
<text text-anchor="start" x="76.67" y="-435" font-family="Arial" font-size="14.00">amountTypeId </text>
<text text-anchor="start" x="170.06" y="-435" font-family="Arial" font-size="14.00" fill="#666666">[int unsigned]</text>
<polygon fill="none" stroke="black" points="69.67,-392 69.67,-422.8 331.17,-422.8 331.17,-392 69.67,-392"/>
<text text-anchor="start" x="76.67" y="-404.2" font-family="Arial" font-size="14.00">amount </text>
<text text-anchor="start" x="127.26" y="-404.2" font-family="Arial" font-size="14.00" fill="#666666">[decimal(18,4)]</text>
<polygon fill="none" stroke="black" points="69.67,-361.2 69.67,-392 331.17,-392 331.17,-361.2 69.67,-361.2"/>
<text text-anchor="start" x="76.67" y="-373.4" font-family="Arial" font-size="14.00">currencyId </text>
<text text-anchor="start" x="145.92" y="-373.4" font-family="Arial" font-size="14.00" fill="#666666">[varchar(255)]</text>
<polygon fill="none" stroke="black" points="69.67,-330.4 69.67,-361.2 331.17,-361.2 331.17,-330.4 69.67,-330.4"/>
<text text-anchor="start" x="76.67" y="-342.6" font-family="Arial" font-size="14.00">createdDate </text>
<text text-anchor="start" x="156.83" y="-342.6" font-family="Arial" font-size="14.00" fill="#666666">[datetime]</text>
</g>
<!-- quote&#45;&gt;transactionSubScenario -->
<g id="edge1" class="edge">
<title>quote:transactionSubScenarioId&#45;&gt;transactionSubScenario:transactionSubScenarioId</title>
<path fill="none" stroke="black" d="M342.11,-466.82C404.43,-438.99 422.41,-154 355.64,-154"/>
<polygon fill="black" stroke="black" points="342.26,-466.79 331.53,-464.53 337.05,-467.93 332.82,-468.86 332.82,-468.86 332.82,-468.86 337.05,-467.93 333.46,-473.32 342.26,-466.79"/>
<text text-anchor="start" x="339.17" y="-479" font-family="Arial" font-size="10.00">FOREIGN KEY (transactionSubScenarioId) REFERENCES transactionSubScenario (transactionSubScenarioId)</text>
</g>
</g>
</svg>
