<?xml version="1.0" encoding="UTF-8" standalone="no"?>
<!DOCTYPE svg PUBLIC "-//W3C//DTD SVG 1.1//EN"
 "http://www.w3.org/Graphics/SVG/1.1/DTD/svg11.dtd">
<!-- Generated by graphviz version 12.1.2 (20240928.0832)
 -->
<!-- Title: transferErrorDuplicateCheck Pages: 1 -->
<svg width="696pt" height="571pt"
 viewBox="0.00 0.00 696.09 571.20" xmlns="http://www.w3.org/2000/svg" xmlns:xlink="http://www.w3.org/1999/xlink">
<g id="graph0" class="graph" transform="scale(1 1) rotate(0) translate(4 567.2)">
<title>transferErrorDuplicateCheck</title>
<polygon fill="white" stroke="none" points="-4,4 -4,-567.2 692.09,-567.2 692.09,4 -4,4"/>
<!-- transferErrorDuplicateCheck -->
<g id="node1" class="node">
<title>transferErrorDuplicateCheck</title>
<polygon fill="#efefef" stroke="none" points="46.2,-481.4 46.2,-517 393.59,-517 393.59,-481.4 46.2,-481.4"/>
<polygon fill="none" stroke="black" points="46.2,-481.4 46.2,-517 393.59,-517 393.59,-481.4 46.2,-481.4"/>
<text text-anchor="start" x="53.2" y="-494.8" font-family="Arial Bold" font-size="18.00">transferErrorDuplicateCheck</text>
<text text-anchor="start" x="262.1" y="-494.8" font-family="Arial" font-size="14.00">    </text>
<text text-anchor="start" x="293.22" y="-494.8" font-family="Arial" font-size="14.00" fill="#666666">[BASE TABLE]</text>
<polygon fill="none" stroke="black" points="46.2,-450.6 46.2,-481.4 393.59,-481.4 393.59,-450.6 46.2,-450.6"/>
<text text-anchor="start" x="53.2" y="-462.8" font-family="Arial" font-size="14.00">transferId </text>
<text text-anchor="start" x="116.23" y="-462.8" font-family="Arial" font-size="14.00" fill="#666666">[varchar(36)]</text>
<polygon fill="none" stroke="black" points="46.2,-419.8 46.2,-450.6 393.59,-450.6 393.59,-419.8 46.2,-419.8"/>
<text text-anchor="start" x="53.2" y="-432" font-family="Arial" font-size="14.00">hash </text>
<text text-anchor="start" x="87.45" y="-432" font-family="Arial" font-size="14.00" fill="#666666">[varchar(256)]</text>
<polygon fill="none" stroke="black" points="46.2,-389 46.2,-419.8 393.59,-419.8 393.59,-389 46.2,-389"/>
<text text-anchor="start" x="53.2" y="-401.2" font-family="Arial" font-size="14.00">createdDate </text>
<text text-anchor="start" x="133.36" y="-401.2" font-family="Arial" font-size="14.00" fill="#666666">[datetime]</text>
<polygon fill="none" stroke="black" stroke-width="3" points="44.7,-387.5 44.7,-518.5 395.09,-518.5 395.09,-387.5 44.7,-387.5"/>
</g>
<!-- transfer -->
<g id="node2" class="node">
<title>transfer</title>
<polygon fill="#efefef" stroke="none" points="123.17,-228 123.17,-263.6 316.62,-263.6 316.62,-228 123.17,-228"/>
<polygon fill="none" stroke="black" points="123.17,-228 123.17,-263.6 316.62,-263.6 316.62,-228 123.17,-228"/>
<text text-anchor="start" x="130.17" y="-241.4" font-family="Arial Bold" font-size="18.00">transfer</text>
<text text-anchor="start" x="185.13" y="-241.4" font-family="Arial" font-size="14.00">    </text>
<text text-anchor="start" x="216.25" y="-241.4" font-family="Arial" font-size="14.00" fill="#666666">[BASE TABLE]</text>
<polygon fill="none" stroke="black" points="123.17,-197.2 123.17,-228 316.62,-228 316.62,-197.2 123.17,-197.2"/>
<text text-anchor="start" x="130.17" y="-209.4" font-family="Arial" font-size="14.00">transferId </text>
<text text-anchor="start" x="193.19" y="-209.4" font-family="Arial" font-size="14.00" fill="#666666">[varchar(36)]</text>
<polygon fill="none" stroke="black" points="123.17,-166.4 123.17,-197.2 316.62,-197.2 316.62,-166.4 123.17,-166.4"/>
<text text-anchor="start" x="130.17" y="-178.6" font-family="Arial" font-size="14.00">amount </text>
<text text-anchor="start" x="180.75" y="-178.6" font-family="Arial" font-size="14.00" fill="#666666">[decimal(18,4)]</text>
<polygon fill="none" stroke="black" points="123.17,-135.6 123.17,-166.4 316.62,-166.4 316.62,-135.6 123.17,-135.6"/>
<text text-anchor="start" x="130.17" y="-147.8" font-family="Arial" font-size="14.00">currencyId </text>
<text text-anchor="start" x="199.41" y="-147.8" font-family="Arial" font-size="14.00" fill="#666666">[varchar(3)]</text>
<polygon fill="none" stroke="black" points="123.17,-104.8 123.17,-135.6 316.62,-135.6 316.62,-104.8 123.17,-104.8"/>
<text text-anchor="start" x="130.17" y="-117" font-family="Arial" font-size="14.00">ilpCondition </text>
<text text-anchor="start" x="207.21" y="-117" font-family="Arial" font-size="14.00" fill="#666666">[varchar(256)]</text>
<polygon fill="none" stroke="black" points="123.17,-74 123.17,-104.8 316.62,-104.8 316.62,-74 123.17,-74"/>
<text text-anchor="start" x="130.17" y="-86.2" font-family="Arial" font-size="14.00">expirationDate </text>
<text text-anchor="start" x="224.33" y="-86.2" font-family="Arial" font-size="14.00" fill="#666666">[datetime]</text>
<polygon fill="none" stroke="black" points="123.17,-43.2 123.17,-74 316.62,-74 316.62,-43.2 123.17,-43.2"/>
<text text-anchor="start" x="130.17" y="-55.4" font-family="Arial" font-size="14.00">createdDate </text>
<text text-anchor="start" x="210.32" y="-55.4" font-family="Arial" font-size="14.00" fill="#666666">[datetime]</text>
</g>
<!-- transferErrorDuplicateCheck&#45;&gt;transfer -->
<g id="edge1" class="edge">
<title>transferErrorDuplicateCheck:transferId&#45;&gt;transfer:transferId</title>
<path fill="none" stroke="black" d="M404.75,-465.32C507.59,-450.89 431.76,-212.6 317.62,-212.6"/>
<polygon fill="black" stroke="black" points="404.9,-465.31 394.62,-461.49 399.58,-465.66 395.26,-465.96 395.26,-465.96 395.26,-465.96 399.58,-465.66 395.22,-470.47 404.9,-465.31"/>
<text text-anchor="start" x="401.59" y="-476" font-family="Arial" font-size="10.00">FOREIGN KEY (transferId) REFERENCES transfer (transferId)</text>
</g>
</g>
</svg>
