<?xml version="1.0" encoding="UTF-8" standalone="no"?>
<!DOCTYPE svg PUBLIC "-//W3C//DTD SVG 1.1//EN"
 "http://www.w3.org/Graphics/SVG/1.1/DTD/svg11.dtd">
<!-- Generated by graphviz version 12.1.2 (20240928.0832)
 -->
<!-- Title: transactionInitiator Pages: 1 -->
<svg width="761pt" height="848pt"
 viewBox="0.00 0.00 760.60 848.40" xmlns="http://www.w3.org/2000/svg" xmlns:xlink="http://www.w3.org/1999/xlink">
<g id="graph0" class="graph" transform="scale(1 1) rotate(0) translate(4 844.4)">
<title>transactionInitiator</title>
<polygon fill="white" stroke="none" points="-4,4 -4,-844.4 756.6,-844.4 756.6,4 -4,4"/>
<!-- transactionInitiator -->
<g id="node1" class="node">
<title>transactionInitiator</title>
<polygon fill="#efefef" stroke="none" points="46.2,-169.4 46.2,-205 321.64,-205 321.64,-169.4 46.2,-169.4"/>
<polygon fill="none" stroke="black" points="46.2,-169.4 46.2,-205 321.64,-205 321.64,-169.4 46.2,-169.4"/>
<text text-anchor="start" x="53.2" y="-182.8" font-family="Arial Bold" font-size="18.00">transactionInitiator</text>
<text text-anchor="start" x="190.15" y="-182.8" font-family="Arial" font-size="14.00">    </text>
<text text-anchor="start" x="221.27" y="-182.8" font-family="Arial" font-size="14.00" fill="#666666">[BASE TABLE]</text>
<polygon fill="none" stroke="black" points="46.2,-138.6 46.2,-169.4 321.64,-169.4 321.64,-138.6 46.2,-138.6"/>
<text text-anchor="start" x="53.2" y="-150.8" font-family="Arial" font-size="14.00">transactionInitiatorId </text>
<text text-anchor="start" x="183.16" y="-150.8" font-family="Arial" font-size="14.00" fill="#666666">[int unsigned]</text>
<polygon fill="none" stroke="black" points="46.2,-107.8 46.2,-138.6 321.64,-138.6 321.64,-107.8 46.2,-107.8"/>
<text text-anchor="start" x="53.2" y="-120" font-family="Arial" font-size="14.00">name </text>
<text text-anchor="start" x="92.11" y="-120" font-family="Arial" font-size="14.00" fill="#666666">[varchar(256)]</text>
<polygon fill="none" stroke="black" points="46.2,-77 46.2,-107.8 321.64,-107.8 321.64,-77 46.2,-77"/>
<text text-anchor="start" x="53.2" y="-89.2" font-family="Arial" font-size="14.00">description </text>
<text text-anchor="start" x="124.79" y="-89.2" font-family="Arial" font-size="14.00" fill="#666666">[varchar(1024)]</text>
<polygon fill="none" stroke="black" points="46.2,-46.2 46.2,-77 321.64,-77 321.64,-46.2 46.2,-46.2"/>
<text text-anchor="start" x="53.2" y="-58.4" font-family="Arial" font-size="14.00">createdDate </text>
<text text-anchor="start" x="133.36" y="-58.4" font-family="Arial" font-size="14.00" fill="#666666">[datetime]</text>
<polygon fill="none" stroke="black" stroke-width="3" points="44.7,-44.7 44.7,-206.5 323.14,-206.5 323.14,-44.7 44.7,-44.7"/>
</g>
<!-- quote -->
<g id="node2" class="node">
<title>quote</title>
<polygon fill="#efefef" stroke="none" points="53.17,-761.6 53.17,-797.2 314.67,-797.2 314.67,-761.6 53.17,-761.6"/>
<polygon fill="none" stroke="black" points="53.17,-761.6 53.17,-797.2 314.67,-797.2 314.67,-761.6 53.17,-761.6"/>
<text text-anchor="start" x="101.68" y="-775" font-family="Arial Bold" font-size="18.00">quote</text>
<text text-anchor="start" x="141.67" y="-775" font-family="Arial" font-size="14.00">    </text>
<text text-anchor="start" x="172.79" y="-775" font-family="Arial" font-size="14.00" fill="#666666">[BASE TABLE]</text>
<polygon fill="none" stroke="black" points="53.17,-730.8 53.17,-761.6 314.67,-761.6 314.67,-730.8 53.17,-730.8"/>
<text text-anchor="start" x="60.17" y="-743" font-family="Arial" font-size="14.00">quoteId </text>
<text text-anchor="start" x="110.77" y="-743" font-family="Arial" font-size="14.00" fill="#666666">[varchar(36)]</text>
<polygon fill="none" stroke="black" points="53.17,-700 53.17,-730.8 314.67,-730.8 314.67,-700 53.17,-700"/>
<text text-anchor="start" x="60.17" y="-712.2" font-family="Arial" font-size="14.00">transactionReferenceId </text>
<text text-anchor="start" x="208.81" y="-712.2" font-family="Arial" font-size="14.00" fill="#666666">[varchar(36)]</text>
<polygon fill="none" stroke="black" points="53.17,-669.2 53.17,-700 314.67,-700 314.67,-669.2 53.17,-669.2"/>
<text text-anchor="start" x="60.17" y="-681.4" font-family="Arial" font-size="14.00">transactionRequestId </text>
<text text-anchor="start" x="196.37" y="-681.4" font-family="Arial" font-size="14.00" fill="#666666">[varchar(36)]</text>
<polygon fill="none" stroke="black" points="53.17,-638.4 53.17,-669.2 314.67,-669.2 314.67,-638.4 53.17,-638.4"/>
<text text-anchor="start" x="60.17" y="-650.6" font-family="Arial" font-size="14.00">note </text>
<text text-anchor="start" x="91.31" y="-650.6" font-family="Arial" font-size="14.00" fill="#666666">[text]</text>
<polygon fill="none" stroke="black" points="53.17,-607.6 53.17,-638.4 314.67,-638.4 314.67,-607.6 53.17,-607.6"/>
<text text-anchor="start" x="60.17" y="-619.8" font-family="Arial" font-size="14.00">expirationDate </text>
<text text-anchor="start" x="154.34" y="-619.8" font-family="Arial" font-size="14.00" fill="#666666">[datetime]</text>
<polygon fill="none" stroke="black" points="53.17,-576.8 53.17,-607.6 314.67,-607.6 314.67,-576.8 53.17,-576.8"/>
<text text-anchor="start" x="60.17" y="-589" font-family="Arial" font-size="14.00">transactionInitiatorId </text>
<text text-anchor="start" x="190.13" y="-589" font-family="Arial" font-size="14.00" fill="#666666">[int unsigned]</text>
<polygon fill="none" stroke="black" points="53.17,-546 53.17,-576.8 314.67,-576.8 314.67,-546 53.17,-546"/>
<text text-anchor="start" x="60.17" y="-558.2" font-family="Arial" font-size="14.00">transactionInitiatorTypeId </text>
<text text-anchor="start" x="221.25" y="-558.2" font-family="Arial" font-size="14.00" fill="#666666">[int unsigned]</text>
<polygon fill="none" stroke="black" points="53.17,-515.2 53.17,-546 314.67,-546 314.67,-515.2 53.17,-515.2"/>
<text text-anchor="start" x="60.17" y="-527.4" font-family="Arial" font-size="14.00">transactionScenarioId </text>
<text text-anchor="start" x="199.48" y="-527.4" font-family="Arial" font-size="14.00" fill="#666666">[int unsigned]</text>
<polygon fill="none" stroke="black" points="53.17,-484.4 53.17,-515.2 314.67,-515.2 314.67,-484.4 53.17,-484.4"/>
<text text-anchor="start" x="60.17" y="-496.6" font-family="Arial" font-size="14.00">balanceOfPaymentsId </text>
<text text-anchor="start" x="201.81" y="-496.6" font-family="Arial" font-size="14.00" fill="#666666">[int unsigned]</text>
<polygon fill="none" stroke="black" points="53.17,-453.6 53.17,-484.4 314.67,-484.4 314.67,-453.6 53.17,-453.6"/>
<text text-anchor="start" x="60.17" y="-465.8" font-family="Arial" font-size="14.00">transactionSubScenarioId </text>
<text text-anchor="start" x="224.39" y="-465.8" font-family="Arial" font-size="14.00" fill="#666666">[int unsigned]</text>
<polygon fill="none" stroke="black" points="53.17,-422.8 53.17,-453.6 314.67,-453.6 314.67,-422.8 53.17,-422.8"/>
<text text-anchor="start" x="60.17" y="-435" font-family="Arial" font-size="14.00">amountTypeId </text>
<text text-anchor="start" x="153.56" y="-435" font-family="Arial" font-size="14.00" fill="#666666">[int unsigned]</text>
<polygon fill="none" stroke="black" points="53.17,-392 53.17,-422.8 314.67,-422.8 314.67,-392 53.17,-392"/>
<text text-anchor="start" x="60.17" y="-404.2" font-family="Arial" font-size="14.00">amount </text>
<text text-anchor="start" x="110.76" y="-404.2" font-family="Arial" font-size="14.00" fill="#666666">[decimal(18,4)]</text>
<polygon fill="none" stroke="black" points="53.17,-361.2 53.17,-392 314.67,-392 314.67,-361.2 53.17,-361.2"/>
<text text-anchor="start" x="60.17" y="-373.4" font-family="Arial" font-size="14.00">currencyId </text>
<text text-anchor="start" x="129.42" y="-373.4" font-family="Arial" font-size="14.00" fill="#666666">[varchar(255)]</text>
<polygon fill="none" stroke="black" points="53.17,-330.4 53.17,-361.2 314.67,-361.2 314.67,-330.4 53.17,-330.4"/>
<text text-anchor="start" x="60.17" y="-342.6" font-family="Arial" font-size="14.00">createdDate </text>
<text text-anchor="start" x="140.33" y="-342.6" font-family="Arial" font-size="14.00" fill="#666666">[datetime]</text>
</g>
<!-- quote&#45;&gt;transactionInitiator -->
<g id="edge1" class="edge">
<title>quote:transactionInitiatorId&#45;&gt;transactionInitiator:transactionInitiatorId</title>
<path fill="none" stroke="black" d="M324.56,-586.97C365.03,-537.53 368.2,-154 322.64,-154"/>
<polygon fill="black" stroke="black" points="324.58,-586.96 313.68,-588.15 319.98,-589.67 316.24,-591.86 316.24,-591.86 316.24,-591.86 319.98,-589.67 318.24,-595.91 324.58,-586.96"/>
<text text-anchor="start" x="322.67" y="-602.2" font-family="Arial" font-size="10.00">FOREIGN KEY (transactionInitiatorId) REFERENCES transactionInitiator (transactionInitiatorId)</text>
</g>
</g>
</svg>
