<?xml version="1.0" encoding="UTF-8" standalone="no"?>
<!DOCTYPE svg PUBLIC "-//W3C//DTD SVG 1.1//EN"
 "http://www.w3.org/Graphics/SVG/1.1/DTD/svg11.dtd">
<!-- Generated by graphviz version 12.1.2 (20240928.0832)
 -->
<!-- Title: transferStateChange Pages: 1 -->
<svg width="1047pt" height="760pt"
 viewBox="0.00 0.00 1047.20 760.00" xmlns="http://www.w3.org/2000/svg" xmlns:xlink="http://www.w3.org/1999/xlink">
<g id="graph0" class="graph" transform="scale(1 1) rotate(0) translate(4 756)">
<title>transferStateChange</title>
<polygon fill="white" stroke="none" points="-4,4 -4,-756 1043.2,-756 1043.2,4 -4,4"/>
<!-- transferStateChange -->
<g id="node1" class="node">
<title>transferStateChange</title>
<polygon fill="#efefef" stroke="none" points="359.7,-358.2 359.7,-393.8 644.13,-393.8 644.13,-358.2 359.7,-358.2"/>
<polygon fill="none" stroke="black" points="359.7,-358.2 359.7,-393.8 644.13,-393.8 644.13,-358.2 359.7,-358.2"/>
<text text-anchor="start" x="366.7" y="-371.6" font-family="Arial Bold" font-size="18.00">transferStateChange</text>
<text text-anchor="start" x="512.64" y="-371.6" font-family="Arial" font-size="14.00">    </text>
<text text-anchor="start" x="543.76" y="-371.6" font-family="Arial" font-size="14.00" fill="#666666">[BASE TABLE]</text>
<polygon fill="none" stroke="black" points="359.7,-327.4 359.7,-358.2 644.13,-358.2 644.13,-327.4 359.7,-327.4"/>
<text text-anchor="start" x="366.7" y="-339.6" font-family="Arial" font-size="14.00">transferStateChangeId </text>
<text text-anchor="start" x="511.46" y="-339.6" font-family="Arial" font-size="14.00" fill="#666666">[bigint unsigned]</text>
<polygon fill="none" stroke="black" points="359.7,-296.6 359.7,-327.4 644.13,-327.4 644.13,-296.6 359.7,-296.6"/>
<text text-anchor="start" x="366.7" y="-308.8" font-family="Arial" font-size="14.00">transferId </text>
<text text-anchor="start" x="429.73" y="-308.8" font-family="Arial" font-size="14.00" fill="#666666">[varchar(36)]</text>
<polygon fill="none" stroke="black" points="359.7,-265.8 359.7,-296.6 644.13,-296.6 644.13,-265.8 359.7,-265.8"/>
<text text-anchor="start" x="366.7" y="-278" font-family="Arial" font-size="14.00">transferStateId </text>
<text text-anchor="start" x="462.42" y="-278" font-family="Arial" font-size="14.00" fill="#666666">[varchar(50)]</text>
<polygon fill="none" stroke="black" stroke-width="3" points="358.2,-264.3 358.2,-395.3 645.63,-395.3 645.63,-264.3 358.2,-264.3"/>
</g>
<!-- transfer -->
<g id="node4" class="node">
<title>transfer</title>
<polygon fill="#efefef" stroke="none" points="247.19,-104.8 247.19,-140.4 440.64,-140.4 440.64,-104.8 247.19,-104.8"/>
<polygon fill="none" stroke="black" points="247.19,-104.8 247.19,-140.4 440.64,-140.4 440.64,-104.8 247.19,-104.8"/>
<text text-anchor="start" x="254.19" y="-118.2" font-family="Arial Bold" font-size="18.00">transfer</text>
<text text-anchor="start" x="309.15" y="-118.2" font-family="Arial" font-size="14.00">    </text>
<text text-anchor="start" x="340.27" y="-118.2" font-family="Arial" font-size="14.00" fill="#666666">[BASE TABLE]</text>
<polygon fill="none" stroke="black" points="247.19,-74 247.19,-104.8 440.64,-104.8 440.64,-74 247.19,-74"/>
<text text-anchor="start" x="254.19" y="-86.2" font-family="Arial" font-size="14.00">transferId </text>
<text text-anchor="start" x="317.21" y="-86.2" font-family="Arial" font-size="14.00" fill="#666666">[varchar(36)]</text>
<polygon fill="none" stroke="black" points="247.19,-43.2 247.19,-74 440.64,-74 440.64,-43.2 247.19,-43.2"/>
<text text-anchor="start" x="254.19" y="-55.4" font-family="Arial" font-size="14.00">currencyId </text>
<text text-anchor="start" x="323.43" y="-55.4" font-family="Arial" font-size="14.00" fill="#666666">[varchar(3)]</text>
</g>
<!-- transferStateChange&#45;&gt;transfer -->
<g id="edge3" class="edge">
<title>transferStateChange:transferId&#45;&gt;transfer:transferId</title>
<path fill="none" stroke="black" d="M348.7,-310.54C321.31,-301.32 339.25,-250.7 359.7,-219.6 381.33,-186.7 419.02,-216.5 440.64,-183.6 463.64,-148.61 483.51,-89.4 441.64,-89.4"/>
<polygon fill="black" stroke="black" points="348.47,-310.5 357.72,-316.4 353.75,-311.28 358.04,-311.9 358.04,-311.9 358.04,-311.9 353.75,-311.28 359.02,-307.5 348.47,-310.5"/>
<text text-anchor="start" x="72.19" y="-322" font-family="Arial" font-size="10.00">FOREIGN KEY (transferId) REFERENCES transfer (transferId)</text>
</g>
<!-- transferState -->
<g id="node5" class="node">
<title>transferState</title>
<polygon fill="#efefef" stroke="none" points="545.19,-89.4 545.19,-125 774.64,-125 774.64,-89.4 545.19,-89.4"/>
<polygon fill="none" stroke="black" points="545.19,-89.4 545.19,-125 774.64,-125 774.64,-89.4 545.19,-89.4"/>
<text text-anchor="start" x="552.19" y="-102.8" font-family="Arial Bold" font-size="18.00">transferState</text>
<text text-anchor="start" x="643.15" y="-102.8" font-family="Arial" font-size="14.00">    </text>
<text text-anchor="start" x="674.27" y="-102.8" font-family="Arial" font-size="14.00" fill="#666666">[BASE TABLE]</text>
<polygon fill="none" stroke="black" points="545.19,-58.6 545.19,-89.4 774.64,-89.4 774.64,-58.6 545.19,-58.6"/>
<text text-anchor="start" x="552.19" y="-70.8" font-family="Arial" font-size="14.00">transferStateId </text>
<text text-anchor="start" x="647.91" y="-70.8" font-family="Arial" font-size="14.00" fill="#666666">[varchar(50)]</text>
</g>
<!-- transferStateChange&#45;&gt;transferState -->
<g id="edge4" class="edge">
<title>transferStateChange:transferStateId&#45;&gt;transferState:transferStateId</title>
<path fill="none" stroke="black" d="M655.09,-278.6C668.13,-269.59 656.28,-239.25 644.13,-219.6 618.06,-177.46 571.14,-210.42 545.19,-168.2 523.27,-132.53 502.32,-74 544.19,-74"/>
<polygon fill="black" stroke="black" points="655.13,-278.59 644.32,-276.76 649.97,-279.94 645.78,-281.03 645.78,-281.03 645.78,-281.03 649.97,-279.94 646.59,-285.47 655.13,-278.59"/>
<text text-anchor="start" x="652.13" y="-291.2" font-family="Arial" font-size="10.00">FOREIGN KEY (transferStateId) REFERENCES transferState (transferStateId)</text>
</g>
<!-- participantPositionChange -->
<g id="node2" class="node">
<title>participantPositionChange</title>
<polygon fill="#efefef" stroke="none" points="138.19,-673.2 138.19,-708.8 467.64,-708.8 467.64,-673.2 138.19,-673.2"/>
<polygon fill="none" stroke="black" points="138.19,-673.2 138.19,-708.8 467.64,-708.8 467.64,-673.2 138.19,-673.2"/>
<text text-anchor="start" x="145.19" y="-686.6" font-family="Arial Bold" font-size="18.00">participantPositionChange</text>
<text text-anchor="start" x="336.15" y="-686.6" font-family="Arial" font-size="14.00">    </text>
<text text-anchor="start" x="367.27" y="-686.6" font-family="Arial" font-size="14.00" fill="#666666">[BASE TABLE]</text>
<polygon fill="none" stroke="black" points="138.19,-642.4 138.19,-673.2 467.64,-673.2 467.64,-642.4 138.19,-642.4"/>
<text text-anchor="start" x="145.19" y="-654.6" font-family="Arial" font-size="14.00">participantPositionChangeId </text>
<text text-anchor="start" x="324.19" y="-654.6" font-family="Arial" font-size="14.00" fill="#666666">[bigint unsigned]</text>
<polygon fill="none" stroke="black" points="138.19,-611.6 138.19,-642.4 467.64,-642.4 467.64,-611.6 138.19,-611.6"/>
<text text-anchor="start" x="145.19" y="-623.8" font-family="Arial" font-size="14.00">participantPositionId </text>
<text text-anchor="start" x="275.15" y="-623.8" font-family="Arial" font-size="14.00" fill="#666666">[bigint unsigned]</text>
<polygon fill="none" stroke="black" points="138.19,-580.8 138.19,-611.6 467.64,-611.6 467.64,-580.8 138.19,-580.8"/>
<text text-anchor="start" x="145.19" y="-593" font-family="Arial" font-size="14.00">transferStateChangeId </text>
<text text-anchor="start" x="289.94" y="-593" font-family="Arial" font-size="14.00" fill="#666666">[bigint unsigned]</text>
<polygon fill="none" stroke="black" points="138.19,-550 138.19,-580.8 467.64,-580.8 467.64,-550 138.19,-550"/>
<text text-anchor="start" x="145.19" y="-562.2" font-family="Arial" font-size="14.00">participantCurrencyId </text>
<text text-anchor="start" x="282.14" y="-562.2" font-family="Arial" font-size="14.00" fill="#666666">[int unsigned]</text>
<polygon fill="none" stroke="black" points="138.19,-519.2 138.19,-550 467.64,-550 467.64,-519.2 138.19,-519.2"/>
<text text-anchor="start" x="145.19" y="-531.4" font-family="Arial" font-size="14.00">fxTransferStateChangeId </text>
<text text-anchor="start" x="305.5" y="-531.4" font-family="Arial" font-size="14.00" fill="#666666">[bigint unsigned]</text>
</g>
<!-- participantPositionChange&#45;&gt;transferStateChange -->
<g id="edge1" class="edge">
<title>participantPositionChange:transferStateChangeId&#45;&gt;transferStateChange:transferStateChangeId</title>
<path fill="none" stroke="black" d="M478.8,-595.1C518.79,-585.54 496.85,-516.17 467.64,-476 437.91,-435.09 389.48,-480.88 359.7,-440 334.26,-405.08 315.5,-342.8 358.7,-342.8"/>
<polygon fill="black" stroke="black" points="478.92,-595.08 468.49,-591.69 473.61,-595.66 469.31,-596.13 469.31,-596.13 469.31,-596.13 473.61,-595.66 469.46,-600.64 478.92,-595.08"/>
<text text-anchor="start" x="7" y="-606.2" font-family="Arial" font-size="10.00">FOREIGN KEY (transferStateChangeId) REFERENCES transferStateChange (transferStateChangeId)</text>
</g>
<!-- transferError -->
<g id="node3" class="node">
<title>transferError</title>
<polygon fill="#efefef" stroke="none" points="571.55,-627 571.55,-662.6 832.28,-662.6 832.28,-627 571.55,-627"/>
<polygon fill="none" stroke="black" points="571.55,-627 571.55,-662.6 832.28,-662.6 832.28,-627 571.55,-627"/>
<text text-anchor="start" x="593.2" y="-640.4" font-family="Arial Bold" font-size="18.00">transferError</text>
<text text-anchor="start" x="686.14" y="-640.4" font-family="Arial" font-size="14.00">    </text>
<text text-anchor="start" x="717.26" y="-640.4" font-family="Arial" font-size="14.00" fill="#666666">[BASE TABLE]</text>
<polygon fill="none" stroke="black" points="571.55,-596.2 571.55,-627 832.28,-627 832.28,-596.2 571.55,-596.2"/>
<text text-anchor="start" x="578.55" y="-608.4" font-family="Arial" font-size="14.00">transferId </text>
<text text-anchor="start" x="641.58" y="-608.4" font-family="Arial" font-size="14.00" fill="#666666">[varchar(36)]</text>
<polygon fill="none" stroke="black" points="571.55,-565.4 571.55,-596.2 832.28,-596.2 832.28,-565.4 571.55,-565.4"/>
<text text-anchor="start" x="578.55" y="-577.6" font-family="Arial" font-size="14.00">transferStateChangeId </text>
<text text-anchor="start" x="723.31" y="-577.6" font-family="Arial" font-size="14.00" fill="#666666">[bigint unsigned]</text>
</g>
<!-- transferError&#45;&gt;transferStateChange -->
<g id="edge2" class="edge">
<title>transferError:transferStateChangeId&#45;&gt;transferStateChange:transferStateChangeId</title>
<path fill="none" stroke="black" d="M560.73,-577.98C550.32,-569.3 563.75,-542.31 571.55,-522.2 589.19,-476.77 626.65,-485.49 644.13,-440 659.62,-399.67 688.33,-342.8 645.13,-342.8"/>
<polygon fill="black" stroke="black" points="560.62,-577.95 568.99,-585.03 565.75,-579.42 569.91,-580.62 569.91,-580.62 569.91,-580.62 565.75,-579.42 571.47,-576.38 560.62,-577.95"/>
<text text-anchor="start" x="577.55" y="-590.8" font-family="Arial" font-size="10.00">FOREIGN KEY (transferStateChangeId) REFERENCES transferStateChange (transferStateChangeId)</text>
</g>
</g>
</svg>
