<?xml version="1.0" encoding="UTF-8" standalone="no"?>
<!DOCTYPE svg PUBLIC "-//W3C//DTD SVG 1.1//EN"
 "http://www.w3.org/Graphics/SVG/1.1/DTD/svg11.dtd">
<!-- Generated by graphviz version 12.1.2 (20240928.0832)
 -->
<!-- Title: transactionReference Pages: 1 -->
<svg width="847pt" height="1068pt"
 viewBox="0.00 0.00 846.54 1068.00" xmlns="http://www.w3.org/2000/svg" xmlns:xlink="http://www.w3.org/1999/xlink">
<g id="graph0" class="graph" transform="scale(1 1) rotate(0) translate(4 1064)">
<title>transactionReference</title>
<polygon fill="white" stroke="none" points="-4,4 -4,-1064 842.54,-1064 842.54,4 -4,4"/>
<!-- transactionReference -->
<g id="node1" class="node">
<title>transactionReference</title>
<polygon fill="#efefef" stroke="none" points="208.75,-389 208.75,-424.6 499.15,-424.6 499.15,-389 208.75,-389"/>
<polygon fill="none" stroke="black" points="208.75,-389 208.75,-424.6 499.15,-424.6 499.15,-389 208.75,-389"/>
<text text-anchor="start" x="215.75" y="-402.4" font-family="Arial Bold" font-size="18.00">transactionReference</text>
<text text-anchor="start" x="367.66" y="-402.4" font-family="Arial" font-size="14.00">    </text>
<text text-anchor="start" x="398.78" y="-402.4" font-family="Arial" font-size="14.00" fill="#666666">[BASE TABLE]</text>
<polygon fill="none" stroke="black" points="208.75,-358.2 208.75,-389 499.15,-389 499.15,-358.2 208.75,-358.2"/>
<text text-anchor="start" x="215.75" y="-370.4" font-family="Arial" font-size="14.00">transactionReferenceId </text>
<text text-anchor="start" x="364.39" y="-370.4" font-family="Arial" font-size="14.00" fill="#666666">[varchar(36)]</text>
<polygon fill="none" stroke="black" points="208.75,-327.4 208.75,-358.2 499.15,-358.2 499.15,-327.4 208.75,-327.4"/>
<text text-anchor="start" x="215.75" y="-339.6" font-family="Arial" font-size="14.00">quoteId </text>
<text text-anchor="start" x="266.35" y="-339.6" font-family="Arial" font-size="14.00" fill="#666666">[varchar(36)]</text>
<polygon fill="none" stroke="black" points="208.75,-296.6 208.75,-327.4 499.15,-327.4 499.15,-296.6 208.75,-296.6"/>
<text text-anchor="start" x="215.75" y="-308.8" font-family="Arial" font-size="14.00">createdDate </text>
<text text-anchor="start" x="295.91" y="-308.8" font-family="Arial" font-size="14.00" fill="#666666">[datetime]</text>
<polygon fill="none" stroke="black" stroke-width="3" points="207.25,-295.1 207.25,-426.1 500.65,-426.1 500.65,-295.1 207.25,-295.1"/>
</g>
<!-- quoteDuplicateCheck -->
<g id="node4" class="node">
<title>quoteDuplicateCheck</title>
<polygon fill="#efefef" stroke="none" points="206.73,-135.6 206.73,-171.2 501.16,-171.2 501.16,-135.6 206.73,-135.6"/>
<polygon fill="none" stroke="black" points="206.73,-135.6 206.73,-171.2 501.16,-171.2 501.16,-135.6 206.73,-135.6"/>
<text text-anchor="start" x="213.73" y="-149" font-family="Arial Bold" font-size="18.00">quoteDuplicateCheck</text>
<text text-anchor="start" x="369.68" y="-149" font-family="Arial" font-size="14.00">    </text>
<text text-anchor="start" x="400.79" y="-149" font-family="Arial" font-size="14.00" fill="#666666">[BASE TABLE]</text>
<polygon fill="none" stroke="black" points="206.73,-104.8 206.73,-135.6 501.16,-135.6 501.16,-104.8 206.73,-104.8"/>
<text text-anchor="start" x="213.73" y="-117" font-family="Arial" font-size="14.00">quoteId </text>
<text text-anchor="start" x="264.33" y="-117" font-family="Arial" font-size="14.00" fill="#666666">[varchar(36)]</text>
<polygon fill="none" stroke="black" points="206.73,-74 206.73,-104.8 501.16,-104.8 501.16,-74 206.73,-74"/>
<text text-anchor="start" x="213.73" y="-86.2" font-family="Arial" font-size="14.00">hash </text>
<text text-anchor="start" x="247.98" y="-86.2" font-family="Arial" font-size="14.00" fill="#666666">[varchar(1024)]</text>
<polygon fill="none" stroke="black" points="206.73,-43.2 206.73,-74 501.16,-74 501.16,-43.2 206.73,-43.2"/>
<text text-anchor="start" x="213.73" y="-55.4" font-family="Arial" font-size="14.00">createdDate </text>
<text text-anchor="start" x="293.89" y="-55.4" font-family="Arial" font-size="14.00" fill="#666666">[datetime]</text>
</g>
<!-- transactionReference&#45;&gt;quoteDuplicateCheck -->
<g id="edge3" class="edge">
<title>transactionReference:quoteId&#45;&gt;quoteDuplicateCheck:quoteId</title>
<path fill="none" stroke="black" d="M510.49,-341.95C599.1,-327 597.53,-120.2 502.16,-120.2"/>
<polygon fill="black" stroke="black" points="510.45,-341.95 500.11,-338.29 505.13,-342.39 500.81,-342.75 500.81,-342.75 500.81,-342.75 505.13,-342.39 500.85,-347.26 510.45,-341.95"/>
<text text-anchor="start" x="507.15" y="-352.8" font-family="Arial" font-size="10.00">FOREIGN KEY (quoteId) REFERENCES quoteDuplicateCheck (quoteId)</text>
</g>
<!-- quote -->
<g id="node2" class="node">
<title>quote</title>
<polygon fill="#efefef" stroke="none" points="43.2,-981.2 43.2,-1016.8 304.7,-1016.8 304.7,-981.2 43.2,-981.2"/>
<polygon fill="none" stroke="black" points="43.2,-981.2 43.2,-1016.8 304.7,-1016.8 304.7,-981.2 43.2,-981.2"/>
<text text-anchor="start" x="91.71" y="-994.6" font-family="Arial Bold" font-size="18.00">quote</text>
<text text-anchor="start" x="131.7" y="-994.6" font-family="Arial" font-size="14.00">    </text>
<text text-anchor="start" x="162.82" y="-994.6" font-family="Arial" font-size="14.00" fill="#666666">[BASE TABLE]</text>
<polygon fill="none" stroke="black" points="43.2,-950.4 43.2,-981.2 304.7,-981.2 304.7,-950.4 43.2,-950.4"/>
<text text-anchor="start" x="50.2" y="-962.6" font-family="Arial" font-size="14.00">quoteId </text>
<text text-anchor="start" x="100.8" y="-962.6" font-family="Arial" font-size="14.00" fill="#666666">[varchar(36)]</text>
<polygon fill="none" stroke="black" points="43.2,-919.6 43.2,-950.4 304.7,-950.4 304.7,-919.6 43.2,-919.6"/>
<text text-anchor="start" x="50.2" y="-931.8" font-family="Arial" font-size="14.00">transactionReferenceId </text>
<text text-anchor="start" x="198.84" y="-931.8" font-family="Arial" font-size="14.00" fill="#666666">[varchar(36)]</text>
<polygon fill="none" stroke="black" points="43.2,-888.8 43.2,-919.6 304.7,-919.6 304.7,-888.8 43.2,-888.8"/>
<text text-anchor="start" x="50.2" y="-901" font-family="Arial" font-size="14.00">transactionRequestId </text>
<text text-anchor="start" x="186.39" y="-901" font-family="Arial" font-size="14.00" fill="#666666">[varchar(36)]</text>
<polygon fill="none" stroke="black" points="43.2,-858 43.2,-888.8 304.7,-888.8 304.7,-858 43.2,-858"/>
<text text-anchor="start" x="50.2" y="-870.2" font-family="Arial" font-size="14.00">note </text>
<text text-anchor="start" x="81.34" y="-870.2" font-family="Arial" font-size="14.00" fill="#666666">[text]</text>
<polygon fill="none" stroke="black" points="43.2,-827.2 43.2,-858 304.7,-858 304.7,-827.2 43.2,-827.2"/>
<text text-anchor="start" x="50.2" y="-839.4" font-family="Arial" font-size="14.00">expirationDate </text>
<text text-anchor="start" x="144.37" y="-839.4" font-family="Arial" font-size="14.00" fill="#666666">[datetime]</text>
<polygon fill="none" stroke="black" points="43.2,-796.4 43.2,-827.2 304.7,-827.2 304.7,-796.4 43.2,-796.4"/>
<text text-anchor="start" x="50.2" y="-808.6" font-family="Arial" font-size="14.00">transactionInitiatorId </text>
<text text-anchor="start" x="180.16" y="-808.6" font-family="Arial" font-size="14.00" fill="#666666">[int unsigned]</text>
<polygon fill="none" stroke="black" points="43.2,-765.6 43.2,-796.4 304.7,-796.4 304.7,-765.6 43.2,-765.6"/>
<text text-anchor="start" x="50.2" y="-777.8" font-family="Arial" font-size="14.00">transactionInitiatorTypeId </text>
<text text-anchor="start" x="211.28" y="-777.8" font-family="Arial" font-size="14.00" fill="#666666">[int unsigned]</text>
<polygon fill="none" stroke="black" points="43.2,-734.8 43.2,-765.6 304.7,-765.6 304.7,-734.8 43.2,-734.8"/>
<text text-anchor="start" x="50.2" y="-747" font-family="Arial" font-size="14.00">transactionScenarioId </text>
<text text-anchor="start" x="189.5" y="-747" font-family="Arial" font-size="14.00" fill="#666666">[int unsigned]</text>
<polygon fill="none" stroke="black" points="43.2,-704 43.2,-734.8 304.7,-734.8 304.7,-704 43.2,-704"/>
<text text-anchor="start" x="50.2" y="-716.2" font-family="Arial" font-size="14.00">balanceOfPaymentsId </text>
<text text-anchor="start" x="191.83" y="-716.2" font-family="Arial" font-size="14.00" fill="#666666">[int unsigned]</text>
<polygon fill="none" stroke="black" points="43.2,-673.2 43.2,-704 304.7,-704 304.7,-673.2 43.2,-673.2"/>
<text text-anchor="start" x="50.2" y="-685.4" font-family="Arial" font-size="14.00">transactionSubScenarioId </text>
<text text-anchor="start" x="214.41" y="-685.4" font-family="Arial" font-size="14.00" fill="#666666">[int unsigned]</text>
<polygon fill="none" stroke="black" points="43.2,-642.4 43.2,-673.2 304.7,-673.2 304.7,-642.4 43.2,-642.4"/>
<text text-anchor="start" x="50.2" y="-654.6" font-family="Arial" font-size="14.00">amountTypeId </text>
<text text-anchor="start" x="143.59" y="-654.6" font-family="Arial" font-size="14.00" fill="#666666">[int unsigned]</text>
<polygon fill="none" stroke="black" points="43.2,-611.6 43.2,-642.4 304.7,-642.4 304.7,-611.6 43.2,-611.6"/>
<text text-anchor="start" x="50.2" y="-623.8" font-family="Arial" font-size="14.00">amount </text>
<text text-anchor="start" x="100.79" y="-623.8" font-family="Arial" font-size="14.00" fill="#666666">[decimal(18,4)]</text>
<polygon fill="none" stroke="black" points="43.2,-580.8 43.2,-611.6 304.7,-611.6 304.7,-580.8 43.2,-580.8"/>
<text text-anchor="start" x="50.2" y="-593" font-family="Arial" font-size="14.00">currencyId </text>
<text text-anchor="start" x="119.45" y="-593" font-family="Arial" font-size="14.00" fill="#666666">[varchar(255)]</text>
<polygon fill="none" stroke="black" points="43.2,-550 43.2,-580.8 304.7,-580.8 304.7,-550 43.2,-550"/>
<text text-anchor="start" x="50.2" y="-562.2" font-family="Arial" font-size="14.00">createdDate </text>
<text text-anchor="start" x="130.36" y="-562.2" font-family="Arial" font-size="14.00" fill="#666666">[datetime]</text>
</g>
<!-- quote&#45;&gt;transactionReference -->
<g id="edge1" class="edge">
<title>quote:transactionReferenceId&#45;&gt;transactionReference:transactionReferenceId</title>
<path fill="none" stroke="black" d="M314.51,-929.78C350.32,-883.44 329.98,-543.21 304.7,-506.8 278.71,-469.39 234.88,-508.1 208.75,-470.8 183.96,-435.42 164.55,-373.6 207.75,-373.6"/>
<polygon fill="black" stroke="black" points="314.59,-929.73 303.69,-930.96 310,-932.45 306.27,-934.66 306.27,-934.66 306.27,-934.66 310,-932.45 308.28,-938.7 314.59,-929.73"/>
<text text-anchor="start" x="312.7" y="-945" font-family="Arial" font-size="10.00">FOREIGN KEY (transactionReferenceId) REFERENCES transactionReference (transactionReferenceId)</text>
</g>
<!-- quoteExtension -->
<g id="node3" class="node">
<title>quoteExtension</title>
<polygon fill="#efefef" stroke="none" points="408.71,-873.4 408.71,-909 659.18,-909 659.18,-873.4 408.71,-873.4"/>
<polygon fill="none" stroke="black" points="408.71,-873.4 408.71,-909 659.18,-909 659.18,-873.4 408.71,-873.4"/>
<text text-anchor="start" x="415.71" y="-886.8" font-family="Arial Bold" font-size="18.00">quoteExtension</text>
<text text-anchor="start" x="527.69" y="-886.8" font-family="Arial" font-size="14.00">    </text>
<text text-anchor="start" x="558.81" y="-886.8" font-family="Arial" font-size="14.00" fill="#666666">[BASE TABLE]</text>
<polygon fill="none" stroke="black" points="408.71,-842.6 408.71,-873.4 659.18,-873.4 659.18,-842.6 408.71,-842.6"/>
<text text-anchor="start" x="415.71" y="-854.8" font-family="Arial" font-size="14.00">quoteExtensionId </text>
<text text-anchor="start" x="527.79" y="-854.8" font-family="Arial" font-size="14.00" fill="#666666">[bigint unsigned]</text>
<polygon fill="none" stroke="black" points="408.71,-811.8 408.71,-842.6 659.18,-842.6 659.18,-811.8 408.71,-811.8"/>
<text text-anchor="start" x="415.71" y="-824" font-family="Arial" font-size="14.00">quoteId </text>
<text text-anchor="start" x="466.31" y="-824" font-family="Arial" font-size="14.00" fill="#666666">[varchar(36)]</text>
<polygon fill="none" stroke="black" points="408.71,-781 408.71,-811.8 659.18,-811.8 659.18,-781 408.71,-781"/>
<text text-anchor="start" x="415.71" y="-793.2" font-family="Arial" font-size="14.00">quoteResponseId </text>
<text text-anchor="start" x="529.35" y="-793.2" font-family="Arial" font-size="14.00" fill="#666666">[bigint unsigned]</text>
<polygon fill="none" stroke="black" points="408.71,-750.2 408.71,-781 659.18,-781 659.18,-750.2 408.71,-750.2"/>
<text text-anchor="start" x="415.71" y="-762.4" font-family="Arial" font-size="14.00">transactionId </text>
<text text-anchor="start" x="499.76" y="-762.4" font-family="Arial" font-size="14.00" fill="#666666">[varchar(36)]</text>
<polygon fill="none" stroke="black" points="408.71,-719.4 408.71,-750.2 659.18,-750.2 659.18,-719.4 408.71,-719.4"/>
<text text-anchor="start" x="415.71" y="-731.6" font-family="Arial" font-size="14.00">key </text>
<text text-anchor="start" x="441.39" y="-731.6" font-family="Arial" font-size="14.00" fill="#666666">[varchar(128)]</text>
<polygon fill="none" stroke="black" points="408.71,-688.6 408.71,-719.4 659.18,-719.4 659.18,-688.6 408.71,-688.6"/>
<text text-anchor="start" x="415.71" y="-700.8" font-family="Arial" font-size="14.00">value </text>
<text text-anchor="start" x="453.07" y="-700.8" font-family="Arial" font-size="14.00" fill="#666666">[text]</text>
<polygon fill="none" stroke="black" points="408.71,-657.8 408.71,-688.6 659.18,-688.6 659.18,-657.8 408.71,-657.8"/>
<text text-anchor="start" x="415.71" y="-670" font-family="Arial" font-size="14.00">createdDate </text>
<text text-anchor="start" x="495.87" y="-670" font-family="Arial" font-size="14.00" fill="#666666">[datetime]</text>
</g>
<!-- quoteExtension&#45;&gt;transactionReference -->
<g id="edge2" class="edge">
<title>quoteExtension:transactionId&#45;&gt;transactionReference:transactionReferenceId</title>
<path fill="none" stroke="black" d="M397.4,-764.79C346.09,-755.86 390.97,-675.38 408.71,-614.6 429.87,-542.13 477.86,-543.24 499.15,-470.8 511.33,-429.35 543.35,-373.6 500.15,-373.6"/>
<polygon fill="black" stroke="black" points="397.41,-764.79 407.02,-770.06 402.73,-765.21 407.05,-765.55 407.05,-765.55 407.05,-765.55 402.73,-765.21 407.73,-761.09 397.41,-764.79"/>
<text text-anchor="start" x="414.71" y="-775.6" font-family="Arial" font-size="10.00">FOREIGN KEY (transactionId) REFERENCES transactionReference (transactionReferenceId)</text>
</g>
</g>
</svg>
