<?xml version="1.0" encoding="UTF-8" standalone="no"?>
<!DOCTYPE svg PUBLIC "-//W3C//DTD SVG 1.1//EN"
 "http://www.w3.org/Graphics/SVG/1.1/DTD/svg11.dtd">
<!-- Generated by graphviz version 12.1.2 (20240928.0832)
 -->
<!-- Title: transferState Pages: 1 -->
<svg width="823pt" height="602pt"
 viewBox="0.00 0.00 823.25 602.00" xmlns="http://www.w3.org/2000/svg" xmlns:xlink="http://www.w3.org/1999/xlink">
<g id="graph0" class="graph" transform="scale(1 1) rotate(0) translate(4 598)">
<title>transferState</title>
<polygon fill="white" stroke="none" points="-4,4 -4,-598 819.25,-598 819.25,4 -4,4"/>
<!-- transferState -->
<g id="node1" class="node">
<title>transferState</title>
<polygon fill="#efefef" stroke="none" points="280.19,-200.2 280.19,-235.8 509.63,-235.8 509.63,-200.2 280.19,-200.2"/>
<polygon fill="none" stroke="black" points="280.19,-200.2 280.19,-235.8 509.63,-235.8 509.63,-200.2 280.19,-200.2"/>
<text text-anchor="start" x="287.19" y="-213.6" font-family="Arial Bold" font-size="18.00">transferState</text>
<text text-anchor="start" x="378.14" y="-213.6" font-family="Arial" font-size="14.00">    </text>
<text text-anchor="start" x="409.26" y="-213.6" font-family="Arial" font-size="14.00" fill="#666666">[BASE TABLE]</text>
<polygon fill="none" stroke="black" points="280.19,-169.4 280.19,-200.2 509.63,-200.2 509.63,-169.4 280.19,-169.4"/>
<text text-anchor="start" x="287.19" y="-181.6" font-family="Arial" font-size="14.00">transferStateId </text>
<text text-anchor="start" x="382.9" y="-181.6" font-family="Arial" font-size="14.00" fill="#666666">[varchar(50)]</text>
<polygon fill="none" stroke="black" points="280.19,-138.6 280.19,-169.4 509.63,-169.4 509.63,-138.6 280.19,-138.6"/>
<text text-anchor="start" x="287.19" y="-150.8" font-family="Arial" font-size="14.00">enumeration </text>
<text text-anchor="start" x="368.9" y="-150.8" font-family="Arial" font-size="14.00" fill="#666666">[varchar(50)]</text>
<polygon fill="none" stroke="black" points="280.19,-107.8 280.19,-138.6 509.63,-138.6 509.63,-107.8 280.19,-107.8"/>
<text text-anchor="start" x="287.19" y="-120" font-family="Arial" font-size="14.00">description </text>
<text text-anchor="start" x="358.78" y="-120" font-family="Arial" font-size="14.00" fill="#666666">[varchar(512)]</text>
<polygon fill="none" stroke="black" points="280.19,-77 280.19,-107.8 509.63,-107.8 509.63,-77 280.19,-77"/>
<text text-anchor="start" x="287.19" y="-89.2" font-family="Arial" font-size="14.00">isActive </text>
<text text-anchor="start" x="339.31" y="-89.2" font-family="Arial" font-size="14.00" fill="#666666">[tinyint(1)]</text>
<polygon fill="none" stroke="black" points="280.19,-46.2 280.19,-77 509.63,-77 509.63,-46.2 280.19,-46.2"/>
<text text-anchor="start" x="287.19" y="-58.4" font-family="Arial" font-size="14.00">createdDate </text>
<text text-anchor="start" x="367.34" y="-58.4" font-family="Arial" font-size="14.00" fill="#666666">[datetime]</text>
<polygon fill="none" stroke="black" stroke-width="3" points="278.69,-44.7 278.69,-237.3 511.13,-237.3 511.13,-44.7 278.69,-44.7"/>
</g>
<!-- fxTransferStateChange -->
<g id="node2" class="node">
<title>fxTransferStateChange</title>
<polygon fill="#efefef" stroke="none" points="43.2,-515.2 43.2,-550.8 348.62,-550.8 348.62,-515.2 43.2,-515.2"/>
<polygon fill="none" stroke="black" points="43.2,-515.2 43.2,-550.8 348.62,-550.8 348.62,-515.2 43.2,-515.2"/>
<text text-anchor="start" x="50.2" y="-528.6" font-family="Arial Bold" font-size="18.00">fxTransferStateChange</text>
<text text-anchor="start" x="217.13" y="-528.6" font-family="Arial" font-size="14.00">    </text>
<text text-anchor="start" x="248.25" y="-528.6" font-family="Arial" font-size="14.00" fill="#666666">[BASE TABLE]</text>
<polygon fill="none" stroke="black" points="43.2,-484.4 43.2,-515.2 348.62,-515.2 348.62,-484.4 43.2,-484.4"/>
<text text-anchor="start" x="50.2" y="-496.6" font-family="Arial" font-size="14.00">fxTransferStateChangeId </text>
<text text-anchor="start" x="210.51" y="-496.6" font-family="Arial" font-size="14.00" fill="#666666">[bigint unsigned]</text>
<polygon fill="none" stroke="black" points="43.2,-453.6 43.2,-484.4 348.62,-484.4 348.62,-453.6 43.2,-453.6"/>
<text text-anchor="start" x="50.2" y="-465.8" font-family="Arial" font-size="14.00">commitRequestId </text>
<text text-anchor="start" x="163.02" y="-465.8" font-family="Arial" font-size="14.00" fill="#666666">[varchar(36)]</text>
<polygon fill="none" stroke="black" points="43.2,-422.8 43.2,-453.6 348.62,-453.6 348.62,-422.8 43.2,-422.8"/>
<text text-anchor="start" x="50.2" y="-435" font-family="Arial" font-size="14.00">transferStateId </text>
<text text-anchor="start" x="145.92" y="-435" font-family="Arial" font-size="14.00" fill="#666666">[varchar(50)]</text>
<polygon fill="none" stroke="black" points="43.2,-392 43.2,-422.8 348.62,-422.8 348.62,-392 43.2,-392"/>
<text text-anchor="start" x="50.2" y="-404.2" font-family="Arial" font-size="14.00">reason </text>
<text text-anchor="start" x="96.9" y="-404.2" font-family="Arial" font-size="14.00" fill="#666666">[varchar(512)]</text>
<polygon fill="none" stroke="black" points="43.2,-361.2 43.2,-392 348.62,-392 348.62,-361.2 43.2,-361.2"/>
<text text-anchor="start" x="50.2" y="-373.4" font-family="Arial" font-size="14.00">createdDate </text>
<text text-anchor="start" x="130.36" y="-373.4" font-family="Arial" font-size="14.00" fill="#666666">[datetime]</text>
</g>
<!-- fxTransferStateChange&#45;&gt;transferState -->
<g id="edge1" class="edge">
<title>fxTransferStateChange:transferStateId&#45;&gt;transferState:transferStateId</title>
<path fill="none" stroke="black" d="M359.73,-437.13C399.3,-427.85 374.47,-360.41 348.62,-318 330.73,-288.66 298.1,-311.33 280.19,-282 257.66,-245.13 235.98,-184.8 279.19,-184.8"/>
<polygon fill="black" stroke="black" points="359.9,-437.11 349.48,-433.69 354.59,-437.67 350.29,-438.13 350.29,-438.13 350.29,-438.13 354.59,-437.67 350.43,-442.64 359.9,-437.11"/>
<text text-anchor="start" x="356.62" y="-448.2" font-family="Arial" font-size="10.00">FOREIGN KEY (transferStateId) REFERENCES transferState (transferStateId)</text>
</g>
<!-- transferStateChange -->
<g id="node3" class="node">
<title>transferStateChange</title>
<polygon fill="#efefef" stroke="none" points="452.69,-515.2 452.69,-550.8 737.13,-550.8 737.13,-515.2 452.69,-515.2"/>
<polygon fill="none" stroke="black" points="452.69,-515.2 452.69,-550.8 737.13,-550.8 737.13,-515.2 452.69,-515.2"/>
<text text-anchor="start" x="459.69" y="-528.6" font-family="Arial Bold" font-size="18.00">transferStateChange</text>
<text text-anchor="start" x="605.64" y="-528.6" font-family="Arial" font-size="14.00">    </text>
<text text-anchor="start" x="636.75" y="-528.6" font-family="Arial" font-size="14.00" fill="#666666">[BASE TABLE]</text>
<polygon fill="none" stroke="black" points="452.69,-484.4 452.69,-515.2 737.13,-515.2 737.13,-484.4 452.69,-484.4"/>
<text text-anchor="start" x="459.69" y="-496.6" font-family="Arial" font-size="14.00">transferStateChangeId </text>
<text text-anchor="start" x="604.45" y="-496.6" font-family="Arial" font-size="14.00" fill="#666666">[bigint unsigned]</text>
<polygon fill="none" stroke="black" points="452.69,-453.6 452.69,-484.4 737.13,-484.4 737.13,-453.6 452.69,-453.6"/>
<text text-anchor="start" x="459.69" y="-465.8" font-family="Arial" font-size="14.00">transferId </text>
<text text-anchor="start" x="522.72" y="-465.8" font-family="Arial" font-size="14.00" fill="#666666">[varchar(36)]</text>
<polygon fill="none" stroke="black" points="452.69,-422.8 452.69,-453.6 737.13,-453.6 737.13,-422.8 452.69,-422.8"/>
<text text-anchor="start" x="459.69" y="-435" font-family="Arial" font-size="14.00">transferStateId </text>
<text text-anchor="start" x="555.41" y="-435" font-family="Arial" font-size="14.00" fill="#666666">[varchar(50)]</text>
<polygon fill="none" stroke="black" points="452.69,-392 452.69,-422.8 737.13,-422.8 737.13,-392 452.69,-392"/>
<text text-anchor="start" x="459.69" y="-404.2" font-family="Arial" font-size="14.00">reason </text>
<text text-anchor="start" x="506.39" y="-404.2" font-family="Arial" font-size="14.00" fill="#666666">[varchar(512)]</text>
<polygon fill="none" stroke="black" points="452.69,-361.2 452.69,-392 737.13,-392 737.13,-361.2 452.69,-361.2"/>
<text text-anchor="start" x="459.69" y="-373.4" font-family="Arial" font-size="14.00">createdDate </text>
<text text-anchor="start" x="539.85" y="-373.4" font-family="Arial" font-size="14.00" fill="#666666">[datetime]</text>
</g>
<!-- transferStateChange&#45;&gt;transferState -->
<g id="edge2" class="edge">
<title>transferStateChange:transferStateId&#45;&gt;transferState:transferStateId</title>
<path fill="none" stroke="black" d="M441.61,-437.14C402.26,-427.99 428.55,-361.4 452.69,-318 467.25,-291.84 495.05,-308.15 509.63,-282 530.67,-244.27 553.84,-184.8 510.63,-184.8"/>
<polygon fill="black" stroke="black" points="441.42,-437.12 450.89,-442.64 446.72,-437.68 451.03,-438.13 451.03,-438.13 451.03,-438.13 446.72,-437.68 451.83,-433.69 441.42,-437.12"/>
<text text-anchor="start" x="458.69" y="-422.2" font-family="Arial" font-size="10.00">FOREIGN KEY (transferStateId) REFERENCES transferState (transferStateId)</text>
</g>
</g>
</svg>
