<?xml version="1.0" encoding="UTF-8" standalone="no"?>
<!DOCTYPE svg PUBLIC "-//W3C//DTD SVG 1.1//EN"
 "http://www.w3.org/Graphics/SVG/1.1/DTD/svg11.dtd">
<!-- Generated by graphviz version 12.1.2 (20240928.0832)
 -->
<!-- Title: transactionReference Pages: 1 -->
<svg width="1646pt" height="831pt"
 viewBox="0.00 0.00 1645.70 831.04" xmlns="http://www.w3.org/2000/svg" xmlns:xlink="http://www.w3.org/1999/xlink">
<g id="graph0" class="graph" transform="scale(1 1) rotate(0) translate(4 827.04)">
<title>transactionReference</title>
<polygon fill="white" stroke="none" points="-4,4 -4,-827.04 1641.7,-827.04 1641.7,4 -4,4"/>
<!-- transactionReference -->
<g id="node1" class="node">
<title>transactionReference</title>
<polygon fill="#efefef" stroke="none" points="457.2,-306.04 457.2,-341.64 1268.81,-341.64 1268.81,-306.04 457.2,-306.04"/>
<polygon fill="none" stroke="black" points="457.2,-306.04 457.2,-341.64 1268.81,-341.64 1268.81,-306.04 457.2,-306.04"/>
<text text-anchor="start" x="724.81" y="-319.44" font-family="Arial Bold" font-size="18.00">transactionReference</text>
<text text-anchor="start" x="876.72" y="-319.44" font-family="Arial" font-size="14.00">    </text>
<text text-anchor="start" x="907.83" y="-319.44" font-family="Arial" font-size="14.00" fill="#666666">[BASE TABLE]</text>
<polygon fill="none" stroke="black" points="457.2,-275.24 457.2,-306.04 1268.81,-306.04 1268.81,-275.24 457.2,-275.24"/>
<text text-anchor="start" x="464.2" y="-287.44" font-family="Arial" font-size="14.00">transactionReferenceId </text>
<text text-anchor="start" x="612.84" y="-287.44" font-family="Arial" font-size="14.00" fill="#666666">[varchar(36)]</text>
<text text-anchor="start" x="692.2" y="-287.44" font-family="Arial" font-size="14.00"> Common ID (decided by the Payer FSP) between the FSPs for the future transaction object</text>
<polygon fill="none" stroke="black" points="457.2,-244.44 457.2,-275.24 1268.81,-275.24 1268.81,-244.44 457.2,-244.44"/>
<text text-anchor="start" x="464.2" y="-256.64" font-family="Arial" font-size="14.00">quoteId </text>
<text text-anchor="start" x="514.8" y="-256.64" font-family="Arial" font-size="14.00" fill="#666666">[varchar(36)]</text>
<text text-anchor="start" x="594.16" y="-256.64" font-family="Arial" font-size="14.00"> Common ID between the FSPs for the quote object, decided by the Payer FSP</text>
<polygon fill="none" stroke="black" stroke-width="3" points="455.7,-242.94 455.7,-343.14 1270.31,-343.14 1270.31,-242.94 455.7,-242.94"/>
</g>
<!-- quoteDuplicateCheck -->
<g id="node4" class="node">
<title>quoteDuplicateCheck</title>
<polygon fill="#efefef" stroke="none" points="545.51,-83.44 545.51,-119.04 1180.5,-119.04 1180.5,-83.44 545.51,-83.44"/>
<polygon fill="none" stroke="black" points="545.51,-83.44 545.51,-119.04 1180.5,-119.04 1180.5,-83.44 545.51,-83.44"/>
<text text-anchor="start" x="722.79" y="-96.84" font-family="Arial Bold" font-size="18.00">quoteDuplicateCheck</text>
<text text-anchor="start" x="878.73" y="-96.84" font-family="Arial" font-size="14.00">    </text>
<text text-anchor="start" x="909.85" y="-96.84" font-family="Arial" font-size="14.00" fill="#666666">[BASE TABLE]</text>
<polygon fill="none" stroke="black" points="545.51,-52.64 545.51,-83.44 1180.5,-83.44 1180.5,-52.64 545.51,-52.64"/>
<text text-anchor="start" x="552.51" y="-64.84" font-family="Arial" font-size="14.00">quoteId </text>
<text text-anchor="start" x="603.11" y="-64.84" font-family="Arial" font-size="14.00" fill="#666666">[varchar(36)]</text>
<text text-anchor="start" x="682.46" y="-64.84" font-family="Arial" font-size="14.00"> Common ID between the FSPs for the quote object, decided by the Payer FSP</text>
</g>
<!-- transactionReference&#45;&gt;quoteDuplicateCheck -->
<g id="edge3" class="edge">
<title>transactionReference:quoteId&#45;&gt;quoteDuplicateCheck:quoteId</title>
<path fill="none" stroke="black" d="M863.36,-233.36C874.02,-88.04 1123.26,-287.8 1223.7,-162.24 1254.13,-124.2 1258.1,-87.13 1223.7,-52.64 1167.1,4.12 863.01,28.52 863.01,-51.64"/>
<polygon fill="black" stroke="black" points="863.37,-233.11 858.52,-242.94 863.18,-238.44 863.03,-242.77 863.03,-242.77 863.03,-242.77 863.18,-238.44 867.51,-243.26 863.37,-233.11"/>
<text text-anchor="start" x="533.1" y="-253.44" font-family="Arial" font-size="10.00">FOREIGN KEY (quoteId) REFERENCES quoteDuplicateCheck (quoteId)</text>
</g>
<!-- quote -->
<g id="node2" class="node">
<title>quote</title>
<polygon fill="#efefef" stroke="none" points="43.2,-744.24 43.2,-779.84 854.81,-779.84 854.81,-744.24 43.2,-744.24"/>
<polygon fill="none" stroke="black" points="43.2,-744.24 43.2,-779.84 854.81,-779.84 854.81,-744.24 43.2,-744.24"/>
<text text-anchor="start" x="366.77" y="-757.64" font-family="Arial Bold" font-size="18.00">quote</text>
<text text-anchor="start" x="406.76" y="-757.64" font-family="Arial" font-size="14.00">    </text>
<text text-anchor="start" x="437.87" y="-757.64" font-family="Arial" font-size="14.00" fill="#666666">[BASE TABLE]</text>
<polygon fill="none" stroke="black" points="43.2,-713.44 43.2,-744.24 854.81,-744.24 854.81,-713.44 43.2,-713.44"/>
<text text-anchor="start" x="50.2" y="-725.64" font-family="Arial" font-size="14.00">quoteId </text>
<text text-anchor="start" x="100.8" y="-725.64" font-family="Arial" font-size="14.00" fill="#666666">[varchar(36)]</text>
<polygon fill="none" stroke="black" points="43.2,-682.64 43.2,-713.44 854.81,-713.44 854.81,-682.64 43.2,-682.64"/>
<text text-anchor="start" x="50.2" y="-694.84" font-family="Arial" font-size="14.00">transactionReferenceId </text>
<text text-anchor="start" x="198.84" y="-694.84" font-family="Arial" font-size="14.00" fill="#666666">[varchar(36)]</text>
<text text-anchor="start" x="278.2" y="-694.84" font-family="Arial" font-size="14.00"> Common ID (decided by the Payer FSP) between the FSPs for the future transaction object</text>
<polygon fill="none" stroke="black" points="43.2,-651.84 43.2,-682.64 854.81,-682.64 854.81,-651.84 43.2,-651.84"/>
<text text-anchor="start" x="50.2" y="-664.04" font-family="Arial" font-size="14.00">transactionInitiatorId </text>
<text text-anchor="start" x="180.16" y="-664.04" font-family="Arial" font-size="14.00" fill="#666666">[int unsigned]</text>
<text text-anchor="start" x="263.44" y="-664.04" font-family="Arial" font-size="14.00"> This is part of the transaction initiator</text>
<polygon fill="none" stroke="black" points="43.2,-621.04 43.2,-651.84 854.81,-651.84 854.81,-621.04 43.2,-621.04"/>
<text text-anchor="start" x="50.2" y="-633.24" font-family="Arial" font-size="14.00">transactionInitiatorTypeId </text>
<text text-anchor="start" x="211.28" y="-633.24" font-family="Arial" font-size="14.00" fill="#666666">[int unsigned]</text>
<text text-anchor="start" x="294.56" y="-633.24" font-family="Arial" font-size="14.00"> This is part of the transaction initiator type</text>
<polygon fill="none" stroke="black" points="43.2,-590.24 43.2,-621.04 854.81,-621.04 854.81,-590.24 43.2,-590.24"/>
<text text-anchor="start" x="50.2" y="-602.44" font-family="Arial" font-size="14.00">transactionScenarioId </text>
<text text-anchor="start" x="189.5" y="-602.44" font-family="Arial" font-size="14.00" fill="#666666">[int unsigned]</text>
<text text-anchor="start" x="272.78" y="-602.44" font-family="Arial" font-size="14.00"> This is part of the transaction scenario</text>
<polygon fill="none" stroke="black" points="43.2,-559.44 43.2,-590.24 854.81,-590.24 854.81,-559.44 43.2,-559.44"/>
<text text-anchor="start" x="50.2" y="-571.64" font-family="Arial" font-size="14.00">balanceOfPaymentsId </text>
<text text-anchor="start" x="191.83" y="-571.64" font-family="Arial" font-size="14.00" fill="#666666">[int unsigned]</text>
<text text-anchor="start" x="275.12" y="-571.64" font-family="Arial" font-size="14.00"> This is part of the transaction type that contains the elements&#45; balance of payment</text>
<polygon fill="none" stroke="black" points="43.2,-528.64 43.2,-559.44 854.81,-559.44 854.81,-528.64 43.2,-528.64"/>
<text text-anchor="start" x="50.2" y="-540.84" font-family="Arial" font-size="14.00">transactionSubScenarioId </text>
<text text-anchor="start" x="214.41" y="-540.84" font-family="Arial" font-size="14.00" fill="#666666">[int unsigned]</text>
<text text-anchor="start" x="297.7" y="-540.84" font-family="Arial" font-size="14.00"> This is part of the transaction type sub scenario as defined by the local scheme</text>
<polygon fill="none" stroke="black" points="43.2,-497.84 43.2,-528.64 854.81,-528.64 854.81,-497.84 43.2,-497.84"/>
<text text-anchor="start" x="50.2" y="-510.04" font-family="Arial" font-size="14.00">amountTypeId </text>
<text text-anchor="start" x="143.59" y="-510.04" font-family="Arial" font-size="14.00" fill="#666666">[int unsigned]</text>
<text text-anchor="start" x="226.87" y="-510.04" font-family="Arial" font-size="14.00"> This is part of the transaction type that contains valid elements for &#45; Amount Type</text>
<polygon fill="none" stroke="black" points="43.2,-467.04 43.2,-497.84 854.81,-497.84 854.81,-467.04 43.2,-467.04"/>
<text text-anchor="start" x="50.2" y="-479.24" font-family="Arial" font-size="14.00">currencyId </text>
<text text-anchor="start" x="119.45" y="-479.24" font-family="Arial" font-size="14.00" fill="#666666">[varchar(255)]</text>
<text text-anchor="start" x="206.59" y="-479.24" font-family="Arial" font-size="14.00"> Trading currency pertaining to the Amount</text>
</g>
<!-- quote&#45;&gt;transactionReference -->
<g id="edge1" class="edge">
<title>quote:transactionReferenceId&#45;&gt;transactionReference:transactionReferenceId</title>
<path fill="none" stroke="black" d="M865.69,-695.76C914.24,-671.8 893.58,-466.12 854.81,-423.84 794.85,-358.44 517.37,-453.03 457.2,-387.84 427.9,-356.09 413,-290.64 456.2,-290.64"/>
<polygon fill="black" stroke="black" points="865.88,-695.71 855.13,-693.58 860.68,-696.91 856.46,-697.89 856.46,-697.89 856.46,-697.89 860.68,-696.91 857.15,-702.35 865.88,-695.71"/>
<text text-anchor="start" x="862.81" y="-708.04" font-family="Arial" font-size="10.00">FOREIGN KEY (transactionReferenceId) REFERENCES transactionReference (transactionReferenceId)</text>
</g>
<!-- quoteExtension -->
<g id="node3" class="node">
<title>quoteExtension</title>
<polygon fill="#efefef" stroke="none" points="959.51,-667.24 959.51,-702.84 1594.5,-702.84 1594.5,-667.24 959.51,-667.24"/>
<polygon fill="none" stroke="black" points="959.51,-667.24 959.51,-702.84 1594.5,-702.84 1594.5,-667.24 959.51,-667.24"/>
<text text-anchor="start" x="1158.77" y="-680.64" font-family="Arial Bold" font-size="18.00">quoteExtension</text>
<text text-anchor="start" x="1270.75" y="-680.64" font-family="Arial" font-size="14.00">    </text>
<text text-anchor="start" x="1301.87" y="-680.64" font-family="Arial" font-size="14.00" fill="#666666">[BASE TABLE]</text>
<polygon fill="none" stroke="black" points="959.51,-636.44 959.51,-667.24 1594.5,-667.24 1594.5,-636.44 959.51,-636.44"/>
<text text-anchor="start" x="966.51" y="-648.64" font-family="Arial" font-size="14.00">quoteExtensionId </text>
<text text-anchor="start" x="1078.59" y="-648.64" font-family="Arial" font-size="14.00" fill="#666666">[bigint unsigned]</text>
<polygon fill="none" stroke="black" points="959.51,-605.64 959.51,-636.44 1594.5,-636.44 1594.5,-605.64 959.51,-605.64"/>
<text text-anchor="start" x="966.51" y="-617.84" font-family="Arial" font-size="14.00">quoteId </text>
<text text-anchor="start" x="1017.11" y="-617.84" font-family="Arial" font-size="14.00" fill="#666666">[varchar(36)]</text>
<text text-anchor="start" x="1096.46" y="-617.84" font-family="Arial" font-size="14.00"> Common ID between the FSPs for the quote object, decided by the Payer FSP</text>
<polygon fill="none" stroke="black" points="959.51,-574.84 959.51,-605.64 1594.5,-605.64 1594.5,-574.84 959.51,-574.84"/>
<text text-anchor="start" x="966.51" y="-587.04" font-family="Arial" font-size="14.00">quoteResponseId </text>
<text text-anchor="start" x="1080.15" y="-587.04" font-family="Arial" font-size="14.00" fill="#666666">[bigint unsigned]</text>
<polygon fill="none" stroke="black" points="959.51,-544.04 959.51,-574.84 1594.5,-574.84 1594.5,-544.04 959.51,-544.04"/>
<text text-anchor="start" x="966.51" y="-556.24" font-family="Arial" font-size="14.00">transactionId </text>
<text text-anchor="start" x="1050.55" y="-556.24" font-family="Arial" font-size="14.00" fill="#666666">[varchar(36)]</text>
<text text-anchor="start" x="1129.91" y="-556.24" font-family="Arial" font-size="14.00"> The transaction reference that is part of the initial quote</text>
</g>
<!-- quoteExtension&#45;&gt;transactionReference -->
<g id="edge2" class="edge">
<title>quoteExtension:transactionId&#45;&gt;transactionReference:transactionReferenceId</title>
<path fill="none" stroke="black" d="M948.6,-556.65C936.46,-547.61 946.88,-518.57 959.51,-500.84 1044.4,-381.62 1184.32,-507.34 1268.81,-387.84 1293.75,-352.56 1313.01,-290.64 1269.81,-290.64"/>
<polygon fill="black" stroke="black" points="948.56,-556.64 956.97,-563.68 953.69,-558.08 957.86,-559.26 957.86,-559.26 957.86,-559.26 953.69,-558.08 959.4,-555.01 948.56,-556.64"/>
<text text-anchor="start" x="965.51" y="-569.44" font-family="Arial" font-size="10.00">FOREIGN KEY (transactionId) REFERENCES transactionReference (transactionReferenceId)</text>
</g>
</g>
</svg>
