<?xml version="1.0" encoding="UTF-8" standalone="no"?>
<!DOCTYPE svg PUBLIC "-//W3C//DTD SVG 1.1//EN"
 "http://www.w3.org/Graphics/SVG/1.1/DTD/svg11.dtd">
<!-- Generated by graphviz version 12.1.2 (20240928.0832)
 -->
<!-- Title: transferState Pages: 1 -->
<svg width="823pt" height="417pt"
 viewBox="0.00 0.00 823.25 417.20" xmlns="http://www.w3.org/2000/svg" xmlns:xlink="http://www.w3.org/1999/xlink">
<g id="graph0" class="graph" transform="scale(1 1) rotate(0) translate(4 413.2)">
<title>transferState</title>
<polygon fill="white" stroke="none" points="-4,4 -4,-413.2 819.25,-413.2 819.25,4 -4,4"/>
<!-- transferState -->
<g id="node1" class="node">
<title>transferState</title>
<polygon fill="#efefef" stroke="none" points="280.19,-77 280.19,-112.6 509.63,-112.6 509.63,-77 280.19,-77"/>
<polygon fill="none" stroke="black" points="280.19,-77 280.19,-112.6 509.63,-112.6 509.63,-77 280.19,-77"/>
<text text-anchor="start" x="287.19" y="-90.4" font-family="Arial Bold" font-size="18.00">transferState</text>
<text text-anchor="start" x="378.14" y="-90.4" font-family="Arial" font-size="14.00">    </text>
<text text-anchor="start" x="409.26" y="-90.4" font-family="Arial" font-size="14.00" fill="#666666">[BASE TABLE]</text>
<polygon fill="none" stroke="black" points="280.19,-46.2 280.19,-77 509.63,-77 509.63,-46.2 280.19,-46.2"/>
<text text-anchor="start" x="287.19" y="-58.4" font-family="Arial" font-size="14.00">transferStateId </text>
<text text-anchor="start" x="382.9" y="-58.4" font-family="Arial" font-size="14.00" fill="#666666">[varchar(50)]</text>
<polygon fill="none" stroke="black" stroke-width="3" points="278.69,-44.7 278.69,-114.1 511.13,-114.1 511.13,-44.7 278.69,-44.7"/>
</g>
<!-- fxTransferStateChange -->
<g id="node2" class="node">
<title>fxTransferStateChange</title>
<polygon fill="#efefef" stroke="none" points="43.2,-330.4 43.2,-366 348.62,-366 348.62,-330.4 43.2,-330.4"/>
<polygon fill="none" stroke="black" points="43.2,-330.4 43.2,-366 348.62,-366 348.62,-330.4 43.2,-330.4"/>
<text text-anchor="start" x="50.2" y="-343.8" font-family="Arial Bold" font-size="18.00">fxTransferStateChange</text>
<text text-anchor="start" x="217.13" y="-343.8" font-family="Arial" font-size="14.00">    </text>
<text text-anchor="start" x="248.25" y="-343.8" font-family="Arial" font-size="14.00" fill="#666666">[BASE TABLE]</text>
<polygon fill="none" stroke="black" points="43.2,-299.6 43.2,-330.4 348.62,-330.4 348.62,-299.6 43.2,-299.6"/>
<text text-anchor="start" x="50.2" y="-311.8" font-family="Arial" font-size="14.00">fxTransferStateChangeId </text>
<text text-anchor="start" x="210.51" y="-311.8" font-family="Arial" font-size="14.00" fill="#666666">[bigint unsigned]</text>
<polygon fill="none" stroke="black" points="43.2,-268.8 43.2,-299.6 348.62,-299.6 348.62,-268.8 43.2,-268.8"/>
<text text-anchor="start" x="50.2" y="-281" font-family="Arial" font-size="14.00">commitRequestId </text>
<text text-anchor="start" x="163.02" y="-281" font-family="Arial" font-size="14.00" fill="#666666">[varchar(36)]</text>
<polygon fill="none" stroke="black" points="43.2,-238 43.2,-268.8 348.62,-268.8 348.62,-238 43.2,-238"/>
<text text-anchor="start" x="50.2" y="-250.2" font-family="Arial" font-size="14.00">transferStateId </text>
<text text-anchor="start" x="145.92" y="-250.2" font-family="Arial" font-size="14.00" fill="#666666">[varchar(50)]</text>
</g>
<!-- fxTransferStateChange&#45;&gt;transferState -->
<g id="edge1" class="edge">
<title>fxTransferStateChange:transferStateId&#45;&gt;transferState:transferStateId</title>
<path fill="none" stroke="black" d="M359.43,-250.68C371.27,-241.83 360.03,-213.34 348.62,-194.8 330.6,-165.53 298.1,-188.13 280.19,-158.8 257.66,-121.93 235.98,-61.6 279.19,-61.6"/>
<polygon fill="black" stroke="black" points="359.58,-250.64 348.74,-248.97 354.44,-252.07 350.26,-253.22 350.26,-253.22 350.26,-253.22 354.44,-252.07 351.14,-257.65 359.58,-250.64"/>
<text text-anchor="start" x="356.62" y="-263.4" font-family="Arial" font-size="10.00">FOREIGN KEY (transferStateId) REFERENCES transferState (transferStateId)</text>
</g>
<!-- transferStateChange -->
<g id="node3" class="node">
<title>transferStateChange</title>
<polygon fill="#efefef" stroke="none" points="452.69,-330.4 452.69,-366 737.13,-366 737.13,-330.4 452.69,-330.4"/>
<polygon fill="none" stroke="black" points="452.69,-330.4 452.69,-366 737.13,-366 737.13,-330.4 452.69,-330.4"/>
<text text-anchor="start" x="459.69" y="-343.8" font-family="Arial Bold" font-size="18.00">transferStateChange</text>
<text text-anchor="start" x="605.64" y="-343.8" font-family="Arial" font-size="14.00">    </text>
<text text-anchor="start" x="636.75" y="-343.8" font-family="Arial" font-size="14.00" fill="#666666">[BASE TABLE]</text>
<polygon fill="none" stroke="black" points="452.69,-299.6 452.69,-330.4 737.13,-330.4 737.13,-299.6 452.69,-299.6"/>
<text text-anchor="start" x="459.69" y="-311.8" font-family="Arial" font-size="14.00">transferStateChangeId </text>
<text text-anchor="start" x="604.45" y="-311.8" font-family="Arial" font-size="14.00" fill="#666666">[bigint unsigned]</text>
<polygon fill="none" stroke="black" points="452.69,-268.8 452.69,-299.6 737.13,-299.6 737.13,-268.8 452.69,-268.8"/>
<text text-anchor="start" x="459.69" y="-281" font-family="Arial" font-size="14.00">transferId </text>
<text text-anchor="start" x="522.72" y="-281" font-family="Arial" font-size="14.00" fill="#666666">[varchar(36)]</text>
<polygon fill="none" stroke="black" points="452.69,-238 452.69,-268.8 737.13,-268.8 737.13,-238 452.69,-238"/>
<text text-anchor="start" x="459.69" y="-250.2" font-family="Arial" font-size="14.00">transferStateId </text>
<text text-anchor="start" x="555.41" y="-250.2" font-family="Arial" font-size="14.00" fill="#666666">[varchar(50)]</text>
</g>
<!-- transferStateChange&#45;&gt;transferState -->
<g id="edge2" class="edge">
<title>transferStateChange:transferStateId&#45;&gt;transferState:transferStateId</title>
<path fill="none" stroke="black" d="M441.95,-250.72C430.29,-241.98 442.03,-213.78 452.69,-194.8 467.36,-168.7 495.05,-184.95 509.63,-158.8 530.67,-121.07 553.84,-61.6 510.63,-61.6"/>
<polygon fill="black" stroke="black" points="441.73,-250.66 450.18,-257.65 446.87,-252.07 451.05,-253.22 451.05,-253.22 451.05,-253.22 446.87,-252.07 452.57,-248.97 441.73,-250.66"/>
<text text-anchor="start" x="458.69" y="-237.4" font-family="Arial" font-size="10.00">FOREIGN KEY (transferStateId) REFERENCES transferState (transferStateId)</text>
</g>
</g>
</svg>
