<?xml version="1.0" encoding="UTF-8" standalone="no"?>
<!DOCTYPE svg PUBLIC "-//W3C//DTD SVG 1.1//EN"
 "http://www.w3.org/Graphics/SVG/1.1/DTD/svg11.dtd">
<!-- Generated by graphviz version 12.1.2 (20240928.0832)
 -->
<!-- Title: transactionScenario Pages: 1 -->
<svg width="1321pt" height="602pt"
 viewBox="0.00 0.00 1320.76 602.00" xmlns="http://www.w3.org/2000/svg" xmlns:xlink="http://www.w3.org/1999/xlink">
<g id="graph0" class="graph" transform="scale(1 1) rotate(0) translate(4 598)">
<title>transactionScenario</title>
<polygon fill="white" stroke="none" points="-4,4 -4,-598 1316.76,-598 1316.76,4 -4,4"/>
<!-- transactionScenario -->
<g id="node1" class="node">
<title>transactionScenario</title>
<polygon fill="#efefef" stroke="none" points="308.79,-77 308.79,-112.6 589.22,-112.6 589.22,-77 308.79,-77"/>
<polygon fill="none" stroke="black" points="308.79,-77 308.79,-112.6 589.22,-112.6 589.22,-77 308.79,-77"/>
<text text-anchor="start" x="315.79" y="-90.4" font-family="Arial Bold" font-size="18.00">transactionScenario</text>
<text text-anchor="start" x="457.73" y="-90.4" font-family="Arial" font-size="14.00">    </text>
<text text-anchor="start" x="488.85" y="-90.4" font-family="Arial" font-size="14.00" fill="#666666">[BASE TABLE]</text>
<polygon fill="none" stroke="black" points="308.79,-46.2 308.79,-77 589.22,-77 589.22,-46.2 308.79,-46.2"/>
<text text-anchor="start" x="315.79" y="-58.4" font-family="Arial" font-size="14.00">transactionScenarioId </text>
<text text-anchor="start" x="455.09" y="-58.4" font-family="Arial" font-size="14.00" fill="#666666">[int unsigned]</text>
<polygon fill="none" stroke="black" stroke-width="3" points="307.29,-44.7 307.29,-114.1 590.72,-114.1 590.72,-44.7 307.29,-44.7"/>
</g>
<!-- quote -->
<g id="node2" class="node">
<title>quote</title>
<polygon fill="#efefef" stroke="none" points="43.2,-515.2 43.2,-550.8 854.81,-550.8 854.81,-515.2 43.2,-515.2"/>
<polygon fill="none" stroke="black" points="43.2,-515.2 43.2,-550.8 854.81,-550.8 854.81,-515.2 43.2,-515.2"/>
<text text-anchor="start" x="366.77" y="-528.6" font-family="Arial Bold" font-size="18.00">quote</text>
<text text-anchor="start" x="406.76" y="-528.6" font-family="Arial" font-size="14.00">    </text>
<text text-anchor="start" x="437.87" y="-528.6" font-family="Arial" font-size="14.00" fill="#666666">[BASE TABLE]</text>
<polygon fill="none" stroke="black" points="43.2,-484.4 43.2,-515.2 854.81,-515.2 854.81,-484.4 43.2,-484.4"/>
<text text-anchor="start" x="50.2" y="-496.6" font-family="Arial" font-size="14.00">quoteId </text>
<text text-anchor="start" x="100.8" y="-496.6" font-family="Arial" font-size="14.00" fill="#666666">[varchar(36)]</text>
<polygon fill="none" stroke="black" points="43.2,-453.6 43.2,-484.4 854.81,-484.4 854.81,-453.6 43.2,-453.6"/>
<text text-anchor="start" x="50.2" y="-465.8" font-family="Arial" font-size="14.00">transactionReferenceId </text>
<text text-anchor="start" x="198.84" y="-465.8" font-family="Arial" font-size="14.00" fill="#666666">[varchar(36)]</text>
<text text-anchor="start" x="278.2" y="-465.8" font-family="Arial" font-size="14.00"> Common ID (decided by the Payer FSP) between the FSPs for the future transaction object</text>
<polygon fill="none" stroke="black" points="43.2,-422.8 43.2,-453.6 854.81,-453.6 854.81,-422.8 43.2,-422.8"/>
<text text-anchor="start" x="50.2" y="-435" font-family="Arial" font-size="14.00">transactionInitiatorId </text>
<text text-anchor="start" x="180.16" y="-435" font-family="Arial" font-size="14.00" fill="#666666">[int unsigned]</text>
<text text-anchor="start" x="263.44" y="-435" font-family="Arial" font-size="14.00"> This is part of the transaction initiator</text>
<polygon fill="none" stroke="black" points="43.2,-392 43.2,-422.8 854.81,-422.8 854.81,-392 43.2,-392"/>
<text text-anchor="start" x="50.2" y="-404.2" font-family="Arial" font-size="14.00">transactionInitiatorTypeId </text>
<text text-anchor="start" x="211.28" y="-404.2" font-family="Arial" font-size="14.00" fill="#666666">[int unsigned]</text>
<text text-anchor="start" x="294.56" y="-404.2" font-family="Arial" font-size="14.00"> This is part of the transaction initiator type</text>
<polygon fill="none" stroke="black" points="43.2,-361.2 43.2,-392 854.81,-392 854.81,-361.2 43.2,-361.2"/>
<text text-anchor="start" x="50.2" y="-373.4" font-family="Arial" font-size="14.00">transactionScenarioId </text>
<text text-anchor="start" x="189.5" y="-373.4" font-family="Arial" font-size="14.00" fill="#666666">[int unsigned]</text>
<text text-anchor="start" x="272.78" y="-373.4" font-family="Arial" font-size="14.00"> This is part of the transaction scenario</text>
<polygon fill="none" stroke="black" points="43.2,-330.4 43.2,-361.2 854.81,-361.2 854.81,-330.4 43.2,-330.4"/>
<text text-anchor="start" x="50.2" y="-342.6" font-family="Arial" font-size="14.00">balanceOfPaymentsId </text>
<text text-anchor="start" x="191.83" y="-342.6" font-family="Arial" font-size="14.00" fill="#666666">[int unsigned]</text>
<text text-anchor="start" x="275.12" y="-342.6" font-family="Arial" font-size="14.00"> This is part of the transaction type that contains the elements&#45; balance of payment</text>
<polygon fill="none" stroke="black" points="43.2,-299.6 43.2,-330.4 854.81,-330.4 854.81,-299.6 43.2,-299.6"/>
<text text-anchor="start" x="50.2" y="-311.8" font-family="Arial" font-size="14.00">transactionSubScenarioId </text>
<text text-anchor="start" x="214.41" y="-311.8" font-family="Arial" font-size="14.00" fill="#666666">[int unsigned]</text>
<text text-anchor="start" x="297.7" y="-311.8" font-family="Arial" font-size="14.00"> This is part of the transaction type sub scenario as defined by the local scheme</text>
<polygon fill="none" stroke="black" points="43.2,-268.8 43.2,-299.6 854.81,-299.6 854.81,-268.8 43.2,-268.8"/>
<text text-anchor="start" x="50.2" y="-281" font-family="Arial" font-size="14.00">amountTypeId </text>
<text text-anchor="start" x="143.59" y="-281" font-family="Arial" font-size="14.00" fill="#666666">[int unsigned]</text>
<text text-anchor="start" x="226.87" y="-281" font-family="Arial" font-size="14.00"> This is part of the transaction type that contains valid elements for &#45; Amount Type</text>
<polygon fill="none" stroke="black" points="43.2,-238 43.2,-268.8 854.81,-268.8 854.81,-238 43.2,-238"/>
<text text-anchor="start" x="50.2" y="-250.2" font-family="Arial" font-size="14.00">currencyId </text>
<text text-anchor="start" x="119.45" y="-250.2" font-family="Arial" font-size="14.00" fill="#666666">[varchar(255)]</text>
<text text-anchor="start" x="206.59" y="-250.2" font-family="Arial" font-size="14.00"> Trading currency pertaining to the Amount</text>
</g>
<!-- quote&#45;&gt;transactionScenario -->
<g id="edge1" class="edge">
<title>quote:transactionScenarioId&#45;&gt;transactionScenario:transactionScenarioId</title>
<path fill="none" stroke="black" d="M865.96,-375.94C932.69,-366.75 891.16,-262.87 854.81,-194.8 799.34,-90.92 747.92,-81.04 635.42,-46.2 556.28,-21.69 449.01,37.65 449.01,-45.2"/>
<polygon fill="black" stroke="black" points="866.12,-375.93 855.85,-372.09 860.8,-376.28 856.48,-376.56 856.48,-376.56 856.48,-376.56 860.8,-376.28 856.43,-381.07 866.12,-375.93"/>
<text text-anchor="start" x="862.81" y="-386.6" font-family="Arial" font-size="10.00">FOREIGN KEY (transactionScenarioId) REFERENCES transactionScenario (transactionScenarioId)</text>
</g>
</g>
</svg>
