<?xml version="1.0" encoding="UTF-8" standalone="no"?>
<!DOCTYPE svg PUBLIC "-//W3C//DTD SVG 1.1//EN"
 "http://www.w3.org/Graphics/SVG/1.1/DTD/svg11.dtd">
<!-- Generated by graphviz version 12.1.2 (20240928.0832)
 -->
<!-- Title: transferDuplicateCheck Pages: 1 -->
<svg width="670pt" height="571pt"
 viewBox="0.00 0.00 670.17 571.20" xmlns="http://www.w3.org/2000/svg" xmlns:xlink="http://www.w3.org/1999/xlink">
<g id="graph0" class="graph" transform="scale(1 1) rotate(0) translate(4 567.2)">
<title>transferDuplicateCheck</title>
<polygon fill="white" stroke="none" points="-4,4 -4,-567.2 666.17,-567.2 666.17,4 -4,4"/>
<!-- transferDuplicateCheck -->
<g id="node1" class="node">
<title>transferDuplicateCheck</title>
<polygon fill="#efefef" stroke="none" points="46.2,-138.6 46.2,-174.2 355.61,-174.2 355.61,-138.6 46.2,-138.6"/>
<polygon fill="none" stroke="black" points="46.2,-138.6 46.2,-174.2 355.61,-174.2 355.61,-138.6 46.2,-138.6"/>
<text text-anchor="start" x="53.2" y="-152" font-family="Arial Bold" font-size="18.00">transferDuplicateCheck</text>
<text text-anchor="start" x="224.12" y="-152" font-family="Arial" font-size="14.00">    </text>
<text text-anchor="start" x="255.24" y="-152" font-family="Arial" font-size="14.00" fill="#666666">[BASE TABLE]</text>
<polygon fill="none" stroke="black" points="46.2,-107.8 46.2,-138.6 355.61,-138.6 355.61,-107.8 46.2,-107.8"/>
<text text-anchor="start" x="53.2" y="-120" font-family="Arial" font-size="14.00">transferId </text>
<text text-anchor="start" x="116.23" y="-120" font-family="Arial" font-size="14.00" fill="#666666">[varchar(36)]</text>
<polygon fill="none" stroke="black" points="46.2,-77 46.2,-107.8 355.61,-107.8 355.61,-77 46.2,-77"/>
<text text-anchor="start" x="53.2" y="-89.2" font-family="Arial" font-size="14.00">hash </text>
<text text-anchor="start" x="87.45" y="-89.2" font-family="Arial" font-size="14.00" fill="#666666">[varchar(256)]</text>
<polygon fill="none" stroke="black" points="46.2,-46.2 46.2,-77 355.61,-77 355.61,-46.2 46.2,-46.2"/>
<text text-anchor="start" x="53.2" y="-58.4" font-family="Arial" font-size="14.00">createdDate </text>
<text text-anchor="start" x="133.36" y="-58.4" font-family="Arial" font-size="14.00" fill="#666666">[datetime]</text>
<polygon fill="none" stroke="black" stroke-width="3" points="44.7,-44.7 44.7,-175.7 357.11,-175.7 357.11,-44.7 44.7,-44.7"/>
</g>
<!-- transfer -->
<g id="node2" class="node">
<title>transfer</title>
<polygon fill="#efefef" stroke="none" points="104.18,-484.4 104.18,-520 297.63,-520 297.63,-484.4 104.18,-484.4"/>
<polygon fill="none" stroke="black" points="104.18,-484.4 104.18,-520 297.63,-520 297.63,-484.4 104.18,-484.4"/>
<text text-anchor="start" x="111.18" y="-497.8" font-family="Arial Bold" font-size="18.00">transfer</text>
<text text-anchor="start" x="166.14" y="-497.8" font-family="Arial" font-size="14.00">    </text>
<text text-anchor="start" x="197.26" y="-497.8" font-family="Arial" font-size="14.00" fill="#666666">[BASE TABLE]</text>
<polygon fill="none" stroke="black" points="104.18,-453.6 104.18,-484.4 297.63,-484.4 297.63,-453.6 104.18,-453.6"/>
<text text-anchor="start" x="111.18" y="-465.8" font-family="Arial" font-size="14.00">transferId </text>
<text text-anchor="start" x="174.2" y="-465.8" font-family="Arial" font-size="14.00" fill="#666666">[varchar(36)]</text>
<polygon fill="none" stroke="black" points="104.18,-422.8 104.18,-453.6 297.63,-453.6 297.63,-422.8 104.18,-422.8"/>
<text text-anchor="start" x="111.18" y="-435" font-family="Arial" font-size="14.00">amount </text>
<text text-anchor="start" x="161.76" y="-435" font-family="Arial" font-size="14.00" fill="#666666">[decimal(18,4)]</text>
<polygon fill="none" stroke="black" points="104.18,-392 104.18,-422.8 297.63,-422.8 297.63,-392 104.18,-392"/>
<text text-anchor="start" x="111.18" y="-404.2" font-family="Arial" font-size="14.00">currencyId </text>
<text text-anchor="start" x="180.43" y="-404.2" font-family="Arial" font-size="14.00" fill="#666666">[varchar(3)]</text>
<polygon fill="none" stroke="black" points="104.18,-361.2 104.18,-392 297.63,-392 297.63,-361.2 104.18,-361.2"/>
<text text-anchor="start" x="111.18" y="-373.4" font-family="Arial" font-size="14.00">ilpCondition </text>
<text text-anchor="start" x="188.22" y="-373.4" font-family="Arial" font-size="14.00" fill="#666666">[varchar(256)]</text>
<polygon fill="none" stroke="black" points="104.18,-330.4 104.18,-361.2 297.63,-361.2 297.63,-330.4 104.18,-330.4"/>
<text text-anchor="start" x="111.18" y="-342.6" font-family="Arial" font-size="14.00">expirationDate </text>
<text text-anchor="start" x="205.34" y="-342.6" font-family="Arial" font-size="14.00" fill="#666666">[datetime]</text>
<polygon fill="none" stroke="black" points="104.18,-299.6 104.18,-330.4 297.63,-330.4 297.63,-299.6 104.18,-299.6"/>
<text text-anchor="start" x="111.18" y="-311.8" font-family="Arial" font-size="14.00">createdDate </text>
<text text-anchor="start" x="191.34" y="-311.8" font-family="Arial" font-size="14.00" fill="#666666">[datetime]</text>
</g>
<!-- transfer&#45;&gt;transferDuplicateCheck -->
<g id="edge1" class="edge">
<title>transfer:transferId&#45;&gt;transferDuplicateCheck:transferId</title>
<path fill="none" stroke="black" d="M308.56,-467.14C381.28,-439.92 431.18,-123.2 356.61,-123.2"/>
<polygon fill="black" stroke="black" points="308.79,-467.1 298.13,-464.52 303.55,-468.08 299.29,-468.88 299.29,-468.88 299.29,-468.88 303.55,-468.08 299.79,-473.36 308.79,-467.1"/>
<text text-anchor="start" x="305.63" y="-479" font-family="Arial" font-size="10.00">FOREIGN KEY (transferId) REFERENCES transferDuplicateCheck (transferId)</text>
</g>
</g>
</svg>
