<?xml version="1.0" encoding="UTF-8" standalone="no"?>
<!DOCTYPE svg PUBLIC "-//W3C//DTD SVG 1.1//EN"
 "http://www.w3.org/Graphics/SVG/1.1/DTD/svg11.dtd">
<!-- Generated by graphviz version 12.1.2 (20240928.0832)
 -->
<!-- Title: currency Pages: 1 -->
<svg width="485pt" height="448pt"
 viewBox="0.00 0.00 484.94 448.00" xmlns="http://www.w3.org/2000/svg" xmlns:xlink="http://www.w3.org/1999/xlink">
<g id="graph0" class="graph" transform="scale(1 1) rotate(0) translate(4 444)">
<title>currency</title>
<polygon fill="white" stroke="none" points="-4,4 -4,-444 480.94,-444 480.94,4 -4,4"/>
<!-- currency -->
<g id="node1" class="node">
<title>currency</title>
<polygon fill="#efefef" stroke="none" points="206.11,-77 206.11,-112.6 407.56,-112.6 407.56,-77 206.11,-77"/>
<polygon fill="none" stroke="black" points="206.11,-77 206.11,-112.6 407.56,-112.6 407.56,-77 206.11,-77"/>
<text text-anchor="start" x="213.11" y="-90.4" font-family="Arial Bold" font-size="18.00">currency</text>
<text text-anchor="start" x="276.07" y="-90.4" font-family="Arial" font-size="14.00">    </text>
<text text-anchor="start" x="307.19" y="-90.4" font-family="Arial" font-size="14.00" fill="#666666">[BASE TABLE]</text>
<polygon fill="none" stroke="black" points="206.11,-46.2 206.11,-77 407.56,-77 407.56,-46.2 206.11,-46.2"/>
<text text-anchor="start" x="213.11" y="-58.4" font-family="Arial" font-size="14.00">currencyId </text>
<text text-anchor="start" x="282.36" y="-58.4" font-family="Arial" font-size="14.00" fill="#666666">[varchar(3)]</text>
<polygon fill="none" stroke="black" stroke-width="3" points="204.61,-44.7 204.61,-114.1 409.06,-114.1 409.06,-44.7 204.61,-44.7"/>
</g>
<!-- oracleEndpoint -->
<g id="node2" class="node">
<title>oracleEndpoint</title>
<polygon fill="#efefef" stroke="none" points="182.61,-361.2 182.61,-396.8 431.06,-396.8 431.06,-361.2 182.61,-361.2"/>
<polygon fill="none" stroke="black" points="182.61,-361.2 182.61,-396.8 431.06,-396.8 431.06,-361.2 182.61,-361.2"/>
<text text-anchor="start" x="189.61" y="-374.6" font-family="Arial Bold" font-size="18.00">oracleEndpoint</text>
<text text-anchor="start" x="299.57" y="-374.6" font-family="Arial" font-size="14.00">    </text>
<text text-anchor="start" x="330.69" y="-374.6" font-family="Arial" font-size="14.00" fill="#666666">[BASE TABLE]</text>
<polygon fill="none" stroke="black" points="182.61,-330.4 182.61,-361.2 431.06,-361.2 431.06,-330.4 182.61,-330.4"/>
<text text-anchor="start" x="189.61" y="-342.6" font-family="Arial" font-size="14.00">oracleEndpointId </text>
<text text-anchor="start" x="298.58" y="-342.6" font-family="Arial" font-size="14.00" fill="#666666">[int unsigned]</text>
<polygon fill="none" stroke="black" points="182.61,-299.6 182.61,-330.4 431.06,-330.4 431.06,-299.6 182.61,-299.6"/>
<text text-anchor="start" x="189.61" y="-311.8" font-family="Arial" font-size="14.00">partyIdTypeId </text>
<text text-anchor="start" x="279.1" y="-311.8" font-family="Arial" font-size="14.00" fill="#666666">[int unsigned]</text>
<polygon fill="none" stroke="black" points="182.61,-268.8 182.61,-299.6 431.06,-299.6 431.06,-268.8 182.61,-268.8"/>
<text text-anchor="start" x="189.61" y="-281" font-family="Arial" font-size="14.00">endpointTypeId </text>
<text text-anchor="start" x="290.02" y="-281" font-family="Arial" font-size="14.00" fill="#666666">[int unsigned]</text>
<polygon fill="none" stroke="black" points="182.61,-238 182.61,-268.8 431.06,-268.8 431.06,-238 182.61,-238"/>
<text text-anchor="start" x="189.61" y="-250.2" font-family="Arial" font-size="14.00">currencyId </text>
<text text-anchor="start" x="258.86" y="-250.2" font-family="Arial" font-size="14.00" fill="#666666">[varchar(255)]</text>
</g>
<!-- oracleEndpoint&#45;&gt;currency -->
<g id="edge1" class="edge">
<title>oracleEndpoint:currencyId&#45;&gt;currency:currencyId</title>
<path fill="none" stroke="black" d="M307.66,-226.73C317.71,-168.72 417.61,-218.99 453.76,-158.8 479.53,-115.9 489.03,-81.71 453.76,-46.2 407.74,0.13 306.84,20.1 306.84,-45.2"/>
<polygon fill="black" stroke="black" points="307.66,-226.7 302.38,-236.31 307.23,-232.02 306.89,-236.33 306.89,-236.33 306.89,-236.33 307.23,-232.02 311.35,-237.02 307.66,-226.7"/>
<text text-anchor="start" x="7" y="-221" font-family="Arial" font-size="10.00">FOREIGN KEY (currencyId) REFERENCES currency (currencyId)</text>
</g>
</g>
</svg>
