<?xml version="1.0" encoding="UTF-8" standalone="no"?>
<!DOCTYPE svg PUBLIC "-//W3C//DTD SVG 1.1//EN"
 "http://www.w3.org/Graphics/SVG/1.1/DTD/svg11.dtd">
<!-- Generated by graphviz version 12.1.2 (20240928.0832)
 -->
<!-- Title: endpointType Pages: 1 -->
<svg width="674pt" height="450pt"
 viewBox="0.00 0.00 674.25 450.16" xmlns="http://www.w3.org/2000/svg" xmlns:xlink="http://www.w3.org/1999/xlink">
<g id="graph0" class="graph" transform="scale(1 1) rotate(0) translate(4 446.16)">
<title>endpointType</title>
<polygon fill="white" stroke="none" points="-4,4 -4,-446.16 670.25,-446.16 670.25,4 -4,4"/>
<!-- endpointType -->
<g id="node1" class="node">
<title>endpointType</title>
<polygon fill="#efefef" stroke="none" points="48.19,-79.16 48.19,-114.76 286.66,-114.76 286.66,-79.16 48.19,-79.16"/>
<polygon fill="none" stroke="black" points="48.19,-79.16 48.19,-114.76 286.66,-114.76 286.66,-79.16 48.19,-79.16"/>
<text text-anchor="start" x="55.19" y="-92.56" font-family="Arial Bold" font-size="18.00">endpointType</text>
<text text-anchor="start" x="155.17" y="-92.56" font-family="Arial" font-size="14.00">    </text>
<text text-anchor="start" x="186.28" y="-92.56" font-family="Arial" font-size="14.00" fill="#666666">[BASE TABLE]</text>
<polygon fill="none" stroke="black" points="48.19,-48.36 48.19,-79.16 286.66,-79.16 286.66,-48.36 48.19,-48.36"/>
<text text-anchor="start" x="55.19" y="-60.56" font-family="Arial" font-size="14.00">endpointTypeId </text>
<text text-anchor="start" x="155.6" y="-60.56" font-family="Arial" font-size="14.00" fill="#666666">[int unsigned]</text>
<polygon fill="none" stroke="black" stroke-width="3" points="46.69,-46.86 46.69,-116.26 288.16,-116.26 288.16,-46.86 46.69,-46.86"/>
</g>
<!-- oracleEndpoint -->
<g id="node2" class="node">
<title>oracleEndpoint</title>
<polygon fill="#efefef" stroke="none" points="43.2,-363.36 43.2,-398.96 291.65,-398.96 291.65,-363.36 43.2,-363.36"/>
<polygon fill="none" stroke="black" points="43.2,-363.36 43.2,-398.96 291.65,-398.96 291.65,-363.36 43.2,-363.36"/>
<text text-anchor="start" x="50.2" y="-376.76" font-family="Arial Bold" font-size="18.00">oracleEndpoint</text>
<text text-anchor="start" x="160.16" y="-376.76" font-family="Arial" font-size="14.00">    </text>
<text text-anchor="start" x="191.28" y="-376.76" font-family="Arial" font-size="14.00" fill="#666666">[BASE TABLE]</text>
<polygon fill="none" stroke="black" points="43.2,-332.56 43.2,-363.36 291.65,-363.36 291.65,-332.56 43.2,-332.56"/>
<text text-anchor="start" x="50.2" y="-344.76" font-family="Arial" font-size="14.00">oracleEndpointId </text>
<text text-anchor="start" x="159.16" y="-344.76" font-family="Arial" font-size="14.00" fill="#666666">[int unsigned]</text>
<polygon fill="none" stroke="black" points="43.2,-301.76 43.2,-332.56 291.65,-332.56 291.65,-301.76 43.2,-301.76"/>
<text text-anchor="start" x="50.2" y="-313.96" font-family="Arial" font-size="14.00">partyIdTypeId </text>
<text text-anchor="start" x="139.69" y="-313.96" font-family="Arial" font-size="14.00" fill="#666666">[int unsigned]</text>
<polygon fill="none" stroke="black" points="43.2,-270.96 43.2,-301.76 291.65,-301.76 291.65,-270.96 43.2,-270.96"/>
<text text-anchor="start" x="50.2" y="-283.16" font-family="Arial" font-size="14.00">endpointTypeId </text>
<text text-anchor="start" x="150.61" y="-283.16" font-family="Arial" font-size="14.00" fill="#666666">[int unsigned]</text>
<polygon fill="none" stroke="black" points="43.2,-240.16 43.2,-270.96 291.65,-270.96 291.65,-240.16 43.2,-240.16"/>
<text text-anchor="start" x="50.2" y="-252.36" font-family="Arial" font-size="14.00">currencyId </text>
<text text-anchor="start" x="119.45" y="-252.36" font-family="Arial" font-size="14.00" fill="#666666">[varchar(255)]</text>
</g>
<!-- oracleEndpoint&#45;&gt;endpointType -->
<g id="edge1" class="edge">
<title>oracleEndpoint:endpointTypeId&#45;&gt;endpointType:endpointTypeId</title>
<path fill="none" stroke="black" d="M302.65,-283.96C349.17,-261.26 368.23,-83.95 332.86,-48.36 281.02,3.79 167.42,26.17 167.42,-47.36"/>
<polygon fill="black" stroke="black" points="302.7,-283.95 291.93,-281.9 297.51,-285.19 293.3,-286.2 293.3,-286.2 293.3,-286.2 297.51,-285.19 294.02,-290.66 302.7,-283.95"/>
<text text-anchor="start" x="299.65" y="-296.36" font-family="Arial" font-size="10.00">FOREIGN KEY (endpointTypeId) REFERENCES endpointType (endpointTypeId)</text>
</g>
</g>
</svg>
