<?xml version="1.0" encoding="UTF-8" standalone="no"?>
<!DOCTYPE svg PUBLIC "-//W3C//DTD SVG 1.1//EN"
 "http://www.w3.org/Graphics/SVG/1.1/DTD/svg11.dtd">
<!-- Generated by graphviz version 12.1.2 (20240928.0832)
 -->
<!-- Title: oracleEndpoint Pages: 1 -->
<svg width="1001pt" height="452pt"
 viewBox="0.00 0.00 1000.76 452.29" xmlns="http://www.w3.org/2000/svg" xmlns:xlink="http://www.w3.org/1999/xlink">
<g id="graph0" class="graph" transform="scale(1 1) rotate(0) translate(4 448.29)">
<title>oracleEndpoint</title>
<polygon fill="white" stroke="none" points="-4,4 -4,-448.29 996.76,-448.29 996.76,4 -4,4"/>
<!-- oracleEndpoint -->
<g id="node1" class="node">
<title>oracleEndpoint</title>
<polygon fill="#efefef" stroke="none" points="369.7,-362.49 369.7,-398.09 618.15,-398.09 618.15,-362.49 369.7,-362.49"/>
<polygon fill="none" stroke="black" points="369.7,-362.49 369.7,-398.09 618.15,-398.09 618.15,-362.49 369.7,-362.49"/>
<text text-anchor="start" x="376.7" y="-375.89" font-family="Arial Bold" font-size="18.00">oracleEndpoint</text>
<text text-anchor="start" x="486.66" y="-375.89" font-family="Arial" font-size="14.00">    </text>
<text text-anchor="start" x="517.78" y="-375.89" font-family="Arial" font-size="14.00" fill="#666666">[BASE TABLE]</text>
<polygon fill="none" stroke="black" points="369.7,-331.69 369.7,-362.49 618.15,-362.49 618.15,-331.69 369.7,-331.69"/>
<text text-anchor="start" x="376.7" y="-343.89" font-family="Arial" font-size="14.00">oracleEndpointId </text>
<text text-anchor="start" x="485.67" y="-343.89" font-family="Arial" font-size="14.00" fill="#666666">[int unsigned]</text>
<polygon fill="none" stroke="black" points="369.7,-300.89 369.7,-331.69 618.15,-331.69 618.15,-300.89 369.7,-300.89"/>
<text text-anchor="start" x="376.7" y="-313.09" font-family="Arial" font-size="14.00">partyIdTypeId </text>
<text text-anchor="start" x="466.19" y="-313.09" font-family="Arial" font-size="14.00" fill="#666666">[int unsigned]</text>
<polygon fill="none" stroke="black" points="369.7,-270.09 369.7,-300.89 618.15,-300.89 618.15,-270.09 369.7,-270.09"/>
<text text-anchor="start" x="376.7" y="-282.29" font-family="Arial" font-size="14.00">endpointTypeId </text>
<text text-anchor="start" x="477.11" y="-282.29" font-family="Arial" font-size="14.00" fill="#666666">[int unsigned]</text>
<polygon fill="none" stroke="black" points="369.7,-239.29 369.7,-270.09 618.15,-270.09 618.15,-239.29 369.7,-239.29"/>
<text text-anchor="start" x="376.7" y="-251.49" font-family="Arial" font-size="14.00">currencyId </text>
<text text-anchor="start" x="445.95" y="-251.49" font-family="Arial" font-size="14.00" fill="#666666">[varchar(255)]</text>
<polygon fill="none" stroke="black" stroke-width="3" points="368.2,-237.79 368.2,-399.59 619.65,-399.59 619.65,-237.79 368.2,-237.79"/>
</g>
<!-- partyIdType -->
<g id="node2" class="node">
<title>partyIdType</title>
<polygon fill="#efefef" stroke="none" points="43.2,-78.29 43.2,-113.89 270.65,-113.89 270.65,-78.29 43.2,-78.29"/>
<polygon fill="none" stroke="black" points="43.2,-78.29 43.2,-113.89 270.65,-113.89 270.65,-78.29 43.2,-78.29"/>
<text text-anchor="start" x="50.2" y="-91.69" font-family="Arial Bold" font-size="18.00">partyIdType</text>
<text text-anchor="start" x="139.16" y="-91.69" font-family="Arial" font-size="14.00">    </text>
<text text-anchor="start" x="170.28" y="-91.69" font-family="Arial" font-size="14.00" fill="#666666">[BASE TABLE]</text>
<polygon fill="none" stroke="black" points="43.2,-47.49 43.2,-78.29 270.65,-78.29 270.65,-47.49 43.2,-47.49"/>
<text text-anchor="start" x="50.2" y="-59.69" font-family="Arial" font-size="14.00">partyIdTypeId </text>
<text text-anchor="start" x="139.69" y="-59.69" font-family="Arial" font-size="14.00" fill="#666666">[int unsigned]</text>
</g>
<!-- oracleEndpoint&#45;&gt;partyIdType -->
<g id="edge1" class="edge">
<title>oracleEndpoint:partyIdTypeId&#45;&gt;partyIdType:partyIdTypeId</title>
<path fill="none" stroke="black" d="M358.63,-313.62C310.95,-286.54 328.3,-62.89 271.65,-62.89"/>
<polygon fill="black" stroke="black" points="358.71,-313.64 367.22,-320.56 363.87,-315.01 368.05,-316.12 368.05,-316.12 368.05,-316.12 363.87,-315.01 369.53,-311.86 358.71,-313.64"/>
<text text-anchor="start" x="25.49" y="-326.29" font-family="Arial" font-size="10.00">FOREIGN KEY (partyIdTypeId) REFERENCES partyIdType (partyIdTypeId)</text>
</g>
<!-- endpointType -->
<g id="node3" class="node">
<title>endpointType</title>
<polygon fill="#efefef" stroke="none" points="374.69,-78.29 374.69,-113.89 613.16,-113.89 613.16,-78.29 374.69,-78.29"/>
<polygon fill="none" stroke="black" points="374.69,-78.29 374.69,-113.89 613.16,-113.89 613.16,-78.29 374.69,-78.29"/>
<text text-anchor="start" x="381.69" y="-91.69" font-family="Arial Bold" font-size="18.00">endpointType</text>
<text text-anchor="start" x="481.67" y="-91.69" font-family="Arial" font-size="14.00">    </text>
<text text-anchor="start" x="512.79" y="-91.69" font-family="Arial" font-size="14.00" fill="#666666">[BASE TABLE]</text>
<polygon fill="none" stroke="black" points="374.69,-47.49 374.69,-78.29 613.16,-78.29 613.16,-47.49 374.69,-47.49"/>
<text text-anchor="start" x="381.69" y="-59.69" font-family="Arial" font-size="14.00">endpointTypeId </text>
<text text-anchor="start" x="482.1" y="-59.69" font-family="Arial" font-size="14.00" fill="#666666">[int unsigned]</text>
</g>
<!-- oracleEndpoint&#45;&gt;endpointType -->
<g id="edge2" class="edge">
<title>oracleEndpoint:endpointTypeId&#45;&gt;endpointType:endpointTypeId</title>
<path fill="none" stroke="black" d="M627.33,-279.15C651.37,-243.07 673.31,-64.55 656.36,-47.49 605.47,3.71 493.93,25.7 493.93,-46.49"/>
<polygon fill="black" stroke="black" points="627.32,-279.16 616.66,-281.73 623.1,-282.43 619.68,-285.08 619.68,-285.08 619.68,-285.08 623.1,-282.43 622.17,-288.85 627.32,-279.16"/>
<text text-anchor="start" x="626.15" y="-295.49" font-family="Arial" font-size="10.00">FOREIGN KEY (endpointTypeId) REFERENCES endpointType (endpointTypeId)</text>
</g>
<!-- currency -->
<g id="node4" class="node">
<title>currency</title>
<polygon fill="#efefef" stroke="none" points="717.2,-78.29 717.2,-113.89 918.65,-113.89 918.65,-78.29 717.2,-78.29"/>
<polygon fill="none" stroke="black" points="717.2,-78.29 717.2,-113.89 918.65,-113.89 918.65,-78.29 717.2,-78.29"/>
<text text-anchor="start" x="724.2" y="-91.69" font-family="Arial Bold" font-size="18.00">currency</text>
<text text-anchor="start" x="787.16" y="-91.69" font-family="Arial" font-size="14.00">    </text>
<text text-anchor="start" x="818.28" y="-91.69" font-family="Arial" font-size="14.00" fill="#666666">[BASE TABLE]</text>
<polygon fill="none" stroke="black" points="717.2,-47.49 717.2,-78.29 918.65,-78.29 918.65,-47.49 717.2,-47.49"/>
<text text-anchor="start" x="724.2" y="-59.69" font-family="Arial" font-size="14.00">currencyId </text>
<text text-anchor="start" x="793.45" y="-59.69" font-family="Arial" font-size="14.00" fill="#666666">[varchar(3)]</text>
</g>
<!-- oracleEndpoint&#45;&gt;currency -->
<g id="edge3" class="edge">
<title>oracleEndpoint:currencyId&#45;&gt;currency:currencyId</title>
<path fill="none" stroke="black" d="M629.5,-253.84C707.63,-240 624.4,-62.89 716.2,-62.89"/>
<polygon fill="black" stroke="black" points="629.45,-253.84 619.11,-250.18 624.13,-254.28 619.82,-254.64 619.82,-254.64 619.82,-254.64 624.13,-254.28 619.85,-259.15 629.45,-253.84"/>
<text text-anchor="start" x="626.15" y="-264.69" font-family="Arial" font-size="10.00">FOREIGN KEY (currencyId) REFERENCES currency (currencyId)</text>
</g>
</g>
</svg>
