<?xml version="1.0" encoding="UTF-8" standalone="no"?>
<!DOCTYPE svg PUBLIC "-//W3C//DTD SVG 1.1//EN"
 "http://www.w3.org/Graphics/SVG/1.1/DTD/svg11.dtd">
<!-- Generated by graphviz version 12.1.2 (20240928.0832)
 -->
<!-- Title: partyIdType Pages: 1 -->
<svg width="651pt" height="449pt"
 viewBox="0.00 0.00 650.86 448.57" xmlns="http://www.w3.org/2000/svg" xmlns:xlink="http://www.w3.org/1999/xlink">
<g id="graph0" class="graph" transform="scale(1 1) rotate(0) translate(4 444.57)">
<title>partyIdType</title>
<polygon fill="white" stroke="none" points="-4,4 -4,-444.57 646.86,-444.57 646.86,4 -4,4"/>
<!-- partyIdType -->
<g id="node1" class="node">
<title>partyIdType</title>
<polygon fill="#efefef" stroke="none" points="53.7,-77.57 53.7,-113.17 281.15,-113.17 281.15,-77.57 53.7,-77.57"/>
<polygon fill="none" stroke="black" points="53.7,-77.57 53.7,-113.17 281.15,-113.17 281.15,-77.57 53.7,-77.57"/>
<text text-anchor="start" x="60.7" y="-90.97" font-family="Arial Bold" font-size="18.00">partyIdType</text>
<text text-anchor="start" x="149.66" y="-90.97" font-family="Arial" font-size="14.00">    </text>
<text text-anchor="start" x="180.78" y="-90.97" font-family="Arial" font-size="14.00" fill="#666666">[BASE TABLE]</text>
<polygon fill="none" stroke="black" points="53.7,-46.77 53.7,-77.57 281.15,-77.57 281.15,-46.77 53.7,-46.77"/>
<text text-anchor="start" x="60.7" y="-58.97" font-family="Arial" font-size="14.00">partyIdTypeId </text>
<text text-anchor="start" x="150.19" y="-58.97" font-family="Arial" font-size="14.00" fill="#666666">[int unsigned]</text>
<polygon fill="none" stroke="black" stroke-width="3" points="52.2,-45.27 52.2,-114.67 282.65,-114.67 282.65,-45.27 52.2,-45.27"/>
</g>
<!-- oracleEndpoint -->
<g id="node2" class="node">
<title>oracleEndpoint</title>
<polygon fill="#efefef" stroke="none" points="43.2,-361.77 43.2,-397.37 291.65,-397.37 291.65,-361.77 43.2,-361.77"/>
<polygon fill="none" stroke="black" points="43.2,-361.77 43.2,-397.37 291.65,-397.37 291.65,-361.77 43.2,-361.77"/>
<text text-anchor="start" x="50.2" y="-375.17" font-family="Arial Bold" font-size="18.00">oracleEndpoint</text>
<text text-anchor="start" x="160.16" y="-375.17" font-family="Arial" font-size="14.00">    </text>
<text text-anchor="start" x="191.28" y="-375.17" font-family="Arial" font-size="14.00" fill="#666666">[BASE TABLE]</text>
<polygon fill="none" stroke="black" points="43.2,-330.97 43.2,-361.77 291.65,-361.77 291.65,-330.97 43.2,-330.97"/>
<text text-anchor="start" x="50.2" y="-343.17" font-family="Arial" font-size="14.00">oracleEndpointId </text>
<text text-anchor="start" x="159.16" y="-343.17" font-family="Arial" font-size="14.00" fill="#666666">[int unsigned]</text>
<polygon fill="none" stroke="black" points="43.2,-300.17 43.2,-330.97 291.65,-330.97 291.65,-300.17 43.2,-300.17"/>
<text text-anchor="start" x="50.2" y="-312.37" font-family="Arial" font-size="14.00">partyIdTypeId </text>
<text text-anchor="start" x="139.69" y="-312.37" font-family="Arial" font-size="14.00" fill="#666666">[int unsigned]</text>
<polygon fill="none" stroke="black" points="43.2,-269.37 43.2,-300.17 291.65,-300.17 291.65,-269.37 43.2,-269.37"/>
<text text-anchor="start" x="50.2" y="-281.57" font-family="Arial" font-size="14.00">endpointTypeId </text>
<text text-anchor="start" x="150.61" y="-281.57" font-family="Arial" font-size="14.00" fill="#666666">[int unsigned]</text>
<polygon fill="none" stroke="black" points="43.2,-238.57 43.2,-269.37 291.65,-269.37 291.65,-238.57 43.2,-238.57"/>
<text text-anchor="start" x="50.2" y="-250.77" font-family="Arial" font-size="14.00">currencyId </text>
<text text-anchor="start" x="119.45" y="-250.77" font-family="Arial" font-size="14.00" fill="#666666">[varchar(255)]</text>
</g>
<!-- oracleEndpoint&#45;&gt;partyIdType -->
<g id="edge1" class="edge">
<title>oracleEndpoint:partyIdTypeId&#45;&gt;partyIdType:partyIdTypeId</title>
<path fill="none" stroke="black" d="M302.79,-313.32C354.66,-289.71 367.32,-86.99 327.35,-46.77 277.25,3.65 167.42,25.31 167.42,-45.77"/>
<polygon fill="black" stroke="black" points="302.74,-313.33 292,-311.1 297.53,-314.49 293.3,-315.43 293.3,-315.43 293.3,-315.43 297.53,-314.49 293.95,-319.89 302.74,-313.33"/>
<text text-anchor="start" x="299.65" y="-325.57" font-family="Arial" font-size="10.00">FOREIGN KEY (partyIdTypeId) REFERENCES partyIdType (partyIdTypeId)</text>
</g>
</g>
</svg>
