<?xml version="1.0" encoding="UTF-8" standalone="no"?>
<!DOCTYPE svg PUBLIC "-//W3C//DTD SVG 1.1//EN"
 "http://www.w3.org/Graphics/SVG/1.1/DTD/svg11.dtd">
<!-- Generated by graphviz version 12.1.2 (20240928.0832)
 -->
<!-- Title: account_lookup Pages: 1 -->
<svg width="1309pt" height="446pt"
 viewBox="0.00 0.00 1309.36 446.29" xmlns="http://www.w3.org/2000/svg" xmlns:xlink="http://www.w3.org/1999/xlink">
<g id="graph0" class="graph" transform="scale(1 1) rotate(0) translate(4 442.29)">
<title>account_lookup</title>
<polygon fill="white" stroke="none" points="-4,4 -4,-442.29 1305.36,-442.29 1305.36,4 -4,4"/>
<!-- currency -->
<g id="node1" class="node">
<title>currency</title>
<polygon fill="#efefef" stroke="none" points="43.2,-78.29 43.2,-113.89 244.65,-113.89 244.65,-78.29 43.2,-78.29"/>
<polygon fill="none" stroke="black" points="43.2,-78.29 43.2,-113.89 244.65,-113.89 244.65,-78.29 43.2,-78.29"/>
<text text-anchor="start" x="50.2" y="-91.69" font-family="Arial Bold" font-size="18.00">currency</text>
<text text-anchor="start" x="113.16" y="-91.69" font-family="Arial" font-size="14.00">    </text>
<text text-anchor="start" x="144.27" y="-91.69" font-family="Arial" font-size="14.00" fill="#666666">[BASE TABLE]</text>
<polygon fill="none" stroke="black" points="43.2,-47.49 43.2,-78.29 244.65,-78.29 244.65,-47.49 43.2,-47.49"/>
<text text-anchor="start" x="50.2" y="-59.69" font-family="Arial" font-size="14.00">currencyId </text>
<text text-anchor="start" x="119.45" y="-59.69" font-family="Arial" font-size="14.00" fill="#666666">[varchar(3)]</text>
</g>
<!-- endpointType -->
<g id="node2" class="node">
<title>endpointType</title>
<polygon fill="#efefef" stroke="none" points="348.69,-78.29 348.69,-113.89 587.16,-113.89 587.16,-78.29 348.69,-78.29"/>
<polygon fill="none" stroke="black" points="348.69,-78.29 348.69,-113.89 587.16,-113.89 587.16,-78.29 348.69,-78.29"/>
<text text-anchor="start" x="355.69" y="-91.69" font-family="Arial Bold" font-size="18.00">endpointType</text>
<text text-anchor="start" x="455.67" y="-91.69" font-family="Arial" font-size="14.00">    </text>
<text text-anchor="start" x="486.78" y="-91.69" font-family="Arial" font-size="14.00" fill="#666666">[BASE TABLE]</text>
<polygon fill="none" stroke="black" points="348.69,-47.49 348.69,-78.29 587.16,-78.29 587.16,-47.49 348.69,-47.49"/>
<text text-anchor="start" x="355.69" y="-59.69" font-family="Arial" font-size="14.00">endpointTypeId </text>
<text text-anchor="start" x="456.1" y="-59.69" font-family="Arial" font-size="14.00" fill="#666666">[int unsigned]</text>
</g>
<!-- migration -->
<g id="node3" class="node">
<title>migration</title>
<polygon fill="#efefef" stroke="none" points="696.68,-313.29 696.68,-348.89 905.16,-348.89 905.16,-313.29 696.68,-313.29"/>
<polygon fill="none" stroke="black" points="696.68,-313.29 696.68,-348.89 905.16,-348.89 905.16,-313.29 696.68,-313.29"/>
<text text-anchor="start" x="703.68" y="-326.69" font-family="Arial Bold" font-size="18.00">migration</text>
<text text-anchor="start" x="773.67" y="-326.69" font-family="Arial" font-size="14.00">    </text>
<text text-anchor="start" x="804.79" y="-326.69" font-family="Arial" font-size="14.00" fill="#666666">[BASE TABLE]</text>
<polygon fill="none" stroke="black" points="696.68,-282.49 696.68,-313.29 905.16,-313.29 905.16,-282.49 696.68,-282.49"/>
<text text-anchor="start" x="703.68" y="-294.69" font-family="Arial" font-size="14.00">id </text>
<text text-anchor="start" x="718.47" y="-294.69" font-family="Arial" font-size="14.00" fill="#666666">[int unsigned]</text>
</g>
<!-- migration_lock -->
<g id="node4" class="node">
<title>migration_lock</title>
<polygon fill="#efefef" stroke="none" points="1009.69,-313.29 1009.69,-348.89 1258.16,-348.89 1258.16,-313.29 1009.69,-313.29"/>
<polygon fill="none" stroke="black" points="1009.69,-313.29 1009.69,-348.89 1258.16,-348.89 1258.16,-313.29 1009.69,-313.29"/>
<text text-anchor="start" x="1016.69" y="-326.69" font-family="Arial Bold" font-size="18.00">migration_lock</text>
<text text-anchor="start" x="1126.67" y="-326.69" font-family="Arial" font-size="14.00">    </text>
<text text-anchor="start" x="1157.78" y="-326.69" font-family="Arial" font-size="14.00" fill="#666666">[BASE TABLE]</text>
<polygon fill="none" stroke="black" points="1009.69,-282.49 1009.69,-313.29 1258.16,-313.29 1258.16,-282.49 1009.69,-282.49"/>
<text text-anchor="start" x="1016.69" y="-294.69" font-family="Arial" font-size="14.00">index </text>
<text text-anchor="start" x="1054.05" y="-294.69" font-family="Arial" font-size="14.00" fill="#666666">[int unsigned]</text>
</g>
<!-- oracleEndpoint -->
<g id="node5" class="node">
<title>oracleEndpoint</title>
<polygon fill="#efefef" stroke="none" points="343.7,-359.49 343.7,-395.09 592.15,-395.09 592.15,-359.49 343.7,-359.49"/>
<polygon fill="none" stroke="black" points="343.7,-359.49 343.7,-395.09 592.15,-395.09 592.15,-359.49 343.7,-359.49"/>
<text text-anchor="start" x="350.7" y="-372.89" font-family="Arial Bold" font-size="18.00">oracleEndpoint</text>
<text text-anchor="start" x="460.66" y="-372.89" font-family="Arial" font-size="14.00">    </text>
<text text-anchor="start" x="491.78" y="-372.89" font-family="Arial" font-size="14.00" fill="#666666">[BASE TABLE]</text>
<polygon fill="none" stroke="black" points="343.7,-328.69 343.7,-359.49 592.15,-359.49 592.15,-328.69 343.7,-328.69"/>
<text text-anchor="start" x="350.7" y="-340.89" font-family="Arial" font-size="14.00">oracleEndpointId </text>
<text text-anchor="start" x="459.66" y="-340.89" font-family="Arial" font-size="14.00" fill="#666666">[int unsigned]</text>
<polygon fill="none" stroke="black" points="343.7,-297.89 343.7,-328.69 592.15,-328.69 592.15,-297.89 343.7,-297.89"/>
<text text-anchor="start" x="350.7" y="-310.09" font-family="Arial" font-size="14.00">partyIdTypeId </text>
<text text-anchor="start" x="440.19" y="-310.09" font-family="Arial" font-size="14.00" fill="#666666">[int unsigned]</text>
<polygon fill="none" stroke="black" points="343.7,-267.09 343.7,-297.89 592.15,-297.89 592.15,-267.09 343.7,-267.09"/>
<text text-anchor="start" x="350.7" y="-279.29" font-family="Arial" font-size="14.00">endpointTypeId </text>
<text text-anchor="start" x="451.1" y="-279.29" font-family="Arial" font-size="14.00" fill="#666666">[int unsigned]</text>
<polygon fill="none" stroke="black" points="343.7,-236.29 343.7,-267.09 592.15,-267.09 592.15,-236.29 343.7,-236.29"/>
<text text-anchor="start" x="350.7" y="-248.49" font-family="Arial" font-size="14.00">currencyId </text>
<text text-anchor="start" x="419.95" y="-248.49" font-family="Arial" font-size="14.00" fill="#666666">[varchar(255)]</text>
</g>
<!-- oracleEndpoint&#45;&gt;currency -->
<g id="edge1" class="edge">
<title>oracleEndpoint:currencyId&#45;&gt;currency:currencyId</title>
<path fill="none" stroke="black" d="M332.47,-250.85C255.23,-237.23 336.31,-62.89 245.65,-62.89"/>
<polygon fill="black" stroke="black" points="332.4,-250.85 342,-256.15 337.71,-251.28 342.03,-251.64 342.03,-251.64 342.03,-251.64 337.71,-251.28 342.73,-247.18 332.4,-250.85"/>
<text text-anchor="start" x="42.86" y="-261.69" font-family="Arial" font-size="10.00">FOREIGN KEY (currencyId) REFERENCES currency (currencyId)</text>
</g>
<!-- oracleEndpoint&#45;&gt;endpointType -->
<g id="edge2" class="edge">
<title>oracleEndpoint:endpointTypeId&#45;&gt;endpointType:endpointTypeId</title>
<path fill="none" stroke="black" d="M601.24,-276.23C625.06,-240.6 647.1,-64.34 630.36,-47.49 579.46,3.71 467.92,25.7 467.92,-46.49"/>
<polygon fill="black" stroke="black" points="601.32,-276.17 590.66,-278.73 597.1,-279.43 593.68,-282.08 593.68,-282.08 593.68,-282.08 597.1,-279.43 596.16,-285.85 601.32,-276.17"/>
<text text-anchor="start" x="226.54" y="-292.49" font-family="Arial" font-size="10.00">FOREIGN KEY (endpointTypeId) REFERENCES endpointType (endpointTypeId)</text>
</g>
<!-- partyIdType -->
<g id="node6" class="node">
<title>partyIdType</title>
<polygon fill="#efefef" stroke="none" points="691.2,-78.29 691.2,-113.89 918.65,-113.89 918.65,-78.29 691.2,-78.29"/>
<polygon fill="none" stroke="black" points="691.2,-78.29 691.2,-113.89 918.65,-113.89 918.65,-78.29 691.2,-78.29"/>
<text text-anchor="start" x="698.2" y="-91.69" font-family="Arial Bold" font-size="18.00">partyIdType</text>
<text text-anchor="start" x="787.16" y="-91.69" font-family="Arial" font-size="14.00">    </text>
<text text-anchor="start" x="818.28" y="-91.69" font-family="Arial" font-size="14.00" fill="#666666">[BASE TABLE]</text>
<polygon fill="none" stroke="black" points="691.2,-47.49 691.2,-78.29 918.65,-78.29 918.65,-47.49 691.2,-47.49"/>
<text text-anchor="start" x="698.2" y="-59.69" font-family="Arial" font-size="14.00">partyIdTypeId </text>
<text text-anchor="start" x="787.69" y="-59.69" font-family="Arial" font-size="14.00" fill="#666666">[int unsigned]</text>
</g>
<!-- oracleEndpoint&#45;&gt;partyIdType -->
<g id="edge3" class="edge">
<title>oracleEndpoint:partyIdTypeId&#45;&gt;partyIdType:partyIdTypeId</title>
<path fill="none" stroke="black" d="M603.12,-310.65C650.42,-283.89 634.13,-62.89 690.2,-62.89"/>
<polygon fill="black" stroke="black" points="603.14,-310.65 592.32,-308.86 597.98,-312.01 593.79,-313.12 593.79,-313.12 593.79,-313.12 597.98,-312.01 594.62,-317.56 603.14,-310.65"/>
<text text-anchor="start" x="249.94" y="-323.29" font-family="Arial" font-size="10.00">FOREIGN KEY (partyIdTypeId) REFERENCES partyIdType (partyIdTypeId)</text>
</g>
</g>
</svg>
